<?xml version="1.0" encoding="UTF-8" standalone="no"?>
<!-- Generator: Adobe Illustrator 21.0.0, SVG Export Plug-In . SVG Version: 6.00 Build 0)  -->

<svg
   xmlns:dc="http://purl.org/dc/elements/1.1/"
   xmlns:cc="http://creativecommons.org/ns#"
   xmlns:rdf="http://www.w3.org/1999/02/22-rdf-syntax-ns#"
   xmlns:svg="http://www.w3.org/2000/svg"
   xmlns="http://www.w3.org/2000/svg"
   xmlns:sodipodi="http://sodipodi.sourceforge.net/DTD/sodipodi-0.dtd"
   xmlns:inkscape="http://www.inkscape.org/namespaces/inkscape"
   version="1.1"
   id="Calque_1"
   x="0px"
   y="0px"
   viewBox="0 0 1062.9921 1062.9922"
   xml:space="preserve"
   inkscape:version="0.91 r13725"
   sodipodi:docname="pieton_cycliste.svg"
   width="300mm"
   height="300mm"><metadata
     id="metadata3365"><rdf:RDF><cc:Work
         rdf:about=""><dc:format>image/svg+xml</dc:format><dc:type
           rdf:resource="http://purl.org/dc/dcmitype/StillImage" /><dc:title>pieton_cycliste</dc:title></cc:Work></rdf:RDF></metadata><defs
     id="defs3363" /><sodipodi:namedview
     pagecolor="#ffffff"
     bordercolor="#666666"
     borderopacity="1"
     objecttolerance="10"
     gridtolerance="10"
     guidetolerance="10"
     inkscape:pageopacity="0"
     inkscape:pageshadow="2"
     inkscape:window-width="1280"
     inkscape:window-height="737"
     id="namedview3361"
     showgrid="false"
     inkscape:zoom="1"
     inkscape:cx="216.23457"
     inkscape:cy="302.40555"
     inkscape:window-x="-8"
     inkscape:window-y="-8"
     inkscape:window-maximized="1"
     inkscape:current-layer="Calque_1"
     inkscape:document-units="mm"
     units="mm" /><style
     type="text/css"
     id="style3337">
	.st0{fill:#40403F;}
	.st1{fill:#FFFFFF;stroke:#000000;stroke-width:0.25;stroke-miterlimit:10;}
</style><title
     id="title3339">pieton_cycliste</title><path
     class="st0"
     d="m 412.43257,643.21172 c -0.39012,4.03144 -0.13004,7.93283 0.52016,11.96427 1.56046,7.67273 8.71261,26.26936 8.71261,26.26936 0,0 -12.61379,3.25116 -22.36671,9.75347 -9.75293,6.50232 -30.55918,35.76281 -52.66581,47.46698 0,0 26.78804,-26.52945 40.96229,-49.28762 2.60078,-5.20186 -6.89207,-3.38121 -15.08453,-1.69061 -4.52237,0.98133 -12.68407,2.45259 -22.52875,4.7261 4.48937,-4.75944 9.04176,-8.77835 13.07798,-18.86223 13.54062,-4.62464 27.4833,-9.5646 38.8396,-16.03462 l -4.03121,-10.14361 c -0.91028,-3.25116 -0.13004,-6.76241 2.3407,-9.10325 3.25098,-3.25115 18.46554,-13.91495 16.90508,-8.19292 -1.56047,5.72204 -3.77114,5.72204 -4.68141,13.13468 m -94.93467,58.68837 c -11.84435,4.39916 -23.39522,10.0308 -32.37355,17.25876 -12.04173,9.69414 -19.70679,17.49254 -24.4666,23.07251 l -1.97607,-9.05098 c 11.10765,-9.85921 27.29055,-22.22858 46.54404,-33.77535 -2.3534,-6.6217 -7.00852,-31.51042 -9.34922,-33.72121 -5.3316,-5.59199 -14.83226,-10.2385 -16.64891,-16.23821 0,0 10.53707,7.00492 17.68922,8.95562 5.07152,1.43051 10.013,3.25116 14.95449,5.20185 0,0 -5.85176,0 -5.85176,3.6413 0,3.6413 5.79192,28.32395 5.79192,28.32395 5.57343,-3.18212 11.36486,-6.25594 17.33514,-9.16338 0.28002,-0.13636 -0.45605,-0.0956 -0.17525,-0.2312 z m -54.994,50.8229 c 11.03653,0.43694 30.75053,0.53301 50.57884,-2.74316 0,0 -4.69554,1.34509 -11.9079,3.07176 -9.77362,2.33985 -24.16903,5.38043 -37.76452,6.72406 z m -17.58024,7.54489 c -2.41266,-0.17688 -4.67687,-0.47787 -6.7434,-0.92471 0,0 -1.73541,-0.81671 4.29064,-9.05306 z"
     id="path3341"
     style="fill:#00ffff;stroke:#00ff00;stroke-width:0.7086615;stroke-miterlimit:4.5999999;stroke-dasharray:none"
     inkscape:connector-curvature="0"
     sodipodi:nodetypes="cccsccccccccsccscccccccscsccccscccccc" /><path
     class="st0"
     d="m 412.43257,692.62933 c 0,0 -1.30039,-4.16148 4.55137,-6.76241 5.85175,-2.60092 8.45253,2.99107 8.45253,2.99107 l 20.93629,63.20259 -33.94019,-59.43125 z"
     id="path3343"
     style="fill:#00ffff;stroke:#00ff00;stroke-width:0.7086615;stroke-miterlimit:4.5999999;stroke-dasharray:none"
     inkscape:connector-curvature="0" /><path
     class="st0"
     d="m 318.15427,763.11452 c -0.0646,-5.03746 1.92337,-9.65797 5.18345,-13.03329 l -3.31893,-5.508 c -3.84703,3.75726 -6.22222,8.99229 -6.15581,14.76994 0,8.06287 4.81144,15.34547 12.22367,18.59663 -4.94149,-3.25116 -7.93238,-8.84315 -7.93238,-14.82528 m 9.21864,-16.18839 c 2.65069,-1.53001 5.71743,-2.40824 8.98682,-2.40824 9.36281,-0.13005 17.29519,6.76241 18.46555,15.9957 0,-0.52019 0.13003,-0.91033 0.13003,-1.43051 -0.13003,-11.31403 -9.36281,-20.54733 -20.6762,-20.41728 -4.18237,0.0481 -8.08039,1.34025 -11.32614,3.52173 z"
     id="path3345"
     style="fill:#00ffff;stroke:#00ff00;stroke-width:0.7086615;stroke-miterlimit:4.5999999;stroke-dasharray:none"
     inkscape:connector-curvature="0"
     sodipodi:nodetypes="ccccccccccscc" /><path
     class="st0"
     d="m 501.76939,737.36534 c -6.89207,-31.99146 -38.36152,-52.2787 -70.35112,-45.38624 -1.528,0.32922 -3.05664,0.74186 -4.52955,1.18062 l 3.09315,9.63457 c 7.21864,-2.25914 14.91433,-2.98248 22.89284,-1.97204 29.77894,3.77134 50.97531,31.08114 47.20417,60.86176 -1.17035,9.10324 -4.55136,17.81634 -10.013,25.22899 11.18335,-13.91496 15.47464,-32.12145 11.70351,-49.54766 M 415.3082,697.98467 c -22.32584,12.28243 -34.9197,38.14147 -29.27356,64.34957 5.46164,25.61913 27.17816,44.47585 53.18597,46.55659 -29.77894,-3.77135 -50.9753,-31.08108 -47.20417,-60.86169 2.29251,-18.10399 13.53331,-33.1767 28.48968,-41.25564 z"
     id="path3347"
     style="fill:#00ffff;stroke:#00ff00;stroke-width:0.7086615;stroke-miterlimit:4.5999999;stroke-dasharray:none"
     inkscape:connector-curvature="0"
     sodipodi:nodetypes="csccsccccccscc" /><path
     class="st0"
     d="m 301.63931,778.19989 c 4.20356,-8.63688 6.10499,-17.80159 5.94521,-26.79779 l -6.45864,1.63734 c 1.11972,12.90888 -2.35369,26.13969 -10.40739,37.04325 l -0.58022,0.77113 c -1.48111,1.93258 -3.1091,3.7885 -4.88388,5.55256 -6.50195,6.50232 -14.56437,11.15664 -23.40703,13.75757 17.55527,-4.16148 32.11964,-15.86565 39.79195,-31.9914 m 5.9303,-27.41267 c -0.3919,-13.66377 -5.53442,-26.89975 -14.5811,-37.26118 -3.2221,1.95615 -5.63342,3.78258 -7.82186,5.57335 0.11633,0.115 0.23228,0.23063 0.34782,0.3469 8.98994,9.04609 14.14364,20.4548 15.47085,32.21202 z m -18.39784,-41.23891 c -4.34916,-4.12563 -9.40547,-7.65443 -15.10074,-10.38932 -9.41663,-4.52189 -19.42875,-6.35729 -29.15831,-5.80172 l 3.89298,10.04553 c 11.42623,0.40206 22.74928,4.38359 32.14547,11.93559 0.0693,0.0557 8.31844,-5.69727 8.2206,-5.79008 z m -69.07928,-9.16284 c -3.06312,1.65363 -5.98812,3.58211 -8.7342,5.77171 -1.96558,6.52529 -4.3813,11.88023 -6.74825,17.36196 1.21596,-1.49638 2.52308,-2.94317 3.9213,-4.33295 5.01985,-4.98952 10.76737,-8.7974 16.89831,-11.42532 z m -31.02163,52.32133 c 0.0582,16.15153 6.74065,32.01668 19.2004,43.46683 -14.07455,-14.16169 -18.74615,-34.11455 -14.05288,-52.12974 z"
     id="path3349"
     style="fill:#00ffff;stroke:#00ff00;stroke-width:0.7086615;stroke-miterlimit:4.5999999;stroke-dasharray:none"
     inkscape:connector-curvature="0"
     sodipodi:nodetypes="cccccccccccscccscccccccscccccc" /><path
     class="st0"
     d="m 303.98001,568.56513 c 0,0 -15.34461,17.03607 -27.56828,45.25612 -0.90383,2.08661 -1.61712,4.07084 -2.1598,5.95747 5.20753,5.38592 20.96054,11.54931 29.86413,17.36996 -3.70639,0.54213 -21.37991,-2.47543 -31.22633,-7.04342 0.71468,15.84481 15.76104,22.01229 22.11759,24.03036 8.19246,2.60093 44.21327,12.09431 42.00261,19.11681 -2.21067,7.0225 -28.60859,40.31443 -28.60859,40.31443 0,0 -4.55137,6.63236 0.39012,11.70417 6.50195,6.50232 24.83745,16.64593 24.83745,16.64593 l -11.96359,-18.85672 c 0,0 -3.51105,-6.37227 7.15215,-12.87465 6.50195,-4.03144 39.14175,-29.52052 34.85046,-44.60589 -4.29129,-15.08538 -17.29519,-15.9957 -32.11964,-26.39941 -14.82445,-10.40371 -11.70352,-25.09895 -3.90117,-32.90173 7.80234,-7.80278 19.24577,-16.64593 28.9987,-6.89245 9.75293,9.75347 36.41093,27.82991 55.91679,31.34117 0,0 -39.01171,-32.2515 -49.80495,-49.54766 -10.79324,-17.29616 -40.31211,-37.84347 -58.77765,-12.61449"
     id="path3351"
     style="fill:#00ffff;stroke:#00ff00;stroke-width:0.7086615;stroke-miterlimit:4.5999999;stroke-dasharray:none"
     inkscape:connector-curvature="0"
     sodipodi:nodetypes="cscccsscccccsssscsc" /><path
     class="st0"
     d="m 370.82008,536.31365 c 0,11.18398 -9.10274,20.28721 -20.41613,20.28721 -11.18336,0 -20.28609,-9.10323 -20.28609,-20.41726 0,-11.31403 9.23277,-20.28723 20.41613,-20.28723 11.18335,0 20.28609,9.10324 20.28609,20.41728 0,0 0,0 0,0"
     id="path3353"
     style="fill:#00ffff;stroke:#00ff00;stroke-width:0.7086615;stroke-miterlimit:4.5999999;stroke-dasharray:none"
     inkscape:connector-curvature="0" /><path
     class="st0"
     d="m 337.27,757.52252 -26.91808,-28.61019 20.93629,33.81205 c 0,0 5.98179,3.51125 5.98179,-5.20186"
     id="path3357"
     style="fill:#00ffff;stroke:#00ff00;stroke-width:0.7086615;stroke-miterlimit:4.5999999;stroke-dasharray:none"
     inkscape:connector-curvature="0" /><path
     class="st1"
     d="m 262.88767,754.53146 c -2.86085,-18.07644 -3.25097,-17.03607 -5.07152,-25.87922 -1.82055,-8.84316 -16.25488,-45.38624 -23.14695,-57.87069 -3.90117,-6.89246 -4.94148,-15.08538 -3.12093,-22.75811 4.42132,-10.79385 8.19245,-21.71774 11.31339,-32.90172 2.08063,-1.9507 5.20156,-3.77135 8.19246,-0.65024 1.82055,1.9507 3.64109,3.90139 5.07152,5.3319 4.42133,4.42158 9.62289,7.67274 20.80625,11.96427 11.18336,4.29153 27.43824,5.72204 27.43824,5.72204 0,0 -4.16125,-3.25116 -15.86477,-8.84316 -11.70351,-5.59199 -15.60468,-10.01356 -20.80624,-14.82528 -3.64109,-3.3812 -14.82445,-22.75811 -21.9766,-35.50265 -1.43043,-4.68167 -3.64109,-8.84315 -6.24187,-11.31403 -0.6502,-0.52019 -1.30039,-0.91032 -1.95059,-1.30046 -5.98179,-2.73098 -18.07543,-10.40371 -28.34852,-3.38121 -5.9818,2.86102 -24.70742,19.24686 -34.85047,33.81205 -10.27308,14.95533 -10.27308,22.49802 -12.3537,32.51158 -2.73082,12.35441 3.25097,39.92423 3.25097,39.92423 0,0 3.38102,-23.92853 5.3316,-29.13038 3.90117,-10.53375 9.75293,-22.75811 14.56438,-27.56982 0.91027,-0.91033 4.94148,-4.16149 5.98179,-4.81172 14.04422,-6.50231 11.3134,3.25116 11.3134,3.25116 -0.13004,1.9507 -0.26008,4.03144 -0.52016,5.98213 0,6.50232 -4.81144,28.6102 -4.81144,37.84349 0,0.52018 0,1.04037 0.13004,1.43051 -1.04032,14.56519 -13.00391,56.05003 -13.00391,56.05003 0,0 -19.89597,47.72701 -28.73863,58.911 -2.73082,3.3812 -4.81144,7.15255 -6.11183,11.31403 0,0 -0.78024,3.77134 5.46164,10.01357 6.24187,6.24222 30.68921,13.00463 30.68921,13.00463 l -15.3446,-15.34547 c 0,0 -4.94149,-4.03143 7.80234,-20.41727 2.80555,-3.61341 6.76443,-9.32517 11.06811,-16.31761 1.7135,-2.78403 3.48166,-5.77107 5.25345,-8.90953 3.55736,-6.30132 7.12934,-13.21301 10.30293,-20.31737 2.57133,-5.75616 4.88111,-11.63879 6.70968,-17.42575 0.6039,-1.9112 1.15532,-3.81196 1.64633,-5.69428 3.51107,-13.52481 21.97661,24.31874 21.97661,24.31874 0,0 12.87387,40.05427 12.87387,52.40867 0,17.81635 2.86085,15.73561 4.6814,17.55626 5.9818,2.47088 39.92199,-4.29153 39.92199,-4.29153 0,0 -22.49676,-3.6413 -26.39793,-7.41264 -3.90117,-3.77135 -0.39012,-10.40371 -3.12094,-28.48015 M 235.83955,556.21072 c 11.18336,0 20.15605,-8.97318 20.15605,-20.15717 0,-11.18398 -9.10273,-20.15718 -20.15605,-20.15718 -11.05331,0 -20.15605,8.9732 -20.15605,20.15718 0,11.18399 8.9727,20.15717 20.15605,20.15717"
     id="path3359"
     style="fill:#ffff00;stroke:#ff00ff;stroke-width:0.7086615;stroke-miterlimit:4.5999999;stroke-dasharray:none"
     inkscape:connector-curvature="0"
     sodipodi:nodetypes="csccccsscscccccccccscccsccccscccssssccsccsccsssc" /><path
     style="opacity:1;fill:none;fill-opacity:1;stroke:#ff0000;stroke-width:0.7086615;stroke-miterlimit:4.5999999;stroke-dasharray:none;stroke-opacity:1"
     d="m 427.25774,902.59254 0,98.85826 -221.10238,0 0,-98.85826 -0.34851,-0.55157 C 114.51441,860.02797 51.135647,767.74696 51.135651,660.66304 c 6e-6,-146.67075 118.900139,-265.57089 265.570889,-265.57089 146.67076,-1e-5 265.57089,118.90013 265.5709,265.57089 0,106.89307 -63.15305,199.03595 -154.18335,241.15282 z"
     id="rect4146"
     inkscape:connector-curvature="0"
     sodipodi:nodetypes="cccccssscc" /></svg>