<?xml version="1.0" encoding="UTF-8" standalone="no"?>
<!-- Generator: Adobe Illustrator 21.0.0, SVG Export Plug-In . SVG Version: 6.00 Build 0)  -->

<svg
   xmlns:dc="http://purl.org/dc/elements/1.1/"
   xmlns:cc="http://creativecommons.org/ns#"
   xmlns:rdf="http://www.w3.org/1999/02/22-rdf-syntax-ns#"
   xmlns:svg="http://www.w3.org/2000/svg"
   xmlns="http://www.w3.org/2000/svg"
   xmlns:sodipodi="http://sodipodi.sourceforge.net/DTD/sodipodi-0.dtd"
   xmlns:inkscape="http://www.inkscape.org/namespaces/inkscape"
   version="1.1"
   id="Calque_1"
   x="0px"
   y="0px"
   viewBox="0 0 1062.9921 1062.9922"
   xml:space="preserve"
   inkscape:version="0.91 r13725"
   sodipodi:docname="feuilles.svg"
   width="300mm"
   height="300mm"><metadata
     id="metadata3365"><rdf:RDF><cc:Work
         rdf:about=""><dc:format>image/svg+xml</dc:format><dc:type
           rdf:resource="http://purl.org/dc/dcmitype/StillImage" /><dc:title>pieton_cycliste</dc:title></cc:Work></rdf:RDF></metadata><defs
     id="defs3363" /><sodipodi:namedview
     pagecolor="#ffffff"
     bordercolor="#666666"
     borderopacity="1"
     objecttolerance="10"
     gridtolerance="10"
     guidetolerance="10"
     inkscape:pageopacity="0"
     inkscape:pageshadow="2"
     inkscape:window-width="1920"
     inkscape:window-height="1017"
     id="namedview3361"
     showgrid="false"
     inkscape:zoom="1.4142136"
     inkscape:cx="210.27387"
     inkscape:cy="368.29505"
     inkscape:window-x="-8"
     inkscape:window-y="-8"
     inkscape:window-maximized="1"
     inkscape:current-layer="Calque_1"
     inkscape:document-units="mm"
     units="mm" /><style
     type="text/css"
     id="style3337">
	.st0{fill:#40403F;}
	.st1{fill:#FFFFFF;stroke:#000000;stroke-width:0.25;stroke-miterlimit:10;}
</style><title
     id="title3339">pieton_cycliste</title><path
     style="opacity:1;fill:none;fill-opacity:1;stroke:#ff0000;stroke-width:0.7086615;stroke-miterlimit:4.5999999;stroke-dasharray:none;stroke-opacity:1"
     d="m 422.95747,990.00451 -212.50278,0 -8.85473,-98.86842 C 110.33636,849.11293 51.135647,756.30067 51.135651,649.21675 51.135657,502.546 170.03579,383.64586 316.70654,383.64586 c 146.67076,-1e-5 264.90798,119.56304 264.90799,266.2338 0,106.89307 -58.68531,199.03595 -149.80233,241.20971 z"
     id="rect4146"
     inkscape:connector-curvature="0"
     sodipodi:nodetypes="cccssscc" /><path
     style="fill:#00ffff;stroke:#00ffff;stroke-width:0.57029027;stroke-miterlimit:4;stroke-dasharray:none"
     d="m 335.11211,548.33343 c 0.0598,19.17444 -12.00377,42.24894 -22.22636,42.24894 -10.03578,0 -22.32715,-21.36414 -22.22622,-42.24894 0.1074,-21.31695 14.0241,-37.13825 22.22622,-37.51401 10.59127,-0.48493 22.17866,20.01744 22.22636,37.51401 z"
     id="path4770"
     inkscape:connector-curvature="0"
     sodipodi:nodetypes="sssss"
     inkscape:export-xdpi="90"
     inkscape:export-ydpi="90" /><path
     style="fill:#ffff00;stroke:#ffff00;stroke-width:0.57029027;stroke-miterlimit:4;stroke-dasharray:none"
     d="m 275.41044,491.03849 c 7.39298,17.69207 5.07786,43.6264 -4.36657,47.53841 -9.27182,3.84056 -28.80315,-11.19315 -36.70229,-30.52727 -8.06251,-19.73366 -1.25566,-39.67799 6.17848,-43.16386 9.59933,-4.5014 28.15079,10.0063 34.89038,26.15272 z"
     id="path4770-1"
     inkscape:connector-curvature="0"
     sodipodi:nodetypes="sssss"
     inkscape:export-xdpi="90"
     inkscape:export-ydpi="90" /><path
     style="fill:#00ffff;stroke:#00ffff;stroke-width:0.57029027;stroke-miterlimit:4;stroke-dasharray:none"
     d="m 396.69812,494.21723 c 0.0598,19.17445 -12.00375,42.24881 -22.22633,42.24881 -10.03565,0 -22.32717,-21.36364 -22.22622,-42.24881 0.1074,-21.31693 14.02409,-37.13821 22.22622,-37.514 10.59127,-0.4849 22.17869,20.01747 22.22633,37.514 z"
     id="path4770-10"
     inkscape:connector-curvature="0"
     sodipodi:nodetypes="sssss"
     inkscape:export-xdpi="90"
     inkscape:export-ydpi="90" /><path
     style="fill:#808000;stroke:#808000;stroke-width:0.57029027;stroke-miterlimit:4;stroke-dasharray:none"
     d="m 397.1145,597.01535 c -13.51635,13.60074 -38.36234,21.38698 -45.59083,14.15852 -7.09647,-7.0959 -0.68082,-30.89436 14.15796,-45.59138 15.14731,-14.99898 36.17724,-16.34374 42.24274,-10.80984 7.83223,7.1464 1.52822,29.83775 -10.80987,42.2427 z"
     id="path4770-6"
     inkscape:connector-curvature="0"
     sodipodi:nodetypes="sssss"
     inkscape:export-xdpi="90"
     inkscape:export-ydpi="90" /><path
     style="fill:#ffff00;stroke:#ffff00;stroke-width:0.57029027;stroke-miterlimit:4;stroke-dasharray:none"
     d="m 268.0002,567.39559 c 13.60067,13.51575 21.38644,38.3629 14.15798,45.59136 -7.09637,7.0959 -30.89408,0.68081 -45.59072,-14.1585 -15.0005,-15.14613 -16.3442,-36.17758 -10.80998,-42.24296 7.14606,-7.83224 29.83715,-1.52812 42.24272,10.8101 z"
     id="path4770-69"
     inkscape:connector-curvature="0"
     sodipodi:nodetypes="sssss"
     inkscape:export-xdpi="90"
     inkscape:export-ydpi="90" /><path
     style="fill:#800080;stroke:#ffff00;stroke-width:0.57029027;stroke-miterlimit:4;stroke-dasharray:none"
     d="m 179.02944,559.94412 c 17.73785,7.28304 34.43915,27.2581 30.52706,36.70217 -3.84046,9.27224 -28.28181,12.4517 -47.53842,4.3667 -19.65482,-8.25206 -28.94445,-27.16888 -26.1527,-34.89064 3.60495,-9.97031 26.98124,-12.82956 43.16406,-6.17823 z"
     id="path4770-5"
     inkscape:connector-curvature="0"
     sodipodi:nodetypes="sssss"
     inkscape:export-xdpi="90"
     inkscape:export-ydpi="90" /><path
     style="fill:#800080;stroke:#ffff00;stroke-width:0.57029027;stroke-miterlimit:4;stroke-dasharray:none"
     d="m 220.12257,620.74096 c 19.17469,0 42.24893,12.00498 42.24881,22.22659 0,10.0365 -21.36401,22.32679 -42.24881,22.22648 -21.31683,-0.1194 -37.13836,-14.02456 -37.51399,-22.22648 -0.48492,-10.59068 20.01768,-22.1776 37.51399,-22.22659 z"
     id="path4770-66"
     inkscape:connector-curvature="0"
     sodipodi:nodetypes="sssss"
     inkscape:export-xdpi="90"
     inkscape:export-ydpi="90" /><path
     style="fill:#00ffff;stroke:#00ffff;stroke-width:0.57029027;stroke-miterlimit:4;stroke-dasharray:none"
     d="m 402.64084,619.24918 c 19.17469,0 42.24881,12.00377 42.24868,22.22659 1.3e-4,10.03529 -21.36399,22.32679 -42.24868,22.22527 -21.31704,-0.1194 -37.13836,-14.02339 -37.51411,-22.22648 -0.48493,-10.59069 20.01757,-22.1776 37.51411,-22.22538 z"
     id="path4770-8"
     inkscape:connector-curvature="0"
     sodipodi:nodetypes="sssss"
     inkscape:export-xdpi="90"
     inkscape:export-ydpi="90" /><path
     style="fill:#ffff00;stroke:#ffff00;stroke-width:0.57029027;stroke-miterlimit:4;stroke-dasharray:none"
     d="m 469.08507,609.59251 c -17.69207,7.39328 -43.62641,5.07855 -47.53828,-4.36672 -3.84071,-9.27107 11.19373,-28.80298 30.52702,-36.7027 19.73436,-8.06047 39.67787,-1.25531 43.16418,6.17861 4.50107,9.59933 -10.0065,28.15064 -26.15292,34.89081 z"
     id="path4770-3"
     inkscape:connector-curvature="0"
     sodipodi:nodetypes="sssss"
     inkscape:export-xdpi="90"
     inkscape:export-ydpi="90" /><path
     style="fill:#ffff00;stroke:#ffff00;stroke-width:0.57029027;stroke-miterlimit:4;stroke-dasharray:none"
     d="m 461.95132,688.71522 c 17.73796,7.28223 34.43926,27.25846 30.52716,36.70252 -3.84034,9.27215 -28.2818,12.45164 -47.53829,4.36677 -19.65447,-8.25451 -28.94447,-27.16893 -26.15294,-34.8907 3.60481,-9.97078 26.98125,-12.83018 43.16407,-6.17859 z"
     id="path4770-4"
     inkscape:connector-curvature="0"
     sodipodi:nodetypes="sssss"
     inkscape:export-xdpi="90"
     inkscape:export-ydpi="90" /><path
     style="fill:#800000;stroke:#800000;stroke-width:0.57029027;stroke-miterlimit:4;stroke-dasharray:none"
     d="m 391.54529,690.19507 c 13.60067,13.51577 21.38644,38.3616 14.15797,45.59009 -7.09611,7.09708 -30.89419,0.68081 -45.59071,-14.15841 -14.99957,-15.14733 -16.34406,-36.17702 -10.80998,-42.24214 7.14582,-7.83163 29.83715,-1.52882 42.24272,10.81046 z"
     id="path4770-82"
     inkscape:connector-curvature="0"
     sodipodi:nodetypes="sssss"
     inkscape:export-xdpi="90"
     inkscape:export-ydpi="90" /><path
     style="fill:#00ffff;stroke:#00ffff;stroke-width:0.57029027;stroke-miterlimit:4;stroke-dasharray:none"
     d="m 268.34381,727.27987 c -13.51609,13.60056 -38.36233,21.38684 -45.5907,14.15715 -7.09647,-7.09589 -0.68082,-30.89307 14.15796,-45.59008 15.14625,-15.00039 36.17724,-16.34408 42.24286,-10.81044 7.83224,7.14604 1.52822,29.83713 -10.81012,42.24337 z"
     id="path4770-821"
     inkscape:connector-curvature="0"
     sodipodi:nodetypes="sssss"
     inkscape:export-xdpi="90"
     inkscape:export-ydpi="90" /><path
     style="fill:#808000;stroke:#808000;stroke-width:0.57029027;stroke-miterlimit:4;stroke-dasharray:none"
     d="m 160.21012,681.18935 c 17.69232,-7.39211 43.62666,-5.07738 47.53853,4.36672 3.84071,9.27204 -11.19373,28.80279 -30.52713,36.7025 -19.73413,8.06104 -39.67824,1.25531 -43.16407,-6.1786 -4.50107,-9.59934 10.00672,-28.15065 26.15267,-34.89062 z"
     id="path4770-67"
     inkscape:connector-curvature="0"
     sodipodi:nodetypes="sssss"
     inkscape:export-xdpi="90"
     inkscape:export-ydpi="90" /><path
     style="fill:#800000;stroke:#800000;stroke-width:0.57029027;stroke-miterlimit:4;stroke-dasharray:none"
     d="m 277.60227,792.11155 c -7.28256,17.73796 -27.25795,34.43915 -36.70225,30.5275 -9.27197,-3.83998 -12.45216,-28.28203 -4.3666,-47.53805 8.25289,-19.65494 27.16889,-28.94492 34.89053,-26.15363 9.97065,3.60587 12.83005,26.98137 6.17832,43.16418 z"
     id="path4770-2"
     inkscape:connector-curvature="0"
     sodipodi:nodetypes="sssss"
     inkscape:export-xdpi="90"
     inkscape:export-ydpi="90" /><path
     style="fill:#800080;stroke:#ffff00;stroke-width:0.57029027;stroke-miterlimit:4;stroke-dasharray:none"
     d="m 386.63835,782.17183 c 7.39309,17.69256 5.07786,43.62761 -4.36657,47.53924 -9.27172,3.83999 -28.80316,-11.19385 -36.70229,-30.5275 -8.06119,-19.73377 -1.25567,-39.67774 6.17837,-43.1642 9.59932,-4.50166 28.15089,10.00663 34.89049,26.15246 z"
     id="path4770-7"
     inkscape:connector-curvature="0"
     sodipodi:nodetypes="sssss"
     inkscape:export-xdpi="90"
     inkscape:export-ydpi="90" /></svg>