  0
SECTION
  2
HEADER
  9
$ACADVER
  1
AC1014
  9
$HANDSEED
  5
FFFF
  9
$MEASUREMENT
 70
     1
  0
ENDSEC
  0
SECTION
  2
TABLES
  0
TABLE
  2
VPORT
  5
8
330
0
100
AcDbSymbolTable
 70
     4
  0
VPORT
  5
2E
330
8
100
AcDbSymbolTableRecord
100
AcDbViewportTableRecord
  2
*ACTIVE
 70
     0
 10
0.0
 20
0.0
 11
1.0
 21
1.0
 12
210.0
 22
148.5
 13
0.0
 23
0.0
 14
10.0
 24
10.0
 15
10.0
 25
10.0
 16
0.0
 26
0.0
 36
1.0
 17
0.0
 27
0.0
 37
0.0
 40
341.0
 41
1.24
 42
50.0
 43
0.0
 44
0.0
 50
0.0
 51
0.0
 71
     0
 72
   100
 73
     1
 74
     3
 75
     0
 76
     0
 77
     0
 78
     0
  0
ENDTAB
  0
TABLE
  2
LTYPE
  5
5
330
0
100
AcDbSymbolTable
 70
     1
  0
LTYPE
  5
14
330
5
100
AcDbSymbolTableRecord
100
AcDbLinetypeTableRecord
  2
BYBLOCK
 70
     0
  3

 72
    65
 73
     0
 40
0.0
  0
LTYPE
  5
15
330
5
100
AcDbSymbolTableRecord
100
AcDbLinetypeTableRecord
  2
BYLAYER
 70
     0
  3

 72
    65
 73
     0
 40
0.0
  0
LTYPE
  5
16
330
5
100
AcDbSymbolTableRecord
100
AcDbLinetypeTableRecord
  2
CONTINUOUS
 70
     0
  3
Solid line
 72
    65
 73
     0
 40
0.0
  0
ENDTAB
  0
TABLE
  2
LAYER
  5
2
100
AcDbSymbolTable
 70
1
  0
LAYER
  5
50
100
AcDbSymbolTableRecord
100
AcDbLayerTableRecord
  2
0
 70
0
  6
CONTINUOUS
  0
ENDTAB
  0
TABLE
  2
STYLE
  5
3
330
0
100
AcDbSymbolTable
 70
     1
  0
STYLE
  5
11
330
3
100
AcDbSymbolTableRecord
100
AcDbTextStyleTableRecord
  2
STANDARD
 70
     0
 40
0.0
 41
1.0
 50
0.0
 71
     0
 42
2.5
  3
txt
  4

  0
ENDTAB
  0
TABLE
  2
VIEW
  5
6
330
0
100
AcDbSymbolTable
 70
     0
  0
ENDTAB
  0
TABLE
  2
UCS
  5
7
330
0
100
AcDbSymbolTable
 70
     0
  0
ENDTAB
  0
TABLE
  2
APPID
  5
9
330
0
100
AcDbSymbolTable
 70
     2
  0
APPID
  5
12
330
9
100
AcDbSymbolTableRecord
100
AcDbRegAppTableRecord
  2
ACAD
 70
     0
  0
ENDTAB
  0
TABLE
  2
DIMSTYLE
  5
A
330
0
100
AcDbSymbolTable
 70
     1
  0
DIMSTYLE
105
27
330
A
100
AcDbSymbolTableRecord
100
AcDbDimStyleTableRecord
  2
ISO-25
 70
     0
  3

  4

  5

  6

  7

 40
1.0
 41
2.5
 42
0.625
 43
3.75
 44
1.25
 45
0.0
 46
0.0
 47
0.0
 48
0.0
140
2.5
141
2.5
142
0.0
143
0.03937007874016
144
1.0
145
0.0
146
1.0
147
0.625
 71
     0
 72
     0
 73
     0
 74
     0
 75
     0
 76
     0
 77
     1
 78
     8
170
     0
171
     3
172
     1
173
     0
174
     0
175
     0
176
     0
177
     0
178
     0
270
     2
271
     2
272
     2
273
     2
274
     3
340
11
275
     0
280
     0
281
     0
282
     0
283
     0
284
     8
285
     0
286
     0
287
     3
288
     0
  0
ENDTAB
  0
TABLE
  2
BLOCK_RECORD
  5
1
330
0
100
AcDbSymbolTable
 70
     1
  0
BLOCK_RECORD
  5
1F
330
1
100
AcDbSymbolTableRecord
100
AcDbBlockTableRecord
  2
*MODEL_SPACE
  0
BLOCK_RECORD
  5
1B
330
1
100
AcDbSymbolTableRecord
100
AcDbBlockTableRecord
  2
*PAPER_SPACE
  0
ENDTAB
  0
ENDSEC
  0
SECTION
  2
BLOCKS
  0
BLOCK
  5
20
330
1F
100
AcDbEntity
  8
0
100
AcDbBlockBegin
  2
*MODEL_SPACE
 70
     0
 10
0.0
 20
0.0
 30
0.0
  3
*MODEL_SPACE
  1

  0
ENDBLK
  5
21
330
1F
100
AcDbEntity
  8
0
100
AcDbBlockEnd
  0
BLOCK
  5
1C
330
1B
100
AcDbEntity
 67
     1
  8
0
100
AcDbBlockBegin
  2
*PAPER_SPACE
  1

  0
ENDBLK
  5
1D
330
1B
100
AcDbEntity
 67
     1
  8
0
100
AcDbBlockEnd
  0
ENDSEC
  0
SECTION
  2
ENTITIES
  0
LINE
  5
100
100
AcDbEntity
  8
0
 62
1
100
AcDbLine
 10
119.367997
 20
20.598727
 30
0.0
 11
59.394990
 21
20.598727
 31
0.0
  0
LINE
  5
101
100
AcDbEntity
  8
0
 62
1
100
AcDbLine
 10
59.394990
 20
20.598727
 30
0.0
 11
56.895989
 21
48.501592
 31
0.0
  0
SPLINE
  5
102
100
AcDbEntity
  8
0
 62
1
100
AcDbSpline
 70
8
 71
3
 72
8
 73
4
 74
0
 40
0
 40
0
 40
0
 40
0
 40
1
 40
1
 40
1
 40
1
 10
56.895989
 20
48.501592
 30
0.0
 10
31.139373
 20
60.361462
 30
0.0
 10
14.431616
 20
86.555144
 30
0.0
 10
14.431617
 20
116.776606
 30
0.0
  0
SPLINE
  5
103
100
AcDbEntity
  8
0
 62
1
100
AcDbSpline
 70
8
 71
3
 72
8
 73
4
 74
0
 40
0
 40
0
 40
0
 40
0
 40
1
 40
1
 40
1
 40
1
 10
14.431617
 20
116.776606
 30
0.0
 10
14.431619
 20
158.170351
 30
0.0
 10
47.987879
 20
191.726613
 30
0.0
 10
89.381624
 20
191.726613
 30
0.0
  0
SPLINE
  5
104
100
AcDbEntity
  8
0
 62
1
100
AcDbSpline
 70
8
 71
3
 72
8
 73
4
 74
0
 40
0
 40
0
 40
0
 40
0
 40
1
 40
1
 40
1
 40
1
 10
89.381624
 20
191.726613
 30
0.0
 10
130.775371
 20
191.726616
 30
0.0
 10
164.144542
 20
157.983266
 30
0.0
 10
164.144545
 20
116.589518
 30
0.0
  0
SPLINE
  5
105
100
AcDbEntity
  8
0
 62
1
100
AcDbSpline
 70
8
 71
3
 72
8
 73
4
 74
0
 40
0
 40
0
 40
0
 40
0
 40
1
 40
1
 40
1
 40
1
 10
164.144545
 20
116.589518
 30
0.0
 10
164.144545
 20
86.421918
 30
0.0
 10
147.582247
 20
60.417150
 30
0.0
 10
121.866999
 20
48.514778
 30
0.0
  0
LINE
  5
106
100
AcDbEntity
  8
0
 62
1
100
AcDbLine
 10
121.866999
 20
48.514778
 30
0.0
 11
119.367997
 21
20.598727
 31
0.0
  0
SPLINE
  5
107
100
AcDbEntity
  8
0
 62
4
100
AcDbSpline
 70
8
 71
3
 72
8
 73
4
 74
0
 40
0
 40
0
 40
0
 40
0
 40
1
 40
1
 40
1
 40
1
 10
94.576084
 20
145.248121
 30
0.0
 10
94.592961
 20
139.836668
 30
0.0
 10
91.188354
 20
133.324531
 30
0.0
 10
88.303312
 20
133.324531
 30
0.0
  0
SPLINE
  5
108
100
AcDbEntity
  8
0
 62
4
100
AcDbSpline
 70
8
 71
3
 72
8
 73
4
 74
0
 40
0
 40
0
 40
0
 40
0
 40
1
 40
1
 40
1
 40
1
 10
88.303312
 20
133.324531
 30
0.0
 10
85.470992
 20
133.324531
 30
0.0
 10
82.002094
 20
139.353966
 30
0.0
 10
82.030578
 20
145.248121
 30
0.0
  0
SPLINE
  5
109
100
AcDbEntity
  8
0
 62
4
100
AcDbSpline
 70
8
 71
3
 72
8
 73
4
 74
0
 40
0
 40
0
 40
0
 40
0
 40
1
 40
1
 40
1
 40
1
 10
82.030578
 20
145.248121
 30
0.0
 10
82.060889
 20
151.264238
 30
0.0
 10
85.988491
 20
155.729360
 30
0.0
 10
88.303312
 20
155.835408
 30
0.0
  0
SPLINE
  5
10a
100
AcDbEntity
  8
0
 62
4
100
AcDbSpline
 70
8
 71
3
 72
8
 73
4
 74
0
 40
0
 40
0
 40
0
 40
0
 40
1
 40
1
 40
1
 40
1
 10
88.303312
 20
155.835408
 30
0.0
 10
91.292403
 20
155.972266
 30
0.0
 10
94.562622
 20
150.186042
 30
0.0
 10
94.576084
 20
145.248121
 30
0.0
  0
LINE
  5
10b
100
AcDbEntity
  8
0
 62
4
100
AcDbLine
 10
94.576084
 20
145.248121
 30
0.0
 11
94.576084
 21
145.248121
 31
0.0
  0
SPLINE
  5
10c
100
AcDbEntity
  8
0
 62
2
100
AcDbSpline
 70
8
 71
3
 72
8
 73
4
 74
0
 40
0
 40
0
 40
0
 40
0
 40
1
 40
1
 40
1
 40
1
 10
77.726946
 20
161.418026
 30
0.0
 10
79.813410
 20
156.424931
 30
0.0
 10
79.160031
 20
149.105687
 30
0.0
 10
76.494603
 20
148.001630
 30
0.0
  0
SPLINE
  5
10d
100
AcDbEntity
  8
0
 62
2
100
AcDbSpline
 70
8
 71
3
 72
8
 73
4
 74
0
 40
0
 40
0
 40
0
 40
0
 40
1
 40
1
 40
1
 40
1
 10
76.494603
 20
148.001630
 30
0.0
 10
73.877890
 20
146.917739
 30
0.0
 10
68.365714
 20
151.160586
 30
0.0
 10
66.136401
 20
156.617104
 30
0.0
  0
SPLINE
  5
10e
100
AcDbEntity
  8
0
 62
2
100
AcDbSpline
 70
8
 71
3
 72
8
 73
4
 74
0
 40
0
 40
0
 40
0
 40
0
 40
1
 40
1
 40
1
 40
1
 10
66.136401
 20
156.617104
 30
0.0
 10
63.860982
 20
162.186382
 30
0.0
 10
65.782026
 20
167.815115
 30
0.0
 10
67.880106
 20
168.798905
 30
0.0
  0
SPLINE
  5
10f
100
AcDbEntity
  8
0
 62
2
100
AcDbSpline
 70
8
 71
3
 72
8
 73
4
 74
0
 40
0
 40
0
 40
0
 40
0
 40
1
 40
1
 40
1
 40
1
 10
67.880106
 20
168.798905
 30
0.0
 10
70.589250
 20
170.069300
 30
0.0
 10
75.824884
 20
165.974905
 30
0.0
 10
77.726946
 20
161.418026
 30
0.0
  0
LINE
  5
110
100
AcDbEntity
  8
0
 62
2
100
AcDbLine
 10
77.726946
 20
161.418026
 30
0.0
 11
77.726946
 21
161.418026
 31
0.0
  0
SPLINE
  5
111
100
AcDbEntity
  8
0
 62
4
100
AcDbSpline
 70
8
 71
3
 72
8
 73
4
 74
0
 40
0
 40
0
 40
0
 40
0
 40
1
 40
1
 40
1
 40
1
 10
111.957025
 20
160.520915
 30
0.0
 10
111.973902
 20
155.109459
 30
0.0
 10
108.569300
 20
148.597362
 30
0.0
 10
105.684261
 20
148.597362
 30
0.0
  0
SPLINE
  5
112
100
AcDbEntity
  8
0
 62
4
100
AcDbSpline
 70
8
 71
3
 72
8
 73
4
 74
0
 40
0
 40
0
 40
0
 40
0
 40
1
 40
1
 40
1
 40
1
 10
105.684261
 20
148.597362
 30
0.0
 10
102.851977
 20
148.597362
 30
0.0
 10
99.383037
 20
154.626656
 30
0.0
 10
99.411528
 20
160.520915
 30
0.0
  0
SPLINE
  5
113
100
AcDbEntity
  8
0
 62
4
100
AcDbSpline
 70
8
 71
3
 72
8
 73
4
 74
0
 40
0
 40
0
 40
0
 40
0
 40
1
 40
1
 40
1
 40
1
 10
99.411528
 20
160.520915
 30
0.0
 10
99.441838
 20
166.537026
 30
0.0
 10
103.369437
 20
171.002143
 30
0.0
 10
105.684261
 20
171.108200
 30
0.0
  0
SPLINE
  5
114
100
AcDbEntity
  8
0
 62
4
100
AcDbSpline
 70
8
 71
3
 72
8
 73
4
 74
0
 40
0
 40
0
 40
0
 40
0
 40
1
 40
1
 40
1
 40
1
 10
105.684261
 20
171.108200
 30
0.0
 10
108.673352
 20
171.245049
 30
0.0
 10
111.943580
 20
165.458825
 30
0.0
 10
111.957025
 20
160.520915
 30
0.0
  0
LINE
  5
115
100
AcDbEntity
  8
0
 62
4
100
AcDbLine
 10
111.957025
 20
160.520915
 30
0.0
 11
111.957025
 21
160.520915
 31
0.0
  0
SPLINE
  5
116
100
AcDbEntity
  8
0
 62
2
100
AcDbSpline
 70
8
 71
3
 72
8
 73
4
 74
0
 40
0
 40
0
 40
0
 40
0
 40
1
 40
1
 40
1
 40
1
 10
112.074537
 20
131.509001
 30
0.0
 10
108.259922
 20
127.670570
 30
0.0
 10
101.247832
 20
125.473120
 30
0.0
 10
99.207791
 20
127.513152
 30
0.0
  0
SPLINE
  5
117
100
AcDbEntity
  8
0
 62
2
100
AcDbSpline
 70
8
 71
3
 72
8
 73
4
 74
0
 40
0
 40
0
 40
0
 40
0
 40
1
 40
1
 40
1
 40
1
 10
99.207791
 20
127.513152
 30
0.0
 10
97.205010
 20
129.515773
 30
0.0
 10
99.015649
 20
136.232227
 30
0.0
 10
103.203482
 20
140.380053
 30
0.0
  0
SPLINE
  5
118
100
AcDbEntity
  8
0
 62
2
100
AcDbSpline
 70
8
 71
3
 72
8
 73
4
 74
0
 40
0
 40
0
 40
0
 40
0
 40
1
 40
1
 40
1
 40
1
 10
103.203482
 20
140.380053
 30
0.0
 10
107.478390
 20
144.613098
 30
0.0
 10
113.413503
 20
144.992619
 30
0.0
 10
115.125322
 20
143.430830
 30
0.0
  0
SPLINE
  5
119
100
AcDbEntity
  8
0
 62
2
100
AcDbSpline
 70
8
 71
3
 72
8
 73
4
 74
0
 40
0
 40
0
 40
0
 40
0
 40
1
 40
1
 40
1
 40
1
 10
115.125322
 20
143.430830
 30
0.0
 10
117.335752
 20
141.413957
 30
0.0
 10
115.556620
 20
135.009954
 30
0.0
 10
112.074537
 20
131.509001
 30
0.0
  0
LINE
  5
11a
100
AcDbEntity
  8
0
 62
2
100
AcDbLine
 10
112.074537
 20
131.509001
 30
0.0
 11
112.074537
 21
131.509001
 31
0.0
  0
SPLINE
  5
11b
100
AcDbEntity
  8
0
 62
2
100
AcDbSpline
 70
8
 71
3
 72
8
 73
4
 74
0
 40
0
 40
0
 40
0
 40
0
 40
1
 40
1
 40
1
 40
1
 10
75.635612
 20
139.868356
 30
0.0
 10
79.474023
 20
136.053911
 30
0.0
 10
81.671341
 20
129.041493
 30
0.0
 10
79.631309
 20
127.001461
 30
0.0
  0
SPLINE
  5
11c
100
AcDbEntity
  8
0
 62
2
100
AcDbSpline
 70
8
 71
3
 72
8
 73
4
 74
0
 40
0
 40
0
 40
0
 40
0
 40
1
 40
1
 40
1
 40
1
 10
79.631309
 20
127.001461
 30
0.0
 10
77.628555
 20
124.998840
 30
0.0
 10
70.912313
 20
126.809321
 30
0.0
 10
66.764594
 20
130.997304
 30
0.0
  0
SPLINE
  5
11d
100
AcDbEntity
  8
0
 62
2
100
AcDbSpline
 70
8
 71
3
 72
8
 73
4
 74
0
 40
0
 40
0
 40
0
 40
0
 40
1
 40
1
 40
1
 40
1
 10
66.764594
 20
130.997304
 30
0.0
 10
62.531120
 20
135.271879
 30
0.0
 10
62.151898
 20
141.207421
 30
0.0
 10
63.713778
 20
142.919206
 30
0.0
  0
SPLINE
  5
11e
100
AcDbEntity
  8
0
 62
2
100
AcDbSpline
 70
8
 71
3
 72
8
 73
4
 74
0
 40
0
 40
0
 40
0
 40
0
 40
1
 40
1
 40
1
 40
1
 10
63.713778
 20
142.919206
 30
0.0
 10
65.730555
 20
145.129638
 30
0.0
 10
72.134484
 20
143.350476
 30
0.0
 10
75.635612
 20
139.868356
 30
0.0
  0
LINE
  5
11f
100
AcDbEntity
  8
0
 62
2
100
AcDbLine
 10
75.635612
 20
139.868356
 30
0.0
 11
75.635612
 21
139.868356
 31
0.0
  0
SPLINE
  5
120
100
AcDbEntity
  8
0
 62
2
100
AcDbSpline
 70
8
 71
3
 72
8
 73
4
 74
0
 40
0
 40
0
 40
0
 40
0
 40
1
 40
1
 40
1
 40
1
 10
50.526086
 20
141.971326
 30
0.0
 10
55.532102
 20
139.915890
 30
0.0
 10
60.245580
 20
134.278485
 30
0.0
 10
59.141501
 20
131.613158
 30
0.0
  0
SPLINE
  5
121
100
AcDbEntity
  8
0
 62
2
100
AcDbSpline
 70
8
 71
3
 72
8
 73
4
 74
0
 40
0
 40
0
 40
0
 40
0
 40
1
 40
1
 40
1
 40
1
 10
59.141501
 20
131.613158
 30
0.0
 10
58.057638
 20
128.996326
 30
0.0
 10
51.159746
 20
128.099012
 30
0.0
 10
45.725103
 20
130.380778
 30
0.0
  0
SPLINE
  5
122
100
AcDbEntity
  8
0
 62
2
100
AcDbSpline
 70
8
 71
3
 72
8
 73
4
 74
0
 40
0
 40
0
 40
0
 40
0
 40
1
 40
1
 40
1
 40
1
 10
45.725103
 20
130.380778
 30
0.0
 10
40.178076
 20
132.709693
 30
0.0
 10
37.556336
 20
138.048440
 30
0.0
 10
38.344229
 20
140.227692
 30
0.0
  0
SPLINE
  5
123
100
AcDbEntity
  8
0
 62
2
100
AcDbSpline
 70
8
 71
3
 72
8
 73
4
 74
0
 40
0
 40
0
 40
0
 40
0
 40
1
 40
1
 40
1
 40
1
 10
38.344229
 20
140.227692
 30
0.0
 10
39.361626
 20
143.041535
 30
0.0
 10
45.958935
 20
143.848479
 30
0.0
 10
50.526086
 20
141.971326
 30
0.0
  0
LINE
  5
124
100
AcDbEntity
  8
0
 62
2
100
AcDbLine
 10
50.526086
 20
141.971326
 30
0.0
 11
50.526086
 21
141.971326
 31
0.0
  0
SPLINE
  5
125
100
AcDbEntity
  8
0
 62
2
100
AcDbSpline
 70
8
 71
3
 72
8
 73
4
 74
0
 40
0
 40
0
 40
0
 40
0
 40
1
 40
1
 40
1
 40
1
 10
62.123481
 20
124.813107
 30
0.0
 10
67.535004
 20
124.813107
 30
0.0
 10
74.047068
 20
121.425035
 30
0.0
 10
74.047034
 20
118.540269
 30
0.0
  0
SPLINE
  5
126
100
AcDbEntity
  8
0
 62
2
100
AcDbSpline
 70
8
 71
3
 72
8
 73
4
 74
0
 40
0
 40
0
 40
0
 40
0
 40
1
 40
1
 40
1
 40
1
 10
74.047034
 20
118.540269
 30
0.0
 10
74.047034
 20
115.707746
 30
0.0
 10
68.017636
 20
112.239153
 30
0.0
 10
62.123481
 20
112.267463
 30
0.0
  0
SPLINE
  5
127
100
AcDbEntity
  8
0
 62
2
100
AcDbSpline
 70
8
 71
3
 72
8
 73
4
 74
0
 40
0
 40
0
 40
0
 40
0
 40
1
 40
1
 40
1
 40
1
 10
62.123481
 20
112.267463
 30
0.0
 10
56.107398
 20
112.301160
 30
0.0
 10
51.642210
 20
116.225505
 30
0.0
 10
51.536199
 20
118.540269
 30
0.0
  0
SPLINE
  5
128
100
AcDbEntity
  8
0
 62
2
100
AcDbSpline
 70
8
 71
3
 72
8
 73
4
 74
0
 40
0
 40
0
 40
0
 40
0
 40
1
 40
1
 40
1
 40
1
 10
51.536199
 20
118.540269
 30
0.0
 10
51.399344
 20
121.529194
 30
0.0
 10
57.185633
 20
124.799281
 30
0.0
 10
62.123481
 20
124.813107
 30
0.0
  0
LINE
  5
129
100
AcDbEntity
  8
0
 62
2
100
AcDbLine
 10
62.123481
 20
124.813107
 30
0.0
 11
62.123481
 21
124.813107
 31
0.0
  0
SPLINE
  5
12a
100
AcDbEntity
  8
0
 62
4
100
AcDbSpline
 70
8
 71
3
 72
8
 73
4
 74
0
 40
0
 40
0
 40
0
 40
0
 40
1
 40
1
 40
1
 40
1
 10
113.634193
 20
125.234120
 30
0.0
 10
119.045716
 20
125.234120
 30
0.0
 10
125.557746
 20
121.846390
 30
0.0
 10
125.557709
 20
118.961283
 30
0.0
  0
SPLINE
  5
12b
100
AcDbEntity
  8
0
 62
4
100
AcDbSpline
 70
8
 71
3
 72
8
 73
4
 74
0
 40
0
 40
0
 40
0
 40
0
 40
1
 40
1
 40
1
 40
1
 10
125.557709
 20
118.961283
 30
0.0
 10
125.557746
 20
116.129101
 30
0.0
 10
119.528316
 20
112.660166
 30
0.0
 10
113.634193
 20
112.688818
 30
0.0
  0
SPLINE
  5
12c
100
AcDbEntity
  8
0
 62
4
100
AcDbSpline
 70
8
 71
3
 72
8
 73
4
 74
0
 40
0
 40
0
 40
0
 40
0
 40
1
 40
1
 40
1
 40
1
 10
113.634193
 20
112.688818
 30
0.0
 10
107.618050
 20
112.722515
 30
0.0
 10
103.152922
 20
116.646530
 30
0.0
 10
103.046877
 20
118.961624
 30
0.0
  0
SPLINE
  5
12d
100
AcDbEntity
  8
0
 62
4
100
AcDbSpline
 70
8
 71
3
 72
8
 73
4
 74
0
 40
0
 40
0
 40
0
 40
0
 40
1
 40
1
 40
1
 40
1
 10
103.046877
 20
118.961624
 30
0.0
 10
102.910019
 20
121.950552
 30
0.0
 10
108.696280
 20
125.220636
 30
0.0
 10
113.634193
 20
125.234120
 30
0.0
  0
LINE
  5
12e
100
AcDbEntity
  8
0
 62
4
100
AcDbLine
 10
113.634193
 20
125.234120
 30
0.0
 11
113.634193
 21
125.234120
 31
0.0
  0
SPLINE
  5
12f
100
AcDbEntity
  8
0
 62
2
100
AcDbSpline
 70
8
 71
3
 72
8
 73
4
 74
0
 40
0
 40
0
 40
0
 40
0
 40
1
 40
1
 40
1
 40
1
 10
132.386231
 20
127.959447
 30
0.0
 10
127.393136
 20
125.872899
 30
0.0
 10
120.073888
 20
126.526168
 30
0.0
 10
118.969872
 20
129.191833
 30
0.0
  0
SPLINE
  5
130
100
AcDbEntity
  8
0
 62
2
100
AcDbSpline
 70
8
 71
3
 72
8
 73
4
 74
0
 40
0
 40
0
 40
0
 40
0
 40
1
 40
1
 40
1
 40
1
 10
118.969872
 20
129.191833
 30
0.0
 10
117.885938
 20
131.808335
 30
0.0
 10
122.128991
 20
137.320674
 30
0.0
 10
127.585275
 20
139.550150
 30
0.0
  0
SPLINE
  5
131
100
AcDbEntity
  8
0
 62
2
100
AcDbSpline
 70
8
 71
3
 72
8
 73
4
 74
0
 40
0
 40
0
 40
0
 40
0
 40
1
 40
1
 40
1
 40
1
 10
127.585275
 20
139.550150
 30
0.0
 10
133.154750
 20
141.824994
 30
0.0
 10
138.783252
 20
139.904427
 30
0.0
 10
139.767166
 20
137.806409
 30
0.0
  0
SPLINE
  5
132
100
AcDbEntity
  8
0
 62
2
100
AcDbSpline
 70
8
 71
3
 72
8
 73
4
 74
0
 40
0
 40
0
 40
0
 40
0
 40
1
 40
1
 40
1
 40
1
 10
139.767166
 20
137.806409
 30
0.0
 10
141.037468
 20
135.097265
 30
0.0
 10
136.943109
 20
129.861673
 30
0.0
 10
132.386231
 20
127.959447
 30
0.0
  0
LINE
  5
133
100
AcDbEntity
  8
0
 62
2
100
AcDbLine
 10
132.386231
 20
127.959447
 30
0.0
 11
132.386231
 21
127.959447
 31
0.0
  0
SPLINE
  5
134
100
AcDbEntity
  8
0
 62
2
100
AcDbSpline
 70
8
 71
3
 72
8
 73
4
 74
0
 40
0
 40
0
 40
0
 40
0
 40
1
 40
1
 40
1
 40
1
 10
130.372928
 20
105.629260
 30
0.0
 10
135.378975
 20
103.574053
 30
0.0
 10
140.092453
 20
97.936317
 30
0.0
 10
138.988371
 20
95.270993
 30
0.0
  0
SPLINE
  5
135
100
AcDbEntity
  8
0
 62
2
100
AcDbSpline
 70
8
 71
3
 72
8
 73
4
 74
0
 40
0
 40
0
 40
0
 40
0
 40
1
 40
1
 40
1
 40
1
 10
138.988371
 20
95.270993
 30
0.0
 10
137.904542
 20
92.654187
 30
0.0
 10
131.006619
 20
91.756864
 30
0.0
 10
125.572009
 20
94.038594
 30
0.0
  0
SPLINE
  5
136
100
AcDbEntity
  8
0
 62
2
100
AcDbSpline
 70
8
 71
3
 72
8
 73
4
 74
0
 40
0
 40
0
 40
0
 40
0
 40
1
 40
1
 40
1
 40
1
 10
125.572009
 20
94.038594
 30
0.0
 10
120.025081
 20
96.368200
 30
0.0
 10
117.403237
 20
101.706270
 30
0.0
 10
118.191068
 20
103.885525
 30
0.0
  0
SPLINE
  5
137
100
AcDbEntity
  8
0
 62
2
100
AcDbSpline
 70
8
 71
3
 72
8
 73
4
 74
0
 40
0
 40
0
 40
0
 40
0
 40
1
 40
1
 40
1
 40
1
 10
118.191068
 20
103.885525
 30
0.0
 10
119.208426
 20
106.699500
 30
0.0
 10
125.805777
 20
107.506487
 30
0.0
 10
130.372928
 20
105.629260
 30
0.0
  0
LINE
  5
138
100
AcDbEntity
  8
0
 62
2
100
AcDbLine
 10
130.372928
 20
105.629260
 30
0.0
 11
130.372928
 21
105.629260
 31
0.0
  0
SPLINE
  5
139
100
AcDbEntity
  8
0
 62
1
100
AcDbSpline
 70
8
 71
3
 72
8
 73
4
 74
0
 40
0
 40
0
 40
0
 40
0
 40
1
 40
1
 40
1
 40
1
 10
110.502782
 20
105.211614
 30
0.0
 10
114.341193
 20
101.397163
 30
0.0
 10
116.538510
 20
94.385118
 30
0.0
 10
114.498476
 20
92.345077
 30
0.0
  0
SPLINE
  5
13a
100
AcDbEntity
  8
0
 62
1
100
AcDbSpline
 70
8
 71
3
 72
8
 73
4
 74
0
 40
0
 40
0
 40
0
 40
0
 40
1
 40
1
 40
1
 40
1
 10
114.498476
 20
92.345077
 30
0.0
 10
112.495796
 20
90.342123
 30
0.0
 10
105.779449
 20
92.152937
 30
0.0
 10
101.631764
 20
96.340895
 30
0.0
  0
SPLINE
  5
13b
100
AcDbEntity
  8
0
 62
1
100
AcDbSpline
 70
8
 71
3
 72
8
 73
4
 74
0
 40
0
 40
0
 40
0
 40
0
 40
1
 40
1
 40
1
 40
1
 10
101.631764
 20
96.340895
 30
0.0
 10
97.398552
 20
100.615808
 30
0.0
 10
97.019107
 20
106.550854
 30
0.0
 10
98.580948
 20
108.262566
 30
0.0
  0
SPLINE
  5
13c
100
AcDbEntity
  8
0
 62
1
100
AcDbSpline
 70
8
 71
3
 72
8
 73
4
 74
0
 40
0
 40
0
 40
0
 40
0
 40
1
 40
1
 40
1
 40
1
 10
98.580948
 20
108.262566
 30
0.0
 10
100.597657
 20
110.472826
 30
0.0
 10
107.001654
 20
108.694033
 30
0.0
 10
110.502782
 20
105.211614
 30
0.0
  0
LINE
  5
13d
100
AcDbEntity
  8
0
 62
1
100
AcDbLine
 10
110.502782
 20
105.211614
 30
0.0
 11
110.502782
 21
105.211614
 31
0.0
  0
SPLINE
  5
13e
100
AcDbEntity
  8
0
 62
4
100
AcDbSpline
 70
8
 71
3
 72
8
 73
4
 74
0
 40
0
 40
0
 40
0
 40
0
 40
1
 40
1
 40
1
 40
1
 10
75.732586
 20
94.745459
 30
0.0
 10
71.918045
 20
90.907079
 30
0.0
 10
64.905884
 20
88.709617
 30
0.0
 10
62.865878
 20
90.749997
 30
0.0
  0
SPLINE
  5
13f
100
AcDbEntity
  8
0
 62
4
100
AcDbSpline
 70
8
 71
3
 72
8
 73
4
 74
0
 40
0
 40
0
 40
0
 40
0
 40
1
 40
1
 40
1
 40
1
 10
62.865878
 20
90.749997
 30
0.0
 10
60.863096
 20
92.752614
 30
0.0
 10
62.673735
 20
99.468707
 30
0.0
 10
66.861569
 20
103.616530
 30
0.0
  0
SPLINE
  5
140
100
AcDbEntity
  8
0
 62
4
100
AcDbSpline
 70
8
 71
3
 72
8
 73
4
 74
0
 40
0
 40
0
 40
0
 40
0
 40
1
 40
1
 40
1
 40
1
 10
66.861569
 20
103.616530
 30
0.0
 10
71.136177
 20
107.849974
 30
0.0
 10
77.071590
 20
108.229193
 30
0.0
 10
78.783442
 20
106.667477
 30
0.0
  0
SPLINE
  5
141
100
AcDbEntity
  8
0
 62
4
100
AcDbSpline
 70
8
 71
3
 72
8
 73
4
 74
0
 40
0
 40
0
 40
0
 40
0
 40
1
 40
1
 40
1
 40
1
 10
78.783442
 20
106.667477
 30
0.0
 10
80.993875
 20
104.650705
 30
0.0
 10
79.214740
 20
98.246776
 30
0.0
 10
75.732586
 20
94.745459
 30
0.0
  0
LINE
  5
142
100
AcDbEntity
  8
0
 62
4
100
AcDbLine
 10
75.732586
 20
94.745459
 30
0.0
 11
75.732586
 21
94.745459
 31
0.0
  0
SPLINE
  5
143
100
AcDbEntity
  8
0
 62
2
100
AcDbSpline
 70
8
 71
3
 72
8
 73
4
 74
0
 40
0
 40
0
 40
0
 40
0
 40
1
 40
1
 40
1
 40
1
 10
45.214856
 20
107.753228
 30
0.0
 10
50.208022
 20
109.839446
 30
0.0
 10
57.527269
 20
109.186177
 30
0.0
 10
58.631286
 20
106.520842
 30
0.0
  0
SPLINE
  5
144
100
AcDbEntity
  8
0
 62
2
100
AcDbSpline
 70
8
 71
3
 72
8
 73
4
 74
0
 40
0
 40
0
 40
0
 40
0
 40
1
 40
1
 40
1
 40
1
 10
58.631286
 20
106.520842
 30
0.0
 10
59.715219
 20
103.904067
 30
0.0
 10
55.472166
 20
98.392055
 30
0.0
 10
50.015851
 20
96.162581
 30
0.0
  0
SPLINE
  5
145
100
AcDbEntity
  8
0
 62
2
100
AcDbSpline
 70
8
 71
3
 72
8
 73
4
 74
0
 40
0
 40
0
 40
0
 40
0
 40
1
 40
1
 40
1
 40
1
 10
50.015851
 20
96.162581
 30
0.0
 10
44.446441
 20
93.887577
 30
0.0
 10
38.817770
 20
95.808305
 30
0.0
 10
37.833991
 20
97.906320
 30
0.0
  0
SPLINE
  5
146
100
AcDbEntity
  8
0
 62
2
100
AcDbSpline
 70
8
 71
3
 72
8
 73
4
 74
0
 40
0
 40
0
 40
0
 40
0
 40
1
 40
1
 40
1
 40
1
 10
37.833991
 20
97.906320
 30
0.0
 10
36.563689
 20
100.615467
 30
0.0
 10
40.658110
 20
105.851059
 30
0.0
 10
45.214856
 20
107.753228
 30
0.0
  0
LINE
  5
147
100
AcDbEntity
  8
0
 62
2
100
AcDbLine
 10
45.214856
 20
107.753228
 30
0.0
 11
45.214856
 21
107.753228
 31
0.0
  0
SPLINE
  5
148
100
AcDbEntity
  8
0
 62
1
100
AcDbSpline
 70
8
 71
3
 72
8
 73
4
 74
0
 40
0
 40
0
 40
0
 40
0
 40
1
 40
1
 40
1
 40
1
 10
78.345530
 20
76.448518
 30
0.0
 10
76.290229
 20
71.442472
 30
0.0
 10
70.652730
 20
66.729025
 30
0.0
 10
67.987339
 20
67.832979
 30
0.0
  0
SPLINE
  5
149
100
AcDbEntity
  8
0
 62
1
100
AcDbSpline
 70
8
 71
3
 72
8
 73
4
 74
0
 40
0
 40
0
 40
0
 40
0
 40
1
 40
1
 40
1
 40
1
 10
67.987339
 20
67.832979
 30
0.0
 10
65.370583
 20
68.916707
 30
0.0
 10
64.473063
 20
75.814797
 30
0.0
 10
66.754987
 20
81.249273
 30
0.0
  0
SPLINE
  5
14a
100
AcDbEntity
  8
0
 62
1
100
AcDbSpline
 70
8
 71
3
 72
8
 73
4
 74
0
 40
0
 40
0
 40
0
 40
0
 40
1
 40
1
 40
1
 40
1
 10
66.754987
 20
81.249273
 30
0.0
 10
69.084136
 20
86.796334
 30
0.0
 10
74.422652
 20
89.418173
 30
0.0
 10
76.601870
 20
88.630409
 30
0.0
  0
SPLINE
  5
14b
100
AcDbEntity
  8
0
 62
1
100
AcDbSpline
 70
8
 71
3
 72
8
 73
4
 74
0
 40
0
 40
0
 40
0
 40
0
 40
1
 40
1
 40
1
 40
1
 10
76.601870
 20
88.630409
 30
0.0
 10
79.415809
 20
87.612752
 30
0.0
 10
80.222796
 20
81.015667
 30
0.0
 10
78.345530
 20
76.448518
 30
0.0
  0
LINE
  5
14c
100
AcDbEntity
  8
0
 62
1
100
AcDbLine
 10
78.345530
 20
76.448518
 30
0.0
 11
78.345530
 21
76.448518
 31
0.0
  0
SPLINE
  5
14d
100
AcDbEntity
  8
0
 62
2
100
AcDbSpline
 70
8
 71
3
 72
8
 73
4
 74
0
 40
0
 40
0
 40
0
 40
0
 40
1
 40
1
 40
1
 40
1
 10
109.117934
 20
79.253728
 30
0.0
 10
111.204429
 20
74.260494
 30
0.0
 10
110.551019
 20
66.941047
 30
0.0
 10
107.885591
 20
65.837098
 30
0.0
  0
SPLINE
  5
14e
100
AcDbEntity
  8
0
 62
2
100
AcDbSpline
 70
8
 71
3
 72
8
 73
4
 74
0
 40
0
 40
0
 40
0
 40
0
 40
1
 40
1
 40
1
 40
1
 10
107.885591
 20
65.837098
 30
0.0
 10
105.268906
 20
64.753368
 30
0.0
 10
99.756699
 20
68.996251
 30
0.0
 10
97.527389
 20
74.452637
 30
0.0
  0
SPLINE
  5
14f
100
AcDbEntity
  8
0
 62
2
100
AcDbSpline
 70
8
 71
3
 72
8
 73
4
 74
0
 40
0
 40
0
 40
0
 40
0
 40
1
 40
1
 40
1
 40
1
 10
97.527389
 20
74.452637
 30
0.0
 10
95.252342
 20
80.021945
 30
0.0
 10
97.173011
 20
85.650577
 30
0.0
 10
99.271063
 20
86.634533
 30
0.0
  0
SPLINE
  5
150
100
AcDbEntity
  8
0
 62
2
100
AcDbSpline
 70
8
 71
3
 72
8
 73
4
 74
0
 40
0
 40
0
 40
0
 40
0
 40
1
 40
1
 40
1
 40
1
 10
99.271063
 20
86.634533
 30
0.0
 10
101.980204
 20
87.905002
 30
0.0
 10
107.215869
 20
83.810440
 30
0.0
 10
109.117934
 20
79.253728
 30
0.0
  0
LINE
  5
151
100
AcDbEntity
  8
0
 62
2
100
AcDbLine
 10
109.117934
 20
79.253728
 30
0.0
 11
109.117934
 21
79.253728
 31
0.0
  0
ENDSEC
  0
SECTION
  2
OBJECTS
  0
DICTIONARY
  5
C
330
0
100
AcDbDictionary
  3
ACAD_GROUP
350
D
  3
ACAD_MLINESTYLE
350
17
  0
DICTIONARY
  5
D
330
C
100
AcDbDictionary
  0
DICTIONARY
  5
1A
330
C
100
AcDbDictionary
  0
DICTIONARY
  5
17
330
C
100
AcDbDictionary
  3
STANDARD
350
18
  0
DICTIONARY
  5
19
330
C
100
AcDbDictionary
  0
ENDSEC
  0
EOF
