<?xml version="1.0" encoding="UTF-8" standalone="no"?>
<!-- Created with Inkscape (http://www.inkscape.org/) -->

<svg
   xmlns:dc="http://purl.org/dc/elements/1.1/"
   xmlns:cc="http://creativecommons.org/ns#"
   xmlns:rdf="http://www.w3.org/1999/02/22-rdf-syntax-ns#"
   xmlns:svg="http://www.w3.org/2000/svg"
   xmlns="http://www.w3.org/2000/svg"
   xmlns:sodipodi="http://sodipodi.sourceforge.net/DTD/sodipodi-0.dtd"
   xmlns:inkscape="http://www.inkscape.org/namespaces/inkscape"
   width="210mm"
   height="297mm"
   viewBox="0 0 744.09448819 1052.3622047"
   id="svg4142"
   version="1.1"
   inkscape:version="0.91 r13725"
   sodipodi:docname="onap.svg">
  <defs
     id="defs4144">
    <pattern
       y="0"
       x="0"
       height="6"
       width="6"
       patternUnits="userSpaceOnUse"
       id="EMFhbasepattern" />
  </defs>
  <sodipodi:namedview
     id="base"
     pagecolor="#ffffff"
     bordercolor="#666600"
     borderopacity="1"
     inkscape:pageopacity="0.0"
     inkscape:pageshadow="2"
     inkscape:zoom="2.8284271"
     inkscape:cx="268.14124"
     inkscape:cy="438.89001"
     inkscape:document-units="mm"
     inkscape:current-layer="layer1"
     showgrid="false"
     inkscape:window-width="1920"
     inkscape:window-height="1017"
     inkscape:window-x="-8"
     inkscape:window-y="-8"
     inkscape:window-maximized="1" />
  <metadata
     id="metadata4147">
    <rdf:RDF>
      <cc:Work
         rdf:about="">
        <dc:format>image/svg+xml</dc:format>
        <dc:type
           rdf:resource="http://purl.org/dc/dcmitype/StillImage" />
        <dc:title></dc:title>
      </cc:Work>
    </rdf:RDF>
  </metadata>
  <g
     inkscape:label="Calque 1"
     inkscape:groupmode="layer"
     id="layer1">
    <path
       style="fill:#0000ff;stroke:#0000ff;stroke-width:0.05523924;stroke-miterlimit:4;stroke-dasharray:none"
       d="m 156.88679,688.39066 19.19337,-11.89442 19.61518,11.67208 -19.64673,12.14419 z"
       id="rect4945-1"
       inkscape:connector-curvature="0"
       sodipodi:nodetypes="ccccc" />
    <path
       style="fill:#0000ff;stroke:#0000ff;stroke-width:0.05523924;stroke-miterlimit:4;stroke-dasharray:none"
       d="m 117.6997,688.23671 19.84553,-11.79039 19.34156,11.94434 -19.51652,11.89088 z"
       id="rect4945-76"
       inkscape:connector-curvature="0"
       sodipodi:nodetypes="ccccc" />
    <path
       style="fill:#808000;stroke:#808000;stroke-width:0.05523924;stroke-miterlimit:4;stroke-dasharray:none"
       d="m 117.74745,664.56303 19.70232,-11.92167 19.49266,11.92167 -19.3972,11.88329 z"
       id="rect4945-0"
       inkscape:connector-curvature="0"
       sodipodi:nodetypes="ccccc" />
    <path
       style="fill:#808000;stroke:#808000;stroke-width:0.05523924;stroke-miterlimit:4;stroke-dasharray:none"
       d="m 156.94243,664.56303 19.18564,-11.95243 19.56725,12.15063 -19.61516,11.73497 z"
       id="rect4945-5"
       inkscape:connector-curvature="0"
       sodipodi:nodetypes="ccccc" />
    <path
       style="fill:#008000;stroke:#008000;stroke-width:0.05523924;stroke-miterlimit:4;stroke-dasharray:none"
       d="m 117.74745,664.56303 19.79778,11.88329 -19.84553,11.79039 z"
       id="rect4945-71"
       inkscape:connector-curvature="0"
       sodipodi:nodetypes="cccc" />
    <path
       style="fill:#008000;stroke:#008000;stroke-width:0.05523924;stroke-miterlimit:4;stroke-dasharray:none"
       d="m 176.08016,676.49624 19.61516,-11.735 2e-5,23.40708 z"
       id="rect4945-53"
       inkscape:connector-curvature="0"
       sodipodi:nodetypes="cccc" />
    <path
       style="fill:#000000;stroke:#000000;stroke-width:0.05523924;stroke-miterlimit:4;stroke-dasharray:none"
       d="m 137.37027,700.28154 19.51652,-11.89088 19.16182,11.92185 -19.35108,11.84061 z"
       id="rect4945"
       inkscape:connector-curvature="0"
       sodipodi:nodetypes="ccccc" />
    <path
       style="fill:#008000;stroke:#008000;stroke-width:0.05523924;stroke-miterlimit:4;stroke-dasharray:none"
       d="m 137.54523,676.44632 19.3972,-11.88329 19.13773,11.93317 -19.19337,11.89446 z"
       id="rect4945-7"
       inkscape:connector-curvature="0"
       sodipodi:nodetypes="ccccc" />
    <path
       style="fill:#800000;stroke:#800000;stroke-width:0.05523924;stroke-miterlimit:4;stroke-dasharray:none"
       d="m 137.44977,652.64136 19.39087,-11.89437 19.28743,11.86361 -19.18564,11.95243 z"
       id="rect4945-17"
       inkscape:connector-curvature="0"
       sodipodi:nodetypes="ccccc" />
    <path
       inkscape:connector-curvature="0"
       style="fill:#0000ff;stroke:#0000ff;stroke-width:0.98833251;stroke-miterlimit:4;stroke-dasharray:none"
       d="m 108.82486,636.37303 0,26.69976 41.91566,-26.69976 -41.91566,0 z m 51.00268,0 41.91567,26.69976 0,-26.69976 -41.91567,0 z m -51.00268,54.71251 0,26.69996 41.91023,0 -41.91023,-26.69996 z m 92.91835,0 -41.91023,26.69996 41.91023,0 0,-26.69996 z"
       id="rect5083"
       inkscape:export-xdpi="90"
       inkscape:export-ydpi="90" />
    <path
       style="fill:#ffff00;stroke:#ffff00;stroke-width:0.34524512;stroke-miterlimit:4;stroke-dasharray:none"
       d="m 257.44477,686.84513 c 3.54423,0 7.01267,-2.42263 7.01267,-5.96691 l 0,-24.85237 c 0,-3.54434 -3.23115,-6.87605 -6.77538,-6.87605 l -23.86822,0 c -3.54422,0 -6.26576,3.33171 -6.26576,6.87605 l 0,24.85237 c 0,4.1098 3.63866,5.96691 6.02847,5.96691 z m -26.57485,12.24146 c -8.86072,0 -15.9941,-7.13328 -15.9941,-15.99391 l 0,-30.26566 c 0,-8.86082 7.13338,-15.99409 15.9941,-15.99409 l 30.26571,0 c 8.8607,0 15.99407,7.13327 15.99407,15.99409 l 0,30.26566 c 0,8.86063 -7.13337,15.99391 -15.99407,15.99391 z"
       id="path4251"
       inkscape:connector-curvature="0"
       sodipodi:nodetypes="csssssscccsssssscc" />
    <path
       style="fill:#000000;fill-rule:evenodd;stroke:#000000;stroke-width:0.34524512;stroke-linecap:butt;stroke-linejoin:miter;stroke-miterlimit:4;stroke-dasharray:none;stroke-opacity:1"
       d="m 285.74189,699.08677 0,-61.76159 21.53046,0 32.35723,49.70449 2.09155,0 0,-49.58152 12.42615,0 0,61.76178 -21.77653,0 -31.74206,-49.58171 -1.84548,0 0,49.33559 z"
       id="path5548"
       inkscape:connector-curvature="0"
       sodipodi:nodetypes="ccccccccccccc" />
    <path
       id="path5552"
       style="fill:#000000;fill-rule:evenodd;stroke:#000000;stroke-width:0.34524512;stroke-linecap:butt;stroke-linejoin:miter;stroke-miterlimit:4;stroke-dasharray:none;stroke-opacity:1"
       d="m 397.59337,648.59577 -10.87456,23.48887 21.40111,0 z m -37.93041,50.45768 28.27379,-61.68033 19.05221,0 27.92582,61.85435 -14.7894,0 -7.04667,-15.74622 -31.49268,0 -6.87269,15.5722 z"
       inkscape:connector-curvature="0" />
    <path
       id="path5557"
       style="fill:#000000;fill-rule:evenodd;stroke:#000000;stroke-width:0.34524512;stroke-linecap:butt;stroke-linejoin:miter;stroke-miterlimit:4;stroke-dasharray:none;stroke-opacity:1"
       d="m 451.53107,649.63972 22.44504,0 c 2.9095,0.2997 5.96743,0.11107 7.30769,5.56767 l 0,7.13367 c -0.5722,4.30336 -3.23296,6.07063 -7.04668,6.43778 l -22.79305,0 z m -12.61446,49.41373 0,-61.68033 35.75538,-0.0565 c 5.32604,-0.0195 17.70753,0.64016 18.70431,15.36816 l 0.17396,12.26639 c -0.31013,9.06155 -6.27858,15.87252 -17.39903,15.86959 l -24.62016,0.0508 0.17397,18.26934 z"
       inkscape:connector-curvature="0"
       sodipodi:nodetypes="cccccccccccccccc" />
    <path
       inkscape:connector-curvature="0"
       id="path5565"
       style="font-style:normal;font-variant:normal;font-weight:normal;font-stretch:normal;font-size:6.875px;line-height:125%;font-family:Arial;-inkscape-font-specification:Arial;letter-spacing:0px;word-spacing:0px;fill:#000000;fill-opacity:1;stroke:#000000;stroke-width:0.06904903;stroke-linecap:butt;stroke-linejoin:miter;stroke-miterlimit:4;stroke-dasharray:none;stroke-opacity:1"
       d="m 215.29689,710.47176 c 0.15027,-1.38571 0.83838,-2.11863 2.13692,-2.11026 l 4.74366,0 c 0.99878,0.0625 1.96107,0.19995 2.07584,2.11026 l 0,4.35051 c -0.0334,1.63049 -0.89982,2.13034 -2.07584,2.21006 l -4.74366,0 c -1.91224,-0.11108 -2.07533,-1.13377 -2.13692,-2.21006 z m 0.93818,4.35051 c -0.0306,0.78456 0.32743,1.25129 1.19874,1.29805 l 4.74366,0 c 0.66649,0 1.19785,-0.23346 1.21349,-1.29805 l 0,-4.35051 c -0.0367,-0.75903 -0.35849,-1.23256 -1.21349,-1.17294 l -4.74366,0 c -0.71849,10e-4 -1.21569,0.27282 -1.19874,1.17294 z"
       sodipodi:nodetypes="cccccccccccccccccc" />
    <path
       inkscape:connector-curvature="0"
       id="path5567"
       style="font-style:normal;font-variant:normal;font-weight:normal;font-stretch:normal;font-size:6.875px;line-height:125%;font-family:Arial;-inkscape-font-specification:Arial;letter-spacing:0px;word-spacing:0px;fill:#000000;fill-opacity:1;stroke:#000000;stroke-width:0.06904903;stroke-linecap:butt;stroke-linejoin:miter;stroke-miterlimit:4;stroke-dasharray:none;stroke-opacity:1"
       d="m 225.31591,717.02997 0.0161,-8.53264 6.09813,0 c 1.17768,0.0371 1.57127,0.60644 1.60432,1.42041 l 0.0329,2.05355 c -0.22524,1.42004 -0.93174,1.43642 -1.63724,1.4557 l -2.5078,0 -2.65959,0 0,3.60493 z m 6.11354,-4.65431 c 0.37953,0.0642 0.45381,-0.14406 0.46823,-0.40437 l 0,-2.05355 c 0,0 -0.0336,-0.34785 -0.46823,-0.33615 l -5.16741,-0.0389 0,2.83305 z"
       sodipodi:nodetypes="ccccccccccccccccc" />
    <path
       inkscape:connector-curvature="0"
       id="path5577"
       style="font-style:normal;font-variant:normal;font-weight:normal;font-stretch:normal;font-size:6.875px;line-height:125%;font-family:Arial;-inkscape-font-specification:Arial;letter-spacing:0px;word-spacing:0px;fill:#000000;fill-opacity:1;stroke:#000000;stroke-width:0.06904903;stroke-linecap:butt;stroke-linejoin:miter;stroke-miterlimit:4;stroke-dasharray:none;stroke-opacity:1"
       d="m 275.41162,717.02997 0,-7.45735 -3.62103,0 0,-1.07725 7.97057,0 0,1.07725 -3.31035,0 0.0761,7.45735 z"
       sodipodi:nodetypes="ccccccccc" />
    <path
       inkscape:connector-curvature="0"
       id="path5579"
       style="font-style:normal;font-variant:normal;font-weight:normal;font-stretch:normal;font-size:6.875px;line-height:125%;font-family:Arial;-inkscape-font-specification:Arial;letter-spacing:0px;word-spacing:0px;fill:#000000;fill-opacity:1;stroke:#000000;stroke-width:0.06904903;stroke-linecap:butt;stroke-linejoin:miter;stroke-miterlimit:4;stroke-dasharray:none;stroke-opacity:1"
       d="m 283.84461,717.02997 -3.18415,-8.5346 1.2257,0 2.59513,6.82833 2.82022,-6.90433 0.66295,0.0449 2.94166,6.9501 2.42364,-6.91971 1.12338,0 -3.07127,8.53461 -0.99494,0 -2.74858,-6.57515 -2.66594,6.57515 z"
       sodipodi:nodetypes="cccccccccccccc" />
    <path
       inkscape:connector-curvature="0"
       id="path5583"
       style="font-style:normal;font-variant:normal;font-weight:normal;font-stretch:normal;font-size:6.875px;line-height:125%;font-family:Arial;-inkscape-font-specification:Arial;letter-spacing:0px;word-spacing:0px;fill:#000000;fill-opacity:1;stroke:#000000;stroke-width:0.06904903;stroke-linecap:butt;stroke-linejoin:miter;stroke-miterlimit:4;stroke-dasharray:none;stroke-opacity:1"
       d="m 304.97269,708.36421 6.20152,0 c 2.14611,0.0449 3.05161,3.13434 1.32139,4.5265 0.80465,0.52537 0.72341,0.49634 0.77947,1.68291 l 4e-5,2.45635 -0.96163,0 0,-2.45303 c 0.0231,-0.86738 -0.21558,-1.15735 -1.13744,-1.14293 l -4.93422,0 0,3.59596 -1.26907,0 z m 6.20328,4.18217 c 1.8606,-0.12075 1.76199,-3.19728 0,-3.25145 l -4.93419,10e-4 0,3.24988 z"
       sodipodi:nodetypes="ccccccccccccccccc" />
    <path
       inkscape:connector-curvature="0"
       id="path5585"
       style="font-style:normal;font-variant:normal;font-weight:normal;font-stretch:normal;font-size:6.875px;line-height:125%;font-family:Arial;-inkscape-font-specification:Arial;letter-spacing:0px;word-spacing:0px;fill:#000000;fill-opacity:1;stroke:#000000;stroke-width:0.06904903;stroke-linecap:butt;stroke-linejoin:miter;stroke-miterlimit:4;stroke-dasharray:none;stroke-opacity:1"
       d="m 313.99222,717.02997 0,-8.66576 1.26911,0 0,3.61819 1.23344,0 4.60983,-3.62129 2.02496,0 -5.62169,4.20785 5.5395,4.45789 -1.91828,0 -4.63272,-4.06424 -1.23505,-0.0215 0,4.08627 z"
       sodipodi:nodetypes="cccccccccccccc" />
    <path
       inkscape:connector-curvature="0"
       id="path5587"
       style="font-style:normal;font-variant:normal;font-weight:normal;font-stretch:normal;font-size:6.875px;line-height:125%;font-family:Arial;-inkscape-font-specification:Arial;letter-spacing:0px;word-spacing:0px;fill:#000000;fill-opacity:1;stroke:#000000;stroke-width:0.06904903;stroke-linecap:butt;stroke-linejoin:miter;stroke-miterlimit:4;stroke-dasharray:none;stroke-opacity:1"
       d="m 326.50405,717.02997 3.68299,-8.62717 1.36721,0 3.92504,8.62717 -0.98897,0 -0.99683,-2.18197 -5.01491,0 -0.97708,2.1851 z m 2.40177,-3.1121 4.13427,0 -2.13799,-4.50777 z"
       sodipodi:nodetypes="ccccccccccccc" />
    <path
       inkscape:connector-curvature="0"
       id="path5595"
       style="font-style:normal;font-variant:normal;font-weight:normal;font-stretch:normal;font-size:6.875px;line-height:125%;font-family:Arial;-inkscape-font-specification:Arial;letter-spacing:0px;word-spacing:0px;fill:#000000;fill-opacity:1;stroke:#000000;stroke-width:0.06904903;stroke-linecap:butt;stroke-linejoin:miter;stroke-miterlimit:4;stroke-dasharray:none;stroke-opacity:1"
       d="m 364.50375,717.02997 -0.0915,-8.66576 2.01673,0 3.76314,7.08185 3.75032,-7.08185 1.73784,0 0,8.66576 -1.0406,0 0,-7.66684 -4.11131,7.66684 -0.74898,0 -4.23524,-8.01739 0,8.01739 z"
       sodipodi:nodetypes="cccccccccccccc" />
    <path
       inkscape:connector-curvature="0"
       id="path5601"
       style="font-style:normal;font-variant:normal;font-weight:normal;font-stretch:normal;font-size:6.875px;line-height:125%;font-family:Arial;-inkscape-font-specification:Arial;letter-spacing:0px;word-spacing:0px;fill:#000000;fill-opacity:1;stroke:#000000;stroke-width:0.06904903;stroke-linecap:butt;stroke-linejoin:miter;stroke-miterlimit:4;stroke-dasharray:none;stroke-opacity:1"
       d="m 394.9752,717.02997 -10e-4,-8.5346 1.05593,0 0.001,8.5346 z"
       sodipodi:nodetypes="ccccc" />
    <path
       inkscape:connector-curvature="0"
       id="path5609"
       style="font-style:normal;font-variant:normal;font-weight:normal;font-stretch:normal;font-size:6.875px;line-height:125%;font-family:Arial;-inkscape-font-specification:Arial;letter-spacing:0px;word-spacing:0px;fill:#000000;fill-opacity:1;stroke:#000000;stroke-width:0.06904903;stroke-linecap:butt;stroke-linejoin:miter;stroke-miterlimit:4;stroke-dasharray:none;stroke-opacity:1"
       d="m 429.66239,717.02997 0,-8.5346 1.01076,0 0,7.53629 4.98148,0 0,0.99831 z"
       sodipodi:nodetypes="ccccccc" />
    <path
       inkscape:connector-curvature="0"
       id="path5615"
       style="font-style:normal;font-variant:normal;font-weight:normal;font-stretch:normal;font-size:6.875px;line-height:125%;font-family:Arial;-inkscape-font-specification:Arial;letter-spacing:0px;word-spacing:0px;fill:#000000;fill-opacity:1;stroke:#000000;stroke-width:0.06904903;stroke-linecap:butt;stroke-linejoin:miter;stroke-miterlimit:4;stroke-dasharray:none;stroke-opacity:1"
       d="m 454.93284,717.02997 0,-8.5346 6.91128,0 0,1.07725 -5.74873,0 0,2.40297 5.59686,0 0,1.09087 -5.59686,0 0,3.96351 z"
       sodipodi:nodetypes="ccccccccccc" />
    <path
       inkscape:connector-curvature="0"
       id="path5565-7"
       style="font-style:normal;font-variant:normal;font-weight:normal;font-stretch:normal;font-size:6.875px;line-height:125%;font-family:Arial;-inkscape-font-specification:Arial;letter-spacing:0px;word-spacing:0px;fill:#000000;fill-opacity:1;stroke:#000000;stroke-width:0.06904903;stroke-linecap:butt;stroke-linejoin:miter;stroke-miterlimit:4;stroke-dasharray:none;stroke-opacity:1"
       d="m 295.1662,710.47176 c 0.15027,-1.38571 0.83841,-2.11863 2.13696,-2.11026 l 4.74363,0 c 0.99877,0.0625 1.96106,0.19995 2.07582,2.11026 l 0,4.35051 c -0.0334,1.63049 -0.89981,2.13034 -2.07582,2.21006 l -4.74363,0 c -1.91225,-0.11108 -2.07536,-1.13377 -2.13696,-2.21006 z m 0.93819,4.35051 c -0.0306,0.78456 0.32743,1.25129 1.19877,1.29805 l 4.74363,0 c 0.6665,0 1.19784,-0.23346 1.21347,-1.29805 l 0,-4.35051 c -0.0367,-0.75903 -0.35848,-1.23256 -1.21347,-1.17294 l -4.74363,0 c -0.7185,10e-4 -1.2157,0.27282 -1.19877,1.17294 z"
       sodipodi:nodetypes="cccccccccccccccccc" />
    <path
       inkscape:connector-curvature="0"
       id="path5565-8"
       style="font-style:normal;font-variant:normal;font-weight:normal;font-stretch:normal;font-size:6.875px;line-height:125%;font-family:Arial;-inkscape-font-specification:Arial;letter-spacing:0px;word-spacing:0px;fill:#000000;fill-opacity:1;stroke:#000000;stroke-width:0.06904903;stroke-linecap:butt;stroke-linejoin:miter;stroke-miterlimit:4;stroke-dasharray:none;stroke-opacity:1"
       d="m 354.52174,710.47176 c 0.15026,-1.38571 0.83842,-2.11863 2.13691,-2.11026 l 4.74366,0 c 0.99881,0.0625 1.96108,0.19995 2.07586,2.11026 l 0,4.35051 c -0.0334,1.63049 -0.89983,2.13034 -2.07586,2.21006 l -4.74366,0 c -1.91224,-0.11108 -2.0753,-1.13377 -2.13691,-2.21006 z m 0.93821,4.35051 c -0.0306,0.78456 0.32742,1.25129 1.1987,1.29805 l 4.74366,0 c 0.6665,0 1.19789,-0.23346 1.21351,-1.29805 l 0,-4.35051 c -0.0367,-0.75903 -0.3585,-1.23256 -1.21351,-1.17294 l -4.74366,0 c -0.71846,10e-4 -1.21565,0.27282 -1.1987,1.17294 z"
       sodipodi:nodetypes="cccccccccccccccccc" />
    <path
       inkscape:connector-curvature="0"
       id="path5565-1"
       style="font-style:normal;font-variant:normal;font-weight:normal;font-stretch:normal;font-size:6.875px;line-height:125%;font-family:Arial;-inkscape-font-specification:Arial;letter-spacing:0px;word-spacing:0px;fill:#000000;fill-opacity:1;stroke:#000000;stroke-width:0.06904903;stroke-linecap:butt;stroke-linejoin:miter;stroke-miterlimit:4;stroke-dasharray:none;stroke-opacity:1"
       d="m 397.83586,710.47176 c 0.15026,-1.38571 0.83841,-2.11863 2.13692,-2.11026 l 4.74367,0 c 0.9988,0.0625 1.96107,0.19995 2.07581,2.11026 l 0,4.35051 c -0.0334,1.63049 -0.89982,2.13034 -2.07581,2.21006 l -4.74367,0 c -1.91224,-0.11108 -2.07535,-1.13377 -2.13692,-2.21006 z m 0.93818,4.35051 c -0.0306,0.78456 0.32746,1.25129 1.19874,1.29805 l 4.74367,0 c 0.66647,0 1.19787,-0.23346 1.21351,-1.29805 l 0,-4.35051 c -0.0367,-0.75903 -0.35852,-1.23256 -1.21351,-1.17294 l -4.74367,0 c -0.71851,10e-4 -1.21569,0.27282 -1.19874,1.17294 z"
       sodipodi:nodetypes="cccccccccccccccccc" />
    <path
       inkscape:connector-curvature="0"
       id="path5565-81"
       style="font-style:normal;font-variant:normal;font-weight:normal;font-stretch:normal;font-size:6.875px;line-height:125%;font-family:Arial;-inkscape-font-specification:Arial;letter-spacing:0px;word-spacing:0px;fill:#000000;fill-opacity:1;stroke:#000000;stroke-width:0.06904903;stroke-linecap:butt;stroke-linejoin:miter;stroke-miterlimit:4;stroke-dasharray:none;stroke-opacity:1"
       d="m 462.91945,710.47176 c 0.15026,-1.38571 0.83839,-2.11863 2.13691,-2.11026 l 4.74366,0 c 0.99882,0.0625 1.96109,0.19995 2.07584,2.11026 l 0,4.35051 c -0.0334,1.63049 -0.89982,2.13034 -2.07584,2.21006 l -4.74366,0 c -1.91223,-0.11108 -2.07534,-1.13377 -2.13691,-2.21006 z m 0.93816,4.35051 c -0.0306,0.78456 0.32746,1.25129 1.19875,1.29805 l 4.74366,0 c 0.66648,0 1.19787,-0.23346 1.21352,-1.29805 l 0,-4.35051 c -0.0367,-0.75903 -0.3585,-1.23256 -1.21352,-1.17294 l -4.74366,0 c -0.71849,10e-4 -1.21568,0.27282 -1.19875,1.17294 z"
       sodipodi:nodetypes="cccccccccccccccccc" />
    <path
       inkscape:connector-curvature="0"
       id="path5567-2"
       style="font-style:normal;font-variant:normal;font-weight:normal;font-stretch:normal;font-size:6.875px;line-height:125%;font-family:Arial;-inkscape-font-specification:Arial;letter-spacing:0px;word-spacing:0px;fill:#000000;fill-opacity:1;stroke:#000000;stroke-width:0.06904903;stroke-linecap:butt;stroke-linejoin:miter;stroke-miterlimit:4;stroke-dasharray:none;stroke-opacity:1"
       d="m 420.55355,717.02899 0.0161,-8.53265 6.09814,0 c 1.17765,0.0371 1.57129,0.60644 1.60434,1.42043 l 0.0331,2.05357 c -0.22528,1.42003 -0.93174,1.43639 -1.63727,1.45568 l -2.50776,0 -2.65962,0 0,3.60493 z m 6.11356,-4.65431 c 0.37955,0.0642 0.45382,-0.14407 0.46823,-0.40434 l 0,-2.05357 c 0,0 -0.0335,-0.34783 -0.46823,-0.33614 l -5.1674,-0.0389 0,2.83304 z"
       sodipodi:nodetypes="ccccccccccccccccc" />
    <path
       style="fill:#000000;fill-rule:evenodd;stroke:#000000;stroke-width:0.06904903;stroke-linecap:butt;stroke-linejoin:miter;stroke-miterlimit:4;stroke-dasharray:none;stroke-opacity:1"
       d="m 240.69706,708.49537 -6.56683,0 0,8.5346 6.56683,0 0,-1.01097 -5.54411,0 0,-2.95272 5.54411,0 0,-1.09186 -5.54411,0 0,-2.39927 5.54411,0 z"
       id="path5700"
       inkscape:connector-curvature="0"
       sodipodi:nodetypes="ccccccccccccc" />
    <path
       style="fill:#000000;fill-rule:evenodd;stroke:#000000;stroke-width:0.06904903;stroke-linecap:butt;stroke-linejoin:miter;stroke-miterlimit:4;stroke-dasharray:none;stroke-opacity:1"
       d="m 271.20878,708.49537 -6.56679,0 0,8.5346 6.56679,0 0,-1.01097 -5.5441,0 0,-2.95272 5.5441,0 0,-1.09186 -5.5441,0 0,-2.39927 5.5441,0 z"
       id="path5700-2"
       inkscape:connector-curvature="0"
       sodipodi:nodetypes="ccccccccccccc" />
    <path
       style="fill:#000000;fill-rule:evenodd;stroke:#000000;stroke-width:0.06904903;stroke-linecap:butt;stroke-linejoin:miter;stroke-miterlimit:4;stroke-dasharray:none;stroke-opacity:1"
       d="m 242.11466,717.02997 1.03855,0 0,-7.84144 6.07885,7.84144 1.3267,0 0,-8.5346 -1.12009,0 0,6.83727 -5.4485,-6.83727 -1.87584,0 z"
       id="path5717"
       inkscape:connector-curvature="0"
       sodipodi:nodetypes="ccccccccccc" />
    <path
       style="fill:#000000;fill-rule:evenodd;stroke:#000000;stroke-width:0.06904903;stroke-linecap:butt;stroke-linejoin:miter;stroke-miterlimit:4;stroke-dasharray:none;stroke-opacity:1"
       d="m 255.15155,717.02997 1.0385,0 0,-7.84144 6.07889,7.84144 1.32671,0 0,-8.5346 -1.12009,0 0,6.83727 -5.4485,-6.83727 -1.8759,0 z"
       id="path5717-6"
       inkscape:connector-curvature="0"
       sodipodi:nodetypes="ccccccccccc" />
    <path
       style="fill:#000000;fill-rule:evenodd;stroke:#000000;stroke-width:0.06904903;stroke-linecap:butt;stroke-linejoin:miter;stroke-miterlimit:4;stroke-dasharray:none;stroke-opacity:1"
       d="m 407.59538,717.02997 1.03852,0 0,-7.84144 6.0789,7.84144 1.32667,0 0,-8.5346 -1.12008,0 0,6.83727 -5.44852,-6.83727 -1.87584,0 z"
       id="path5717-7"
       inkscape:connector-curvature="0"
       sodipodi:nodetypes="ccccccccccc" />
    <path
       inkscape:connector-curvature="0"
       id="path5577-1"
       style="font-style:normal;font-variant:normal;font-weight:normal;font-stretch:normal;font-size:6.875px;line-height:125%;font-family:Arial;-inkscape-font-specification:Arial;letter-spacing:0px;word-spacing:0px;fill:#000000;fill-opacity:1;stroke:#000000;stroke-width:0.06904903;stroke-linecap:butt;stroke-linejoin:miter;stroke-miterlimit:4;stroke-dasharray:none;stroke-opacity:1"
       d="m 349.28371,717.02997 0,-7.45735 -3.62098,0 0,-1.07725 7.97055,0 0,1.07725 -3.31035,0 0.0761,7.45735 z"
       sodipodi:nodetypes="ccccccccc" />
    <path
       inkscape:connector-curvature="0"
       id="path5577-6"
       style="font-style:normal;font-variant:normal;font-weight:normal;font-stretch:normal;font-size:6.875px;line-height:125%;font-family:Arial;-inkscape-font-specification:Arial;letter-spacing:0px;word-spacing:0px;fill:#000000;fill-opacity:1;stroke:#000000;stroke-width:0.06904903;stroke-linecap:butt;stroke-linejoin:miter;stroke-miterlimit:4;stroke-dasharray:none;stroke-opacity:1"
       d="m 449.43988,717.02997 0,-7.45735 -3.621,0 0,-1.07725 7.97056,0 0,1.07725 -3.31037,0 0.0761,7.45735 z"
       sodipodi:nodetypes="ccccccccc" />
    <path
       inkscape:connector-curvature="0"
       id="path5577-8"
       style="font-style:normal;font-variant:normal;font-weight:normal;font-stretch:normal;font-size:6.875px;line-height:125%;font-family:Arial;-inkscape-font-specification:Arial;letter-spacing:0px;word-spacing:0px;fill:#000000;fill-opacity:1;stroke:#000000;stroke-width:0.06904903;stroke-linecap:butt;stroke-linejoin:miter;stroke-miterlimit:4;stroke-dasharray:none;stroke-opacity:1"
       d="m 389.24067,717.02997 0,-7.45735 -3.62099,0 0,-1.07725 7.97056,0 0,1.07725 -3.31041,0 0.0761,7.45735 z"
       sodipodi:nodetypes="ccccccccc" />
    <path
       inkscape:connector-curvature="0"
       id="path5583-1"
       style="font-style:normal;font-variant:normal;font-weight:normal;font-stretch:normal;font-size:6.875px;line-height:125%;font-family:Arial;-inkscape-font-specification:Arial;letter-spacing:0px;word-spacing:0px;fill:#000000;fill-opacity:1;stroke:#000000;stroke-width:0.06904903;stroke-linecap:butt;stroke-linejoin:miter;stroke-miterlimit:4;stroke-dasharray:none;stroke-opacity:1"
       d="m 473.07893,708.36421 6.20157,0 c 2.14609,0.0449 3.0516,3.13434 1.32137,4.5265 0.80469,0.52537 0.72342,0.49634 0.77947,1.68291 l 3e-5,2.45635 -0.96162,0 0,-2.45303 c 0.0231,-0.86738 -0.21559,-1.15735 -1.13747,-1.14293 l -4.93419,0 0,3.59596 -1.26906,0 z m 6.20335,4.18217 c 1.86057,-0.12075 1.76193,-3.19728 0,-3.25145 l -4.93424,10e-4 0,3.24988 z"
       sodipodi:nodetypes="ccccccccccccccccc" />
    <path
       inkscape:connector-curvature="0"
       id="path5587-4"
       style="font-style:normal;font-variant:normal;font-weight:normal;font-stretch:normal;font-size:6.875px;line-height:125%;font-family:Arial;-inkscape-font-specification:Arial;letter-spacing:0px;word-spacing:0px;fill:#000000;fill-opacity:1;stroke:#000000;stroke-width:0.06904903;stroke-linecap:butt;stroke-linejoin:miter;stroke-miterlimit:4;stroke-dasharray:none;stroke-opacity:1"
       d="m 376.45489,717.02997 3.68296,-8.62717 1.36725,0 3.92503,8.62717 -0.98899,0 -0.99681,-2.18197 -5.01491,0 -0.97708,2.1851 z m 2.40175,-3.1121 4.13427,0 -2.13795,-4.50777 z"
       sodipodi:nodetypes="ccccccccccccc" />
    <path
       inkscape:connector-curvature="0"
       id="path5587-2"
       style="font-style:normal;font-variant:normal;font-weight:normal;font-stretch:normal;font-size:6.875px;line-height:125%;font-family:Arial;-inkscape-font-specification:Arial;letter-spacing:0px;word-spacing:0px;fill:#000000;fill-opacity:1;stroke:#000000;stroke-width:0.06904903;stroke-linecap:butt;stroke-linejoin:miter;stroke-miterlimit:4;stroke-dasharray:none;stroke-opacity:1"
       d="m 436.93837,717.02997 3.68298,-8.62717 1.36723,0 3.92501,8.62717 -0.98895,0 -0.99683,-2.18197 -5.01489,0 -0.97708,2.1851 z m 2.40176,-3.1121 4.13425,0 -2.13794,-4.50777 z"
       sodipodi:nodetypes="ccccccccccccc" />
    <path
       style="fill:#000000;fill-rule:evenodd;stroke:#000000;stroke-width:0.06904903;stroke-linecap:butt;stroke-linejoin:miter;stroke-miterlimit:4;stroke-dasharray:none;stroke-opacity:1"
       d="m 335.91962,708.40573 1.01096,0 0,6.36529 c 0.003,0.58715 0.1522,1.0796 1.07656,1.19496 l 5.02735,0 c 0.78236,-0.0389 1.04128,-0.73934 1.07653,-1.19496 l 0,-6.36529 1.06574,0 0,6.41908 c -0.0295,1.07295 -0.45344,2.24298 -2.01848,2.20516 l -4.97891,0 c -1.46071,0.0195 -2.11812,-0.83385 -2.25975,-2.22796 z"
       id="path4223"
       inkscape:connector-curvature="0"
       sodipodi:nodetypes="ccccccccccccc" />
    <path
       inkscape:connector-curvature="0"
       id="path5595-4"
       style="font-style:normal;font-variant:normal;font-weight:normal;font-stretch:normal;font-size:6.875px;line-height:125%;font-family:Arial;-inkscape-font-specification:Arial;letter-spacing:0px;word-spacing:0px;fill:#000000;fill-opacity:1;stroke:#000000;stroke-width:0.06904903;stroke-linecap:butt;stroke-linejoin:miter;stroke-miterlimit:4;stroke-dasharray:none;stroke-opacity:1"
       d="m 482.4433,717.02997 -0.0915,-8.66576 2.01673,0 3.76314,7.08185 3.75033,-7.08185 1.73782,0 0,8.66576 -1.0406,0 0,-7.66684 -4.11129,7.66684 -0.749,0 -4.23521,-8.01739 0,8.01739 z"
       sodipodi:nodetypes="cccccccccccccc" />
    <path
       sodipodi:nodetypes="cccssscc"
       inkscape:connector-curvature="0"
       id="rect4146"
       d="m 407.60918,1016.5748 -212.50275,0 -8.85473,-98.8684 C 94.988109,875.6833 35.787402,782.871 35.787402,675.78711 c 1e-5,-146.67073 118.900128,-265.57086 265.570858,-265.57086 146.67075,-10e-6 264.90795,119.56303 264.90796,266.23377 0,106.89308 -58.6853,199.03588 -149.80231,241.20968 z"
       style="opacity:1;fill:none;fill-opacity:1;stroke:#ff0000;stroke-width:0.7086615;stroke-miterlimit:4.5999999;stroke-dasharray:none;stroke-opacity:1" />
  </g>
  <style
     id="style3337"
     type="text/css">
	.st0{fill:#40403F;}
	.st1{fill:#FFFFFF;stroke:#000000;stroke-width:0.25;stroke-miterlimit:10;}
</style>
</svg>
