  0
SECTION
  2
HEADER
  9
$ACADVER
  1
AC1014
  9
$HANDSEED
  5
FFFF
  9
$MEASUREMENT
 70
     1
  0
ENDSEC
  0
SECTION
  2
TABLES
  0
TABLE
  2
VPORT
  5
8
330
0
100
AcDbSymbolTable
 70
     4
  0
VPORT
  5
2E
330
8
100
AcDbSymbolTableRecord
100
AcDbViewportTableRecord
  2
*ACTIVE
 70
     0
 10
0.0
 20
0.0
 11
1.0
 21
1.0
 12
210.0
 22
148.5
 13
0.0
 23
0.0
 14
10.0
 24
10.0
 15
10.0
 25
10.0
 16
0.0
 26
0.0
 36
1.0
 17
0.0
 27
0.0
 37
0.0
 40
341.0
 41
1.24
 42
50.0
 43
0.0
 44
0.0
 50
0.0
 51
0.0
 71
     0
 72
   100
 73
     1
 74
     3
 75
     0
 76
     0
 77
     0
 78
     0
  0
ENDTAB
  0
TABLE
  2
LTYPE
  5
5
330
0
100
AcDbSymbolTable
 70
     1
  0
LTYPE
  5
14
330
5
100
AcDbSymbolTableRecord
100
AcDbLinetypeTableRecord
  2
BYBLOCK
 70
     0
  3

 72
    65
 73
     0
 40
0.0
  0
LTYPE
  5
15
330
5
100
AcDbSymbolTableRecord
100
AcDbLinetypeTableRecord
  2
BYLAYER
 70
     0
  3

 72
    65
 73
     0
 40
0.0
  0
LTYPE
  5
16
330
5
100
AcDbSymbolTableRecord
100
AcDbLinetypeTableRecord
  2
CONTINUOUS
 70
     0
  3
Solid line
 72
    65
 73
     0
 40
0.0
  0
ENDTAB
  0
TABLE
  2
LAYER
  5
2
100
AcDbSymbolTable
 70
2
  0
LAYER
  5
50
100
AcDbSymbolTableRecord
100
AcDbLayerTableRecord
  2
0
 70
0
  6
CONTINUOUS
  0
LAYER
  5
51
100
AcDbSymbolTableRecord
100
AcDbLayerTableRecord
  2
Calque_1
 70
0
  6
CONTINUOUS
  0
ENDTAB
  0
TABLE
  2
STYLE
  5
3
330
0
100
AcDbSymbolTable
 70
     1
  0
STYLE
  5
11
330
3
100
AcDbSymbolTableRecord
100
AcDbTextStyleTableRecord
  2
STANDARD
 70
     0
 40
0.0
 41
1.0
 50
0.0
 71
     0
 42
2.5
  3
txt
  4

  0
ENDTAB
  0
TABLE
  2
VIEW
  5
6
330
0
100
AcDbSymbolTable
 70
     0
  0
ENDTAB
  0
TABLE
  2
UCS
  5
7
330
0
100
AcDbSymbolTable
 70
     0
  0
ENDTAB
  0
TABLE
  2
APPID
  5
9
330
0
100
AcDbSymbolTable
 70
     2
  0
APPID
  5
12
330
9
100
AcDbSymbolTableRecord
100
AcDbRegAppTableRecord
  2
ACAD
 70
     0
  0
ENDTAB
  0
TABLE
  2
DIMSTYLE
  5
A
330
0
100
AcDbSymbolTable
 70
     1
  0
DIMSTYLE
105
27
330
A
100
AcDbSymbolTableRecord
100
AcDbDimStyleTableRecord
  2
ISO-25
 70
     0
  3

  4

  5

  6

  7

 40
1.0
 41
2.5
 42
0.625
 43
3.75
 44
1.25
 45
0.0
 46
0.0
 47
0.0
 48
0.0
140
2.5
141
2.5
142
0.0
143
0.03937007874016
144
1.0
145
0.0
146
1.0
147
0.625
 71
     0
 72
     0
 73
     0
 74
     0
 75
     0
 76
     0
 77
     1
 78
     8
170
     0
171
     3
172
     1
173
     0
174
     0
175
     0
176
     0
177
     0
178
     0
270
     2
271
     2
272
     2
273
     2
274
     3
340
11
275
     0
280
     0
281
     0
282
     0
283
     0
284
     8
285
     0
286
     0
287
     3
288
     0
  0
ENDTAB
  0
TABLE
  2
BLOCK_RECORD
  5
1
330
0
100
AcDbSymbolTable
 70
     1
  0
BLOCK_RECORD
  5
1F
330
1
100
AcDbSymbolTableRecord
100
AcDbBlockTableRecord
  2
*MODEL_SPACE
  0
BLOCK_RECORD
  5
1B
330
1
100
AcDbSymbolTableRecord
100
AcDbBlockTableRecord
  2
*PAPER_SPACE
  0
ENDTAB
  0
ENDSEC
  0
SECTION
  2
BLOCKS
  0
BLOCK
  5
20
330
1F
100
AcDbEntity
  8
0
100
AcDbBlockBegin
  2
*MODEL_SPACE
 70
     0
 10
0.0
 20
0.0
 30
0.0
  3
*MODEL_SPACE
  1

  0
ENDBLK
  5
21
330
1F
100
AcDbEntity
  8
0
100
AcDbBlockEnd
  0
BLOCK
  5
1C
330
1B
100
AcDbEntity
 67
     1
  8
0
100
AcDbBlockBegin
  2
*PAPER_SPACE
  1

  0
ENDBLK
  5
1D
330
1B
100
AcDbEntity
 67
     1
  8
0
100
AcDbBlockEnd
  0
ENDSEC
  0
SECTION
  2
ENTITIES
  0
LINE
  5
100
100
AcDbEntity
  8
Calque_1
 62
5
100
AcDbLine
 10
44.276939
 20
102.720858
 30
0.0
 11
49.693734
 21
106.077728
 31
0.0
  0
LINE
  5
101
100
AcDbEntity
  8
Calque_1
 62
5
100
AcDbLine
 10
49.693734
 20
106.077728
 30
0.0
 11
55.229574
 21
102.783607
 31
0.0
  0
LINE
  5
102
100
AcDbEntity
  8
Calque_1
 62
5
100
AcDbLine
 10
55.229574
 20
102.783607
 30
0.0
 11
49.684830
 21
99.356247
 31
0.0
  0
LINE
  5
103
100
AcDbEntity
  8
Calque_1
 62
5
100
AcDbLine
 10
49.684830
 20
99.356247
 30
0.0
 11
44.276939
 21
102.720858
 31
0.0
  0
LINE
  5
104
100
AcDbEntity
  8
Calque_1
 62
5
100
AcDbLine
 10
33.217471
 20
102.764306
 30
0.0
 11
38.818320
 21
106.091816
 31
0.0
  0
LINE
  5
105
100
AcDbEntity
  8
Calque_1
 62
5
100
AcDbLine
 10
38.818320
 20
106.091816
 30
0.0
 11
44.276939
 21
102.720858
 31
0.0
  0
LINE
  5
106
100
AcDbEntity
  8
Calque_1
 62
5
100
AcDbLine
 10
44.276939
 20
102.720858
 30
0.0
 11
38.768943
 21
99.364988
 31
0.0
  0
LINE
  5
107
100
AcDbEntity
  8
Calque_1
 62
5
100
AcDbLine
 10
38.768943
 20
99.364988
 30
0.0
 11
33.217471
 21
102.764306
 31
0.0
  0
LINE
  5
108
100
AcDbEntity
  8
Calque_1
 62
2
100
AcDbLine
 10
33.230947
 20
109.445545
 30
0.0
 11
38.791380
 21
112.810105
 31
0.0
  0
LINE
  5
109
100
AcDbEntity
  8
Calque_1
 62
2
100
AcDbLine
 10
38.791380
 20
112.810105
 30
0.0
 11
44.292641
 21
109.445545
 31
0.0
  0
LINE
  5
10a
100
AcDbEntity
  8
Calque_1
 62
2
100
AcDbLine
 10
44.292641
 20
109.445545
 30
0.0
 11
38.818320
 21
106.091816
 31
0.0
  0
LINE
  5
10b
100
AcDbEntity
  8
Calque_1
 62
2
100
AcDbLine
 10
38.818320
 20
106.091816
 30
0.0
 11
33.230947
 21
109.445545
 31
0.0
  0
LINE
  5
10c
100
AcDbEntity
  8
Calque_1
 62
2
100
AcDbLine
 10
44.292641
 20
109.445545
 30
0.0
 11
49.707255
 21
112.818786
 31
0.0
  0
LINE
  5
10d
100
AcDbEntity
  8
Calque_1
 62
2
100
AcDbLine
 10
49.707255
 20
112.818786
 30
0.0
 11
55.229568
 21
109.389608
 31
0.0
  0
LINE
  5
10e
100
AcDbEntity
  8
Calque_1
 62
2
100
AcDbLine
 10
55.229568
 20
109.389608
 30
0.0
 11
49.693734
 21
106.077739
 31
0.0
  0
LINE
  5
10f
100
AcDbEntity
  8
Calque_1
 62
2
100
AcDbLine
 10
49.693734
 20
106.077739
 30
0.0
 11
44.292641
 21
109.445545
 31
0.0
  0
LINE
  5
110
100
AcDbEntity
  8
Calque_1
 62
3
100
AcDbLine
 10
33.230947
 20
109.445545
 30
0.0
 11
38.818320
 21
106.091816
 31
0.0
  0
LINE
  5
111
100
AcDbEntity
  8
Calque_1
 62
3
100
AcDbLine
 10
38.818320
 20
106.091816
 30
0.0
 11
33.217471
 21
102.764306
 31
0.0
  0
LINE
  5
112
100
AcDbEntity
  8
Calque_1
 62
3
100
AcDbLine
 10
33.217471
 20
102.764306
 30
0.0
 11
33.230947
 21
109.445545
 31
0.0
  0
LINE
  5
113
100
AcDbEntity
  8
Calque_1
 62
3
100
AcDbLine
 10
49.693734
 20
106.077728
 30
0.0
 11
55.229568
 21
109.389606
 31
0.0
  0
LINE
  5
114
100
AcDbEntity
  8
Calque_1
 62
3
100
AcDbLine
 10
55.229568
 20
109.389606
 30
0.0
 11
55.229574
 21
102.783607
 31
0.0
  0
LINE
  5
115
100
AcDbEntity
  8
Calque_1
 62
3
100
AcDbLine
 10
55.229574
 20
102.783607
 30
0.0
 11
49.693734
 21
106.077728
 31
0.0
  0
LINE
  5
116
100
AcDbEntity
  8
Calque_1
 62
7
100
AcDbLine
 10
38.768943
 20
99.364988
 30
0.0
 11
44.276939
 21
102.720858
 31
0.0
  0
LINE
  5
117
100
AcDbEntity
  8
Calque_1
 62
7
100
AcDbLine
 10
44.276939
 20
102.720858
 30
0.0
 11
49.684830
 21
99.356247
 31
0.0
  0
LINE
  5
118
100
AcDbEntity
  8
Calque_1
 62
7
100
AcDbLine
 10
49.684830
 20
99.356247
 30
0.0
 11
44.223525
 21
96.014564
 31
0.0
  0
LINE
  5
119
100
AcDbEntity
  8
Calque_1
 62
7
100
AcDbLine
 10
44.223525
 20
96.014564
 30
0.0
 11
38.768943
 21
99.364988
 31
0.0
  0
LINE
  5
11a
100
AcDbEntity
  8
Calque_1
 62
3
100
AcDbLine
 10
38.818320
 20
106.091816
 30
0.0
 11
44.292641
 21
109.445545
 31
0.0
  0
LINE
  5
11b
100
AcDbEntity
  8
Calque_1
 62
3
100
AcDbLine
 10
44.292641
 20
109.445545
 30
0.0
 11
49.693734
 21
106.077739
 31
0.0
  0
LINE
  5
11c
100
AcDbEntity
  8
Calque_1
 62
3
100
AcDbLine
 10
49.693734
 20
106.077739
 30
0.0
 11
44.276939
 21
102.720858
 31
0.0
  0
LINE
  5
11d
100
AcDbEntity
  8
Calque_1
 62
3
100
AcDbLine
 10
44.276939
 20
102.720858
 30
0.0
 11
38.818320
 21
106.091816
 31
0.0
  0
LINE
  5
11e
100
AcDbEntity
  8
Calque_1
 62
1
100
AcDbLine
 10
38.791380
 20
112.810105
 30
0.0
 11
44.263914
 21
116.166961
 31
0.0
  0
LINE
  5
11f
100
AcDbEntity
  8
Calque_1
 62
1
100
AcDbLine
 10
44.263914
 20
116.166961
 30
0.0
 11
49.707255
 21
112.818786
 31
0.0
  0
LINE
  5
120
100
AcDbEntity
  8
Calque_1
 62
1
100
AcDbLine
 10
49.707255
 20
112.818786
 30
0.0
 11
44.292641
 21
109.445545
 31
0.0
  0
LINE
  5
121
100
AcDbEntity
  8
Calque_1
 62
1
100
AcDbLine
 10
44.292641
 20
109.445545
 30
0.0
 11
38.791380
 21
112.810105
 31
0.0
  0
LINE
  5
122
100
AcDbEntity
  8
Calque_1
 62
5
100
AcDbLine
 10
30.712794
 20
117.401389
 30
0.0
 11
30.712794
 21
109.866124
 31
0.0
  0
LINE
  5
123
100
AcDbEntity
  8
Calque_1
 62
5
100
AcDbLine
 10
30.712794
 20
109.866124
 30
0.0
 11
42.542325
 21
117.401389
 31
0.0
  0
LINE
  5
124
100
AcDbEntity
  8
Calque_1
 62
5
100
AcDbLine
 10
42.542325
 20
117.401389
 30
0.0
 11
30.712794
 21
117.401389
 31
0.0
  0
LINE
  5
125
100
AcDbEntity
  8
Calque_1
 62
5
100
AcDbLine
 10
30.712794
 20
117.401389
 30
0.0
 11
30.712794
 21
117.401389
 31
0.0
  0
LINE
  5
126
100
AcDbEntity
  8
Calque_1
 62
5
100
AcDbLine
 10
45.106884
 20
117.401389
 30
0.0
 11
56.936417
 21
109.866124
 31
0.0
  0
LINE
  5
127
100
AcDbEntity
  8
Calque_1
 62
5
100
AcDbLine
 10
56.936417
 20
109.866124
 30
0.0
 11
56.936417
 21
117.401389
 31
0.0
  0
LINE
  5
128
100
AcDbEntity
  8
Calque_1
 62
5
100
AcDbLine
 10
56.936417
 20
117.401389
 30
0.0
 11
45.106884
 21
117.401389
 31
0.0
  0
LINE
  5
129
100
AcDbEntity
  8
Calque_1
 62
5
100
AcDbLine
 10
45.106884
 20
117.401389
 30
0.0
 11
45.106884
 21
117.401389
 31
0.0
  0
LINE
  5
12a
100
AcDbEntity
  8
Calque_1
 62
5
100
AcDbLine
 10
30.712794
 20
101.960303
 30
0.0
 11
30.712794
 21
94.424981
 31
0.0
  0
LINE
  5
12b
100
AcDbEntity
  8
Calque_1
 62
5
100
AcDbLine
 10
30.712794
 20
94.424981
 30
0.0
 11
42.540792
 21
94.424981
 31
0.0
  0
LINE
  5
12c
100
AcDbEntity
  8
Calque_1
 62
5
100
AcDbLine
 10
42.540792
 20
94.424981
 30
0.0
 11
30.712794
 21
101.960303
 31
0.0
  0
LINE
  5
12d
100
AcDbEntity
  8
Calque_1
 62
5
100
AcDbLine
 10
30.712794
 20
101.960303
 30
0.0
 11
30.712794
 21
101.960303
 31
0.0
  0
LINE
  5
12e
100
AcDbEntity
  8
Calque_1
 62
5
100
AcDbLine
 10
56.936417
 20
101.960303
 30
0.0
 11
45.108419
 21
94.424981
 31
0.0
  0
LINE
  5
12f
100
AcDbEntity
  8
Calque_1
 62
5
100
AcDbLine
 10
45.108419
 20
94.424981
 30
0.0
 11
56.936417
 21
94.424981
 31
0.0
  0
LINE
  5
130
100
AcDbEntity
  8
Calque_1
 62
5
100
AcDbLine
 10
56.936417
 20
94.424981
 30
0.0
 11
56.936417
 21
101.960303
 31
0.0
  0
LINE
  5
131
100
AcDbEntity
  8
Calque_1
 62
5
100
AcDbLine
 10
56.936417
 20
101.960303
 30
0.0
 11
56.936417
 21
101.960303
 31
0.0
  0
SPLINE
  5
132
100
AcDbEntity
  8
Calque_1
 62
2
100
AcDbSpline
 70
8
 71
3
 72
8
 73
4
 74
0
 40
0
 40
0
 40
0
 40
0
 40
1
 40
1
 40
1
 40
1
 10
72.656635
 20
103.157041
 30
0.0
 10
73.656896
 20
103.157041
 30
0.0
 10
74.635766
 20
103.840761
 30
0.0
 10
74.635766
 20
104.841036
 30
0.0
  0
LINE
  5
133
100
AcDbEntity
  8
Calque_1
 62
2
100
AcDbLine
 10
74.635766
 20
104.841036
 30
0.0
 11
74.635766
 21
111.854927
 31
0.0
  0
SPLINE
  5
134
100
AcDbEntity
  8
Calque_1
 62
2
100
AcDbSpline
 70
8
 71
3
 72
8
 73
4
 74
0
 40
0
 40
0
 40
0
 40
0
 40
1
 40
1
 40
1
 40
1
 10
74.635766
 20
111.854927
 30
0.0
 10
74.635766
 20
112.855218
 30
0.0
 10
73.723864
 20
113.795501
 30
0.0
 10
72.723604
 20
113.795501
 30
0.0
  0
LINE
  5
135
100
AcDbEntity
  8
Calque_1
 62
2
100
AcDbLine
 10
72.723604
 20
113.795501
 30
0.0
 11
65.987462
 21
113.795501
 31
0.0
  0
SPLINE
  5
136
100
AcDbEntity
  8
Calque_1
 62
2
100
AcDbSpline
 70
8
 71
3
 72
8
 73
4
 74
0
 40
0
 40
0
 40
0
 40
0
 40
1
 40
1
 40
1
 40
1
 10
65.987462
 20
113.795501
 30
0.0
 10
64.987204
 20
113.795501
 30
0.0
 10
64.219125
 20
112.855218
 30
0.0
 10
64.219125
 20
111.854927
 30
0.0
  0
LINE
  5
137
100
AcDbEntity
  8
Calque_1
 62
2
100
AcDbLine
 10
64.219125
 20
111.854927
 30
0.0
 11
64.219125
 21
104.841036
 31
0.0
  0
SPLINE
  5
138
100
AcDbEntity
  8
Calque_1
 62
2
100
AcDbSpline
 70
8
 71
3
 72
8
 73
4
 74
0
 40
0
 40
0
 40
0
 40
0
 40
1
 40
1
 40
1
 40
1
 10
64.219125
 20
104.841036
 30
0.0
 10
64.219125
 20
103.681159
 30
0.0
 10
65.246036
 20
103.157041
 30
0.0
 10
65.920493
 20
103.157041
 30
0.0
  0
LINE
  5
139
100
AcDbEntity
  8
Calque_1
 62
2
100
AcDbLine
 10
65.920493
 20
103.157041
 30
0.0
 11
72.656635
 21
103.157041
 31
0.0
  0
SPLINE
  5
13a
100
AcDbEntity
  8
Calque_1
 62
2
100
AcDbSpline
 70
8
 71
3
 72
8
 73
4
 74
0
 40
0
 40
0
 40
0
 40
0
 40
1
 40
1
 40
1
 40
1
 10
65.156622
 20
99.702229
 30
0.0
 10
62.655930
 20
99.702229
 30
0.0
 10
60.642731
 20
101.715399
 30
0.0
 10
60.642731
 20
104.216066
 30
0.0
  0
LINE
  5
13b
100
AcDbEntity
  8
Calque_1
 62
2
100
AcDbLine
 10
60.642731
 20
104.216066
 30
0.0
 11
60.642731
 21
112.757708
 31
0.0
  0
SPLINE
  5
13c
100
AcDbEntity
  8
Calque_1
 62
2
100
AcDbSpline
 70
8
 71
3
 72
8
 73
4
 74
0
 40
0
 40
0
 40
0
 40
0
 40
1
 40
1
 40
1
 40
1
 10
60.642731
 20
112.757708
 30
0.0
 10
60.642731
 20
115.258428
 30
0.0
 10
62.655930
 20
117.271595
 30
0.0
 10
65.156622
 20
117.271595
 30
0.0
  0
LINE
  5
13d
100
AcDbEntity
  8
Calque_1
 62
2
100
AcDbLine
 10
65.156622
 20
117.271595
 30
0.0
 11
73.698278
 21
117.271595
 31
0.0
  0
SPLINE
  5
13e
100
AcDbEntity
  8
Calque_1
 62
2
100
AcDbSpline
 70
8
 71
3
 72
8
 73
4
 74
0
 40
0
 40
0
 40
0
 40
0
 40
1
 40
1
 40
1
 40
1
 10
73.698278
 20
117.271595
 30
0.0
 10
76.198964
 20
117.271595
 30
0.0
 10
78.212160
 20
115.258428
 30
0.0
 10
78.212160
 20
112.757708
 30
0.0
  0
LINE
  5
13f
100
AcDbEntity
  8
Calque_1
 62
2
100
AcDbLine
 10
78.212160
 20
112.757708
 30
0.0
 11
78.212160
 21
104.216066
 31
0.0
  0
SPLINE
  5
140
100
AcDbEntity
  8
Calque_1
 62
2
100
AcDbSpline
 70
8
 71
3
 72
8
 73
4
 74
0
 40
0
 40
0
 40
0
 40
0
 40
1
 40
1
 40
1
 40
1
 10
78.212160
 20
104.216066
 30
0.0
 10
78.212160
 20
101.715399
 30
0.0
 10
76.198964
 20
99.702229
 30
0.0
 10
73.698278
 20
99.702229
 30
0.0
  0
LINE
  5
141
100
AcDbEntity
  8
Calque_1
 62
2
100
AcDbLine
 10
73.698278
 20
99.702229
 30
0.0
 11
65.156622
 21
99.702229
 31
0.0
  0
LINE
  5
142
100
AcDbEntity
  8
Calque_1
 62
7
100
AcDbLine
 10
80.642711
 20
99.702178
 30
0.0
 11
80.642711
 21
117.132671
 31
0.0
  0
LINE
  5
143
100
AcDbEntity
  8
Calque_1
 62
7
100
AcDbLine
 10
80.642711
 20
117.132671
 30
0.0
 11
86.719085
 21
117.132671
 31
0.0
  0
LINE
  5
144
100
AcDbEntity
  8
Calque_1
 62
7
100
AcDbLine
 10
86.719085
 20
117.132671
 30
0.0
 11
95.851015
 21
103.104960
 31
0.0
  0
LINE
  5
145
100
AcDbEntity
  8
Calque_1
 62
7
100
AcDbLine
 10
95.851015
 20
103.104960
 30
0.0
 11
96.441297
 21
103.104960
 31
0.0
  0
LINE
  5
146
100
AcDbEntity
  8
Calque_1
 62
7
100
AcDbLine
 10
96.441297
 20
103.104960
 30
0.0
 11
96.441297
 21
117.097967
 31
0.0
  0
LINE
  5
147
100
AcDbEntity
  8
Calque_1
 62
7
100
AcDbLine
 10
96.441297
 20
117.097967
 30
0.0
 11
99.948232
 21
117.097967
 31
0.0
  0
LINE
  5
148
100
AcDbEntity
  8
Calque_1
 62
7
100
AcDbLine
 10
99.948232
 20
117.097967
 30
0.0
 11
99.948232
 21
99.667420
 31
0.0
  0
LINE
  5
149
100
AcDbEntity
  8
Calque_1
 62
7
100
AcDbLine
 10
99.948232
 20
99.667420
 30
0.0
 11
93.802412
 21
99.667420
 31
0.0
  0
LINE
  5
14a
100
AcDbEntity
  8
Calque_1
 62
7
100
AcDbLine
 10
93.802412
 20
99.667420
 30
0.0
 11
84.844097
 21
113.660480
 31
0.0
  0
LINE
  5
14b
100
AcDbEntity
  8
Calque_1
 62
7
100
AcDbLine
 10
84.844097
 20
113.660480
 30
0.0
 11
84.323261
 21
113.660480
 31
0.0
  0
LINE
  5
14c
100
AcDbEntity
  8
Calque_1
 62
7
100
AcDbLine
 10
84.323261
 20
113.660480
 30
0.0
 11
84.323261
 21
99.736880
 31
0.0
  0
LINE
  5
14d
100
AcDbEntity
  8
Calque_1
 62
7
100
AcDbLine
 10
84.323261
 20
99.736880
 30
0.0
 11
80.642711
 21
99.702178
 31
0.0
  0
LINE
  5
14e
100
AcDbEntity
  8
Calque_1
 62
7
100
AcDbLine
 10
112.209684
 20
113.951860
 30
0.0
 11
109.140642
 21
107.322779
 31
0.0
  0
LINE
  5
14f
100
AcDbEntity
  8
Calque_1
 62
7
100
AcDbLine
 10
109.140642
 20
107.322779
 30
0.0
 11
115.180511
 21
107.322779
 31
0.0
  0
LINE
  5
150
100
AcDbEntity
  8
Calque_1
 62
7
100
AcDbLine
 10
115.180511
 20
107.322779
 30
0.0
 11
112.209684
 21
113.951860
 31
0.0
  0
LINE
  5
151
100
AcDbEntity
  8
Calque_1
 62
7
100
AcDbLine
 10
101.504880
 20
99.711582
 30
0.0
 11
109.484372
 21
117.119142
 31
0.0
  0
LINE
  5
152
100
AcDbEntity
  8
Calque_1
 62
7
100
AcDbLine
 10
109.484372
 20
117.119142
 30
0.0
 11
114.861329
 21
117.119142
 31
0.0
  0
LINE
  5
153
100
AcDbEntity
  8
Calque_1
 62
7
100
AcDbLine
 10
114.861329
 20
117.119142
 30
0.0
 11
122.742616
 21
99.662470
 31
0.0
  0
LINE
  5
154
100
AcDbEntity
  8
Calque_1
 62
7
100
AcDbLine
 10
122.742616
 20
99.662470
 30
0.0
 11
118.568718
 21
99.662470
 31
0.0
  0
LINE
  5
155
100
AcDbEntity
  8
Calque_1
 62
7
100
AcDbLine
 10
118.568718
 20
99.662470
 30
0.0
 11
116.579991
 21
104.106403
 31
0.0
  0
LINE
  5
156
100
AcDbEntity
  8
Calque_1
 62
7
100
AcDbLine
 10
116.579991
 20
104.106403
 30
0.0
 11
107.692057
 21
104.106403
 31
0.0
  0
LINE
  5
157
100
AcDbEntity
  8
Calque_1
 62
7
100
AcDbLine
 10
107.692057
 20
104.106403
 30
0.0
 11
105.752432
 21
99.711582
 31
0.0
  0
LINE
  5
158
100
AcDbEntity
  8
Calque_1
 62
7
100
AcDbLine
 10
105.752432
 20
99.711582
 30
0.0
 11
101.504880
 21
99.711582
 31
0.0
  0
LINE
  5
159
100
AcDbEntity
  8
Calque_1
 62
7
100
AcDbLine
 10
127.432102
 20
113.657235
 30
0.0
 11
133.766591
 21
113.657235
 31
0.0
  0
SPLINE
  5
15a
100
AcDbEntity
  8
Calque_1
 62
7
100
AcDbSpline
 70
8
 71
3
 72
8
 73
4
 74
0
 40
0
 40
0
 40
0
 40
0
 40
1
 40
1
 40
1
 40
1
 10
133.766591
 20
113.657235
 30
0.0
 10
134.587717
 20
113.572653
 30
0.0
 10
135.450732
 20
113.625888
 30
0.0
 10
135.828984
 20
112.085914
 30
0.0
  0
LINE
  5
15b
100
AcDbEntity
  8
Calque_1
 62
7
100
AcDbLine
 10
135.828984
 20
112.085914
 30
0.0
 11
135.828984
 21
110.072634
 31
0.0
  0
SPLINE
  5
15c
100
AcDbEntity
  8
Calque_1
 62
7
100
AcDbSpline
 70
8
 71
3
 72
8
 73
4
 74
0
 40
0
 40
0
 40
0
 40
0
 40
1
 40
1
 40
1
 40
1
 10
135.828984
 20
110.072634
 30
0.0
 10
135.667496
 20
108.858130
 30
0.0
 10
134.916570
 20
108.359367
 30
0.0
 10
133.840254
 20
108.255750
 30
0.0
  0
LINE
  5
15d
100
AcDbEntity
  8
Calque_1
 62
7
100
AcDbLine
 10
133.840254
 20
108.255750
 30
0.0
 11
127.407549
 21
108.255750
 31
0.0
  0
LINE
  5
15e
100
AcDbEntity
  8
Calque_1
 62
7
100
AcDbLine
 10
127.407549
 20
108.255750
 30
0.0
 11
127.432102
 21
113.657235
 31
0.0
  0
LINE
  5
15f
100
AcDbEntity
  8
Calque_1
 62
7
100
AcDbLine
 10
123.872021
 20
99.711582
 30
0.0
 11
123.872021
 21
117.119142
 31
0.0
  0
LINE
  5
160
100
AcDbEntity
  8
Calque_1
 62
7
100
AcDbLine
 10
123.872021
 20
117.119142
 30
0.0
 11
133.962984
 21
117.135087
 31
0.0
  0
SPLINE
  5
161
100
AcDbEntity
  8
Calque_1
 62
7
100
AcDbSpline
 70
8
 71
3
 72
8
 73
4
 74
0
 40
0
 40
0
 40
0
 40
0
 40
1
 40
1
 40
1
 40
1
 10
133.962984
 20
117.135087
 30
0.0
 10
135.466111
 20
117.140591
 30
0.0
 10
138.960442
 20
116.954420
 30
0.0
 10
139.241756
 20
112.797851
 30
0.0
  0
LINE
  5
162
100
AcDbEntity
  8
Calque_1
 62
7
100
AcDbLine
 10
139.241756
 20
112.797851
 30
0.0
 11
139.290851
 21
109.336003
 31
0.0
  0
SPLINE
  5
163
100
AcDbEntity
  8
Calque_1
 62
7
100
AcDbSpline
 70
8
 71
3
 72
8
 73
4
 74
0
 40
0
 40
0
 40
0
 40
0
 40
1
 40
1
 40
1
 40
1
 10
139.290851
 20
109.336003
 30
0.0
 10
139.203326
 20
106.778632
 30
0.0
 10
137.518896
 20
104.856425
 30
0.0
 10
134.380458
 20
104.857252
 30
0.0
  0
LINE
  5
164
100
AcDbEntity
  8
Calque_1
 62
7
100
AcDbLine
 10
134.380458
 20
104.857252
 30
0.0
 11
127.432102
 21
104.842915
 31
0.0
  0
LINE
  5
165
100
AcDbEntity
  8
Calque_1
 62
7
100
AcDbLine
 10
127.432102
 20
104.842915
 30
0.0
 11
127.481200
 21
99.686902
 31
0.0
  0
LINE
  5
166
100
AcDbEntity
  8
Calque_1
 62
7
100
AcDbLine
 10
127.481200
 20
99.686902
 30
0.0
 11
123.872021
 21
99.711582
 31
0.0
  0
SPLINE
  5
167
100
AcDbEntity
  8
Calque_1
 62
7
100
AcDbSpline
 70
8
 71
3
 72
8
 73
4
 74
0
 40
0
 40
0
 40
0
 40
0
 40
1
 40
1
 40
1
 40
1
 10
60.761567
 20
96.489081
 30
0.0
 10
60.803976
 20
96.880159
 30
0.0
 10
60.998176
 20
97.087006
 30
0.0
 10
61.364653
 20
97.084643
 30
0.0
  0
LINE
  5
168
100
AcDbEntity
  8
Calque_1
 62
7
100
AcDbLine
 10
61.364653
 20
97.084643
 30
0.0
 11
62.703419
 21
97.084643
 31
0.0
  0
SPLINE
  5
169
100
AcDbEntity
  8
Calque_1
 62
7
100
AcDbSpline
 70
8
 71
3
 72
8
 73
4
 74
0
 40
0
 40
0
 40
0
 40
0
 40
1
 40
1
 40
1
 40
1
 10
62.703419
 20
97.084643
 30
0.0
 10
62.985297
 20
97.067004
 30
0.0
 10
63.256877
 20
97.028213
 30
0.0
 10
63.289267
 20
96.489081
 30
0.0
  0
LINE
  5
16a
100
AcDbEntity
  8
Calque_1
 62
7
100
AcDbLine
 10
63.289267
 20
96.489081
 30
0.0
 11
63.289267
 21
95.261270
 31
0.0
  0
SPLINE
  5
16b
100
AcDbEntity
  8
Calque_1
 62
7
100
AcDbSpline
 70
8
 71
3
 72
8
 73
4
 74
0
 40
0
 40
0
 40
0
 40
0
 40
1
 40
1
 40
1
 40
1
 10
63.289267
 20
95.261270
 30
0.0
 10
63.279841
 20
94.801110
 30
0.0
 10
63.035318
 20
94.660041
 30
0.0
 10
62.703419
 20
94.637542
 30
0.0
  0
LINE
  5
16c
100
AcDbEntity
  8
Calque_1
 62
7
100
AcDbLine
 10
62.703419
 20
94.637542
 30
0.0
 11
61.364653
 21
94.637542
 31
0.0
  0
SPLINE
  5
16d
100
AcDbEntity
  8
Calque_1
 62
7
100
AcDbSpline
 70
8
 71
3
 72
8
 73
4
 74
0
 40
0
 40
0
 40
0
 40
0
 40
1
 40
1
 40
1
 40
1
 10
61.364653
 20
94.637542
 30
0.0
 10
60.824976
 20
94.668892
 30
0.0
 10
60.778949
 20
94.957518
 30
0.0
 10
60.761567
 20
95.261270
 30
0.0
  0
LINE
  5
16e
100
AcDbEntity
  8
Calque_1
 62
7
100
AcDbLine
 10
60.761567
 20
95.261270
 30
0.0
 11
60.761567
 21
96.489081
 31
0.0
  0
SPLINE
  5
16f
100
AcDbEntity
  8
Calque_1
 62
7
100
AcDbSpline
 70
8
 71
3
 72
8
 73
4
 74
0
 40
0
 40
0
 40
0
 40
0
 40
1
 40
1
 40
1
 40
1
 10
61.026342
 20
95.261270
 30
0.0
 10
61.017706
 20
95.039850
 30
0.0
 10
61.118750
 20
94.908129
 30
0.0
 10
61.364653
 20
94.894932
 30
0.0
  0
LINE
  5
170
100
AcDbEntity
  8
Calque_1
 62
7
100
AcDbLine
 10
61.364653
 20
94.894932
 30
0.0
 11
62.703419
 21
94.894932
 31
0.0
  0
SPLINE
  5
171
100
AcDbEntity
  8
Calque_1
 62
7
100
AcDbSpline
 70
8
 71
3
 72
8
 73
4
 74
0
 40
0
 40
0
 40
0
 40
0
 40
1
 40
1
 40
1
 40
1
 10
62.703419
 20
94.894932
 30
0.0
 10
62.891518
 20
94.894932
 30
0.0
 10
63.041479
 20
94.960820
 30
0.0
 10
63.045893
 20
95.261270
 30
0.0
  0
LINE
  5
172
100
AcDbEntity
  8
Calque_1
 62
7
100
AcDbLine
 10
63.045893
 20
95.261270
 30
0.0
 11
63.045893
 21
96.489081
 31
0.0
  0
SPLINE
  5
173
100
AcDbEntity
  8
Calque_1
 62
7
100
AcDbSpline
 70
8
 71
3
 72
8
 73
4
 74
0
 40
0
 40
0
 40
0
 40
0
 40
1
 40
1
 40
1
 40
1
 10
63.045893
 20
96.489081
 30
0.0
 10
63.035536
 20
96.703296
 30
0.0
 10
62.944719
 20
96.836937
 30
0.0
 10
62.703419
 20
96.820111
 30
0.0
  0
LINE
  5
174
100
AcDbEntity
  8
Calque_1
 62
7
100
AcDbLine
 10
62.703419
 20
96.820111
 30
0.0
 11
61.364653
 21
96.820111
 31
0.0
  0
SPLINE
  5
175
100
AcDbEntity
  8
Calque_1
 62
7
100
AcDbSpline
 70
8
 71
3
 72
8
 73
4
 74
0
 40
0
 40
0
 40
0
 40
0
 40
1
 40
1
 40
1
 40
1
 10
61.364653
 20
96.820111
 30
0.0
 10
61.161879
 20
96.819829
 30
0.0
 10
61.021558
 20
96.743115
 30
0.0
 10
61.026342
 20
96.489081
 30
0.0
  0
LINE
  5
176
100
AcDbEntity
  8
Calque_1
 62
7
100
AcDbLine
 10
61.026342
 20
96.489081
 30
0.0
 11
61.026342
 21
95.261270
 31
0.0
  0
LINE
  5
177
100
AcDbEntity
  8
Calque_1
 62
7
100
AcDbLine
 10
63.589157
 20
94.638208
 30
0.0
 11
63.593701
 21
97.046309
 31
0.0
  0
LINE
  5
178
100
AcDbEntity
  8
Calque_1
 62
7
100
AcDbLine
 10
63.593701
 20
97.046309
 30
0.0
 11
65.314728
 21
97.046309
 31
0.0
  0
SPLINE
  5
179
100
AcDbEntity
  8
Calque_1
 62
7
100
AcDbSpline
 70
8
 71
3
 72
8
 73
4
 74
0
 40
0
 40
0
 40
0
 40
0
 40
1
 40
1
 40
1
 40
1
 10
65.314728
 20
97.046309
 30
0.0
 10
65.647096
 20
97.035839
 30
0.0
 10
65.758176
 20
96.875158
 30
0.0
 10
65.767503
 20
96.645438
 30
0.0
  0
LINE
  5
17a
100
AcDbEntity
  8
Calque_1
 62
7
100
AcDbLine
 10
65.767503
 20
96.645438
 30
0.0
 11
65.776788
 21
96.065880
 31
0.0
  0
SPLINE
  5
17b
100
AcDbEntity
  8
Calque_1
 62
7
100
AcDbSpline
 70
8
 71
3
 72
8
 73
4
 74
0
 40
0
 40
0
 40
0
 40
0
 40
1
 40
1
 40
1
 40
1
 10
65.776788
 20
96.065880
 30
0.0
 10
65.713221
 20
95.665114
 30
0.0
 10
65.513831
 20
95.660491
 30
0.0
 10
65.314723
 20
95.655049
 30
0.0
  0
LINE
  5
17c
100
AcDbEntity
  8
Calque_1
 62
7
100
AcDbLine
 10
65.314723
 20
95.655049
 30
0.0
 11
64.606966
 21
95.655049
 31
0.0
  0
LINE
  5
17d
100
AcDbEntity
  8
Calque_1
 62
7
100
AcDbLine
 10
64.606966
 20
95.655049
 30
0.0
 11
63.856370
 21
95.655049
 31
0.0
  0
LINE
  5
17e
100
AcDbEntity
  8
Calque_1
 62
7
100
AcDbLine
 10
63.856370
 20
95.655049
 30
0.0
 11
63.856370
 21
94.637658
 31
0.0
  0
LINE
  5
17f
100
AcDbEntity
  8
Calque_1
 62
7
100
AcDbLine
 10
63.856370
 20
94.637658
 30
0.0
 11
63.589157
 21
94.638208
 31
0.0
  0
SPLINE
  5
180
100
AcDbEntity
  8
Calque_1
 62
7
100
AcDbSpline
 70
8
 71
3
 72
8
 73
4
 74
0
 40
0
 40
0
 40
0
 40
0
 40
1
 40
1
 40
1
 40
1
 10
65.314534
 20
95.951758
 30
0.0
 10
65.421645
 20
95.933640
 30
0.0
 10
65.442609
 20
95.992415
 30
0.0
 10
65.446679
 20
96.065880
 30
0.0
  0
LINE
  5
181
100
AcDbEntity
  8
Calque_1
 62
7
100
AcDbLine
 10
65.446679
 20
96.065880
 30
0.0
 11
65.446679
 21
96.645438
 31
0.0
  0
SPLINE
  5
182
100
AcDbEntity
  8
Calque_1
 62
7
100
AcDbSpline
 70
8
 71
3
 72
8
 73
4
 74
0
 40
0
 40
0
 40
0
 40
0
 40
1
 40
1
 40
1
 40
1
 10
65.446679
 20
96.645438
 30
0.0
 10
65.446679
 20
96.645438
 30
0.0
 10
65.437196
 20
96.743609
 30
0.0
 10
65.314534
 20
96.740307
 30
0.0
  0
LINE
  5
183
100
AcDbEntity
  8
Calque_1
 62
7
100
AcDbLine
 10
65.314534
 20
96.740307
 30
0.0
 11
63.856176
 21
96.751285
 31
0.0
  0
LINE
  5
184
100
AcDbEntity
  8
Calque_1
 62
7
100
AcDbLine
 10
63.856176
 20
96.751285
 30
0.0
 11
63.856176
 21
95.951736
 31
0.0
  0
LINE
  5
185
100
AcDbEntity
  8
Calque_1
 62
7
100
AcDbLine
 10
63.856176
 20
95.951736
 30
0.0
 11
65.314534
 21
95.951758
 31
0.0
  0
LINE
  5
186
100
AcDbEntity
  8
Calque_1
 62
7
100
AcDbLine
 10
77.727279
 20
94.638208
 30
0.0
 11
77.727279
 21
96.742838
 31
0.0
  0
LINE
  5
187
100
AcDbEntity
  8
Calque_1
 62
7
100
AcDbLine
 10
77.727279
 20
96.742838
 30
0.0
 11
76.705344
 21
96.742838
 31
0.0
  0
LINE
  5
188
100
AcDbEntity
  8
Calque_1
 62
7
100
AcDbLine
 10
76.705344
 20
96.742838
 30
0.0
 11
76.705344
 21
97.046862
 31
0.0
  0
LINE
  5
189
100
AcDbEntity
  8
Calque_1
 62
7
100
AcDbLine
 10
76.705344
 20
97.046862
 30
0.0
 11
78.954816
 21
97.046862
 31
0.0
  0
LINE
  5
18a
100
AcDbEntity
  8
Calque_1
 62
7
100
AcDbLine
 10
78.954816
 20
97.046862
 30
0.0
 11
78.954816
 21
96.742838
 31
0.0
  0
LINE
  5
18b
100
AcDbEntity
  8
Calque_1
 62
7
100
AcDbLine
 10
78.954816
 20
96.742838
 30
0.0
 11
78.020562
 21
96.742838
 31
0.0
  0
LINE
  5
18c
100
AcDbEntity
  8
Calque_1
 62
7
100
AcDbLine
 10
78.020562
 20
96.742838
 30
0.0
 11
78.042039
 21
94.638208
 31
0.0
  0
LINE
  5
18d
100
AcDbEntity
  8
Calque_1
 62
7
100
AcDbLine
 10
78.042039
 20
94.638208
 30
0.0
 11
77.727279
 21
94.638208
 31
0.0
  0
LINE
  5
18e
100
AcDbEntity
  8
Calque_1
 62
7
100
AcDbLine
 10
80.107257
 20
94.638208
 30
0.0
 11
79.208619
 21
97.046862
 31
0.0
  0
LINE
  5
18f
100
AcDbEntity
  8
Calque_1
 62
7
100
AcDbLine
 10
79.208619
 20
97.046862
 30
0.0
 11
79.554538
 21
97.046862
 31
0.0
  0
LINE
  5
190
100
AcDbEntity
  8
Calque_1
 62
7
100
AcDbLine
 10
79.554538
 20
97.046862
 30
0.0
 11
80.286942
 21
95.119756
 31
0.0
  0
LINE
  5
191
100
AcDbEntity
  8
Calque_1
 62
7
100
AcDbLine
 10
80.286942
 20
95.119756
 30
0.0
 11
81.082871
 21
97.068311
 31
0.0
  0
LINE
  5
192
100
AcDbEntity
  8
Calque_1
 62
7
100
AcDbLine
 10
81.082871
 20
97.068311
 30
0.0
 11
81.269970
 21
97.055639
 31
0.0
  0
LINE
  5
193
100
AcDbEntity
  8
Calque_1
 62
7
100
AcDbLine
 10
81.269970
 20
97.055639
 30
0.0
 11
82.100172
 21
95.094167
 31
0.0
  0
LINE
  5
194
100
AcDbEntity
  8
Calque_1
 62
7
100
AcDbLine
 10
82.100172
 20
95.094167
 30
0.0
 11
82.784177
 21
97.047063
 31
0.0
  0
LINE
  5
195
100
AcDbEntity
  8
Calque_1
 62
7
100
AcDbLine
 10
82.784177
 20
97.047063
 30
0.0
 11
83.101220
 21
97.047063
 31
0.0
  0
LINE
  5
196
100
AcDbEntity
  8
Calque_1
 62
7
100
AcDbLine
 10
83.101220
 20
97.047063
 30
0.0
 11
82.234439
 21
94.638406
 31
0.0
  0
LINE
  5
197
100
AcDbEntity
  8
Calque_1
 62
7
100
AcDbLine
 10
82.234439
 20
94.638406
 30
0.0
 11
81.953645
 21
94.638406
 31
0.0
  0
LINE
  5
198
100
AcDbEntity
  8
Calque_1
 62
7
100
AcDbLine
 10
81.953645
 20
94.638406
 30
0.0
 11
81.177934
 21
96.494059
 31
0.0
  0
LINE
  5
199
100
AcDbEntity
  8
Calque_1
 62
7
100
AcDbLine
 10
81.177934
 20
96.494059
 30
0.0
 11
80.425547
 21
94.638406
 31
0.0
  0
LINE
  5
19a
100
AcDbEntity
  8
Calque_1
 62
7
100
AcDbLine
 10
80.425547
 20
94.638406
 30
0.0
 11
80.107257
 21
94.638208
 31
0.0
  0
LINE
  5
19b
100
AcDbEntity
  8
Calque_1
 62
7
100
AcDbLine
 10
86.070070
 20
97.083879
 30
0.0
 11
87.820277
 21
97.083879
 31
0.0
  0
SPLINE
  5
19c
100
AcDbEntity
  8
Calque_1
 62
7
100
AcDbSpline
 70
8
 71
3
 72
8
 73
4
 74
0
 40
0
 40
0
 40
0
 40
0
 40
1
 40
1
 40
1
 40
1
 10
87.820277
 20
97.083879
 30
0.0
 10
88.425957
 20
97.071207
 30
0.0
 10
88.681509
 20
96.199298
 30
0.0
 10
88.193203
 20
95.806400
 30
0.0
  0
SPLINE
  5
19d
100
AcDbEntity
  8
Calque_1
 62
7
100
AcDbSpline
 70
8
 71
3
 72
8
 73
4
 74
0
 40
0
 40
0
 40
0
 40
0
 40
1
 40
1
 40
1
 40
1
 10
88.193203
 20
95.806400
 30
0.0
 10
88.420293
 20
95.658129
 30
0.0
 10
88.397365
 20
95.666321
 30
0.0
 10
88.413186
 20
95.331445
 30
0.0
  0
LINE
  5
19e
100
AcDbEntity
  8
Calque_1
 62
7
100
AcDbLine
 10
88.413186
 20
95.331445
 30
0.0
 11
88.413198
 21
94.638208
 31
0.0
  0
LINE
  5
19f
100
AcDbEntity
  8
Calque_1
 62
7
100
AcDbLine
 10
88.413198
 20
94.638208
 30
0.0
 11
88.141804
 21
94.638208
 31
0.0
  0
LINE
  5
1a0
100
AcDbEntity
  8
Calque_1
 62
7
100
AcDbLine
 10
88.141804
 20
94.638208
 30
0.0
 11
88.141804
 21
95.330508
 31
0.0
  0
SPLINE
  5
1a1
100
AcDbEntity
  8
Calque_1
 62
7
100
AcDbSpline
 70
8
 71
3
 72
8
 73
4
 74
0
 40
0
 40
0
 40
0
 40
0
 40
1
 40
1
 40
1
 40
1
 10
88.141804
 20
95.330508
 30
0.0
 10
88.148324
 20
95.575302
 30
0.0
 10
88.080963
 20
95.657138
 30
0.0
 10
87.820794
 20
95.653068
 30
0.0
  0
LINE
  5
1a2
100
AcDbEntity
  8
Calque_1
 62
7
100
AcDbLine
 10
87.820794
 20
95.653068
 30
0.0
 11
86.428247
 21
95.653068
 31
0.0
  0
LINE
  5
1a3
100
AcDbEntity
  8
Calque_1
 62
7
100
AcDbLine
 10
86.428247
 20
95.653068
 30
0.0
 11
86.428247
 21
94.638208
 31
0.0
  0
LINE
  5
1a4
100
AcDbEntity
  8
Calque_1
 62
7
100
AcDbLine
 10
86.428247
 20
94.638208
 30
0.0
 11
86.070087
 21
94.638208
 31
0.0
  0
LINE
  5
1a5
100
AcDbEntity
  8
Calque_1
 62
7
100
AcDbLine
 10
86.070087
 20
94.638208
 30
0.0
 11
86.070070
 21
97.083879
 31
0.0
  0
SPLINE
  5
1a6
100
AcDbEntity
  8
Calque_1
 62
7
100
AcDbSpline
 70
8
 71
3
 72
8
 73
4
 74
0
 40
0
 40
0
 40
0
 40
0
 40
1
 40
1
 40
1
 40
1
 10
87.820774
 20
95.903577
 30
0.0
 10
88.345876
 20
95.937656
 30
0.0
 10
88.318046
 20
96.805921
 30
0.0
 10
87.820774
 20
96.821209
 30
0.0
  0
LINE
  5
1a7
100
AcDbEntity
  8
Calque_1
 62
7
100
AcDbLine
 10
87.820774
 20
96.821209
 30
0.0
 11
86.428236
 21
96.820926
 31
0.0
  0
LINE
  5
1a8
100
AcDbEntity
  8
Calque_1
 62
7
100
AcDbLine
 10
86.428236
 20
96.820926
 30
0.0
 11
86.428236
 21
95.903738
 31
0.0
  0
LINE
  5
1a9
100
AcDbEntity
  8
Calque_1
 62
7
100
AcDbLine
 10
86.428236
 20
95.903738
 30
0.0
 11
87.820774
 21
95.903577
 31
0.0
  0
LINE
  5
1aa
100
AcDbEntity
  8
Calque_1
 62
7
100
AcDbLine
 10
88.615582
 20
94.638208
 30
0.0
 11
88.615582
 21
97.083879
 31
0.0
  0
LINE
  5
1ab
100
AcDbEntity
  8
Calque_1
 62
7
100
AcDbLine
 10
88.615582
 20
97.083879
 30
0.0
 11
88.973753
 21
97.083879
 31
0.0
  0
LINE
  5
1ac
100
AcDbEntity
  8
Calque_1
 62
7
100
AcDbLine
 10
88.973753
 20
97.083879
 30
0.0
 11
88.973753
 21
96.062745
 31
0.0
  0
LINE
  5
1ad
100
AcDbEntity
  8
Calque_1
 62
7
100
AcDbLine
 10
88.973753
 20
96.062745
 30
0.0
 11
89.321857
 21
96.062745
 31
0.0
  0
LINE
  5
1ae
100
AcDbEntity
  8
Calque_1
 62
7
100
AcDbLine
 10
89.321857
 20
96.062745
 30
0.0
 11
90.622854
 21
97.084753
 31
0.0
  0
LINE
  5
1af
100
AcDbEntity
  8
Calque_1
 62
7
100
AcDbLine
 10
90.622854
 20
97.084753
 30
0.0
 11
91.194342
 21
97.084753
 31
0.0
  0
LINE
  5
1b0
100
AcDbEntity
  8
Calque_1
 62
7
100
AcDbLine
 10
91.194342
 20
97.084753
 30
0.0
 11
89.607777
 21
95.897205
 31
0.0
  0
LINE
  5
1b1
100
AcDbEntity
  8
Calque_1
 62
7
100
AcDbLine
 10
89.607777
 20
95.897205
 30
0.0
 11
91.171147
 21
94.639089
 31
0.0
  0
LINE
  5
1b2
100
AcDbEntity
  8
Calque_1
 62
7
100
AcDbLine
 10
91.171147
 20
94.639089
 30
0.0
 11
90.629765
 21
94.639089
 31
0.0
  0
LINE
  5
1b3
100
AcDbEntity
  8
Calque_1
 62
7
100
AcDbLine
 10
90.629765
 20
94.639089
 30
0.0
 11
89.322309
 21
95.786108
 31
0.0
  0
LINE
  5
1b4
100
AcDbEntity
  8
Calque_1
 62
7
100
AcDbLine
 10
89.322309
 20
95.786108
 30
0.0
 11
88.973750
 21
95.792176
 31
0.0
  0
LINE
  5
1b5
100
AcDbEntity
  8
Calque_1
 62
7
100
AcDbLine
 10
88.973750
 20
95.792176
 30
0.0
 11
88.973750
 21
94.638939
 31
0.0
  0
LINE
  5
1b6
100
AcDbEntity
  8
Calque_1
 62
7
100
AcDbLine
 10
88.973750
 20
94.638939
 30
0.0
 11
88.615582
 21
94.638208
 31
0.0
  0
LINE
  5
1b7
100
AcDbEntity
  8
Calque_1
 62
7
100
AcDbLine
 10
92.146699
 20
94.638208
 30
0.0
 11
93.186120
 21
97.072988
 31
0.0
  0
LINE
  5
1b8
100
AcDbEntity
  8
Calque_1
 62
7
100
AcDbLine
 10
93.186120
 20
97.072988
 30
0.0
 11
93.571977
 21
97.072988
 31
0.0
  0
LINE
  5
1b9
100
AcDbEntity
  8
Calque_1
 62
7
100
AcDbLine
 10
93.571977
 20
97.072988
 30
0.0
 11
94.679711
 21
94.638208
 31
0.0
  0
LINE
  5
1ba
100
AcDbEntity
  8
Calque_1
 62
7
100
AcDbLine
 10
94.679711
 20
94.638208
 30
0.0
 11
94.400601
 21
94.638208
 31
0.0
  0
LINE
  5
1bb
100
AcDbEntity
  8
Calque_1
 62
7
100
AcDbLine
 10
94.400601
 20
94.638208
 30
0.0
 11
94.119274
 21
95.254009
 31
0.0
  0
LINE
  5
1bc
100
AcDbEntity
  8
Calque_1
 62
7
100
AcDbLine
 10
94.119274
 20
95.254009
 30
0.0
 11
92.703955
 21
95.254009
 31
0.0
  0
LINE
  5
1bd
100
AcDbEntity
  8
Calque_1
 62
7
100
AcDbLine
 10
92.703955
 20
95.254009
 30
0.0
 11
92.428201
 21
94.637325
 31
0.0
  0
LINE
  5
1be
100
AcDbEntity
  8
Calque_1
 62
7
100
AcDbLine
 10
92.428201
 20
94.637325
 30
0.0
 11
92.146699
 21
94.638208
 31
0.0
  0
LINE
  5
1bf
100
AcDbEntity
  8
Calque_1
 62
7
100
AcDbLine
 10
92.824531
 20
95.516512
 30
0.0
 11
93.991314
 21
95.516512
 31
0.0
  0
LINE
  5
1c0
100
AcDbEntity
  8
Calque_1
 62
7
100
AcDbLine
 10
93.991314
 20
95.516512
 30
0.0
 11
93.387926
 21
96.788705
 31
0.0
  0
LINE
  5
1c1
100
AcDbEntity
  8
Calque_1
 62
7
100
AcDbLine
 10
93.387926
 20
96.788705
 30
0.0
 11
92.824531
 21
95.516512
 31
0.0
  0
LINE
  5
1c2
100
AcDbEntity
  8
Calque_1
 62
7
100
AcDbLine
 10
102.871058
 20
94.638208
 30
0.0
 11
102.845235
 21
97.083879
 31
0.0
  0
LINE
  5
1c3
100
AcDbEntity
  8
Calque_1
 62
7
100
AcDbLine
 10
102.845235
 20
97.083879
 30
0.0
 11
103.414401
 21
97.083879
 31
0.0
  0
LINE
  5
1c4
100
AcDbEntity
  8
Calque_1
 62
7
100
AcDbLine
 10
103.414401
 20
97.083879
 30
0.0
 11
104.476443
 21
95.085223
 31
0.0
  0
LINE
  5
1c5
100
AcDbEntity
  8
Calque_1
 62
7
100
AcDbLine
 10
104.476443
 20
95.085223
 30
0.0
 11
105.534866
 21
97.083879
 31
0.0
  0
LINE
  5
1c6
100
AcDbEntity
  8
Calque_1
 62
7
100
AcDbLine
 10
105.534866
 20
97.083879
 30
0.0
 11
106.025323
 21
97.083879
 31
0.0
  0
LINE
  5
1c7
100
AcDbEntity
  8
Calque_1
 62
7
100
AcDbLine
 10
106.025323
 20
97.083879
 30
0.0
 11
106.025323
 21
94.638208
 31
0.0
  0
LINE
  5
1c8
100
AcDbEntity
  8
Calque_1
 62
7
100
AcDbLine
 10
106.025323
 20
94.638208
 30
0.0
 11
105.731643
 21
94.638208
 31
0.0
  0
LINE
  5
1c9
100
AcDbEntity
  8
Calque_1
 62
7
100
AcDbLine
 10
105.731643
 20
94.638208
 30
0.0
 11
105.731643
 21
96.801961
 31
0.0
  0
LINE
  5
1ca
100
AcDbEntity
  8
Calque_1
 62
7
100
AcDbLine
 10
105.731643
 20
96.801961
 30
0.0
 11
104.571340
 21
94.638208
 31
0.0
  0
LINE
  5
1cb
100
AcDbEntity
  8
Calque_1
 62
7
100
AcDbLine
 10
104.571340
 20
94.638208
 30
0.0
 11
104.359961
 21
94.638208
 31
0.0
  0
LINE
  5
1cc
100
AcDbEntity
  8
Calque_1
 62
7
100
AcDbLine
 10
104.359961
 20
94.638208
 30
0.0
 11
103.164682
 21
96.900894
 31
0.0
  0
LINE
  5
1cd
100
AcDbEntity
  8
Calque_1
 62
7
100
AcDbLine
 10
103.164682
 20
96.900894
 30
0.0
 11
103.164682
 21
94.638208
 31
0.0
  0
LINE
  5
1ce
100
AcDbEntity
  8
Calque_1
 62
7
100
AcDbLine
 10
103.164682
 20
94.638208
 30
0.0
 11
102.871058
 21
94.638208
 31
0.0
  0
LINE
  5
1cf
100
AcDbEntity
  8
Calque_1
 62
7
100
AcDbLine
 10
111.470779
 20
94.638208
 30
0.0
 11
111.470496
 21
97.046862
 31
0.0
  0
LINE
  5
1d0
100
AcDbEntity
  8
Calque_1
 62
7
100
AcDbLine
 10
111.470496
 20
97.046862
 30
0.0
 11
111.768503
 21
97.046862
 31
0.0
  0
LINE
  5
1d1
100
AcDbEntity
  8
Calque_1
 62
7
100
AcDbLine
 10
111.768503
 20
97.046862
 30
0.0
 11
111.768786
 21
94.638208
 31
0.0
  0
LINE
  5
1d2
100
AcDbEntity
  8
Calque_1
 62
7
100
AcDbLine
 10
111.768786
 20
94.638208
 30
0.0
 11
111.470779
 21
94.638208
 31
0.0
  0
LINE
  5
1d3
100
AcDbEntity
  8
Calque_1
 62
7
100
AcDbLine
 10
121.260275
 20
94.638208
 30
0.0
 11
121.260275
 21
97.046862
 31
0.0
  0
LINE
  5
1d4
100
AcDbEntity
  8
Calque_1
 62
7
100
AcDbLine
 10
121.260275
 20
97.046862
 30
0.0
 11
121.545533
 21
97.046862
 31
0.0
  0
LINE
  5
1d5
100
AcDbEntity
  8
Calque_1
 62
7
100
AcDbLine
 10
121.545533
 20
97.046862
 30
0.0
 11
121.545533
 21
94.919954
 31
0.0
  0
LINE
  5
1d6
100
AcDbEntity
  8
Calque_1
 62
7
100
AcDbLine
 10
121.545533
 20
94.919954
 30
0.0
 11
122.951418
 21
94.919954
 31
0.0
  0
LINE
  5
1d7
100
AcDbEntity
  8
Calque_1
 62
7
100
AcDbLine
 10
122.951418
 20
94.919954
 30
0.0
 11
122.951418
 21
94.638208
 31
0.0
  0
LINE
  5
1d8
100
AcDbEntity
  8
Calque_1
 62
7
100
AcDbLine
 10
122.951418
 20
94.638208
 30
0.0
 11
121.260275
 21
94.638208
 31
0.0
  0
LINE
  5
1d9
100
AcDbEntity
  8
Calque_1
 62
7
100
AcDbLine
 10
128.392157
 20
94.638208
 30
0.0
 11
128.392157
 21
97.046862
 31
0.0
  0
LINE
  5
1da
100
AcDbEntity
  8
Calque_1
 62
7
100
AcDbLine
 10
128.392157
 20
97.046862
 30
0.0
 11
130.342674
 21
97.046862
 31
0.0
  0
LINE
  5
1db
100
AcDbEntity
  8
Calque_1
 62
7
100
AcDbLine
 10
130.342674
 20
97.046862
 30
0.0
 11
130.342674
 21
96.742838
 31
0.0
  0
LINE
  5
1dc
100
AcDbEntity
  8
Calque_1
 62
7
100
AcDbLine
 10
130.342674
 20
96.742838
 30
0.0
 11
128.720255
 21
96.742838
 31
0.0
  0
LINE
  5
1dd
100
AcDbEntity
  8
Calque_1
 62
7
100
AcDbLine
 10
128.720255
 20
96.742838
 30
0.0
 11
128.720255
 21
96.064667
 31
0.0
  0
LINE
  5
1de
100
AcDbEntity
  8
Calque_1
 62
7
100
AcDbLine
 10
128.720255
 20
96.064667
 30
0.0
 11
130.299813
 21
96.064667
 31
0.0
  0
LINE
  5
1df
100
AcDbEntity
  8
Calque_1
 62
7
100
AcDbLine
 10
130.299813
 20
96.064667
 30
0.0
 11
130.299813
 21
95.756799
 31
0.0
  0
LINE
  5
1e0
100
AcDbEntity
  8
Calque_1
 62
7
100
AcDbLine
 10
130.299813
 20
95.756799
 30
0.0
 11
128.720255
 21
95.756799
 31
0.0
  0
LINE
  5
1e1
100
AcDbEntity
  8
Calque_1
 62
7
100
AcDbLine
 10
128.720255
 20
95.756799
 30
0.0
 11
128.720255
 21
94.638208
 31
0.0
  0
LINE
  5
1e2
100
AcDbEntity
  8
Calque_1
 62
7
100
AcDbLine
 10
128.720255
 20
94.638208
 30
0.0
 11
128.392157
 21
94.638208
 31
0.0
  0
SPLINE
  5
1e3
100
AcDbEntity
  8
Calque_1
 62
7
100
AcDbSpline
 70
8
 71
3
 72
8
 73
4
 74
0
 40
0
 40
0
 40
0
 40
0
 40
1
 40
1
 40
1
 40
1
 10
83.302461
 20
96.489081
 30
0.0
 10
83.344870
 20
96.880159
 30
0.0
 10
83.539079
 20
97.087006
 30
0.0
 10
83.905558
 20
97.084643
 30
0.0
  0
LINE
  5
1e4
100
AcDbEntity
  8
Calque_1
 62
7
100
AcDbLine
 10
83.905558
 20
97.084643
 30
0.0
 11
85.244316
 21
97.084643
 31
0.0
  0
SPLINE
  5
1e5
100
AcDbEntity
  8
Calque_1
 62
7
100
AcDbSpline
 70
8
 71
3
 72
8
 73
4
 74
0
 40
0
 40
0
 40
0
 40
0
 40
1
 40
1
 40
1
 40
1
 10
85.244316
 20
97.084643
 30
0.0
 10
85.526191
 20
97.067004
 30
0.0
 10
85.797771
 20
97.028213
 30
0.0
 10
85.830159
 20
96.489081
 30
0.0
  0
LINE
  5
1e6
100
AcDbEntity
  8
Calque_1
 62
7
100
AcDbLine
 10
85.830159
 20
96.489081
 30
0.0
 11
85.830159
 21
95.261270
 31
0.0
  0
SPLINE
  5
1e7
100
AcDbEntity
  8
Calque_1
 62
7
100
AcDbSpline
 70
8
 71
3
 72
8
 73
4
 74
0
 40
0
 40
0
 40
0
 40
0
 40
1
 40
1
 40
1
 40
1
 10
85.830159
 20
95.261270
 30
0.0
 10
85.820733
 20
94.801110
 30
0.0
 10
85.576212
 20
94.660041
 30
0.0
 10
85.244316
 20
94.637542
 30
0.0
  0
LINE
  5
1e8
100
AcDbEntity
  8
Calque_1
 62
7
100
AcDbLine
 10
85.244316
 20
94.637542
 30
0.0
 11
83.905558
 21
94.637542
 31
0.0
  0
SPLINE
  5
1e9
100
AcDbEntity
  8
Calque_1
 62
7
100
AcDbSpline
 70
8
 71
3
 72
8
 73
4
 74
0
 40
0
 40
0
 40
0
 40
0
 40
1
 40
1
 40
1
 40
1
 10
83.905558
 20
94.637542
 30
0.0
 10
83.365879
 20
94.668892
 30
0.0
 10
83.319846
 20
94.957518
 30
0.0
 10
83.302461
 20
95.261270
 30
0.0
  0
LINE
  5
1ea
100
AcDbEntity
  8
Calque_1
 62
7
100
AcDbLine
 10
83.302461
 20
95.261270
 30
0.0
 11
83.302461
 21
96.489081
 31
0.0
  0
SPLINE
  5
1eb
100
AcDbEntity
  8
Calque_1
 62
7
100
AcDbSpline
 70
8
 71
3
 72
8
 73
4
 74
0
 40
0
 40
0
 40
0
 40
0
 40
1
 40
1
 40
1
 40
1
 10
83.567239
 20
95.261270
 30
0.0
 10
83.558603
 20
95.039850
 30
0.0
 10
83.659647
 20
94.908129
 30
0.0
 10
83.905558
 20
94.894932
 30
0.0
  0
LINE
  5
1ec
100
AcDbEntity
  8
Calque_1
 62
7
100
AcDbLine
 10
83.905558
 20
94.894932
 30
0.0
 11
85.244316
 21
94.894932
 31
0.0
  0
SPLINE
  5
1ed
100
AcDbEntity
  8
Calque_1
 62
7
100
AcDbSpline
 70
8
 71
3
 72
8
 73
4
 74
0
 40
0
 40
0
 40
0
 40
0
 40
1
 40
1
 40
1
 40
1
 10
85.244316
 20
94.894932
 30
0.0
 10
85.432417
 20
94.894932
 30
0.0
 10
85.582373
 20
94.960820
 30
0.0
 10
85.586784
 20
95.261270
 30
0.0
  0
LINE
  5
1ee
100
AcDbEntity
  8
Calque_1
 62
7
100
AcDbLine
 10
85.586784
 20
95.261270
 30
0.0
 11
85.586784
 21
96.489081
 31
0.0
  0
SPLINE
  5
1ef
100
AcDbEntity
  8
Calque_1
 62
7
100
AcDbSpline
 70
8
 71
3
 72
8
 73
4
 74
0
 40
0
 40
0
 40
0
 40
0
 40
1
 40
1
 40
1
 40
1
 10
85.586784
 20
96.489081
 30
0.0
 10
85.576427
 20
96.703296
 30
0.0
 10
85.485613
 20
96.836937
 30
0.0
 10
85.244316
 20
96.820111
 30
0.0
  0
LINE
  5
1f0
100
AcDbEntity
  8
Calque_1
 62
7
100
AcDbLine
 10
85.244316
 20
96.820111
 30
0.0
 11
83.905558
 21
96.820111
 31
0.0
  0
SPLINE
  5
1f1
100
AcDbEntity
  8
Calque_1
 62
7
100
AcDbSpline
 70
8
 71
3
 72
8
 73
4
 74
0
 40
0
 40
0
 40
0
 40
0
 40
1
 40
1
 40
1
 40
1
 10
83.905558
 20
96.820111
 30
0.0
 10
83.702782
 20
96.819829
 30
0.0
 10
83.562461
 20
96.743115
 30
0.0
 10
83.567239
 20
96.489081
 30
0.0
  0
LINE
  5
1f2
100
AcDbEntity
  8
Calque_1
 62
7
100
AcDbLine
 10
83.567239
 20
96.489081
 30
0.0
 11
83.567239
 21
95.261270
 31
0.0
  0
SPLINE
  5
1f3
100
AcDbEntity
  8
Calque_1
 62
7
100
AcDbSpline
 70
8
 71
3
 72
8
 73
4
 74
0
 40
0
 40
0
 40
0
 40
0
 40
1
 40
1
 40
1
 40
1
 10
100.053913
 20
96.489081
 30
0.0
 10
100.096320
 20
96.880159
 30
0.0
 10
100.290534
 20
97.087006
 30
0.0
 10
100.656997
 20
97.084643
 30
0.0
  0
LINE
  5
1f4
100
AcDbEntity
  8
Calque_1
 62
7
100
AcDbLine
 10
100.656997
 20
97.084643
 30
0.0
 11
101.995763
 21
97.084643
 31
0.0
  0
SPLINE
  5
1f5
100
AcDbEntity
  8
Calque_1
 62
7
100
AcDbSpline
 70
8
 71
3
 72
8
 73
4
 74
0
 40
0
 40
0
 40
0
 40
0
 40
1
 40
1
 40
1
 40
1
 10
101.995763
 20
97.084643
 30
0.0
 10
102.277649
 20
97.067004
 30
0.0
 10
102.549223
 20
97.028213
 30
0.0
 10
102.581617
 20
96.489081
 30
0.0
  0
LINE
  5
1f6
100
AcDbEntity
  8
Calque_1
 62
7
100
AcDbLine
 10
102.581617
 20
96.489081
 30
0.0
 11
102.581617
 21
95.261270
 31
0.0
  0
SPLINE
  5
1f7
100
AcDbEntity
  8
Calque_1
 62
7
100
AcDbSpline
 70
8
 71
3
 72
8
 73
4
 74
0
 40
0
 40
0
 40
0
 40
0
 40
1
 40
1
 40
1
 40
1
 10
102.581617
 20
95.261270
 30
0.0
 10
102.572191
 20
94.801110
 30
0.0
 10
102.327665
 20
94.660041
 30
0.0
 10
101.995763
 20
94.637542
 30
0.0
  0
LINE
  5
1f8
100
AcDbEntity
  8
Calque_1
 62
7
100
AcDbLine
 10
101.995763
 20
94.637542
 30
0.0
 11
100.656997
 21
94.637542
 31
0.0
  0
SPLINE
  5
1f9
100
AcDbEntity
  8
Calque_1
 62
7
100
AcDbSpline
 70
8
 71
3
 72
8
 73
4
 74
0
 40
0
 40
0
 40
0
 40
0
 40
1
 40
1
 40
1
 40
1
 10
100.656997
 20
94.637542
 30
0.0
 10
100.117320
 20
94.668892
 30
0.0
 10
100.071301
 20
94.957518
 30
0.0
 10
100.053913
 20
95.261270
 30
0.0
  0
LINE
  5
1fa
100
AcDbEntity
  8
Calque_1
 62
7
100
AcDbLine
 10
100.053913
 20
95.261270
 30
0.0
 11
100.053913
 21
96.489081
 31
0.0
  0
SPLINE
  5
1fb
100
AcDbEntity
  8
Calque_1
 62
7
100
AcDbSpline
 70
8
 71
3
 72
8
 73
4
 74
0
 40
0
 40
0
 40
0
 40
0
 40
1
 40
1
 40
1
 40
1
 10
100.318697
 20
95.261270
 30
0.0
 10
100.310061
 20
95.039850
 30
0.0
 10
100.411102
 20
94.908129
 30
0.0
 10
100.656997
 20
94.894932
 30
0.0
  0
LINE
  5
1fc
100
AcDbEntity
  8
Calque_1
 62
7
100
AcDbLine
 10
100.656997
 20
94.894932
 30
0.0
 11
101.995763
 21
94.894932
 31
0.0
  0
SPLINE
  5
1fd
100
AcDbEntity
  8
Calque_1
 62
7
100
AcDbSpline
 70
8
 71
3
 72
8
 73
4
 74
0
 40
0
 40
0
 40
0
 40
0
 40
1
 40
1
 40
1
 40
1
 10
101.995763
 20
94.894932
 30
0.0
 10
102.183864
 20
94.894932
 30
0.0
 10
102.333834
 20
94.960820
 30
0.0
 10
102.338243
 20
95.261270
 30
0.0
  0
LINE
  5
1fe
100
AcDbEntity
  8
Calque_1
 62
7
100
AcDbLine
 10
102.338243
 20
95.261270
 30
0.0
 11
102.338243
 21
96.489081
 31
0.0
  0
SPLINE
  5
1ff
100
AcDbEntity
  8
Calque_1
 62
7
100
AcDbSpline
 70
8
 71
3
 72
8
 73
4
 74
0
 40
0
 40
0
 40
0
 40
0
 40
1
 40
1
 40
1
 40
1
 10
102.338243
 20
96.489081
 30
0.0
 10
102.327885
 20
96.703296
 30
0.0
 10
102.237066
 20
96.836937
 30
0.0
 10
101.995763
 20
96.820111
 30
0.0
  0
LINE
  5
200
100
AcDbEntity
  8
Calque_1
 62
7
100
AcDbLine
 10
101.995763
 20
96.820111
 30
0.0
 11
100.656997
 21
96.820111
 31
0.0
  0
SPLINE
  5
201
100
AcDbEntity
  8
Calque_1
 62
7
100
AcDbSpline
 70
8
 71
3
 72
8
 73
4
 74
0
 40
0
 40
0
 40
0
 40
0
 40
1
 40
1
 40
1
 40
1
 10
100.656997
 20
96.820111
 30
0.0
 10
100.454231
 20
96.819829
 30
0.0
 10
100.313913
 20
96.743115
 30
0.0
 10
100.318697
 20
96.489081
 30
0.0
  0
LINE
  5
202
100
AcDbEntity
  8
Calque_1
 62
7
100
AcDbLine
 10
100.318697
 20
96.489081
 30
0.0
 11
100.318697
 21
95.261270
 31
0.0
  0
SPLINE
  5
203
100
AcDbEntity
  8
Calque_1
 62
7
100
AcDbSpline
 70
8
 71
3
 72
8
 73
4
 74
0
 40
0
 40
0
 40
0
 40
0
 40
1
 40
1
 40
1
 40
1
 10
112.278120
 20
96.489081
 30
0.0
 10
112.320527
 20
96.880159
 30
0.0
 10
112.514738
 20
97.087006
 30
0.0
 10
112.881207
 20
97.084643
 30
0.0
  0
LINE
  5
204
100
AcDbEntity
  8
Calque_1
 62
7
100
AcDbLine
 10
112.881207
 20
97.084643
 30
0.0
 11
114.219976
 21
97.084643
 31
0.0
  0
SPLINE
  5
205
100
AcDbEntity
  8
Calque_1
 62
7
100
AcDbSpline
 70
8
 71
3
 72
8
 73
4
 74
0
 40
0
 40
0
 40
0
 40
0
 40
1
 40
1
 40
1
 40
1
 10
114.219976
 20
97.084643
 30
0.0
 10
114.501859
 20
97.067004
 30
0.0
 10
114.773433
 20
97.028213
 30
0.0
 10
114.805816
 20
96.489081
 30
0.0
  0
LINE
  5
206
100
AcDbEntity
  8
Calque_1
 62
7
100
AcDbLine
 10
114.805816
 20
96.489081
 30
0.0
 11
114.805816
 21
95.261270
 31
0.0
  0
SPLINE
  5
207
100
AcDbEntity
  8
Calque_1
 62
7
100
AcDbSpline
 70
8
 71
3
 72
8
 73
4
 74
0
 40
0
 40
0
 40
0
 40
0
 40
1
 40
1
 40
1
 40
1
 10
114.805816
 20
95.261270
 30
0.0
 10
114.796389
 20
94.801110
 30
0.0
 10
114.551866
 20
94.660041
 30
0.0
 10
114.219976
 20
94.637542
 30
0.0
  0
LINE
  5
208
100
AcDbEntity
  8
Calque_1
 62
7
100
AcDbLine
 10
114.219976
 20
94.637542
 30
0.0
 11
112.881207
 21
94.637542
 31
0.0
  0
SPLINE
  5
209
100
AcDbEntity
  8
Calque_1
 62
7
100
AcDbSpline
 70
8
 71
3
 72
8
 73
4
 74
0
 40
0
 40
0
 40
0
 40
0
 40
1
 40
1
 40
1
 40
1
 10
112.881207
 20
94.637542
 30
0.0
 10
112.341530
 20
94.668892
 30
0.0
 10
112.295497
 20
94.957518
 30
0.0
 10
112.278120
 20
95.261270
 30
0.0
  0
LINE
  5
20a
100
AcDbEntity
  8
Calque_1
 62
7
100
AcDbLine
 10
112.278120
 20
95.261270
 30
0.0
 11
112.278120
 21
96.489081
 31
0.0
  0
SPLINE
  5
20b
100
AcDbEntity
  8
Calque_1
 62
7
100
AcDbSpline
 70
8
 71
3
 72
8
 73
4
 74
0
 40
0
 40
0
 40
0
 40
0
 40
1
 40
1
 40
1
 40
1
 10
112.542896
 20
95.261270
 30
0.0
 10
112.534260
 20
95.039850
 30
0.0
 10
112.635312
 20
94.908129
 30
0.0
 10
112.881207
 20
94.894932
 30
0.0
  0
LINE
  5
20c
100
AcDbEntity
  8
Calque_1
 62
7
100
AcDbLine
 10
112.881207
 20
94.894932
 30
0.0
 11
114.219976
 21
94.894932
 31
0.0
  0
SPLINE
  5
20d
100
AcDbEntity
  8
Calque_1
 62
7
100
AcDbSpline
 70
8
 71
3
 72
8
 73
4
 74
0
 40
0
 40
0
 40
0
 40
0
 40
1
 40
1
 40
1
 40
1
 10
114.219976
 20
94.894932
 30
0.0
 10
114.408069
 20
94.894932
 30
0.0
 10
114.558041
 20
94.960820
 30
0.0
 10
114.562455
 20
95.261270
 30
0.0
  0
LINE
  5
20e
100
AcDbEntity
  8
Calque_1
 62
7
100
AcDbLine
 10
114.562455
 20
95.261270
 30
0.0
 11
114.562455
 21
96.489081
 31
0.0
  0
SPLINE
  5
20f
100
AcDbEntity
  8
Calque_1
 62
7
100
AcDbSpline
 70
8
 71
3
 72
8
 73
4
 74
0
 40
0
 40
0
 40
0
 40
0
 40
1
 40
1
 40
1
 40
1
 10
114.562455
 20
96.489081
 30
0.0
 10
114.552098
 20
96.703296
 30
0.0
 10
114.461273
 20
96.836937
 30
0.0
 10
114.219976
 20
96.820111
 30
0.0
  0
LINE
  5
210
100
AcDbEntity
  8
Calque_1
 62
7
100
AcDbLine
 10
114.219976
 20
96.820111
 30
0.0
 11
112.881207
 21
96.820111
 31
0.0
  0
SPLINE
  5
211
100
AcDbEntity
  8
Calque_1
 62
7
100
AcDbSpline
 70
8
 71
3
 72
8
 73
4
 74
0
 40
0
 40
0
 40
0
 40
0
 40
1
 40
1
 40
1
 40
1
 10
112.881207
 20
96.820111
 30
0.0
 10
112.678427
 20
96.819829
 30
0.0
 10
112.538112
 20
96.743115
 30
0.0
 10
112.542896
 20
96.489081
 30
0.0
  0
LINE
  5
212
100
AcDbEntity
  8
Calque_1
 62
7
100
AcDbLine
 10
112.542896
 20
96.489081
 30
0.0
 11
112.542896
 21
95.261270
 31
0.0
  0
SPLINE
  5
213
100
AcDbEntity
  8
Calque_1
 62
7
100
AcDbSpline
 70
8
 71
3
 72
8
 73
4
 74
0
 40
0
 40
0
 40
0
 40
0
 40
1
 40
1
 40
1
 40
1
 10
130.646156
 20
96.489081
 30
0.0
 10
130.688563
 20
96.880159
 30
0.0
 10
130.882768
 20
97.087006
 30
0.0
 10
131.249239
 20
97.084643
 30
0.0
  0
LINE
  5
214
100
AcDbEntity
  8
Calque_1
 62
7
100
AcDbLine
 10
131.249239
 20
97.084643
 30
0.0
 11
132.588006
 21
97.084643
 31
0.0
  0
SPLINE
  5
215
100
AcDbEntity
  8
Calque_1
 62
7
100
AcDbSpline
 70
8
 71
3
 72
8
 73
4
 74
0
 40
0
 40
0
 40
0
 40
0
 40
1
 40
1
 40
1
 40
1
 10
132.588006
 20
97.084643
 30
0.0
 10
132.869895
 20
97.067004
 30
0.0
 10
133.141469
 20
97.028213
 30
0.0
 10
133.173854
 20
96.489081
 30
0.0
  0
LINE
  5
216
100
AcDbEntity
  8
Calque_1
 62
7
100
AcDbLine
 10
133.173854
 20
96.489081
 30
0.0
 11
133.173854
 21
95.261270
 31
0.0
  0
SPLINE
  5
217
100
AcDbEntity
  8
Calque_1
 62
7
100
AcDbSpline
 70
8
 71
3
 72
8
 73
4
 74
0
 40
0
 40
0
 40
0
 40
0
 40
1
 40
1
 40
1
 40
1
 10
133.173854
 20
95.261270
 30
0.0
 10
133.164428
 20
94.801110
 30
0.0
 10
132.919905
 20
94.660041
 30
0.0
 10
132.588006
 20
94.637542
 30
0.0
  0
LINE
  5
218
100
AcDbEntity
  8
Calque_1
 62
7
100
AcDbLine
 10
132.588006
 20
94.637542
 30
0.0
 11
131.249239
 21
94.637542
 31
0.0
  0
SPLINE
  5
219
100
AcDbEntity
  8
Calque_1
 62
7
100
AcDbSpline
 70
8
 71
3
 72
8
 73
4
 74
0
 40
0
 40
0
 40
0
 40
0
 40
1
 40
1
 40
1
 40
1
 10
131.249239
 20
94.637542
 30
0.0
 10
130.709566
 20
94.668892
 30
0.0
 10
130.663532
 20
94.957518
 30
0.0
 10
130.646156
 20
95.261270
 30
0.0
  0
LINE
  5
21a
100
AcDbEntity
  8
Calque_1
 62
7
100
AcDbLine
 10
130.646156
 20
95.261270
 30
0.0
 11
130.646156
 21
96.489081
 31
0.0
  0
SPLINE
  5
21b
100
AcDbEntity
  8
Calque_1
 62
7
100
AcDbSpline
 70
8
 71
3
 72
8
 73
4
 74
0
 40
0
 40
0
 40
0
 40
0
 40
1
 40
1
 40
1
 40
1
 10
130.910925
 20
95.261270
 30
0.0
 10
130.902289
 20
95.039850
 30
0.0
 10
131.003342
 20
94.908129
 30
0.0
 10
131.249239
 20
94.894932
 30
0.0
  0
LINE
  5
21c
100
AcDbEntity
  8
Calque_1
 62
7
100
AcDbLine
 10
131.249239
 20
94.894932
 30
0.0
 11
132.588006
 21
94.894932
 31
0.0
  0
SPLINE
  5
21d
100
AcDbEntity
  8
Calque_1
 62
7
100
AcDbSpline
 70
8
 71
3
 72
8
 73
4
 74
0
 40
0
 40
0
 40
0
 40
0
 40
1
 40
1
 40
1
 40
1
 10
132.588006
 20
94.894932
 30
0.0
 10
132.776101
 20
94.894932
 30
0.0
 10
132.926071
 20
94.960820
 30
0.0
 10
132.930488
 20
95.261270
 30
0.0
  0
LINE
  5
21e
100
AcDbEntity
  8
Calque_1
 62
7
100
AcDbLine
 10
132.930488
 20
95.261270
 30
0.0
 11
132.930488
 21
96.489081
 31
0.0
  0
SPLINE
  5
21f
100
AcDbEntity
  8
Calque_1
 62
7
100
AcDbSpline
 70
8
 71
3
 72
8
 73
4
 74
0
 40
0
 40
0
 40
0
 40
0
 40
1
 40
1
 40
1
 40
1
 10
132.930488
 20
96.489081
 30
0.0
 10
132.920130
 20
96.703296
 30
0.0
 10
132.829311
 20
96.836937
 30
0.0
 10
132.588006
 20
96.820111
 30
0.0
  0
LINE
  5
220
100
AcDbEntity
  8
Calque_1
 62
7
100
AcDbLine
 10
132.588006
 20
96.820111
 30
0.0
 11
131.249239
 21
96.820111
 31
0.0
  0
SPLINE
  5
221
100
AcDbEntity
  8
Calque_1
 62
7
100
AcDbSpline
 70
8
 71
3
 72
8
 73
4
 74
0
 40
0
 40
0
 40
0
 40
0
 40
1
 40
1
 40
1
 40
1
 10
131.249239
 20
96.820111
 30
0.0
 10
131.046466
 20
96.819829
 30
0.0
 10
130.906147
 20
96.743115
 30
0.0
 10
130.910925
 20
96.489081
 30
0.0
  0
LINE
  5
222
100
AcDbEntity
  8
Calque_1
 62
7
100
AcDbLine
 10
130.910925
 20
96.489081
 30
0.0
 11
130.910925
 21
95.261270
 31
0.0
  0
LINE
  5
223
100
AcDbEntity
  8
Calque_1
 62
7
100
AcDbLine
 10
118.689557
 20
94.638485
 30
0.0
 11
118.694101
 21
97.046588
 31
0.0
  0
LINE
  5
224
100
AcDbEntity
  8
Calque_1
 62
7
100
AcDbLine
 10
118.694101
 20
97.046588
 30
0.0
 11
120.415132
 21
97.046588
 31
0.0
  0
SPLINE
  5
225
100
AcDbEntity
  8
Calque_1
 62
7
100
AcDbSpline
 70
8
 71
3
 72
8
 73
4
 74
0
 40
0
 40
0
 40
0
 40
0
 40
1
 40
1
 40
1
 40
1
 10
120.415132
 20
97.046588
 30
0.0
 10
120.747491
 20
97.036118
 30
0.0
 10
120.858585
 20
96.875438
 30
0.0
 10
120.867912
 20
96.645712
 30
0.0
  0
LINE
  5
226
100
AcDbEntity
  8
Calque_1
 62
7
100
AcDbLine
 10
120.867912
 20
96.645712
 30
0.0
 11
120.877254
 21
96.066148
 31
0.0
  0
SPLINE
  5
227
100
AcDbEntity
  8
Calque_1
 62
7
100
AcDbSpline
 70
8
 71
3
 72
8
 73
4
 74
0
 40
0
 40
0
 40
0
 40
0
 40
1
 40
1
 40
1
 40
1
 10
120.877254
 20
96.066148
 30
0.0
 10
120.813675
 20
95.665384
 30
0.0
 10
120.614296
 20
95.660767
 30
0.0
 10
120.415180
 20
95.655323
 30
0.0
  0
LINE
  5
228
100
AcDbEntity
  8
Calque_1
 62
7
100
AcDbLine
 10
120.415180
 20
95.655323
 30
0.0
 11
119.707434
 21
95.655323
 31
0.0
  0
LINE
  5
229
100
AcDbEntity
  8
Calque_1
 62
7
100
AcDbLine
 10
119.707434
 20
95.655323
 30
0.0
 11
118.956830
 21
95.655323
 31
0.0
  0
LINE
  5
22a
100
AcDbEntity
  8
Calque_1
 62
7
100
AcDbLine
 10
118.956830
 20
95.655323
 30
0.0
 11
118.956830
 21
94.637932
 31
0.0
  0
LINE
  5
22b
100
AcDbEntity
  8
Calque_1
 62
7
100
AcDbLine
 10
118.956830
 20
94.637932
 30
0.0
 11
118.689557
 21
94.638485
 31
0.0
  0
SPLINE
  5
22c
100
AcDbEntity
  8
Calque_1
 62
7
100
AcDbSpline
 70
8
 71
3
 72
8
 73
4
 74
0
 40
0
 40
0
 40
0
 40
0
 40
1
 40
1
 40
1
 40
1
 10
120.414940
 20
95.952035
 30
0.0
 10
120.522057
 20
95.933916
 30
0.0
 10
120.543018
 20
95.992695
 30
0.0
 10
120.547085
 20
96.066148
 30
0.0
  0
LINE
  5
22d
100
AcDbEntity
  8
Calque_1
 62
7
100
AcDbLine
 10
120.547085
 20
96.066148
 30
0.0
 11
120.547085
 21
96.645712
 31
0.0
  0
SPLINE
  5
22e
100
AcDbEntity
  8
Calque_1
 62
7
100
AcDbSpline
 70
8
 71
3
 72
8
 73
4
 74
0
 40
0
 40
0
 40
0
 40
0
 40
1
 40
1
 40
1
 40
1
 10
120.547085
 20
96.645712
 30
0.0
 10
120.547085
 20
96.645712
 30
0.0
 10
120.537630
 20
96.743877
 30
0.0
 10
120.414940
 20
96.740578
 30
0.0
  0
LINE
  5
22f
100
AcDbEntity
  8
Calque_1
 62
7
100
AcDbLine
 10
120.414940
 20
96.740578
 30
0.0
 11
118.956585
 21
96.751556
 31
0.0
  0
LINE
  5
230
100
AcDbEntity
  8
Calque_1
 62
7
100
AcDbLine
 10
118.956585
 20
96.751556
 30
0.0
 11
118.956585
 21
95.952009
 31
0.0
  0
LINE
  5
231
100
AcDbEntity
  8
Calque_1
 62
7
100
AcDbLine
 10
118.956585
 20
95.952009
 30
0.0
 11
120.414940
 21
95.952035
 31
0.0
  0
LINE
  5
232
100
AcDbEntity
  8
Calque_1
 62
7
100
AcDbLine
 10
67.930059
 20
97.046862
 30
0.0
 11
66.076754
 21
97.046862
 31
0.0
  0
LINE
  5
233
100
AcDbEntity
  8
Calque_1
 62
7
100
AcDbLine
 10
66.076754
 20
97.046862
 30
0.0
 11
66.076754
 21
94.638208
 31
0.0
  0
LINE
  5
234
100
AcDbEntity
  8
Calque_1
 62
7
100
AcDbLine
 10
66.076754
 20
94.638208
 30
0.0
 11
67.930059
 21
94.638208
 31
0.0
  0
LINE
  5
235
100
AcDbEntity
  8
Calque_1
 62
7
100
AcDbLine
 10
67.930059
 20
94.638208
 30
0.0
 11
67.930059
 21
94.923527
 31
0.0
  0
LINE
  5
236
100
AcDbEntity
  8
Calque_1
 62
7
100
AcDbLine
 10
67.930059
 20
94.923527
 30
0.0
 11
66.365388
 21
94.923527
 31
0.0
  0
LINE
  5
237
100
AcDbEntity
  8
Calque_1
 62
7
100
AcDbLine
 10
66.365388
 20
94.923527
 30
0.0
 11
66.365388
 21
95.756850
 31
0.0
  0
LINE
  5
238
100
AcDbEntity
  8
Calque_1
 62
7
100
AcDbLine
 10
66.365388
 20
95.756850
 30
0.0
 11
67.930059
 21
95.756850
 31
0.0
  0
LINE
  5
239
100
AcDbEntity
  8
Calque_1
 62
7
100
AcDbLine
 10
67.930059
 20
95.756850
 30
0.0
 11
67.930059
 21
96.064997
 31
0.0
  0
LINE
  5
23a
100
AcDbEntity
  8
Calque_1
 62
7
100
AcDbLine
 10
67.930059
 20
96.064997
 30
0.0
 11
66.365388
 21
96.064997
 31
0.0
  0
LINE
  5
23b
100
AcDbEntity
  8
Calque_1
 62
7
100
AcDbLine
 10
66.365388
 20
96.064997
 30
0.0
 11
66.365388
 21
96.742124
 31
0.0
  0
LINE
  5
23c
100
AcDbEntity
  8
Calque_1
 62
7
100
AcDbLine
 10
66.365388
 20
96.742124
 30
0.0
 11
67.930059
 21
96.742124
 31
0.0
  0
LINE
  5
23d
100
AcDbEntity
  8
Calque_1
 62
7
100
AcDbLine
 10
67.930059
 20
96.742124
 30
0.0
 11
67.930059
 21
97.046862
 31
0.0
  0
LINE
  5
23e
100
AcDbEntity
  8
Calque_1
 62
7
100
AcDbLine
 10
76.541145
 20
97.046862
 30
0.0
 11
74.687851
 21
97.046862
 31
0.0
  0
LINE
  5
23f
100
AcDbEntity
  8
Calque_1
 62
7
100
AcDbLine
 10
74.687851
 20
97.046862
 30
0.0
 11
74.687851
 21
94.638208
 31
0.0
  0
LINE
  5
240
100
AcDbEntity
  8
Calque_1
 62
7
100
AcDbLine
 10
74.687851
 20
94.638208
 30
0.0
 11
76.541145
 21
94.638208
 31
0.0
  0
LINE
  5
241
100
AcDbEntity
  8
Calque_1
 62
7
100
AcDbLine
 10
76.541145
 20
94.638208
 30
0.0
 11
76.541145
 21
94.923527
 31
0.0
  0
LINE
  5
242
100
AcDbEntity
  8
Calque_1
 62
7
100
AcDbLine
 10
76.541145
 20
94.923527
 30
0.0
 11
74.976476
 21
94.923527
 31
0.0
  0
LINE
  5
243
100
AcDbEntity
  8
Calque_1
 62
7
100
AcDbLine
 10
74.976476
 20
94.923527
 30
0.0
 11
74.976476
 21
95.756850
 31
0.0
  0
LINE
  5
244
100
AcDbEntity
  8
Calque_1
 62
7
100
AcDbLine
 10
74.976476
 20
95.756850
 30
0.0
 11
76.541145
 21
95.756850
 31
0.0
  0
LINE
  5
245
100
AcDbEntity
  8
Calque_1
 62
7
100
AcDbLine
 10
76.541145
 20
95.756850
 30
0.0
 11
76.541145
 21
96.064997
 31
0.0
  0
LINE
  5
246
100
AcDbEntity
  8
Calque_1
 62
7
100
AcDbLine
 10
76.541145
 20
96.064997
 30
0.0
 11
74.976476
 21
96.064997
 31
0.0
  0
LINE
  5
247
100
AcDbEntity
  8
Calque_1
 62
7
100
AcDbLine
 10
74.976476
 20
96.064997
 30
0.0
 11
74.976476
 21
96.742124
 31
0.0
  0
LINE
  5
248
100
AcDbEntity
  8
Calque_1
 62
7
100
AcDbLine
 10
74.976476
 20
96.742124
 30
0.0
 11
76.541145
 21
96.742124
 31
0.0
  0
LINE
  5
249
100
AcDbEntity
  8
Calque_1
 62
7
100
AcDbLine
 10
76.541145
 20
96.742124
 30
0.0
 11
76.541145
 21
97.046862
 31
0.0
  0
LINE
  5
24a
100
AcDbEntity
  8
Calque_1
 62
7
100
AcDbLine
 10
68.330137
 20
94.638208
 30
0.0
 11
68.623239
 21
94.638208
 31
0.0
  0
LINE
  5
24b
100
AcDbEntity
  8
Calque_1
 62
7
100
AcDbLine
 10
68.623239
 20
94.638208
 30
0.0
 11
68.623239
 21
96.851237
 31
0.0
  0
LINE
  5
24c
100
AcDbEntity
  8
Calque_1
 62
7
100
AcDbLine
 10
68.623239
 20
96.851237
 30
0.0
 11
70.338826
 21
94.638208
 31
0.0
  0
LINE
  5
24d
100
AcDbEntity
  8
Calque_1
 62
7
100
AcDbLine
 10
70.338826
 20
94.638208
 30
0.0
 11
70.713250
 21
94.638208
 31
0.0
  0
LINE
  5
24e
100
AcDbEntity
  8
Calque_1
 62
7
100
AcDbLine
 10
70.713250
 20
94.638208
 30
0.0
 11
70.713250
 21
97.046862
 31
0.0
  0
LINE
  5
24f
100
AcDbEntity
  8
Calque_1
 62
7
100
AcDbLine
 10
70.713250
 20
97.046862
 30
0.0
 11
70.397136
 21
97.046862
 31
0.0
  0
LINE
  5
250
100
AcDbEntity
  8
Calque_1
 62
7
100
AcDbLine
 10
70.397136
 20
97.046862
 30
0.0
 11
70.397136
 21
95.117233
 31
0.0
  0
LINE
  5
251
100
AcDbEntity
  8
Calque_1
 62
7
100
AcDbLine
 10
70.397136
 20
95.117233
 30
0.0
 11
68.859448
 21
97.046862
 31
0.0
  0
LINE
  5
252
100
AcDbEntity
  8
Calque_1
 62
7
100
AcDbLine
 10
68.859448
 20
97.046862
 30
0.0
 11
68.330044
 21
97.046862
 31
0.0
  0
LINE
  5
253
100
AcDbEntity
  8
Calque_1
 62
7
100
AcDbLine
 10
68.330044
 20
97.046862
 30
0.0
 11
68.330137
 21
94.638208
 31
0.0
  0
LINE
  5
254
100
AcDbEntity
  8
Calque_1
 62
7
100
AcDbLine
 10
72.009437
 20
94.638208
 30
0.0
 11
72.302525
 21
94.638208
 31
0.0
  0
LINE
  5
255
100
AcDbEntity
  8
Calque_1
 62
7
100
AcDbLine
 10
72.302525
 20
94.638208
 30
0.0
 11
72.302525
 21
96.851237
 31
0.0
  0
LINE
  5
256
100
AcDbEntity
  8
Calque_1
 62
7
100
AcDbLine
 10
72.302525
 20
96.851237
 30
0.0
 11
74.018123
 21
94.638208
 31
0.0
  0
LINE
  5
257
100
AcDbEntity
  8
Calque_1
 62
7
100
AcDbLine
 10
74.018123
 20
94.638208
 30
0.0
 11
74.392550
 21
94.638208
 31
0.0
  0
LINE
  5
258
100
AcDbEntity
  8
Calque_1
 62
7
100
AcDbLine
 10
74.392550
 20
94.638208
 30
0.0
 11
74.392550
 21
97.046862
 31
0.0
  0
LINE
  5
259
100
AcDbEntity
  8
Calque_1
 62
7
100
AcDbLine
 10
74.392550
 20
97.046862
 30
0.0
 11
74.076436
 21
97.046862
 31
0.0
  0
LINE
  5
25a
100
AcDbEntity
  8
Calque_1
 62
7
100
AcDbLine
 10
74.076436
 20
97.046862
 30
0.0
 11
74.076436
 21
95.117233
 31
0.0
  0
LINE
  5
25b
100
AcDbEntity
  8
Calque_1
 62
7
100
AcDbLine
 10
74.076436
 20
95.117233
 30
0.0
 11
72.538748
 21
97.046862
 31
0.0
  0
LINE
  5
25c
100
AcDbEntity
  8
Calque_1
 62
7
100
AcDbLine
 10
72.538748
 20
97.046862
 30
0.0
 11
72.009327
 21
97.046862
 31
0.0
  0
LINE
  5
25d
100
AcDbEntity
  8
Calque_1
 62
7
100
AcDbLine
 10
72.009327
 20
97.046862
 30
0.0
 11
72.009437
 21
94.638208
 31
0.0
  0
LINE
  5
25e
100
AcDbEntity
  8
Calque_1
 62
7
100
AcDbLine
 10
115.032474
 20
94.638208
 30
0.0
 11
115.325567
 21
94.638208
 31
0.0
  0
LINE
  5
25f
100
AcDbEntity
  8
Calque_1
 62
7
100
AcDbLine
 10
115.325567
 20
94.638208
 30
0.0
 11
115.325567
 21
96.851237
 31
0.0
  0
LINE
  5
260
100
AcDbEntity
  8
Calque_1
 62
7
100
AcDbLine
 10
115.325567
 20
96.851237
 30
0.0
 11
117.041168
 21
94.638208
 31
0.0
  0
LINE
  5
261
100
AcDbEntity
  8
Calque_1
 62
7
100
AcDbLine
 10
117.041168
 20
94.638208
 30
0.0
 11
117.415584
 21
94.638208
 31
0.0
  0
LINE
  5
262
100
AcDbEntity
  8
Calque_1
 62
7
100
AcDbLine
 10
117.415584
 20
94.638208
 30
0.0
 11
117.415584
 21
97.046862
 31
0.0
  0
LINE
  5
263
100
AcDbEntity
  8
Calque_1
 62
7
100
AcDbLine
 10
117.415584
 20
97.046862
 30
0.0
 11
117.099472
 21
97.046862
 31
0.0
  0
LINE
  5
264
100
AcDbEntity
  8
Calque_1
 62
7
100
AcDbLine
 10
117.099472
 20
97.046862
 30
0.0
 11
117.099472
 21
95.117233
 31
0.0
  0
LINE
  5
265
100
AcDbEntity
  8
Calque_1
 62
7
100
AcDbLine
 10
117.099472
 20
95.117233
 30
0.0
 11
115.561779
 21
97.046862
 31
0.0
  0
LINE
  5
266
100
AcDbEntity
  8
Calque_1
 62
7
100
AcDbLine
 10
115.561779
 20
97.046862
 30
0.0
 11
115.032375
 21
97.046862
 31
0.0
  0
LINE
  5
267
100
AcDbEntity
  8
Calque_1
 62
7
100
AcDbLine
 10
115.032375
 20
97.046862
 30
0.0
 11
115.032474
 21
94.638208
 31
0.0
  0
LINE
  5
268
100
AcDbEntity
  8
Calque_1
 62
7
100
AcDbLine
 10
98.575625
 20
94.638208
 30
0.0
 11
98.575625
 21
96.742838
 31
0.0
  0
LINE
  5
269
100
AcDbEntity
  8
Calque_1
 62
7
100
AcDbLine
 10
98.575625
 20
96.742838
 30
0.0
 11
97.553704
 21
96.742838
 31
0.0
  0
LINE
  5
26a
100
AcDbEntity
  8
Calque_1
 62
7
100
AcDbLine
 10
97.553704
 20
96.742838
 30
0.0
 11
97.553704
 21
97.046862
 31
0.0
  0
LINE
  5
26b
100
AcDbEntity
  8
Calque_1
 62
7
100
AcDbLine
 10
97.553704
 20
97.046862
 30
0.0
 11
99.803170
 21
97.046862
 31
0.0
  0
LINE
  5
26c
100
AcDbEntity
  8
Calque_1
 62
7
100
AcDbLine
 10
99.803170
 20
97.046862
 30
0.0
 11
99.803170
 21
96.742838
 31
0.0
  0
LINE
  5
26d
100
AcDbEntity
  8
Calque_1
 62
7
100
AcDbLine
 10
99.803170
 20
96.742838
 30
0.0
 11
98.868916
 21
96.742838
 31
0.0
  0
LINE
  5
26e
100
AcDbEntity
  8
Calque_1
 62
7
100
AcDbLine
 10
98.868916
 20
96.742838
 30
0.0
 11
98.890393
 21
94.638208
 31
0.0
  0
LINE
  5
26f
100
AcDbEntity
  8
Calque_1
 62
7
100
AcDbLine
 10
98.890393
 20
94.638208
 30
0.0
 11
98.575625
 21
94.638208
 31
0.0
  0
LINE
  5
270
100
AcDbEntity
  8
Calque_1
 62
7
100
AcDbLine
 10
126.841922
 20
94.638208
 30
0.0
 11
126.841922
 21
96.742838
 31
0.0
  0
LINE
  5
271
100
AcDbEntity
  8
Calque_1
 62
7
100
AcDbLine
 10
126.841922
 20
96.742838
 30
0.0
 11
125.819995
 21
96.742838
 31
0.0
  0
LINE
  5
272
100
AcDbEntity
  8
Calque_1
 62
7
100
AcDbLine
 10
125.819995
 20
96.742838
 30
0.0
 11
125.819995
 21
97.046862
 31
0.0
  0
LINE
  5
273
100
AcDbEntity
  8
Calque_1
 62
7
100
AcDbLine
 10
125.819995
 20
97.046862
 30
0.0
 11
128.069464
 21
97.046862
 31
0.0
  0
LINE
  5
274
100
AcDbEntity
  8
Calque_1
 62
7
100
AcDbLine
 10
128.069464
 20
97.046862
 30
0.0
 11
128.069464
 21
96.742838
 31
0.0
  0
LINE
  5
275
100
AcDbEntity
  8
Calque_1
 62
7
100
AcDbLine
 10
128.069464
 20
96.742838
 30
0.0
 11
127.135204
 21
96.742838
 31
0.0
  0
LINE
  5
276
100
AcDbEntity
  8
Calque_1
 62
7
100
AcDbLine
 10
127.135204
 20
96.742838
 30
0.0
 11
127.156681
 21
94.638208
 31
0.0
  0
LINE
  5
277
100
AcDbEntity
  8
Calque_1
 62
7
100
AcDbLine
 10
127.156681
 20
94.638208
 30
0.0
 11
126.841922
 21
94.638208
 31
0.0
  0
LINE
  5
278
100
AcDbEntity
  8
Calque_1
 62
7
100
AcDbLine
 10
109.852367
 20
94.638208
 30
0.0
 11
109.852367
 21
96.742838
 31
0.0
  0
LINE
  5
279
100
AcDbEntity
  8
Calque_1
 62
7
100
AcDbLine
 10
109.852367
 20
96.742838
 30
0.0
 11
108.830443
 21
96.742838
 31
0.0
  0
LINE
  5
27a
100
AcDbEntity
  8
Calque_1
 62
7
100
AcDbLine
 10
108.830443
 20
96.742838
 30
0.0
 11
108.830443
 21
97.046862
 31
0.0
  0
LINE
  5
27b
100
AcDbEntity
  8
Calque_1
 62
7
100
AcDbLine
 10
108.830443
 20
97.046862
 30
0.0
 11
111.079912
 21
97.046862
 31
0.0
  0
LINE
  5
27c
100
AcDbEntity
  8
Calque_1
 62
7
100
AcDbLine
 10
111.079912
 20
97.046862
 30
0.0
 11
111.079912
 21
96.742838
 31
0.0
  0
LINE
  5
27d
100
AcDbEntity
  8
Calque_1
 62
7
100
AcDbLine
 10
111.079912
 20
96.742838
 30
0.0
 11
110.145641
 21
96.742838
 31
0.0
  0
LINE
  5
27e
100
AcDbEntity
  8
Calque_1
 62
7
100
AcDbLine
 10
110.145641
 20
96.742838
 30
0.0
 11
110.167118
 21
94.638208
 31
0.0
  0
LINE
  5
27f
100
AcDbEntity
  8
Calque_1
 62
7
100
AcDbLine
 10
110.167118
 20
94.638208
 30
0.0
 11
109.852367
 21
94.638208
 31
0.0
  0
LINE
  5
280
100
AcDbEntity
  8
Calque_1
 62
7
100
AcDbLine
 10
133.513387
 20
97.083879
 30
0.0
 11
135.263608
 21
97.083879
 31
0.0
  0
SPLINE
  5
281
100
AcDbEntity
  8
Calque_1
 62
7
100
AcDbSpline
 70
8
 71
3
 72
8
 73
4
 74
0
 40
0
 40
0
 40
0
 40
0
 40
1
 40
1
 40
1
 40
1
 10
135.263608
 20
97.083879
 30
0.0
 10
135.869282
 20
97.071207
 30
0.0
 10
136.124837
 20
96.199298
 30
0.0
 10
135.636528
 20
95.806400
 30
0.0
  0
SPLINE
  5
282
100
AcDbEntity
  8
Calque_1
 62
7
100
AcDbSpline
 70
8
 71
3
 72
8
 73
4
 74
0
 40
0
 40
0
 40
0
 40
0
 40
1
 40
1
 40
1
 40
1
 10
135.636528
 20
95.806400
 30
0.0
 10
135.863629
 20
95.658129
 30
0.0
 10
135.840693
 20
95.666321
 30
0.0
 10
135.856512
 20
95.331445
 30
0.0
  0
LINE
  5
283
100
AcDbEntity
  8
Calque_1
 62
7
100
AcDbLine
 10
135.856512
 20
95.331445
 30
0.0
 11
135.856520
 21
94.638208
 31
0.0
  0
LINE
  5
284
100
AcDbEntity
  8
Calque_1
 62
7
100
AcDbLine
 10
135.856520
 20
94.638208
 30
0.0
 11
135.585129
 21
94.638208
 31
0.0
  0
LINE
  5
285
100
AcDbEntity
  8
Calque_1
 62
7
100
AcDbLine
 10
135.585129
 20
94.638208
 30
0.0
 11
135.585129
 21
95.330508
 31
0.0
  0
SPLINE
  5
286
100
AcDbEntity
  8
Calque_1
 62
7
100
AcDbSpline
 70
8
 71
3
 72
8
 73
4
 74
0
 40
0
 40
0
 40
0
 40
0
 40
1
 40
1
 40
1
 40
1
 10
135.585129
 20
95.330508
 30
0.0
 10
135.591649
 20
95.575302
 30
0.0
 10
135.524285
 20
95.657138
 30
0.0
 10
135.264110
 20
95.653068
 30
0.0
  0
LINE
  5
287
100
AcDbEntity
  8
Calque_1
 62
7
100
AcDbLine
 10
135.264110
 20
95.653068
 30
0.0
 11
133.871572
 21
95.653068
 31
0.0
  0
LINE
  5
288
100
AcDbEntity
  8
Calque_1
 62
7
100
AcDbLine
 10
133.871572
 20
95.653068
 30
0.0
 11
133.871572
 21
94.638208
 31
0.0
  0
LINE
  5
289
100
AcDbEntity
  8
Calque_1
 62
7
100
AcDbLine
 10
133.871572
 20
94.638208
 30
0.0
 11
133.513415
 21
94.638208
 31
0.0
  0
LINE
  5
28a
100
AcDbEntity
  8
Calque_1
 62
7
100
AcDbLine
 10
133.513415
 20
94.638208
 30
0.0
 11
133.513387
 21
97.083879
 31
0.0
  0
SPLINE
  5
28b
100
AcDbEntity
  8
Calque_1
 62
7
100
AcDbSpline
 70
8
 71
3
 72
8
 73
4
 74
0
 40
0
 40
0
 40
0
 40
0
 40
1
 40
1
 40
1
 40
1
 10
135.264110
 20
95.903577
 30
0.0
 10
135.789204
 20
95.937656
 30
0.0
 10
135.761366
 20
96.805921
 30
0.0
 10
135.264110
 20
96.821209
 30
0.0
  0
LINE
  5
28c
100
AcDbEntity
  8
Calque_1
 62
7
100
AcDbLine
 10
135.264110
 20
96.821209
 30
0.0
 11
133.871558
 21
96.820926
 31
0.0
  0
LINE
  5
28d
100
AcDbEntity
  8
Calque_1
 62
7
100
AcDbLine
 10
133.871558
 20
96.820926
 30
0.0
 11
133.871558
 21
95.903738
 31
0.0
  0
LINE
  5
28e
100
AcDbEntity
  8
Calque_1
 62
7
100
AcDbLine
 10
133.871558
 20
95.903738
 30
0.0
 11
135.264110
 21
95.903577
 31
0.0
  0
LINE
  5
28f
100
AcDbEntity
  8
Calque_1
 62
7
100
AcDbLine
 10
106.243936
 20
94.638208
 30
0.0
 11
107.283349
 21
97.072988
 31
0.0
  0
LINE
  5
290
100
AcDbEntity
  8
Calque_1
 62
7
100
AcDbLine
 10
107.283349
 20
97.072988
 30
0.0
 11
107.669217
 21
97.072988
 31
0.0
  0
LINE
  5
291
100
AcDbEntity
  8
Calque_1
 62
7
100
AcDbLine
 10
107.669217
 20
97.072988
 30
0.0
 11
108.776948
 21
94.638208
 31
0.0
  0
LINE
  5
292
100
AcDbEntity
  8
Calque_1
 62
7
100
AcDbLine
 10
108.776948
 20
94.638208
 30
0.0
 11
108.497833
 21
94.638208
 31
0.0
  0
LINE
  5
293
100
AcDbEntity
  8
Calque_1
 62
7
100
AcDbLine
 10
108.497833
 20
94.638208
 30
0.0
 11
108.216511
 21
95.254009
 31
0.0
  0
LINE
  5
294
100
AcDbEntity
  8
Calque_1
 62
7
100
AcDbLine
 10
108.216511
 20
95.254009
 30
0.0
 11
106.801192
 21
95.254009
 31
0.0
  0
LINE
  5
295
100
AcDbEntity
  8
Calque_1
 62
7
100
AcDbLine
 10
106.801192
 20
95.254009
 30
0.0
 11
106.525438
 21
94.637325
 31
0.0
  0
LINE
  5
296
100
AcDbEntity
  8
Calque_1
 62
7
100
AcDbLine
 10
106.525438
 20
94.637325
 30
0.0
 11
106.243936
 21
94.638208
 31
0.0
  0
LINE
  5
297
100
AcDbEntity
  8
Calque_1
 62
7
100
AcDbLine
 10
106.921763
 20
95.516512
 30
0.0
 11
108.088546
 21
95.516512
 31
0.0
  0
LINE
  5
298
100
AcDbEntity
  8
Calque_1
 62
7
100
AcDbLine
 10
108.088546
 20
95.516512
 30
0.0
 11
107.485169
 21
96.788705
 31
0.0
  0
LINE
  5
299
100
AcDbEntity
  8
Calque_1
 62
7
100
AcDbLine
 10
107.485169
 20
96.788705
 30
0.0
 11
106.921763
 21
95.516512
 31
0.0
  0
LINE
  5
29a
100
AcDbEntity
  8
Calque_1
 62
7
100
AcDbLine
 10
123.313718
 20
94.638208
 30
0.0
 11
124.353137
 21
97.072988
 31
0.0
  0
LINE
  5
29b
100
AcDbEntity
  8
Calque_1
 62
7
100
AcDbLine
 10
124.353137
 20
97.072988
 30
0.0
 11
124.738999
 21
97.072988
 31
0.0
  0
LINE
  5
29c
100
AcDbEntity
  8
Calque_1
 62
7
100
AcDbLine
 10
124.738999
 20
97.072988
 30
0.0
 11
125.846724
 21
94.638208
 31
0.0
  0
LINE
  5
29d
100
AcDbEntity
  8
Calque_1
 62
7
100
AcDbLine
 10
125.846724
 20
94.638208
 30
0.0
 11
125.567621
 21
94.638208
 31
0.0
  0
LINE
  5
29e
100
AcDbEntity
  8
Calque_1
 62
7
100
AcDbLine
 10
125.567621
 20
94.638208
 30
0.0
 11
125.286293
 21
95.254009
 31
0.0
  0
LINE
  5
29f
100
AcDbEntity
  8
Calque_1
 62
7
100
AcDbLine
 10
125.286293
 20
95.254009
 30
0.0
 11
123.870980
 21
95.254009
 31
0.0
  0
LINE
  5
2a0
100
AcDbEntity
  8
Calque_1
 62
7
100
AcDbLine
 10
123.870980
 20
95.254009
 30
0.0
 11
123.595226
 21
94.637325
 31
0.0
  0
LINE
  5
2a1
100
AcDbEntity
  8
Calque_1
 62
7
100
AcDbLine
 10
123.595226
 20
94.637325
 30
0.0
 11
123.313718
 21
94.638208
 31
0.0
  0
LINE
  5
2a2
100
AcDbEntity
  8
Calque_1
 62
7
100
AcDbLine
 10
123.991548
 20
95.516512
 30
0.0
 11
125.158325
 21
95.516512
 31
0.0
  0
LINE
  5
2a3
100
AcDbEntity
  8
Calque_1
 62
7
100
AcDbLine
 10
125.158325
 20
95.516512
 30
0.0
 11
124.554951
 21
96.788705
 31
0.0
  0
LINE
  5
2a4
100
AcDbEntity
  8
Calque_1
 62
7
100
AcDbLine
 10
124.554951
 20
96.788705
 30
0.0
 11
123.991548
 21
95.516512
 31
0.0
  0
LINE
  5
2a5
100
AcDbEntity
  8
Calque_1
 62
7
100
AcDbLine
 10
94.803982
 20
97.072161
 30
0.0
 11
95.089297
 21
97.072161
 31
0.0
  0
LINE
  5
2a6
100
AcDbEntity
  8
Calque_1
 62
7
100
AcDbLine
 10
95.089297
 20
97.072161
 30
0.0
 11
95.089297
 21
95.275734
 31
0.0
  0
SPLINE
  5
2a7
100
AcDbEntity
  8
Calque_1
 62
7
100
AcDbSpline
 70
8
 71
3
 72
8
 73
4
 74
0
 40
0
 40
0
 40
0
 40
0
 40
1
 40
1
 40
1
 40
1
 10
95.089297
 20
95.275734
 30
0.0
 10
95.090144
 20
95.110028
 30
0.0
 10
95.132251
 20
94.971047
 30
0.0
 10
95.393126
 20
94.938490
 30
0.0
  0
LINE
  5
2a8
100
AcDbEntity
  8
Calque_1
 62
7
100
AcDbLine
 10
95.393126
 20
94.938490
 30
0.0
 11
96.811956
 21
94.938490
 31
0.0
  0
SPLINE
  5
2a9
100
AcDbEntity
  8
Calque_1
 62
7
100
AcDbSpline
 70
8
 71
3
 72
8
 73
4
 74
0
 40
0
 40
0
 40
0
 40
0
 40
1
 40
1
 40
1
 40
1
 10
96.811956
 20
94.938490
 30
0.0
 10
97.032755
 20
94.949469
 30
0.0
 10
97.105828
 20
95.147148
 30
0.0
 10
97.115777
 20
95.275734
 30
0.0
  0
LINE
  5
2aa
100
AcDbEntity
  8
Calque_1
 62
7
100
AcDbLine
 10
97.115777
 20
95.275734
 30
0.0
 11
97.115777
 21
97.072161
 31
0.0
  0
LINE
  5
2ab
100
AcDbEntity
  8
Calque_1
 62
7
100
AcDbLine
 10
97.115777
 20
97.072161
 30
0.0
 11
97.416552
 21
97.072161
 31
0.0
  0
LINE
  5
2ac
100
AcDbEntity
  8
Calque_1
 62
7
100
AcDbLine
 10
97.416552
 20
97.072161
 30
0.0
 11
97.416552
 21
95.260554
 31
0.0
  0
SPLINE
  5
2ad
100
AcDbEntity
  8
Calque_1
 62
7
100
AcDbSpline
 70
8
 71
3
 72
8
 73
4
 74
0
 40
0
 40
0
 40
0
 40
0
 40
1
 40
1
 40
1
 40
1
 10
97.416552
 20
95.260554
 30
0.0
 10
97.408227
 20
94.957743
 30
0.0
 10
97.288581
 20
94.627535
 30
0.0
 10
96.846892
 20
94.638208
 30
0.0
  0
LINE
  5
2ae
100
AcDbEntity
  8
Calque_1
 62
7
100
AcDbLine
 10
96.846892
 20
94.638208
 30
0.0
 11
95.441733
 21
94.638208
 31
0.0
  0
SPLINE
  5
2af
100
AcDbEntity
  8
Calque_1
 62
7
100
AcDbSpline
 70
8
 71
3
 72
8
 73
4
 74
0
 40
0
 40
0
 40
0
 40
0
 40
1
 40
1
 40
1
 40
1
 10
95.441733
 20
94.638208
 30
0.0
 10
95.029488
 20
94.632705
 30
0.0
 10
94.843953
 20
94.873539
 30
0.0
 10
94.803982
 20
95.266988
 30
0.0
  0
LINE
  5
2b0
100
AcDbEntity
  8
Calque_1
 62
7
100
AcDbLine
 10
94.803982
 20
95.266988
 30
0.0
 11
94.803982
 21
97.072161
 31
0.0
  0
LINE
  5
2b1
100
AcDbEntity
  8
Calque_1
 62
7
100
AcDbLine
 10
136.156220
 20
94.638208
 30
0.0
 11
136.130397
 21
97.083879
 31
0.0
  0
LINE
  5
2b2
100
AcDbEntity
  8
Calque_1
 62
7
100
AcDbLine
 10
136.130397
 20
97.083879
 30
0.0
 11
136.699563
 21
97.083879
 31
0.0
  0
LINE
  5
2b3
100
AcDbEntity
  8
Calque_1
 62
7
100
AcDbLine
 10
136.699563
 20
97.083879
 30
0.0
 11
137.761605
 21
95.085223
 31
0.0
  0
LINE
  5
2b4
100
AcDbEntity
  8
Calque_1
 62
7
100
AcDbLine
 10
137.761605
 20
95.085223
 30
0.0
 11
138.820031
 21
97.083879
 31
0.0
  0
LINE
  5
2b5
100
AcDbEntity
  8
Calque_1
 62
7
100
AcDbLine
 10
138.820031
 20
97.083879
 30
0.0
 11
139.310483
 21
97.083879
 31
0.0
  0
LINE
  5
2b6
100
AcDbEntity
  8
Calque_1
 62
7
100
AcDbLine
 10
139.310483
 20
97.083879
 30
0.0
 11
139.310483
 21
94.638208
 31
0.0
  0
LINE
  5
2b7
100
AcDbEntity
  8
Calque_1
 62
7
100
AcDbLine
 10
139.310483
 20
94.638208
 30
0.0
 11
139.016802
 21
94.638208
 31
0.0
  0
LINE
  5
2b8
100
AcDbEntity
  8
Calque_1
 62
7
100
AcDbLine
 10
139.016802
 20
94.638208
 30
0.0
 11
139.016802
 21
96.801961
 31
0.0
  0
LINE
  5
2b9
100
AcDbEntity
  8
Calque_1
 62
7
100
AcDbLine
 10
139.016802
 20
96.801961
 30
0.0
 11
137.856505
 21
94.638208
 31
0.0
  0
LINE
  5
2ba
100
AcDbEntity
  8
Calque_1
 62
7
100
AcDbLine
 10
137.856505
 20
94.638208
 30
0.0
 11
137.645120
 21
94.638208
 31
0.0
  0
LINE
  5
2bb
100
AcDbEntity
  8
Calque_1
 62
7
100
AcDbLine
 10
137.645120
 20
94.638208
 30
0.0
 11
136.449850
 21
96.900894
 31
0.0
  0
LINE
  5
2bc
100
AcDbEntity
  8
Calque_1
 62
7
100
AcDbLine
 10
136.449850
 20
96.900894
 30
0.0
 11
136.449850
 21
94.638208
 31
0.0
  0
LINE
  5
2bd
100
AcDbEntity
  8
Calque_1
 62
7
100
AcDbLine
 10
136.449850
 20
94.638208
 30
0.0
 11
136.156220
 21
94.638208
 31
0.0
  0
LINE
  5
2be
100
AcDbEntity
  8
Calque_1
 62
1
100
AcDbLine
 10
115.036369
 20
10.100001
 30
0.0
 11
55.063370
 21
10.100001
 31
0.0
  0
LINE
  5
2bf
100
AcDbEntity
  8
Calque_1
 62
1
100
AcDbLine
 10
55.063370
 20
10.100001
 30
0.0
 11
52.564369
 21
38.002860
 31
0.0
  0
SPLINE
  5
2c0
100
AcDbEntity
  8
Calque_1
 62
1
100
AcDbSpline
 70
8
 71
3
 72
8
 73
4
 74
0
 40
0
 40
0
 40
0
 40
0
 40
1
 40
1
 40
1
 40
1
 10
52.564369
 20
38.002860
 30
0.0
 10
26.807755
 20
49.862713
 30
0.0
 10
10.100000
 20
76.056407
 30
0.0
 10
10.100000
 20
106.277860
 30
0.0
  0
SPLINE
  5
2c1
100
AcDbEntity
  8
Calque_1
 62
1
100
AcDbSpline
 70
8
 71
3
 72
8
 73
4
 74
0
 40
0
 40
0
 40
0
 40
0
 40
1
 40
1
 40
1
 40
1
 10
10.100000
 20
106.277860
 30
0.0
 10
10.100003
 20
147.671599
 30
0.0
 10
43.656258
 20
181.227858
 30
0.0
 10
85.049998
 20
181.227858
 30
0.0
  0
SPLINE
  5
2c2
100
AcDbEntity
  8
Calque_1
 62
1
100
AcDbSpline
 70
8
 71
3
 72
8
 73
4
 74
0
 40
0
 40
0
 40
0
 40
0
 40
1
 40
1
 40
1
 40
1
 10
85.049998
 20
181.227858
 30
0.0
 10
126.443743
 20
181.227861
 30
0.0
 10
159.812908
 20
147.484514
 30
0.0
 10
159.812911
 20
106.090772
 30
0.0
  0
SPLINE
  5
2c3
100
AcDbEntity
  8
Calque_1
 62
1
100
AcDbSpline
 70
8
 71
3
 72
8
 73
4
 74
0
 40
0
 40
0
 40
0
 40
0
 40
1
 40
1
 40
1
 40
1
 10
159.812911
 20
106.090772
 30
0.0
 10
159.812911
 20
75.923170
 30
0.0
 10
143.250615
 20
49.918424
 30
0.0
 10
117.535370
 20
38.016040
 30
0.0
  0
LINE
  5
2c4
100
AcDbEntity
  8
Calque_1
 62
1
100
AcDbLine
 10
117.535370
 20
38.016040
 30
0.0
 11
115.036369
 21
10.100001
 31
0.0
  0
ENDSEC
  0
SECTION
  2
OBJECTS
  0
DICTIONARY
  5
C
330
0
100
AcDbDictionary
  3
ACAD_GROUP
350
D
  3
ACAD_MLINESTYLE
350
17
  0
DICTIONARY
  5
D
330
C
100
AcDbDictionary
  0
DICTIONARY
  5
1A
330
C
100
AcDbDictionary
  0
DICTIONARY
  5
17
330
C
100
AcDbDictionary
  3
STANDARD
350
18
  0
DICTIONARY
  5
19
330
C
100
AcDbDictionary
  0
ENDSEC
  0
EOF
