  0
SECTION
  2
HEADER
  9
$ACADVER
  1
AC1014
  9
$HANDSEED
  5
FFFF
  9
$MEASUREMENT
 70
     1
  0
ENDSEC
  0
SECTION
  2
TABLES
  0
TABLE
  2
VPORT
  5
8
330
0
100
AcDbSymbolTable
 70
     4
  0
VPORT
  5
2E
330
8
100
AcDbSymbolTableRecord
100
AcDbViewportTableRecord
  2
*ACTIVE
 70
     0
 10
0.0
 20
0.0
 11
1.0
 21
1.0
 12
210.0
 22
148.5
 13
0.0
 23
0.0
 14
10.0
 24
10.0
 15
10.0
 25
10.0
 16
0.0
 26
0.0
 36
1.0
 17
0.0
 27
0.0
 37
0.0
 40
341.0
 41
1.24
 42
50.0
 43
0.0
 44
0.0
 50
0.0
 51
0.0
 71
     0
 72
   100
 73
     1
 74
     3
 75
     0
 76
     0
 77
     0
 78
     0
  0
ENDTAB
  0
TABLE
  2
LTYPE
  5
5
330
0
100
AcDbSymbolTable
 70
     1
  0
LTYPE
  5
14
330
5
100
AcDbSymbolTableRecord
100
AcDbLinetypeTableRecord
  2
BYBLOCK
 70
     0
  3

 72
    65
 73
     0
 40
0.0
  0
LTYPE
  5
15
330
5
100
AcDbSymbolTableRecord
100
AcDbLinetypeTableRecord
  2
BYLAYER
 70
     0
  3

 72
    65
 73
     0
 40
0.0
  0
LTYPE
  5
16
330
5
100
AcDbSymbolTableRecord
100
AcDbLinetypeTableRecord
  2
CONTINUOUS
 70
     0
  3
Solid line
 72
    65
 73
     0
 40
0.0
  0
ENDTAB
  0
TABLE
  2
LAYER
  5
2
100
AcDbSymbolTable
 70
1
  0
LAYER
  5
50
100
AcDbSymbolTableRecord
100
AcDbLayerTableRecord
  2
0
 70
0
  6
CONTINUOUS
  0
ENDTAB
  0
TABLE
  2
STYLE
  5
3
330
0
100
AcDbSymbolTable
 70
     1
  0
STYLE
  5
11
330
3
100
AcDbSymbolTableRecord
100
AcDbTextStyleTableRecord
  2
STANDARD
 70
     0
 40
0.0
 41
1.0
 50
0.0
 71
     0
 42
2.5
  3
txt
  4

  0
ENDTAB
  0
TABLE
  2
VIEW
  5
6
330
0
100
AcDbSymbolTable
 70
     0
  0
ENDTAB
  0
TABLE
  2
UCS
  5
7
330
0
100
AcDbSymbolTable
 70
     0
  0
ENDTAB
  0
TABLE
  2
APPID
  5
9
330
0
100
AcDbSymbolTable
 70
     2
  0
APPID
  5
12
330
9
100
AcDbSymbolTableRecord
100
AcDbRegAppTableRecord
  2
ACAD
 70
     0
  0
ENDTAB
  0
TABLE
  2
DIMSTYLE
  5
A
330
0
100
AcDbSymbolTable
 70
     1
  0
DIMSTYLE
105
27
330
A
100
AcDbSymbolTableRecord
100
AcDbDimStyleTableRecord
  2
ISO-25
 70
     0
  3

  4

  5

  6

  7

 40
1.0
 41
2.5
 42
0.625
 43
3.75
 44
1.25
 45
0.0
 46
0.0
 47
0.0
 48
0.0
140
2.5
141
2.5
142
0.0
143
0.03937007874016
144
1.0
145
0.0
146
1.0
147
0.625
 71
     0
 72
     0
 73
     0
 74
     0
 75
     0
 76
     0
 77
     1
 78
     8
170
     0
171
     3
172
     1
173
     0
174
     0
175
     0
176
     0
177
     0
178
     0
270
     2
271
     2
272
     2
273
     2
274
     3
340
11
275
     0
280
     0
281
     0
282
     0
283
     0
284
     8
285
     0
286
     0
287
     3
288
     0
  0
ENDTAB
  0
TABLE
  2
BLOCK_RECORD
  5
1
330
0
100
AcDbSymbolTable
 70
     1
  0
BLOCK_RECORD
  5
1F
330
1
100
AcDbSymbolTableRecord
100
AcDbBlockTableRecord
  2
*MODEL_SPACE
  0
BLOCK_RECORD
  5
1B
330
1
100
AcDbSymbolTableRecord
100
AcDbBlockTableRecord
  2
*PAPER_SPACE
  0
ENDTAB
  0
ENDSEC
  0
SECTION
  2
BLOCKS
  0
BLOCK
  5
20
330
1F
100
AcDbEntity
  8
0
100
AcDbBlockBegin
  2
*MODEL_SPACE
 70
     0
 10
0.0
 20
0.0
 30
0.0
  3
*MODEL_SPACE
  1

  0
ENDBLK
  5
21
330
1F
100
AcDbEntity
  8
0
100
AcDbBlockEnd
  0
BLOCK
  5
1C
330
1B
100
AcDbEntity
 67
     1
  8
0
100
AcDbBlockBegin
  2
*PAPER_SPACE
  1

  0
ENDBLK
  5
1D
330
1B
100
AcDbEntity
 67
     1
  8
0
100
AcDbBlockEnd
  0
ENDSEC
  0
SECTION
  2
ENTITIES
  0
LINE
  5
100
100
AcDbEntity
  8
0
 62
1
100
AcDbLine
 10
122.713665
 20
42.305889
 30
0.0
 11
120.214664
 21
14.389841
 31
0.0
  0
LINE
  5
101
100
AcDbEntity
  8
0
 62
1
100
AcDbLine
 10
120.214664
 20
14.389841
 30
0.0
 11
60.241657
 21
14.389841
 31
0.0
  0
LINE
  5
102
100
AcDbEntity
  8
0
 62
1
100
AcDbLine
 10
60.241657
 20
14.389841
 30
0.0
 11
57.742655
 21
42.292703
 31
0.0
  0
LINE
  5
103
100
AcDbEntity
  8
0
 62
1
100
AcDbLine
 10
57.742655
 20
42.292703
 30
0.0
 11
22.553621
 21
80.723781
 31
0.0
  0
LINE
  5
104
100
AcDbEntity
  8
0
 62
1
100
AcDbLine
 10
22.553621
 20
80.723781
 30
0.0
 11
22.616977
 21
157.951993
 31
0.0
  0
LINE
  5
105
100
AcDbEntity
  8
0
 62
1
100
AcDbLine
 10
22.616977
 20
157.951993
 30
0.0
 11
90.158965
 21
196.604228
 31
0.0
  0
LINE
  5
106
100
AcDbEntity
  8
0
 62
1
100
AcDbLine
 10
90.158965
 20
196.604228
 30
0.0
 11
152.557576
 21
160.889980
 31
0.0
  0
LINE
  5
107
100
AcDbEntity
  8
0
 62
1
100
AcDbLine
 10
152.557576
 20
160.889980
 30
0.0
 11
152.675378
 21
160.822540
 31
0.0
  0
LINE
  5
108
100
AcDbEntity
  8
0
 62
1
100
AcDbLine
 10
152.675378
 20
160.822540
 30
0.0
 11
157.677355
 21
157.959627
 31
0.0
  0
LINE
  5
109
100
AcDbEntity
  8
0
 62
1
100
AcDbLine
 10
157.677355
 20
157.959627
 30
0.0
 11
157.671118
 21
80.735996
 31
0.0
  0
LINE
  5
10a
100
AcDbEntity
  8
0
 62
1
100
AcDbLine
 10
157.671118
 20
80.735996
 30
0.0
 11
122.713665
 21
42.305889
 31
0.0
  0
SPLINE
  5
10b
100
AcDbEntity
  8
0
 62
4
100
AcDbSpline
 70
8
 71
3
 72
8
 73
4
 74
0
 40
0
 40
0
 40
0
 40
0
 40
1
 40
1
 40
1
 40
1
 10
89.564431
 20
133.735771
 30
0.0
 10
88.276290
 20
133.735771
 30
0.0
 10
87.232047
 20
132.701502
 30
0.0
 10
87.232047
 20
131.425675
 30
0.0
  0
LINE
  5
10c
100
AcDbEntity
  8
0
 62
4
100
AcDbLine
 10
87.232047
 20
131.425675
 30
0.0
 11
86.771436
 21
131.423609
 31
0.0
  0
SPLINE
  5
10d
100
AcDbEntity
  8
0
 62
4
100
AcDbSpline
 70
8
 71
3
 72
8
 73
4
 74
0
 40
0
 40
0
 40
0
 40
0
 40
1
 40
1
 40
1
 40
1
 10
86.771436
 20
131.423609
 30
0.0
 10
86.771436
 20
132.951396
 30
0.0
 10
88.021908
 20
134.189916
 30
0.0
 10
89.564431
 20
134.189916
 30
0.0
  0
SPLINE
  5
10e
100
AcDbEntity
  8
0
 62
4
100
AcDbSpline
 70
8
 71
3
 72
8
 73
4
 74
0
 40
0
 40
0
 40
0
 40
0
 40
1
 40
1
 40
1
 40
1
 10
89.564431
 20
134.189916
 30
0.0
 10
90.393566
 20
134.189916
 30
0.0
 10
91.138321
 20
133.832073
 30
0.0
 10
91.675178
 20
133.261287
 30
0.0
  0
LINE
  5
10f
100
AcDbEntity
  8
0
 62
4
100
AcDbLine
 10
91.675178
 20
133.261287
 30
0.0
 11
91.721973
 21
134.190494
 31
0.0
  0
LINE
  5
110
100
AcDbEntity
  8
0
 62
4
100
AcDbLine
 10
91.721973
 20
134.190494
 30
0.0
 11
92.102801
 21
134.204698
 31
0.0
  0
LINE
  5
111
100
AcDbEntity
  8
0
 62
4
100
AcDbLine
 10
92.102801
 20
134.204698
 30
0.0
 11
92.009339
 21
132.517674
 31
0.0
  0
LINE
  5
112
100
AcDbEntity
  8
0
 62
4
100
AcDbLine
 10
92.009339
 20
132.517674
 30
0.0
 11
90.253135
 21
132.352037
 31
0.0
  0
LINE
  5
113
100
AcDbEntity
  8
0
 62
4
100
AcDbLine
 10
90.253135
 20
132.352037
 30
0.0
 11
90.198230
 21
132.751566
 31
0.0
  0
LINE
  5
114
100
AcDbEntity
  8
0
 62
4
100
AcDbLine
 10
90.198230
 20
132.751566
 30
0.0
 11
91.367415
 21
132.859624
 31
0.0
  0
SPLINE
  5
115
100
AcDbEntity
  8
0
 62
4
100
AcDbSpline
 70
8
 71
3
 72
8
 73
4
 74
0
 40
0
 40
0
 40
0
 40
0
 40
1
 40
1
 40
1
 40
1
 10
91.367415
 20
132.859624
 30
0.0
 10
90.965954
 20
133.393408
 30
0.0
 10
90.305565
 20
133.735771
 30
0.0
 10
89.564446
 20
133.735771
 30
0.0
  0
LINE
  5
116
100
AcDbEntity
  8
0
 62
4
100
AcDbLine
 10
89.564446
 20
133.735771
 30
0.0
 11
89.564431
 21
133.735771
 31
0.0
  0
LINE
  5
117
100
AcDbEntity
  8
0
 62
4
100
AcDbLine
 10
88.838141
 20
130.202278
 30
0.0
 11
88.783237
 21
130.601808
 31
0.0
  0
LINE
  5
118
100
AcDbEntity
  8
0
 62
4
100
AcDbLine
 10
88.783237
 20
130.601808
 30
0.0
 11
87.027032
 21
130.436171
 31
0.0
  0
LINE
  5
119
100
AcDbEntity
  8
0
 62
4
100
AcDbLine
 10
87.027032
 20
130.436171
 30
0.0
 11
86.933571
 21
128.749146
 31
0.0
  0
LINE
  5
11a
100
AcDbEntity
  8
0
 62
4
100
AcDbLine
 10
86.933571
 20
128.749146
 30
0.0
 11
87.314399
 21
128.763350
 31
0.0
  0
LINE
  5
11b
100
AcDbEntity
  8
0
 62
4
100
AcDbLine
 10
87.314399
 20
128.763350
 30
0.0
 11
87.354014
 21
129.722215
 31
0.0
  0
SPLINE
  5
11c
100
AcDbEntity
  8
0
 62
4
100
AcDbSpline
 70
8
 71
3
 72
8
 73
4
 74
0
 40
0
 40
0
 40
0
 40
0
 40
1
 40
1
 40
1
 40
1
 10
87.354014
 20
129.722215
 30
0.0
 10
87.859752
 20
129.080720
 30
0.0
 10
88.662128
 20
128.656925
 30
0.0
 10
89.564441
 20
128.656925
 30
0.0
  0
SPLINE
  5
11d
100
AcDbEntity
  8
0
 62
4
100
AcDbSpline
 70
8
 71
3
 72
8
 73
4
 74
0
 40
0
 40
0
 40
0
 40
0
 40
1
 40
1
 40
1
 40
1
 10
89.564441
 20
128.656925
 30
0.0
 10
91.106969
 20
128.656925
 30
0.0
 10
92.357431
 20
129.895445
 30
0.0
 10
92.357431
 20
131.423237
 30
0.0
  0
LINE
  5
11e
100
AcDbEntity
  8
0
 62
4
100
AcDbLine
 10
92.357431
 20
131.423237
 30
0.0
 11
91.896814
 21
131.425303
 31
0.0
  0
SPLINE
  5
11f
100
AcDbEntity
  8
0
 62
4
100
AcDbSpline
 70
8
 71
3
 72
8
 73
4
 74
0
 40
0
 40
0
 40
0
 40
0
 40
1
 40
1
 40
1
 40
1
 10
91.896814
 20
131.425303
 30
0.0
 10
91.896814
 20
130.149471
 30
0.0
 10
90.852577
 20
129.115201
 30
0.0
 10
89.564441
 20
129.115201
 30
0.0
  0
SPLINE
  5
120
100
AcDbEntity
  8
0
 62
4
100
AcDbSpline
 70
8
 71
3
 72
8
 73
4
 74
0
 40
0
 40
0
 40
0
 40
0
 40
1
 40
1
 40
1
 40
1
 10
89.564441
 20
129.115201
 30
0.0
 10
88.794538
 20
129.115201
 30
0.0
 10
88.111759
 20
129.484671
 30
0.0
 10
87.695587
 20
130.071066
 30
0.0
  0
LINE
  5
121
100
AcDbEntity
  8
0
 62
4
100
AcDbLine
 10
87.695587
 20
130.071066
 30
0.0
 11
88.838141
 21
130.202278
 31
0.0
  0
LINE
  5
122
100
AcDbEntity
  8
0
 62
3
100
AcDbLine
 10
90.932319
 20
88.929878
 30
0.0
 11
91.386660
 21
88.433663
 31
0.0
  0
SPLINE
  5
123
100
AcDbEntity
  8
0
 62
3
100
AcDbSpline
 70
8
 71
3
 72
8
 73
4
 74
0
 40
0
 40
0
 40
0
 40
0
 40
1
 40
1
 40
1
 40
1
 10
91.386660
 20
88.433663
 30
0.0
 10
90.159109
 20
87.330476
 30
0.0
 10
89.136104
 20
86.737274
 30
0.0
 10
87.511326
 20
86.759055
 30
0.0
  0
SPLINE
  5
124
100
AcDbEntity
  8
0
 62
3
100
AcDbSpline
 70
8
 71
3
 72
8
 73
4
 74
0
 40
0
 40
0
 40
0
 40
0
 40
1
 40
1
 40
1
 40
1
 10
87.511326
 20
86.759055
 30
0.0
 10
84.782225
 20
86.795646
 30
0.0
 10
82.425190
 20
88.984183
 30
0.0
 10
82.438308
 20
91.832068
 30
0.0
  0
SPLINE
  5
125
100
AcDbEntity
  8
0
 62
3
100
AcDbSpline
 70
8
 71
3
 72
8
 73
4
 74
0
 40
0
 40
0
 40
0
 40
0
 40
1
 40
1
 40
1
 40
1
 10
82.438308
 20
91.832068
 30
0.0
 10
82.451121
 20
94.607258
 30
0.0
 10
84.777179
 20
97.052662
 30
0.0
 10
87.511326
 20
97.033861
 30
0.0
  0
SPLINE
  5
126
100
AcDbEntity
  8
0
 62
3
100
AcDbSpline
 70
8
 71
3
 72
8
 73
4
 74
0
 40
0
 40
0
 40
0
 40
0
 40
1
 40
1
 40
1
 40
1
 10
87.511326
 20
97.033861
 30
0.0
 10
89.108043
 20
97.022854
 30
0.0
 10
90.352002
 20
96.385991
 30
0.0
 10
91.366552
 20
95.295589
 30
0.0
  0
LINE
  5
127
100
AcDbEntity
  8
0
 62
3
100
AcDbLine
 10
91.366552
 20
95.295589
 30
0.0
 11
90.343428
 21
94.246837
 31
0.0
  0
SPLINE
  5
128
100
AcDbEntity
  8
0
 62
3
100
AcDbSpline
 70
8
 71
3
 72
8
 73
4
 74
0
 40
0
 40
0
 40
0
 40
0
 40
1
 40
1
 40
1
 40
1
 10
90.343428
 20
94.246837
 30
0.0
 10
89.789048
 20
95.118842
 30
0.0
 10
88.620682
 20
95.520102
 30
0.0
 10
87.511320
 20
95.552538
 30
0.0
  0
SPLINE
  5
129
100
AcDbEntity
  8
0
 62
3
100
AcDbSpline
 70
8
 71
3
 72
8
 73
4
 74
0
 40
0
 40
0
 40
0
 40
0
 40
1
 40
1
 40
1
 40
1
 10
87.511320
 20
95.552538
 30
0.0
 10
85.380686
 20
95.614825
 30
0.0
 10
83.874410
 20
93.579966
 30
0.0
 10
83.903541
 20
91.832068
 30
0.0
  0
SPLINE
  5
12a
100
AcDbEntity
  8
0
 62
3
100
AcDbSpline
 70
8
 71
3
 72
8
 73
4
 74
0
 40
0
 40
0
 40
0
 40
0
 40
1
 40
1
 40
1
 40
1
 10
83.903541
 20
91.832068
 30
0.0
 10
83.936185
 20
89.872142
 30
0.0
 10
85.688303
 20
88.259083
 30
0.0
 10
87.511320
 20
88.272579
 30
0.0
  0
SPLINE
  5
12b
100
AcDbEntity
  8
0
 62
3
100
AcDbSpline
 70
8
 71
3
 72
8
 73
4
 74
0
 40
0
 40
0
 40
0
 40
0
 40
1
 40
1
 40
1
 40
1
 10
87.511320
 20
88.272579
 30
0.0
 10
88.707270
 20
88.281441
 30
0.0
 10
89.796459
 20
88.707647
 30
0.0
 10
90.354249
 20
89.561223
 30
0.0
  0
LINE
  5
12c
100
AcDbEntity
  8
0
 62
3
100
AcDbLine
 10
90.354249
 20
89.561223
 30
0.0
 11
90.894752
 21
88.970907
 31
0.0
  0
LINE
  5
12d
100
AcDbEntity
  8
0
 62
3
100
AcDbLine
 10
90.894752
 20
88.970907
 30
0.0
 11
90.932319
 21
88.929878
 31
0.0
  0
LINE
  5
12e
100
AcDbEntity
  8
0
 62
3
100
AcDbLine
 10
91.464404
 20
89.438228
 30
0.0
 11
90.275577
 21
90.672264
 31
0.0
  0
SPLINE
  5
12f
100
AcDbEntity
  8
0
 62
3
100
AcDbSpline
 70
8
 71
3
 72
8
 73
4
 74
0
 40
0
 40
0
 40
0
 40
0
 40
1
 40
1
 40
1
 40
1
 10
90.275577
 20
90.672264
 30
0.0
 10
89.801991
 20
89.717557
 30
0.0
 10
88.848895
 20
89.063603
 30
0.0
 10
87.513137
 20
88.965054
 30
0.0
  0
SPLINE
  5
130
100
AcDbEntity
  8
0
 62
3
100
AcDbSpline
 70
8
 71
3
 72
8
 73
4
 74
0
 40
0
 40
0
 40
0
 40
0
 40
1
 40
1
 40
1
 40
1
 10
87.513137
 20
88.965054
 30
0.0
 10
86.142898
 20
88.863965
 30
0.0
 10
84.634093
 20
90.182871
 30
0.0
 10
84.662004
 20
91.735703
 30
0.0
  0
SPLINE
  5
131
100
AcDbEntity
  8
0
 62
3
100
AcDbSpline
 70
8
 71
3
 72
8
 73
4
 74
0
 40
0
 40
0
 40
0
 40
0
 40
1
 40
1
 40
1
 40
1
 10
84.662004
 20
91.735703
 30
0.0
 10
84.692685
 20
93.442137
 30
0.0
 10
85.979663
 20
94.797938
 30
0.0
 10
87.545336
 20
94.812221
 30
0.0
  0
SPLINE
  5
132
100
AcDbEntity
  8
0
 62
3
100
AcDbSpline
 70
8
 71
3
 72
8
 73
4
 74
0
 40
0
 40
0
 40
0
 40
0
 40
1
 40
1
 40
1
 40
1
 10
87.545336
 20
94.812221
 30
0.0
 10
88.987729
 20
94.825401
 30
0.0
 10
89.780545
 20
93.962538
 30
0.0
 10
90.280854
 20
93.104052
 30
0.0
  0
LINE
  5
133
100
AcDbEntity
  8
0
 62
3
100
AcDbLine
 10
90.280854
 20
93.104052
 30
0.0
 11
92.366496
 21
95.247518
 31
0.0
  0
SPLINE
  5
134
100
AcDbEntity
  8
0
 62
3
100
AcDbSpline
 70
8
 71
3
 72
8
 73
4
 74
0
 40
0
 40
0
 40
0
 40
0
 40
1
 40
1
 40
1
 40
1
 10
92.366496
 20
95.247518
 30
0.0
 10
91.286892
 20
96.798863
 30
0.0
 10
89.352902
 20
97.762671
 30
0.0
 10
87.400452
 20
97.710237
 30
0.0
  0
SPLINE
  5
135
100
AcDbEntity
  8
0
 62
3
100
AcDbSpline
 70
8
 71
3
 72
8
 73
4
 74
0
 40
0
 40
0
 40
0
 40
0
 40
1
 40
1
 40
1
 40
1
 10
87.400452
 20
97.710237
 30
0.0
 10
83.680867
 20
97.610339
 30
0.0
 10
81.642080
 20
94.737825
 30
0.0
 10
81.747879
 20
91.494222
 30
0.0
  0
SPLINE
  5
136
100
AcDbEntity
  8
0
 62
3
100
AcDbSpline
 70
8
 71
3
 72
8
 73
4
 74
0
 40
0
 40
0
 40
0
 40
0
 40
1
 40
1
 40
1
 40
1
 10
81.747879
 20
91.494222
 30
0.0
 10
81.847095
 20
88.452572
 30
0.0
 10
84.655304
 20
86.107204
 30
0.0
 10
87.384354
 20
86.067035
 30
0.0
  0
SPLINE
  5
137
100
AcDbEntity
  8
0
 62
3
100
AcDbSpline
 70
8
 71
3
 72
8
 73
4
 74
0
 40
0
 40
0
 40
0
 40
0
 40
1
 40
1
 40
1
 40
1
 10
87.384354
 20
86.067035
 30
0.0
 10
89.958960
 20
86.029138
 30
0.0
 10
91.384433
 20
87.250210
 30
0.0
 10
92.354403
 20
88.514385
 30
0.0
  0
LINE
  5
138
100
AcDbEntity
  8
0
 62
3
100
AcDbLine
 10
92.354403
 20
88.514385
 30
0.0
 11
91.515771
 21
89.384910
 31
0.0
  0
LINE
  5
139
100
AcDbEntity
  8
0
 62
3
100
AcDbLine
 10
91.515771
 20
89.384910
 30
0.0
 11
91.464404
 21
89.438228
 31
0.0
  0
LINE
  5
13a
100
AcDbEntity
  8
0
 62
3
100
AcDbLine
 10
96.206821
 20
89.637124
 30
0.0
 11
96.199906
 21
86.088431
 31
0.0
  0
LINE
  5
13b
100
AcDbEntity
  8
0
 62
3
100
AcDbLine
 10
96.199906
 20
86.088431
 30
0.0
 11
93.178314
 21
86.088431
 31
0.0
  0
LINE
  5
13c
100
AcDbEntity
  8
0
 62
3
100
AcDbLine
 10
93.178314
 20
86.088431
 30
0.0
 11
93.178322
 21
97.773125
 31
0.0
  0
LINE
  5
13d
100
AcDbEntity
  8
0
 62
3
100
AcDbLine
 10
93.178322
 20
97.773125
 30
0.0
 11
96.222685
 21
97.761751
 31
0.0
  0
LINE
  5
13e
100
AcDbEntity
  8
0
 62
3
100
AcDbLine
 10
96.222685
 20
97.761751
 30
0.0
 11
96.206880
 21
89.671259
 31
0.0
  0
LINE
  5
13f
100
AcDbEntity
  8
0
 62
3
100
AcDbLine
 10
96.206880
 20
89.671259
 30
0.0
 11
96.206821
 21
89.637124
 31
0.0
  0
LINE
  5
140
100
AcDbEntity
  8
0
 62
3
100
AcDbLine
 10
95.478981
 20
89.679787
 30
0.0
 11
95.495293
 21
97.022845
 31
0.0
  0
LINE
  5
141
100
AcDbEntity
  8
0
 62
3
100
AcDbLine
 10
95.495293
 20
97.022845
 30
0.0
 11
93.896640
 21
97.034219
 31
0.0
  0
LINE
  5
142
100
AcDbEntity
  8
0
 62
3
100
AcDbLine
 10
93.896640
 20
97.034219
 30
0.0
 11
93.896632
 21
86.761085
 31
0.0
  0
LINE
  5
143
100
AcDbEntity
  8
0
 62
3
100
AcDbLine
 10
93.896632
 20
86.761085
 30
0.0
 11
95.472515
 21
86.761085
 31
0.0
  0
LINE
  5
144
100
AcDbEntity
  8
0
 62
3
100
AcDbLine
 10
95.472515
 20
86.761085
 30
0.0
 11
95.478922
 21
89.637144
 31
0.0
  0
LINE
  5
145
100
AcDbEntity
  8
0
 62
3
100
AcDbLine
 10
95.478922
 20
89.637144
 30
0.0
 11
95.478981
 21
89.679787
 31
0.0
  0
SPLINE
  5
146
100
AcDbEntity
  8
0
 62
4
100
AcDbSpline
 70
8
 71
3
 72
8
 73
4
 74
0
 40
0
 40
0
 40
0
 40
0
 40
1
 40
1
 40
1
 40
1
 10
67.410734
 20
122.394290
 30
0.0
 10
67.412709
 20
121.730032
 30
0.0
 10
66.994893
 20
120.930675
 30
0.0
 10
66.640755
 20
120.930675
 30
0.0
  0
SPLINE
  5
147
100
AcDbEntity
  8
0
 62
4
100
AcDbSpline
 70
8
 71
3
 72
8
 73
4
 74
0
 40
0
 40
0
 40
0
 40
0
 40
1
 40
1
 40
1
 40
1
 10
66.640755
 20
120.930675
 30
0.0
 10
66.293088
 20
120.930675
 30
0.0
 10
65.867280
 20
121.670780
 30
0.0
 10
65.870777
 20
122.394290
 30
0.0
  0
SPLINE
  5
148
100
AcDbEntity
  8
0
 62
4
100
AcDbSpline
 70
8
 71
3
 72
8
 73
4
 74
0
 40
0
 40
0
 40
0
 40
0
 40
1
 40
1
 40
1
 40
1
 10
65.870777
 20
122.394290
 30
0.0
 10
65.874502
 20
123.132764
 30
0.0
 10
66.356611
 20
123.680857
 30
0.0
 10
66.640755
 20
123.693878
 30
0.0
  0
SPLINE
  5
149
100
AcDbEntity
  8
0
 62
4
100
AcDbSpline
 70
8
 71
3
 72
8
 73
4
 74
0
 40
0
 40
0
 40
0
 40
0
 40
1
 40
1
 40
1
 40
1
 10
66.640755
 20
123.693878
 30
0.0
 10
67.007667
 20
123.710671
 30
0.0
 10
67.409088
 20
123.000416
 30
0.0
 10
67.410734
 20
122.394290
 30
0.0
  0
LINE
  5
14a
100
AcDbEntity
  8
0
 62
4
100
AcDbLine
 10
67.410734
 20
122.394290
 30
0.0
 11
67.410734
 21
122.394290
 31
0.0
  0
SPLINE
  5
14b
100
AcDbEntity
  8
0
 62
6
100
AcDbSpline
 70
8
 71
3
 72
8
 73
4
 74
0
 40
0
 40
0
 40
0
 40
0
 40
1
 40
1
 40
1
 40
1
 10
65.342510
 20
124.379142
 30
0.0
 10
65.598621
 20
123.766240
 30
0.0
 10
65.518419
 20
122.867806
 30
0.0
 10
65.191239
 20
122.732280
 30
0.0
  0
SPLINE
  5
14c
100
AcDbEntity
  8
0
 62
6
100
AcDbSpline
 70
8
 71
3
 72
8
 73
4
 74
0
 40
0
 40
0
 40
0
 40
0
 40
1
 40
1
 40
1
 40
1
 10
65.191239
 20
122.732280
 30
0.0
 10
64.870036
 20
122.599234
 30
0.0
 10
64.193420
 20
123.120044
 30
0.0
 10
63.919772
 20
123.789828
 30
0.0
  0
SPLINE
  5
14d
100
AcDbEntity
  8
0
 62
6
100
AcDbSpline
 70
8
 71
3
 72
8
 73
4
 74
0
 40
0
 40
0
 40
0
 40
0
 40
1
 40
1
 40
1
 40
1
 10
63.919772
 20
123.789828
 30
0.0
 10
63.640465
 20
124.473455
 30
0.0
 10
63.876273
 20
125.164383
 30
0.0
 10
64.133812
 20
125.285143
 30
0.0
  0
SPLINE
  5
14e
100
AcDbEntity
  8
0
 62
6
100
AcDbSpline
 70
8
 71
3
 72
8
 73
4
 74
0
 40
0
 40
0
 40
0
 40
0
 40
1
 40
1
 40
1
 40
1
 10
64.133812
 20
125.285143
 30
0.0
 10
64.466360
 20
125.441085
 30
0.0
 10
65.109031
 20
124.938498
 30
0.0
 10
65.342510
 20
124.379142
 30
0.0
  0
LINE
  5
14f
100
AcDbEntity
  8
0
 62
6
100
AcDbLine
 10
65.342510
 20
124.379142
 30
0.0
 11
65.342510
 21
124.379142
 31
0.0
  0
SPLINE
  5
150
100
AcDbEntity
  8
0
 62
4
100
AcDbSpline
 70
8
 71
3
 72
8
 73
4
 74
0
 40
0
 40
0
 40
0
 40
0
 40
1
 40
1
 40
1
 40
1
 10
69.544243
 20
124.269022
 30
0.0
 10
69.546219
 20
123.604764
 30
0.0
 10
69.128397
 20
122.805406
 30
0.0
 10
68.774265
 20
122.805406
 30
0.0
  0
SPLINE
  5
151
100
AcDbEntity
  8
0
 62
4
100
AcDbSpline
 70
8
 71
3
 72
8
 73
4
 74
0
 40
0
 40
0
 40
0
 40
0
 40
1
 40
1
 40
1
 40
1
 10
68.774265
 20
122.805406
 30
0.0
 10
68.426601
 20
122.805406
 30
0.0
 10
68.000787
 20
123.545503
 30
0.0
 10
68.004284
 20
124.269022
 30
0.0
  0
SPLINE
  5
152
100
AcDbEntity
  8
0
 62
4
100
AcDbSpline
 70
8
 71
3
 72
8
 73
4
 74
0
 40
0
 40
0
 40
0
 40
0
 40
1
 40
1
 40
1
 40
1
 10
68.004284
 20
124.269022
 30
0.0
 10
68.007896
 20
125.007496
 30
0.0
 10
68.490115
 20
125.555588
 30
0.0
 10
68.774265
 20
125.568610
 30
0.0
  0
SPLINE
  5
153
100
AcDbEntity
  8
0
 62
4
100
AcDbSpline
 70
8
 71
3
 72
8
 73
4
 74
0
 40
0
 40
0
 40
0
 40
0
 40
1
 40
1
 40
1
 40
1
 10
68.774265
 20
125.568610
 30
0.0
 10
69.141171
 20
125.585402
 30
0.0
 10
69.542592
 20
124.875148
 30
0.0
 10
69.544243
 20
124.269022
 30
0.0
  0
LINE
  5
154
100
AcDbEntity
  8
0
 62
4
100
AcDbLine
 10
69.544243
 20
124.269022
 30
0.0
 11
69.544243
 21
124.269022
 31
0.0
  0
SPLINE
  5
155
100
AcDbEntity
  8
0
 62
2
100
AcDbSpline
 70
8
 71
3
 72
8
 73
4
 74
0
 40
0
 40
0
 40
0
 40
0
 40
1
 40
1
 40
1
 40
1
 10
69.558665
 20
120.707815
 30
0.0
 10
69.090424
 20
120.236651
 30
0.0
 10
68.229689
 20
119.966914
 30
0.0
 10
67.979273
 20
120.217327
 30
0.0
  0
SPLINE
  5
156
100
AcDbEntity
  8
0
 62
2
100
AcDbSpline
 70
8
 71
3
 72
8
 73
4
 74
0
 40
0
 40
0
 40
0
 40
0
 40
1
 40
1
 40
1
 40
1
 10
67.979273
 20
120.217327
 30
0.0
 10
67.733435
 20
120.463148
 30
0.0
 10
67.955679
 20
121.287592
 30
0.0
 10
68.469750
 20
121.796735
 30
0.0
  0
SPLINE
  5
157
100
AcDbEntity
  8
0
 62
2
100
AcDbSpline
 70
8
 71
3
 72
8
 73
4
 74
0
 40
0
 40
0
 40
0
 40
0
 40
1
 40
1
 40
1
 40
1
 10
68.469750
 20
121.796735
 30
0.0
 10
68.994491
 20
122.316340
 30
0.0
 10
69.723025
 20
122.362924
 30
0.0
 10
69.933148
 20
122.171219
 30
0.0
  0
SPLINE
  5
158
100
AcDbEntity
  8
0
 62
2
100
AcDbSpline
 70
8
 71
3
 72
8
 73
4
 74
0
 40
0
 40
0
 40
0
 40
0
 40
1
 40
1
 40
1
 40
1
 10
69.933148
 20
122.171219
 30
0.0
 10
70.204480
 20
121.923648
 30
0.0
 10
69.986090
 20
121.137560
 30
0.0
 10
69.558665
 20
120.707815
 30
0.0
  0
LINE
  5
159
100
AcDbEntity
  8
0
 62
2
100
AcDbLine
 10
69.558665
 20
120.707815
 30
0.0
 11
69.558665
 21
120.707815
 31
0.0
  0
SPLINE
  5
15a
100
AcDbEntity
  8
0
 62
2
100
AcDbSpline
 70
8
 71
3
 72
8
 73
4
 74
0
 40
0
 40
0
 40
0
 40
0
 40
1
 40
1
 40
1
 40
1
 10
65.085798
 20
121.733921
 30
0.0
 10
65.556963
 20
121.265703
 30
0.0
 10
65.826682
 20
120.404931
 30
0.0
 10
65.576267
 20
120.154515
 30
0.0
  0
SPLINE
  5
15b
100
AcDbEntity
  8
0
 62
2
100
AcDbSpline
 70
8
 71
3
 72
8
 73
4
 74
0
 40
0
 40
0
 40
0
 40
0
 40
1
 40
1
 40
1
 40
1
 10
65.576267
 20
120.154515
 30
0.0
 10
65.330431
 20
119.908691
 30
0.0
 10
64.506012
 20
120.130922
 30
0.0
 10
63.996883
 20
120.645006
 30
0.0
  0
SPLINE
  5
15c
100
AcDbEntity
  8
0
 62
2
100
AcDbSpline
 70
8
 71
3
 72
8
 73
4
 74
0
 40
0
 40
0
 40
0
 40
0
 40
1
 40
1
 40
1
 40
1
 10
63.996883
 20
120.645006
 30
0.0
 10
63.477225
 20
121.169705
 30
0.0
 10
63.430675
 20
121.898293
 30
0.0
 10
63.622394
 20
122.108419
 30
0.0
  0
SPLINE
  5
15d
100
AcDbEntity
  8
0
 62
2
100
AcDbSpline
 70
8
 71
3
 72
8
 73
4
 74
0
 40
0
 40
0
 40
0
 40
0
 40
1
 40
1
 40
1
 40
1
 10
63.622394
 20
122.108419
 30
0.0
 10
63.869954
 20
122.379747
 30
0.0
 10
64.656036
 20
122.161352
 30
0.0
 10
65.085798
 20
121.733921
 30
0.0
  0
LINE
  5
15e
100
AcDbEntity
  8
0
 62
2
100
AcDbLine
 10
65.085798
 20
121.733921
 30
0.0
 11
65.085798
 21
121.733921
 31
0.0
  0
SPLINE
  5
15f
100
AcDbEntity
  8
0
 62
6
100
AcDbSpline
 70
8
 71
3
 72
8
 73
4
 74
0
 40
0
 40
0
 40
0
 40
0
 40
1
 40
1
 40
1
 40
1
 10
62.003610
 20
121.992064
 30
0.0
 10
62.618098
 20
121.739760
 30
0.0
 10
63.196676
 20
121.047771
 30
0.0
 10
63.061150
 20
120.720602
 30
0.0
  0
SPLINE
  5
160
100
AcDbEntity
  8
0
 62
6
100
AcDbSpline
 70
8
 71
3
 72
8
 73
4
 74
0
 40
0
 40
0
 40
0
 40
0
 40
1
 40
1
 40
1
 40
1
 10
63.061150
 20
120.720602
 30
0.0
 10
62.928105
 20
120.399386
 30
0.0
 10
62.081390
 20
120.289240
 30
0.0
 10
61.414287
 20
120.569328
 30
0.0
  0
SPLINE
  5
161
100
AcDbEntity
  8
0
 62
6
100
AcDbSpline
 70
8
 71
3
 72
8
 73
4
 74
0
 40
0
 40
0
 40
0
 40
0
 40
1
 40
1
 40
1
 40
1
 10
61.414287
 20
120.569328
 30
0.0
 10
60.733392
 20
120.855203
 30
0.0
 10
60.411574
 20
121.510531
 30
0.0
 10
60.508289
 20
121.778033
 30
0.0
  0
SPLINE
  5
162
100
AcDbEntity
  8
0
 62
6
100
AcDbSpline
 70
8
 71
3
 72
8
 73
4
 74
0
 40
0
 40
0
 40
0
 40
0
 40
1
 40
1
 40
1
 40
1
 10
60.508289
 20
121.778033
 30
0.0
 10
60.633173
 20
122.123433
 30
0.0
 10
61.442992
 20
122.222487
 30
0.0
 10
62.003610
 20
121.992064
 30
0.0
  0
LINE
  5
163
100
AcDbEntity
  8
0
 62
6
100
AcDbLine
 10
62.003610
 20
121.992064
 30
0.0
 11
62.003610
 21
121.992064
 31
0.0
  0
SPLINE
  5
164
100
AcDbEntity
  8
0
 62
6
100
AcDbSpline
 70
8
 71
3
 72
8
 73
4
 74
0
 40
0
 40
0
 40
0
 40
0
 40
1
 40
1
 40
1
 40
1
 10
63.427187
 20
119.885893
 30
0.0
 10
64.091447
 20
119.885893
 30
0.0
 10
64.890802
 20
119.470011
 30
0.0
 10
64.890800
 20
119.115909
 30
0.0
  0
SPLINE
  5
165
100
AcDbEntity
  8
0
 62
6
100
AcDbSpline
 70
8
 71
3
 72
8
 73
4
 74
0
 40
0
 40
0
 40
0
 40
0
 40
1
 40
1
 40
1
 40
1
 10
64.890800
 20
119.115909
 30
0.0
 10
64.890800
 20
118.768214
 30
0.0
 10
64.150694
 20
118.342446
 30
0.0
 10
63.427187
 20
118.345923
 30
0.0
  0
SPLINE
  5
166
100
AcDbEntity
  8
0
 62
6
100
AcDbSpline
 70
8
 71
3
 72
8
 73
4
 74
0
 40
0
 40
0
 40
0
 40
0
 40
1
 40
1
 40
1
 40
1
 10
63.427187
 20
118.345923
 30
0.0
 10
62.688716
 20
118.350043
 30
0.0
 10
62.140612
 20
118.831771
 30
0.0
 10
62.127601
 20
119.115909
 30
0.0
  0
SPLINE
  5
167
100
AcDbEntity
  8
0
 62
6
100
AcDbSpline
 70
8
 71
3
 72
8
 73
4
 74
0
 40
0
 40
0
 40
0
 40
0
 40
1
 40
1
 40
1
 40
1
 10
62.127601
 20
119.115909
 30
0.0
 10
62.110809
 20
119.482795
 30
0.0
 10
62.821066
 20
119.884200
 30
0.0
 10
63.427187
 20
119.885893
 30
0.0
  0
LINE
  5
168
100
AcDbEntity
  8
0
 62
6
100
AcDbLine
 10
63.427187
 20
119.885893
 30
0.0
 11
63.427187
 21
119.885893
 31
0.0
  0
SPLINE
  5
169
100
AcDbEntity
  8
0
 62
4
100
AcDbSpline
 70
8
 71
3
 72
8
 73
4
 74
0
 40
0
 40
0
 40
0
 40
0
 40
1
 40
1
 40
1
 40
1
 10
69.750113
 20
119.937574
 30
0.0
 10
70.414374
 20
119.937574
 30
0.0
 10
71.213729
 20
119.521734
 30
0.0
 10
71.213723
 20
119.167584
 30
0.0
  0
SPLINE
  5
16a
100
AcDbEntity
  8
0
 62
4
100
AcDbSpline
 70
8
 71
3
 72
8
 73
4
 74
0
 40
0
 40
0
 40
0
 40
0
 40
1
 40
1
 40
1
 40
1
 10
71.213723
 20
119.167584
 30
0.0
 10
71.213729
 20
118.819937
 30
0.0
 10
70.473618
 20
118.394129
 30
0.0
 10
69.750113
 20
118.397640
 30
0.0
  0
SPLINE
  5
16b
100
AcDbEntity
  8
0
 62
4
100
AcDbSpline
 70
8
 71
3
 72
8
 73
4
 74
0
 40
0
 40
0
 40
0
 40
0
 40
1
 40
1
 40
1
 40
1
 10
69.750113
 20
118.397640
 30
0.0
 10
69.011633
 20
118.401760
 30
0.0
 10
68.463541
 20
118.883451
 30
0.0
 10
68.450525
 20
119.167632
 30
0.0
  0
SPLINE
  5
16c
100
AcDbEntity
  8
0
 62
4
100
AcDbSpline
 70
8
 71
3
 72
8
 73
4
 74
0
 40
0
 40
0
 40
0
 40
0
 40
1
 40
1
 40
1
 40
1
 10
68.450525
 20
119.167632
 30
0.0
 10
68.433733
 20
119.534518
 30
0.0
 10
69.143987
 20
119.935923
 30
0.0
 10
69.750113
 20
119.937574
 30
0.0
  0
LINE
  5
16d
100
AcDbEntity
  8
0
 62
4
100
AcDbLine
 10
69.750113
 20
119.937574
 30
0.0
 11
69.750113
 21
119.937574
 31
0.0
  0
SPLINE
  5
16e
100
AcDbEntity
  8
0
 62
2
100
AcDbSpline
 70
8
 71
3
 72
8
 73
4
 74
0
 40
0
 40
0
 40
0
 40
0
 40
1
 40
1
 40
1
 40
1
 10
72.051923
 20
120.272109
 30
0.0
 10
71.439021
 20
120.015987
 30
0.0
 10
70.540586
 20
120.096172
 30
0.0
 10
70.405066
 20
120.423383
 30
0.0
  0
SPLINE
  5
16f
100
AcDbEntity
  8
0
 62
2
100
AcDbSpline
 70
8
 71
3
 72
8
 73
4
 74
0
 40
0
 40
0
 40
0
 40
0
 40
1
 40
1
 40
1
 40
1
 10
70.405066
 20
120.423383
 30
0.0
 10
70.272015
 20
120.744557
 30
0.0
 10
70.792845
 20
121.421196
 30
0.0
 10
71.462604
 20
121.694865
 30
0.0
  0
SPLINE
  5
170
100
AcDbEntity
  8
0
 62
2
100
AcDbSpline
 70
8
 71
3
 72
8
 73
4
 74
0
 40
0
 40
0
 40
0
 40
0
 40
1
 40
1
 40
1
 40
1
 10
71.462604
 20
121.694865
 30
0.0
 10
72.146256
 20
121.974101
 30
0.0
 10
72.837156
 20
121.738355
 30
0.0
 10
72.957930
 20
121.480822
 30
0.0
  0
SPLINE
  5
171
100
AcDbEntity
  8
0
 62
2
100
AcDbSpline
 70
8
 71
3
 72
8
 73
4
 74
0
 40
0
 40
0
 40
0
 40
0
 40
1
 40
1
 40
1
 40
1
 10
72.957930
 20
121.480822
 30
0.0
 10
73.113860
 20
121.148276
 30
0.0
 10
72.611279
 20
120.505603
 30
0.0
 10
72.051923
 20
120.272109
 30
0.0
  0
LINE
  5
172
100
AcDbEntity
  8
0
 62
2
100
AcDbLine
 10
72.051923
 20
120.272109
 30
0.0
 11
72.051923
 21
120.272109
 31
0.0
  0
SPLINE
  5
173
100
AcDbEntity
  8
0
 62
2
100
AcDbSpline
 70
8
 71
3
 72
8
 73
4
 74
0
 40
0
 40
0
 40
0
 40
0
 40
1
 40
1
 40
1
 40
1
 10
71.804787
 20
117.531085
 30
0.0
 10
72.419281
 20
117.278809
 30
0.0
 10
72.997862
 20
116.586778
 30
0.0
 10
72.862330
 20
116.259612
 30
0.0
  0
SPLINE
  5
174
100
AcDbEntity
  8
0
 62
2
100
AcDbSpline
 70
8
 71
3
 72
8
 73
4
 74
0
 40
0
 40
0
 40
0
 40
0
 40
1
 40
1
 40
1
 40
1
 10
72.862330
 20
116.259612
 30
0.0
 10
72.729296
 20
115.938398
 30
0.0
 10
71.882573
 20
115.828249
 30
0.0
 10
71.215479
 20
116.108332
 30
0.0
  0
SPLINE
  5
175
100
AcDbEntity
  8
0
 62
2
100
AcDbSpline
 70
8
 71
3
 72
8
 73
4
 74
0
 40
0
 40
0
 40
0
 40
0
 40
1
 40
1
 40
1
 40
1
 10
71.215479
 20
116.108332
 30
0.0
 10
70.534595
 20
116.394288
 30
0.0
 10
70.212763
 20
117.049538
 30
0.0
 10
70.309469
 20
117.317039
 30
0.0
  0
SPLINE
  5
176
100
AcDbEntity
  8
0
 62
2
100
AcDbSpline
 70
8
 71
3
 72
8
 73
4
 74
0
 40
0
 40
0
 40
0
 40
0
 40
1
 40
1
 40
1
 40
1
 10
70.309469
 20
117.317039
 30
0.0
 10
70.434347
 20
117.662457
 30
0.0
 10
71.244172
 20
117.761511
 30
0.0
 10
71.804787
 20
117.531085
 30
0.0
  0
LINE
  5
177
100
AcDbEntity
  8
0
 62
2
100
AcDbLine
 10
71.804787
 20
117.531085
 30
0.0
 11
71.804787
 21
117.531085
 31
0.0
  0
SPLINE
  5
178
100
AcDbEntity
  8
0
 62
1
100
AcDbSpline
 70
8
 71
3
 72
8
 73
4
 74
0
 40
0
 40
0
 40
0
 40
0
 40
1
 40
1
 40
1
 40
1
 10
69.365735
 20
117.479816
 30
0.0
 10
69.836899
 20
117.011596
 30
0.0
 10
70.106616
 20
116.150866
 30
0.0
 10
69.856206
 20
115.900450
 30
0.0
  0
SPLINE
  5
179
100
AcDbEntity
  8
0
 62
1
100
AcDbSpline
 70
8
 71
3
 72
8
 73
4
 74
0
 40
0
 40
0
 40
0
 40
0
 40
1
 40
1
 40
1
 40
1
 10
69.856206
 20
115.900450
 30
0.0
 10
69.610376
 20
115.654592
 30
0.0
 10
68.785946
 20
115.876856
 30
0.0
 10
68.276820
 20
116.390941
 30
0.0
  0
SPLINE
  5
17a
100
AcDbEntity
  8
0
 62
1
100
AcDbSpline
 70
8
 71
3
 72
8
 73
4
 74
0
 40
0
 40
0
 40
0
 40
0
 40
1
 40
1
 40
1
 40
1
 10
68.276820
 20
116.390941
 30
0.0
 10
67.757195
 20
116.915682
 30
0.0
 10
67.710617
 20
117.644208
 30
0.0
 10
67.902331
 20
117.854322
 30
0.0
  0
SPLINE
  5
17b
100
AcDbEntity
  8
0
 62
1
100
AcDbSpline
 70
8
 71
3
 72
8
 73
4
 74
0
 40
0
 40
0
 40
0
 40
0
 40
1
 40
1
 40
1
 40
1
 10
67.902331
 20
117.854322
 30
0.0
 10
68.149879
 20
118.125628
 30
0.0
 10
68.935970
 20
117.907284
 30
0.0
 10
69.365735
 20
117.479816
 30
0.0
  0
LINE
  5
17c
100
AcDbEntity
  8
0
 62
1
100
AcDbLine
 10
69.365735
 20
117.479816
 30
0.0
 11
69.365735
 21
117.479816
 31
0.0
  0
SPLINE
  5
17d
100
AcDbEntity
  8
0
 62
4
100
AcDbSpline
 70
8
 71
3
 72
8
 73
4
 74
0
 40
0
 40
0
 40
0
 40
0
 40
1
 40
1
 40
1
 40
1
 10
65.097702
 20
116.195101
 30
0.0
 10
64.629467
 20
115.723937
 30
0.0
 10
63.768726
 20
115.454203
 30
0.0
 10
63.518316
 20
115.704656
 30
0.0
  0
SPLINE
  5
17e
100
AcDbEntity
  8
0
 62
4
100
AcDbSpline
 70
8
 71
3
 72
8
 73
4
 74
0
 40
0
 40
0
 40
0
 40
0
 40
1
 40
1
 40
1
 40
1
 10
63.518316
 20
115.704656
 30
0.0
 10
63.272475
 20
115.950480
 30
0.0
 10
63.494722
 20
116.774879
 30
0.0
 10
64.008787
 20
117.284022
 30
0.0
  0
SPLINE
  5
17f
100
AcDbEntity
  8
0
 62
4
100
AcDbSpline
 70
8
 71
3
 72
8
 73
4
 74
0
 40
0
 40
0
 40
0
 40
0
 40
1
 40
1
 40
1
 40
1
 10
64.008787
 20
117.284022
 30
0.0
 10
64.533492
 20
117.803678
 30
0.0
 10
65.262063
 20
117.850225
 30
0.0
 10
65.472191
 20
117.658525
 30
0.0
  0
SPLINE
  5
180
100
AcDbEntity
  8
0
 62
4
100
AcDbSpline
 70
8
 71
3
 72
8
 73
4
 74
0
 40
0
 40
0
 40
0
 40
0
 40
1
 40
1
 40
1
 40
1
 10
65.472191
 20
117.658525
 30
0.0
 10
65.743523
 20
117.410965
 30
0.0
 10
65.525134
 20
116.624886
 30
0.0
 10
65.097702
 20
116.195101
 30
0.0
  0
LINE
  5
181
100
AcDbEntity
  8
0
 62
4
100
AcDbLine
 10
65.097702
 20
116.195101
 30
0.0
 11
65.097702
 21
116.195101
 31
0.0
  0
SPLINE
  5
182
100
AcDbEntity
  8
0
 62
2
100
AcDbSpline
 70
8
 71
3
 72
8
 73
4
 74
0
 40
0
 40
0
 40
0
 40
0
 40
1
 40
1
 40
1
 40
1
 10
61.351657
 20
117.791799
 30
0.0
 10
61.964567
 20
118.047882
 30
0.0
 10
62.863002
 20
117.967694
 30
0.0
 10
62.998522
 20
117.640525
 30
0.0
  0
SPLINE
  5
183
100
AcDbEntity
  8
0
 62
2
100
AcDbSpline
 70
8
 71
3
 72
8
 73
4
 74
0
 40
0
 40
0
 40
0
 40
0
 40
1
 40
1
 40
1
 40
1
 10
62.998522
 20
117.640525
 30
0.0
 10
63.131573
 20
117.319319
 30
0.0
 10
62.610740
 20
116.642723
 30
0.0
 10
61.940979
 20
116.369052
 30
0.0
  0
SPLINE
  5
184
100
AcDbEntity
  8
0
 62
2
100
AcDbSpline
 70
8
 71
3
 72
8
 73
4
 74
0
 40
0
 40
0
 40
0
 40
0
 40
1
 40
1
 40
1
 40
1
 10
61.940979
 20
116.369052
 30
0.0
 10
61.257335
 20
116.089796
 30
0.0
 10
60.566416
 20
116.325564
 30
0.0
 10
60.445658
 20
116.583098
 30
0.0
  0
SPLINE
  5
185
100
AcDbEntity
  8
0
 62
2
100
AcDbSpline
 70
8
 71
3
 72
8
 73
4
 74
0
 40
0
 40
0
 40
0
 40
0
 40
1
 40
1
 40
1
 40
1
 10
60.445658
 20
116.583098
 30
0.0
 10
60.289728
 20
116.915640
 30
0.0
 10
60.792318
 20
117.558308
 30
0.0
 10
61.351657
 20
117.791799
 30
0.0
  0
LINE
  5
186
100
AcDbEntity
  8
0
 62
2
100
AcDbLine
 10
61.351657
 20
117.791799
 30
0.0
 11
61.351657
 21
117.791799
 31
0.0
  0
SPLINE
  5
187
100
AcDbEntity
  8
0
 62
1
100
AcDbSpline
 70
8
 71
3
 72
8
 73
4
 74
0
 40
0
 40
0
 40
0
 40
0
 40
1
 40
1
 40
1
 40
1
 10
65.418439
 20
113.949154
 30
0.0
 10
65.166153
 20
113.334666
 30
0.0
 10
64.474149
 20
112.756091
 30
0.0
 10
64.146975
 20
112.891600
 30
0.0
  0
SPLINE
  5
188
100
AcDbEntity
  8
0
 62
1
100
AcDbSpline
 70
8
 71
3
 72
8
 73
4
 74
0
 40
0
 40
0
 40
0
 40
0
 40
1
 40
1
 40
1
 40
1
 10
64.146975
 20
112.891600
 30
0.0
 10
63.825769
 20
113.024625
 30
0.0
 10
63.715595
 20
113.871368
 30
0.0
 10
63.995704
 20
114.538446
 30
0.0
  0
SPLINE
  5
189
100
AcDbEntity
  8
0
 62
1
100
AcDbSpline
 70
8
 71
3
 72
8
 73
4
 74
0
 40
0
 40
0
 40
0
 40
0
 40
1
 40
1
 40
1
 40
1
 10
63.995704
 20
114.538446
 30
0.0
 10
64.281606
 20
115.219346
 30
0.0
 10
64.936906
 20
115.541178
 30
0.0
 10
65.204405
 20
115.444478
 30
0.0
  0
SPLINE
  5
18a
100
AcDbEntity
  8
0
 62
1
100
AcDbSpline
 70
8
 71
3
 72
8
 73
4
 74
0
 40
0
 40
0
 40
0
 40
0
 40
1
 40
1
 40
1
 40
1
 10
65.204405
 20
115.444478
 30
0.0
 10
65.549817
 20
115.319563
 30
0.0
 10
65.648871
 20
114.509769
 30
0.0
 10
65.418439
 20
113.949154
 30
0.0
  0
LINE
  5
18b
100
AcDbEntity
  8
0
 62
1
100
AcDbLine
 10
65.418439
 20
113.949154
 30
0.0
 11
65.418439
 21
113.949154
 31
0.0
  0
SPLINE
  5
18c
100
AcDbEntity
  8
0
 62
6
100
AcDbSpline
 70
8
 71
3
 72
8
 73
4
 74
0
 40
0
 40
0
 40
0
 40
0
 40
1
 40
1
 40
1
 40
1
 10
69.195744
 20
114.293494
 30
0.0
 10
69.451863
 20
113.680578
 30
0.0
 10
69.371656
 20
112.782117
 30
0.0
 10
69.044473
 20
112.646608
 30
0.0
  0
SPLINE
  5
18d
100
AcDbEntity
  8
0
 62
6
100
AcDbSpline
 70
8
 71
3
 72
8
 73
4
 74
0
 40
0
 40
0
 40
0
 40
0
 40
1
 40
1
 40
1
 40
1
 10
69.044473
 20
112.646608
 30
0.0
 10
68.723276
 20
112.513577
 30
0.0
 10
68.046656
 20
113.034393
 30
0.0
 10
67.773008
 20
113.704160
 30
0.0
  0
SPLINE
  5
18e
100
AcDbEntity
  8
0
 62
6
100
AcDbSpline
 70
8
 71
3
 72
8
 73
4
 74
0
 40
0
 40
0
 40
0
 40
0
 40
1
 40
1
 40
1
 40
1
 10
67.773008
 20
113.704160
 30
0.0
 10
67.493746
 20
114.387793
 30
0.0
 10
67.729521
 20
115.078706
 30
0.0
 10
67.987043
 20
115.199486
 30
0.0
  0
SPLINE
  5
18f
100
AcDbEntity
  8
0
 62
6
100
AcDbSpline
 70
8
 71
3
 72
8
 73
4
 74
0
 40
0
 40
0
 40
0
 40
0
 40
1
 40
1
 40
1
 40
1
 10
67.987043
 20
115.199486
 30
0.0
 10
68.319594
 20
115.355434
 30
0.0
 10
68.962264
 20
114.852830
 30
0.0
 10
69.195744
 20
114.293494
 30
0.0
  0
LINE
  5
190
100
AcDbEntity
  8
0
 62
6
100
AcDbLine
 10
69.195744
 20
114.293494
 30
0.0
 11
69.195744
 21
114.293494
 31
0.0
  0
LINE
  5
191
100
AcDbEntity
  8
0
 62
7
100
AcDbLine
 10
77.532769
 20
150.730318
 30
0.0
 11
71.682991
 21
159.592557
 31
0.0
  0
LINE
  5
192
100
AcDbEntity
  8
0
 62
7
100
AcDbLine
 10
71.682991
 20
159.592557
 30
0.0
 11
54.872254
 21
159.592557
 31
0.0
  0
LINE
  5
193
100
AcDbEntity
  8
0
 62
7
100
AcDbLine
 10
54.872254
 20
159.592557
 30
0.0
 11
76.696717
 21
126.560938
 31
0.0
  0
LINE
  5
194
100
AcDbEntity
  8
0
 62
7
100
AcDbLine
 10
76.696717
 20
126.560938
 30
0.0
 11
77.687678
 21
126.362648
 31
0.0
  0
LINE
  5
195
100
AcDbEntity
  8
0
 62
7
100
AcDbLine
 10
77.687678
 20
126.362648
 30
0.0
 11
56.299702
 21
158.733634
 31
0.0
  0
LINE
  5
196
100
AcDbEntity
  8
0
 62
7
100
AcDbLine
 10
56.299702
 20
158.733634
 30
0.0
 11
71.424492
 21
158.733634
 31
0.0
  0
LINE
  5
197
100
AcDbEntity
  8
0
 62
7
100
AcDbLine
 10
71.424492
 20
158.733634
 30
0.0
 11
77.157277
 21
150.048638
 31
0.0
  0
LINE
  5
198
100
AcDbEntity
  8
0
 62
7
100
AcDbLine
 10
77.157277
 20
150.048638
 30
0.0
 11
77.532769
 21
150.730318
 31
0.0
  0
LINE
  5
199
100
AcDbEntity
  8
0
 62
7
100
AcDbLine
 10
102.551825
 20
126.462627
 30
0.0
 11
124.179673
 21
159.494251
 31
0.0
  0
LINE
  5
19a
100
AcDbEntity
  8
0
 62
7
100
AcDbLine
 10
124.179673
 20
159.494251
 30
0.0
 11
107.565556
 21
159.494251
 31
0.0
  0
LINE
  5
19b
100
AcDbEntity
  8
0
 62
7
100
AcDbLine
 10
107.565556
 20
159.494251
 30
0.0
 11
91.344672
 21
134.917145
 31
0.0
  0
LINE
  5
19c
100
AcDbEntity
  8
0
 62
7
100
AcDbLine
 10
91.344672
 20
134.917145
 30
0.0
 11
92.042673
 21
134.551730
 31
0.0
  0
LINE
  5
19d
100
AcDbEntity
  8
0
 62
7
100
AcDbLine
 10
92.042673
 20
134.551730
 30
0.0
 11
107.939136
 21
158.637296
 31
0.0
  0
LINE
  5
19e
100
AcDbEntity
  8
0
 62
7
100
AcDbLine
 10
107.939136
 20
158.637296
 30
0.0
 11
122.871239
 21
158.637296
 31
0.0
  0
LINE
  5
19f
100
AcDbEntity
  8
0
 62
7
100
AcDbLine
 10
122.871239
 20
158.637296
 30
0.0
 11
101.675951
 21
126.266305
 31
0.0
  0
LINE
  5
1a0
100
AcDbEntity
  8
0
 62
7
100
AcDbLine
 10
101.675951
 20
126.266305
 30
0.0
 11
102.551825
 21
126.462627
 31
0.0
  0
LINE
  5
1a1
100
AcDbEntity
  8
0
 62
7
100
AcDbLine
 10
104.419687
 20
87.335891
 30
0.0
 11
109.531724
 21
79.962761
 31
0.0
  0
LINE
  5
1a2
100
AcDbEntity
  8
0
 62
7
100
AcDbLine
 10
109.531724
 20
79.962761
 30
0.0
 11
125.949225
 21
80.159379
 31
0.0
  0
LINE
  5
1a3
100
AcDbEntity
  8
0
 62
7
100
AcDbLine
 10
125.949225
 20
80.159379
 30
0.0
 11
105.599388
 21
110.733283
 31
0.0
  0
LINE
  5
1a4
100
AcDbEntity
  8
0
 62
7
100
AcDbLine
 10
105.599388
 20
110.733283
 30
0.0
 11
104.662562
 21
110.851546
 31
0.0
  0
LINE
  5
1a5
100
AcDbEntity
  8
0
 62
7
100
AcDbLine
 10
104.662562
 20
110.851546
 30
0.0
 11
124.605400
 21
80.889120
 31
0.0
  0
LINE
  5
1a6
100
AcDbEntity
  8
0
 62
7
100
AcDbLine
 10
124.605400
 20
80.889120
 30
0.0
 11
109.865983
 21
80.696434
 31
0.0
  0
LINE
  5
1a7
100
AcDbEntity
  8
0
 62
7
100
AcDbLine
 10
109.865983
 20
80.696434
 30
0.0
 11
104.856188
 21
87.922101
 31
0.0
  0
LINE
  5
1a8
100
AcDbEntity
  8
0
 62
7
100
AcDbLine
 10
104.856188
 20
87.922101
 30
0.0
 11
104.419687
 21
87.335891
 31
0.0
  0
LINE
  5
1a9
100
AcDbEntity
  8
0
 62
7
100
AcDbLine
 10
84.979705
 20
113.218441
 30
0.0
 11
84.979705
 21
124.599820
 31
0.0
  0
LINE
  5
1aa
100
AcDbEntity
  8
0
 62
7
100
AcDbLine
 10
84.979705
 20
124.599820
 30
0.0
 11
88.701479
 21
124.599820
 31
0.0
  0
SPLINE
  5
1ab
100
AcDbEntity
  8
0
 62
7
100
AcDbSpline
 70
8
 71
3
 72
8
 73
4
 74
0
 40
0
 40
0
 40
0
 40
0
 40
1
 40
1
 40
1
 40
1
 10
88.701479
 20
124.599820
 30
0.0
 10
90.111834
 20
124.599820
 30
0.0
 10
90.662517
 20
124.603969
 30
0.0
 10
91.090846
 20
124.488961
 30
0.0
  0
SPLINE
  5
1ac
100
AcDbEntity
  8
0
 62
7
100
AcDbSpline
 70
8
 71
3
 72
8
 73
4
 74
0
 40
0
 40
0
 40
0
 40
0
 40
1
 40
1
 40
1
 40
1
 10
91.090846
 20
124.488961
 30
0.0
 10
91.749016
 20
124.316655
 30
0.0
 10
92.484425
 20
123.925351
 30
0.0
 10
92.928426
 20
123.345774
 30
0.0
  0
SPLINE
  5
1ad
100
AcDbEntity
  8
0
 62
7
100
AcDbSpline
 70
8
 71
3
 72
8
 73
4
 74
0
 40
0
 40
0
 40
0
 40
0
 40
1
 40
1
 40
1
 40
1
 10
92.928426
 20
123.345774
 30
0.0
 10
93.372426
 20
122.771421
 30
0.0
 10
93.456184
 20
121.981292
 30
0.0
 10
93.456184
 20
121.067547
 30
0.0
  0
SPLINE
  5
1ae
100
AcDbEntity
  8
0
 62
7
100
AcDbSpline
 70
8
 71
3
 72
8
 73
4
 74
0
 40
0
 40
0
 40
0
 40
0
 40
1
 40
1
 40
1
 40
1
 10
93.456184
 20
121.067547
 30
0.0
 10
93.456184
 20
120.362663
 30
0.0
 10
93.389648
 20
119.708590
 30
0.0
 10
93.133689
 20
119.228223
 30
0.0
  0
SPLINE
  5
1af
100
AcDbEntity
  8
0
 62
7
100
AcDbSpline
 70
8
 71
3
 72
8
 73
4
 74
0
 40
0
 40
0
 40
0
 40
0
 40
1
 40
1
 40
1
 40
1
 10
93.133689
 20
119.228223
 30
0.0
 10
92.877739
 20
118.747855
 30
0.0
 10
92.643432
 20
118.369305
 30
0.0
 10
92.246444
 20
118.092569
 30
0.0
  0
SPLINE
  5
1b0
100
AcDbEntity
  8
0
 62
7
100
AcDbSpline
 70
8
 71
3
 72
8
 73
4
 74
0
 40
0
 40
0
 40
0
 40
0
 40
1
 40
1
 40
1
 40
1
 10
92.246444
 20
118.092569
 30
0.0
 10
90.299043
 20
116.896785
 30
0.0
 10
89.143355
 20
117.153706
 30
0.0
 10
87.505478
 20
116.623642
 30
0.0
  0
LINE
  5
1b1
100
AcDbEntity
  8
0
 62
7
100
AcDbLine
 10
87.505478
 20
116.623642
 30
0.0
 11
87.505478
 21
113.218441
 31
0.0
  0
LINE
  5
1b2
100
AcDbEntity
  8
0
 62
7
100
AcDbLine
 10
87.505478
 20
113.218441
 30
0.0
 11
84.979705
 21
113.218441
 31
0.0
  0
LINE
  5
1b3
100
AcDbEntity
  8
0
 62
7
100
AcDbLine
 10
87.505478
 20
122.027486
 30
0.0
 11
87.505478
 21
118.899679
 31
0.0
  0
SPLINE
  5
1b4
100
AcDbEntity
  8
0
 62
7
100
AcDbSpline
 70
8
 71
3
 72
8
 73
4
 74
0
 40
0
 40
0
 40
0
 40
0
 40
1
 40
1
 40
1
 40
1
 10
87.505478
 20
118.899679
 30
0.0
 10
87.505478
 20
118.899679
 30
0.0
 10
88.315557
 20
119.087210
 30
0.0
 10
88.720340
 20
119.182088
 30
0.0
  0
SPLINE
  5
1b5
100
AcDbEntity
  8
0
 62
7
100
AcDbSpline
 70
8
 71
3
 72
8
 73
4
 74
0
 40
0
 40
0
 40
0
 40
0
 40
1
 40
1
 40
1
 40
1
 10
88.720340
 20
119.182088
 30
0.0
 10
89.281051
 20
119.313516
 30
0.0
 10
90.093549
 20
119.459363
 30
0.0
 10
90.401741
 20
119.579454
 30
0.0
  0
SPLINE
  5
1b6
100
AcDbEntity
  8
0
 62
7
100
AcDbSpline
 70
8
 71
3
 72
8
 73
4
 74
0
 40
0
 40
0
 40
0
 40
0
 40
1
 40
1
 40
1
 40
1
 10
90.401741
 20
119.579454
 30
0.0
 10
90.809778
 20
119.920226
 30
0.0
 10
91.083364
 20
120.340994
 30
0.0
 10
91.019695
 20
120.884159
 30
0.0
  0
SPLINE
  5
1b7
100
AcDbEntity
  8
0
 62
7
100
AcDbSpline
 70
8
 71
3
 72
8
 73
4
 74
0
 40
0
 40
0
 40
0
 40
0
 40
1
 40
1
 40
1
 40
1
 10
91.019695
 20
120.884159
 30
0.0
 10
91.019695
 20
121.301870
 30
0.0
 10
91.039930
 20
121.557676
 30
0.0
 10
90.836084
 20
121.787648
 30
0.0
  0
SPLINE
  5
1b8
100
AcDbEntity
  8
0
 62
7
100
AcDbSpline
 70
8
 71
3
 72
8
 73
4
 74
0
 40
0
 40
0
 40
0
 40
0
 40
1
 40
1
 40
1
 40
1
 10
90.836084
 20
121.787648
 30
0.0
 10
90.661863
 20
121.984193
 30
0.0
 10
90.470496
 20
122.037242
 30
0.0
 10
90.088328
 20
122.036066
 30
0.0
  0
LINE
  5
1b9
100
AcDbEntity
  8
0
 62
7
100
AcDbLine
 10
90.088328
 20
122.036066
 30
0.0
 11
87.505478
 21
122.027486
 31
0.0
  0
LINE
  5
1ba
100
AcDbEntity
  8
0
 62
7
100
AcDbLine
 10
102.937180
 20
113.099787
 30
0.0
 11
102.937180
 21
121.648989
 31
0.0
  0
SPLINE
  5
1bb
100
AcDbEntity
  8
0
 62
7
100
AcDbSpline
 70
8
 71
3
 72
8
 73
4
 74
0
 40
0
 40
0
 40
0
 40
0
 40
1
 40
1
 40
1
 40
1
 10
102.937180
 20
121.648989
 30
0.0
 10
103.011862
 20
124.256153
 30
0.0
 10
104.815725
 20
124.681103
 30
0.0
 10
105.788505
 20
124.693614
 30
0.0
  0
LINE
  5
1bc
100
AcDbEntity
  8
0
 62
7
100
AcDbLine
 10
105.788505
 20
124.693614
 30
0.0
 11
109.816813
 21
124.668496
 31
0.0
  0
LINE
  5
1bd
100
AcDbEntity
  8
0
 62
7
100
AcDbLine
 10
109.816813
 20
124.668496
 30
0.0
 11
109.838544
 21
122.222087
 31
0.0
  0
LINE
  5
1be
100
AcDbEntity
  8
0
 62
7
100
AcDbLine
 10
109.838544
 20
122.222087
 30
0.0
 11
105.820580
 21
122.131208
 31
0.0
  0
SPLINE
  5
1bf
100
AcDbEntity
  8
0
 62
7
100
AcDbSpline
 70
8
 71
3
 72
8
 73
4
 74
0
 40
0
 40
0
 40
0
 40
0
 40
1
 40
1
 40
1
 40
1
 10
105.820580
 20
122.131208
 30
0.0
 10
105.499992
 20
122.132619
 30
0.0
 10
105.195531
 20
121.764791
 30
0.0
 10
105.244640
 20
121.516080
 30
0.0
  0
LINE
  5
1c0
100
AcDbEntity
  8
0
 62
7
100
AcDbLine
 10
105.244640
 20
121.516080
 30
0.0
 11
105.244640
 21
119.127481
 31
0.0
  0
LINE
  5
1c1
100
AcDbEntity
  8
0
 62
7
100
AcDbLine
 10
105.244640
 20
119.127481
 30
0.0
 11
108.765377
 21
120.033761
 31
0.0
  0
LINE
  5
1c2
100
AcDbEntity
  8
0
 62
7
100
AcDbLine
 10
108.765377
 20
120.033761
 30
0.0
 11
108.765377
 21
117.744877
 31
0.0
  0
LINE
  5
1c3
100
AcDbEntity
  8
0
 62
7
100
AcDbLine
 10
108.765377
 20
117.744877
 30
0.0
 11
105.244640
 21
116.838596
 31
0.0
  0
LINE
  5
1c4
100
AcDbEntity
  8
0
 62
7
100
AcDbLine
 10
105.244640
 20
116.838596
 30
0.0
 11
105.244640
 21
113.099756
 31
0.0
  0
LINE
  5
1c5
100
AcDbEntity
  8
0
 62
7
100
AcDbLine
 10
105.244640
 20
113.099756
 30
0.0
 11
102.937180
 21
113.099787
 31
0.0
  0
LINE
  5
1c6
100
AcDbEntity
  8
0
 62
7
100
AcDbLine
 10
113.452780
 20
113.191952
 30
0.0
 11
109.936859
 21
124.650155
 31
0.0
  0
LINE
  5
1c7
100
AcDbEntity
  8
0
 62
7
100
AcDbLine
 10
109.936859
 20
124.650155
 30
0.0
 11
112.664438
 21
124.650155
 31
0.0
  0
LINE
  5
1c8
100
AcDbEntity
  8
0
 62
7
100
AcDbLine
 10
112.664438
 20
124.650155
 30
0.0
 11
114.608396
 21
117.111260
 31
0.0
  0
LINE
  5
1c9
100
AcDbEntity
  8
0
 62
7
100
AcDbLine
 10
114.608396
 20
117.111260
 30
0.0
 11
116.713401
 21
124.619432
 31
0.0
  0
LINE
  5
1ca
100
AcDbEntity
  8
0
 62
7
100
AcDbLine
 10
116.713401
 20
124.619432
 30
0.0
 11
119.391546
 21
124.619443
 31
0.0
  0
LINE
  5
1cb
100
AcDbEntity
  8
0
 62
7
100
AcDbLine
 10
119.391546
 20
124.619443
 30
0.0
 11
115.930000
 21
113.222683
 31
0.0
  0
LINE
  5
1cc
100
AcDbEntity
  8
0
 62
7
100
AcDbLine
 10
115.930000
 20
113.222683
 30
0.0
 11
113.452780
 21
113.191952
 31
0.0
  0
SPLINE
  5
1cd
100
AcDbEntity
  8
0
 62
7
100
AcDbSpline
 70
8
 71
3
 72
8
 73
4
 74
0
 40
0
 40
0
 40
0
 40
0
 40
1
 40
1
 40
1
 40
1
 10
79.245980
 20
115.451694
 30
0.0
 10
78.981216
 20
115.451694
 30
0.0
 10
78.550835
 20
115.740873
 30
0.0
 10
78.550835
 20
116.005637
 30
0.0
  0
LINE
  5
1ce
100
AcDbEntity
  8
0
 62
7
100
AcDbLine
 10
78.550835
 20
116.005637
 30
0.0
 11
78.550835
 21
121.503170
 31
0.0
  0
SPLINE
  5
1cf
100
AcDbEntity
  8
0
 62
7
100
AcDbSpline
 70
8
 71
3
 72
8
 73
4
 74
0
 40
0
 40
0
 40
0
 40
0
 40
1
 40
1
 40
1
 40
1
 10
78.550835
 20
121.503170
 30
0.0
 10
78.550835
 20
121.778796
 30
0.0
 10
78.894325
 20
122.035394
 30
0.0
 10
79.245980
 20
122.035394
 30
0.0
  0
LINE
  5
1d0
100
AcDbEntity
  8
0
 62
7
100
AcDbLine
 10
79.245980
 20
122.035394
 30
0.0
 11
81.592097
 21
122.035394
 31
0.0
  0
SPLINE
  5
1d1
100
AcDbEntity
  8
0
 62
7
100
AcDbSpline
 70
8
 71
3
 72
8
 73
4
 74
0
 40
0
 40
0
 40
0
 40
0
 40
1
 40
1
 40
1
 40
1
 10
81.592097
 20
122.035394
 30
0.0
 10
81.856861
 20
122.035394
 30
0.0
 10
82.156902
 20
121.746215
 30
0.0
 10
82.156902
 20
121.481451
 30
0.0
  0
LINE
  5
1d2
100
AcDbEntity
  8
0
 62
7
100
AcDbLine
 10
82.156902
 20
121.481451
 30
0.0
 11
82.156902
 21
115.994780
 31
0.0
  0
SPLINE
  5
1d3
100
AcDbEntity
  8
0
 62
7
100
AcDbSpline
 70
8
 71
3
 72
8
 73
4
 74
0
 40
0
 40
0
 40
0
 40
0
 40
1
 40
1
 40
1
 40
1
 10
82.156902
 20
115.994780
 30
0.0
 10
82.156902
 20
115.730016
 30
0.0
 10
81.889442
 20
115.451694
 30
0.0
 10
81.624678
 20
115.451694
 30
0.0
  0
LINE
  5
1d4
100
AcDbEntity
  8
0
 62
7
100
AcDbLine
 10
81.624678
 20
115.451694
 30
0.0
 11
79.245980
 21
115.451694
 31
0.0
  0
SPLINE
  5
1d5
100
AcDbEntity
  8
0
 62
7
100
AcDbSpline
 70
8
 71
3
 72
8
 73
4
 74
0
 40
0
 40
0
 40
0
 40
0
 40
1
 40
1
 40
1
 40
1
 10
81.287981
 20
113.172283
 30
0.0
 10
82.924698
 20
113.172283
 30
0.0
 10
84.242346
 20
114.489931
 30
0.0
 10
84.242346
 20
116.126653
 30
0.0
  0
LINE
  5
1d6
100
AcDbEntity
  8
0
 62
7
100
AcDbLine
 10
84.242346
 20
116.126653
 30
0.0
 11
84.242346
 21
121.514027
 31
0.0
  0
SPLINE
  5
1d7
100
AcDbEntity
  8
0
 62
7
100
AcDbSpline
 70
8
 71
3
 72
8
 73
4
 74
0
 40
0
 40
0
 40
0
 40
0
 40
1
 40
1
 40
1
 40
1
 10
84.242346
 20
121.514027
 30
0.0
 10
84.242346
 20
123.150749
 30
0.0
 10
82.924698
 20
124.468398
 30
0.0
 10
81.287981
 20
124.468398
 30
0.0
  0
LINE
  5
1d8
100
AcDbEntity
  8
0
 62
7
100
AcDbLine
 10
81.287981
 20
124.468398
 30
0.0
 11
79.202542
 21
124.468398
 31
0.0
  0
SPLINE
  5
1d9
100
AcDbEntity
  8
0
 62
7
100
AcDbSpline
 70
8
 71
3
 72
8
 73
4
 74
0
 40
0
 40
0
 40
0
 40
0
 40
1
 40
1
 40
1
 40
1
 10
79.202542
 20
124.468398
 30
0.0
 10
77.565825
 20
124.468398
 30
0.0
 10
76.248177
 20
123.150749
 30
0.0
 10
76.248177
 20
121.514027
 30
0.0
  0
LINE
  5
1da
100
AcDbEntity
  8
0
 62
7
100
AcDbLine
 10
76.248177
 20
121.514027
 30
0.0
 11
76.248177
 21
116.126653
 31
0.0
  0
SPLINE
  5
1db
100
AcDbEntity
  8
0
 62
7
100
AcDbSpline
 70
8
 71
3
 72
8
 73
4
 74
0
 40
0
 40
0
 40
0
 40
0
 40
1
 40
1
 40
1
 40
1
 10
76.248177
 20
116.126653
 30
0.0
 10
76.248177
 20
114.489931
 30
0.0
 10
77.565825
 20
113.172283
 30
0.0
 10
79.202542
 20
113.172283
 30
0.0
  0
LINE
  5
1dc
100
AcDbEntity
  8
0
 62
7
100
AcDbLine
 10
79.202542
 20
113.172283
 30
0.0
 11
81.287981
 21
113.172283
 31
0.0
  0
LINE
  5
1dd
100
AcDbEntity
  8
0
 62
7
100
AcDbLine
 10
94.082986
 20
124.370644
 30
0.0
 11
99.257042
 21
124.370644
 31
0.0
  0
SPLINE
  5
1de
100
AcDbEntity
  8
0
 62
7
100
AcDbSpline
 70
8
 71
3
 72
8
 73
4
 74
0
 40
0
 40
0
 40
0
 40
0
 40
1
 40
1
 40
1
 40
1
 10
99.257042
 20
124.370644
 30
0.0
 10
100.802979
 20
124.370644
 30
0.0
 10
102.011988
 20
123.339190
 30
0.0
 10
102.011988
 20
121.731263
 30
0.0
  0
LINE
  5
1df
100
AcDbEntity
  8
0
 62
7
100
AcDbLine
 10
102.011988
 20
121.731263
 30
0.0
 11
102.011988
 21
113.218441
 31
0.0
  0
LINE
  5
1e0
100
AcDbEntity
  8
0
 62
7
100
AcDbLine
 10
102.011988
 20
113.218441
 30
0.0
 11
99.687594
 21
113.218441
 31
0.0
  0
LINE
  5
1e1
100
AcDbEntity
  8
0
 62
7
100
AcDbLine
 10
99.687594
 20
113.218441
 30
0.0
 11
99.687594
 21
121.698677
 31
0.0
  0
SPLINE
  5
1e2
100
AcDbEntity
  8
0
 62
7
100
AcDbSpline
 70
8
 71
3
 72
8
 73
4
 74
0
 40
0
 40
0
 40
0
 40
0
 40
1
 40
1
 40
1
 40
1
 10
99.687594
 20
121.698677
 30
0.0
 10
99.610977
 20
122.077659
 30
0.0
 10
99.393694
 20
122.175320
 30
0.0
 10
99.155374
 20
122.230895
 30
0.0
  0
LINE
  5
1e3
100
AcDbEntity
  8
0
 62
7
100
AcDbLine
 10
99.155374
 20
122.230895
 30
0.0
 11
96.602883
 21
122.230895
 31
0.0
  0
SPLINE
  5
1e4
100
AcDbEntity
  8
0
 62
7
100
AcDbSpline
 70
8
 71
3
 72
8
 73
4
 74
0
 40
0
 40
0
 40
0
 40
0
 40
1
 40
1
 40
1
 40
1
 10
96.602883
 20
122.230895
 30
0.0
 10
96.406727
 20
122.239277
 30
0.0
 10
96.285027
 20
122.158307
 30
0.0
 10
96.293328
 20
121.921339
 30
0.0
  0
LINE
  5
1e5
100
AcDbEntity
  8
0
 62
7
100
AcDbLine
 10
96.293328
 20
121.921339
 30
0.0
 11
96.293328
 21
113.218441
 31
0.0
  0
SPLINE
  5
1e6
100
AcDbEntity
  8
0
 62
7
100
AcDbSpline
 70
8
 71
3
 72
8
 73
4
 74
0
 40
0
 40
0
 40
0
 40
0
 40
1
 40
1
 40
1
 40
1
 10
96.293328
 20
113.218441
 30
0.0
 10
96.293328
 20
113.218441
 30
0.0
 10
94.244355
 20
113.114098
 30
0.0
 10
94.080268
 20
113.218441
 30
0.0
  0
LINE
  5
1e7
100
AcDbEntity
  8
0
 62
7
100
AcDbLine
 10
94.080268
 20
113.218441
 30
0.0
 11
94.082986
 21
124.370644
 31
0.0
  0
LINE
  5
1e8
100
AcDbEntity
  8
0
 62
1
100
AcDbLine
 10
59.249341
 20
77.457337
 30
0.0
 11
59.249341
 21
74.363973
 31
0.0
  0
LINE
  5
1e9
100
AcDbEntity
  8
0
 62
1
100
AcDbLine
 10
59.249341
 20
74.363973
 30
0.0
 11
60.748813
 21
72.864500
 31
0.0
  0
LINE
  5
1ea
100
AcDbEntity
  8
0
 62
1
100
AcDbLine
 10
60.748813
 20
72.864500
 30
0.0
 11
62.247475
 21
74.363163
 31
0.0
  0
LINE
  5
1eb
100
AcDbEntity
  8
0
 62
1
100
AcDbLine
 10
62.247475
 20
74.363163
 30
0.0
 11
62.247475
 21
77.457337
 31
0.0
  0
LINE
  5
1ec
100
AcDbEntity
  8
0
 62
1
100
AcDbLine
 10
62.247475
 20
77.457337
 30
0.0
 11
59.249341
 21
77.457337
 31
0.0
  0
LINE
  5
1ed
100
AcDbEntity
  8
0
 62
1
100
AcDbLine
 10
62.247475
 20
74.363163
 30
0.0
 11
62.247475
 21
72.243084
 31
0.0
  0
LINE
  5
1ee
100
AcDbEntity
  8
0
 62
1
100
AcDbLine
 10
62.247475
 20
72.243084
 30
0.0
 11
64.366750
 21
72.243084
 31
0.0
  0
LINE
  5
1ef
100
AcDbEntity
  8
0
 62
1
100
AcDbLine
 10
64.366750
 20
72.243084
 30
0.0
 11
66.554621
 21
74.430958
 31
0.0
  0
LINE
  5
1f0
100
AcDbEntity
  8
0
 62
1
100
AcDbLine
 10
66.554621
 20
74.430958
 30
0.0
 11
64.435347
 21
76.551037
 31
0.0
  0
LINE
  5
1f1
100
AcDbEntity
  8
0
 62
1
100
AcDbLine
 10
64.435347
 20
76.551037
 30
0.0
 11
62.247475
 21
74.363163
 31
0.0
  0
LINE
  5
1f2
100
AcDbEntity
  8
0
 62
1
100
AcDbLine
 10
64.366750
 20
72.243084
 30
0.0
 11
62.868088
 21
70.744422
 31
0.0
  0
LINE
  5
1f3
100
AcDbEntity
  8
0
 62
1
100
AcDbLine
 10
62.868088
 20
70.744422
 30
0.0
 11
64.366750
 21
69.245760
 31
0.0
  0
LINE
  5
1f4
100
AcDbEntity
  8
0
 62
1
100
AcDbLine
 10
64.366750
 20
69.245760
 30
0.0
 11
67.460918
 21
69.245760
 31
0.0
  0
LINE
  5
1f5
100
AcDbEntity
  8
0
 62
1
100
AcDbLine
 10
67.460918
 20
69.245760
 30
0.0
 11
67.460918
 21
72.243084
 31
0.0
  0
LINE
  5
1f6
100
AcDbEntity
  8
0
 62
1
100
AcDbLine
 10
67.460918
 20
72.243084
 30
0.0
 11
64.366750
 21
72.243084
 31
0.0
  0
LINE
  5
1f7
100
AcDbEntity
  8
0
 62
1
100
AcDbLine
 10
62.247238
 20
69.245695
 30
0.0
 11
62.247238
 21
67.125616
 31
0.0
  0
LINE
  5
1f8
100
AcDbEntity
  8
0
 62
1
100
AcDbLine
 10
62.247238
 20
67.125616
 30
0.0
 11
64.435107
 21
64.937745
 31
0.0
  0
LINE
  5
1f9
100
AcDbEntity
  8
0
 62
1
100
AcDbLine
 10
64.435107
 20
64.937745
 30
0.0
 11
66.554381
 21
67.057826
 31
0.0
  0
LINE
  5
1fa
100
AcDbEntity
  8
0
 62
1
100
AcDbLine
 10
66.554381
 20
67.057826
 30
0.0
 11
64.366513
 21
69.245695
 31
0.0
  0
LINE
  5
1fb
100
AcDbEntity
  8
0
 62
1
100
AcDbLine
 10
64.366513
 20
69.245695
 30
0.0
 11
62.247238
 21
69.245695
 31
0.0
  0
LINE
  5
1fc
100
AcDbEntity
  8
0
 62
1
100
AcDbLine
 10
62.247238
 20
69.245695
 30
0.0
 11
62.247238
 21
69.245695
 31
0.0
  0
LINE
  5
1fd
100
AcDbEntity
  8
0
 62
1
100
AcDbLine
 10
62.247475
 20
67.125681
 30
0.0
 11
60.748813
 21
68.624343
 31
0.0
  0
LINE
  5
1fe
100
AcDbEntity
  8
0
 62
1
100
AcDbLine
 10
60.748813
 20
68.624343
 30
0.0
 11
59.249341
 21
67.124877
 31
0.0
  0
LINE
  5
1ff
100
AcDbEntity
  8
0
 62
1
100
AcDbLine
 10
59.249341
 20
67.124877
 30
0.0
 11
59.249341
 21
64.032317
 31
0.0
  0
LINE
  5
200
100
AcDbEntity
  8
0
 62
1
100
AcDbLine
 10
59.249341
 20
64.032317
 30
0.0
 11
62.247475
 21
64.032317
 31
0.0
  0
LINE
  5
201
100
AcDbEntity
  8
0
 62
1
100
AcDbLine
 10
62.247475
 20
64.032317
 30
0.0
 11
62.247475
 21
67.125681
 31
0.0
  0
LINE
  5
202
100
AcDbEntity
  8
0
 62
1
100
AcDbLine
 10
59.249341
 20
67.124854
 30
0.0
 11
59.249341
 21
69.245740
 31
0.0
  0
LINE
  5
203
100
AcDbEntity
  8
0
 62
1
100
AcDbLine
 10
59.249341
 20
69.245740
 30
0.0
 11
57.130072
 21
69.245740
 31
0.0
  0
LINE
  5
204
100
AcDbEntity
  8
0
 62
1
100
AcDbLine
 10
57.130072
 20
69.245740
 30
0.0
 11
54.942204
 21
67.057871
 31
0.0
  0
LINE
  5
205
100
AcDbEntity
  8
0
 62
1
100
AcDbLine
 10
54.942204
 20
67.057871
 30
0.0
 11
57.062283
 21
64.937790
 31
0.0
  0
LINE
  5
206
100
AcDbEntity
  8
0
 62
1
100
AcDbLine
 10
57.062283
 20
64.937790
 30
0.0
 11
59.249341
 21
67.124854
 31
0.0
  0
LINE
  5
207
100
AcDbEntity
  8
0
 62
1
100
AcDbLine
 10
57.130072
 20
69.245740
 30
0.0
 11
58.628734
 21
70.744402
 31
0.0
  0
LINE
  5
208
100
AcDbEntity
  8
0
 62
1
100
AcDbLine
 10
58.628734
 20
70.744402
 30
0.0
 11
57.130072
 21
72.243064
 31
0.0
  0
LINE
  5
209
100
AcDbEntity
  8
0
 62
1
100
AcDbLine
 10
57.130072
 20
72.243064
 30
0.0
 11
54.035904
 21
72.243064
 31
0.0
  0
LINE
  5
20a
100
AcDbEntity
  8
0
 62
1
100
AcDbLine
 10
54.035904
 20
72.243064
 30
0.0
 11
54.035904
 21
69.245740
 31
0.0
  0
LINE
  5
20b
100
AcDbEntity
  8
0
 62
1
100
AcDbLine
 10
54.035904
 20
69.245740
 30
0.0
 11
57.130072
 21
69.245740
 31
0.0
  0
LINE
  5
20c
100
AcDbEntity
  8
0
 62
1
100
AcDbLine
 10
57.062283
 20
76.551037
 30
0.0
 11
54.942204
 21
74.430958
 31
0.0
  0
LINE
  5
20d
100
AcDbEntity
  8
0
 62
1
100
AcDbLine
 10
54.942204
 20
74.430958
 30
0.0
 11
57.130072
 21
72.243084
 31
0.0
  0
LINE
  5
20e
100
AcDbEntity
  8
0
 62
1
100
AcDbLine
 10
57.130072
 20
72.243084
 30
0.0
 11
59.249341
 21
72.243084
 31
0.0
  0
LINE
  5
20f
100
AcDbEntity
  8
0
 62
1
100
AcDbLine
 10
59.249341
 20
72.243084
 30
0.0
 11
59.249341
 21
74.363973
 31
0.0
  0
LINE
  5
210
100
AcDbEntity
  8
0
 62
1
100
AcDbLine
 10
59.249341
 20
74.363973
 30
0.0
 11
57.062283
 21
76.551037
 31
0.0
  0
LINE
  5
211
100
AcDbEntity
  8
0
 62
1
100
AcDbLine
 10
57.062283
 20
76.551037
 30
0.0
 11
57.062283
 21
76.551037
 31
0.0
  0
LINE
  5
212
100
AcDbEntity
  8
0
 62
2
100
AcDbLine
 10
59.249341
 20
72.243490
 30
0.0
 11
59.249341
 21
71.365435
 31
0.0
  0
LINE
  5
213
100
AcDbEntity
  8
0
 62
2
100
AcDbLine
 10
59.249341
 20
71.365435
 30
0.0
 11
60.127393
 21
72.243490
 31
0.0
  0
LINE
  5
214
100
AcDbEntity
  8
0
 62
2
100
AcDbLine
 10
60.127393
 20
72.243490
 30
0.0
 11
59.249341
 21
72.243490
 31
0.0
  0
LINE
  5
215
100
AcDbEntity
  8
0
 62
2
100
AcDbLine
 10
60.127393
 20
72.243490
 30
0.0
 11
61.370232
 21
72.243490
 31
0.0
  0
LINE
  5
216
100
AcDbEntity
  8
0
 62
2
100
AcDbLine
 10
61.370232
 20
72.243490
 30
0.0
 11
60.748813
 21
72.864907
 31
0.0
  0
LINE
  5
217
100
AcDbEntity
  8
0
 62
2
100
AcDbLine
 10
60.748813
 20
72.864907
 30
0.0
 11
60.127393
 21
72.243490
 31
0.0
  0
LINE
  5
218
100
AcDbEntity
  8
0
 62
2
100
AcDbLine
 10
61.370232
 20
72.243490
 30
0.0
 11
62.247475
 21
71.365435
 31
0.0
  0
LINE
  5
219
100
AcDbEntity
  8
0
 62
2
100
AcDbLine
 10
62.247475
 20
71.365435
 30
0.0
 11
62.247475
 21
72.243490
 31
0.0
  0
LINE
  5
21a
100
AcDbEntity
  8
0
 62
2
100
AcDbLine
 10
62.247475
 20
72.243490
 30
0.0
 11
61.370232
 21
72.243490
 31
0.0
  0
LINE
  5
21b
100
AcDbEntity
  8
0
 62
2
100
AcDbLine
 10
62.247475
 20
71.365435
 30
0.0
 11
62.247475
 21
70.124219
 31
0.0
  0
LINE
  5
21c
100
AcDbEntity
  8
0
 62
2
100
AcDbLine
 10
62.247475
 20
70.124219
 30
0.0
 11
62.868087
 21
70.744828
 31
0.0
  0
LINE
  5
21d
100
AcDbEntity
  8
0
 62
2
100
AcDbLine
 10
62.868087
 20
70.744828
 30
0.0
 11
62.247475
 21
71.365435
 31
0.0
  0
LINE
  5
21e
100
AcDbEntity
  8
0
 62
2
100
AcDbLine
 10
62.247475
 20
70.124219
 30
0.0
 11
61.370232
 21
69.246166
 31
0.0
  0
LINE
  5
21f
100
AcDbEntity
  8
0
 62
2
100
AcDbLine
 10
61.370232
 20
69.246166
 30
0.0
 11
62.247475
 21
69.246166
 31
0.0
  0
LINE
  5
220
100
AcDbEntity
  8
0
 62
2
100
AcDbLine
 10
62.247475
 20
69.246166
 30
0.0
 11
62.247475
 21
70.124219
 31
0.0
  0
LINE
  5
221
100
AcDbEntity
  8
0
 62
2
100
AcDbLine
 10
61.370232
 20
69.246166
 30
0.0
 11
60.127393
 21
69.246166
 31
0.0
  0
LINE
  5
222
100
AcDbEntity
  8
0
 62
2
100
AcDbLine
 10
60.127393
 20
69.246166
 30
0.0
 11
60.748813
 21
68.624747
 31
0.0
  0
LINE
  5
223
100
AcDbEntity
  8
0
 62
2
100
AcDbLine
 10
60.748813
 20
68.624747
 30
0.0
 11
61.370232
 21
69.246166
 31
0.0
  0
LINE
  5
224
100
AcDbEntity
  8
0
 62
2
100
AcDbLine
 10
60.127393
 20
69.246166
 30
0.0
 11
59.249341
 21
70.124219
 31
0.0
  0
LINE
  5
225
100
AcDbEntity
  8
0
 62
2
100
AcDbLine
 10
59.249341
 20
70.124219
 30
0.0
 11
59.249341
 21
69.246166
 31
0.0
  0
LINE
  5
226
100
AcDbEntity
  8
0
 62
2
100
AcDbLine
 10
59.249341
 20
69.246166
 30
0.0
 11
60.127393
 21
69.246166
 31
0.0
  0
LINE
  5
227
100
AcDbEntity
  8
0
 62
2
100
AcDbLine
 10
59.249341
 20
70.124219
 30
0.0
 11
59.249341
 21
71.365435
 31
0.0
  0
LINE
  5
228
100
AcDbEntity
  8
0
 62
2
100
AcDbLine
 10
59.249341
 20
71.365435
 30
0.0
 11
58.628734
 21
70.744828
 31
0.0
  0
LINE
  5
229
100
AcDbEntity
  8
0
 62
2
100
AcDbLine
 10
58.628734
 20
70.744828
 30
0.0
 11
59.249341
 21
70.124219
 31
0.0
  0
LINE
  5
22a
100
AcDbEntity
  8
0
 62
5
100
AcDbLine
 10
61.370235
 20
69.246165
 30
0.0
 11
60.127399
 21
69.246165
 31
0.0
  0
LINE
  5
22b
100
AcDbEntity
  8
0
 62
5
100
AcDbLine
 10
60.127399
 20
69.246165
 30
0.0
 11
59.249344
 21
70.124220
 31
0.0
  0
LINE
  5
22c
100
AcDbEntity
  8
0
 62
5
100
AcDbLine
 10
59.249344
 20
70.124220
 30
0.0
 11
59.249344
 21
71.365436
 31
0.0
  0
LINE
  5
22d
100
AcDbEntity
  8
0
 62
5
100
AcDbLine
 10
59.249344
 20
71.365436
 30
0.0
 11
60.127399
 21
72.243489
 31
0.0
  0
LINE
  5
22e
100
AcDbEntity
  8
0
 62
5
100
AcDbLine
 10
60.127399
 20
72.243489
 30
0.0
 11
61.370235
 21
72.243489
 31
0.0
  0
LINE
  5
22f
100
AcDbEntity
  8
0
 62
5
100
AcDbLine
 10
61.370235
 20
72.243489
 30
0.0
 11
62.247478
 21
71.365436
 31
0.0
  0
LINE
  5
230
100
AcDbEntity
  8
0
 62
5
100
AcDbLine
 10
62.247478
 20
71.365436
 30
0.0
 11
62.247478
 21
70.124220
 31
0.0
  0
LINE
  5
231
100
AcDbEntity
  8
0
 62
5
100
AcDbLine
 10
62.247478
 20
70.124220
 30
0.0
 11
61.370235
 21
69.246165
 31
0.0
  0
LINE
  5
232
100
AcDbEntity
  8
0
 62
6
100
AcDbLine
 10
62.247475
 20
74.363740
 30
0.0
 11
62.247475
 21
72.243661
 31
0.0
  0
LINE
  5
233
100
AcDbEntity
  8
0
 62
6
100
AcDbLine
 10
62.247475
 20
72.243661
 30
0.0
 11
64.366750
 21
72.243661
 31
0.0
  0
LINE
  5
234
100
AcDbEntity
  8
0
 62
6
100
AcDbLine
 10
64.366750
 20
72.243661
 30
0.0
 11
62.868088
 21
70.744999
 31
0.0
  0
LINE
  5
235
100
AcDbEntity
  8
0
 62
6
100
AcDbLine
 10
62.868088
 20
70.744999
 30
0.0
 11
64.366631
 21
69.246303
 31
0.0
  0
LINE
  5
236
100
AcDbEntity
  8
0
 62
6
100
AcDbLine
 10
64.366631
 20
69.246303
 30
0.0
 11
62.247238
 21
69.246272
 31
0.0
  0
LINE
  5
237
100
AcDbEntity
  8
0
 62
6
100
AcDbLine
 10
62.247238
 20
69.246272
 30
0.0
 11
62.247357
 21
67.126224
 31
0.0
  0
LINE
  5
238
100
AcDbEntity
  8
0
 62
6
100
AcDbLine
 10
62.247357
 20
67.126224
 30
0.0
 11
60.748813
 21
68.624920
 31
0.0
  0
LINE
  5
239
100
AcDbEntity
  8
0
 62
6
100
AcDbLine
 10
60.748813
 20
68.624920
 30
0.0
 11
59.249341
 21
67.125442
 31
0.0
  0
LINE
  5
23a
100
AcDbEntity
  8
0
 62
6
100
AcDbLine
 10
59.249341
 20
67.125442
 30
0.0
 11
59.249341
 21
69.246317
 31
0.0
  0
LINE
  5
23b
100
AcDbEntity
  8
0
 62
6
100
AcDbLine
 10
59.249341
 20
69.246317
 30
0.0
 11
57.130072
 21
69.246317
 31
0.0
  0
LINE
  5
23c
100
AcDbEntity
  8
0
 62
6
100
AcDbLine
 10
57.130072
 20
69.246317
 30
0.0
 11
58.628734
 21
70.744976
 31
0.0
  0
LINE
  5
23d
100
AcDbEntity
  8
0
 62
6
100
AcDbLine
 10
58.628734
 20
70.744976
 30
0.0
 11
57.130072
 21
72.243650
 31
0.0
  0
LINE
  5
23e
100
AcDbEntity
  8
0
 62
6
100
AcDbLine
 10
57.130072
 20
72.243650
 30
0.0
 11
59.249341
 21
72.243661
 31
0.0
  0
LINE
  5
23f
100
AcDbEntity
  8
0
 62
6
100
AcDbLine
 10
59.249341
 20
72.243661
 30
0.0
 11
59.249341
 21
74.364550
 31
0.0
  0
LINE
  5
240
100
AcDbEntity
  8
0
 62
6
100
AcDbLine
 10
59.249341
 20
74.364550
 30
0.0
 11
60.751009
 21
72.866111
 31
0.0
  0
LINE
  5
241
100
AcDbEntity
  8
0
 62
6
100
AcDbLine
 10
60.751009
 20
72.866111
 30
0.0
 11
62.247475
 21
74.363740
 31
0.0
  0
LINE
  5
242
100
AcDbEntity
  8
0
 62
6
100
AcDbLine
 10
60.127219
 20
72.243630
 30
0.0
 11
59.249166
 21
72.243630
 31
0.0
  0
LINE
  5
243
100
AcDbEntity
  8
0
 62
6
100
AcDbLine
 10
59.249166
 20
72.243630
 30
0.0
 11
59.249166
 21
71.365575
 31
0.0
  0
LINE
  5
244
100
AcDbEntity
  8
0
 62
6
100
AcDbLine
 10
59.249166
 20
71.365575
 30
0.0
 11
58.628559
 21
70.744968
 31
0.0
  0
LINE
  5
245
100
AcDbEntity
  8
0
 62
6
100
AcDbLine
 10
58.628559
 20
70.744968
 30
0.0
 11
59.249166
 21
70.124358
 31
0.0
  0
LINE
  5
246
100
AcDbEntity
  8
0
 62
6
100
AcDbLine
 10
59.249166
 20
70.124358
 30
0.0
 11
59.249166
 21
69.246306
 31
0.0
  0
LINE
  5
247
100
AcDbEntity
  8
0
 62
6
100
AcDbLine
 10
59.249166
 20
69.246306
 30
0.0
 11
60.127219
 21
69.246306
 31
0.0
  0
LINE
  5
248
100
AcDbEntity
  8
0
 62
6
100
AcDbLine
 10
60.127219
 20
69.246306
 30
0.0
 11
60.748638
 21
68.624889
 31
0.0
  0
LINE
  5
249
100
AcDbEntity
  8
0
 62
6
100
AcDbLine
 10
60.748638
 20
68.624889
 30
0.0
 11
61.370058
 21
69.246306
 31
0.0
  0
LINE
  5
24a
100
AcDbEntity
  8
0
 62
6
100
AcDbLine
 10
61.370058
 20
69.246306
 30
0.0
 11
62.247300
 21
69.246306
 31
0.0
  0
LINE
  5
24b
100
AcDbEntity
  8
0
 62
6
100
AcDbLine
 10
62.247300
 20
69.246306
 30
0.0
 11
62.247300
 21
70.124358
 31
0.0
  0
LINE
  5
24c
100
AcDbEntity
  8
0
 62
6
100
AcDbLine
 10
62.247300
 20
70.124358
 30
0.0
 11
62.867913
 21
70.744968
 31
0.0
  0
LINE
  5
24d
100
AcDbEntity
  8
0
 62
6
100
AcDbLine
 10
62.867913
 20
70.744968
 30
0.0
 11
62.247300
 21
71.365575
 31
0.0
  0
LINE
  5
24e
100
AcDbEntity
  8
0
 62
6
100
AcDbLine
 10
62.247300
 20
71.365575
 30
0.0
 11
62.247300
 21
72.243630
 31
0.0
  0
LINE
  5
24f
100
AcDbEntity
  8
0
 62
6
100
AcDbLine
 10
62.247300
 20
72.243630
 30
0.0
 11
61.370058
 21
72.243630
 31
0.0
  0
LINE
  5
250
100
AcDbEntity
  8
0
 62
6
100
AcDbLine
 10
61.370058
 20
72.243630
 30
0.0
 11
60.748596
 21
72.865010
 31
0.0
  0
LINE
  5
251
100
AcDbEntity
  8
0
 62
6
100
AcDbLine
 10
60.748596
 20
72.865010
 30
0.0
 11
60.127219
 21
72.243630
 31
0.0
  0
LINE
  5
252
100
AcDbEntity
  8
0
 62
6
100
AcDbLine
 10
111.325509
 20
69.698168
 30
0.0
 11
111.325509
 21
72.711633
 31
0.0
  0
LINE
  5
253
100
AcDbEntity
  8
0
 62
6
100
AcDbLine
 10
111.325509
 20
72.711633
 30
0.0
 11
114.216701
 21
72.729891
 31
0.0
  0
LINE
  5
254
100
AcDbEntity
  8
0
 62
6
100
AcDbLine
 10
114.216701
 20
72.729891
 30
0.0
 11
114.216701
 21
69.698166
 31
0.0
  0
LINE
  5
255
100
AcDbEntity
  8
0
 62
6
100
AcDbLine
 10
114.216701
 20
69.698166
 30
0.0
 11
111.325509
 21
69.698168
 31
0.0
  0
LINE
  5
256
100
AcDbEntity
  8
0
 62
6
100
AcDbLine
 10
124.083108
 20
73.404924
 30
0.0
 11
124.083108
 21
76.481874
 31
0.0
  0
SPLINE
  5
257
100
AcDbEntity
  8
0
 62
6
100
AcDbSpline
 70
8
 71
3
 72
8
 73
4
 74
0
 40
0
 40
0
 40
0
 40
0
 40
1
 40
1
 40
1
 40
1
 10
124.083108
 20
76.481874
 30
0.0
 10
124.083108
 20
76.954008
 30
0.0
 10
123.703014
 20
77.334102
 30
0.0
 10
123.230880
 20
77.334102
 30
0.0
  0
LINE
  5
258
100
AcDbEntity
  8
0
 62
6
100
AcDbLine
 10
123.230880
 20
77.334102
 30
0.0
 11
112.177738
 21
77.334102
 31
0.0
  0
SPLINE
  5
259
100
AcDbEntity
  8
0
 62
6
100
AcDbSpline
 70
8
 71
3
 72
8
 73
4
 74
0
 40
0
 40
0
 40
0
 40
0
 40
1
 40
1
 40
1
 40
1
 10
112.177738
 20
77.334102
 30
0.0
 10
111.705603
 20
77.334102
 30
0.0
 10
111.325509
 20
76.954008
 30
0.0
 10
111.325509
 20
76.481874
 30
0.0
  0
LINE
  5
25a
100
AcDbEntity
  8
0
 62
6
100
AcDbLine
 10
111.325509
 20
76.481874
 30
0.0
 11
111.325509
 21
73.423185
 31
0.0
  0
LINE
  5
25b
100
AcDbEntity
  8
0
 62
6
100
AcDbLine
 10
111.325509
 20
73.423185
 30
0.0
 11
114.216701
 21
73.386664
 31
0.0
  0
LINE
  5
25c
100
AcDbEntity
  8
0
 62
6
100
AcDbLine
 10
114.216701
 20
73.386664
 30
0.0
 11
114.216701
 21
73.832469
 31
0.0
  0
SPLINE
  5
25d
100
AcDbEntity
  8
0
 62
6
100
AcDbSpline
 70
8
 71
3
 72
8
 73
4
 74
0
 40
0
 40
0
 40
0
 40
0
 40
1
 40
1
 40
1
 40
1
 10
114.216701
 20
73.832469
 30
0.0
 10
114.216701
 20
74.192104
 30
0.0
 10
114.506227
 20
74.481630
 30
0.0
 10
114.865862
 20
74.481630
 30
0.0
  0
LINE
  5
25e
100
AcDbEntity
  8
0
 62
6
100
AcDbLine
 10
114.865862
 20
74.481630
 30
0.0
 11
120.387815
 21
74.481630
 31
0.0
  0
SPLINE
  5
25f
100
AcDbEntity
  8
0
 62
6
100
AcDbSpline
 70
8
 71
3
 72
8
 73
4
 74
0
 40
0
 40
0
 40
0
 40
0
 40
1
 40
1
 40
1
 40
1
 10
120.387815
 20
74.481630
 30
0.0
 10
120.747450
 20
74.481630
 30
0.0
 10
121.036976
 20
74.192104
 30
0.0
 10
121.036976
 20
73.832469
 30
0.0
  0
LINE
  5
260
100
AcDbEntity
  8
0
 62
6
100
AcDbLine
 10
121.036976
 20
73.832469
 30
0.0
 11
121.036976
 21
73.441447
 31
0.0
  0
LINE
  5
261
100
AcDbEntity
  8
0
 62
6
100
AcDbLine
 10
121.036976
 20
73.441447
 30
0.0
 11
124.083108
 21
73.404924
 31
0.0
  0
LINE
  5
262
100
AcDbEntity
  8
0
 62
6
100
AcDbLine
 10
121.037063
 20
68.986616
 30
0.0
 11
121.036976
 21
68.491359
 31
0.0
  0
SPLINE
  5
263
100
AcDbEntity
  8
0
 62
6
100
AcDbSpline
 70
8
 71
3
 72
8
 73
4
 74
0
 40
0
 40
0
 40
0
 40
0
 40
1
 40
1
 40
1
 40
1
 10
121.036976
 20
68.491359
 30
0.0
 10
121.036914
 20
68.131723
 30
0.0
 10
120.747450
 20
67.842197
 30
0.0
 10
120.387815
 20
67.842197
 30
0.0
  0
LINE
  5
264
100
AcDbEntity
  8
0
 62
6
100
AcDbLine
 10
120.387815
 20
67.842197
 30
0.0
 11
114.865862
 21
67.842197
 31
0.0
  0
SPLINE
  5
265
100
AcDbEntity
  8
0
 62
6
100
AcDbSpline
 70
8
 71
3
 72
8
 73
4
 74
0
 40
0
 40
0
 40
0
 40
0
 40
1
 40
1
 40
1
 40
1
 10
114.865862
 20
67.842197
 30
0.0
 10
114.506227
 20
67.842197
 30
0.0
 10
114.216701
 20
68.131723
 30
0.0
 10
114.216701
 20
68.491359
 30
0.0
  0
LINE
  5
266
100
AcDbEntity
  8
0
 62
6
100
AcDbLine
 10
114.216701
 20
68.491359
 30
0.0
 11
114.216789
 21
68.986616
 31
0.0
  0
LINE
  5
267
100
AcDbEntity
  8
0
 62
6
100
AcDbLine
 10
114.216789
 20
68.986616
 30
0.0
 11
111.325597
 21
68.986616
 31
0.0
  0
LINE
  5
268
100
AcDbEntity
  8
0
 62
6
100
AcDbLine
 10
111.325597
 20
68.986616
 30
0.0
 11
111.325509
 21
65.919454
 31
0.0
  0
SPLINE
  5
269
100
AcDbEntity
  8
0
 62
6
100
AcDbSpline
 70
8
 71
3
 72
8
 73
4
 74
0
 40
0
 40
0
 40
0
 40
0
 40
1
 40
1
 40
1
 40
1
 10
111.325509
 20
65.919454
 30
0.0
 10
111.325509
 20
65.447320
 30
0.0
 10
111.705603
 20
65.067226
 30
0.0
 10
112.177738
 20
65.067226
 30
0.0
  0
LINE
  5
26a
100
AcDbEntity
  8
0
 62
6
100
AcDbLine
 10
112.177738
 20
65.067226
 30
0.0
 11
123.230880
 21
65.067226
 31
0.0
  0
SPLINE
  5
26b
100
AcDbEntity
  8
0
 62
6
100
AcDbSpline
 70
8
 71
3
 72
8
 73
4
 74
0
 40
0
 40
0
 40
0
 40
0
 40
1
 40
1
 40
1
 40
1
 10
123.230880
 20
65.067226
 30
0.0
 10
123.703014
 20
65.067226
 30
0.0
 10
124.083093
 20
65.447320
 30
0.0
 10
124.083108
 20
65.919454
 30
0.0
  0
LINE
  5
26c
100
AcDbEntity
  8
0
 62
6
100
AcDbLine
 10
124.083108
 20
65.919454
 30
0.0
 11
124.083196
 21
68.986616
 31
0.0
  0
LINE
  5
26d
100
AcDbEntity
  8
0
 62
6
100
AcDbLine
 10
124.083196
 20
68.986616
 30
0.0
 11
121.037063
 21
68.986616
 31
0.0
  0
LINE
  5
26e
100
AcDbEntity
  8
0
 62
6
100
AcDbLine
 10
121.036976
 20
69.698168
 30
0.0
 11
121.036976
 21
72.729894
 31
0.0
  0
LINE
  5
26f
100
AcDbEntity
  8
0
 62
6
100
AcDbLine
 10
121.036976
 20
72.729894
 30
0.0
 11
124.083108
 21
72.675110
 31
0.0
  0
LINE
  5
270
100
AcDbEntity
  8
0
 62
6
100
AcDbLine
 10
124.083108
 20
72.675110
 30
0.0
 11
124.083108
 21
69.698168
 31
0.0
  0
LINE
  5
271
100
AcDbEntity
  8
0
 62
6
100
AcDbLine
 10
124.083108
 20
69.698168
 30
0.0
 11
121.036976
 21
69.698168
 31
0.0
  0
LINE
  5
272
100
AcDbEntity
  8
0
 62
6
100
AcDbLine
 10
124.842857
 20
66.473332
 30
0.0
 11
125.317646
 21
66.473332
 31
0.0
  0
SPLINE
  5
273
100
AcDbEntity
  8
0
 62
6
100
AcDbSpline
 70
8
 71
3
 72
8
 73
4
 74
0
 40
0
 40
0
 40
0
 40
0
 40
1
 40
1
 40
1
 40
1
 10
125.317646
 20
66.473332
 30
0.0
 10
125.550325
 20
66.473332
 30
0.0
 10
125.737650
 20
66.286009
 30
0.0
 10
125.737650
 20
66.053326
 30
0.0
  0
LINE
  5
274
100
AcDbEntity
  8
0
 62
6
100
AcDbLine
 10
125.737650
 20
66.053326
 30
0.0
 11
125.737650
 21
65.487232
 31
0.0
  0
SPLINE
  5
275
100
AcDbEntity
  8
0
 62
6
100
AcDbSpline
 70
8
 71
3
 72
8
 73
4
 74
0
 40
0
 40
0
 40
0
 40
0
 40
1
 40
1
 40
1
 40
1
 10
125.737650
 20
65.487232
 30
0.0
 10
125.737650
 20
65.254549
 30
0.0
 10
125.550325
 20
65.067226
 30
0.0
 10
125.317646
 20
65.067226
 30
0.0
  0
LINE
  5
276
100
AcDbEntity
  8
0
 62
6
100
AcDbLine
 10
125.317646
 20
65.067226
 30
0.0
 11
124.842857
 21
65.067226
 31
0.0
  0
SPLINE
  5
277
100
AcDbEntity
  8
0
 62
6
100
AcDbSpline
 70
8
 71
3
 72
8
 73
4
 74
0
 40
0
 40
0
 40
0
 40
0
 40
1
 40
1
 40
1
 40
1
 10
124.842857
 20
65.067226
 30
0.0
 10
124.610172
 20
65.067226
 30
0.0
 10
124.422848
 20
65.254549
 30
0.0
 10
124.422848
 20
65.487232
 30
0.0
  0
LINE
  5
278
100
AcDbEntity
  8
0
 62
6
100
AcDbLine
 10
124.422848
 20
65.487232
 30
0.0
 11
124.422848
 21
66.053326
 31
0.0
  0
SPLINE
  5
279
100
AcDbEntity
  8
0
 62
6
100
AcDbSpline
 70
8
 71
3
 72
8
 73
4
 74
0
 40
0
 40
0
 40
0
 40
0
 40
1
 40
1
 40
1
 40
1
 10
124.422848
 20
66.053326
 30
0.0
 10
124.422848
 20
66.286009
 30
0.0
 10
124.610172
 20
66.473332
 30
0.0
 10
124.842857
 20
66.473332
 30
0.0
  0
LINE
  5
27a
100
AcDbEntity
  8
0
 62
6
100
AcDbLine
 10
124.842857
 20
66.473332
 30
0.0
 11
124.842857
 21
66.473332
 31
0.0
  0
LINE
  5
27b
100
AcDbEntity
  8
0
 62
1
100
AcDbLine
 10
108.329685
 20
89.056079
 30
0.0
 11
108.939488
 21
89.093437
 31
0.0
  0
LINE
  5
27c
100
AcDbEntity
  8
0
 62
1
100
AcDbLine
 10
108.939488
 20
89.093437
 30
0.0
 11
109.243190
 21
94.702524
 31
0.0
  0
LINE
  5
27d
100
AcDbEntity
  8
0
 62
1
100
AcDbLine
 10
109.243190
 20
94.702524
 30
0.0
 11
103.486910
 21
94.550661
 31
0.0
  0
LINE
  5
27e
100
AcDbEntity
  8
0
 62
1
100
AcDbLine
 10
103.486910
 20
94.550661
 30
0.0
 11
103.422921
 21
94.066147
 31
0.0
  0
LINE
  5
27f
100
AcDbEntity
  8
0
 62
1
100
AcDbLine
 10
103.422921
 20
94.066147
 30
0.0
 11
108.102445
 21
94.213577
 31
0.0
  0
LINE
  5
280
100
AcDbEntity
  8
0
 62
1
100
AcDbLine
 10
108.102445
 20
94.213577
 30
0.0
 11
96.738640
 21
83.016343
 31
0.0
  0
SPLINE
  5
281
100
AcDbEntity
  8
0
 62
1
100
AcDbSpline
 70
8
 71
3
 72
8
 73
4
 74
0
 40
0
 40
0
 40
0
 40
0
 40
1
 40
1
 40
1
 40
1
 10
96.738640
 20
83.016343
 30
0.0
 10
93.614330
 20
80.505621
 30
0.0
 10
88.870412
 20
79.410799
 30
0.0
 10
85.159954
 20
82.943546
 30
0.0
  0
LINE
  5
282
100
AcDbEntity
  8
0
 62
1
100
AcDbLine
 10
85.159954
 20
82.943546
 30
0.0
 11
77.119449
 21
90.844502
 31
0.0
  0
LINE
  5
283
100
AcDbEntity
  8
0
 62
1
100
AcDbLine
 10
77.119449
 20
90.844502
 30
0.0
 11
76.856409
 21
90.285668
 31
0.0
  0
LINE
  5
284
100
AcDbEntity
  8
0
 62
1
100
AcDbLine
 10
76.856409
 20
90.285668
 30
0.0
 11
85.061007
 21
82.223468
 31
0.0
  0
SPLINE
  5
285
100
AcDbEntity
  8
0
 62
1
100
AcDbSpline
 70
8
 71
3
 72
8
 73
4
 74
0
 40
0
 40
0
 40
0
 40
0
 40
1
 40
1
 40
1
 40
1
 10
85.061007
 20
82.223468
 30
0.0
 10
88.847188
 20
78.618621
 30
0.0
 10
93.687923
 20
79.735789
 30
0.0
 10
96.875995
 20
82.297751
 30
0.0
  0
LINE
  5
286
100
AcDbEntity
  8
0
 62
1
100
AcDbLine
 10
96.875995
 20
82.297751
 30
0.0
 11
108.592919
 21
93.821562
 31
0.0
  0
LINE
  5
287
100
AcDbEntity
  8
0
 62
1
100
AcDbLine
 10
108.592919
 20
93.821562
 30
0.0
 11
108.329685
 21
89.056079
 31
0.0
  0
LINE
  5
288
100
AcDbEntity
  8
0
 62
2
100
AcDbLine
 10
114.932872
 20
165.285436
 30
0.0
 11
117.688241
 21
167.047473
 31
0.0
  0
LINE
  5
289
100
AcDbEntity
  8
0
 62
2
100
AcDbLine
 10
117.688241
 20
167.047473
 30
0.0
 11
120.504167
 21
165.318380
 31
0.0
  0
LINE
  5
28a
100
AcDbEntity
  8
0
 62
2
100
AcDbLine
 10
120.504167
 20
165.318380
 30
0.0
 11
117.683712
 21
163.519371
 31
0.0
  0
LINE
  5
28b
100
AcDbEntity
  8
0
 62
2
100
AcDbLine
 10
117.683712
 20
163.519371
 30
0.0
 11
114.932872
 21
165.285436
 31
0.0
  0
LINE
  5
28c
100
AcDbEntity
  8
0
 62
2
100
AcDbLine
 10
109.307238
 20
165.308259
 30
0.0
 11
112.156226
 21
167.054853
 31
0.0
  0
LINE
  5
28d
100
AcDbEntity
  8
0
 62
2
100
AcDbLine
 10
112.156226
 20
167.054853
 30
0.0
 11
114.932872
 21
165.285436
 31
0.0
  0
LINE
  5
28e
100
AcDbEntity
  8
0
 62
2
100
AcDbLine
 10
114.932872
 20
165.285436
 30
0.0
 11
112.131114
 21
163.523937
 31
0.0
  0
LINE
  5
28f
100
AcDbEntity
  8
0
 62
2
100
AcDbLine
 10
112.131114
 20
163.523937
 30
0.0
 11
109.307238
 21
165.308259
 31
0.0
  0
LINE
  5
290
100
AcDbEntity
  8
0
 62
2
100
AcDbLine
 10
109.314090
 20
168.815212
 30
0.0
 11
112.142527
 21
170.581271
 31
0.0
  0
LINE
  5
291
100
AcDbEntity
  8
0
 62
2
100
AcDbLine
 10
112.142527
 20
170.581271
 30
0.0
 11
114.940862
 21
168.815212
 31
0.0
  0
LINE
  5
292
100
AcDbEntity
  8
0
 62
2
100
AcDbLine
 10
114.940862
 20
168.815212
 30
0.0
 11
112.156226
 21
167.054853
 31
0.0
  0
LINE
  5
293
100
AcDbEntity
  8
0
 62
2
100
AcDbLine
 10
112.156226
 20
167.054853
 30
0.0
 11
109.314090
 21
168.815212
 31
0.0
  0
LINE
  5
294
100
AcDbEntity
  8
0
 62
2
100
AcDbLine
 10
114.940862
 20
168.815212
 30
0.0
 11
117.695119
 21
170.585840
 31
0.0
  0
LINE
  5
295
100
AcDbEntity
  8
0
 62
2
100
AcDbLine
 10
117.695119
 20
170.585840
 30
0.0
 11
120.504162
 21
168.785858
 31
0.0
  0
LINE
  5
296
100
AcDbEntity
  8
0
 62
2
100
AcDbLine
 10
120.504162
 20
168.785858
 30
0.0
 11
117.688241
 21
167.047473
 31
0.0
  0
LINE
  5
297
100
AcDbEntity
  8
0
 62
2
100
AcDbLine
 10
117.688241
 20
167.047473
 30
0.0
 11
114.940862
 21
168.815212
 31
0.0
  0
LINE
  5
298
100
AcDbEntity
  8
0
 62
6
100
AcDbLine
 10
109.314090
 20
168.815212
 30
0.0
 11
112.156226
 21
167.054853
 31
0.0
  0
LINE
  5
299
100
AcDbEntity
  8
0
 62
6
100
AcDbLine
 10
112.156226
 20
167.054853
 30
0.0
 11
109.307238
 21
165.308259
 31
0.0
  0
LINE
  5
29a
100
AcDbEntity
  8
0
 62
6
100
AcDbLine
 10
109.307238
 20
165.308259
 30
0.0
 11
109.314090
 21
168.815212
 31
0.0
  0
LINE
  5
29b
100
AcDbEntity
  8
0
 62
6
100
AcDbLine
 10
117.688241
 20
167.047473
 30
0.0
 11
120.504162
 21
168.785858
 31
0.0
  0
LINE
  5
29c
100
AcDbEntity
  8
0
 62
6
100
AcDbLine
 10
120.504162
 20
168.785858
 30
0.0
 11
120.504167
 21
165.318380
 31
0.0
  0
LINE
  5
29d
100
AcDbEntity
  8
0
 62
6
100
AcDbLine
 10
120.504167
 20
165.318380
 30
0.0
 11
117.688241
 21
167.047473
 31
0.0
  0
LINE
  5
29e
100
AcDbEntity
  8
0
 62
7
100
AcDbLine
 10
112.131114
 20
163.523937
 30
0.0
 11
114.932872
 21
165.285436
 31
0.0
  0
LINE
  5
29f
100
AcDbEntity
  8
0
 62
7
100
AcDbLine
 10
114.932872
 20
165.285436
 30
0.0
 11
117.683712
 21
163.519371
 31
0.0
  0
LINE
  5
2a0
100
AcDbEntity
  8
0
 62
7
100
AcDbLine
 10
117.683712
 20
163.519371
 30
0.0
 11
114.905700
 21
161.765326
 31
0.0
  0
LINE
  5
2a1
100
AcDbEntity
  8
0
 62
7
100
AcDbLine
 10
114.905700
 20
161.765326
 30
0.0
 11
112.131114
 21
163.523937
 31
0.0
  0
LINE
  5
2a2
100
AcDbEntity
  8
0
 62
6
100
AcDbLine
 10
112.156226
 20
167.054853
 30
0.0
 11
114.940862
 21
168.815212
 31
0.0
  0
LINE
  5
2a3
100
AcDbEntity
  8
0
 62
6
100
AcDbLine
 10
114.940862
 20
168.815212
 30
0.0
 11
117.688241
 21
167.047473
 31
0.0
  0
LINE
  5
2a4
100
AcDbEntity
  8
0
 62
6
100
AcDbLine
 10
117.688241
 20
167.047473
 30
0.0
 11
114.932872
 21
165.285436
 31
0.0
  0
LINE
  5
2a5
100
AcDbEntity
  8
0
 62
6
100
AcDbLine
 10
114.932872
 20
165.285436
 30
0.0
 11
112.156226
 21
167.054853
 31
0.0
  0
LINE
  5
2a6
100
AcDbEntity
  8
0
 62
1
100
AcDbLine
 10
112.142527
 20
170.581271
 30
0.0
 11
114.926245
 21
172.343306
 31
0.0
  0
LINE
  5
2a7
100
AcDbEntity
  8
0
 62
1
100
AcDbLine
 10
114.926245
 20
172.343306
 30
0.0
 11
117.695119
 21
170.585840
 31
0.0
  0
LINE
  5
2a8
100
AcDbEntity
  8
0
 62
1
100
AcDbLine
 10
117.695119
 20
170.585840
 30
0.0
 11
114.940862
 21
168.815212
 31
0.0
  0
LINE
  5
2a9
100
AcDbEntity
  8
0
 62
1
100
AcDbLine
 10
114.940862
 20
168.815212
 30
0.0
 11
112.142527
 21
170.581271
 31
0.0
  0
LINE
  5
2aa
100
AcDbEntity
  8
0
 62
5
100
AcDbLine
 10
107.864952
 20
173.042277
 30
0.0
 11
107.864952
 21
169.087003
 31
0.0
  0
LINE
  5
2ab
100
AcDbEntity
  8
0
 62
5
100
AcDbLine
 10
107.864952
 20
169.087003
 30
0.0
 11
114.074270
 21
173.042277
 31
0.0
  0
LINE
  5
2ac
100
AcDbEntity
  8
0
 62
5
100
AcDbLine
 10
114.074270
 20
173.042277
 30
0.0
 11
107.864952
 21
173.042277
 31
0.0
  0
LINE
  5
2ad
100
AcDbEntity
  8
0
 62
5
100
AcDbLine
 10
107.864952
 20
173.042277
 30
0.0
 11
107.864952
 21
173.042277
 31
0.0
  0
LINE
  5
2ae
100
AcDbEntity
  8
0
 62
5
100
AcDbLine
 10
115.420408
 20
173.042277
 30
0.0
 11
121.629729
 21
169.087003
 31
0.0
  0
LINE
  5
2af
100
AcDbEntity
  8
0
 62
5
100
AcDbLine
 10
121.629729
 20
169.087003
 30
0.0
 11
121.629729
 21
173.042277
 31
0.0
  0
LINE
  5
2b0
100
AcDbEntity
  8
0
 62
5
100
AcDbLine
 10
121.629729
 20
173.042277
 30
0.0
 11
115.420408
 21
173.042277
 31
0.0
  0
LINE
  5
2b1
100
AcDbEntity
  8
0
 62
5
100
AcDbLine
 10
115.420408
 20
173.042277
 30
0.0
 11
115.420408
 21
173.042277
 31
0.0
  0
LINE
  5
2b2
100
AcDbEntity
  8
0
 62
5
100
AcDbLine
 10
107.864952
 20
164.937230
 30
0.0
 11
107.864952
 21
160.981956
 31
0.0
  0
LINE
  5
2b3
100
AcDbEntity
  8
0
 62
5
100
AcDbLine
 10
107.864952
 20
160.981956
 30
0.0
 11
114.073466
 21
160.981956
 31
0.0
  0
LINE
  5
2b4
100
AcDbEntity
  8
0
 62
5
100
AcDbLine
 10
114.073466
 20
160.981956
 30
0.0
 11
107.864952
 21
164.937230
 31
0.0
  0
LINE
  5
2b5
100
AcDbEntity
  8
0
 62
5
100
AcDbLine
 10
107.864952
 20
164.937230
 30
0.0
 11
107.864952
 21
164.937230
 31
0.0
  0
LINE
  5
2b6
100
AcDbEntity
  8
0
 62
5
100
AcDbLine
 10
121.629729
 20
164.937230
 30
0.0
 11
115.421215
 21
160.981956
 31
0.0
  0
LINE
  5
2b7
100
AcDbEntity
  8
0
 62
5
100
AcDbLine
 10
115.421215
 20
160.981956
 30
0.0
 11
121.629729
 21
160.981956
 31
0.0
  0
LINE
  5
2b8
100
AcDbEntity
  8
0
 62
5
100
AcDbLine
 10
121.629729
 20
160.981956
 30
0.0
 11
121.629729
 21
164.937230
 31
0.0
  0
LINE
  5
2b9
100
AcDbEntity
  8
0
 62
5
100
AcDbLine
 10
121.629729
 20
164.937230
 30
0.0
 11
121.629729
 21
164.937230
 31
0.0
  0
LINE
  5
2ba
100
AcDbEntity
  8
0
 62
3
100
AcDbLine
 10
58.637575
 20
161.067619
 30
0.0
 11
58.637106
 21
162.097565
 31
0.0
  0
LINE
  5
2bb
100
AcDbEntity
  8
0
 62
3
100
AcDbLine
 10
58.637106
 20
162.097565
 30
0.0
 11
53.525550
 21
162.097565
 31
0.0
  0
LINE
  5
2bc
100
AcDbEntity
  8
0
 62
3
100
AcDbLine
 10
53.525550
 20
162.097565
 30
0.0
 11
53.525815
 21
162.959917
 31
0.0
  0
LINE
  5
2bd
100
AcDbEntity
  8
0
 62
3
100
AcDbLine
 10
53.525815
 20
162.959917
 30
0.0
 11
60.593579
 21
162.959917
 31
0.0
  0
LINE
  5
2be
100
AcDbEntity
  8
0
 62
3
100
AcDbLine
 10
60.593579
 20
162.959917
 30
0.0
 11
60.466545
 21
163.754726
 31
0.0
  0
LINE
  5
2bf
100
AcDbEntity
  8
0
 62
3
100
AcDbLine
 10
60.466545
 20
163.754726
 30
0.0
 11
55.901784
 21
163.754927
 31
0.0
  0
LINE
  5
2c0
100
AcDbEntity
  8
0
 62
3
100
AcDbLine
 10
55.901784
 20
163.754927
 30
0.0
 11
55.901216
 21
164.580679
 31
0.0
  0
LINE
  5
2c1
100
AcDbEntity
  8
0
 62
3
100
AcDbLine
 10
55.901216
 20
164.580679
 30
0.0
 11
60.466795
 21
164.580731
 31
0.0
  0
LINE
  5
2c2
100
AcDbEntity
  8
0
 62
3
100
AcDbLine
 10
60.466795
 20
164.580731
 30
0.0
 11
60.500414
 21
165.273195
 31
0.0
  0
LINE
  5
2c3
100
AcDbEntity
  8
0
 62
3
100
AcDbLine
 10
60.500414
 20
165.273195
 30
0.0
 11
59.463342
 21
165.273195
 31
0.0
  0
LINE
  5
2c4
100
AcDbEntity
  8
0
 62
3
100
AcDbLine
 10
59.463342
 20
165.273195
 30
0.0
 11
59.494002
 21
166.066738
 31
0.0
  0
LINE
  5
2c5
100
AcDbEntity
  8
0
 62
3
100
AcDbLine
 10
59.494002
 20
166.066738
 30
0.0
 11
60.439287
 21
166.066738
 31
0.0
  0
SPLINE
  5
2c6
100
AcDbEntity
  8
0
 62
3
100
AcDbSpline
 70
8
 71
3
 72
8
 73
4
 74
0
 40
0
 40
0
 40
0
 40
0
 40
1
 40
1
 40
1
 40
1
 10
60.439287
 20
166.066738
 30
0.0
 10
60.525365
 20
167.536429
 30
0.0
 10
61.286125
 20
169.227472
 30
0.0
 10
62.553876
 20
169.216161
 30
0.0
  0
LINE
  5
2c7
100
AcDbEntity
  8
0
 62
3
100
AcDbLine
 10
62.553876
 20
169.216161
 30
0.0
 11
62.553887
 21
169.216212
 31
0.0
  0
SPLINE
  5
2c8
100
AcDbEntity
  8
0
 62
3
100
AcDbSpline
 70
8
 71
3
 72
8
 73
4
 74
0
 40
0
 40
0
 40
0
 40
0
 40
1
 40
1
 40
1
 40
1
 10
62.553887
 20
169.216212
 30
0.0
 10
63.180478
 20
169.214146
 30
0.0
 10
63.839350
 20
169.218795
 30
0.0
 10
64.474713
 20
169.235943
 30
0.0
  0
SPLINE
  5
2c9
100
AcDbEntity
  8
0
 62
3
100
AcDbSpline
 70
8
 71
3
 72
8
 73
4
 74
0
 40
0
 40
0
 40
0
 40
0
 40
1
 40
1
 40
1
 40
1
 10
64.474713
 20
169.235943
 30
0.0
 10
64.525191
 20
169.590723
 30
0.0
 10
64.561273
 20
169.884721
 30
0.0
 10
64.446962
 20
170.287525
 30
0.0
  0
LINE
  5
2ca
100
AcDbEntity
  8
0
 62
3
100
AcDbLine
 10
64.446962
 20
170.287525
 30
0.0
 11
64.788687
 21
170.433582
 31
0.0
  0
SPLINE
  5
2cb
100
AcDbEntity
  8
0
 62
3
100
AcDbSpline
 70
8
 71
3
 72
8
 73
4
 74
0
 40
0
 40
0
 40
0
 40
0
 40
1
 40
1
 40
1
 40
1
 10
64.788687
 20
170.433582
 30
0.0
 10
64.985264
 20
170.547119
 30
0.0
 10
64.917277
 20
170.860522
 30
0.0
 10
64.788687
 20
171.234160
 30
0.0
  0
SPLINE
  5
2cc
100
AcDbEntity
  8
0
 62
3
100
AcDbSpline
 70
8
 71
3
 72
8
 73
4
 74
0
 40
0
 40
0
 40
0
 40
0
 40
1
 40
1
 40
1
 40
1
 10
64.788687
 20
171.234160
 30
0.0
 10
64.708814
 20
171.408588
 30
0.0
 10
64.603865
 20
171.539134
 30
0.0
 10
64.427135
 20
171.544061
 30
0.0
  0
SPLINE
  5
2cd
100
AcDbEntity
  8
0
 62
3
100
AcDbSpline
 70
8
 71
3
 72
8
 73
4
 74
0
 40
0
 40
0
 40
0
 40
0
 40
1
 40
1
 40
1
 40
1
 10
64.427135
 20
171.544061
 30
0.0
 10
64.313122
 20
171.617172
 30
0.0
 10
64.195405
 20
171.339196
 30
0.0
 10
63.966715
 20
171.282943
 30
0.0
  0
SPLINE
  5
2ce
100
AcDbEntity
  8
0
 62
3
100
AcDbSpline
 70
8
 71
3
 72
8
 73
4
 74
0
 40
0
 40
0
 40
0
 40
0
 40
1
 40
1
 40
1
 40
1
 10
63.966715
 20
171.282943
 30
0.0
 10
63.017105
 20
171.049371
 30
0.0
 10
62.964507
 20
171.193475
 30
0.0
 10
62.446167
 20
172.321944
 30
0.0
  0
SPLINE
  5
2cf
100
AcDbEntity
  8
0
 62
3
100
AcDbSpline
 70
8
 71
3
 72
8
 73
4
 74
0
 40
0
 40
0
 40
0
 40
0
 40
1
 40
1
 40
1
 40
1
 10
62.446167
 20
172.321944
 30
0.0
 10
62.572566
 20
172.755635
 30
0.0
 10
62.760906
 20
172.432920
 30
0.0
 10
63.076666
 20
172.230642
 30
0.0
  0
LINE
  5
2d0
100
AcDbEntity
  8
0
 62
3
100
AcDbLine
 10
63.076666
 20
172.230642
 30
0.0
 11
63.445782
 21
172.060563
 31
0.0
  0
SPLINE
  5
2d1
100
AcDbEntity
  8
0
 62
3
100
AcDbSpline
 70
8
 71
3
 72
8
 73
4
 74
0
 40
0
 40
0
 40
0
 40
0
 40
1
 40
1
 40
1
 40
1
 10
63.445782
 20
172.060563
 30
0.0
 10
63.842363
 20
172.038250
 30
0.0
 10
64.052791
 20
171.999709
 30
0.0
 10
64.332563
 20
172.138591
 30
0.0
  0
SPLINE
  5
2d2
100
AcDbEntity
  8
0
 62
3
100
AcDbSpline
 70
8
 71
3
 72
8
 73
4
 74
0
 40
0
 40
0
 40
0
 40
0
 40
1
 40
1
 40
1
 40
1
 10
64.332563
 20
172.138591
 30
0.0
 10
64.380851
 20
172.162557
 30
0.0
 10
64.386909
 20
172.236112
 30
0.0
 10
64.443830
 20
172.268460
 30
0.0
  0
SPLINE
  5
2d3
100
AcDbEntity
  8
0
 62
3
100
AcDbSpline
 70
8
 71
3
 72
8
 73
4
 74
0
 40
0
 40
0
 40
0
 40
0
 40
1
 40
1
 40
1
 40
1
 10
64.443830
 20
172.268460
 30
0.0
 10
64.436444
 20
172.413943
 30
0.0
 10
65.294339
 20
172.772065
 30
0.0
 10
65.750213
 20
172.978273
 30
0.0
  0
SPLINE
  5
2d4
100
AcDbEntity
  8
0
 62
3
100
AcDbSpline
 70
8
 71
3
 72
8
 73
4
 74
0
 40
0
 40
0
 40
0
 40
0
 40
1
 40
1
 40
1
 40
1
 10
65.750213
 20
172.978273
 30
0.0
 10
66.021188
 20
173.115849
 30
0.0
 10
66.215332
 20
173.125373
 30
0.0
 10
66.415668
 20
173.145217
 30
0.0
  0
LINE
  5
2d5
100
AcDbEntity
  8
0
 62
3
100
AcDbLine
 10
66.415668
 20
173.145217
 30
0.0
 11
68.042649
 21
173.171042
 31
0.0
  0
SPLINE
  5
2d6
100
AcDbEntity
  8
0
 62
3
100
AcDbSpline
 70
8
 71
3
 72
8
 73
4
 74
0
 40
0
 40
0
 40
0
 40
0
 40
1
 40
1
 40
1
 40
1
 10
68.042649
 20
173.171042
 30
0.0
 10
68.275075
 20
173.432635
 30
0.0
 10
68.507501
 20
173.510993
 30
0.0
 10
68.739927
 20
173.635894
 30
0.0
  0
SPLINE
  5
2d7
100
AcDbEntity
  8
0
 62
3
100
AcDbSpline
 70
8
 71
3
 72
8
 73
4
 74
0
 40
0
 40
0
 40
0
 40
0
 40
1
 40
1
 40
1
 40
1
 10
68.739927
 20
173.635894
 30
0.0
 10
68.950990
 20
174.230011
 30
0.0
 10
69.190616
 20
174.763831
 30
0.0
 10
69.617980
 20
174.901324
 30
0.0
  0
SPLINE
  5
2d8
100
AcDbEntity
  8
0
 62
3
100
AcDbSpline
 70
8
 71
3
 72
8
 73
4
 74
0
 40
0
 40
0
 40
0
 40
0
 40
1
 40
1
 40
1
 40
1
 10
69.617980
 20
174.901324
 30
0.0
 10
69.853020
 20
175.459456
 30
0.0
 10
70.504659
 20
176.068789
 30
0.0
 10
70.237783
 20
175.159575
 30
0.0
  0
SPLINE
  5
2d9
100
AcDbEntity
  8
0
 62
3
100
AcDbSpline
 70
8
 71
3
 72
8
 73
4
 74
0
 40
0
 40
0
 40
0
 40
0
 40
1
 40
1
 40
1
 40
1
 10
70.237783
 20
175.159575
 30
0.0
 10
70.530954
 20
175.244147
 30
0.0
 10
70.666133
 20
175.170731
 30
0.0
 10
70.792103
 20
175.088096
 30
0.0
  0
SPLINE
  5
2da
100
AcDbEntity
  8
0
 62
3
100
AcDbSpline
 70
8
 71
3
 72
8
 73
4
 74
0
 40
0
 40
0
 40
0
 40
0
 40
1
 40
1
 40
1
 40
1
 10
70.792103
 20
175.088096
 30
0.0
 10
70.906513
 20
174.850676
 30
0.0
 10
71.030618
 20
174.666594
 30
0.0
 10
71.193311
 20
174.694723
 30
0.0
  0
SPLINE
  5
2db
100
AcDbEntity
  8
0
 62
3
100
AcDbSpline
 70
8
 71
3
 72
8
 73
4
 74
0
 40
0
 40
0
 40
0
 40
0
 40
1
 40
1
 40
1
 40
1
 10
71.193311
 20
174.694723
 30
0.0
 10
71.615144
 20
174.660324
 30
0.0
 10
71.559904
 20
174.758134
 30
0.0
 10
71.603378
 20
174.356130
 30
0.0
  0
SPLINE
  5
2dc
100
AcDbEntity
  8
0
 62
3
100
AcDbSpline
 70
8
 71
3
 72
8
 73
4
 74
0
 40
0
 40
0
 40
0
 40
0
 40
1
 40
1
 40
1
 40
1
 10
71.603378
 20
174.356130
 30
0.0
 10
71.207701
 20
174.144576
 30
0.0
 10
71.178033
 20
173.856895
 30
0.0
 10
70.748019
 20
173.764751
 30
0.0
  0
SPLINE
  5
2dd
100
AcDbEntity
  8
0
 62
3
100
AcDbSpline
 70
8
 71
3
 72
8
 73
4
 74
0
 40
0
 40
0
 40
0
 40
0
 40
1
 40
1
 40
1
 40
1
 10
70.748019
 20
173.764751
 30
0.0
 10
70.703290
 20
173.255454
 30
0.0
 10
70.853277
 20
172.569188
 30
0.0
 10
70.632452
 20
172.107518
 30
0.0
  0
SPLINE
  5
2de
100
AcDbEntity
  8
0
 62
3
100
AcDbSpline
 70
8
 71
3
 72
8
 73
4
 74
0
 40
0
 40
0
 40
0
 40
0
 40
1
 40
1
 40
1
 40
1
 10
70.632452
 20
172.107518
 30
0.0
 10
70.491127
 20
171.812048
 30
0.0
 10
70.110227
 20
171.501728
 30
0.0
 10
69.669630
 20
171.156684
 30
0.0
  0
SPLINE
  5
2df
100
AcDbEntity
  8
0
 62
3
100
AcDbSpline
 70
8
 71
3
 72
8
 73
4
 74
0
 40
0
 40
0
 40
0
 40
0
 40
1
 40
1
 40
1
 40
1
 10
69.669630
 20
171.156684
 30
0.0
 10
69.502867
 20
170.409998
 30
0.0
 10
69.588607
 20
170.087355
 30
0.0
 10
69.520676
 20
169.655694
 30
0.0
  0
SPLINE
  5
2e0
100
AcDbEntity
  8
0
 62
3
100
AcDbSpline
 70
8
 71
3
 72
8
 73
4
 74
0
 40
0
 40
0
 40
0
 40
0
 40
1
 40
1
 40
1
 40
1
 10
69.520676
 20
169.655694
 30
0.0
 10
69.923548
 20
169.579060
 30
0.0
 10
69.957100
 20
169.569954
 30
0.0
 10
70.031254
 20
169.158023
 30
0.0
  0
LINE
  5
2e1
100
AcDbEntity
  8
0
 62
3
100
AcDbLine
 10
70.031254
 20
169.158023
 30
0.0
 11
70.187294
 21
169.166236
 31
0.0
  0
SPLINE
  5
2e2
100
AcDbEntity
  8
0
 62
3
100
AcDbSpline
 70
8
 71
3
 72
8
 73
4
 74
0
 40
0
 40
0
 40
0
 40
0
 40
1
 40
1
 40
1
 40
1
 10
70.187294
 20
169.166236
 30
0.0
 10
71.953933
 20
169.169335
 30
0.0
 10
72.159619
 20
167.397769
 30
0.0
 10
71.710030
 20
166.155215
 30
0.0
  0
LINE
  5
2e3
100
AcDbEntity
  8
0
 62
3
100
AcDbLine
 10
71.710030
 20
166.155215
 30
0.0
 11
70.465968
 21
162.739536
 31
0.0
  0
SPLINE
  5
2e4
100
AcDbEntity
  8
0
 62
3
100
AcDbSpline
 70
8
 71
3
 72
8
 73
4
 74
0
 40
0
 40
0
 40
0
 40
0
 40
1
 40
1
 40
1
 40
1
 10
70.465968
 20
162.739536
 30
0.0
 10
70.208326
 20
161.397757
 30
0.0
 10
68.775633
 20
161.073058
 30
0.0
 10
68.178634
 20
161.049769
 30
0.0
  0
LINE
  5
2e5
100
AcDbEntity
  8
0
 62
3
100
AcDbLine
 10
68.178634
 20
161.049769
 30
0.0
 11
62.263325
 21
161.086595
 31
0.0
  0
SPLINE
  5
2e6
100
AcDbEntity
  8
0
 62
3
100
AcDbSpline
 70
8
 71
3
 72
8
 73
4
 74
0
 40
0
 40
0
 40
0
 40
0
 40
1
 40
1
 40
1
 40
1
 10
62.263325
 20
161.086595
 30
0.0
 10
62.557307
 20
162.254546
 30
0.0
 10
63.257539
 20
162.993789
 30
0.0
 10
64.139634
 20
163.244096
 30
0.0
  0
LINE
  5
2e7
100
AcDbEntity
  8
0
 62
3
100
AcDbLine
 10
64.139634
 20
163.244096
 30
0.0
 11
67.718183
 21
163.243859
 31
0.0
  0
LINE
  5
2e8
100
AcDbEntity
  8
0
 62
3
100
AcDbLine
 10
67.718183
 20
163.243859
 30
0.0
 11
69.006230
 21
167.020191
 31
0.0
  0
LINE
  5
2e9
100
AcDbEntity
  8
0
 62
3
100
AcDbLine
 10
69.006230
 20
167.020191
 30
0.0
 11
67.515037
 21
167.016059
 31
0.0
  0
LINE
  5
2ea
100
AcDbEntity
  8
0
 62
3
100
AcDbLine
 10
67.515037
 20
167.016059
 30
0.0
 11
68.865426
 21
169.006611
 31
0.0
  0
LINE
  5
2eb
100
AcDbEntity
  8
0
 62
3
100
AcDbLine
 10
68.865426
 20
169.006611
 30
0.0
 11
68.817392
 21
169.038995
 31
0.0
  0
SPLINE
  5
2ec
100
AcDbEntity
  8
0
 62
3
100
AcDbSpline
 70
8
 71
3
 72
8
 73
4
 74
0
 40
0
 40
0
 40
0
 40
0
 40
1
 40
1
 40
1
 40
1
 10
68.817392
 20
169.038995
 30
0.0
 10
69.093844
 20
169.701249
 30
0.0
 10
68.839446
 20
170.635131
 30
0.0
 10
68.662441
 20
171.182479
 30
0.0
  0
LINE
  5
2ed
100
AcDbEntity
  8
0
 62
3
100
AcDbLine
 10
68.662441
 20
171.182479
 30
0.0
 11
68.688525
 21
170.860564
 31
0.0
  0
SPLINE
  5
2ee
100
AcDbEntity
  8
0
 62
3
100
AcDbSpline
 70
8
 71
3
 72
8
 73
4
 74
0
 40
0
 40
0
 40
0
 40
0
 40
1
 40
1
 40
1
 40
1
 10
68.688525
 20
170.860564
 30
0.0
 10
67.842133
 20
170.754428
 30
0.0
 10
67.434866
 20
171.014522
 30
0.0
 10
66.917021
 20
171.337408
 30
0.0
  0
SPLINE
  5
2ef
100
AcDbEntity
  8
0
 62
3
100
AcDbSpline
 70
8
 71
3
 72
8
 73
4
 74
0
 40
0
 40
0
 40
0
 40
0
 40
1
 40
1
 40
1
 40
1
 10
66.917021
 20
171.337408
 30
0.0
 10
66.577274
 20
171.371033
 30
0.0
 10
66.501386
 20
171.339991
 30
0.0
 10
66.357731
 20
171.329868
 30
0.0
  0
SPLINE
  5
2f0
100
AcDbEntity
  8
0
 62
3
100
AcDbSpline
 70
8
 71
3
 72
8
 73
4
 74
0
 40
0
 40
0
 40
0
 40
0
 40
1
 40
1
 40
1
 40
1
 10
66.357731
 20
171.329868
 30
0.0
 10
66.334922
 20
170.892829
 30
0.0
 10
66.165518
 20
170.518376
 30
0.0
 10
65.718370
 20
170.201125
 30
0.0
  0
LINE
  5
2f1
100
AcDbEntity
  8
0
 62
3
100
AcDbLine
 10
65.718370
 20
170.201125
 30
0.0
 11
65.130390
 21
170.014353
 31
0.0
  0
SPLINE
  5
2f2
100
AcDbEntity
  8
0
 62
3
100
AcDbSpline
 70
8
 71
3
 72
8
 73
4
 74
0
 40
0
 40
0
 40
0
 40
0
 40
1
 40
1
 40
1
 40
1
 10
65.130390
 20
170.014353
 30
0.0
 10
65.162434
 20
169.739863
 30
0.0
 10
65.075759
 20
169.472867
 30
0.0
 10
65.303299
 20
169.332327
 30
0.0
  0
SPLINE
  5
2f3
100
AcDbEntity
  8
0
 62
3
100
AcDbSpline
 70
8
 71
3
 72
8
 73
4
 74
0
 40
0
 40
0
 40
0
 40
0
 40
1
 40
1
 40
1
 40
1
 10
65.303299
 20
169.332327
 30
0.0
 10
65.324817
 20
169.319053
 30
0.0
 10
65.360333
 20
169.212643
 30
0.0
 10
65.360333
 20
169.212643
 30
0.0
  0
SPLINE
  5
2f4
100
AcDbEntity
  8
0
 62
3
100
AcDbSpline
 70
8
 71
3
 72
8
 73
4
 74
0
 40
0
 40
0
 40
0
 40
0
 40
1
 40
1
 40
1
 40
1
 10
65.360333
 20
169.212643
 30
0.0
 10
66.329193
 20
169.202158
 30
0.0
 10
67.343626
 20
169.202158
 30
0.0
 10
68.324881
 20
169.199008
 30
0.0
  0
LINE
  5
2f5
100
AcDbEntity
  8
0
 62
3
100
AcDbLine
 10
68.324881
 20
169.199008
 30
0.0
 11
66.528970
 21
167.156650
 31
0.0
  0
LINE
  5
2f6
100
AcDbEntity
  8
0
 62
3
100
AcDbLine
 10
66.528970
 20
167.156650
 30
0.0
 11
66.334268
 21
167.001560
 31
0.0
  0
LINE
  5
2f7
100
AcDbEntity
  8
0
 62
3
100
AcDbLine
 10
66.334268
 20
167.001560
 30
0.0
 11
63.412491
 21
167.001560
 31
0.0
  0
LINE
  5
2f8
100
AcDbEntity
  8
0
 62
3
100
AcDbLine
 10
63.412491
 20
167.001560
 30
0.0
 11
63.407047
 21
166.989423
 31
0.0
  0
LINE
  5
2f9
100
AcDbEntity
  8
0
 62
3
100
AcDbLine
 10
63.407047
 20
166.989423
 30
0.0
 11
63.113051
 21
166.025294
 31
0.0
  0
LINE
  5
2fa
100
AcDbEntity
  8
0
 62
3
100
AcDbLine
 10
63.113051
 20
166.025294
 30
0.0
 11
63.248144
 21
165.926906
 31
0.0
  0
LINE
  5
2fb
100
AcDbEntity
  8
0
 62
3
100
AcDbLine
 10
63.248144
 20
165.926906
 30
0.0
 11
64.982336
 21
165.924840
 31
0.0
  0
SPLINE
  5
2fc
100
AcDbEntity
  8
0
 62
3
100
AcDbSpline
 70
8
 71
3
 72
8
 73
4
 74
0
 40
0
 40
0
 40
0
 40
0
 40
1
 40
1
 40
1
 40
1
 10
64.982336
 20
165.924840
 30
0.0
 10
65.103752
 20
165.853139
 30
0.0
 10
65.189913
 20
165.760287
 30
0.0
 10
65.140572
 20
165.586133
 30
0.0
  0
LINE
  5
2fd
100
AcDbEntity
  8
0
 62
3
100
AcDbLine
 10
65.140572
 20
165.586133
 30
0.0
 11
63.698971
 21
163.798845
 31
0.0
  0
LINE
  5
2fe
100
AcDbEntity
  8
0
 62
3
100
AcDbLine
 10
63.698971
 20
163.798845
 30
0.0
 11
62.379459
 21
163.810570
 31
0.0
  0
LINE
  5
2ff
100
AcDbEntity
  8
0
 62
3
100
AcDbLine
 10
62.379459
 20
163.810570
 30
0.0
 11
61.474585
 21
161.088563
 31
0.0
  0
LINE
  5
300
100
AcDbEntity
  8
0
 62
3
100
AcDbLine
 10
61.474585
 20
161.088563
 30
0.0
 11
58.637575
 21
161.067619
 31
0.0
  0
LINE
  5
301
100
AcDbEntity
  8
0
 62
3
100
AcDbLine
 10
55.359365
 20
167.660193
 30
0.0
 11
60.162036
 21
167.660193
 31
0.0
  0
LINE
  5
302
100
AcDbEntity
  8
0
 62
3
100
AcDbLine
 10
60.162036
 20
167.660193
 30
0.0
 11
60.162036
 21
166.856707
 31
0.0
  0
LINE
  5
303
100
AcDbEntity
  8
0
 62
3
100
AcDbLine
 10
60.162036
 20
166.856707
 30
0.0
 11
55.359365
 21
166.856707
 31
0.0
  0
LINE
  5
304
100
AcDbEntity
  8
0
 62
3
100
AcDbLine
 10
55.359365
 20
166.856707
 30
0.0
 11
55.359365
 21
167.660193
 31
0.0
  0
LINE
  5
305
100
AcDbEntity
  8
0
 62
3
100
AcDbLine
 10
53.310165
 20
166.066304
 30
0.0
 11
58.887713
 21
166.066304
 31
0.0
  0
LINE
  5
306
100
AcDbEntity
  8
0
 62
3
100
AcDbLine
 10
58.887713
 20
166.066304
 30
0.0
 11
58.887713
 21
165.273169
 31
0.0
  0
LINE
  5
307
100
AcDbEntity
  8
0
 62
3
100
AcDbLine
 10
58.887713
 20
165.273169
 30
0.0
 11
53.310165
 21
165.273169
 31
0.0
  0
LINE
  5
308
100
AcDbEntity
  8
0
 62
3
100
AcDbLine
 10
53.310165
 20
165.273169
 30
0.0
 11
53.310165
 21
166.066304
 31
0.0
  0
LINE
  5
309
100
AcDbEntity
  8
0
 62
3
100
AcDbLine
 10
51.030042
 20
162.959400
 30
0.0
 11
52.676423
 21
162.959400
 31
0.0
  0
LINE
  5
30a
100
AcDbEntity
  8
0
 62
3
100
AcDbLine
 10
52.676423
 20
162.959400
 30
0.0
 11
52.676423
 21
162.098252
 31
0.0
  0
LINE
  5
30b
100
AcDbEntity
  8
0
 62
3
100
AcDbLine
 10
52.676423
 20
162.098252
 30
0.0
 11
51.030042
 21
162.098252
 31
0.0
  0
LINE
  5
30c
100
AcDbEntity
  8
0
 62
3
100
AcDbLine
 10
51.030042
 20
162.098252
 30
0.0
 11
51.030042
 21
162.959400
 31
0.0
  0
SPLINE
  5
30d
100
AcDbEntity
  8
0
 62
1
100
AcDbSpline
 70
8
 71
3
 72
8
 73
4
 74
0
 40
0
 40
0
 40
0
 40
0
 40
1
 40
1
 40
1
 40
1
 10
126.266123
 20
124.094826
 30
0.0
 10
129.543581
 20
120.685598
 30
0.0
 10
128.647642
 20
115.009130
 30
0.0
 10
125.889605
 20
112.134956
 30
0.0
  0
LINE
  5
30e
100
AcDbEntity
  8
0
 62
1
100
AcDbLine
 10
125.889605
 20
112.134956
 30
0.0
 11
113.331777
 21
99.811455
 31
0.0
  0
LINE
  5
30f
100
AcDbEntity
  8
0
 62
1
100
AcDbLine
 10
113.331777
 20
99.811455
 30
0.0
 11
113.707410
 21
99.277877
 31
0.0
  0
LINE
  5
310
100
AcDbEntity
  8
0
 62
1
100
AcDbLine
 10
113.707410
 20
99.277877
 30
0.0
 11
126.621876
 21
112.010618
 31
0.0
  0
SPLINE
  5
311
100
AcDbEntity
  8
0
 62
1
100
AcDbSpline
 70
8
 71
3
 72
8
 73
4
 74
0
 40
0
 40
0
 40
0
 40
0
 40
1
 40
1
 40
1
 40
1
 10
126.621876
 20
112.010618
 30
0.0
 10
129.436201
 20
114.943451
 30
0.0
 10
130.350427
 20
120.735766
 30
0.0
 10
127.006082
 20
124.214573
 30
0.0
  0
LINE
  5
312
100
AcDbEntity
  8
0
 62
1
100
AcDbLine
 10
127.006082
 20
124.214573
 30
0.0
 11
115.406418
 21
136.021788
 31
0.0
  0
LINE
  5
313
100
AcDbEntity
  8
0
 62
1
100
AcDbLine
 10
115.406418
 20
136.021788
 30
0.0
 11
120.013030
 21
135.747756
 31
0.0
  0
LINE
  5
314
100
AcDbEntity
  8
0
 62
1
100
AcDbLine
 10
120.013030
 20
135.747756
 30
0.0
 11
120.003519
 21
136.344461
 31
0.0
  0
LINE
  5
315
100
AcDbEntity
  8
0
 62
1
100
AcDbLine
 10
120.003519
 20
136.344461
 30
0.0
 11
114.281551
 21
136.670933
 31
0.0
  0
LINE
  5
316
100
AcDbEntity
  8
0
 62
1
100
AcDbLine
 10
114.281551
 20
136.670933
 30
0.0
 11
114.387878
 21
130.943891
 31
0.0
  0
LINE
  5
317
100
AcDbEntity
  8
0
 62
1
100
AcDbLine
 10
114.387878
 20
130.943891
 30
0.0
 11
115.002973
 21
130.840993
 31
0.0
  0
LINE
  5
318
100
AcDbEntity
  8
0
 62
1
100
AcDbLine
 10
115.002973
 20
130.840993
 30
0.0
 11
114.868317
 21
135.680110
 31
0.0
  0
LINE
  5
319
100
AcDbEntity
  8
0
 62
1
100
AcDbLine
 10
114.868317
 20
135.680110
 30
0.0
 11
126.266123
 21
124.094826
 31
0.0
  0
SPLINE
  5
31a
100
AcDbEntity
  8
0
 62
1
100
AcDbSpline
 70
8
 71
3
 72
8
 73
4
 74
0
 40
0
 40
0
 40
0
 40
0
 40
1
 40
1
 40
1
 40
1
 10
54.014006
 20
112.076912
 30
0.0
 10
50.738876
 20
115.763228
 30
0.0
 10
50.860221
 20
120.902633
 30
0.0
 10
54.405437
 20
124.673037
 30
0.0
  0
LINE
  5
31b
100
AcDbEntity
  8
0
 62
1
100
AcDbLine
 10
54.405437
 20
124.673037
 30
0.0
 11
68.118078
 21
138.372657
 31
0.0
  0
LINE
  5
31c
100
AcDbEntity
  8
0
 62
1
100
AcDbLine
 10
68.118078
 20
138.372657
 30
0.0
 11
67.671340
 21
138.783781
 31
0.0
  0
LINE
  5
31d
100
AcDbEntity
  8
0
 62
1
100
AcDbLine
 10
67.671340
 20
138.783781
 30
0.0
 11
53.678847
 21
124.804578
 31
0.0
  0
SPLINE
  5
31e
100
AcDbEntity
  8
0
 62
1
100
AcDbSpline
 70
8
 71
3
 72
8
 73
4
 74
0
 40
0
 40
0
 40
0
 40
0
 40
1
 40
1
 40
1
 40
1
 10
53.678847
 20
124.804578
 30
0.0
 10
50.061281
 20
120.957229
 30
0.0
 10
49.937461
 20
115.712942
 30
0.0
 10
53.279429
 20
111.951391
 30
0.0
  0
LINE
  5
31f
100
AcDbEntity
  8
0
 62
1
100
AcDbLine
 10
53.279429
 20
111.951391
 30
0.0
 11
62.888645
 21
102.223230
 31
0.0
  0
LINE
  5
320
100
AcDbEntity
  8
0
 62
1
100
AcDbLine
 10
62.888645
 20
102.223230
 30
0.0
 11
58.217141
 21
102.485985
 31
0.0
  0
LINE
  5
321
100
AcDbEntity
  8
0
 62
1
100
AcDbLine
 10
58.217141
 20
102.485985
 30
0.0
 11
58.234301
 21
101.879472
 31
0.0
  0
LINE
  5
322
100
AcDbEntity
  8
0
 62
1
100
AcDbLine
 10
58.234301
 20
101.879472
 30
0.0
 11
63.956071
 21
101.575770
 31
0.0
  0
LINE
  5
323
100
AcDbEntity
  8
0
 62
1
100
AcDbLine
 10
63.956071
 20
101.575770
 30
0.0
 11
63.868613
 21
107.348154
 31
0.0
  0
LINE
  5
324
100
AcDbEntity
  8
0
 62
1
100
AcDbLine
 10
63.868613
 20
107.348154
 30
0.0
 11
63.227224
 21
107.392729
 31
0.0
  0
LINE
  5
325
100
AcDbEntity
  8
0
 62
1
100
AcDbLine
 10
63.227224
 20
107.392729
 30
0.0
 11
63.341527
 21
102.668803
 31
0.0
  0
LINE
  5
326
100
AcDbEntity
  8
0
 62
1
100
AcDbLine
 10
63.341527
 20
102.668803
 30
0.0
 11
54.014006
 21
112.076912
 31
0.0
  0
LINE
  5
327
100
AcDbEntity
  8
0
 62
1
100
AcDbLine
 10
100.539067
 20
148.784746
 30
0.0
 11
94.230771
 21
154.896412
 31
0.0
  0
SPLINE
  5
328
100
AcDbEntity
  8
0
 62
1
100
AcDbSpline
 70
8
 71
3
 72
8
 73
4
 74
0
 40
0
 40
0
 40
0
 40
0
 40
1
 40
1
 40
1
 40
1
 10
94.230771
 20
154.896412
 30
0.0
 10
91.581577
 20
157.463034
 30
0.0
 10
85.851664
 20
156.861289
 30
0.0
 10
82.896922
 20
154.070009
 30
0.0
  0
LINE
  5
329
100
AcDbEntity
  8
0
 62
1
100
AcDbLine
 10
82.896922
 20
154.070009
 30
0.0
 11
72.118324
 21
143.099295
 31
0.0
  0
LINE
  5
32a
100
AcDbEntity
  8
0
 62
1
100
AcDbLine
 10
72.118324
 20
143.099295
 30
0.0
 11
72.376411
 21
147.654455
 31
0.0
  0
LINE
  5
32b
100
AcDbEntity
  8
0
 62
1
100
AcDbLine
 10
72.376411
 20
147.654455
 30
0.0
 11
71.781458
 21
147.659619
 31
0.0
  0
LINE
  5
32c
100
AcDbEntity
  8
0
 62
1
100
AcDbLine
 10
71.781458
 20
147.659619
 30
0.0
 11
71.460171
 21
141.948187
 31
0.0
  0
LINE
  5
32d
100
AcDbEntity
  8
0
 62
1
100
AcDbLine
 10
71.460171
 20
141.948187
 30
0.0
 11
77.200486
 21
142.137290
 31
0.0
  0
LINE
  5
32e
100
AcDbEntity
  8
0
 62
1
100
AcDbLine
 10
77.200486
 20
142.137290
 30
0.0
 11
77.185049
 21
142.744629
 31
0.0
  0
LINE
  5
32f
100
AcDbEntity
  8
0
 62
1
100
AcDbLine
 10
77.185049
 20
142.744629
 30
0.0
 11
72.482696
 21
142.605649
 31
0.0
  0
LINE
  5
330
100
AcDbEntity
  8
0
 62
1
100
AcDbLine
 10
72.482696
 20
142.605649
 30
0.0
 11
83.039156
 21
153.353196
 31
0.0
  0
SPLINE
  5
331
100
AcDbEntity
  8
0
 62
1
100
AcDbSpline
 70
8
 71
3
 72
8
 73
4
 74
0
 40
0
 40
0
 40
0
 40
0
 40
1
 40
1
 40
1
 40
1
 10
83.039156
 20
153.353196
 30
0.0
 10
85.934798
 20
156.088655
 30
0.0
 10
91.550117
 20
156.678364
 30
0.0
 10
94.146328
 20
154.163072
 30
0.0
  0
LINE
  5
332
100
AcDbEntity
  8
0
 62
1
100
AcDbLine
 10
94.146328
 20
154.163072
 30
0.0
 11
100.328459
 21
148.173642
 31
0.0
  0
LINE
  5
333
100
AcDbEntity
  8
0
 62
1
100
AcDbLine
 10
100.328459
 20
148.173642
 30
0.0
 11
100.539067
 21
148.784746
 31
0.0
  0
LINE
  5
334
100
AcDbEntity
  8
0
 62
7
100
AcDbLine
 10
87.513644
 20
134.359046
 30
0.0
 11
79.245467
 21
146.885085
 31
0.0
  0
LINE
  5
335
100
AcDbEntity
  8
0
 62
7
100
AcDbLine
 10
79.245467
 20
146.885085
 30
0.0
 11
79.663575
 21
147.502200
 31
0.0
  0
LINE
  5
336
100
AcDbEntity
  8
0
 62
7
100
AcDbLine
 10
79.663575
 20
147.502200
 30
0.0
 11
88.100494
 21
134.720528
 31
0.0
  0
LINE
  5
337
100
AcDbEntity
  8
0
 62
7
100
AcDbLine
 10
88.100494
 20
134.720528
 30
0.0
 11
87.513644
 21
134.359046
 31
0.0
  0
LINE
  5
338
100
AcDbEntity
  8
0
 62
7
100
AcDbLine
 10
103.122027
 20
91.101385
 30
0.0
 11
89.818184
 21
112.014349
 31
0.0
  0
LINE
  5
339
100
AcDbEntity
  8
0
 62
7
100
AcDbLine
 10
89.818184
 20
112.014349
 30
0.0
 11
69.883017
 21
80.889120
 31
0.0
  0
LINE
  5
33a
100
AcDbEntity
  8
0
 62
7
100
AcDbLine
 10
69.883017
 20
80.889120
 30
0.0
 11
54.661883
 21
80.889120
 31
0.0
  0
LINE
  5
33b
100
AcDbEntity
  8
0
 62
7
100
AcDbLine
 10
54.661883
 20
80.889120
 30
0.0
 11
74.701070
 21
110.755201
 31
0.0
  0
LINE
  5
33c
100
AcDbEntity
  8
0
 62
7
100
AcDbLine
 10
74.701070
 20
110.755201
 30
0.0
 11
73.649159
 21
110.634970
 31
0.0
  0
LINE
  5
33d
100
AcDbEntity
  8
0
 62
7
100
AcDbLine
 10
73.649159
 20
110.634970
 30
0.0
 11
53.201011
 21
80.159379
 31
0.0
  0
LINE
  5
33e
100
AcDbEntity
  8
0
 62
7
100
AcDbLine
 10
53.201011
 20
80.159379
 30
0.0
 11
70.110056
 21
80.159379
 31
0.0
  0
LINE
  5
33f
100
AcDbEntity
  8
0
 62
7
100
AcDbLine
 10
70.110056
 20
80.159379
 30
0.0
 11
89.771737
 21
110.340059
 31
0.0
  0
LINE
  5
340
100
AcDbEntity
  8
0
 62
7
100
AcDbLine
 10
89.771737
 20
110.340059
 30
0.0
 11
102.650133
 21
90.580058
 31
0.0
  0
LINE
  5
341
100
AcDbEntity
  8
0
 62
7
100
AcDbLine
 10
102.650133
 20
90.580058
 30
0.0
 11
103.122027
 21
91.101385
 31
0.0
  0
SPLINE
  5
342
100
AcDbEntity
  8
0
 62
2
100
AcDbSpline
 70
8
 71
3
 72
8
 73
4
 74
0
 40
0
 40
0
 40
0
 40
0
 40
1
 40
1
 40
1
 40
1
 10
82.824068
 20
133.750356
 30
0.0
 10
81.535927
 20
133.750356
 30
0.0
 10
80.491684
 20
132.716087
 30
0.0
 10
80.491684
 20
131.440260
 30
0.0
  0
LINE
  5
343
100
AcDbEntity
  8
0
 62
2
100
AcDbLine
 10
80.491684
 20
131.440260
 30
0.0
 11
80.031073
 21
131.438194
 31
0.0
  0
SPLINE
  5
344
100
AcDbEntity
  8
0
 62
2
100
AcDbSpline
 70
8
 71
3
 72
8
 73
4
 74
0
 40
0
 40
0
 40
0
 40
0
 40
1
 40
1
 40
1
 40
1
 10
80.031073
 20
131.438194
 30
0.0
 10
80.031073
 20
132.965981
 30
0.0
 10
81.281545
 20
134.204501
 30
0.0
 10
82.824068
 20
134.204501
 30
0.0
  0
SPLINE
  5
345
100
AcDbEntity
  8
0
 62
2
100
AcDbSpline
 70
8
 71
3
 72
8
 73
4
 74
0
 40
0
 40
0
 40
0
 40
0
 40
1
 40
1
 40
1
 40
1
 10
82.824068
 20
134.204501
 30
0.0
 10
83.653203
 20
134.204501
 30
0.0
 10
84.397958
 20
133.846658
 30
0.0
 10
84.934815
 20
133.275872
 30
0.0
  0
LINE
  5
346
100
AcDbEntity
  8
0
 62
2
100
AcDbLine
 10
84.934815
 20
133.275872
 30
0.0
 11
84.981610
 21
134.205080
 31
0.0
  0
LINE
  5
347
100
AcDbEntity
  8
0
 62
2
100
AcDbLine
 10
84.981610
 20
134.205080
 30
0.0
 11
85.362438
 21
134.219283
 31
0.0
  0
LINE
  5
348
100
AcDbEntity
  8
0
 62
2
100
AcDbLine
 10
85.362438
 20
134.219283
 30
0.0
 11
85.268976
 21
132.532259
 31
0.0
  0
LINE
  5
349
100
AcDbEntity
  8
0
 62
2
100
AcDbLine
 10
85.268976
 20
132.532259
 30
0.0
 11
83.512772
 21
132.366622
 31
0.0
  0
LINE
  5
34a
100
AcDbEntity
  8
0
 62
2
100
AcDbLine
 10
83.512772
 20
132.366622
 30
0.0
 11
83.457867
 21
132.766152
 31
0.0
  0
LINE
  5
34b
100
AcDbEntity
  8
0
 62
2
100
AcDbLine
 10
83.457867
 20
132.766152
 30
0.0
 11
84.627052
 21
132.874209
 31
0.0
  0
SPLINE
  5
34c
100
AcDbEntity
  8
0
 62
2
100
AcDbSpline
 70
8
 71
3
 72
8
 73
4
 74
0
 40
0
 40
0
 40
0
 40
0
 40
1
 40
1
 40
1
 40
1
 10
84.627052
 20
132.874209
 30
0.0
 10
84.225591
 20
133.407993
 30
0.0
 10
83.565202
 20
133.750356
 30
0.0
 10
82.824083
 20
133.750356
 30
0.0
  0
LINE
  5
34d
100
AcDbEntity
  8
0
 62
2
100
AcDbLine
 10
82.824083
 20
133.750356
 30
0.0
 11
82.824068
 21
133.750356
 31
0.0
  0
LINE
  5
34e
100
AcDbEntity
  8
0
 62
2
100
AcDbLine
 10
82.097778
 20
130.216863
 30
0.0
 11
82.042874
 21
130.616393
 31
0.0
  0
LINE
  5
34f
100
AcDbEntity
  8
0
 62
2
100
AcDbLine
 10
82.042874
 20
130.616393
 30
0.0
 11
80.286669
 21
130.450756
 31
0.0
  0
LINE
  5
350
100
AcDbEntity
  8
0
 62
2
100
AcDbLine
 10
80.286669
 20
130.450756
 30
0.0
 11
80.193208
 21
128.763731
 31
0.0
  0
LINE
  5
351
100
AcDbEntity
  8
0
 62
2
100
AcDbLine
 10
80.193208
 20
128.763731
 30
0.0
 11
80.574036
 21
128.777935
 31
0.0
  0
LINE
  5
352
100
AcDbEntity
  8
0
 62
2
100
AcDbLine
 10
80.574036
 20
128.777935
 30
0.0
 11
80.613651
 21
129.736800
 31
0.0
  0
SPLINE
  5
353
100
AcDbEntity
  8
0
 62
2
100
AcDbSpline
 70
8
 71
3
 72
8
 73
4
 74
0
 40
0
 40
0
 40
0
 40
0
 40
1
 40
1
 40
1
 40
1
 10
80.613651
 20
129.736800
 30
0.0
 10
81.119389
 20
129.095305
 30
0.0
 10
81.921765
 20
128.671510
 30
0.0
 10
82.824078
 20
128.671510
 30
0.0
  0
SPLINE
  5
354
100
AcDbEntity
  8
0
 62
2
100
AcDbSpline
 70
8
 71
3
 72
8
 73
4
 74
0
 40
0
 40
0
 40
0
 40
0
 40
1
 40
1
 40
1
 40
1
 10
82.824078
 20
128.671510
 30
0.0
 10
84.366606
 20
128.671510
 30
0.0
 10
85.617068
 20
129.910030
 30
0.0
 10
85.617068
 20
131.437822
 30
0.0
  0
LINE
  5
355
100
AcDbEntity
  8
0
 62
2
100
AcDbLine
 10
85.617068
 20
131.437822
 30
0.0
 11
85.156451
 21
131.439888
 31
0.0
  0
SPLINE
  5
356
100
AcDbEntity
  8
0
 62
2
100
AcDbSpline
 70
8
 71
3
 72
8
 73
4
 74
0
 40
0
 40
0
 40
0
 40
0
 40
1
 40
1
 40
1
 40
1
 10
85.156451
 20
131.439888
 30
0.0
 10
85.156451
 20
130.164056
 30
0.0
 10
84.112213
 20
129.129787
 30
0.0
 10
82.824078
 20
129.129787
 30
0.0
  0
SPLINE
  5
357
100
AcDbEntity
  8
0
 62
2
100
AcDbSpline
 70
8
 71
3
 72
8
 73
4
 74
0
 40
0
 40
0
 40
0
 40
0
 40
1
 40
1
 40
1
 40
1
 10
82.824078
 20
129.129787
 30
0.0
 10
82.054175
 20
129.129787
 30
0.0
 10
81.371396
 20
129.499256
 30
0.0
 10
80.955224
 20
130.085651
 30
0.0
  0
LINE
  5
358
100
AcDbEntity
  8
0
 62
2
100
AcDbLine
 10
80.955224
 20
130.085651
 30
0.0
 11
82.097778
 21
130.216863
 31
0.0
  0
SPLINE
  5
359
100
AcDbEntity
  8
0
 62
6
100
AcDbSpline
 70
8
 71
3
 72
8
 73
4
 74
0
 40
0
 40
0
 40
0
 40
0
 40
1
 40
1
 40
1
 40
1
 10
96.235188
 20
133.792690
 30
0.0
 10
94.947048
 20
133.792690
 30
0.0
 10
93.902805
 20
132.758420
 30
0.0
 10
93.902805
 20
131.482593
 30
0.0
  0
LINE
  5
35a
100
AcDbEntity
  8
0
 62
6
100
AcDbLine
 10
93.902805
 20
131.482593
 30
0.0
 11
93.442194
 21
131.480527
 31
0.0
  0
SPLINE
  5
35b
100
AcDbEntity
  8
0
 62
6
100
AcDbSpline
 70
8
 71
3
 72
8
 73
4
 74
0
 40
0
 40
0
 40
0
 40
0
 40
1
 40
1
 40
1
 40
1
 10
93.442194
 20
131.480527
 30
0.0
 10
93.442194
 20
133.008314
 30
0.0
 10
94.692666
 20
134.246835
 30
0.0
 10
96.235188
 20
134.246835
 30
0.0
  0
SPLINE
  5
35c
100
AcDbEntity
  8
0
 62
6
100
AcDbSpline
 70
8
 71
3
 72
8
 73
4
 74
0
 40
0
 40
0
 40
0
 40
0
 40
1
 40
1
 40
1
 40
1
 10
96.235188
 20
134.246835
 30
0.0
 10
97.064324
 20
134.246835
 30
0.0
 10
97.809078
 20
133.888992
 30
0.0
 10
98.345936
 20
133.318205
 30
0.0
  0
LINE
  5
35d
100
AcDbEntity
  8
0
 62
6
100
AcDbLine
 10
98.345936
 20
133.318205
 30
0.0
 11
98.392731
 21
134.247413
 31
0.0
  0
LINE
  5
35e
100
AcDbEntity
  8
0
 62
6
100
AcDbLine
 10
98.392731
 20
134.247413
 30
0.0
 11
98.773558
 21
134.261617
 31
0.0
  0
LINE
  5
35f
100
AcDbEntity
  8
0
 62
6
100
AcDbLine
 10
98.773558
 20
134.261617
 30
0.0
 11
98.680097
 21
132.574592
 31
0.0
  0
LINE
  5
360
100
AcDbEntity
  8
0
 62
6
100
AcDbLine
 10
98.680097
 20
132.574592
 30
0.0
 11
96.923892
 21
132.408955
 31
0.0
  0
LINE
  5
361
100
AcDbEntity
  8
0
 62
6
100
AcDbLine
 10
96.923892
 20
132.408955
 30
0.0
 11
96.868988
 21
132.808485
 31
0.0
  0
LINE
  5
362
100
AcDbEntity
  8
0
 62
6
100
AcDbLine
 10
96.868988
 20
132.808485
 30
0.0
 11
98.038173
 21
132.916542
 31
0.0
  0
SPLINE
  5
363
100
AcDbEntity
  8
0
 62
6
100
AcDbSpline
 70
8
 71
3
 72
8
 73
4
 74
0
 40
0
 40
0
 40
0
 40
0
 40
1
 40
1
 40
1
 40
1
 10
98.038173
 20
132.916542
 30
0.0
 10
97.636711
 20
133.450326
 30
0.0
 10
96.976322
 20
133.792690
 30
0.0
 10
96.235204
 20
133.792690
 30
0.0
  0
LINE
  5
364
100
AcDbEntity
  8
0
 62
6
100
AcDbLine
 10
96.235204
 20
133.792690
 30
0.0
 11
96.235188
 21
133.792690
 31
0.0
  0
LINE
  5
365
100
AcDbEntity
  8
0
 62
6
100
AcDbLine
 10
95.508899
 20
130.259197
 30
0.0
 11
95.453995
 21
130.658726
 31
0.0
  0
LINE
  5
366
100
AcDbEntity
  8
0
 62
6
100
AcDbLine
 10
95.453995
 20
130.658726
 30
0.0
 11
93.697790
 21
130.493089
 31
0.0
  0
LINE
  5
367
100
AcDbEntity
  8
0
 62
6
100
AcDbLine
 10
93.697790
 20
130.493089
 30
0.0
 11
93.604329
 21
128.806065
 31
0.0
  0
LINE
  5
368
100
AcDbEntity
  8
0
 62
6
100
AcDbLine
 10
93.604329
 20
128.806065
 30
0.0
 11
93.985156
 21
128.820269
 31
0.0
  0
LINE
  5
369
100
AcDbEntity
  8
0
 62
6
100
AcDbLine
 10
93.985156
 20
128.820269
 30
0.0
 11
94.024772
 21
129.779134
 31
0.0
  0
SPLINE
  5
36a
100
AcDbEntity
  8
0
 62
6
100
AcDbSpline
 70
8
 71
3
 72
8
 73
4
 74
0
 40
0
 40
0
 40
0
 40
0
 40
1
 40
1
 40
1
 40
1
 10
94.024772
 20
129.779134
 30
0.0
 10
94.530510
 20
129.137638
 30
0.0
 10
95.332885
 20
128.713843
 30
0.0
 10
96.235199
 20
128.713843
 30
0.0
  0
SPLINE
  5
36b
100
AcDbEntity
  8
0
 62
6
100
AcDbSpline
 70
8
 71
3
 72
8
 73
4
 74
0
 40
0
 40
0
 40
0
 40
0
 40
1
 40
1
 40
1
 40
1
 10
96.235199
 20
128.713843
 30
0.0
 10
97.777727
 20
128.713843
 30
0.0
 10
99.028188
 20
129.952363
 30
0.0
 10
99.028188
 20
131.480156
 30
0.0
  0
LINE
  5
36c
100
AcDbEntity
  8
0
 62
6
100
AcDbLine
 10
99.028188
 20
131.480156
 30
0.0
 11
98.567572
 21
131.482222
 31
0.0
  0
SPLINE
  5
36d
100
AcDbEntity
  8
0
 62
6
100
AcDbSpline
 70
8
 71
3
 72
8
 73
4
 74
0
 40
0
 40
0
 40
0
 40
0
 40
1
 40
1
 40
1
 40
1
 10
98.567572
 20
131.482222
 30
0.0
 10
98.567572
 20
130.206389
 30
0.0
 10
97.523334
 20
129.172120
 30
0.0
 10
96.235199
 20
129.172120
 30
0.0
  0
SPLINE
  5
36e
100
AcDbEntity
  8
0
 62
6
100
AcDbSpline
 70
8
 71
3
 72
8
 73
4
 74
0
 40
0
 40
0
 40
0
 40
0
 40
1
 40
1
 40
1
 40
1
 10
96.235199
 20
129.172120
 30
0.0
 10
95.465296
 20
129.172120
 30
0.0
 10
94.782516
 20
129.541589
 30
0.0
 10
94.366345
 20
130.127984
 30
0.0
  0
LINE
  5
36f
100
AcDbEntity
  8
0
 62
6
100
AcDbLine
 10
94.366345
 20
130.127984
 30
0.0
 11
95.508899
 21
130.259197
 31
0.0
  0
LINE
  5
370
100
AcDbEntity
  8
0
 62
7
100
AcDbLine
 10
152.675376
 20
160.827730
 30
0.0
 11
157.677352
 21
157.964817
 31
0.0
  0
LINE
  5
371
100
AcDbEntity
  8
0
 62
7
100
AcDbLine
 10
157.677352
 20
157.964817
 30
0.0
 11
157.660673
 21
80.741256
 31
0.0
  0
LINE
  5
372
100
AcDbEntity
  8
0
 62
7
100
AcDbLine
 10
157.660673
 20
80.741256
 30
0.0
 11
90.130478
 21
42.150526
 31
0.0
  0
LINE
  5
373
100
AcDbEntity
  8
0
 62
7
100
AcDbLine
 10
90.130478
 20
42.150526
 30
0.0
 11
22.592143
 21
80.763829
 31
0.0
  0
LINE
  5
374
100
AcDbEntity
  8
0
 62
7
100
AcDbLine
 10
22.592143
 20
80.763829
 30
0.0
 11
22.616956
 21
157.957183
 31
0.0
  0
LINE
  5
375
100
AcDbEntity
  8
0
 62
7
100
AcDbLine
 10
22.616956
 20
157.957183
 30
0.0
 11
90.158934
 21
196.609416
 31
0.0
  0
LINE
  5
376
100
AcDbEntity
  8
0
 62
7
100
AcDbLine
 10
90.158934
 20
196.609416
 30
0.0
 11
152.557548
 21
160.895170
 31
0.0
  0
LINE
  5
377
100
AcDbEntity
  8
0
 62
7
100
AcDbLine
 10
152.557548
 20
160.895170
 30
0.0
 11
152.675376
 21
160.827730
 31
0.0
  0
LINE
  5
378
100
AcDbEntity
  8
0
 62
7
100
AcDbLine
 10
152.244371
 20
160.242534
 30
0.0
 11
90.212283
 21
195.743877
 31
0.0
  0
LINE
  5
379
100
AcDbEntity
  8
0
 62
7
100
AcDbLine
 10
90.212283
 20
195.743877
 30
0.0
 11
23.306202
 21
157.534363
 31
0.0
  0
LINE
  5
37a
100
AcDbEntity
  8
0
 62
7
100
AcDbLine
 10
23.306202
 20
157.534363
 30
0.0
 11
23.305733
 21
81.207394
 31
0.0
  0
LINE
  5
37b
100
AcDbEntity
  8
0
 62
7
100
AcDbLine
 10
23.305733
 20
81.207394
 30
0.0
 11
90.149677
 21
42.958364
 31
0.0
  0
LINE
  5
37c
100
AcDbEntity
  8
0
 62
7
100
AcDbLine
 10
90.149677
 20
42.958364
 30
0.0
 11
156.941274
 21
81.131420
 31
0.0
  0
LINE
  5
37d
100
AcDbEntity
  8
0
 62
7
100
AcDbLine
 10
156.941274
 20
81.131420
 30
0.0
 11
156.970871
 21
157.537541
 31
0.0
  0
LINE
  5
37e
100
AcDbEntity
  8
0
 62
7
100
AcDbLine
 10
156.970871
 20
157.537541
 30
0.0
 11
152.395174
 21
160.156242
 31
0.0
  0
LINE
  5
37f
100
AcDbEntity
  8
0
 62
7
100
AcDbLine
 10
152.395174
 20
160.156242
 30
0.0
 11
152.244371
 21
160.242534
 31
0.0
  0
ENDSEC
  0
SECTION
  2
OBJECTS
  0
DICTIONARY
  5
C
330
0
100
AcDbDictionary
  3
ACAD_GROUP
350
D
  3
ACAD_MLINESTYLE
350
17
  0
DICTIONARY
  5
D
330
C
100
AcDbDictionary
  0
DICTIONARY
  5
1A
330
C
100
AcDbDictionary
  0
DICTIONARY
  5
17
330
C
100
AcDbDictionary
  3
STANDARD
350
18
  0
DICTIONARY
  5
19
330
C
100
AcDbDictionary
  0
ENDSEC
  0
EOF
