<?xml version="1.0" encoding="UTF-8" standalone="no"?>
<!-- Created with Inkscape (http://www.inkscape.org/) -->

<svg
   xmlns:dc="http://purl.org/dc/elements/1.1/"
   xmlns:cc="http://creativecommons.org/ns#"
   xmlns:rdf="http://www.w3.org/1999/02/22-rdf-syntax-ns#"
   xmlns:svg="http://www.w3.org/2000/svg"
   xmlns="http://www.w3.org/2000/svg"
   xmlns:sodipodi="http://sodipodi.sourceforge.net/DTD/sodipodi-0.dtd"
   xmlns:inkscape="http://www.inkscape.org/namespaces/inkscape"
   width="210mm"
   height="297mm"
   viewBox="0 0 744.09448819 1052.3622047"
   id="svg2"
   version="1.1"
   inkscape:version="0.48.5 r10040"
   sodipodi:docname="Philéas.svg"
   inkscape:export-filename="phileas.png"
   inkscape:export-xdpi="1000"
   inkscape:export-ydpi="1000">
  <defs
     id="defs4" />
  <sodipodi:namedview
     id="base"
     pagecolor="#ffffff"
     bordercolor="#666609"
     borderopacity="1"
     inkscape:pageopacity="0.0"
     inkscape:pageshadow="2"
     inkscape:zoom="0.7"
     inkscape:cx="167.99867"
     inkscape:cy="259.44881"
     inkscape:document-units="mm"
     inkscape:current-layer="layer1"
     showgrid="false"
     inkscape:window-width="1366"
     inkscape:window-height="706"
     inkscape:window-x="-8"
     inkscape:window-y="-8"
     inkscape:window-maximized="1" />
  <metadata
     id="metadata7">
    <rdf:RDF>
      <cc:Work
         rdf:about="">
        <dc:format>image/svg+xml</dc:format>
        <dc:type
           rdf:resource="http://purl.org/dc/dcmitype/StillImage" />
        <dc:title></dc:title>
      </cc:Work>
    </rdf:RDF>
  </metadata>
  <g
     inkscape:label="Calque 1"
     inkscape:groupmode="layer"
     id="layer1">
    <g
       id="g4166"
       transform="matrix(2.3579477,0,0,2.3579477,-469.88894,-989.26368)">
      <g
         style="font-style:normal;font-weight:normal;font-size:40px;line-height:125%;font-family:sans-serif;letter-spacing:0px;word-spacing:0px;fill:#000000;fill-opacity:1;stroke:none;stroke-width:1px;stroke-linecap:butt;stroke-linejoin:miter;stroke-opacity:1"
         id="text4136">
        <path
           d="m 340.49164,681.95288 q -1.50391,0.89844 -3.10547,2.42188 -1.60156,1.5039 -2.67578,2.83203 -1.05469,1.32812 -3.4375,5.23437 -2.38281,3.90625 -4.80469,6.32813 -2.40234,2.40234 -6.05469,4.0039 -3.65234,1.58203 -7.53906,1.58203 -3.35937,0 -5.39062,-1.1914 -2.01172,-1.21094 -2.01172,-2.91016 0,-0.78125 0.46875,-1.28906 0.48828,-0.52734 1.1914,-0.52734 0.58594,0 0.9961,0.37109 0.41015,0.35156 0.41015,0.91797 0,0.50781 -0.33203,0.83984 -0.33203,0.33203 -0.85937,0.33203 -0.60547,0 -0.9375,-0.41015 -0.25391,0.2539 -0.25391,0.48828 0,0.52734 0.70313,1.40625 0.70312,0.85937 2.38281,1.34765 1.69922,0.46875 3.71094,0.46875 2.94921,0 5.54687,-1.09375 2.59766,-1.11328 4.55078,-3.00781 1.95313,-1.89453 4.29688,-4.86328 l 2.1289,-2.67578 q 2.94922,-3.71094 5.33203,-6.11328 2.40235,-2.40235 5.625,-4.66797 -0.70312,-1.5625 -3.61328,-3.02734 -2.89062,-1.48438 -6.89453,-1.48438 -4.64844,0 -8.94531,1.85547 -4.27734,1.85547 -7.14844,4.98047 -2.85156,3.10547 -2.85156,5.80078 0,1.83594 1.64062,3.20312 1.64063,1.36719 3.73047,1.36719 2.38282,0 5.44922,-1.32812 3.06641,-1.34766 5.60547,-3.71094 2.53906,-2.38281 2.53906,-4.41406 0,-1.32813 -0.99609,-2.05078 -0.99609,-0.72266 -2.5,-0.72266 -3.20313,0 -6.60156,2.32422 -3.37891,2.30469 -6.01563,6.1914 l -0.11719,-0.0781 q 1.69922,-2.91016 5.35157,-5.76172 3.67187,-2.87109 7.34375,-2.87109 1.8164,0 2.8125,0.85937 0.99609,0.85938 0.99609,2.12891 0,2.98828 -4.0625,6.34765 -4.04297,3.35938 -8.92578,3.35938 -3.02734,0 -4.74609,-1.44531 -1.69922,-1.46485 -1.69922,-3.33985 0,-2.87109 2.96875,-6.03515 2.98828,-3.16407 7.1289,-5 4.14063,-1.83594 8.82813,-1.83594 4.10156,0 7.03125,1.42578 2.92969,1.42578 3.84765,3.125 2.8125,-2.03125 5.03907,-3.18359 l 0.0391,0.13672 -2.28516,1.40625 q -0.99609,0.625 -2.69531,1.79687 0.97656,1.875 0.97656,4.00391 0,2.8125 -1.67968,4.47265 -1.67969,1.64063 -3.84766,1.64063 -1.85547,0 -1.85547,-1.42578 0,-1.34766 1.91406,-2.57813 1.9336,-1.23047 3.69141,-1.23047 l -0.0195,0.13672 q -2.10938,0.25391 -3.76953,1.38672 -1.64063,1.11328 -1.64063,2.30469 0,0.95703 0.91797,0.95703 1.5625,0 3.59375,-2.16797 2.05078,-2.1875 2.05078,-4.6875 0,-1.40625 -0.52734,-2.65625 z"
           style="font-style:normal;font-variant:normal;font-weight:normal;font-stretch:normal;font-family:'Kunstler Script';-inkscape-font-specification:'Kunstler Script'"
           id="path4175" />
        <path
           d="m 330.68695,700.58569 -0.13672,-0.13672 1.875,-1.54296 q 1.52344,-1.26954 3.61328,-2.71485 2.10938,-1.44531 2.14844,-1.48437 l 5.39063,-5.50782 q 1.58203,-1.62109 3.08593,-2.92968 1.52344,-1.3086 2.98828,-2.20703 1.46485,-0.91797 2.2461,-1.17188 0.80078,-0.25391 1.25,-0.25391 1.1914,0 1.1914,1.13282 0,1.5039 -3.35937,4.23828 -3.35938,2.73437 -8.69141,5.17578 -2.24609,1.03516 -2.53906,1.34766 l -2.08984,2.32421 q -2.12891,2.36329 -4.31641,5.03907 l 0.17578,0.0586 q 2.14844,-2.05078 4.55078,-3.73047 2.40235,-1.69922 3.55469,-1.69922 1.23047,0 1.23047,1.25 0,0.78125 -0.39063,1.52344 -0.37109,0.72266 -1.67968,1.83594 l -1.19141,1.01562 q -1.28906,1.09375 -1.28906,1.60157 0,0.48828 0.58594,0.48828 1.75781,0 6.03515,-3.78907 l 0.11719,0.13672 -1.52344,1.28907 q -1.17187,0.99609 -2.51953,1.77734 -1.34766,0.78125 -2.08984,0.78125 -0.50782,0 -0.82032,-0.39063 -0.29296,-0.41015 -0.29296,-1.03515 0,-0.70313 0.44921,-1.28906 0.44922,-0.60547 1.95313,-1.89454 1.52344,-1.28906 1.85547,-1.69921 0.35156,-0.41016 0.35156,-0.74219 0,-0.29297 -0.25391,-0.46875 -0.23437,-0.19531 -0.52734,-0.19531 -0.41016,0 -1.38672,0.42968 -0.97656,0.42969 -2.73437,1.69922 -1.75782,1.25 -3.47657,2.91016 -1.71875,1.64062 -2.67578,2.46094 l -1.93359,0.0195 8.06641,-8.65235 -0.0781,-0.0977 q -1.77734,1.01562 -6.71875,5.09765 z m 23.33984,-16.875 q 0,-0.82031 -0.83984,-0.82031 -1.19141,0 -2.98828,1.23047 -1.79688,1.23047 -5.68359,5.29297 -3.88672,4.04297 -3.88672,4.25781 0,0.0391 2.57812,-1.15234 1.52344,-0.72266 3.06641,-1.60157 2.36328,-1.36718 3.96484,-2.59765 1.60156,-1.25 2.63672,-2.48047 0.80078,-0.9375 1.03516,-1.58203 0.11718,-0.29297 0.11718,-0.54688 z"
           style="font-style:normal;font-variant:normal;font-weight:normal;font-stretch:normal;font-family:'Kunstler Script';-inkscape-font-specification:'Kunstler Script'"
           id="path4177" />
        <path
           d="m 354.65179,692.77319 q 0,0.42969 -0.35156,0.72266 -0.35156,0.29297 -0.74219,0.29297 -0.27343,0 -0.46875,-0.19531 -0.19531,-0.21485 -0.19531,-0.50782 0,-0.37109 0.33203,-0.70312 0.33203,-0.33203 0.74219,-0.33203 0.29297,0 0.48828,0.21484 0.19531,0.21484 0.19531,0.50781 z m -9.58984,7.8125 -0.13672,-0.13672 q 0.95703,-0.82031 4.82422,-3.82812 l 1.89453,0 -6.1914,6.09375 q -0.35157,0.35156 -0.46875,0.70312 l 0,0.13672 q 0,0.25391 0.19531,0.44922 0.19531,0.19531 0.48828,0.19531 0.625,0 1.75781,-0.625 1.15235,-0.64453 4.00391,-3.125 l 0.13672,0.13672 q -4.35547,3.8086 -5.87891,3.8086 -0.48828,0 -0.80078,-0.3125 -0.29297,-0.3125 -0.29297,-0.83985 0,-0.74218 0.48828,-1.5625 0.50781,-0.83984 3.75,-3.96484 l -0.0391,-0.0977 -1.79688,1.36719 -1.93359,1.60156 z"
           style="font-style:normal;font-variant:normal;font-weight:normal;font-stretch:normal;font-family:'Kunstler Script';-inkscape-font-specification:'Kunstler Script'"
           id="path4179" />
        <path
           d="m 351.54633,700.58569 -0.13672,-0.13672 q 4.29687,-3.67187 5.01953,-4.19921 0.74219,-0.52735 1.15234,-0.72266 0.42969,-0.19531 0.72266,-0.48828 3.32031,-3.55469 6.36719,-6.32813 3.04687,-2.77343 5.19531,-4.29687 2.16797,-1.54297 3.61328,-1.54297 0.52734,0 0.87891,0.33203 0.37109,0.3125 0.37109,0.70313 0,1.13281 -2.5,3.3789 -2.5,2.22656 -6.19141,4.45313 -3.6914,2.22656 -5.66406,2.79297 -0.44922,0.52734 -1.66016,1.83593 l -1.5625,1.71875 -1.97265,2.34375 q -2.05078,2.44141 -2.1875,3.10547 l 0,0.17578 q 0,0.64453 0.72265,0.64453 1.67969,0 6.07422,-3.90625 l 0.13672,0.13672 -1.1914,1.01563 q -3.55469,3.02734 -5.15625,3.02734 -0.48829,0 -0.85938,-0.39062 -0.35156,-0.3711 -0.35156,-0.89844 0,-1.44531 2.24609,-4.17969 2.2461,-2.73437 2.89063,-3.16406 l -0.0195,-0.11719 q -0.70313,0.3125 -2.07032,1.50391 l -3.86718,3.20312 z m 9.10156,-6.34765 q 1.5625,-0.50782 5.29297,-2.69532 3.75,-2.20703 6.13281,-4.39453 2.38281,-2.20703 2.38281,-3.24218 0,-0.3125 -0.29297,-0.54688 -0.29297,-0.25391 -0.74218,-0.25391 -1.17188,0 -2.85157,1.13282 -1.66015,1.11328 -5.11718,4.6875 -3.4375,3.57422 -4.80469,5.3125 z"
           style="font-style:normal;font-variant:normal;font-weight:normal;font-stretch:normal;font-family:'Kunstler Script';-inkscape-font-specification:'Kunstler Script'"
           id="path4181" />
        <path
           d="m 367.67914,700.44897 0.13672,0.13672 q -2.34375,2.07032 -4.27735,3.00782 -1.93359,0.91796 -3.08593,0.91796 -1.60157,0 -1.60157,-1.64062 0,-2.20703 3.00782,-4.16016 3.02734,-1.95312 4.72656,-1.95312 0.3125,0 0.52734,0.17578 0.23438,0.17578 0.23438,0.42969 0,0.95703 -1.89453,2.01172 -1.89454,1.05468 -4.19922,1.30859 -1.99219,1.99219 -1.99219,2.73437 0,0.35157 0.35156,0.66407 0.35156,0.29297 0.82031,0.29297 1.01563,0 2.8711,-0.87891 1.875,-0.89844 4.375,-3.04688 z m -6.13281,0 q 0.58593,0 2.07031,-0.50781 1.48437,-0.50781 2.46094,-1.30859 0.99609,-0.80078 0.99609,-1.32813 0,-0.37109 -0.42969,-0.37109 -0.50781,0 -1.13281,0.3125 -0.60547,0.3125 -1.85547,1.28906 -1.25,0.95703 -2.10937,1.91406 z m 5.23437,-5.15625 q 0.0977,0 0.99609,-0.46875 0.39063,-0.21484 0.6836,-0.41015 0.33203,-0.23438 0.66406,-0.54688 0.39063,-0.35156 0.66406,-0.66406 l 0.44922,-0.54687 q 0.15625,-0.17579 0.25391,-0.23438 0.0781,-0.0586 0.15625,-0.0781 0.0781,-0.0195 0.17578,-0.0195 0.58594,0 0.58594,0.56641 0,0.11719 -0.0391,0.25391 -0.0391,0.15625 -0.11718,0.27343 -0.0977,0.11719 -0.23438,0.25391 -0.19531,0.17578 -0.50781,0.37109 -0.41016,0.25391 -0.87891,0.46875 -0.42968,0.21485 -0.85937,0.3711 -0.44922,0.15625 -0.83985,0.23437 -0.89843,0.17578 -1.15234,0.17578 z"
           style="font-style:normal;font-variant:normal;font-weight:normal;font-stretch:normal;font-family:'Kunstler Script';-inkscape-font-specification:'Kunstler Script'"
           id="path4183" />
        <path
           d="m 377.67914,696.62085 1.73828,0 -5.48828,5.72266 q -0.80078,0.83984 -0.80078,1.34765 0,0.33203 0.21484,0.50781 0.23438,0.15625 0.46875,0.15625 0.46875,0 1.50391,-0.68359 1.03515,-0.70312 3.98437,-3.22266 l 0.13672,0.13672 q -3.14453,2.65625 -4.17969,3.30078 -1.01562,0.625 -1.54297,0.625 -0.46875,0 -0.74218,-0.33203 -0.25391,-0.35156 -0.25391,-0.82031 0,-0.82031 0.80078,-2.05078 l -0.0781,-0.0586 q -3.96485,3.26171 -5.41016,3.26171 -0.60547,0 -0.95703,-0.48828 -0.33203,-0.50781 -0.33203,-1.30859 0,-2.22656 3.125,-4.14063 3.14453,-1.93359 5.29297,-1.93359 1.11328,0 1.11328,0.9375 0,0.21484 -0.0391,0.54688 l 1.44531,-1.50391 z m -1.66016,0.91797 q 0,-0.70313 -0.89844,-0.70313 -1.62109,0 -4.76562,2.83203 -3.125,2.8125 -3.125,3.96485 0,0.2539 0.21484,0.48828 0.21485,0.21484 0.60547,0.21484 0.56641,0 1.85547,-0.72265 1.30859,-0.72266 3.20313,-2.34375 1.89453,-1.6211 2.40234,-2.34375 0.50781,-0.74219 0.50781,-1.38672 z"
           style="font-style:normal;font-variant:normal;font-weight:normal;font-stretch:normal;font-family:'Kunstler Script';-inkscape-font-specification:'Kunstler Script'"
           id="path4185" />
        <path
           d="m 379.43695,700.58569 -0.13672,-0.13672 7.16797,-5.99609 0.11719,0.19531 q -0.82031,0.66407 -1.05469,0.9961 -0.23437,0.33203 -0.23437,0.83984 0,0.41016 0.13671,1.26953 0.13672,0.83985 0.13672,1.54297 0,1.42578 -1.01562,2.63672 l 1.75781,-1.48438 0.13672,0.13672 q -4.39453,3.86719 -7.12891,3.86719 -0.66406,0 -1.15234,-0.37109 -0.46875,-0.39063 -0.46875,-0.9961 0,-0.44922 0.3125,-0.76172 0.29297,-0.33203 0.70312,-0.33203 0.25391,0 0.42969,0.17578 0.19531,0.17579 0.19531,0.41016 0,0.33203 -0.27343,0.60547 -0.25391,0.25391 -0.54688,0.25391 -0.11719,0 -0.3125,-0.0586 0,0.85938 1.09375,0.85938 1.54297,0 3.47656,-2.2461 1.95313,-2.24609 2.14844,-4.72656 0.0781,-0.80078 0.27344,-1.44531 l -5.76172,4.76562 z"
           style="font-style:normal;font-variant:normal;font-weight:normal;font-stretch:normal;font-family:'Kunstler Script';-inkscape-font-specification:'Kunstler Script'"
           id="path4187" />
      </g>
      <g
         style="font-style:normal;font-weight:normal;font-size:40px;line-height:125%;font-family:sans-serif;letter-spacing:0px;word-spacing:0px;fill:#000000;fill-opacity:1;stroke:none;stroke-width:1px;stroke-linecap:butt;stroke-linejoin:miter;stroke-opacity:1"
         id="text4156">
        <path
           d="m 344.00726,731.64362 0.13672,0.13671 q -2.34375,2.07032 -4.27734,3.00782 -1.9336,0.91797 -3.08594,0.91797 -1.60156,0 -1.60156,-1.64063 0,-2.20703 3.00781,-4.16016 3.02734,-1.95312 4.72656,-1.95312 0.3125,0 0.52735,0.17578 0.23437,0.17578 0.23437,0.42969 0,0.95703 -1.89453,2.01172 -1.89453,1.05468 -4.19922,1.30859 -1.99219,1.99219 -1.99219,2.73438 0,0.35156 0.35157,0.66406 0.35156,0.29297 0.82031,0.29297 1.01562,0 2.87109,-0.87891 1.875,-0.89844 4.375,-3.04687 z m -6.13281,0 q 0.58594,0 2.07031,-0.50782 1.48438,-0.50781 2.46094,-1.30859 0.99609,-0.80078 0.99609,-1.32813 0,-0.37109 -0.42968,-0.37109 -0.50782,0 -1.13282,0.3125 -0.60546,0.3125 -1.85546,1.28906 -1.25,0.95703 -2.10938,1.91407 z"
           style="font-style:normal;font-variant:normal;font-weight:normal;font-stretch:normal;font-family:'Kunstler Script';-inkscape-font-specification:'Kunstler Script'"
           id="path4190" />
        <path
           d="m 344.12445,731.78033 -0.13672,-0.13671 5.3711,-4.39454 2.28515,-1.79687 -1.77734,0 0.0781,-0.17578 1.97266,0 3.30078,-3.45703 1.66016,-0.0391 -3.1836,3.4961 2.8125,0 -0.0586,0.17578 -2.94922,0 -6.73828,7.1875 q -1.21094,1.28906 -1.46484,1.62109 -0.23438,0.33203 -0.23438,0.625 0,0.29297 0.23438,0.50782 0.2539,0.19531 0.52734,0.19531 1.60156,0 6.13281,-3.94531 l 0.13672,0.13671 q -4.70703,4.04297 -6.30859,4.04297 -0.50782,0 -0.87891,-0.41015 -0.35156,-0.42969 -0.35156,-0.9961 0,-1.46484 1.95312,-3.53515 l 3.98438,-4.14063 -0.0781,-0.0586 -6.28906,5.09765 z"
           style="font-style:normal;font-variant:normal;font-weight:normal;font-stretch:normal;font-family:'Kunstler Script';-inkscape-font-specification:'Kunstler Script'"
           id="path4192" />
      </g>
      <g
         style="font-style:normal;font-weight:normal;font-size:40px;line-height:125%;font-family:sans-serif;letter-spacing:0px;word-spacing:0px;fill:#000000;fill-opacity:1;stroke:none;stroke-width:1px;stroke-linecap:butt;stroke-linejoin:miter;stroke-opacity:1"
         id="text4160">
        <path
           d="m 343.35297,753.36566 q -0.97657,0.80078 -2.42188,1.3086 -1.42578,0.48828 -2.7539,0.48828 -1.07422,0 -6.38672,-0.74219 -5.29297,-0.76172 -10.3711,-0.76172 -7.40234,0 -11.25,2.69531 -3.84765,2.69532 -3.84765,5.15625 0,1.26953 1.30859,2.2461 1.32813,0.95703 3.32031,0.95703 3.125,0 6.3086,-1.83594 3.18359,-1.83594 3.18359,-3.88672 0,-0.91797 -0.78125,-1.44531 -0.78125,-0.52734 -1.81641,-0.52734 -2.28515,0 -4.9414,1.30859 -2.65625,1.28906 -5.03906,3.78906 l -0.11719,-0.13672 q 2.24609,-2.42187 4.96094,-3.80859 2.71484,-1.38672 5.15625,-1.38672 1.28906,0 2.05078,0.58594 0.78125,0.58594 0.78125,1.44531 0,2.32422 -3.26172,4.21875 -3.24219,1.875 -6.54297,1.875 -2.08984,0 -3.45703,-1.01562 -1.34766,-1.03516 -1.34766,-2.28516 0,-1.38672 1.3086,-3.125 1.32812,-1.73828 3.88671,-3.04688 2.5586,-1.30859 6.11329,-1.875 3.57421,-0.58593 8.94531,-0.58593 4.10156,0 7.1875,0.23437 l 4.51172,0.3711 q 1.66015,0.13671 2.7539,0.13671 1.36719,0 2.42188,-0.58593 l 0.13672,0.23437 z m -11.89453,1.75781 -3.4961,3.04688 q -1.46484,1.26953 -2.89062,2.91016 -1.42578,1.64062 -4.21875,6.13281 -2.79297,4.47265 -5.09766,6.73828 -2.28516,2.26562 -6.01562,3.96484 -3.73047,1.69922 -7.67579,1.69922 -3.18359,0 -4.96093,-0.99609 -1.77735,-0.9961 -1.77735,-2.59766 0,-0.80078 0.50782,-1.38672 0.52734,-0.58593 1.25,-0.58593 0.5664,0 0.95703,0.37109 0.39062,0.35156 0.39062,0.89844 0,0.52734 -0.35156,0.8789 -0.35156,0.33203 -0.89844,0.33203 -0.50781,0 -1.17187,-0.54687 -0.17578,0.21484 -0.17578,0.42969 0,1.1914 1.58203,2.10937 1.60156,0.89844 4.47265,0.89844 2.96875,0 5.58594,-1.09375 2.61719,-1.11328 4.6875,-3.10547 2.08984,-2.01172 5.78125,-6.77734 l 2.14844,-2.77344 q 2.16797,-2.79297 5.66406,-5.91797 l 5.58594,-4.70703 0.11719,0.0781 z"
           style="font-style:normal;font-variant:normal;font-weight:normal;font-stretch:normal;font-family:'Kunstler Script';-inkscape-font-specification:'Kunstler Script'"
           id="path4195" />
        <path
           d="m 330.98969,768.05316 q 0,0.42969 -0.35157,0.72266 -0.35156,0.29297 -0.74218,0.29297 -0.27344,0 -0.46875,-0.19532 -0.19532,-0.21484 -0.19532,-0.50781 0,-0.37109 0.33203,-0.70312 0.33204,-0.33203 0.74219,-0.33203 0.29297,0 0.48828,0.21484 0.19532,0.21484 0.19532,0.50781 z m -9.58985,7.8125 -0.13672,-0.13672 q 0.95703,-0.82031 4.82422,-3.82812 l 1.89453,0 -6.1914,6.09375 q -0.35157,0.35156 -0.46875,0.70312 l 0,0.13672 q 0,0.25391 0.19531,0.44922 0.19531,0.19531 0.48828,0.19531 0.625,0 1.75781,-0.625 1.15235,-0.64453 4.00391,-3.125 l 0.13672,0.13672 q -4.35547,3.8086 -5.87891,3.8086 -0.48828,0 -0.80078,-0.3125 -0.29297,-0.3125 -0.29297,-0.83985 0,-0.74219 0.48828,-1.5625 0.50782,-0.83984 3.75,-3.96484 l -0.0391,-0.0977 -1.79687,1.36719 -1.9336,1.60156 z"
           style="font-style:normal;font-variant:normal;font-weight:normal;font-stretch:normal;font-family:'Kunstler Script';-inkscape-font-specification:'Kunstler Script'"
           id="path4197" />
        <path
           d="m 327.88422,775.86566 -0.13672,-0.13672 1.97265,-1.62109 q 2.92969,-2.40234 4.16016,-2.40234 1.07422,0 1.07422,1.21093 0,1.09375 -1.67969,2.92969 l 0.0781,0.0781 q 5,-4.14063 6.83593,-4.14063 0.58594,0 0.91797,0.33203 0.35157,0.33203 0.35157,0.74219 0,1.13281 -1.85547,3.10547 l 0.0781,0.0391 q 1.3086,-1.25 2.67578,-2.22656 1.38672,-0.97656 2.32422,-1.40625 0.95703,-0.42969 1.6211,-0.42969 1.28906,0 1.28906,1.11328 0,0.97656 -0.72266,1.89453 -0.72265,0.89844 -3.20312,2.89063 -0.6836,0.5664 -0.6836,0.89844 0,0.70312 0.89844,0.70312 0.87891,0 2.01172,-0.68359 1.15234,-0.6836 3.84766,-3.02735 l 0.13671,0.13672 q -3.18359,2.71485 -4.25781,3.26172 -1.05469,0.52734 -1.75781,0.52734 -0.54688,0 -0.9375,-0.37109 -0.37109,-0.39062 -0.37109,-0.91797 0,-0.72265 0.54687,-1.48437 0.56641,-0.76172 2.28516,-2.08985 1.73828,-1.34765 1.73828,-2.05078 0,-0.54687 -0.76172,-0.54687 -0.97656,0 -2.55859,0.8789 -1.5625,0.85938 -3.59375,2.71485 l -2.34375,2.16797 q -1.03516,0.95703 -1.60157,1.5625 l -1.79687,0.0391 2.67578,-2.65625 q 2.14844,-2.12891 2.87109,-2.98828 0.72266,-0.87891 0.72266,-1.32813 0,-0.19531 -0.19531,-0.39062 -0.19532,-0.19532 -0.48828,-0.19532 -0.87891,0 -2.75391,1.21094 -1.875,1.19141 -3.94531,2.98828 l -3.75,3.32032 -1.75782,0.0391 0.70313,-0.78125 2.51953,-2.48047 q 1.99219,-1.95313 2.63672,-2.71484 0.64453,-0.78125 0.64453,-1.21094 0,-0.42969 -0.50781,-0.42969 -0.72266,0 -2.05078,0.89844 -1.32813,0.8789 -3.90625,3.02734 z"
           style="font-style:normal;font-variant:normal;font-weight:normal;font-stretch:normal;font-family:'Kunstler Script';-inkscape-font-specification:'Kunstler Script'"
           id="path4199" />
        <path
           d="m 358.43109,775.72894 0.13672,0.13672 q -0.72266,0.6836 -1.48437,0.6836 -0.625,0 -1.05469,-0.44922 -1.44531,1.52343 -3.08594,2.55859 -1.64062,1.03516 -2.73437,1.03516 -0.56641,0 -0.95704,-0.41016 -0.39062,-0.41016 -0.39062,-1.13281 0,-1.66016 1.48437,-3.1836 1.48438,-1.54296 3.39844,-2.38281 1.9336,-0.85937 3.06641,-0.85937 1.11328,0 1.11328,1.05468 0,1.09375 -1.75781,3.14454 0.35156,0.42968 0.9375,0.42968 0.66406,0 1.32812,-0.625 z m -0.68359,-3.00781 q 0,-0.37109 -0.29297,-0.60547 -0.27344,-0.23437 -0.625,-0.23437 -1.48438,0 -4.49219,2.96875 -2.98828,2.96875 -2.98828,3.92578 0,0.27344 0.27344,0.50781 0.27344,0.21484 0.625,0.21484 0.82031,0 2.34375,-0.83984 1.54297,-0.85937 2.69531,-2.07031 1.17188,-1.23047 1.81641,-2.1875 0.64453,-0.97656 0.64453,-1.67969 z"
           style="font-style:normal;font-variant:normal;font-weight:normal;font-stretch:normal;font-family:'Kunstler Script';-inkscape-font-specification:'Kunstler Script'"
           id="path4201" />
        <path
           d="m 358.58734,775.86566 -0.13672,-0.13672 5.3711,-4.39453 2.28515,-1.79687 -1.77734,0 0.0781,-0.17578 1.97266,0 3.30078,-3.45704 1.66016,-0.0391 -3.1836,3.4961 2.8125,0 -0.0586,0.17578 -2.94922,0 -6.73828,7.1875 q -1.21094,1.28906 -1.46484,1.62109 -0.23438,0.33203 -0.23438,0.625 0,0.29297 0.23438,0.50781 0.2539,0.19532 0.52734,0.19532 1.60156,0 6.13281,-3.94532 l 0.13672,0.13672 q -4.70703,4.04297 -6.30859,4.04297 -0.50781,0 -0.87891,-0.41016 -0.35156,-0.42968 -0.35156,-0.99609 0,-1.46484 1.95312,-3.53516 l 3.98438,-4.14062 -0.0781,-0.0586 -6.28906,5.09765 z"
           style="font-style:normal;font-variant:normal;font-weight:normal;font-stretch:normal;font-family:'Kunstler Script';-inkscape-font-specification:'Kunstler Script'"
           id="path4203" />
        <path
           d="m 366.55609,775.86566 -0.13672,-0.13672 1.875,-1.54297 q 1.52344,-1.26953 3.61328,-2.71484 2.10938,-1.44531 2.14844,-1.48437 l 5.39063,-5.50782 q 1.58203,-1.62109 3.08593,-2.92968 1.52344,-1.3086 2.98829,-2.20704 1.46484,-0.91796 2.24609,-1.17187 0.80078,-0.25391 1.25,-0.25391 1.19141,0 1.19141,1.13282 0,1.5039 -3.35938,4.23828 -3.35937,2.73437 -8.69141,5.17578 -2.24609,1.03515 -2.53906,1.34765 l -2.08984,2.32422 q -2.12891,2.36328 -4.31641,5.03907 l 0.17578,0.0586 q 2.14844,-2.05078 4.55078,-3.73047 2.40235,-1.69922 3.55469,-1.69922 1.23047,0 1.23047,1.25 0,0.78125 -0.39062,1.52344 -0.3711,0.72266 -1.67969,1.83594 l -1.19141,1.01562 q -1.28906,1.09375 -1.28906,1.60156 0,0.48829 0.58594,0.48829 1.75781,0 6.03515,-3.78907 l 0.11719,0.13672 -1.52344,1.28906 q -1.17187,0.9961 -2.51953,1.77735 -1.34765,0.78125 -2.08984,0.78125 -0.50781,0 -0.82031,-0.39063 -0.29297,-0.41015 -0.29297,-1.03515 0,-0.70313 0.44922,-1.28907 0.44921,-0.60546 1.95312,-1.89453 1.52344,-1.28906 1.85547,-1.69922 0.35156,-0.41015 0.35156,-0.74218 0,-0.29297 -0.2539,-0.46875 -0.23438,-0.19532 -0.52735,-0.19532 -0.41015,0 -1.38672,0.42969 -0.97656,0.42969 -2.73437,1.69922 -1.75781,1.25 -3.47656,2.91016 -1.71875,1.64062 -2.67579,2.46093 l -1.93359,0.0195 8.06641,-8.65235 -0.0781,-0.0977 q -1.77734,1.01562 -6.71875,5.09765 z m 23.33985,-16.875 q 0,-0.82031 -0.83985,-0.82031 -1.1914,0 -2.98828,1.23047 -1.79687,1.23047 -5.68359,5.29297 -3.88672,4.04297 -3.88672,4.25781 0,0.0391 2.57812,-1.15234 1.52344,-0.72266 3.06641,-1.60157 2.36328,-1.36718 3.96484,-2.59765 1.60157,-1.25 2.63672,-2.48047 0.80078,-0.9375 1.03516,-1.58203 0.11719,-0.29297 0.11719,-0.54688 z"
           style="font-style:normal;font-variant:normal;font-weight:normal;font-stretch:normal;font-family:'Kunstler Script';-inkscape-font-specification:'Kunstler Script'"
           id="path4205" />
        <path
           d="m 388.70453,775.72894 0.13672,0.13672 q -2.34375,2.07031 -4.27735,3.00781 -1.93359,0.91797 -3.08593,0.91797 -1.60157,0 -1.60157,-1.64062 0,-2.20703 3.00782,-4.16016 3.02734,-1.95312 4.72656,-1.95312 0.3125,0 0.52734,0.17578 0.23438,0.17578 0.23438,0.42969 0,0.95703 -1.89453,2.01171 -1.89453,1.05469 -4.19922,1.3086 -1.99219,1.99219 -1.99219,2.73437 0,0.35157 0.35156,0.66407 0.35157,0.29296 0.82032,0.29296 1.01562,0 2.87109,-0.8789 1.875,-0.89844 4.375,-3.04688 z m -6.13281,0 q 0.58593,0 2.07031,-0.50781 1.48437,-0.50781 2.46094,-1.30859 0.99609,-0.80078 0.99609,-1.32813 0,-0.37109 -0.42969,-0.37109 -0.50781,0 -1.13281,0.3125 -0.60547,0.3125 -1.85547,1.28906 -1.25,0.95703 -2.10937,1.91406 z m 5.23437,-5.15625 q 0.0977,0 0.9961,-0.46875 0.39062,-0.21484 0.68359,-0.41015 0.33203,-0.23438 0.66406,-0.54688 0.39063,-0.35156 0.66406,-0.66406 l 0.44922,-0.54688 q 0.15625,-0.17578 0.25391,-0.23437 0.0781,-0.0586 0.15625,-0.0781 0.0781,-0.0195 0.17578,-0.0195 0.58594,0 0.58594,0.56641 0,0.11719 -0.0391,0.25391 -0.0391,0.15625 -0.11719,0.27343 -0.0977,0.11719 -0.23438,0.25391 -0.19531,0.17578 -0.50781,0.37109 -0.41016,0.25391 -0.87891,0.46875 -0.42968,0.21485 -0.85937,0.3711 -0.44922,0.15625 -0.83984,0.23437 -0.89844,0.17578 -1.15235,0.17578 z"
           style="font-style:normal;font-variant:normal;font-weight:normal;font-stretch:normal;font-family:'Kunstler Script';-inkscape-font-specification:'Kunstler Script'"
           id="path4207" />
        <path
           d="m 396.59515,775.72894 0.13672,0.13672 q -2.34375,2.07031 -4.27734,3.00781 -1.93359,0.91797 -3.08594,0.91797 -1.60156,0 -1.60156,-1.64062 0,-2.20703 3.00781,-4.16016 3.02735,-1.95312 4.72656,-1.95312 0.3125,0 0.52735,0.17578 0.23437,0.17578 0.23437,0.42969 0,0.95703 -1.89453,2.01171 -1.89453,1.05469 -4.19922,1.3086 -1.99218,1.99219 -1.99218,2.73437 0,0.35157 0.35156,0.66407 0.35156,0.29296 0.82031,0.29296 1.01563,0 2.87109,-0.8789 1.875,-0.89844 4.375,-3.04688 z m -6.13281,0 q 0.58594,0 2.07031,-0.50781 1.48438,-0.50781 2.46094,-1.30859 0.9961,-0.80078 0.9961,-1.32813 0,-0.37109 -0.42969,-0.37109 -0.50781,0 -1.13281,0.3125 -0.60547,0.3125 -1.85547,1.28906 -1.25,0.95703 -2.10938,1.91406 z"
           style="font-style:normal;font-variant:normal;font-weight:normal;font-stretch:normal;font-family:'Kunstler Script';-inkscape-font-specification:'Kunstler Script'"
           id="path4209" />
      </g>
    </g>
  </g>
</svg>
