<?xml version="1.0" encoding="UTF-8" standalone="no"?>
<!-- Generator: Adobe Illustrator 21.0.0, SVG Export Plug-In . SVG Version: 6.00 Build 0)  -->

<svg
   xmlns:dc="http://purl.org/dc/elements/1.1/"
   xmlns:cc="http://creativecommons.org/ns#"
   xmlns:rdf="http://www.w3.org/1999/02/22-rdf-syntax-ns#"
   xmlns:svg="http://www.w3.org/2000/svg"
   xmlns="http://www.w3.org/2000/svg"
   xmlns:sodipodi="http://sodipodi.sourceforge.net/DTD/sodipodi-0.dtd"
   xmlns:inkscape="http://www.inkscape.org/namespaces/inkscape"
   version="1.1"
   id="Calque_1"
   x="0px"
   y="0px"
   viewBox="0 0 1062.9921 1062.9922"
   xml:space="preserve"
   inkscape:version="0.91 r13725"
   sodipodi:docname="pingouin.svg"
   width="300mm"
   height="300mm"><metadata
     id="metadata3365"><rdf:RDF><cc:Work
         rdf:about=""><dc:format>image/svg+xml</dc:format><dc:type
           rdf:resource="http://purl.org/dc/dcmitype/StillImage" /><dc:title>pieton_cycliste</dc:title></cc:Work></rdf:RDF></metadata><defs
     id="defs3363" /><sodipodi:namedview
     pagecolor="#ffffff"
     bordercolor="#666666"
     borderopacity="1"
     objecttolerance="10"
     gridtolerance="10"
     guidetolerance="10"
     inkscape:pageopacity="0"
     inkscape:pageshadow="2"
     inkscape:window-width="1920"
     inkscape:window-height="1017"
     id="namedview3361"
     showgrid="false"
     inkscape:zoom="8.0000002"
     inkscape:cx="308.07414"
     inkscape:cy="252.94135"
     inkscape:window-x="-8"
     inkscape:window-y="-8"
     inkscape:window-maximized="1"
     inkscape:current-layer="Calque_1"
     inkscape:document-units="mm"
     units="mm" /><style
     type="text/css"
     id="style3337">
	.st0{fill:#40403F;}
	.st1{fill:#FFFFFF;stroke:#000000;stroke-width:0.25;stroke-miterlimit:10;}
</style><title
     id="title3339">pieton_cycliste</title><path
     style="opacity:1;fill:none;fill-opacity:1;stroke:#ff0000;stroke-width:0.7086615;stroke-miterlimit:4.5999999;stroke-dasharray:none;stroke-opacity:1"
     d="m 422.95747,990.00451 -212.50278,0 -8.85473,-98.86842 C 110.33636,849.11293 51.135647,756.30067 51.135651,649.21675 51.135657,502.546 170.03579,383.64586 316.70654,383.64586 c 146.67076,-1e-5 264.90798,119.56304 264.90799,266.2338 0,106.89307 -58.68531,199.03595 -149.80233,241.20971 z"
     id="rect4146"
     inkscape:connector-curvature="0"
     sodipodi:nodetypes="cccssscc" /><path
     style="fill:#000000;fill-rule:evenodd;stroke:#000000;stroke-width:0.80000001px;stroke-linecap:butt;stroke-linejoin:miter;stroke-opacity:1"
     d="m 235.92235,739.81707 -8.08122,2.42436 c -12.2167,-16.84568 -24.48199,-33.60354 -23.03148,-75.15535 -29.83067,10.37182 -44.26959,28.88236 -50.10356,21.41523 -10.42472,-28.37764 32.05536,-43.32809 61.82133,-78.38784 10.96035,-10.64232 3.41545,-42.98132 13.73808,-67.47818 33.67012,-81.80301 140.35316,-82.99782 168.49344,2.82842 9.81032,21.65212 6.91584,52.15144 20.20306,70.30662 15.96177,16.96085 74.29696,49.58611 57.78072,74.34723 -5.11063,6.465 -30.86302,-21.71649 -50.10356,-23.8396 1.08476,31.68868 -6.90542,55.69855 -19.79899,75.55941 l -8.48528,-2.0203 c 12.01186,-32.90888 10.4609,-58.83964 4.17239,-79.17327 -7.99874,-25.86354 -26.6263,-45.59279 -46.39677,-56.79327 17.37284,-4.3556 33.3062,-20.7512 22.42539,-40.20407 -21.73496,-38.85807 -87.58156,-5.62631 -56.82082,29.91712 -5.262,-0.87693 -9.12204,0.008 -13.38478,0.38745 17.53863,-36.57486 -16.26073,-81.94328 -46.66906,-52.12387 -3.33706,3.27243 -27.28382,41.30603 8.18225,66.77109 -22.50144,14.51148 -36.56981,39.49807 -40.73866,60.12649 -7.316,36.20124 -0.0323,57.06181 6.79752,71.09233 z"
     id="path4147"
     inkscape:connector-curvature="0"
     sodipodi:nodetypes="ccccccccccccscsccscsc" /><path
     style="fill:#00ffff;fill-rule:evenodd;stroke:none;stroke-width:1px;stroke-linecap:butt;stroke-linejoin:miter;stroke-opacity:1"
     d="m 268.49473,609.38111 c 5.28154,2.98517 10.48085,4.36485 16.26345,4.20729 5.14768,14.21858 21.074,25.54615 29.87526,32.80976 l 6.78822,-10e-6 c 9.38096,-11.03086 18.40995,-18.54212 28.14286,-33.09259 -0.36866,-2.73414 -1.03499,-5.46829 -2.89914,-8.20244"
     id="path4915"
     inkscape:connector-curvature="0"
     sodipodi:nodetypes="cccccc" /><path
     style="fill:#ff00ff;stroke:#800080;stroke-width:0.25084868;stroke-miterlimit:4;stroke-dasharray:none"
     d="M 282.48438 532.79102 C 263.60523 532.96408 250.86612 552.17796 251.06445 572.88477 C 251.26961 594.30606 265.45474 611.54531 282.48438 612.26953 C 283.6759 612.3202 284.85292 612.26975 286.01172 612.125 C 282.61421 600.70921 295.218 597.414 308.11914 594.03711 C 311.20759 587.84791 313.09113 580.54756 313.29883 572.88477 C 313.88822 551.14036 299.50219 532.63502 282.48438 532.79102 z M 282.74414 533.44531 C 295.91008 533.48235 308.97246 547.32655 311.20508 567.1543 C 307.38412 560.9393 298.84882 558.80561 294.82617 570.86914 C 290.47103 558.31507 285.53776 549.70806 262.07617 545.82617 C 265.73689 541.10687 269.09732 537.90113 273.95117 535.39648 C 276.36209 534.19087 278.97894 533.64755 281.4707 533.48438 C 281.89527 533.45657 282.31943 533.44412 282.74414 533.44531 z M 255.08008 565.76172 C 260.46553 603.59905 287.25487 601.66021 286.15039 603.60352 C 285.52906 604.69673 284.58647 606.75557 285.10156 608.48633 C 257.1978 607.81505 252.90308 573.49418 255.08008 565.76172 z "
     id="path4238"
     transform="translate(-6.1035164e-5,0)" /><path
     style="fill:#000000;stroke:#000000;stroke-width:0.08;stroke-miterlimit:4;stroke-dasharray:none"
     d="m 313.00418,575.51831 c 0.25601,6.92916 -3.64099,13.8345 -9.30059,13.58402 -5.01612,-0.22201 -9.35971,-6.19317 -9.31073,-13.33402 0.0504,-7.34246 4.2914,-13.78624 9.2505,-13.67277 6.01224,0.13757 9.10208,6.4201 9.36082,13.42277 z"
     id="path4149"
     inkscape:connector-curvature="0"
     sodipodi:nodetypes="sssss" /><path
     style="fill:#ffff00;fill-rule:evenodd;stroke:#008000;stroke-width:0.08;stroke-linecap:butt;stroke-linejoin:miter;stroke-miterlimit:4;stroke-dasharray:none;stroke-opacity:1"
     d="m 302.05633,563.1341 c 1.00966,3.64776 2.09687,7.18473 2.46429,11.75 2.34572,-1.01215 4.55079,-1.95397 7.25,-3.14286 -1.8744,-8.22927 -7.8089,-8.68418 -9.71429,-8.60714 z"
     id="path4152"
     inkscape:connector-curvature="0"
     sodipodi:nodetypes="cccc" /><path
     style="fill:#0000ff;fill-rule:evenodd;stroke:#ff00ff;stroke-width:0.08;stroke-linecap:butt;stroke-linejoin:miter;stroke-miterlimit:4;stroke-dasharray:none;stroke-opacity:1"
     d="m 296.94918,567.8841 c -2.05565,4.11464 -3.50622,13.27585 3.28572,18.5 l 7.57143,-0.0357 c -9.30684,-3.0486 -11.27788,-12.15164 -10.85715,-18.46432 z"
     id="path4154"
     inkscape:connector-curvature="0"
     sodipodi:nodetypes="cccc" /><path
     style="fill:#000000;stroke:#000000;stroke-width:0.08;stroke-miterlimit:4;stroke-dasharray:none"
     d="m 332.67767,576.05091 c 0.25601,6.92916 -3.64099,13.8345 -9.30059,13.58402 -5.01612,-0.22201 -9.35971,-6.19317 -9.31073,-13.33402 0.0504,-7.34246 4.29141,-13.78624 9.2505,-13.67277 6.01224,0.13757 9.10208,6.4201 9.36082,13.42277 z"
     id="path4149-4"
     inkscape:connector-curvature="0"
     sodipodi:nodetypes="sssss" /><path
     style="fill:#ffff00;fill-rule:evenodd;stroke:#008000;stroke-width:0.08;stroke-linecap:butt;stroke-linejoin:miter;stroke-miterlimit:4;stroke-dasharray:none;stroke-opacity:1"
     d="m 321.72982,563.6667 c 1.00966,3.64776 2.09687,7.18473 2.46429,11.75 2.34573,-1.01215 4.55079,-1.95397 7.25,-3.14286 -1.87439,-8.22927 -7.8089,-8.68418 -9.71429,-8.60714 z"
     id="path4152-9"
     inkscape:connector-curvature="0"
     sodipodi:nodetypes="cccc" /><path
     style="fill:#0000ff;fill-rule:evenodd;stroke:#ff00ff;stroke-width:0.08;stroke-linecap:butt;stroke-linejoin:miter;stroke-miterlimit:4;stroke-dasharray:none;stroke-opacity:1"
     d="m 316.62268,568.4167 c -2.05566,4.11464 -3.50623,13.27585 3.28572,18.5 l 7.57142,-0.0357 c -9.30684,-3.0486 -11.27787,-12.15164 -10.85714,-18.46432 z"
     id="path4154-1"
     inkscape:connector-curvature="0"
     sodipodi:nodetypes="cccc" /><path
     style="fill:#808000;fill-rule:evenodd;stroke:none;stroke-width:0.1;stroke-linecap:butt;stroke-linejoin:miter;stroke-miterlimit:4;stroke-dasharray:none;stroke-opacity:1"
     d="m 316.83557,642.0343 c -4.00853,-1.41112 -8.70811,-4.63115 -16.01128,-11.8867 -6.15167,-6.11154 -13.06851,-13.98087 -15.30344,-19.12498 -0.64845,-4.82429 -0.0589,-9.14512 11.24565,-13.71527 4.79548,-1.93869 11.56796,-3.76327 18.04877,-3.86139 16.27891,0.16731 15.16982,1.81443 19.87971,2.96633 10.26286,3.46745 11.42275,11.41853 11.334,14.20626 -9.45703,15.56533 -17.80092,21.9518 -26.36498,31.41575 z"
     id="path4185"
     inkscape:connector-curvature="0"
     sodipodi:nodetypes="cscsccccc" /><path
     style="fill:#ff00ff;stroke:#800080;stroke-width:0.28346458;stroke-miterlimit:4;stroke-dasharray:none"
     d="m 347.75586,546.65625 c -17.99266,0.14319 -33.53046,13.66915 -33.85742,27.56641 0.24331,-6.05368 4.95245,-11.37091 9.21289,-11.5918 4.95442,-0.25686 9.42801,5.4791 9.58594,12.97656 0.16767,7.95949 -4.03114,14.30424 -9.0918,14 -6.01135,-0.36141 -8.84195,-5.96971 -9.63672,-13.35742 1.22063,15.48751 15.59688,28.3781 33.78711,28.46289 18.68272,0.0871 33.82812,-12.99735 33.82812,-29.0293 0,-16.03193 -15.14579,-29.17602 -33.82812,-29.02734 z m -4.79883,2.42773 c 1.38321,-0.0983 2.73833,-0.13838 4.06445,-0.12304 19.89194,0.23004 33.09687,12.89812 31.63477,27.62304 -4.49917,23.57384 -22.79922,27.10534 -34.19922,24.69922 l -7.30078,-5 c 12.16741,2.80546 23.86593,1.46275 34.5,-6.39843 8.19836,-8.66682 4.13411,-24.56746 -0.69922,-28.30079 l -10.10156,8 c -3.5564,-7.26299 -8.8497,-13.6569 -16.01759,-19.1244 -10.26646,2.99596 -19.80532,7.69601 -22.72655,12.2162 -0.71646,0.0946 -1.19199,0.33459 -1.67969,0.56641 6.44462,-7.60355 14.00819,-10.42338 23.32723,-13.59875 -0.27675,-0.21598 -0.51053,-0.35328 -0.80184,-0.55946 z"
     transform="translate(-6.1035164e-5,0)"
     id="path4904"
     inkscape:connector-curvature="0"
     sodipodi:nodetypes="scssscssscsccccccccccc" /><path
     style="fill:#ffff00;fill-rule:evenodd;stroke:none;stroke-width:0.1;stroke-linecap:butt;stroke-linejoin:miter;stroke-miterlimit:4;stroke-dasharray:none;stroke-opacity:1"
     d="m 296.98489,599.52696 c 23.851,1.81643 31.75195,10.63862 39.00001,21.14286 l 7.85714,-9.92858 c 0.41022,-18.83141 -34.66666,-18.96454 -46.85715,-11.21428 z"
     id="path4187"
     inkscape:connector-curvature="0"
     sodipodi:nodetypes="cccc" /><path
     style="fill:#00ffff;fill-rule:evenodd;stroke:#00ffff;stroke-width:0.80000001px;stroke-linecap:butt;stroke-linejoin:miter;stroke-opacity:1"
     d="m 199.26851,791.3617 c -9.8557,-14.47091 -1.02982,-31.86395 11.08425,-40.71474 12.68323,-9.26661 31.06675,-13.15916 43.13213,-12.59252 54.61882,2.56513 61.33785,43.87063 50.48776,52.87151 z"
     id="path4206"
     inkscape:connector-curvature="0"
     sodipodi:nodetypes="csscc" /><path
     style="fill:#800000;fill-rule:evenodd;stroke:#ffff00;stroke-width:0.80000001px;stroke-linecap:butt;stroke-linejoin:miter;stroke-opacity:1"
     d="m 217.33555,782.04144 c -14.60718,-13.14376 -7.2692,-23.85611 -1.71726,-30.00153 7.17221,-7.77452 19.46422,-9.36427 28.17561,-8.9053 16.15255,0.85101 26.60558,8.81869 28.39293,11.43068 8.50317,12.42633 -0.055,20.94835 -2.92945,27.1731 z"
     id="path4208"
     inkscape:connector-curvature="0"
     sodipodi:nodetypes="ccsscc" /><path
     style="fill:#00ffff;fill-rule:evenodd;stroke:#00ffff;stroke-width:0.80000001px;stroke-linecap:butt;stroke-linejoin:miter;stroke-opacity:1"
     d="m 435.903,791.13579 c 9.8557,-14.47092 1.02981,-31.86396 -11.08425,-40.71474 -12.68323,-9.26662 -31.06675,-13.15916 -43.13214,-12.59252 -54.61881,2.56513 -61.33784,43.87062 -50.48775,52.8715 z"
     id="path4206-4"
     inkscape:connector-curvature="0"
     sodipodi:nodetypes="csscc" /><path
     style="fill:#800000;fill-rule:evenodd;stroke:#ffff00;stroke-width:0.80000001px;stroke-linecap:butt;stroke-linejoin:miter;stroke-opacity:1"
     d="m 417.83596,781.81553 c 14.60717,-13.14376 7.2692,-23.85611 1.71726,-30.00154 -7.17222,-7.77451 -19.46422,-9.36426 -28.17561,-8.90529 -16.15255,0.85101 -26.60558,8.81869 -28.39293,11.43068 -8.50317,12.42633 0.055,20.94835 2.92944,27.1731 z"
     id="path4208-1"
     inkscape:connector-curvature="0"
     sodipodi:nodetypes="ccsscc" /><path
     style="fill:none;stroke:none;stroke-width:0.35433072;stroke-miterlimit:4;stroke-dasharray:none"
     d="m 308.69918,780.52695 c 5.7232,0.31053 11.5854,0.34309 17.64173,-0.0126 0.0348,1.14478 0.25867,2.10043 0.45458,3.08406 -6.198,0.38363 -12.38375,0.6447 -18.48775,0.0884 0.29224,-1.02632 0.38378,-2.08608 0.39143,-3.15982 z"
     id="rect4235"
     inkscape:connector-curvature="0"
     sodipodi:nodetypes="ccccc" /><path
     style="fill:#800080;stroke:#0000ff;stroke-width:0.30906355;stroke-miterlimit:4;stroke-dasharray:none"
     d="m 451.18636,790.16978 c -10e-6,10.88083 -60.6277,16.87306 -135.41578,16.87306 -74.78806,0 -135.41576,-5.99223 -135.41577,-16.87306 0,-3.16951 5.55636,-4.93767 14.69656,-7.59047 0.61731,3.54742 3.99754,9.25413 3.99754,9.25413 l 105.11195,-0.57431 c 2.99983,-2.69198 3.94839,-7.20946 4.03785,-7.50736 6.24385,0.50753 12.44177,0.52752 18.55791,-0.0818 2.04439,5.9814 3.52777,6.11016 3.94837,7.58685 l 105.35002,0.2158 c 2.20036,-2.25766 3.77043,-8.35804 3.77043,-8.35804 5.07117,0.0998 11.36092,5.24779 11.36092,7.05519 z"
     id="path4898"
     inkscape:connector-curvature="0"
     sodipodi:nodetypes="sssccccccccs" /><path
     style="fill:none;fill-rule:evenodd;stroke:none;stroke-width:1px;stroke-linecap:butt;stroke-linejoin:miter;stroke-opacity:1"
     d="m 391.7657,735.14907 c -58.41792,-0.82624 -67.78803,28.71022 -67.60624,45.67187 0.67709,-0.0385 1.35767,-0.0826 2.04687,-0.1375 1.28017,-26.09114 22.53879,-48.32226 72.66642,-41.96642 l 0.90351,-2.70956 z"
     id="path4953"
     inkscape:connector-curvature="0" /><path
     style="fill:none;fill-rule:evenodd;stroke:none;stroke-width:1px;stroke-linecap:butt;stroke-linejoin:miter;stroke-opacity:1"
     d="m 237.33266,651.90495 c -11.88689,31.84161 -1.53739,63.99706 5.46518,82.62341 -2.65373,0.63763 -6.08609,1.18779 -8.27549,2.04058 -29.55565,-67.58367 21.10342,-120.15414 35.01679,-127.90895 -14.92927,14.01675 -26.5621,27.35885 -32.20648,43.24496 z"
     id="path4951"
     inkscape:connector-curvature="0"
     sodipodi:nodetypes="ccccc" /><path
     style="fill:none;fill-rule:evenodd;stroke:none;stroke-width:1px;stroke-linecap:butt;stroke-linejoin:miter;stroke-opacity:1"
     d="m 269.53914,608.65999 c 4.43251,2.21068 10.03772,4.26624 16.35156,3.48281 7.36931,9.43911 14.49208,21.06612 30.73281,30.07031 l 3.07969,-0.0953 c 8.78846,-10.25153 18.22615,-18.25946 26.50313,-31.40937 l -1.4,-5.9 c 3.60553,0.288 7.03447,0.27301 11.23933,-0.43787 l 8e-4,0.55398 c -2.73066,0.32346 -9.02845,0.71582 -8.91047,0.91048 1.50948,2.49005 2.09239,4.98026 2.42813,7.47031 -9.73291,14.55046 -18.76124,22.06133 -28.14219,33.09219 l -6.78907,0 c -8.80125,-7.26361 -24.72732,-18.5908 -29.875,-32.80937 -5.54296,0.15103 -10.54901,-1.10974 -15.60624,-3.84376"
     id="path4976"
     inkscape:connector-curvature="0"
     sodipodi:nodetypes="ccccccccsccccc" /><path
     style="fill:none;fill-rule:evenodd;stroke:none;stroke-width:1px;stroke-linecap:butt;stroke-linejoin:miter;stroke-opacity:1"
     d="m 399.77626,735.88246 c -2.31777,-0.41175 -5.69389,-0.75133 -7.96056,-0.78341 9.98202,-25.10329 14.68596,-55.64119 5.0925,-83.14964 -6.42462,-17.06688 -19.5545,-34.76534 -40.96359,-47.61755 42.52737,23.23515 62.88533,77.60793 43.83164,131.5506 z"
     id="path4957"
     inkscape:connector-curvature="0"
     sodipodi:nodetypes="ccccc" /><path
     style="fill:none;fill-rule:evenodd;stroke:none;stroke-width:1px;stroke-linecap:butt;stroke-linejoin:miter;stroke-opacity:1"
     d="m 235.25633,739.08343 c 11.13125,-3.94817 70.61869,-5.0328 73.6,41.6 2.0084,0.10555 4.02706,0.18466 6.06093,0.23749 -1.47027,-0.17051 -2.95588,-0.34613 -4.51093,-0.44531 -0.68745,-40.94172 -42.29132,-48.89478 -68.425,-45.69687 -3.21548,0.8223 -5.61867,1.046 -7.52969,2.14375 0.26306,0.71908 0.52801,1.43828 0.80469,2.16094 z"
     id="path4937"
     inkscape:connector-curvature="0"
     sodipodi:nodetypes="ccccccc" /><path
     inkscape:connector-curvature="0"
     style="fill:#ff00ff;fill-rule:evenodd;stroke:#800080;stroke-width:0.80000001px;stroke-linecap:butt;stroke-linejoin:miter;stroke-opacity:1"
     d="m 398.04864,656.14125 c -4.823,-17.86896 -25.13692,-44.40694 -41.44486,-51.83946 -3.34289,0.49871 -10.66776,0.1332 -10.66776,0.1332 2.88446,3.009 3.14025,7.20608 3.62812,8.87031 -9.73291,14.55046 -18.76124,22.06133 -28.14219,33.09219 l -6.78906,0 c -8.80126,-7.26361 -24.72732,-18.5908 -29.875,-32.80938 -5.46123,1.27929 -15.70211,-3.21288 -15.572,-3.86345 -15.33222,11.77476 -29.31115,32.90477 -33.18543,46.3189 z"
     id="path4945-2"
     sodipodi:nodetypes="ccsccccccc" /><path
     style="fill:#800000;stroke:#ffff00;stroke-width:0.28346458;stroke-miterlimit:4;stroke-dasharray:none"
     d="m 235.95061,656.11739 161.53726,0 2.26275,9.6 -165.00001,0 z"
     id="rect4980"
     inkscape:connector-curvature="0"
     sodipodi:nodetypes="ccccc" /><path
     style="fill:#00ffff;fill-rule:evenodd;stroke:#00ffff;stroke-width:0.80000001px;stroke-linecap:butt;stroke-linejoin:miter;stroke-opacity:1"
     d="m 235.43749,665.2072 163.6245,0 c 2.85987,24.18871 3.71034,39.38547 -7.61855,70.07931 -17.44876,1.06728 -65.04367,-0.79358 -67.75903,45.74478 l -13.01077,0.15147 c -3.65467,-39.68593 -37.81119,-49.40364 -68.02367,-46.6791 -7.73558,-26.17148 -11.31848,-44.21529 -7.21248,-69.29646 z"
     id="path4978"
     inkscape:connector-curvature="0"
     sodipodi:nodetypes="ccccccc" /><path
     style="fill:#808000;stroke:#00ff00;stroke-width:0.28346458;stroke-miterlimit:4;stroke-dasharray:none"
     d="m 399.99272,735.35891 c -0.46711,1.24192 -0.95509,2.45348 -1.46333,3.63537 -16.00335,-3.22617 -73.32598,-1.02249 -71.18248,44.29047 -3.90584,0.4427 -7.90829,0.78044 -11.99629,1.03264 -2.55079,0.15736 -5.08537,0.22564 -7.59821,0.20279 1.98881,-45.96183 -53.78071,-49.41466 -72.0501,-44.98068 -0.56648,-1.00922 -1.10463,-2.03861 -1.61537,-3.08842 18.76385,-4.43868 69.85363,-8.04233 76.86285,44.34141 l 12.19971,-0.0434 c 3.42368,-39.89362 36.99653,-46.14249 76.84322,-45.39013 z"
     id="path4990"
     inkscape:connector-curvature="0"
     sodipodi:nodetypes="cccscccccc" /><path
     inkscape:connector-curvature="0"
     style="fill:none;stroke:none;stroke-width:0.35433072;stroke-miterlimit:4;stroke-dasharray:none"
     d="m 269.04255,610.07589 c -18.86054,18.99325 -51.50566,44.63058 -26.16175,124.83598 -3.59435,0.36507 -6.16596,0.98308 -8.71983,1.52156 -7.1571,-17.90449 -8.33147,-27.74681 -8.21036,-46.31604 0.19835,-30.41064 16.80469,-61.9482 42.328,-80.56011 z"
     id="path4994" /><path
     style="fill:#ffffff;stroke:none;stroke-width:0.35433072;stroke-miterlimit:4;stroke-dasharray:none"
     d="m 400.02349,735.47028 -8.63665,-0.18336 c 23.98037,-68.38151 1.59062,-104.05553 -33.7105,-130.62242 20.38669,13.38381 68.34973,51.25638 42.34715,130.80578 z"
     id="path4983"
     inkscape:connector-curvature="0"
     sodipodi:nodetypes="cccc" /></svg>