  0
SECTION
  2
HEADER
  9
$ACADVER
  1
AC1014
  9
$HANDSEED
  5
FFFF
  9
$MEASUREMENT
 70
     1
  0
ENDSEC
  0
SECTION
  2
TABLES
  0
TABLE
  2
VPORT
  5
8
330
0
100
AcDbSymbolTable
 70
     4
  0
VPORT
  5
2E
330
8
100
AcDbSymbolTableRecord
100
AcDbViewportTableRecord
  2
*ACTIVE
 70
     0
 10
0.0
 20
0.0
 11
1.0
 21
1.0
 12
210.0
 22
148.5
 13
0.0
 23
0.0
 14
10.0
 24
10.0
 15
10.0
 25
10.0
 16
0.0
 26
0.0
 36
1.0
 17
0.0
 27
0.0
 37
0.0
 40
341.0
 41
1.24
 42
50.0
 43
0.0
 44
0.0
 50
0.0
 51
0.0
 71
     0
 72
   100
 73
     1
 74
     3
 75
     0
 76
     0
 77
     0
 78
     0
  0
ENDTAB
  0
TABLE
  2
LTYPE
  5
5
330
0
100
AcDbSymbolTable
 70
     1
  0
LTYPE
  5
14
330
5
100
AcDbSymbolTableRecord
100
AcDbLinetypeTableRecord
  2
BYBLOCK
 70
     0
  3

 72
    65
 73
     0
 40
0.0
  0
LTYPE
  5
15
330
5
100
AcDbSymbolTableRecord
100
AcDbLinetypeTableRecord
  2
BYLAYER
 70
     0
  3

 72
    65
 73
     0
 40
0.0
  0
LTYPE
  5
16
330
5
100
AcDbSymbolTableRecord
100
AcDbLinetypeTableRecord
  2
CONTINUOUS
 70
     0
  3
Solid line
 72
    65
 73
     0
 40
0.0
  0
ENDTAB
  0
TABLE
  2
LAYER
  5
2
100
AcDbSymbolTable
 70
1
  0
LAYER
  5
50
100
AcDbSymbolTableRecord
100
AcDbLayerTableRecord
  2
0
 70
0
  6
CONTINUOUS
  0
ENDTAB
  0
TABLE
  2
STYLE
  5
3
330
0
100
AcDbSymbolTable
 70
     1
  0
STYLE
  5
11
330
3
100
AcDbSymbolTableRecord
100
AcDbTextStyleTableRecord
  2
STANDARD
 70
     0
 40
0.0
 41
1.0
 50
0.0
 71
     0
 42
2.5
  3
txt
  4

  0
ENDTAB
  0
TABLE
  2
VIEW
  5
6
330
0
100
AcDbSymbolTable
 70
     0
  0
ENDTAB
  0
TABLE
  2
UCS
  5
7
330
0
100
AcDbSymbolTable
 70
     0
  0
ENDTAB
  0
TABLE
  2
APPID
  5
9
330
0
100
AcDbSymbolTable
 70
     2
  0
APPID
  5
12
330
9
100
AcDbSymbolTableRecord
100
AcDbRegAppTableRecord
  2
ACAD
 70
     0
  0
ENDTAB
  0
TABLE
  2
DIMSTYLE
  5
A
330
0
100
AcDbSymbolTable
 70
     1
  0
DIMSTYLE
105
27
330
A
100
AcDbSymbolTableRecord
100
AcDbDimStyleTableRecord
  2
ISO-25
 70
     0
  3

  4

  5

  6

  7

 40
1.0
 41
2.5
 42
0.625
 43
3.75
 44
1.25
 45
0.0
 46
0.0
 47
0.0
 48
0.0
140
2.5
141
2.5
142
0.0
143
0.03937007874016
144
1.0
145
0.0
146
1.0
147
0.625
 71
     0
 72
     0
 73
     0
 74
     0
 75
     0
 76
     0
 77
     1
 78
     8
170
     0
171
     3
172
     1
173
     0
174
     0
175
     0
176
     0
177
     0
178
     0
270
     2
271
     2
272
     2
273
     2
274
     3
340
11
275
     0
280
     0
281
     0
282
     0
283
     0
284
     8
285
     0
286
     0
287
     3
288
     0
  0
ENDTAB
  0
TABLE
  2
BLOCK_RECORD
  5
1
330
0
100
AcDbSymbolTable
 70
     1
  0
BLOCK_RECORD
  5
1F
330
1
100
AcDbSymbolTableRecord
100
AcDbBlockTableRecord
  2
*MODEL_SPACE
  0
BLOCK_RECORD
  5
1B
330
1
100
AcDbSymbolTableRecord
100
AcDbBlockTableRecord
  2
*PAPER_SPACE
  0
ENDTAB
  0
ENDSEC
  0
SECTION
  2
BLOCKS
  0
BLOCK
  5
20
330
1F
100
AcDbEntity
  8
0
100
AcDbBlockBegin
  2
*MODEL_SPACE
 70
     0
 10
0.0
 20
0.0
 30
0.0
  3
*MODEL_SPACE
  1

  0
ENDBLK
  5
21
330
1F
100
AcDbEntity
  8
0
100
AcDbBlockEnd
  0
BLOCK
  5
1C
330
1B
100
AcDbEntity
 67
     1
  8
0
100
AcDbBlockBegin
  2
*PAPER_SPACE
  1

  0
ENDBLK
  5
1D
330
1B
100
AcDbEntity
 67
     1
  8
0
100
AcDbBlockEnd
  0
ENDSEC
  0
SECTION
  2
ENTITIES
  0
LINE
  5
100
100
AcDbEntity
  8
0
 62
1
100
AcDbLine
 10
119.367997
 20
20.598727
 30
0.0
 11
59.394990
 21
20.598727
 31
0.0
  0
LINE
  5
101
100
AcDbEntity
  8
0
 62
1
100
AcDbLine
 10
59.394990
 20
20.598727
 30
0.0
 11
56.895989
 21
48.501592
 31
0.0
  0
SPLINE
  5
102
100
AcDbEntity
  8
0
 62
1
100
AcDbSpline
 70
8
 71
3
 72
8
 73
4
 74
0
 40
0
 40
0
 40
0
 40
0
 40
1
 40
1
 40
1
 40
1
 10
56.895989
 20
48.501592
 30
0.0
 10
31.139373
 20
60.361462
 30
0.0
 10
14.431616
 20
86.555144
 30
0.0
 10
14.431617
 20
116.776606
 30
0.0
  0
SPLINE
  5
103
100
AcDbEntity
  8
0
 62
1
100
AcDbSpline
 70
8
 71
3
 72
8
 73
4
 74
0
 40
0
 40
0
 40
0
 40
0
 40
1
 40
1
 40
1
 40
1
 10
14.431617
 20
116.776606
 30
0.0
 10
14.431619
 20
158.170351
 30
0.0
 10
47.987879
 20
191.726613
 30
0.0
 10
89.381624
 20
191.726613
 30
0.0
  0
SPLINE
  5
104
100
AcDbEntity
  8
0
 62
1
100
AcDbSpline
 70
8
 71
3
 72
8
 73
4
 74
0
 40
0
 40
0
 40
0
 40
0
 40
1
 40
1
 40
1
 40
1
 10
89.381624
 20
191.726613
 30
0.0
 10
130.775371
 20
191.726616
 30
0.0
 10
164.144542
 20
157.983266
 30
0.0
 10
164.144545
 20
116.589518
 30
0.0
  0
SPLINE
  5
105
100
AcDbEntity
  8
0
 62
1
100
AcDbSpline
 70
8
 71
3
 72
8
 73
4
 74
0
 40
0
 40
0
 40
0
 40
0
 40
1
 40
1
 40
1
 40
1
 10
164.144545
 20
116.589518
 30
0.0
 10
164.144545
 20
86.421918
 30
0.0
 10
147.582247
 20
60.417150
 30
0.0
 10
121.866999
 20
48.514778
 30
0.0
  0
LINE
  5
106
100
AcDbEntity
  8
0
 62
1
100
AcDbLine
 10
121.866999
 20
48.514778
 30
0.0
 11
119.367997
 21
20.598727
 31
0.0
  0
LINE
  5
107
100
AcDbEntity
  8
0
 62
7
100
AcDbLine
 10
66.582530
 20
91.207182
 30
0.0
 11
64.301830
 21
90.522974
 31
0.0
  0
SPLINE
  5
108
100
AcDbEntity
  8
0
 62
7
100
AcDbSpline
 70
8
 71
3
 72
8
 73
4
 74
0
 40
0
 40
0
 40
0
 40
0
 40
1
 40
1
 40
1
 40
1
 10
64.301830
 20
90.522974
 30
0.0
 10
60.854006
 20
95.277199
 30
0.0
 10
57.392468
 20
100.006640
 30
0.0
 10
57.801835
 20
111.733484
 30
0.0
  0
SPLINE
  5
109
100
AcDbEntity
  8
0
 62
7
100
AcDbSpline
 70
8
 71
3
 72
8
 73
4
 74
0
 40
0
 40
0
 40
0
 40
0
 40
1
 40
1
 40
1
 40
1
 10
57.801835
 20
111.733484
 30
0.0
 10
49.382957
 20
108.806326
 30
0.0
 10
45.307972
 20
103.582240
 30
0.0
 10
43.661497
 20
105.689630
 30
0.0
  0
SPLINE
  5
10a
100
AcDbEntity
  8
0
 62
7
100
AcDbSpline
 70
8
 71
3
 72
8
 73
4
 74
0
 40
0
 40
0
 40
0
 40
0
 40
1
 40
1
 40
1
 40
1
 10
43.661497
 20
105.689630
 30
0.0
 10
40.719409
 20
113.698431
 30
0.0
 10
52.708231
 20
117.917780
 30
0.0
 10
61.108850
 20
127.812421
 30
0.0
  0
SPLINE
  5
10b
100
AcDbEntity
  8
0
 62
7
100
AcDbSpline
 70
8
 71
3
 72
8
 73
4
 74
0
 40
0
 40
0
 40
0
 40
0
 40
1
 40
1
 40
1
 40
1
 10
61.108850
 20
127.812421
 30
0.0
 10
64.202104
 20
130.815920
 30
0.0
 10
62.072766
 20
139.942704
 30
0.0
 10
64.986041
 20
146.856263
 30
0.0
  0
SPLINE
  5
10c
100
AcDbEntity
  8
0
 62
7
100
AcDbSpline
 70
8
 71
3
 72
8
 73
4
 74
0
 40
0
 40
0
 40
0
 40
0
 40
1
 40
1
 40
1
 40
1
 10
64.986041
 20
146.856263
 30
0.0
 10
74.488497
 20
169.942890
 30
0.0
 10
104.596822
 20
170.280092
 30
0.0
 10
112.538634
 20
146.058020
 30
0.0
  0
SPLINE
  5
10d
100
AcDbEntity
  8
0
 62
7
100
AcDbSpline
 70
8
 71
3
 72
8
 73
4
 74
0
 40
0
 40
0
 40
0
 40
0
 40
1
 40
1
 40
1
 40
1
 10
112.538634
 20
146.058020
 30
0.0
 10
115.307324
 20
139.947310
 30
0.0
 10
114.490438
 20
131.339724
 30
0.0
 10
118.240387
 20
126.215929
 30
0.0
  0
SPLINE
  5
10e
100
AcDbEntity
  8
0
 62
7
100
AcDbSpline
 70
8
 71
3
 72
8
 73
4
 74
0
 40
0
 40
0
 40
0
 40
0
 40
1
 40
1
 40
1
 40
1
 10
118.240387
 20
126.215929
 30
0.0
 10
122.745153
 20
121.429200
 30
0.0
 10
139.208640
 20
112.221627
 30
0.0
 10
134.547390
 20
105.233489
 30
0.0
  0
SPLINE
  5
10f
100
AcDbEntity
  8
0
 62
7
100
AcDbSpline
 70
8
 71
3
 72
8
 73
4
 74
0
 40
0
 40
0
 40
0
 40
0
 40
1
 40
1
 40
1
 40
1
 10
134.547390
 20
105.233489
 30
0.0
 10
133.105057
 20
103.408922
 30
0.0
 10
125.837160
 20
111.362365
 30
0.0
 10
120.407052
 20
111.961554
 30
0.0
  0
SPLINE
  5
110
100
AcDbEntity
  8
0
 62
7
100
AcDbSpline
 70
8
 71
3
 72
8
 73
4
 74
0
 40
0
 40
0
 40
0
 40
0
 40
1
 40
1
 40
1
 40
1
 10
120.407052
 20
111.961554
 30
0.0
 10
120.713195
 20
103.018304
 30
0.0
 10
118.458189
 20
96.242185
 30
0.0
 10
114.819337
 20
90.637009
 30
0.0
  0
LINE
  5
111
100
AcDbEntity
  8
0
 62
7
100
AcDbLine
 10
114.819337
 20
90.637009
 30
0.0
 11
112.424602
 21
91.207182
 31
0.0
  0
SPLINE
  5
112
100
AcDbEntity
  8
0
 62
7
100
AcDbSpline
 70
8
 71
3
 72
8
 73
4
 74
0
 40
0
 40
0
 40
0
 40
0
 40
1
 40
1
 40
1
 40
1
 10
112.424602
 20
91.207182
 30
0.0
 10
115.814616
 20
100.494800
 30
0.0
 10
115.376901
 20
107.813036
 30
0.0
 10
113.602143
 20
113.551639
 30
0.0
  0
SPLINE
  5
113
100
AcDbEntity
  8
0
 62
7
100
AcDbSpline
 70
8
 71
3
 72
8
 73
4
 74
0
 40
0
 40
0
 40
0
 40
0
 40
1
 40
1
 40
1
 40
1
 10
113.602143
 20
113.551639
 30
0.0
 10
111.344721
 20
120.850904
 30
0.0
 10
106.087610
 20
126.418937
 30
0.0
 10
100.507944
 20
129.579962
 30
0.0
  0
SPLINE
  5
114
100
AcDbEntity
  8
0
 62
7
100
AcDbSpline
 70
8
 71
3
 72
8
 73
4
 74
0
 40
0
 40
0
 40
0
 40
0
 40
1
 40
1
 40
1
 40
1
 10
100.507944
 20
129.579962
 30
0.0
 10
105.410945
 20
130.809209
 30
0.0
 10
109.907694
 20
135.436411
 30
0.0
 10
106.836887
 20
140.926444
 30
0.0
  0
SPLINE
  5
115
100
AcDbEntity
  8
0
 62
7
100
AcDbSpline
 70
8
 71
3
 72
8
 73
4
 74
0
 40
0
 40
0
 40
0
 40
0
 40
1
 40
1
 40
1
 40
1
 10
106.836887
 20
140.926444
 30
0.0
 10
100.702799
 20
151.893054
 30
0.0
 10
82.119425
 20
142.514313
 30
0.0
 10
90.800789
 20
132.483167
 30
0.0
  0
SPLINE
  5
116
100
AcDbEntity
  8
0
 62
7
100
AcDbSpline
 70
8
 71
3
 72
8
 73
4
 74
0
 40
0
 40
0
 40
0
 40
0
 40
1
 40
1
 40
1
 40
1
 10
90.800789
 20
132.483167
 30
0.0
 10
89.315736
 20
132.730657
 30
0.0
 10
88.226347
 20
132.480910
 30
0.0
 10
87.023307
 20
132.373820
 30
0.0
  0
SPLINE
  5
117
100
AcDbEntity
  8
0
 62
7
100
AcDbSpline
 70
8
 71
3
 72
8
 73
4
 74
0
 40
0
 40
0
 40
0
 40
0
 40
1
 40
1
 40
1
 40
1
 10
87.023307
 20
132.373820
 30
0.0
 10
91.973098
 20
142.696059
 30
0.0
 10
82.434168
 20
155.500035
 30
0.0
 10
73.852261
 20
147.084335
 30
0.0
  0
SPLINE
  5
118
100
AcDbEntity
  8
0
 62
7
100
AcDbSpline
 70
8
 71
3
 72
8
 73
4
 74
0
 40
0
 40
0
 40
0
 40
0
 40
1
 40
1
 40
1
 40
1
 10
73.852261
 20
147.084335
 30
0.0
 10
72.910469
 20
146.160782
 30
0.0
 10
66.152161
 20
135.426855
 30
0.0
 10
76.161474
 20
128.240049
 30
0.0
  0
SPLINE
  5
119
100
AcDbEntity
  8
0
 62
7
100
AcDbSpline
 70
8
 71
3
 72
8
 73
4
 74
0
 40
0
 40
0
 40
0
 40
0
 40
1
 40
1
 40
1
 40
1
 10
76.161474
 20
128.240049
 30
0.0
 10
69.811067
 20
124.144587
 30
0.0
 10
65.840661
 20
117.092816
 30
0.0
 10
64.664119
 20
111.271018
 30
0.0
  0
SPLINE
  5
11a
100
AcDbEntity
  8
0
 62
7
100
AcDbSpline
 70
8
 71
3
 72
8
 73
4
 74
0
 40
0
 40
0
 40
0
 40
0
 40
1
 40
1
 40
1
 40
1
 10
64.664119
 20
111.271018
 30
0.0
 10
62.599381
 20
101.054223
 30
0.0
 10
64.655003
 20
95.166907
 30
0.0
 10
66.582530
 20
91.207182
 30
0.0
  0
LINE
  5
11b
100
AcDbEntity
  8
0
 62
7
100
AcDbLine
 10
66.582530
 20
91.207182
 30
0.0
 11
66.582530
 21
91.207182
 31
0.0
  0
SPLINE
  5
11c
100
AcDbEntity
  8
0
 62
7
100
AcDbSpline
 70
8
 71
3
 72
8
 73
4
 74
0
 40
0
 40
0
 40
0
 40
0
 40
1
 40
1
 40
1
 40
1
 10
75.775179
 20
128.019109
 30
0.0
 10
77.265747
 20
127.176628
 30
0.0
 10
78.733108
 20
126.787251
 30
0.0
 10
80.365086
 20
126.831718
 30
0.0
  0
SPLINE
  5
11d
100
AcDbEntity
  8
0
 62
7
100
AcDbSpline
 70
8
 71
3
 72
8
 73
4
 74
0
 40
0
 40
0
 40
0
 40
0
 40
1
 40
1
 40
1
 40
1
 10
80.365086
 20
126.831718
 30
0.0
 10
81.817876
 20
122.818919
 30
0.0
 10
86.312637
 20
119.622027
 30
0.0
 10
88.796549
 20
117.572075
 30
0.0
  0
LINE
  5
11e
100
AcDbEntity
  8
0
 62
7
100
AcDbLine
 10
88.796549
 20
117.572075
 30
0.0
 11
90.712335
 21
117.572078
 31
0.0
  0
SPLINE
  5
11f
100
AcDbEntity
  8
0
 62
7
100
AcDbSpline
 70
8
 71
3
 72
8
 73
4
 74
0
 40
0
 40
0
 40
0
 40
0
 40
1
 40
1
 40
1
 40
1
 10
90.712335
 20
117.572078
 30
0.0
 10
93.359851
 20
120.685231
 30
0.0
 10
95.908032
 20
122.805076
 30
0.0
 10
98.654876
 20
126.911542
 30
0.0
  0
SPLINE
  5
120
100
AcDbEntity
  8
0
 62
7
100
AcDbSpline
 70
8
 71
3
 72
8
 73
4
 74
0
 40
0
 40
0
 40
0
 40
0
 40
1
 40
1
 40
1
 40
1
 10
98.654876
 20
126.911542
 30
0.0
 10
98.550832
 20
127.683177
 30
0.0
 10
98.362778
 20
128.454815
 30
0.0
 10
97.836674
 20
129.226453
 30
0.0
  0
SPLINE
  5
121
100
AcDbEntity
  8
0
 62
6
100
AcDbSpline
 70
8
 71
3
 72
8
 73
4
 74
0
 40
0
 40
0
 40
0
 40
0
 40
1
 40
1
 40
1
 40
1
 10
79.723352
 20
149.634534
 30
0.0
 10
74.395237
 20
149.585693
 30
0.0
 10
70.799977
 20
144.163109
 30
0.0
 10
70.855950
 20
138.319187
 30
0.0
  0
SPLINE
  5
122
100
AcDbEntity
  8
0
 62
6
100
AcDbSpline
 70
8
 71
3
 72
8
 73
4
 74
0
 40
0
 40
0
 40
0
 40
0
 40
1
 40
1
 40
1
 40
1
 10
70.855950
 20
138.319187
 30
0.0
 10
70.913850
 20
132.273623
 30
0.0
 10
74.917209
 20
127.408324
 30
0.0
 10
79.723352
 20
127.203933
 30
0.0
  0
SPLINE
  5
123
100
AcDbEntity
  8
0
 62
6
100
AcDbSpline
 70
8
 71
3
 72
8
 73
4
 74
0
 40
0
 40
0
 40
0
 40
0
 40
1
 40
1
 40
1
 40
1
 10
79.723352
 20
127.203933
 30
0.0
 10
80.059626
 20
127.189632
 30
0.0
 10
80.391807
 20
127.203871
 30
0.0
 10
80.718846
 20
127.244722
 30
0.0
  0
SPLINE
  5
124
100
AcDbEntity
  8
0
 62
6
100
AcDbSpline
 70
8
 71
3
 72
8
 73
4
 74
0
 40
0
 40
0
 40
0
 40
0
 40
1
 40
1
 40
1
 40
1
 10
80.718846
 20
127.244722
 30
0.0
 10
79.759993
 20
130.466512
 30
0.0
 10
83.317063
 20
131.396493
 30
0.0
 10
86.958051
 20
132.349527
 30
0.0
  0
SPLINE
  5
125
100
AcDbEntity
  8
0
 62
6
100
AcDbSpline
 70
8
 71
3
 72
8
 73
4
 74
0
 40
0
 40
0
 40
0
 40
0
 40
1
 40
1
 40
1
 40
1
 10
86.958051
 20
132.349527
 30
0.0
 10
87.829680
 20
134.096257
 30
0.0
 10
88.361257
 20
136.156578
 30
0.0
 10
88.419875
 20
138.319187
 30
0.0
  0
SPLINE
  5
126
100
AcDbEntity
  8
0
 62
6
100
AcDbSpline
 70
8
 71
3
 72
8
 73
4
 74
0
 40
0
 40
0
 40
0
 40
0
 40
1
 40
1
 40
1
 40
1
 10
88.419875
 20
138.319187
 30
0.0
 10
88.586214
 20
144.455943
 30
0.0
 10
84.526156
 20
149.678561
 30
0.0
 10
79.723352
 20
149.634534
 30
0.0
  0
LINE
  5
127
100
AcDbEntity
  8
0
 62
6
100
AcDbLine
 10
79.723352
 20
149.634534
 30
0.0
 11
79.723352
 21
149.634534
 31
0.0
  0
SPLINE
  5
128
100
AcDbEntity
  8
0
 62
6
100
AcDbSpline
 70
8
 71
3
 72
8
 73
4
 74
0
 40
0
 40
0
 40
0
 40
0
 40
1
 40
1
 40
1
 40
1
 10
79.796662
 20
149.449879
 30
0.0
 10
83.512383
 20
149.439426
 30
0.0
 10
87.198877
 20
145.532285
 30
0.0
 10
87.828972
 20
139.936453
 30
0.0
  0
SPLINE
  5
129
100
AcDbEntity
  8
0
 62
6
100
AcDbSpline
 70
8
 71
3
 72
8
 73
4
 74
0
 40
0
 40
0
 40
0
 40
0
 40
1
 40
1
 40
1
 40
1
 10
87.828972
 20
139.936453
 30
0.0
 10
86.750612
 20
141.690464
 30
0.0
 10
84.341761
 20
142.292639
 30
0.0
 10
83.206480
 20
138.888043
 30
0.0
  0
SPLINE
  5
12a
100
AcDbEntity
  8
0
 62
6
100
AcDbSpline
 70
8
 71
3
 72
8
 73
4
 74
0
 40
0
 40
0
 40
0
 40
0
 40
1
 40
1
 40
1
 40
1
 10
83.206480
 20
138.888043
 30
0.0
 10
81.977362
 20
142.431080
 30
0.0
 10
80.585084
 20
144.860170
 30
0.0
 10
73.963702
 20
145.955725
 30
0.0
  0
SPLINE
  5
12b
100
AcDbEntity
  8
0
 62
6
100
AcDbSpline
 70
8
 71
3
 72
8
 73
4
 74
0
 40
0
 40
0
 40
0
 40
0
 40
1
 40
1
 40
1
 40
1
 10
73.963702
 20
145.955725
 30
0.0
 10
74.996838
 20
147.287617
 30
0.0
 10
75.945226
 20
148.192348
 30
0.0
 10
77.315091
 20
148.899216
 30
0.0
  0
SPLINE
  5
12c
100
AcDbEntity
  8
0
 62
6
100
AcDbSpline
 70
8
 71
3
 72
8
 73
4
 74
0
 40
0
 40
0
 40
0
 40
0
 40
1
 40
1
 40
1
 40
1
 10
77.315091
 20
148.899216
 30
0.0
 10
77.995506
 20
149.239466
 30
0.0
 10
78.734039
 20
149.392803
 30
0.0
 10
79.437269
 20
149.438853
 30
0.0
  0
SPLINE
  5
12d
100
AcDbEntity
  8
0
 62
6
100
AcDbSpline
 70
8
 71
3
 72
8
 73
4
 74
0
 40
0
 40
0
 40
0
 40
0
 40
1
 40
1
 40
1
 40
1
 10
79.437269
 20
149.438853
 30
0.0
 10
79.557092
 20
149.446701
 30
0.0
 10
79.676800
 20
149.450215
 30
0.0
 10
79.796662
 20
149.449879
 30
0.0
  0
LINE
  5
12e
100
AcDbEntity
  8
0
 62
6
100
AcDbLine
 10
79.796662
 20
149.449879
 30
0.0
 11
79.796662
 21
149.449879
 31
0.0
  0
SPLINE
  5
12f
100
AcDbEntity
  8
0
 62
6
100
AcDbSpline
 70
8
 71
3
 72
8
 73
4
 74
0
 40
0
 40
0
 40
0
 40
0
 40
1
 40
1
 40
1
 40
1
 10
71.989250
 20
140.329470
 30
0.0
 10
73.509143
 20
129.650935
 30
0.0
 10
81.069691
 20
130.198119
 30
0.0
 10
80.757982
 20
129.649673
 30
0.0
  0
SPLINE
  5
130
100
AcDbEntity
  8
0
 62
6
100
AcDbSpline
 70
8
 71
3
 72
8
 73
4
 74
0
 40
0
 40
0
 40
0
 40
0
 40
1
 40
1
 40
1
 40
1
 10
80.757982
 20
129.649673
 30
0.0
 10
80.582629
 20
129.341145
 30
0.0
 10
80.316609
 20
128.760095
 30
0.0
 10
80.461979
 20
128.271636
 30
0.0
  0
SPLINE
  5
131
100
AcDbEntity
  8
0
 62
6
100
AcDbSpline
 70
8
 71
3
 72
8
 73
4
 74
0
 40
0
 40
0
 40
0
 40
0
 40
1
 40
1
 40
1
 40
1
 10
80.461979
 20
128.271636
 30
0.0
 10
72.586917
 20
128.461086
 30
0.0
 10
71.374852
 20
138.147198
 30
0.0
 10
71.989250
 20
140.329470
 30
0.0
  0
LINE
  5
132
100
AcDbEntity
  8
0
 62
6
100
AcDbLine
 10
71.989250
 20
140.329470
 30
0.0
 11
71.989250
 21
140.329470
 31
0.0
  0
SPLINE
  5
133
100
AcDbEntity
  8
0
 62
7
100
AcDbSpline
 70
8
 71
3
 72
8
 73
4
 74
0
 40
0
 40
0
 40
0
 40
0
 40
1
 40
1
 40
1
 40
1
 10
88.336735
 20
137.575944
 30
0.0
 10
88.408987
 20
135.620381
 30
0.0
 10
87.309167
 20
133.671540
 30
0.0
 10
85.711902
 20
133.742231
 30
0.0
  0
SPLINE
  5
134
100
AcDbEntity
  8
0
 62
7
100
AcDbSpline
 70
8
 71
3
 72
8
 73
4
 74
0
 40
0
 40
0
 40
0
 40
0
 40
1
 40
1
 40
1
 40
1
 10
85.711902
 20
133.742231
 30
0.0
 10
84.296242
 20
133.804887
 30
0.0
 10
83.070384
 20
135.490082
 30
0.0
 10
83.084207
 20
137.505388
 30
0.0
  0
SPLINE
  5
135
100
AcDbEntity
  8
0
 62
7
100
AcDbSpline
 70
8
 71
3
 72
8
 73
4
 74
0
 40
0
 40
0
 40
0
 40
0
 40
1
 40
1
 40
1
 40
1
 10
83.084207
 20
137.505388
 30
0.0
 10
83.098431
 20
139.577593
 30
0.0
 10
84.295336
 20
141.396171
 30
0.0
 10
85.694904
 20
141.364148
 30
0.0
  0
SPLINE
  5
136
100
AcDbEntity
  8
0
 62
7
100
AcDbSpline
 70
8
 71
3
 72
8
 73
4
 74
0
 40
0
 40
0
 40
0
 40
0
 40
1
 40
1
 40
1
 40
1
 10
85.694904
 20
141.364148
 30
0.0
 10
87.391692
 20
141.325322
 30
0.0
 10
88.263713
 20
139.552253
 30
0.0
 10
88.336735
 20
137.575944
 30
0.0
  0
LINE
  5
137
100
AcDbEntity
  8
0
 62
7
100
AcDbLine
 10
88.336735
 20
137.575944
 30
0.0
 11
88.336735
 21
137.575944
 31
0.0
  0
SPLINE
  5
138
100
AcDbEntity
  8
0
 62
3
100
AcDbSpline
 70
8
 71
3
 72
8
 73
4
 74
0
 40
0
 40
0
 40
0
 40
0
 40
1
 40
1
 40
1
 40
1
 10
85.247009
 20
141.071043
 30
0.0
 10
85.531957
 20
140.041564
 30
0.0
 10
85.838792
 20
139.043352
 30
0.0
 10
85.942486
 20
137.754932
 30
0.0
  0
SPLINE
  5
139
100
AcDbEntity
  8
0
 62
3
100
AcDbSpline
 70
8
 71
3
 72
8
 73
4
 74
0
 40
0
 40
0
 40
0
 40
0
 40
1
 40
1
 40
1
 40
1
 10
85.942486
 20
137.754932
 30
0.0
 10
86.604500
 20
138.040583
 30
0.0
 10
87.226820
 20
138.306386
 30
0.0
 10
87.988597
 20
138.641917
 30
0.0
  0
SPLINE
  5
13a
100
AcDbEntity
  8
0
 62
3
100
AcDbSpline
 70
8
 71
3
 72
8
 73
4
 74
0
 40
0
 40
0
 40
0
 40
0
 40
1
 40
1
 40
1
 40
1
 10
87.988597
 20
138.641917
 30
0.0
 10
87.459600
 20
140.964400
 30
0.0
 10
85.784752
 20
141.092785
 30
0.0
 10
85.247009
 20
141.071043
 30
0.0
  0
LINE
  5
13b
100
AcDbEntity
  8
0
 62
3
100
AcDbLine
 10
85.247009
 20
141.071043
 30
0.0
 11
85.247009
 21
141.071043
 31
0.0
  0
SPLINE
  5
13c
100
AcDbEntity
  8
0
 62
6
100
AcDbSpline
 70
8
 71
3
 72
8
 73
4
 74
0
 40
0
 40
0
 40
0
 40
0
 40
1
 40
1
 40
1
 40
1
 10
83.805657
 20
139.730487
 30
0.0
 10
83.225507
 20
138.569244
 30
0.0
 10
82.816124
 20
135.983747
 30
0.0
 10
84.732961
 20
134.509376
 30
0.0
  0
LINE
  5
13d
100
AcDbEntity
  8
0
 62
6
100
AcDbLine
 10
84.732961
 20
134.509376
 30
0.0
 11
86.869786
 21
134.519452
 31
0.0
  0
SPLINE
  5
13e
100
AcDbEntity
  8
0
 62
6
100
AcDbSpline
 70
8
 71
3
 72
8
 73
4
 74
0
 40
0
 40
0
 40
0
 40
0
 40
1
 40
1
 40
1
 40
1
 10
86.869786
 20
134.519452
 30
0.0
 10
84.243189
 20
135.379834
 30
0.0
 10
83.686918
 20
137.948914
 30
0.0
 10
83.805657
 20
139.730493
 30
0.0
  0
LINE
  5
13f
100
AcDbEntity
  8
0
 62
6
100
AcDbLine
 10
83.805657
 20
139.730493
 30
0.0
 11
83.805657
 21
139.730487
 31
0.0
  0
SPLINE
  5
140
100
AcDbEntity
  8
0
 62
7
100
AcDbSpline
 70
8
 71
3
 72
8
 73
4
 74
0
 40
0
 40
0
 40
0
 40
0
 40
1
 40
1
 40
1
 40
1
 10
93.889031
 20
137.425632
 30
0.0
 10
93.961283
 20
135.470069
 30
0.0
 10
92.861463
 20
133.521229
 30
0.0
 10
91.264198
 20
133.591920
 30
0.0
  0
SPLINE
  5
141
100
AcDbEntity
  8
0
 62
7
100
AcDbSpline
 70
8
 71
3
 72
8
 73
4
 74
0
 40
0
 40
0
 40
0
 40
0
 40
1
 40
1
 40
1
 40
1
 10
91.264198
 20
133.591920
 30
0.0
 10
89.848538
 20
133.654576
 30
0.0
 10
88.622680
 20
135.339770
 30
0.0
 10
88.636503
 20
137.355077
 30
0.0
  0
SPLINE
  5
142
100
AcDbEntity
  8
0
 62
7
100
AcDbSpline
 70
8
 71
3
 72
8
 73
4
 74
0
 40
0
 40
0
 40
0
 40
0
 40
1
 40
1
 40
1
 40
1
 10
88.636503
 20
137.355077
 30
0.0
 10
88.650727
 20
139.427282
 30
0.0
 10
89.847634
 20
141.245860
 30
0.0
 10
91.247200
 20
141.213836
 30
0.0
  0
SPLINE
  5
143
100
AcDbEntity
  8
0
 62
7
100
AcDbSpline
 70
8
 71
3
 72
8
 73
4
 74
0
 40
0
 40
0
 40
0
 40
0
 40
1
 40
1
 40
1
 40
1
 10
91.247200
 20
141.213836
 30
0.0
 10
92.943988
 20
141.175011
 30
0.0
 10
93.816009
 20
139.401941
 30
0.0
 10
93.889031
 20
137.425632
 30
0.0
  0
LINE
  5
144
100
AcDbEntity
  8
0
 62
7
100
AcDbLine
 10
93.889031
 20
137.425632
 30
0.0
 11
93.889031
 21
137.425632
 31
0.0
  0
SPLINE
  5
145
100
AcDbEntity
  8
0
 62
3
100
AcDbSpline
 70
8
 71
3
 72
8
 73
4
 74
0
 40
0
 40
0
 40
0
 40
0
 40
1
 40
1
 40
1
 40
1
 10
90.799305
 20
140.920731
 30
0.0
 10
91.084253
 20
139.891252
 30
0.0
 10
91.391088
 20
138.893041
 30
0.0
 10
91.494782
 20
137.604620
 30
0.0
  0
SPLINE
  5
146
100
AcDbEntity
  8
0
 62
3
100
AcDbSpline
 70
8
 71
3
 72
8
 73
4
 74
0
 40
0
 40
0
 40
0
 40
0
 40
1
 40
1
 40
1
 40
1
 10
91.494782
 20
137.604620
 30
0.0
 10
92.156799
 20
137.890271
 30
0.0
 10
92.779116
 20
138.156074
 30
0.0
 10
93.540893
 20
138.491605
 30
0.0
  0
SPLINE
  5
147
100
AcDbEntity
  8
0
 62
3
100
AcDbSpline
 70
8
 71
3
 72
8
 73
4
 74
0
 40
0
 40
0
 40
0
 40
0
 40
1
 40
1
 40
1
 40
1
 10
93.540893
 20
138.491605
 30
0.0
 10
93.011899
 20
140.814088
 30
0.0
 10
91.337048
 20
140.942474
 30
0.0
 10
90.799305
 20
140.920731
 30
0.0
  0
LINE
  5
148
100
AcDbEntity
  8
0
 62
3
100
AcDbLine
 10
90.799305
 20
140.920731
 30
0.0
 11
90.799305
 21
140.920731
 31
0.0
  0
SPLINE
  5
149
100
AcDbEntity
  8
0
 62
6
100
AcDbSpline
 70
8
 71
3
 72
8
 73
4
 74
0
 40
0
 40
0
 40
0
 40
0
 40
1
 40
1
 40
1
 40
1
 10
89.357956
 20
139.580176
 30
0.0
 10
88.777803
 20
138.418933
 30
0.0
 10
88.368420
 20
135.833436
 30
0.0
 10
90.285260
 20
134.359065
 30
0.0
  0
LINE
  5
14a
100
AcDbEntity
  8
0
 62
6
100
AcDbLine
 10
90.285260
 20
134.359065
 30
0.0
 11
92.422083
 21
134.369140
 31
0.0
  0
SPLINE
  5
14b
100
AcDbEntity
  8
0
 62
6
100
AcDbSpline
 70
8
 71
3
 72
8
 73
4
 74
0
 40
0
 40
0
 40
0
 40
0
 40
1
 40
1
 40
1
 40
1
 10
92.422083
 20
134.369140
 30
0.0
 10
89.795485
 20
135.229523
 30
0.0
 10
89.239217
 20
137.798603
 30
0.0
 10
89.357956
 20
139.580181
 30
0.0
  0
LINE
  5
14c
100
AcDbEntity
  8
0
 62
6
100
AcDbLine
 10
89.357956
 20
139.580181
 30
0.0
 11
89.357956
 21
139.580176
 31
0.0
  0
SPLINE
  5
14d
100
AcDbEntity
  8
0
 62
7
100
AcDbSpline
 70
8
 71
3
 72
8
 73
4
 74
0
 40
0
 40
0
 40
0
 40
0
 40
1
 40
1
 40
1
 40
1
 10
89.418039
 20
118.803653
 30
0.0
 10
88.286742
 20
119.201903
 30
0.0
 10
86.960416
 20
120.110667
 30
0.0
 10
84.899300
 20
122.158344
 30
0.0
  0
SPLINE
  5
14e
100
AcDbEntity
  8
0
 62
7
100
AcDbSpline
 70
8
 71
3
 72
8
 73
4
 74
0
 40
0
 40
0
 40
0
 40
0
 40
1
 40
1
 40
1
 40
1
 10
84.899300
 20
122.158344
 30
0.0
 10
83.163162
 20
123.883156
 30
0.0
 10
81.211076
 20
126.104056
 30
0.0
 10
80.580329
 20
127.555838
 30
0.0
  0
SPLINE
  5
14f
100
AcDbEntity
  8
0
 62
7
100
AcDbSpline
 70
8
 71
3
 72
8
 73
4
 74
0
 40
0
 40
0
 40
0
 40
0
 40
1
 40
1
 40
1
 40
1
 10
80.580329
 20
127.555838
 30
0.0
 10
80.397322
 20
128.917360
 30
0.0
 10
80.563706
 20
130.136794
 30
0.0
 10
83.754101
 20
131.426592
 30
0.0
  0
SPLINE
  5
150
100
AcDbEntity
  8
0
 62
7
100
AcDbSpline
 70
8
 71
3
 72
8
 73
4
 74
0
 40
0
 40
0
 40
0
 40
0
 40
1
 40
1
 40
1
 40
1
 10
83.754101
 20
131.426592
 30
0.0
 10
85.107492
 20
131.973734
 30
0.0
 10
87.018836
 20
132.488671
 30
0.0
 10
88.847865
 20
132.516362
 30
0.0
  0
SPLINE
  5
151
100
AcDbEntity
  8
0
 62
7
100
AcDbSpline
 70
8
 71
3
 72
8
 73
4
 74
0
 40
0
 40
0
 40
0
 40
0
 40
1
 40
1
 40
1
 40
1
 10
88.847865
 20
132.516362
 30
0.0
 10
93.442135
 20
132.469144
 30
0.0
 10
93.129125
 20
132.004290
 30
0.0
 10
94.458361
 20
131.679198
 30
0.0
  0
SPLINE
  5
152
100
AcDbEntity
  8
0
 62
7
100
AcDbSpline
 70
8
 71
3
 72
8
 73
4
 74
0
 40
0
 40
0
 40
0
 40
0
 40
1
 40
1
 40
1
 40
1
 10
94.458361
 20
131.679198
 30
0.0
 10
97.354768
 20
130.700607
 30
0.0
 10
97.682115
 20
128.456635
 30
0.0
 10
97.657068
 20
127.669876
 30
0.0
  0
SPLINE
  5
153
100
AcDbEntity
  8
0
 62
7
100
AcDbSpline
 70
8
 71
3
 72
8
 73
4
 74
0
 40
0
 40
0
 40
0
 40
0
 40
1
 40
1
 40
1
 40
1
 10
97.657068
 20
127.669876
 30
0.0
 10
94.988084
 20
123.276994
 30
0.0
 10
92.633252
 20
121.474590
 30
0.0
 10
90.216284
 20
118.803653
 30
0.0
  0
LINE
  5
154
100
AcDbEntity
  8
0
 62
7
100
AcDbLine
 10
90.216284
 20
118.803653
 30
0.0
 11
89.418039
 21
118.803653
 31
0.0
  0
SPLINE
  5
155
100
AcDbEntity
  8
0
 62
6
100
AcDbSpline
 70
8
 71
3
 72
8
 73
4
 74
0
 40
0
 40
0
 40
0
 40
0
 40
1
 40
1
 40
1
 40
1
 10
98.144414
 20
145.721458
 30
0.0
 10
93.066486
 20
145.681047
 30
0.0
 10
88.681373
 20
141.863720
 30
0.0
 10
88.589098
 20
137.941605
 30
0.0
  0
SPLINE
  5
156
100
AcDbEntity
  8
0
 62
6
100
AcDbSpline
 70
8
 71
3
 72
8
 73
4
 74
0
 40
0
 40
0
 40
0
 40
0
 40
1
 40
1
 40
1
 40
1
 10
88.589098
 20
137.941605
 30
0.0
 10
88.657766
 20
139.650088
 30
0.0
 10
89.986790
 20
141.150728
 30
0.0
 10
91.189180
 20
141.213068
 30
0.0
  0
SPLINE
  5
157
100
AcDbEntity
  8
0
 62
6
100
AcDbSpline
 70
8
 71
3
 72
8
 73
4
 74
0
 40
0
 40
0
 40
0
 40
0
 40
1
 40
1
 40
1
 40
1
 10
91.189180
 20
141.213068
 30
0.0
 10
92.587428
 20
141.285560
 30
0.0
 10
93.849974
 20
139.666745
 30
0.0
 10
93.894546
 20
137.550795
 30
0.0
  0
SPLINE
  5
158
100
AcDbEntity
  8
0
 62
6
100
AcDbSpline
 70
8
 71
3
 72
8
 73
4
 74
0
 40
0
 40
0
 40
0
 40
0
 40
1
 40
1
 40
1
 40
1
 10
93.894546
 20
137.550795
 30
0.0
 10
93.941866
 20
135.304450
 30
0.0
 10
92.756868
 20
133.513820
 30
0.0
 10
91.328638
 20
133.599684
 30
0.0
  0
SPLINE
  5
159
100
AcDbEntity
  8
0
 62
6
100
AcDbSpline
 70
8
 71
3
 72
8
 73
4
 74
0
 40
0
 40
0
 40
0
 40
0
 40
1
 40
1
 40
1
 40
1
 10
91.328638
 20
133.599684
 30
0.0
 10
89.632101
 20
133.701682
 30
0.0
 10
88.833243
 20
135.284469
 30
0.0
 10
88.608941
 20
137.369444
 30
0.0
  0
SPLINE
  5
15a
100
AcDbEntity
  8
0
 62
6
100
AcDbSpline
 70
8
 71
3
 72
8
 73
4
 74
0
 40
0
 40
0
 40
0
 40
0
 40
1
 40
1
 40
1
 40
1
 10
88.608941
 20
137.369444
 30
0.0
 10
88.953430
 20
132.998525
 30
0.0
 10
93.010727
 20
129.360514
 30
0.0
 10
98.144414
 20
129.336584
 30
0.0
  0
SPLINE
  5
15b
100
AcDbEntity
  8
0
 62
6
100
AcDbSpline
 70
8
 71
3
 72
8
 73
4
 74
0
 40
0
 40
0
 40
0
 40
0
 40
1
 40
1
 40
1
 40
1
 10
98.144414
 20
129.336584
 30
0.0
 10
103.417093
 20
129.312003
 30
0.0
 10
107.691462
 20
133.004725
 30
0.0
 10
107.691462
 20
137.529298
 30
0.0
  0
SPLINE
  5
15c
100
AcDbEntity
  8
0
 62
6
100
AcDbSpline
 70
8
 71
3
 72
8
 73
4
 74
0
 40
0
 40
0
 40
0
 40
0
 40
1
 40
1
 40
1
 40
1
 10
107.691462
 20
137.529298
 30
0.0
 10
107.691462
 20
142.053865
 30
0.0
 10
103.416983
 20
145.763419
 30
0.0
 10
98.144414
 20
145.721458
 30
0.0
  0
LINE
  5
15d
100
AcDbEntity
  8
0
 62
6
100
AcDbLine
 10
98.144414
 20
145.721458
 30
0.0
 11
98.144414
 21
145.721458
 31
0.0
  0
SPLINE
  5
15e
100
AcDbEntity
  8
0
 62
6
100
AcDbSpline
 70
8
 71
3
 72
8
 73
4
 74
0
 40
0
 40
0
 40
0
 40
0
 40
1
 40
1
 40
1
 40
1
 10
96.790078
 20
145.036299
 30
0.0
 10
97.180451
 20
145.064041
 30
0.0
 10
97.562895
 20
145.075353
 30
0.0
 10
97.937156
 20
145.071024
 30
0.0
  0
SPLINE
  5
15f
100
AcDbEntity
  8
0
 62
6
100
AcDbSpline
 70
8
 71
3
 72
8
 73
4
 74
0
 40
0
 40
0
 40
0
 40
0
 40
1
 40
1
 40
1
 40
1
 10
97.937156
 20
145.071024
 30
0.0
 10
103.551104
 20
145.006101
 30
0.0
 10
107.277828
 20
141.430888
 30
0.0
 10
106.865191
 20
137.275188
 30
0.0
  0
SPLINE
  5
160
100
AcDbEntity
  8
0
 62
6
100
AcDbSpline
 70
8
 71
3
 72
8
 73
4
 74
0
 40
0
 40
0
 40
0
 40
0
 40
1
 40
1
 40
1
 40
1
 10
106.865191
 20
137.275188
 30
0.0
 10
105.595425
 20
130.622126
 30
0.0
 10
100.430745
 20
129.625459
 30
0.0
 10
97.213411
 20
130.304519
 30
0.0
  0
LINE
  5
161
100
AcDbEntity
  8
0
 62
6
100
AcDbLine
 10
97.213411
 20
130.304519
 30
0.0
 11
95.152969
 21
131.715630
 31
0.0
  0
SPLINE
  5
162
100
AcDbEntity
  8
0
 62
6
100
AcDbSpline
 70
8
 71
3
 72
8
 73
4
 74
0
 40
0
 40
0
 40
0
 40
0
 40
1
 40
1
 40
1
 40
1
 10
95.152969
 20
131.715630
 30
0.0
 10
98.586882
 20
130.923867
 30
0.0
 10
101.888465
 20
131.302810
 30
0.0
 10
104.889636
 20
133.521409
 30
0.0
  0
SPLINE
  5
163
100
AcDbEntity
  8
0
 62
6
100
AcDbSpline
 70
8
 71
3
 72
8
 73
4
 74
0
 40
0
 40
0
 40
0
 40
0
 40
1
 40
1
 40
1
 40
1
 10
104.889636
 20
133.521409
 30
0.0
 10
107.203395
 20
135.967379
 30
0.0
 10
106.056373
 20
140.454893
 30
0.0
 10
104.692300
 20
141.508521
 30
0.0
  0
LINE
  5
164
100
AcDbEntity
  8
0
 62
6
100
AcDbLine
 10
104.692300
 20
141.508521
 30
0.0
 11
101.841415
 21
139.250743
 31
0.0
  0
SPLINE
  5
165
100
AcDbEntity
  8
0
 62
6
100
AcDbSpline
 70
8
 71
3
 72
8
 73
4
 74
0
 40
0
 40
0
 40
0
 40
0
 40
1
 40
1
 40
1
 40
1
 10
101.841415
 20
139.250743
 30
0.0
 10
100.837720
 20
141.300521
 30
0.0
 10
99.343833
 20
143.105024
 30
0.0
 10
97.320896
 20
144.648074
 30
0.0
  0
SPLINE
  5
166
100
AcDbEntity
  8
0
 62
6
100
AcDbSpline
 70
8
 71
3
 72
8
 73
4
 74
0
 40
0
 40
0
 40
0
 40
0
 40
1
 40
1
 40
1
 40
1
 10
97.320896
 20
144.648074
 30
0.0
 10
94.423472
 20
143.802548
 30
0.0
 10
91.731394
 20
142.476089
 30
0.0
 10
90.906958
 20
141.200391
 30
0.0
  0
SPLINE
  5
167
100
AcDbEntity
  8
0
 62
6
100
AcDbSpline
 70
8
 71
3
 72
8
 73
4
 74
0
 40
0
 40
0
 40
0
 40
0
 40
1
 40
1
 40
1
 40
1
 10
90.906958
 20
141.200391
 30
0.0
 10
90.704757
 20
141.173693
 30
0.0
 10
90.570552
 20
141.105962
 30
0.0
 10
90.432912
 20
141.040537
 30
0.0
  0
SPLINE
  5
168
100
AcDbEntity
  8
0
 62
6
100
AcDbSpline
 70
8
 71
3
 72
8
 73
4
 74
0
 40
0
 40
0
 40
0
 40
0
 40
1
 40
1
 40
1
 40
1
 10
90.432912
 20
141.040537
 30
0.0
 10
92.251727
 20
143.186428
 30
0.0
 10
94.386335
 20
143.982247
 30
0.0
 10
97.016375
 20
144.878407
 30
0.0
  0
SPLINE
  5
169
100
AcDbEntity
  8
0
 62
6
100
AcDbSpline
 70
8
 71
3
 72
8
 73
4
 74
0
 40
0
 40
0
 40
0
 40
0
 40
1
 40
1
 40
1
 40
1
 10
97.016375
 20
144.878407
 30
0.0
 10
96.938270
 20
144.939361
 30
0.0
 10
96.872292
 20
144.978110
 30
0.0
 10
96.790078
 20
145.036299
 30
0.0
  0
LINE
  5
16a
100
AcDbEntity
  8
0
 62
6
100
AcDbLine
 10
96.790078
 20
145.036299
 30
0.0
 11
96.790078
 21
145.036299
 31
0.0
  0
SPLINE
  5
16b
100
AcDbEntity
  8
0
 62
7
100
AcDbSpline
 70
8
 71
3
 72
8
 73
4
 74
0
 40
0
 40
0
 40
0
 40
0
 40
1
 40
1
 40
1
 40
1
 10
83.815736
 20
130.800169
 30
0.0
 10
90.547018
 20
130.287532
 30
0.0
 10
92.776842
 20
127.797714
 30
0.0
 10
94.822405
 20
124.833184
 30
0.0
  0
LINE
  5
16c
100
AcDbEntity
  8
0
 62
7
100
AcDbLine
 10
94.822405
 20
124.833184
 30
0.0
 11
97.039865
 21
127.635250
 31
0.0
  0
SPLINE
  5
16d
100
AcDbEntity
  8
0
 62
7
100
AcDbSpline
 70
8
 71
3
 72
8
 73
4
 74
0
 40
0
 40
0
 40
0
 40
0
 40
1
 40
1
 40
1
 40
1
 10
97.039865
 20
127.635250
 30
0.0
 10
97.155638
 20
132.949892
 30
0.0
 10
87.256163
 20
132.987465
 30
0.0
 10
83.815736
 20
130.800169
 30
0.0
  0
LINE
  5
16e
100
AcDbEntity
  8
0
 62
7
100
AcDbLine
 10
83.815736
 20
130.800169
 30
0.0
 11
83.815736
 21
130.800169
 31
0.0
  0
SPLINE
  5
16f
100
AcDbEntity
  8
0
 62
4
100
AcDbSpline
 70
8
 71
3
 72
8
 73
4
 74
0
 40
0
 40
0
 40
0
 40
0
 40
1
 40
1
 40
1
 40
1
 10
56.238002
 20
76.660142
 30
0.0
 10
53.456504
 20
80.744155
 30
0.0
 10
55.947364
 20
85.652857
 30
0.0
 10
59.366223
 20
88.150747
 30
0.0
  0
SPLINE
  5
170
100
AcDbEntity
  8
0
 62
4
100
AcDbSpline
 70
8
 71
3
 72
8
 73
4
 74
0
 40
0
 40
0
 40
0
 40
0
 40
1
 40
1
 40
1
 40
1
 10
59.366223
 20
88.150747
 30
0.0
 10
62.945713
 20
90.765990
 30
0.0
 10
68.133951
 20
91.864554
 30
0.0
 10
71.539069
 20
91.704636
 30
0.0
  0
SPLINE
  5
171
100
AcDbEntity
  8
0
 62
4
100
AcDbSpline
 70
8
 71
3
 72
8
 73
4
 74
0
 40
0
 40
0
 40
0
 40
0
 40
1
 40
1
 40
1
 40
1
 10
71.539069
 20
91.704636
 30
0.0
 10
86.953714
 20
90.980699
 30
0.0
 10
88.849973
 20
79.323369
 30
0.0
 10
85.787837
 20
76.783121
 30
0.0
  0
LINE
  5
172
100
AcDbEntity
  8
0
 62
4
100
AcDbLine
 10
85.787837
 20
76.783121
 30
0.0
 11
56.238002
 21
76.660142
 31
0.0
  0
SPLINE
  5
173
100
AcDbEntity
  8
0
 62
2
100
AcDbSpline
 70
8
 71
3
 72
8
 73
4
 74
0
 40
0
 40
0
 40
0
 40
0
 40
1
 40
1
 40
1
 40
1
 10
61.336922
 20
79.290527
 30
0.0
 10
57.214451
 20
82.999988
 30
0.0
 10
59.285392
 20
86.023251
 30
0.0
 10
60.852273
 20
87.757625
 30
0.0
  0
SPLINE
  5
174
100
AcDbEntity
  8
0
 62
2
100
AcDbSpline
 70
8
 71
3
 72
8
 73
4
 74
0
 40
0
 40
0
 40
0
 40
0
 40
1
 40
1
 40
1
 40
1
 10
60.852273
 20
87.757625
 30
0.0
 10
62.876430
 20
89.951768
 30
0.0
 10
66.345508
 20
90.400430
 30
0.0
 10
68.804056
 20
90.270899
 30
0.0
  0
SPLINE
  5
175
100
AcDbEntity
  8
0
 62
2
100
AcDbSpline
 70
8
 71
3
 72
8
 73
4
 74
0
 40
0
 40
0
 40
0
 40
0
 40
1
 40
1
 40
1
 40
1
 10
68.804056
 20
90.270899
 30
0.0
 10
73.362665
 20
90.030725
 30
0.0
 10
76.312742
 20
87.782069
 30
0.0
 10
76.817172
 20
87.044907
 30
0.0
  0
SPLINE
  5
176
100
AcDbEntity
  8
0
 62
2
100
AcDbSpline
 70
8
 71
3
 72
8
 73
4
 74
0
 40
0
 40
0
 40
0
 40
0
 40
1
 40
1
 40
1
 40
1
 10
76.817172
 20
87.044907
 30
0.0
 10
79.216956
 20
83.537921
 30
0.0
 10
76.801650
 20
81.132817
 30
0.0
 10
75.990416
 20
79.376054
 30
0.0
  0
LINE
  5
177
100
AcDbEntity
  8
0
 62
2
100
AcDbLine
 10
75.990416
 20
79.376054
 30
0.0
 11
61.336922
 21
79.290527
 31
0.0
  0
SPLINE
  5
178
100
AcDbEntity
  8
0
 62
4
100
AcDbSpline
 70
8
 71
3
 72
8
 73
4
 74
0
 40
0
 40
0
 40
0
 40
0
 40
1
 40
1
 40
1
 40
1
 10
123.021513
 20
76.723899
 30
0.0
 10
125.803011
 20
80.807914
 30
0.0
 10
123.312149
 20
85.716617
 30
0.0
 10
119.893292
 20
88.214504
 30
0.0
  0
SPLINE
  5
179
100
AcDbEntity
  8
0
 62
4
100
AcDbSpline
 70
8
 71
3
 72
8
 73
4
 74
0
 40
0
 40
0
 40
0
 40
0
 40
1
 40
1
 40
1
 40
1
 10
119.893292
 20
88.214504
 30
0.0
 10
116.313802
 20
90.829750
 30
0.0
 10
111.125564
 20
91.928311
 30
0.0
 10
107.720443
 20
91.768393
 30
0.0
  0
SPLINE
  5
17a
100
AcDbEntity
  8
0
 62
4
100
AcDbSpline
 70
8
 71
3
 72
8
 73
4
 74
0
 40
0
 40
0
 40
0
 40
0
 40
1
 40
1
 40
1
 40
1
 10
107.720443
 20
91.768393
 30
0.0
 10
92.305801
 20
91.044456
 30
0.0
 10
90.409542
 20
79.387129
 30
0.0
 10
93.471678
 20
76.846880
 30
0.0
  0
LINE
  5
17b
100
AcDbEntity
  8
0
 62
4
100
AcDbLine
 10
93.471678
 20
76.846880
 30
0.0
 11
123.021513
 21
76.723899
 31
0.0
  0
SPLINE
  5
17c
100
AcDbEntity
  8
0
 62
2
100
AcDbSpline
 70
8
 71
3
 72
8
 73
4
 74
0
 40
0
 40
0
 40
0
 40
0
 40
1
 40
1
 40
1
 40
1
 10
117.922593
 20
79.354284
 30
0.0
 10
122.045061
 20
83.063745
 30
0.0
 10
119.974123
 20
86.087008
 30
0.0
 10
118.407242
 20
87.821385
 30
0.0
  0
SPLINE
  5
17d
100
AcDbEntity
  8
0
 62
2
100
AcDbSpline
 70
8
 71
3
 72
8
 73
4
 74
0
 40
0
 40
0
 40
0
 40
0
 40
1
 40
1
 40
1
 40
1
 10
118.407242
 20
87.821385
 30
0.0
 10
116.383082
 20
90.015525
 30
0.0
 10
112.914007
 20
90.464187
 30
0.0
 10
110.455459
 20
90.334656
 30
0.0
  0
SPLINE
  5
17e
100
AcDbEntity
  8
0
 62
2
100
AcDbSpline
 70
8
 71
3
 72
8
 73
4
 74
0
 40
0
 40
0
 40
0
 40
0
 40
1
 40
1
 40
1
 40
1
 10
110.455459
 20
90.334656
 30
0.0
 10
105.896850
 20
90.094482
 30
0.0
 10
102.946773
 20
87.845825
 30
0.0
 10
102.442343
 20
87.108664
 30
0.0
  0
SPLINE
  5
17f
100
AcDbEntity
  8
0
 62
2
100
AcDbSpline
 70
8
 71
3
 72
8
 73
4
 74
0
 40
0
 40
0
 40
0
 40
0
 40
1
 40
1
 40
1
 40
1
 10
102.442343
 20
87.108664
 30
0.0
 10
100.042559
 20
83.601677
 30
0.0
 10
102.457865
 20
81.196574
 30
0.0
 10
103.269096
 20
79.439811
 30
0.0
  0
LINE
  5
180
100
AcDbEntity
  8
0
 62
2
100
AcDbLine
 10
103.269096
 20
79.439811
 30
0.0
 11
117.922593
 21
79.354284
 31
0.0
  0
SPLINE
  5
181
100
AcDbEntity
  8
0
 62
7
100
AcDbSpline
 70
8
 71
3
 72
8
 73
4
 74
0
 40
0
 40
0
 40
0
 40
0
 40
1
 40
1
 40
1
 40
1
 10
87.121769
 20
79.717950
 30
0.0
 10
88.736983
 20
79.630311
 30
0.0
 10
90.391426
 20
79.621122
 30
0.0
 10
92.100657
 20
79.721506
 30
0.0
  0
SPLINE
  5
182
100
AcDbEntity
  8
0
 62
7
100
AcDbSpline
 70
8
 71
3
 72
8
 73
4
 74
0
 40
0
 40
0
 40
0
 40
0
 40
1
 40
1
 40
1
 40
1
 10
92.100657
 20
79.721506
 30
0.0
 10
92.110478
 20
79.398423
 30
0.0
 10
92.173659
 20
79.128718
 30
0.0
 10
92.228949
 20
78.851115
 30
0.0
  0
SPLINE
  5
183
100
AcDbEntity
  8
0
 62
7
100
AcDbSpline
 70
8
 71
3
 72
8
 73
4
 74
0
 40
0
 40
0
 40
0
 40
0
 40
1
 40
1
 40
1
 40
1
 10
92.228949
 20
78.851115
 30
0.0
 10
90.479736
 20
78.742846
 30
0.0
 10
88.733980
 20
78.669167
 30
0.0
 10
87.011296
 20
78.826167
 30
0.0
  0
SPLINE
  5
184
100
AcDbEntity
  8
0
 62
7
100
AcDbSpline
 70
8
 71
3
 72
8
 73
4
 74
0
 40
0
 40
0
 40
0
 40
0
 40
1
 40
1
 40
1
 40
1
 10
87.011296
 20
78.826167
 30
0.0
 10
87.093772
 20
79.115817
 30
0.0
 10
87.119607
 20
79.414905
 30
0.0
 10
87.121766
 20
79.717938
 30
0.0
  0
LINE
  5
185
100
AcDbEntity
  8
0
 62
7
100
AcDbLine
 10
87.121766
 20
79.717938
 30
0.0
 11
87.121769
 21
79.717950
 31
0.0
  0
SPLINE
  5
186
100
AcDbEntity
  8
0
 62
5
100
AcDbSpline
 70
8
 71
3
 72
8
 73
4
 74
0
 40
0
 40
0
 40
0
 40
0
 40
1
 40
1
 40
1
 40
1
 10
127.334817
 20
76.996529
 30
0.0
 10
127.334814
 20
73.925717
 30
0.0
 10
110.224333
 20
72.234576
 30
0.0
 10
89.117475
 20
72.234576
 30
0.0
  0
SPLINE
  5
187
100
AcDbEntity
  8
0
 62
5
100
AcDbSpline
 70
8
 71
3
 72
8
 73
4
 74
0
 40
0
 40
0
 40
0
 40
0
 40
1
 40
1
 40
1
 40
1
 10
89.117475
 20
72.234576
 30
0.0
 10
68.010622
 20
72.234576
 30
0.0
 10
50.900138
 20
73.925717
 30
0.0
 10
50.900135
 20
76.996529
 30
0.0
  0
SPLINE
  5
188
100
AcDbEntity
  8
0
 62
5
100
AcDbSpline
 70
8
 71
3
 72
8
 73
4
 74
0
 40
0
 40
0
 40
0
 40
0
 40
1
 40
1
 40
1
 40
1
 10
50.900135
 20
76.996529
 30
0.0
 10
50.900135
 20
77.891035
 30
0.0
 10
52.468264
 20
78.390049
 30
0.0
 10
55.047831
 20
79.138728
 30
0.0
  0
SPLINE
  5
189
100
AcDbEntity
  8
0
 62
5
100
AcDbSpline
 70
8
 71
3
 72
8
 73
4
 74
0
 40
0
 40
0
 40
0
 40
0
 40
1
 40
1
 40
1
 40
1
 10
55.047831
 20
79.138728
 30
0.0
 10
55.222050
 20
78.137567
 30
0.0
 10
56.176026
 20
76.527007
 30
0.0
 10
56.176026
 20
76.527007
 30
0.0
  0
LINE
  5
18a
100
AcDbEntity
  8
0
 62
5
100
AcDbLine
 10
56.176026
 20
76.527007
 30
0.0
 11
85.840954
 21
76.689090
 31
0.0
  0
SPLINE
  5
18b
100
AcDbEntity
  8
0
 62
5
100
AcDbSpline
 70
8
 71
3
 72
8
 73
4
 74
0
 40
0
 40
0
 40
0
 40
0
 40
1
 40
1
 40
1
 40
1
 10
85.840954
 20
76.689090
 30
0.0
 10
86.687573
 20
77.448827
 30
0.0
 10
86.955277
 20
78.723760
 30
0.0
 10
86.980525
 20
78.807834
 30
0.0
  0
SPLINE
  5
18c
100
AcDbEntity
  8
0
 62
5
100
AcDbSpline
 70
8
 71
3
 72
8
 73
4
 74
0
 40
0
 40
0
 40
0
 40
0
 40
1
 40
1
 40
1
 40
1
 10
86.980525
 20
78.807834
 30
0.0
 10
88.742678
 20
78.664598
 30
0.0
 10
90.491869
 20
78.658956
 30
0.0
 10
92.217979
 20
78.830920
 30
0.0
  0
SPLINE
  5
18d
100
AcDbEntity
  8
0
 62
5
100
AcDbSpline
 70
8
 71
3
 72
8
 73
4
 74
0
 40
0
 40
0
 40
0
 40
0
 40
1
 40
1
 40
1
 40
1
 10
92.217979
 20
78.830920
 30
0.0
 10
92.794952
 20
77.142836
 30
0.0
 10
93.213595
 20
77.106497
 30
0.0
 10
93.332297
 20
76.689742
 30
0.0
  0
LINE
  5
18e
100
AcDbEntity
  8
0
 62
5
100
AcDbLine
 10
93.332297
 20
76.689742
 30
0.0
 11
123.064414
 21
76.628838
 31
0.0
  0
SPLINE
  5
18f
100
AcDbEntity
  8
0
 62
5
100
AcDbSpline
 70
8
 71
3
 72
8
 73
4
 74
0
 40
0
 40
0
 40
0
 40
0
 40
1
 40
1
 40
1
 40
1
 10
123.064414
 20
76.628838
 30
0.0
 10
123.685404
 20
77.266000
 30
0.0
 10
124.128513
 20
78.987663
 30
0.0
 10
124.128513
 20
78.987663
 30
0.0
  0
SPLINE
  5
190
100
AcDbEntity
  8
0
 62
5
100
AcDbSpline
 70
8
 71
3
 72
8
 73
4
 74
0
 40
0
 40
0
 40
0
 40
0
 40
1
 40
1
 40
1
 40
1
 10
124.128513
 20
78.987663
 30
0.0
 10
125.559710
 20
78.959497
 30
0.0
 10
127.334817
 20
77.506620
 30
0.0
 10
127.334817
 20
76.996532
 30
0.0
  0
LINE
  5
191
100
AcDbEntity
  8
0
 62
5
100
AcDbLine
 10
127.334817
 20
76.996532
 30
0.0
 11
127.334817
 21
76.996529
 31
0.0
  0
SPLINE
  5
192
100
AcDbEntity
  8
0
 62
7
100
AcDbSpline
 70
8
 71
3
 72
8
 73
4
 74
0
 40
0
 40
0
 40
0
 40
0
 40
1
 40
1
 40
1
 40
1
 10
110.564986
 20
92.524596
 30
0.0
 10
94.078151
 20
92.757779
 30
0.0
 10
91.433698
 20
84.421934
 30
0.0
 10
91.485003
 20
79.634979
 30
0.0
  0
SPLINE
  5
193
100
AcDbEntity
  8
0
 62
7
100
AcDbSpline
 70
8
 71
3
 72
8
 73
4
 74
0
 40
0
 40
0
 40
0
 40
0
 40
1
 40
1
 40
1
 40
1
 10
91.485003
 20
79.634979
 30
0.0
 10
91.676093
 20
79.645845
 30
0.0
 10
91.868168
 20
79.658291
 30
0.0
 10
92.062675
 20
79.673785
 30
0.0
  0
SPLINE
  5
194
100
AcDbEntity
  8
0
 62
7
100
AcDbSpline
 70
8
 71
3
 72
8
 73
4
 74
0
 40
0
 40
0
 40
0
 40
0
 40
1
 40
1
 40
1
 40
1
 10
92.062675
 20
79.673785
 30
0.0
 10
92.423968
 20
87.037284
 30
0.0
 10
98.423623
 20
93.311400
 30
0.0
 10
112.570754
 20
91.517641
 30
0.0
  0
LINE
  5
195
100
AcDbEntity
  8
0
 62
7
100
AcDbLine
 10
112.570754
 20
91.517641
 30
0.0
 11
112.825744
 21
92.282339
 31
0.0
  0
LINE
  5
196
100
AcDbEntity
  8
0
 62
7
100
AcDbLine
 10
112.825744
 20
92.282339
 30
0.0
 11
110.564986
 21
92.524596
 31
0.0
  0
SPLINE
  5
197
100
AcDbEntity
  8
0
 62
7
100
AcDbSpline
 70
8
 71
3
 72
8
 73
4
 74
0
 40
0
 40
0
 40
0
 40
0
 40
1
 40
1
 40
1
 40
1
 10
66.980551
 20
116.017936
 30
0.0
 10
63.625806
 20
107.031526
 30
0.0
 10
66.546665
 20
97.956544
 30
0.0
 10
68.522946
 20
92.699774
 30
0.0
  0
SPLINE
  5
198
100
AcDbEntity
  8
0
 62
7
100
AcDbSpline
 70
8
 71
3
 72
8
 73
4
 74
0
 40
0
 40
0
 40
0
 40
0
 40
1
 40
1
 40
1
 40
1
 10
68.522946
 20
92.699774
 30
0.0
 10
67.774004
 20
92.519821
 30
0.0
 10
66.805316
 20
92.364553
 30
0.0
 10
66.187419
 20
92.123877
 30
0.0
  0
SPLINE
  5
199
100
AcDbEntity
  8
0
 62
7
100
AcDbSpline
 70
8
 71
3
 72
8
 73
4
 74
0
 40
0
 40
0
 40
0
 40
0
 40
1
 40
1
 40
1
 40
1
 10
66.187419
 20
92.123877
 30
0.0
 10
57.846158
 20
111.197490
 30
0.0
 10
72.143273
 20
126.034045
 30
0.0
 10
76.069935
 20
128.222625
 30
0.0
  0
SPLINE
  5
19a
100
AcDbEntity
  8
0
 62
7
100
AcDbSpline
 70
8
 71
3
 72
8
 73
4
 74
0
 40
0
 40
0
 40
0
 40
0
 40
1
 40
1
 40
1
 40
1
 10
76.069935
 20
128.222625
 30
0.0
 10
71.856563
 20
124.266787
 30
0.0
 10
68.573520
 20
120.501350
 30
0.0
 10
66.980551
 20
116.017936
 30
0.0
  0
LINE
  5
19b
100
AcDbEntity
  8
0
 62
7
100
AcDbLine
 10
66.980551
 20
116.017936
 30
0.0
 11
66.980551
 21
116.017936
 31
0.0
  0
SPLINE
  5
19c
100
AcDbEntity
  8
0
 62
7
100
AcDbSpline
 70
8
 71
3
 72
8
 73
4
 74
0
 40
0
 40
0
 40
0
 40
0
 40
1
 40
1
 40
1
 40
1
 10
76.069935
 20
128.222625
 30
0.0
 10
77.320888
 20
127.598722
 30
0.0
 10
78.902803
 20
127.018597
 30
0.0
 10
80.684709
 20
127.239699
 30
0.0
  0
SPLINE
  5
19d
100
AcDbEntity
  8
0
 62
7
100
AcDbSpline
 70
8
 71
3
 72
8
 73
4
 74
0
 40
0
 40
0
 40
0
 40
0
 40
1
 40
1
 40
1
 40
1
 10
80.684709
 20
127.239699
 30
0.0
 10
82.764492
 20
124.575772
 30
0.0
 10
84.774696
 20
121.294371
 30
0.0
 10
89.358191
 20
118.753189
 30
0.0
  0
LINE
  5
19e
100
AcDbEntity
  8
0
 62
7
100
AcDbLine
 10
89.358191
 20
118.753189
 30
0.0
 11
90.227348
 21
118.780085
 31
0.0
  0
SPLINE
  5
19f
100
AcDbEntity
  8
0
 62
7
100
AcDbSpline
 70
8
 71
3
 72
8
 73
4
 74
0
 40
0
 40
0
 40
0
 40
0
 40
1
 40
1
 40
1
 40
1
 10
90.227348
 20
118.780085
 30
0.0
 10
92.707646
 20
121.673294
 30
0.0
 10
95.371172
 20
123.933310
 30
0.0
 10
97.707120
 20
127.644507
 30
0.0
  0
LINE
  5
1a0
100
AcDbEntity
  8
0
 62
7
100
AcDbLine
 10
97.707120
 20
127.644507
 30
0.0
 11
97.312009
 21
129.309618
 31
0.0
  0
SPLINE
  5
1a1
100
AcDbEntity
  8
0
 62
7
100
AcDbSpline
 70
8
 71
3
 72
8
 73
4
 74
0
 40
0
 40
0
 40
0
 40
0
 40
1
 40
1
 40
1
 40
1
 10
97.312009
 20
129.309618
 30
0.0
 10
98.329569
 20
129.228338
 30
0.0
 10
99.297292
 20
129.232569
 30
0.0
 10
100.483997
 20
129.433195
 30
0.0
  0
LINE
  5
1a2
100
AcDbEntity
  8
0
 62
7
100
AcDbLine
 10
100.483997
 20
129.433195
 30
0.0
 11
100.484223
 21
129.276849
 31
0.0
  0
SPLINE
  5
1a3
100
AcDbEntity
  8
0
 62
7
100
AcDbSpline
 70
8
 71
3
 72
8
 73
4
 74
0
 40
0
 40
0
 40
0
 40
0
 40
1
 40
1
 40
1
 40
1
 10
100.484223
 20
129.276849
 30
0.0
 10
99.713570
 20
129.185562
 30
0.0
 10
97.936194
 20
129.074829
 30
0.0
 10
97.969491
 20
129.019892
 30
0.0
  0
SPLINE
  5
1a4
100
AcDbEntity
  8
0
 62
7
100
AcDbSpline
 70
8
 71
3
 72
8
 73
4
 74
0
 40
0
 40
0
 40
0
 40
0
 40
1
 40
1
 40
1
 40
1
 10
97.969491
 20
129.019892
 30
0.0
 10
98.395499
 20
128.317144
 30
0.0
 10
98.560009
 20
127.614351
 30
0.0
 10
98.654763
 20
126.911604
 30
0.0
  0
SPLINE
  5
1a5
100
AcDbEntity
  8
0
 62
7
100
AcDbSpline
 70
8
 71
3
 72
8
 73
4
 74
0
 40
0
 40
0
 40
0
 40
0
 40
1
 40
1
 40
1
 40
1
 10
98.654763
 20
126.911604
 30
0.0
 10
95.907919
 20
122.805141
 30
0.0
 10
93.359924
 20
120.685406
 30
0.0
 10
90.712411
 20
117.572253
 30
0.0
  0
LINE
  5
1a6
100
AcDbEntity
  8
0
 62
7
100
AcDbLine
 10
90.712411
 20
117.572253
 30
0.0
 11
88.796385
 21
117.572253
 31
0.0
  0
SPLINE
  5
1a7
100
AcDbEntity
  8
0
 62
7
100
AcDbSpline
 70
8
 71
3
 72
8
 73
4
 74
0
 40
0
 40
0
 40
0
 40
0
 40
1
 40
1
 40
1
 40
1
 10
88.796385
 20
117.572253
 30
0.0
 10
86.312477
 20
119.622205
 30
0.0
 10
81.817786
 20
122.818990
 30
0.0
 10
80.364996
 20
126.831786
 30
0.0
  0
SPLINE
  5
1a8
100
AcDbEntity
  8
0
 62
7
100
AcDbSpline
 70
8
 71
3
 72
8
 73
4
 74
0
 40
0
 40
0
 40
0
 40
0
 40
1
 40
1
 40
1
 40
1
 10
80.364996
 20
126.831786
 30
0.0
 10
78.800650
 20
126.789162
 30
0.0
 10
77.387831
 20
127.144979
 30
0.0
 10
75.960568
 20
127.916580
 30
0.0
  0
SPLINE
  5
1a9
100
AcDbEntity
  8
0
 62
7
100
AcDbSpline
 70
8
 71
3
 72
8
 73
4
 74
0
 40
0
 40
0
 40
0
 40
0
 40
1
 40
1
 40
1
 40
1
 10
112.825744
 20
92.317617
 30
0.0
 10
112.171618
 20
92.433822
 30
0.0
 10
111.218802
 20
92.529659
 30
0.0
 10
110.579098
 20
92.538713
 30
0.0
  0
SPLINE
  5
1aa
100
AcDbEntity
  8
0
 62
7
100
AcDbSpline
 70
8
 71
3
 72
8
 73
4
 74
0
 40
0
 40
0
 40
0
 40
0
 40
1
 40
1
 40
1
 40
1
 10
110.579098
 20
92.538713
 30
0.0
 10
113.396245
 20
99.623419
 30
0.0
 10
114.723802
 20
108.241893
 30
0.0
 10
112.016314
 20
116.005389
 30
0.0
  0
SPLINE
  5
1ab
100
AcDbEntity
  8
0
 62
7
100
AcDbSpline
 70
8
 71
3
 72
8
 73
4
 74
0
 40
0
 40
0
 40
0
 40
0
 40
1
 40
1
 40
1
 40
1
 10
112.016314
 20
116.005389
 30
0.0
 10
110.203144
 20
120.822042
 30
0.0
 10
106.497600
 20
125.816940
 30
0.0
 10
100.455479
 20
129.444120
 30
0.0
  0
SPLINE
  5
1ac
100
AcDbEntity
  8
0
 62
7
100
AcDbSpline
 70
8
 71
3
 72
8
 73
4
 74
0
 40
0
 40
0
 40
0
 40
0
 40
1
 40
1
 40
1
 40
1
 10
100.455479
 20
129.444120
 30
0.0
 10
112.457648
 20
122.886644
 30
0.0
 10
118.203116
 20
107.541437
 30
0.0
 10
112.825742
 20
92.317617
 30
0.0
  0
LINE
  5
1ad
100
AcDbEntity
  8
0
 62
7
100
AcDbLine
 10
112.825742
 20
92.317617
 30
0.0
 11
112.825744
 21
92.317617
 31
0.0
  0
SPLINE
  5
1ae
100
AcDbEntity
  8
0
 62
7
100
AcDbSpline
 70
8
 71
3
 72
8
 73
4
 74
0
 40
0
 40
0
 40
0
 40
0
 40
1
 40
1
 40
1
 40
1
 10
66.394564
 20
91.414232
 30
0.0
 10
69.536050
 20
92.528493
 30
0.0
 10
86.324728
 20
92.834600
 30
0.0
 10
87.166120
 20
79.673788
 30
0.0
  0
SPLINE
  5
1af
100
AcDbEntity
  8
0
 62
7
100
AcDbSpline
 70
8
 71
3
 72
8
 73
4
 74
0
 40
0
 40
0
 40
0
 40
0
 40
1
 40
1
 40
1
 40
1
 10
87.166120
 20
79.673788
 30
0.0
 10
87.732935
 20
79.643999
 30
0.0
 10
88.302646
 20
79.621672
 30
0.0
 10
88.876649
 20
79.606763
 30
0.0
  0
SPLINE
  5
1b0
100
AcDbEntity
  8
0
 62
7
100
AcDbSpline
 70
8
 71
3
 72
8
 73
4
 74
0
 40
0
 40
0
 40
0
 40
0
 40
1
 40
1
 40
1
 40
1
 10
88.876649
 20
79.606763
 30
0.0
 10
88.461706
 20
79.654884
 30
0.0
 10
88.042434
 20
79.704448
 30
0.0
 10
87.603564
 20
79.732439
 30
0.0
  0
SPLINE
  5
1b1
100
AcDbEntity
  8
0
 62
7
100
AcDbSpline
 70
8
 71
3
 72
8
 73
4
 74
0
 40
0
 40
0
 40
0
 40
0
 40
1
 40
1
 40
1
 40
1
 10
87.603564
 20
79.732439
 30
0.0
 10
87.409551
 20
91.287102
 30
0.0
 10
75.668014
 20
93.531632
 30
0.0
 10
68.292509
 20
92.629111
 30
0.0
  0
SPLINE
  5
1b2
100
AcDbEntity
  8
0
 62
7
100
AcDbSpline
 70
8
 71
3
 72
8
 73
4
 74
0
 40
0
 40
0
 40
0
 40
0
 40
1
 40
1
 40
1
 40
1
 10
68.292509
 20
92.629111
 30
0.0
 10
67.385029
 20
92.397040
 30
0.0
 10
66.706795
 20
92.333907
 30
0.0
 10
66.167463
 20
92.024097
 30
0.0
  0
SPLINE
  5
1b3
100
AcDbEntity
  8
0
 62
7
100
AcDbSpline
 70
8
 71
3
 72
8
 73
4
 74
0
 40
0
 40
0
 40
0
 40
0
 40
1
 40
1
 40
1
 40
1
 10
66.167463
 20
92.024097
 30
0.0
 10
66.241704
 20
91.821157
 30
0.0
 10
66.316479
 20
91.618183
 30
0.0
 10
66.394564
 20
91.414232
 30
0.0
  0
LINE
  5
1b4
100
AcDbEntity
  8
0
 62
7
100
AcDbLine
 10
66.394564
 20
91.414232
 30
0.0
 11
66.394564
 21
91.414232
 31
0.0
  0
SPLINE
  5
1b5
100
AcDbEntity
  8
0
 62
6
100
AcDbSpline
 70
8
 71
3
 72
8
 73
4
 74
0
 40
0
 40
0
 40
0
 40
0
 40
1
 40
1
 40
1
 40
1
 10
112.338172
 20
114.822358
 30
0.0
 10
110.977014
 20
119.865376
 30
0.0
 10
105.243974
 20
127.354984
 30
0.0
 10
100.641511
 20
129.452606
 30
0.0
  0
SPLINE
  5
1b6
100
AcDbEntity
  8
0
 62
6
100
AcDbSpline
 70
8
 71
3
 72
8
 73
4
 74
0
 40
0
 40
0
 40
0
 40
0
 40
1
 40
1
 40
1
 40
1
 10
100.641511
 20
129.452606
 30
0.0
 10
99.698073
 20
129.311859
 30
0.0
 10
97.630832
 20
129.415014
 30
0.0
 10
97.630832
 20
129.415014
 30
0.0
  0
SPLINE
  5
1b7
100
AcDbEntity
  8
0
 62
6
100
AcDbSpline
 70
8
 71
3
 72
8
 73
4
 74
0
 40
0
 40
0
 40
0
 40
0
 40
1
 40
1
 40
1
 40
1
 10
97.630832
 20
129.415014
 30
0.0
 10
98.444891
 20
128.565807
 30
0.0
 10
98.517081
 20
127.381298
 30
0.0
 10
98.654768
 20
126.911615
 30
0.0
  0
SPLINE
  5
1b8
100
AcDbEntity
  8
0
 62
6
100
AcDbSpline
 70
8
 71
3
 72
8
 73
4
 74
0
 40
0
 40
0
 40
0
 40
0
 40
1
 40
1
 40
1
 40
1
 10
98.654768
 20
126.911615
 30
0.0
 10
95.907925
 20
122.805152
 30
0.0
 10
93.359930
 20
120.685418
 30
0.0
 10
90.712417
 20
117.572264
 30
0.0
  0
LINE
  5
1b9
100
AcDbEntity
  8
0
 62
6
100
AcDbLine
 10
90.712417
 20
117.572264
 30
0.0
 11
88.796393
 21
117.572264
 31
0.0
  0
SPLINE
  5
1ba
100
AcDbEntity
  8
0
 62
6
100
AcDbSpline
 70
8
 71
3
 72
8
 73
4
 74
0
 40
0
 40
0
 40
0
 40
0
 40
1
 40
1
 40
1
 40
1
 10
88.796393
 20
117.572264
 30
0.0
 10
86.312482
 20
119.622216
 30
0.0
 10
81.817794
 20
122.819001
 30
0.0
 10
80.365005
 20
126.831800
 30
0.0
  0
SPLINE
  5
1bb
100
AcDbEntity
  8
0
 62
6
100
AcDbSpline
 70
8
 71
3
 72
8
 73
4
 74
0
 40
0
 40
0
 40
0
 40
0
 40
1
 40
1
 40
1
 40
1
 10
80.365005
 20
126.831800
 30
0.0
 10
78.823724
 20
126.470756
 30
0.0
 10
75.933520
 20
127.738546
 30
0.0
 10
75.970240
 20
127.922152
 30
0.0
  0
SPLINE
  5
1bc
100
AcDbEntity
  8
0
 62
6
100
AcDbSpline
 70
8
 71
3
 72
8
 73
4
 74
0
 40
0
 40
0
 40
0
 40
0
 40
1
 40
1
 40
1
 40
1
 10
75.970240
 20
127.922152
 30
0.0
 10
71.643147
 20
124.599053
 30
0.0
 10
67.697982
 20
118.635694
 30
0.0
 10
66.604574
 20
114.849929
 30
0.0
  0
LINE
  5
1bd
100
AcDbEntity
  8
0
 62
6
100
AcDbLine
 10
66.604574
 20
114.849929
 30
0.0
 11
112.338172
 21
114.822358
 31
0.0
  0
LINE
  5
1be
100
AcDbEntity
  8
0
 62
2
100
AcDbLine
 10
66.590505
 20
114.829092
 30
0.0
 11
112.179910
 21
114.829092
 31
0.0
  0
LINE
  5
1bf
100
AcDbEntity
  8
0
 62
2
100
AcDbLine
 10
112.179910
 20
114.829092
 30
0.0
 11
112.818508
 21
112.119759
 31
0.0
  0
LINE
  5
1c0
100
AcDbEntity
  8
0
 62
2
100
AcDbLine
 10
112.818508
 20
112.119759
 30
0.0
 11
66.251839
 21
112.119759
 31
0.0
  0
LINE
  5
1c1
100
AcDbEntity
  8
0
 62
2
100
AcDbLine
 10
66.251839
 20
112.119759
 30
0.0
 11
66.590505
 21
114.829092
 31
0.0
  0
LINE
  5
1c2
100
AcDbEntity
  8
0
 62
4
100
AcDbLine
 10
66.445692
 20
112.263746
 30
0.0
 11
112.624162
 21
112.263746
 31
0.0
  0
SPLINE
  5
1c3
100
AcDbEntity
  8
0
 62
4
100
AcDbSpline
 70
8
 71
3
 72
8
 73
4
 74
0
 40
0
 40
0
 40
0
 40
0
 40
1
 40
1
 40
1
 40
1
 10
112.624162
 20
112.263746
 30
0.0
 10
113.431280
 20
105.437154
 30
0.0
 10
113.671302
 20
101.148291
 30
0.0
 10
110.474038
 20
92.485807
 30
0.0
  0
SPLINE
  5
1c4
100
AcDbEntity
  8
0
 62
4
100
AcDbSpline
 70
8
 71
3
 72
8
 73
4
 74
0
 40
0
 40
0
 40
0
 40
0
 40
1
 40
1
 40
1
 40
1
 10
110.474038
 20
92.485807
 30
0.0
 10
105.549610
 20
92.184597
 30
0.0
 10
92.117268
 20
92.709773
 30
0.0
 10
91.350933
 20
79.575614
 30
0.0
  0
LINE
  5
1c5
100
AcDbEntity
  8
0
 62
4
100
AcDbLine
 10
91.350933
 20
79.575614
 30
0.0
 11
87.679005
 21
79.532866
 31
0.0
  0
SPLINE
  5
1c6
100
AcDbEntity
  8
0
 62
4
100
AcDbSpline
 70
8
 71
3
 72
8
 73
4
 74
0
 40
0
 40
0
 40
0
 40
0
 40
1
 40
1
 40
1
 40
1
 10
87.679005
 20
79.532866
 30
0.0
 10
86.647576
 20
90.733117
 30
0.0
 10
77.007847
 20
93.475671
 30
0.0
 10
68.481214
 20
92.706745
 30
0.0
  0
SPLINE
  5
1c7
100
AcDbEntity
  8
0
 62
4
100
AcDbSpline
 70
8
 71
3
 72
8
 73
4
 74
0
 40
0
 40
0
 40
0
 40
0
 40
1
 40
1
 40
1
 40
1
 10
68.481214
 20
92.706745
 30
0.0
 10
66.298061
 20
100.092918
 30
0.0
 10
65.286887
 20
105.185282
 30
0.0
 10
66.445692
 20
112.263746
 30
0.0
  0
LINE
  5
1c8
100
AcDbEntity
  8
0
 62
4
100
AcDbLine
 10
66.445692
 20
112.263746
 30
0.0
 11
66.445692
 21
112.263746
 31
0.0
  0
SPLINE
  5
1c9
100
AcDbEntity
  8
0
 62
3
100
AcDbSpline
 70
8
 71
3
 72
8
 73
4
 74
0
 40
0
 40
0
 40
0
 40
0
 40
1
 40
1
 40
1
 40
1
 10
112.886834
 20
92.465374
 30
0.0
 10
112.755005
 20
92.114877
 30
0.0
 10
112.617287
 20
91.772948
 30
0.0
 10
112.473850
 20
91.439392
 30
0.0
  0
SPLINE
  5
1ca
100
AcDbEntity
  8
0
 62
3
100
AcDbSpline
 70
8
 71
3
 72
8
 73
4
 74
0
 40
0
 40
0
 40
0
 40
0
 40
1
 40
1
 40
1
 40
1
 10
112.473850
 20
91.439392
 30
0.0
 10
107.957349
 20
92.349889
 30
0.0
 10
91.779629
 20
91.727961
 30
0.0
 10
92.384572
 20
78.939637
 30
0.0
  0
SPLINE
  5
1cb
100
AcDbEntity
  8
0
 62
3
100
AcDbSpline
 70
8
 71
3
 72
8
 73
4
 74
0
 40
0
 40
0
 40
0
 40
0
 40
1
 40
1
 40
1
 40
1
 10
92.384572
 20
78.939637
 30
0.0
 10
91.282258
 20
78.814697
 30
0.0
 10
90.152677
 20
78.719380
 30
0.0
 10
88.998953
 20
78.648203
 30
0.0
  0
SPLINE
  5
1cc
100
AcDbEntity
  8
0
 62
3
100
AcDbSpline
 70
8
 71
3
 72
8
 73
4
 74
0
 40
0
 40
0
 40
0
 40
0
 40
1
 40
1
 40
1
 40
1
 10
88.998953
 20
78.648203
 30
0.0
 10
88.279063
 20
78.603793
 30
0.0
 10
87.563748
 20
78.584523
 30
0.0
 10
86.854569
 20
78.590971
 30
0.0
  0
SPLINE
  5
1cd
100
AcDbEntity
  8
0
 62
3
100
AcDbSpline
 70
8
 71
3
 72
8
 73
4
 74
0
 40
0
 40
0
 40
0
 40
0
 40
1
 40
1
 40
1
 40
1
 10
86.854569
 20
78.590971
 30
0.0
 10
87.415855
 20
91.562421
 30
0.0
 10
71.676458
 20
92.536887
 30
0.0
 10
66.520430
 20
91.285519
 30
0.0
  0
SPLINE
  5
1ce
100
AcDbEntity
  8
0
 62
3
100
AcDbSpline
 70
8
 71
3
 72
8
 73
4
 74
0
 40
0
 40
0
 40
0
 40
0
 40
1
 40
1
 40
1
 40
1
 10
66.520430
 20
91.285519
 30
0.0
 10
66.360556
 20
91.570343
 30
0.0
 10
66.208679
 20
91.860860
 30
0.0
 10
66.064536
 20
92.157140
 30
0.0
  0
SPLINE
  5
1cf
100
AcDbEntity
  8
0
 62
3
100
AcDbSpline
 70
8
 71
3
 72
8
 73
4
 74
0
 40
0
 40
0
 40
0
 40
0
 40
1
 40
1
 40
1
 40
1
 10
66.064536
 20
92.157140
 30
0.0
 10
71.360112
 20
93.409834
 30
0.0
 10
85.778783
 20
94.426864
 30
0.0
 10
87.756941
 20
79.643008
 30
0.0
  0
LINE
  5
1d0
100
AcDbEntity
  8
0
 62
3
100
AcDbLine
 10
87.756941
 20
79.643008
 30
0.0
 11
91.199970
 21
79.655257
 31
0.0
  0
SPLINE
  5
1d1
100
AcDbEntity
  8
0
 62
3
100
AcDbSpline
 70
8
 71
3
 72
8
 73
4
 74
0
 40
0
 40
0
 40
0
 40
0
 40
1
 40
1
 40
1
 40
1
 10
91.199970
 20
79.655257
 30
0.0
 10
92.166209
 20
90.914123
 30
0.0
 10
101.641213
 20
92.677693
 30
0.0
 10
112.886834
 20
92.465360
 30
0.0
  0
LINE
  5
1d2
100
AcDbEntity
  8
0
 62
3
100
AcDbLine
 10
112.886834
 20
92.465360
 30
0.0
 11
112.886834
 21
92.465374
 31
0.0
  0
SPLINE
  5
1d3
100
AcDbEntity
  8
0
 62
7
100
AcDbSpline
 70
8
 71
3
 72
8
 73
4
 74
0
 40
0
 40
0
 40
0
 40
0
 40
1
 40
1
 40
1
 40
1
 10
75.929786
 20
127.823027
 30
0.0
 10
70.606923
 20
122.462709
 30
0.0
 10
61.393745
 20
115.227285
 30
0.0
 10
68.546359
 20
92.591539
 30
0.0
  0
SPLINE
  5
1d4
100
AcDbEntity
  8
0
 62
7
100
AcDbSpline
 70
8
 71
3
 72
8
 73
4
 74
0
 40
0
 40
0
 40
0
 40
0
 40
1
 40
1
 40
1
 40
1
 10
68.546359
 20
92.591539
 30
0.0
 10
67.531954
 20
92.488508
 30
0.0
 10
66.806188
 20
92.314092
 30
0.0
 10
66.085429
 20
92.162121
 30
0.0
  0
SPLINE
  5
1d5
100
AcDbEntity
  8
0
 62
7
100
AcDbSpline
 70
8
 71
3
 72
8
 73
4
 74
0
 40
0
 40
0
 40
0
 40
0
 40
1
 40
1
 40
1
 40
1
 10
66.085429
 20
92.162121
 30
0.0
 10
64.065537
 20
97.215166
 30
0.0
 10
63.734103
 20
99.992887
 30
0.0
 10
63.768283
 20
105.233537
 30
0.0
  0
SPLINE
  5
1d6
100
AcDbEntity
  8
0
 62
7
100
AcDbSpline
 70
8
 71
3
 72
8
 73
4
 74
0
 40
0
 40
0
 40
0
 40
0
 40
1
 40
1
 40
1
 40
1
 10
63.768283
 20
105.233537
 30
0.0
 10
63.824262
 20
113.816095
 30
0.0
 10
68.510940
 20
122.716695
 30
0.0
 10
75.714185
 20
127.969390
 30
0.0
  0
LINE
  5
1d7
100
AcDbEntity
  8
0
 62
7
100
AcDbLine
 10
75.714185
 20
127.969390
 30
0.0
 11
75.929786
 21
127.823027
 31
0.0
  0
LINE
  5
1d8
100
AcDbEntity
  8
0
 62
7
100
AcDbLine
 10
112.895518
 20
92.433943
 30
0.0
 11
110.458064
 21
92.485691
 31
0.0
  0
SPLINE
  5
1d9
100
AcDbEntity
  8
0
 62
7
100
AcDbSpline
 70
8
 71
3
 72
8
 73
4
 74
0
 40
0
 40
0
 40
0
 40
0
 40
1
 40
1
 40
1
 40
1
 10
110.458064
 20
92.485691
 30
0.0
 10
117.225857
 20
111.784473
 30
0.0
 10
110.906972
 20
121.852474
 30
0.0
 10
100.944212
 20
129.350241
 30
0.0
  0
SPLINE
  5
1da
100
AcDbEntity
  8
0
 62
7
100
AcDbSpline
 70
8
 71
3
 72
8
 73
4
 74
0
 40
0
 40
0
 40
0
 40
0
 40
1
 40
1
 40
1
 40
1
 10
100.944212
 20
129.350241
 30
0.0
 10
106.697788
 20
125.573033
 30
0.0
 10
120.234024
 20
114.884552
 30
0.0
 10
112.895518
 20
92.433943
 30
0.0
  0
LINE
  5
1db
100
AcDbEntity
  8
0
 62
7
100
AcDbLine
 10
112.895518
 20
92.433943
 30
0.0
 11
112.895518
 21
92.433943
 31
0.0
  0
ENDSEC
  0
SECTION
  2
OBJECTS
  0
DICTIONARY
  5
C
330
0
100
AcDbDictionary
  3
ACAD_GROUP
350
D
  3
ACAD_MLINESTYLE
350
17
  0
DICTIONARY
  5
D
330
C
100
AcDbDictionary
  0
DICTIONARY
  5
1A
330
C
100
AcDbDictionary
  0
DICTIONARY
  5
17
330
C
100
AcDbDictionary
  3
STANDARD
350
18
  0
DICTIONARY
  5
19
330
C
100
AcDbDictionary
  0
ENDSEC
  0
EOF
