<?xml version="1.0" encoding="UTF-8" standalone="no"?>
<!-- Created with Inkscape (http://www.inkscape.org/) -->

<svg
   xmlns:dc="http://purl.org/dc/elements/1.1/"
   xmlns:cc="http://creativecommons.org/ns#"
   xmlns:rdf="http://www.w3.org/1999/02/22-rdf-syntax-ns#"
   xmlns:svg="http://www.w3.org/2000/svg"
   xmlns="http://www.w3.org/2000/svg"
   xmlns:sodipodi="http://sodipodi.sourceforge.net/DTD/sodipodi-0.dtd"
   xmlns:inkscape="http://www.inkscape.org/namespaces/inkscape"
   width="210mm"
   height="297mm"
   viewBox="0 0 744.09448819 1052.3622047"
   id="svg4236"
   version="1.1"
   inkscape:version="0.91 r13725"
   sodipodi:docname="The linux foundationNB.svg">
  <defs
     id="defs4238" />
  <sodipodi:namedview
     id="base"
     pagecolor="#ffffff"
     bordercolor="#666666"
     borderopacity="1.0"
     inkscape:pageopacity="0.0"
     inkscape:pageshadow="2"
     inkscape:zoom="1.4"
     inkscape:cx="192.28676"
     inkscape:cy="439.19959"
     inkscape:document-units="px"
     inkscape:current-layer="layer1"
     showgrid="false"
     inkscape:window-width="1920"
     inkscape:window-height="1017"
     inkscape:window-x="-8"
     inkscape:window-y="-8"
     inkscape:window-maximized="1" />
  <metadata
     id="metadata4241">
    <rdf:RDF>
      <cc:Work
         rdf:about="">
        <dc:format>image/svg+xml</dc:format>
        <dc:type
           rdf:resource="http://purl.org/dc/dcmitype/StillImage" />
        <dc:title></dc:title>
      </cc:Work>
    </rdf:RDF>
  </metadata>
  <g
     inkscape:label="Calque 1"
     inkscape:groupmode="layer"
     id="layer1">
    <path
       sodipodi:nodetypes="cccssscc"
       inkscape:connector-curvature="0"
       id="rect4146"
       d="m 420.86809,972.68435 -212.50275,0 -8.85473,-98.86841 C 108.24701,831.79279 49.046303,738.98054 49.046307,631.89663 49.046313,485.2259 167.94644,366.32577 314.61717,366.32577 c 146.67075,-10e-6 264.90795,119.56303 264.90796,266.23377 0,106.89306 -58.6853,199.03593 -149.80231,241.20968 z"
       style="opacity:1;fill:none;fill-opacity:1;stroke:#ff0000;stroke-width:0.7086615;stroke-miterlimit:4.5999999;stroke-dasharray:none;stroke-opacity:1" />
    <g
       id="g4317"
       transform="matrix(0.6561,0,0,0.6561,113.9671,32.630064)">
      <g
         style="display:inline"
         inkscape:label="rose"
         id="layer5">
        <path
           sodipodi:nodetypes="ccccccsccscccsccsccccs"
           inkscape:connector-curvature="0"
           id="path5018-4"
           d="m 528.02307,800.49446 c -0.44009,-2.29673 -1.36927,-4.71949 -9.08432,-6.97602 -7.0794,-2.31335 -10.15982,-6.40952 -17.01379,-6.25573 -5.00364,0.45199 -8.86069,2.24921 -14.02481,8.26521 -1.93267,1.97477 -6.04282,1.3462 -6.23591,6.59663 0.0632,2.05865 0.0579,3.33665 3.75666,5.60291 9.21115,5.34692 10.0674,8.44084 17.36245,8.58464 6.80911,0.13422 9.95253,-4.45107 19.75819,-8.31049 1.17925,-0.37545 5.90683,-3.31678 5.48153,-7.50715 z m -13.67025,4.8395 c -16.4241,9.80972 -20.5379,3.94715 -24.78831,-0.15549 -1.32536,-1.17698 -2.72283,-2.44617 -4.41789,-3.03093 l 1.38802,-0.81796 c 0.86852,0.27434 1.47851,1.15854 2.066,1.76297 0.71895,0.73967 1.42256,1.39974 2.11234,1.98628 7.61424,6.25229 13.37641,4.04372 19.56309,0.88714 1.32443,-0.67877 2.66403,-1.39698 4.03798,-2.07828 l 1.84971,-0.91722 4.83322,-2.39665 0.80992,1.1129 c -1.18371,0.26746 -2.46665,0.91009 -3.85195,1.60768 -1.17761,0.51566 -2.39327,1.31754 -3.60213,2.03956 z"
           style="display:inline;fill:#999999;fill-rule:evenodd;stroke:#ff00ff;stroke-width:0.17716534;stroke-linecap:butt;stroke-linejoin:miter;stroke-miterlimit:4;stroke-dasharray:none;stroke-opacity:1" />
        <path
           sodipodi:nodetypes="cccccccssccscccccc"
           inkscape:connector-curvature="0"
           id="path4851-2"
           d="m 441.5739,922.86935 15.53107,18.11961 c -10.15048,-4.4815 -17.62209,-3.73275 -25.38004,-4.9245 l 0.0631,-13.32138 -6.62911,-0.25255 c 0.91404,-1.09129 1.10154,-2.42476 1.01017,-3.8512 l -1.32581,-8.33376 c -1.1236,-6.81499 2.29945,-11.77043 6.69867,-12.10959 1.99936,-0.15414 6.46349,-3.55193 7.45734,-4.35614 5.12277,-4.14528 6.45437,-11.48014 13.80711,-11.63243 l 1.77794,0.19932 c 6.28263,0.55734 14.25464,15.1998 20.46179,27.19786 2.37959,4.59961 5.88069,8.36287 8.42133,11.79258 3.85754,2.99672 5.06231,7.86546 5.52037,9.67967 l -7.76553,10.03838 -10.48031,-13.41608 -3.6618,-4.70353 -25.63256,-0.1894"
           style="display:inline;fill:none;fill-rule:evenodd;stroke:#ff00ff;stroke-width:0.17716534;stroke-linecap:butt;stroke-linejoin:miter;stroke-miterlimit:4;stroke-dasharray:none;stroke-opacity:1" />
        <path
           id="rect4818-2"
           d="m 75.290068,992.40101 -24.171044,0 c -4.366889,0 -7.882481,-3.5156 -7.882481,-7.88251 l 0,-51.67104 -25.52004,0 0,76.90434 c 0,4.3669 3.515591,7.8825 7.882481,7.8825 l 49.691084,0 z"
           style="display:inline;fill:#999999;stroke:#ff00ff;stroke-width:0.35433072;stroke-miterlimit:4;stroke-dasharray:none"
           inkscape:connector-curvature="0" />
        <path
           sodipodi:nodetypes="ccccccccscccscc"
           inkscape:connector-curvature="0"
           id="path4888-4-4-6"
           d="m 583.50516,907.38748 c -3.64487,-6.33875 0.28582,-18.74572 -13.96093,-19.14843 -1.70164,2.83167 -1.98711,2.30274 -3.34217,4.07632 5.89234,7.55752 3.13268,9.50298 1.37341,15.16145 -7.59086,-8.06717 -16.54969,-12.91218 -26.75431,-3.98978 -0.12398,-5.45813 -1.88113,-11.08817 4.0285,-15.87987 l -0.59184,-3.9617 c -8.4126,2.31581 -6.37545,20.82739 -7.6277,26.97271 0.0604,2.49259 0.0995,5.0169 -0.7104,7.25118 -2.27718,6.28252 -5.0522,12.71479 -2.71197,20.53779 2.3864,-6.41244 5.05583,-8.10741 10.27296,-10.50945 4.84685,-2.51654 14.2369,0.12301 23.46943,-7.23658 3.57608,-2.06186 9.84557,-3.93875 14.80518,-4.47491 3.86451,-0.41778 7.80377,0.55297 7.80377,0.55297 0.42574,-2.78697 -3.87273,-8.14853 -6.05393,-9.3517 z"
           style="display:inline;fill:#999999;fill-rule:evenodd;stroke:#ff00ff;stroke-width:0.17716534;stroke-linecap:butt;stroke-linejoin:miter;stroke-miterlimit:4;stroke-dasharray:none;stroke-opacity:1" />
        <path
           sodipodi:nodetypes="cccccccssccccscccccccccccc"
           inkscape:connector-curvature="0"
           id="path4851-2-9"
           d="m 441.53004,922.67995 15.53107,18.1196 c -10.15048,-4.4815 -17.62209,-3.7327 -25.38004,-4.9245 l 0.0631,-13.3213 -6.62911,-0.2526 c 0.91404,-1.0913 1.10154,-2.4247 1.01017,-3.8512 l -1.32581,-8.3337 c -1.1236,-6.815 2.29945,-11.7705 6.69867,-12.1096 1.99936,-0.1542 6.4635,-3.552 7.45734,-4.3562 3.71869,-3.0091 5.43962,-7.699 8.9162,-10.102 l 0.0558,-0.034 c 1.31266,-0.9073 2.81982,-1.4552 4.8351,-1.4969 l 1.77794,0.1993 c 6.28263,0.5574 14.25464,15.1998 20.46179,27.1979 2.37959,4.5996 5.88069,8.3628 8.42133,11.7926 3.85754,2.9967 5.06231,7.8654 5.52037,9.6796 l -7.76553,10.0384 -10.48031,-13.4161 -3.6618,-4.7035 -25.63256,-0.1894 m 8.02714,-36.489 c -3.46095,6.1142 -13.42143,17.3675 -15.60325,17.9279 l 11.61672,14.3947 c 5.82579,-8.5933 14.74566,-11.6675 32.95615,1.8309 -20.27171,-18.4944 -15.17298,-35.3323 -28.90266,-34.2093 z"
           style="display:inline;fill:#999999;fill-rule:evenodd;stroke:#ff00ff;stroke-width:0.17716534;stroke-linecap:butt;stroke-linejoin:miter;stroke-miterlimit:4;stroke-dasharray:none;stroke-opacity:1" />
      </g>
      <g
         style="display:inline"
         inkscape:label="vertclair"
         id="layer6">
        <path
           sodipodi:nodetypes="ccsc"
           inkscape:connector-curvature="0"
           id="path5201-4-7"
           d="m 484.47658,770.15171 c 14.91514,-9.19931 28.69002,-10.11283 41.08031,-0.96497 4.76284,-6.48253 5.52537,-22.00048 -17.33037,-23.32075 -9.4486,-0.5458 -29.553,7.87187 -23.74994,24.28572 z"
           style="display:inline;fill:#000000;fill-rule:evenodd;stroke:#00ff00;stroke-width:0.17716534;stroke-linecap:butt;stroke-linejoin:miter;stroke-miterlimit:4;stroke-dasharray:none;stroke-opacity:1" />
        <path
           sodipodi:nodetypes="cccc"
           inkscape:connector-curvature="0"
           id="path5204-1-5-0"
           d="m 512.25246,788.26436 c 0.72764,-2.39163 2.91722,-3.66406 4.0579,0.0543 0.52867,-1.93553 0.87756,-6.83742 -1.70277,-6.72552 -2.74588,0.25735 -2.71005,5.47835 -2.35513,6.67125 z"
           style="display:inline;fill:#000000;fill-rule:evenodd;stroke:#00ff00;stroke-width:0.17716534;stroke-linecap:butt;stroke-linejoin:miter;stroke-miterlimit:4;stroke-dasharray:none;stroke-opacity:1" />
        <path
           sodipodi:nodetypes="cccc"
           inkscape:connector-curvature="0"
           id="path5204-0-4"
           d="m 489.32198,788.06748 c 0.76615,-1.42909 1.45468,-2.03573 2.51772,-0.25823 0.23521,-1.93553 0.0834,-5.02938 -1.65812,-4.91748 -1.92831,0.81943 -1.18285,4.00459 -0.8596,5.17571 z"
           style="display:inline;fill:#000000;fill-rule:evenodd;stroke:#00ff00;stroke-width:0.17716534;stroke-linecap:butt;stroke-linejoin:miter;stroke-miterlimit:4;stroke-dasharray:none;stroke-opacity:1" />
        <path
           sodipodi:nodetypes="cccccc"
           inkscape:connector-curvature="0"
           id="path5196-1-4"
           d="m 449.15002,879.49592 c -7.34589,-17.86157 18.58463,-50.04653 23.78449,-55.23452 l -0.56757,2.78741 c -25.71373,37.01888 -16.67327,47.42215 -14.91907,52.51581 -4.50958,0.0341 -5.59077,-16.02233 -5.54482,-16.15424 -1.21095,-0.5576 -1.72381,14.37541 -2.75303,16.08554 z"
           style="display:inline;fill:#000000;fill-rule:evenodd;stroke:#00ff00;stroke-width:0.17716534;stroke-linecap:butt;stroke-linejoin:miter;stroke-miterlimit:4;stroke-dasharray:none;stroke-opacity:1" />
        <path
           sodipodi:nodetypes="ccccsc"
           inkscape:connector-curvature="0"
           id="path5199-2-5"
           d="m 549.40743,820.90707 c 6.71087,17.07037 20.11291,32.08557 17.17256,50.80087 2.48569,-4.25993 2.67803,-6.51706 2.83655,-11.00971 3.12631,2.92758 4.10308,10.73143 5.74973,14.50454 0.004,-16.16648 -6.9569,-27.53796 -10.86373,-34.19426 -4.44663,-7.57599 -9.33264,-11.47272 -14.89511,-20.10144 z"
           style="display:inline;fill:#000000;fill-rule:evenodd;stroke:#00ff00;stroke-width:0.17716534;stroke-linecap:butt;stroke-linejoin:miter;stroke-miterlimit:4;stroke-dasharray:none;stroke-opacity:1" />
        <path
           sodipodi:nodetypes="ccccc"
           inkscape:connector-curvature="0"
           id="path4871-8-5"
           d="m 548.90236,886.94579 c 4.45402,-2.38615 8.6324,-1.1889 12.75314,0.75762 2.98827,-0.059 2.83882,-2.0006 2.52538,-4.04061 -3.24293,-4.21695 -7.15384,-7.59893 -14.39464,-6.81853 -1.97756,0.98302 -2.92428,3.42639 -0.88388,10.10152 z"
           style="display:inline;fill:#4d4d4d;fill-rule:evenodd;stroke:#00ff00;stroke-width:0.17716534;stroke-linecap:butt;stroke-linejoin:miter;stroke-miterlimit:4;stroke-dasharray:none;stroke-opacity:1" />
        <path
           sodipodi:nodetypes="ccccsc"
           inkscape:connector-curvature="0"
           id="path5199-0"
           d="m 549.40743,820.90707 c 6.71087,17.07037 20.11291,32.08557 17.17256,50.80087 2.48569,-4.25993 2.67803,-6.51706 2.83655,-11.00971 3.12631,2.92758 4.10308,10.73143 5.74973,14.50454 0.004,-16.16648 -6.9569,-27.53796 -10.86373,-34.19426 -4.44663,-7.57599 -9.33264,-11.47272 -14.89511,-20.10144 z"
           style="display:inline;fill:#4d4d4d;fill-rule:evenodd;stroke:#00ff00;stroke-width:0.17716534;stroke-linecap:butt;stroke-linejoin:miter;stroke-miterlimit:4;stroke-dasharray:none;stroke-opacity:1" />
        <path
           inkscape:connector-curvature="0"
           id="path4826-8"
           d="m 82.522251,1017.6343 50.901979,0 c 4.36699,0 7.88258,-3.5156 7.88258,-7.8825 l 0,-108.30521 c 0,-4.36691 -3.51559,-7.88251 -7.88258,-7.88251 l -107.825246,0 c -4.36689,0 -7.882481,3.5156 -7.882481,7.88251 l 0,24.62782 25.52004,0 c 0,-4.36691 3.515592,-6.70912 7.882481,-6.70912 l 57.092066,0 c 4.36689,0 7.88248,2.2656 7.88248,6.63251 l 0,58.5207 c 0,4.36691 -3.51559,7.88251 -7.88248,7.88251 l -25.688839,0 z"
           style="display:inline;fill:#4d4d4d;stroke:#00ff00;stroke-width:0.35433072;stroke-miterlimit:4;stroke-dasharray:none" />
        <path
           sodipodi:nodetypes="ccsc"
           inkscape:connector-curvature="0"
           id="path5201-8"
           d="m 484.47658,770.15171 c 14.91514,-9.19931 28.69002,-10.06819 41.08031,-0.92033 4.76284,-6.48253 5.52537,-22.04512 -17.33037,-23.36539 -9.4486,-0.5458 -29.553,7.87187 -23.74994,24.28572 z"
           style="display:inline;fill:#4d4d4d;fill-rule:evenodd;stroke:#00ff00;stroke-width:0.17716534;stroke-linecap:butt;stroke-linejoin:miter;stroke-miterlimit:4;stroke-dasharray:none;stroke-opacity:1" />
        <path
           sodipodi:nodetypes="cccccc"
           inkscape:connector-curvature="0"
           id="path5196-2"
           d="m 449.15002,879.49592 c -7.34589,-17.86157 18.58463,-50.04653 23.78449,-55.23452 l -0.56757,2.78741 c -25.71373,37.01888 -16.67327,47.42215 -14.91907,52.51581 -4.50958,0.0341 -5.59077,-16.02233 -5.54482,-16.15424 -1.21095,-0.5576 -1.72381,14.37541 -2.75303,16.08554 z"
           style="display:inline;fill:#4d4d4d;fill-rule:evenodd;stroke:#00ff00;stroke-width:0.17716534;stroke-linecap:butt;stroke-linejoin:miter;stroke-miterlimit:4;stroke-dasharray:none;stroke-opacity:1" />
        <path
           sodipodi:nodetypes="ccccc"
           inkscape:connector-curvature="0"
           id="path4871-89"
           d="m 548.90236,886.94579 c 4.45402,-2.38615 8.6324,-1.1889 12.75314,0.75762 2.98827,-0.059 2.83882,-2.0006 2.52538,-4.04061 -3.24293,-4.21695 -7.15384,-7.59893 -14.39464,-6.81853 -1.97756,0.98302 -2.92428,3.42639 -0.88388,10.10152 z"
           style="display:inline;fill:#4d4d4d;fill-rule:evenodd;stroke:#00ff00;stroke-width:0.17716534;stroke-linecap:butt;stroke-linejoin:miter;stroke-miterlimit:4;stroke-dasharray:none;stroke-opacity:1" />
        <path
           sodipodi:nodetypes="cccc"
           inkscape:connector-curvature="0"
           id="path5204-4"
           d="m 489.32198,788.06748 c 0.76615,-1.42909 1.45468,-2.03573 2.51772,-0.25823 0.23521,-1.93553 0.0834,-5.02938 -1.65812,-4.91748 -1.92831,0.81943 -1.18285,4.00459 -0.8596,5.17571 z"
           style="display:inline;fill:#4d4d4d;fill-rule:evenodd;stroke:#00ff00;stroke-width:0.17716534;stroke-linecap:butt;stroke-linejoin:miter;stroke-miterlimit:4;stroke-dasharray:none;stroke-opacity:1" />
        <path
           sodipodi:nodetypes="cccc"
           inkscape:connector-curvature="0"
           id="path5204-1-0"
           d="m 512.25246,788.26436 c 0.72764,-2.39163 2.91722,-3.66406 4.0579,0.0543 0.52867,-1.93553 0.87756,-6.83742 -1.70277,-6.72552 -2.74588,0.25735 -2.71005,5.47835 -2.35513,6.67125 z"
           style="display:inline;fill:#4d4d4d;fill-rule:evenodd;stroke:#00ff00;stroke-width:0.17716534;stroke-linecap:butt;stroke-linejoin:miter;stroke-miterlimit:4;stroke-dasharray:none;stroke-opacity:1" />
      </g>
      <g
         style="display:inline"
         inkscape:label="bleuclair"
         id="layer2">
        <path
           sodipodi:nodetypes="cccc"
           inkscape:connector-curvature="0"
           id="path4865-9"
           d="m 492.72149,926.36658 -3.6084,4.76913 c -1.39881,-5.50789 -3.05015,-6.67568 -4.44896,-9.00254 2.39158,1.44102 5.0976,3.0359 8.05736,4.23341 z"
           style="display:inline;fill:#333333;fill-rule:evenodd;stroke:#00ffff;stroke-width:0.17716534;stroke-linecap:butt;stroke-linejoin:miter;stroke-miterlimit:4;stroke-dasharray:none;stroke-opacity:1" />
        <path
           sodipodi:nodetypes="ccccccccc"
           d="m 167.93947,882.53294 -0.0893,-2.678 27.19838,0 -3.6e-4,2.678 -12.22733,0 -0.0893,30.38043 -2.9889,0 0.0893,-30.38043 z"
           style="font-style:normal;font-variant:normal;font-weight:normal;font-stretch:normal;font-size:medium;line-height:125%;font-family:'Century Gothic';-inkscape-font-specification:'Century Gothic';letter-spacing:0px;word-spacing:0px;display:inline;fill:#333333;fill-opacity:1;stroke:#00ffff;stroke-width:0.1;stroke-linecap:butt;stroke-linejoin:miter;stroke-miterlimit:4;stroke-dasharray:none;stroke-opacity:1"
           id="path4152-7"
           inkscape:connector-curvature="0" />
        <path
           sodipodi:nodetypes="ccccccccccccc"
           d="m 203.61266,879.85494 2.94426,0 0,15.16075 22.04264,0 0,-15.16075 2.54247,0 0,33.05843 -2.54247,0 0,-15.19721 -22.04264,0 0,15.19721 -2.94426,0 z"
           style="font-style:normal;font-variant:normal;font-weight:normal;font-stretch:normal;font-size:medium;line-height:125%;font-family:'Century Gothic';-inkscape-font-specification:'Century Gothic';letter-spacing:0px;word-spacing:0px;display:inline;fill:#333333;fill-opacity:1;stroke:#00ffff;stroke-width:0.1;stroke-linecap:butt;stroke-linejoin:miter;stroke-miterlimit:4;stroke-dasharray:none;stroke-opacity:1"
           id="path4154-7"
           inkscape:connector-curvature="0" />
        <path
           sodipodi:nodetypes="ccccccccccccc"
           d="m 243.48053,879.85494 17.73323,0 0,2.63365 -15.1684,0 0,13.28422 14.67742,0 0,2.1201 -14.67742,0 0,12.96718 15.03456,0 0,2.05328 -17.59939,0 z"
           style="font-style:normal;font-variant:normal;font-weight:normal;font-stretch:normal;font-size:medium;line-height:125%;font-family:'Century Gothic';-inkscape-font-specification:'Century Gothic';letter-spacing:0px;word-spacing:0px;display:inline;fill:#333333;fill-opacity:1;stroke:#00ffff;stroke-width:0.35433072;stroke-linecap:butt;stroke-linejoin:miter;stroke-miterlimit:4;stroke-dasharray:none;stroke-opacity:1"
           id="path4156-0"
           inkscape:connector-curvature="0" />
        <path
           sodipodi:nodetypes="ccccccc"
           d="m 171.79252,922.64133 20.0189,0 0,51.71118 30.41123,0 0,15.1687 -50.43013,0 z"
           style="font-style:normal;font-variant:normal;font-weight:normal;font-stretch:normal;font-size:medium;line-height:125%;font-family:'Century Gothic';-inkscape-font-specification:'Century Gothic';letter-spacing:0px;word-spacing:0px;display:inline;fill:#333333;fill-opacity:1;stroke:#00ffff;stroke-width:0.35862738;stroke-linecap:butt;stroke-linejoin:miter;stroke-miterlimit:4;stroke-dasharray:none;stroke-opacity:1"
           id="path4158-8"
           inkscape:connector-curvature="0" />
        <path
           sodipodi:nodetypes="ccccc"
           d="m 234.68053,922.64133 20.2138,0 0,66.87988 -20.2138,0 z"
           style="font-style:normal;font-variant:normal;font-weight:normal;font-stretch:normal;font-size:medium;line-height:125%;font-family:'Century Gothic';-inkscape-font-specification:'Century Gothic';letter-spacing:0px;word-spacing:0px;display:inline;fill:#333333;fill-opacity:1;stroke:#00ffff;stroke-width:0.35433072;stroke-linecap:butt;stroke-linejoin:miter;stroke-miterlimit:4;stroke-dasharray:none;stroke-opacity:1"
           id="path4160-6"
           inkscape:connector-curvature="0" />
        <path
           sodipodi:nodetypes="ccccccccccc"
           d="m 271.6291,989.52121 0,-66.87988 18.49596,0 34.66031,37.1764 0,-37.1764 19.8734,0 0,66.87988 -17.88373,0 -34.77031,-37.52202 0,37.52202 z"
           style="font-style:normal;font-variant:normal;font-weight:normal;font-stretch:normal;font-size:medium;line-height:125%;font-family:'Century Gothic';-inkscape-font-specification:'Century Gothic';letter-spacing:0px;word-spacing:0px;display:inline;fill:#333333;fill-opacity:1;stroke:#00ffff;stroke-width:0.35433072;stroke-linecap:butt;stroke-linejoin:miter;stroke-miterlimit:4;stroke-dasharray:none;stroke-opacity:1"
           id="path4162-6"
           inkscape:connector-curvature="0" />
        <path
           sodipodi:nodetypes="cccccccscc"
           d="m 361.04885,922.64133 19.98865,0 0,36.53415 c 0.64932,21.08888 31.11987,20.1828 30.70249,0 l 0,-36.53415 19.98861,0 0,36.71273 c 0.22501,19.97295 -16.99761,30.56629 -34.56446,30.88026 -17.97634,0.32129 -36.21965,-9.94784 -36.11529,-30.88026 z"
           style="font-style:normal;font-variant:normal;font-weight:normal;font-stretch:normal;font-size:medium;line-height:125%;font-family:'Century Gothic';-inkscape-font-specification:'Century Gothic';letter-spacing:0px;word-spacing:0px;display:inline;fill:#333333;fill-opacity:1;stroke:#00ffff;stroke-width:0.35433072;stroke-linecap:butt;stroke-linejoin:miter;stroke-miterlimit:4;stroke-dasharray:none;stroke-opacity:1"
           id="path4164-8"
           inkscape:connector-curvature="0" />
        <path
           sodipodi:nodetypes="ccccccccccccc"
           d="m 441.65225,922.85301 25.45532,0 14.09006,18.32316 14.13284,-18.32316 25.39698,0 -26.77306,32.2983 28.91227,34.33679 -25.5446,0 -16.12443,-20.00317 -16.45058,20.00317 -23.75883,0 27.98838,-34.33679 z"
           style="font-style:normal;font-variant:normal;font-weight:normal;font-stretch:normal;font-size:medium;line-height:125%;font-family:'Century Gothic';-inkscape-font-specification:'Century Gothic';letter-spacing:0px;word-spacing:0px;display:inline;fill:#333333;fill-opacity:1;stroke:#00ffff;stroke-width:0.40015879;stroke-linecap:butt;stroke-linejoin:miter;stroke-miterlimit:4;stroke-dasharray:none;stroke-opacity:1"
           id="path4166-8"
           inkscape:connector-curvature="0" />
        <path
           sodipodi:nodetypes="ccccccccccc"
           d="m 171.76927,1000.7557 16.12445,0 0,2.4105 -13.78311,0 0,12.5118 12.6467,0 0,2.1853 -12.6467,0 0,15.9509 -2.34134,0 z"
           style="font-style:normal;font-variant:normal;font-weight:normal;font-stretch:normal;font-size:medium;line-height:125%;font-family:'Century Gothic';-inkscape-font-specification:'Century Gothic';letter-spacing:0px;word-spacing:0px;display:inline;fill:#333333;fill-opacity:1;stroke:#00ffff;stroke-width:0.35433072;stroke-linecap:butt;stroke-linejoin:miter;stroke-miterlimit:4;stroke-dasharray:none;stroke-opacity:1"
           id="path4168-5"
           inkscape:connector-curvature="0" />
        <path
           inkscape:connector-curvature="0"
           d="m 214.28664,999.92419 q 7.4505,0 12.46952,5.01161 5.01904,5.0116 5.01904,12.3379 0,7.2589 -5.01904,12.3154 -4.99672,5.0566 -12.20183,5.0566 -7.29433,0 -12.31336,-5.0341 -5.01904,-5.034 -5.01904,-12.1806 0,-4.7644 2.2753,-8.832 2.2976,-4.0677 6.2459,-6.36 3.94831,-2.31481 8.54351,-2.31481 z m 0.14079,2.60881 q -3.86587,0 -7.32853,1.9935 -3.46267,1.9935 -5.4075,5.3707 -1.94475,3.3773 -1.94475,7.5285 0,6.1447 4.29278,10.3897 4.31645,4.2215 10.38799,4.2215 4.0556,0 7.49457,-1.9466 3.46268,-1.9466 5.38373,-5.3239 1.94478,-3.3772 1.94478,-7.5049 0,-4.1043 -1.94478,-7.4112 -1.92105,-3.3303 -5.43116,-5.3238 -3.51012,-1.9935 -7.44714,-1.9935 z"
           style="font-style:normal;font-variant:normal;font-weight:normal;font-stretch:normal;font-size:medium;line-height:125%;font-family:'Century Gothic';-inkscape-font-specification:'Century Gothic';letter-spacing:0px;word-spacing:0px;display:inline;fill:#333333;fill-opacity:1;stroke:#00ffff;stroke-width:0.35995719;stroke-linecap:butt;stroke-linejoin:miter;stroke-miterlimit:4;stroke-dasharray:none;stroke-opacity:1"
           id="path4170-68" />
        <path
           sodipodi:nodetypes="ccccccccc"
           d="m 242.79846,1000.34 3.10053,0 0,19.9564 c -0.13292,16.181 21.93092,15.1354 22.04362,0 l 0,-19.9564 2.69874,0 0,19.9564 c -0.0396,18.6973 -27.84276,19.3338 -27.84289,0 z"
           style="font-style:normal;font-variant:normal;font-weight:normal;font-stretch:normal;font-size:medium;line-height:125%;font-family:'Century Gothic';-inkscape-font-specification:'Century Gothic';letter-spacing:0px;word-spacing:0px;display:inline;fill:#333333;fill-opacity:1;stroke:#00ffff;stroke-width:0.35433072;stroke-linecap:butt;stroke-linejoin:miter;stroke-miterlimit:4;stroke-dasharray:none;stroke-opacity:1"
           id="path4172-1"
           inkscape:connector-curvature="0" />
        <path
           sodipodi:nodetypes="ccccccccccc"
           d="m 283.40007,1033.8142 0,-33.0585 2.2272,0 24.13748,28.3408 0,-28.3408 3.10055,0 0,33.0585 -2.3879,0 -24.36082,-28.0262 0,28.0262 z"
           style="font-style:normal;font-variant:normal;font-weight:normal;font-stretch:normal;font-size:medium;line-height:125%;font-family:'Century Gothic';-inkscape-font-specification:'Century Gothic';letter-spacing:0px;word-spacing:0px;display:inline;fill:#333333;fill-opacity:1;stroke:#00ffff;stroke-width:0.35433072;stroke-linecap:butt;stroke-linejoin:miter;stroke-miterlimit:4;stroke-dasharray:none;stroke-opacity:1"
           id="path4174-5"
           inkscape:connector-curvature="0" />
        <path
           sodipodi:nodetypes="ccccccccccccc"
           d="m 378.55569,1000.7568 15.18431,33.0563 -2.8893,0 -5.29258,-11.4568 -15.48624,0 -5.35936,11.4568 -2.89053,0 15.25313,-33.1009 z m -0.71797,5.0916 -6.32383,13.8079 12.66938,0 z"
           style="font-style:normal;font-variant:normal;font-weight:normal;font-stretch:normal;font-size:medium;line-height:125%;font-family:'Century Gothic';-inkscape-font-specification:'Century Gothic';letter-spacing:0px;word-spacing:0px;display:inline;fill:#333333;fill-opacity:1;stroke:#00ffff;stroke-width:0.35604823;stroke-linecap:butt;stroke-linejoin:miter;stroke-miterlimit:4;stroke-dasharray:none;stroke-opacity:1"
           id="path4178-8"
           inkscape:connector-curvature="0" />
        <path
           sodipodi:nodetypes="ccccc"
           d="m 432.00398,1000.7557 2.69875,0 0,33.0585 -2.69875,0 z"
           style="font-style:normal;font-variant:normal;font-weight:normal;font-stretch:normal;font-size:medium;line-height:125%;font-family:'Century Gothic';-inkscape-font-specification:'Century Gothic';letter-spacing:0px;word-spacing:0px;display:inline;fill:#333333;fill-opacity:1;stroke:#00ffff;stroke-width:0.35433072;stroke-linecap:butt;stroke-linejoin:miter;stroke-miterlimit:4;stroke-dasharray:none;stroke-opacity:1"
           id="path4182-1"
           inkscape:connector-curvature="0" />
        <path
           sodipodi:nodetypes="ccccccccccc"
           d="m 493.38256,1033.8023 0,-33.0347 2.01868,0.089 24.50074,28.0101 0,-28.0994 2.83725,0 0,33.0347 -2.31197,0 -24.16346,-27.5172 0,27.5172 z"
           style="font-style:normal;font-variant:normal;font-weight:normal;font-stretch:normal;font-size:medium;line-height:125%;font-family:'Century Gothic';-inkscape-font-specification:'Century Gothic';letter-spacing:0px;word-spacing:0px;display:inline;fill:#333333;fill-opacity:1;stroke:#00ffff;stroke-width:0.37809098;stroke-linecap:butt;stroke-linejoin:miter;stroke-miterlimit:4;stroke-dasharray:none;stroke-opacity:1"
           id="path4186-3"
           inkscape:connector-curvature="0" />
        <path
           sodipodi:nodetypes="ccccccccc"
           d="m 394.47737,1003.4337 -0.0893,-2.678 27.19838,0 -3.6e-4,2.678 -12.22733,0 -0.0893,30.3805 -2.9889,0 0.0893,-30.3805 z"
           style="font-style:normal;font-variant:normal;font-weight:normal;font-stretch:normal;font-size:medium;line-height:125%;font-family:'Century Gothic';-inkscape-font-specification:'Century Gothic';letter-spacing:0px;word-spacing:0px;display:inline;fill:#333333;fill-opacity:1;stroke:#00ffff;stroke-width:0.1;stroke-linecap:butt;stroke-linejoin:miter;stroke-miterlimit:4;stroke-dasharray:none;stroke-opacity:1"
           id="path4152-5-6"
           inkscape:connector-curvature="0" />
        <path
           d="m 463.83782,999.92419 q 7.45049,0 12.46952,5.01161 5.01904,5.0116 5.01904,12.3379 0,7.2589 -5.01904,12.3154 -4.99673,5.0566 -12.20183,5.0566 -7.29433,0 -12.31336,-5.0341 -5.01904,-5.034 -5.01904,-12.1806 0,-4.7644 2.27529,-8.832 2.29761,-4.0677 6.24591,-6.36 3.94831,-2.31481 8.54351,-2.31481 z m 0.14079,2.60881 q -3.86587,0 -7.32853,1.9935 -3.46268,1.9935 -5.4075,5.3707 -1.94476,3.3773 -1.94476,7.5285 0,6.1447 4.29278,10.3897 4.31645,4.2215 10.388,4.2215 4.0556,0 7.49456,-1.9466 3.46268,-1.9466 5.38374,-5.3239 1.94477,-3.3772 1.94477,-7.5049 0,-4.1043 -1.94477,-7.4112 -1.92106,-3.3303 -5.43117,-5.3238 -3.51011,-1.9935 -7.44713,-1.9935 z"
           style="font-style:normal;font-variant:normal;font-weight:normal;font-stretch:normal;font-size:medium;line-height:125%;font-family:'Century Gothic';-inkscape-font-specification:'Century Gothic';letter-spacing:0px;word-spacing:0px;display:inline;fill:#333333;fill-opacity:1;stroke:#00ffff;stroke-width:0.35995719;stroke-linecap:butt;stroke-linejoin:miter;stroke-miterlimit:4;stroke-dasharray:none;stroke-opacity:1"
           id="path4170-6-5"
           inkscape:connector-curvature="0" />
        <path
           sodipodi:nodetypes="ssscsccscccsccscsc"
           d="m 337.19025,1001.0816 c 4.96699,0 9.12349,0.5131 12.46952,3.8542 3.34602,3.341 5.01903,7.4537 5.01903,12.3379 0,4.8393 -1.67301,8.9444 -5.01903,12.3154 -3.33116,3.3711 -7.32402,4.2258 -12.20184,4.2258 l -11.38302,0 0,-32.7333 z m 0.14079,2.4481 -8.85827,0 0,28.0379 8.85826,0 c 2.70373,0 5.20191,-0.1796 7.49456,-1.4773 2.30845,-1.2977 4.10303,-3.0724 5.38373,-5.3239 1.29652,-2.2514 1.94478,-4.7531 1.94478,-7.5049 0,-2.7362 -0.64826,-5.2066 -1.94478,-7.4112 -1.2807,-2.2202 -3.09109,-3.9948 -5.43116,-5.3238 -2.34008,-1.329 -7.44712,-0.9968 -7.44712,-0.9968 z"
           style="font-style:normal;font-variant:normal;font-weight:normal;font-stretch:normal;font-size:medium;line-height:125%;font-family:'Century Gothic';-inkscape-font-specification:'Century Gothic';letter-spacing:0px;word-spacing:0px;display:inline;fill:#333333;fill-opacity:1;stroke:#00ffff;stroke-width:0.35995719;stroke-linecap:butt;stroke-linejoin:miter;stroke-miterlimit:4;stroke-dasharray:none;stroke-opacity:1"
           id="path4170-3-8"
           inkscape:connector-curvature="0" />
        <path
           sodipodi:nodetypes="cccccc"
           inkscape:connector-curvature="0"
           id="path4861-8"
           d="m 431.53553,936.19073 0.0631,2.39911 c 7.97312,-0.31843 17.86828,1.46833 28.85243,6.50285 l -3.15672,-3.85119 c -6.61291,-3.9375 -16.89098,-4.33464 -25.75884,-5.05077 z"
           style="display:inline;fill:#333333;fill-rule:evenodd;stroke:#00ffff;stroke-width:0.17716534;stroke-linecap:butt;stroke-linejoin:miter;stroke-miterlimit:4;stroke-dasharray:none;stroke-opacity:1" />
        <path
           sodipodi:nodetypes="cccccsccsc"
           inkscape:connector-curvature="0"
           id="path4859-2"
           d="m 429.51523,898.81509 c -2.01699,0.48094 -5.36487,5.54211 -4.61778,11.03862 -0.0373,4.46876 2.56753,9.76288 0.26682,12.58554 l -2.34129,-0.0118 c 3.0548,-7.42993 -1.65562,-14.29001 0.69449,-19.88737 0.97959,-2.36625 2.84788,-4.43236 5.49424,-5.24445 3.22531,-0.98975 6.54007,-2.09283 8.83726,-4.09947 4.58613,-3.76917 5.25712,-10.91345 13.22665,-10.796 -6.81057,1.00801 -8.22144,13.23441 -21.56039,16.41498 z"
           style="display:inline;fill:#333333;fill-rule:evenodd;stroke:#00ffff;stroke-width:0.17716534;stroke-linecap:butt;stroke-linejoin:miter;stroke-miterlimit:4;stroke-dasharray:none;stroke-opacity:1" />
        <path
           sodipodi:nodetypes="cscssscccccsscscc"
           inkscape:connector-curvature="0"
           id="path4888-4-4-0-1-9"
           d="m 544.2228,881.17594 c -10.49826,0.92104 -9.27716,22.33179 -9.88081,29.15685 -0.21406,2.42014 -0.61644,5.42646 -1.56152,8.36146 -2.0768,4.96881 -2.84076,9.08171 -3.08792,12.22524 -1.6326,20.76371 20.58259,23.57885 30.07702,13.96401 15.56451,-15.76189 19.33423,-14.5861 29.28379,-20.35419 8.02663,-4.6533 2.09597,-12.62144 -2.76287,-17.53282 -4.29394,-5.08497 -0.33676,-19.59289 -16.23084,-20.85219 l -0.48832,1.95081 c 14.24675,0.40271 10.31606,12.80968 14.00557,19.14843 4.37649,4.51844 10.42884,11.47154 2.28617,16.63858 -9.73822,3.52611 -12.4402,4.31147 -26.23383,17.61565 -9.82377,9.47519 -29.5436,6.98929 -27.12094,-12.27499 0.37537,-2.98482 2.0282,-7.16928 3.31888,-11.26022 0.84334,-2.68943 0.63929,-5.27374 0.83004,-7.48832 0.5382,-6.24847 -0.7849,-24.6569 7.6277,-26.97271 z"
           style="display:inline;fill:#333333;fill-rule:evenodd;stroke:#00ffff;stroke-width:0.19592261;stroke-linecap:butt;stroke-linejoin:miter;stroke-miterlimit:4;stroke-dasharray:none;stroke-opacity:1" />
        <path
           sodipodi:nodetypes="csccssscc"
           inkscape:connector-curvature="0"
           id="path5002-0-9"
           d="m 522.73894,807.75398 c -9.73673,3.97312 -13.14801,8.69234 -19.95712,8.55812 -7.29505,-0.1438 -8.37451,-3.46093 -17.46464,-8.94925 l -0.12627,0.72844 c 0.55149,0.33297 1.19976,1.85751 1.69544,2.17427 7.67482,4.90442 9.043,7.83946 15.89547,7.97454 6.62298,0.13055 10.03135,-4.33062 19.17263,-8.23074 0.2569,-0.10961 0.89714,-1.67087 1.1633,-1.77947 z"
           style="display:inline;fill:#333333;fill-rule:evenodd;stroke:#00ffff;stroke-width:0.16670348;stroke-linecap:butt;stroke-linejoin:miter;stroke-miterlimit:4;stroke-dasharray:none;stroke-opacity:1" />
        <path
           sodipodi:nodetypes="cccsscccc"
           inkscape:connector-curvature="0"
           id="path4974-0"
           d="m 488.02405,803.86848 c -0.88011,-0.73676 -1.80919,-1.3524 -2.87743,-1.72092 l 1.38802,-0.81796 c 0.86852,0.27434 1.47302,1.16392 2.066,1.76297 10.39292,10.49928 17.35515,4.93975 25.71341,0.79514 l 6.68293,-3.31387 0.80992,1.1129 c -2.18855,0.4945 -4.78871,2.0588 -7.50274,3.67005 -17.99991,10.71645 -21.41989,2.7514 -26.28011,-1.48831 z"
           style="display:inline;fill:#333333;fill-rule:evenodd;stroke:#00ffff;stroke-width:0.17716534;stroke-linecap:butt;stroke-linejoin:miter;stroke-miterlimit:4;stroke-dasharray:none;stroke-opacity:1" />
      </g>
      <g
         style="display:inline"
         inkscape:label="noir"
         id="layer8">
        <path
           sodipodi:nodetypes="ccccc"
           inkscape:connector-curvature="0"
           id="path4867-9"
           d="m 509.75336,936.37424 c 6.47757,1.21766 13.16551,1.59379 19.99995,1.38393 -0.45535,-5.12592 -1.06147,-9.0723 2.41071,-17.90179 -4.47439,3.24825 -9.1104,5.71421 -14.8872,7.42593 z"
           style="display:inline;fill:#000000;fill-rule:evenodd;stroke:#000000;stroke-width:0.17716534;stroke-linecap:butt;stroke-linejoin:miter;stroke-miterlimit:4;stroke-dasharray:none;stroke-opacity:1" />
        <path
           sodipodi:nodetypes="cscccccscscccccccccccccccccscccccccccccccsccccccccc"
           inkscape:connector-curvature="0"
           id="path5259-1"
           d="m 474.53639,908.80303 c 1.13335,1.79728 1.89562,3.74298 3.55967,5.32798 1.63424,1.55661 5.11363,1.20136 7.67191,-1.30006 1.57884,-1.57933 4.33073,-5.72413 -6.13487,-16.72616 -8.32409,-9.73123 -17.92988,-6.74994 -22.34191,-23.2195 -1.37673,-13.39294 5.30173,-23.94286 11.80931,-34.55309 l 0.50507,0.25254 c -3.79517,11.63846 -16.75035,24.09968 -5.3226,40.86534 0.1709,0.25073 0.0259,-0.75279 0.39177,-0.80107 -0.4672,-6.44388 3.73542,-22.10214 9.75572,-33.34639 9.37426,-17.50847 12.86943,-37.44742 11.33751,-36.51738 l -0.61061,-1.06013 c -4.4411,-2.98408 -3.26768,-4.99259 -3.52468,-6.20035 0.38517,-4.49445 5.46385,-4.5012 6.02932,-5.8715 l -0.53664,-0.34724 c -5.0715,-6.39736 -3.31918,-9.33859 -3.50396,-12.53221 0.40317,-4.5271 2.54404,-7.46761 6.81852,-8.46003 4.16048,0.19324 5.29799,2.78707 6.69224,5.17704 1.46096,3.29908 0.61217,5.86877 0.63135,8.71256 2.07745,-0.74144 4.26921,-1.41196 8.0812,-0.50507 0.11374,-3.74086 -0.88198,-5.84186 2.24127,-10.89071 1.01706,-1.48246 3.87004,-4.95879 8.23904,-4.76666 2.42209,0.55212 6.65592,1.14391 9.47015,9.34391 0.57492,2.24381 1.201,11.08236 -3.40926,13.25825 1.5495,0.95343 2.79702,0.79958 4.79822,3.40927 1.91959,3.1267 0.18533,5.43128 -1.13642,7.82868 3.25561,11.86286 7.55068,24.24546 14.59745,38.00392 3.37797,5.13847 6.09737,12.36508 7.65228,18.03246 1.34086,4.8872 1.20911,8.65957 2.67117,8.84426 1.38702,0.0589 2.22538,0.30065 4.24718,0.14793 2.66521,-4.08995 2.16549,-11.23257 1.76777,-13.63706 -2.77501,-10.44406 -8.66535,-17.336 -13.13196,-21.71828 l 1.51523,-1.01015 c 11.63405,13.29422 12.74018,18.73797 13.85894,22.5805 1.95968,10.29187 0.9541,11.79066 -0.47445,15.30022 4.40796,1.53467 7.74449,3.18037 11.61673,6.81853 0.86499,1.84948 1.99455,3.3966 1.26269,7.07107 l 4.54568,1.26269 c 0.85046,-2.86951 2.42251,-7.86488 1.8264,-16.01451 0.15765,-17.76882 -17.2863,-42.43303 -28.86325,-55.24457 -2.80667,-4.79619 -6.54127,-4.21949 -7.05572,-27.23079 -0.68762,-2.86947 3.61576,-26.98861 -12.28506,-40.10761 -10.55036,-8.7046 -25.76815,-5.3794 -29.51626,-4.56101 -3.00911,0.72791 -15.63945,3.61404 -20.57546,21.68765 -4.13712,24.33828 3.60018,21.98707 -2.21419,45.20432 -1.36324,3.70291 -2.06063,6.58471 -7.59464,13.58681 -11.49939,12.98585 -18.19203,26.14972 -23.3016,39.37223 -2.11518,5.73106 -3.61664,11.79386 -1.3813,19.87655 0.69391,-0.99006 6.65989,-3.3453 12.11917,-0.71297 1.78536,1.39576 3.1454,1.64582 8.82482,9.68442 z"
           style="display:inline;fill:#000000;fill-rule:evenodd;stroke:#000000;stroke-width:0.17716534;stroke-linecap:butt;stroke-linejoin:miter;stroke-miterlimit:4;stroke-dasharray:none;stroke-opacity:1" />
        <path
           sodipodi:nodetypes="cccc"
           inkscape:connector-curvature="0"
           id="path5222-1"
           d="m 510.66153,789.59329 6.76496,3.3004 c 0.75198,-1.85275 4.52557,-11.16992 -0.84278,-13.03731 -6.78726,-0.59607 -5.99441,6.73134 -5.92218,9.73691 z"
           style="display:inline;fill:#000000;fill-rule:evenodd;stroke:#000000;stroke-width:0.17716534;stroke-linecap:butt;stroke-linejoin:miter;stroke-miterlimit:4;stroke-dasharray:none;stroke-opacity:1" />
        <path
           sodipodi:nodetypes="cccc"
           inkscape:connector-curvature="0"
           id="path5240-5"
           d="m 489.84014,793.19101 c -6.25294,-11.07621 0.0988,-11.76353 0.91545,-11.52205 3.83764,1.71035 2.95679,6.70278 2.96732,8.20749 z"
           style="display:inline;fill:#000000;fill-rule:evenodd;stroke:#000000;stroke-width:0.17716534;stroke-linecap:butt;stroke-linejoin:miter;stroke-miterlimit:4;stroke-dasharray:none;stroke-opacity:1" />
        <path
           sodipodi:nodetypes="ccccc"
           inkscape:connector-curvature="0"
           id="path4869-2"
           d="m 552.31161,896.2897 c -9.17889,-3.4161 -9.88734,-20.0944 -4.16687,-22.34962 4.25029,-0.84637 8.21646,-0.49321 13.51076,2.0203 8.55196,3.7562 8.70318,6.57899 8.33374,9.34392 0.24877,6.88634 -12.60402,12.69425 -17.67763,10.9854 z"
           style="display:inline;fill:#000000;fill-rule:evenodd;stroke:#000000;stroke-width:0.17716534;stroke-linecap:butt;stroke-linejoin:miter;stroke-miterlimit:4;stroke-dasharray:none;stroke-opacity:1" />
      </g>
      <g
         style="display:inline"
         inkscape:label="jaune"
         id="layer4">
        <path
           sodipodi:nodetypes="cccccccccccccccscccccsccscsccccc"
           inkscape:connector-curvature="0"
           id="path6063"
           d="m 534.59269,899.36487 c 0.78078,-8.20789 2.68981,-17.74625 9.6671,-18.36844 0.29726,-3.47747 1.53936,-6.36599 3.6909,-7.21421 4.25029,-0.84637 8.21646,-0.49321 13.51076,2.0203 8.55196,3.7562 8.70318,6.57899 8.33374,9.34392 0.009,0.25019 7.8e-4,0.49897 0.0233,0.793 0.58691,0.0898 1.10381,0.14786 1.60856,0.21871 0.74151,-3.67603 -0.38806,-5.22315 -1.25305,-7.07263 -3.87224,-3.63816 -7.20877,-5.28386 -11.61673,-6.81853 1.42855,-3.50956 2.43413,-5.00835 0.47445,-15.30022 -1.11876,-3.84253 -2.22489,-9.28628 -13.85894,-22.58049 l -1.51523,1.01015 c 4.46661,4.38228 10.35695,11.27421 13.13196,21.71827 0.39772,2.40449 0.89744,9.54711 -1.76776,13.63706 -2.02181,0.15272 -2.86017,-0.089 -4.24718,-0.14793 -1.46207,-0.18469 -1.33032,-3.95706 -2.67118,-8.84426 -1.5549,-5.66738 -4.27431,-12.89399 -7.65228,-18.03246 -7.04677,-13.75845 -11.34184,-26.14105 -14.70295,-38.12825 -1.13872,1.09452 -2.29879,2.02003 -2.9267,2.3242 -0.26103,0.13229 0.10224,0.14898 0.10224,0.14898 -0.26616,0.1086 -0.9064,1.66986 -1.1633,1.77947 -9.14128,3.90012 -12.54965,8.36129 -19.17263,8.23074 -6.85247,-0.13508 -8.22066,-3.07011 -15.89546,-7.97454 -0.20825,-0.13307 -0.44342,-0.47932 -0.73783,-0.92456 0.25398,3.14214 -3.43953,20.49963 -11.71807,35.96161 -6.02031,11.24424 -10.22292,26.90251 -9.75572,33.34639 -0.36587,0.0483 -0.22087,1.0518 -0.39177,0.80107 -11.42775,-16.76566 1.52743,-29.22688 5.3226,-40.86533 l -0.50507,-0.25254 c -6.50758,10.61022 -13.18604,21.16014 -11.80931,34.55308 3.6033,13.45065 10.6708,13.92768 17.70615,18.78176 -1.29667,-12.34563 44.70305,-39.49027 59.7894,7.85568 z"
           style="display:inline;fill:#e6e6e6;fill-rule:evenodd;stroke:#ffff00;stroke-width:0.17716534;stroke-linecap:butt;stroke-linejoin:miter;stroke-miterlimit:4;stroke-dasharray:none;stroke-opacity:1" />
        <path
           style="display:inline;fill:#e6e6e6;fill-rule:evenodd;stroke:#ffff00;stroke-width:0.17716534;stroke-linecap:butt;stroke-linejoin:miter;stroke-miterlimit:4;stroke-dasharray:none;stroke-opacity:1"
           d="m 519.17368,787.16304 c 0.56045,-3.0804 0.39088,-6.39861 -2.58171,-7.43263 l -10e-6,0 c -4.5178,-0.39676 -5.67714,2.71708 -5.9416,5.72727 -1.53427,-0.22706 -3.13402,-0.32317 -4.81705,-0.25271 -0.10661,-2.48998 -0.14729,-4.63036 2.26093,-8.52334 1.01706,-1.48246 3.87004,-4.95879 8.23904,-4.76666 2.42209,0.55212 6.65592,1.14391 9.47015,9.34391 0.45045,1.75803 0.93231,7.56438 -1.0991,11.02846 0.006,-2.11707 -2.41066,-3.98273 -5.58594,-5.11517"
           id="path5222-3-4"
           inkscape:connector-curvature="0"
           sodipodi:nodetypes="cccccccccc" />
        <path
           style="display:inline;fill:#e6e6e6;fill-rule:evenodd;stroke:#ffff00;stroke-width:0.17716534;stroke-linecap:butt;stroke-linejoin:miter;stroke-miterlimit:4;stroke-dasharray:none;stroke-opacity:1"
           d="m 497.14041,779.36485 c -1.39425,-2.38997 -2.53176,-4.9838 -6.69224,-5.17704 -4.27448,0.99242 -6.41535,3.93293 -6.81852,8.46003 0.16161,2.79314 -1.20587,5.34588 1.87163,10.23232 0.1407,-1.38091 1.17587,-2.75283 2.4886,-3.7605 -2.76084,-7.30143 2.06902,-7.78513 2.774,-7.57667 2.23883,0.9978 2.87178,3.11262 3.00611,5.06321 1.26046,-0.35224 2.63051,-0.64281 4.09004,-0.84362 0.18662,-2.0228 0.33289,-4.02099 -0.71962,-6.39773 z"
           id="path5385-6"
           inkscape:connector-curvature="0"
           sodipodi:nodetypes="ccccccccc" />
      </g>
      <g
         style="display:inline"
         inkscape:label="rouge"
         id="layer3">
        <path
           sodipodi:nodetypes="cscccsc"
           inkscape:connector-curvature="0"
           id="path4937-3"
           d="m 533.30615,938.63718 c 3.95607,10.50743 18.35729,10.66153 26.29599,3.00453 13.79363,-13.30418 16.49561,-14.08954 26.23383,-17.61565 3.03701,-2.52473 3.96382,-2.90382 3.91887,-6.46443 -0.35333,-4.01637 -17.7951,0.0952 -22.9229,3.00337 -8.20254,6.87364 -17.0029,4.74872 -23.32042,7.27258 -4.65404,1.8593 -8.29981,4.49712 -10.20537,10.7996 z"
           style="display:inline;fill:#e6e6e6;fill-rule:evenodd;stroke:#ffff00;stroke-width:0.17716534;stroke-linecap:butt;stroke-linejoin:miter;stroke-miterlimit:4;stroke-dasharray:none;stroke-opacity:1" />
        <path
           sodipodi:nodetypes="ccccccc"
           inkscape:connector-curvature="0"
           id="path4888-8"
           d="m 544.86175,887.57714 c -5.92172,4.82173 -4.16457,10.45177 -4.04059,15.9099 10.20462,-8.9224 19.25273,-3.9881 26.84359,4.07907 1.75927,-5.65847 4.25108,-7.91643 -1.51584,-15.41396 -3.79705,2.40051 -8.92597,5.21352 -13.79601,4.21005 -3.21011,-1.14567 -5.62688,-4.27471 -7.49112,-8.78506 z"
           style="display:inline;fill:#e6e6e6;fill-rule:evenodd;stroke:#ffff00;stroke-width:0.17716534;stroke-linecap:butt;stroke-linejoin:miter;stroke-miterlimit:4;stroke-dasharray:none;stroke-opacity:1" />
        <path
           sodipodi:nodetypes="ccccc"
           inkscape:connector-curvature="0"
           id="path4863-6"
           d="m 498.14624,950.25818 43.70526,-0.22322 c -5.6888,-0.80219 -12.03332,-7.80941 -12.18748,-12.27679 -7.01054,0.42543 -13.61408,-0.0988 -19.91067,-1.33928 z"
           style="display:inline;fill:#e6e6e6;fill-rule:evenodd;stroke:#ffff00;stroke-width:0.17716534;stroke-linecap:butt;stroke-linejoin:miter;stroke-miterlimit:4;stroke-dasharray:none;stroke-opacity:1" />
        <path
           sodipodi:nodetypes="ccccc"
           inkscape:connector-curvature="0"
           id="path4855-1"
           d="m 478.44438,920.47023 c -18.21049,-13.49838 -27.13036,-10.42422 -32.95615,-1.8309 l -11.61672,-14.39467 c 2.18182,-0.56047 12.20926,-11.86958 15.67021,-17.98377 13.72968,-1.12294 8.63095,15.71494 28.90266,34.20934 z"
           style="display:inline;fill:#e6e6e6;fill-rule:evenodd;stroke:#ffff00;stroke-width:0.17716534;stroke-linecap:butt;stroke-linejoin:miter;stroke-miterlimit:4;stroke-dasharray:none;stroke-opacity:1" />
      </g>
    </g>
  </g>
  <style
     id="style3337"
     type="text/css">
	.st0{fill:#40403F;}
	.st1{fill:#FFFFFF;stroke:#000000;stroke-width:0.25;stroke-miterlimit:10;}
</style>
</svg>
