<?xml version="1.0" encoding="UTF-8" standalone="no"?>
<!-- Created with Inkscape (http://www.inkscape.org/) -->

<svg
   xmlns:dc="http://purl.org/dc/elements/1.1/"
   xmlns:cc="http://creativecommons.org/ns#"
   xmlns:rdf="http://www.w3.org/1999/02/22-rdf-syntax-ns#"
   xmlns:svg="http://www.w3.org/2000/svg"
   xmlns="http://www.w3.org/2000/svg"
   xmlns:sodipodi="http://sodipodi.sourceforge.net/DTD/sodipodi-0.dtd"
   xmlns:inkscape="http://www.inkscape.org/namespaces/inkscape"
   width="210mm"
   height="297mm"
   viewBox="0 0 744.09448819 1052.3622047"
   id="svg4236"
   version="1.1"
   inkscape:version="0.91 r13725"
   sodipodi:docname="The linux foundation.svg">
  <defs
     id="defs4238" />
  <sodipodi:namedview
     id="base"
     pagecolor="#ffffff"
     bordercolor="#666666"
     borderopacity="1.0"
     inkscape:pageopacity="0.0"
     inkscape:pageshadow="2"
     inkscape:zoom="15.839192"
     inkscape:cx="433.45121"
     inkscape:cy="504.79013"
     inkscape:document-units="px"
     inkscape:current-layer="layer1"
     showgrid="false"
     inkscape:window-width="1920"
     inkscape:window-height="1017"
     inkscape:window-x="-8"
     inkscape:window-y="-8"
     inkscape:window-maximized="1" />
  <metadata
     id="metadata4241">
    <rdf:RDF>
      <cc:Work
         rdf:about="">
        <dc:format>image/svg+xml</dc:format>
        <dc:type
           rdf:resource="http://purl.org/dc/dcmitype/StillImage" />
        <dc:title />
      </cc:Work>
    </rdf:RDF>
  </metadata>
  <g
     inkscape:label="Calque 1"
     inkscape:groupmode="layer"
     id="layer1">
    <path
       sodipodi:nodetypes="cccssscc"
       inkscape:connector-curvature="0"
       id="rect4146"
       d="m 420.86809,972.68435 -212.50275,0 -8.85473,-98.86841 C 108.24701,831.79279 49.046303,738.98054 49.046307,631.89663 49.046313,485.2259 167.94644,366.32577 314.61717,366.32577 c 146.67075,-10e-6 264.90795,119.56303 264.90796,266.23377 0,106.89306 -58.6853,199.03593 -149.80231,241.20968 z"
       style="opacity:1;fill:none;fill-opacity:1;stroke:#ff0000;stroke-width:0.7086615;stroke-miterlimit:4.5999999;stroke-dasharray:none;stroke-opacity:1" />
    <path
       sodipodi:nodetypes="ccccccsccscccsccsccccs"
       inkscape:connector-curvature="0"
       id="path5018-4"
       d="m 460.40304,557.83448 c -0.28875,-1.50689 -0.89838,-3.09646 -5.96023,-4.57697 -4.64479,-1.51779 -6.66585,-4.20528 -11.16274,-4.10438 -3.28289,0.29655 -5.8135,1.4757 -9.20168,5.4228 -1.26803,1.29565 -3.9647,0.88324 -4.09138,4.32805 0.0415,1.35068 0.038,2.18918 2.46474,3.67607 6.04344,3.50811 6.60522,5.53804 11.39151,5.63238 4.46745,0.0881 6.52985,-2.92034 12.96334,-5.45251 0.77371,-0.24633 3.87548,-2.17614 3.59644,-4.92544 z m -8.96905,3.1752 c -10.77586,6.43615 -13.47492,2.58972 -16.26361,-0.10202 -0.86957,-0.77222 -1.78645,-1.60493 -2.89858,-1.9886 l 0.91068,-0.53666 c 0.56983,0.18 0.97005,0.76012 1.3555,1.15669 0.4717,0.48529 0.93334,0.91837 1.38591,1.30319 4.9957,4.10213 8.77626,2.65309 12.83534,0.58206 0.86896,-0.44534 1.74787,-0.91656 2.64932,-1.36356 l 1.21359,-0.60179 3.17108,-1.57244 0.53139,0.73017 c -0.77664,0.17548 -1.61837,0.59711 -2.52727,1.0548 -0.77263,0.33832 -1.57022,0.86444 -2.36335,1.33816 z"
       style="display:inline;fill:#808000;fill-rule:evenodd;stroke:#808000;stroke-width:0.11623818;stroke-linecap:butt;stroke-linejoin:miter;stroke-miterlimit:4;stroke-dasharray:none;stroke-opacity:1" />
    <path
       sodipodi:nodetypes="cccccccssccscccccc"
       inkscape:connector-curvature="0"
       id="path4851-2"
       d="m 403.68374,638.12464 10.18993,11.88828 c -6.65973,-2.94031 -11.56185,-2.44906 -16.65184,-3.23096 l 0.0414,-8.74016 -4.34936,-0.1657 c 0.5997,-0.71599 0.72272,-1.59088 0.66277,-2.52677 l -0.86986,-5.46778 c -0.7372,-4.47132 1.50867,-7.72258 4.39499,-7.9451 1.31178,-0.10113 4.2407,-2.33042 4.89276,-2.85807 3.36105,-2.71972 4.23472,-7.53212 9.05885,-7.63203 l 1.16651,0.13077 c 4.12203,0.36567 9.35246,9.97259 13.42498,17.84452 1.56124,3.0178 3.85832,5.48687 5.52523,7.73711 2.53093,1.96615 3.32138,5.16053 3.62192,6.35083 l -5.09497,6.58618 -6.87613,-8.80229 -2.40251,-3.08599 -16.81752,-0.12426"
       style="display:inline;fill:none;fill-rule:evenodd;stroke:#ff00ff;stroke-width:0.11623818;stroke-linecap:butt;stroke-linejoin:miter;stroke-miterlimit:4;stroke-dasharray:none;stroke-opacity:1" />
    <path
       id="rect4818-2"
       d="m 163.36491,683.74437 -15.85862,0 c -2.86511,0 -5.17169,-2.30659 -5.17169,-5.17172 l 0,-33.90137 -16.7437,0 0,50.45694 c 0,2.86512 2.30658,5.17171 5.17169,5.17171 l 32.60232,0 z"
       style="display:inline;fill:#808000;stroke:#808000;stroke-width:0.23247638;stroke-miterlimit:4;stroke-dasharray:none"
       inkscape:connector-curvature="0" />
    <path
       sodipodi:nodetypes="ccccccccscccscc"
       inkscape:connector-curvature="0"
       id="path4888-4-4-6"
       d="m 496.80484,627.96699 c -2.3914,-4.15885 0.18752,-12.29907 -9.15977,-12.56329 -1.11645,1.85786 -1.30374,1.51083 -2.1928,2.67448 3.86597,4.95849 2.05535,6.2349 0.9011,9.94743 -4.98037,-5.29287 -10.85826,-8.47169 -17.55351,-2.6177 -0.0813,-3.58108 -1.23421,-7.27495 2.6431,-10.41878 l -0.3883,-2.59927 c -5.51951,1.5194 -4.18294,13.66485 -5.00454,17.69679 0.0396,1.63539 0.0653,3.29159 -0.46609,4.7575 -1.49406,4.12196 -3.31475,8.34217 -1.77933,13.47485 1.56572,-4.20721 3.31713,-5.31928 6.74009,-6.89526 3.18002,-1.6511 9.34083,0.0807 15.3983,-4.74792 2.34626,-1.35278 6.45968,-2.58421 9.71368,-2.93598 2.5355,-0.27411 5.12005,0.3628 5.12005,0.3628 0.27933,-1.82853 -2.5409,-5.34625 -3.97198,-6.13565 z"
       style="display:inline;fill:#808000;fill-rule:evenodd;stroke:#808000;stroke-width:0.11623818;stroke-linecap:butt;stroke-linejoin:miter;stroke-miterlimit:4;stroke-dasharray:none;stroke-opacity:1" />
    <path
       sodipodi:nodetypes="cccccccssccccscccccccccccc"
       inkscape:connector-curvature="0"
       id="path4851-2-9"
       d="m 403.65496,638.00038 10.18993,11.88827 c -6.65973,-2.94031 -11.56185,-2.44903 -16.65184,-3.23097 l 0.0414,-8.7401 -4.34936,-0.16573 c 0.5997,-0.716 0.72272,-1.59085 0.66277,-2.52677 l -0.86986,-5.46774 c -0.73719,-4.47133 1.50867,-7.72263 4.395,-7.94511 1.31178,-0.10117 4.2407,-2.33047 4.89276,-2.85811 2.43983,-1.97427 3.56893,-5.05131 5.84992,-6.62792 l 0.0366,-0.0223 c 0.86123,-0.59527 1.85008,-0.95475 3.17231,-0.98211 l 1.1665,0.13076 c 4.12204,0.36571 9.35247,9.97259 13.42498,17.84454 1.56125,3.0178 3.85832,5.48683 5.52524,7.73713 2.53093,1.96613 3.32138,5.16049 3.62191,6.35078 l -5.09496,6.5862 -6.87613,-8.80231 -2.40251,-3.08596 -16.81752,-0.12427 m 5.2666,-23.94043 c -2.27073,4.01152 -8.8058,11.39482 -10.23729,11.76249 l 7.62173,9.44437 c 3.8223,-5.63807 9.67463,-7.65505 21.62253,1.20125 -13.30027,-12.13418 -9.95499,-23.18152 -18.96303,-22.44472 z"
       style="display:inline;fill:#808000;fill-rule:evenodd;stroke:#808000;stroke-width:0.11623818;stroke-linecap:butt;stroke-linejoin:miter;stroke-miterlimit:4;stroke-dasharray:none;stroke-opacity:1" />
    <path
       sodipodi:nodetypes="ccccc"
       inkscape:connector-curvature="0"
       id="path4871-8-5"
       d="m 474.10194,614.5552 c 2.92228,-1.56556 5.66372,-0.78004 8.36733,0.49707 1.96061,-0.0387 1.86255,-1.31259 1.65691,-2.65104 -2.12769,-2.76674 -4.69364,-4.98566 -9.44433,-4.47364 -1.29748,0.64496 -1.91862,2.24805 -0.57991,6.62761 z"
       style="display:inline;fill:#4d4d4d;fill-rule:evenodd;stroke:#00ff00;stroke-width:0.11623818;stroke-linecap:butt;stroke-linejoin:miter;stroke-miterlimit:4;stroke-dasharray:none;stroke-opacity:1" />
    <path
       inkscape:connector-curvature="0"
       id="path4826-8"
       d="m 168.10995,700.29993 33.39679,0 c 2.86518,0 5.17176,-2.30659 5.17176,-5.17171 l 0,-71.05905 c 0,-2.86513 -2.30658,-5.17171 -5.17176,-5.17171 l -70.74415,0 c -2.86511,0 -5.17169,2.30658 -5.17169,5.17171 l 0,16.15831 16.7437,0 c 0,-2.86513 2.30658,-4.40185 5.17169,-4.40185 l 37.45811,0 c 2.86511,0 5.17169,1.48646 5.17169,4.35159 l 0,38.39543 c 0,2.86513 -2.30658,5.17172 -5.17169,5.17172 l -16.85445,0 z"
       style="display:inline;fill:#008000;stroke:#008000;stroke-width:0.23247638;stroke-miterlimit:4;stroke-dasharray:none" />
    <path
       sodipodi:nodetypes="ccccc"
       inkscape:connector-curvature="0"
       id="path4871-89"
       d="m 474.10194,614.5552 c 2.92228,-1.56556 5.66372,-0.78004 8.36733,0.49707 1.96061,-0.0387 1.86255,-1.31259 1.65691,-2.65104 -2.12769,-2.76674 -4.69364,-4.98566 -9.44433,-4.47364 -1.29748,0.64496 -1.91862,2.24805 -0.57991,6.62761 z"
       style="display:inline;fill:#4d4d4d;fill-rule:evenodd;stroke:#00ff00;stroke-width:0.11623818;stroke-linecap:butt;stroke-linejoin:miter;stroke-miterlimit:4;stroke-dasharray:none;stroke-opacity:1" />
    <path
       sodipodi:nodetypes="cccc"
       inkscape:connector-curvature="0"
       id="path4865-9"
       d="m 437.24167,640.41918 -2.36747,3.12902 c -0.91776,-3.61372 -2.00121,-4.37991 -2.91896,-5.90656 1.56911,0.94545 3.34453,1.99185 5.28643,2.77754 z"
       style="display:inline;fill:#333333;fill-rule:evenodd;stroke:#00ffff;stroke-width:0.11623818;stroke-linecap:butt;stroke-linejoin:miter;stroke-miterlimit:4;stroke-dasharray:none;stroke-opacity:1" />
    <path
       sodipodi:nodetypes="ccccccccc"
       d="m 224.15219,611.65993 -0.0586,-1.75704 17.84485,0 -2.3e-4,1.75704 -8.02235,0 -0.0586,19.9326 -1.96102,0 0.0586,-19.9326 z"
       style="font-style:normal;font-variant:normal;font-weight:normal;font-stretch:normal;font-size:medium;line-height:125%;font-family:'Century Gothic';-inkscape-font-specification:'Century Gothic';letter-spacing:0px;word-spacing:0px;display:inline;fill:#0000ff;fill-opacity:1;stroke:#0000ff;stroke-width:0.06561;stroke-linecap:butt;stroke-linejoin:miter;stroke-miterlimit:4;stroke-dasharray:none;stroke-opacity:1"
       id="path4152-7"
       inkscape:connector-curvature="0" />
    <path
       sodipodi:nodetypes="ccccccccccccc"
       d="m 247.55737,609.90289 1.93173,0 0,9.94697 14.46217,0 0,-9.94697 1.66812,0 0,21.68964 -1.66812,0 0,-9.97089 -14.46217,0 0,9.97089 -1.93173,0 z"
       style="font-style:normal;font-variant:normal;font-weight:normal;font-stretch:normal;font-size:medium;line-height:125%;font-family:'Century Gothic';-inkscape-font-specification:'Century Gothic';letter-spacing:0px;word-spacing:0px;display:inline;fill:#0000ff;fill-opacity:1;stroke:#0000ff;stroke-width:0.06561;stroke-linecap:butt;stroke-linejoin:miter;stroke-miterlimit:4;stroke-dasharray:none;stroke-opacity:1"
       id="path4154-7"
       inkscape:connector-curvature="0" />
    <path
       sodipodi:nodetypes="ccccccccccccc"
       d="m 273.71468,609.90289 11.63477,0 0,1.72794 -9.95199,0 0,8.71577 9.62986,0 0,1.391 -9.62986,0 0,8.50777 9.86418,0 0,1.34716 -11.54696,0 z"
       style="font-style:normal;font-variant:normal;font-weight:normal;font-stretch:normal;font-size:medium;line-height:125%;font-family:'Century Gothic';-inkscape-font-specification:'Century Gothic';letter-spacing:0px;word-spacing:0px;display:inline;fill:#0000ff;fill-opacity:1;stroke:#0000ff;stroke-width:0.23247638;stroke-linecap:butt;stroke-linejoin:miter;stroke-miterlimit:4;stroke-dasharray:none;stroke-opacity:1"
       id="path4156-0"
       inkscape:connector-curvature="0" />
    <path
       sodipodi:nodetypes="ccccccc"
       d="m 226.68017,637.97504 13.1344,0 0,33.92771 19.95281,0 0,9.95218 -33.08721,0 z"
       style="font-style:normal;font-variant:normal;font-weight:normal;font-stretch:normal;font-size:medium;line-height:125%;font-family:'Century Gothic';-inkscape-font-specification:'Century Gothic';letter-spacing:0px;word-spacing:0px;display:inline;fill:#0000ff;fill-opacity:1;stroke:#0000ff;stroke-width:0.23529543;stroke-linecap:butt;stroke-linejoin:miter;stroke-miterlimit:4;stroke-dasharray:none;stroke-opacity:1"
       id="path4158-8"
       inkscape:connector-curvature="0" />
    <path
       sodipodi:nodetypes="ccccc"
       d="m 267.941,637.97504 13.26227,0 0,43.87989 -13.26227,0 z"
       style="font-style:normal;font-variant:normal;font-weight:normal;font-stretch:normal;font-size:medium;line-height:125%;font-family:'Century Gothic';-inkscape-font-specification:'Century Gothic';letter-spacing:0px;word-spacing:0px;display:inline;fill:#0000ff;fill-opacity:1;stroke:#0000ff;stroke-width:0.23247638;stroke-linecap:butt;stroke-linejoin:miter;stroke-miterlimit:4;stroke-dasharray:none;stroke-opacity:1"
       id="path4160-6"
       inkscape:connector-curvature="0" />
    <path
       sodipodi:nodetypes="ccccccccccc"
       d="m 292.18295,681.85493 0,-43.87989 12.1352,0 22.74063,24.39144 0,-24.39144 13.03894,0 0,43.87989 -11.73352,0 -22.8128,-24.6182 0,24.6182 z"
       style="font-style:normal;font-variant:normal;font-weight:normal;font-stretch:normal;font-size:medium;line-height:125%;font-family:'Century Gothic';-inkscape-font-specification:'Century Gothic';letter-spacing:0px;word-spacing:0px;display:inline;fill:#0000ff;fill-opacity:1;stroke:#0000ff;stroke-width:0.23247638;stroke-linecap:butt;stroke-linejoin:miter;stroke-miterlimit:4;stroke-dasharray:none;stroke-opacity:1"
       id="path4162-6"
       inkscape:connector-curvature="0" />
    <path
       sodipodi:nodetypes="cccccccscc"
       d="m 350.85125,637.97504 13.11455,0 0,23.97006 c 0.42602,13.83641 20.41775,13.24193 20.14391,0 l 0,-23.97006 13.11452,0 0,24.08722 c 0.14763,13.10426 -11.15213,20.05455 -22.67774,20.26054 -11.79427,0.2108 -23.76371,-6.52678 -23.69524,-20.26054 z"
       style="font-style:normal;font-variant:normal;font-weight:normal;font-stretch:normal;font-size:medium;line-height:125%;font-family:'Century Gothic';-inkscape-font-specification:'Century Gothic';letter-spacing:0px;word-spacing:0px;display:inline;fill:#0000ff;fill-opacity:1;stroke:#0000ff;stroke-width:0.23247638;stroke-linecap:butt;stroke-linejoin:miter;stroke-miterlimit:4;stroke-dasharray:none;stroke-opacity:1"
       id="path4164-8"
       inkscape:connector-curvature="0" />
    <path
       sodipodi:nodetypes="ccccccccccccc"
       d="m 403.73514,638.11392 16.70124,0 9.24449,12.02183 9.27255,-12.02183 16.66296,0 -17.5658,21.19092 18.96934,22.52837 -16.75982,0 -10.57923,-13.12408 -10.79323,13.12408 -15.58817,0 18.36318,-22.52837 z"
       style="font-style:normal;font-variant:normal;font-weight:normal;font-stretch:normal;font-size:medium;line-height:125%;font-family:'Century Gothic';-inkscape-font-specification:'Century Gothic';letter-spacing:0px;word-spacing:0px;display:inline;fill:#0000ff;fill-opacity:1;stroke:#0000ff;stroke-width:0.26254418;stroke-linecap:butt;stroke-linejoin:miter;stroke-miterlimit:4;stroke-dasharray:none;stroke-opacity:1"
       id="path4166-8"
       inkscape:connector-curvature="0" />
    <path
       sodipodi:nodetypes="ccccccccccc"
       d="m 226.66492,689.22588 10.57925,0 0,1.58153 -9.0431,0 0,8.20899 8.2975,0 0,1.43378 -8.2975,0 0,10.46538 -1.53615,0 z"
       style="font-style:normal;font-variant:normal;font-weight:normal;font-stretch:normal;font-size:medium;line-height:125%;font-family:'Century Gothic';-inkscape-font-specification:'Century Gothic';letter-spacing:0px;word-spacing:0px;display:inline;fill:#0000ff;fill-opacity:1;stroke:#0000ff;stroke-width:0.23247638;stroke-linecap:butt;stroke-linejoin:miter;stroke-miterlimit:4;stroke-dasharray:none;stroke-opacity:1"
       id="path4168-5"
       inkscape:connector-curvature="0" />
    <path
       inkscape:connector-curvature="0"
       d="m 254.56056,688.68033 q 4.88828,0 8.18126,3.28811 3.29299,3.28811 3.29299,8.0949 0,4.76256 -3.29299,8.08013 -3.27835,3.31764 -8.00562,3.31764 -4.78581,0 -8.0788,-3.30288 -3.29299,-3.3028 -3.29299,-7.99169 0,-3.12592 1.49282,-5.79467 1.50746,-2.66882 4.09794,-4.1728 2.59048,-1.51874 5.60539,-1.51874 z m 0.0924,1.71164 q -2.5364,0 -4.80825,1.30793 -2.27186,1.30794 -3.54786,3.52372 -1.27595,2.21584 -1.27595,4.93945 0,4.03153 2.81649,6.81668 2.83202,2.76972 6.81556,2.76972 2.66088,0 4.91719,-1.27716 2.27186,-1.27716 3.53226,-3.49301 1.27597,-2.21578 1.27597,-4.92397 0,-2.69283 -1.27597,-4.86248 -1.2604,-2.18501 -3.56338,-3.49295 -2.30299,-1.30793 -4.88607,-1.30793 z"
       style="font-style:normal;font-variant:normal;font-weight:normal;font-stretch:normal;font-size:medium;line-height:125%;font-family:'Century Gothic';-inkscape-font-specification:'Century Gothic';letter-spacing:0px;word-spacing:0px;display:inline;fill:#0000ff;fill-opacity:1;stroke:#0000ff;stroke-width:0.23616791;stroke-linecap:butt;stroke-linejoin:miter;stroke-miterlimit:4;stroke-dasharray:none;stroke-opacity:1"
       id="path4170-68" />
    <path
       sodipodi:nodetypes="ccccccccc"
       d="m 273.26717,688.95314 2.03426,0 0,13.09339 c -0.0872,10.61636 14.38887,9.93034 14.46282,0 l 0,-13.09339 1.77064,0 0,13.09339 c -0.026,12.2673 -18.26764,12.68491 -18.26772,0 z"
       style="font-style:normal;font-variant:normal;font-weight:normal;font-stretch:normal;font-size:medium;line-height:125%;font-family:'Century Gothic';-inkscape-font-specification:'Century Gothic';letter-spacing:0px;word-spacing:0px;display:inline;fill:#0000ff;fill-opacity:1;stroke:#0000ff;stroke-width:0.23247638;stroke-linecap:butt;stroke-linejoin:miter;stroke-miterlimit:4;stroke-dasharray:none;stroke-opacity:1"
       id="path4172-1"
       inkscape:connector-curvature="0" />
    <path
       sodipodi:nodetypes="ccccccccccc"
       d="m 299.90589,710.91556 0,-21.68968 1.46126,0 15.8366,18.5944 0,-18.5944 2.03427,0 0,21.68968 -1.5667,0 -15.98313,-18.38799 0,18.38799 z"
       style="font-style:normal;font-variant:normal;font-weight:normal;font-stretch:normal;font-size:medium;line-height:125%;font-family:'Century Gothic';-inkscape-font-specification:'Century Gothic';letter-spacing:0px;word-spacing:0px;display:inline;fill:#0000ff;fill-opacity:1;stroke:#0000ff;stroke-width:0.23247638;stroke-linecap:butt;stroke-linejoin:miter;stroke-miterlimit:4;stroke-dasharray:none;stroke-opacity:1"
       id="path4174-5"
       inkscape:connector-curvature="0" />
    <path
       sodipodi:nodetypes="ccccccccccccc"
       d="m 362.33749,689.2266 9.96242,21.68824 -1.89567,0 -3.47246,-7.51681 -10.16052,0 -3.51628,7.51681 -1.89647,0 10.00758,-21.7175 z m -0.47106,3.3406 -4.14907,9.05936 8.31238,0 z"
       style="font-style:normal;font-variant:normal;font-weight:normal;font-stretch:normal;font-size:medium;line-height:125%;font-family:'Century Gothic';-inkscape-font-specification:'Century Gothic';letter-spacing:0px;word-spacing:0px;display:inline;fill:#0000ff;fill-opacity:1;stroke:#0000ff;stroke-width:0.23360324;stroke-linecap:butt;stroke-linejoin:miter;stroke-miterlimit:4;stroke-dasharray:none;stroke-opacity:1"
       id="path4178-8"
       inkscape:connector-curvature="0" />
    <path
       sodipodi:nodetypes="ccccc"
       d="m 397.40491,689.22588 1.77065,0 0,21.68968 -1.77065,0 z"
       style="font-style:normal;font-variant:normal;font-weight:normal;font-stretch:normal;font-size:medium;line-height:125%;font-family:'Century Gothic';-inkscape-font-specification:'Century Gothic';letter-spacing:0px;word-spacing:0px;display:inline;fill:#0000ff;fill-opacity:1;stroke:#0000ff;stroke-width:0.23247638;stroke-linecap:butt;stroke-linejoin:miter;stroke-miterlimit:4;stroke-dasharray:none;stroke-opacity:1"
       id="path4182-1"
       inkscape:connector-curvature="0" />
    <path
       sodipodi:nodetypes="ccccccccccc"
       d="m 437.6754,710.90775 0,-21.67406 1.32445,0.0584 16.07494,18.37743 0,-18.43602 1.86152,0 0,21.67407 -1.51688,0 -15.85365,-18.05404 0,18.05404 z"
       style="font-style:normal;font-variant:normal;font-weight:normal;font-stretch:normal;font-size:medium;line-height:125%;font-family:'Century Gothic';-inkscape-font-specification:'Century Gothic';letter-spacing:0px;word-spacing:0px;display:inline;fill:#0000ff;fill-opacity:1;stroke:#0000ff;stroke-width:0.24806549;stroke-linecap:butt;stroke-linejoin:miter;stroke-miterlimit:4;stroke-dasharray:none;stroke-opacity:1"
       id="path4186-3"
       inkscape:connector-curvature="0" />
    <path
       sodipodi:nodetypes="ccccccccc"
       d="m 372.7837,690.98291 -0.0586,-1.75703 17.84486,0 -2.4e-4,1.75703 -8.02235,0 -0.0586,19.93265 -1.96101,0 0.0586,-19.93265 z"
       style="font-style:normal;font-variant:normal;font-weight:normal;font-stretch:normal;font-size:medium;line-height:125%;font-family:'Century Gothic';-inkscape-font-specification:'Century Gothic';letter-spacing:0px;word-spacing:0px;display:inline;fill:#0000ff;fill-opacity:1;stroke:#0000ff;stroke-width:0.06561;stroke-linecap:butt;stroke-linejoin:miter;stroke-miterlimit:4;stroke-dasharray:none;stroke-opacity:1"
       id="path4152-5-6"
       inkscape:connector-curvature="0" />
    <path
       d="m 418.29109,688.68033 q 4.88827,0 8.18126,3.28811 3.29299,3.28811 3.29299,8.0949 0,4.76256 -3.29299,8.08013 -3.27836,3.31764 -8.00562,3.31764 -4.78581,0 -8.0788,-3.30288 -3.29299,-3.3028 -3.29299,-7.99169 0,-3.12592 1.49282,-5.79467 1.50746,-2.66882 4.09794,-4.1728 2.59048,-1.51874 5.60539,-1.51874 z m 0.0924,1.71164 q -2.5364,0 -4.80825,1.30793 -2.27187,1.30794 -3.54786,3.52372 -1.27596,2.21584 -1.27596,4.93945 0,4.03153 2.81649,6.81668 2.83203,2.76972 6.81557,2.76972 2.66088,0 4.91718,-1.27716 2.27186,-1.27716 3.53227,-3.49301 1.27597,-2.21578 1.27597,-4.92397 0,-2.69283 -1.27597,-4.86248 -1.26041,-2.18501 -3.56339,-3.49295 -2.30298,-1.30793 -4.88606,-1.30793 z"
       style="font-style:normal;font-variant:normal;font-weight:normal;font-stretch:normal;font-size:medium;line-height:125%;font-family:'Century Gothic';-inkscape-font-specification:'Century Gothic';letter-spacing:0px;word-spacing:0px;display:inline;fill:#0000ff;fill-opacity:1;stroke:#0000ff;stroke-width:0.23616791;stroke-linecap:butt;stroke-linejoin:miter;stroke-miterlimit:4;stroke-dasharray:none;stroke-opacity:1"
       id="path4170-6-5"
       inkscape:connector-curvature="0" />
    <path
       sodipodi:nodetypes="ssscsccscccsccscsc"
       d="m 335.19762,689.4397 c 3.25885,0 5.98592,0.33665 8.18126,2.52874 2.19532,2.19203 3.29298,4.89037 3.29298,8.0949 0,3.17506 -1.09766,5.86842 -3.29298,8.08013 -2.18558,2.21178 -4.80529,2.77255 -8.00563,2.77255 l -7.4684,0 0,-21.47632 z m 0.0924,1.6062 -5.81192,0 0,18.39567 5.81191,0 c 1.77392,0 3.41297,-0.11784 4.91718,-0.96926 1.51457,-0.85142 2.692,-2.0158 3.53226,-3.49301 0.85065,-1.47714 1.27598,-3.11851 1.27598,-4.92397 0,-1.79522 -0.42533,-3.41605 -1.27598,-4.86248 -0.84026,-1.45668 -2.02806,-2.62099 -3.56338,-3.49295 -1.53533,-0.87196 -4.88605,-0.654 -4.88605,-0.654 z"
       style="font-style:normal;font-variant:normal;font-weight:normal;font-stretch:normal;font-size:medium;line-height:125%;font-family:'Century Gothic';-inkscape-font-specification:'Century Gothic';letter-spacing:0px;word-spacing:0px;display:inline;fill:#0000ff;fill-opacity:1;stroke:#0000ff;stroke-width:0.23616791;stroke-linecap:butt;stroke-linejoin:miter;stroke-miterlimit:4;stroke-dasharray:none;stroke-opacity:1"
       id="path4170-3-8"
       inkscape:connector-curvature="0" />
    <path
       sodipodi:nodetypes="cccccc"
       inkscape:connector-curvature="0"
       id="path4861-8"
       d="m 397.09756,646.8648 0.0414,1.57406 c 5.23117,-0.20892 11.72338,0.96337 18.93008,4.26652 l -2.07112,-2.52677 c -4.33873,-2.58339 -11.08218,-2.84396 -16.90038,-3.31381 z"
       style="display:inline;fill:#008000;fill-rule:evenodd;stroke:#008000;stroke-width:0.11623818;stroke-linecap:butt;stroke-linejoin:miter;stroke-miterlimit:4;stroke-dasharray:none;stroke-opacity:1" />
    <path
       sodipodi:nodetypes="cccccsccsc"
       inkscape:connector-curvature="0"
       id="path4859-2"
       d="m 395.77204,622.34264 c -1.32334,0.31555 -3.51989,3.63618 -3.02972,7.24244 -0.0245,2.93196 1.68455,6.40543 0.17506,8.25738 l -1.53612,-0.008 c 2.00425,-4.87477 -1.08626,-9.37567 0.45565,-13.0481 0.64271,-1.5525 1.8685,-2.90807 3.60477,-3.44088 2.11613,-0.64938 4.29094,-1.37311 5.79813,-2.68967 3.00896,-2.47295 3.4492,-7.16031 8.678,-7.08325 -4.46841,0.66135 -5.39408,8.6831 -14.14577,10.76987 z"
       style="display:inline;fill:#008000;fill-rule:evenodd;stroke:#008000;stroke-width:0.11623818;stroke-linecap:butt;stroke-linejoin:miter;stroke-miterlimit:4;stroke-dasharray:none;stroke-opacity:1" />
    <path
       sodipodi:nodetypes="cscssscccccsscscc"
       inkscape:connector-curvature="0"
       id="path4888-4-4-0-1-9"
       d="m 471.03168,610.7696 c -6.88791,0.60429 -6.08675,14.65189 -6.4828,19.12981 -0.14045,1.58785 -0.40445,3.5603 -1.02451,5.48595 -1.36259,3.26004 -1.86383,5.95851 -2.02599,8.02098 -1.07115,13.62307 13.50424,15.47008 19.73353,9.16179 10.21188,-10.34138 12.68519,-9.56994 19.2131,-13.35439 5.26627,-3.05303 1.37517,-8.28092 -1.81272,-11.50328 -2.81725,-3.33625 -0.22095,-12.85489 -10.64905,-13.68112 l -0.32039,1.27993 c 9.34729,0.26421 6.76837,8.40443 9.18905,12.56328 2.87142,2.96455 6.84237,7.52648 1.49996,10.91657 -6.38925,2.31348 -8.16201,2.82876 -17.21202,11.55763 -6.44537,6.21667 -19.38355,4.58567 -17.79404,-8.05362 0.24628,-1.95834 1.3307,-4.70376 2.17751,-7.38783 0.55332,-1.76454 0.41944,-3.4601 0.54459,-4.91309 0.35312,-4.09962 -0.51497,-16.17739 5.00454,-17.69679 z"
       style="display:inline;fill:#008000;fill-rule:evenodd;stroke:#008000;stroke-width:0.12854482;stroke-linecap:butt;stroke-linejoin:miter;stroke-miterlimit:4;stroke-dasharray:none;stroke-opacity:1" />
    <path
       sodipodi:nodetypes="csccssscc"
       inkscape:connector-curvature="0"
       id="path5002-0-9"
       d="m 456.93612,562.59745 c -6.38827,2.60676 -8.62641,5.70304 -13.09387,5.61498 -4.78628,-0.0943 -5.49451,-2.27071 -11.45855,-5.8716 l -0.0828,0.47793 c 0.36183,0.21846 0.78716,1.21871 1.11237,1.42654 5.03545,3.21779 5.93312,5.14347 10.42902,5.23209 4.34534,0.0857 6.58157,-2.84132 12.57916,-5.40018 0.16856,-0.0719 0.58862,-1.09626 0.76325,-1.16752 z"
       style="display:inline;fill:#008000;fill-rule:evenodd;stroke:#008000;stroke-width:0.10937415;stroke-linecap:butt;stroke-linejoin:miter;stroke-miterlimit:4;stroke-dasharray:none;stroke-opacity:1" />
    <path
       sodipodi:nodetypes="cccsscccc"
       inkscape:connector-curvature="0"
       id="path4974-0"
       d="m 434.15968,560.04817 c -0.57744,-0.48338 -1.18701,-0.88731 -1.88788,-1.12909 l 0.91068,-0.53667 c 0.56983,0.18 0.96645,0.76365 1.3555,1.15669 6.81879,6.88858 11.38671,3.24097 16.87057,0.52169 l 4.38467,-2.17423 0.53139,0.73017 c -1.43591,0.32445 -3.14188,1.35078 -4.92255,2.40792 -11.80974,7.03107 -14.05359,1.8052 -17.24238,-0.97648 z"
       style="display:inline;fill:#008000;fill-rule:evenodd;stroke:#008000;stroke-width:0.11623818;stroke-linecap:butt;stroke-linejoin:miter;stroke-miterlimit:4;stroke-dasharray:none;stroke-opacity:1" />
    <path
       sodipodi:nodetypes="ccccc"
       inkscape:connector-curvature="0"
       id="path4867-9"
       d="m 448.41628,646.9852 c 4.24993,0.79891 8.63789,1.04569 13.12197,0.908 -0.29876,-3.36312 -0.69643,-5.95234 1.58166,-11.74537 -2.93564,2.13118 -5.97733,3.7491 -9.76749,4.87216 z"
       style="display:inline;fill:#000000;fill-rule:evenodd;stroke:#000000;stroke-width:0.11623818;stroke-linecap:butt;stroke-linejoin:miter;stroke-miterlimit:4;stroke-dasharray:none;stroke-opacity:1" />
    <path
       style="display:inline;fill:#000000;fill-rule:evenodd;stroke:#000000;stroke-width:0.11623818;stroke-linecap:butt;stroke-linejoin:miter;stroke-miterlimit:4;stroke-dasharray:none;stroke-opacity:1"
       d="M 448.86523 520.19336 C 445.79521 520.25922 443.27902 520.80805 442.20312 521.04297 C 440.22884 521.52055 431.94163 523.41338 428.70312 535.27148 C 425.98877 551.23982 431.06481 549.6988 427.25 564.93164 C 426.35558 567.36112 425.89844 569.25162 422.26758 573.8457 C 414.72283 582.36571 410.3309 591.00244 406.97852 599.67773 C 405.59075 603.43788 404.60567 607.4157 406.07227 612.71875 C 406.52755 612.06917 410.44161 610.52293 414.02344 612.25 C 415.19482 613.16576 416.08818 613.33135 419.81445 618.60547 L 425.31055 628.89648 C 426.05414 630.07568 426.5547 631.35074 427.64648 632.39062 C 428.71871 633.41192 431.0012 633.18024 432.67969 631.53906 C 433.71556 630.50286 435.52078 627.78288 428.6543 620.56445 C 423.19286 614.17979 416.89082 616.13576 413.99609 605.33008 C 413.09282 596.54297 417.47451 589.62153 421.74414 582.66016 L 422.07617 582.82617 C 419.58616 590.46217 411.08623 598.63677 418.58398 609.63672 C 418.6961 609.80123 418.5998 609.14301 418.83984 609.11133 C 418.53331 604.8835 421.29032 594.60978 425.24023 587.23242 C 431.39069 575.74512 433.68478 562.66324 432.67969 563.27344 L 432.2793 562.57812 C 429.3655 560.62027 430.13542 559.30218 429.9668 558.50977 C 430.21951 555.56096 433.55085 555.55725 433.92188 554.6582 L 433.57031 554.42969 C 430.2429 550.23239 431.39271 548.30236 431.27148 546.20703 C 431.536 543.2368 432.93966 541.30932 435.74414 540.6582 C 438.47383 540.78498 439.22 542.48663 440.13477 544.05469 C 441.09331 546.21922 440.53624 547.90372 440.54883 549.76953 C 441.91184 549.28307 443.35052 548.84443 445.85156 549.43945 C 445.92616 546.98507 445.27311 545.60552 447.32227 542.29297 C 447.98956 541.32033 449.86201 539.03997 452.72852 539.16602 C 454.31765 539.52827 457.09499 539.91683 458.94141 545.29688 C 459.31862 546.76905 459.72987 552.56849 456.70508 553.99609 C 457.7217 554.62164 458.54053 554.52021 459.85352 556.23242 C 461.11296 558.28385 459.97462 559.79621 459.10742 561.36914 C 461.24343 569.15236 464.0602 577.27581 468.68359 586.30273 C 470.89988 589.67408 472.6849 594.4164 473.70508 598.13477 C 474.58482 601.34126 474.49777 603.81632 475.45703 603.9375 C 476.36705 603.9761 476.91764 604.13336 478.24414 604.0332 C 479.99278 601.34978 479.66525 596.66353 479.4043 595.08594 C 477.58362 588.23359 473.71961 583.7131 470.78906 580.83789 L 471.7832 580.17383 C 479.4163 588.89617 480.14098 592.46915 480.875 594.99023 C 482.16074 601.74273 481.50172 602.72472 480.56445 605.02734 C 483.45651 606.03424 485.64497 607.11495 488.18555 609.50195 C 488.75307 610.71539 489.49384 611.72984 489.01367 614.14062 L 491.99609 614.96875 C 492.55408 613.08606 493.58642 609.80986 493.19531 604.46289 C 493.29874 592.80476 481.85345 576.62245 474.25781 568.2168 C 472.41636 565.07002 469.96644 565.44733 469.62891 550.34961 C 469.17777 548.46695 472.00088 532.64253 461.56836 524.03516 C 457.67468 520.82267 452.81241 520.10868 448.86523 520.19336 z M 474.43359 571.22656 C 476.25836 574.05722 477.97145 576.11193 479.59375 578.08008 C 480.4049 579.06415 481.19311 580.02755 481.96094 581.05469 C 482.72876 582.08182 483.47572 583.17336 484.20508 584.41602 C 484.52549 584.96192 484.87785 585.55654 485.24805 586.19922 C 485.98844 587.48457 486.80243 588.96302 487.58789 590.63672 C 487.78426 591.05514 487.97877 591.48498 488.16992 591.92773 C 488.16992 591.92773 488.16992 591.92969 488.16992 591.92969 C 488.55198 592.81472 488.92167 593.74806 489.26367 594.73047 C 489.26367 594.73047 489.26367 594.73242 489.26367 594.73242 C 489.60565 595.71492 489.92099 596.74609 490.19727 597.82617 C 490.19727 597.82617 490.19727 597.82812 490.19727 597.82812 C 490.33531 598.3679 490.46521 598.92018 490.58203 599.48438 C 490.58203 599.48438 490.58203 599.48633 490.58203 599.48633 C 490.69883 600.05056 490.8041 600.62618 490.89648 601.21484 C 490.89648 601.21484 490.89648 601.2168 490.89648 601.2168 C 490.98884 601.8055 491.06808 602.40636 491.13281 603.01953 C 491.13281 603.01953 491.13281 603.02148 491.13281 603.02148 C 491.19752 603.6347 491.24932 604.26074 491.2832 604.89844 C 491.31719 605.53744 491.33417 606.18795 491.33398 606.85156 C 491.06389 606.23268 490.82023 605.44799 490.57617 604.58984 C 490.20994 603.30247 489.84136 601.84924 489.37109 600.53711 C 488.90101 599.22518 488.32974 598.05428 487.56055 597.33398 C 487.49555 599.17625 487.42279 600.44503 486.97852 601.82031 C 486.97852 601.82031 486.97852 601.82227 486.97852 601.82227 C 486.801 602.37251 486.56351 602.93887 486.24414 603.56641 C 486.08441 603.88014 485.90503 604.20923 485.70117 604.55859 C 485.88203 603.40743 485.96782 602.27762 485.97266 601.16602 C 485.97427 600.79613 485.96722 600.42651 485.95117 600.06055 C 485.95117 600.06055 485.95117 600.05859 485.95117 600.05859 C 485.9351 599.69265 485.90976 599.32905 485.87695 598.9668 C 485.87695 598.9668 485.87695 598.96484 485.87695 598.96484 C 485.87328 598.92431 485.86716 598.88424 485.86328 598.84375 C 485.77546 597.92665 485.62562 597.02311 485.44141 596.12695 C 485.41531 596.00005 485.40091 595.87067 485.37305 595.74414 C 485.34113 595.59912 485.29589 595.45704 485.26172 595.3125 C 484.963 594.04906 484.59178 592.80101 484.14453 591.56836 C 483.64611 590.19469 483.06828 588.83772 482.44141 587.48828 C 481.81453 586.13885 481.13771 584.79698 480.44141 583.45703 C 479.74511 582.11708 479.02896 580.7788 478.32227 579.43359 C 477.26223 577.41578 476.22403 575.38364 475.30664 573.3125 C 475.00084 572.62212 474.70878 571.92655 474.43359 571.22656 z M 424.25977 573.42773 L 423.88672 575.25586 C 407.01594 599.54395 412.94868 606.37094 414.09961 609.71289 C 411.14087 609.73529 410.43079 599.19983 410.46094 599.11328 C 409.66644 598.74744 409.32957 608.54595 408.6543 609.66797 C 403.83466 597.94899 420.84814 576.83157 424.25977 573.42773 z "
       id="path5259-1" />
    <path
       style="display:inline;fill:#000000;fill-rule:evenodd;stroke:#000000;stroke-width:0.11623818;stroke-linecap:butt;stroke-linejoin:miter;stroke-miterlimit:4;stroke-dasharray:none;stroke-opacity:1"
       d="M 452.11914 544.2793 C 448.50721 544.49245 448.96729 548.83294 449.01172 550.68164 L 453.45117 552.84766 C 453.94454 551.63207 456.42062 545.51817 452.89844 544.29297 C 452.62012 544.26853 452.35994 544.26509 452.11914 544.2793 z M 451.60156 545.43359 C 451.70737 545.42901 451.80525 545.4372 451.89648 545.45703 C 452.07896 545.4967 452.23382 545.58307 452.36328 545.70508 C 452.55747 545.8881 452.69628 546.15212 452.79102 546.46289 C 452.97763 547.07501 452.99199 547.86604 452.92969 548.57617 C 452.92874 548.58701 452.92872 548.59857 452.92773 548.60938 C 452.88399 549.08906 452.80558 549.52781 452.71875 549.8457 C 451.97035 547.40611 450.53404 548.2414 450.05664 549.81055 C 450.02753 549.71271 450.00183 549.5732 449.98242 549.4043 C 449.92419 548.8976 449.92375 548.12406 450.06641 547.39258 C 450.11396 547.14875 450.17727 546.90826 450.25977 546.68555 C 450.38332 546.352 450.54993 546.05563 450.76953 545.83398 C 450.84319 545.75964 450.92175 545.69461 451.00781 545.63867 C 451.17913 545.52732 451.37637 545.4547 451.60156 545.43359 z "
       id="path5222-1" />
    <path
       style="display:inline;fill:#000000;fill-rule:evenodd;stroke:#000000;stroke-width:0.11623818;stroke-linecap:butt;stroke-linejoin:miter;stroke-miterlimit:4;stroke-dasharray:none;stroke-opacity:1"
       d="M 435.60352 545.46484 C 434.50299 545.54437 431.76182 546.68425 435.35156 553.04297 L 437.89844 550.86719 C 437.89153 549.87995 438.46905 546.60458 435.95117 545.48242 C 435.88419 545.46262 435.76073 545.45348 435.60352 545.46484 z M 435.57617 546.28516 C 436.71877 546.21175 436.81838 548.24182 436.66406 549.51172 C 435.9666 548.34551 435.51439 548.74401 435.01172 549.68164 C 434.79964 548.91327 434.31101 546.82279 435.57617 546.28516 z "
       id="path5240-5" />
    <path
       sodipodi:nodetypes="ccccc"
       inkscape:connector-curvature="0"
       id="path4869-2"
       d="m 476.33875,620.68574 c -6.02227,-2.24131 -6.48709,-13.18394 -2.73389,-14.66359 2.78862,-0.5553 5.39082,-0.32359 8.86441,1.32552 5.61094,2.46444 5.71016,4.31647 5.46777,6.13055 0.16322,4.51812 -8.2695,8.32869 -11.59829,7.20752 z"
       style="display:inline;fill:#000000;fill-rule:evenodd;stroke:#000000;stroke-width:0.11623818;stroke-linecap:butt;stroke-linejoin:miter;stroke-miterlimit:4;stroke-dasharray:none;stroke-opacity:1" />
    <path
       style="display:inline;fill:#ff00ff;fill-rule:evenodd;stroke:#ff00ff;stroke-width:0.11623818;stroke-linecap:butt;stroke-linejoin:miter;stroke-miterlimit:4;stroke-dasharray:none;stroke-opacity:1"
       d="M 458.91016 561.18359 C 458.16304 561.9017 457.4022 562.50942 456.99023 562.70898 C 456.81897 562.79578 457.05664 562.80664 457.05664 562.80664 C 456.88201 562.87784 456.46347 563.90269 456.29492 563.97461 C 450.29732 566.53348 448.06017 569.4587 443.71484 569.37305 C 439.21893 569.28445 438.3206 567.36038 433.28516 564.14258 C 433.14853 564.05528 432.9959 563.82728 432.80273 563.53516 C 432.96937 565.59672 430.54483 576.98431 425.11328 587.12891 C 421.16335 594.50626 418.40636 604.77998 418.71289 609.00781 C 418.47284 609.03951 418.56721 609.6977 418.45508 609.5332 C 410.95733 598.53325 419.45726 590.35864 421.94727 582.72266 L 421.61719 582.55664 C 417.34757 589.518 412.96587 596.43945 413.86914 605.22656 C 416.23327 614.05153 420.87044 614.36407 425.48633 617.54883 C 424.63558 609.44887 454.81474 591.63944 464.71289 622.70312 C 465.22516 617.31792 466.47884 611.06056 471.05664 610.65234 C 471.25167 608.37077 472.06689 606.47449 473.47852 605.91797 C 476.26713 605.36267 478.86821 605.59502 482.3418 607.24414 C 487.95274 609.70858 488.05294 611.56093 487.81055 613.375 C 487.81655 613.53915 487.80944 613.70162 487.82422 613.89453 C 488.20929 613.95343 488.54969 613.99256 488.88086 614.03906 C 489.36736 611.62721 488.62611 610.61189 488.05859 609.39844 C 485.51801 607.01145 483.32957 605.93072 480.4375 604.92383 C 481.37478 602.6212 482.0338 601.63922 480.74805 594.88672 C 480.01403 592.36564 479.2874 588.79264 471.6543 580.07031 L 470.66016 580.73438 C 473.5907 583.6096 477.45665 588.13007 479.27734 594.98242 C 479.53828 596.56 479.86583 601.24628 478.11719 603.92969 C 476.79068 604.02989 476.24009 603.87258 475.33008 603.83398 C 474.37081 603.7128 474.45787 601.23774 473.57812 598.03125 C 472.55795 594.31288 470.77293 589.57057 468.55664 586.19922 C 463.93326 577.1723 461.11538 569.04839 458.91016 561.18359 z "
       id="path6063" />
    <path
       style="display:inline;fill:#ff00ff;fill-rule:evenodd;stroke:#ff00ff;stroke-width:0.11623818;stroke-linecap:butt;stroke-linejoin:miter;stroke-miterlimit:4;stroke-dasharray:none;stroke-opacity:1"
       d="m 454.59695,549.08773 c 0.36771,-2.02105 0.25646,-4.19812 -1.69386,-4.87654 l -1e-5,0 c -2.96412,-0.26032 -3.72477,1.78267 -3.89828,3.75766 -1.00663,-0.14898 -2.05623,-0.21203 -3.16047,-0.16581 -0.0699,-1.63367 -0.0966,-3.03797 1.4834,-5.59216 0.66729,-0.97264 2.53913,-3.25346 5.40564,-3.1274 1.58913,0.36224 4.36694,0.75052 6.21336,6.13054 0.29554,1.15344 0.61169,4.96298 -0.72112,7.23577 0.004,-1.38901 -1.58163,-2.61307 -3.66493,-3.35607"
       id="path5222-3-4"
       inkscape:connector-curvature="0"
       sodipodi:nodetypes="cccccccccc" />
    <path
       style="display:inline;fill:#ff00ff;fill-rule:evenodd;stroke:#ff00ff;stroke-width:0.11623818;stroke-linecap:butt;stroke-linejoin:miter;stroke-miterlimit:4;stroke-dasharray:none;stroke-opacity:1"
       d="m 440.14092,543.97134 c -0.91476,-1.56806 -1.66108,-3.26987 -4.39078,-3.39665 -2.80448,0.65112 -4.20911,2.58039 -4.47363,5.55062 0.10604,1.83258 -0.79117,3.50743 1.22798,6.71343 0.0923,-0.90602 0.77149,-1.80613 1.63277,-2.46727 -1.81139,-4.79047 1.35748,-5.10782 1.82002,-4.97105 1.4689,0.65466 1.88418,2.04219 1.97231,3.32197 0.82699,-0.2311 1.72588,-0.42175 2.68348,-0.5535 0.12244,-1.32716 0.2184,-2.63817 -0.47215,-4.19755 z"
       id="path5385-6"
       inkscape:connector-curvature="0"
       sodipodi:nodetypes="ccccccccc" />
    <path
       sodipodi:nodetypes="cscccsc"
       inkscape:connector-curvature="0"
       id="path4937-3"
       d="m 463.86927,648.46992 c 2.59557,6.89392 12.04421,6.99503 17.25279,1.97127 9.05,-8.72887 10.82277,-9.24415 17.21202,-11.55763 1.99258,-1.65647 2.60066,-1.90519 2.57117,-4.24131 -0.23182,-2.63514 -11.67536,0.0625 -15.03971,1.97051 -5.38169,4.5098 -11.15561,3.11564 -15.30053,4.77154 -3.05352,1.21989 -5.44551,2.95056 -6.69574,7.08562 z"
       style="display:inline;fill:#ff00ff;fill-rule:evenodd;stroke:#ff00ff;stroke-width:0.11623818;stroke-linecap:butt;stroke-linejoin:miter;stroke-miterlimit:4;stroke-dasharray:none;stroke-opacity:1" />
    <path
       sodipodi:nodetypes="ccccccc"
       inkscape:connector-curvature="0"
       id="path4888-8"
       d="m 471.45089,614.96943 c -3.88524,3.16353 -2.73237,6.8574 -2.65103,10.43848 6.69525,-5.85399 12.63172,-2.61659 17.61208,2.67628 1.15426,-3.71252 2.78914,-5.19397 -0.99454,-10.1131 -2.49124,1.57497 -5.85633,3.42059 -9.05156,2.76221 -2.10616,-0.75167 -3.6918,-2.80463 -4.91493,-5.76387 z"
       style="display:inline;fill:#ff00ff;fill-rule:evenodd;stroke:#ff00ff;stroke-width:0.11623818;stroke-linecap:butt;stroke-linejoin:miter;stroke-miterlimit:4;stroke-dasharray:none;stroke-opacity:1" />
    <path
       sodipodi:nodetypes="ccccc"
       inkscape:connector-curvature="0"
       id="path4863-6"
       d="m 440.80085,656.09446 28.67502,-0.14646 c -3.73242,-0.52632 -7.89506,-5.12375 -7.99621,-8.0548 -4.59961,0.27912 -8.93219,-0.0648 -13.06339,-0.8787 z"
       style="display:inline;fill:#ff00ff;fill-rule:evenodd;stroke:#ff00ff;stroke-width:0.11623818;stroke-linecap:butt;stroke-linejoin:miter;stroke-miterlimit:4;stroke-dasharray:none;stroke-opacity:1" />
    <path
       sodipodi:nodetypes="ccccc"
       inkscape:connector-curvature="0"
       id="path4855-1"
       d="m 427.87446,636.55058 c -11.9479,-8.85629 -17.80023,-6.83933 -21.62253,-1.20125 l -7.62173,-9.44434 c 1.43149,-0.36773 8.01049,-7.78764 10.28122,-11.79916 9.00805,-0.73676 5.66277,10.31058 18.96304,22.44475 z"
       style="display:inline;fill:#ff00ff;fill-rule:evenodd;stroke:#ff00ff;stroke-width:0.11623818;stroke-linecap:butt;stroke-linejoin:miter;stroke-miterlimit:4;stroke-dasharray:none;stroke-opacity:1" />
    <path
       sodipodi:nodetypes="ccsc"
       inkscape:connector-curvature="0"
       id="path5201-8"
       d="m 431.83218,537.9266 c 8.79165,-10.50947 17.16069,-14.08854 26.9528,-0.60383 3.12489,-4.25319 3.62519,-14.4638 -11.37046,-15.33003 -6.19923,-0.3581 -19.38972,5.16473 -15.58234,15.93386 z"
       style="display:inline;fill:#0000ff;fill-rule:evenodd;stroke:#0000ff;stroke-width:0.11623818;stroke-linecap:butt;stroke-linejoin:miter;stroke-miterlimit:4;stroke-dasharray:none;stroke-opacity:1" />
    <path
       sodipodi:nodetypes="cccccc"
       inkscape:connector-curvature="0"
       id="path5196-1-4-7"
       d="m 408.54185,609.92856 c -4.81964,-11.71898 12.19337,-32.83553 15.605,-36.23937 l -0.37238,1.82882 c -16.87078,24.28809 -10.93933,31.11367 -9.7884,34.45562 -2.95874,0.0224 -3.66811,-10.51225 -3.63796,-10.5988 -0.7945,-0.36584 -1.13099,9.43171 -1.80626,10.55373 z"
       style="display:inline;fill:#008000;fill-rule:evenodd;stroke:#008000;stroke-width:0.11623818;stroke-linecap:butt;stroke-linejoin:miter;stroke-miterlimit:4;stroke-dasharray:none;stroke-opacity:1" />
    <path
       sodipodi:nodetypes="ccccsc"
       inkscape:connector-curvature="0"
       id="path5199-0-0"
       d="m 474.4007,571.06822 c 4.40301,11.19987 13.19609,21.05135 11.26692,33.33045 1.63086,-2.79494 1.75706,-4.27584 1.86106,-7.22347 2.05117,1.92079 2.69203,7.04089 3.7724,9.51643 0.003,-10.60683 -4.56442,-18.06765 -7.12769,-22.43485 -2.91744,-4.97061 -6.12315,-7.52725 -9.77269,-13.18856 z"
       style="display:inline;fill:#008000;fill-rule:evenodd;stroke:#008000;stroke-width:0.11623818;stroke-linecap:butt;stroke-linejoin:miter;stroke-miterlimit:4;stroke-dasharray:none;stroke-opacity:1" />
    <path
       sodipodi:nodetypes="cccc"
       inkscape:connector-curvature="0"
       id="path5204-4-5"
       d="m 435.03202,549.62328 c 0.50267,-0.93763 0.95442,-1.33564 1.65188,-0.16943 0.15432,-1.2699 0.0547,-3.29977 -1.0879,-3.22636 -1.26516,0.53763 -0.77606,2.62742 -0.56398,3.39579 z"
       style="display:inline;fill:#008000;fill-rule:evenodd;stroke:#008000;stroke-width:0.11623818;stroke-linecap:butt;stroke-linejoin:miter;stroke-miterlimit:4;stroke-dasharray:none;stroke-opacity:1" />
    <path
       sodipodi:nodetypes="cccc"
       inkscape:connector-curvature="0"
       id="path5204-1-0-2"
       d="m 449.99917,549.68143 c 0.4774,-1.56915 1.91399,-2.40399 2.66239,0.0356 0.34686,-1.2699 0.57576,-4.48603 -1.11719,-4.41262 -1.80157,0.16885 -1.77806,3.59435 -1.5452,4.37701 z"
       style="display:inline;fill:#008000;fill-rule:evenodd;stroke:#008000;stroke-width:0.11623818;stroke-linecap:butt;stroke-linejoin:miter;stroke-miterlimit:4;stroke-dasharray:none;stroke-opacity:1" />
  </g>
  <style
     id="style3337"
     type="text/css">
	.st0{fill:#40403F;}
	.st1{fill:#FFFFFF;stroke:#000000;stroke-width:0.25;stroke-miterlimit:10;}
</style>
</svg>
