  0
SECTION
  2
HEADER
  9
$ACADVER
  1
AC1014
  9
$HANDSEED
  5
FFFF
  9
$MEASUREMENT
 70
     1
  0
ENDSEC
  0
SECTION
  2
TABLES
  0
TABLE
  2
VPORT
  5
8
330
0
100
AcDbSymbolTable
 70
     4
  0
VPORT
  5
2E
330
8
100
AcDbSymbolTableRecord
100
AcDbViewportTableRecord
  2
*ACTIVE
 70
     0
 10
0.0
 20
0.0
 11
1.0
 21
1.0
 12
210.0
 22
148.5
 13
0.0
 23
0.0
 14
10.0
 24
10.0
 15
10.0
 25
10.0
 16
0.0
 26
0.0
 36
1.0
 17
0.0
 27
0.0
 37
0.0
 40
341.0
 41
1.24
 42
50.0
 43
0.0
 44
0.0
 50
0.0
 51
0.0
 71
     0
 72
   100
 73
     1
 74
     3
 75
     0
 76
     0
 77
     0
 78
     0
  0
ENDTAB
  0
TABLE
  2
LTYPE
  5
5
330
0
100
AcDbSymbolTable
 70
     1
  0
LTYPE
  5
14
330
5
100
AcDbSymbolTableRecord
100
AcDbLinetypeTableRecord
  2
BYBLOCK
 70
     0
  3

 72
    65
 73
     0
 40
0.0
  0
LTYPE
  5
15
330
5
100
AcDbSymbolTableRecord
100
AcDbLinetypeTableRecord
  2
BYLAYER
 70
     0
  3

 72
    65
 73
     0
 40
0.0
  0
LTYPE
  5
16
330
5
100
AcDbSymbolTableRecord
100
AcDbLinetypeTableRecord
  2
CONTINUOUS
 70
     0
  3
Solid line
 72
    65
 73
     0
 40
0.0
  0
ENDTAB
  0
TABLE
  2
LAYER
  5
2
100
AcDbSymbolTable
 70
2
  0
LAYER
  5
50
100
AcDbSymbolTableRecord
100
AcDbLayerTableRecord
  2
0
 70
0
  6
CONTINUOUS
  0
LAYER
  5
51
100
AcDbSymbolTableRecord
100
AcDbLayerTableRecord
  2
Calque_1
 70
0
  6
CONTINUOUS
  0
ENDTAB
  0
TABLE
  2
STYLE
  5
3
330
0
100
AcDbSymbolTable
 70
     1
  0
STYLE
  5
11
330
3
100
AcDbSymbolTableRecord
100
AcDbTextStyleTableRecord
  2
STANDARD
 70
     0
 40
0.0
 41
1.0
 50
0.0
 71
     0
 42
2.5
  3
txt
  4

  0
ENDTAB
  0
TABLE
  2
VIEW
  5
6
330
0
100
AcDbSymbolTable
 70
     0
  0
ENDTAB
  0
TABLE
  2
UCS
  5
7
330
0
100
AcDbSymbolTable
 70
     0
  0
ENDTAB
  0
TABLE
  2
APPID
  5
9
330
0
100
AcDbSymbolTable
 70
     2
  0
APPID
  5
12
330
9
100
AcDbSymbolTableRecord
100
AcDbRegAppTableRecord
  2
ACAD
 70
     0
  0
ENDTAB
  0
TABLE
  2
DIMSTYLE
  5
A
330
0
100
AcDbSymbolTable
 70
     1
  0
DIMSTYLE
105
27
330
A
100
AcDbSymbolTableRecord
100
AcDbDimStyleTableRecord
  2
ISO-25
 70
     0
  3

  4

  5

  6

  7

 40
1.0
 41
2.5
 42
0.625
 43
3.75
 44
1.25
 45
0.0
 46
0.0
 47
0.0
 48
0.0
140
2.5
141
2.5
142
0.0
143
0.03937007874016
144
1.0
145
0.0
146
1.0
147
0.625
 71
     0
 72
     0
 73
     0
 74
     0
 75
     0
 76
     0
 77
     1
 78
     8
170
     0
171
     3
172
     1
173
     0
174
     0
175
     0
176
     0
177
     0
178
     0
270
     2
271
     2
272
     2
273
     2
274
     3
340
11
275
     0
280
     0
281
     0
282
     0
283
     0
284
     8
285
     0
286
     0
287
     3
288
     0
  0
ENDTAB
  0
TABLE
  2
BLOCK_RECORD
  5
1
330
0
100
AcDbSymbolTable
 70
     1
  0
BLOCK_RECORD
  5
1F
330
1
100
AcDbSymbolTableRecord
100
AcDbBlockTableRecord
  2
*MODEL_SPACE
  0
BLOCK_RECORD
  5
1B
330
1
100
AcDbSymbolTableRecord
100
AcDbBlockTableRecord
  2
*PAPER_SPACE
  0
ENDTAB
  0
ENDSEC
  0
SECTION
  2
BLOCKS
  0
BLOCK
  5
20
330
1F
100
AcDbEntity
  8
0
100
AcDbBlockBegin
  2
*MODEL_SPACE
 70
     0
 10
0.0
 20
0.0
 30
0.0
  3
*MODEL_SPACE
  1

  0
ENDBLK
  5
21
330
1F
100
AcDbEntity
  8
0
100
AcDbBlockEnd
  0
BLOCK
  5
1C
330
1B
100
AcDbEntity
 67
     1
  8
0
100
AcDbBlockBegin
  2
*PAPER_SPACE
  1

  0
ENDBLK
  5
1D
330
1B
100
AcDbEntity
 67
     1
  8
0
100
AcDbBlockEnd
  0
ENDSEC
  0
SECTION
  2
ENTITIES
  0
LINE
  5
100
100
AcDbEntity
  8
Calque_1
 62
1
100
AcDbLine
 10
118.778328
 20
22.486861
 30
0.0
 11
58.805329
 21
22.486861
 31
0.0
  0
LINE
  5
101
100
AcDbEntity
  8
Calque_1
 62
1
100
AcDbLine
 10
58.805329
 20
22.486861
 30
0.0
 11
56.306328
 21
50.389724
 31
0.0
  0
SPLINE
  5
102
100
AcDbEntity
  8
Calque_1
 62
1
100
AcDbSpline
 70
8
 71
3
 72
8
 73
4
 74
0
 40
0
 40
0
 40
0
 40
0
 40
1
 40
1
 40
1
 40
1
 10
56.306328
 20
50.389724
 30
0.0
 10
30.549712
 20
62.249590
 30
0.0
 10
13.841957
 20
88.443270
 30
0.0
 10
13.841958
 20
118.664729
 30
0.0
  0
SPLINE
  5
103
100
AcDbEntity
  8
Calque_1
 62
1
100
AcDbSpline
 70
8
 71
3
 72
8
 73
4
 74
0
 40
0
 40
0
 40
0
 40
0
 40
1
 40
1
 40
1
 40
1
 10
13.841958
 20
118.664729
 30
0.0
 10
13.841959
 20
160.058468
 30
0.0
 10
47.398218
 20
193.614727
 30
0.0
 10
88.791957
 20
193.614727
 30
0.0
  0
SPLINE
  5
104
100
AcDbEntity
  8
Calque_1
 62
1
100
AcDbSpline
 70
8
 71
3
 72
8
 73
4
 74
0
 40
0
 40
0
 40
0
 40
0
 40
1
 40
1
 40
1
 40
1
 10
88.791957
 20
193.614727
 30
0.0
 10
130.185702
 20
193.614730
 30
0.0
 10
163.554867
 20
159.871383
 30
0.0
 10
163.554870
 20
118.477641
 30
0.0
  0
SPLINE
  5
105
100
AcDbEntity
  8
Calque_1
 62
1
100
AcDbSpline
 70
8
 71
3
 72
8
 73
4
 74
0
 40
0
 40
0
 40
0
 40
0
 40
1
 40
1
 40
1
 40
1
 10
163.554870
 20
118.477641
 30
0.0
 10
163.554870
 20
88.310044
 30
0.0
 10
146.992574
 20
62.305278
 30
0.0
 10
121.277329
 20
50.402909
 30
0.0
  0
LINE
  5
106
100
AcDbEntity
  8
Calque_1
 62
1
100
AcDbLine
 10
121.277329
 20
50.402909
 30
0.0
 11
118.778328
 21
22.486861
 31
0.0
  0
SPLINE
  5
107
100
AcDbEntity
  8
Calque_1
 62
2
100
AcDbSpline
 70
8
 71
3
 72
8
 73
4
 74
0
 40
0
 40
0
 40
0
 40
0
 40
1
 40
1
 40
1
 40
1
 10
129.935969
 20
139.566713
 30
0.0
 10
129.854477
 20
139.991991
 30
0.0
 10
129.682426
 20
140.440603
 30
0.0
 10
128.253860
 20
140.858436
 30
0.0
  0
SPLINE
  5
108
100
AcDbEntity
  8
Calque_1
 62
2
100
AcDbSpline
 70
8
 71
3
 72
8
 73
4
 74
0
 40
0
 40
0
 40
0
 40
0
 40
1
 40
1
 40
1
 40
1
 10
128.253860
 20
140.858436
 30
0.0
 10
126.942997
 20
141.286790
 30
0.0
 10
126.372609
 20
142.045260
 30
0.0
 10
125.103486
 20
142.016783
 30
0.0
  0
SPLINE
  5
109
100
AcDbEntity
  8
Calque_1
 62
2
100
AcDbSpline
 70
8
 71
3
 72
8
 73
4
 74
0
 40
0
 40
0
 40
0
 40
0
 40
1
 40
1
 40
1
 40
1
 10
125.103486
 20
142.016783
 30
0.0
 10
124.176982
 20
141.933090
 30
0.0
 10
123.462788
 20
141.600308
 30
0.0
 10
122.506568
 20
140.486349
 30
0.0
  0
SPLINE
  5
10a
100
AcDbEntity
  8
Calque_1
 62
2
100
AcDbSpline
 70
8
 71
3
 72
8
 73
4
 74
0
 40
0
 40
0
 40
0
 40
0
 40
1
 40
1
 40
1
 40
1
 10
122.506568
 20
140.486349
 30
0.0
 10
122.148702
 20
140.120687
 30
0.0
 10
121.387641
 20
140.237079
 30
0.0
 10
121.351889
 20
139.264877
 30
0.0
  0
SPLINE
  5
10b
100
AcDbEntity
  8
Calque_1
 62
2
100
AcDbSpline
 70
8
 71
3
 72
8
 73
4
 74
0
 40
0
 40
0
 40
0
 40
0
 40
1
 40
1
 40
1
 40
1
 10
121.351889
 20
139.264877
 30
0.0
 10
121.363602
 20
138.883685
 30
0.0
 10
121.362614
 20
138.647042
 30
0.0
 10
122.047494
 20
138.227408
 30
0.0
  0
SPLINE
  5
10c
100
AcDbEntity
  8
Calque_1
 62
2
100
AcDbSpline
 70
8
 71
3
 72
8
 73
4
 74
0
 40
0
 40
0
 40
0
 40
0
 40
1
 40
1
 40
1
 40
1
 10
122.047494
 20
138.227408
 30
0.0
 10
123.753087
 20
137.237342
 30
0.0
 10
123.911634
 20
136.664450
 30
0.0
 10
125.262431
 20
136.637825
 30
0.0
  0
SPLINE
  5
10d
100
AcDbEntity
  8
Calque_1
 62
2
100
AcDbSpline
 70
8
 71
3
 72
8
 73
4
 74
0
 40
0
 40
0
 40
0
 40
0
 40
1
 40
1
 40
1
 40
1
 10
125.262431
 20
136.637825
 30
0.0
 10
126.523245
 20
136.612962
 30
0.0
 10
127.105300
 20
137.462010
 30
0.0
 10
128.920974
 20
138.176645
 30
0.0
  0
SPLINE
  5
10e
100
AcDbEntity
  8
Calque_1
 62
2
100
AcDbSpline
 70
8
 71
3
 72
8
 73
4
 74
0
 40
0
 40
0
 40
0
 40
0
 40
1
 40
1
 40
1
 40
1
 10
128.920974
 20
138.176645
 30
0.0
 10
129.139332
 20
138.246165
 30
0.0
 10
130.014720
 20
138.790800
 30
0.0
 10
129.935969
 20
139.566713
 30
0.0
  0
LINE
  5
10f
100
AcDbEntity
  8
Calque_1
 62
2
100
AcDbLine
 10
129.935969
 20
139.566713
 30
0.0
 11
129.935969
 21
139.566713
 31
0.0
  0
SPLINE
  5
110
100
AcDbEntity
  8
Calque_1
 62
2
100
AcDbSpline
 70
8
 71
3
 72
8
 73
4
 74
0
 40
0
 40
0
 40
0
 40
0
 40
1
 40
1
 40
1
 40
1
 10
127.404704
 20
138.670601
 30
0.0
 10
124.363517
 20
136.854177
 30
0.0
 10
123.601782
 20
137.939725
 30
0.0
 10
122.814752
 20
138.699394
 30
0.0
  0
SPLINE
  5
111
100
AcDbEntity
  8
Calque_1
 62
2
100
AcDbSpline
 70
8
 71
3
 72
8
 73
4
 74
0
 40
0
 40
0
 40
0
 40
0
 40
1
 40
1
 40
1
 40
1
 10
122.814752
 20
138.699394
 30
0.0
 10
122.569340
 20
138.917331
 30
0.0
 10
122.310576
 20
139.152341
 30
0.0
 10
121.996708
 20
139.260621
 30
0.0
  0
LINE
  5
112
100
AcDbEntity
  8
Calque_1
 62
2
100
AcDbLine
 10
121.996708
 20
139.260621
 30
0.0
 11
122.253722
 21
139.412078
 31
0.0
  0
SPLINE
  5
113
100
AcDbEntity
  8
Calque_1
 62
2
100
AcDbSpline
 70
8
 71
3
 72
8
 73
4
 74
0
 40
0
 40
0
 40
0
 40
0
 40
1
 40
1
 40
1
 40
1
 10
122.253722
 20
139.412078
 30
0.0
 10
122.414541
 20
139.361278
 30
0.0
 10
122.527492
 20
139.197555
 30
0.0
 10
122.636274
 20
139.085635
 30
0.0
  0
SPLINE
  5
114
100
AcDbEntity
  8
Calque_1
 62
2
100
AcDbSpline
 70
8
 71
3
 72
8
 73
4
 74
0
 40
0
 40
0
 40
0
 40
0
 40
1
 40
1
 40
1
 40
1
 10
122.636274
 20
139.085635
 30
0.0
 10
122.769399
 20
138.948675
 30
0.0
 10
122.899684
 20
138.826450
 30
0.0
 10
123.027409
 20
138.717845
 30
0.0
  0
SPLINE
  5
115
100
AcDbEntity
  8
Calque_1
 62
2
100
AcDbSpline
 70
8
 71
3
 72
8
 73
4
 74
0
 40
0
 40
0
 40
0
 40
0
 40
1
 40
1
 40
1
 40
1
 10
123.027409
 20
138.717845
 30
0.0
 10
124.437307
 20
137.560133
 30
0.0
 10
125.504265
 20
137.969084
 30
0.0
 10
126.649827
 20
138.553575
 30
0.0
  0
SPLINE
  5
116
100
AcDbEntity
  8
Calque_1
 62
2
100
AcDbSpline
 70
8
 71
3
 72
8
 73
4
 74
0
 40
0
 40
0
 40
0
 40
0
 40
1
 40
1
 40
1
 40
1
 10
126.649827
 20
138.553575
 30
0.0
 10
126.895067
 20
138.679260
 30
0.0
 10
127.143115
 20
138.812249
 30
0.0
 10
127.397524
 20
138.938402
 30
0.0
  0
LINE
  5
117
100
AcDbEntity
  8
Calque_1
 62
2
100
AcDbLine
 10
127.397524
 20
138.938402
 30
0.0
 11
127.740026
 21
139.108241
 31
0.0
  0
LINE
  5
118
100
AcDbEntity
  8
Calque_1
 62
2
100
AcDbLine
 10
127.740026
 20
139.108241
 30
0.0
 11
128.634975
 21
139.552018
 31
0.0
  0
LINE
  5
119
100
AcDbEntity
  8
Calque_1
 62
2
100
AcDbLine
 10
128.634975
 20
139.552018
 30
0.0
 11
128.784945
 21
139.345948
 31
0.0
  0
SPLINE
  5
11a
100
AcDbEntity
  8
Calque_1
 62
2
100
AcDbSpline
 70
8
 71
3
 72
8
 73
4
 74
0
 40
0
 40
0
 40
0
 40
0
 40
1
 40
1
 40
1
 40
1
 10
128.784945
 20
139.345948
 30
0.0
 10
128.565760
 20
139.296424
 30
0.0
 10
128.328206
 20
139.177430
 30
0.0
 10
128.071694
 20
139.048260
 30
0.0
  0
SPLINE
  5
11b
100
AcDbEntity
  8
Calque_1
 62
2
100
AcDbSpline
 70
8
 71
3
 72
8
 73
4
 74
0
 40
0
 40
0
 40
0
 40
0
 40
1
 40
1
 40
1
 40
1
 10
128.071694
 20
139.048260
 30
0.0
 10
127.853640
 20
138.952778
 30
0.0
 10
127.628543
 20
138.804296
 30
0.0
 10
127.404704
 20
138.670601
 30
0.0
  0
LINE
  5
11c
100
AcDbEntity
  8
Calque_1
 62
2
100
AcDbLine
 10
127.404704
 20
138.670601
 30
0.0
 11
127.404704
 21
138.670601
 31
0.0
  0
LINE
  5
11d
100
AcDbEntity
  8
Calque_1
 62
6
100
AcDbLine
 10
113.928522
 20
116.907046
 30
0.0
 11
116.804347
 21
113.551909
 31
0.0
  0
SPLINE
  5
11e
100
AcDbEntity
  8
Calque_1
 62
6
100
AcDbSpline
 70
8
 71
3
 72
8
 73
4
 74
0
 40
0
 40
0
 40
0
 40
0
 40
1
 40
1
 40
1
 40
1
 10
116.804347
 20
113.551909
 30
0.0
 10
114.924823
 20
114.381730
 30
0.0
 10
113.541336
 20
114.243088
 30
0.0
 10
112.104828
 20
114.463758
 30
0.0
  0
LINE
  5
11f
100
AcDbEntity
  8
Calque_1
 62
6
100
AcDbLine
 10
112.104828
 20
114.463758
 30
0.0
 11
112.116512
 21
116.930425
 31
0.0
  0
LINE
  5
120
100
AcDbEntity
  8
Calque_1
 62
6
100
AcDbLine
 10
112.116512
 20
116.930425
 30
0.0
 11
110.889026
 21
116.977190
 31
0.0
  0
SPLINE
  5
121
100
AcDbEntity
  8
Calque_1
 62
6
100
AcDbSpline
 70
8
 71
3
 72
8
 73
4
 74
0
 40
0
 40
0
 40
0
 40
0
 40
1
 40
1
 40
1
 40
1
 10
110.889026
 20
116.977190
 30
0.0
 10
111.058274
 20
117.179258
 30
0.0
 10
111.092993
 20
117.426171
 30
0.0
 10
111.076074
 20
117.690300
 30
0.0
  0
LINE
  5
122
100
AcDbEntity
  8
Calque_1
 62
6
100
AcDbLine
 10
111.076074
 20
117.690300
 30
0.0
 11
110.830580
 21
119.233429
 31
0.0
  0
SPLINE
  5
123
100
AcDbEntity
  8
Calque_1
 62
6
100
AcDbSpline
 70
8
 71
3
 72
8
 73
4
 74
0
 40
0
 40
0
 40
0
 40
0
 40
1
 40
1
 40
1
 40
1
 10
110.830580
 20
119.233429
 30
0.0
 10
110.622526
 20
120.495335
 30
0.0
 10
111.256360
 20
121.412913
 30
0.0
 10
112.070944
 20
121.475713
 30
0.0
  0
SPLINE
  5
124
100
AcDbEntity
  8
Calque_1
 62
6
100
AcDbSpline
 70
8
 71
3
 72
8
 73
4
 74
0
 40
0
 40
0
 40
0
 40
0
 40
1
 40
1
 40
1
 40
1
 10
112.070944
 20
121.475713
 30
0.0
 10
112.441157
 20
121.504254
 30
0.0
 10
113.267764
 20
122.133409
 30
0.0
 10
113.451790
 20
122.282324
 30
0.0
  0
SPLINE
  5
125
100
AcDbEntity
  8
Calque_1
 62
6
100
AcDbSpline
 70
8
 71
3
 72
8
 73
4
 74
0
 40
0
 40
0
 40
0
 40
0
 40
1
 40
1
 40
1
 40
1
 10
113.451790
 20
122.282324
 30
0.0
 10
114.400353
 20
123.049889
 30
0.0
 10
114.646922
 20
124.408056
 30
0.0
 10
116.008398
 20
124.436252
 30
0.0
  0
LINE
  5
126
100
AcDbEntity
  8
Calque_1
 62
6
100
AcDbLine
 10
116.008398
 20
124.436252
 30
0.0
 11
116.337613
 21
124.399346
 31
0.0
  0
SPLINE
  5
127
100
AcDbEntity
  8
Calque_1
 62
6
100
AcDbSpline
 70
8
 71
3
 72
8
 73
4
 74
0
 40
0
 40
0
 40
0
 40
0
 40
1
 40
1
 40
1
 40
1
 10
116.337613
 20
124.399346
 30
0.0
 10
117.500942
 20
124.296146
 30
0.0
 10
118.977085
 20
121.584860
 30
0.0
 10
120.126441
 20
119.363226
 30
0.0
  0
SPLINE
  5
128
100
AcDbEntity
  8
Calque_1
 62
6
100
AcDbSpline
 70
8
 71
3
 72
8
 73
4
 74
0
 40
0
 40
0
 40
0
 40
0
 40
1
 40
1
 40
1
 40
1
 10
120.126441
 20
119.363226
 30
0.0
 10
120.567058
 20
118.511536
 30
0.0
 10
121.215345
 20
117.814709
 30
0.0
 10
121.685784
 20
117.179642
 30
0.0
  0
SPLINE
  5
129
100
AcDbEntity
  8
Calque_1
 62
6
100
AcDbSpline
 70
8
 71
3
 72
8
 73
4
 74
0
 40
0
 40
0
 40
0
 40
0
 40
1
 40
1
 40
1
 40
1
 10
121.685784
 20
117.179642
 30
0.0
 10
122.400068
 20
116.624750
 30
0.0
 10
122.623151
 20
115.723225
 30
0.0
 10
122.707970
 20
115.387296
 30
0.0
  0
LINE
  5
12a
100
AcDbEntity
  8
Calque_1
 62
6
100
AcDbLine
 10
122.707970
 20
115.387296
 30
0.0
 11
121.270056
 21
113.528530
 31
0.0
  0
LINE
  5
12b
100
AcDbEntity
  8
Calque_1
 62
6
100
AcDbLine
 10
121.270056
 20
113.528530
 30
0.0
 11
119.329460
 21
116.012732
 31
0.0
  0
LINE
  5
12c
100
AcDbEntity
  8
Calque_1
 62
6
100
AcDbLine
 10
119.329460
 20
116.012732
 30
0.0
 11
118.651418
 21
116.883667
 31
0.0
  0
LINE
  5
12d
100
AcDbEntity
  8
Calque_1
 62
6
100
AcDbLine
 10
118.651418
 20
116.883667
 30
0.0
 11
113.905140
 21
116.918736
 31
0.0
  0
LINE
  5
12e
100
AcDbEntity
  8
Calque_1
 62
2
100
AcDbLine
 10
46.105208
 20
104.032144
 30
0.0
 11
41.629553
 21
104.032144
 31
0.0
  0
SPLINE
  5
12f
100
AcDbEntity
  8
Calque_1
 62
2
100
AcDbSpline
 70
8
 71
3
 72
8
 73
4
 74
0
 40
0
 40
0
 40
0
 40
0
 40
1
 40
1
 40
1
 40
1
 10
41.629553
 20
104.032144
 30
0.0
 10
40.820955
 20
104.032144
 30
0.0
 10
40.169987
 20
104.683115
 30
0.0
 10
40.169987
 20
105.491719
 30
0.0
  0
LINE
  5
130
100
AcDbEntity
  8
Calque_1
 62
2
100
AcDbLine
 10
40.169987
 20
105.491719
 30
0.0
 11
40.169987
 21
115.059439
 31
0.0
  0
LINE
  5
131
100
AcDbEntity
  8
Calque_1
 62
2
100
AcDbLine
 10
40.169987
 20
115.059439
 30
0.0
 11
35.444543
 21
115.059439
 31
0.0
  0
LINE
  5
132
100
AcDbEntity
  8
Calque_1
 62
2
100
AcDbLine
 10
35.444543
 20
115.059439
 30
0.0
 11
35.444543
 21
100.819369
 31
0.0
  0
SPLINE
  5
133
100
AcDbEntity
  8
Calque_1
 62
2
100
AcDbSpline
 70
8
 71
3
 72
8
 73
4
 74
0
 40
0
 40
0
 40
0
 40
0
 40
1
 40
1
 40
1
 40
1
 10
35.444543
 20
100.819369
 30
0.0
 10
35.444543
 20
100.010768
 30
0.0
 10
36.095511
 20
99.359798
 30
0.0
 10
36.904109
 20
99.359798
 30
0.0
  0
LINE
  5
134
100
AcDbEntity
  8
Calque_1
 62
2
100
AcDbLine
 10
36.904109
 20
99.359798
 30
0.0
 11
46.105208
 21
99.359798
 31
0.0
  0
LINE
  5
135
100
AcDbEntity
  8
Calque_1
 62
2
100
AcDbLine
 10
46.105208
 20
99.359798
 30
0.0
 11
46.105208
 21
104.032144
 31
0.0
  0
SPLINE
  5
136
100
AcDbEntity
  8
Calque_1
 62
2
100
AcDbSpline
 70
8
 71
3
 72
8
 73
4
 74
0
 40
0
 40
0
 40
0
 40
0
 40
1
 40
1
 40
1
 40
1
 10
140.209366
 20
119.773761
 30
0.0
 10
139.534460
 20
120.947480
 30
0.0
 10
140.262288
 20
123.244831
 30
0.0
 10
137.624275
 20
123.319400
 30
0.0
  0
SPLINE
  5
137
100
AcDbEntity
  8
Calque_1
 62
2
100
AcDbSpline
 70
8
 71
3
 72
8
 73
4
 74
0
 40
0
 40
0
 40
0
 40
0
 40
1
 40
1
 40
1
 40
1
 10
137.624275
 20
123.319400
 30
0.0
 10
137.309188
 20
122.795071
 30
0.0
 10
137.256331
 20
122.893010
 30
0.0
 10
137.005418
 20
122.564603
 30
0.0
  0
SPLINE
  5
138
100
AcDbEntity
  8
Calque_1
 62
2
100
AcDbSpline
 70
8
 71
3
 72
8
 73
4
 74
0
 40
0
 40
0
 40
0
 40
0
 40
1
 40
1
 40
1
 40
1
 10
137.005418
 20
122.564603
 30
0.0
 10
138.096481
 20
121.165206
 30
0.0
 10
137.585484
 20
120.804975
 30
0.0
 10
137.259729
 20
119.757217
 30
0.0
  0
SPLINE
  5
139
100
AcDbEntity
  8
Calque_1
 62
2
100
AcDbSpline
 70
8
 71
3
 72
8
 73
4
 74
0
 40
0
 40
0
 40
0
 40
0
 40
1
 40
1
 40
1
 40
1
 10
137.259729
 20
119.757217
 30
0.0
 10
135.854158
 20
121.250982
 30
0.0
 10
134.195287
 20
122.148116
 30
0.0
 10
132.305738
 20
120.495990
 30
0.0
  0
SPLINE
  5
13a
100
AcDbEntity
  8
Calque_1
 62
2
100
AcDbSpline
 70
8
 71
3
 72
8
 73
4
 74
0
 40
0
 40
0
 40
0
 40
0
 40
1
 40
1
 40
1
 40
1
 10
132.305738
 20
120.495990
 30
0.0
 10
132.282794
 20
121.506650
 30
0.0
 10
131.957417
 20
122.549142
 30
0.0
 10
133.051680
 20
123.436401
 30
0.0
  0
LINE
  5
13b
100
AcDbEntity
  8
Calque_1
 62
2
100
AcDbLine
 10
133.051680
 20
123.436401
 30
0.0
 11
132.942093
 21
124.169973
 31
0.0
  0
SPLINE
  5
13c
100
AcDbEntity
  8
Calque_1
 62
2
100
AcDbSpline
 70
8
 71
3
 72
8
 73
4
 74
0
 40
0
 40
0
 40
0
 40
0
 40
1
 40
1
 40
1
 40
1
 10
132.942093
 20
124.169973
 30
0.0
 10
131.384365
 20
123.741164
 30
0.0
 10
131.761574
 20
120.313449
 30
0.0
 10
131.529701
 20
119.175545
 30
0.0
  0
SPLINE
  5
13d
100
AcDbEntity
  8
Calque_1
 62
2
100
AcDbSpline
 70
8
 71
3
 72
8
 73
4
 74
0
 40
0
 40
0
 40
0
 40
0
 40
1
 40
1
 40
1
 40
1
 10
131.529701
 20
119.175545
 30
0.0
 10
131.540877
 20
118.714002
 30
0.0
 10
131.548130
 20
118.246586
 30
0.0
 10
131.398160
 20
117.832873
 30
0.0
  0
SPLINE
  5
13e
100
AcDbEntity
  8
Calque_1
 62
2
100
AcDbSpline
 70
8
 71
3
 72
8
 73
4
 74
0
 40
0
 40
0
 40
0
 40
0
 40
1
 40
1
 40
1
 40
1
 10
131.398160
 20
117.832873
 30
0.0
 10
130.976503
 20
116.669565
 30
0.0
 10
130.462663
 20
115.478527
 30
0.0
 10
130.895993
 20
114.029971
 30
0.0
  0
SPLINE
  5
13f
100
AcDbEntity
  8
Calque_1
 62
2
100
AcDbSpline
 70
8
 71
3
 72
8
 73
4
 74
0
 40
0
 40
0
 40
0
 40
0
 40
1
 40
1
 40
1
 40
1
 10
130.895993
 20
114.029971
 30
0.0
 10
131.337874
 20
115.217339
 30
0.0
 10
131.832161
 20
115.531190
 30
0.0
 10
132.798196
 20
115.975967
 30
0.0
  0
SPLINE
  5
140
100
AcDbEntity
  8
Calque_1
 62
2
100
AcDbSpline
 70
8
 71
3
 72
8
 73
4
 74
0
 40
0
 40
0
 40
0
 40
0
 40
1
 40
1
 40
1
 40
1
 10
132.798196
 20
115.975967
 30
0.0
 10
133.695669
 20
116.441944
 30
0.0
 10
135.434386
 20
115.953191
 30
0.0
 10
137.143939
 20
117.315935
 30
0.0
  0
SPLINE
  5
141
100
AcDbEntity
  8
Calque_1
 62
2
100
AcDbSpline
 70
8
 71
3
 72
8
 73
4
 74
0
 40
0
 40
0
 40
0
 40
0
 40
1
 40
1
 40
1
 40
1
 10
137.143939
 20
117.315935
 30
0.0
 10
137.806105
 20
117.697720
 30
0.0
 10
138.967004
 20
118.045257
 30
0.0
 10
139.885355
 20
118.144534
 30
0.0
  0
SPLINE
  5
142
100
AcDbEntity
  8
Calque_1
 62
2
100
AcDbSpline
 70
8
 71
3
 72
8
 73
4
 74
0
 40
0
 40
0
 40
0
 40
0
 40
1
 40
1
 40
1
 40
1
 10
139.885355
 20
118.144534
 30
0.0
 10
140.600930
 20
118.221894
 30
0.0
 10
141.330347
 20
118.042144
 30
0.0
 10
141.330347
 20
118.042144
 30
0.0
  0
SPLINE
  5
143
100
AcDbEntity
  8
Calque_1
 62
2
100
AcDbSpline
 70
8
 71
3
 72
8
 73
4
 74
0
 40
0
 40
0
 40
0
 40
0
 40
1
 40
1
 40
1
 40
1
 10
141.330347
 20
118.042144
 30
0.0
 10
141.409180
 20
118.558196
 30
0.0
 10
140.613249
 20
119.550974
 30
0.0
 10
140.209366
 20
119.773761
 30
0.0
  0
LINE
  5
144
100
AcDbEntity
  8
Calque_1
 62
2
100
AcDbLine
 10
140.209366
 20
119.773761
 30
0.0
 11
140.209366
 21
119.773761
 31
0.0
  0
LINE
  5
145
100
AcDbEntity
  8
Calque_1
 62
2
100
AcDbLine
 10
113.920400
 20
116.942115
 30
0.0
 11
116.796225
 21
113.586981
 31
0.0
  0
SPLINE
  5
146
100
AcDbEntity
  8
Calque_1
 62
2
100
AcDbSpline
 70
8
 71
3
 72
8
 73
4
 74
0
 40
0
 40
0
 40
0
 40
0
 40
1
 40
1
 40
1
 40
1
 10
116.796225
 20
113.586981
 30
0.0
 10
114.916701
 20
114.416802
 30
0.0
 10
113.533214
 20
114.278152
 30
0.0
 10
112.096705
 20
114.498833
 30
0.0
  0
LINE
  5
147
100
AcDbEntity
  8
Calque_1
 62
2
100
AcDbLine
 10
112.096705
 20
114.498833
 30
0.0
 11
112.108389
 21
116.965483
 31
0.0
  0
LINE
  5
148
100
AcDbEntity
  8
Calque_1
 62
2
100
AcDbLine
 10
112.108389
 20
116.965483
 30
0.0
 11
110.880903
 21
117.012256
 31
0.0
  0
SPLINE
  5
149
100
AcDbEntity
  8
Calque_1
 62
2
100
AcDbSpline
 70
8
 71
3
 72
8
 73
4
 74
0
 40
0
 40
0
 40
0
 40
0
 40
1
 40
1
 40
1
 40
1
 10
110.880903
 20
117.012256
 30
0.0
 10
111.050152
 20
117.214327
 30
0.0
 10
111.084871
 20
117.461229
 30
0.0
 10
111.067952
 20
117.725366
 30
0.0
  0
LINE
  5
14a
100
AcDbEntity
  8
Calque_1
 62
2
100
AcDbLine
 10
111.067952
 20
117.725366
 30
0.0
 11
110.822458
 21
119.268484
 31
0.0
  0
SPLINE
  5
14b
100
AcDbEntity
  8
Calque_1
 62
2
100
AcDbSpline
 70
8
 71
3
 72
8
 73
4
 74
0
 40
0
 40
0
 40
0
 40
0
 40
1
 40
1
 40
1
 40
1
 10
110.822458
 20
119.268484
 30
0.0
 10
110.614406
 20
120.530393
 30
0.0
 10
111.248238
 20
121.447982
 30
0.0
 10
112.062824
 20
121.510771
 30
0.0
  0
SPLINE
  5
14c
100
AcDbEntity
  8
Calque_1
 62
2
100
AcDbSpline
 70
8
 71
3
 72
8
 73
4
 74
0
 40
0
 40
0
 40
0
 40
0
 40
1
 40
1
 40
1
 40
1
 10
112.062824
 20
121.510771
 30
0.0
 10
112.433038
 20
121.539323
 30
0.0
 10
113.259644
 20
122.168481
 30
0.0
 10
113.443670
 20
122.317393
 30
0.0
  0
SPLINE
  5
14d
100
AcDbEntity
  8
Calque_1
 62
2
100
AcDbSpline
 70
8
 71
3
 72
8
 73
4
 74
0
 40
0
 40
0
 40
0
 40
0
 40
1
 40
1
 40
1
 40
1
 10
113.443670
 20
122.317393
 30
0.0
 10
114.132244
 20
122.874576
 30
0.0
 10
114.450901
 20
123.742985
 30
0.0
 10
115.094647
 20
124.187939
 30
0.0
  0
LINE
  5
14e
100
AcDbEntity
  8
Calque_1
 62
2
100
AcDbLine
 10
115.094647
 20
124.187939
 30
0.0
 11
115.104977
 21
124.194233
 31
0.0
  0
SPLINE
  5
14f
100
AcDbEntity
  8
Calque_1
 62
2
100
AcDbSpline
 70
8
 71
3
 72
8
 73
4
 74
0
 40
0
 40
0
 40
0
 40
0
 40
1
 40
1
 40
1
 40
1
 10
115.104977
 20
124.194233
 30
0.0
 10
115.348035
 20
124.362231
 30
0.0
 10
115.627110
 20
124.463684
 30
0.0
 10
116.000273
 20
124.471406
 30
0.0
  0
LINE
  5
150
100
AcDbEntity
  8
Calque_1
 62
2
100
AcDbLine
 10
116.000273
 20
124.471406
 30
0.0
 11
116.329485
 21
124.434503
 31
0.0
  0
SPLINE
  5
151
100
AcDbEntity
  8
Calque_1
 62
2
100
AcDbSpline
 70
8
 71
3
 72
8
 73
4
 74
0
 40
0
 40
0
 40
0
 40
0
 40
1
 40
1
 40
1
 40
1
 10
116.329485
 20
124.434503
 30
0.0
 10
117.492817
 20
124.331291
 30
0.0
 10
118.968960
 20
121.620016
 30
0.0
 10
120.118313
 20
119.398377
 30
0.0
  0
SPLINE
  5
152
100
AcDbEntity
  8
Calque_1
 62
2
100
AcDbSpline
 70
8
 71
3
 72
8
 73
4
 74
0
 40
0
 40
0
 40
0
 40
0
 40
1
 40
1
 40
1
 40
1
 10
120.118313
 20
119.398377
 30
0.0
 10
120.558933
 20
118.546687
 30
0.0
 10
121.207217
 20
117.849871
 30
0.0
 10
121.677659
 20
117.214787
 30
0.0
  0
SPLINE
  5
153
100
AcDbEntity
  8
Calque_1
 62
2
100
AcDbSpline
 70
8
 71
3
 72
8
 73
4
 74
0
 40
0
 40
0
 40
0
 40
0
 40
1
 40
1
 40
1
 40
1
 10
121.677659
 20
117.214787
 30
0.0
 10
122.391943
 20
116.659901
 30
0.0
 10
122.615026
 20
115.758382
 30
0.0
 10
122.699842
 20
115.422456
 30
0.0
  0
LINE
  5
154
100
AcDbEntity
  8
Calque_1
 62
2
100
AcDbLine
 10
122.699842
 20
115.422456
 30
0.0
 11
121.261931
 21
113.563684
 31
0.0
  0
LINE
  5
155
100
AcDbEntity
  8
Calque_1
 62
2
100
AcDbLine
 10
121.261931
 20
113.563684
 30
0.0
 11
119.321334
 21
116.047891
 31
0.0
  0
LINE
  5
156
100
AcDbEntity
  8
Calque_1
 62
2
100
AcDbLine
 10
119.321334
 20
116.047891
 30
0.0
 11
118.643293
 21
116.918818
 31
0.0
  0
LINE
  5
157
100
AcDbEntity
  8
Calque_1
 62
2
100
AcDbLine
 10
118.643293
 20
116.918818
 30
0.0
 11
113.897015
 21
116.953889
 31
0.0
  0
SPLINE
  5
158
100
AcDbEntity
  8
Calque_1
 62
2
100
AcDbSpline
 70
8
 71
3
 72
8
 73
4
 74
0
 40
0
 40
0
 40
0
 40
0
 40
1
 40
1
 40
1
 40
1
 10
115.383366
 20
123.710411
 30
0.0
 10
114.742516
 20
122.578271
 30
0.0
 10
112.898174
 20
120.494539
 30
0.0
 10
112.494176
 20
120.390775
 30
0.0
  0
LINE
  5
159
100
AcDbEntity
  8
Calque_1
 62
2
100
AcDbLine
 10
112.494176
 20
120.390775
 30
0.0
 11
114.645197
 21
117.725363
 31
0.0
  0
SPLINE
  5
15a
100
AcDbEntity
  8
Calque_1
 62
2
100
AcDbSpline
 70
8
 71
3
 72
8
 73
4
 74
0
 40
0
 40
0
 40
0
 40
0
 40
1
 40
1
 40
1
 40
1
 10
114.645197
 20
117.725363
 30
0.0
 10
115.723935
 20
119.316552
 30
0.0
 10
117.375593
 20
119.885789
 30
0.0
 10
120.747556
 20
117.386344
 30
0.0
  0
SPLINE
  5
15b
100
AcDbEntity
  8
Calque_1
 62
2
100
AcDbSpline
 70
8
 71
3
 72
8
 73
4
 74
0
 40
0
 40
0
 40
0
 40
0
 40
1
 40
1
 40
1
 40
1
 10
120.747556
 20
117.386344
 30
0.0
 10
116.993924
 20
120.810879
 30
0.0
 10
117.938036
 20
123.928684
 30
0.0
 10
115.395767
 20
123.720743
 30
0.0
  0
LINE
  5
15c
100
AcDbEntity
  8
Calque_1
 62
2
100
AcDbLine
 10
115.395767
 20
123.720743
 30
0.0
 11
115.383366
 21
123.710411
 31
0.0
  0
SPLINE
  5
15d
100
AcDbEntity
  8
Calque_1
 62
3
100
AcDbSpline
 70
8
 71
3
 72
8
 73
4
 74
0
 40
0
 40
0
 40
0
 40
0
 40
1
 40
1
 40
1
 40
1
 10
133.802103
 20
123.558866
 30
0.0
 10
134.626835
 20
124.000702
 30
0.0
 10
135.400531
 20
123.779010
 30
0.0
 10
136.163550
 20
123.418582
 30
0.0
  0
SPLINE
  5
15e
100
AcDbEntity
  8
Calque_1
 62
3
100
AcDbSpline
 70
8
 71
3
 72
8
 73
4
 74
0
 40
0
 40
0
 40
0
 40
0
 40
1
 40
1
 40
1
 40
1
 10
136.163550
 20
123.418582
 30
0.0
 10
136.716877
 20
123.429504
 30
0.0
 10
136.689203
 20
123.789024
 30
0.0
 10
136.631166
 20
124.166764
 30
0.0
  0
SPLINE
  5
15f
100
AcDbEntity
  8
Calque_1
 62
3
100
AcDbSpline
 70
8
 71
3
 72
8
 73
4
 74
0
 40
0
 40
0
 40
0
 40
0
 40
1
 40
1
 40
1
 40
1
 10
136.631166
 20
124.166764
 30
0.0
 10
136.030685
 20
124.947599
 30
0.0
 10
135.306517
 20
125.573828
 30
0.0
 10
133.965767
 20
125.429325
 30
0.0
  0
SPLINE
  5
160
100
AcDbEntity
  8
Calque_1
 62
3
100
AcDbSpline
 70
8
 71
3
 72
8
 73
4
 74
0
 40
0
 40
0
 40
0
 40
0
 40
1
 40
1
 40
1
 40
1
 10
133.965767
 20
125.429325
 30
0.0
 10
133.599589
 20
125.247303
 30
0.0
 10
133.424289
 20
124.794875
 30
0.0
 10
133.802103
 20
123.558866
 30
0.0
  0
LINE
  5
161
100
AcDbEntity
  8
Calque_1
 62
3
100
AcDbLine
 10
133.802103
 20
123.558866
 30
0.0
 11
133.802103
 21
123.558866
 31
0.0
  0
LINE
  5
162
100
AcDbEntity
  8
Calque_1
 62
3
100
AcDbLine
 10
47.444364
 20
99.359798
 30
0.0
 11
56.869680
 21
99.359798
 31
0.0
  0
SPLINE
  5
163
100
AcDbEntity
  8
Calque_1
 62
3
100
AcDbSpline
 70
8
 71
3
 72
8
 73
4
 74
0
 40
0
 40
0
 40
0
 40
0
 40
1
 40
1
 40
1
 40
1
 10
56.869680
 20
99.359798
 30
0.0
 10
57.678297
 20
99.359798
 30
0.0
 10
58.329266
 20
100.010768
 30
0.0
 10
58.329266
 20
100.819369
 30
0.0
  0
LINE
  5
164
100
AcDbEntity
  8
Calque_1
 62
3
100
AcDbLine
 10
58.329266
 20
100.819369
 30
0.0
 11
58.329266
 21
120.873812
 31
0.0
  0
SPLINE
  5
165
100
AcDbEntity
  8
Calque_1
 62
3
100
AcDbSpline
 70
8
 71
3
 72
8
 73
4
 74
0
 40
0
 40
0
 40
0
 40
0
 40
1
 40
1
 40
1
 40
1
 10
58.329266
 20
120.873812
 30
0.0
 10
58.329266
 20
121.682415
 30
0.0
 10
57.678297
 20
122.333384
 30
0.0
 10
56.869680
 20
122.333384
 30
0.0
  0
LINE
  5
166
100
AcDbEntity
  8
Calque_1
 62
3
100
AcDbLine
 10
56.869680
 20
122.333384
 30
0.0
 11
36.904109
 21
122.333384
 31
0.0
  0
SPLINE
  5
167
100
AcDbEntity
  8
Calque_1
 62
3
100
AcDbSpline
 70
8
 71
3
 72
8
 73
4
 74
0
 40
0
 40
0
 40
0
 40
0
 40
1
 40
1
 40
1
 40
1
 10
36.904109
 20
122.333384
 30
0.0
 10
36.095511
 20
122.333384
 30
0.0
 10
35.444543
 20
121.682415
 30
0.0
 10
35.444543
 20
120.873812
 30
0.0
  0
LINE
  5
168
100
AcDbEntity
  8
Calque_1
 62
3
100
AcDbLine
 10
35.444543
 20
120.873812
 30
0.0
 11
35.444543
 21
116.313578
 31
0.0
  0
LINE
  5
169
100
AcDbEntity
  8
Calque_1
 62
3
100
AcDbLine
 10
35.444543
 20
116.313578
 30
0.0
 11
40.169987
 21
116.313578
 31
0.0
  0
SPLINE
  5
16a
100
AcDbEntity
  8
Calque_1
 62
3
100
AcDbSpline
 70
8
 71
3
 72
8
 73
4
 74
0
 40
0
 40
0
 40
0
 40
0
 40
1
 40
1
 40
1
 40
1
 10
40.169987
 20
116.313578
 30
0.0
 10
40.169987
 20
117.122181
 30
0.0
 10
40.820955
 20
117.555878
 30
0.0
 10
41.629553
 20
117.555878
 30
0.0
  0
LINE
  5
16b
100
AcDbEntity
  8
Calque_1
 62
3
100
AcDbLine
 10
41.629553
 20
117.555878
 30
0.0
 11
52.201064
 21
117.555878
 31
0.0
  0
SPLINE
  5
16c
100
AcDbEntity
  8
Calque_1
 62
3
100
AcDbSpline
 70
8
 71
3
 72
8
 73
4
 74
0
 40
0
 40
0
 40
0
 40
0
 40
1
 40
1
 40
1
 40
1
 10
52.201064
 20
117.555878
 30
0.0
 10
53.009662
 20
117.555878
 30
0.0
 10
53.660630
 20
117.136366
 30
0.0
 10
53.660630
 20
116.327762
 30
0.0
  0
LINE
  5
16d
100
AcDbEntity
  8
Calque_1
 62
3
100
AcDbLine
 10
53.660630
 20
116.327762
 30
0.0
 11
53.660630
 21
105.491719
 31
0.0
  0
SPLINE
  5
16e
100
AcDbEntity
  8
Calque_1
 62
3
100
AcDbSpline
 70
8
 71
3
 72
8
 73
4
 74
0
 40
0
 40
0
 40
0
 40
0
 40
1
 40
1
 40
1
 40
1
 10
53.660630
 20
105.491719
 30
0.0
 10
53.660630
 20
104.683115
 30
0.0
 10
53.009662
 20
104.032144
 30
0.0
 10
52.201064
 20
104.032144
 30
0.0
  0
LINE
  5
16f
100
AcDbEntity
  8
Calque_1
 62
3
100
AcDbLine
 10
52.201064
 20
104.032144
 30
0.0
 11
47.444364
 21
104.032144
 31
0.0
  0
LINE
  5
170
100
AcDbEntity
  8
Calque_1
 62
3
100
AcDbLine
 10
47.444364
 20
104.032144
 30
0.0
 11
47.444364
 21
99.359798
 31
0.0
  0
SPLINE
  5
171
100
AcDbEntity
  8
Calque_1
 62
3
100
AcDbSpline
 70
8
 71
3
 72
8
 73
4
 74
0
 40
0
 40
0
 40
0
 40
0
 40
1
 40
1
 40
1
 40
1
 10
133.802103
 20
123.558866
 30
0.0
 10
134.626835
 20
124.000702
 30
0.0
 10
135.400531
 20
123.779010
 30
0.0
 10
136.163550
 20
123.418582
 30
0.0
  0
SPLINE
  5
172
100
AcDbEntity
  8
Calque_1
 62
3
100
AcDbSpline
 70
8
 71
3
 72
8
 73
4
 74
0
 40
0
 40
0
 40
0
 40
0
 40
1
 40
1
 40
1
 40
1
 10
136.163550
 20
123.418582
 30
0.0
 10
136.716877
 20
123.429504
 30
0.0
 10
136.689203
 20
123.789024
 30
0.0
 10
136.631166
 20
124.166764
 30
0.0
  0
SPLINE
  5
173
100
AcDbEntity
  8
Calque_1
 62
3
100
AcDbSpline
 70
8
 71
3
 72
8
 73
4
 74
0
 40
0
 40
0
 40
0
 40
0
 40
1
 40
1
 40
1
 40
1
 10
136.631166
 20
124.166764
 30
0.0
 10
136.030685
 20
124.947599
 30
0.0
 10
135.306517
 20
125.573828
 30
0.0
 10
133.965767
 20
125.429325
 30
0.0
  0
SPLINE
  5
174
100
AcDbEntity
  8
Calque_1
 62
3
100
AcDbSpline
 70
8
 71
3
 72
8
 73
4
 74
0
 40
0
 40
0
 40
0
 40
0
 40
1
 40
1
 40
1
 40
1
 10
133.965767
 20
125.429325
 30
0.0
 10
133.599589
 20
125.247303
 30
0.0
 10
133.424289
 20
124.794875
 30
0.0
 10
133.802103
 20
123.558866
 30
0.0
  0
LINE
  5
175
100
AcDbEntity
  8
Calque_1
 62
3
100
AcDbLine
 10
133.802103
 20
123.558866
 30
0.0
 11
133.802103
 21
123.558866
 31
0.0
  0
LINE
  5
176
100
AcDbEntity
  8
Calque_1
 62
4
100
AcDbLine
 10
123.399316
 20
116.259476
 30
0.0
 11
122.731163
 21
115.376397
 31
0.0
  0
SPLINE
  5
177
100
AcDbEntity
  8
Calque_1
 62
4
100
AcDbSpline
 70
8
 71
3
 72
8
 73
4
 74
0
 40
0
 40
0
 40
0
 40
0
 40
1
 40
1
 40
1
 40
1
 10
122.731163
 20
115.376397
 30
0.0
 10
122.472151
 20
116.396269
 30
0.0
 10
122.166377
 20
116.612505
 30
0.0
 10
121.907368
 20
117.043359
 30
0.0
  0
SPLINE
  5
178
100
AcDbEntity
  8
Calque_1
 62
4
100
AcDbSpline
 70
8
 71
3
 72
8
 73
4
 74
0
 40
0
 40
0
 40
0
 40
0
 40
1
 40
1
 40
1
 40
1
 10
121.907368
 20
117.043359
 30
0.0
 10
122.350205
 20
116.776532
 30
0.0
 10
122.851268
 20
116.481215
 30
0.0
 10
123.399316
 20
116.259476
 30
0.0
  0
LINE
  5
179
100
AcDbEntity
  8
Calque_1
 62
4
100
AcDbLine
 10
123.399316
 20
116.259476
 30
0.0
 11
123.399316
 21
116.259476
 31
0.0
  0
LINE
  5
17a
100
AcDbEntity
  8
Calque_1
 62
5
100
AcDbLine
 10
63.260729
 20
124.375975
 30
0.0
 11
63.244191
 21
124.871851
 31
0.0
  0
LINE
  5
17b
100
AcDbEntity
  8
Calque_1
 62
5
100
AcDbLine
 10
63.244191
 20
124.871851
 30
0.0
 11
68.280404
 21
124.871851
 31
0.0
  0
LINE
  5
17c
100
AcDbEntity
  8
Calque_1
 62
5
100
AcDbLine
 10
68.280404
 20
124.871851
 30
0.0
 11
68.280339
 21
124.375975
 31
0.0
  0
LINE
  5
17d
100
AcDbEntity
  8
Calque_1
 62
5
100
AcDbLine
 10
68.280339
 20
124.375975
 30
0.0
 11
66.016254
 21
124.375975
 31
0.0
  0
LINE
  5
17e
100
AcDbEntity
  8
Calque_1
 62
5
100
AcDbLine
 10
66.016254
 20
124.375975
 30
0.0
 11
65.999716
 21
118.750553
 31
0.0
  0
LINE
  5
17f
100
AcDbEntity
  8
Calque_1
 62
5
100
AcDbLine
 10
65.999716
 20
118.750553
 30
0.0
 11
65.446272
 21
118.750553
 31
0.0
  0
LINE
  5
180
100
AcDbEntity
  8
Calque_1
 62
5
100
AcDbLine
 10
65.446272
 20
118.750553
 30
0.0
 11
65.462810
 21
124.375975
 31
0.0
  0
LINE
  5
181
100
AcDbEntity
  8
Calque_1
 62
5
100
AcDbLine
 10
65.462810
 20
124.375975
 30
0.0
 11
63.260729
 21
124.375975
 31
0.0
  0
LINE
  5
182
100
AcDbEntity
  8
Calque_1
 62
5
100
AcDbLine
 10
69.866191
 20
124.871851
 30
0.0
 11
70.411368
 21
124.871851
 31
0.0
  0
LINE
  5
183
100
AcDbEntity
  8
Calque_1
 62
5
100
AcDbLine
 10
70.411368
 20
124.871851
 30
0.0
 11
70.411368
 21
122.064595
 31
0.0
  0
LINE
  5
184
100
AcDbEntity
  8
Calque_1
 62
5
100
AcDbLine
 10
70.411368
 20
122.064595
 30
0.0
 11
74.492914
 21
122.064595
 31
0.0
  0
LINE
  5
185
100
AcDbEntity
  8
Calque_1
 62
5
100
AcDbLine
 10
74.492914
 20
122.064595
 30
0.0
 11
74.492914
 21
124.871851
 31
0.0
  0
LINE
  5
186
100
AcDbEntity
  8
Calque_1
 62
5
100
AcDbLine
 10
74.492914
 20
124.871851
 30
0.0
 11
74.963695
 21
124.871851
 31
0.0
  0
LINE
  5
187
100
AcDbEntity
  8
Calque_1
 62
5
100
AcDbLine
 10
74.963695
 20
124.871851
 30
0.0
 11
74.963695
 21
118.750553
 31
0.0
  0
LINE
  5
188
100
AcDbEntity
  8
Calque_1
 62
5
100
AcDbLine
 10
74.963695
 20
118.750553
 30
0.0
 11
74.492914
 21
118.750553
 31
0.0
  0
LINE
  5
189
100
AcDbEntity
  8
Calque_1
 62
5
100
AcDbLine
 10
74.492914
 20
118.750553
 30
0.0
 11
74.492914
 21
121.564559
 31
0.0
  0
LINE
  5
18a
100
AcDbEntity
  8
Calque_1
 62
5
100
AcDbLine
 10
74.492914
 20
121.564559
 30
0.0
 11
70.411368
 21
121.564559
 31
0.0
  0
LINE
  5
18b
100
AcDbEntity
  8
Calque_1
 62
5
100
AcDbLine
 10
70.411368
 20
121.564559
 30
0.0
 11
70.411368
 21
118.750553
 31
0.0
  0
LINE
  5
18c
100
AcDbEntity
  8
Calque_1
 62
5
100
AcDbLine
 10
70.411368
 20
118.750553
 30
0.0
 11
69.866191
 21
118.750553
 31
0.0
  0
LINE
  5
18d
100
AcDbEntity
  8
Calque_1
 62
5
100
AcDbLine
 10
69.866191
 20
118.750553
 30
0.0
 11
69.866191
 21
124.871851
 31
0.0
  0
LINE
  5
18e
100
AcDbEntity
  8
Calque_1
 62
5
100
AcDbLine
 10
77.248365
 20
124.871851
 30
0.0
 11
80.531956
 21
124.871851
 31
0.0
  0
LINE
  5
18f
100
AcDbEntity
  8
Calque_1
 62
5
100
AcDbLine
 10
80.531956
 20
124.871851
 30
0.0
 11
80.531956
 21
124.384188
 31
0.0
  0
LINE
  5
190
100
AcDbEntity
  8
Calque_1
 62
5
100
AcDbLine
 10
80.531956
 20
124.384188
 30
0.0
 11
77.723283
 21
124.384188
 31
0.0
  0
LINE
  5
191
100
AcDbEntity
  8
Calque_1
 62
5
100
AcDbLine
 10
77.723283
 20
124.384188
 30
0.0
 11
77.723283
 21
121.924404
 31
0.0
  0
LINE
  5
192
100
AcDbEntity
  8
Calque_1
 62
5
100
AcDbLine
 10
77.723283
 20
121.924404
 30
0.0
 11
80.441044
 21
121.924404
 31
0.0
  0
LINE
  5
193
100
AcDbEntity
  8
Calque_1
 62
5
100
AcDbLine
 10
80.441044
 20
121.924404
 30
0.0
 11
80.441044
 21
121.531833
 31
0.0
  0
LINE
  5
194
100
AcDbEntity
  8
Calque_1
 62
5
100
AcDbLine
 10
80.441044
 20
121.531833
 30
0.0
 11
77.723283
 21
121.531833
 31
0.0
  0
LINE
  5
195
100
AcDbEntity
  8
Calque_1
 62
5
100
AcDbLine
 10
77.723283
 20
121.531833
 30
0.0
 11
77.723283
 21
119.130751
 31
0.0
  0
LINE
  5
196
100
AcDbEntity
  8
Calque_1
 62
5
100
AcDbLine
 10
77.723283
 20
119.130751
 30
0.0
 11
80.507174
 21
119.130751
 31
0.0
  0
LINE
  5
197
100
AcDbEntity
  8
Calque_1
 62
5
100
AcDbLine
 10
80.507174
 20
119.130751
 30
0.0
 11
80.507174
 21
118.750553
 31
0.0
  0
LINE
  5
198
100
AcDbEntity
  8
Calque_1
 62
5
100
AcDbLine
 10
80.507174
 20
118.750553
 30
0.0
 11
77.248365
 21
118.750553
 31
0.0
  0
LINE
  5
199
100
AcDbEntity
  8
Calque_1
 62
5
100
AcDbLine
 10
77.248365
 20
118.750553
 30
0.0
 11
77.248365
 21
124.871851
 31
0.0
  0
LINE
  5
19a
100
AcDbEntity
  8
Calque_1
 62
5
100
AcDbLine
 10
63.974181
 20
116.949266
 30
0.0
 11
67.681001
 21
116.949266
 31
0.0
  0
LINE
  5
19b
100
AcDbEntity
  8
Calque_1
 62
5
100
AcDbLine
 10
67.681001
 20
116.949266
 30
0.0
 11
67.681001
 21
107.374113
 31
0.0
  0
LINE
  5
19c
100
AcDbEntity
  8
Calque_1
 62
5
100
AcDbLine
 10
67.681001
 20
107.374113
 30
0.0
 11
73.312127
 21
107.374113
 31
0.0
  0
LINE
  5
19d
100
AcDbEntity
  8
Calque_1
 62
5
100
AcDbLine
 10
73.312127
 20
107.374113
 30
0.0
 11
73.312127
 21
104.565386
 31
0.0
  0
LINE
  5
19e
100
AcDbEntity
  8
Calque_1
 62
5
100
AcDbLine
 10
73.312127
 20
104.565386
 30
0.0
 11
63.974181
 21
104.565386
 31
0.0
  0
LINE
  5
19f
100
AcDbEntity
  8
Calque_1
 62
5
100
AcDbLine
 10
63.974181
 20
104.565386
 30
0.0
 11
63.974181
 21
116.949266
 31
0.0
  0
LINE
  5
1a0
100
AcDbEntity
  8
Calque_1
 62
5
100
AcDbLine
 10
75.618904
 20
116.949266
 30
0.0
 11
79.361812
 21
116.949266
 31
0.0
  0
LINE
  5
1a1
100
AcDbEntity
  8
Calque_1
 62
5
100
AcDbLine
 10
79.361812
 20
116.949266
 30
0.0
 11
79.361812
 21
104.565386
 31
0.0
  0
LINE
  5
1a2
100
AcDbEntity
  8
Calque_1
 62
5
100
AcDbLine
 10
79.361812
 20
104.565386
 30
0.0
 11
75.618904
 21
104.565386
 31
0.0
  0
LINE
  5
1a3
100
AcDbEntity
  8
Calque_1
 62
5
100
AcDbLine
 10
75.618904
 20
104.565386
 30
0.0
 11
75.618904
 21
116.949266
 31
0.0
  0
LINE
  5
1a4
100
AcDbEntity
  8
Calque_1
 62
5
100
AcDbLine
 10
82.460521
 20
104.565386
 30
0.0
 11
82.460521
 21
116.949266
 31
0.0
  0
LINE
  5
1a5
100
AcDbEntity
  8
Calque_1
 62
5
100
AcDbLine
 10
82.460521
 20
116.949266
 30
0.0
 11
85.885345
 21
116.949266
 31
0.0
  0
LINE
  5
1a6
100
AcDbEntity
  8
Calque_1
 62
5
100
AcDbLine
 10
85.885345
 20
116.949266
 30
0.0
 11
92.303256
 21
110.065460
 31
0.0
  0
LINE
  5
1a7
100
AcDbEntity
  8
Calque_1
 62
5
100
AcDbLine
 10
92.303256
 20
110.065460
 30
0.0
 11
92.303256
 21
116.949266
 31
0.0
  0
LINE
  5
1a8
100
AcDbEntity
  8
Calque_1
 62
5
100
AcDbLine
 10
92.303256
 20
116.949266
 30
0.0
 11
95.983134
 21
116.949266
 31
0.0
  0
LINE
  5
1a9
100
AcDbEntity
  8
Calque_1
 62
5
100
AcDbLine
 10
95.983134
 20
116.949266
 30
0.0
 11
95.983134
 21
104.565386
 31
0.0
  0
LINE
  5
1aa
100
AcDbEntity
  8
Calque_1
 62
5
100
AcDbLine
 10
95.983134
 20
104.565386
 30
0.0
 11
92.671674
 21
104.565386
 31
0.0
  0
LINE
  5
1ab
100
AcDbEntity
  8
Calque_1
 62
5
100
AcDbLine
 10
92.671674
 20
104.565386
 30
0.0
 11
86.233395
 21
111.513190
 31
0.0
  0
LINE
  5
1ac
100
AcDbEntity
  8
Calque_1
 62
5
100
AcDbLine
 10
86.233395
 20
111.513190
 30
0.0
 11
86.233395
 21
104.565386
 31
0.0
  0
LINE
  5
1ad
100
AcDbEntity
  8
Calque_1
 62
5
100
AcDbLine
 10
86.233395
 20
104.565386
 30
0.0
 11
82.460521
 21
104.565386
 31
0.0
  0
LINE
  5
1ae
100
AcDbEntity
  8
Calque_1
 62
5
100
AcDbLine
 10
99.018019
 20
116.949266
 30
0.0
 11
102.719237
 21
116.949266
 31
0.0
  0
LINE
  5
1af
100
AcDbEntity
  8
Calque_1
 62
5
100
AcDbLine
 10
102.719237
 20
116.949266
 30
0.0
 11
102.719237
 21
110.184383
 31
0.0
  0
SPLINE
  5
1b0
100
AcDbEntity
  8
Calque_1
 62
5
100
AcDbSpline
 70
8
 71
3
 72
8
 73
4
 74
0
 40
0
 40
0
 40
0
 40
0
 40
1
 40
1
 40
1
 40
1
 10
102.719237
 20
110.184383
 30
0.0
 10
102.839469
 20
106.279441
 30
0.0
 10
108.481580
 20
106.447216
 30
0.0
 10
108.404296
 20
110.184383
 30
0.0
  0
LINE
  5
1b1
100
AcDbEntity
  8
Calque_1
 62
5
100
AcDbLine
 10
108.404296
 20
110.184383
 30
0.0
 11
108.404296
 21
116.949266
 31
0.0
  0
LINE
  5
1b2
100
AcDbEntity
  8
Calque_1
 62
5
100
AcDbLine
 10
108.404296
 20
116.949266
 30
0.0
 11
112.105505
 21
116.949266
 31
0.0
  0
LINE
  5
1b3
100
AcDbEntity
  8
Calque_1
 62
5
100
AcDbLine
 10
112.105505
 20
116.949266
 30
0.0
 11
112.105505
 21
110.151318
 31
0.0
  0
SPLINE
  5
1b4
100
AcDbEntity
  8
Calque_1
 62
5
100
AcDbSpline
 70
8
 71
3
 72
8
 73
4
 74
0
 40
0
 40
0
 40
0
 40
0
 40
1
 40
1
 40
1
 40
1
 10
112.105505
 20
110.151318
 30
0.0
 10
112.147169
 20
106.453004
 30
0.0
 10
108.958126
 20
104.491478
 30
0.0
 10
105.705343
 20
104.433343
 30
0.0
  0
SPLINE
  5
1b5
100
AcDbEntity
  8
Calque_1
 62
5
100
AcDbSpline
 70
8
 71
3
 72
8
 73
4
 74
0
 40
0
 40
0
 40
0
 40
0
 40
1
 40
1
 40
1
 40
1
 10
105.705343
 20
104.433343
 30
0.0
 10
102.376738
 20
104.373851
 30
0.0
 10
98.998696
 20
106.275345
 30
0.0
 10
99.018019
 20
110.151318
 30
0.0
  0
LINE
  5
1b6
100
AcDbEntity
  8
Calque_1
 62
5
100
AcDbLine
 10
99.018019
 20
110.151318
 30
0.0
 11
99.018019
 21
116.949266
 31
0.0
  0
LINE
  5
1b7
100
AcDbEntity
  8
Calque_1
 62
5
100
AcDbLine
 10
113.943028
 20
116.910071
 30
0.0
 11
118.656489
 21
116.910071
 31
0.0
  0
LINE
  5
1b8
100
AcDbEntity
  8
Calque_1
 62
5
100
AcDbLine
 10
118.656489
 20
116.910071
 30
0.0
 11
121.265490
 21
113.517244
 31
0.0
  0
LINE
  5
1b9
100
AcDbEntity
  8
Calque_1
 62
5
100
AcDbLine
 10
121.265490
 20
113.517244
 30
0.0
 11
123.882410
 21
116.910071
 31
0.0
  0
LINE
  5
1ba
100
AcDbEntity
  8
Calque_1
 62
5
100
AcDbLine
 10
123.882410
 20
116.910071
 30
0.0
 11
128.585067
 21
116.910071
 31
0.0
  0
LINE
  5
1bb
100
AcDbEntity
  8
Calque_1
 62
5
100
AcDbLine
 10
128.585067
 20
116.910071
 30
0.0
 11
123.627608
 21
110.929523
 31
0.0
  0
LINE
  5
1bc
100
AcDbEntity
  8
Calque_1
 62
5
100
AcDbLine
 10
123.627608
 20
110.929523
 30
0.0
 11
128.981177
 21
104.571516
 31
0.0
  0
LINE
  5
1bd
100
AcDbEntity
  8
Calque_1
 62
5
100
AcDbLine
 10
128.981177
 20
104.571516
 30
0.0
 11
124.251184
 21
104.571516
 31
0.0
  0
LINE
  5
1be
100
AcDbEntity
  8
Calque_1
 62
5
100
AcDbLine
 10
124.251184
 20
104.571516
 30
0.0
 11
121.265490
 21
108.275423
 31
0.0
  0
LINE
  5
1bf
100
AcDbEntity
  8
Calque_1
 62
5
100
AcDbLine
 10
121.265490
 20
108.275423
 30
0.0
 11
118.219401
 21
104.571516
 31
0.0
  0
LINE
  5
1c0
100
AcDbEntity
  8
Calque_1
 62
5
100
AcDbLine
 10
118.219401
 20
104.571516
 30
0.0
 11
113.820073
 21
104.571516
 31
0.0
  0
LINE
  5
1c1
100
AcDbEntity
  8
Calque_1
 62
5
100
AcDbLine
 10
113.820073
 20
104.571516
 30
0.0
 11
119.002570
 21
110.929523
 31
0.0
  0
LINE
  5
1c2
100
AcDbEntity
  8
Calque_1
 62
5
100
AcDbLine
 10
119.002570
 20
110.929523
 30
0.0
 11
113.943028
 21
116.910071
 31
0.0
  0
LINE
  5
1c3
100
AcDbEntity
  8
Calque_1
 62
5
100
AcDbLine
 10
63.969877
 20
102.485141
 30
0.0
 11
66.955577
 21
102.485141
 31
0.0
  0
LINE
  5
1c4
100
AcDbEntity
  8
Calque_1
 62
5
100
AcDbLine
 10
66.955577
 20
102.485141
 30
0.0
 11
66.955577
 21
102.038798
 31
0.0
  0
LINE
  5
1c5
100
AcDbEntity
  8
Calque_1
 62
5
100
AcDbLine
 10
66.955577
 20
102.038798
 30
0.0
 11
64.403413
 21
102.038798
 31
0.0
  0
LINE
  5
1c6
100
AcDbEntity
  8
Calque_1
 62
5
100
AcDbLine
 10
64.403413
 20
102.038798
 30
0.0
 11
64.403413
 21
99.722038
 31
0.0
  0
LINE
  5
1c7
100
AcDbEntity
  8
Calque_1
 62
5
100
AcDbLine
 10
64.403413
 20
99.722038
 30
0.0
 11
66.745152
 21
99.722038
 31
0.0
  0
LINE
  5
1c8
100
AcDbEntity
  8
Calque_1
 62
5
100
AcDbLine
 10
66.745152
 20
99.722038
 30
0.0
 11
66.745152
 21
99.317394
 31
0.0
  0
LINE
  5
1c9
100
AcDbEntity
  8
Calque_1
 62
5
100
AcDbLine
 10
66.745152
 20
99.317394
 30
0.0
 11
64.403413
 21
99.317394
 31
0.0
  0
LINE
  5
1ca
100
AcDbEntity
  8
Calque_1
 62
5
100
AcDbLine
 10
64.403413
 20
99.317394
 30
0.0
 11
64.403413
 21
96.363831
 31
0.0
  0
LINE
  5
1cb
100
AcDbEntity
  8
Calque_1
 62
5
100
AcDbLine
 10
64.403413
 20
96.363831
 30
0.0
 11
63.969877
 21
96.363831
 31
0.0
  0
LINE
  5
1cc
100
AcDbEntity
  8
Calque_1
 62
5
100
AcDbLine
 10
63.969877
 20
96.363831
 30
0.0
 11
63.969877
 21
102.485141
 31
0.0
  0
SPLINE
  5
1cd
100
AcDbEntity
  8
Calque_1
 62
5
100
AcDbSpline
 70
8
 71
3
 72
8
 73
4
 74
0
 40
0
 40
0
 40
0
 40
0
 40
1
 40
1
 40
1
 40
1
 10
71.842647
 20
102.639107
 30
0.0
 10
72.762368
 20
102.639107
 30
0.0
 10
73.532012
 20
102.329781
 30
0.0
 10
74.151580
 20
101.711129
 30
0.0
  0
SPLINE
  5
1ce
100
AcDbEntity
  8
Calque_1
 62
5
100
AcDbSpline
 70
8
 71
3
 72
8
 73
4
 74
0
 40
0
 40
0
 40
0
 40
0
 40
1
 40
1
 40
1
 40
1
 10
74.151580
 20
101.711129
 30
0.0
 10
74.771150
 20
101.092477
 30
0.0
 10
75.080935
 20
100.330957
 30
0.0
 10
75.080935
 20
99.426568
 30
0.0
  0
SPLINE
  5
1cf
100
AcDbEntity
  8
Calque_1
 62
5
100
AcDbSpline
 70
8
 71
3
 72
8
 73
4
 74
0
 40
0
 40
0
 40
0
 40
0
 40
1
 40
1
 40
1
 40
1
 10
75.080935
 20
99.426568
 30
0.0
 10
75.080935
 20
98.530502
 30
0.0
 10
74.771150
 20
97.770371
 30
0.0
 10
74.151580
 20
97.146176
 30
0.0
  0
SPLINE
  5
1d0
100
AcDbEntity
  8
Calque_1
 62
5
100
AcDbSpline
 70
8
 71
3
 72
8
 73
4
 74
0
 40
0
 40
0
 40
0
 40
0
 40
1
 40
1
 40
1
 40
1
 10
74.151580
 20
97.146176
 30
0.0
 10
73.534765
 20
96.521968
 30
0.0
 10
72.781644
 20
96.209865
 30
0.0
 10
71.892216
 20
96.209865
 30
0.0
  0
SPLINE
  5
1d1
100
AcDbEntity
  8
Calque_1
 62
5
100
AcDbSpline
 70
8
 71
3
 72
8
 73
4
 74
0
 40
0
 40
0
 40
0
 40
0
 40
1
 40
1
 40
1
 40
1
 10
71.892216
 20
96.209865
 30
0.0
 10
70.991775
 20
96.209865
 30
0.0
 10
70.231770
 20
96.520580
 30
0.0
 10
69.612200
 20
97.142011
 30
0.0
  0
SPLINE
  5
1d2
100
AcDbEntity
  8
Calque_1
 62
5
100
AcDbSpline
 70
8
 71
3
 72
8
 73
4
 74
0
 40
0
 40
0
 40
0
 40
0
 40
1
 40
1
 40
1
 40
1
 10
69.612200
 20
97.142011
 30
0.0
 10
68.992630
 20
97.763426
 30
0.0
 10
68.682845
 20
98.515237
 30
0.0
 10
68.682845
 20
99.397443
 30
0.0
  0
SPLINE
  5
1d3
100
AcDbEntity
  8
Calque_1
 62
5
100
AcDbSpline
 70
8
 71
3
 72
8
 73
4
 74
0
 40
0
 40
0
 40
0
 40
0
 40
1
 40
1
 40
1
 40
1
 10
68.682845
 20
99.397443
 30
0.0
 10
68.682845
 20
99.985579
 30
0.0
 10
68.823280
 20
100.530707
 30
0.0
 10
69.104152
 20
101.032828
 30
0.0
  0
SPLINE
  5
1d4
100
AcDbEntity
  8
Calque_1
 62
5
100
AcDbSpline
 70
8
 71
3
 72
8
 73
4
 74
0
 40
0
 40
0
 40
0
 40
0
 40
1
 40
1
 40
1
 40
1
 10
69.104152
 20
101.032828
 30
0.0
 10
69.387777
 20
101.534961
 30
0.0
 10
69.773287
 20
101.927514
 30
0.0
 10
70.260681
 20
102.210485
 30
0.0
  0
SPLINE
  5
1d5
100
AcDbEntity
  8
Calque_1
 62
5
100
AcDbSpline
 70
8
 71
3
 72
8
 73
4
 74
0
 40
0
 40
0
 40
0
 40
0
 40
1
 40
1
 40
1
 40
1
 10
70.260681
 20
102.210485
 30
0.0
 10
70.748075
 20
102.496233
 30
0.0
 10
71.275397
 20
102.639107
 30
0.0
 10
71.842647
 20
102.639107
 30
0.0
  0
LINE
  5
1d6
100
AcDbEntity
  8
Calque_1
 62
5
100
AcDbLine
 10
71.842647
 20
102.639107
 30
0.0
 11
71.842647
 21
102.639107
 31
0.0
  0
SPLINE
  5
1d7
100
AcDbEntity
  8
Calque_1
 62
5
100
AcDbSpline
 70
8
 71
3
 72
8
 73
4
 74
0
 40
0
 40
0
 40
0
 40
0
 40
1
 40
1
 40
1
 40
1
 10
71.868724
 20
102.156044
 30
0.0
 10
71.391505
 20
102.156044
 30
0.0
 10
70.939174
 20
102.033002
 30
0.0
 10
70.511729
 20
101.786917
 30
0.0
  0
SPLINE
  5
1d8
100
AcDbEntity
  8
Calque_1
 62
5
100
AcDbSpline
 70
8
 71
3
 72
8
 73
4
 74
0
 40
0
 40
0
 40
0
 40
0
 40
1
 40
1
 40
1
 40
1
 10
70.511729
 20
101.786917
 30
0.0
 10
70.084283
 20
101.540831
 30
0.0
 10
69.750521
 20
101.209340
 30
0.0
 10
69.510444
 20
100.792445
 30
0.0
  0
SPLINE
  5
1d9
100
AcDbEntity
  8
Calque_1
 62
5
100
AcDbSpline
 70
8
 71
3
 72
8
 73
4
 74
0
 40
0
 40
0
 40
0
 40
0
 40
1
 40
1
 40
1
 40
1
 10
69.510444
 20
100.792445
 30
0.0
 10
69.270377
 20
100.375539
 30
0.0
 10
69.150343
 20
99.910865
 30
0.0
 10
69.150343
 20
99.398422
 30
0.0
  0
SPLINE
  5
1da
100
AcDbEntity
  8
Calque_1
 62
5
100
AcDbSpline
 70
8
 71
3
 72
8
 73
4
 74
0
 40
0
 40
0
 40
0
 40
0
 40
1
 40
1
 40
1
 40
1
 10
69.150343
 20
99.398422
 30
0.0
 10
69.150343
 20
98.639898
 30
0.0
 10
69.415302
 20
97.998625
 30
0.0
 10
69.945219
 20
97.474604
 30
0.0
  0
SPLINE
  5
1db
100
AcDbEntity
  8
Calque_1
 62
5
100
AcDbSpline
 70
8
 71
3
 72
8
 73
4
 74
0
 40
0
 40
0
 40
0
 40
0
 40
1
 40
1
 40
1
 40
1
 10
69.945219
 20
97.474604
 30
0.0
 10
70.478058
 20
96.953486
 30
0.0
 10
71.119226
 20
96.692927
 30
0.0
 10
71.868721
 20
96.692927
 30
0.0
  0
SPLINE
  5
1dc
100
AcDbEntity
  8
Calque_1
 62
5
100
AcDbSpline
 70
8
 71
3
 72
8
 73
4
 74
0
 40
0
 40
0
 40
0
 40
0
 40
1
 40
1
 40
1
 40
1
 10
71.868721
 20
96.692927
 30
0.0
 10
72.369361
 20
96.692927
 30
0.0
 10
72.831941
 20
96.813075
 30
0.0
 10
73.256462
 20
97.053370
 30
0.0
  0
SPLINE
  5
1dd
100
AcDbEntity
  8
Calque_1
 62
5
100
AcDbSpline
 70
8
 71
3
 72
8
 73
4
 74
0
 40
0
 40
0
 40
0
 40
0
 40
1
 40
1
 40
1
 40
1
 10
73.256462
 20
97.053370
 30
0.0
 10
73.683908
 20
97.293666
 30
0.0
 10
74.016202
 20
97.622267
 30
0.0
 10
74.253344
 20
98.039175
 30
0.0
  0
SPLINE
  5
1de
100
AcDbEntity
  8
Calque_1
 62
5
100
AcDbSpline
 70
8
 71
3
 72
8
 73
4
 74
0
 40
0
 40
0
 40
0
 40
0
 40
1
 40
1
 40
1
 40
1
 10
74.253344
 20
98.039175
 30
0.0
 10
74.493415
 20
98.456070
 30
0.0
 10
74.613451
 20
98.919288
 30
0.0
 10
74.613451
 20
99.428829
 30
0.0
  0
SPLINE
  5
1df
100
AcDbEntity
  8
Calque_1
 62
5
100
AcDbSpline
 70
8
 71
3
 72
8
 73
4
 74
0
 40
0
 40
0
 40
0
 40
0
 40
1
 40
1
 40
1
 40
1
 10
74.613451
 20
99.428829
 30
0.0
 10
74.613451
 20
99.935480
 30
0.0
 10
74.493415
 20
100.392913
 30
0.0
 10
74.253344
 20
100.801129
 30
0.0
  0
SPLINE
  5
1e0
100
AcDbEntity
  8
Calque_1
 62
5
100
AcDbSpline
 70
8
 71
3
 72
8
 73
4
 74
0
 40
0
 40
0
 40
0
 40
0
 40
1
 40
1
 40
1
 40
1
 10
74.253344
 20
100.801129
 30
0.0
 10
74.016202
 20
101.212235
 30
0.0
 10
73.680980
 20
101.540831
 30
0.0
 10
73.247679
 20
101.786917
 30
0.0
  0
SPLINE
  5
1e1
100
AcDbEntity
  8
Calque_1
 62
5
100
AcDbSpline
 70
8
 71
3
 72
8
 73
4
 74
0
 40
0
 40
0
 40
0
 40
0
 40
1
 40
1
 40
1
 40
1
 10
73.247679
 20
101.786917
 30
0.0
 10
72.814376
 20
102.033002
 30
0.0
 10
72.354723
 20
102.156044
 30
0.0
 10
71.868721
 20
102.156044
 30
0.0
  0
LINE
  5
1e2
100
AcDbEntity
  8
Calque_1
 62
5
100
AcDbLine
 10
71.868721
 20
102.156044
 30
0.0
 11
71.868724
 21
102.156044
 31
0.0
  0
LINE
  5
1e3
100
AcDbEntity
  8
Calque_1
 62
5
100
AcDbLine
 10
77.122068
 20
102.562114
 30
0.0
 11
77.696181
 21
102.562114
 31
0.0
  0
LINE
  5
1e4
100
AcDbEntity
  8
Calque_1
 62
5
100
AcDbLine
 10
77.696181
 20
102.562114
 30
0.0
 11
77.696181
 21
98.866868
 31
0.0
  0
SPLINE
  5
1e5
100
AcDbEntity
  8
Calque_1
 62
5
100
AcDbSpline
 70
8
 71
3
 72
8
 73
4
 74
0
 40
0
 40
0
 40
0
 40
0
 40
1
 40
1
 40
1
 40
1
 10
77.696181
 20
98.866868
 30
0.0
 10
77.671572
 20
95.870695
 30
0.0
 10
81.757040
 20
96.064306
 30
0.0
 10
81.777911
 20
98.866868
 30
0.0
  0
LINE
  5
1e6
100
AcDbEntity
  8
Calque_1
 62
5
100
AcDbLine
 10
81.777911
 20
98.866868
 30
0.0
 11
81.777911
 21
102.562114
 31
0.0
  0
LINE
  5
1e7
100
AcDbEntity
  8
Calque_1
 62
5
100
AcDbLine
 10
81.777911
 20
102.562114
 30
0.0
 11
82.277625
 21
102.562114
 31
0.0
  0
LINE
  5
1e8
100
AcDbEntity
  8
Calque_1
 62
5
100
AcDbLine
 10
82.277625
 20
102.562114
 30
0.0
 11
82.277625
 21
98.866868
 31
0.0
  0
SPLINE
  5
1e9
100
AcDbEntity
  8
Calque_1
 62
5
100
AcDbSpline
 70
8
 71
3
 72
8
 73
4
 74
0
 40
0
 40
0
 40
0
 40
0
 40
1
 40
1
 40
1
 40
1
 10
82.277625
 20
98.866868
 30
0.0
 10
82.270287
 20
95.404764
 30
0.0
 10
77.122091
 20
95.286905
 30
0.0
 10
77.122068
 20
98.866868
 30
0.0
  0
LINE
  5
1ea
100
AcDbEntity
  8
Calque_1
 62
5
100
AcDbLine
 10
77.122068
 20
98.866868
 30
0.0
 11
77.122068
 21
102.562114
 31
0.0
  0
LINE
  5
1eb
100
AcDbEntity
  8
Calque_1
 62
5
100
AcDbLine
 10
84.640107
 20
96.363831
 30
0.0
 11
84.640107
 21
102.485141
 31
0.0
  0
LINE
  5
1ec
100
AcDbEntity
  8
Calque_1
 62
5
100
AcDbLine
 10
84.640107
 20
102.485141
 30
0.0
 11
85.052507
 21
102.485141
 31
0.0
  0
LINE
  5
1ed
100
AcDbEntity
  8
Calque_1
 62
5
100
AcDbLine
 10
85.052507
 20
102.485141
 30
0.0
 11
89.521947
 21
97.237388
 31
0.0
  0
LINE
  5
1ee
100
AcDbEntity
  8
Calque_1
 62
5
100
AcDbLine
 10
89.521947
 20
97.237388
 30
0.0
 11
89.521947
 21
102.485141
 31
0.0
  0
LINE
  5
1ef
100
AcDbEntity
  8
Calque_1
 62
5
100
AcDbLine
 10
89.521947
 20
102.485141
 30
0.0
 11
90.096063
 21
102.485141
 31
0.0
  0
LINE
  5
1f0
100
AcDbEntity
  8
Calque_1
 62
5
100
AcDbLine
 10
90.096063
 20
102.485141
 30
0.0
 11
90.096063
 21
96.363831
 31
0.0
  0
LINE
  5
1f1
100
AcDbEntity
  8
Calque_1
 62
5
100
AcDbLine
 10
90.096063
 20
96.363831
 30
0.0
 11
89.653906
 21
96.363831
 31
0.0
  0
LINE
  5
1f2
100
AcDbEntity
  8
Calque_1
 62
5
100
AcDbLine
 10
89.653906
 20
96.363831
 30
0.0
 11
85.143111
 21
101.553330
 31
0.0
  0
LINE
  5
1f3
100
AcDbEntity
  8
Calque_1
 62
5
100
AcDbLine
 10
85.143111
 20
101.553330
 30
0.0
 11
85.143111
 21
96.363831
 31
0.0
  0
LINE
  5
1f4
100
AcDbEntity
  8
Calque_1
 62
5
100
AcDbLine
 10
85.143111
 20
96.363831
 30
0.0
 11
84.640107
 21
96.363831
 31
0.0
  0
LINE
  5
1f5
100
AcDbEntity
  8
Calque_1
 62
5
100
AcDbLine
 10
102.259692
 20
102.484937
 30
0.0
 11
105.071308
 21
96.364034
 31
0.0
  0
LINE
  5
1f6
100
AcDbEntity
  8
Calque_1
 62
5
100
AcDbLine
 10
105.071308
 20
96.364034
 30
0.0
 11
104.536308
 21
96.364034
 31
0.0
  0
LINE
  5
1f7
100
AcDbEntity
  8
Calque_1
 62
5
100
AcDbLine
 10
104.536308
 20
96.364034
 30
0.0
 11
103.556302
 21
98.485445
 31
0.0
  0
LINE
  5
1f8
100
AcDbEntity
  8
Calque_1
 62
5
100
AcDbLine
 10
103.556302
 20
98.485445
 30
0.0
 11
100.688778
 21
98.485445
 31
0.0
  0
LINE
  5
1f9
100
AcDbEntity
  8
Calque_1
 62
5
100
AcDbLine
 10
100.688778
 20
98.485445
 30
0.0
 11
99.696405
 21
96.364034
 31
0.0
  0
LINE
  5
1fa
100
AcDbEntity
  8
Calque_1
 62
5
100
AcDbLine
 10
99.696405
 20
96.364034
 30
0.0
 11
99.161179
 21
96.364034
 31
0.0
  0
LINE
  5
1fb
100
AcDbEntity
  8
Calque_1
 62
5
100
AcDbLine
 10
99.161179
 20
96.364034
 30
0.0
 11
101.985541
 21
102.493195
 31
0.0
  0
LINE
  5
1fc
100
AcDbEntity
  8
Calque_1
 62
5
100
AcDbLine
 10
101.985541
 20
102.493195
 30
0.0
 11
102.259692
 21
102.484937
 31
0.0
  0
LINE
  5
1fd
100
AcDbEntity
  8
Calque_1
 62
5
100
AcDbLine
 10
102.126748
 20
101.542146
 30
0.0
 11
100.955788
 21
98.985393
 31
0.0
  0
LINE
  5
1fe
100
AcDbEntity
  8
Calque_1
 62
5
100
AcDbLine
 10
100.955788
 20
98.985393
 30
0.0
 11
103.301727
 21
98.985393
 31
0.0
  0
LINE
  5
1ff
100
AcDbEntity
  8
Calque_1
 62
5
100
AcDbLine
 10
103.301727
 20
98.985393
 30
0.0
 11
102.126748
 21
101.542146
 31
0.0
  0
LINE
  5
200
100
AcDbEntity
  8
Calque_1
 62
5
100
AcDbLine
 10
112.156497
 20
102.485141
 30
0.0
 11
112.656214
 21
102.485141
 31
0.0
  0
LINE
  5
201
100
AcDbEntity
  8
Calque_1
 62
5
100
AcDbLine
 10
112.656214
 20
102.485141
 30
0.0
 11
112.656214
 21
96.363831
 31
0.0
  0
LINE
  5
202
100
AcDbEntity
  8
Calque_1
 62
5
100
AcDbLine
 10
112.656214
 20
96.363831
 30
0.0
 11
112.156497
 21
96.363831
 31
0.0
  0
LINE
  5
203
100
AcDbEntity
  8
Calque_1
 62
5
100
AcDbLine
 10
112.156497
 20
96.363831
 30
0.0
 11
112.156497
 21
102.485141
 31
0.0
  0
LINE
  5
204
100
AcDbEntity
  8
Calque_1
 62
5
100
AcDbLine
 10
123.521724
 20
96.366035
 30
0.0
 11
123.521724
 21
102.482936
 31
0.0
  0
LINE
  5
205
100
AcDbEntity
  8
Calque_1
 62
5
100
AcDbLine
 10
123.521724
 20
102.482936
 30
0.0
 11
123.895513
 21
102.466455
 31
0.0
  0
LINE
  5
206
100
AcDbEntity
  8
Calque_1
 62
5
100
AcDbLine
 10
123.895513
 20
102.466455
 30
0.0
 11
128.432219
 21
97.279935
 31
0.0
  0
LINE
  5
207
100
AcDbEntity
  8
Calque_1
 62
5
100
AcDbLine
 10
128.432219
 20
97.279935
 30
0.0
 11
128.432219
 21
102.482990
 31
0.0
  0
LINE
  5
208
100
AcDbEntity
  8
Calque_1
 62
5
100
AcDbLine
 10
128.432219
 20
102.482990
 30
0.0
 11
128.957581
 21
102.482990
 31
0.0
  0
LINE
  5
209
100
AcDbEntity
  8
Calque_1
 62
5
100
AcDbLine
 10
128.957581
 20
102.482990
 30
0.0
 11
128.957581
 21
96.366086
 31
0.0
  0
LINE
  5
20a
100
AcDbEntity
  8
Calque_1
 62
5
100
AcDbLine
 10
128.957581
 20
96.366086
 30
0.0
 11
128.529484
 21
96.366086
 31
0.0
  0
LINE
  5
20b
100
AcDbEntity
  8
Calque_1
 62
5
100
AcDbLine
 10
128.529484
 20
96.366086
 30
0.0
 11
124.055231
 21
101.461337
 31
0.0
  0
LINE
  5
20c
100
AcDbEntity
  8
Calque_1
 62
5
100
AcDbLine
 10
124.055231
 20
101.461337
 30
0.0
 11
124.055231
 21
96.366086
 31
0.0
  0
LINE
  5
20d
100
AcDbEntity
  8
Calque_1
 62
5
100
AcDbLine
 10
124.055231
 20
96.366086
 30
0.0
 11
123.521724
 21
96.366035
 31
0.0
  0
LINE
  5
20e
100
AcDbEntity
  8
Calque_1
 62
5
100
AcDbLine
 10
105.207844
 20
101.989268
 30
0.0
 11
105.191306
 21
102.485141
 31
0.0
  0
LINE
  5
20f
100
AcDbEntity
  8
Calque_1
 62
5
100
AcDbLine
 10
105.191306
 20
102.485141
 30
0.0
 11
110.227522
 21
102.485141
 31
0.0
  0
LINE
  5
210
100
AcDbEntity
  8
Calque_1
 62
5
100
AcDbLine
 10
110.227522
 20
102.485141
 30
0.0
 11
110.227454
 21
101.989268
 31
0.0
  0
LINE
  5
211
100
AcDbEntity
  8
Calque_1
 62
5
100
AcDbLine
 10
110.227454
 20
101.989268
 30
0.0
 11
107.963369
 21
101.989268
 31
0.0
  0
LINE
  5
212
100
AcDbEntity
  8
Calque_1
 62
5
100
AcDbLine
 10
107.963369
 20
101.989268
 30
0.0
 11
107.946831
 21
96.363831
 31
0.0
  0
LINE
  5
213
100
AcDbEntity
  8
Calque_1
 62
5
100
AcDbLine
 10
107.946831
 20
96.363831
 30
0.0
 11
107.393390
 21
96.363831
 31
0.0
  0
LINE
  5
214
100
AcDbEntity
  8
Calque_1
 62
5
100
AcDbLine
 10
107.393390
 20
96.363831
 30
0.0
 11
107.409928
 21
101.989268
 31
0.0
  0
LINE
  5
215
100
AcDbEntity
  8
Calque_1
 62
5
100
AcDbLine
 10
107.409928
 20
101.989268
 30
0.0
 11
105.207844
 21
101.989268
 31
0.0
  0
SPLINE
  5
216
100
AcDbEntity
  8
Calque_1
 62
5
100
AcDbSpline
 70
8
 71
3
 72
8
 73
4
 74
0
 40
0
 40
0
 40
0
 40
0
 40
1
 40
1
 40
1
 40
1
 10
118.051041
 20
102.639107
 30
0.0
 10
118.970760
 20
102.639107
 30
0.0
 10
119.740404
 20
102.329781
 30
0.0
 10
120.359974
 20
101.711129
 30
0.0
  0
SPLINE
  5
217
100
AcDbEntity
  8
Calque_1
 62
5
100
AcDbSpline
 70
8
 71
3
 72
8
 73
4
 74
0
 40
0
 40
0
 40
0
 40
0
 40
1
 40
1
 40
1
 40
1
 10
120.359974
 20
101.711129
 30
0.0
 10
120.979544
 20
101.092477
 30
0.0
 10
121.289329
 20
100.330957
 30
0.0
 10
121.289329
 20
99.426568
 30
0.0
  0
SPLINE
  5
218
100
AcDbEntity
  8
Calque_1
 62
5
100
AcDbSpline
 70
8
 71
3
 72
8
 73
4
 74
0
 40
0
 40
0
 40
0
 40
0
 40
1
 40
1
 40
1
 40
1
 10
121.289329
 20
99.426568
 30
0.0
 10
121.289329
 20
98.530502
 30
0.0
 10
120.979544
 20
97.770371
 30
0.0
 10
120.359974
 20
97.146176
 30
0.0
  0
SPLINE
  5
219
100
AcDbEntity
  8
Calque_1
 62
5
100
AcDbSpline
 70
8
 71
3
 72
8
 73
4
 74
0
 40
0
 40
0
 40
0
 40
0
 40
1
 40
1
 40
1
 40
1
 10
120.359974
 20
97.146176
 30
0.0
 10
119.743157
 20
96.521968
 30
0.0
 10
118.990036
 20
96.209865
 30
0.0
 10
118.100610
 20
96.209865
 30
0.0
  0
SPLINE
  5
21a
100
AcDbEntity
  8
Calque_1
 62
5
100
AcDbSpline
 70
8
 71
3
 72
8
 73
4
 74
0
 40
0
 40
0
 40
0
 40
0
 40
1
 40
1
 40
1
 40
1
 10
118.100610
 20
96.209865
 30
0.0
 10
117.200169
 20
96.209865
 30
0.0
 10
116.440164
 20
96.520580
 30
0.0
 10
115.820594
 20
97.142011
 30
0.0
  0
SPLINE
  5
21b
100
AcDbEntity
  8
Calque_1
 62
5
100
AcDbSpline
 70
8
 71
3
 72
8
 73
4
 74
0
 40
0
 40
0
 40
0
 40
0
 40
1
 40
1
 40
1
 40
1
 10
115.820594
 20
97.142011
 30
0.0
 10
115.201024
 20
97.763426
 30
0.0
 10
114.891239
 20
98.515237
 30
0.0
 10
114.891239
 20
99.397443
 30
0.0
  0
SPLINE
  5
21c
100
AcDbEntity
  8
Calque_1
 62
5
100
AcDbSpline
 70
8
 71
3
 72
8
 73
4
 74
0
 40
0
 40
0
 40
0
 40
0
 40
1
 40
1
 40
1
 40
1
 10
114.891239
 20
99.397443
 30
0.0
 10
114.891239
 20
99.985579
 30
0.0
 10
115.031674
 20
100.530707
 30
0.0
 10
115.312546
 20
101.032828
 30
0.0
  0
SPLINE
  5
21d
100
AcDbEntity
  8
Calque_1
 62
5
100
AcDbSpline
 70
8
 71
3
 72
8
 73
4
 74
0
 40
0
 40
0
 40
0
 40
0
 40
1
 40
1
 40
1
 40
1
 10
115.312546
 20
101.032828
 30
0.0
 10
115.596171
 20
101.534961
 30
0.0
 10
115.981681
 20
101.927514
 30
0.0
 10
116.469075
 20
102.210485
 30
0.0
  0
SPLINE
  5
21e
100
AcDbEntity
  8
Calque_1
 62
5
100
AcDbSpline
 70
8
 71
3
 72
8
 73
4
 74
0
 40
0
 40
0
 40
0
 40
0
 40
1
 40
1
 40
1
 40
1
 10
116.469075
 20
102.210485
 30
0.0
 10
116.956469
 20
102.496233
 30
0.0
 10
117.483791
 20
102.639107
 30
0.0
 10
118.051041
 20
102.639107
 30
0.0
  0
LINE
  5
21f
100
AcDbEntity
  8
Calque_1
 62
5
100
AcDbLine
 10
118.051041
 20
102.639107
 30
0.0
 11
118.051041
 21
102.639107
 31
0.0
  0
SPLINE
  5
220
100
AcDbEntity
  8
Calque_1
 62
5
100
AcDbSpline
 70
8
 71
3
 72
8
 73
4
 74
0
 40
0
 40
0
 40
0
 40
0
 40
1
 40
1
 40
1
 40
1
 10
118.077118
 20
102.156044
 30
0.0
 10
117.599899
 20
102.156044
 30
0.0
 10
117.147568
 20
102.033002
 30
0.0
 10
116.720123
 20
101.786917
 30
0.0
  0
SPLINE
  5
221
100
AcDbEntity
  8
Calque_1
 62
5
100
AcDbSpline
 70
8
 71
3
 72
8
 73
4
 74
0
 40
0
 40
0
 40
0
 40
0
 40
1
 40
1
 40
1
 40
1
 10
116.720123
 20
101.786917
 30
0.0
 10
116.292675
 20
101.540831
 30
0.0
 10
115.958914
 20
101.209340
 30
0.0
 10
115.718838
 20
100.792445
 30
0.0
  0
SPLINE
  5
222
100
AcDbEntity
  8
Calque_1
 62
5
100
AcDbSpline
 70
8
 71
3
 72
8
 73
4
 74
0
 40
0
 40
0
 40
0
 40
0
 40
1
 40
1
 40
1
 40
1
 10
115.718838
 20
100.792445
 30
0.0
 10
115.478769
 20
100.375539
 30
0.0
 10
115.358734
 20
99.910865
 30
0.0
 10
115.358734
 20
99.398422
 30
0.0
  0
SPLINE
  5
223
100
AcDbEntity
  8
Calque_1
 62
5
100
AcDbSpline
 70
8
 71
3
 72
8
 73
4
 74
0
 40
0
 40
0
 40
0
 40
0
 40
1
 40
1
 40
1
 40
1
 10
115.358734
 20
99.398422
 30
0.0
 10
115.358734
 20
98.639898
 30
0.0
 10
115.623693
 20
97.998625
 30
0.0
 10
116.153610
 20
97.474604
 30
0.0
  0
SPLINE
  5
224
100
AcDbEntity
  8
Calque_1
 62
5
100
AcDbSpline
 70
8
 71
3
 72
8
 73
4
 74
0
 40
0
 40
0
 40
0
 40
0
 40
1
 40
1
 40
1
 40
1
 10
116.153610
 20
97.474604
 30
0.0
 10
116.686451
 20
96.953486
 30
0.0
 10
117.327620
 20
96.692927
 30
0.0
 10
118.077115
 20
96.692927
 30
0.0
  0
SPLINE
  5
225
100
AcDbEntity
  8
Calque_1
 62
5
100
AcDbSpline
 70
8
 71
3
 72
8
 73
4
 74
0
 40
0
 40
0
 40
0
 40
0
 40
1
 40
1
 40
1
 40
1
 10
118.077115
 20
96.692927
 30
0.0
 10
118.577755
 20
96.692927
 30
0.0
 10
119.040334
 20
96.813075
 30
0.0
 10
119.464853
 20
97.053370
 30
0.0
  0
SPLINE
  5
226
100
AcDbEntity
  8
Calque_1
 62
5
100
AcDbSpline
 70
8
 71
3
 72
8
 73
4
 74
0
 40
0
 40
0
 40
0
 40
0
 40
1
 40
1
 40
1
 40
1
 10
119.464853
 20
97.053370
 30
0.0
 10
119.892299
 20
97.293666
 30
0.0
 10
120.224594
 20
97.622267
 30
0.0
 10
120.461738
 20
98.039175
 30
0.0
  0
SPLINE
  5
227
100
AcDbEntity
  8
Calque_1
 62
5
100
AcDbSpline
 70
8
 71
3
 72
8
 73
4
 74
0
 40
0
 40
0
 40
0
 40
0
 40
1
 40
1
 40
1
 40
1
 10
120.461738
 20
98.039175
 30
0.0
 10
120.701809
 20
98.456070
 30
0.0
 10
120.821845
 20
98.919288
 30
0.0
 10
120.821845
 20
99.428829
 30
0.0
  0
SPLINE
  5
228
100
AcDbEntity
  8
Calque_1
 62
5
100
AcDbSpline
 70
8
 71
3
 72
8
 73
4
 74
0
 40
0
 40
0
 40
0
 40
0
 40
1
 40
1
 40
1
 40
1
 10
120.821845
 20
99.428829
 30
0.0
 10
120.821845
 20
99.935480
 30
0.0
 10
120.701809
 20
100.392913
 30
0.0
 10
120.461738
 20
100.801129
 30
0.0
  0
SPLINE
  5
229
100
AcDbEntity
  8
Calque_1
 62
5
100
AcDbSpline
 70
8
 71
3
 72
8
 73
4
 74
0
 40
0
 40
0
 40
0
 40
0
 40
1
 40
1
 40
1
 40
1
 10
120.461738
 20
100.801129
 30
0.0
 10
120.224594
 20
101.212235
 30
0.0
 10
119.889372
 20
101.540831
 30
0.0
 10
119.456070
 20
101.786917
 30
0.0
  0
SPLINE
  5
22a
100
AcDbEntity
  8
Calque_1
 62
5
100
AcDbSpline
 70
8
 71
3
 72
8
 73
4
 74
0
 40
0
 40
0
 40
0
 40
0
 40
1
 40
1
 40
1
 40
1
 10
119.456070
 20
101.786917
 30
0.0
 10
119.022769
 20
102.033002
 30
0.0
 10
118.563117
 20
102.156044
 30
0.0
 10
118.077115
 20
102.156044
 30
0.0
  0
LINE
  5
22b
100
AcDbEntity
  8
Calque_1
 62
5
100
AcDbLine
 10
118.077115
 20
102.156044
 30
0.0
 11
118.077118
 21
102.156044
 31
0.0
  0
SPLINE
  5
22c
100
AcDbEntity
  8
Calque_1
 62
5
100
AcDbSpline
 70
8
 71
3
 72
8
 73
4
 74
0
 40
0
 40
0
 40
0
 40
0
 40
1
 40
1
 40
1
 40
1
 10
94.600217
 20
102.424796
 30
0.0
 10
95.519937
 20
102.424796
 30
0.0
 10
96.289577
 20
102.329786
 30
0.0
 10
96.909151
 20
101.711129
 30
0.0
  0
SPLINE
  5
22d
100
AcDbEntity
  8
Calque_1
 62
5
100
AcDbSpline
 70
8
 71
3
 72
8
 73
4
 74
0
 40
0
 40
0
 40
0
 40
0
 40
1
 40
1
 40
1
 40
1
 10
96.909151
 20
101.711129
 30
0.0
 10
97.528719
 20
101.092490
 30
0.0
 10
97.838503
 20
100.330958
 30
0.0
 10
97.838503
 20
99.426568
 30
0.0
  0
SPLINE
  5
22e
100
AcDbEntity
  8
Calque_1
 62
5
100
AcDbSpline
 70
8
 71
3
 72
8
 73
4
 74
0
 40
0
 40
0
 40
0
 40
0
 40
1
 40
1
 40
1
 40
1
 10
97.838503
 20
99.426568
 30
0.0
 10
97.838503
 20
98.530496
 30
0.0
 10
97.528719
 20
97.770370
 30
0.0
 10
96.909151
 20
97.146176
 30
0.0
  0
SPLINE
  5
22f
100
AcDbEntity
  8
Calque_1
 62
5
100
AcDbSpline
 70
8
 71
3
 72
8
 73
4
 74
0
 40
0
 40
0
 40
0
 40
0
 40
1
 40
1
 40
1
 40
1
 10
96.909151
 20
97.146176
 30
0.0
 10
96.292331
 20
96.521963
 30
0.0
 10
95.552991
 20
96.363701
 30
0.0
 10
94.649784
 20
96.363701
 30
0.0
  0
LINE
  5
230
100
AcDbEntity
  8
Calque_1
 62
5
100
AcDbLine
 10
94.649784
 20
96.363701
 30
0.0
 11
92.542035
 21
96.363701
 31
0.0
  0
LINE
  5
231
100
AcDbEntity
  8
Calque_1
 62
5
100
AcDbLine
 10
92.542035
 20
96.363701
 30
0.0
 11
92.542035
 21
102.424796
 31
0.0
  0
LINE
  5
232
100
AcDbEntity
  8
Calque_1
 62
5
100
AcDbLine
 10
92.542035
 20
102.424796
 30
0.0
 11
94.600217
 21
102.424796
 31
0.0
  0
LINE
  5
233
100
AcDbEntity
  8
Calque_1
 62
5
100
AcDbLine
 10
94.626295
 20
101.971490
 30
0.0
 11
92.986042
 21
101.971490
 31
0.0
  0
LINE
  5
234
100
AcDbEntity
  8
Calque_1
 62
5
100
AcDbLine
 10
92.986042
 20
101.971490
 30
0.0
 11
92.986042
 21
96.779824
 31
0.0
  0
LINE
  5
235
100
AcDbEntity
  8
Calque_1
 62
5
100
AcDbLine
 10
92.986042
 20
96.779824
 30
0.0
 11
94.626292
 21
96.779824
 31
0.0
  0
SPLINE
  5
236
100
AcDbEntity
  8
Calque_1
 62
5
100
AcDbSpline
 70
8
 71
3
 72
8
 73
4
 74
0
 40
0
 40
0
 40
0
 40
0
 40
1
 40
1
 40
1
 40
1
 10
94.626292
 20
96.779824
 30
0.0
 10
95.126931
 20
96.779824
 30
0.0
 10
95.589508
 20
96.813081
 30
0.0
 10
96.014029
 20
97.053370
 30
0.0
  0
SPLINE
  5
237
100
AcDbEntity
  8
Calque_1
 62
5
100
AcDbSpline
 70
8
 71
3
 72
8
 73
4
 74
0
 40
0
 40
0
 40
0
 40
0
 40
1
 40
1
 40
1
 40
1
 10
96.014029
 20
97.053370
 30
0.0
 10
96.441474
 20
97.293660
 30
0.0
 10
96.773771
 20
97.622274
 30
0.0
 10
97.010911
 20
98.039175
 30
0.0
  0
SPLINE
  5
238
100
AcDbEntity
  8
Calque_1
 62
5
100
AcDbSpline
 70
8
 71
3
 72
8
 73
4
 74
0
 40
0
 40
0
 40
0
 40
0
 40
1
 40
1
 40
1
 40
1
 10
97.010911
 20
98.039175
 30
0.0
 10
97.250984
 20
98.456057
 30
0.0
 10
97.371021
 20
98.919288
 30
0.0
 10
97.371021
 20
99.428829
 30
0.0
  0
SPLINE
  5
239
100
AcDbEntity
  8
Calque_1
 62
5
100
AcDbSpline
 70
8
 71
3
 72
8
 73
4
 74
0
 40
0
 40
0
 40
0
 40
0
 40
1
 40
1
 40
1
 40
1
 10
97.371021
 20
99.428829
 30
0.0
 10
97.371021
 20
99.935480
 30
0.0
 10
97.250984
 20
100.392914
 30
0.0
 10
97.010911
 20
100.801129
 30
0.0
  0
SPLINE
  5
23a
100
AcDbEntity
  8
Calque_1
 62
5
100
AcDbSpline
 70
8
 71
3
 72
8
 73
4
 74
0
 40
0
 40
0
 40
0
 40
0
 40
1
 40
1
 40
1
 40
1
 10
97.010911
 20
100.801129
 30
0.0
 10
96.773771
 20
101.212236
 30
0.0
 10
96.438548
 20
101.540831
 30
0.0
 10
96.005246
 20
101.786917
 30
0.0
  0
SPLINE
  5
23b
100
AcDbEntity
  8
Calque_1
 62
5
100
AcDbSpline
 70
8
 71
3
 72
8
 73
4
 74
0
 40
0
 40
0
 40
0
 40
0
 40
1
 40
1
 40
1
 40
1
 10
96.005246
 20
101.786917
 30
0.0
 10
95.571942
 20
102.033004
 30
0.0
 10
94.626295
 20
101.971490
 30
0.0
 10
94.626295
 20
101.971490
 30
0.0
  0
LINE
  5
23c
100
AcDbEntity
  8
Calque_1
 62
5
100
AcDbLine
 10
94.626295
 20
101.971490
 30
0.0
 11
94.626295
 21
101.971490
 31
0.0
  0
LINE
  5
23d
100
AcDbEntity
  8
Calque_1
 62
3
100
AcDbLine
 10
112.069756
 20
114.440379
 30
0.0
 11
112.081440
 21
113.996144
 31
0.0
  0
SPLINE
  5
23e
100
AcDbEntity
  8
Calque_1
 62
3
100
AcDbSpline
 70
8
 71
3
 72
8
 73
4
 74
0
 40
0
 40
0
 40
0
 40
0
 40
1
 40
1
 40
1
 40
1
 10
112.081440
 20
113.996144
 30
0.0
 10
113.557792
 20
114.055106
 30
0.0
 10
115.390038
 20
113.724260
 30
0.0
 10
117.423929
 20
112.792037
 30
0.0
  0
LINE
  5
23f
100
AcDbEntity
  8
Calque_1
 62
3
100
AcDbLine
 10
117.423929
 20
112.792037
 30
0.0
 11
116.839413
 21
113.505148
 31
0.0
  0
SPLINE
  5
240
100
AcDbEntity
  8
Calque_1
 62
3
100
AcDbSpline
 70
8
 71
3
 72
8
 73
4
 74
0
 40
0
 40
0
 40
0
 40
0
 40
1
 40
1
 40
1
 40
1
 10
116.839413
 20
113.505148
 30
0.0
 10
115.614927
 20
114.234238
 30
0.0
 10
113.711776
 20
114.307777
 30
0.0
 10
112.069750
 20
114.440379
 30
0.0
  0
LINE
  5
241
100
AcDbEntity
  8
Calque_1
 62
3
100
AcDbLine
 10
112.069750
 20
114.440379
 30
0.0
 11
112.069756
 21
114.440379
 31
0.0
  0
SPLINE
  5
242
100
AcDbEntity
  8
Calque_1
 62
3
100
AcDbSpline
 70
8
 71
3
 72
8
 73
4
 74
0
 40
0
 40
0
 40
0
 40
0
 40
1
 40
1
 40
1
 40
1
 10
111.695665
 20
121.361077
 30
0.0
 10
111.322189
 20
121.272022
 30
0.0
 10
110.702273
 20
120.334866
 30
0.0
 10
110.840610
 20
119.317100
 30
0.0
  0
SPLINE
  5
243
100
AcDbEntity
  8
Calque_1
 62
3
100
AcDbSpline
 70
8
 71
3
 72
8
 73
4
 74
0
 40
0
 40
0
 40
0
 40
0
 40
1
 40
1
 40
1
 40
1
 10
110.840610
 20
119.317100
 30
0.0
 10
110.833696
 20
118.489635
 30
0.0
 10
111.316028
 20
117.509345
 30
0.0
 10
110.890016
 20
116.986684
 30
0.0
  0
LINE
  5
244
100
AcDbEntity
  8
Calque_1
 62
3
100
AcDbLine
 10
110.890016
 20
116.986684
 30
0.0
 11
110.456489
 21
116.988941
 31
0.0
  0
SPLINE
  5
245
100
AcDbEntity
  8
Calque_1
 62
3
100
AcDbSpline
 70
8
 71
3
 72
8
 73
4
 74
0
 40
0
 40
0
 40
0
 40
0
 40
1
 40
1
 40
1
 40
1
 10
110.456489
 20
116.988941
 30
0.0
 10
111.022133
 20
118.364710
 30
0.0
 10
110.149922
 20
119.634964
 30
0.0
 10
110.585083
 20
120.671405
 30
0.0
  0
SPLINE
  5
246
100
AcDbEntity
  8
Calque_1
 62
3
100
AcDbSpline
 70
8
 71
3
 72
8
 73
4
 74
0
 40
0
 40
0
 40
0
 40
0
 40
1
 40
1
 40
1
 40
1
 10
110.585083
 20
120.671405
 30
0.0
 10
110.766471
 20
121.109555
 30
0.0
 10
111.112416
 20
121.492127
 30
0.0
 10
111.602430
 20
121.642498
 30
0.0
  0
SPLINE
  5
247
100
AcDbEntity
  8
Calque_1
 62
3
100
AcDbSpline
 70
8
 71
3
 72
8
 73
4
 74
0
 40
0
 40
0
 40
0
 40
0
 40
1
 40
1
 40
1
 40
1
 10
111.602430
 20
121.642498
 30
0.0
 10
112.199649
 20
121.825767
 30
0.0
 10
112.813428
 20
122.030020
 30
0.0
 10
113.238791
 20
122.401583
 30
0.0
  0
SPLINE
  5
248
100
AcDbEntity
  8
Calque_1
 62
3
100
AcDbSpline
 70
8
 71
3
 72
8
 73
4
 74
0
 40
0
 40
0
 40
0
 40
0
 40
1
 40
1
 40
1
 40
1
 10
113.238791
 20
122.401583
 30
0.0
 10
114.087986
 20
123.099504
 30
0.0
 10
114.212232
 20
124.422381
 30
0.0
 10
115.687915
 20
124.400633
 30
0.0
  0
SPLINE
  5
249
100
AcDbEntity
  8
Calque_1
 62
3
100
AcDbSpline
 70
8
 71
3
 72
8
 73
4
 74
0
 40
0
 40
0
 40
0
 40
0
 40
1
 40
1
 40
1
 40
1
 10
115.687915
 20
124.400633
 30
0.0
 10
114.426831
 20
124.213985
 30
0.0
 10
114.165586
 20
121.950069
 30
0.0
 10
111.695665
 20
121.361136
 30
0.0
  0
LINE
  5
24a
100
AcDbEntity
  8
Calque_1
 62
3
100
AcDbLine
 10
111.695665
 20
121.361136
 30
0.0
 11
111.695665
 21
121.361077
 31
0.0
  0
SPLINE
  5
24b
100
AcDbEntity
  8
Calque_1
 62
3
100
AcDbSpline
 70
8
 71
3
 72
8
 73
4
 74
0
 40
0
 40
0
 40
0
 40
0
 40
1
 40
1
 40
1
 40
1
 10
132.935607
 20
124.627246
 30
0.0
 10
130.991686
 20
124.456702
 30
0.0
 10
131.217791
 20
120.492157
 30
0.0
 10
131.106017
 20
119.228389
 30
0.0
  0
SPLINE
  5
24c
100
AcDbEntity
  8
Calque_1
 62
3
100
AcDbSpline
 70
8
 71
3
 72
8
 73
4
 74
0
 40
0
 40
0
 40
0
 40
0
 40
1
 40
1
 40
1
 40
1
 10
131.106017
 20
119.228389
 30
0.0
 10
131.066379
 20
118.780262
 30
0.0
 10
130.991872
 20
118.223593
 30
0.0
 10
130.816878
 20
117.680132
 30
0.0
  0
SPLINE
  5
24d
100
AcDbEntity
  8
Calque_1
 62
3
100
AcDbSpline
 70
8
 71
3
 72
8
 73
4
 74
0
 40
0
 40
0
 40
0
 40
0
 40
1
 40
1
 40
1
 40
1
 10
130.816878
 20
117.680132
 30
0.0
 10
130.432325
 20
116.760076
 30
0.0
 10
130.290864
 20
115.998508
 30
0.0
 10
130.245098
 20
115.416433
 30
0.0
  0
SPLINE
  5
24e
100
AcDbEntity
  8
Calque_1
 62
3
100
AcDbSpline
 70
8
 71
3
 72
8
 73
4
 74
0
 40
0
 40
0
 40
0
 40
0
 40
1
 40
1
 40
1
 40
1
 10
130.245098
 20
115.416433
 30
0.0
 10
129.942796
 20
111.571700
 30
0.0
 10
134.056295
 20
111.050433
 30
0.0
 10
135.814339
 20
112.830772
 30
0.0
  0
SPLINE
  5
24f
100
AcDbEntity
  8
Calque_1
 62
3
100
AcDbSpline
 70
8
 71
3
 72
8
 73
4
 74
0
 40
0
 40
0
 40
0
 40
0
 40
1
 40
1
 40
1
 40
1
 10
135.814339
 20
112.830772
 30
0.0
 10
138.696359
 20
115.749339
 30
0.0
 10
139.394382
 20
115.531622
 30
0.0
 10
141.236703
 20
116.599678
 30
0.0
  0
SPLINE
  5
250
100
AcDbEntity
  8
Calque_1
 62
3
100
AcDbSpline
 70
8
 71
3
 72
8
 73
4
 74
0
 40
0
 40
0
 40
0
 40
0
 40
1
 40
1
 40
1
 40
1
 10
141.236703
 20
116.599678
 30
0.0
 10
142.722961
 20
117.461311
 30
0.0
 10
141.624806
 20
118.936737
 30
0.0
 10
140.725113
 20
119.846159
 30
0.0
  0
SPLINE
  5
251
100
AcDbEntity
  8
Calque_1
 62
3
100
AcDbSpline
 70
8
 71
3
 72
8
 73
4
 74
0
 40
0
 40
0
 40
0
 40
0
 40
1
 40
1
 40
1
 40
1
 10
140.725113
 20
119.846159
 30
0.0
 10
139.930022
 20
120.787723
 30
0.0
 10
140.662756
 20
123.474095
 30
0.0
 10
137.719714
 20
123.707275
 30
0.0
  0
LINE
  5
252
100
AcDbEntity
  8
Calque_1
 62
3
100
AcDbLine
 10
137.719714
 20
123.707275
 30
0.0
 11
137.629293
 21
123.346050
 31
0.0
  0
SPLINE
  5
253
100
AcDbEntity
  8
Calque_1
 62
3
100
AcDbSpline
 70
8
 71
3
 72
8
 73
4
 74
0
 40
0
 40
0
 40
0
 40
0
 40
1
 40
1
 40
1
 40
1
 10
137.629293
 20
123.346050
 30
0.0
 10
140.267306
 20
123.271485
 30
0.0
 10
139.539478
 20
120.974134
 30
0.0
 10
140.222647
 20
119.800414
 30
0.0
  0
SPLINE
  5
254
100
AcDbEntity
  8
Calque_1
 62
3
100
AcDbSpline
 70
8
 71
3
 72
8
 73
4
 74
0
 40
0
 40
0
 40
0
 40
0
 40
1
 40
1
 40
1
 40
1
 10
140.222647
 20
119.800414
 30
0.0
 10
141.033026
 20
118.963752
 30
0.0
 10
142.153716
 20
117.676274
 30
0.0
 10
140.645969
 20
116.719515
 30
0.0
  0
SPLINE
  5
255
100
AcDbEntity
  8
Calque_1
 62
3
100
AcDbSpline
 70
8
 71
3
 72
8
 73
4
 74
0
 40
0
 40
0
 40
0
 40
0
 40
1
 40
1
 40
1
 40
1
 10
140.645969
 20
116.719515
 30
0.0
 10
138.842781
 20
116.066600
 30
0.0
 10
138.342469
 20
115.921176
 30
0.0
 10
135.788355
 20
113.457695
 30
0.0
  0
SPLINE
  5
256
100
AcDbEntity
  8
Calque_1
 62
3
100
AcDbSpline
 70
8
 71
3
 72
8
 73
4
 74
0
 40
0
 40
0
 40
0
 40
0
 40
1
 40
1
 40
1
 40
1
 10
135.788355
 20
113.457695
 30
0.0
 10
133.969328
 20
111.703213
 30
0.0
 10
130.317886
 20
112.163517
 30
0.0
 10
130.766481
 20
115.730606
 30
0.0
  0
SPLINE
  5
257
100
AcDbEntity
  8
Calque_1
 62
3
100
AcDbSpline
 70
8
 71
3
 72
8
 73
4
 74
0
 40
0
 40
0
 40
0
 40
0
 40
1
 40
1
 40
1
 40
1
 10
130.766481
 20
115.730606
 30
0.0
 10
130.835987
 20
116.283293
 30
0.0
 10
131.142034
 20
117.058111
 30
0.0
 10
131.381023
 20
117.815615
 30
0.0
  0
SPLINE
  5
258
100
AcDbEntity
  8
Calque_1
 62
3
100
AcDbSpline
 70
8
 71
3
 72
8
 73
4
 74
0
 40
0
 40
0
 40
0
 40
0
 40
1
 40
1
 40
1
 40
1
 10
131.381023
 20
117.815615
 30
0.0
 10
131.537182
 20
118.313608
 30
0.0
 10
131.499398
 20
118.792132
 30
0.0
 10
131.534718
 20
119.202199
 30
0.0
  0
SPLINE
  5
259
100
AcDbEntity
  8
Calque_1
 62
3
100
AcDbSpline
 70
8
 71
3
 72
8
 73
4
 74
0
 40
0
 40
0
 40
0
 40
0
 40
1
 40
1
 40
1
 40
1
 10
131.534718
 20
119.202199
 30
0.0
 10
131.634377
 20
120.359202
 30
0.0
 10
131.389382
 20
123.767817
 30
0.0
 10
132.947111
 20
124.196626
 30
0.0
  0
LINE
  5
25a
100
AcDbEntity
  8
Calque_1
 62
3
100
AcDbLine
 10
132.947111
 20
124.196626
 30
0.0
 11
132.935607
 21
124.627246
 31
0.0
  0
SPLINE
  5
25b
100
AcDbEntity
  8
Calque_1
 62
3
100
AcDbSpline
 70
8
 71
3
 72
8
 73
4
 74
0
 40
0
 40
0
 40
0
 40
0
 40
1
 40
1
 40
1
 40
1
 10
128.957527
 20
138.222497
 30
0.0
 10
127.154615
 20
137.486812
 30
0.0
 10
126.522963
 20
136.612973
 30
0.0
 10
125.262146
 20
136.637825
 30
0.0
  0
SPLINE
  5
25c
100
AcDbEntity
  8
Calque_1
 62
3
100
AcDbSpline
 70
8
 71
3
 72
8
 73
4
 74
0
 40
0
 40
0
 40
0
 40
0
 40
1
 40
1
 40
1
 40
1
 10
125.262146
 20
136.637825
 30
0.0
 10
123.911352
 20
136.664439
 30
0.0
 10
123.711473
 20
137.278670
 30
0.0
 10
122.028289
 20
138.294921
 30
0.0
  0
LINE
  5
25d
100
AcDbEntity
  8
Calque_1
 62
3
100
AcDbLine
 10
122.028289
 20
138.294921
 30
0.0
 11
122.004921
 21
138.160039
 31
0.0
  0
SPLINE
  5
25e
100
AcDbEntity
  8
Calque_1
 62
3
100
AcDbSpline
 70
8
 71
3
 72
8
 73
4
 74
0
 40
0
 40
0
 40
0
 40
0
 40
1
 40
1
 40
1
 40
1
 10
122.004921
 20
138.160039
 30
0.0
 10
122.107037
 20
138.098385
 30
0.0
 10
122.227075
 20
137.816092
 30
0.0
 10
122.318856
 20
137.757438
 30
0.0
  0
SPLINE
  5
25f
100
AcDbEntity
  8
Calque_1
 62
3
100
AcDbSpline
 70
8
 71
3
 72
8
 73
4
 74
0
 40
0
 40
0
 40
0
 40
0
 40
1
 40
1
 40
1
 40
1
 10
122.318856
 20
137.757438
 30
0.0
 10
123.739972
 20
136.849306
 30
0.0
 10
123.993315
 20
136.305836
 30
0.0
 10
125.262157
 20
136.280825
 30
0.0
  0
SPLINE
  5
260
100
AcDbEntity
  8
Calque_1
 62
3
100
AcDbSpline
 70
8
 71
3
 72
8
 73
4
 74
0
 40
0
 40
0
 40
0
 40
0
 40
1
 40
1
 40
1
 40
1
 10
125.262157
 20
136.280825
 30
0.0
 10
126.488509
 20
136.256639
 30
0.0
 10
127.119623
 20
137.082709
 30
0.0
 10
128.812276
 20
137.804876
 30
0.0
  0
SPLINE
  5
261
100
AcDbEntity
  8
Calque_1
 62
3
100
AcDbSpline
 70
8
 71
3
 72
8
 73
4
 74
0
 40
0
 40
0
 40
0
 40
0
 40
1
 40
1
 40
1
 40
1
 10
128.812276
 20
137.804876
 30
0.0
 10
128.859847
 20
137.825168
 30
0.0
 10
128.978398
 20
138.114265
 30
0.0
 10
129.027682
 20
138.134376
 30
0.0
  0
LINE
  5
262
100
AcDbEntity
  8
Calque_1
 62
3
100
AcDbLine
 10
129.027682
 20
138.134376
 30
0.0
 11
128.957527
 21
138.222497
 31
0.0
  0
SPLINE
  5
263
100
AcDbEntity
  8
Calque_1
 62
3
100
AcDbSpline
 70
8
 71
3
 72
8
 73
4
 74
0
 40
0
 40
0
 40
0
 40
0
 40
1
 40
1
 40
1
 40
1
 10
122.529510
 20
138.941961
 30
0.0
 10
122.366543
 20
139.078381
 30
0.0
 10
122.194509
 20
139.192380
 30
0.0
 10
121.996708
 20
139.260615
 30
0.0
  0
LINE
  5
264
100
AcDbEntity
  8
Calque_1
 62
3
100
AcDbLine
 10
121.996708
 20
139.260615
 30
0.0
 11
122.253722
 21
139.412075
 31
0.0
  0
SPLINE
  5
265
100
AcDbEntity
  8
Calque_1
 62
3
100
AcDbSpline
 70
8
 71
3
 72
8
 73
4
 74
0
 40
0
 40
0
 40
0
 40
0
 40
1
 40
1
 40
1
 40
1
 10
122.253722
 20
139.412075
 30
0.0
 10
122.414541
 20
139.361275
 30
0.0
 10
122.526476
 20
139.196556
 30
0.0
 10
122.636274
 20
139.085632
 30
0.0
  0
SPLINE
  5
266
100
AcDbEntity
  8
Calque_1
 62
3
100
AcDbSpline
 70
8
 71
3
 72
8
 73
4
 74
0
 40
0
 40
0
 40
0
 40
0
 40
1
 40
1
 40
1
 40
1
 10
122.636274
 20
139.085632
 30
0.0
 10
124.560688
 20
137.141521
 30
0.0
 10
125.849857
 20
138.170958
 30
0.0
 10
127.397524
 20
138.938399
 30
0.0
  0
LINE
  5
267
100
AcDbEntity
  8
Calque_1
 62
3
100
AcDbLine
 10
127.397524
 20
138.938399
 30
0.0
 11
128.634975
 21
139.552015
 31
0.0
  0
LINE
  5
268
100
AcDbEntity
  8
Calque_1
 62
3
100
AcDbLine
 10
128.634975
 20
139.552015
 30
0.0
 11
128.784945
 21
139.345945
 31
0.0
  0
SPLINE
  5
269
100
AcDbEntity
  8
Calque_1
 62
3
100
AcDbSpline
 70
8
 71
3
 72
8
 73
4
 74
0
 40
0
 40
0
 40
0
 40
0
 40
1
 40
1
 40
1
 40
1
 10
128.784945
 20
139.345945
 30
0.0
 10
128.379700
 20
139.254378
 30
0.0
 10
127.898237
 20
138.964725
 30
0.0
 10
127.395692
 20
138.666377
 30
0.0
  0
SPLINE
  5
26a
100
AcDbEntity
  8
Calque_1
 62
3
100
AcDbSpline
 70
8
 71
3
 72
8
 73
4
 74
0
 40
0
 40
0
 40
0
 40
0
 40
1
 40
1
 40
1
 40
1
 10
127.395692
 20
138.666377
 30
0.0
 10
124.062721
 20
136.682052
 30
0.0
 10
123.429457
 20
138.156909
 30
0.0
 10
122.529510
 20
138.941961
 30
0.0
  0
LINE
  5
26b
100
AcDbEntity
  8
Calque_1
 62
3
100
AcDbLine
 10
122.529510
 20
138.941961
 30
0.0
 11
122.529510
 21
138.941961
 31
0.0
  0
SPLINE
  5
26c
100
AcDbEntity
  8
Calque_1
 62
7
100
AcDbSpline
 70
8
 71
3
 72
8
 73
4
 74
0
 40
0
 40
0
 40
0
 40
0
 40
1
 40
1
 40
1
 40
1
 10
126.553039
 20
114.406399
 30
0.0
 10
127.752464
 20
114.180929
 30
0.0
 10
128.990844
 20
114.111282
 30
0.0
 10
130.256351
 20
114.150141
 30
0.0
  0
SPLINE
  5
26d
100
AcDbEntity
  8
Calque_1
 62
7
100
AcDbSpline
 70
8
 71
3
 72
8
 73
4
 74
0
 40
0
 40
0
 40
0
 40
0
 40
1
 40
1
 40
1
 40
1
 10
130.256351
 20
114.150141
 30
0.0
 10
130.172034
 20
115.099289
 30
0.0
 10
130.059803
 20
115.830024
 30
0.0
 10
130.702730
 20
117.464946
 30
0.0
  0
SPLINE
  5
26e
100
AcDbEntity
  8
Calque_1
 62
7
100
AcDbSpline
 70
8
 71
3
 72
8
 73
4
 74
0
 40
0
 40
0
 40
0
 40
0
 40
1
 40
1
 40
1
 40
1
 10
130.702730
 20
117.464946
 30
0.0
 10
129.874227
 20
116.863479
 30
0.0
 10
129.015795
 20
116.406866
 30
0.0
 10
127.946127
 20
116.089914
 30
0.0
  0
LINE
  5
26f
100
AcDbEntity
  8
Calque_1
 62
7
100
AcDbLine
 10
127.946127
 20
116.089914
 30
0.0
 11
126.553039
 21
114.406399
 31
0.0
  0
SPLINE
  5
270
100
AcDbEntity
  8
Calque_1
 62
7
100
AcDbSpline
 70
8
 71
3
 72
8
 73
4
 74
0
 40
0
 40
0
 40
0
 40
0
 40
1
 40
1
 40
1
 40
1
 10
126.679743
 20
150.189874
 30
0.0
 10
125.813315
 20
150.171287
 30
0.0
 10
125.103190
 20
150.016395
 30
0.0
 10
124.799547
 20
149.950095
 30
0.0
  0
SPLINE
  5
271
100
AcDbEntity
  8
Calque_1
 62
7
100
AcDbSpline
 70
8
 71
3
 72
8
 73
4
 74
0
 40
0
 40
0
 40
0
 40
0
 40
1
 40
1
 40
1
 40
1
 10
124.799547
 20
149.950095
 30
0.0
 10
124.242362
 20
149.815311
 30
0.0
 10
121.903527
 20
149.281113
 30
0.0
 10
120.989547
 20
145.934493
 30
0.0
  0
SPLINE
  5
272
100
AcDbEntity
  8
Calque_1
 62
7
100
AcDbSpline
 70
8
 71
3
 72
8
 73
4
 74
0
 40
0
 40
0
 40
0
 40
0
 40
1
 40
1
 40
1
 40
1
 10
120.989547
 20
145.934493
 30
0.0
 10
120.223497
 20
141.427873
 30
0.0
 10
121.656069
 20
141.862783
 30
0.0
 10
120.579444
 20
137.563737
 30
0.0
  0
SPLINE
  5
273
100
AcDbEntity
  8
Calque_1
 62
7
100
AcDbSpline
 70
8
 71
3
 72
8
 73
4
 74
0
 40
0
 40
0
 40
0
 40
0
 40
1
 40
1
 40
1
 40
1
 10
120.579444
 20
137.563737
 30
0.0
 10
120.327019
 20
136.878084
 30
0.0
 10
120.198004
 20
136.344543
 30
0.0
 10
119.173295
 20
135.047991
 30
0.0
  0
SPLINE
  5
274
100
AcDbEntity
  8
Calque_1
 62
7
100
AcDbSpline
 70
8
 71
3
 72
8
 73
4
 74
0
 40
0
 40
0
 40
0
 40
0
 40
1
 40
1
 40
1
 40
1
 10
119.173295
 20
135.047991
 30
0.0
 10
117.043999
 20
132.643455
 30
0.0
 10
115.804498
 20
130.205978
 30
0.0
 10
114.858382
 20
127.757618
 30
0.0
  0
SPLINE
  5
275
100
AcDbEntity
  8
Calque_1
 62
7
100
AcDbSpline
 70
8
 71
3
 72
8
 73
4
 74
0
 40
0
 40
0
 40
0
 40
0
 40
1
 40
1
 40
1
 40
1
 10
114.858382
 20
127.757618
 30
0.0
 10
114.466723
 20
126.696421
 30
0.0
 10
114.188711
 20
125.573791
 30
0.0
 10
114.602618
 20
124.077153
 30
0.0
  0
SPLINE
  5
276
100
AcDbEntity
  8
Calque_1
 62
7
100
AcDbSpline
 70
8
 71
3
 72
8
 73
4
 74
0
 40
0
 40
0
 40
0
 40
0
 40
1
 40
1
 40
1
 40
1
 10
114.602618
 20
124.077153
 30
0.0
 10
114.731109
 20
124.260479
 30
0.0
 10
115.835743
 20
124.696862
 30
0.0
 10
116.846615
 20
124.209444
 30
0.0
  0
SPLINE
  5
277
100
AcDbEntity
  8
Calque_1
 62
7
100
AcDbSpline
 70
8
 71
3
 72
8
 73
4
 74
0
 40
0
 40
0
 40
0
 40
0
 40
1
 40
1
 40
1
 40
1
 10
116.846615
 20
124.209444
 30
0.0
 10
117.177205
 20
123.950997
 30
0.0
 10
117.429331
 20
123.904263
 30
0.0
 10
118.480967
 20
122.415790
 30
0.0
  0
LINE
  5
278
100
AcDbEntity
  8
Calque_1
 62
7
100
AcDbLine
 10
118.480967
 20
122.415790
 30
0.0
 11
120.032089
 21
119.511438
 31
0.0
  0
SPLINE
  5
279
100
AcDbEntity
  8
Calque_1
 62
7
100
AcDbSpline
 70
8
 71
3
 72
8
 73
4
 74
0
 40
0
 40
0
 40
0
 40
0
 40
1
 40
1
 40
1
 40
1
 10
120.032089
 20
119.511438
 30
0.0
 10
120.241946
 20
119.178641
 30
0.0
 10
120.383215
 20
118.818791
 30
0.0
 10
120.691340
 20
118.525314
 30
0.0
  0
SPLINE
  5
27a
100
AcDbEntity
  8
Calque_1
 62
7
100
AcDbSpline
 70
8
 71
3
 72
8
 73
4
 74
0
 40
0
 40
0
 40
0
 40
0
 40
1
 40
1
 40
1
 40
1
 10
120.691340
 20
118.525314
 30
0.0
 10
120.993947
 20
118.237080
 30
0.0
 10
121.638116
 20
118.302466
 30
0.0
 10
122.111824
 20
118.765643
 30
0.0
  0
SPLINE
  5
27b
100
AcDbEntity
  8
Calque_1
 62
7
100
AcDbSpline
 70
8
 71
3
 72
8
 73
4
 74
0
 40
0
 40
0
 40
0
 40
0
 40
1
 40
1
 40
1
 40
1
 10
122.111824
 20
118.765643
 30
0.0
 10
122.404169
 20
119.058082
 30
0.0
 10
122.913642
 20
119.825721
 30
0.0
 10
120.975769
 20
121.862922
 30
0.0
  0
SPLINE
  5
27c
100
AcDbEntity
  8
Calque_1
 62
7
100
AcDbSpline
 70
8
 71
3
 72
8
 73
4
 74
0
 40
0
 40
0
 40
0
 40
0
 40
1
 40
1
 40
1
 40
1
 10
120.975769
 20
121.862922
 30
0.0
 10
119.434429
 20
123.664815
 30
0.0
 10
117.655854
 20
123.112797
 30
0.0
 10
116.838897
 20
126.162400
 30
0.0
  0
SPLINE
  5
27d
100
AcDbEntity
  8
Calque_1
 62
7
100
AcDbSpline
 70
8
 71
3
 72
8
 73
4
 74
0
 40
0
 40
0
 40
0
 40
0
 40
1
 40
1
 40
1
 40
1
 10
116.838897
 20
126.162400
 30
0.0
 10
116.583974
 20
128.642317
 30
0.0
 10
117.820584
 20
130.595702
 30
0.0
 10
119.025568
 20
132.560355
 30
0.0
  0
LINE
  5
27e
100
AcDbEntity
  8
Calque_1
 62
7
100
AcDbLine
 10
119.025568
 20
132.560355
 30
0.0
 11
119.119275
 21
132.513503
 31
0.0
  0
SPLINE
  5
27f
100
AcDbEntity
  8
Calque_1
 62
7
100
AcDbSpline
 70
8
 71
3
 72
8
 73
4
 74
0
 40
0
 40
0
 40
0
 40
0
 40
1
 40
1
 40
1
 40
1
 10
119.119275
 20
132.513503
 30
0.0
 10
118.416538
 20
130.358454
 30
0.0
 10
116.017669
 20
128.051400
 30
0.0
 10
118.133701
 20
124.946970
 30
0.0
  0
SPLINE
  5
280
100
AcDbEntity
  8
Calque_1
 62
7
100
AcDbSpline
 70
8
 71
3
 72
8
 73
4
 74
0
 40
0
 40
0
 40
0
 40
0
 40
1
 40
1
 40
1
 40
1
 10
118.133701
 20
124.946970
 30
0.0
 10
118.165344
 20
124.900542
 30
0.0
 10
118.138166
 20
125.086306
 30
0.0
 10
118.205910
 20
125.095247
 30
0.0
  0
SPLINE
  5
281
100
AcDbEntity
  8
Calque_1
 62
7
100
AcDbSpline
 70
8
 71
3
 72
8
 73
4
 74
0
 40
0
 40
0
 40
0
 40
0
 40
1
 40
1
 40
1
 40
1
 10
118.205910
 20
125.095247
 30
0.0
 10
118.119401
 20
126.288434
 30
0.0
 10
118.897490
 20
129.187907
 30
0.0
 10
120.012243
 20
131.269961
 30
0.0
  0
SPLINE
  5
282
100
AcDbEntity
  8
Calque_1
 62
7
100
AcDbSpline
 70
8
 71
3
 72
8
 73
4
 74
0
 40
0
 40
0
 40
0
 40
0
 40
1
 40
1
 40
1
 40
1
 10
120.012243
 20
131.269961
 30
0.0
 10
121.748039
 20
134.511933
 30
0.0
 10
122.395482
 20
138.203930
 30
0.0
 10
122.111824
 20
138.031718
 30
0.0
  0
LINE
  5
283
100
AcDbEntity
  8
Calque_1
 62
7
100
AcDbLine
 10
122.111824
 20
138.031718
 30
0.0
 11
121.998825
 21
138.227953
 31
0.0
  0
SPLINE
  5
284
100
AcDbEntity
  8
Calque_1
 62
7
100
AcDbSpline
 70
8
 71
3
 72
8
 73
4
 74
0
 40
0
 40
0
 40
0
 40
0
 40
1
 40
1
 40
1
 40
1
 10
121.998825
 20
138.227953
 30
0.0
 10
121.176486
 20
138.780502
 30
0.0
 10
121.393774
 20
139.152496
 30
0.0
 10
121.346186
 20
139.376132
 30
0.0
  0
SPLINE
  5
285
100
AcDbEntity
  8
Calque_1
 62
7
100
AcDbSpline
 70
8
 71
3
 72
8
 73
4
 74
0
 40
0
 40
0
 40
0
 40
0
 40
1
 40
1
 40
1
 40
1
 10
121.346186
 20
139.376132
 30
0.0
 10
121.417506
 20
140.208351
 30
0.0
 10
122.357684
 20
140.209398
 30
0.0
 10
122.462397
 20
140.463130
 30
0.0
  0
LINE
  5
286
100
AcDbEntity
  8
Calque_1
 62
7
100
AcDbLine
 10
122.462397
 20
140.463130
 30
0.0
 11
122.363176
 21
140.527621
 31
0.0
  0
SPLINE
  5
287
100
AcDbEntity
  8
Calque_1
 62
7
100
AcDbSpline
 70
8
 71
3
 72
8
 73
4
 74
0
 40
0
 40
0
 40
0
 40
0
 40
1
 40
1
 40
1
 40
1
 10
122.363176
 20
140.527621
 30
0.0
 10
121.424107
 20
141.712192
 30
0.0
 10
121.748609
 20
142.256890
 30
0.0
 10
121.714395
 20
142.848238
 30
0.0
  0
SPLINE
  5
288
100
AcDbEntity
  8
Calque_1
 62
7
100
AcDbSpline
 70
8
 71
3
 72
8
 73
4
 74
0
 40
0
 40
0
 40
0
 40
0
 40
1
 40
1
 40
1
 40
1
 10
121.714395
 20
142.848238
 30
0.0
 10
121.789049
 20
143.686503
 30
0.0
 10
122.185193
 20
144.230481
 30
0.0
 10
122.976680
 20
144.414241
 30
0.0
  0
SPLINE
  5
289
100
AcDbEntity
  8
Calque_1
 62
7
100
AcDbSpline
 70
8
 71
3
 72
8
 73
4
 74
0
 40
0
 40
0
 40
0
 40
0
 40
1
 40
1
 40
1
 40
1
 10
122.976680
 20
144.414241
 30
0.0
 10
123.747059
 20
144.378461
 30
0.0
 10
123.957644
 20
143.898218
 30
0.0
 10
124.215813
 20
143.455676
 30
0.0
  0
SPLINE
  5
28a
100
AcDbEntity
  8
Calque_1
 62
7
100
AcDbSpline
 70
8
 71
3
 72
8
 73
4
 74
0
 40
0
 40
0
 40
0
 40
0
 40
1
 40
1
 40
1
 40
1
 10
124.215813
 20
143.455676
 30
0.0
 10
124.486334
 20
142.844798
 30
0.0
 10
124.329117
 20
142.369395
 30
0.0
 10
124.332670
 20
141.842822
 30
0.0
  0
SPLINE
  5
28b
100
AcDbEntity
  8
Calque_1
 62
7
100
AcDbSpline
 70
8
 71
3
 72
8
 73
4
 74
0
 40
0
 40
0
 40
0
 40
0
 40
1
 40
1
 40
1
 40
1
 10
124.332670
 20
141.842822
 30
0.0
 10
124.717342
 20
141.980111
 30
0.0
 10
125.123369
 20
142.103905
 30
0.0
 10
125.829218
 20
141.935977
 30
0.0
  0
SPLINE
  5
28c
100
AcDbEntity
  8
Calque_1
 62
7
100
AcDbSpline
 70
8
 71
3
 72
8
 73
4
 74
0
 40
0
 40
0
 40
0
 40
0
 40
1
 40
1
 40
1
 40
1
 10
125.829218
 20
141.935977
 30
0.0
 10
125.850272
 20
142.628658
 30
0.0
 10
125.665967
 20
143.017998
 30
0.0
 10
126.244285
 20
143.952873
 30
0.0
  0
SPLINE
  5
28d
100
AcDbEntity
  8
Calque_1
 62
7
100
AcDbSpline
 70
8
 71
3
 72
8
 73
4
 74
0
 40
0
 40
0
 40
0
 40
0
 40
1
 40
1
 40
1
 40
1
 10
126.244285
 20
143.952873
 30
0.0
 10
126.432609
 20
144.227374
 30
0.0
 10
126.961056
 20
144.870942
 30
0.0
 10
127.770049
 20
144.835368
 30
0.0
  0
SPLINE
  5
28e
100
AcDbEntity
  8
Calque_1
 62
7
100
AcDbSpline
 70
8
 71
3
 72
8
 73
4
 74
0
 40
0
 40
0
 40
0
 40
0
 40
1
 40
1
 40
1
 40
1
 10
127.770049
 20
144.835368
 30
0.0
 10
128.218537
 20
144.733133
 30
0.0
 10
129.002364
 20
144.623472
 30
0.0
 10
129.523465
 20
143.105103
 30
0.0
  0
SPLINE
  5
28f
100
AcDbEntity
  8
Calque_1
 62
7
100
AcDbSpline
 70
8
 71
3
 72
8
 73
4
 74
0
 40
0
 40
0
 40
0
 40
0
 40
1
 40
1
 40
1
 40
1
 10
129.523465
 20
143.105103
 30
0.0
 10
129.629922
 20
142.689624
 30
0.0
 10
129.745986
 20
141.052893
 30
0.0
 10
128.892323
 20
140.649992
 30
0.0
  0
SPLINE
  5
290
100
AcDbEntity
  8
Calque_1
 62
7
100
AcDbSpline
 70
8
 71
3
 72
8
 73
4
 74
0
 40
0
 40
0
 40
0
 40
0
 40
1
 40
1
 40
1
 40
1
 10
128.892323
 20
140.649992
 30
0.0
 10
129.179235
 20
140.473448
 30
0.0
 10
129.410327
 20
140.502074
 30
0.0
 10
129.780882
 20
140.018850
 30
0.0
  0
SPLINE
  5
291
100
AcDbEntity
  8
Calque_1
 62
7
100
AcDbSpline
 70
8
 71
3
 72
8
 73
4
 74
0
 40
0
 40
0
 40
0
 40
0
 40
1
 40
1
 40
1
 40
1
 10
129.780882
 20
140.018850
 30
0.0
 10
130.136324
 20
139.439891
 30
0.0
 10
129.815059
 20
139.013070
 30
0.0
 10
129.570316
 20
138.569154
 30
0.0
  0
SPLINE
  5
292
100
AcDbEntity
  8
Calque_1
 62
7
100
AcDbSpline
 70
8
 71
3
 72
8
 73
4
 74
0
 40
0
 40
0
 40
0
 40
0
 40
1
 40
1
 40
1
 40
1
 10
129.570316
 20
138.569154
 30
0.0
 10
130.173146
 20
136.372556
 30
0.0
 10
130.968101
 20
134.079938
 30
0.0
 10
132.272924
 20
131.532341
 30
0.0
  0
SPLINE
  5
293
100
AcDbEntity
  8
Calque_1
 62
7
100
AcDbSpline
 70
8
 71
3
 72
8
 73
4
 74
0
 40
0
 40
0
 40
0
 40
0
 40
1
 40
1
 40
1
 40
1
 10
132.272924
 20
131.532341
 30
0.0
 10
132.898411
 20
130.580871
 30
0.0
 10
133.402183
 20
129.242483
 30
0.0
 10
133.690100
 20
128.193076
 30
0.0
  0
SPLINE
  5
294
100
AcDbEntity
  8
Calque_1
 62
7
100
AcDbSpline
 70
8
 71
3
 72
8
 73
4
 74
0
 40
0
 40
0
 40
0
 40
0
 40
1
 40
1
 40
1
 40
1
 10
133.690100
 20
128.193076
 30
0.0
 10
133.938383
 20
127.288133
 30
0.0
 10
133.913815
 20
126.589616
 30
0.0
 10
134.184540
 20
126.555417
 30
0.0
  0
SPLINE
  5
295
100
AcDbEntity
  8
Calque_1
 62
7
100
AcDbSpline
 70
8
 71
3
 72
8
 73
4
 74
0
 40
0
 40
0
 40
0
 40
0
 40
1
 40
1
 40
1
 40
1
 10
134.184540
 20
126.555417
 30
0.0
 10
134.441367
 20
126.544523
 30
0.0
 10
134.596756
 20
126.500141
 30
0.0
 10
134.971124
 20
126.528408
 30
0.0
  0
SPLINE
  5
296
100
AcDbEntity
  8
Calque_1
 62
7
100
AcDbSpline
 70
8
 71
3
 72
8
 73
4
 74
0
 40
0
 40
0
 40
0
 40
0
 40
1
 40
1
 40
1
 40
1
 10
134.971124
 20
126.528408
 30
0.0
 10
135.464629
 20
127.285729
 30
0.0
 10
135.372193
 20
128.608293
 30
0.0
 10
135.298547
 20
129.053524
 30
0.0
  0
SPLINE
  5
297
100
AcDbEntity
  8
Calque_1
 62
7
100
AcDbSpline
 70
8
 71
3
 72
8
 73
4
 74
0
 40
0
 40
0
 40
0
 40
0
 40
1
 40
1
 40
1
 40
1
 10
135.298547
 20
129.053524
 30
0.0
 10
134.784711
 20
130.987409
 30
0.0
 10
133.694201
 20
132.263192
 30
0.0
 10
132.867135
 20
133.074640
 30
0.0
  0
LINE
  5
298
100
AcDbEntity
  8
Calque_1
 62
7
100
AcDbLine
 10
132.867135
 20
133.074640
 30
0.0
 11
133.147703
 21
133.262052
 31
0.0
  0
SPLINE
  5
299
100
AcDbEntity
  8
Calque_1
 62
7
100
AcDbSpline
 70
8
 71
3
 72
8
 73
4
 74
0
 40
0
 40
0
 40
0
 40
0
 40
1
 40
1
 40
1
 40
1
 10
133.147703
 20
133.262052
 30
0.0
 10
135.301934
 20
130.800414
 30
0.0
 10
135.506454
 20
129.792040
 30
0.0
 10
135.713611
 20
129.080535
 30
0.0
  0
SPLINE
  5
29a
100
AcDbEntity
  8
Calque_1
 62
7
100
AcDbSpline
 70
8
 71
3
 72
8
 73
4
 74
0
 40
0
 40
0
 40
0
 40
0
 40
1
 40
1
 40
1
 40
1
 10
135.713611
 20
129.080535
 30
0.0
 10
136.076476
 20
127.174830
 30
0.0
 10
135.890485
 20
126.897690
 30
0.0
 10
135.625967
 20
126.247840
 30
0.0
  0
SPLINE
  5
29b
100
AcDbEntity
  8
Calque_1
 62
7
100
AcDbSpline
 70
8
 71
3
 72
8
 73
4
 74
0
 40
0
 40
0
 40
0
 40
0
 40
1
 40
1
 40
1
 40
1
 10
135.625967
 20
126.247840
 30
0.0
 10
136.442171
 20
125.963670
 30
0.0
 10
137.059803
 20
125.658670
 30
0.0
 10
137.776811
 20
124.985005
 30
0.0
  0
SPLINE
  5
29c
100
AcDbEntity
  8
Calque_1
 62
7
100
AcDbSpline
 70
8
 71
3
 72
8
 73
4
 74
0
 40
0
 40
0
 40
0
 40
0
 40
1
 40
1
 40
1
 40
1
 10
137.776811
 20
124.985005
 30
0.0
 10
137.936978
 20
124.642545
 30
0.0
 10
138.146039
 20
124.356245
 30
0.0
 10
138.010525
 20
123.675869
 30
0.0
  0
LINE
  5
29d
100
AcDbEntity
  8
Calque_1
 62
7
100
AcDbLine
 10
138.010525
 20
123.675869
 30
0.0
 11
138.852230
 21
123.442153
 31
0.0
  0
SPLINE
  5
29e
100
AcDbEntity
  8
Calque_1
 62
7
100
AcDbSpline
 70
8
 71
3
 72
8
 73
4
 74
0
 40
0
 40
0
 40
0
 40
0
 40
1
 40
1
 40
1
 40
1
 10
138.852230
 20
123.442153
 30
0.0
 10
139.009707
 20
123.973490
 30
0.0
 10
139.301056
 20
124.898106
 30
0.0
 10
139.190676
 20
126.407140
 30
0.0
  0
SPLINE
  5
29f
100
AcDbEntity
  8
Calque_1
 62
7
100
AcDbSpline
 70
8
 71
3
 72
8
 73
4
 74
0
 40
0
 40
0
 40
0
 40
0
 40
1
 40
1
 40
1
 40
1
 10
139.190676
 20
126.407140
 30
0.0
 10
139.219867
 20
129.697323
 30
0.0
 10
135.989751
 20
134.264331
 30
0.0
 10
133.846093
 20
136.636592
 30
0.0
  0
SPLINE
  5
2a0
100
AcDbEntity
  8
Calque_1
 62
7
100
AcDbSpline
 70
8
 71
3
 72
8
 73
4
 74
0
 40
0
 40
0
 40
0
 40
0
 40
1
 40
1
 40
1
 40
1
 10
133.846093
 20
136.636592
 30
0.0
 10
133.326395
 20
137.524683
 30
0.0
 10
132.634973
 20
137.418198
 30
0.0
 10
132.539715
 20
141.679110
 30
0.0
  0
SPLINE
  5
2a1
100
AcDbEntity
  8
Calque_1
 62
7
100
AcDbSpline
 70
8
 71
3
 72
8
 73
4
 74
0
 40
0
 40
0
 40
0
 40
0
 40
1
 40
1
 40
1
 40
1
 10
132.539715
 20
141.679110
 30
0.0
 10
132.412393
 20
142.210439
 30
0.0
 10
133.209137
 20
146.676442
 30
0.0
 10
130.264848
 20
149.105633
 30
0.0
  0
SPLINE
  5
2a2
100
AcDbEntity
  8
Calque_1
 62
7
100
AcDbSpline
 70
8
 71
3
 72
8
 73
4
 74
0
 40
0
 40
0
 40
0
 40
0
 40
1
 40
1
 40
1
 40
1
 10
130.264848
 20
149.105633
 30
0.0
 10
129.165965
 20
150.012269
 30
0.0
 10
127.793725
 20
150.213773
 30
0.0
 10
126.679743
 20
150.189874
 30
0.0
  0
LINE
  5
2a3
100
AcDbEntity
  8
Calque_1
 62
7
100
AcDbLine
 10
126.679743
 20
150.189874
 30
0.0
 11
126.679743
 21
150.189874
 31
0.0
  0
SPLINE
  5
2a4
100
AcDbEntity
  8
Calque_1
 62
7
100
AcDbSpline
 70
8
 71
3
 72
8
 73
4
 74
0
 40
0
 40
0
 40
0
 40
0
 40
1
 40
1
 40
1
 40
1
 10
133.895702
 20
135.787171
 30
0.0
 10
134.410693
 20
134.988296
 30
0.0
 10
134.894165
 20
134.408411
 30
0.0
 10
135.352014
 20
133.852955
 30
0.0
  0
SPLINE
  5
2a5
100
AcDbEntity
  8
Calque_1
 62
7
100
AcDbSpline
 70
8
 71
3
 72
8
 73
4
 74
0
 40
0
 40
0
 40
0
 40
0
 40
1
 40
1
 40
1
 40
1
 10
135.352014
 20
133.852955
 30
0.0
 10
135.580938
 20
133.575229
 30
0.0
 10
135.803389
 20
133.303336
 30
0.0
 10
136.020088
 20
133.013454
 30
0.0
  0
SPLINE
  5
2a6
100
AcDbEntity
  8
Calque_1
 62
7
100
AcDbSpline
 70
8
 71
3
 72
8
 73
4
 74
0
 40
0
 40
0
 40
0
 40
0
 40
1
 40
1
 40
1
 40
1
 10
136.020088
 20
133.013454
 30
0.0
 10
136.236783
 20
132.723575
 30
0.0
 10
136.447592
 20
132.415518
 30
0.0
 10
136.653434
 20
132.064812
 30
0.0
  0
SPLINE
  5
2a7
100
AcDbEntity
  8
Calque_1
 62
7
100
AcDbSpline
 70
8
 71
3
 72
8
 73
4
 74
0
 40
0
 40
0
 40
0
 40
0
 40
1
 40
1
 40
1
 40
1
 10
136.653434
 20
132.064812
 30
0.0
 10
136.743861
 20
131.910747
 30
0.0
 10
136.843304
 20
131.742932
 30
0.0
 10
136.947783
 20
131.561553
 30
0.0
  0
SPLINE
  5
2a8
100
AcDbEntity
  8
Calque_1
 62
7
100
AcDbSpline
 70
8
 71
3
 72
8
 73
4
 74
0
 40
0
 40
0
 40
0
 40
0
 40
1
 40
1
 40
1
 40
1
 10
136.947783
 20
131.561553
 30
0.0
 10
137.156738
 20
131.198799
 30
0.0
 10
137.386464
 20
130.781548
 30
0.0
 10
137.608138
 20
130.309192
 30
0.0
  0
SPLINE
  5
2a9
100
AcDbEntity
  8
Calque_1
 62
7
100
AcDbSpline
 70
8
 71
3
 72
8
 73
4
 74
0
 40
0
 40
0
 40
0
 40
0
 40
1
 40
1
 40
1
 40
1
 10
137.608138
 20
130.309192
 30
0.0
 10
137.663558
 20
130.191105
 30
0.0
 10
137.718453
 20
130.069795
 30
0.0
 10
137.772400
 20
129.944841
 30
0.0
  0
LINE
  5
2aa
100
AcDbEntity
  8
Calque_1
 62
7
100
AcDbLine
 10
137.772400
 20
129.944841
 30
0.0
 11
137.772400
 21
129.944287
 31
0.0
  0
SPLINE
  5
2ab
100
AcDbEntity
  8
Calque_1
 62
7
100
AcDbSpline
 70
8
 71
3
 72
8
 73
4
 74
0
 40
0
 40
0
 40
0
 40
0
 40
1
 40
1
 40
1
 40
1
 10
137.772400
 20
129.944287
 30
0.0
 10
137.880225
 20
129.694512
 30
0.0
 10
137.984560
 20
129.431103
 30
0.0
 10
138.081080
 20
129.153845
 30
0.0
  0
LINE
  5
2ac
100
AcDbEntity
  8
Calque_1
 62
7
100
AcDbLine
 10
138.081080
 20
129.153845
 30
0.0
 11
138.081080
 21
129.153295
 31
0.0
  0
SPLINE
  5
2ad
100
AcDbEntity
  8
Calque_1
 62
7
100
AcDbSpline
 70
8
 71
3
 72
8
 73
4
 74
0
 40
0
 40
0
 40
0
 40
0
 40
1
 40
1
 40
1
 40
1
 10
138.081080
 20
129.153295
 30
0.0
 10
138.177595
 20
128.876011
 30
0.0
 10
138.266591
 20
128.584992
 30
0.0
 10
138.344563
 20
128.280170
 30
0.0
  0
LINE
  5
2ae
100
AcDbEntity
  8
Calque_1
 62
7
100
AcDbLine
 10
138.344563
 20
128.280170
 30
0.0
 11
138.344563
 21
128.279619
 31
0.0
  0
SPLINE
  5
2af
100
AcDbEntity
  8
Calque_1
 62
7
100
AcDbSpline
 70
8
 71
3
 72
8
 73
4
 74
0
 40
0
 40
0
 40
0
 40
0
 40
1
 40
1
 40
1
 40
1
 10
138.344563
 20
128.279619
 30
0.0
 10
138.383521
 20
128.127282
 30
0.0
 10
138.420181
 20
127.971416
 30
0.0
 10
138.453151
 20
127.812186
 30
0.0
  0
LINE
  5
2b0
100
AcDbEntity
  8
Calque_1
 62
7
100
AcDbLine
 10
138.453151
 20
127.812186
 30
0.0
 11
138.453151
 21
127.811636
 31
0.0
  0
SPLINE
  5
2b1
100
AcDbEntity
  8
Calque_1
 62
7
100
AcDbSpline
 70
8
 71
3
 72
8
 73
4
 74
0
 40
0
 40
0
 40
0
 40
0
 40
1
 40
1
 40
1
 40
1
 10
138.453151
 20
127.811636
 30
0.0
 10
138.486114
 20
127.652398
 30
0.0
 10
138.515824
 20
127.489945
 30
0.0
 10
138.541895
 20
127.323812
 30
0.0
  0
LINE
  5
2b2
100
AcDbEntity
  8
Calque_1
 62
7
100
AcDbLine
 10
138.541895
 20
127.323812
 30
0.0
 11
138.541895
 21
127.323259
 31
0.0
  0
SPLINE
  5
2b3
100
AcDbEntity
  8
Calque_1
 62
7
100
AcDbSpline
 70
8
 71
3
 72
8
 73
4
 74
0
 40
0
 40
0
 40
0
 40
0
 40
1
 40
1
 40
1
 40
1
 10
138.541895
 20
127.323259
 30
0.0
 10
138.567962
 20
127.157114
 30
0.0
 10
138.590325
 20
126.987538
 30
0.0
 10
138.608593
 20
126.814488
 30
0.0
  0
LINE
  5
2b4
100
AcDbEntity
  8
Calque_1
 62
7
100
AcDbLine
 10
138.608593
 20
126.814488
 30
0.0
 11
138.608593
 21
126.813938
 31
0.0
  0
SPLINE
  5
2b5
100
AcDbEntity
  8
Calque_1
 62
7
100
AcDbSpline
 70
8
 71
3
 72
8
 73
4
 74
0
 40
0
 40
0
 40
0
 40
0
 40
1
 40
1
 40
1
 40
1
 10
138.608593
 20
126.813938
 30
0.0
 10
138.626856
 20
126.640874
 30
0.0
 10
138.641475
 20
126.464191
 30
0.0
 10
138.651036
 20
126.284218
 30
0.0
  0
SPLINE
  5
2b6
100
AcDbEntity
  8
Calque_1
 62
7
100
AcDbSpline
 70
8
 71
3
 72
8
 73
4
 74
0
 40
0
 40
0
 40
0
 40
0
 40
1
 40
1
 40
1
 40
1
 10
138.651036
 20
126.284218
 30
0.0
 10
138.660629
 20
126.103878
 30
0.0
 10
138.665421
 20
125.920290
 30
0.0
 10
138.665368
 20
125.733004
 30
0.0
  0
SPLINE
  5
2b7
100
AcDbEntity
  8
Calque_1
 62
7
100
AcDbSpline
 70
8
 71
3
 72
8
 73
4
 74
0
 40
0
 40
0
 40
0
 40
0
 40
1
 40
1
 40
1
 40
1
 10
138.665368
 20
125.733004
 30
0.0
 10
138.589142
 20
125.907666
 30
0.0
 10
138.520376
 20
126.129123
 30
0.0
 10
138.451497
 20
126.371312
 30
0.0
  0
SPLINE
  5
2b8
100
AcDbEntity
  8
Calque_1
 62
7
100
AcDbSpline
 70
8
 71
3
 72
8
 73
4
 74
0
 40
0
 40
0
 40
0
 40
0
 40
1
 40
1
 40
1
 40
1
 10
138.451497
 20
126.371312
 30
0.0
 10
138.348139
 20
126.734636
 30
0.0
 10
138.244117
 20
127.144770
 30
0.0
 10
138.111397
 20
127.515082
 30
0.0
  0
SPLINE
  5
2b9
100
AcDbEntity
  8
Calque_1
 62
7
100
AcDbSpline
 70
8
 71
3
 72
8
 73
4
 74
0
 40
0
 40
0
 40
0
 40
0
 40
1
 40
1
 40
1
 40
1
 10
138.111397
 20
127.515082
 30
0.0
 10
137.978729
 20
127.885338
 30
0.0
 10
137.817504
 20
128.215792
 30
0.0
 10
137.600422
 20
128.419077
 30
0.0
  0
SPLINE
  5
2ba
100
AcDbEntity
  8
Calque_1
 62
7
100
AcDbSpline
 70
8
 71
3
 72
8
 73
4
 74
0
 40
0
 40
0
 40
0
 40
0
 40
1
 40
1
 40
1
 40
1
 10
137.600422
 20
128.419077
 30
0.0
 10
137.582077
 20
127.899147
 30
0.0
 10
137.561543
 20
127.541069
 30
0.0
 10
137.436160
 20
127.152935
 30
0.0
  0
LINE
  5
2bb
100
AcDbEntity
  8
Calque_1
 62
7
100
AcDbLine
 10
137.436160
 20
127.152935
 30
0.0
 11
137.436160
 21
127.152382
 31
0.0
  0
SPLINE
  5
2bc
100
AcDbEntity
  8
Calque_1
 62
7
100
AcDbSpline
 70
8
 71
3
 72
8
 73
4
 74
0
 40
0
 40
0
 40
0
 40
0
 40
1
 40
1
 40
1
 40
1
 10
137.436160
 20
127.152382
 30
0.0
 10
137.386060
 20
126.997092
 30
0.0
 10
137.319035
 20
126.837252
 30
0.0
 10
137.228902
 20
126.660147
 30
0.0
  0
SPLINE
  5
2bd
100
AcDbEntity
  8
Calque_1
 62
7
100
AcDbSpline
 70
8
 71
3
 72
8
 73
4
 74
0
 40
0
 40
0
 40
0
 40
0
 40
1
 40
1
 40
1
 40
1
 10
137.228902
 20
126.660147
 30
0.0
 10
137.183822
 20
126.571605
 30
0.0
 10
137.133197
 20
126.478728
 30
0.0
 10
137.075664
 20
126.380131
 30
0.0
  0
SPLINE
  5
2be
100
AcDbEntity
  8
Calque_1
 62
7
100
AcDbSpline
 70
8
 71
3
 72
8
 73
4
 74
0
 40
0
 40
0
 40
0
 40
0
 40
1
 40
1
 40
1
 40
1
 10
137.075664
 20
126.380131
 30
0.0
 10
137.126706
 20
126.705014
 30
0.0
 10
137.150918
 20
127.023872
 30
0.0
 10
137.152284
 20
127.337590
 30
0.0
  0
SPLINE
  5
2bf
100
AcDbEntity
  8
Calque_1
 62
7
100
AcDbSpline
 70
8
 71
3
 72
8
 73
4
 74
0
 40
0
 40
0
 40
0
 40
0
 40
1
 40
1
 40
1
 40
1
 10
137.152284
 20
127.337590
 30
0.0
 10
137.152738
 20
127.441981
 30
0.0
 10
137.150749
 20
127.546296
 30
0.0
 10
137.146219
 20
127.649578
 30
0.0
  0
LINE
  5
2c0
100
AcDbEntity
  8
Calque_1
 62
7
100
AcDbLine
 10
137.146219
 20
127.649578
 30
0.0
 11
137.146219
 21
127.650131
 31
0.0
  0
SPLINE
  5
2c1
100
AcDbEntity
  8
Calque_1
 62
7
100
AcDbSpline
 70
8
 71
3
 72
8
 73
4
 74
0
 40
0
 40
0
 40
0
 40
0
 40
1
 40
1
 40
1
 40
1
 10
137.146219
 20
127.650131
 30
0.0
 10
137.141684
 20
127.753408
 30
0.0
 10
137.134532
 20
127.856024
 30
0.0
 10
137.125273
 20
127.958259
 30
0.0
  0
LINE
  5
2c2
100
AcDbEntity
  8
Calque_1
 62
7
100
AcDbLine
 10
137.125273
 20
127.958259
 30
0.0
 11
137.125273
 21
127.958812
 31
0.0
  0
SPLINE
  5
2c3
100
AcDbEntity
  8
Calque_1
 62
7
100
AcDbSpline
 70
8
 71
3
 72
8
 73
4
 74
0
 40
0
 40
0
 40
0
 40
0
 40
1
 40
1
 40
1
 40
1
 10
137.125273
 20
127.958812
 30
0.0
 10
137.124237
 20
127.970250
 30
0.0
 10
137.122510
 20
127.981559
 30
0.0
 10
137.121415
 20
127.992986
 30
0.0
  0
SPLINE
  5
2c4
100
AcDbEntity
  8
Calque_1
 62
7
100
AcDbSpline
 70
8
 71
3
 72
8
 73
4
 74
0
 40
0
 40
0
 40
0
 40
0
 40
1
 40
1
 40
1
 40
1
 10
137.121415
 20
127.992986
 30
0.0
 10
137.096630
 20
128.251812
 30
0.0
 10
137.054342
 20
128.506811
 30
0.0
 10
137.002353
 20
128.759727
 30
0.0
  0
SPLINE
  5
2c5
100
AcDbEntity
  8
Calque_1
 62
7
100
AcDbSpline
 70
8
 71
3
 72
8
 73
4
 74
0
 40
0
 40
0
 40
0
 40
0
 40
1
 40
1
 40
1
 40
1
 10
137.002353
 20
128.759727
 30
0.0
 10
136.994987
 20
128.795541
 30
0.0
 10
136.990923
 20
128.832055
 30
0.0
 10
136.983061
 20
128.867765
 30
0.0
  0
SPLINE
  5
2c6
100
AcDbEntity
  8
Calque_1
 62
7
100
AcDbSpline
 70
8
 71
3
 72
8
 73
4
 74
0
 40
0
 40
0
 40
0
 40
0
 40
1
 40
1
 40
1
 40
1
 10
136.983061
 20
128.867765
 30
0.0
 10
136.974052
 20
128.908693
 30
0.0
 10
136.961285
 20
128.948791
 30
0.0
 10
136.951641
 20
128.989583
 30
0.0
  0
SPLINE
  5
2c7
100
AcDbEntity
  8
Calque_1
 62
7
100
AcDbSpline
 70
8
 71
3
 72
8
 73
4
 74
0
 40
0
 40
0
 40
0
 40
0
 40
1
 40
1
 40
1
 40
1
 10
136.951641
 20
128.989583
 30
0.0
 10
136.867336
 20
129.346154
 30
0.0
 10
136.762569
 20
129.698382
 30
0.0
 10
136.636345
 20
130.046263
 30
0.0
  0
SPLINE
  5
2c8
100
AcDbEntity
  8
Calque_1
 62
7
100
AcDbSpline
 70
8
 71
3
 72
8
 73
4
 74
0
 40
0
 40
0
 40
0
 40
0
 40
1
 40
1
 40
1
 40
1
 10
136.636345
 20
130.046263
 30
0.0
 10
136.495680
 20
130.433943
 30
0.0
 10
136.332603
 20
130.816910
 30
0.0
 10
136.155687
 20
131.197752
 30
0.0
  0
SPLINE
  5
2c9
100
AcDbEntity
  8
Calque_1
 62
7
100
AcDbSpline
 70
8
 71
3
 72
8
 73
4
 74
0
 40
0
 40
0
 40
0
 40
0
 40
1
 40
1
 40
1
 40
1
 10
136.155687
 20
131.197752
 30
0.0
 10
135.978767
 20
131.578591
 30
0.0
 10
135.787754
 20
131.957297
 30
0.0
 10
135.591242
 20
132.335460
 30
0.0
  0
SPLINE
  5
2ca
100
AcDbEntity
  8
Calque_1
 62
7
100
AcDbSpline
 70
8
 71
3
 72
8
 73
4
 74
0
 40
0
 40
0
 40
0
 40
0
 40
1
 40
1
 40
1
 40
1
 10
135.591242
 20
132.335460
 30
0.0
 10
135.394731
 20
132.713624
 30
0.0
 10
135.192618
 20
133.091316
 30
0.0
 10
134.993174
 20
133.470965
 30
0.0
  0
SPLINE
  5
2cb
100
AcDbEntity
  8
Calque_1
 62
7
100
AcDbSpline
 70
8
 71
3
 72
8
 73
4
 74
0
 40
0
 40
0
 40
0
 40
0
 40
1
 40
1
 40
1
 40
1
 10
134.993174
 20
133.470965
 30
0.0
 10
134.694007
 20
134.040435
 30
0.0
 10
134.401004
 20
134.613950
 30
0.0
 10
134.142096
 20
135.198472
 30
0.0
  0
SPLINE
  5
2cc
100
AcDbEntity
  8
Calque_1
 62
7
100
AcDbSpline
 70
8
 71
3
 72
8
 73
4
 74
0
 40
0
 40
0
 40
0
 40
0
 40
1
 40
1
 40
1
 40
1
 10
134.142096
 20
135.198472
 30
0.0
 10
134.055793
 20
135.393313
 30
0.0
 10
133.973367
 20
135.589618
 30
0.0
 10
133.895702
 20
135.787171
 30
0.0
  0
LINE
  5
2cd
100
AcDbEntity
  8
Calque_1
 62
7
100
AcDbLine
 10
133.895702
 20
135.787171
 30
0.0
 11
133.895702
 21
135.787171
 31
0.0
  0
LINE
  5
2ce
100
AcDbEntity
  8
Calque_1
 62
7
100
AcDbLine
 10
119.735535
 20
135.165952
 30
0.0
 11
119.630252
 21
134.650013
 31
0.0
  0
SPLINE
  5
2cf
100
AcDbEntity
  8
Calque_1
 62
7
100
AcDbSpline
 70
8
 71
3
 72
8
 73
4
 74
0
 40
0
 40
0
 40
0
 40
0
 40
1
 40
1
 40
1
 40
1
 10
119.630252
 20
134.650013
 30
0.0
 10
114.868943
 20
127.795374
 30
0.0
 10
116.543294
 20
125.868646
 30
0.0
 10
116.868112
 20
124.925473
 30
0.0
  0
SPLINE
  5
2d0
100
AcDbEntity
  8
Calque_1
 62
7
100
AcDbSpline
 70
8
 71
3
 72
8
 73
4
 74
0
 40
0
 40
0
 40
0
 40
0
 40
1
 40
1
 40
1
 40
1
 10
116.868112
 20
124.925473
 30
0.0
 10
116.033090
 20
124.919151
 30
0.0
 10
115.832690
 20
127.892492
 30
0.0
 10
115.841199
 20
127.916919
 30
0.0
  0
SPLINE
  5
2d1
100
AcDbEntity
  8
Calque_1
 62
7
100
AcDbSpline
 70
8
 71
3
 72
8
 73
4
 74
0
 40
0
 40
0
 40
0
 40
0
 40
1
 40
1
 40
1
 40
1
 10
115.841199
 20
127.916919
 30
0.0
 10
115.616973
 20
128.020167
 30
0.0
 10
115.521901
 20
125.254810
 30
0.0
 10
115.331325
 20
124.938151
 30
0.0
  0
SPLINE
  5
2d2
100
AcDbEntity
  8
Calque_1
 62
7
100
AcDbSpline
 70
8
 71
3
 72
8
 73
4
 74
0
 40
0
 40
0
 40
0
 40
0
 40
1
 40
1
 40
1
 40
1
 10
115.331325
 20
124.938151
 30
0.0
 10
113.971115
 20
128.245507
 30
0.0
 10
118.772697
 20
134.205312
 30
0.0
 10
119.735535
 20
135.165952
 30
0.0
  0
LINE
  5
2d3
100
AcDbEntity
  8
Calque_1
 62
7
100
AcDbLine
 10
119.735535
 20
135.165952
 30
0.0
 11
119.735535
 21
135.165952
 31
0.0
  0
SPLINE
  5
2d4
100
AcDbEntity
  8
Calque_1
 62
7
100
AcDbSpline
 70
8
 71
3
 72
8
 73
4
 74
0
 40
0
 40
0
 40
0
 40
0
 40
1
 40
1
 40
1
 40
1
 10
127.598068
 20
143.392286
 30
0.0
 10
126.578701
 20
143.332131
 30
0.0
 10
126.708546
 20
142.107148
 30
0.0
 10
126.721085
 20
141.585404
 30
0.0
  0
LINE
  5
2d5
100
AcDbEntity
  8
Calque_1
 62
7
100
AcDbLine
 10
126.721085
 20
141.585404
 30
0.0
 11
127.973997
 21
140.974105
 31
0.0
  0
SPLINE
  5
2d6
100
AcDbEntity
  8
Calque_1
 62
7
100
AcDbSpline
 70
8
 71
3
 72
8
 73
4
 74
0
 40
0
 40
0
 40
0
 40
0
 40
1
 40
1
 40
1
 40
1
 10
127.973997
 20
140.974105
 30
0.0
 10
128.113237
 20
141.317171
 30
0.0
 10
128.812042
 20
143.042650
 30
0.0
 10
127.818004
 20
143.388428
 30
0.0
  0
SPLINE
  5
2d7
100
AcDbEntity
  8
Calque_1
 62
7
100
AcDbSpline
 70
8
 71
3
 72
8
 73
4
 74
0
 40
0
 40
0
 40
0
 40
0
 40
1
 40
1
 40
1
 40
1
 10
127.818004
 20
143.388428
 30
0.0
 10
127.739456
 20
143.395326
 30
0.0
 10
127.666028
 20
143.396297
 30
0.0
 10
127.598068
 20
143.392286
 30
0.0
  0
LINE
  5
2d8
100
AcDbEntity
  8
Calque_1
 62
7
100
AcDbLine
 10
127.598068
 20
143.392286
 30
0.0
 11
127.598068
 21
143.392286
 31
0.0
  0
SPLINE
  5
2d9
100
AcDbEntity
  8
Calque_1
 62
7
100
AcDbSpline
 70
8
 71
3
 72
8
 73
4
 74
0
 40
0
 40
0
 40
0
 40
0
 40
1
 40
1
 40
1
 40
1
 10
127.451996
 20
143.066520
 30
0.0
 10
127.481858
 20
143.067813
 30
0.0
 10
127.509482
 20
143.065501
 30
0.0
 10
127.535229
 20
143.059905
 30
0.0
  0
SPLINE
  5
2da
100
AcDbEntity
  8
Calque_1
 62
7
100
AcDbSpline
 70
8
 71
3
 72
8
 73
4
 74
0
 40
0
 40
0
 40
0
 40
0
 40
1
 40
1
 40
1
 40
1
 10
127.535229
 20
143.059905
 30
0.0
 10
127.586729
 20
143.048709
 30
0.0
 10
127.630434
 20
143.024334
 30
0.0
 10
127.666970
 20
142.989900
 30
0.0
  0
SPLINE
  5
2db
100
AcDbEntity
  8
Calque_1
 62
7
100
AcDbSpline
 70
8
 71
3
 72
8
 73
4
 74
0
 40
0
 40
0
 40
0
 40
0
 40
1
 40
1
 40
1
 40
1
 10
127.666970
 20
142.989900
 30
0.0
 10
127.721775
 20
142.938247
 30
0.0
 10
127.760950
 20
142.863735
 30
0.0
 10
127.787688
 20
142.776029
 30
0.0
  0
SPLINE
  5
2dc
100
AcDbEntity
  8
Calque_1
 62
7
100
AcDbSpline
 70
8
 71
3
 72
8
 73
4
 74
0
 40
0
 40
0
 40
0
 40
0
 40
1
 40
1
 40
1
 40
1
 10
127.787688
 20
142.776029
 30
0.0
 10
127.840353
 20
142.603275
 30
0.0
 10
127.844406
 20
142.380029
 30
0.0
 10
127.826824
 20
142.179614
 30
0.0
  0
SPLINE
  5
2dd
100
AcDbEntity
  8
Calque_1
 62
7
100
AcDbSpline
 70
8
 71
3
 72
8
 73
4
 74
0
 40
0
 40
0
 40
0
 40
0
 40
1
 40
1
 40
1
 40
1
 10
127.826824
 20
142.179614
 30
0.0
 10
127.826556
 20
142.176555
 30
0.0
 10
127.826550
 20
142.173292
 30
0.0
 10
127.826270
 20
142.170242
 30
0.0
  0
SPLINE
  5
2de
100
AcDbEntity
  8
Calque_1
 62
7
100
AcDbSpline
 70
8
 71
3
 72
8
 73
4
 74
0
 40
0
 40
0
 40
0
 40
0
 40
1
 40
1
 40
1
 40
1
 10
127.826270
 20
142.170242
 30
0.0
 10
127.813926
 20
142.034865
 30
0.0
 10
127.791797
 20
141.911040
 30
0.0
 10
127.767292
 20
141.821325
 30
0.0
  0
SPLINE
  5
2df
100
AcDbEntity
  8
Calque_1
 62
7
100
AcDbSpline
 70
8
 71
3
 72
8
 73
4
 74
0
 40
0
 40
0
 40
0
 40
0
 40
1
 40
1
 40
1
 40
1
 10
127.767292
 20
141.821325
 30
0.0
 10
127.556077
 20
142.509831
 30
0.0
 10
127.150718
 20
142.274094
 30
0.0
 10
127.015985
 20
141.831245
 30
0.0
  0
SPLINE
  5
2e0
100
AcDbEntity
  8
Calque_1
 62
7
100
AcDbSpline
 70
8
 71
3
 72
8
 73
4
 74
0
 40
0
 40
0
 40
0
 40
0
 40
1
 40
1
 40
1
 40
1
 10
127.015985
 20
141.831245
 30
0.0
 10
127.007770
 20
141.858857
 30
0.0
 10
127.000516
 20
141.898230
 30
0.0
 10
126.995039
 20
141.945898
 30
0.0
  0
SPLINE
  5
2e1
100
AcDbEntity
  8
Calque_1
 62
7
100
AcDbSpline
 70
8
 71
3
 72
8
 73
4
 74
0
 40
0
 40
0
 40
0
 40
0
 40
1
 40
1
 40
1
 40
1
 10
126.995039
 20
141.945898
 30
0.0
 10
126.978605
 20
142.088900
 30
0.0
 10
126.978481
 20
142.307210
 30
0.0
 10
127.018742
 20
142.513650
 30
0.0
  0
SPLINE
  5
2e2
100
AcDbEntity
  8
Calque_1
 62
7
100
AcDbSpline
 70
8
 71
3
 72
8
 73
4
 74
0
 40
0
 40
0
 40
0
 40
0
 40
1
 40
1
 40
1
 40
1
 10
127.018742
 20
142.513650
 30
0.0
 10
127.032162
 20
142.582464
 30
0.0
 10
127.050030
 20
142.650336
 30
0.0
 10
127.073313
 20
142.713189
 30
0.0
  0
SPLINE
  5
2e3
100
AcDbEntity
  8
Calque_1
 62
7
100
AcDbSpline
 70
8
 71
3
 72
8
 73
4
 74
0
 40
0
 40
0
 40
0
 40
0
 40
1
 40
1
 40
1
 40
1
 10
127.073313
 20
142.713189
 30
0.0
 10
127.108181
 20
142.807324
 30
0.0
 10
127.155202
 20
142.890967
 30
0.0
 10
127.217178
 20
142.953521
 30
0.0
  0
SPLINE
  5
2e4
100
AcDbEntity
  8
Calque_1
 62
7
100
AcDbSpline
 70
8
 71
3
 72
8
 73
4
 74
0
 40
0
 40
0
 40
0
 40
0
 40
1
 40
1
 40
1
 40
1
 10
127.217178
 20
142.953521
 30
0.0
 10
127.237967
 20
142.974502
 30
0.0
 10
127.260138
 20
142.992855
 30
0.0
 10
127.284426
 20
143.008642
 30
0.0
  0
SPLINE
  5
2e5
100
AcDbEntity
  8
Calque_1
 62
7
100
AcDbSpline
 70
8
 71
3
 72
8
 73
4
 74
0
 40
0
 40
0
 40
0
 40
0
 40
1
 40
1
 40
1
 40
1
 10
127.284426
 20
143.008642
 30
0.0
 10
127.332777
 20
143.040067
 30
0.0
 10
127.388442
 20
143.060562
 30
0.0
 10
127.451996
 20
143.066520
 30
0.0
  0
LINE
  5
2e6
100
AcDbEntity
  8
Calque_1
 62
7
100
AcDbLine
 10
127.451996
 20
143.066520
 30
0.0
 11
127.451996
 21
143.066520
 31
0.0
  0
SPLINE
  5
2e7
100
AcDbEntity
  8
Calque_1
 62
7
100
AcDbSpline
 70
8
 71
3
 72
8
 73
4
 74
0
 40
0
 40
0
 40
0
 40
0
 40
1
 40
1
 40
1
 40
1
 10
122.936993
 20
143.057701
 30
0.0
 10
122.626399
 20
143.035256
 30
0.0
 10
121.852780
 20
142.713556
 30
0.0
 10
122.865885
 20
140.918984
 30
0.0
  0
LINE
  5
2e8
100
AcDbEntity
  8
Calque_1
 62
7
100
AcDbLine
 10
122.865885
 20
140.918984
 30
0.0
 11
123.584671
 21
141.533037
 31
0.0
  0
SPLINE
  5
2e9
100
AcDbEntity
  8
Calque_1
 62
7
100
AcDbSpline
 70
8
 71
3
 72
8
 73
4
 74
0
 40
0
 40
0
 40
0
 40
0
 40
1
 40
1
 40
1
 40
1
 10
123.584671
 20
141.533037
 30
0.0
 10
123.582721
 20
141.811659
 30
0.0
 10
123.745710
 20
142.736041
 30
0.0
 10
123.035108
 20
143.052739
 30
0.0
  0
SPLINE
  5
2ea
100
AcDbEntity
  8
Calque_1
 62
7
100
AcDbSpline
 70
8
 71
3
 72
8
 73
4
 74
0
 40
0
 40
0
 40
0
 40
0
 40
1
 40
1
 40
1
 40
1
 10
123.035108
 20
143.052739
 30
0.0
 10
123.016205
 20
143.058327
 30
0.0
 10
122.981362
 20
143.060907
 30
0.0
 10
122.936993
 20
143.057701
 30
0.0
  0
LINE
  5
2eb
100
AcDbEntity
  8
Calque_1
 62
7
100
AcDbLine
 10
122.936993
 20
143.057701
 30
0.0
 11
122.936993
 21
143.057701
 31
0.0
  0
SPLINE
  5
2ec
100
AcDbEntity
  8
Calque_1
 62
7
100
AcDbSpline
 70
8
 71
3
 72
8
 73
4
 74
0
 40
0
 40
0
 40
0
 40
0
 40
1
 40
1
 40
1
 40
1
 10
122.929275
 20
142.826188
 30
0.0
 10
123.251742
 20
142.846906
 30
0.0
 10
123.279854
 20
142.273975
 30
0.0
 10
123.236301
 20
141.915581
 30
0.0
  0
SPLINE
  5
2ed
100
AcDbEntity
  8
Calque_1
 62
7
100
AcDbSpline
 70
8
 71
3
 72
8
 73
4
 74
0
 40
0
 40
0
 40
0
 40
0
 40
1
 40
1
 40
1
 40
1
 10
123.236301
 20
141.915581
 30
0.0
 10
123.039463
 20
142.244712
 30
0.0
 10
122.911839
 20
142.132246
 30
0.0
 10
122.769974
 20
141.867626
 30
0.0
  0
SPLINE
  5
2ee
100
AcDbEntity
  8
Calque_1
 62
7
100
AcDbSpline
 70
8
 71
3
 72
8
 73
4
 74
0
 40
0
 40
0
 40
0
 40
0
 40
1
 40
1
 40
1
 40
1
 10
122.769974
 20
141.867626
 30
0.0
 10
122.710121
 20
142.084477
 30
0.0
 10
122.572218
 20
142.674457
 30
0.0
 10
122.929275
 20
142.826188
 30
0.0
  0
LINE
  5
2ef
100
AcDbEntity
  8
Calque_1
 62
7
100
AcDbLine
 10
122.929275
 20
142.826188
 30
0.0
 11
122.929275
 21
142.826188
 31
0.0
  0
SPLINE
  5
2f0
100
AcDbEntity
  8
Calque_1
 62
7
100
AcDbSpline
 70
8
 71
3
 72
8
 73
4
 74
0
 40
0
 40
0
 40
0
 40
0
 40
1
 40
1
 40
1
 40
1
 10
134.433381
 20
121.828691
 30
0.0
 10
132.733762
 20
122.461239
 30
0.0
 10
132.602580
 20
125.549492
 30
0.0
 10
133.661816
 20
125.967082
 30
0.0
  0
SPLINE
  5
2f1
100
AcDbEntity
  8
Calque_1
 62
7
100
AcDbSpline
 70
8
 71
3
 72
8
 73
4
 74
0
 40
0
 40
0
 40
0
 40
0
 40
1
 40
1
 40
1
 40
1
 10
133.661816
 20
125.967082
 30
0.0
 10
134.448827
 20
126.123800
 30
0.0
 10
135.183225
 20
126.058406
 30
0.0
 10
136.163550
 20
125.592991
 30
0.0
  0
SPLINE
  5
2f2
100
AcDbEntity
  8
Calque_1
 62
7
100
AcDbSpline
 70
8
 71
3
 72
8
 73
4
 74
0
 40
0
 40
0
 40
0
 40
0
 40
1
 40
1
 40
1
 40
1
 10
136.163550
 20
125.592991
 30
0.0
 10
137.747081
 20
124.897471
 30
0.0
 10
137.775084
 20
124.374787
 30
0.0
 10
137.706676
 20
123.862813
 30
0.0
  0
SPLINE
  5
2f3
100
AcDbEntity
  8
Calque_1
 62
7
100
AcDbSpline
 70
8
 71
3
 72
8
 73
4
 74
0
 40
0
 40
0
 40
0
 40
0
 40
1
 40
1
 40
1
 40
1
 10
137.706676
 20
123.862813
 30
0.0
 10
137.752740
 20
122.587700
 30
0.0
 10
135.372839
 20
121.512272
 30
0.0
 10
134.433381
 20
121.828691
 30
0.0
  0
LINE
  5
2f4
100
AcDbEntity
  8
Calque_1
 62
7
100
AcDbLine
 10
134.433381
 20
121.828691
 30
0.0
 11
134.433381
 21
121.828691
 31
0.0
  0
SPLINE
  5
2f5
100
AcDbEntity
  8
Calque_1
 62
6
100
AcDbSpline
 70
8
 71
3
 72
8
 73
4
 74
0
 40
0
 40
0
 40
0
 40
0
 40
1
 40
1
 40
1
 40
1
 10
129.514645
 20
138.621520
 30
0.0
 10
129.303791
 20
138.418854
 30
0.0
 10
129.089065
 20
138.247341
 30
0.0
 10
128.972798
 20
138.191021
 30
0.0
  0
SPLINE
  5
2f6
100
AcDbEntity
  8
Calque_1
 62
6
100
AcDbSpline
 70
8
 71
3
 72
8
 73
4
 74
0
 40
0
 40
0
 40
0
 40
0
 40
1
 40
1
 40
1
 40
1
 10
128.972798
 20
138.191021
 30
0.0
 10
128.924465
 20
138.166524
 30
0.0
 10
128.991541
 20
138.163459
 30
0.0
 10
128.991541
 20
138.163459
 30
0.0
  0
SPLINE
  5
2f7
100
AcDbEntity
  8
Calque_1
 62
6
100
AcDbSpline
 70
8
 71
3
 72
8
 73
4
 74
0
 40
0
 40
0
 40
0
 40
0
 40
1
 40
1
 40
1
 40
1
 10
128.991541
 20
138.163459
 30
0.0
 10
128.942256
 20
138.143365
 30
0.0
 10
128.824135
 20
137.854130
 30
0.0
 10
128.776566
 20
137.833832
 30
0.0
  0
SPLINE
  5
2f8
100
AcDbEntity
  8
Calque_1
 62
6
100
AcDbSpline
 70
8
 71
3
 72
8
 73
4
 74
0
 40
0
 40
0
 40
0
 40
0
 40
1
 40
1
 40
1
 40
1
 10
128.776566
 20
137.833832
 30
0.0
 10
127.083910
 20
137.111662
 30
0.0
 10
126.452537
 20
136.286100
 30
0.0
 10
125.226188
 20
136.310273
 30
0.0
  0
SPLINE
  5
2f9
100
AcDbEntity
  8
Calque_1
 62
6
100
AcDbSpline
 70
8
 71
3
 72
8
 73
4
 74
0
 40
0
 40
0
 40
0
 40
0
 40
1
 40
1
 40
1
 40
1
 10
125.226188
 20
136.310273
 30
0.0
 10
123.957342
 20
136.335277
 30
0.0
 10
123.703814
 20
136.878293
 30
0.0
 10
122.282701
 20
137.786427
 30
0.0
  0
SPLINE
  5
2fa
100
AcDbEntity
  8
Calque_1
 62
6
100
AcDbSpline
 70
8
 71
3
 72
8
 73
4
 74
0
 40
0
 40
0
 40
0
 40
0
 40
1
 40
1
 40
1
 40
1
 10
122.282701
 20
137.786427
 30
0.0
 10
122.244141
 20
137.811065
 30
0.0
 10
122.201065
 20
137.875412
 30
0.0
 10
122.146548
 20
137.957855
 30
0.0
  0
SPLINE
  5
2fb
100
AcDbEntity
  8
Calque_1
 62
6
100
AcDbSpline
 70
8
 71
3
 72
8
 73
4
 74
0
 40
0
 40
0
 40
0
 40
0
 40
1
 40
1
 40
1
 40
1
 10
122.146548
 20
137.957855
 30
0.0
 10
122.193578
 20
137.376037
 30
0.0
 10
121.509319
 20
134.162206
 30
0.0
 10
119.976415
 20
131.299174
 30
0.0
  0
SPLINE
  5
2fc
100
AcDbEntity
  8
Calque_1
 62
6
100
AcDbSpline
 70
8
 71
3
 72
8
 73
4
 74
0
 40
0
 40
0
 40
0
 40
0
 40
1
 40
1
 40
1
 40
1
 10
119.976415
 20
131.299174
 30
0.0
 10
118.861657
 20
129.217122
 30
0.0
 10
118.083573
 20
126.317650
 30
0.0
 10
118.170082
 20
125.124463
 30
0.0
  0
SPLINE
  5
2fd
100
AcDbEntity
  8
Calque_1
 62
6
100
AcDbSpline
 70
8
 71
3
 72
8
 73
4
 74
0
 40
0
 40
0
 40
0
 40
0
 40
1
 40
1
 40
1
 40
1
 10
118.170082
 20
125.124463
 30
0.0
 10
118.102335
 20
125.115516
 30
0.0
 10
118.128968
 20
124.929760
 30
0.0
 10
118.097323
 20
124.976186
 30
0.0
  0
SPLINE
  5
2fe
100
AcDbEntity
  8
Calque_1
 62
6
100
AcDbSpline
 70
8
 71
3
 72
8
 73
4
 74
0
 40
0
 40
0
 40
0
 40
0
 40
1
 40
1
 40
1
 40
1
 10
118.097323
 20
124.976186
 30
0.0
 10
115.981291
 20
128.080616
 30
0.0
 10
118.380160
 20
130.387673
 30
0.0
 10
119.082896
 20
132.542716
 30
0.0
  0
LINE
  5
2ff
100
AcDbEntity
  8
Calque_1
 62
6
100
AcDbLine
 10
119.082896
 20
132.542716
 30
0.0
 11
118.989740
 21
132.589570
 31
0.0
  0
SPLINE
  5
300
100
AcDbEntity
  8
Calque_1
 62
6
100
AcDbSpline
 70
8
 71
3
 72
8
 73
4
 74
0
 40
0
 40
0
 40
0
 40
0
 40
1
 40
1
 40
1
 40
1
 10
118.989740
 20
132.589570
 30
0.0
 10
117.784759
 20
130.624920
 30
0.0
 10
116.548146
 20
128.671533
 30
0.0
 10
116.803068
 20
126.191615
 30
0.0
  0
SPLINE
  5
301
100
AcDbEntity
  8
Calque_1
 62
6
100
AcDbSpline
 70
8
 71
3
 72
8
 73
4
 74
0
 40
0
 40
0
 40
0
 40
0
 40
1
 40
1
 40
1
 40
1
 10
116.803068
 20
126.191615
 30
0.0
 10
117.470278
 20
123.701013
 30
0.0
 10
118.778991
 20
123.612807
 30
0.0
 10
120.081698
 20
122.713997
 30
0.0
  0
SPLINE
  5
302
100
AcDbEntity
  8
Calque_1
 62
6
100
AcDbSpline
 70
8
 71
3
 72
8
 73
4
 74
0
 40
0
 40
0
 40
0
 40
0
 40
1
 40
1
 40
1
 40
1
 10
120.081698
 20
122.713997
 30
0.0
 10
119.841597
 20
124.999986
 30
0.0
 10
128.358827
 20
130.026202
 30
0.0
 10
131.152305
 20
121.259342
 30
0.0
  0
SPLINE
  5
303
100
AcDbEntity
  8
Calque_1
 62
6
100
AcDbSpline
 70
8
 71
3
 72
8
 73
4
 74
0
 40
0
 40
0
 40
0
 40
0
 40
1
 40
1
 40
1
 40
1
 10
131.152305
 20
121.259342
 30
0.0
 10
131.296878
 20
122.779165
 30
0.0
 10
131.650695
 20
124.545131
 30
0.0
 10
132.942652
 20
124.660340
 30
0.0
  0
SPLINE
  5
304
100
AcDbEntity
  8
Calque_1
 62
6
100
AcDbSpline
 70
8
 71
3
 72
8
 73
4
 74
0
 40
0
 40
0
 40
0
 40
0
 40
1
 40
1
 40
1
 40
1
 10
132.942652
 20
124.660340
 30
0.0
 10
132.997694
 20
125.304249
 30
0.0
 10
133.227767
 20
125.839422
 30
0.0
 10
133.626160
 20
125.996484
 30
0.0
  0
SPLINE
  5
305
100
AcDbEntity
  8
Calque_1
 62
6
100
AcDbSpline
 70
8
 71
3
 72
8
 73
4
 74
0
 40
0
 40
0
 40
0
 40
0
 40
1
 40
1
 40
1
 40
1
 10
133.626160
 20
125.996484
 30
0.0
 10
134.413168
 20
126.153202
 30
0.0
 10
135.147250
 20
126.087628
 30
0.0
 10
136.127575
 20
125.622209
 30
0.0
  0
SPLINE
  5
306
100
AcDbEntity
  8
Calque_1
 62
6
100
AcDbSpline
 70
8
 71
3
 72
8
 73
4
 74
0
 40
0
 40
0
 40
0
 40
0
 40
1
 40
1
 40
1
 40
1
 10
136.127575
 20
125.622209
 30
0.0
 10
137.711107
 20
124.926690
 30
0.0
 10
137.739385
 20
124.403915
 30
0.0
 10
137.670977
 20
123.891944
 30
0.0
  0
SPLINE
  5
307
100
AcDbEntity
  8
Calque_1
 62
6
100
AcDbSpline
 70
8
 71
3
 72
8
 73
4
 74
0
 40
0
 40
0
 40
0
 40
0
 40
1
 40
1
 40
1
 40
1
 10
137.670977
 20
123.891944
 30
0.0
 10
137.672671
 20
123.845618
 30
0.0
 10
137.670664
 20
123.799765
 30
0.0
 10
137.674835
 20
123.745322
 30
0.0
  0
SPLINE
  5
308
100
AcDbEntity
  8
Calque_1
 62
6
100
AcDbSpline
 70
8
 71
3
 72
8
 73
4
 74
0
 40
0
 40
0
 40
0
 40
0
 40
1
 40
1
 40
1
 40
1
 10
137.674835
 20
123.745322
 30
0.0
 10
137.783511
 20
123.728699
 30
0.0
 10
137.879579
 20
123.717655
 30
0.0
 10
137.973043
 20
123.704532
 30
0.0
  0
SPLINE
  5
309
100
AcDbEntity
  8
Calque_1
 62
6
100
AcDbSpline
 70
8
 71
3
 72
8
 73
4
 74
0
 40
0
 40
0
 40
0
 40
0
 40
1
 40
1
 40
1
 40
1
 10
137.973043
 20
123.704532
 30
0.0
 10
138.110344
 20
124.385210
 30
0.0
 10
137.901147
 20
124.671755
 30
0.0
 10
137.740980
 20
125.014218
 30
0.0
  0
SPLINE
  5
30a
100
AcDbEntity
  8
Calque_1
 62
6
100
AcDbSpline
 70
8
 71
3
 72
8
 73
4
 74
0
 40
0
 40
0
 40
0
 40
0
 40
1
 40
1
 40
1
 40
1
 10
137.740980
 20
125.014218
 30
0.0
 10
137.023972
 20
125.687880
 30
0.0
 10
136.406345
 20
125.992886
 30
0.0
 10
135.590139
 20
126.277052
 30
0.0
  0
SPLINE
  5
30b
100
AcDbEntity
  8
Calque_1
 62
6
100
AcDbSpline
 70
8
 71
3
 72
8
 73
4
 74
0
 40
0
 40
0
 40
0
 40
0
 40
1
 40
1
 40
1
 40
1
 10
135.590139
 20
126.277052
 30
0.0
 10
135.854660
 20
126.926906
 30
0.0
 10
136.040650
 20
127.204042
 30
0.0
 10
135.677783
 20
129.109748
 30
0.0
  0
SPLINE
  5
30c
100
AcDbEntity
  8
Calque_1
 62
6
100
AcDbSpline
 70
8
 71
3
 72
8
 73
4
 74
0
 40
0
 40
0
 40
0
 40
0
 40
1
 40
1
 40
1
 40
1
 10
135.677783
 20
129.109748
 30
0.0
 10
135.470626
 20
129.821253
 30
0.0
 10
135.265555
 20
130.829633
 30
0.0
 10
133.111325
 20
133.291268
 30
0.0
  0
LINE
  5
30d
100
AcDbEntity
  8
Calque_1
 62
6
100
AcDbLine
 10
133.111325
 20
133.291268
 30
0.0
 11
132.830756
 21
133.103853
 31
0.0
  0
SPLINE
  5
30e
100
AcDbEntity
  8
Calque_1
 62
6
100
AcDbSpline
 70
8
 71
3
 72
8
 73
4
 74
0
 40
0
 40
0
 40
0
 40
0
 40
1
 40
1
 40
1
 40
1
 10
132.830756
 20
133.103853
 30
0.0
 10
133.657820
 20
132.292402
 30
0.0
 10
134.748877
 20
131.016625
 30
0.0
 10
135.262716
 20
129.082739
 30
0.0
  0
SPLINE
  5
30f
100
AcDbEntity
  8
Calque_1
 62
6
100
AcDbSpline
 70
8
 71
3
 72
8
 73
4
 74
0
 40
0
 40
0
 40
0
 40
0
 40
1
 40
1
 40
1
 40
1
 10
135.262716
 20
129.082739
 30
0.0
 10
135.336359
 20
128.637511
 30
0.0
 10
135.428801
 20
127.314939
 30
0.0
 10
134.935296
 20
126.557621
 30
0.0
  0
SPLINE
  5
310
100
AcDbEntity
  8
Calque_1
 62
6
100
AcDbSpline
 70
8
 71
3
 72
8
 73
4
 74
0
 40
0
 40
0
 40
0
 40
0
 40
1
 40
1
 40
1
 40
1
 10
134.935296
 20
126.557621
 30
0.0
 10
134.560925
 20
126.529342
 30
0.0
 10
134.405537
 20
126.573739
 30
0.0
 10
134.148711
 20
126.584632
 30
0.0
  0
SPLINE
  5
311
100
AcDbEntity
  8
Calque_1
 62
6
100
AcDbSpline
 70
8
 71
3
 72
8
 73
4
 74
0
 40
0
 40
0
 40
0
 40
0
 40
1
 40
1
 40
1
 40
1
 10
134.148711
 20
126.584632
 30
0.0
 10
133.877984
 20
126.618832
 30
0.0
 10
133.902554
 20
127.317349
 30
0.0
 10
133.654269
 20
128.222292
 30
0.0
  0
SPLINE
  5
312
100
AcDbEntity
  8
Calque_1
 62
6
100
AcDbSpline
 70
8
 71
3
 72
8
 73
4
 74
0
 40
0
 40
0
 40
0
 40
0
 40
1
 40
1
 40
1
 40
1
 10
133.654269
 20
128.222292
 30
0.0
 10
133.366355
 20
129.271698
 30
0.0
 10
132.862582
 20
130.610084
 30
0.0
 10
132.237096
 20
131.561553
 30
0.0
  0
SPLINE
  5
313
100
AcDbEntity
  8
Calque_1
 62
6
100
AcDbSpline
 70
8
 71
3
 72
8
 73
4
 74
0
 40
0
 40
0
 40
0
 40
0
 40
1
 40
1
 40
1
 40
1
 10
132.237096
 20
131.561553
 30
0.0
 10
130.932276
 20
134.109151
 30
0.0
 10
130.137007
 20
136.401899
 30
0.0
 10
129.514645
 20
138.621520
 30
0.0
  0
LINE
  5
314
100
AcDbEntity
  8
Calque_1
 62
6
100
AcDbLine
 10
129.514645
 20
138.621520
 30
0.0
 11
129.514645
 21
138.621520
 31
0.0
  0
SPLINE
  5
315
100
AcDbEntity
  8
Calque_1
 62
6
100
AcDbSpline
 70
8
 71
3
 72
8
 73
4
 74
0
 40
0
 40
0
 40
0
 40
0
 40
1
 40
1
 40
1
 40
1
 10
128.297361
 20
142.035241
 30
0.0
 10
128.401137
 20
142.605626
 30
0.0
 10
128.369740
 20
143.220043
 30
0.0
 10
127.819317
 20
143.411509
 30
0.0
  0
LINE
  5
316
100
AcDbEntity
  8
Calque_1
 62
6
100
AcDbLine
 10
127.819317
 20
143.411509
 30
0.0
 11
127.819314
 21
143.411509
 31
0.0
  0
SPLINE
  5
317
100
AcDbEntity
  8
Calque_1
 62
6
100
AcDbSpline
 70
8
 71
3
 72
8
 73
4
 74
0
 40
0
 40
0
 40
0
 40
0
 40
1
 40
1
 40
1
 40
1
 10
127.819314
 20
143.411509
 30
0.0
 10
126.982773
 20
143.484977
 30
0.0
 10
126.768101
 20
142.908400
 30
0.0
 10
126.719132
 20
142.351013
 30
0.0
  0
SPLINE
  5
318
100
AcDbEntity
  8
Calque_1
 62
6
100
AcDbSpline
 70
8
 71
3
 72
8
 73
4
 74
0
 40
0
 40
0
 40
0
 40
0
 40
1
 40
1
 40
1
 40
1
 10
126.719132
 20
142.351013
 30
0.0
 10
126.435039
 20
142.393059
 30
0.0
 10
126.138819
 20
142.410853
 30
0.0
 10
125.827178
 20
142.397809
 30
0.0
  0
SPLINE
  5
319
100
AcDbEntity
  8
Calque_1
 62
6
100
AcDbSpline
 70
8
 71
3
 72
8
 73
4
 74
0
 40
0
 40
0
 40
0
 40
0
 40
1
 40
1
 40
1
 40
1
 10
125.827178
 20
142.397809
 30
0.0
 10
125.807450
 20
142.858867
 30
0.0
 10
125.799915
 20
143.255191
 30
0.0
 10
126.245826
 20
143.976041
 30
0.0
  0
SPLINE
  5
31a
100
AcDbEntity
  8
Calque_1
 62
6
100
AcDbSpline
 70
8
 71
3
 72
8
 73
4
 74
0
 40
0
 40
0
 40
0
 40
0
 40
1
 40
1
 40
1
 40
1
 10
126.245826
 20
143.976041
 30
0.0
 10
126.434150
 20
144.250541
 30
0.0
 10
126.962425
 20
144.894239
 30
0.0
 10
127.771418
 20
144.858662
 30
0.0
  0
SPLINE
  5
31b
100
AcDbEntity
  8
Calque_1
 62
6
100
AcDbSpline
 70
8
 71
3
 72
8
 73
4
 74
0
 40
0
 40
0
 40
0
 40
0
 40
1
 40
1
 40
1
 40
1
 10
127.771418
 20
144.858662
 30
0.0
 10
128.219906
 20
144.756430
 30
0.0
 10
129.003865
 20
144.646849
 30
0.0
 10
129.524966
 20
143.128488
 30
0.0
  0
SPLINE
  5
31c
100
AcDbEntity
  8
Calque_1
 62
6
100
AcDbSpline
 70
8
 71
3
 72
8
 73
4
 74
0
 40
0
 40
0
 40
0
 40
0
 40
1
 40
1
 40
1
 40
1
 10
129.524966
 20
143.128488
 30
0.0
 10
129.608374
 20
142.802961
 30
0.0
 10
129.697599
 20
141.727824
 30
0.0
 10
129.321450
 20
141.086393
 30
0.0
  0
SPLINE
  5
31d
100
AcDbEntity
  8
Calque_1
 62
6
100
AcDbSpline
 70
8
 71
3
 72
8
 73
4
 74
0
 40
0
 40
0
 40
0
 40
0
 40
1
 40
1
 40
1
 40
1
 10
129.321450
 20
141.086393
 30
0.0
 10
129.322579
 20
141.478402
 30
0.0
 10
128.875079
 20
141.823859
 30
0.0
 10
128.287125
 20
142.033550
 30
0.0
  0
SPLINE
  5
31e
100
AcDbEntity
  8
Calque_1
 62
6
100
AcDbSpline
 70
8
 71
3
 72
8
 73
4
 74
0
 40
0
 40
0
 40
0
 40
0
 40
1
 40
1
 40
1
 40
1
 10
124.217549
 20
143.479200
 30
0.0
 10
123.959383
 20
143.921741
 30
0.0
 10
123.748755
 20
144.402030
 30
0.0
 10
122.978373
 20
144.437810
 30
0.0
  0
SPLINE
  5
31f
100
AcDbEntity
  8
Calque_1
 62
6
100
AcDbSpline
 70
8
 71
3
 72
8
 73
4
 74
0
 40
0
 40
0
 40
0
 40
0
 40
1
 40
1
 40
1
 40
1
 10
122.978373
 20
144.437810
 30
0.0
 10
122.186886
 20
144.254049
 30
0.0
 10
121.790468
 20
143.709566
 30
0.0
 10
121.715815
 20
142.871301
 30
0.0
  0
SPLINE
  5
320
100
AcDbEntity
  8
Calque_1
 62
6
100
AcDbSpline
 70
8
 71
3
 72
8
 73
4
 74
0
 40
0
 40
0
 40
0
 40
0
 40
1
 40
1
 40
1
 40
1
 10
121.715815
 20
142.871301
 30
0.0
 10
121.745742
 20
142.354107
 30
0.0
 10
121.492529
 20
141.881427
 30
0.0
 10
122.062378
 20
140.976622
 30
0.0
  0
SPLINE
  5
321
100
AcDbEntity
  8
Calque_1
 62
6
100
AcDbSpline
 70
8
 71
3
 72
8
 73
4
 74
0
 40
0
 40
0
 40
0
 40
0
 40
1
 40
1
 40
1
 40
1
 10
122.062378
 20
140.976622
 30
0.0
 10
122.088427
 20
141.232321
 30
0.0
 10
122.280110
 20
141.486352
 30
0.0
 10
122.523182
 20
141.672941
 30
0.0
  0
SPLINE
  5
322
100
AcDbEntity
  8
Calque_1
 62
6
100
AcDbSpline
 70
8
 71
3
 72
8
 73
4
 74
0
 40
0
 40
0
 40
0
 40
0
 40
1
 40
1
 40
1
 40
1
 10
122.523182
 20
141.672941
 30
0.0
 10
122.011968
 20
143.024918
 30
0.0
 10
122.906293
 20
143.114481
 30
0.0
 10
123.036832
 20
143.075881
 30
0.0
  0
SPLINE
  5
323
100
AcDbEntity
  8
Calque_1
 62
6
100
AcDbSpline
 70
8
 71
3
 72
8
 73
4
 74
0
 40
0
 40
0
 40
0
 40
0
 40
1
 40
1
 40
1
 40
1
 10
123.036832
 20
143.075881
 30
0.0
 10
123.451389
 20
142.891122
 30
0.0
 10
123.568590
 20
142.499530
 30
0.0
 10
123.593462
 20
142.138348
 30
0.0
  0
SPLINE
  5
324
100
AcDbEntity
  8
Calque_1
 62
6
100
AcDbSpline
 70
8
 71
3
 72
8
 73
4
 74
0
 40
0
 40
0
 40
0
 40
0
 40
1
 40
1
 40
1
 40
1
 10
123.593462
 20
142.138348
 30
0.0
 10
123.826857
 20
142.203569
 30
0.0
 10
124.080544
 20
142.257375
 30
0.0
 10
124.350800
 20
142.294558
 30
0.0
  0
SPLINE
  5
325
100
AcDbEntity
  8
Calque_1
 62
6
100
AcDbSpline
 70
8
 71
3
 72
8
 73
4
 74
0
 40
0
 40
0
 40
0
 40
0
 40
1
 40
1
 40
1
 40
1
 10
124.350800
 20
142.294558
 30
0.0
 10
124.385355
 20
142.669112
 30
0.0
 10
124.412437
 20
143.039108
 30
0.0
 10
124.217549
 20
143.479200
 30
0.0
  0
LINE
  5
326
100
AcDbEntity
  8
Calque_1
 62
6
100
AcDbLine
 10
124.217549
 20
143.479200
 30
0.0
 11
124.217549
 21
143.479200
 31
0.0
  0
SPLINE
  5
327
100
AcDbEntity
  8
Calque_1
 62
6
100
AcDbSpline
 70
8
 71
3
 72
8
 73
4
 74
0
 40
0
 40
0
 40
0
 40
0
 40
1
 40
1
 40
1
 40
1
 10
130.914216
 20
113.987378
 30
0.0
 10
131.646744
 20
112.041761
 30
0.0
 10
134.313360
 20
112.013225
 30
0.0
 10
135.783337
 20
113.431042
 30
0.0
  0
SPLINE
  5
328
100
AcDbEntity
  8
Calque_1
 62
6
100
AcDbSpline
 70
8
 71
3
 72
8
 73
4
 74
0
 40
0
 40
0
 40
0
 40
0
 40
1
 40
1
 40
1
 40
1
 10
135.783337
 20
113.431042
 30
0.0
 10
138.337448
 20
115.894523
 30
0.0
 10
138.837763
 20
116.039946
 30
0.0
 10
140.640951
 20
116.692862
 30
0.0
  0
SPLINE
  5
329
100
AcDbEntity
  8
Calque_1
 62
6
100
AcDbSpline
 70
8
 71
3
 72
8
 73
4
 74
0
 40
0
 40
0
 40
0
 40
0
 40
1
 40
1
 40
1
 40
1
 10
140.640951
 20
116.692862
 30
0.0
 10
141.203302
 20
117.160355
 30
0.0
 10
141.374916
 20
117.230549
 30
0.0
 10
141.366593
 20
117.889854
 30
0.0
  0
SPLINE
  5
32a
100
AcDbEntity
  8
Calque_1
 62
6
100
AcDbSpline
 70
8
 71
3
 72
8
 73
4
 74
0
 40
0
 40
0
 40
0
 40
0
 40
1
 40
1
 40
1
 40
1
 10
141.366593
 20
117.889854
 30
0.0
 10
141.301168
 20
118.633549
 30
0.0
 10
138.071547
 20
117.872215
 30
0.0
 10
137.122052
 20
117.333732
 30
0.0
  0
SPLINE
  5
32b
100
AcDbEntity
  8
Calque_1
 62
6
100
AcDbSpline
 70
8
 71
3
 72
8
 73
4
 74
0
 40
0
 40
0
 40
0
 40
0
 40
1
 40
1
 40
1
 40
1
 10
137.122052
 20
117.333732
 30
0.0
 10
135.603220
 20
116.060966
 30
0.0
 10
133.973691
 20
116.454429
 30
0.0
 10
132.803903
 20
115.987098
 30
0.0
  0
SPLINE
  5
32c
100
AcDbEntity
  8
Calque_1
 62
6
100
AcDbSpline
 70
8
 71
3
 72
8
 73
4
 74
0
 40
0
 40
0
 40
0
 40
0
 40
1
 40
1
 40
1
 40
1
 10
132.803903
 20
115.987098
 30
0.0
 10
131.942132
 20
115.642817
 30
0.0
 10
131.267059
 20
115.154384
 30
0.0
 10
130.914216
 20
113.987378
 30
0.0
  0
LINE
  5
32d
100
AcDbEntity
  8
Calque_1
 62
6
100
AcDbLine
 10
130.914216
 20
113.987378
 30
0.0
 11
130.914216
 21
113.987378
 31
0.0
  0
SPLINE
  5
32e
100
AcDbEntity
  8
Calque_1
 62
6
100
AcDbSpline
 70
8
 71
3
 72
8
 73
4
 74
0
 40
0
 40
0
 40
0
 40
0
 40
1
 40
1
 40
1
 40
1
 10
133.053918
 20
123.441961
 30
0.0
 10
131.957417
 20
122.549142
 30
0.0
 10
132.282782
 20
121.506650
 30
0.0
 10
132.305738
 20
120.495990
 30
0.0
  0
SPLINE
  5
32f
100
AcDbEntity
  8
Calque_1
 62
6
100
AcDbSpline
 70
8
 71
3
 72
8
 73
4
 74
0
 40
0
 40
0
 40
0
 40
0
 40
1
 40
1
 40
1
 40
1
 10
132.305738
 20
120.495990
 30
0.0
 10
134.195287
 20
122.148116
 30
0.0
 10
135.870690
 20
121.234450
 30
0.0
 10
137.276259
 20
119.740684
 30
0.0
  0
SPLINE
  5
330
100
AcDbEntity
  8
Calque_1
 62
6
100
AcDbSpline
 70
8
 71
3
 72
8
 73
4
 74
0
 40
0
 40
0
 40
0
 40
0
 40
1
 40
1
 40
1
 40
1
 10
137.276259
 20
119.740684
 30
0.0
 10
137.602016
 20
120.788440
 30
0.0
 10
138.063416
 20
121.206538
 30
0.0
 10
136.995577
 20
122.594826
 30
0.0
  0
SPLINE
  5
331
100
AcDbEntity
  8
Calque_1
 62
6
100
AcDbSpline
 70
8
 71
3
 72
8
 73
4
 74
0
 40
0
 40
0
 40
0
 40
0
 40
1
 40
1
 40
1
 40
1
 10
136.995577
 20
122.594826
 30
0.0
 10
136.292494
 20
122.150334
 30
0.0
 10
135.342791
 20
121.629459
 30
0.0
 10
134.441026
 20
121.815269
 30
0.0
  0
SPLINE
  5
332
100
AcDbEntity
  8
Calque_1
 62
6
100
AcDbSpline
 70
8
 71
3
 72
8
 73
4
 74
0
 40
0
 40
0
 40
0
 40
0
 40
1
 40
1
 40
1
 40
1
 10
134.441026
 20
121.815269
 30
0.0
 10
133.846621
 20
122.027407
 30
0.0
 10
133.399118
 20
122.606798
 30
0.0
 10
133.053923
 20
123.441961
 30
0.0
  0
LINE
  5
333
100
AcDbEntity
  8
Calque_1
 62
6
100
AcDbLine
 10
133.053923
 20
123.441961
 30
0.0
 11
133.053918
 21
123.441961
 31
0.0
  0
LINE
  5
334
100
AcDbEntity
  8
Calque_1
 62
6
100
AcDbLine
 10
124.403795
 20
111.835564
 30
0.0
 11
132.496523
 21
111.876898
 31
0.0
  0
SPLINE
  5
335
100
AcDbEntity
  8
Calque_1
 62
6
100
AcDbSpline
 70
8
 71
3
 72
8
 73
4
 74
0
 40
0
 40
0
 40
0
 40
0
 40
1
 40
1
 40
1
 40
1
 10
132.496523
 20
111.876898
 30
0.0
 10
131.443151
 20
112.025437
 30
0.0
 10
130.268362
 20
113.322934
 30
0.0
 10
130.239815
 20
114.150141
 30
0.0
  0
SPLINE
  5
336
100
AcDbEntity
  8
Calque_1
 62
6
100
AcDbSpline
 70
8
 71
3
 72
8
 73
4
 74
0
 40
0
 40
0
 40
0
 40
0
 40
1
 40
1
 40
1
 40
1
 10
130.239815
 20
114.150141
 30
0.0
 10
128.941703
 20
114.071367
 30
0.0
 10
127.718953
 20
114.168429
 30
0.0
 10
126.553036
 20
114.398130
 30
0.0
  0
LINE
  5
337
100
AcDbEntity
  8
Calque_1
 62
6
100
AcDbLine
 10
126.553036
 20
114.398130
 30
0.0
 11
124.403795
 21
111.835564
 31
0.0
  0
SPLINE
  5
338
100
AcDbEntity
  8
Calque_1
 62
6
100
AcDbSpline
 70
8
 71
3
 72
8
 73
4
 74
0
 40
0
 40
0
 40
0
 40
0
 40
1
 40
1
 40
1
 40
1
 10
120.755681
 20
117.351281
 30
0.0
 10
117.383718
 20
119.850723
 30
0.0
 10
115.732060
 20
119.281492
 30
0.0
 10
114.653322
 20
117.690300
 30
0.0
  0
LINE
  5
339
100
AcDbEntity
  8
Calque_1
 62
6
100
AcDbLine
 10
114.653322
 20
117.690300
 30
0.0
 11
112.502301
 21
120.355703
 31
0.0
  0
SPLINE
  5
33a
100
AcDbEntity
  8
Calque_1
 62
6
100
AcDbSpline
 70
8
 71
3
 72
8
 73
4
 74
0
 40
0
 40
0
 40
0
 40
0
 40
1
 40
1
 40
1
 40
1
 10
112.502301
 20
120.355703
 30
0.0
 10
112.906299
 20
120.459484
 30
0.0
 10
114.763039
 20
122.553548
 30
0.0
 10
115.403890
 20
123.685688
 30
0.0
  0
SPLINE
  5
33b
100
AcDbEntity
  8
Calque_1
 62
6
100
AcDbSpline
 70
8
 71
3
 72
8
 73
4
 74
0
 40
0
 40
0
 40
0
 40
0
 40
1
 40
1
 40
1
 40
1
 10
115.403890
 20
123.685688
 30
0.0
 10
117.946162
 20
123.893618
 30
0.0
 10
117.002049
 20
120.775813
 30
0.0
 10
120.755681
 20
117.351281
 30
0.0
  0
LINE
  5
33c
100
AcDbEntity
  8
Calque_1
 62
6
100
AcDbLine
 10
120.755681
 20
117.351281
 30
0.0
 11
120.755681
 21
117.351281
 31
0.0
  0
SPLINE
  5
33d
100
AcDbEntity
  8
Calque_1
 62
5
100
AcDbSpline
 70
8
 71
3
 72
8
 73
4
 74
0
 40
0
 40
0
 40
0
 40
0
 40
1
 40
1
 40
1
 40
1
 10
121.872637
 20
145.185160
 30
0.0
 10
124.353836
 20
148.151166
 30
0.0
 10
126.715766
 20
149.161259
 30
0.0
 10
129.479317
 20
145.355574
 30
0.0
  0
SPLINE
  5
33e
100
AcDbEntity
  8
Calque_1
 62
5
100
AcDbSpline
 70
8
 71
3
 72
8
 73
4
 74
0
 40
0
 40
0
 40
0
 40
0
 40
1
 40
1
 40
1
 40
1
 10
129.479317
 20
145.355574
 30
0.0
 10
130.361230
 20
146.555919
 30
0.0
 10
130.502426
 20
149.437580
 30
0.0
 10
126.270320
 20
149.682049
 30
0.0
  0
SPLINE
  5
33f
100
AcDbEntity
  8
Calque_1
 62
5
100
AcDbSpline
 70
8
 71
3
 72
8
 73
4
 74
0
 40
0
 40
0
 40
0
 40
0
 40
1
 40
1
 40
1
 40
1
 10
126.270320
 20
149.682049
 30
0.0
 10
124.520760
 20
149.783113
 30
0.0
 10
120.798110
 20
148.224447
 30
0.0
 10
121.872637
 20
145.185160
 30
0.0
  0
LINE
  5
340
100
AcDbEntity
  8
Calque_1
 62
5
100
AcDbLine
 10
121.872637
 20
145.185160
 30
0.0
 11
121.872637
 21
145.185160
 31
0.0
  0
SPLINE
  5
341
100
AcDbEntity
  8
Calque_1
 62
3
100
AcDbSpline
 70
8
 71
3
 72
8
 73
4
 74
0
 40
0
 40
0
 40
0
 40
0
 40
1
 40
1
 40
1
 40
1
 10
115.299589
 20
124.864606
 30
0.0
 10
113.939379
 20
128.171963
 30
0.0
 10
118.740829
 20
134.131523
 30
0.0
 10
119.703667
 20
135.092162
 30
0.0
  0
LINE
  5
342
100
AcDbEntity
  8
Calque_1
 62
3
100
AcDbLine
 10
119.703667
 20
135.092162
 30
0.0
 11
119.598573
 21
134.576028
 31
0.0
  0
SPLINE
  5
343
100
AcDbEntity
  8
Calque_1
 62
3
100
AcDbSpline
 70
8
 71
3
 72
8
 73
4
 74
0
 40
0
 40
0
 40
0
 40
0
 40
1
 40
1
 40
1
 40
1
 10
119.598573
 20
134.576028
 30
0.0
 10
114.837264
 20
127.721390
 30
0.0
 10
116.511251
 20
125.795059
 30
0.0
 10
116.836069
 20
124.851887
 30
0.0
  0
SPLINE
  5
344
100
AcDbEntity
  8
Calque_1
 62
3
100
AcDbSpline
 70
8
 71
3
 72
8
 73
4
 74
0
 40
0
 40
0
 40
0
 40
0
 40
1
 40
1
 40
1
 40
1
 10
116.836069
 20
124.851887
 30
0.0
 10
116.001046
 20
124.845565
 30
0.0
 10
115.800846
 20
127.818677
 30
0.0
 10
115.809355
 20
127.843104
 30
0.0
  0
SPLINE
  5
345
100
AcDbEntity
  8
Calque_1
 62
3
100
AcDbSpline
 70
8
 71
3
 72
8
 73
4
 74
0
 40
0
 40
0
 40
0
 40
0
 40
1
 40
1
 40
1
 40
1
 10
115.809355
 20
127.843104
 30
0.0
 10
115.585130
 20
127.946352
 30
0.0
 10
115.490165
 20
125.181265
 30
0.0
 10
115.299589
 20
124.864606
 30
0.0
  0
LINE
  5
346
100
AcDbEntity
  8
Calque_1
 62
3
100
AcDbLine
 10
115.299589
 20
124.864606
 30
0.0
 11
115.299589
 21
124.864606
 31
0.0
  0
SPLINE
  5
347
100
AcDbEntity
  8
Calque_1
 62
3
100
AcDbSpline
 70
8
 71
3
 72
8
 73
4
 74
0
 40
0
 40
0
 40
0
 40
0
 40
1
 40
1
 40
1
 40
1
 10
133.886420
 20
135.831858
 30
0.0
 10
135.129047
 20
132.671006
 30
0.0
 10
137.610650
 20
129.890699
 30
0.0
 10
137.066195
 20
126.425264
 30
0.0
  0
SPLINE
  5
348
100
AcDbEntity
  8
Calque_1
 62
3
100
AcDbSpline
 70
8
 71
3
 72
8
 73
4
 74
0
 40
0
 40
0
 40
0
 40
0
 40
1
 40
1
 40
1
 40
1
 10
137.066195
 20
126.425264
 30
0.0
 10
137.526460
 20
127.214058
 30
0.0
 10
137.562076
 20
127.632001
 30
0.0
 10
137.591427
 20
128.463888
 30
0.0
  0
SPLINE
  5
349
100
AcDbEntity
  8
Calque_1
 62
3
100
AcDbSpline
 70
8
 71
3
 72
8
 73
4
 74
0
 40
0
 40
0
 40
0
 40
0
 40
1
 40
1
 40
1
 40
1
 10
137.591427
 20
128.463888
 30
0.0
 10
138.170313
 20
127.921798
 30
0.0
 10
138.351178
 20
126.476792
 30
0.0
 10
138.656083
 20
125.778140
 30
0.0
  0
SPLINE
  5
34a
100
AcDbEntity
  8
Calque_1
 62
3
100
AcDbSpline
 70
8
 71
3
 72
8
 73
4
 74
0
 40
0
 40
0
 40
0
 40
0
 40
1
 40
1
 40
1
 40
1
 10
138.656083
 20
125.778140
 30
0.0
 10
138.656929
 20
128.771623
 30
0.0
 10
137.367902
 20
130.877232
 30
0.0
 10
136.644490
 20
132.109753
 30
0.0
  0
SPLINE
  5
34b
100
AcDbEntity
  8
Calque_1
 62
3
100
AcDbSpline
 70
8
 71
3
 72
8
 73
4
 74
0
 40
0
 40
0
 40
0
 40
0
 40
1
 40
1
 40
1
 40
1
 10
136.644490
 20
132.109753
 30
0.0
 10
135.821124
 20
133.512570
 30
0.0
 10
134.916401
 20
134.234110
 30
0.0
 10
133.886420
 20
135.831858
 30
0.0
  0
LINE
  5
34c
100
AcDbEntity
  8
Calque_1
 62
3
100
AcDbLine
 10
133.886420
 20
135.831858
 30
0.0
 11
133.886420
 21
135.831858
 31
0.0
  0
SPLINE
  5
34d
100
AcDbEntity
  8
Calque_1
 62
3
100
AcDbSpline
 70
8
 71
3
 72
8
 73
4
 74
0
 40
0
 40
0
 40
0
 40
0
 40
1
 40
1
 40
1
 40
1
 10
122.775703
 20
141.884097
 30
0.0
 10
122.917568
 20
142.148717
 30
0.0
 10
123.045062
 20
142.261044
 30
0.0
 10
123.241901
 20
141.931913
 30
0.0
  0
SPLINE
  5
34e
100
AcDbEntity
  8
Calque_1
 62
3
100
AcDbSpline
 70
8
 71
3
 72
8
 73
4
 74
0
 40
0
 40
0
 40
0
 40
0
 40
1
 40
1
 40
1
 40
1
 10
123.241901
 20
141.931913
 30
0.0
 10
123.285453
 20
142.290307
 30
0.0
 10
123.257338
 20
142.863182
 30
0.0
 10
122.934871
 20
142.842464
 30
0.0
  0
SPLINE
  5
34f
100
AcDbEntity
  8
Calque_1
 62
3
100
AcDbSpline
 70
8
 71
3
 72
8
 73
4
 74
0
 40
0
 40
0
 40
0
 40
0
 40
1
 40
1
 40
1
 40
1
 10
122.934871
 20
142.842464
 30
0.0
 10
122.577815
 20
142.690733
 30
0.0
 10
122.715850
 20
142.100948
 30
0.0
 10
122.775703
 20
141.884097
 30
0.0
  0
LINE
  5
350
100
AcDbEntity
  8
Calque_1
 62
3
100
AcDbLine
 10
122.775703
 20
141.884097
 30
0.0
 11
122.775703
 21
141.884097
 31
0.0
  0
SPLINE
  5
351
100
AcDbEntity
  8
Calque_1
 62
3
100
AcDbSpline
 70
8
 71
3
 72
8
 73
4
 74
0
 40
0
 40
0
 40
0
 40
0
 40
1
 40
1
 40
1
 40
1
 10
126.999766
 20
141.867685
 30
0.0
 10
127.134499
 20
142.310534
 30
0.0
 10
127.539936
 20
142.546145
 30
0.0
 10
127.751151
 20
141.857638
 30
0.0
  0
SPLINE
  5
352
100
AcDbEntity
  8
Calque_1
 62
3
100
AcDbSpline
 70
8
 71
3
 72
8
 73
4
 74
0
 40
0
 40
0
 40
0
 40
0
 40
1
 40
1
 40
1
 40
1
 10
127.751151
 20
141.857638
 30
0.0
 10
127.849043
 20
142.216032
 30
0.0
 10
127.913644
 20
143.123696
 30
0.0
 10
127.435856
 20
143.102978
 30
0.0
  0
SPLINE
  5
353
100
AcDbEntity
  8
Calque_1
 62
3
100
AcDbSpline
 70
8
 71
3
 72
8
 73
4
 74
0
 40
0
 40
0
 40
0
 40
0
 40
1
 40
1
 40
1
 40
1
 10
127.435856
 20
143.102978
 30
0.0
 10
126.927412
 20
143.055324
 30
0.0
 10
126.934047
 20
142.088572
 30
0.0
 10
126.999766
 20
141.867688
 30
0.0
  0
LINE
  5
354
100
AcDbEntity
  8
Calque_1
 62
3
100
AcDbLine
 10
126.999766
 20
141.867688
 30
0.0
 11
126.999766
 21
141.867685
 31
0.0
  0
ENDSEC
  0
SECTION
  2
OBJECTS
  0
DICTIONARY
  5
C
330
0
100
AcDbDictionary
  3
ACAD_GROUP
350
D
  3
ACAD_MLINESTYLE
350
17
  0
DICTIONARY
  5
D
330
C
100
AcDbDictionary
  0
DICTIONARY
  5
1A
330
C
100
AcDbDictionary
  0
DICTIONARY
  5
17
330
C
100
AcDbDictionary
  3
STANDARD
350
18
  0
DICTIONARY
  5
19
330
C
100
AcDbDictionary
  0
ENDSEC
  0
EOF
