  0
SECTION
  2
HEADER
  9
$ACADVER
  1
AC1014
  9
$HANDSEED
  5
FFFF
  9
$MEASUREMENT
 70
     1
  0
ENDSEC
  0
SECTION
  2
TABLES
  0
TABLE
  2
VPORT
  5
8
330
0
100
AcDbSymbolTable
 70
     4
  0
VPORT
  5
2E
330
8
100
AcDbSymbolTableRecord
100
AcDbViewportTableRecord
  2
*ACTIVE
 70
     0
 10
0.0
 20
0.0
 11
1.0
 21
1.0
 12
210.0
 22
148.5
 13
0.0
 23
0.0
 14
10.0
 24
10.0
 15
10.0
 25
10.0
 16
0.0
 26
0.0
 36
1.0
 17
0.0
 27
0.0
 37
0.0
 40
341.0
 41
1.24
 42
50.0
 43
0.0
 44
0.0
 50
0.0
 51
0.0
 71
     0
 72
   100
 73
     1
 74
     3
 75
     0
 76
     0
 77
     0
 78
     0
  0
ENDTAB
  0
TABLE
  2
LTYPE
  5
5
330
0
100
AcDbSymbolTable
 70
     1
  0
LTYPE
  5
14
330
5
100
AcDbSymbolTableRecord
100
AcDbLinetypeTableRecord
  2
BYBLOCK
 70
     0
  3

 72
    65
 73
     0
 40
0.0
  0
LTYPE
  5
15
330
5
100
AcDbSymbolTableRecord
100
AcDbLinetypeTableRecord
  2
BYLAYER
 70
     0
  3

 72
    65
 73
     0
 40
0.0
  0
LTYPE
  5
16
330
5
100
AcDbSymbolTableRecord
100
AcDbLinetypeTableRecord
  2
CONTINUOUS
 70
     0
  3
Solid line
 72
    65
 73
     0
 40
0.0
  0
ENDTAB
  0
TABLE
  2
LAYER
  5
2
100
AcDbSymbolTable
 70
2
  0
LAYER
  5
50
100
AcDbSymbolTableRecord
100
AcDbLayerTableRecord
  2
0
 70
0
  6
CONTINUOUS
  0
LAYER
  5
51
100
AcDbSymbolTableRecord
100
AcDbLayerTableRecord
  2
Calque_1
 70
0
  6
CONTINUOUS
  0
ENDTAB
  0
TABLE
  2
STYLE
  5
3
330
0
100
AcDbSymbolTable
 70
     1
  0
STYLE
  5
11
330
3
100
AcDbSymbolTableRecord
100
AcDbTextStyleTableRecord
  2
STANDARD
 70
     0
 40
0.0
 41
1.0
 50
0.0
 71
     0
 42
2.5
  3
txt
  4

  0
ENDTAB
  0
TABLE
  2
VIEW
  5
6
330
0
100
AcDbSymbolTable
 70
     0
  0
ENDTAB
  0
TABLE
  2
UCS
  5
7
330
0
100
AcDbSymbolTable
 70
     0
  0
ENDTAB
  0
TABLE
  2
APPID
  5
9
330
0
100
AcDbSymbolTable
 70
     2
  0
APPID
  5
12
330
9
100
AcDbSymbolTableRecord
100
AcDbRegAppTableRecord
  2
ACAD
 70
     0
  0
ENDTAB
  0
TABLE
  2
DIMSTYLE
  5
A
330
0
100
AcDbSymbolTable
 70
     1
  0
DIMSTYLE
105
27
330
A
100
AcDbSymbolTableRecord
100
AcDbDimStyleTableRecord
  2
ISO-25
 70
     0
  3

  4

  5

  6

  7

 40
1.0
 41
2.5
 42
0.625
 43
3.75
 44
1.25
 45
0.0
 46
0.0
 47
0.0
 48
0.0
140
2.5
141
2.5
142
0.0
143
0.03937007874016
144
1.0
145
0.0
146
1.0
147
0.625
 71
     0
 72
     0
 73
     0
 74
     0
 75
     0
 76
     0
 77
     1
 78
     8
170
     0
171
     3
172
     1
173
     0
174
     0
175
     0
176
     0
177
     0
178
     0
270
     2
271
     2
272
     2
273
     2
274
     3
340
11
275
     0
280
     0
281
     0
282
     0
283
     0
284
     8
285
     0
286
     0
287
     3
288
     0
  0
ENDTAB
  0
TABLE
  2
BLOCK_RECORD
  5
1
330
0
100
AcDbSymbolTable
 70
     1
  0
BLOCK_RECORD
  5
1F
330
1
100
AcDbSymbolTableRecord
100
AcDbBlockTableRecord
  2
*MODEL_SPACE
  0
BLOCK_RECORD
  5
1B
330
1
100
AcDbSymbolTableRecord
100
AcDbBlockTableRecord
  2
*PAPER_SPACE
  0
ENDTAB
  0
ENDSEC
  0
SECTION
  2
BLOCKS
  0
BLOCK
  5
20
330
1F
100
AcDbEntity
  8
0
100
AcDbBlockBegin
  2
*MODEL_SPACE
 70
     0
 10
0.0
 20
0.0
 30
0.0
  3
*MODEL_SPACE
  1

  0
ENDBLK
  5
21
330
1F
100
AcDbEntity
  8
0
100
AcDbBlockEnd
  0
BLOCK
  5
1C
330
1B
100
AcDbEntity
 67
     1
  8
0
100
AcDbBlockBegin
  2
*PAPER_SPACE
  1

  0
ENDBLK
  5
1D
330
1B
100
AcDbEntity
 67
     1
  8
0
100
AcDbBlockEnd
  0
ENDSEC
  0
SECTION
  2
ENTITIES
  0
SPLINE
  5
100
100
AcDbEntity
  8
Calque_1
 62
7
100
AcDbSpline
 70
8
 71
3
 72
8
 73
4
 74
0
 40
0
 40
0
 40
0
 40
0
 40
1
 40
1
 40
1
 40
1
 10
1265.638622
 20
848.947202
 30
0.0
 10
1265.627051
 20
850.317786
 30
0.0
 10
1265.415921
 20
851.648774
 30
0.0
 10
1265.024563
 20
852.927636
 30
0.0
  0
SPLINE
  5
101
100
AcDbEntity
  8
Calque_1
 62
7
100
AcDbSpline
 70
8
 71
3
 72
8
 73
4
 74
0
 40
0
 40
0
 40
0
 40
0
 40
1
 40
1
 40
1
 40
1
 10
1265.024563
 20
852.927636
 30
0.0
 10
1264.633234
 20
854.206498
 30
0.0
 10
1264.061565
 20
855.433261
 30
0.0
 10
1263.328634
 20
856.595424
 30
0.0
  0
SPLINE
  5
102
100
AcDbEntity
  8
Calque_1
 62
7
100
AcDbSpline
 70
8
 71
3
 72
8
 73
4
 74
0
 40
0
 40
0
 40
0
 40
0
 40
1
 40
1
 40
1
 40
1
 10
1263.328634
 20
856.595424
 30
0.0
 10
1262.595702
 20
857.757587
 30
0.0
 10
1261.701481
 20
858.855177
 30
0.0
 10
1260.665048
 20
859.875636
 30
0.0
  0
SPLINE
  5
103
100
AcDbEntity
  8
Calque_1
 62
7
100
AcDbSpline
 70
8
 71
3
 72
8
 73
4
 74
0
 40
0
 40
0
 40
0
 40
0
 40
1
 40
1
 40
1
 40
1
 10
1260.665048
 20
859.875636
 30
0.0
 10
1259.628587
 20
860.896124
 30
0.0
 10
1258.449914
 20
861.839536
 30
0.0
 10
1257.148052
 20
862.693371
 30
0.0
  0
SPLINE
  5
104
100
AcDbEntity
  8
Calque_1
 62
7
100
AcDbSpline
 70
8
 71
3
 72
8
 73
4
 74
0
 40
0
 40
0
 40
0
 40
0
 40
1
 40
1
 40
1
 40
1
 10
1257.148052
 20
862.693371
 30
0.0
 10
1255.846189
 20
863.547178
 30
0.0
 10
1250.150521
 20
860.506121
 30
0.0
 10
1248.621328
 20
861.168299
 30
0.0
  0
SPLINE
  5
105
100
AcDbEntity
  8
Calque_1
 62
7
100
AcDbSpline
 70
8
 71
3
 72
8
 73
4
 74
0
 40
0
 40
0
 40
0
 40
0
 40
1
 40
1
 40
1
 40
1
 10
1248.621328
 20
861.168299
 30
0.0
 10
1247.092107
 20
861.830505
 30
0.0
 10
1249.729361
 20
866.195947
 30
0.0
 10
1248.010910
 20
866.641519
 30
0.0
  0
SPLINE
  5
106
100
AcDbEntity
  8
Calque_1
 62
7
100
AcDbSpline
 70
8
 71
3
 72
8
 73
4
 74
0
 40
0
 40
0
 40
0
 40
0
 40
1
 40
1
 40
1
 40
1
 10
1248.010910
 20
866.641519
 30
0.0
 10
1246.292458
 20
867.087120
 30
0.0
 10
1244.488889
 20
867.418138
 30
0.0
 10
1242.619252
 20
867.622128
 30
0.0
  0
SPLINE
  5
107
100
AcDbEntity
  8
Calque_1
 62
7
100
AcDbSpline
 70
8
 71
3
 72
8
 73
4
 74
0
 40
0
 40
0
 40
0
 40
0
 40
1
 40
1
 40
1
 40
1
 10
1242.619252
 20
867.622128
 30
0.0
 10
1240.749642
 20
867.826119
 30
0.0
 10
1238.813965
 20
867.903052
 30
0.0
 10
1236.831241
 20
867.840484
 30
0.0
  0
SPLINE
  5
108
100
AcDbEntity
  8
Calque_1
 62
7
100
AcDbSpline
 70
8
 71
3
 72
8
 73
4
 74
0
 40
0
 40
0
 40
0
 40
0
 40
1
 40
1
 40
1
 40
1
 10
1236.831241
 20
867.840484
 30
0.0
 10
1234.848545
 20
867.777887
 30
0.0
 10
1232.915210
 20
867.578807
 30
0.0
 10
1231.050060
 20
867.256933
 30
0.0
  0
SPLINE
  5
109
100
AcDbEntity
  8
Calque_1
 62
7
100
AcDbSpline
 70
8
 71
3
 72
8
 73
4
 74
0
 40
0
 40
0
 40
0
 40
0
 40
1
 40
1
 40
1
 40
1
 10
1231.050060
 20
867.256933
 30
0.0
 10
1229.184909
 20
866.935058
 30
0.0
 10
1230.175255
 20
867.179406
 30
0.0
 10
1228.465327
 20
866.625630
 30
0.0
  0
SPLINE
  5
10a
100
AcDbEntity
  8
Calque_1
 62
7
100
AcDbSpline
 70
8
 71
3
 72
8
 73
4
 74
0
 40
0
 40
0
 40
0
 40
0
 40
1
 40
1
 40
1
 40
1
 10
1228.465327
 20
866.625630
 30
0.0
 10
1226.755371
 20
866.071825
 30
0.0
 10
1229.296556
 20
862.414564
 30
0.0
 10
1227.779471
 20
861.656205
 30
0.0
  0
SPLINE
  5
10b
100
AcDbEntity
  8
Calque_1
 62
7
100
AcDbSpline
 70
8
 71
3
 72
8
 73
4
 74
0
 40
0
 40
0
 40
0
 40
0
 40
1
 40
1
 40
1
 40
1
 10
1227.779471
 20
861.656205
 30
0.0
 10
1227.020914
 20
861.277039
 30
0.0
 10
1222.513007
 20
862.771547
 30
0.0
 10
1220.519163
 20
862.958039
 30
0.0
  0
SPLINE
  5
10c
100
AcDbEntity
  8
Calque_1
 62
7
100
AcDbSpline
 70
8
 71
3
 72
8
 73
4
 74
0
 40
0
 40
0
 40
0
 40
0
 40
1
 40
1
 40
1
 40
1
 10
1220.519163
 20
862.958039
 30
0.0
 10
1218.907533
 20
863.108774
 30
0.0
 10
1217.256307
 20
861.881672
 30
0.0
 10
1216.612982
 20
861.413889
 30
0.0
  0
SPLINE
  5
10d
100
AcDbEntity
  8
Calque_1
 62
7
100
AcDbSpline
 70
8
 71
3
 72
8
 73
4
 74
0
 40
0
 40
0
 40
0
 40
0
 40
1
 40
1
 40
1
 40
1
 10
1216.612982
 20
861.413889
 30
0.0
 10
1211.466462
 20
857.671763
 30
0.0
 10
1208.314322
 20
852.621650
 30
0.0
 10
1208.361002
 20
847.139258
 30
0.0
  0
LWPOLYLINE
  5
10e
100
AcDbEntity
  8
Calque_1
 62
7
100
AcDbPolyline
 90
13
 70
1
 10
315.138929
 20
872.635524
 30
0.0
 10
315.138929
 20
859.352340
 30
0.0
 10
194.776124
 20
859.352340
 30
0.0
 10
194.776124
 20
582.233824
 30
0.0
 10
614.776266
 20
582.233824
 30
0.0
 10
614.776266
 20
859.352340
 30
0.0
 10
493.019955
 20
859.352340
 30
0.0
 10
493.019955
 20
872.635524
 30
0.0
 10
434.478684
 20
872.635524
 30
0.0
 10
434.478684
 20
859.352340
 30
0.0
 10
373.679664
 20
859.352340
 30
0.0
 10
373.679664
 20
872.635524
 30
0.0
 10
315.138929
 20
872.635524
 30
0.0
  0
SPLINE
  5
10f
100
AcDbEntity
  8
Calque_1
 62
7
100
AcDbSpline
 70
8
 71
3
 72
8
 73
4
 74
0
 40
0
 40
0
 40
0
 40
0
 40
1
 40
1
 40
1
 40
1
 10
1210.833381
 20
556.776514
 30
0.0
 10
1210.926740
 20
545.811771
 30
0.0
 10
1223.779112
 20
537.382200
 30
0.0
 10
1239.640763
 20
537.882862
 30
0.0
  0
SPLINE
  5
110
100
AcDbEntity
  8
Calque_1
 62
7
100
AcDbSpline
 70
8
 71
3
 72
8
 73
4
 74
0
 40
0
 40
0
 40
0
 40
0
 40
1
 40
1
 40
1
 40
1
 10
1239.640763
 20
537.882862
 30
0.0
 10
1255.502442
 20
538.383524
 30
0.0
 10
1268.204361
 20
547.619704
 30
0.0
 10
1268.111002
 20
558.584446
 30
0.0
  0
LWPOLYLINE
  5
111
100
AcDbEntity
  8
Calque_1
 62
7
100
AcDbPolyline
 90
2
 70
1
 10
1208.361002
 20
847.139258
 30
0.0
 10
1210.833381
 20
556.776514
 30
0.0
  0
LWPOLYLINE
  5
112
100
AcDbEntity
  8
Calque_1
 62
7
100
AcDbPolyline
 90
2
 70
1
 10
1268.111002
 20
558.584446
 30
0.0
 10
1265.638622
 20
848.947202
 30
0.0
  0
SPLINE
  5
113
100
AcDbEntity
  8
Calque_1
 62
7
100
AcDbSpline
 70
8
 71
3
 72
8
 73
4
 74
0
 40
0
 40
0
 40
0
 40
0
 40
1
 40
1
 40
1
 40
1
 10
1267.611582
 20
558.568642
 30
0.0
 10
1267.703360
 20
547.789282
 30
0.0
 10
1255.231339
 20
538.720639
 30
0.0
 10
1239.637800
 20
538.228443
 30
0.0
  0
SPLINE
  5
114
100
AcDbEntity
  8
Calque_1
 62
7
100
AcDbSpline
 70
8
 71
3
 72
8
 73
4
 74
0
 40
0
 40
0
 40
0
 40
0
 40
1
 40
1
 40
1
 40
1
 10
1239.637800
 20
538.228443
 30
0.0
 10
1224.044316
 20
537.736247
 30
0.0
 10
1211.424608
 20
546.012880
 30
0.0
 10
1211.332830
 20
556.792239
 30
0.0
  0
LWPOLYLINE
  5
115
100
AcDbEntity
  8
Calque_1
 62
7
100
AcDbPolyline
 90
2
 70
1
 10
1265.139202
 20
848.931397
 30
0.0
 10
1267.611582
 20
558.568642
 30
0.0
  0
SPLINE
  5
116
100
AcDbEntity
  8
Calque_1
 62
7
100
AcDbSpline
 70
8
 71
3
 72
8
 73
4
 74
0
 40
0
 40
0
 40
0
 40
0
 40
1
 40
1
 40
1
 40
1
 10
1208.860450
 20
847.154978
 30
0.0
 10
1208.848879
 20
848.502420
 30
0.0
 10
1209.033819
 20
849.823107
 30
0.0
 10
1209.396531
 20
851.103662
 30
0.0
  0
SPLINE
  5
117
100
AcDbEntity
  8
Calque_1
 62
7
100
AcDbSpline
 70
8
 71
3
 72
8
 73
4
 74
0
 40
0
 40
0
 40
0
 40
0
 40
1
 40
1
 40
1
 40
1
 10
1209.396531
 20
851.103662
 30
0.0
 10
1209.759215
 20
852.384189
 30
0.0
 10
1210.299784
 20
853.624612
 30
0.0
 10
1210.999779
 20
854.811469
 30
0.0
  0
SPLINE
  5
118
100
AcDbEntity
  8
Calque_1
 62
7
100
AcDbSpline
 70
8
 71
3
 72
8
 73
4
 74
0
 40
0
 40
0
 40
0
 40
0
 40
1
 40
1
 40
1
 40
1
 10
1210.999779
 20
854.811469
 30
0.0
 10
1211.699775
 20
855.998326
 30
0.0
 10
1212.559198
 20
857.131646
 30
0.0
 10
1213.559620
 20
858.197995
 30
0.0
  0
SPLINE
  5
119
100
AcDbEntity
  8
Calque_1
 62
7
100
AcDbSpline
 70
8
 71
3
 72
8
 73
4
 74
0
 40
0
 40
0
 40
0
 40
0
 40
1
 40
1
 40
1
 40
1
 10
1213.559620
 20
858.197995
 30
0.0
 10
1214.560013
 20
859.264343
 30
0.0
 10
1215.701404
 20
860.263748
 30
0.0
 10
1216.965336
 20
861.182777
 30
0.0
  0
SPLINE
  5
11a
100
AcDbEntity
  8
Calque_1
 62
7
100
AcDbSpline
 70
8
 71
3
 72
8
 73
4
 74
0
 40
0
 40
0
 40
0
 40
0
 40
1
 40
1
 40
1
 40
1
 10
1216.965336
 20
861.182777
 30
0.0
 10
1217.597316
 20
861.642291
 30
0.0
 10
1218.713167
 20
862.567049
 30
0.0
 10
1220.378193
 20
862.558667
 30
0.0
  0
SPLINE
  5
11b
100
AcDbEntity
  8
Calque_1
 62
7
100
AcDbSpline
 70
8
 71
3
 72
8
 73
4
 74
0
 40
0
 40
0
 40
0
 40
0
 40
1
 40
1
 40
1
 40
1
 10
1220.378193
 20
862.558667
 30
0.0
 10
1222.043248
 20
862.550200
 30
0.0
 10
1227.542235
 20
860.801918
 30
0.0
 10
1228.254592
 20
861.316099
 30
0.0
  0
SPLINE
  5
11c
100
AcDbEntity
  8
Calque_1
 62
7
100
AcDbSpline
 70
8
 71
3
 72
8
 73
4
 74
0
 40
0
 40
0
 40
0
 40
0
 40
1
 40
1
 40
1
 40
1
 10
1228.254592
 20
861.316099
 30
0.0
 10
1229.526483
 20
862.234224
 30
0.0
 10
1227.312111
 20
865.778484
 30
0.0
 10
1228.992434
 20
866.322410
 30
0.0
  0
SPLINE
  5
11d
100
AcDbEntity
  8
Calque_1
 62
7
100
AcDbSpline
 70
8
 71
3
 72
8
 73
4
 74
0
 40
0
 40
0
 40
0
 40
0
 40
1
 40
1
 40
1
 40
1
 10
1228.992434
 20
866.322410
 30
0.0
 10
1230.672757
 20
866.866309
 30
0.0
 10
1229.318175
 20
866.605874
 30
0.0
 10
1231.151377
 20
866.921992
 30
0.0
  0
SPLINE
  5
11e
100
AcDbEntity
  8
Calque_1
 62
7
100
AcDbSpline
 70
8
 71
3
 72
8
 73
4
 74
0
 40
0
 40
0
 40
0
 40
0
 40
1
 40
1
 40
1
 40
1
 10
1231.151377
 20
866.921992
 30
0.0
 10
1232.984580
 20
867.238137
 30
0.0
 10
1234.884980
 20
867.433660
 30
0.0
 10
1236.834176
 20
867.495185
 30
0.0
  0
SPLINE
  5
11f
100
AcDbEntity
  8
Calque_1
 62
7
100
AcDbSpline
 70
8
 71
3
 72
8
 73
4
 74
0
 40
0
 40
0
 40
0
 40
0
 40
1
 40
1
 40
1
 40
1
 10
1236.834176
 20
867.495185
 30
0.0
 10
1238.783372
 20
867.556709
 30
0.0
 10
1240.686086
 20
867.481356
 30
0.0
 10
1242.523691
 20
867.280950
 30
0.0
  0
SPLINE
  5
120
100
AcDbEntity
  8
Calque_1
 62
7
100
AcDbSpline
 70
8
 71
3
 72
8
 73
4
 74
0
 40
0
 40
0
 40
0
 40
0
 40
1
 40
1
 40
1
 40
1
 10
1242.523691
 20
867.280950
 30
0.0
 10
1244.361296
 20
867.080685
 30
0.0
 10
1246.133765
 20
866.755650
 30
0.0
 10
1247.822442
 20
866.318092
 30
0.0
  0
SPLINE
  5
121
100
AcDbEntity
  8
Calque_1
 62
7
100
AcDbSpline
 70
8
 71
3
 72
8
 73
4
 74
0
 40
0
 40
0
 40
0
 40
0
 40
1
 40
1
 40
1
 40
1
 10
1247.822442
 20
866.318092
 30
0.0
 10
1249.511118
 20
865.880507
 30
0.0
 10
1246.753581
 20
861.493362
 30
0.0
 10
1248.256020
 20
860.842953
 30
0.0
  0
SPLINE
  5
122
100
AcDbEntity
  8
Calque_1
 62
7
100
AcDbSpline
 70
8
 71
3
 72
8
 73
4
 74
0
 40
0
 40
0
 40
0
 40
0
 40
1
 40
1
 40
1
 40
1
 10
1248.256020
 20
860.842953
 30
0.0
 10
1249.758486
 20
860.192544
 30
0.0
 10
1255.520928
 20
863.278898
 30
0.0
 10
1256.799846
 20
862.440133
 30
0.0
  0
SPLINE
  5
123
100
AcDbEntity
  8
Calque_1
 62
7
100
AcDbSpline
 70
8
 71
3
 72
8
 73
4
 74
0
 40
0
 40
0
 40
0
 40
0
 40
1
 40
1
 40
1
 40
1
 10
1256.799846
 20
862.440133
 30
0.0
 10
1258.078736
 20
861.601369
 30
0.0
 10
1259.236524
 20
860.674551
 30
0.0
 10
1260.254556
 20
859.671900
 30
0.0
  0
SPLINE
  5
124
100
AcDbEntity
  8
Calque_1
 62
7
100
AcDbSpline
 70
8
 71
3
 72
8
 73
4
 74
0
 40
0
 40
0
 40
0
 40
0
 40
1
 40
1
 40
1
 40
1
 10
1260.254556
 20
859.671900
 30
0.0
 10
1261.272588
 20
858.669249
 30
0.0
 10
1262.150836
 20
857.590794
 30
0.0
 10
1262.870672
 20
856.448753
 30
0.0
  0
SPLINE
  5
125
100
AcDbEntity
  8
Calque_1
 62
7
100
AcDbSpline
 70
8
 71
3
 72
8
 73
4
 74
0
 40
0
 40
0
 40
0
 40
0
 40
1
 40
1
 40
1
 40
1
 10
1262.870672
 20
856.448753
 30
0.0
 10
1263.590479
 20
855.306684
 30
0.0
 10
1264.151876
 20
854.101059
 30
0.0
 10
1264.536206
 20
852.844098
 30
0.0
  0
SPLINE
  5
126
100
AcDbEntity
  8
Calque_1
 62
7
100
AcDbSpline
 70
8
 71
3
 72
8
 73
4
 74
0
 40
0
 40
0
 40
0
 40
0
 40
1
 40
1
 40
1
 40
1
 10
1264.536206
 20
852.844098
 30
0.0
 10
1264.920508
 20
851.587137
 30
0.0
 10
1265.127716
 20
850.278811
 30
0.0
 10
1265.139202
 20
848.931397
 30
0.0
  0
LWPOLYLINE
  5
127
100
AcDbEntity
  8
Calque_1
 62
7
100
AcDbPolyline
 90
2
 70
1
 10
1211.332830
 20
556.792239
 30
0.0
 10
1208.860450
 20
847.154978
 30
0.0
  0
LWPOLYLINE
  5
128
100
AcDbEntity
  8
Calque_1
 62
7
100
AcDbPolyline
 90
2
 70
1
 10
1265.139202
 20
848.931397
 30
0.0
 10
1265.139202
 20
848.931397
 30
0.0
  0
SPLINE
  5
129
100
AcDbEntity
  8
Calque_1
 62
7
100
AcDbSpline
 70
8
 71
3
 72
8
 73
4
 74
0
 40
0
 40
0
 40
0
 40
0
 40
1
 40
1
 40
1
 40
1
 10
670.169038
 20
679.433585
 30
0.0
 10
669.372550
 20
679.433585
 30
0.0
 10
668.724568
 20
678.785574
 30
0.0
 10
668.724568
 20
677.989115
 30
0.0
  0
SPLINE
  5
12a
100
AcDbEntity
  8
Calque_1
 62
7
100
AcDbSpline
 70
8
 71
3
 72
8
 73
4
 74
0
 40
0
 40
0
 40
0
 40
0
 40
1
 40
1
 40
1
 40
1
 10
668.724568
 20
677.989115
 30
0.0
 10
668.724568
 20
677.192656
 30
0.0
 10
669.372550
 20
676.545012
 30
0.0
 10
670.169038
 20
676.545012
 30
0.0
  0
SPLINE
  5
12b
100
AcDbEntity
  8
Calque_1
 62
7
100
AcDbSpline
 70
8
 71
3
 72
8
 73
4
 74
0
 40
0
 40
0
 40
0
 40
0
 40
1
 40
1
 40
1
 40
1
 10
670.169038
 20
676.545012
 30
0.0
 10
670.965497
 20
676.545012
 30
0.0
 10
671.613140
 20
677.192656
 30
0.0
 10
671.613140
 20
677.989115
 30
0.0
  0
SPLINE
  5
12c
100
AcDbEntity
  8
Calque_1
 62
7
100
AcDbSpline
 70
8
 71
3
 72
8
 73
4
 74
0
 40
0
 40
0
 40
0
 40
0
 40
1
 40
1
 40
1
 40
1
 10
671.613140
 20
677.989115
 30
0.0
 10
671.613140
 20
678.785603
 30
0.0
 10
670.965497
 20
679.433585
 30
0.0
 10
670.169038
 20
679.433585
 30
0.0
  0
LWPOLYLINE
  5
12d
100
AcDbEntity
  8
Calque_1
 62
7
100
AcDbPolyline
 90
5
 70
1
 10
1244.709606
 20
809.151839
 30
0.0
 10
1245.382875
 20
594.942666
 30
0.0
 10
1231.762310
 20
593.777966
 30
0.0
 10
1231.089041
 20
807.987139
 30
0.0
 10
1244.709606
 20
809.151839
 30
0.0
  0
SPLINE
  5
12e
100
AcDbEntity
  8
Calque_1
 62
7
100
AcDbSpline
 70
8
 71
3
 72
8
 73
4
 74
0
 40
0
 40
0
 40
0
 40
0
 40
1
 40
1
 40
1
 40
1
 10
670.169038
 20
679.235183
 30
0.0
 10
670.858422
 20
679.235183
 30
0.0
 10
671.415077
 20
678.678499
 30
0.0
 10
671.415077
 20
677.989115
 30
0.0
  0
SPLINE
  5
12f
100
AcDbEntity
  8
Calque_1
 62
7
100
AcDbSpline
 70
8
 71
3
 72
8
 73
4
 74
0
 40
0
 40
0
 40
0
 40
0
 40
1
 40
1
 40
1
 40
1
 10
671.415077
 20
677.989115
 30
0.0
 10
671.415077
 20
677.299731
 30
0.0
 10
670.858422
 20
676.743076
 30
0.0
 10
670.169038
 20
676.743076
 30
0.0
  0
SPLINE
  5
130
100
AcDbEntity
  8
Calque_1
 62
7
100
AcDbSpline
 70
8
 71
3
 72
8
 73
4
 74
0
 40
0
 40
0
 40
0
 40
0
 40
1
 40
1
 40
1
 40
1
 10
670.169038
 20
676.743076
 30
0.0
 10
669.479625
 20
676.743076
 30
0.0
 10
668.922631
 20
677.299731
 30
0.0
 10
668.922631
 20
677.989115
 30
0.0
  0
SPLINE
  5
131
100
AcDbEntity
  8
Calque_1
 62
7
100
AcDbSpline
 70
8
 71
3
 72
8
 73
4
 74
0
 40
0
 40
0
 40
0
 40
0
 40
1
 40
1
 40
1
 40
1
 10
668.922631
 20
677.989115
 30
0.0
 10
668.922631
 20
678.678528
 30
0.0
 10
669.479625
 20
679.235183
 30
0.0
 10
670.169038
 20
679.235183
 30
0.0
  0
LWPOLYLINE
  5
132
100
AcDbEntity
  8
Calque_1
 62
7
100
AcDbPolyline
 90
2
 70
1
 10
670.169038
 20
679.433585
 30
0.0
 10
670.169038
 20
679.433585
 30
0.0
  0
LWPOLYLINE
  5
133
100
AcDbEntity
  8
Calque_1
 62
7
100
AcDbPolyline
 90
2
 70
1
 10
670.169038
 20
679.235183
 30
0.0
 10
670.169038
 20
679.235183
 30
0.0
  0
LWPOLYLINE
  5
134
100
AcDbEntity
  8
Calque_1
 62
7
100
AcDbPolyline
 90
5
 70
1
 10
875.894447
 20
637.721366
 30
0.0
 10
875.894447
 20
642.558232
 30
0.0
 10
935.570787
 20
642.558232
 30
0.0
 10
935.570787
 20
637.721366
 30
0.0
 10
875.894447
 20
637.721366
 30
0.0
  0
SPLINE
  5
135
100
AcDbEntity
  8
Calque_1
 62
7
100
AcDbSpline
 70
8
 71
3
 72
8
 73
4
 74
0
 40
0
 40
0
 40
0
 40
0
 40
1
 40
1
 40
1
 40
1
 10
596.636630
 20
600.290656
 30
0.0
 10
595.840143
 20
600.290656
 30
0.0
 10
595.192160
 20
599.642646
 30
0.0
 10
595.192160
 20
598.846186
 30
0.0
  0
SPLINE
  5
136
100
AcDbEntity
  8
Calque_1
 62
7
100
AcDbSpline
 70
8
 71
3
 72
8
 73
4
 74
0
 40
0
 40
0
 40
0
 40
0
 40
1
 40
1
 40
1
 40
1
 10
595.192160
 20
598.846186
 30
0.0
 10
595.192160
 20
598.049699
 30
0.0
 10
595.840143
 20
597.402084
 30
0.0
 10
596.636630
 20
597.402084
 30
0.0
  0
SPLINE
  5
137
100
AcDbEntity
  8
Calque_1
 62
7
100
AcDbSpline
 70
8
 71
3
 72
8
 73
4
 74
0
 40
0
 40
0
 40
0
 40
0
 40
1
 40
1
 40
1
 40
1
 10
596.636630
 20
597.402084
 30
0.0
 10
597.433090
 20
597.402084
 30
0.0
 10
598.080733
 20
598.049699
 30
0.0
 10
598.080733
 20
598.846186
 30
0.0
  0
SPLINE
  5
138
100
AcDbEntity
  8
Calque_1
 62
7
100
AcDbSpline
 70
8
 71
3
 72
8
 73
4
 74
0
 40
0
 40
0
 40
0
 40
0
 40
1
 40
1
 40
1
 40
1
 10
598.080733
 20
598.846186
 30
0.0
 10
598.080733
 20
599.642646
 30
0.0
 10
597.433090
 20
600.290656
 30
0.0
 10
596.636630
 20
600.290656
 30
0.0
  0
LWPOLYLINE
  5
139
100
AcDbEntity
  8
Calque_1
 62
7
100
AcDbPolyline
 90
5
 70
1
 10
756.541709
 20
637.721366
 30
0.0
 10
756.541709
 20
642.558232
 30
0.0
 10
816.218050
 20
642.558232
 30
0.0
 10
816.218050
 20
637.721366
 30
0.0
 10
756.541709
 20
637.721366
 30
0.0
  0
SPLINE
  5
13a
100
AcDbEntity
  8
Calque_1
 62
7
100
AcDbSpline
 70
8
 71
3
 72
8
 73
4
 74
0
 40
0
 40
0
 40
0
 40
0
 40
1
 40
1
 40
1
 40
1
 10
596.636630
 20
600.092226
 30
0.0
 10
597.326014
 20
600.092226
 30
0.0
 10
597.882670
 20
599.535571
 30
0.0
 10
597.882670
 20
598.846186
 30
0.0
  0
SPLINE
  5
13b
100
AcDbEntity
  8
Calque_1
 62
7
100
AcDbSpline
 70
8
 71
3
 72
8
 73
4
 74
0
 40
0
 40
0
 40
0
 40
0
 40
1
 40
1
 40
1
 40
1
 10
597.882670
 20
598.846186
 30
0.0
 10
597.882670
 20
598.156802
 30
0.0
 10
597.326014
 20
597.600147
 30
0.0
 10
596.636630
 20
597.600147
 30
0.0
  0
SPLINE
  5
13c
100
AcDbEntity
  8
Calque_1
 62
7
100
AcDbSpline
 70
8
 71
3
 72
8
 73
4
 74
0
 40
0
 40
0
 40
0
 40
0
 40
1
 40
1
 40
1
 40
1
 10
596.636630
 20
597.600147
 30
0.0
 10
595.947218
 20
597.600147
 30
0.0
 10
595.390224
 20
598.156802
 30
0.0
 10
595.390224
 20
598.846186
 30
0.0
  0
SPLINE
  5
13d
100
AcDbEntity
  8
Calque_1
 62
7
100
AcDbSpline
 70
8
 71
3
 72
8
 73
4
 74
0
 40
0
 40
0
 40
0
 40
0
 40
1
 40
1
 40
1
 40
1
 10
595.390224
 20
598.846186
 30
0.0
 10
595.390224
 20
599.535571
 30
0.0
 10
595.947218
 20
600.092226
 30
0.0
 10
596.636630
 20
600.092226
 30
0.0
  0
LWPOLYLINE
  5
13e
100
AcDbEntity
  8
Calque_1
 62
7
100
AcDbPolyline
 90
2
 70
1
 10
596.636630
 20
600.290656
 30
0.0
 10
596.636630
 20
600.290656
 30
0.0
  0
SPLINE
  5
13f
100
AcDbEntity
  8
Calque_1
 62
7
100
AcDbSpline
 70
8
 71
3
 72
8
 73
4
 74
0
 40
0
 40
0
 40
0
 40
0
 40
1
 40
1
 40
1
 40
1
 10
210.589825
 20
600.290656
 30
0.0
 10
209.793338
 20
600.290656
 30
0.0
 10
209.145355
 20
599.642646
 30
0.0
 10
209.145355
 20
598.846186
 30
0.0
  0
SPLINE
  5
140
100
AcDbEntity
  8
Calque_1
 62
7
100
AcDbSpline
 70
8
 71
3
 72
8
 73
4
 74
0
 40
0
 40
0
 40
0
 40
0
 40
1
 40
1
 40
1
 40
1
 10
209.145355
 20
598.846186
 30
0.0
 10
209.145355
 20
598.049699
 30
0.0
 10
209.793338
 20
597.402084
 30
0.0
 10
210.589825
 20
597.402084
 30
0.0
  0
SPLINE
  5
141
100
AcDbEntity
  8
Calque_1
 62
7
100
AcDbSpline
 70
8
 71
3
 72
8
 73
4
 74
0
 40
0
 40
0
 40
0
 40
0
 40
1
 40
1
 40
1
 40
1
 10
210.589825
 20
597.402084
 30
0.0
 10
211.386285
 20
597.402084
 30
0.0
 10
212.033900
 20
598.049699
 30
0.0
 10
212.033900
 20
598.846186
 30
0.0
  0
SPLINE
  5
142
100
AcDbEntity
  8
Calque_1
 62
7
100
AcDbSpline
 70
8
 71
3
 72
8
 73
4
 74
0
 40
0
 40
0
 40
0
 40
0
 40
1
 40
1
 40
1
 40
1
 10
212.033900
 20
598.846186
 30
0.0
 10
212.033900
 20
599.642646
 30
0.0
 10
211.386285
 20
600.290656
 30
0.0
 10
210.589825
 20
600.290656
 30
0.0
  0
LWPOLYLINE
  5
143
100
AcDbEntity
  8
Calque_1
 62
7
100
AcDbPolyline
 90
2
 70
1
 10
596.636630
 20
600.092226
 30
0.0
 10
596.636630
 20
600.092226
 30
0.0
  0
SPLINE
  5
144
100
AcDbEntity
  8
Calque_1
 62
7
100
AcDbSpline
 70
8
 71
3
 72
8
 73
4
 74
0
 40
0
 40
0
 40
0
 40
0
 40
1
 40
1
 40
1
 40
1
 10
210.589825
 20
600.092226
 30
0.0
 10
211.279209
 20
600.092226
 30
0.0
 10
211.835865
 20
599.535571
 30
0.0
 10
211.835865
 20
598.846186
 30
0.0
  0
SPLINE
  5
145
100
AcDbEntity
  8
Calque_1
 62
7
100
AcDbSpline
 70
8
 71
3
 72
8
 73
4
 74
0
 40
0
 40
0
 40
0
 40
0
 40
1
 40
1
 40
1
 40
1
 10
211.835865
 20
598.846186
 30
0.0
 10
211.835865
 20
598.156802
 30
0.0
 10
211.279209
 20
597.600147
 30
0.0
 10
210.589825
 20
597.600147
 30
0.0
  0
SPLINE
  5
146
100
AcDbEntity
  8
Calque_1
 62
7
100
AcDbSpline
 70
8
 71
3
 72
8
 73
4
 74
0
 40
0
 40
0
 40
0
 40
0
 40
1
 40
1
 40
1
 40
1
 10
210.589825
 20
597.600147
 30
0.0
 10
209.900413
 20
597.600147
 30
0.0
 10
209.343419
 20
598.156802
 30
0.0
 10
209.343419
 20
598.846186
 30
0.0
  0
SPLINE
  5
147
100
AcDbEntity
  8
Calque_1
 62
7
100
AcDbSpline
 70
8
 71
3
 72
8
 73
4
 74
0
 40
0
 40
0
 40
0
 40
0
 40
1
 40
1
 40
1
 40
1
 10
209.343419
 20
598.846186
 30
0.0
 10
209.343419
 20
599.535571
 30
0.0
 10
209.900413
 20
600.092226
 30
0.0
 10
210.589825
 20
600.092226
 30
0.0
  0
LWPOLYLINE
  5
148
100
AcDbEntity
  8
Calque_1
 62
7
100
AcDbPolyline
 90
2
 70
1
 10
210.589825
 20
600.290656
 30
0.0
 10
210.589825
 20
600.290656
 30
0.0
  0
SPLINE
  5
149
100
AcDbEntity
  8
Calque_1
 62
7
100
AcDbSpline
 70
8
 71
3
 72
8
 73
4
 74
0
 40
0
 40
0
 40
0
 40
0
 40
1
 40
1
 40
1
 40
1
 10
596.636630
 20
842.226249
 30
0.0
 10
595.840143
 20
842.226249
 30
0.0
 10
595.192160
 20
841.578238
 30
0.0
 10
595.192160
 20
840.781779
 30
0.0
  0
SPLINE
  5
14a
100
AcDbEntity
  8
Calque_1
 62
7
100
AcDbSpline
 70
8
 71
3
 72
8
 73
4
 74
0
 40
0
 40
0
 40
0
 40
0
 40
1
 40
1
 40
1
 40
1
 10
595.192160
 20
840.781779
 30
0.0
 10
595.192160
 20
839.985292
 30
0.0
 10
595.840143
 20
839.337676
 30
0.0
 10
596.636630
 20
839.337676
 30
0.0
  0
SPLINE
  5
14b
100
AcDbEntity
  8
Calque_1
 62
7
100
AcDbSpline
 70
8
 71
3
 72
8
 73
4
 74
0
 40
0
 40
0
 40
0
 40
0
 40
1
 40
1
 40
1
 40
1
 10
596.636630
 20
839.337676
 30
0.0
 10
597.433090
 20
839.337676
 30
0.0
 10
598.080733
 20
839.985292
 30
0.0
 10
598.080733
 20
840.781779
 30
0.0
  0
SPLINE
  5
14c
100
AcDbEntity
  8
Calque_1
 62
7
100
AcDbSpline
 70
8
 71
3
 72
8
 73
4
 74
0
 40
0
 40
0
 40
0
 40
0
 40
1
 40
1
 40
1
 40
1
 10
598.080733
 20
840.781779
 30
0.0
 10
598.080733
 20
841.578238
 30
0.0
 10
597.433090
 20
842.226249
 30
0.0
 10
596.636630
 20
842.226249
 30
0.0
  0
LWPOLYLINE
  5
14d
100
AcDbEntity
  8
Calque_1
 62
7
100
AcDbPolyline
 90
2
 70
1
 10
210.589825
 20
600.092226
 30
0.0
 10
210.589825
 20
600.092226
 30
0.0
  0
SPLINE
  5
14e
100
AcDbEntity
  8
Calque_1
 62
7
100
AcDbSpline
 70
8
 71
3
 72
8
 73
4
 74
0
 40
0
 40
0
 40
0
 40
0
 40
1
 40
1
 40
1
 40
1
 10
596.636630
 20
842.027818
 30
0.0
 10
597.326014
 20
842.027818
 30
0.0
 10
597.882670
 20
841.471163
 30
0.0
 10
597.882670
 20
840.781779
 30
0.0
  0
SPLINE
  5
14f
100
AcDbEntity
  8
Calque_1
 62
7
100
AcDbSpline
 70
8
 71
3
 72
8
 73
4
 74
0
 40
0
 40
0
 40
0
 40
0
 40
1
 40
1
 40
1
 40
1
 10
597.882670
 20
840.781779
 30
0.0
 10
597.882670
 20
840.092395
 30
0.0
 10
597.326014
 20
839.535740
 30
0.0
 10
596.636630
 20
839.535740
 30
0.0
  0
SPLINE
  5
150
100
AcDbEntity
  8
Calque_1
 62
7
100
AcDbSpline
 70
8
 71
3
 72
8
 73
4
 74
0
 40
0
 40
0
 40
0
 40
0
 40
1
 40
1
 40
1
 40
1
 10
596.636630
 20
839.535740
 30
0.0
 10
595.947218
 20
839.535740
 30
0.0
 10
595.390224
 20
840.092395
 30
0.0
 10
595.390224
 20
840.781779
 30
0.0
  0
SPLINE
  5
151
100
AcDbEntity
  8
Calque_1
 62
7
100
AcDbSpline
 70
8
 71
3
 72
8
 73
4
 74
0
 40
0
 40
0
 40
0
 40
0
 40
1
 40
1
 40
1
 40
1
 10
595.390224
 20
840.781779
 30
0.0
 10
595.390224
 20
841.471163
 30
0.0
 10
595.947218
 20
842.027818
 30
0.0
 10
596.636630
 20
842.027818
 30
0.0
  0
LWPOLYLINE
  5
152
100
AcDbEntity
  8
Calque_1
 62
7
100
AcDbPolyline
 90
2
 70
1
 10
596.636630
 20
842.226249
 30
0.0
 10
596.636630
 20
842.226249
 30
0.0
  0
SPLINE
  5
153
100
AcDbEntity
  8
Calque_1
 62
7
100
AcDbSpline
 70
8
 71
3
 72
8
 73
4
 74
0
 40
0
 40
0
 40
0
 40
0
 40
1
 40
1
 40
1
 40
1
 10
210.589825
 20
842.226249
 30
0.0
 10
209.793338
 20
842.226249
 30
0.0
 10
209.145355
 20
841.578238
 30
0.0
 10
209.145355
 20
840.781779
 30
0.0
  0
SPLINE
  5
154
100
AcDbEntity
  8
Calque_1
 62
7
100
AcDbSpline
 70
8
 71
3
 72
8
 73
4
 74
0
 40
0
 40
0
 40
0
 40
0
 40
1
 40
1
 40
1
 40
1
 10
209.145355
 20
840.781779
 30
0.0
 10
209.145355
 20
839.985292
 30
0.0
 10
209.793338
 20
839.337676
 30
0.0
 10
210.589825
 20
839.337676
 30
0.0
  0
SPLINE
  5
155
100
AcDbEntity
  8
Calque_1
 62
7
100
AcDbSpline
 70
8
 71
3
 72
8
 73
4
 74
0
 40
0
 40
0
 40
0
 40
0
 40
1
 40
1
 40
1
 40
1
 10
210.589825
 20
839.337676
 30
0.0
 10
211.386285
 20
839.337676
 30
0.0
 10
212.033900
 20
839.985292
 30
0.0
 10
212.033900
 20
840.781779
 30
0.0
  0
SPLINE
  5
156
100
AcDbEntity
  8
Calque_1
 62
7
100
AcDbSpline
 70
8
 71
3
 72
8
 73
4
 74
0
 40
0
 40
0
 40
0
 40
0
 40
1
 40
1
 40
1
 40
1
 10
212.033900
 20
840.781779
 30
0.0
 10
212.033900
 20
841.578238
 30
0.0
 10
211.386285
 20
842.226249
 30
0.0
 10
210.589825
 20
842.226249
 30
0.0
  0
LWPOLYLINE
  5
157
100
AcDbEntity
  8
Calque_1
 62
7
100
AcDbPolyline
 90
2
 70
1
 10
596.636630
 20
842.027818
 30
0.0
 10
596.636630
 20
842.027818
 30
0.0
  0
SPLINE
  5
158
100
AcDbEntity
  8
Calque_1
 62
7
100
AcDbSpline
 70
8
 71
3
 72
8
 73
4
 74
0
 40
0
 40
0
 40
0
 40
0
 40
1
 40
1
 40
1
 40
1
 10
210.589825
 20
842.027818
 30
0.0
 10
211.279209
 20
842.027818
 30
0.0
 10
211.835865
 20
841.471163
 30
0.0
 10
211.835865
 20
840.781779
 30
0.0
  0
SPLINE
  5
159
100
AcDbEntity
  8
Calque_1
 62
7
100
AcDbSpline
 70
8
 71
3
 72
8
 73
4
 74
0
 40
0
 40
0
 40
0
 40
0
 40
1
 40
1
 40
1
 40
1
 10
211.835865
 20
840.781779
 30
0.0
 10
211.835865
 20
840.092395
 30
0.0
 10
211.279209
 20
839.535740
 30
0.0
 10
210.589825
 20
839.535740
 30
0.0
  0
SPLINE
  5
15a
100
AcDbEntity
  8
Calque_1
 62
7
100
AcDbSpline
 70
8
 71
3
 72
8
 73
4
 74
0
 40
0
 40
0
 40
0
 40
0
 40
1
 40
1
 40
1
 40
1
 10
210.589825
 20
839.535740
 30
0.0
 10
209.900413
 20
839.535740
 30
0.0
 10
209.343419
 20
840.092395
 30
0.0
 10
209.343419
 20
840.781779
 30
0.0
  0
SPLINE
  5
15b
100
AcDbEntity
  8
Calque_1
 62
7
100
AcDbSpline
 70
8
 71
3
 72
8
 73
4
 74
0
 40
0
 40
0
 40
0
 40
0
 40
1
 40
1
 40
1
 40
1
 10
209.343419
 20
840.781779
 30
0.0
 10
209.343419
 20
841.471163
 30
0.0
 10
209.900413
 20
842.027818
 30
0.0
 10
210.589825
 20
842.027818
 30
0.0
  0
LWPOLYLINE
  5
15c
100
AcDbEntity
  8
Calque_1
 62
7
100
AcDbPolyline
 90
2
 70
1
 10
210.589825
 20
842.226249
 30
0.0
 10
210.589825
 20
842.226249
 30
0.0
  0
LWPOLYLINE
  5
15d
100
AcDbEntity
  8
Calque_1
 62
7
100
AcDbPolyline
 90
2
 70
1
 10
210.589825
 20
842.027818
 30
0.0
 10
210.589825
 20
842.027818
 30
0.0
  0
LWPOLYLINE
  5
15e
100
AcDbEntity
  8
Calque_1
 62
7
100
AcDbPolyline
 90
5
 70
1
 10
877.059234
 20
604.527743
 30
0.0
 10
877.059234
 20
609.364609
 30
0.0
 10
936.735575
 20
609.364609
 30
0.0
 10
936.735575
 20
604.527743
 30
0.0
 10
877.059234
 20
604.527743
 30
0.0
  0
SPLINE
  5
15f
100
AcDbEntity
  8
Calque_1
 62
7
100
AcDbSpline
 70
8
 71
3
 72
8
 73
4
 74
0
 40
0
 40
0
 40
0
 40
0
 40
1
 40
1
 40
1
 40
1
 10
741.965129
 20
618.565674
 30
0.0
 10
741.934818
 20
618.565702
 30
0.0
 10
741.907386
 20
618.555796
 30
0.0
 10
741.887518
 20
618.539427
 30
0.0
  0
SPLINE
  5
160
100
AcDbEntity
  8
Calque_1
 62
7
100
AcDbSpline
 70
8
 71
3
 72
8
 73
4
 74
0
 40
0
 40
0
 40
0
 40
0
 40
1
 40
1
 40
1
 40
1
 10
741.887518
 20
618.539427
 30
0.0
 10
741.867762
 20
618.523058
 30
0.0
 10
741.855401
 20
618.500706
 30
0.0
 10
741.855458
 20
618.475899
 30
0.0
  0
SPLINE
  5
161
100
AcDbEntity
  8
Calque_1
 62
7
100
AcDbSpline
 70
8
 71
3
 72
8
 73
4
 74
0
 40
0
 40
0
 40
0
 40
0
 40
1
 40
1
 40
1
 40
1
 10
741.855458
 20
618.475899
 30
0.0
 10
734.898313
 20
611.315018
 30
0.0
 10
733.339035
 20
607.200246
 30
0.0
 10
741.291013
 20
599.636606
 30
0.0
  0
SPLINE
  5
162
100
AcDbEntity
  8
Calque_1
 62
7
100
AcDbSpline
 70
8
 71
3
 72
8
 73
4
 74
0
 40
0
 40
0
 40
0
 40
0
 40
1
 40
1
 40
1
 40
1
 10
741.291013
 20
599.636606
 30
0.0
 10
741.291098
 20
599.611771
 30
0.0
 10
741.303431
 20
599.589532
 30
0.0
 10
741.323271
 20
599.573360
 30
0.0
  0
SPLINE
  5
163
100
AcDbEntity
  8
Calque_1
 62
7
100
AcDbSpline
 70
8
 71
3
 72
8
 73
4
 74
0
 40
0
 40
0
 40
0
 40
0
 40
1
 40
1
 40
1
 40
1
 10
741.323271
 20
599.573360
 30
0.0
 10
741.343027
 20
599.557274
 30
0.0
 10
741.370487
 20
599.547114
 30
0.0
 10
741.400685
 20
599.547396
 30
0.0
  0
LWPOLYLINE
  5
164
100
AcDbEntity
  8
Calque_1
 62
7
100
AcDbPolyline
 90
5
 70
1
 10
757.706497
 20
604.527743
 30
0.0
 10
757.706497
 20
609.364609
 30
0.0
 10
817.382837
 20
609.364609
 30
0.0
 10
817.382837
 20
604.527743
 30
0.0
 10
757.706497
 20
604.527743
 30
0.0
  0
SPLINE
  5
165
100
AcDbEntity
  8
Calque_1
 62
7
100
AcDbSpline
 70
8
 71
3
 72
8
 73
4
 74
0
 40
0
 40
0
 40
0
 40
0
 40
1
 40
1
 40
1
 40
1
 10
958.319338
 20
599.636719
 30
0.0
 10
965.623108
 20
606.946246
 30
0.0
 10
966.699306
 20
610.926539
 30
0.0
 10
958.319338
 20
618.476012
 30
0.0
  0
LWPOLYLINE
  5
166
100
AcDbEntity
  8
Calque_1
 62
7
100
AcDbPolyline
 90
4
 70
1
 10
741.400685
 20
599.547396
 30
0.0
 10
958.210202
 20
599.547396
 30
0.0
 10
958.264784
 20
599.592043
 30
0.0
 10
958.319338
 20
599.636719
 30
0.0
  0
LWPOLYLINE
  5
167
100
AcDbEntity
  8
Calque_1
 62
7
100
AcDbPolyline
 90
4
 70
1
 10
958.319338
 20
618.476012
 30
0.0
 10
958.264784
 20
618.520914
 30
0.0
 10
958.210202
 20
618.565787
 30
0.0
 10
741.965129
 20
618.565674
 30
0.0
  0
SPLINE
  5
168
100
AcDbEntity
  8
Calque_1
 62
7
100
AcDbSpline
 70
8
 71
3
 72
8
 73
4
 74
0
 40
0
 40
0
 40
0
 40
0
 40
1
 40
1
 40
1
 40
1
 10
958.100502
 20
618.386576
 30
0.0
 10
965.744012
 20
609.756079
 30
0.0
 10
964.377238
 20
608.247093
 30
0.0
 10
958.100502
 20
599.726353
 30
0.0
  0
LWPOLYLINE
  5
169
100
AcDbEntity
  8
Calque_1
 62
7
100
AcDbPolyline
 90
2
 70
1
 10
743.033425
 20
618.308090
 30
0.0
 10
958.100502
 20
618.386576
 30
0.0
  0
SPLINE
  5
16a
100
AcDbEntity
  8
Calque_1
 62
7
100
AcDbSpline
 70
8
 71
3
 72
8
 73
4
 74
0
 40
0
 40
0
 40
0
 40
0
 40
1
 40
1
 40
1
 40
1
 10
741.509848
 20
599.726353
 30
0.0
 10
734.838030
 20
607.016915
 30
0.0
 10
734.770382
 20
611.095901
 30
0.0
 10
743.033425
 20
618.308090
 30
0.0
  0
LWPOLYLINE
  5
16b
100
AcDbEntity
  8
Calque_1
 62
7
100
AcDbPolyline
 90
2
 70
1
 10
958.100502
 20
599.726353
 30
0.0
 10
741.509848
 20
599.726353
 30
0.0
  0
LWPOLYLINE
  5
16c
100
AcDbEntity
  8
Calque_1
 62
7
100
AcDbPolyline
 90
2
 70
1
 10
743.033425
 20
618.308090
 30
0.0
 10
743.033425
 20
618.308090
 30
0.0
  0
SPLINE
  5
16d
100
AcDbEntity
  8
Calque_1
 62
7
100
AcDbSpline
 70
8
 71
3
 72
8
 73
4
 74
0
 40
0
 40
0
 40
0
 40
0
 40
1
 40
1
 40
1
 40
1
 10
667.335007
 20
731.995543
 30
0.0
 10
630.097562
 20
720.451904
 30
0.0
 10
635.597676
 20
719.402065
 30
0.0
 10
635.597676
 20
669.475055
 30
0.0
  0
SPLINE
  5
16e
100
AcDbEntity
  8
Calque_1
 62
7
100
AcDbSpline
 70
8
 71
3
 72
8
 73
4
 74
0
 40
0
 40
0
 40
0
 40
0
 40
1
 40
1
 40
1
 40
1
 10
635.597676
 20
669.475055
 30
0.0
 10
635.597676
 20
648.627178
 30
0.0
 10
652.381265
 20
631.843586
 30
0.0
 10
673.229142
 20
631.843586
 30
0.0
  0
LWPOLYLINE
  5
16f
100
AcDbEntity
  8
Calque_1
 62
7
100
AcDbPolyline
 90
4
 70
1
 10
686.768632
 20
757.931780
 30
0.0
 10
666.274091
 20
756.751315
 30
0.0
 10
671.552130
 20
752.586655
 30
0.0
 10
667.335007
 20
731.995543
 30
0.0
  0
SPLINE
  5
170
100
AcDbEntity
  8
Calque_1
 62
7
100
AcDbSpline
 70
8
 71
3
 72
8
 73
4
 74
0
 40
0
 40
0
 40
0
 40
0
 40
1
 40
1
 40
1
 40
1
 10
1017.965791
 20
631.843586
 30
0.0
 10
1038.813687
 20
631.843586
 30
0.0
 10
1056.708636
 20
648.656823
 30
0.0
 10
1055.597274
 20
669.475055
 30
0.0
  0
LWPOLYLINE
  5
171
100
AcDbEntity
  8
Calque_1
 62
7
100
AcDbPolyline
 90
2
 70
1
 10
673.229142
 20
631.843586
 30
0.0
 10
1017.965791
 20
631.843586
 30
0.0
  0
SPLINE
  5
172
100
AcDbEntity
  8
Calque_1
 62
7
100
AcDbSpline
 70
8
 71
3
 72
8
 73
4
 74
0
 40
0
 40
0
 40
0
 40
0
 40
1
 40
1
 40
1
 40
1
 10
1051.365380
 20
730.825848
 30
0.0
 10
1051.365380
 20
730.825848
 30
0.0
 10
1051.063797
 20
750.387333
 30
0.0
 10
1046.870793
 20
751.395327
 30
0.0
  0
LWPOLYLINE
  5
173
100
AcDbEntity
  8
Calque_1
 62
7
100
AcDbPolyline
 90
3
 70
1
 10
1055.597274
 20
669.475055
 30
0.0
 10
1054.254460
 20
694.628652
 30
0.0
 10
1051.365380
 20
730.825848
 30
0.0
  0
SPLINE
  5
174
100
AcDbEntity
  8
Calque_1
 62
7
100
AcDbSpline
 70
8
 71
3
 72
8
 73
4
 74
0
 40
0
 40
0
 40
0
 40
0
 40
1
 40
1
 40
1
 40
1
 10
1035.794305
 20
751.566444
 30
0.0
 10
1032.466905
 20
749.965521
 30
0.0
 10
1030.032117
 20
747.467002
 30
0.0
 10
1030.601303
 20
744.896737
 30
0.0
  0
SPLINE
  5
175
100
AcDbEntity
  8
Calque_1
 62
7
100
AcDbSpline
 70
8
 71
3
 72
8
 73
4
 74
0
 40
0
 40
0
 40
0
 40
0
 40
1
 40
1
 40
1
 40
1
 10
1030.601303
 20
744.896737
 30
0.0
 10
1024.746010
 20
745.957373
 30
0.0
 10
1025.987703
 20
739.629369
 30
0.0
 10
1023.325388
 20
738.182230
 30
0.0
  0
SPLINE
  5
176
100
AcDbEntity
  8
Calque_1
 62
7
100
AcDbSpline
 70
8
 71
3
 72
8
 73
4
 74
0
 40
0
 40
0
 40
0
 40
0
 40
1
 40
1
 40
1
 40
1
 10
1023.325388
 20
738.182230
 30
0.0
 10
1023.325388
 20
738.182230
 30
0.0
 10
1021.763796
 20
738.817760
 30
0.0
 10
1021.358074
 20
738.743959
 30
0.0
  0
SPLINE
  5
177
100
AcDbEntity
  8
Calque_1
 62
7
100
AcDbSpline
 70
8
 71
3
 72
8
 73
4
 74
0
 40
0
 40
0
 40
0
 40
0
 40
1
 40
1
 40
1
 40
1
 10
1021.358074
 20
738.743959
 30
0.0
 10
1020.644164
 20
738.624576
 30
0.0
 10
998.541733
 20
740.981253
 30
0.0
 10
997.668679
 20
740.839236
 30
0.0
  0
LWPOLYLINE
  5
178
100
AcDbEntity
  8
Calque_1
 62
7
100
AcDbPolyline
 90
2
 70
1
 10
1046.870793
 20
751.395327
 30
0.0
 10
1035.794305
 20
751.566444
 30
0.0
  0
SPLINE
  5
179
100
AcDbEntity
  8
Calque_1
 62
7
100
AcDbSpline
 70
8
 71
3
 72
8
 73
4
 74
0
 40
0
 40
0
 40
0
 40
0
 40
1
 40
1
 40
1
 40
1
 10
997.308450
 20
748.420657
 30
0.0
 10
995.129892
 20
757.290768
 30
0.0
 10
979.196501
 20
760.248872
 30
0.0
 10
969.206398
 20
757.518465
 30
0.0
  0
SPLINE
  5
17a
100
AcDbEntity
  8
Calque_1
 62
7
100
AcDbSpline
 70
8
 71
3
 72
8
 73
4
 74
0
 40
0
 40
0
 40
0
 40
0
 40
1
 40
1
 40
1
 40
1
 10
969.206398
 20
757.518465
 30
0.0
 10
958.497053
 20
754.220919
 30
0.0
 10
955.642544
 20
750.535771
 30
0.0
 10
954.088770
 20
740.912002
 30
0.0
  0
SPLINE
  5
17b
100
AcDbEntity
  8
Calque_1
 62
7
100
AcDbSpline
 70
8
 71
3
 72
8
 73
4
 74
0
 40
0
 40
0
 40
0
 40
0
 40
1
 40
1
 40
1
 40
1
 10
954.088770
 20
740.912002
 30
0.0
 10
945.405808
 20
740.984445
 30
0.0
 10
937.580802
 20
739.707424
 30
0.0
 10
929.788026
 20
739.366206
 30
0.0
  0
SPLINE
  5
17c
100
AcDbEntity
  8
Calque_1
 62
7
100
AcDbSpline
 70
8
 71
3
 72
8
 73
4
 74
0
 40
0
 40
0
 40
0
 40
0
 40
1
 40
1
 40
1
 40
1
 10
929.788026
 20
739.366206
 30
0.0
 10
929.788026
 20
739.366206
 30
0.0
 10
926.828643
 20
752.271584
 30
0.0
 10
925.620252
 20
752.281129
 30
0.0
  0
SPLINE
  5
17d
100
AcDbEntity
  8
Calque_1
 62
7
100
AcDbSpline
 70
8
 71
3
 72
8
 73
4
 74
0
 40
0
 40
0
 40
0
 40
0
 40
1
 40
1
 40
1
 40
1
 10
925.620252
 20
752.281129
 30
0.0
 10
918.845423
 20
751.681791
 30
0.0
 10
911.368454
 20
752.508747
 30
0.0
 10
905.225500
 20
751.842536
 30
0.0
  0
LWPOLYLINE
  5
17e
100
AcDbEntity
  8
Calque_1
 62
7
100
AcDbPolyline
 90
2
 70
1
 10
997.668679
 20
740.839236
 30
0.0
 10
997.308450
 20
748.420657
 30
0.0
  0
SPLINE
  5
17f
100
AcDbEntity
  8
Calque_1
 62
7
100
AcDbSpline
 70
8
 71
3
 72
8
 73
4
 74
0
 40
0
 40
0
 40
0
 40
0
 40
1
 40
1
 40
1
 40
1
 10
900.786430
 20
739.595285
 30
0.0
 10
898.007148
 20
734.746894
 30
0.0
 10
898.290194
 20
728.483319
 30
0.0
 10
898.360896
 20
721.510878
 30
0.0
  0
LWPOLYLINE
  5
180
100
AcDbEntity
  8
Calque_1
 62
7
100
AcDbPolyline
 90
2
 70
1
 10
905.225500
 20
751.842536
 30
0.0
 10
900.786430
 20
739.595285
 30
0.0
  0
SPLINE
  5
181
100
AcDbEntity
  8
Calque_1
 62
7
100
AcDbSpline
 70
8
 71
3
 72
8
 73
4
 74
0
 40
0
 40
0
 40
0
 40
0
 40
1
 40
1
 40
1
 40
1
 10
895.537020
 20
721.912714
 30
0.0
 10
894.524655
 20
734.470593
 30
0.0
 10
894.300147
 20
747.960471
 30
0.0
 10
893.644147
 20
760.481799
 30
0.0
  0
SPLINE
  5
182
100
AcDbEntity
  8
Calque_1
 62
7
100
AcDbSpline
 70
8
 71
3
 72
8
 73
4
 74
0
 40
0
 40
0
 40
0
 40
0
 40
1
 40
1
 40
1
 40
1
 10
893.644147
 20
760.481799
 30
0.0
 10
890.944751
 20
771.220044
 30
0.0
 10
892.206914
 20
787.814485
 30
0.0
 10
891.842218
 20
789.965755
 30
0.0
  0
LWPOLYLINE
  5
183
100
AcDbEntity
  8
Calque_1
 62
7
100
AcDbPolyline
 90
2
 70
1
 10
898.360896
 20
721.510878
 30
0.0
 10
895.537020
 20
721.912714
 30
0.0
  0
SPLINE
  5
184
100
AcDbEntity
  8
Calque_1
 62
7
100
AcDbSpline
 70
8
 71
3
 72
8
 73
4
 74
0
 40
0
 40
0
 40
0
 40
0
 40
1
 40
1
 40
1
 40
1
 10
891.903751
 20
795.112125
 30
0.0
 10
891.903751
 20
795.112125
 30
0.0
 10
905.050410
 20
804.197445
 30
0.0
 10
904.626142
 20
808.939092
 30
0.0
  0
SPLINE
  5
185
100
AcDbEntity
  8
Calque_1
 62
7
100
AcDbSpline
 70
8
 71
3
 72
8
 73
4
 74
0
 40
0
 40
0
 40
0
 40
0
 40
1
 40
1
 40
1
 40
1
 10
904.626142
 20
808.939092
 30
0.0
 10
904.235171
 20
813.308614
 30
0.0
 10
892.026811
 20
812.742646
 30
0.0
 10
892.026811
 20
812.742646
 30
0.0
  0
LWPOLYLINE
  5
186
100
AcDbEntity
  8
Calque_1
 62
7
100
AcDbPolyline
 90
2
 70
1
 10
891.842218
 20
789.965755
 30
0.0
 10
891.903751
 20
795.112125
 30
0.0
  0
SPLINE
  5
187
100
AcDbEntity
  8
Calque_1
 62
7
100
AcDbSpline
 70
8
 71
3
 72
8
 73
4
 74
0
 40
0
 40
0
 40
0
 40
0
 40
1
 40
1
 40
1
 40
1
 10
892.088344
 20
817.889016
 30
0.0
 10
891.404542
 20
827.550115
 30
0.0
 10
890.285759
 20
835.405065
 30
0.0
 10
889.278497
 20
837.214897
 30
0.0
  0
SPLINE
  5
188
100
AcDbEntity
  8
Calque_1
 62
7
100
AcDbSpline
 70
8
 71
3
 72
8
 73
4
 74
0
 40
0
 40
0
 40
0
 40
0
 40
1
 40
1
 40
1
 40
1
 10
889.278497
 20
837.214897
 30
0.0
 10
887.119186
 20
828.307286
 30
0.0
 10
886.261194
 20
822.430127
 30
0.0
 10
885.628983
 20
818.786497
 30
0.0
  0
LWPOLYLINE
  5
189
100
AcDbEntity
  8
Calque_1
 62
7
100
AcDbPolyline
 90
2
 70
1
 10
892.026811
 20
812.742646
 30
0.0
 10
892.088344
 20
817.889016
 30
0.0
  0
SPLINE
  5
18a
100
AcDbEntity
  8
Calque_1
 62
7
100
AcDbSpline
 70
8
 71
3
 72
8
 73
4
 74
0
 40
0
 40
0
 40
0
 40
0
 40
1
 40
1
 40
1
 40
1
 10
885.512086
 20
813.341995
 30
0.0
 10
885.512086
 20
813.341995
 30
0.0
 10
875.288868
 20
811.646754
 30
0.0
 10
875.307588
 20
807.771488
 30
0.0
  0
SPLINE
  5
18b
100
AcDbEntity
  8
Calque_1
 62
7
100
AcDbSpline
 70
8
 71
3
 72
8
 73
4
 74
0
 40
0
 40
0
 40
0
 40
0
 40
1
 40
1
 40
1
 40
1
 10
875.307588
 20
807.771488
 30
0.0
 10
875.325791
 20
804.004699
 30
0.0
 10
885.278288
 20
795.115215
 30
0.0
 10
885.278288
 20
795.115215
 30
0.0
  0
LWPOLYLINE
  5
18c
100
AcDbEntity
  8
Calque_1
 62
7
100
AcDbPolyline
 90
2
 70
1
 10
885.628983
 20
818.786497
 30
0.0
 10
885.512086
 20
813.341995
 30
0.0
  0
SPLINE
  5
18d
100
AcDbEntity
  8
Calque_1
 62
7
100
AcDbSpline
 70
8
 71
3
 72
8
 73
4
 74
0
 40
0
 40
0
 40
0
 40
0
 40
1
 40
1
 40
1
 40
1
 10
885.161391
 20
789.670714
 30
0.0
 10
884.506094
 20
775.266379
 30
0.0
 10
885.421978
 20
737.876388
 30
0.0
 10
884.502241
 20
723.484229
 30
0.0
  0
LWPOLYLINE
  5
18e
100
AcDbEntity
  8
Calque_1
 62
7
100
AcDbPolyline
 90
2
 70
1
 10
885.278288
 20
795.115215
 30
0.0
 10
885.161391
 20
789.670714
 30
0.0
  0
SPLINE
  5
18f
100
AcDbEntity
  8
Calque_1
 62
7
100
AcDbSpline
 70
8
 71
3
 72
8
 73
4
 74
0
 40
0
 40
0
 40
0
 40
0
 40
1
 40
1
 40
1
 40
1
 10
880.864222
 20
724.002372
 30
0.0
 10
877.440610
 20
732.217520
 30
0.0
 10
883.886438
 20
745.901098
 30
0.0
 10
878.744115
 20
752.483197
 30
0.0
  0
SPLINE
  5
190
100
AcDbEntity
  8
Calque_1
 62
7
100
AcDbSpline
 70
8
 71
3
 72
8
 73
4
 74
0
 40
0
 40
0
 40
0
 40
0
 40
1
 40
1
 40
1
 40
1
 10
878.744115
 20
752.483197
 30
0.0
 10
876.056801
 20
759.289867
 30
0.0
 10
858.089535
 20
760.256058
 30
0.0
 10
852.688851
 20
760.927179
 30
0.0
  0
SPLINE
  5
191
100
AcDbEntity
  8
Calque_1
 62
7
100
AcDbSpline
 70
8
 71
3
 72
8
 73
4
 74
0
 40
0
 40
0
 40
0
 40
0
 40
1
 40
1
 40
1
 40
1
 10
852.688851
 20
760.927179
 30
0.0
 10
849.833621
 20
763.133259
 30
0.0
 10
851.367690
 20
763.934265
 30
0.0
 10
845.846066
 20
767.202766
 30
0.0
  0
SPLINE
  5
192
100
AcDbEntity
  8
Calque_1
 62
7
100
AcDbSpline
 70
8
 71
3
 72
8
 73
4
 74
0
 40
0
 40
0
 40
0
 40
0
 40
1
 40
1
 40
1
 40
1
 10
845.846066
 20
767.202766
 30
0.0
 10
841.810122
 20
757.930211
 30
0.0
 10
835.822941
 20
775.027456
 30
0.0
 10
833.858787
 20
767.067719
 30
0.0
  0
SPLINE
  5
193
100
AcDbEntity
  8
Calque_1
 62
7
100
AcDbSpline
 70
8
 71
3
 72
8
 73
4
 74
0
 40
0
 40
0
 40
0
 40
0
 40
1
 40
1
 40
1
 40
1
 10
833.858787
 20
767.067719
 30
0.0
 10
833.194086
 20
757.667016
 30
0.0
 10
822.374318
 20
772.842590
 30
0.0
 10
825.209114
 20
761.344448
 30
0.0
  0
SPLINE
  5
194
100
AcDbEntity
  8
Calque_1
 62
7
100
AcDbSpline
 70
8
 71
3
 72
8
 73
4
 74
0
 40
0
 40
0
 40
0
 40
0
 40
1
 40
1
 40
1
 40
1
 10
825.209114
 20
761.344448
 30
0.0
 10
825.969062
 20
759.555204
 30
0.0
 10
825.033614
 20
758.467517
 30
0.0
 10
823.098517
 20
757.828975
 30
0.0
  0
SPLINE
  5
195
100
AcDbEntity
  8
Calque_1
 62
7
100
AcDbSpline
 70
8
 71
3
 72
8
 73
4
 74
0
 40
0
 40
0
 40
0
 40
0
 40
1
 40
1
 40
1
 40
1
 10
823.098517
 20
757.828975
 30
0.0
 10
821.163418
 20
757.190436
 30
0.0
 10
796.525444
 20
755.373300
 30
0.0
 10
793.286783
 20
755.380643
 30
0.0
  0
SPLINE
  5
196
100
AcDbEntity
  8
Calque_1
 62
7
100
AcDbSpline
 70
8
 71
3
 72
8
 73
4
 74
0
 40
0
 40
0
 40
0
 40
0
 40
1
 40
1
 40
1
 40
1
 10
793.286783
 20
755.380643
 30
0.0
 10
790.048125
 20
755.387981
 30
0.0
 10
793.287912
 20
724.936254
 30
0.0
 10
790.137067
 20
725.084652
 30
0.0
  0
SPLINE
  5
197
100
AcDbEntity
  8
Calque_1
 62
7
100
AcDbSpline
 70
8
 71
3
 72
8
 73
4
 74
0
 40
0
 40
0
 40
0
 40
0
 40
1
 40
1
 40
1
 40
1
 10
790.137067
 20
725.084652
 30
0.0
 10
789.349382
 20
725.121750
 30
0.0
 10
785.144189
 20
725.816641
 30
0.0
 10
783.729652
 20
728.869419
 30
0.0
  0
SPLINE
  5
198
100
AcDbEntity
  8
Calque_1
 62
7
100
AcDbSpline
 70
8
 71
3
 72
8
 73
4
 74
0
 40
0
 40
0
 40
0
 40
0
 40
1
 40
1
 40
1
 40
1
 10
783.729652
 20
728.869419
 30
0.0
 10
782.315112
 20
731.922199
 30
0.0
 10
784.233805
 20
742.216094
 30
0.0
 10
782.671957
 20
746.258944
 30
0.0
  0
SPLINE
  5
199
100
AcDbEntity
  8
Calque_1
 62
7
100
AcDbSpline
 70
8
 71
3
 72
8
 73
4
 74
0
 40
0
 40
0
 40
0
 40
0
 40
1
 40
1
 40
1
 40
1
 10
782.671957
 20
746.258944
 30
0.0
 10
781.110108
 20
750.301792
 30
0.0
 10
768.467241
 20
750.015746
 30
0.0
 10
768.467241
 20
750.015746
 30
0.0
  0
LWPOLYLINE
  5
19a
100
AcDbEntity
  8
Calque_1
 62
7
100
AcDbPolyline
 90
2
 70
1
 10
884.502241
 20
723.484229
 30
0.0
 10
880.864222
 20
724.002372
 30
0.0
  0
SPLINE
  5
19b
100
AcDbEntity
  8
Calque_1
 62
7
100
AcDbSpline
 70
8
 71
3
 72
8
 73
4
 74
0
 40
0
 40
0
 40
0
 40
0
 40
1
 40
1
 40
1
 40
1
 10
766.772282
 20
796.218783
 30
0.0
 10
766.772282
 20
796.218783
 30
0.0
 10
768.687685
 20
804.835939
 30
0.0
 10
766.751510
 20
802.036910
 30
0.0
  0
SPLINE
  5
19c
100
AcDbEntity
  8
Calque_1
 62
7
100
AcDbSpline
 70
8
 71
3
 72
8
 73
4
 74
0
 40
0
 40
0
 40
0
 40
0
 40
1
 40
1
 40
1
 40
1
 10
766.751510
 20
802.036910
 30
0.0
 10
766.751510
 20
802.036910
 30
0.0
 10
765.178452
 20
798.488629
 30
0.0
 10
763.172602
 20
799.174067
 30
0.0
  0
SPLINE
  5
19d
100
AcDbEntity
  8
Calque_1
 62
7
100
AcDbSpline
 70
8
 71
3
 72
8
 73
4
 74
0
 40
0
 40
0
 40
0
 40
0
 40
1
 40
1
 40
1
 40
1
 10
763.172602
 20
799.174067
 30
0.0
 10
761.545221
 20
799.009605
 30
0.0
 10
760.887195
 20
800.810917
 30
0.0
 10
758.587036
 20
801.338523
 30
0.0
  0
SPLINE
  5
19e
100
AcDbEntity
  8
Calque_1
 62
7
100
AcDbSpline
 70
8
 71
3
 72
8
 73
4
 74
0
 40
0
 40
0
 40
0
 40
0
 40
1
 40
1
 40
1
 40
1
 10
758.587036
 20
801.338523
 30
0.0
 10
757.427032
 20
801.604599
 30
0.0
 10
759.023388
 20
797.238649
 30
0.0
 10
759.015602
 20
796.723955
 30
0.0
  0
LWPOLYLINE
  5
19f
100
AcDbEntity
  8
Calque_1
 62
7
100
AcDbPolyline
 90
2
 70
1
 10
768.467241
 20
750.015746
 30
0.0
 10
766.772282
 20
796.218783
 30
0.0
  0
SPLINE
  5
1a0
100
AcDbEntity
  8
Calque_1
 62
7
100
AcDbSpline
 70
8
 71
3
 72
8
 73
4
 74
0
 40
0
 40
0
 40
0
 40
0
 40
1
 40
1
 40
1
 40
1
 10
758.289797
 20
748.751494
 30
0.0
 10
758.289797
 20
748.751494
 30
0.0
 10
746.987344
 20
751.511580
 30
0.0
 10
743.771797
 20
746.711716
 30
0.0
  0
SPLINE
  5
1a1
100
AcDbEntity
  8
Calque_1
 62
7
100
AcDbSpline
 70
8
 71
3
 72
8
 73
4
 74
0
 40
0
 40
0
 40
0
 40
0
 40
1
 40
1
 40
1
 40
1
 10
743.771797
 20
746.711716
 30
0.0
 10
740.207300
 20
741.390972
 30
0.0
 10
743.542483
 20
729.186509
 30
0.0
 10
743.490255
 20
729.179778
 30
0.0
  0
LWPOLYLINE
  5
1a2
100
AcDbEntity
  8
Calque_1
 62
7
100
AcDbPolyline
 90
2
 70
1
 10
759.015602
 20
796.723955
 30
0.0
 10
758.289797
 20
748.751494
 30
0.0
  0
SPLINE
  5
1a3
100
AcDbEntity
  8
Calque_1
 62
7
100
AcDbSpline
 70
8
 71
3
 72
8
 73
4
 74
0
 40
0
 40
0
 40
0
 40
0
 40
1
 40
1
 40
1
 40
1
 10
798.650761
 20
725.786451
 30
0.0
 10
798.094952
 20
728.521250
 30
0.0
 10
798.644298
 20
731.514075
 30
0.0
 10
797.410767
 20
749.357200
 30
0.0
  0
LWPOLYLINE
  5
1a4
100
AcDbEntity
  8
Calque_1
 62
7
100
AcDbPolyline
 90
7
 70
1
 10
743.490255
 20
729.179778
 30
0.0
 10
737.971287
 20
729.081322
 30
0.0
 10
736.288940
 20
753.920925
 30
0.0
 10
741.295687
 20
759.522717
 30
0.0
 10
717.545662
 20
759.427411
 30
0.0
 10
705.819566
 20
768.988628
 30
0.0
 10
686.768632
 20
757.931780
 30
0.0
  0
SPLINE
  5
1a5
100
AcDbEntity
  8
Calque_1
 62
7
100
AcDbSpline
 70
8
 71
3
 72
8
 73
4
 74
0
 40
0
 40
0
 40
0
 40
0
 40
1
 40
1
 40
1
 40
1
 10
810.541830
 20
749.069452
 30
0.0
 10
810.438460
 20
743.127122
 30
0.0
 10
810.334944
 20
732.104879
 30
0.0
 10
810.231496
 20
726.162597
 30
0.0
  0
LWPOLYLINE
  5
1a6
100
AcDbEntity
  8
Calque_1
 62
7
100
AcDbPolyline
 90
2
 70
1
 10
797.410767
 20
749.357200
 30
0.0
 10
810.541830
 20
749.069452
 30
0.0
  0
SPLINE
  5
1a7
100
AcDbEntity
  8
Calque_1
 62
7
100
AcDbSpline
 70
8
 71
3
 72
8
 73
4
 74
0
 40
0
 40
0
 40
0
 40
0
 40
1
 40
1
 40
1
 40
1
 10
814.742643
 20
726.745234
 30
0.0
 10
814.752718
 20
736.536284
 30
0.0
 10
813.196006
 20
739.880858
 30
0.0
 10
814.049765
 20
744.456332
 30
0.0
  0
SPLINE
  5
1a8
100
AcDbEntity
  8
Calque_1
 62
7
100
AcDbSpline
 70
8
 71
3
 72
8
 73
4
 74
0
 40
0
 40
0
 40
0
 40
0
 40
1
 40
1
 40
1
 40
1
 10
814.049765
 20
744.456332
 30
0.0
 10
812.502298
 20
751.515923
 30
0.0
 10
822.112094
 20
747.937628
 30
0.0
 10
826.674248
 20
749.171427
 30
0.0
  0
SPLINE
  5
1a9
100
AcDbEntity
  8
Calque_1
 62
7
100
AcDbSpline
 70
8
 71
3
 72
8
 73
4
 74
0
 40
0
 40
0
 40
0
 40
0
 40
1
 40
1
 40
1
 40
1
 10
826.674248
 20
749.171427
 30
0.0
 10
826.573994
 20
743.917177
 30
0.0
 10
826.757150
 20
732.020308
 30
0.0
 10
826.689121
 20
726.753432
 30
0.0
  0
LWPOLYLINE
  5
1aa
100
AcDbEntity
  8
Calque_1
 62
7
100
AcDbPolyline
 90
2
 70
1
 10
810.231496
 20
726.162597
 30
0.0
 10
798.650761
 20
725.786451
 30
0.0
  0
SPLINE
  5
1ab
100
AcDbEntity
  8
Calque_1
 62
7
100
AcDbSpline
 70
8
 71
3
 72
8
 73
4
 74
0
 40
0
 40
0
 40
0
 40
0
 40
1
 40
1
 40
1
 40
1
 10
829.925307
 20
728.706458
 30
0.0
 10
829.307217
 20
736.125281
 30
0.0
 10
830.606360
 20
748.657529
 30
0.0
 10
836.977554
 20
748.877620
 30
0.0
  0
SPLINE
  5
1ac
100
AcDbEntity
  8
Calque_1
 62
7
100
AcDbSpline
 70
8
 71
3
 72
8
 73
4
 74
0
 40
0
 40
0
 40
0
 40
0
 40
1
 40
1
 40
1
 40
1
 10
836.977554
 20
748.877620
 30
0.0
 10
845.492473
 20
748.893170
 30
0.0
 10
844.277382
 20
735.156486
 30
0.0
 10
843.449923
 20
730.261426
 30
0.0
  0
LWPOLYLINE
  5
1ad
100
AcDbEntity
  8
Calque_1
 62
7
100
AcDbPolyline
 90
2
 70
1
 10
826.689121
 20
726.753432
 30
0.0
 10
814.742643
 20
726.745234
 30
0.0
  0
SPLINE
  5
1ae
100
AcDbEntity
  8
Calque_1
 62
7
100
AcDbSpline
 70
8
 71
3
 72
8
 73
4
 74
0
 40
0
 40
0
 40
0
 40
0
 40
1
 40
1
 40
1
 40
1
 10
846.877933
 20
730.535388
 30
0.0
 10
846.933265
 20
735.031371
 30
0.0
 10
847.976045
 20
745.047170
 30
0.0
 10
847.258823
 20
749.069452
 30
0.0
  0
SPLINE
  5
1af
100
AcDbEntity
  8
Calque_1
 62
7
100
AcDbSpline
 70
8
 71
3
 72
8
 73
4
 74
0
 40
0
 40
0
 40
0
 40
0
 40
1
 40
1
 40
1
 40
1
 10
847.258823
 20
749.069452
 30
0.0
 10
852.021613
 20
749.069452
 30
0.0
 10
861.683931
 20
751.647662
 30
0.0
 10
860.043159
 20
743.454957
 30
0.0
  0
SPLINE
  5
1b0
100
AcDbEntity
  8
Calque_1
 62
7
100
AcDbSpline
 70
8
 71
3
 72
8
 73
4
 74
0
 40
0
 40
0
 40
0
 40
0
 40
1
 40
1
 40
1
 40
1
 10
860.043159
 20
743.454957
 30
0.0
 10
859.332252
 20
740.944565
 30
0.0
 10
859.429396
 20
732.077868
 30
0.0
 10
859.624234
 20
728.720236
 30
0.0
  0
LWPOLYLINE
  5
1b1
100
AcDbEntity
  8
Calque_1
 62
7
100
AcDbPolyline
 90
2
 70
1
 10
843.449923
 20
730.261426
 30
0.0
 10
829.925307
 20
728.706458
 30
0.0
  0
SPLINE
  5
1b2
100
AcDbEntity
  8
Calque_1
 62
7
100
AcDbSpline
 70
8
 71
3
 72
8
 73
4
 74
0
 40
0
 40
0
 40
0
 40
0
 40
1
 40
1
 40
1
 40
1
 10
864.192156
 20
728.069804
 30
0.0
 10
862.793510
 20
732.892479
 30
0.0
 10
863.514052
 20
743.694879
 30
0.0
 10
863.441400
 20
749.069452
 30
0.0
  0
LWPOLYLINE
  5
1b3
100
AcDbEntity
  8
Calque_1
 62
7
100
AcDbPolyline
 90
2
 70
1
 10
859.624234
 20
728.720236
 30
0.0
 10
846.877933
 20
730.535388
 30
0.0
  0
SPLINE
  5
1b4
100
AcDbEntity
  8
Calque_1
 62
7
100
AcDbSpline
 70
8
 71
3
 72
8
 73
4
 74
0
 40
0
 40
0
 40
0
 40
0
 40
1
 40
1
 40
1
 40
1
 10
876.285818
 20
749.069452
 30
0.0
 10
876.183851
 20
743.203395
 30
0.0
 10
876.081574
 20
732.257375
 30
0.0
 10
875.979342
 20
726.391352
 30
0.0
  0
LWPOLYLINE
  5
1b5
100
AcDbEntity
  8
Calque_1
 62
7
100
AcDbPolyline
 90
2
 70
1
 10
863.441400
 20
749.069452
 30
0.0
 10
876.285818
 20
749.069452
 30
0.0
  0
SPLINE
  5
1b6
100
AcDbEntity
  8
Calque_1
 62
7
100
AcDbSpline
 70
8
 71
3
 72
8
 73
4
 74
0
 40
0
 40
0
 40
0
 40
0
 40
1
 40
1
 40
1
 40
1
 10
756.557460
 20
745.763800
 30
0.0
 10
752.364194
 20
743.823923
 30
0.0
 10
753.038090
 20
736.687671
 30
0.0
 10
755.951481
 20
732.692570
 30
0.0
  0
SPLINE
  5
1b7
100
AcDbEntity
  8
Calque_1
 62
7
100
AcDbSpline
 70
8
 71
3
 72
8
 73
4
 74
0
 40
0
 40
0
 40
0
 40
0
 40
1
 40
1
 40
1
 40
1
 10
755.951481
 20
732.692570
 30
0.0
 10
758.864872
 20
728.697469
 30
0.0
 10
758.465020
 20
731.265248
 30
0.0
 10
758.840042
 20
737.772833
 30
0.0
  0
SPLINE
  5
1b8
100
AcDbEntity
  8
Calque_1
 62
7
100
AcDbSpline
 70
8
 71
3
 72
8
 73
4
 74
0
 40
0
 40
0
 40
0
 40
0
 40
1
 40
1
 40
1
 40
1
 10
758.840042
 20
737.772833
 30
0.0
 10
758.328738
 20
739.924283
 30
0.0
 10
760.452722
 20
745.641583
 30
0.0
 10
756.557460
 20
745.763800
 30
0.0
  0
LWPOLYLINE
  5
1b9
100
AcDbEntity
  8
Calque_1
 62
7
100
AcDbPolyline
 90
2
 70
1
 10
875.979342
 20
726.391352
 30
0.0
 10
864.192156
 20
728.069804
 30
0.0
  0
SPLINE
  5
1ba
100
AcDbEntity
  8
Calque_1
 62
7
100
AcDbSpline
 70
8
 71
3
 72
8
 73
4
 74
0
 40
0
 40
0
 40
0
 40
0
 40
1
 40
1
 40
1
 40
1
 10
770.175233
 20
745.727418
 30
0.0
 10
766.533638
 20
743.770337
 30
0.0
 10
767.005908
 20
737.353510
 30
0.0
 10
768.905148
 20
733.769920
 30
0.0
  0
SPLINE
  5
1bb
100
AcDbEntity
  8
Calque_1
 62
7
100
AcDbSpline
 70
8
 71
3
 72
8
 73
4
 74
0
 40
0
 40
0
 40
0
 40
0
 40
1
 40
1
 40
1
 40
1
 10
768.905148
 20
733.769920
 30
0.0
 10
770.804391
 20
730.186330
 30
0.0
 10
772.498249
 20
730.831363
 30
0.0
 10
772.999659
 20
737.523681
 30
0.0
  0
SPLINE
  5
1bc
100
AcDbEntity
  8
Calque_1
 62
7
100
AcDbSpline
 70
8
 71
3
 72
8
 73
4
 74
0
 40
0
 40
0
 40
0
 40
0
 40
1
 40
1
 40
1
 40
1
 10
772.999659
 20
737.523681
 30
0.0
 10
772.706695
 20
740.057616
 30
0.0
 10
774.269622
 20
745.224563
 30
0.0
 10
770.175233
 20
745.727418
 30
0.0
  0
LWPOLYLINE
  5
1bd
100
AcDbEntity
  8
Calque_1
 62
7
100
AcDbPolyline
 90
2
 70
1
 10
756.557460
 20
745.763800
 30
0.0
 10
756.557460
 20
745.763800
 30
0.0
  0
SPLINE
  5
1be
100
AcDbEntity
  8
Calque_1
 62
7
100
AcDbSpline
 70
8
 71
3
 72
8
 73
4
 74
0
 40
0
 40
0
 40
0
 40
0
 40
1
 40
1
 40
1
 40
1
 10
777.831797
 20
731.998301
 30
0.0
 10
777.831797
 20
731.998301
 30
0.0
 10
780.072405
 20
731.996043
 30
0.0
 10
780.080572
 20
737.523681
 30
0.0
  0
SPLINE
  5
1bf
100
AcDbEntity
  8
Calque_1
 62
7
100
AcDbSpline
 70
8
 71
3
 72
8
 73
4
 74
0
 40
0
 40
0
 40
0
 40
0
 40
1
 40
1
 40
1
 40
1
 10
780.080572
 20
737.523681
 30
0.0
 10
779.786237
 20
740.024754
 30
0.0
 10
781.390462
 20
745.663710
 30
0.0
 10
776.965101
 20
745.666786
 30
0.0
  0
SPLINE
  5
1c0
100
AcDbEntity
  8
Calque_1
 62
7
100
AcDbSpline
 70
8
 71
3
 72
8
 73
4
 74
0
 40
0
 40
0
 40
0
 40
0
 40
1
 40
1
 40
1
 40
1
 10
776.965101
 20
745.666786
 30
0.0
 10
773.333771
 20
743.294708
 30
0.0
 10
775.670850
 20
734.227416
 30
0.0
 10
775.670850
 20
734.227416
 30
0.0
  0
LWPOLYLINE
  5
1c1
100
AcDbEntity
  8
Calque_1
 62
7
100
AcDbPolyline
 90
2
 70
1
 10
770.175233
 20
745.727418
 30
0.0
 10
770.175233
 20
745.727418
 30
0.0
  0
SPLINE
  5
1c2
100
AcDbEntity
  8
Calque_1
 62
7
100
AcDbSpline
 70
8
 71
3
 72
8
 73
4
 74
0
 40
0
 40
0
 40
0
 40
0
 40
1
 40
1
 40
1
 40
1
 10
748.557121
 20
745.623239
 30
0.0
 10
745.294920
 20
743.041687
 30
0.0
 10
746.193464
 20
736.052990
 30
0.0
 10
747.868199
 20
733.133455
 30
0.0
  0
SPLINE
  5
1c3
100
AcDbEntity
  8
Calque_1
 62
7
100
AcDbSpline
 70
8
 71
3
 72
8
 73
4
 74
0
 40
0
 40
0
 40
0
 40
0
 40
1
 40
1
 40
1
 40
1
 10
747.868199
 20
733.133455
 30
0.0
 10
749.542937
 20
730.213920
 30
0.0
 10
751.278750
 20
730.625625
 30
0.0
 10
751.805984
 20
737.455333
 30
0.0
  0
SPLINE
  5
1c4
100
AcDbEntity
  8
Calque_1
 62
7
100
AcDbSpline
 70
8
 71
3
 72
8
 73
4
 74
0
 40
0
 40
0
 40
0
 40
0
 40
1
 40
1
 40
1
 40
1
 10
751.805984
 20
737.455333
 30
0.0
 10
751.524981
 20
739.941962
 30
0.0
 10
752.361939
 20
745.400656
 30
0.0
 10
748.557121
 20
745.623239
 30
0.0
  0
LWPOLYLINE
  5
1c5
100
AcDbEntity
  8
Calque_1
 62
7
100
AcDbPolyline
 90
2
 70
1
 10
775.670850
 20
734.227416
 30
0.0
 10
777.831797
 20
731.998301
 30
0.0
  0
SPLINE
  5
1c6
100
AcDbEntity
  8
Calque_1
 62
7
100
AcDbSpline
 70
8
 71
3
 72
8
 73
4
 74
0
 40
0
 40
0
 40
0
 40
0
 40
1
 40
1
 40
1
 40
1
 10
763.502221
 20
745.587411
 30
0.0
 10
755.980781
 20
742.483514
 30
0.0
 10
764.811949
 20
720.576051
 30
0.0
 10
765.969461
 20
737.470765
 30
0.0
  0
SPLINE
  5
1c7
100
AcDbEntity
  8
Calque_1
 62
7
100
AcDbSpline
 70
8
 71
3
 72
8
 73
4
 74
0
 40
0
 40
0
 40
0
 40
0
 40
1
 40
1
 40
1
 40
1
 10
765.969461
 20
737.470765
 30
0.0
 10
765.748953
 20
740.024342
 30
0.0
 10
766.365334
 20
744.165654
 30
0.0
 10
763.502221
 20
745.587411
 30
0.0
  0
LWPOLYLINE
  5
1c8
100
AcDbEntity
  8
Calque_1
 62
7
100
AcDbPolyline
 90
2
 70
1
 10
748.557121
 20
745.623239
 30
0.0
 10
748.557121
 20
745.623239
 30
0.0
  0
LWPOLYLINE
  5
1c9
100
AcDbEntity
  8
Calque_1
 62
7
100
AcDbPolyline
 90
2
 70
1
 10
763.502221
 20
745.587411
 30
0.0
 10
763.502221
 20
745.587411
 30
0.0
  0
LWPOLYLINE
  5
1ca
100
AcDbEntity
  8
Calque_1
 62
7
100
AcDbPolyline
 90
70
 70
1
 10
1072.104988
 20
696.492338
 30
0.0
 10
1083.064072
 20
696.492338
 30
0.0
 10
1083.064072
 20
691.492348
 30
0.0
 10
1093.873154
 20
691.492348
 30
0.0
 10
1093.873154
 20
696.492338
 30
0.0
 10
1104.882248
 20
696.492338
 30
0.0
 10
1104.882248
 20
691.492348
 30
0.0
 10
1115.691331
 20
691.492348
 30
0.0
 10
1115.691331
 20
696.492338
 30
0.0
 10
1126.700425
 20
696.492338
 30
0.0
 10
1126.700425
 20
691.492348
 30
0.0
 10
1137.509536
 20
691.492348
 30
0.0
 10
1137.509536
 20
696.492338
 30
0.0
 10
1148.518602
 20
696.492338
 30
0.0
 10
1148.518602
 20
691.492348
 30
0.0
 10
1159.327713
 20
691.492348
 30
0.0
 10
1159.327713
 20
696.492338
 30
0.0
 10
1170.336806
 20
696.492338
 30
0.0
 10
1170.336806
 20
691.492348
 30
0.0
 10
1181.145889
 20
691.492348
 30
0.0
 10
1181.145889
 20
696.492338
 30
0.0
 10
1192.104973
 20
696.492338
 30
0.0
 10
1192.104973
 20
685.728072
 30
0.0
 10
1187.104983
 20
685.728072
 30
0.0
 10
1187.104983
 20
675.113779
 30
0.0
 10
1192.104973
 20
675.113779
 30
0.0
 10
1192.104973
 20
664.299475
 30
0.0
 10
1187.104983
 20
664.299475
 30
0.0
 10
1187.104983
 20
653.685210
 30
0.0
 10
1192.104973
 20
653.685210
 30
0.0
 10
1192.104973
 20
642.870906
 30
0.0
 10
1187.104983
 20
642.870906
 30
0.0
 10
1187.104983
 20
632.256641
 30
0.0
 10
1192.104973
 20
632.256641
 30
0.0
 10
1192.104973
 20
621.492347
 30
0.0
 10
1181.145889
 20
621.492347
 30
0.0
 10
1181.145889
 20
626.492365
 30
0.0
 10
1170.336806
 20
626.492365
 30
0.0
 10
1170.336806
 20
621.492347
 30
0.0
 10
1159.327713
 20
621.492347
 30
0.0
 10
1159.327713
 20
626.492365
 30
0.0
 10
1148.518602
 20
626.492365
 30
0.0
 10
1148.518602
 20
621.492347
 30
0.0
 10
1137.509536
 20
621.492347
 30
0.0
 10
1137.509536
 20
626.492365
 30
0.0
 10
1126.700425
 20
626.492365
 30
0.0
 10
1126.700425
 20
621.492347
 30
0.0
 10
1115.691331
 20
621.492347
 30
0.0
 10
1115.691331
 20
626.492365
 30
0.0
 10
1104.882248
 20
626.492365
 30
0.0
 10
1104.882248
 20
621.492347
 30
0.0
 10
1093.873154
 20
621.492347
 30
0.0
 10
1093.873154
 20
626.492365
 30
0.0
 10
1083.064072
 20
626.492365
 30
0.0
 10
1083.064072
 20
621.492347
 30
0.0
 10
1072.104988
 20
621.492347
 30
0.0
 10
1072.104988
 20
632.256641
 30
0.0
 10
1077.104978
 20
632.256641
 30
0.0
 10
1077.104978
 20
642.870906
 30
0.0
 10
1072.104988
 20
642.870906
 30
0.0
 10
1072.104988
 20
653.685210
 30
0.0
 10
1077.104978
 20
653.685210
 30
0.0
 10
1077.104978
 20
664.299475
 30
0.0
 10
1072.104988
 20
664.299475
 30
0.0
 10
1072.104988
 20
675.113779
 30
0.0
 10
1077.104978
 20
675.113779
 30
0.0
 10
1077.104978
 20
685.728072
 30
0.0
 10
1072.104988
 20
685.728072
 30
0.0
 10
1072.104988
 20
696.492338
 30
0.0
 10
1072.104988
 20
696.492338
 30
0.0
  0
LWPOLYLINE
  5
1cb
100
AcDbEntity
  8
Calque_1
 62
7
100
AcDbPolyline
 90
5
 70
1
 10
905.597461
 20
680.336724
 30
0.0
 10
900.597471
 20
680.336724
 30
0.0
 10
900.597471
 20
667.103409
 30
0.0
 10
905.597461
 20
667.103409
 30
0.0
 10
905.597461
 20
680.336724
 30
0.0
  0
LWPOLYLINE
  5
1cc
100
AcDbEntity
  8
Calque_1
 62
7
100
AcDbPolyline
 90
5
 70
1
 10
785.597475
 20
667.103409
 30
0.0
 10
790.597465
 20
667.103409
 30
0.0
 10
790.597465
 20
680.336724
 30
0.0
 10
785.597475
 20
680.336724
 30
0.0
 10
785.597475
 20
667.103409
 30
0.0
  0
LWPOLYLINE
  5
1cd
100
AcDbEntity
  8
Calque_1
 62
7
100
AcDbPolyline
 90
5
 70
1
 10
796.710398
 20
653.791212
 30
0.0
 10
796.710398
 20
648.791222
 30
0.0
 10
785.801296
 20
648.791222
 30
0.0
 10
785.801296
 20
653.791212
 30
0.0
 10
796.710398
 20
653.791212
 30
0.0
  0
LWPOLYLINE
  5
1ce
100
AcDbEntity
  8
Calque_1
 62
7
100
AcDbPolyline
 90
5
 70
1
 10
905.801282
 20
653.791212
 30
0.0
 10
905.801282
 20
648.791222
 30
0.0
 10
894.892179
 20
648.791222
 30
0.0
 10
894.892179
 20
653.791212
 30
0.0
 10
905.801282
 20
653.791212
 30
0.0
  0
LWPOLYLINE
  5
1cf
100
AcDbEntity
  8
Calque_1
 62
7
100
AcDbPolyline
 90
5
 70
1
 10
883.983077
 20
653.791212
 30
0.0
 10
883.983077
 20
648.791222
 30
0.0
 10
873.074002
 20
648.791222
 30
0.0
 10
873.074002
 20
653.791212
 30
0.0
 10
883.983077
 20
653.791212
 30
0.0
  0
LWPOLYLINE
  5
1d0
100
AcDbEntity
  8
Calque_1
 62
7
100
AcDbPolyline
 90
5
 70
1
 10
862.164900
 20
653.791212
 30
0.0
 10
862.164900
 20
648.791222
 30
0.0
 10
851.255826
 20
648.791222
 30
0.0
 10
851.255826
 20
653.791212
 30
0.0
 10
862.164900
 20
653.791212
 30
0.0
  0
LWPOLYLINE
  5
1d1
100
AcDbEntity
  8
Calque_1
 62
7
100
AcDbPolyline
 90
5
 70
1
 10
840.346723
 20
653.791212
 30
0.0
 10
840.346723
 20
648.791222
 30
0.0
 10
829.437621
 20
648.791222
 30
0.0
 10
829.437621
 20
653.791212
 30
0.0
 10
840.346723
 20
653.791212
 30
0.0
  0
LWPOLYLINE
  5
1d2
100
AcDbEntity
  8
Calque_1
 62
7
100
AcDbPolyline
 90
5
 70
1
 10
818.528547
 20
653.791212
 30
0.0
 10
818.528547
 20
648.791222
 30
0.0
 10
807.619444
 20
648.791222
 30
0.0
 10
807.619444
 20
653.791212
 30
0.0
 10
818.528547
 20
653.791212
 30
0.0
  0
SPLINE
  5
1d3
100
AcDbEntity
  8
Calque_1
 62
7
100
AcDbSpline
 70
8
 71
3
 72
8
 73
4
 74
0
 40
0
 40
0
 40
0
 40
0
 40
1
 40
1
 40
1
 40
1
 10
1059.653258
 20
849.276470
 30
0.0
 10
1059.590012
 20
849.276696
 30
0.0
 10
1059.538676
 20
849.220844
 30
0.0
 10
1059.538563
 20
849.151785
 30
0.0
  0
LWPOLYLINE
  5
1d4
100
AcDbEntity
  8
Calque_1
 62
7
100
AcDbPolyline
 90
5
 70
1
 10
1095.129241
 20
730.548545
 30
0.0
 10
1180.332559
 20
730.548545
 30
0.0
 10
1180.332559
 20
711.427647
 30
0.0
 10
1095.129241
 20
711.427647
 30
0.0
 10
1095.129241
 20
730.548545
 30
0.0
  0
SPLINE
  5
1d5
100
AcDbEntity
  8
Calque_1
 62
7
100
AcDbSpline
 70
8
 71
3
 72
8
 73
4
 74
0
 40
0
 40
0
 40
0
 40
0
 40
1
 40
1
 40
1
 40
1
 10
1059.538563
 20
826.786097
 30
0.0
 10
1059.538676
 20
826.717065
 30
0.0
 10
1059.590012
 20
826.661214
 30
0.0
 10
1059.653258
 20
826.661439
 30
0.0
  0
LWPOLYLINE
  5
1d6
100
AcDbEntity
  8
Calque_1
 62
7
100
AcDbPolyline
 90
2
 70
1
 10
1059.538563
 20
849.151785
 30
0.0
 10
1059.538563
 20
826.786097
 30
0.0
  0
SPLINE
  5
1d7
100
AcDbEntity
  8
Calque_1
 62
7
100
AcDbSpline
 70
8
 71
3
 72
8
 73
4
 74
0
 40
0
 40
0
 40
0
 40
0
 40
1
 40
1
 40
1
 40
1
 10
1118.610130
 20
826.661439
 30
0.0
 10
1118.673150
 20
826.661552
 30
0.0
 10
1118.724148
 20
826.717319
 30
0.0
 10
1118.724289
 20
826.786097
 30
0.0
  0
LWPOLYLINE
  5
1d8
100
AcDbEntity
  8
Calque_1
 62
7
100
AcDbPolyline
 90
2
 70
1
 10
1059.653258
 20
826.661439
 30
0.0
 10
1118.610130
 20
826.661439
 30
0.0
  0
SPLINE
  5
1d9
100
AcDbEntity
  8
Calque_1
 62
7
100
AcDbSpline
 70
8
 71
3
 72
8
 73
4
 74
0
 40
0
 40
0
 40
0
 40
0
 40
1
 40
1
 40
1
 40
1
 10
1118.724289
 20
849.151785
 30
0.0
 10
1118.724148
 20
849.220590
 30
0.0
 10
1118.673150
 20
849.276329
 30
0.0
 10
1118.610130
 20
849.276470
 30
0.0
  0
LWPOLYLINE
  5
1da
100
AcDbEntity
  8
Calque_1
 62
7
100
AcDbPolyline
 90
2
 70
1
 10
1118.724289
 20
826.786097
 30
0.0
 10
1118.724289
 20
849.151785
 30
0.0
  0
LWPOLYLINE
  5
1db
100
AcDbEntity
  8
Calque_1
 62
7
100
AcDbPolyline
 90
2
 70
1
 10
1118.610130
 20
849.276470
 30
0.0
 10
1059.653258
 20
849.276470
 30
0.0
  0
LWPOLYLINE
  5
1dc
100
AcDbEntity
  8
Calque_1
 62
7
100
AcDbPolyline
 90
5
 70
1
 10
1059.767389
 20
849.026534
 30
0.0
 10
1118.496027
 20
849.026534
 30
0.0
 10
1118.496027
 20
826.910783
 30
0.0
 10
1059.767389
 20
826.910783
 30
0.0
 10
1059.767389
 20
849.026534
 30
0.0
  0
LWPOLYLINE
  5
1dd
100
AcDbEntity
  8
Calque_1
 62
7
100
AcDbPolyline
 90
5
 70
1
 10
852.439268
 20
593.940035
 30
0.0
 10
923.789985
 20
593.940035
 30
0.0
 10
923.789985
 20
574.802168
 30
0.0
 10
852.439268
 20
574.802168
 30
0.0
 10
852.439268
 20
593.940035
 30
0.0
  0
SPLINE
  5
1de
100
AcDbEntity
  8
Calque_1
 62
7
100
AcDbSpline
 70
8
 71
3
 72
8
 73
4
 74
0
 40
0
 40
0
 40
0
 40
0
 40
1
 40
1
 40
1
 40
1
 10
1017.340499
 20
679.433585
 30
0.0
 10
1016.544012
 20
679.433585
 30
0.0
 10
1015.896029
 20
678.785603
 30
0.0
 10
1015.896029
 20
677.989115
 30
0.0
  0
SPLINE
  5
1df
100
AcDbEntity
  8
Calque_1
 62
7
100
AcDbSpline
 70
8
 71
3
 72
8
 73
4
 74
0
 40
0
 40
0
 40
0
 40
0
 40
1
 40
1
 40
1
 40
1
 10
1015.896029
 20
677.989115
 30
0.0
 10
1015.896029
 20
677.192656
 30
0.0
 10
1016.544012
 20
676.545012
 30
0.0
 10
1017.340499
 20
676.545012
 30
0.0
  0
SPLINE
  5
1e0
100
AcDbEntity
  8
Calque_1
 62
7
100
AcDbSpline
 70
8
 71
3
 72
8
 73
4
 74
0
 40
0
 40
0
 40
0
 40
0
 40
1
 40
1
 40
1
 40
1
 10
1017.340499
 20
676.545012
 30
0.0
 10
1018.136958
 20
676.545012
 30
0.0
 10
1018.784602
 20
677.192656
 30
0.0
 10
1018.784602
 20
677.989115
 30
0.0
  0
SPLINE
  5
1e1
100
AcDbEntity
  8
Calque_1
 62
7
100
AcDbSpline
 70
8
 71
3
 72
8
 73
4
 74
0
 40
0
 40
0
 40
0
 40
0
 40
1
 40
1
 40
1
 40
1
 10
1018.784602
 20
677.989115
 30
0.0
 10
1018.784602
 20
678.785603
 30
0.0
 10
1018.136958
 20
679.433585
 30
0.0
 10
1017.340499
 20
679.433585
 30
0.0
  0
LWPOLYLINE
  5
1e2
100
AcDbEntity
  8
Calque_1
 62
7
100
AcDbPolyline
 90
5
 70
1
 10
770.608822
 20
593.940035
 30
0.0
 10
841.959539
 20
593.940035
 30
0.0
 10
841.959539
 20
574.802168
 30
0.0
 10
770.608822
 20
574.802168
 30
0.0
 10
770.608822
 20
593.940035
 30
0.0
  0
SPLINE
  5
1e3
100
AcDbEntity
  8
Calque_1
 62
7
100
AcDbSpline
 70
8
 71
3
 72
8
 73
4
 74
0
 40
0
 40
0
 40
0
 40
0
 40
1
 40
1
 40
1
 40
1
 10
1017.340499
 20
679.235183
 30
0.0
 10
1018.029883
 20
679.235183
 30
0.0
 10
1018.586538
 20
678.678528
 30
0.0
 10
1018.586538
 20
677.989115
 30
0.0
  0
SPLINE
  5
1e4
100
AcDbEntity
  8
Calque_1
 62
7
100
AcDbSpline
 70
8
 71
3
 72
8
 73
4
 74
0
 40
0
 40
0
 40
0
 40
0
 40
1
 40
1
 40
1
 40
1
 10
1018.586538
 20
677.989115
 30
0.0
 10
1018.586538
 20
677.299731
 30
0.0
 10
1018.029883
 20
676.743076
 30
0.0
 10
1017.340499
 20
676.743076
 30
0.0
  0
SPLINE
  5
1e5
100
AcDbEntity
  8
Calque_1
 62
7
100
AcDbSpline
 70
8
 71
3
 72
8
 73
4
 74
0
 40
0
 40
0
 40
0
 40
0
 40
1
 40
1
 40
1
 40
1
 10
1017.340499
 20
676.743076
 30
0.0
 10
1016.651087
 20
676.743076
 30
0.0
 10
1016.094093
 20
677.299731
 30
0.0
 10
1016.094093
 20
677.989115
 30
0.0
  0
SPLINE
  5
1e6
100
AcDbEntity
  8
Calque_1
 62
7
100
AcDbSpline
 70
8
 71
3
 72
8
 73
4
 74
0
 40
0
 40
0
 40
0
 40
0
 40
1
 40
1
 40
1
 40
1
 10
1016.094093
 20
677.989115
 30
0.0
 10
1016.094093
 20
678.678528
 30
0.0
 10
1016.651087
 20
679.235183
 30
0.0
 10
1017.340499
 20
679.235183
 30
0.0
  0
LWPOLYLINE
  5
1e7
100
AcDbEntity
  8
Calque_1
 62
7
100
AcDbPolyline
 90
2
 70
1
 10
1017.340499
 20
679.433585
 30
0.0
 10
1017.340499
 20
679.433585
 30
0.0
  0
LWPOLYLINE
  5
1e8
100
AcDbEntity
  8
Calque_1
 62
7
100
AcDbPolyline
 90
2
 70
1
 10
1017.340499
 20
679.235183
 30
0.0
 10
1017.340499
 20
679.235183
 30
0.0
  0
SPLINE
  5
1e9
100
AcDbEntity
  8
Calque_1
 62
7
100
AcDbSpline
 70
8
 71
3
 72
8
 73
4
 74
0
 40
0
 40
0
 40
0
 40
0
 40
1
 40
1
 40
1
 40
1
 10
766.859359
 20
860.777252
 30
0.0
 10
766.859359
 20
860.777252
 30
0.0
 10
728.568887
 20
857.503982
 30
0.0
 10
709.309309
 20
857.176802
 30
0.0
  0
SPLINE
  5
1ea
100
AcDbEntity
  8
Calque_1
 62
7
100
AcDbSpline
 70
8
 71
3
 72
8
 73
4
 74
0
 40
0
 40
0
 40
0
 40
0
 40
1
 40
1
 40
1
 40
1
 10
709.309309
 20
857.176802
 30
0.0
 10
709.309309
 20
861.471603
 30
0.0
 10
709.309309
 20
865.766376
 30
0.0
 10
709.309309
 20
870.061149
 30
0.0
  0
LWPOLYLINE
  5
1eb
100
AcDbEntity
  8
Calque_1
 62
7
100
AcDbPolyline
 90
3
 70
1
 10
709.309309
 20
833.649713
 30
0.0
 10
766.859359
 20
830.377657
 30
0.0
 10
766.859359
 20
860.777252
 30
0.0
  0
SPLINE
  5
1ec
100
AcDbEntity
  8
Calque_1
 62
7
100
AcDbSpline
 70
8
 71
3
 72
8
 73
4
 74
0
 40
0
 40
0
 40
0
 40
0
 40
1
 40
1
 40
1
 40
1
 10
709.309309
 20
820.061136
 30
0.0
 10
709.309309
 20
824.590662
 30
0.0
 10
709.309309
 20
829.120188
 30
0.0
 10
709.309309
 20
833.649713
 30
0.0
  0
LWPOLYLINE
  5
1ed
100
AcDbEntity
  8
Calque_1
 62
7
100
AcDbPolyline
 90
20
 70
1
 10
709.309309
 20
870.061149
 30
0.0
 10
719.201169
 20
870.061149
 30
0.0
 10
719.201169
 20
865.061159
 30
0.0
 10
729.101186
 20
865.061159
 30
0.0
 10
729.101186
 20
870.061149
 30
0.0
 10
739.201186
 20
870.061149
 30
0.0
 10
739.201186
 20
865.061159
 30
0.0
 10
749.101174
 20
865.061159
 30
0.0
 10
749.101174
 20
870.061149
 30
0.0
 10
771.004526
 20
870.061149
 30
0.0
 10
771.004526
 20
820.061136
 30
0.0
 10
749.101174
 20
820.061136
 30
0.0
 10
749.101174
 20
825.061155
 30
0.0
 10
739.201186
 20
825.061155
 30
0.0
 10
739.201186
 20
820.061136
 30
0.0
 10
729.101186
 20
820.061136
 30
0.0
 10
729.101186
 20
825.061155
 30
0.0
 10
719.201169
 20
825.061155
 30
0.0
 10
719.201169
 20
820.061136
 30
0.0
 10
709.309309
 20
820.061136
 30
0.0
  0
LWPOLYLINE
  5
1ee
100
AcDbEntity
  8
Calque_1
 62
7
100
AcDbPolyline
 90
2
 70
1
 10
709.309309
 20
833.649713
 30
0.0
 10
709.309309
 20
833.649713
 30
0.0
  0
SPLINE
  5
1ef
100
AcDbEntity
  8
Calque_1
 62
7
100
AcDbSpline
 70
8
 71
3
 72
8
 73
4
 74
0
 40
0
 40
0
 40
0
 40
0
 40
1
 40
1
 40
1
 40
1
 10
699.201181
 20
870.061149
 30
0.0
 10
699.201181
 20
853.394488
 30
0.0
 10
699.201181
 20
836.727798
 30
0.0
 10
699.201181
 20
820.061136
 30
0.0
  0
LWPOLYLINE
  5
1f0
100
AcDbEntity
  8
Calque_1
 62
7
100
AcDbPolyline
 90
36
 70
1
 10
699.201181
 20
820.061136
 30
0.0
 10
689.101182
 20
820.061136
 30
0.0
 10
689.101182
 20
825.061155
 30
0.0
 10
679.201193
 20
825.061155
 30
0.0
 10
679.201193
 20
820.061136
 30
0.0
 10
669.101193
 20
820.061136
 30
0.0
 10
669.101193
 20
825.061155
 30
0.0
 10
659.201176
 20
825.061155
 30
0.0
 10
659.201176
 20
820.061136
 30
0.0
 10
649.101177
 20
820.061136
 30
0.0
 10
649.101177
 20
825.061155
 30
0.0
 10
639.201188
 20
825.061155
 30
0.0
 10
639.201188
 20
820.061136
 30
0.0
 10
629.151170
 20
820.061136
 30
0.0
 10
629.151170
 20
830.111154
 30
0.0
 10
634.151188
 20
830.111154
 30
0.0
 10
634.151188
 20
840.011143
 30
0.0
 10
629.151170
 20
840.011143
 30
0.0
 10
629.151170
 20
850.111143
 30
0.0
 10
634.151188
 20
850.111143
 30
0.0
 10
634.151188
 20
860.011160
 30
0.0
 10
629.151170
 20
860.011160
 30
0.0
 10
629.151170
 20
870.061149
 30
0.0
 10
639.201188
 20
870.061149
 30
0.0
 10
639.201188
 20
865.061159
 30
0.0
 10
649.101177
 20
865.061159
 30
0.0
 10
649.101177
 20
870.061149
 30
0.0
 10
659.201176
 20
870.061149
 30
0.0
 10
659.201176
 20
865.061159
 30
0.0
 10
669.101193
 20
865.061159
 30
0.0
 10
669.101193
 20
870.061149
 30
0.0
 10
679.201193
 20
870.061149
 30
0.0
 10
679.201193
 20
865.061159
 30
0.0
 10
689.101182
 20
865.061159
 30
0.0
 10
689.101182
 20
870.061149
 30
0.0
 10
699.201181
 20
870.061149
 30
0.0
  0
LWPOLYLINE
  5
1f1
100
AcDbEntity
  8
Calque_1
 62
7
100
AcDbPolyline
 90
2
 70
1
 10
699.201181
 20
820.061136
 30
0.0
 10
699.201181
 20
820.061136
 30
0.0
  0
LWPOLYLINE
  5
1f2
100
AcDbEntity
  8
Calque_1
 62
7
100
AcDbPolyline
 90
30
 70
1
 10
1039.654089
 20
801.448242
 30
0.0
 10
1049.604087
 20
801.448242
 30
0.0
 10
1049.604087
 20
806.448260
 30
0.0
 10
1059.704087
 20
806.448260
 30
0.0
 10
1059.704087
 20
801.448242
 30
0.0
 10
1069.604104
 20
801.448242
 30
0.0
 10
1069.604104
 20
806.448260
 30
0.0
 10
1079.704103
 20
806.448260
 30
0.0
 10
1079.704103
 20
801.448242
 30
0.0
 10
1089.654102
 20
801.448242
 30
0.0
 10
1089.654102
 20
788.064926
 30
0.0
 10
1084.654083
 20
788.064926
 30
0.0
 10
1084.654083
 20
774.831582
 30
0.0
 10
1089.654102
 20
774.831582
 30
0.0
 10
1089.654102
 20
761.448266
 30
0.0
 10
1079.704103
 20
761.448266
 30
0.0
 10
1079.704103
 20
756.448248
 30
0.0
 10
1069.604104
 20
756.448248
 30
0.0
 10
1069.604104
 20
761.448266
 30
0.0
 10
1059.704087
 20
761.448266
 30
0.0
 10
1059.704087
 20
756.448248
 30
0.0
 10
1049.604087
 20
756.448248
 30
0.0
 10
1049.604087
 20
761.448266
 30
0.0
 10
1039.654089
 20
761.448266
 30
0.0
 10
1039.654089
 20
774.831582
 30
0.0
 10
1044.654079
 20
774.831582
 30
0.0
 10
1044.654079
 20
788.064926
 30
0.0
 10
1039.654089
 20
788.064926
 30
0.0
 10
1039.654089
 20
801.448242
 30
0.0
 10
1039.654089
 20
801.448242
 30
0.0
  0
SPLINE
  5
1f3
100
AcDbEntity
  8
Calque_1
 62
7
100
AcDbSpline
 70
8
 71
3
 72
8
 73
4
 74
0
 40
0
 40
0
 40
0
 40
0
 40
1
 40
1
 40
1
 40
1
 10
900.286603
 20
844.054823
 30
0.0
 10
900.286603
 20
844.054823
 30
0.0
 10
820.727848
 20
841.956275
 30
0.0
 10
812.172422
 20
829.448581
 30
0.0
  0
SPLINE
  5
1f4
100
AcDbEntity
  8
Calque_1
 62
7
100
AcDbSpline
 70
8
 71
3
 72
8
 73
4
 74
0
 40
0
 40
0
 40
0
 40
0
 40
1
 40
1
 40
1
 40
1
 10
812.172422
 20
829.448581
 30
0.0
 10
804.189739
 20
817.778241
 30
0.0
 10
789.626564
 20
808.669378
 30
0.0
 10
789.626564
 20
808.669378
 30
0.0
  0
LWPOLYLINE
  5
1f5
100
AcDbEntity
  8
Calque_1
 62
7
100
AcDbPolyline
 90
27
 70
1
 10
780.450052
 20
848.689872
 30
0.0
 10
785.400032
 20
848.689872
 30
0.0
 10
785.400032
 20
853.689862
 30
0.0
 10
795.500032
 20
853.689862
 30
0.0
 10
795.500032
 20
848.689872
 30
0.0
 10
805.400049
 20
848.689872
 30
0.0
 10
805.400049
 20
853.689862
 30
0.0
 10
815.500048
 20
853.689862
 30
0.0
 10
815.500048
 20
848.689872
 30
0.0
 10
825.400037
 20
848.689872
 30
0.0
 10
825.400037
 20
853.689862
 30
0.0
 10
835.500036
 20
853.689862
 30
0.0
 10
835.500036
 20
848.689872
 30
0.0
 10
845.400025
 20
848.689872
 30
0.0
 10
845.400025
 20
853.689862
 30
0.0
 10
855.500025
 20
853.689862
 30
0.0
 10
855.500025
 20
848.689872
 30
0.0
 10
865.400042
 20
848.689872
 30
0.0
 10
865.400042
 20
853.689862
 30
0.0
 10
875.500041
 20
853.689862
 30
0.0
 10
875.500041
 20
848.689872
 30
0.0
 10
885.400030
 20
848.689872
 30
0.0
 10
885.400030
 20
853.689862
 30
0.0
 10
895.500029
 20
853.689862
 30
0.0
 10
895.500029
 20
848.689872
 30
0.0
 10
900.286603
 20
848.689872
 30
0.0
 10
900.286603
 20
844.054823
 30
0.0
  0
LWPOLYLINE
  5
1f6
100
AcDbEntity
  8
Calque_1
 62
7
100
AcDbPolyline
 90
7
 70
1
 10
789.626564
 20
808.669378
 30
0.0
 10
780.450052
 20
808.689980
 30
0.0
 10
780.450052
 20
821.973305
 30
0.0
 10
775.450034
 20
821.973305
 30
0.0
 10
775.450034
 20
835.406631
 30
0.0
 10
780.450052
 20
835.406631
 30
0.0
 10
780.450052
 20
848.689872
 30
0.0
  0
SPLINE
  5
1f7
100
AcDbEntity
  8
Calque_1
 62
7
100
AcDbSpline
 70
8
 71
3
 72
8
 73
4
 74
0
 40
0
 40
0
 40
0
 40
0
 40
1
 40
1
 40
1
 40
1
 10
1183.079366
 20
608.342033
 30
0.0
 10
1183.079366
 20
608.342033
 30
0.0
 10
1103.520611
 20
606.243485
 30
0.0
 10
1094.965185
 20
593.735791
 30
0.0
  0
SPLINE
  5
1f8
100
AcDbEntity
  8
Calque_1
 62
7
100
AcDbSpline
 70
8
 71
3
 72
8
 73
4
 74
0
 40
0
 40
0
 40
0
 40
0
 40
1
 40
1
 40
1
 40
1
 10
1094.965185
 20
593.735791
 30
0.0
 10
1086.982501
 20
582.065451
 30
0.0
 10
1072.419327
 20
572.956587
 30
0.0
 10
1072.419327
 20
572.956587
 30
0.0
  0
LWPOLYLINE
  5
1f9
100
AcDbEntity
  8
Calque_1
 62
7
100
AcDbPolyline
 90
27
 70
1
 10
1063.242815
 20
612.977081
 30
0.0
 10
1068.192795
 20
612.977081
 30
0.0
 10
1068.192795
 20
617.977071
 30
0.0
 10
1078.292794
 20
617.977071
 30
0.0
 10
1078.292794
 20
612.977081
 30
0.0
 10
1088.192811
 20
612.977081
 30
0.0
 10
1088.192811
 20
617.977071
 30
0.0
 10
1098.292811
 20
617.977071
 30
0.0
 10
1098.292811
 20
612.977081
 30
0.0
 10
1108.192800
 20
612.977081
 30
0.0
 10
1108.192800
 20
617.977071
 30
0.0
 10
1118.292799
 20
617.977071
 30
0.0
 10
1118.292799
 20
612.977081
 30
0.0
 10
1128.192788
 20
612.977081
 30
0.0
 10
1128.192788
 20
617.977071
 30
0.0
 10
1138.292787
 20
617.977071
 30
0.0
 10
1138.292787
 20
612.977081
 30
0.0
 10
1148.192804
 20
612.977081
 30
0.0
 10
1148.192804
 20
617.977071
 30
0.0
 10
1158.292804
 20
617.977071
 30
0.0
 10
1158.292804
 20
612.977081
 30
0.0
 10
1168.192792
 20
612.977081
 30
0.0
 10
1168.192792
 20
617.977071
 30
0.0
 10
1178.292792
 20
617.977071
 30
0.0
 10
1178.292792
 20
612.977081
 30
0.0
 10
1183.079366
 20
612.977081
 30
0.0
 10
1183.079366
 20
608.342033
 30
0.0
  0
LWPOLYLINE
  5
1fa
100
AcDbEntity
  8
Calque_1
 62
7
100
AcDbPolyline
 90
7
 70
1
 10
1072.419327
 20
572.956587
 30
0.0
 10
1063.242815
 20
572.977190
 30
0.0
 10
1063.242815
 20
586.260515
 30
0.0
 10
1058.242796
 20
586.260515
 30
0.0
 10
1058.242796
 20
599.693841
 30
0.0
 10
1063.242815
 20
599.693841
 30
0.0
 10
1063.242815
 20
612.977081
 30
0.0
  0
LWPOLYLINE
  5
1fb
100
AcDbEntity
  8
Calque_1
 62
7
100
AcDbPolyline
 90
54
 70
1
 10
1072.393532
 20
747.965712
 30
0.0
 10
1083.252624
 20
747.965712
 30
0.0
 10
1083.252624
 20
752.965710
 30
0.0
 10
1094.261718
 20
752.965710
 30
0.0
 10
1094.261718
 20
747.965712
 30
0.0
 10
1105.070801
 20
747.965712
 30
0.0
 10
1105.070801
 20
752.965710
 30
0.0
 10
1116.079895
 20
752.965710
 30
0.0
 10
1116.079895
 20
747.965712
 30
0.0
 10
1126.888978
 20
747.965712
 30
0.0
 10
1126.888978
 20
752.965710
 30
0.0
 10
1137.898071
 20
752.965710
 30
0.0
 10
1137.898071
 20
747.965712
 30
0.0
 10
1148.707154
 20
747.965712
 30
0.0
 10
1148.707154
 20
752.965710
 30
0.0
 10
1159.716248
 20
752.965710
 30
0.0
 10
1159.716248
 20
747.965712
 30
0.0
 10
1170.525359
 20
747.965712
 30
0.0
 10
1170.525359
 20
752.965710
 30
0.0
 10
1181.534425
 20
752.965710
 30
0.0
 10
1181.534425
 20
747.965712
 30
0.0
 10
1192.393517
 20
747.965712
 30
0.0
 10
1192.393517
 20
734.582378
 30
0.0
 10
1187.393527
 20
734.582378
 30
0.0
 10
1187.393527
 20
721.349043
 30
0.0
 10
1192.393517
 20
721.349043
 30
0.0
 10
1192.393517
 20
707.965710
 30
0.0
 10
1181.534425
 20
707.965710
 30
0.0
 10
1181.534425
 20
702.965711
 30
0.0
 10
1170.525359
 20
702.965711
 30
0.0
 10
1170.525359
 20
707.965710
 30
0.0
 10
1159.716248
 20
707.965710
 30
0.0
 10
1159.716248
 20
702.965711
 30
0.0
 10
1148.707154
 20
702.965711
 30
0.0
 10
1148.707154
 20
707.965710
 30
0.0
 10
1137.898071
 20
707.965710
 30
0.0
 10
1137.898071
 20
702.965711
 30
0.0
 10
1126.888978
 20
702.965711
 30
0.0
 10
1126.888978
 20
707.965710
 30
0.0
 10
1116.079895
 20
707.965710
 30
0.0
 10
1116.079895
 20
702.965711
 30
0.0
 10
1105.070801
 20
702.965711
 30
0.0
 10
1105.070801
 20
707.965710
 30
0.0
 10
1094.261718
 20
707.965710
 30
0.0
 10
1094.261718
 20
702.965711
 30
0.0
 10
1083.252624
 20
702.965711
 30
0.0
 10
1083.252624
 20
707.965710
 30
0.0
 10
1072.393532
 20
707.965710
 30
0.0
 10
1072.393532
 20
721.349043
 30
0.0
 10
1077.393522
 20
721.349043
 30
0.0
 10
1077.393522
 20
734.582378
 30
0.0
 10
1072.393532
 20
734.582378
 30
0.0
 10
1072.393532
 20
747.965712
 30
0.0
 10
1072.393532
 20
747.965712
 30
0.0
  0
LWPOLYLINE
  5
1fc
100
AcDbEntity
  8
Calque_1
 62
7
100
AcDbPolyline
 90
38
 70
1
 10
1055.806146
 20
864.259918
 30
0.0
 10
1061.470431
 20
864.259918
 30
0.0
 10
1061.470431
 20
869.259908
 30
0.0
 10
1072.284707
 20
869.259908
 30
0.0
 10
1072.284707
 20
864.259918
 30
0.0
 10
1082.899000
 20
864.259918
 30
0.0
 10
1082.899000
 20
869.259908
 30
0.0
 10
1093.713276
 20
869.259908
 30
0.0
 10
1093.713276
 20
864.259918
 30
0.0
 10
1104.327569
 20
864.259918
 30
0.0
 10
1104.327569
 20
869.259908
 30
0.0
 10
1115.141844
 20
869.259908
 30
0.0
 10
1115.141844
 20
864.259918
 30
0.0
 10
1120.806129
 20
864.259918
 30
0.0
 10
1120.806129
 20
850.976566
 30
0.0
 10
1125.806119
 20
850.976566
 30
0.0
 10
1125.806119
 20
837.543240
 30
0.0
 10
1120.806129
 20
837.543240
 30
0.0
 10
1120.806129
 20
824.259914
 30
0.0
 10
1115.141844
 20
824.259914
 30
0.0
 10
1115.141844
 20
819.259924
 30
0.0
 10
1104.327569
 20
819.259924
 30
0.0
 10
1104.327569
 20
824.259914
 30
0.0
 10
1093.713276
 20
824.259914
 30
0.0
 10
1093.713276
 20
819.259924
 30
0.0
 10
1082.899000
 20
819.259924
 30
0.0
 10
1082.899000
 20
824.259914
 30
0.0
 10
1072.284707
 20
824.259914
 30
0.0
 10
1072.284707
 20
819.259924
 30
0.0
 10
1061.470431
 20
819.259924
 30
0.0
 10
1061.470431
 20
824.259914
 30
0.0
 10
1055.806146
 20
824.259914
 30
0.0
 10
1055.806146
 20
837.543240
 30
0.0
 10
1050.806128
 20
837.543240
 30
0.0
 10
1050.806128
 20
850.976566
 30
0.0
 10
1055.806146
 20
850.976566
 30
0.0
 10
1055.806146
 20
864.259918
 30
0.0
 10
1055.806146
 20
864.259918
 30
0.0
  0
LWPOLYLINE
  5
1fd
100
AcDbEntity
  8
Calque_1
 62
7
100
AcDbPolyline
 90
38
 70
1
 10
978.421406
 20
615.155366
 30
0.0
 10
984.085690
 20
615.155366
 30
0.0
 10
984.085690
 20
620.155367
 30
0.0
 10
994.899994
 20
620.155367
 30
0.0
 10
994.899994
 20
615.155366
 30
0.0
 10
1005.514259
 20
615.155366
 30
0.0
 10
1005.514259
 20
620.155367
 30
0.0
 10
1016.328563
 20
620.155367
 30
0.0
 10
1016.328563
 20
615.155366
 30
0.0
 10
1026.942856
 20
615.155366
 30
0.0
 10
1026.942856
 20
620.155367
 30
0.0
 10
1037.757132
 20
620.155367
 30
0.0
 10
1037.757132
 20
615.155366
 30
0.0
 10
1043.421417
 20
615.155366
 30
0.0
 10
1043.421417
 20
601.872032
 30
0.0
 10
1048.421407
 20
601.872032
 30
0.0
 10
1048.421407
 20
588.438706
 30
0.0
 10
1043.421417
 20
588.438706
 30
0.0
 10
1043.421417
 20
575.155352
 30
0.0
 10
1037.757132
 20
575.155352
 30
0.0
 10
1037.757132
 20
570.155362
 30
0.0
 10
1026.942856
 20
570.155362
 30
0.0
 10
1026.942856
 20
575.155352
 30
0.0
 10
1016.328563
 20
575.155352
 30
0.0
 10
1016.328563
 20
570.155362
 30
0.0
 10
1005.514259
 20
570.155362
 30
0.0
 10
1005.514259
 20
575.155352
 30
0.0
 10
994.899994
 20
575.155352
 30
0.0
 10
994.899994
 20
570.155362
 30
0.0
 10
984.085690
 20
570.155362
 30
0.0
 10
984.085690
 20
575.155352
 30
0.0
 10
978.421406
 20
575.155352
 30
0.0
 10
978.421406
 20
588.438706
 30
0.0
 10
973.421416
 20
588.438706
 30
0.0
 10
973.421416
 20
601.872032
 30
0.0
 10
978.421406
 20
601.872032
 30
0.0
 10
978.421406
 20
615.155366
 30
0.0
 10
978.421406
 20
615.155366
 30
0.0
  0
LWPOLYLINE
  5
1fe
100
AcDbEntity
  8
Calque_1
 62
7
100
AcDbPolyline
 90
49
 70
1
 10
908.872650
 20
860.585700
 30
0.0
 10
919.831734
 20
860.585700
 30
0.0
 10
919.831734
 20
855.585682
 30
0.0
 10
930.640845
 20
855.585682
 30
0.0
 10
930.640845
 20
860.585700
 30
0.0
 10
941.649938
 20
860.585700
 30
0.0
 10
941.649938
 20
855.585682
 30
0.0
 10
952.459021
 20
855.585682
 30
0.0
 10
952.459021
 20
860.585700
 30
0.0
 10
963.468115
 20
860.585700
 30
0.0
 10
963.468115
 20
855.585682
 30
0.0
 10
974.277198
 20
855.585682
 30
0.0
 10
974.277198
 20
860.585700
 30
0.0
 10
985.286292
 20
860.585700
 30
0.0
 10
985.286292
 20
855.585682
 30
0.0
 10
996.095375
 20
855.585682
 30
0.0
 10
996.095375
 20
860.585700
 30
0.0
 10
1007.104468
 20
860.585700
 30
0.0
 10
1007.104468
 20
855.585682
 30
0.0
 10
1017.913551
 20
855.585682
 30
0.0
 10
1017.913551
 20
860.585700
 30
0.0
 10
1028.872664
 20
860.585700
 30
0.0
 10
1028.872664
 20
849.821405
 30
0.0
 10
1023.872645
 20
849.821405
 30
0.0
 10
1023.872645
 20
839.207112
 30
0.0
 10
1028.872664
 20
839.207112
 30
0.0
 10
1028.872664
 20
828.392836
 30
0.0
 10
1023.872645
 20
828.392836
 30
0.0
 10
1023.872645
 20
817.778543
 30
0.0
 10
1028.872664
 20
817.778543
 30
0.0
 10
1028.872664
 20
806.964267
 30
0.0
 10
1023.872645
 20
806.964267
 30
0.0
 10
1023.872645
 20
796.349974
 30
0.0
 10
1028.872664
 20
796.349974
 30
0.0
 10
1028.872664
 20
791.230124
 30
0.0
 10
908.872650
 20
791.230124
 30
0.0
 10
908.872650
 20
796.349974
 30
0.0
 10
913.872640
 20
796.349974
 30
0.0
 10
913.872640
 20
806.964267
 30
0.0
 10
908.872650
 20
806.964267
 30
0.0
 10
908.872650
 20
817.778543
 30
0.0
 10
913.872640
 20
817.778543
 30
0.0
 10
913.872640
 20
828.392836
 30
0.0
 10
908.872650
 20
828.392836
 30
0.0
 10
908.872650
 20
839.207112
 30
0.0
 10
913.872640
 20
839.207112
 30
0.0
 10
913.872640
 20
849.821405
 30
0.0
 10
908.872650
 20
849.821405
 30
0.0
 10
908.872650
 20
860.585700
 30
0.0
  0
ENDSEC
  0
SECTION
  2
OBJECTS
  0
DICTIONARY
  5
C
330
0
100
AcDbDictionary
  3
ACAD_GROUP
350
D
  3
ACAD_MLINESTYLE
350
17
  0
DICTIONARY
  5
D
330
C
100
AcDbDictionary
  0
DICTIONARY
  5
1A
330
C
100
AcDbDictionary
  0
DICTIONARY
  5
17
330
C
100
AcDbDictionary
  3
STANDARD
350
18
  0
DICTIONARY
  5
19
330
C
100
AcDbDictionary
  0
ENDSEC
  0
EOF
