<svg id="Calque_1" data-name="Calque 1" xmlns="http://www.w3.org/2000/svg" xmlns:xlink="http://www.w3.org/1999/xlink" viewBox="0 0 178.59 178.59"><defs><style>.cls-1{fill:none;}.cls-2{clip-path:url(#clip-path);}.cls-3{fill:#6c6c6c;}.cls-4{fill:#5a5a5a;}.cls-5{fill:#474747;}.cls-6{fill:#343434;}.cls-7{fill:#202020;}.cls-8{fill:#0d0d0d;}.cls-9{fill:#494949;}.cls-10{fill:#373737;}.cls-11{fill:#252525;}.cls-12{fill:#121212;}.cls-13{fill:#444;}.cls-14{fill:#292929;}.cls-15{fill:#2e2e2e;}.cls-16{fill:#171717;}.cls-17{fill:#5b5b5b;}.cls-18{fill:#131313;}.cls-19{fill:#fff;}</style><clipPath id="clip-path" transform="translate(0 0)"><rect class="cls-1" width="178.59" height="178.59"/></clipPath></defs><title>frenchtech</title><rect class="cls-1" width="178.59" height="178.59"/><g class="cls-2"><polygon class="cls-1" points="109.15 109.33 109.15 109.33 109.15 109.33 109.15 109.33"/><polygon class="cls-3" points="85.1 91.77 82.74 94.48 86.42 93.43 85.1 91.77"/><polygon class="cls-4" points="85.31 91.53 85.1 91.77 86.42 93.43 86.75 93.34 85.31 91.53"/><polygon class="cls-5" points="85.52 91.29 85.31 91.53 86.75 93.34 87.08 93.24 85.52 91.29"/><polygon class="cls-6" points="85.73 91.05 85.52 91.29 87.08 93.24 87.41 93.15 85.73 91.05"/><polygon class="cls-7" points="85.94 90.81 85.73 91.05 87.41 93.15 87.73 93.06 85.94 90.81"/><polygon class="cls-8" points="85.94 90.81 87.73 93.06 89.5 92.55 86.39 90.28 85.94 90.81"/><polygon class="cls-3" points="86.39 90.28 89.5 92.55 95.2 96.72 97.26 92.03 86.39 90.28"/><polygon class="cls-4" points="97.26 92.03 95.2 96.72 95.68 97.07 97.85 92.13 97.26 92.03"/><polygon class="cls-9" points="97.85 92.13 95.68 97.07 96.15 97.41 98.43 92.22 97.85 92.13"/><polygon class="cls-10" points="98.43 92.22 96.15 97.41 96.63 97.76 99.02 92.32 98.43 92.22"/><polygon class="cls-11" points="99.02 92.32 96.63 97.76 97.1 98.11 99.61 92.41 99.02 92.32"/><polygon class="cls-12" points="99.61 92.41 97.1 98.11 97.58 98.46 100.19 92.51 99.61 92.41"/><path d="M102.67,94l6.48,15.34h0l-.71-2.91-2-8.37-3.32-13.58h0l-.46-1.78-.39-1.53-.39-1.53-.39-1.52-.39-1.53-.39-1.53,7.49-1.31.23,1.55.23,1.55.23,1.55.23,1.55.23,1.55.44,3h.67l-.68-19L91.69,54.81l-1.37,2.33,1.32.62,2.28,1.07,2.29,1.07L98.48,61,100.77,62l2.28,1.07-9.61,9.85.52.43,2.33,5.52.65,1.54.9,2.14,4.34,10.27-2-.32-2.62,5.95,3.32,2.43Zm-2-18.93-.9-3.5L107.16,67l1,6.77Z" transform="translate(0 0)"/><polygon class="cls-3" points="113.9 92.45 110.69 92.83 111.46 84.51 110.44 84.5 109.76 84.5 109.23 84.5 110.46 95.29 109.97 100.59 109.47 105.88 109.15 109.33 113.9 106.42 113.9 92.45"/><polygon class="cls-4" points="114.93 92.33 113.9 92.45 113.9 106.42 114.93 105.78 114.93 92.33"/><polygon class="cls-5" points="115.97 92.2 114.93 92.33 114.93 105.78 115.97 105.15 115.97 92.2"/><polygon class="cls-6" points="117 92.08 115.97 92.2 115.97 105.15 117 104.52 117 92.08"/><polygon class="cls-7" points="118.03 91.96 117 92.08 117 104.52 118.03 103.89 118.03 91.96"/><polygon class="cls-8" points="118.81 103.4 120.45 91.67 118.03 91.96 118.03 103.89 118.81 103.4 118.81 103.4 118.81 103.4 118.81 103.4 118.81 103.4"/><polygon class="cls-3" points="120.45 91.67 118.81 103.4 118.81 103.4 129.62 90.06 129.51 86.68 121.24 86.01 120.45 91.67"/><polygon class="cls-4" points="121.24 86.01 129.51 86.68 129.43 83.93 121.62 83.3 121.24 86.01"/><polygon class="cls-5" points="121.62 83.3 129.43 83.93 129.34 81.18 122 80.59 121.62 83.3"/><polygon class="cls-6" points="122 80.59 129.34 81.18 129.26 78.44 122.38 77.88 122 80.59"/><polygon class="cls-7" points="122.38 77.88 129.26 78.44 129.17 75.69 122.76 75.16 122.38 77.88"/><polygon class="cls-8" points="128.92 67.64 128.91 67.64 127.06 67.28 123.94 66.67 123.94 66.67 122.76 75.16 129.17 75.69 128.97 69.32 128.97 69.33 128.92 67.64"/><polygon class="cls-13" points="96.94 80.42 70.19 53.67 53.82 40.1 53.75 40.04 97.84 82.56 96.94 80.42"/><polygon class="cls-14" points="75.35 57.95 70.19 53.67 96.94 80.42 96.29 78.89 75.35 57.95"/><polygon class="cls-8" points="89.76 69.89 87.92 68.37 86.08 66.84 84.25 65.32 75.35 57.95 96.29 78.89 93.96 73.37 93.44 72.94 91.6 71.42 89.76 69.89"/><polygon class="cls-13" points="81.97 49.04 61.93 37.14 72.19 48.66 80.03 52.33 81.97 49.04"/><polygon class="cls-13" points="85.21 50.97 81.98 49.04 80.03 52.33 83.46 53.93 85.21 50.97"/><polygon class="cls-15" points="86.89 55.53 88.45 52.89 85.21 50.97 83.46 53.93 86.89 55.53"/><polygon class="cls-16" points="90.31 57.13 91.69 54.81 88.45 52.89 86.89 55.53 90.31 57.13"/><polygon class="cls-3" points="102.03 134.69 101.91 137.36 107.3 137.36 102.03 134.69"/><polygon class="cls-3" points="101.37 137.36 101.91 137.36 102.03 134.69 101.5 134.42 101.37 137.36"/><polygon class="cls-4" points="100.83 137.36 101.37 137.36 101.5 134.42 100.97 134.15 100.83 137.36"/><polygon class="cls-5" points="100.29 137.36 100.83 137.36 100.97 134.15 100.44 133.88 100.29 137.36"/><polygon class="cls-6" points="99.74 137.36 100.29 137.36 100.44 133.88 99.92 133.61 99.74 137.36"/><polygon class="cls-7" points="99.2 137.36 99.74 137.36 99.92 133.61 99.39 133.34 99.2 137.36"/><polygon class="cls-8" points="98.94 137.27 97.59 137.36 99.2 137.36 99.39 133.34 99.12 133.21 98.94 137.27"/><polygon class="cls-3" points="96.85 137.41 97.59 137.36 98.94 137.27 99.12 133.21 99.33 128.41 95.72 128.94 96.85 137.41"/><polygon class="cls-4" points="95.72 128.94 99.33 128.41 99.37 127.37 95.58 127.93 95.72 128.94"/><polygon class="cls-5" points="95.45 126.92 95.58 127.93 99.37 127.37 99.42 126.34 95.45 126.92"/><polygon class="cls-6" points="95.31 125.91 95.45 126.92 99.42 126.34 99.46 125.3 95.31 125.91"/><polygon class="cls-7" points="95.18 124.9 95.31 125.91 99.46 125.3 99.51 124.27 95.18 124.9"/><polygon class="cls-8" points="95.03 123.79 95.18 124.9 99.51 124.27 99.67 120.49 99.67 120.48 99.67 120.47 95.03 123.79"/><polygon class="cls-3" points="98.7 109.46 95.03 123.79 99.67 120.47 99.67 120.47 105.57 113.55 98.7 109.46"/><polygon class="cls-4" points="99.05 108.1 98.7 109.46 105.57 113.55 106.45 112.51 99.05 108.1"/><polygon class="cls-5" points="99.4 106.74 99.05 108.1 106.45 112.51 107.33 111.47 99.4 106.74"/><polygon class="cls-6" points="99.75 105.39 99.4 106.74 107.33 111.47 108.22 110.43 99.75 105.39"/><polygon class="cls-7" points="100.09 104.03 99.75 105.39 108.22 110.43 109.1 109.39 100.09 104.03"/><polygon class="cls-8" points="109.15 109.33 102.67 93.99 100.9 100.89 100.09 104.03 109.1 109.39 109.15 109.33 109.15 109.33 109.15 109.33"/><polygon class="cls-3" points="70.19 53.67 75.35 57.95 84.25 65.32 91.63 57.75 90.31 57.13 86.89 55.53 83.46 53.93 80.03 52.33 80.03 52.33 72.19 48.66 53.75 40.04 53.82 40.1 70.19 53.67"/><polygon class="cls-17" points="84.25 65.32 86.08 66.84 93.91 58.82 91.63 57.75 84.25 65.32"/><polygon class="cls-9" points="86.08 66.84 87.92 68.37 96.2 59.89 93.91 58.82 86.08 66.84"/><polygon class="cls-10" points="87.92 68.37 89.76 69.89 98.48 60.95 96.2 59.89 87.92 68.37"/><polygon class="cls-11" points="89.76 69.89 91.6 71.42 100.77 62.02 98.48 60.95 89.76 69.89"/><polygon class="cls-18" points="91.6 71.42 93.44 72.94 103.05 63.09 100.77 62.02 91.6 71.42"/><polygon class="cls-3" points="99.78 71.56 100.67 75.06 108.17 73.75 107.16 66.98 99.78 71.56"/><polygon class="cls-3" points="108.4 75.31 108.17 73.76 100.67 75.06 101.06 76.59 108.4 75.31"/><polygon class="cls-4" points="108.63 76.86 108.4 75.31 101.06 76.59 101.46 78.11 108.63 76.86"/><polygon class="cls-5" points="108.86 78.42 108.63 76.86 101.46 78.11 101.85 79.64 108.86 78.42"/><polygon class="cls-6" points="109.09 79.97 108.86 78.42 101.85 79.64 102.24 81.17 109.09 79.97"/><polygon class="cls-7" points="109.32 81.52 109.09 79.97 102.24 81.17 102.63 82.69 109.32 81.52"/><polygon class="cls-8" points="109.32 81.52 102.63 82.69 103.08 84.47 103.08 84.47 103.08 84.47 106.39 98.05 104.85 84.48 105.95 84.48 107.04 84.49 108.14 84.49 109.23 84.5 109.76 84.5 109.32 81.52"/><polygon class="cls-4" points="108.14 84.49 109.97 100.59 110.46 95.29 109.23 84.5 108.14 84.49"/><polygon class="cls-5" points="108.14 84.49 107.04 84.49 109.47 105.88 109.97 100.59 108.14 84.49"/><polygon class="cls-6" points="109.47 105.88 107.04 84.49 105.95 84.48 108.44 106.42 109.15 109.33 109.15 109.33 109.47 105.88"/><polygon class="cls-7" points="106.39 98.05 108.44 106.42 105.95 84.48 104.85 84.48 106.39 98.05"/><polygon class="cls-8" points="128.92 67.64 128.97 69.33 128.97 69.32 142.17 58.66 142.61 57.75 128.92 67.64"/><polygon class="cls-3" points="127.06 67.28 127.06 62.8 126.73 62.91 123.94 66.67 123.94 66.67 127.06 67.28"/><path class="cls-4" d="M127.06,67.28l1.85.36h0l1.25-.9V61.79l-3.11,1Zm1.1-3.94a.76.76,0,1,1-.76.76A.76.76,0,0,1,128.16,63.33Z" transform="translate(0 0)"/><polygon class="cls-5" points="130.17 66.73 133.28 64.48 133.28 60.78 130.17 61.8 130.17 66.73"/><polygon class="cls-6" points="133.28 64.48 136.39 62.24 136.39 59.77 133.28 60.78 133.28 64.48"/><polygon class="cls-7" points="139.5 59.99 139.5 58.76 136.39 59.77 136.39 62.24 139.5 59.99"/><polygon class="cls-8" points="142.6 57.76 142.6 57.76 139.5 58.76 139.5 59.99 142.6 57.76"/><circle class="cls-19" cx="128.16" cy="64.09" r="0.76"/></g></svg>