  0
SECTION
  2
HEADER
  9
$ACADVER
  1
AC1014
  9
$HANDSEED
  5
FFFF
  9
$MEASUREMENT
 70
     1
  0
ENDSEC
  0
SECTION
  2
TABLES
  0
TABLE
  2
VPORT
  5
8
330
0
100
AcDbSymbolTable
 70
     4
  0
VPORT
  5
2E
330
8
100
AcDbSymbolTableRecord
100
AcDbViewportTableRecord
  2
*ACTIVE
 70
     0
 10
0.0
 20
0.0
 11
1.0
 21
1.0
 12
210.0
 22
148.5
 13
0.0
 23
0.0
 14
10.0
 24
10.0
 15
10.0
 25
10.0
 16
0.0
 26
0.0
 36
1.0
 17
0.0
 27
0.0
 37
0.0
 40
341.0
 41
1.24
 42
50.0
 43
0.0
 44
0.0
 50
0.0
 51
0.0
 71
     0
 72
   100
 73
     1
 74
     3
 75
     0
 76
     0
 77
     0
 78
     0
  0
ENDTAB
  0
TABLE
  2
LTYPE
  5
5
330
0
100
AcDbSymbolTable
 70
     1
  0
LTYPE
  5
14
330
5
100
AcDbSymbolTableRecord
100
AcDbLinetypeTableRecord
  2
BYBLOCK
 70
     0
  3

 72
    65
 73
     0
 40
0.0
  0
LTYPE
  5
15
330
5
100
AcDbSymbolTableRecord
100
AcDbLinetypeTableRecord
  2
BYLAYER
 70
     0
  3

 72
    65
 73
     0
 40
0.0
  0
LTYPE
  5
16
330
5
100
AcDbSymbolTableRecord
100
AcDbLinetypeTableRecord
  2
CONTINUOUS
 70
     0
  3
Solid line
 72
    65
 73
     0
 40
0.0
  0
ENDTAB
  0
TABLE
  2
LAYER
  5
2
100
AcDbSymbolTable
 70
1
  0
LAYER
  5
50
100
AcDbSymbolTableRecord
100
AcDbLayerTableRecord
  2
0
 70
0
  6
CONTINUOUS
  0
ENDTAB
  0
TABLE
  2
STYLE
  5
3
330
0
100
AcDbSymbolTable
 70
     1
  0
STYLE
  5
11
330
3
100
AcDbSymbolTableRecord
100
AcDbTextStyleTableRecord
  2
STANDARD
 70
     0
 40
0.0
 41
1.0
 50
0.0
 71
     0
 42
2.5
  3
txt
  4

  0
ENDTAB
  0
TABLE
  2
VIEW
  5
6
330
0
100
AcDbSymbolTable
 70
     0
  0
ENDTAB
  0
TABLE
  2
UCS
  5
7
330
0
100
AcDbSymbolTable
 70
     0
  0
ENDTAB
  0
TABLE
  2
APPID
  5
9
330
0
100
AcDbSymbolTable
 70
     2
  0
APPID
  5
12
330
9
100
AcDbSymbolTableRecord
100
AcDbRegAppTableRecord
  2
ACAD
 70
     0
  0
ENDTAB
  0
TABLE
  2
DIMSTYLE
  5
A
330
0
100
AcDbSymbolTable
 70
     1
  0
DIMSTYLE
105
27
330
A
100
AcDbSymbolTableRecord
100
AcDbDimStyleTableRecord
  2
ISO-25
 70
     0
  3

  4

  5

  6

  7

 40
1.0
 41
2.5
 42
0.625
 43
3.75
 44
1.25
 45
0.0
 46
0.0
 47
0.0
 48
0.0
140
2.5
141
2.5
142
0.0
143
0.03937007874016
144
1.0
145
0.0
146
1.0
147
0.625
 71
     0
 72
     0
 73
     0
 74
     0
 75
     0
 76
     0
 77
     1
 78
     8
170
     0
171
     3
172
     1
173
     0
174
     0
175
     0
176
     0
177
     0
178
     0
270
     2
271
     2
272
     2
273
     2
274
     3
340
11
275
     0
280
     0
281
     0
282
     0
283
     0
284
     8
285
     0
286
     0
287
     3
288
     0
  0
ENDTAB
  0
TABLE
  2
BLOCK_RECORD
  5
1
330
0
100
AcDbSymbolTable
 70
     1
  0
BLOCK_RECORD
  5
1F
330
1
100
AcDbSymbolTableRecord
100
AcDbBlockTableRecord
  2
*MODEL_SPACE
  0
BLOCK_RECORD
  5
1B
330
1
100
AcDbSymbolTableRecord
100
AcDbBlockTableRecord
  2
*PAPER_SPACE
  0
ENDTAB
  0
ENDSEC
  0
SECTION
  2
BLOCKS
  0
BLOCK
  5
20
330
1F
100
AcDbEntity
  8
0
100
AcDbBlockBegin
  2
*MODEL_SPACE
 70
     0
 10
0.0
 20
0.0
 30
0.0
  3
*MODEL_SPACE
  1

  0
ENDBLK
  5
21
330
1F
100
AcDbEntity
  8
0
100
AcDbBlockEnd
  0
BLOCK
  5
1C
330
1B
100
AcDbEntity
 67
     1
  8
0
100
AcDbBlockBegin
  2
*PAPER_SPACE
  1

  0
ENDBLK
  5
1D
330
1B
100
AcDbEntity
 67
     1
  8
0
100
AcDbBlockEnd
  0
ENDSEC
  0
SECTION
  2
ENTITIES
  0
LINE
  5
100
100
AcDbEntity
  8
0
 62
7
100
AcDbLine
 10
307.534877
 20
77.017339
 30
0.0
 11
194.275647
 21
93.222999
 31
0.0
  0
LINE
  5
101
100
AcDbEntity
  8
0
 62
7
100
AcDbLine
 10
194.275647
 20
93.222999
 30
0.0
 11
153.843235
 21
0.131329
 31
0.0
  0
LINE
  5
102
100
AcDbEntity
  8
0
 62
7
100
AcDbLine
 10
153.843235
 20
0.131329
 30
0.0
 11
113.410805
 21
93.223002
 31
0.0
  0
LINE
  5
103
100
AcDbEntity
  8
0
 62
7
100
AcDbLine
 10
113.410805
 20
93.223002
 30
0.0
 11
0.151575
 21
77.017340
 31
0.0
  0
LINE
  5
104
100
AcDbEntity
  8
0
 62
7
100
AcDbLine
 10
0.151575
 20
77.017340
 30
0.0
 11
72.978392
 21
153.903354
 31
0.0
  0
LINE
  5
105
100
AcDbEntity
  8
0
 62
7
100
AcDbLine
 10
72.978392
 20
153.903354
 30
0.0
 11
0.151575
 21
230.789361
 31
0.0
  0
LINE
  5
106
100
AcDbEntity
  8
0
 62
7
100
AcDbLine
 10
0.151575
 20
230.789361
 30
0.0
 11
113.410805
 21
214.583701
 31
0.0
  0
LINE
  5
107
100
AcDbEntity
  8
0
 62
7
100
AcDbLine
 10
113.410805
 20
214.583701
 30
0.0
 11
153.843235
 21
307.675371
 31
0.0
  0
LINE
  5
108
100
AcDbEntity
  8
0
 62
7
100
AcDbLine
 10
153.843235
 20
307.675371
 30
0.0
 11
194.275647
 21
214.583698
 31
0.0
  0
LINE
  5
109
100
AcDbEntity
  8
0
 62
7
100
AcDbLine
 10
194.275647
 20
214.583698
 30
0.0
 11
307.534877
 21
230.789361
 31
0.0
  0
LINE
  5
10a
100
AcDbEntity
  8
0
 62
7
100
AcDbLine
 10
307.534877
 20
230.789361
 30
0.0
 11
234.708077
 21
153.903346
 31
0.0
  0
LINE
  5
10b
100
AcDbEntity
  8
0
 62
7
100
AcDbLine
 10
234.708077
 20
153.903346
 30
0.0
 11
307.534877
 21
77.017339
 31
0.0
  0
LINE
  5
10c
100
AcDbEntity
  8
0
 62
7
100
AcDbLine
 10
273.344520
 20
94.121453
 30
0.0
 11
185.281021
 21
106.721992
 31
0.0
  0
LINE
  5
10d
100
AcDbEntity
  8
0
 62
7
100
AcDbLine
 10
185.281021
 20
106.721992
 30
0.0
 11
153.843232
 21
34.339555
 31
0.0
  0
LINE
  5
10e
100
AcDbEntity
  8
0
 62
7
100
AcDbLine
 10
153.843232
 20
34.339555
 30
0.0
 11
122.405430
 21
106.721994
 31
0.0
  0
LINE
  5
10f
100
AcDbEntity
  8
0
 62
7
100
AcDbLine
 10
122.405430
 20
106.721994
 30
0.0
 11
34.341931
 21
94.121454
 31
0.0
  0
LINE
  5
110
100
AcDbEntity
  8
0
 62
7
100
AcDbLine
 10
34.341931
 20
94.121454
 30
0.0
 11
90.967642
 21
153.903355
 31
0.0
  0
LINE
  5
111
100
AcDbEntity
  8
0
 62
7
100
AcDbLine
 10
90.967642
 20
153.903355
 30
0.0
 11
34.341931
 21
213.685251
 31
0.0
  0
LINE
  5
112
100
AcDbEntity
  8
0
 62
7
100
AcDbLine
 10
34.341931
 20
213.685251
 30
0.0
 11
122.405430
 21
201.084713
 31
0.0
  0
LINE
  5
113
100
AcDbEntity
  8
0
 62
7
100
AcDbLine
 10
122.405430
 20
201.084713
 30
0.0
 11
153.843232
 21
273.467149
 31
0.0
  0
LINE
  5
114
100
AcDbEntity
  8
0
 62
7
100
AcDbLine
 10
153.843232
 20
273.467149
 30
0.0
 11
185.281021
 21
201.084710
 31
0.0
  0
LINE
  5
115
100
AcDbEntity
  8
0
 62
7
100
AcDbLine
 10
185.281021
 20
201.084710
 30
0.0
 11
273.344520
 21
213.685251
 31
0.0
  0
LINE
  5
116
100
AcDbEntity
  8
0
 62
7
100
AcDbLine
 10
273.344520
 20
213.685251
 30
0.0
 11
216.718823
 21
153.903349
 31
0.0
  0
LINE
  5
117
100
AcDbEntity
  8
0
 62
7
100
AcDbLine
 10
216.718823
 20
153.903349
 30
0.0
 11
273.344520
 21
94.121453
 31
0.0
  0
LINE
  5
118
100
AcDbEntity
  8
0
 62
7
100
AcDbLine
 10
241.620996
 20
109.991514
 30
0.0
 11
176.935365
 21
119.247039
 31
0.0
  0
LINE
  5
119
100
AcDbEntity
  8
0
 62
7
100
AcDbLine
 10
176.935365
 20
119.247039
 30
0.0
 11
153.843242
 21
66.079673
 31
0.0
  0
LINE
  5
11a
100
AcDbEntity
  8
0
 62
7
100
AcDbLine
 10
153.843242
 20
66.079673
 30
0.0
 11
130.751109
 21
119.247041
 31
0.0
  0
LINE
  5
11b
100
AcDbEntity
  8
0
 62
7
100
AcDbLine
 10
130.751109
 20
119.247041
 30
0.0
 11
66.065478
 21
109.991515
 31
0.0
  0
LINE
  5
11c
100
AcDbEntity
  8
0
 62
7
100
AcDbLine
 10
66.065478
 20
109.991515
 30
0.0
 11
107.658985
 21
153.903358
 31
0.0
  0
LINE
  5
11d
100
AcDbEntity
  8
0
 62
7
100
AcDbLine
 10
107.658985
 20
153.903358
 30
0.0
 11
66.065478
 21
197.815197
 31
0.0
  0
LINE
  5
11e
100
AcDbEntity
  8
0
 62
7
100
AcDbLine
 10
66.065478
 20
197.815197
 30
0.0
 11
130.751109
 21
188.559672
 31
0.0
  0
LINE
  5
11f
100
AcDbEntity
  8
0
 62
7
100
AcDbLine
 10
130.751109
 20
188.559672
 30
0.0
 11
153.843242
 21
241.727038
 31
0.0
  0
LINE
  5
120
100
AcDbEntity
  8
0
 62
7
100
AcDbLine
 10
153.843242
 20
241.727038
 30
0.0
 11
176.935365
 21
188.559670
 31
0.0
  0
LINE
  5
121
100
AcDbEntity
  8
0
 62
7
100
AcDbLine
 10
176.935365
 20
188.559670
 30
0.0
 11
241.620996
 21
197.815197
 31
0.0
  0
LINE
  5
122
100
AcDbEntity
  8
0
 62
7
100
AcDbLine
 10
241.620996
 20
197.815197
 30
0.0
 11
200.027499
 21
153.903353
 31
0.0
  0
LINE
  5
123
100
AcDbEntity
  8
0
 62
7
100
AcDbLine
 10
200.027499
 20
153.903353
 30
0.0
 11
241.620996
 21
109.991514
 31
0.0
  0
LINE
  5
124
100
AcDbEntity
  8
0
 62
7
100
AcDbLine
 10
208.486560
 20
126.567402
 30
0.0
 11
168.218532
 21
132.329143
 31
0.0
  0
LINE
  5
125
100
AcDbEntity
  8
0
 62
7
100
AcDbLine
 10
168.218532
 20
132.329143
 30
0.0
 11
153.843249
 21
99.231444
 31
0.0
  0
LINE
  5
126
100
AcDbEntity
  8
0
 62
7
100
AcDbLine
 10
153.843249
 20
99.231444
 30
0.0
 11
139.467959
 21
132.329144
 31
0.0
  0
LINE
  5
127
100
AcDbEntity
  8
0
 62
7
100
AcDbLine
 10
139.467959
 20
132.329144
 30
0.0
 11
99.199931
 21
126.567403
 31
0.0
  0
LINE
  5
128
100
AcDbEntity
  8
0
 62
7
100
AcDbLine
 10
99.199931
 20
126.567403
 30
0.0
 11
125.092676
 21
153.903362
 31
0.0
  0
LINE
  5
129
100
AcDbEntity
  8
0
 62
7
100
AcDbLine
 10
125.092676
 20
153.903362
 30
0.0
 11
99.199931
 21
181.239319
 31
0.0
  0
LINE
  5
12a
100
AcDbEntity
  8
0
 62
7
100
AcDbLine
 10
99.199931
 20
181.239319
 30
0.0
 11
139.467959
 21
175.477579
 31
0.0
  0
LINE
  5
12b
100
AcDbEntity
  8
0
 62
7
100
AcDbLine
 10
139.467959
 20
175.477579
 30
0.0
 11
153.843249
 21
208.575277
 31
0.0
  0
LINE
  5
12c
100
AcDbEntity
  8
0
 62
7
100
AcDbLine
 10
153.843249
 20
208.575277
 30
0.0
 11
168.218532
 21
175.477577
 31
0.0
  0
LINE
  5
12d
100
AcDbEntity
  8
0
 62
7
100
AcDbLine
 10
168.218532
 20
175.477577
 30
0.0
 11
208.486560
 21
181.239319
 31
0.0
  0
LINE
  5
12e
100
AcDbEntity
  8
0
 62
7
100
AcDbLine
 10
208.486560
 20
181.239319
 30
0.0
 11
182.593822
 21
153.903359
 31
0.0
  0
LINE
  5
12f
100
AcDbEntity
  8
0
 62
7
100
AcDbLine
 10
182.593822
 20
153.903359
 30
0.0
 11
208.486560
 21
126.567402
 31
0.0
  0
LINE
  5
130
100
AcDbEntity
  8
0
 62
7
100
AcDbLine
 10
179.580099
 20
141.028197
 30
0.0
 11
160.613961
 21
143.741963
 31
0.0
  0
LINE
  5
131
100
AcDbEntity
  8
0
 62
7
100
AcDbLine
 10
160.613961
 20
143.741963
 30
0.0
 11
153.843239
 21
128.153025
 31
0.0
  0
LINE
  5
132
100
AcDbEntity
  8
0
 62
7
100
AcDbLine
 10
153.843239
 20
128.153025
 30
0.0
 11
147.072514
 21
143.741964
 31
0.0
  0
LINE
  5
133
100
AcDbEntity
  8
0
 62
7
100
AcDbLine
 10
147.072514
 20
143.741964
 30
0.0
 11
128.106376
 21
141.028197
 31
0.0
  0
LINE
  5
134
100
AcDbEntity
  8
0
 62
7
100
AcDbLine
 10
128.106376
 20
141.028197
 30
0.0
 11
140.301793
 21
153.903370
 31
0.0
  0
LINE
  5
135
100
AcDbEntity
  8
0
 62
7
100
AcDbLine
 10
140.301793
 20
153.903370
 30
0.0
 11
128.106376
 21
166.778541
 31
0.0
  0
LINE
  5
136
100
AcDbEntity
  8
0
 62
7
100
AcDbLine
 10
128.106376
 20
166.778541
 30
0.0
 11
147.072514
 21
164.064775
 31
0.0
  0
LINE
  5
137
100
AcDbEntity
  8
0
 62
7
100
AcDbLine
 10
147.072514
 20
164.064775
 30
0.0
 11
153.843239
 21
179.653713
 31
0.0
  0
LINE
  5
138
100
AcDbEntity
  8
0
 62
7
100
AcDbLine
 10
153.843239
 20
179.653713
 30
0.0
 11
160.613961
 21
164.064774
 31
0.0
  0
LINE
  5
139
100
AcDbEntity
  8
0
 62
7
100
AcDbLine
 10
160.613961
 20
164.064774
 30
0.0
 11
179.580099
 21
166.778541
 31
0.0
  0
LINE
  5
13a
100
AcDbEntity
  8
0
 62
7
100
AcDbLine
 10
179.580099
 20
166.778541
 30
0.0
 11
167.384685
 21
153.903368
 31
0.0
  0
LINE
  5
13b
100
AcDbEntity
  8
0
 62
7
100
AcDbLine
 10
167.384685
 20
153.903368
 30
0.0
 11
179.580099
 21
141.028197
 31
0.0
  0
LINE
  5
13c
100
AcDbEntity
  8
0
 62
7
100
AcDbLine
 10
291.195656
 20
85.191226
 30
0.0
 11
189.977217
 21
99.674034
 31
0.0
  0
LINE
  5
13d
100
AcDbEntity
  8
0
 62
7
100
AcDbLine
 10
189.977217
 20
99.674034
 30
0.0
 11
153.843247
 21
16.479101
 31
0.0
  0
LINE
  5
13e
100
AcDbEntity
  8
0
 62
7
100
AcDbLine
 10
153.843247
 20
16.479101
 30
0.0
 11
117.709260
 21
99.674037
 31
0.0
  0
LINE
  5
13f
100
AcDbEntity
  8
0
 62
7
100
AcDbLine
 10
117.709260
 20
99.674037
 30
0.0
 11
16.490821
 21
85.191227
 31
0.0
  0
LINE
  5
140
100
AcDbEntity
  8
0
 62
7
100
AcDbLine
 10
16.490821
 20
85.191227
 30
0.0
 11
81.575290
 21
153.903354
 31
0.0
  0
LINE
  5
141
100
AcDbEntity
  8
0
 62
7
100
AcDbLine
 10
81.575290
 20
153.903354
 30
0.0
 11
16.490821
 21
222.615476
 31
0.0
  0
LINE
  5
142
100
AcDbEntity
  8
0
 62
7
100
AcDbLine
 10
16.490821
 20
222.615476
 30
0.0
 11
117.709260
 21
208.132668
 31
0.0
  0
LINE
  5
143
100
AcDbEntity
  8
0
 62
7
100
AcDbLine
 10
117.709260
 20
208.132668
 30
0.0
 11
153.843247
 21
291.327600
 31
0.0
  0
LINE
  5
144
100
AcDbEntity
  8
0
 62
7
100
AcDbLine
 10
153.843247
 20
291.327600
 30
0.0
 11
189.977217
 21
208.132665
 31
0.0
  0
LINE
  5
145
100
AcDbEntity
  8
0
 62
7
100
AcDbLine
 10
189.977217
 20
208.132665
 30
0.0
 11
291.195656
 21
222.615476
 31
0.0
  0
LINE
  5
146
100
AcDbEntity
  8
0
 62
7
100
AcDbLine
 10
291.195656
 20
222.615476
 30
0.0
 11
226.111203
 21
153.903347
 31
0.0
  0
LINE
  5
147
100
AcDbEntity
  8
0
 62
7
100
AcDbLine
 10
226.111203
 20
153.903347
 30
0.0
 11
291.195656
 21
85.191226
 31
0.0
  0
LINE
  5
148
100
AcDbEntity
  8
0
 62
7
100
AcDbLine
 10
258.888379
 20
101.353298
 30
0.0
 11
181.477965
 21
112.429544
 31
0.0
  0
LINE
  5
149
100
AcDbEntity
  8
0
 62
7
100
AcDbLine
 10
181.477965
 20
112.429544
 30
0.0
 11
153.843222
 21
48.803242
 31
0.0
  0
LINE
  5
14a
100
AcDbEntity
  8
0
 62
7
100
AcDbLine
 10
153.843222
 20
48.803242
 30
0.0
 11
126.208466
 21
112.429546
 31
0.0
  0
LINE
  5
14b
100
AcDbEntity
  8
0
 62
7
100
AcDbLine
 10
126.208466
 20
112.429546
 30
0.0
 11
48.798052
 21
101.353299
 31
0.0
  0
LINE
  5
14c
100
AcDbEntity
  8
0
 62
7
100
AcDbLine
 10
48.798052
 20
101.353299
 30
0.0
 11
98.573722
 21
153.903357
 31
0.0
  0
LINE
  5
14d
100
AcDbEntity
  8
0
 62
7
100
AcDbLine
 10
98.573722
 20
153.903357
 30
0.0
 11
48.798052
 21
206.453411
 31
0.0
  0
LINE
  5
14e
100
AcDbEntity
  8
0
 62
7
100
AcDbLine
 10
48.798052
 20
206.453411
 30
0.0
 11
126.208466
 21
195.377165
 31
0.0
  0
LINE
  5
14f
100
AcDbEntity
  8
0
 62
7
100
AcDbLine
 10
126.208466
 20
195.377165
 30
0.0
 11
153.843222
 21
259.003466
 31
0.0
  0
LINE
  5
150
100
AcDbEntity
  8
0
 62
7
100
AcDbLine
 10
153.843222
 20
259.003466
 30
0.0
 11
181.477965
 21
195.377163
 31
0.0
  0
LINE
  5
151
100
AcDbEntity
  8
0
 62
7
100
AcDbLine
 10
181.477965
 20
195.377163
 30
0.0
 11
258.888379
 21
206.453411
 31
0.0
  0
LINE
  5
152
100
AcDbEntity
  8
0
 62
7
100
AcDbLine
 10
258.888379
 20
206.453411
 30
0.0
 11
209.112721
 21
153.903352
 31
0.0
  0
LINE
  5
153
100
AcDbEntity
  8
0
 62
7
100
AcDbLine
 10
209.112721
 20
153.903352
 30
0.0
 11
258.888379
 21
101.353298
 31
0.0
  0
LINE
  5
154
100
AcDbEntity
  8
0
 62
7
100
AcDbLine
 10
224.173439
 20
118.719862
 30
0.0
 11
172.345357
 21
126.135668
 31
0.0
  0
LINE
  5
155
100
AcDbEntity
  8
0
 62
7
100
AcDbLine
 10
172.345357
 20
126.135668
 30
0.0
 11
153.843250
 21
83.536365
 31
0.0
  0
LINE
  5
156
100
AcDbEntity
  8
0
 62
7
100
AcDbLine
 10
153.843250
 20
83.536365
 30
0.0
 11
135.341135
 21
126.135670
 31
0.0
  0
LINE
  5
157
100
AcDbEntity
  8
0
 62
7
100
AcDbLine
 10
135.341135
 20
126.135670
 30
0.0
 11
83.513054
 21
118.719862
 31
0.0
  0
LINE
  5
158
100
AcDbEntity
  8
0
 62
7
100
AcDbLine
 10
83.513054
 20
118.719862
 30
0.0
 11
116.839028
 21
153.903360
 31
0.0
  0
LINE
  5
159
100
AcDbEntity
  8
0
 62
7
100
AcDbLine
 10
116.839028
 20
153.903360
 30
0.0
 11
83.513054
 21
189.086856
 31
0.0
  0
LINE
  5
15a
100
AcDbEntity
  8
0
 62
7
100
AcDbLine
 10
83.513054
 20
189.086856
 30
0.0
 11
135.341135
 21
181.671049
 31
0.0
  0
LINE
  5
15b
100
AcDbEntity
  8
0
 62
7
100
AcDbLine
 10
135.341135
 20
181.671049
 30
0.0
 11
153.843250
 21
224.270352
 31
0.0
  0
LINE
  5
15c
100
AcDbEntity
  8
0
 62
7
100
AcDbLine
 10
153.843250
 20
224.270352
 30
0.0
 11
172.345357
 21
181.671048
 31
0.0
  0
LINE
  5
15d
100
AcDbEntity
  8
0
 62
7
100
AcDbLine
 10
172.345357
 20
181.671048
 30
0.0
 11
224.173439
 21
189.086856
 31
0.0
  0
LINE
  5
15e
100
AcDbEntity
  8
0
 62
7
100
AcDbLine
 10
224.173439
 20
189.086856
 30
0.0
 11
190.847472
 21
153.903357
 31
0.0
  0
LINE
  5
15f
100
AcDbEntity
  8
0
 62
7
100
AcDbLine
 10
190.847472
 20
153.903357
 30
0.0
 11
224.173439
 21
118.719862
 31
0.0
  0
LINE
  5
160
100
AcDbEntity
  8
0
 62
7
100
AcDbLine
 10
194.029044
 20
133.799950
 30
0.0
 11
164.415129
 21
138.037250
 31
0.0
  0
LINE
  5
161
100
AcDbEntity
  8
0
 62
7
100
AcDbLine
 10
164.415129
 20
138.037250
 30
0.0
 11
153.843257
 21
113.696536
 31
0.0
  0
LINE
  5
162
100
AcDbEntity
  8
0
 62
7
100
AcDbLine
 10
153.843257
 20
113.696536
 30
0.0
 11
143.271381
 21
138.037251
 31
0.0
  0
LINE
  5
163
100
AcDbEntity
  8
0
 62
7
100
AcDbLine
 10
143.271381
 20
138.037251
 30
0.0
 11
113.657466
 21
133.799951
 31
0.0
  0
LINE
  5
164
100
AcDbEntity
  8
0
 62
7
100
AcDbLine
 10
113.657466
 20
133.799951
 30
0.0
 11
132.699509
 21
153.903366
 31
0.0
  0
LINE
  5
165
100
AcDbEntity
  8
0
 62
7
100
AcDbLine
 10
132.699509
 20
153.903366
 30
0.0
 11
113.657466
 21
174.006779
 31
0.0
  0
LINE
  5
166
100
AcDbEntity
  8
0
 62
7
100
AcDbLine
 10
113.657466
 20
174.006779
 30
0.0
 11
143.271381
 21
169.769479
 31
0.0
  0
LINE
  5
167
100
AcDbEntity
  8
0
 62
7
100
AcDbLine
 10
143.271381
 20
169.769479
 30
0.0
 11
153.843257
 21
194.110194
 31
0.0
  0
LINE
  5
168
100
AcDbEntity
  8
0
 62
7
100
AcDbLine
 10
153.843257
 20
194.110194
 30
0.0
 11
164.415129
 21
169.769478
 31
0.0
  0
LINE
  5
169
100
AcDbEntity
  8
0
 62
7
100
AcDbLine
 10
164.415129
 20
169.769478
 30
0.0
 11
194.029044
 21
174.006779
 31
0.0
  0
LINE
  5
16a
100
AcDbEntity
  8
0
 62
7
100
AcDbLine
 10
194.029044
 20
174.006779
 30
0.0
 11
174.987005
 21
153.903364
 31
0.0
  0
LINE
  5
16b
100
AcDbEntity
  8
0
 62
7
100
AcDbLine
 10
174.987005
 20
153.903364
 30
0.0
 11
194.029044
 21
133.799950
 31
0.0
  0
SPLINE
  5
16c
100
AcDbEntity
  8
0
 62
7
100
AcDbSpline
 70
8
 71
3
 72
8
 73
4
 74
0
 40
0
 40
0
 40
0
 40
0
 40
1
 40
1
 40
1
 40
1
 10
153.735419
 20
295.674509
 30
0.0
 10
153.184804
 20
295.674506
 30
0.0
 10
152.735506
 20
295.225216
 30
0.0
 10
152.735506
 20
294.674604
 30
0.0
  0
SPLINE
  5
16d
100
AcDbEntity
  8
0
 62
7
100
AcDbSpline
 70
8
 71
3
 72
8
 73
4
 74
0
 40
0
 40
0
 40
0
 40
0
 40
1
 40
1
 40
1
 40
1
 10
152.735506
 20
294.674604
 30
0.0
 10
152.735506
 20
294.123991
 30
0.0
 10
153.184804
 20
293.674148
 30
0.0
 10
153.735419
 20
293.674148
 30
0.0
  0
SPLINE
  5
16e
100
AcDbEntity
  8
0
 62
7
100
AcDbSpline
 70
8
 71
3
 72
8
 73
4
 74
0
 40
0
 40
0
 40
0
 40
0
 40
1
 40
1
 40
1
 40
1
 10
153.735419
 20
293.674148
 30
0.0
 10
154.286035
 20
293.674148
 30
0.0
 10
154.735304
 20
294.123991
 30
0.0
 10
154.735304
 20
294.674604
 30
0.0
  0
SPLINE
  5
16f
100
AcDbEntity
  8
0
 62
7
100
AcDbSpline
 70
8
 71
3
 72
8
 73
4
 74
0
 40
0
 40
0
 40
0
 40
0
 40
1
 40
1
 40
1
 40
1
 10
154.735304
 20
294.674604
 30
0.0
 10
154.735304
 20
295.225216
 30
0.0
 10
154.286006
 20
295.674506
 30
0.0
 10
153.735419
 20
295.674509
 30
0.0
  0
LINE
  5
170
100
AcDbEntity
  8
0
 62
7
100
AcDbLine
 10
153.735419
 20
295.674509
 30
0.0
 11
153.735419
 21
295.674509
 31
0.0
  0
SPLINE
  5
171
100
AcDbEntity
  8
0
 62
7
100
AcDbSpline
 70
8
 71
3
 72
8
 73
4
 74
0
 40
0
 40
0
 40
0
 40
0
 40
1
 40
1
 40
1
 40
1
 10
153.735419
 20
295.392286
 30
0.0
 10
154.133494
 20
295.392286
 30
0.0
 10
154.453082
 20
295.072692
 30
0.0
 10
154.453082
 20
294.674604
 30
0.0
  0
SPLINE
  5
172
100
AcDbEntity
  8
0
 62
7
100
AcDbSpline
 70
8
 71
3
 72
8
 73
4
 74
0
 40
0
 40
0
 40
0
 40
0
 40
1
 40
1
 40
1
 40
1
 10
154.453082
 20
294.674604
 30
0.0
 10
154.453082
 20
294.276515
 30
0.0
 10
154.133494
 20
293.956371
 30
0.0
 10
153.735419
 20
293.956371
 30
0.0
  0
SPLINE
  5
173
100
AcDbEntity
  8
0
 62
7
100
AcDbSpline
 70
8
 71
3
 72
8
 73
4
 74
0
 40
0
 40
0
 40
0
 40
0
 40
1
 40
1
 40
1
 40
1
 10
153.735419
 20
293.956371
 30
0.0
 10
153.337316
 20
293.956371
 30
0.0
 10
153.017728
 20
294.276515
 30
0.0
 10
153.017728
 20
294.674604
 30
0.0
  0
SPLINE
  5
174
100
AcDbEntity
  8
0
 62
7
100
AcDbSpline
 70
8
 71
3
 72
8
 73
4
 74
0
 40
0
 40
0
 40
0
 40
0
 40
1
 40
1
 40
1
 40
1
 10
153.017728
 20
294.674604
 30
0.0
 10
153.017728
 20
295.072692
 30
0.0
 10
153.337316
 20
295.392286
 30
0.0
 10
153.735419
 20
295.392286
 30
0.0
  0
LINE
  5
175
100
AcDbEntity
  8
0
 62
7
100
AcDbLine
 10
153.735419
 20
295.392286
 30
0.0
 11
153.735419
 21
295.392286
 31
0.0
  0
SPLINE
  5
176
100
AcDbEntity
  8
0
 62
7
100
AcDbSpline
 70
8
 71
3
 72
8
 73
4
 74
0
 40
0
 40
0
 40
0
 40
0
 40
1
 40
1
 40
1
 40
1
 10
153.735419
 20
279.633041
 30
0.0
 10
153.184804
 20
279.633040
 30
0.0
 10
152.735506
 20
279.183749
 30
0.0
 10
152.735506
 20
278.633137
 30
0.0
  0
SPLINE
  5
177
100
AcDbEntity
  8
0
 62
7
100
AcDbSpline
 70
8
 71
3
 72
8
 73
4
 74
0
 40
0
 40
0
 40
0
 40
0
 40
1
 40
1
 40
1
 40
1
 10
152.735506
 20
278.633137
 30
0.0
 10
152.735506
 20
278.082524
 30
0.0
 10
153.184804
 20
277.633233
 30
0.0
 10
153.735419
 20
277.633232
 30
0.0
  0
SPLINE
  5
178
100
AcDbEntity
  8
0
 62
7
100
AcDbSpline
 70
8
 71
3
 72
8
 73
4
 74
0
 40
0
 40
0
 40
0
 40
0
 40
1
 40
1
 40
1
 40
1
 10
153.735419
 20
277.633232
 30
0.0
 10
154.286035
 20
277.633233
 30
0.0
 10
154.735304
 20
278.082524
 30
0.0
 10
154.735304
 20
278.633137
 30
0.0
  0
SPLINE
  5
179
100
AcDbEntity
  8
0
 62
7
100
AcDbSpline
 70
8
 71
3
 72
8
 73
4
 74
0
 40
0
 40
0
 40
0
 40
0
 40
1
 40
1
 40
1
 40
1
 10
154.735304
 20
278.633137
 30
0.0
 10
154.735304
 20
279.183749
 30
0.0
 10
154.286035
 20
279.633040
 30
0.0
 10
153.735419
 20
279.633041
 30
0.0
  0
LINE
  5
17a
100
AcDbEntity
  8
0
 62
7
100
AcDbLine
 10
153.735419
 20
279.633041
 30
0.0
 11
153.735419
 21
279.633041
 31
0.0
  0
SPLINE
  5
17b
100
AcDbEntity
  8
0
 62
7
100
AcDbSpline
 70
8
 71
3
 72
8
 73
4
 74
0
 40
0
 40
0
 40
0
 40
0
 40
1
 40
1
 40
1
 40
1
 10
153.735419
 20
279.350819
 30
0.0
 10
154.133494
 20
279.350818
 30
0.0
 10
154.453082
 20
279.031225
 30
0.0
 10
154.453082
 20
278.633137
 30
0.0
  0
SPLINE
  5
17c
100
AcDbEntity
  8
0
 62
7
100
AcDbSpline
 70
8
 71
3
 72
8
 73
4
 74
0
 40
0
 40
0
 40
0
 40
0
 40
1
 40
1
 40
1
 40
1
 10
154.453082
 20
278.633137
 30
0.0
 10
154.453082
 20
278.235048
 30
0.0
 10
154.133494
 20
277.915455
 30
0.0
 10
153.735419
 20
277.915455
 30
0.0
  0
SPLINE
  5
17d
100
AcDbEntity
  8
0
 62
7
100
AcDbSpline
 70
8
 71
3
 72
8
 73
4
 74
0
 40
0
 40
0
 40
0
 40
0
 40
1
 40
1
 40
1
 40
1
 10
153.735419
 20
277.915455
 30
0.0
 10
153.337316
 20
277.915455
 30
0.0
 10
153.017728
 20
278.235048
 30
0.0
 10
153.017728
 20
278.633137
 30
0.0
  0
SPLINE
  5
17e
100
AcDbEntity
  8
0
 62
7
100
AcDbSpline
 70
8
 71
3
 72
8
 73
4
 74
0
 40
0
 40
0
 40
0
 40
0
 40
1
 40
1
 40
1
 40
1
 10
153.017728
 20
278.633137
 30
0.0
 10
153.017728
 20
279.031225
 30
0.0
 10
153.337316
 20
279.350818
 30
0.0
 10
153.735419
 20
279.350819
 30
0.0
  0
LINE
  5
17f
100
AcDbEntity
  8
0
 62
7
100
AcDbLine
 10
153.735419
 20
279.350819
 30
0.0
 11
153.735419
 21
279.350819
 31
0.0
  0
SPLINE
  5
180
100
AcDbEntity
  8
0
 62
7
100
AcDbSpline
 70
8
 71
3
 72
8
 73
4
 74
0
 40
0
 40
0
 40
0
 40
0
 40
1
 40
1
 40
1
 40
1
 10
153.735419
 20
263.027681
 30
0.0
 10
153.184804
 20
263.027680
 30
0.0
 10
152.735506
 20
262.578389
 30
0.0
 10
152.735506
 20
262.027777
 30
0.0
  0
SPLINE
  5
181
100
AcDbEntity
  8
0
 62
7
100
AcDbSpline
 70
8
 71
3
 72
8
 73
4
 74
0
 40
0
 40
0
 40
0
 40
0
 40
1
 40
1
 40
1
 40
1
 10
152.735506
 20
262.027777
 30
0.0
 10
152.735506
 20
261.477164
 30
0.0
 10
153.184804
 20
261.027873
 30
0.0
 10
153.735419
 20
261.027872
 30
0.0
  0
SPLINE
  5
182
100
AcDbEntity
  8
0
 62
7
100
AcDbSpline
 70
8
 71
3
 72
8
 73
4
 74
0
 40
0
 40
0
 40
0
 40
0
 40
1
 40
1
 40
1
 40
1
 10
153.735419
 20
261.027872
 30
0.0
 10
154.286035
 20
261.027873
 30
0.0
 10
154.735304
 20
261.477164
 30
0.0
 10
154.735304
 20
262.027777
 30
0.0
  0
SPLINE
  5
183
100
AcDbEntity
  8
0
 62
7
100
AcDbSpline
 70
8
 71
3
 72
8
 73
4
 74
0
 40
0
 40
0
 40
0
 40
0
 40
1
 40
1
 40
1
 40
1
 10
154.735304
 20
262.027777
 30
0.0
 10
154.735304
 20
262.578389
 30
0.0
 10
154.286035
 20
263.027680
 30
0.0
 10
153.735419
 20
263.027681
 30
0.0
  0
LINE
  5
184
100
AcDbEntity
  8
0
 62
7
100
AcDbLine
 10
153.735419
 20
263.027681
 30
0.0
 11
153.735419
 21
263.027681
 31
0.0
  0
SPLINE
  5
185
100
AcDbEntity
  8
0
 62
7
100
AcDbSpline
 70
8
 71
3
 72
8
 73
4
 74
0
 40
0
 40
0
 40
0
 40
0
 40
1
 40
1
 40
1
 40
1
 10
153.735419
 20
262.745459
 30
0.0
 10
154.133494
 20
262.745458
 30
0.0
 10
154.453082
 20
262.425865
 30
0.0
 10
154.453082
 20
262.027777
 30
0.0
  0
SPLINE
  5
186
100
AcDbEntity
  8
0
 62
7
100
AcDbSpline
 70
8
 71
3
 72
8
 73
4
 74
0
 40
0
 40
0
 40
0
 40
0
 40
1
 40
1
 40
1
 40
1
 10
154.453082
 20
262.027777
 30
0.0
 10
154.453082
 20
261.629688
 30
0.0
 10
154.133494
 20
261.310095
 30
0.0
 10
153.735419
 20
261.310094
 30
0.0
  0
SPLINE
  5
187
100
AcDbEntity
  8
0
 62
7
100
AcDbSpline
 70
8
 71
3
 72
8
 73
4
 74
0
 40
0
 40
0
 40
0
 40
0
 40
1
 40
1
 40
1
 40
1
 10
153.735419
 20
261.310094
 30
0.0
 10
153.337316
 20
261.310095
 30
0.0
 10
153.017728
 20
261.629688
 30
0.0
 10
153.017728
 20
262.027777
 30
0.0
  0
SPLINE
  5
188
100
AcDbEntity
  8
0
 62
7
100
AcDbSpline
 70
8
 71
3
 72
8
 73
4
 74
0
 40
0
 40
0
 40
0
 40
0
 40
1
 40
1
 40
1
 40
1
 10
153.017728
 20
262.027777
 30
0.0
 10
153.017728
 20
262.425865
 30
0.0
 10
153.337316
 20
262.745458
 30
0.0
 10
153.735419
 20
262.745459
 30
0.0
  0
LINE
  5
189
100
AcDbEntity
  8
0
 62
7
100
AcDbLine
 10
153.735419
 20
262.745459
 30
0.0
 11
153.735419
 21
262.745459
 31
0.0
  0
SPLINE
  5
18a
100
AcDbEntity
  8
0
 62
7
100
AcDbSpline
 70
8
 71
3
 72
8
 73
4
 74
0
 40
0
 40
0
 40
0
 40
0
 40
1
 40
1
 40
1
 40
1
 10
153.735419
 20
198.863467
 30
0.0
 10
153.184804
 20
198.863464
 30
0.0
 10
152.735506
 20
198.414175
 30
0.0
 10
152.735506
 20
197.863562
 30
0.0
  0
SPLINE
  5
18b
100
AcDbEntity
  8
0
 62
7
100
AcDbSpline
 70
8
 71
3
 72
8
 73
4
 74
0
 40
0
 40
0
 40
0
 40
0
 40
1
 40
1
 40
1
 40
1
 10
152.735506
 20
197.863562
 30
0.0
 10
152.735506
 20
197.312949
 30
0.0
 10
153.184804
 20
196.863660
 30
0.0
 10
153.735419
 20
196.863657
 30
0.0
  0
SPLINE
  5
18c
100
AcDbEntity
  8
0
 62
7
100
AcDbSpline
 70
8
 71
3
 72
8
 73
4
 74
0
 40
0
 40
0
 40
0
 40
0
 40
1
 40
1
 40
1
 40
1
 10
153.735419
 20
196.863657
 30
0.0
 10
154.286006
 20
196.863660
 30
0.0
 10
154.735304
 20
197.312949
 30
0.0
 10
154.735304
 20
197.863562
 30
0.0
  0
SPLINE
  5
18d
100
AcDbEntity
  8
0
 62
7
100
AcDbSpline
 70
8
 71
3
 72
8
 73
4
 74
0
 40
0
 40
0
 40
0
 40
0
 40
1
 40
1
 40
1
 40
1
 10
154.735304
 20
197.863562
 30
0.0
 10
154.735304
 20
198.414175
 30
0.0
 10
154.286035
 20
198.863464
 30
0.0
 10
153.735419
 20
198.863467
 30
0.0
  0
LINE
  5
18e
100
AcDbEntity
  8
0
 62
7
100
AcDbLine
 10
153.735419
 20
198.863467
 30
0.0
 11
153.735419
 21
198.863467
 31
0.0
  0
SPLINE
  5
18f
100
AcDbEntity
  8
0
 62
7
100
AcDbSpline
 70
8
 71
3
 72
8
 73
4
 74
0
 40
0
 40
0
 40
0
 40
0
 40
1
 40
1
 40
1
 40
1
 10
153.735419
 20
198.581245
 30
0.0
 10
154.133494
 20
198.581245
 30
0.0
 10
154.453082
 20
198.261651
 30
0.0
 10
154.453082
 20
197.863562
 30
0.0
  0
SPLINE
  5
190
100
AcDbEntity
  8
0
 62
7
100
AcDbSpline
 70
8
 71
3
 72
8
 73
4
 74
0
 40
0
 40
0
 40
0
 40
0
 40
1
 40
1
 40
1
 40
1
 10
154.453082
 20
197.863562
 30
0.0
 10
154.453082
 20
197.465473
 30
0.0
 10
154.133494
 20
197.145879
 30
0.0
 10
153.735419
 20
197.145879
 30
0.0
  0
SPLINE
  5
191
100
AcDbEntity
  8
0
 62
7
100
AcDbSpline
 70
8
 71
3
 72
8
 73
4
 74
0
 40
0
 40
0
 40
0
 40
0
 40
1
 40
1
 40
1
 40
1
 10
153.735419
 20
197.145879
 30
0.0
 10
153.337316
 20
197.145879
 30
0.0
 10
153.017728
 20
197.465473
 30
0.0
 10
153.017728
 20
197.863562
 30
0.0
  0
SPLINE
  5
192
100
AcDbEntity
  8
0
 62
7
100
AcDbSpline
 70
8
 71
3
 72
8
 73
4
 74
0
 40
0
 40
0
 40
0
 40
0
 40
1
 40
1
 40
1
 40
1
 10
153.017728
 20
197.863562
 30
0.0
 10
153.017728
 20
198.261651
 30
0.0
 10
153.337316
 20
198.581245
 30
0.0
 10
153.735419
 20
198.581245
 30
0.0
  0
LINE
  5
193
100
AcDbEntity
  8
0
 62
7
100
AcDbLine
 10
153.735419
 20
198.581245
 30
0.0
 11
153.735419
 21
198.581245
 31
0.0
  0
SPLINE
  5
194
100
AcDbEntity
  8
0
 62
7
100
AcDbSpline
 70
8
 71
3
 72
8
 73
4
 74
0
 40
0
 40
0
 40
0
 40
0
 40
1
 40
1
 40
1
 40
1
 10
153.735419
 20
234.732698
 30
0.0
 10
153.184804
 20
234.732698
 30
0.0
 10
152.735506
 20
234.283406
 30
0.0
 10
152.735506
 20
233.732793
 30
0.0
  0
SPLINE
  5
195
100
AcDbEntity
  8
0
 62
7
100
AcDbSpline
 70
8
 71
3
 72
8
 73
4
 74
0
 40
0
 40
0
 40
0
 40
0
 40
1
 40
1
 40
1
 40
1
 10
152.735506
 20
233.732793
 30
0.0
 10
152.735506
 20
233.182180
 30
0.0
 10
153.184804
 20
232.732891
 30
0.0
 10
153.735419
 20
232.732888
 30
0.0
  0
SPLINE
  5
196
100
AcDbEntity
  8
0
 62
7
100
AcDbSpline
 70
8
 71
3
 72
8
 73
4
 74
0
 40
0
 40
0
 40
0
 40
0
 40
1
 40
1
 40
1
 40
1
 10
153.735419
 20
232.732888
 30
0.0
 10
154.286035
 20
232.732891
 30
0.0
 10
154.735304
 20
233.182180
 30
0.0
 10
154.735304
 20
233.732793
 30
0.0
  0
SPLINE
  5
197
100
AcDbEntity
  8
0
 62
7
100
AcDbSpline
 70
8
 71
3
 72
8
 73
4
 74
0
 40
0
 40
0
 40
0
 40
0
 40
1
 40
1
 40
1
 40
1
 10
154.735304
 20
233.732793
 30
0.0
 10
154.735304
 20
234.283406
 30
0.0
 10
154.286006
 20
234.732698
 30
0.0
 10
153.735419
 20
234.732698
 30
0.0
  0
LINE
  5
198
100
AcDbEntity
  8
0
 62
7
100
AcDbLine
 10
153.735419
 20
234.732698
 30
0.0
 11
153.735419
 21
234.732698
 31
0.0
  0
SPLINE
  5
199
100
AcDbEntity
  8
0
 62
7
100
AcDbSpline
 70
8
 71
3
 72
8
 73
4
 74
0
 40
0
 40
0
 40
0
 40
0
 40
1
 40
1
 40
1
 40
1
 10
153.735419
 20
234.450476
 30
0.0
 10
154.133494
 20
234.450476
 30
0.0
 10
154.453082
 20
234.130881
 30
0.0
 10
154.453082
 20
233.732793
 30
0.0
  0
SPLINE
  5
19a
100
AcDbEntity
  8
0
 62
7
100
AcDbSpline
 70
8
 71
3
 72
8
 73
4
 74
0
 40
0
 40
0
 40
0
 40
0
 40
1
 40
1
 40
1
 40
1
 10
154.453082
 20
233.732793
 30
0.0
 10
154.453082
 20
233.334704
 30
0.0
 10
154.133494
 20
233.015113
 30
0.0
 10
153.735419
 20
233.015110
 30
0.0
  0
SPLINE
  5
19b
100
AcDbEntity
  8
0
 62
7
100
AcDbSpline
 70
8
 71
3
 72
8
 73
4
 74
0
 40
0
 40
0
 40
0
 40
0
 40
1
 40
1
 40
1
 40
1
 10
153.735419
 20
233.015110
 30
0.0
 10
153.337316
 20
233.015113
 30
0.0
 10
153.017728
 20
233.334704
 30
0.0
 10
153.017728
 20
233.732793
 30
0.0
  0
SPLINE
  5
19c
100
AcDbEntity
  8
0
 62
7
100
AcDbSpline
 70
8
 71
3
 72
8
 73
4
 74
0
 40
0
 40
0
 40
0
 40
0
 40
1
 40
1
 40
1
 40
1
 10
153.017728
 20
233.732793
 30
0.0
 10
153.017728
 20
234.130881
 30
0.0
 10
153.337316
 20
234.450476
 30
0.0
 10
153.735419
 20
234.450476
 30
0.0
  0
LINE
  5
19d
100
AcDbEntity
  8
0
 62
7
100
AcDbLine
 10
153.735419
 20
234.450476
 30
0.0
 11
153.735419
 21
234.450476
 31
0.0
  0
SPLINE
  5
19e
100
AcDbEntity
  8
0
 62
7
100
AcDbSpline
 70
8
 71
3
 72
8
 73
4
 74
0
 40
0
 40
0
 40
0
 40
0
 40
1
 40
1
 40
1
 40
1
 10
153.735419
 20
213.775494
 30
0.0
 10
153.184804
 20
213.775491
 30
0.0
 10
152.735506
 20
213.326201
 30
0.0
 10
152.735506
 20
212.775589
 30
0.0
  0
SPLINE
  5
19f
100
AcDbEntity
  8
0
 62
7
100
AcDbSpline
 70
8
 71
3
 72
8
 73
4
 74
0
 40
0
 40
0
 40
0
 40
0
 40
1
 40
1
 40
1
 40
1
 10
152.735506
 20
212.775589
 30
0.0
 10
152.735506
 20
212.224976
 30
0.0
 10
153.184804
 20
211.775687
 30
0.0
 10
153.735419
 20
211.775684
 30
0.0
  0
SPLINE
  5
1a0
100
AcDbEntity
  8
0
 62
7
100
AcDbSpline
 70
8
 71
3
 72
8
 73
4
 74
0
 40
0
 40
0
 40
0
 40
0
 40
1
 40
1
 40
1
 40
1
 10
153.735419
 20
211.775684
 30
0.0
 10
154.286035
 20
211.775687
 30
0.0
 10
154.735304
 20
212.224976
 30
0.0
 10
154.735304
 20
212.775589
 30
0.0
  0
SPLINE
  5
1a1
100
AcDbEntity
  8
0
 62
7
100
AcDbSpline
 70
8
 71
3
 72
8
 73
4
 74
0
 40
0
 40
0
 40
0
 40
0
 40
1
 40
1
 40
1
 40
1
 10
154.735304
 20
212.775589
 30
0.0
 10
154.735304
 20
213.326201
 30
0.0
 10
154.286035
 20
213.775491
 30
0.0
 10
153.735419
 20
213.775494
 30
0.0
  0
LINE
  5
1a2
100
AcDbEntity
  8
0
 62
7
100
AcDbLine
 10
153.735419
 20
213.775494
 30
0.0
 11
153.735419
 21
213.775494
 31
0.0
  0
SPLINE
  5
1a3
100
AcDbEntity
  8
0
 62
7
100
AcDbSpline
 70
8
 71
3
 72
8
 73
4
 74
0
 40
0
 40
0
 40
0
 40
0
 40
1
 40
1
 40
1
 40
1
 10
153.735419
 20
213.493271
 30
0.0
 10
154.133494
 20
213.493271
 30
0.0
 10
154.453082
 20
213.173677
 30
0.0
 10
154.453082
 20
212.775589
 30
0.0
  0
SPLINE
  5
1a4
100
AcDbEntity
  8
0
 62
7
100
AcDbSpline
 70
8
 71
3
 72
8
 73
4
 74
0
 40
0
 40
0
 40
0
 40
0
 40
1
 40
1
 40
1
 40
1
 10
154.453082
 20
212.775589
 30
0.0
 10
154.453082
 20
212.377500
 30
0.0
 10
154.133494
 20
212.057909
 30
0.0
 10
153.735419
 20
212.057906
 30
0.0
  0
SPLINE
  5
1a5
100
AcDbEntity
  8
0
 62
7
100
AcDbSpline
 70
8
 71
3
 72
8
 73
4
 74
0
 40
0
 40
0
 40
0
 40
0
 40
1
 40
1
 40
1
 40
1
 10
153.735419
 20
212.057906
 30
0.0
 10
153.337316
 20
212.057909
 30
0.0
 10
153.017728
 20
212.377500
 30
0.0
 10
153.017728
 20
212.775589
 30
0.0
  0
SPLINE
  5
1a6
100
AcDbEntity
  8
0
 62
7
100
AcDbSpline
 70
8
 71
3
 72
8
 73
4
 74
0
 40
0
 40
0
 40
0
 40
0
 40
1
 40
1
 40
1
 40
1
 10
153.017728
 20
212.775589
 30
0.0
 10
153.017728
 20
213.173677
 30
0.0
 10
153.337316
 20
213.493271
 30
0.0
 10
153.735419
 20
213.493271
 30
0.0
  0
LINE
  5
1a7
100
AcDbEntity
  8
0
 62
7
100
AcDbLine
 10
153.735419
 20
213.493271
 30
0.0
 11
153.735419
 21
213.493271
 31
0.0
  0
SPLINE
  5
1a8
100
AcDbEntity
  8
0
 62
7
100
AcDbSpline
 70
8
 71
3
 72
8
 73
4
 74
0
 40
0
 40
0
 40
0
 40
0
 40
1
 40
1
 40
1
 40
1
 10
153.735419
 20
183.386996
 30
0.0
 10
153.184804
 20
183.386993
 30
0.0
 10
152.735506
 20
182.937704
 30
0.0
 10
152.735506
 20
182.387091
 30
0.0
  0
SPLINE
  5
1a9
100
AcDbEntity
  8
0
 62
7
100
AcDbSpline
 70
8
 71
3
 72
8
 73
4
 74
0
 40
0
 40
0
 40
0
 40
0
 40
1
 40
1
 40
1
 40
1
 10
152.735506
 20
182.387091
 30
0.0
 10
152.735506
 20
181.836478
 30
0.0
 10
153.184804
 20
181.387189
 30
0.0
 10
153.735419
 20
181.387186
 30
0.0
  0
SPLINE
  5
1aa
100
AcDbEntity
  8
0
 62
7
100
AcDbSpline
 70
8
 71
3
 72
8
 73
4
 74
0
 40
0
 40
0
 40
0
 40
0
 40
1
 40
1
 40
1
 40
1
 10
153.735419
 20
181.387186
 30
0.0
 10
154.286035
 20
181.387189
 30
0.0
 10
154.735304
 20
181.836478
 30
0.0
 10
154.735304
 20
182.387091
 30
0.0
  0
SPLINE
  5
1ab
100
AcDbEntity
  8
0
 62
7
100
AcDbSpline
 70
8
 71
3
 72
8
 73
4
 74
0
 40
0
 40
0
 40
0
 40
0
 40
1
 40
1
 40
1
 40
1
 10
154.735304
 20
182.387091
 30
0.0
 10
154.735304
 20
182.937704
 30
0.0
 10
154.286035
 20
183.386993
 30
0.0
 10
153.735419
 20
183.386996
 30
0.0
  0
LINE
  5
1ac
100
AcDbEntity
  8
0
 62
7
100
AcDbLine
 10
153.735419
 20
183.386996
 30
0.0
 11
153.735419
 21
183.386996
 31
0.0
  0
SPLINE
  5
1ad
100
AcDbEntity
  8
0
 62
7
100
AcDbSpline
 70
8
 71
3
 72
8
 73
4
 74
0
 40
0
 40
0
 40
0
 40
0
 40
1
 40
1
 40
1
 40
1
 10
153.735419
 20
183.104773
 30
0.0
 10
154.133494
 20
183.104771
 30
0.0
 10
154.453082
 20
182.785179
 30
0.0
 10
154.453082
 20
182.387091
 30
0.0
  0
SPLINE
  5
1ae
100
AcDbEntity
  8
0
 62
7
100
AcDbSpline
 70
8
 71
3
 72
8
 73
4
 74
0
 40
0
 40
0
 40
0
 40
0
 40
1
 40
1
 40
1
 40
1
 10
154.453082
 20
182.387091
 30
0.0
 10
154.453082
 20
181.989002
 30
0.0
 10
154.133494
 20
181.669408
 30
0.0
 10
153.735419
 20
181.669408
 30
0.0
  0
SPLINE
  5
1af
100
AcDbEntity
  8
0
 62
7
100
AcDbSpline
 70
8
 71
3
 72
8
 73
4
 74
0
 40
0
 40
0
 40
0
 40
0
 40
1
 40
1
 40
1
 40
1
 10
153.735419
 20
181.669408
 30
0.0
 10
153.337316
 20
181.669408
 30
0.0
 10
153.017728
 20
181.989002
 30
0.0
 10
153.017728
 20
182.387091
 30
0.0
  0
SPLINE
  5
1b0
100
AcDbEntity
  8
0
 62
7
100
AcDbSpline
 70
8
 71
3
 72
8
 73
4
 74
0
 40
0
 40
0
 40
0
 40
0
 40
1
 40
1
 40
1
 40
1
 10
153.017728
 20
182.387091
 30
0.0
 10
153.017728
 20
182.785179
 30
0.0
 10
153.337316
 20
183.104771
 30
0.0
 10
153.735419
 20
183.104773
 30
0.0
  0
LINE
  5
1b1
100
AcDbEntity
  8
0
 62
7
100
AcDbLine
 10
153.735419
 20
183.104773
 30
0.0
 11
153.735419
 21
183.104773
 31
0.0
  0
SPLINE
  5
1b2
100
AcDbEntity
  8
0
 62
7
100
AcDbSpline
 70
8
 71
3
 72
8
 73
4
 74
0
 40
0
 40
0
 40
0
 40
0
 40
1
 40
1
 40
1
 40
1
 10
153.735419
 20
175.648485
 30
0.0
 10
153.184804
 20
175.648482
 30
0.0
 10
152.735506
 20
175.199193
 30
0.0
 10
152.735506
 20
174.648580
 30
0.0
  0
SPLINE
  5
1b3
100
AcDbEntity
  8
0
 62
7
100
AcDbSpline
 70
8
 71
3
 72
8
 73
4
 74
0
 40
0
 40
0
 40
0
 40
0
 40
1
 40
1
 40
1
 40
1
 10
152.735506
 20
174.648580
 30
0.0
 10
152.735506
 20
174.097967
 30
0.0
 10
153.184804
 20
173.648675
 30
0.0
 10
153.735419
 20
173.648675
 30
0.0
  0
SPLINE
  5
1b4
100
AcDbEntity
  8
0
 62
7
100
AcDbSpline
 70
8
 71
3
 72
8
 73
4
 74
0
 40
0
 40
0
 40
0
 40
0
 40
1
 40
1
 40
1
 40
1
 10
153.735419
 20
173.648675
 30
0.0
 10
154.286035
 20
173.648675
 30
0.0
 10
154.735304
 20
174.097967
 30
0.0
 10
154.735304
 20
174.648580
 30
0.0
  0
SPLINE
  5
1b5
100
AcDbEntity
  8
0
 62
7
100
AcDbSpline
 70
8
 71
3
 72
8
 73
4
 74
0
 40
0
 40
0
 40
0
 40
0
 40
1
 40
1
 40
1
 40
1
 10
154.735304
 20
174.648580
 30
0.0
 10
154.735304
 20
175.199193
 30
0.0
 10
154.286035
 20
175.648482
 30
0.0
 10
153.735419
 20
175.648485
 30
0.0
  0
LINE
  5
1b6
100
AcDbEntity
  8
0
 62
7
100
AcDbLine
 10
153.735419
 20
175.648485
 30
0.0
 11
153.735419
 21
175.648485
 31
0.0
  0
SPLINE
  5
1b7
100
AcDbEntity
  8
0
 62
7
100
AcDbSpline
 70
8
 71
3
 72
8
 73
4
 74
0
 40
0
 40
0
 40
0
 40
0
 40
1
 40
1
 40
1
 40
1
 10
153.735419
 20
175.366263
 30
0.0
 10
154.133494
 20
175.366260
 30
0.0
 10
154.453082
 20
175.046669
 30
0.0
 10
154.453082
 20
174.648580
 30
0.0
  0
SPLINE
  5
1b8
100
AcDbEntity
  8
0
 62
7
100
AcDbSpline
 70
8
 71
3
 72
8
 73
4
 74
0
 40
0
 40
0
 40
0
 40
0
 40
1
 40
1
 40
1
 40
1
 10
154.453082
 20
174.648580
 30
0.0
 10
154.453082
 20
174.250492
 30
0.0
 10
154.133494
 20
173.930897
 30
0.0
 10
153.735419
 20
173.930897
 30
0.0
  0
SPLINE
  5
1b9
100
AcDbEntity
  8
0
 62
7
100
AcDbSpline
 70
8
 71
3
 72
8
 73
4
 74
0
 40
0
 40
0
 40
0
 40
0
 40
1
 40
1
 40
1
 40
1
 10
153.735419
 20
173.930897
 30
0.0
 10
153.337316
 20
173.930897
 30
0.0
 10
153.017728
 20
174.250492
 30
0.0
 10
153.017728
 20
174.648580
 30
0.0
  0
SPLINE
  5
1ba
100
AcDbEntity
  8
0
 62
7
100
AcDbSpline
 70
8
 71
3
 72
8
 73
4
 74
0
 40
0
 40
0
 40
0
 40
0
 40
1
 40
1
 40
1
 40
1
 10
153.017728
 20
174.648580
 30
0.0
 10
153.017728
 20
175.046669
 30
0.0
 10
153.337316
 20
175.366260
 30
0.0
 10
153.735419
 20
175.366263
 30
0.0
  0
LINE
  5
1bb
100
AcDbEntity
  8
0
 62
7
100
AcDbLine
 10
153.735419
 20
175.366263
 30
0.0
 11
153.735419
 21
175.366263
 31
0.0
  0
SPLINE
  5
1bc
100
AcDbEntity
  8
0
 62
7
100
AcDbSpline
 70
8
 71
3
 72
8
 73
4
 74
0
 40
0
 40
0
 40
0
 40
0
 40
1
 40
1
 40
1
 40
1
 10
153.735419
 20
298.896913
 30
0.0
 10
153.184804
 20
298.896911
 30
0.0
 10
152.735506
 20
298.447621
 30
0.0
 10
152.735506
 20
297.897009
 30
0.0
  0
SPLINE
  5
1bd
100
AcDbEntity
  8
0
 62
7
100
AcDbSpline
 70
8
 71
3
 72
8
 73
4
 74
0
 40
0
 40
0
 40
0
 40
0
 40
1
 40
1
 40
1
 40
1
 10
152.735506
 20
297.897009
 30
0.0
 10
152.735506
 20
297.346396
 30
0.0
 10
153.184804
 20
296.897104
 30
0.0
 10
153.735419
 20
296.897104
 30
0.0
  0
SPLINE
  5
1be
100
AcDbEntity
  8
0
 62
7
100
AcDbSpline
 70
8
 71
3
 72
8
 73
4
 74
0
 40
0
 40
0
 40
0
 40
0
 40
1
 40
1
 40
1
 40
1
 10
153.735419
 20
296.897104
 30
0.0
 10
154.286006
 20
296.897104
 30
0.0
 10
154.735304
 20
297.346396
 30
0.0
 10
154.735304
 20
297.897009
 30
0.0
  0
SPLINE
  5
1bf
100
AcDbEntity
  8
0
 62
7
100
AcDbSpline
 70
8
 71
3
 72
8
 73
4
 74
0
 40
0
 40
0
 40
0
 40
0
 40
1
 40
1
 40
1
 40
1
 10
154.735304
 20
297.897009
 30
0.0
 10
154.735304
 20
298.447621
 30
0.0
 10
154.286035
 20
298.896911
 30
0.0
 10
153.735419
 20
298.896913
 30
0.0
  0
LINE
  5
1c0
100
AcDbEntity
  8
0
 62
7
100
AcDbLine
 10
153.735419
 20
298.896913
 30
0.0
 11
153.735419
 21
298.896913
 31
0.0
  0
SPLINE
  5
1c1
100
AcDbEntity
  8
0
 62
7
100
AcDbSpline
 70
8
 71
3
 72
8
 73
4
 74
0
 40
0
 40
0
 40
0
 40
0
 40
1
 40
1
 40
1
 40
1
 10
153.735419
 20
298.614691
 30
0.0
 10
154.133494
 20
298.614688
 30
0.0
 10
154.453082
 20
298.295097
 30
0.0
 10
154.453082
 20
297.897009
 30
0.0
  0
SPLINE
  5
1c2
100
AcDbEntity
  8
0
 62
7
100
AcDbSpline
 70
8
 71
3
 72
8
 73
4
 74
0
 40
0
 40
0
 40
0
 40
0
 40
1
 40
1
 40
1
 40
1
 10
154.453082
 20
297.897009
 30
0.0
 10
154.453082
 20
297.498920
 30
0.0
 10
154.133494
 20
297.179326
 30
0.0
 10
153.735419
 20
297.179326
 30
0.0
  0
SPLINE
  5
1c3
100
AcDbEntity
  8
0
 62
7
100
AcDbSpline
 70
8
 71
3
 72
8
 73
4
 74
0
 40
0
 40
0
 40
0
 40
0
 40
1
 40
1
 40
1
 40
1
 10
153.735419
 20
297.179326
 30
0.0
 10
153.337316
 20
297.179326
 30
0.0
 10
153.017728
 20
297.498920
 30
0.0
 10
153.017728
 20
297.897009
 30
0.0
  0
SPLINE
  5
1c4
100
AcDbEntity
  8
0
 62
7
100
AcDbSpline
 70
8
 71
3
 72
8
 73
4
 74
0
 40
0
 40
0
 40
0
 40
0
 40
1
 40
1
 40
1
 40
1
 10
153.017728
 20
297.897009
 30
0.0
 10
153.017728
 20
298.295097
 30
0.0
 10
153.337316
 20
298.614688
 30
0.0
 10
153.735419
 20
298.614691
 30
0.0
  0
LINE
  5
1c5
100
AcDbEntity
  8
0
 62
7
100
AcDbLine
 10
153.735419
 20
298.614691
 30
0.0
 11
153.735419
 21
298.614691
 31
0.0
  0
SPLINE
  5
1c6
100
AcDbEntity
  8
0
 62
7
100
AcDbSpline
 70
8
 71
3
 72
8
 73
4
 74
0
 40
0
 40
0
 40
0
 40
0
 40
1
 40
1
 40
1
 40
1
 10
153.735419
 20
283.984886
 30
0.0
 10
153.184804
 20
283.984884
 30
0.0
 10
152.735506
 20
283.535594
 30
0.0
 10
152.735506
 20
282.984981
 30
0.0
  0
SPLINE
  5
1c7
100
AcDbEntity
  8
0
 62
7
100
AcDbSpline
 70
8
 71
3
 72
8
 73
4
 74
0
 40
0
 40
0
 40
0
 40
0
 40
1
 40
1
 40
1
 40
1
 10
152.735506
 20
282.984981
 30
0.0
 10
152.735506
 20
282.434369
 30
0.0
 10
153.184804
 20
281.985078
 30
0.0
 10
153.735419
 20
281.985077
 30
0.0
  0
SPLINE
  5
1c8
100
AcDbEntity
  8
0
 62
7
100
AcDbSpline
 70
8
 71
3
 72
8
 73
4
 74
0
 40
0
 40
0
 40
0
 40
0
 40
1
 40
1
 40
1
 40
1
 10
153.735419
 20
281.985077
 30
0.0
 10
154.286035
 20
281.985078
 30
0.0
 10
154.735304
 20
282.434369
 30
0.0
 10
154.735304
 20
282.984981
 30
0.0
  0
SPLINE
  5
1c9
100
AcDbEntity
  8
0
 62
7
100
AcDbSpline
 70
8
 71
3
 72
8
 73
4
 74
0
 40
0
 40
0
 40
0
 40
0
 40
1
 40
1
 40
1
 40
1
 10
154.735304
 20
282.984981
 30
0.0
 10
154.735304
 20
283.535594
 30
0.0
 10
154.286035
 20
283.984884
 30
0.0
 10
153.735419
 20
283.984886
 30
0.0
  0
LINE
  5
1ca
100
AcDbEntity
  8
0
 62
7
100
AcDbLine
 10
153.735419
 20
283.984886
 30
0.0
 11
153.735419
 21
283.984886
 31
0.0
  0
SPLINE
  5
1cb
100
AcDbEntity
  8
0
 62
7
100
AcDbSpline
 70
8
 71
3
 72
8
 73
4
 74
0
 40
0
 40
0
 40
0
 40
0
 40
1
 40
1
 40
1
 40
1
 10
153.735419
 20
283.702664
 30
0.0
 10
154.133494
 20
283.702663
 30
0.0
 10
154.453082
 20
283.383070
 30
0.0
 10
154.453082
 20
282.984981
 30
0.0
  0
SPLINE
  5
1cc
100
AcDbEntity
  8
0
 62
7
100
AcDbSpline
 70
8
 71
3
 72
8
 73
4
 74
0
 40
0
 40
0
 40
0
 40
0
 40
1
 40
1
 40
1
 40
1
 10
154.453082
 20
282.984981
 30
0.0
 10
154.453082
 20
282.586893
 30
0.0
 10
154.133494
 20
282.267300
 30
0.0
 10
153.735419
 20
282.267299
 30
0.0
  0
SPLINE
  5
1cd
100
AcDbEntity
  8
0
 62
7
100
AcDbSpline
 70
8
 71
3
 72
8
 73
4
 74
0
 40
0
 40
0
 40
0
 40
0
 40
1
 40
1
 40
1
 40
1
 10
153.735419
 20
282.267299
 30
0.0
 10
153.337316
 20
282.267300
 30
0.0
 10
153.017728
 20
282.586893
 30
0.0
 10
153.017728
 20
282.984981
 30
0.0
  0
SPLINE
  5
1ce
100
AcDbEntity
  8
0
 62
7
100
AcDbSpline
 70
8
 71
3
 72
8
 73
4
 74
0
 40
0
 40
0
 40
0
 40
0
 40
1
 40
1
 40
1
 40
1
 10
153.017728
 20
282.984981
 30
0.0
 10
153.017728
 20
283.383070
 30
0.0
 10
153.337316
 20
283.702663
 30
0.0
 10
153.735419
 20
283.702664
 30
0.0
  0
LINE
  5
1cf
100
AcDbEntity
  8
0
 62
7
100
AcDbLine
 10
153.735419
 20
283.702664
 30
0.0
 11
153.735419
 21
283.702664
 31
0.0
  0
SPLINE
  5
1d0
100
AcDbEntity
  8
0
 62
7
100
AcDbSpline
 70
8
 71
3
 72
8
 73
4
 74
0
 40
0
 40
0
 40
0
 40
0
 40
1
 40
1
 40
1
 40
1
 10
153.735419
 20
267.379526
 30
0.0
 10
153.184804
 20
267.379524
 30
0.0
 10
152.735506
 20
266.930233
 30
0.0
 10
152.735506
 20
266.379621
 30
0.0
  0
SPLINE
  5
1d1
100
AcDbEntity
  8
0
 62
7
100
AcDbSpline
 70
8
 71
3
 72
8
 73
4
 74
0
 40
0
 40
0
 40
0
 40
0
 40
1
 40
1
 40
1
 40
1
 10
152.735506
 20
266.379621
 30
0.0
 10
152.735506
 20
265.829009
 30
0.0
 10
153.184804
 20
265.379167
 30
0.0
 10
153.735419
 20
265.379165
 30
0.0
  0
SPLINE
  5
1d2
100
AcDbEntity
  8
0
 62
7
100
AcDbSpline
 70
8
 71
3
 72
8
 73
4
 74
0
 40
0
 40
0
 40
0
 40
0
 40
1
 40
1
 40
1
 40
1
 10
153.735419
 20
265.379165
 30
0.0
 10
154.286035
 20
265.379167
 30
0.0
 10
154.735304
 20
265.829009
 30
0.0
 10
154.735304
 20
266.379621
 30
0.0
  0
SPLINE
  5
1d3
100
AcDbEntity
  8
0
 62
7
100
AcDbSpline
 70
8
 71
3
 72
8
 73
4
 74
0
 40
0
 40
0
 40
0
 40
0
 40
1
 40
1
 40
1
 40
1
 10
154.735304
 20
266.379621
 30
0.0
 10
154.735304
 20
266.930233
 30
0.0
 10
154.286035
 20
267.379524
 30
0.0
 10
153.735419
 20
267.379526
 30
0.0
  0
LINE
  5
1d4
100
AcDbEntity
  8
0
 62
7
100
AcDbLine
 10
153.735419
 20
267.379526
 30
0.0
 11
153.735419
 21
267.379526
 31
0.0
  0
SPLINE
  5
1d5
100
AcDbEntity
  8
0
 62
7
100
AcDbSpline
 70
8
 71
3
 72
8
 73
4
 74
0
 40
0
 40
0
 40
0
 40
0
 40
1
 40
1
 40
1
 40
1
 10
153.735419
 20
267.097303
 30
0.0
 10
154.133494
 20
267.097302
 30
0.0
 10
154.453082
 20
266.777709
 30
0.0
 10
154.453082
 20
266.379621
 30
0.0
  0
SPLINE
  5
1d6
100
AcDbEntity
  8
0
 62
7
100
AcDbSpline
 70
8
 71
3
 72
8
 73
4
 74
0
 40
0
 40
0
 40
0
 40
0
 40
1
 40
1
 40
1
 40
1
 10
154.453082
 20
266.379621
 30
0.0
 10
154.453082
 20
265.981533
 30
0.0
 10
154.133494
 20
265.661388
 30
0.0
 10
153.735419
 20
265.661388
 30
0.0
  0
SPLINE
  5
1d7
100
AcDbEntity
  8
0
 62
7
100
AcDbSpline
 70
8
 71
3
 72
8
 73
4
 74
0
 40
0
 40
0
 40
0
 40
0
 40
1
 40
1
 40
1
 40
1
 10
153.735419
 20
265.661388
 30
0.0
 10
153.337316
 20
265.661388
 30
0.0
 10
153.017728
 20
265.981533
 30
0.0
 10
153.017728
 20
266.379621
 30
0.0
  0
SPLINE
  5
1d8
100
AcDbEntity
  8
0
 62
7
100
AcDbSpline
 70
8
 71
3
 72
8
 73
4
 74
0
 40
0
 40
0
 40
0
 40
0
 40
1
 40
1
 40
1
 40
1
 10
153.017728
 20
266.379621
 30
0.0
 10
153.017728
 20
266.777709
 30
0.0
 10
153.337316
 20
267.097302
 30
0.0
 10
153.735419
 20
267.097303
 30
0.0
  0
LINE
  5
1d9
100
AcDbEntity
  8
0
 62
7
100
AcDbLine
 10
153.735419
 20
267.097303
 30
0.0
 11
153.735419
 21
267.097303
 31
0.0
  0
SPLINE
  5
1da
100
AcDbEntity
  8
0
 62
7
100
AcDbSpline
 70
8
 71
3
 72
8
 73
4
 74
0
 40
0
 40
0
 40
0
 40
0
 40
1
 40
1
 40
1
 40
1
 10
153.735419
 20
203.779755
 30
0.0
 10
153.184804
 20
203.779755
 30
0.0
 10
152.735506
 20
203.330463
 30
0.0
 10
152.735506
 20
202.779851
 30
0.0
  0
SPLINE
  5
1db
100
AcDbEntity
  8
0
 62
7
100
AcDbSpline
 70
8
 71
3
 72
8
 73
4
 74
0
 40
0
 40
0
 40
0
 40
0
 40
1
 40
1
 40
1
 40
1
 10
152.735506
 20
202.779851
 30
0.0
 10
152.735506
 20
202.229241
 30
0.0
 10
153.184804
 20
201.779395
 30
0.0
 10
153.735419
 20
201.779395
 30
0.0
  0
SPLINE
  5
1dc
100
AcDbEntity
  8
0
 62
7
100
AcDbSpline
 70
8
 71
3
 72
8
 73
4
 74
0
 40
0
 40
0
 40
0
 40
0
 40
1
 40
1
 40
1
 40
1
 10
153.735419
 20
201.779395
 30
0.0
 10
154.286006
 20
201.779395
 30
0.0
 10
154.735304
 20
202.229241
 30
0.0
 10
154.735304
 20
202.779851
 30
0.0
  0
SPLINE
  5
1dd
100
AcDbEntity
  8
0
 62
7
100
AcDbSpline
 70
8
 71
3
 72
8
 73
4
 74
0
 40
0
 40
0
 40
0
 40
0
 40
1
 40
1
 40
1
 40
1
 10
154.735304
 20
202.779851
 30
0.0
 10
154.735304
 20
203.330463
 30
0.0
 10
154.286035
 20
203.779755
 30
0.0
 10
153.735419
 20
203.779755
 30
0.0
  0
LINE
  5
1de
100
AcDbEntity
  8
0
 62
7
100
AcDbLine
 10
153.735419
 20
203.779755
 30
0.0
 11
153.735419
 21
203.779755
 31
0.0
  0
SPLINE
  5
1df
100
AcDbEntity
  8
0
 62
7
100
AcDbSpline
 70
8
 71
3
 72
8
 73
4
 74
0
 40
0
 40
0
 40
0
 40
0
 40
1
 40
1
 40
1
 40
1
 10
153.735419
 20
203.497533
 30
0.0
 10
154.133494
 20
203.497533
 30
0.0
 10
154.453082
 20
203.177939
 30
0.0
 10
154.453082
 20
202.779851
 30
0.0
  0
SPLINE
  5
1e0
100
AcDbEntity
  8
0
 62
7
100
AcDbSpline
 70
8
 71
3
 72
8
 73
4
 74
0
 40
0
 40
0
 40
0
 40
0
 40
1
 40
1
 40
1
 40
1
 10
154.453082
 20
202.779851
 30
0.0
 10
154.453082
 20
202.381762
 30
0.0
 10
154.133494
 20
202.061618
 30
0.0
 10
153.735419
 20
202.061618
 30
0.0
  0
SPLINE
  5
1e1
100
AcDbEntity
  8
0
 62
7
100
AcDbSpline
 70
8
 71
3
 72
8
 73
4
 74
0
 40
0
 40
0
 40
0
 40
0
 40
1
 40
1
 40
1
 40
1
 10
153.735419
 20
202.061618
 30
0.0
 10
153.337316
 20
202.061618
 30
0.0
 10
153.017728
 20
202.381762
 30
0.0
 10
153.017728
 20
202.779851
 30
0.0
  0
SPLINE
  5
1e2
100
AcDbEntity
  8
0
 62
7
100
AcDbSpline
 70
8
 71
3
 72
8
 73
4
 74
0
 40
0
 40
0
 40
0
 40
0
 40
1
 40
1
 40
1
 40
1
 10
153.017728
 20
202.779851
 30
0.0
 10
153.017728
 20
203.177939
 30
0.0
 10
153.337316
 20
203.497533
 30
0.0
 10
153.735419
 20
203.497533
 30
0.0
  0
LINE
  5
1e3
100
AcDbEntity
  8
0
 62
7
100
AcDbLine
 10
153.735419
 20
203.497533
 30
0.0
 11
153.735419
 21
203.497533
 31
0.0
  0
SPLINE
  5
1e4
100
AcDbEntity
  8
0
 62
7
100
AcDbSpline
 70
8
 71
3
 72
8
 73
4
 74
0
 40
0
 40
0
 40
0
 40
0
 40
1
 40
1
 40
1
 40
1
 10
153.735419
 20
245.293432
 30
0.0
 10
153.184804
 20
245.293430
 30
0.0
 10
152.735506
 20
244.844140
 30
0.0
 10
152.735506
 20
244.293527
 30
0.0
  0
SPLINE
  5
1e5
100
AcDbEntity
  8
0
 62
7
100
AcDbSpline
 70
8
 71
3
 72
8
 73
4
 74
0
 40
0
 40
0
 40
0
 40
0
 40
1
 40
1
 40
1
 40
1
 10
152.735506
 20
244.293527
 30
0.0
 10
152.735506
 20
243.742915
 30
0.0
 10
153.184804
 20
243.293624
 30
0.0
 10
153.735419
 20
243.293623
 30
0.0
  0
SPLINE
  5
1e6
100
AcDbEntity
  8
0
 62
7
100
AcDbSpline
 70
8
 71
3
 72
8
 73
4
 74
0
 40
0
 40
0
 40
0
 40
0
 40
1
 40
1
 40
1
 40
1
 10
153.735419
 20
243.293623
 30
0.0
 10
154.286035
 20
243.293624
 30
0.0
 10
154.735304
 20
243.742915
 30
0.0
 10
154.735304
 20
244.293527
 30
0.0
  0
SPLINE
  5
1e7
100
AcDbEntity
  8
0
 62
7
100
AcDbSpline
 70
8
 71
3
 72
8
 73
4
 74
0
 40
0
 40
0
 40
0
 40
0
 40
1
 40
1
 40
1
 40
1
 10
154.735304
 20
244.293527
 30
0.0
 10
154.735304
 20
244.844140
 30
0.0
 10
154.286035
 20
245.293430
 30
0.0
 10
153.735419
 20
245.293432
 30
0.0
  0
LINE
  5
1e8
100
AcDbEntity
  8
0
 62
7
100
AcDbLine
 10
153.735419
 20
245.293432
 30
0.0
 11
153.735419
 21
245.293432
 31
0.0
  0
SPLINE
  5
1e9
100
AcDbEntity
  8
0
 62
7
100
AcDbSpline
 70
8
 71
3
 72
8
 73
4
 74
0
 40
0
 40
0
 40
0
 40
0
 40
1
 40
1
 40
1
 40
1
 10
153.735419
 20
245.011210
 30
0.0
 10
154.133494
 20
245.011209
 30
0.0
 10
154.453082
 20
244.691616
 30
0.0
 10
154.453082
 20
244.293527
 30
0.0
  0
SPLINE
  5
1ea
100
AcDbEntity
  8
0
 62
7
100
AcDbSpline
 70
8
 71
3
 72
8
 73
4
 74
0
 40
0
 40
0
 40
0
 40
0
 40
1
 40
1
 40
1
 40
1
 10
154.453082
 20
244.293527
 30
0.0
 10
154.453082
 20
243.895439
 30
0.0
 10
154.133494
 20
243.575846
 30
0.0
 10
153.735419
 20
243.575845
 30
0.0
  0
SPLINE
  5
1eb
100
AcDbEntity
  8
0
 62
7
100
AcDbSpline
 70
8
 71
3
 72
8
 73
4
 74
0
 40
0
 40
0
 40
0
 40
0
 40
1
 40
1
 40
1
 40
1
 10
153.735419
 20
243.575845
 30
0.0
 10
153.337316
 20
243.575846
 30
0.0
 10
153.017728
 20
243.895439
 30
0.0
 10
153.017728
 20
244.293527
 30
0.0
  0
SPLINE
  5
1ec
100
AcDbEntity
  8
0
 62
7
100
AcDbSpline
 70
8
 71
3
 72
8
 73
4
 74
0
 40
0
 40
0
 40
0
 40
0
 40
1
 40
1
 40
1
 40
1
 10
153.017728
 20
244.293527
 30
0.0
 10
153.017728
 20
244.691616
 30
0.0
 10
153.337316
 20
245.011209
 30
0.0
 10
153.735419
 20
245.011210
 30
0.0
  0
LINE
  5
1ed
100
AcDbEntity
  8
0
 62
7
100
AcDbLine
 10
153.735419
 20
245.011210
 30
0.0
 11
153.735419
 21
245.011210
 31
0.0
  0
SPLINE
  5
1ee
100
AcDbEntity
  8
0
 62
7
100
AcDbSpline
 70
8
 71
3
 72
8
 73
4
 74
0
 40
0
 40
0
 40
0
 40
0
 40
1
 40
1
 40
1
 40
1
 10
153.735419
 20
250.774165
 30
0.0
 10
153.184804
 20
250.774164
 30
0.0
 10
152.735506
 20
250.324322
 30
0.0
 10
152.735506
 20
249.773710
 30
0.0
  0
SPLINE
  5
1ef
100
AcDbEntity
  8
0
 62
7
100
AcDbSpline
 70
8
 71
3
 72
8
 73
4
 74
0
 40
0
 40
0
 40
0
 40
0
 40
1
 40
1
 40
1
 40
1
 10
152.735506
 20
249.773710
 30
0.0
 10
152.735506
 20
249.223097
 30
0.0
 10
153.184804
 20
248.773806
 30
0.0
 10
153.735419
 20
248.773805
 30
0.0
  0
SPLINE
  5
1f0
100
AcDbEntity
  8
0
 62
7
100
AcDbSpline
 70
8
 71
3
 72
8
 73
4
 74
0
 40
0
 40
0
 40
0
 40
0
 40
1
 40
1
 40
1
 40
1
 10
153.735419
 20
248.773805
 30
0.0
 10
154.286035
 20
248.773806
 30
0.0
 10
154.735304
 20
249.223097
 30
0.0
 10
154.735304
 20
249.773710
 30
0.0
  0
SPLINE
  5
1f1
100
AcDbEntity
  8
0
 62
7
100
AcDbSpline
 70
8
 71
3
 72
8
 73
4
 74
0
 40
0
 40
0
 40
0
 40
0
 40
1
 40
1
 40
1
 40
1
 10
154.735304
 20
249.773710
 30
0.0
 10
154.735304
 20
250.324322
 30
0.0
 10
154.286035
 20
250.774164
 30
0.0
 10
153.735419
 20
250.774165
 30
0.0
  0
LINE
  5
1f2
100
AcDbEntity
  8
0
 62
7
100
AcDbLine
 10
153.735419
 20
250.774165
 30
0.0
 11
153.735419
 21
250.774165
 31
0.0
  0
SPLINE
  5
1f3
100
AcDbEntity
  8
0
 62
7
100
AcDbSpline
 70
8
 71
3
 72
8
 73
4
 74
0
 40
0
 40
0
 40
0
 40
0
 40
1
 40
1
 40
1
 40
1
 10
153.735419
 20
250.491943
 30
0.0
 10
154.133494
 20
250.491942
 30
0.0
 10
154.453082
 20
250.171798
 30
0.0
 10
154.453082
 20
249.773710
 30
0.0
  0
SPLINE
  5
1f4
100
AcDbEntity
  8
0
 62
7
100
AcDbSpline
 70
8
 71
3
 72
8
 73
4
 74
0
 40
0
 40
0
 40
0
 40
0
 40
1
 40
1
 40
1
 40
1
 10
154.453082
 20
249.773710
 30
0.0
 10
154.453082
 20
249.375621
 30
0.0
 10
154.133494
 20
249.056028
 30
0.0
 10
153.735419
 20
249.056027
 30
0.0
  0
SPLINE
  5
1f5
100
AcDbEntity
  8
0
 62
7
100
AcDbSpline
 70
8
 71
3
 72
8
 73
4
 74
0
 40
0
 40
0
 40
0
 40
0
 40
1
 40
1
 40
1
 40
1
 10
153.735419
 20
249.056027
 30
0.0
 10
153.337316
 20
249.056028
 30
0.0
 10
153.017728
 20
249.375621
 30
0.0
 10
153.017728
 20
249.773710
 30
0.0
  0
SPLINE
  5
1f6
100
AcDbEntity
  8
0
 62
7
100
AcDbSpline
 70
8
 71
3
 72
8
 73
4
 74
0
 40
0
 40
0
 40
0
 40
0
 40
1
 40
1
 40
1
 40
1
 10
153.017728
 20
249.773710
 30
0.0
 10
153.017728
 20
250.171798
 30
0.0
 10
153.337316
 20
250.491942
 30
0.0
 10
153.735419
 20
250.491943
 30
0.0
  0
LINE
  5
1f7
100
AcDbEntity
  8
0
 62
7
100
AcDbLine
 10
153.735419
 20
250.491943
 30
0.0
 11
153.735419
 21
250.491943
 31
0.0
  0
SPLINE
  5
1f8
100
AcDbEntity
  8
0
 62
7
100
AcDbSpline
 70
8
 71
3
 72
8
 73
4
 74
0
 40
0
 40
0
 40
0
 40
0
 40
1
 40
1
 40
1
 40
1
 10
153.735419
 20
229.816960
 30
0.0
 10
153.184804
 20
229.816960
 30
0.0
 10
152.735506
 20
229.367117
 30
0.0
 10
152.735506
 20
228.816504
 30
0.0
  0
SPLINE
  5
1f9
100
AcDbEntity
  8
0
 62
7
100
AcDbSpline
 70
8
 71
3
 72
8
 73
4
 74
0
 40
0
 40
0
 40
0
 40
0
 40
1
 40
1
 40
1
 40
1
 10
152.735506
 20
228.816504
 30
0.0
 10
152.735506
 20
228.265894
 30
0.0
 10
153.184804
 20
227.816602
 30
0.0
 10
153.735419
 20
227.816599
 30
0.0
  0
SPLINE
  5
1fa
100
AcDbEntity
  8
0
 62
7
100
AcDbSpline
 70
8
 71
3
 72
8
 73
4
 74
0
 40
0
 40
0
 40
0
 40
0
 40
1
 40
1
 40
1
 40
1
 10
153.735419
 20
227.816599
 30
0.0
 10
154.286006
 20
227.816602
 30
0.0
 10
154.735304
 20
228.265894
 30
0.0
 10
154.735304
 20
228.816504
 30
0.0
  0
SPLINE
  5
1fb
100
AcDbEntity
  8
0
 62
7
100
AcDbSpline
 70
8
 71
3
 72
8
 73
4
 74
0
 40
0
 40
0
 40
0
 40
0
 40
1
 40
1
 40
1
 40
1
 10
154.735304
 20
228.816504
 30
0.0
 10
154.735304
 20
229.367117
 30
0.0
 10
154.286035
 20
229.816960
 30
0.0
 10
153.735419
 20
229.816960
 30
0.0
  0
LINE
  5
1fc
100
AcDbEntity
  8
0
 62
7
100
AcDbLine
 10
153.735419
 20
229.816960
 30
0.0
 11
153.735419
 21
229.816960
 31
0.0
  0
SPLINE
  5
1fd
100
AcDbEntity
  8
0
 62
7
100
AcDbSpline
 70
8
 71
3
 72
8
 73
4
 74
0
 40
0
 40
0
 40
0
 40
0
 40
1
 40
1
 40
1
 40
1
 10
153.735419
 20
229.534737
 30
0.0
 10
154.133494
 20
229.534737
 30
0.0
 10
154.453082
 20
229.214593
 30
0.0
 10
154.453082
 20
228.816504
 30
0.0
  0
SPLINE
  5
1fe
100
AcDbEntity
  8
0
 62
7
100
AcDbSpline
 70
8
 71
3
 72
8
 73
4
 74
0
 40
0
 40
0
 40
0
 40
0
 40
1
 40
1
 40
1
 40
1
 10
154.453082
 20
228.816504
 30
0.0
 10
154.453082
 20
228.418416
 30
0.0
 10
154.133494
 20
228.098825
 30
0.0
 10
153.735419
 20
228.098822
 30
0.0
  0
SPLINE
  5
1ff
100
AcDbEntity
  8
0
 62
7
100
AcDbSpline
 70
8
 71
3
 72
8
 73
4
 74
0
 40
0
 40
0
 40
0
 40
0
 40
1
 40
1
 40
1
 40
1
 10
153.735419
 20
228.098822
 30
0.0
 10
153.337316
 20
228.098825
 30
0.0
 10
153.017728
 20
228.418416
 30
0.0
 10
153.017728
 20
228.816504
 30
0.0
  0
SPLINE
  5
200
100
AcDbEntity
  8
0
 62
7
100
AcDbSpline
 70
8
 71
3
 72
8
 73
4
 74
0
 40
0
 40
0
 40
0
 40
0
 40
1
 40
1
 40
1
 40
1
 10
153.017728
 20
228.816504
 30
0.0
 10
153.017728
 20
229.214593
 30
0.0
 10
153.337316
 20
229.534737
 30
0.0
 10
153.735419
 20
229.534737
 30
0.0
  0
LINE
  5
201
100
AcDbEntity
  8
0
 62
7
100
AcDbLine
 10
153.735419
 20
229.534737
 30
0.0
 11
153.735419
 21
229.534737
 31
0.0
  0
SPLINE
  5
202
100
AcDbEntity
  8
0
 62
7
100
AcDbSpline
 70
8
 71
3
 72
8
 73
4
 74
0
 40
0
 40
0
 40
0
 40
0
 40
1
 40
1
 40
1
 40
1
 10
153.735419
 20
218.691782
 30
0.0
 10
153.184804
 20
218.691782
 30
0.0
 10
152.735506
 20
218.242490
 30
0.0
 10
152.735506
 20
217.691877
 30
0.0
  0
SPLINE
  5
203
100
AcDbEntity
  8
0
 62
7
100
AcDbSpline
 70
8
 71
3
 72
8
 73
4
 74
0
 40
0
 40
0
 40
0
 40
0
 40
1
 40
1
 40
1
 40
1
 10
152.735506
 20
217.691877
 30
0.0
 10
152.735506
 20
217.141265
 30
0.0
 10
153.184804
 20
216.691975
 30
0.0
 10
153.735419
 20
216.691972
 30
0.0
  0
SPLINE
  5
204
100
AcDbEntity
  8
0
 62
7
100
AcDbSpline
 70
8
 71
3
 72
8
 73
4
 74
0
 40
0
 40
0
 40
0
 40
0
 40
1
 40
1
 40
1
 40
1
 10
153.735419
 20
216.691972
 30
0.0
 10
154.286035
 20
216.691975
 30
0.0
 10
154.735304
 20
217.141265
 30
0.0
 10
154.735304
 20
217.691877
 30
0.0
  0
SPLINE
  5
205
100
AcDbEntity
  8
0
 62
7
100
AcDbSpline
 70
8
 71
3
 72
8
 73
4
 74
0
 40
0
 40
0
 40
0
 40
0
 40
1
 40
1
 40
1
 40
1
 10
154.735304
 20
217.691877
 30
0.0
 10
154.735304
 20
218.242490
 30
0.0
 10
154.286035
 20
218.691782
 30
0.0
 10
153.735419
 20
218.691782
 30
0.0
  0
LINE
  5
206
100
AcDbEntity
  8
0
 62
7
100
AcDbLine
 10
153.735419
 20
218.691782
 30
0.0
 11
153.735419
 21
218.691782
 31
0.0
  0
SPLINE
  5
207
100
AcDbEntity
  8
0
 62
7
100
AcDbSpline
 70
8
 71
3
 72
8
 73
4
 74
0
 40
0
 40
0
 40
0
 40
0
 40
1
 40
1
 40
1
 40
1
 10
153.735419
 20
218.409560
 30
0.0
 10
154.133494
 20
218.409560
 30
0.0
 10
154.453082
 20
218.089966
 30
0.0
 10
154.453082
 20
217.691877
 30
0.0
  0
SPLINE
  5
208
100
AcDbEntity
  8
0
 62
7
100
AcDbSpline
 70
8
 71
3
 72
8
 73
4
 74
0
 40
0
 40
0
 40
0
 40
0
 40
1
 40
1
 40
1
 40
1
 10
154.453082
 20
217.691877
 30
0.0
 10
154.453082
 20
217.293789
 30
0.0
 10
154.133494
 20
216.974197
 30
0.0
 10
153.735419
 20
216.974195
 30
0.0
  0
SPLINE
  5
209
100
AcDbEntity
  8
0
 62
7
100
AcDbSpline
 70
8
 71
3
 72
8
 73
4
 74
0
 40
0
 40
0
 40
0
 40
0
 40
1
 40
1
 40
1
 40
1
 10
153.735419
 20
216.974195
 30
0.0
 10
153.337316
 20
216.974197
 30
0.0
 10
153.017728
 20
217.293789
 30
0.0
 10
153.017728
 20
217.691877
 30
0.0
  0
SPLINE
  5
20a
100
AcDbEntity
  8
0
 62
7
100
AcDbSpline
 70
8
 71
3
 72
8
 73
4
 74
0
 40
0
 40
0
 40
0
 40
0
 40
1
 40
1
 40
1
 40
1
 10
153.017728
 20
217.691877
 30
0.0
 10
153.017728
 20
218.089966
 30
0.0
 10
153.337316
 20
218.409560
 30
0.0
 10
153.735419
 20
218.409560
 30
0.0
  0
LINE
  5
20b
100
AcDbEntity
  8
0
 62
7
100
AcDbLine
 10
153.735419
 20
218.409560
 30
0.0
 11
153.735419
 21
218.409560
 31
0.0
  0
SPLINE
  5
20c
100
AcDbEntity
  8
0
 62
7
100
AcDbSpline
 70
8
 71
3
 72
8
 73
4
 74
0
 40
0
 40
0
 40
0
 40
0
 40
1
 40
1
 40
1
 40
1
 10
153.735419
 20
188.867729
 30
0.0
 10
153.184804
 20
188.867729
 30
0.0
 10
152.735506
 20
188.417886
 30
0.0
 10
152.735506
 20
187.867273
 30
0.0
  0
SPLINE
  5
20d
100
AcDbEntity
  8
0
 62
7
100
AcDbSpline
 70
8
 71
3
 72
8
 73
4
 74
0
 40
0
 40
0
 40
0
 40
0
 40
1
 40
1
 40
1
 40
1
 10
152.735506
 20
187.867273
 30
0.0
 10
152.735506
 20
187.316661
 30
0.0
 10
153.184804
 20
186.867369
 30
0.0
 10
153.735419
 20
186.867369
 30
0.0
  0
SPLINE
  5
20e
100
AcDbEntity
  8
0
 62
7
100
AcDbSpline
 70
8
 71
3
 72
8
 73
4
 74
0
 40
0
 40
0
 40
0
 40
0
 40
1
 40
1
 40
1
 40
1
 10
153.735419
 20
186.867369
 30
0.0
 10
154.286035
 20
186.867369
 30
0.0
 10
154.735304
 20
187.316661
 30
0.0
 10
154.735304
 20
187.867273
 30
0.0
  0
SPLINE
  5
20f
100
AcDbEntity
  8
0
 62
7
100
AcDbSpline
 70
8
 71
3
 72
8
 73
4
 74
0
 40
0
 40
0
 40
0
 40
0
 40
1
 40
1
 40
1
 40
1
 10
154.735304
 20
187.867273
 30
0.0
 10
154.735304
 20
188.417886
 30
0.0
 10
154.286035
 20
188.867729
 30
0.0
 10
153.735419
 20
188.867729
 30
0.0
  0
LINE
  5
210
100
AcDbEntity
  8
0
 62
7
100
AcDbLine
 10
153.735419
 20
188.867729
 30
0.0
 11
153.735419
 21
188.867729
 31
0.0
  0
SPLINE
  5
211
100
AcDbEntity
  8
0
 62
7
100
AcDbSpline
 70
8
 71
3
 72
8
 73
4
 74
0
 40
0
 40
0
 40
0
 40
0
 40
1
 40
1
 40
1
 40
1
 10
153.735419
 20
188.585506
 30
0.0
 10
154.133494
 20
188.585506
 30
0.0
 10
154.453082
 20
188.265362
 30
0.0
 10
154.453082
 20
187.867273
 30
0.0
  0
SPLINE
  5
212
100
AcDbEntity
  8
0
 62
7
100
AcDbSpline
 70
8
 71
3
 72
8
 73
4
 74
0
 40
0
 40
0
 40
0
 40
0
 40
1
 40
1
 40
1
 40
1
 10
154.453082
 20
187.867273
 30
0.0
 10
154.453082
 20
187.469185
 30
0.0
 10
154.133494
 20
187.149591
 30
0.0
 10
153.735419
 20
187.149591
 30
0.0
  0
SPLINE
  5
213
100
AcDbEntity
  8
0
 62
7
100
AcDbSpline
 70
8
 71
3
 72
8
 73
4
 74
0
 40
0
 40
0
 40
0
 40
0
 40
1
 40
1
 40
1
 40
1
 10
153.735419
 20
187.149591
 30
0.0
 10
153.337316
 20
187.149591
 30
0.0
 10
153.017728
 20
187.469185
 30
0.0
 10
153.017728
 20
187.867273
 30
0.0
  0
SPLINE
  5
214
100
AcDbEntity
  8
0
 62
7
100
AcDbSpline
 70
8
 71
3
 72
8
 73
4
 74
0
 40
0
 40
0
 40
0
 40
0
 40
1
 40
1
 40
1
 40
1
 10
153.017728
 20
187.867273
 30
0.0
 10
153.017728
 20
188.265362
 30
0.0
 10
153.337316
 20
188.585506
 30
0.0
 10
153.735419
 20
188.585506
 30
0.0
  0
LINE
  5
215
100
AcDbEntity
  8
0
 62
7
100
AcDbLine
 10
153.735419
 20
188.585506
 30
0.0
 11
153.735419
 21
188.585506
 31
0.0
  0
LINE
  5
216
100
AcDbEntity
  8
0
 62
7
100
AcDbLine
 10
307.534877
 20
77.017339
 30
0.0
 11
194.275647
 21
93.222999
 31
0.0
  0
LINE
  5
217
100
AcDbEntity
  8
0
 62
7
100
AcDbLine
 10
194.275647
 20
93.222999
 30
0.0
 11
153.843235
 21
0.131329
 31
0.0
  0
LINE
  5
218
100
AcDbEntity
  8
0
 62
7
100
AcDbLine
 10
153.843235
 20
0.131329
 30
0.0
 11
113.410805
 21
93.223002
 31
0.0
  0
LINE
  5
219
100
AcDbEntity
  8
0
 62
7
100
AcDbLine
 10
113.410805
 20
93.223002
 30
0.0
 11
0.151575
 21
77.017340
 31
0.0
  0
LINE
  5
21a
100
AcDbEntity
  8
0
 62
7
100
AcDbLine
 10
0.151575
 20
77.017340
 30
0.0
 11
72.978392
 21
153.903354
 31
0.0
  0
LINE
  5
21b
100
AcDbEntity
  8
0
 62
7
100
AcDbLine
 10
72.978392
 20
153.903354
 30
0.0
 11
0.151575
 21
230.789361
 31
0.0
  0
LINE
  5
21c
100
AcDbEntity
  8
0
 62
7
100
AcDbLine
 10
0.151575
 20
230.789361
 30
0.0
 11
113.410805
 21
214.583701
 31
0.0
  0
LINE
  5
21d
100
AcDbEntity
  8
0
 62
7
100
AcDbLine
 10
113.410805
 20
214.583701
 30
0.0
 11
153.843235
 21
307.675371
 31
0.0
  0
LINE
  5
21e
100
AcDbEntity
  8
0
 62
7
100
AcDbLine
 10
153.843235
 20
307.675371
 30
0.0
 11
194.275647
 21
214.583698
 31
0.0
  0
LINE
  5
21f
100
AcDbEntity
  8
0
 62
7
100
AcDbLine
 10
194.275647
 20
214.583698
 30
0.0
 11
307.534877
 21
230.789361
 31
0.0
  0
LINE
  5
220
100
AcDbEntity
  8
0
 62
7
100
AcDbLine
 10
307.534877
 20
230.789361
 30
0.0
 11
234.708077
 21
153.903346
 31
0.0
  0
LINE
  5
221
100
AcDbEntity
  8
0
 62
7
100
AcDbLine
 10
234.708077
 20
153.903346
 30
0.0
 11
307.534877
 21
77.017339
 31
0.0
  0
ENDSEC
  0
SECTION
  2
OBJECTS
  0
DICTIONARY
  5
C
330
0
100
AcDbDictionary
  3
ACAD_GROUP
350
D
  3
ACAD_MLINESTYLE
350
17
  0
DICTIONARY
  5
D
330
C
100
AcDbDictionary
  0
DICTIONARY
  5
1A
330
C
100
AcDbDictionary
  0
DICTIONARY
  5
17
330
C
100
AcDbDictionary
  3
STANDARD
350
18
  0
DICTIONARY
  5
19
330
C
100
AcDbDictionary
  0
ENDSEC
  0
EOF
