  0
SECTION
  2
HEADER
  9
$ACADVER
  1
AC1014
  9
$HANDSEED
  5
FFFF
  9
$MEASUREMENT
 70
     1
  0
ENDSEC
  0
SECTION
  2
TABLES
  0
TABLE
  2
VPORT
  5
8
330
0
100
AcDbSymbolTable
 70
     4
  0
VPORT
  5
2E
330
8
100
AcDbSymbolTableRecord
100
AcDbViewportTableRecord
  2
*ACTIVE
 70
     0
 10
0.0
 20
0.0
 11
1.0
 21
1.0
 12
210.0
 22
148.5
 13
0.0
 23
0.0
 14
10.0
 24
10.0
 15
10.0
 25
10.0
 16
0.0
 26
0.0
 36
1.0
 17
0.0
 27
0.0
 37
0.0
 40
341.0
 41
1.24
 42
50.0
 43
0.0
 44
0.0
 50
0.0
 51
0.0
 71
     0
 72
   100
 73
     1
 74
     3
 75
     0
 76
     0
 77
     0
 78
     0
  0
ENDTAB
  0
TABLE
  2
LTYPE
  5
5
330
0
100
AcDbSymbolTable
 70
     1
  0
LTYPE
  5
14
330
5
100
AcDbSymbolTableRecord
100
AcDbLinetypeTableRecord
  2
BYBLOCK
 70
     0
  3

 72
    65
 73
     0
 40
0.0
  0
LTYPE
  5
15
330
5
100
AcDbSymbolTableRecord
100
AcDbLinetypeTableRecord
  2
BYLAYER
 70
     0
  3

 72
    65
 73
     0
 40
0.0
  0
LTYPE
  5
16
330
5
100
AcDbSymbolTableRecord
100
AcDbLinetypeTableRecord
  2
CONTINUOUS
 70
     0
  3
Solid line
 72
    65
 73
     0
 40
0.0
  0
ENDTAB
  0
TABLE
  2
LAYER
  5
2
100
AcDbSymbolTable
 70
2
  0
LAYER
  5
50
100
AcDbSymbolTableRecord
100
AcDbLayerTableRecord
  2
0
 70
0
  6
CONTINUOUS
  0
LAYER
  5
51
100
AcDbSymbolTableRecord
100
AcDbLayerTableRecord
  2
Calque_1
 70
0
  6
CONTINUOUS
  0
ENDTAB
  0
TABLE
  2
STYLE
  5
3
330
0
100
AcDbSymbolTable
 70
     1
  0
STYLE
  5
11
330
3
100
AcDbSymbolTableRecord
100
AcDbTextStyleTableRecord
  2
STANDARD
 70
     0
 40
0.0
 41
1.0
 50
0.0
 71
     0
 42
2.5
  3
txt
  4

  0
ENDTAB
  0
TABLE
  2
VIEW
  5
6
330
0
100
AcDbSymbolTable
 70
     0
  0
ENDTAB
  0
TABLE
  2
UCS
  5
7
330
0
100
AcDbSymbolTable
 70
     0
  0
ENDTAB
  0
TABLE
  2
APPID
  5
9
330
0
100
AcDbSymbolTable
 70
     2
  0
APPID
  5
12
330
9
100
AcDbSymbolTableRecord
100
AcDbRegAppTableRecord
  2
ACAD
 70
     0
  0
ENDTAB
  0
TABLE
  2
DIMSTYLE
  5
A
330
0
100
AcDbSymbolTable
 70
     1
  0
DIMSTYLE
105
27
330
A
100
AcDbSymbolTableRecord
100
AcDbDimStyleTableRecord
  2
ISO-25
 70
     0
  3

  4

  5

  6

  7

 40
1.0
 41
2.5
 42
0.625
 43
3.75
 44
1.25
 45
0.0
 46
0.0
 47
0.0
 48
0.0
140
2.5
141
2.5
142
0.0
143
0.03937007874016
144
1.0
145
0.0
146
1.0
147
0.625
 71
     0
 72
     0
 73
     0
 74
     0
 75
     0
 76
     0
 77
     1
 78
     8
170
     0
171
     3
172
     1
173
     0
174
     0
175
     0
176
     0
177
     0
178
     0
270
     2
271
     2
272
     2
273
     2
274
     3
340
11
275
     0
280
     0
281
     0
282
     0
283
     0
284
     8
285
     0
286
     0
287
     3
288
     0
  0
ENDTAB
  0
TABLE
  2
BLOCK_RECORD
  5
1
330
0
100
AcDbSymbolTable
 70
     1
  0
BLOCK_RECORD
  5
1F
330
1
100
AcDbSymbolTableRecord
100
AcDbBlockTableRecord
  2
*MODEL_SPACE
  0
BLOCK_RECORD
  5
1B
330
1
100
AcDbSymbolTableRecord
100
AcDbBlockTableRecord
  2
*PAPER_SPACE
  0
ENDTAB
  0
ENDSEC
  0
SECTION
  2
BLOCKS
  0
BLOCK
  5
20
330
1F
100
AcDbEntity
  8
0
100
AcDbBlockBegin
  2
*MODEL_SPACE
 70
     0
 10
0.0
 20
0.0
 30
0.0
  3
*MODEL_SPACE
  1

  0
ENDBLK
  5
21
330
1F
100
AcDbEntity
  8
0
100
AcDbBlockEnd
  0
BLOCK
  5
1C
330
1B
100
AcDbEntity
 67
     1
  8
0
100
AcDbBlockBegin
  2
*PAPER_SPACE
  1

  0
ENDBLK
  5
1D
330
1B
100
AcDbEntity
 67
     1
  8
0
100
AcDbBlockEnd
  0
ENDSEC
  0
SECTION
  2
ENTITIES
  0
LINE
  5
100
100
AcDbEntity
  8
Calque_1
 62
7
100
AcDbLine
 10
10.482540
 20
260.981262
 30
0.0
 11
90.200318
 21
260.981262
 31
0.0
  0
LINE
  5
101
100
AcDbEntity
  8
Calque_1
 62
7
100
AcDbLine
 10
90.200318
 20
260.981262
 30
0.0
 11
90.200318
 21
211.263483
 31
0.0
  0
LINE
  5
102
100
AcDbEntity
  8
Calque_1
 62
7
100
AcDbLine
 10
90.200318
 20
211.263483
 30
0.0
 11
10.482540
 21
211.263483
 31
0.0
  0
LINE
  5
103
100
AcDbEntity
  8
Calque_1
 62
7
100
AcDbLine
 10
10.482540
 20
211.263483
 30
0.0
 11
10.482540
 21
260.981262
 31
0.0
  0
SPLINE
  5
104
100
AcDbEntity
  8
Calque_1
 62
7
100
AcDbSpline
 70
8
 71
3
 72
8
 73
4
 74
0
 40
0
 40
0
 40
0
 40
0
 40
1
 40
1
 40
1
 40
1
 10
15.200334
 20
234.655951
 30
0.0
 10
15.319764
 20
234.615528
 30
0.0
 10
15.435519
 20
234.529170
 30
0.0
 10
15.547600
 20
234.396880
 30
0.0
  0
SPLINE
  5
105
100
AcDbEntity
  8
Calque_1
 62
7
100
AcDbSpline
 70
8
 71
3
 72
8
 73
4
 74
0
 40
0
 40
0
 40
0
 40
0
 40
1
 40
1
 40
1
 40
1
 10
15.547600
 20
234.396880
 30
0.0
 10
15.661518
 20
234.264587
 30
0.0
 10
15.775435
 20
234.082685
 30
0.0
 10
15.889353
 20
233.851175
 30
0.0
  0
LINE
  5
106
100
AcDbEntity
  8
Calque_1
 62
7
100
AcDbLine
 10
15.889353
 20
233.851175
 30
0.0
 11
16.454349
 21
232.726697
 31
0.0
  0
LINE
  5
107
100
AcDbEntity
  8
Calque_1
 62
7
100
AcDbLine
 10
16.454349
 20
232.726697
 30
0.0
 11
15.856280
 21
232.726697
 31
0.0
  0
LINE
  5
108
100
AcDbEntity
  8
Calque_1
 62
7
100
AcDbLine
 10
15.856280
 20
232.726697
 30
0.0
 11
15.329870
 21
233.782273
 31
0.0
  0
SPLINE
  5
109
100
AcDbEntity
  8
Calque_1
 62
7
100
AcDbSpline
 70
8
 71
3
 72
8
 73
4
 74
0
 40
0
 40
0
 40
0
 40
0
 40
1
 40
1
 40
1
 40
1
 10
15.329870
 20
233.782273
 30
0.0
 10
15.193903
 20
234.057882
 30
0.0
 10
15.061611
 20
234.240702
 30
0.0
 10
14.932995
 20
234.330732
 30
0.0
  0
SPLINE
  5
10a
100
AcDbEntity
  8
Calque_1
 62
7
100
AcDbSpline
 70
8
 71
3
 72
8
 73
4
 74
0
 40
0
 40
0
 40
0
 40
0
 40
1
 40
1
 40
1
 40
1
 10
14.932995
 20
234.330732
 30
0.0
 10
14.806215
 20
234.420765
 30
0.0
 10
14.632582
 20
234.465781
 30
0.0
 10
14.412096
 20
234.465781
 30
0.0
  0
LINE
  5
10b
100
AcDbEntity
  8
Calque_1
 62
7
100
AcDbLine
 10
14.412096
 20
234.465781
 30
0.0
 11
13.805759
 21
234.465781
 31
0.0
  0
LINE
  5
10c
100
AcDbEntity
  8
Calque_1
 62
7
100
AcDbLine
 10
13.805759
 20
234.465781
 30
0.0
 11
13.805759
 21
232.726697
 31
0.0
  0
LINE
  5
10d
100
AcDbEntity
  8
Calque_1
 62
7
100
AcDbLine
 10
13.805759
 20
232.726697
 30
0.0
 11
13.249032
 21
232.726697
 31
0.0
  0
LINE
  5
10e
100
AcDbEntity
  8
Calque_1
 62
7
100
AcDbLine
 10
13.249032
 20
232.726697
 30
0.0
 11
13.249032
 21
236.841520
 31
0.0
  0
LINE
  5
10f
100
AcDbEntity
  8
Calque_1
 62
7
100
AcDbLine
 10
13.249032
 20
236.841520
 30
0.0
 11
14.505803
 21
236.841520
 31
0.0
  0
SPLINE
  5
110
100
AcDbEntity
  8
Calque_1
 62
7
100
AcDbSpline
 70
8
 71
3
 72
8
 73
4
 74
0
 40
0
 40
0
 40
0
 40
0
 40
1
 40
1
 40
1
 40
1
 10
14.505803
 20
236.841520
 30
0.0
 10
14.976173
 20
236.841520
 30
0.0
 10
15.327114
 20
236.743219
 30
0.0
 10
15.558624
 20
236.546617
 30
0.0
  0
SPLINE
  5
111
100
AcDbEntity
  8
Calque_1
 62
7
100
AcDbSpline
 70
8
 71
3
 72
8
 73
4
 74
0
 40
0
 40
0
 40
0
 40
0
 40
1
 40
1
 40
1
 40
1
 10
15.558624
 20
236.546617
 30
0.0
 10
15.790134
 20
236.350017
 30
0.0
 10
15.905890
 20
236.053280
 30
0.0
 10
15.905890
 20
235.656406
 30
0.0
  0
SPLINE
  5
112
100
AcDbEntity
  8
Calque_1
 62
7
100
AcDbSpline
 70
8
 71
3
 72
8
 73
4
 74
0
 40
0
 40
0
 40
0
 40
0
 40
1
 40
1
 40
1
 40
1
 10
15.905890
 20
235.656406
 30
0.0
 10
15.905890
 20
235.397334
 30
0.0
 10
15.845256
 20
235.182360
 30
0.0
 10
15.723989
 20
235.011483
 30
0.0
  0
SPLINE
  5
113
100
AcDbEntity
  8
Calque_1
 62
7
100
AcDbSpline
 70
8
 71
3
 72
8
 73
4
 74
0
 40
0
 40
0
 40
0
 40
0
 40
1
 40
1
 40
1
 40
1
 10
15.723989
 20
235.011483
 30
0.0
 10
15.604558
 20
234.840607
 30
0.0
 10
15.430007
 20
234.722097
 30
0.0
 10
15.200334
 20
234.655951
 30
0.0
  0
LINE
  5
114
100
AcDbEntity
  8
Calque_1
 62
7
100
AcDbLine
 10
15.200334
 20
234.655951
 30
0.0
 11
15.200334
 21
234.655951
 31
0.0
  0
LINE
  5
115
100
AcDbEntity
  8
Calque_1
 62
7
100
AcDbLine
 10
13.805759
 20
236.384009
 30
0.0
 11
13.805759
 21
234.923289
 31
0.0
  0
LINE
  5
116
100
AcDbEntity
  8
Calque_1
 62
7
100
AcDbLine
 10
13.805759
 20
234.923289
 30
0.0
 11
14.505803
 21
234.923289
 31
0.0
  0
SPLINE
  5
117
100
AcDbEntity
  8
Calque_1
 62
7
100
AcDbSpline
 70
8
 71
3
 72
8
 73
4
 74
0
 40
0
 40
0
 40
0
 40
0
 40
1
 40
1
 40
1
 40
1
 10
14.505803
 20
234.923289
 30
0.0
 10
14.774061
 20
234.923289
 30
0.0
 10
14.976173
 20
234.984842
 30
0.0
 10
15.112140
 20
235.107947
 30
0.0
  0
SPLINE
  5
118
100
AcDbEntity
  8
Calque_1
 62
7
100
AcDbSpline
 70
8
 71
3
 72
8
 73
4
 74
0
 40
0
 40
0
 40
0
 40
0
 40
1
 40
1
 40
1
 40
1
 10
15.112140
 20
235.107947
 30
0.0
 10
15.249943
 20
235.232889
 30
0.0
 10
15.318845
 20
235.415708
 30
0.0
 10
15.318845
 20
235.656406
 30
0.0
  0
SPLINE
  5
119
100
AcDbEntity
  8
Calque_1
 62
7
100
AcDbSpline
 70
8
 71
3
 72
8
 73
4
 74
0
 40
0
 40
0
 40
0
 40
0
 40
1
 40
1
 40
1
 40
1
 10
15.318845
 20
235.656406
 30
0.0
 10
15.318845
 20
235.897102
 30
0.0
 10
15.249943
 20
236.078085
 30
0.0
 10
15.112140
 20
236.199354
 30
0.0
  0
SPLINE
  5
11a
100
AcDbEntity
  8
Calque_1
 62
7
100
AcDbSpline
 70
8
 71
3
 72
8
 73
4
 74
0
 40
0
 40
0
 40
0
 40
0
 40
1
 40
1
 40
1
 40
1
 10
15.112140
 20
236.199354
 30
0.0
 10
14.976173
 20
236.322457
 30
0.0
 10
14.774061
 20
236.384009
 30
0.0
 10
14.505803
 20
236.384009
 30
0.0
  0
LINE
  5
11b
100
AcDbEntity
  8
Calque_1
 62
7
100
AcDbLine
 10
14.505803
 20
236.384009
 30
0.0
 11
13.805759
 21
236.384009
 31
0.0
  0
LINE
  5
11c
100
AcDbEntity
  8
Calque_1
 62
7
100
AcDbLine
 10
13.805759
 20
236.384009
 30
0.0
 11
13.805759
 21
236.384009
 31
0.0
  0
LINE
  5
11d
100
AcDbEntity
  8
Calque_1
 62
7
100
AcDbLine
 10
19.538398
 20
234.396880
 30
0.0
 11
19.538398
 21
234.148832
 31
0.0
  0
LINE
  5
11e
100
AcDbEntity
  8
Calque_1
 62
7
100
AcDbLine
 10
19.538398
 20
234.148832
 30
0.0
 11
17.206758
 21
234.148832
 31
0.0
  0
SPLINE
  5
11f
100
AcDbEntity
  8
Calque_1
 62
7
100
AcDbSpline
 70
8
 71
3
 72
8
 73
4
 74
0
 40
0
 40
0
 40
0
 40
0
 40
1
 40
1
 40
1
 40
1
 10
17.206758
 20
234.148832
 30
0.0
 10
17.228806
 20
233.799728
 30
0.0
 10
17.333537
 20
233.533308
 30
0.0
 10
17.520950
 20
233.349570
 30
0.0
  0
SPLINE
  5
120
100
AcDbEntity
  8
Calque_1
 62
7
100
AcDbSpline
 70
8
 71
3
 72
8
 73
4
 74
0
 40
0
 40
0
 40
0
 40
0
 40
1
 40
1
 40
1
 40
1
 10
17.520950
 20
233.349570
 30
0.0
 10
17.710201
 20
233.167668
 30
0.0
 10
17.972947
 20
233.076717
 30
0.0
 10
18.309188
 20
233.076717
 30
0.0
  0
SPLINE
  5
121
100
AcDbEntity
  8
Calque_1
 62
7
100
AcDbSpline
 70
8
 71
3
 72
8
 73
4
 74
0
 40
0
 40
0
 40
0
 40
0
 40
1
 40
1
 40
1
 40
1
 10
18.309188
 20
233.076717
 30
0.0
 10
18.503951
 20
233.076717
 30
0.0
 10
18.692283
 20
233.100604
 30
0.0
 10
18.874184
 20
233.148377
 30
0.0
  0
SPLINE
  5
122
100
AcDbEntity
  8
Calque_1
 62
7
100
AcDbSpline
 70
8
 71
3
 72
8
 73
4
 74
0
 40
0
 40
0
 40
0
 40
0
 40
1
 40
1
 40
1
 40
1
 10
18.874184
 20
233.148377
 30
0.0
 10
19.057922
 20
233.196149
 30
0.0
 10
19.239823
 20
233.267807
 30
0.0
 10
19.419887
 20
233.363351
 30
0.0
  0
LINE
  5
123
100
AcDbEntity
  8
Calque_1
 62
7
100
AcDbLine
 10
19.419887
 20
233.363351
 30
0.0
 11
19.419887
 21
232.883793
 31
0.0
  0
SPLINE
  5
124
100
AcDbEntity
  8
Calque_1
 62
7
100
AcDbSpline
 70
8
 71
3
 72
8
 73
4
 74
0
 40
0
 40
0
 40
0
 40
0
 40
1
 40
1
 40
1
 40
1
 10
19.419887
 20
232.883793
 30
0.0
 10
19.237986
 20
232.806622
 30
0.0
 10
19.051491
 20
232.747826
 30
0.0
 10
18.860403
 20
232.707404
 30
0.0
  0
SPLINE
  5
125
100
AcDbEntity
  8
Calque_1
 62
7
100
AcDbSpline
 70
8
 71
3
 72
8
 73
4
 74
0
 40
0
 40
0
 40
0
 40
0
 40
1
 40
1
 40
1
 40
1
 10
18.860403
 20
232.707404
 30
0.0
 10
18.669315
 20
232.666983
 30
0.0
 10
18.475471
 20
232.646772
 30
0.0
 10
18.278871
 20
232.646772
 30
0.0
  0
SPLINE
  5
126
100
AcDbEntity
  8
Calque_1
 62
7
100
AcDbSpline
 70
8
 71
3
 72
8
 73
4
 74
0
 40
0
 40
0
 40
0
 40
0
 40
1
 40
1
 40
1
 40
1
 10
18.278871
 20
232.646772
 30
0.0
 10
17.786452
 20
232.646772
 30
0.0
 10
17.396008
 20
232.790087
 30
0.0
 10
17.107539
 20
233.076717
 30
0.0
  0
SPLINE
  5
127
100
AcDbEntity
  8
Calque_1
 62
7
100
AcDbSpline
 70
8
 71
3
 72
8
 73
4
 74
0
 40
0
 40
0
 40
0
 40
0
 40
1
 40
1
 40
1
 40
1
 10
17.107539
 20
233.076717
 30
0.0
 10
16.820907
 20
233.363350
 30
0.0
 10
16.677591
 20
233.751039
 30
0.0
 10
16.677591
 20
234.239783
 30
0.0
  0
SPLINE
  5
128
100
AcDbEntity
  8
Calque_1
 62
7
100
AcDbSpline
 70
8
 71
3
 72
8
 73
4
 74
0
 40
0
 40
0
 40
0
 40
0
 40
1
 40
1
 40
1
 40
1
 10
16.677591
 20
234.239783
 30
0.0
 10
16.677591
 20
234.745063
 30
0.0
 10
16.813557
 20
235.145612
 30
0.0
 10
17.085490
 20
235.441432
 30
0.0
  0
SPLINE
  5
129
100
AcDbEntity
  8
Calque_1
 62
7
100
AcDbSpline
 70
8
 71
3
 72
8
 73
4
 74
0
 40
0
 40
0
 40
0
 40
0
 40
1
 40
1
 40
1
 40
1
 10
17.085490
 20
235.441432
 30
0.0
 10
17.359261
 20
235.739088
 30
0.0
 10
17.727656
 20
235.887916
 30
0.0
 10
18.190677
 20
235.887916
 30
0.0
  0
SPLINE
  5
12a
100
AcDbEntity
  8
Calque_1
 62
7
100
AcDbSpline
 70
8
 71
3
 72
8
 73
4
 74
0
 40
0
 40
0
 40
0
 40
0
 40
1
 40
1
 40
1
 40
1
 10
18.190677
 20
235.887916
 30
0.0
 10
18.605926
 20
235.887916
 30
0.0
 10
18.933899
 20
235.753787
 30
0.0
 10
19.174596
 20
235.485529
 30
0.0
  0
SPLINE
  5
12b
100
AcDbEntity
  8
Calque_1
 62
7
100
AcDbSpline
 70
8
 71
3
 72
8
 73
4
 74
0
 40
0
 40
0
 40
0
 40
0
 40
1
 40
1
 40
1
 40
1
 10
19.174596
 20
235.485529
 30
0.0
 10
19.417131
 20
235.219108
 30
0.0
 10
19.538398
 20
234.856225
 30
0.0
 10
19.538398
 20
234.396880
 30
0.0
  0
LINE
  5
12c
100
AcDbEntity
  8
Calque_1
 62
7
100
AcDbLine
 10
19.538398
 20
234.396880
 30
0.0
 11
19.538398
 21
234.396880
 31
0.0
  0
SPLINE
  5
12d
100
AcDbEntity
  8
Calque_1
 62
7
100
AcDbSpline
 70
8
 71
3
 72
8
 73
4
 74
0
 40
0
 40
0
 40
0
 40
0
 40
1
 40
1
 40
1
 40
1
 10
19.031280
 20
234.545707
 30
0.0
 10
19.027606
 20
234.823152
 30
0.0
 10
18.949517
 20
235.044557
 30
0.0
 10
18.797014
 20
235.209922
 30
0.0
  0
SPLINE
  5
12e
100
AcDbEntity
  8
Calque_1
 62
7
100
AcDbSpline
 70
8
 71
3
 72
8
 73
4
 74
0
 40
0
 40
0
 40
0
 40
0
 40
1
 40
1
 40
1
 40
1
 10
18.797014
 20
235.209922
 30
0.0
 10
18.646348
 20
235.375286
 30
0.0
 10
18.446073
 20
235.457967
 30
0.0
 10
18.196189
 20
235.457967
 30
0.0
  0
SPLINE
  5
12f
100
AcDbEntity
  8
Calque_1
 62
7
100
AcDbSpline
 70
8
 71
3
 72
8
 73
4
 74
0
 40
0
 40
0
 40
0
 40
0
 40
1
 40
1
 40
1
 40
1
 10
18.196189
 20
235.457967
 30
0.0
 10
17.913232
 20
235.457967
 30
0.0
 10
17.686315
 20
235.378041
 30
0.0
 10
17.515438
 20
235.218189
 30
0.0
  0
SPLINE
  5
130
100
AcDbEntity
  8
Calque_1
 62
7
100
AcDbSpline
 70
8
 71
3
 72
8
 73
4
 74
0
 40
0
 40
0
 40
0
 40
0
 40
1
 40
1
 40
1
 40
1
 10
17.515438
 20
235.218189
 30
0.0
 10
17.346399
 20
235.058336
 30
0.0
 10
17.249018
 20
234.833257
 30
0.0
 10
17.223294
 20
234.542952
 30
0.0
  0
LINE
  5
131
100
AcDbEntity
  8
Calque_1
 62
7
100
AcDbLine
 10
17.223294
 20
234.542952
 30
0.0
 11
19.031280
 21
234.545774
 31
0.0
  0
LINE
  5
132
100
AcDbEntity
  8
Calque_1
 62
7
100
AcDbLine
 10
19.031280
 20
234.545774
 30
0.0
 11
19.031280
 21
234.545707
 31
0.0
  0
LINE
  5
133
100
AcDbEntity
  8
Calque_1
 62
7
100
AcDbLine
 10
18.543455
 20
237.241149
 30
0.0
 11
19.091914
 21
237.241149
 31
0.0
  0
LINE
  5
134
100
AcDbEntity
  8
Calque_1
 62
7
100
AcDbLine
 10
19.091914
 20
237.241149
 30
0.0
 11
18.193433
 21
236.204866
 31
0.0
  0
LINE
  5
135
100
AcDbEntity
  8
Calque_1
 62
7
100
AcDbLine
 10
18.193433
 20
236.204866
 30
0.0
 11
17.771753
 21
236.204866
 31
0.0
  0
LINE
  5
136
100
AcDbEntity
  8
Calque_1
 62
7
100
AcDbLine
 10
17.771753
 20
236.204866
 30
0.0
 11
18.543455
 21
237.241149
 31
0.0
  0
LINE
  5
137
100
AcDbEntity
  8
Calque_1
 62
7
100
AcDbLine
 10
18.543455
 20
237.241149
 30
0.0
 11
18.543455
 21
237.241149
 31
0.0
  0
LINE
  5
138
100
AcDbEntity
  8
Calque_1
 62
7
100
AcDbLine
 10
22.592131
 20
235.694992
 30
0.0
 11
22.592131
 21
235.220946
 31
0.0
  0
SPLINE
  5
139
100
AcDbEntity
  8
Calque_1
 62
7
100
AcDbSpline
 70
8
 71
3
 72
8
 73
4
 74
0
 40
0
 40
0
 40
0
 40
0
 40
1
 40
1
 40
1
 40
1
 10
22.592131
 20
235.220946
 30
0.0
 10
22.448815
 20
235.299953
 30
0.0
 10
22.304580
 20
235.358749
 30
0.0
 10
22.159427
 20
235.397335
 30
0.0
  0
SPLINE
  5
13a
100
AcDbEntity
  8
Calque_1
 62
7
100
AcDbSpline
 70
8
 71
3
 72
8
 73
4
 74
0
 40
0
 40
0
 40
0
 40
0
 40
1
 40
1
 40
1
 40
1
 10
22.159427
 20
235.397335
 30
0.0
 10
22.016111
 20
235.437757
 30
0.0
 10
21.870958
 20
235.457967
 30
0.0
 10
21.723967
 20
235.457967
 30
0.0
  0
SPLINE
  5
13b
100
AcDbEntity
  8
Calque_1
 62
7
100
AcDbSpline
 70
8
 71
3
 72
8
 73
4
 74
0
 40
0
 40
0
 40
0
 40
0
 40
1
 40
1
 40
1
 40
1
 10
21.723967
 20
235.457967
 30
0.0
 10
21.395075
 20
235.457967
 30
0.0
 10
21.139679
 20
235.353237
 30
0.0
 10
20.957778
 20
235.143775
 30
0.0
  0
SPLINE
  5
13c
100
AcDbEntity
  8
Calque_1
 62
7
100
AcDbSpline
 70
8
 71
3
 72
8
 73
4
 74
0
 40
0
 40
0
 40
0
 40
0
 40
1
 40
1
 40
1
 40
1
 10
20.957778
 20
235.143775
 30
0.0
 10
20.775877
 20
234.936152
 30
0.0
 10
20.684926
 20
234.644008
 30
0.0
 10
20.684926
 20
234.267342
 30
0.0
  0
SPLINE
  5
13d
100
AcDbEntity
  8
Calque_1
 62
7
100
AcDbSpline
 70
8
 71
3
 72
8
 73
4
 74
0
 40
0
 40
0
 40
0
 40
0
 40
1
 40
1
 40
1
 40
1
 10
20.684926
 20
234.267342
 30
0.0
 10
20.684926
 20
233.890679
 30
0.0
 10
20.775877
 20
233.597617
 30
0.0
 10
20.957778
 20
233.388155
 30
0.0
  0
SPLINE
  5
13e
100
AcDbEntity
  8
Calque_1
 62
7
100
AcDbSpline
 70
8
 71
3
 72
8
 73
4
 74
0
 40
0
 40
0
 40
0
 40
0
 40
1
 40
1
 40
1
 40
1
 10
20.957778
 20
233.388155
 30
0.0
 10
21.139679
 20
233.180530
 30
0.0
 10
21.395075
 20
233.076717
 30
0.0
 10
21.723967
 20
233.076717
 30
0.0
  0
SPLINE
  5
13f
100
AcDbEntity
  8
Calque_1
 62
7
100
AcDbSpline
 70
8
 71
3
 72
8
 73
4
 74
0
 40
0
 40
0
 40
0
 40
0
 40
1
 40
1
 40
1
 40
1
 10
21.723967
 20
233.076717
 30
0.0
 10
21.870958
 20
233.076717
 30
0.0
 10
22.016111
 20
233.096010
 30
0.0
 10
22.159427
 20
233.134596
 30
0.0
  0
SPLINE
  5
140
100
AcDbEntity
  8
Calque_1
 62
7
100
AcDbSpline
 70
8
 71
3
 72
8
 73
4
 74
0
 40
0
 40
0
 40
0
 40
0
 40
1
 40
1
 40
1
 40
1
 10
22.159427
 20
233.134596
 30
0.0
 10
22.304580
 20
233.175017
 30
0.0
 10
22.448815
 20
233.234733
 30
0.0
 10
22.592131
 20
233.313742
 30
0.0
  0
LINE
  5
141
100
AcDbEntity
  8
Calque_1
 62
7
100
AcDbLine
 10
22.592131
 20
233.313742
 30
0.0
 11
22.592131
 21
232.845208
 31
0.0
  0
SPLINE
  5
142
100
AcDbEntity
  8
Calque_1
 62
7
100
AcDbSpline
 70
8
 71
3
 72
8
 73
4
 74
0
 40
0
 40
0
 40
0
 40
0
 40
1
 40
1
 40
1
 40
1
 10
22.592131
 20
232.845208
 30
0.0
 10
22.450652
 20
232.779062
 30
0.0
 10
22.303662
 20
232.729453
 30
0.0
 10
22.151159
 20
232.696381
 30
0.0
  0
SPLINE
  5
143
100
AcDbEntity
  8
Calque_1
 62
7
100
AcDbSpline
 70
8
 71
3
 72
8
 73
4
 74
0
 40
0
 40
0
 40
0
 40
0
 40
1
 40
1
 40
1
 40
1
 10
22.151159
 20
232.696381
 30
0.0
 10
22.000493
 20
232.663308
 30
0.0
 10
21.839722
 20
232.646772
 30
0.0
 10
21.668845
 20
232.646772
 30
0.0
  0
SPLINE
  5
144
100
AcDbEntity
  8
Calque_1
 62
7
100
AcDbSpline
 70
8
 71
3
 72
8
 73
4
 74
0
 40
0
 40
0
 40
0
 40
0
 40
1
 40
1
 40
1
 40
1
 10
21.668845
 20
232.646772
 30
0.0
 10
21.203987
 20
232.646772
 30
0.0
 10
20.834673
 20
232.792843
 30
0.0
 10
20.560903
 20
233.084987
 30
0.0
  0
SPLINE
  5
145
100
AcDbEntity
  8
Calque_1
 62
7
100
AcDbSpline
 70
8
 71
3
 72
8
 73
4
 74
0
 40
0
 40
0
 40
0
 40
0
 40
1
 40
1
 40
1
 40
1
 10
20.560903
 20
233.084987
 30
0.0
 10
20.287132
 20
233.377130
 30
0.0
 10
20.150247
 20
233.771248
 30
0.0
 10
20.150247
 20
234.267342
 30
0.0
  0
SPLINE
  5
146
100
AcDbEntity
  8
Calque_1
 62
7
100
AcDbSpline
 70
8
 71
3
 72
8
 73
4
 74
0
 40
0
 40
0
 40
0
 40
0
 40
1
 40
1
 40
1
 40
1
 10
20.150247
 20
234.267342
 30
0.0
 10
20.150247
 20
234.770786
 30
0.0
 10
20.288051
 20
235.166742
 30
0.0
 10
20.563659
 20
235.455213
 30
0.0
  0
SPLINE
  5
147
100
AcDbEntity
  8
Calque_1
 62
7
100
AcDbSpline
 70
8
 71
3
 72
8
 73
4
 74
0
 40
0
 40
0
 40
0
 40
0
 40
1
 40
1
 40
1
 40
1
 10
20.563659
 20
235.455213
 30
0.0
 10
20.841104
 20
235.743682
 30
0.0
 10
21.220524
 20
235.887916
 30
0.0
 10
21.701918
 20
235.887916
 30
0.0
  0
SPLINE
  5
148
100
AcDbEntity
  8
Calque_1
 62
7
100
AcDbSpline
 70
8
 71
3
 72
8
 73
4
 74
0
 40
0
 40
0
 40
0
 40
0
 40
1
 40
1
 40
1
 40
1
 10
21.701918
 20
235.887916
 30
0.0
 10
21.858096
 20
235.887916
 30
0.0
 10
22.010599
 20
235.871380
 30
0.0
 10
22.159427
 20
235.838307
 30
0.0
  0
SPLINE
  5
149
100
AcDbEntity
  8
Calque_1
 62
7
100
AcDbSpline
 70
8
 71
3
 72
8
 73
4
 74
0
 40
0
 40
0
 40
0
 40
0
 40
1
 40
1
 40
1
 40
1
 10
22.159427
 20
235.838307
 30
0.0
 10
22.308255
 20
235.807071
 30
0.0
 10
22.452490
 20
235.759299
 30
0.0
 10
22.592131
 20
235.694992
 30
0.0
  0
LINE
  5
14a
100
AcDbEntity
  8
Calque_1
 62
7
100
AcDbLine
 10
22.592131
 20
235.694992
 30
0.0
 11
22.592131
 21
235.694992
 31
0.0
  0
LINE
  5
14b
100
AcDbEntity
  8
Calque_1
 62
7
100
AcDbLine
 10
23.427222
 20
233.944881
 30
0.0
 11
23.427222
 21
235.813503
 31
0.0
  0
LINE
  5
14c
100
AcDbEntity
  8
Calque_1
 62
7
100
AcDbLine
 10
23.427222
 20
235.813503
 30
0.0
 11
23.934340
 21
235.813503
 31
0.0
  0
LINE
  5
14d
100
AcDbEntity
  8
Calque_1
 62
7
100
AcDbLine
 10
23.934340
 20
235.813503
 30
0.0
 11
23.934340
 21
233.964174
 31
0.0
  0
SPLINE
  5
14e
100
AcDbEntity
  8
Calque_1
 62
7
100
AcDbSpline
 70
8
 71
3
 72
8
 73
4
 74
0
 40
0
 40
0
 40
0
 40
0
 40
1
 40
1
 40
1
 40
1
 10
23.934340
 20
233.964174
 30
0.0
 10
23.934340
 20
233.672030
 30
0.0
 10
23.991299
 20
233.452463
 30
0.0
 10
24.105217
 20
233.305473
 30
0.0
  0
SPLINE
  5
14f
100
AcDbEntity
  8
Calque_1
 62
7
100
AcDbSpline
 70
8
 71
3
 72
8
 73
4
 74
0
 40
0
 40
0
 40
0
 40
0
 40
1
 40
1
 40
1
 40
1
 10
24.105217
 20
233.305473
 30
0.0
 10
24.219135
 20
233.160320
 30
0.0
 10
24.390011
 20
233.087744
 30
0.0
 10
24.617847
 20
233.087744
 30
0.0
  0
SPLINE
  5
150
100
AcDbEntity
  8
Calque_1
 62
7
100
AcDbSpline
 70
8
 71
3
 72
8
 73
4
 74
0
 40
0
 40
0
 40
0
 40
0
 40
1
 40
1
 40
1
 40
1
 10
24.617847
 20
233.087744
 30
0.0
 10
24.891617
 20
233.087744
 30
0.0
 10
25.107510
 20
233.175019
 30
0.0
 10
25.265525
 20
233.349570
 30
0.0
  0
SPLINE
  5
151
100
AcDbEntity
  8
Calque_1
 62
7
100
AcDbSpline
 70
8
 71
3
 72
8
 73
4
 74
0
 40
0
 40
0
 40
0
 40
0
 40
1
 40
1
 40
1
 40
1
 10
25.265525
 20
233.349570
 30
0.0
 10
25.425377
 20
233.524121
 30
0.0
 10
25.505304
 20
233.762062
 30
0.0
 10
25.505304
 20
234.063395
 30
0.0
  0
LINE
  5
152
100
AcDbEntity
  8
Calque_1
 62
7
100
AcDbLine
 10
25.505304
 20
234.063395
 30
0.0
 11
25.505304
 21
235.813503
 31
0.0
  0
LINE
  5
153
100
AcDbEntity
  8
Calque_1
 62
7
100
AcDbLine
 10
25.505304
 20
235.813503
 30
0.0
 11
26.012422
 21
235.813503
 31
0.0
  0
LINE
  5
154
100
AcDbEntity
  8
Calque_1
 62
7
100
AcDbLine
 10
26.012422
 20
235.813503
 30
0.0
 11
26.012422
 21
232.726697
 31
0.0
  0
LINE
  5
155
100
AcDbEntity
  8
Calque_1
 62
7
100
AcDbLine
 10
26.012422
 20
232.726697
 30
0.0
 11
25.505304
 21
232.726697
 31
0.0
  0
LINE
  5
156
100
AcDbEntity
  8
Calque_1
 62
7
100
AcDbLine
 10
25.505304
 20
232.726697
 30
0.0
 11
25.505304
 21
233.200743
 31
0.0
  0
SPLINE
  5
157
100
AcDbEntity
  8
Calque_1
 62
7
100
AcDbSpline
 70
8
 71
3
 72
8
 73
4
 74
0
 40
0
 40
0
 40
0
 40
0
 40
1
 40
1
 40
1
 40
1
 10
25.505304
 20
233.200743
 30
0.0
 10
25.382199
 20
233.013328
 30
0.0
 10
25.238883
 20
232.873687
 30
0.0
 10
25.075356
 20
232.781818
 30
0.0
  0
SPLINE
  5
158
100
AcDbEntity
  8
Calque_1
 62
7
100
AcDbSpline
 70
8
 71
3
 72
8
 73
4
 74
0
 40
0
 40
0
 40
0
 40
0
 40
1
 40
1
 40
1
 40
1
 10
25.075356
 20
232.781818
 30
0.0
 10
24.913666
 20
232.691787
 30
0.0
 10
24.725334
 20
232.646772
 30
0.0
 10
24.510360
 20
232.646772
 30
0.0
  0
SPLINE
  5
159
100
AcDbEntity
  8
Calque_1
 62
7
100
AcDbSpline
 70
8
 71
3
 72
8
 73
4
 74
0
 40
0
 40
0
 40
0
 40
0
 40
1
 40
1
 40
1
 40
1
 10
24.510360
 20
232.646772
 30
0.0
 10
24.155745
 20
232.646772
 30
0.0
 10
23.886568
 20
232.757014
 30
0.0
 10
23.702830
 20
232.977499
 30
0.0
  0
SPLINE
  5
15a
100
AcDbEntity
  8
Calque_1
 62
7
100
AcDbSpline
 70
8
 71
3
 72
8
 73
4
 74
0
 40
0
 40
0
 40
0
 40
0
 40
1
 40
1
 40
1
 40
1
 10
23.702830
 20
232.977499
 30
0.0
 10
23.519091
 20
233.197986
 30
0.0
 10
23.427222
 20
233.520447
 30
0.0
 10
23.427222
 20
233.944881
 30
0.0
  0
LINE
  5
15b
100
AcDbEntity
  8
Calque_1
 62
7
100
AcDbLine
 10
23.427222
 20
233.944881
 30
0.0
 11
23.427222
 21
233.944881
 31
0.0
  0
LINE
  5
15c
100
AcDbEntity
  8
Calque_1
 62
7
100
AcDbLine
 10
24.703285
 20
235.887916
 30
0.0
 11
24.703285
 21
235.887916
 31
0.0
  0
LINE
  5
15d
100
AcDbEntity
  8
Calque_1
 62
7
100
AcDbLine
 10
24.703285
 20
235.887916
 30
0.0
 11
24.703285
 21
235.887916
 31
0.0
  0
LINE
  5
15e
100
AcDbEntity
  8
Calque_1
 62
7
100
AcDbLine
 10
27.553069
 20
233.189716
 30
0.0
 11
27.553069
 21
231.552607
 31
0.0
  0
LINE
  5
15f
100
AcDbEntity
  8
Calque_1
 62
7
100
AcDbLine
 10
27.553069
 20
231.552607
 30
0.0
 11
27.043194
 21
231.552607
 31
0.0
  0
LINE
  5
160
100
AcDbEntity
  8
Calque_1
 62
7
100
AcDbLine
 10
27.043194
 20
231.552607
 30
0.0
 11
27.043194
 21
235.813503
 31
0.0
  0
LINE
  5
161
100
AcDbEntity
  8
Calque_1
 62
7
100
AcDbLine
 10
27.043194
 20
235.813503
 30
0.0
 11
27.553069
 21
235.813503
 31
0.0
  0
LINE
  5
162
100
AcDbEntity
  8
Calque_1
 62
7
100
AcDbLine
 10
27.553069
 20
235.813503
 30
0.0
 11
27.553069
 21
235.344969
 31
0.0
  0
SPLINE
  5
163
100
AcDbEntity
  8
Calque_1
 62
7
100
AcDbSpline
 70
8
 71
3
 72
8
 73
4
 74
0
 40
0
 40
0
 40
0
 40
0
 40
1
 40
1
 40
1
 40
1
 10
27.553069
 20
235.344969
 30
0.0
 10
27.659637
 20
235.528706
 30
0.0
 10
27.793766
 20
235.664673
 30
0.0
 10
27.955456
 20
235.752867
 30
0.0
  0
SPLINE
  5
164
100
AcDbEntity
  8
Calque_1
 62
7
100
AcDbSpline
 70
8
 71
3
 72
8
 73
4
 74
0
 40
0
 40
0
 40
0
 40
0
 40
1
 40
1
 40
1
 40
1
 10
27.955456
 20
235.752867
 30
0.0
 10
28.118983
 20
235.842900
 30
0.0
 10
28.313746
 20
235.887916
 30
0.0
 10
28.539745
 20
235.887916
 30
0.0
  0
SPLINE
  5
165
100
AcDbEntity
  8
Calque_1
 62
7
100
AcDbSpline
 70
8
 71
3
 72
8
 73
4
 74
0
 40
0
 40
0
 40
0
 40
0
 40
1
 40
1
 40
1
 40
1
 10
28.539745
 20
235.887916
 30
0.0
 10
28.914570
 20
235.887916
 30
0.0
 10
29.218657
 20
235.739088
 30
0.0
 10
29.452006
 20
235.441432
 30
0.0
  0
SPLINE
  5
166
100
AcDbEntity
  8
Calque_1
 62
7
100
AcDbSpline
 70
8
 71
3
 72
8
 73
4
 74
0
 40
0
 40
0
 40
0
 40
0
 40
1
 40
1
 40
1
 40
1
 10
29.452006
 20
235.441432
 30
0.0
 10
29.687191
 20
235.143776
 30
0.0
 10
29.804783
 20
234.752413
 30
0.0
 10
29.804783
 20
234.267342
 30
0.0
  0
SPLINE
  5
167
100
AcDbEntity
  8
Calque_1
 62
7
100
AcDbSpline
 70
8
 71
3
 72
8
 73
4
 74
0
 40
0
 40
0
 40
0
 40
0
 40
1
 40
1
 40
1
 40
1
 10
29.804783
 20
234.267342
 30
0.0
 10
29.804783
 20
233.782274
 30
0.0
 10
29.687191
 20
233.390912
 30
0.0
 10
29.452006
 20
233.093256
 30
0.0
  0
SPLINE
  5
168
100
AcDbEntity
  8
Calque_1
 62
7
100
AcDbSpline
 70
8
 71
3
 72
8
 73
4
 74
0
 40
0
 40
0
 40
0
 40
0
 40
1
 40
1
 40
1
 40
1
 10
29.452006
 20
233.093256
 30
0.0
 10
29.218657
 20
232.795600
 30
0.0
 10
28.914570
 20
232.646772
 30
0.0
 10
28.539745
 20
232.646772
 30
0.0
  0
SPLINE
  5
169
100
AcDbEntity
  8
Calque_1
 62
7
100
AcDbSpline
 70
8
 71
3
 72
8
 73
4
 74
0
 40
0
 40
0
 40
0
 40
0
 40
1
 40
1
 40
1
 40
1
 10
28.539745
 20
232.646772
 30
0.0
 10
28.313746
 20
232.646772
 30
0.0
 10
28.118983
 20
232.690869
 30
0.0
 10
27.955456
 20
232.779063
 30
0.0
  0
SPLINE
  5
16a
100
AcDbEntity
  8
Calque_1
 62
7
100
AcDbSpline
 70
8
 71
3
 72
8
 73
4
 74
0
 40
0
 40
0
 40
0
 40
0
 40
1
 40
1
 40
1
 40
1
 10
27.955456
 20
232.779063
 30
0.0
 10
27.793766
 20
232.869094
 30
0.0
 10
27.659637
 20
233.005978
 30
0.0
 10
27.553069
 20
233.189716
 30
0.0
  0
LINE
  5
16b
100
AcDbEntity
  8
Calque_1
 62
7
100
AcDbLine
 10
27.553069
 20
233.189716
 30
0.0
 11
27.553069
 21
233.189716
 31
0.0
  0
SPLINE
  5
16c
100
AcDbEntity
  8
Calque_1
 62
7
100
AcDbSpline
 70
8
 71
3
 72
8
 73
4
 74
0
 40
0
 40
0
 40
0
 40
0
 40
1
 40
1
 40
1
 40
1
 10
29.278371
 20
234.267342
 30
0.0
 10
29.278371
 20
234.640331
 30
0.0
 10
29.201201
 20
234.932475
 30
0.0
 10
29.046861
 20
235.143775
 30
0.0
  0
SPLINE
  5
16d
100
AcDbEntity
  8
Calque_1
 62
7
100
AcDbSpline
 70
8
 71
3
 72
8
 73
4
 74
0
 40
0
 40
0
 40
0
 40
0
 40
1
 40
1
 40
1
 40
1
 10
29.046861
 20
235.143775
 30
0.0
 10
28.894358
 20
235.356911
 30
0.0
 10
28.683977
 20
235.463479
 30
0.0
 10
28.415719
 20
235.463479
 30
0.0
  0
SPLINE
  5
16e
100
AcDbEntity
  8
Calque_1
 62
7
100
AcDbSpline
 70
8
 71
3
 72
8
 73
4
 74
0
 40
0
 40
0
 40
0
 40
0
 40
1
 40
1
 40
1
 40
1
 10
28.415719
 20
235.463479
 30
0.0
 10
28.147462
 20
235.463479
 30
0.0
 10
27.936163
 20
235.356911
 30
0.0
 10
27.781823
 20
235.143775
 30
0.0
  0
SPLINE
  5
16f
100
AcDbEntity
  8
Calque_1
 62
7
100
AcDbSpline
 70
8
 71
3
 72
8
 73
4
 74
0
 40
0
 40
0
 40
0
 40
0
 40
1
 40
1
 40
1
 40
1
 10
27.781823
 20
235.143775
 30
0.0
 10
27.629320
 20
234.932475
 30
0.0
 10
27.553069
 20
234.640331
 30
0.0
 10
27.553069
 20
234.267342
 30
0.0
  0
SPLINE
  5
170
100
AcDbEntity
  8
Calque_1
 62
7
100
AcDbSpline
 70
8
 71
3
 72
8
 73
4
 74
0
 40
0
 40
0
 40
0
 40
0
 40
1
 40
1
 40
1
 40
1
 10
27.553069
 20
234.267342
 30
0.0
 10
27.553069
 20
233.894354
 30
0.0
 10
27.629320
 20
233.601291
 30
0.0
 10
27.781823
 20
233.388155
 30
0.0
  0
SPLINE
  5
171
100
AcDbEntity
  8
Calque_1
 62
7
100
AcDbSpline
 70
8
 71
3
 72
8
 73
4
 74
0
 40
0
 40
0
 40
0
 40
0
 40
1
 40
1
 40
1
 40
1
 10
27.781823
 20
233.388155
 30
0.0
 10
27.936163
 20
233.176856
 30
0.0
 10
28.147462
 20
233.071206
 30
0.0
 10
28.415719
 20
233.071206
 30
0.0
  0
SPLINE
  5
172
100
AcDbEntity
  8
Calque_1
 62
7
100
AcDbSpline
 70
8
 71
3
 72
8
 73
4
 74
0
 40
0
 40
0
 40
0
 40
0
 40
1
 40
1
 40
1
 40
1
 10
28.415719
 20
233.071206
 30
0.0
 10
28.683977
 20
233.071206
 30
0.0
 10
28.894358
 20
233.176856
 30
0.0
 10
29.046861
 20
233.388155
 30
0.0
  0
SPLINE
  5
173
100
AcDbEntity
  8
Calque_1
 62
7
100
AcDbSpline
 70
8
 71
3
 72
8
 73
4
 74
0
 40
0
 40
0
 40
0
 40
0
 40
1
 40
1
 40
1
 40
1
 10
29.046861
 20
233.388155
 30
0.0
 10
29.201201
 20
233.601291
 30
0.0
 10
29.278371
 20
233.894354
 30
0.0
 10
29.278371
 20
234.267342
 30
0.0
  0
LINE
  5
174
100
AcDbEntity
  8
Calque_1
 62
7
100
AcDbLine
 10
29.278371
 20
234.267342
 30
0.0
 11
29.278371
 21
234.267342
 31
0.0
  0
LINE
  5
175
100
AcDbEntity
  8
Calque_1
 62
7
100
AcDbLine
 10
33.285707
 20
234.396880
 30
0.0
 11
33.285707
 21
234.148832
 31
0.0
  0
LINE
  5
176
100
AcDbEntity
  8
Calque_1
 62
7
100
AcDbLine
 10
33.285707
 20
234.148832
 30
0.0
 11
30.954066
 21
234.148832
 31
0.0
  0
SPLINE
  5
177
100
AcDbEntity
  8
Calque_1
 62
7
100
AcDbSpline
 70
8
 71
3
 72
8
 73
4
 74
0
 40
0
 40
0
 40
0
 40
0
 40
1
 40
1
 40
1
 40
1
 10
30.954066
 20
234.148832
 30
0.0
 10
30.976115
 20
233.799728
 30
0.0
 10
31.080846
 20
233.533308
 30
0.0
 10
31.268261
 20
233.349570
 30
0.0
  0
SPLINE
  5
178
100
AcDbEntity
  8
Calque_1
 62
7
100
AcDbSpline
 70
8
 71
3
 72
8
 73
4
 74
0
 40
0
 40
0
 40
0
 40
0
 40
1
 40
1
 40
1
 40
1
 10
31.268261
 20
233.349570
 30
0.0
 10
31.457510
 20
233.167668
 30
0.0
 10
31.720255
 20
233.076717
 30
0.0
 10
32.056496
 20
233.076717
 30
0.0
  0
SPLINE
  5
179
100
AcDbEntity
  8
Calque_1
 62
7
100
AcDbSpline
 70
8
 71
3
 72
8
 73
4
 74
0
 40
0
 40
0
 40
0
 40
0
 40
1
 40
1
 40
1
 40
1
 10
32.056496
 20
233.076717
 30
0.0
 10
32.251260
 20
233.076717
 30
0.0
 10
32.439592
 20
233.100604
 30
0.0
 10
32.621494
 20
233.148377
 30
0.0
  0
SPLINE
  5
17a
100
AcDbEntity
  8
Calque_1
 62
7
100
AcDbSpline
 70
8
 71
3
 72
8
 73
4
 74
0
 40
0
 40
0
 40
0
 40
0
 40
1
 40
1
 40
1
 40
1
 10
32.621494
 20
233.148377
 30
0.0
 10
32.805232
 20
233.196149
 30
0.0
 10
32.987132
 20
233.267807
 30
0.0
 10
33.167196
 20
233.363351
 30
0.0
  0
LINE
  5
17b
100
AcDbEntity
  8
Calque_1
 62
7
100
AcDbLine
 10
33.167196
 20
233.363351
 30
0.0
 11
33.167196
 21
232.883793
 31
0.0
  0
SPLINE
  5
17c
100
AcDbEntity
  8
Calque_1
 62
7
100
AcDbSpline
 70
8
 71
3
 72
8
 73
4
 74
0
 40
0
 40
0
 40
0
 40
0
 40
1
 40
1
 40
1
 40
1
 10
33.167196
 20
232.883793
 30
0.0
 10
32.985294
 20
232.806622
 30
0.0
 10
32.798800
 20
232.747826
 30
0.0
 10
32.607713
 20
232.707404
 30
0.0
  0
SPLINE
  5
17d
100
AcDbEntity
  8
Calque_1
 62
7
100
AcDbSpline
 70
8
 71
3
 72
8
 73
4
 74
0
 40
0
 40
0
 40
0
 40
0
 40
1
 40
1
 40
1
 40
1
 10
32.607713
 20
232.707404
 30
0.0
 10
32.416624
 20
232.666983
 30
0.0
 10
32.222780
 20
232.646772
 30
0.0
 10
32.026180
 20
232.646772
 30
0.0
  0
SPLINE
  5
17e
100
AcDbEntity
  8
Calque_1
 62
7
100
AcDbSpline
 70
8
 71
3
 72
8
 73
4
 74
0
 40
0
 40
0
 40
0
 40
0
 40
1
 40
1
 40
1
 40
1
 10
32.026180
 20
232.646772
 30
0.0
 10
31.533760
 20
232.646772
 30
0.0
 10
31.143316
 20
232.790087
 30
0.0
 10
30.854848
 20
233.076717
 30
0.0
  0
SPLINE
  5
17f
100
AcDbEntity
  8
Calque_1
 62
7
100
AcDbSpline
 70
8
 71
3
 72
8
 73
4
 74
0
 40
0
 40
0
 40
0
 40
0
 40
1
 40
1
 40
1
 40
1
 10
30.854848
 20
233.076717
 30
0.0
 10
30.568215
 20
233.363350
 30
0.0
 10
30.424899
 20
233.751039
 30
0.0
 10
30.424899
 20
234.239783
 30
0.0
  0
SPLINE
  5
180
100
AcDbEntity
  8
Calque_1
 62
7
100
AcDbSpline
 70
8
 71
3
 72
8
 73
4
 74
0
 40
0
 40
0
 40
0
 40
0
 40
1
 40
1
 40
1
 40
1
 10
30.424899
 20
234.239783
 30
0.0
 10
30.424899
 20
234.745063
 30
0.0
 10
30.560866
 20
235.145612
 30
0.0
 10
30.832800
 20
235.441432
 30
0.0
  0
SPLINE
  5
181
100
AcDbEntity
  8
Calque_1
 62
7
100
AcDbSpline
 70
8
 71
3
 72
8
 73
4
 74
0
 40
0
 40
0
 40
0
 40
0
 40
1
 40
1
 40
1
 40
1
 10
30.832800
 20
235.441432
 30
0.0
 10
31.106569
 20
235.739088
 30
0.0
 10
31.474964
 20
235.887916
 30
0.0
 10
31.937985
 20
235.887916
 30
0.0
  0
SPLINE
  5
182
100
AcDbEntity
  8
Calque_1
 62
7
100
AcDbSpline
 70
8
 71
3
 72
8
 73
4
 74
0
 40
0
 40
0
 40
0
 40
0
 40
1
 40
1
 40
1
 40
1
 10
31.937985
 20
235.887916
 30
0.0
 10
32.353234
 20
235.887916
 30
0.0
 10
32.681207
 20
235.753787
 30
0.0
 10
32.921905
 20
235.485529
 30
0.0
  0
SPLINE
  5
183
100
AcDbEntity
  8
Calque_1
 62
7
100
AcDbSpline
 70
8
 71
3
 72
8
 73
4
 74
0
 40
0
 40
0
 40
0
 40
0
 40
1
 40
1
 40
1
 40
1
 10
32.921905
 20
235.485529
 30
0.0
 10
33.164439
 20
235.219108
 30
0.0
 10
33.285707
 20
234.856225
 30
0.0
 10
33.285707
 20
234.396880
 30
0.0
  0
LINE
  5
184
100
AcDbEntity
  8
Calque_1
 62
7
100
AcDbLine
 10
33.285707
 20
234.396880
 30
0.0
 11
33.285707
 21
234.396880
 31
0.0
  0
SPLINE
  5
185
100
AcDbEntity
  8
Calque_1
 62
7
100
AcDbSpline
 70
8
 71
3
 72
8
 73
4
 74
0
 40
0
 40
0
 40
0
 40
0
 40
1
 40
1
 40
1
 40
1
 10
32.778590
 20
234.545707
 30
0.0
 10
32.774921
 20
234.823152
 30
0.0
 10
32.696832
 20
235.044557
 30
0.0
 10
32.544323
 20
235.209922
 30
0.0
  0
SPLINE
  5
186
100
AcDbEntity
  8
Calque_1
 62
7
100
AcDbSpline
 70
8
 71
3
 72
8
 73
4
 74
0
 40
0
 40
0
 40
0
 40
0
 40
1
 40
1
 40
1
 40
1
 10
32.544323
 20
235.209922
 30
0.0
 10
32.393658
 20
235.375286
 30
0.0
 10
32.193382
 20
235.457967
 30
0.0
 10
31.943497
 20
235.457967
 30
0.0
  0
SPLINE
  5
187
100
AcDbEntity
  8
Calque_1
 62
7
100
AcDbSpline
 70
8
 71
3
 72
8
 73
4
 74
0
 40
0
 40
0
 40
0
 40
0
 40
1
 40
1
 40
1
 40
1
 10
31.943497
 20
235.457967
 30
0.0
 10
31.660541
 20
235.457967
 30
0.0
 10
31.433624
 20
235.378041
 30
0.0
 10
31.262746
 20
235.218189
 30
0.0
  0
SPLINE
  5
188
100
AcDbEntity
  8
Calque_1
 62
7
100
AcDbSpline
 70
8
 71
3
 72
8
 73
4
 74
0
 40
0
 40
0
 40
0
 40
0
 40
1
 40
1
 40
1
 40
1
 10
31.262746
 20
235.218189
 30
0.0
 10
31.093708
 20
235.058336
 30
0.0
 10
30.996327
 20
234.833257
 30
0.0
 10
30.970604
 20
234.542952
 30
0.0
  0
LINE
  5
189
100
AcDbEntity
  8
Calque_1
 62
7
100
AcDbLine
 10
30.970604
 20
234.542952
 30
0.0
 11
32.778590
 21
234.545774
 31
0.0
  0
LINE
  5
18a
100
AcDbEntity
  8
Calque_1
 62
7
100
AcDbLine
 10
32.778590
 20
234.545774
 30
0.0
 11
32.778590
 21
234.545707
 31
0.0
  0
LINE
  5
18b
100
AcDbEntity
  8
Calque_1
 62
7
100
AcDbLine
 10
32.290763
 20
237.241149
 30
0.0
 11
32.839223
 21
237.241149
 31
0.0
  0
LINE
  5
18c
100
AcDbEntity
  8
Calque_1
 62
7
100
AcDbLine
 10
32.839223
 20
237.241149
 30
0.0
 11
31.940743
 21
236.204866
 31
0.0
  0
LINE
  5
18d
100
AcDbEntity
  8
Calque_1
 62
7
100
AcDbLine
 10
31.940743
 20
236.204866
 30
0.0
 11
31.519063
 21
236.204866
 31
0.0
  0
LINE
  5
18e
100
AcDbEntity
  8
Calque_1
 62
7
100
AcDbLine
 10
31.519063
 20
236.204866
 30
0.0
 11
32.290763
 21
237.241149
 31
0.0
  0
LINE
  5
18f
100
AcDbEntity
  8
Calque_1
 62
7
100
AcDbLine
 10
32.290763
 20
237.241149
 30
0.0
 11
32.290763
 21
237.241149
 31
0.0
  0
SPLINE
  5
190
100
AcDbEntity
  8
Calque_1
 62
7
100
AcDbSpline
 70
8
 71
3
 72
8
 73
4
 74
0
 40
0
 40
0
 40
0
 40
0
 40
1
 40
1
 40
1
 40
1
 10
35.906735
 20
235.339457
 30
0.0
 10
35.849777
 20
235.372529
 30
0.0
 10
35.787306
 20
235.396416
 30
0.0
 10
35.719323
 20
235.411116
 30
0.0
  0
SPLINE
  5
191
100
AcDbEntity
  8
Calque_1
 62
7
100
AcDbSpline
 70
8
 71
3
 72
8
 73
4
 74
0
 40
0
 40
0
 40
0
 40
0
 40
1
 40
1
 40
1
 40
1
 10
35.719323
 20
235.411116
 30
0.0
 10
35.653178
 20
235.427654
 30
0.0
 10
35.579682
 20
235.435923
 30
0.0
 10
35.498837
 20
235.435923
 30
0.0
  0
SPLINE
  5
192
100
AcDbEntity
  8
Calque_1
 62
7
100
AcDbSpline
 70
8
 71
3
 72
8
 73
4
 74
0
 40
0
 40
0
 40
0
 40
0
 40
1
 40
1
 40
1
 40
1
 10
35.498837
 20
235.435923
 30
0.0
 10
35.212204
 20
235.435923
 30
0.0
 10
34.991718
 20
235.342216
 30
0.0
 10
34.837378
 20
235.154802
 30
0.0
  0
SPLINE
  5
193
100
AcDbEntity
  8
Calque_1
 62
7
100
AcDbSpline
 70
8
 71
3
 72
8
 73
4
 74
0
 40
0
 40
0
 40
0
 40
0
 40
1
 40
1
 40
1
 40
1
 10
34.837378
 20
235.154802
 30
0.0
 10
34.684875
 20
234.969227
 30
0.0
 10
34.608623
 20
234.701888
 30
0.0
 10
34.608623
 20
234.352785
 30
0.0
  0
LINE
  5
194
100
AcDbEntity
  8
Calque_1
 62
7
100
AcDbLine
 10
34.608623
 20
234.352785
 30
0.0
 11
34.608623
 21
232.726700
 31
0.0
  0
LINE
  5
195
100
AcDbEntity
  8
Calque_1
 62
7
100
AcDbLine
 10
34.608623
 20
232.726700
 30
0.0
 11
34.098749
 21
232.726700
 31
0.0
  0
LINE
  5
196
100
AcDbEntity
  8
Calque_1
 62
7
100
AcDbLine
 10
34.098749
 20
232.726700
 30
0.0
 11
34.098749
 21
235.813505
 31
0.0
  0
LINE
  5
197
100
AcDbEntity
  8
Calque_1
 62
7
100
AcDbLine
 10
34.098749
 20
235.813505
 30
0.0
 11
34.608623
 21
235.813505
 31
0.0
  0
LINE
  5
198
100
AcDbEntity
  8
Calque_1
 62
7
100
AcDbLine
 10
34.608623
 20
235.813505
 30
0.0
 11
34.608623
 21
235.333948
 31
0.0
  0
SPLINE
  5
199
100
AcDbEntity
  8
Calque_1
 62
7
100
AcDbSpline
 70
8
 71
3
 72
8
 73
4
 74
0
 40
0
 40
0
 40
0
 40
0
 40
1
 40
1
 40
1
 40
1
 10
34.608623
 20
235.333948
 30
0.0
 10
34.715192
 20
235.521360
 30
0.0
 10
34.853915
 20
235.660083
 30
0.0
 10
35.024791
 20
235.750115
 30
0.0
  0
SPLINE
  5
19a
100
AcDbEntity
  8
Calque_1
 62
7
100
AcDbSpline
 70
8
 71
3
 72
8
 73
4
 74
0
 40
0
 40
0
 40
0
 40
0
 40
1
 40
1
 40
1
 40
1
 10
35.024791
 20
235.750115
 30
0.0
 10
35.195669
 20
235.841984
 30
0.0
 10
35.403293
 20
235.887919
 30
0.0
 10
35.647664
 20
235.887919
 30
0.0
  0
SPLINE
  5
19b
100
AcDbEntity
  8
Calque_1
 62
7
100
AcDbSpline
 70
8
 71
3
 72
8
 73
4
 74
0
 40
0
 40
0
 40
0
 40
0
 40
1
 40
1
 40
1
 40
1
 10
35.647664
 20
235.887919
 30
0.0
 10
35.682575
 20
235.887919
 30
0.0
 10
35.721160
 20
235.885163
 30
0.0
 10
35.763420
 20
235.879650
 30
0.0
  0
SPLINE
  5
19c
100
AcDbEntity
  8
Calque_1
 62
7
100
AcDbSpline
 70
8
 71
3
 72
8
 73
4
 74
0
 40
0
 40
0
 40
0
 40
0
 40
1
 40
1
 40
1
 40
1
 10
35.763420
 20
235.879650
 30
0.0
 10
35.805680
 20
235.875981
 30
0.0
 10
35.852534
 20
235.869546
 30
0.0
 10
35.903981
 20
235.860346
 30
0.0
  0
LINE
  5
19d
100
AcDbEntity
  8
Calque_1
 62
7
100
AcDbLine
 10
35.903981
 20
235.860346
 30
0.0
 11
35.906803
 21
235.339448
 31
0.0
  0
LINE
  5
19e
100
AcDbEntity
  8
Calque_1
 62
7
100
AcDbLine
 10
35.906803
 20
235.339448
 30
0.0
 11
35.906735
 21
235.339457
 31
0.0
  0
SPLINE
  5
19f
100
AcDbEntity
  8
Calque_1
 62
7
100
AcDbSpline
 70
8
 71
3
 72
8
 73
4
 74
0
 40
0
 40
0
 40
0
 40
0
 40
1
 40
1
 40
1
 40
1
 10
37.847013
 20
234.278369
 30
0.0
 10
37.437277
 20
234.278369
 30
0.0
 10
37.153401
 20
234.231515
 30
0.0
 10
36.995385
 20
234.137808
 30
0.0
  0
SPLINE
  5
1a0
100
AcDbEntity
  8
Calque_1
 62
7
100
AcDbSpline
 70
8
 71
3
 72
8
 73
4
 74
0
 40
0
 40
0
 40
0
 40
0
 40
1
 40
1
 40
1
 40
1
 10
36.995385
 20
234.137808
 30
0.0
 10
36.837371
 20
234.044101
 30
0.0
 10
36.758364
 20
233.884248
 30
0.0
 10
36.758364
 20
233.658250
 30
0.0
  0
SPLINE
  5
1a1
100
AcDbEntity
  8
Calque_1
 62
7
100
AcDbSpline
 70
8
 71
3
 72
8
 73
4
 74
0
 40
0
 40
0
 40
0
 40
0
 40
1
 40
1
 40
1
 40
1
 10
36.758364
 20
233.658250
 30
0.0
 10
36.758364
 20
233.478187
 30
0.0
 10
36.817160
 20
233.334871
 30
0.0
 10
36.934752
 20
233.228302
 30
0.0
  0
SPLINE
  5
1a2
100
AcDbEntity
  8
Calque_1
 62
7
100
AcDbSpline
 70
8
 71
3
 72
8
 73
4
 74
0
 40
0
 40
0
 40
0
 40
0
 40
1
 40
1
 40
1
 40
1
 10
36.934752
 20
233.228302
 30
0.0
 10
37.054183
 20
233.123571
 30
0.0
 10
37.215873
 20
233.071206
 30
0.0
 10
37.419822
 20
233.071206
 30
0.0
  0
SPLINE
  5
1a3
100
AcDbEntity
  8
Calque_1
 62
7
100
AcDbSpline
 70
8
 71
3
 72
8
 73
4
 74
0
 40
0
 40
0
 40
0
 40
0
 40
1
 40
1
 40
1
 40
1
 10
37.419822
 20
233.071206
 30
0.0
 10
37.700942
 20
233.071206
 30
0.0
 10
37.926021
 20
233.170425
 30
0.0
 10
38.095061
 20
233.368863
 30
0.0
  0
SPLINE
  5
1a4
100
AcDbEntity
  8
Calque_1
 62
7
100
AcDbSpline
 70
8
 71
3
 72
8
 73
4
 74
0
 40
0
 40
0
 40
0
 40
0
 40
1
 40
1
 40
1
 40
1
 10
38.095061
 20
233.368863
 30
0.0
 10
38.265937
 20
233.569137
 30
0.0
 10
38.351375
 20
233.834638
 30
0.0
 10
38.351375
 20
234.165367
 30
0.0
  0
LINE
  5
1a5
100
AcDbEntity
  8
Calque_1
 62
7
100
AcDbLine
 10
38.351375
 20
234.165367
 30
0.0
 11
38.351375
 21
234.278369
 31
0.0
  0
LINE
  5
1a6
100
AcDbEntity
  8
Calque_1
 62
7
100
AcDbLine
 10
38.351375
 20
234.278369
 30
0.0
 11
37.847013
 21
234.278369
 31
0.0
  0
LINE
  5
1a7
100
AcDbEntity
  8
Calque_1
 62
7
100
AcDbLine
 10
37.847013
 20
234.278369
 30
0.0
 11
37.847013
 21
234.278369
 31
0.0
  0
LINE
  5
1a8
100
AcDbEntity
  8
Calque_1
 62
7
100
AcDbLine
 10
38.858495
 20
234.487829
 30
0.0
 11
38.858495
 21
232.726697
 31
0.0
  0
LINE
  5
1a9
100
AcDbEntity
  8
Calque_1
 62
7
100
AcDbLine
 10
38.858495
 20
232.726697
 30
0.0
 11
38.351375
 21
232.726697
 31
0.0
  0
LINE
  5
1aa
100
AcDbEntity
  8
Calque_1
 62
7
100
AcDbLine
 10
38.351375
 20
232.726697
 30
0.0
 11
38.351375
 21
233.195228
 31
0.0
  0
SPLINE
  5
1ab
100
AcDbEntity
  8
Calque_1
 62
7
100
AcDbSpline
 70
8
 71
3
 72
8
 73
4
 74
0
 40
0
 40
0
 40
0
 40
0
 40
1
 40
1
 40
1
 40
1
 10
38.351375
 20
233.195228
 30
0.0
 10
38.235621
 20
233.007816
 30
0.0
 10
38.091387
 20
232.869094
 30
0.0
 10
37.918672
 20
232.779063
 30
0.0
  0
SPLINE
  5
1ac
100
AcDbEntity
  8
Calque_1
 62
7
100
AcDbSpline
 70
8
 71
3
 72
8
 73
4
 74
0
 40
0
 40
0
 40
0
 40
0
 40
1
 40
1
 40
1
 40
1
 10
37.918672
 20
232.779063
 30
0.0
 10
37.745958
 20
232.690869
 30
0.0
 10
37.534658
 20
232.646772
 30
0.0
 10
37.284773
 20
232.646772
 30
0.0
  0
SPLINE
  5
1ad
100
AcDbEntity
  8
Calque_1
 62
7
100
AcDbSpline
 70
8
 71
3
 72
8
 73
4
 74
0
 40
0
 40
0
 40
0
 40
0
 40
1
 40
1
 40
1
 40
1
 10
37.284773
 20
232.646772
 30
0.0
 10
36.968744
 20
232.646772
 30
0.0
 10
36.717023
 20
232.734966
 30
0.0
 10
36.529608
 20
232.911355
 30
0.0
  0
SPLINE
  5
1ae
100
AcDbEntity
  8
Calque_1
 62
7
100
AcDbSpline
 70
8
 71
3
 72
8
 73
4
 74
0
 40
0
 40
0
 40
0
 40
0
 40
1
 40
1
 40
1
 40
1
 10
36.529608
 20
232.911355
 30
0.0
 10
36.344034
 20
233.089580
 30
0.0
 10
36.251247
 20
233.327521
 30
0.0
 10
36.251247
 20
233.625177
 30
0.0
  0
SPLINE
  5
1af
100
AcDbEntity
  8
Calque_1
 62
7
100
AcDbSpline
 70
8
 71
3
 72
8
 73
4
 74
0
 40
0
 40
0
 40
0
 40
0
 40
1
 40
1
 40
1
 40
1
 10
36.251247
 20
233.625177
 30
0.0
 10
36.251247
 20
233.972444
 30
0.0
 10
36.367001
 20
234.234272
 30
0.0
 10
36.598510
 20
234.410661
 30
0.0
  0
SPLINE
  5
1b0
100
AcDbEntity
  8
Calque_1
 62
7
100
AcDbSpline
 70
8
 71
3
 72
8
 73
4
 74
0
 40
0
 40
0
 40
0
 40
0
 40
1
 40
1
 40
1
 40
1
 10
36.598510
 20
234.410661
 30
0.0
 10
36.831859
 20
234.587049
 30
0.0
 10
37.179125
 20
234.675244
 30
0.0
 10
37.640308
 20
234.675244
 30
0.0
  0
LINE
  5
1b1
100
AcDbEntity
  8
Calque_1
 62
7
100
AcDbLine
 10
37.640308
 20
234.675244
 30
0.0
 11
38.351375
 21
234.675244
 31
0.0
  0
LINE
  5
1b2
100
AcDbEntity
  8
Calque_1
 62
7
100
AcDbLine
 10
38.351375
 20
234.675244
 30
0.0
 11
38.351375
 21
234.724853
 31
0.0
  0
SPLINE
  5
1b3
100
AcDbEntity
  8
Calque_1
 62
7
100
AcDbSpline
 70
8
 71
3
 72
8
 73
4
 74
0
 40
0
 40
0
 40
0
 40
0
 40
1
 40
1
 40
1
 40
1
 10
38.351375
 20
234.724853
 30
0.0
 10
38.351375
 20
234.958200
 30
0.0
 10
38.274205
 20
235.138263
 30
0.0
 10
38.119866
 20
235.265043
 30
0.0
  0
SPLINE
  5
1b4
100
AcDbEntity
  8
Calque_1
 62
7
100
AcDbSpline
 70
8
 71
3
 72
8
 73
4
 74
0
 40
0
 40
0
 40
0
 40
0
 40
1
 40
1
 40
1
 40
1
 10
38.119866
 20
235.265043
 30
0.0
 10
37.967362
 20
235.393659
 30
0.0
 10
37.752388
 20
235.457967
 30
0.0
 10
37.474943
 20
235.457967
 30
0.0
  0
SPLINE
  5
1b5
100
AcDbEntity
  8
Calque_1
 62
7
100
AcDbSpline
 70
8
 71
3
 72
8
 73
4
 74
0
 40
0
 40
0
 40
0
 40
0
 40
1
 40
1
 40
1
 40
1
 10
37.474943
 20
235.457967
 30
0.0
 10
37.298554
 20
235.457967
 30
0.0
 10
37.126759
 20
235.436837
 30
0.0
 10
36.959557
 20
235.394578
 30
0.0
  0
SPLINE
  5
1b6
100
AcDbEntity
  8
Calque_1
 62
7
100
AcDbSpline
 70
8
 71
3
 72
8
 73
4
 74
0
 40
0
 40
0
 40
0
 40
0
 40
1
 40
1
 40
1
 40
1
 10
36.959557
 20
235.394578
 30
0.0
 10
36.792355
 20
235.352318
 30
0.0
 10
36.631585
 20
235.288929
 30
0.0
 10
36.477245
 20
235.204411
 30
0.0
  0
LINE
  5
1b7
100
AcDbEntity
  8
Calque_1
 62
7
100
AcDbLine
 10
36.477245
 20
235.204411
 30
0.0
 11
36.477245
 21
235.672942
 31
0.0
  0
SPLINE
  5
1b8
100
AcDbEntity
  8
Calque_1
 62
7
100
AcDbSpline
 70
8
 71
3
 72
8
 73
4
 74
0
 40
0
 40
0
 40
0
 40
0
 40
1
 40
1
 40
1
 40
1
 10
36.477245
 20
235.672942
 30
0.0
 10
36.662819
 20
235.744600
 30
0.0
 10
36.842883
 20
235.797884
 30
0.0
 10
37.017435
 20
235.832795
 30
0.0
  0
SPLINE
  5
1b9
100
AcDbEntity
  8
Calque_1
 62
7
100
AcDbSpline
 70
8
 71
3
 72
8
 73
4
 74
0
 40
0
 40
0
 40
0
 40
0
 40
1
 40
1
 40
1
 40
1
 10
37.017435
 20
235.832795
 30
0.0
 10
37.191986
 20
235.869542
 30
0.0
 10
37.361944
 20
235.887916
 30
0.0
 10
37.527309
 20
235.887916
 30
0.0
  0
SPLINE
  5
1ba
100
AcDbEntity
  8
Calque_1
 62
7
100
AcDbSpline
 70
8
 71
3
 72
8
 73
4
 74
0
 40
0
 40
0
 40
0
 40
0
 40
1
 40
1
 40
1
 40
1
 10
37.527309
 20
235.887916
 30
0.0
 10
37.973794
 20
235.887916
 30
0.0
 10
38.307279
 20
235.772161
 30
0.0
 10
38.527764
 20
235.540650
 30
0.0
  0
SPLINE
  5
1bb
100
AcDbEntity
  8
Calque_1
 62
7
100
AcDbSpline
 70
8
 71
3
 72
8
 73
4
 74
0
 40
0
 40
0
 40
0
 40
0
 40
1
 40
1
 40
1
 40
1
 10
38.527764
 20
235.540650
 30
0.0
 10
38.748251
 20
235.309139
 30
0.0
 10
38.858495
 20
234.958199
 30
0.0
 10
38.858495
 20
234.487829
 30
0.0
  0
LINE
  5
1bc
100
AcDbEntity
  8
Calque_1
 62
7
100
AcDbLine
 10
38.858495
 20
234.487829
 30
0.0
 11
38.858495
 21
234.487829
 31
0.0
  0
LINE
  5
1bd
100
AcDbEntity
  8
Calque_1
 62
7
100
AcDbLine
 10
40.407409
 20
236.689935
 30
0.0
 11
40.407409
 21
235.813503
 31
0.0
  0
LINE
  5
1be
100
AcDbEntity
  8
Calque_1
 62
7
100
AcDbLine
 10
40.407409
 20
235.813503
 30
0.0
 11
41.451962
 21
235.813503
 31
0.0
  0
LINE
  5
1bf
100
AcDbEntity
  8
Calque_1
 62
7
100
AcDbLine
 10
41.451962
 20
235.813503
 30
0.0
 11
41.451962
 21
235.419382
 31
0.0
  0
LINE
  5
1c0
100
AcDbEntity
  8
Calque_1
 62
7
100
AcDbLine
 10
41.451962
 20
235.419382
 30
0.0
 11
40.407409
 21
235.419382
 31
0.0
  0
LINE
  5
1c1
100
AcDbEntity
  8
Calque_1
 62
7
100
AcDbLine
 10
40.407409
 20
235.419382
 30
0.0
 11
40.407409
 21
233.743688
 31
0.0
  0
SPLINE
  5
1c2
100
AcDbEntity
  8
Calque_1
 62
7
100
AcDbSpline
 70
8
 71
3
 72
8
 73
4
 74
0
 40
0
 40
0
 40
0
 40
0
 40
1
 40
1
 40
1
 40
1
 10
40.407409
 20
233.743688
 30
0.0
 10
40.407409
 20
233.491966
 30
0.0
 10
40.441401
 20
233.330276
 30
0.0
 10
40.509385
 20
233.258618
 30
0.0
  0
SPLINE
  5
1c3
100
AcDbEntity
  8
Calque_1
 62
7
100
AcDbSpline
 70
8
 71
3
 72
8
 73
4
 74
0
 40
0
 40
0
 40
0
 40
0
 40
1
 40
1
 40
1
 40
1
 10
40.509385
 20
233.258618
 30
0.0
 10
40.579205
 20
233.186960
 30
0.0
 10
40.719764
 20
233.151131
 30
0.0
 10
40.931064
 20
233.151131
 30
0.0
  0
LINE
  5
1c4
100
AcDbEntity
  8
Calque_1
 62
7
100
AcDbLine
 10
40.931064
 20
233.151131
 30
0.0
 11
41.451962
 21
233.151131
 31
0.0
  0
LINE
  5
1c5
100
AcDbEntity
  8
Calque_1
 62
7
100
AcDbLine
 10
41.451962
 20
233.151131
 30
0.0
 11
41.451962
 21
232.726697
 31
0.0
  0
LINE
  5
1c6
100
AcDbEntity
  8
Calque_1
 62
7
100
AcDbLine
 10
41.451962
 20
232.726697
 30
0.0
 11
40.931064
 21
232.726697
 31
0.0
  0
SPLINE
  5
1c7
100
AcDbEntity
  8
Calque_1
 62
7
100
AcDbSpline
 70
8
 71
3
 72
8
 73
4
 74
0
 40
0
 40
0
 40
0
 40
0
 40
1
 40
1
 40
1
 40
1
 10
40.931064
 20
232.726697
 30
0.0
 10
40.539701
 20
232.726697
 30
0.0
 10
40.269605
 20
232.799273
 30
0.0
 10
40.120776
 20
232.944426
 30
0.0
  0
SPLINE
  5
1c8
100
AcDbEntity
  8
Calque_1
 62
7
100
AcDbSpline
 70
8
 71
3
 72
8
 73
4
 74
0
 40
0
 40
0
 40
0
 40
0
 40
1
 40
1
 40
1
 40
1
 10
40.120776
 20
232.944426
 30
0.0
 10
39.971949
 20
233.091417
 30
0.0
 10
39.897535
 20
233.357837
 30
0.0
 10
39.897535
 20
233.743688
 30
0.0
  0
LINE
  5
1c9
100
AcDbEntity
  8
Calque_1
 62
7
100
AcDbLine
 10
39.897535
 20
233.743688
 30
0.0
 11
39.897535
 21
235.419382
 31
0.0
  0
LINE
  5
1ca
100
AcDbEntity
  8
Calque_1
 62
7
100
AcDbLine
 10
39.897535
 20
235.419382
 30
0.0
 11
39.525465
 21
235.419382
 31
0.0
  0
LINE
  5
1cb
100
AcDbEntity
  8
Calque_1
 62
7
100
AcDbLine
 10
39.525465
 20
235.419382
 30
0.0
 11
39.525465
 21
235.813503
 31
0.0
  0
LINE
  5
1cc
100
AcDbEntity
  8
Calque_1
 62
7
100
AcDbLine
 10
39.525465
 20
235.813503
 30
0.0
 11
39.897535
 21
235.813503
 31
0.0
  0
LINE
  5
1cd
100
AcDbEntity
  8
Calque_1
 62
7
100
AcDbLine
 10
39.897535
 20
235.813503
 30
0.0
 11
39.897535
 21
236.689935
 31
0.0
  0
LINE
  5
1ce
100
AcDbEntity
  8
Calque_1
 62
7
100
AcDbLine
 10
39.897535
 20
236.689935
 30
0.0
 11
40.407409
 21
236.689935
 31
0.0
  0
LINE
  5
1cf
100
AcDbEntity
  8
Calque_1
 62
7
100
AcDbLine
 10
40.407409
 20
236.689935
 30
0.0
 11
40.407409
 21
236.689935
 31
0.0
  0
LINE
  5
1d0
100
AcDbEntity
  8
Calque_1
 62
7
100
AcDbLine
 10
44.762011
 20
234.396880
 30
0.0
 11
44.762011
 21
234.148832
 31
0.0
  0
LINE
  5
1d1
100
AcDbEntity
  8
Calque_1
 62
7
100
AcDbLine
 10
44.762011
 20
234.148832
 30
0.0
 11
42.430370
 21
234.148832
 31
0.0
  0
SPLINE
  5
1d2
100
AcDbEntity
  8
Calque_1
 62
7
100
AcDbSpline
 70
8
 71
3
 72
8
 73
4
 74
0
 40
0
 40
0
 40
0
 40
0
 40
1
 40
1
 40
1
 40
1
 10
42.430370
 20
234.148832
 30
0.0
 10
42.452417
 20
233.799728
 30
0.0
 10
42.557148
 20
233.533308
 30
0.0
 10
42.744562
 20
233.349570
 30
0.0
  0
SPLINE
  5
1d3
100
AcDbEntity
  8
Calque_1
 62
7
100
AcDbSpline
 70
8
 71
3
 72
8
 73
4
 74
0
 40
0
 40
0
 40
0
 40
0
 40
1
 40
1
 40
1
 40
1
 10
42.744562
 20
233.349570
 30
0.0
 10
42.933813
 20
233.167668
 30
0.0
 10
43.196559
 20
233.076717
 30
0.0
 10
43.532800
 20
233.076717
 30
0.0
  0
SPLINE
  5
1d4
100
AcDbEntity
  8
Calque_1
 62
7
100
AcDbSpline
 70
8
 71
3
 72
8
 73
4
 74
0
 40
0
 40
0
 40
0
 40
0
 40
1
 40
1
 40
1
 40
1
 10
43.532800
 20
233.076717
 30
0.0
 10
43.727562
 20
233.076717
 30
0.0
 10
43.915894
 20
233.100604
 30
0.0
 10
44.097795
 20
233.148377
 30
0.0
  0
SPLINE
  5
1d5
100
AcDbEntity
  8
Calque_1
 62
7
100
AcDbSpline
 70
8
 71
3
 72
8
 73
4
 74
0
 40
0
 40
0
 40
0
 40
0
 40
1
 40
1
 40
1
 40
1
 10
44.097795
 20
233.148377
 30
0.0
 10
44.281533
 20
233.196149
 30
0.0
 10
44.463434
 20
233.267807
 30
0.0
 10
44.643497
 20
233.363351
 30
0.0
  0
LINE
  5
1d6
100
AcDbEntity
  8
Calque_1
 62
7
100
AcDbLine
 10
44.643497
 20
233.363351
 30
0.0
 11
44.643497
 21
232.883793
 31
0.0
  0
SPLINE
  5
1d7
100
AcDbEntity
  8
Calque_1
 62
7
100
AcDbSpline
 70
8
 71
3
 72
8
 73
4
 74
0
 40
0
 40
0
 40
0
 40
0
 40
1
 40
1
 40
1
 40
1
 10
44.643497
 20
232.883793
 30
0.0
 10
44.461597
 20
232.806622
 30
0.0
 10
44.275103
 20
232.747826
 30
0.0
 10
44.084014
 20
232.707404
 30
0.0
  0
SPLINE
  5
1d8
100
AcDbEntity
  8
Calque_1
 62
7
100
AcDbSpline
 70
8
 71
3
 72
8
 73
4
 74
0
 40
0
 40
0
 40
0
 40
0
 40
1
 40
1
 40
1
 40
1
 10
44.084014
 20
232.707404
 30
0.0
 10
43.892927
 20
232.666983
 30
0.0
 10
43.699083
 20
232.646772
 30
0.0
 10
43.502481
 20
232.646772
 30
0.0
  0
SPLINE
  5
1d9
100
AcDbEntity
  8
Calque_1
 62
7
100
AcDbSpline
 70
8
 71
3
 72
8
 73
4
 74
0
 40
0
 40
0
 40
0
 40
0
 40
1
 40
1
 40
1
 40
1
 10
43.502481
 20
232.646772
 30
0.0
 10
43.010064
 20
232.646772
 30
0.0
 10
42.619620
 20
232.790087
 30
0.0
 10
42.331149
 20
233.076717
 30
0.0
  0
SPLINE
  5
1da
100
AcDbEntity
  8
Calque_1
 62
7
100
AcDbSpline
 70
8
 71
3
 72
8
 73
4
 74
0
 40
0
 40
0
 40
0
 40
0
 40
1
 40
1
 40
1
 40
1
 10
42.331149
 20
233.076717
 30
0.0
 10
42.044518
 20
233.363350
 30
0.0
 10
41.901203
 20
233.751039
 30
0.0
 10
41.901203
 20
234.239783
 30
0.0
  0
SPLINE
  5
1db
100
AcDbEntity
  8
Calque_1
 62
7
100
AcDbSpline
 70
8
 71
3
 72
8
 73
4
 74
0
 40
0
 40
0
 40
0
 40
0
 40
1
 40
1
 40
1
 40
1
 10
41.901203
 20
234.239783
 30
0.0
 10
41.901203
 20
234.745063
 30
0.0
 10
42.037169
 20
235.145612
 30
0.0
 10
42.309102
 20
235.441432
 30
0.0
  0
SPLINE
  5
1dc
100
AcDbEntity
  8
Calque_1
 62
7
100
AcDbSpline
 70
8
 71
3
 72
8
 73
4
 74
0
 40
0
 40
0
 40
0
 40
0
 40
1
 40
1
 40
1
 40
1
 10
42.309102
 20
235.441432
 30
0.0
 10
42.582872
 20
235.739088
 30
0.0
 10
42.951267
 20
235.887916
 30
0.0
 10
43.414287
 20
235.887916
 30
0.0
  0
SPLINE
  5
1dd
100
AcDbEntity
  8
Calque_1
 62
7
100
AcDbSpline
 70
8
 71
3
 72
8
 73
4
 74
0
 40
0
 40
0
 40
0
 40
0
 40
1
 40
1
 40
1
 40
1
 10
43.414287
 20
235.887916
 30
0.0
 10
43.829537
 20
235.887916
 30
0.0
 10
44.157511
 20
235.753787
 30
0.0
 10
44.398207
 20
235.485529
 30
0.0
  0
SPLINE
  5
1de
100
AcDbEntity
  8
Calque_1
 62
7
100
AcDbSpline
 70
8
 71
3
 72
8
 73
4
 74
0
 40
0
 40
0
 40
0
 40
0
 40
1
 40
1
 40
1
 40
1
 10
44.398207
 20
235.485529
 30
0.0
 10
44.640743
 20
235.219108
 30
0.0
 10
44.762011
 20
234.856225
 30
0.0
 10
44.762011
 20
234.396880
 30
0.0
  0
LINE
  5
1df
100
AcDbEntity
  8
Calque_1
 62
7
100
AcDbLine
 10
44.762011
 20
234.396880
 30
0.0
 11
44.762011
 21
234.396880
 31
0.0
  0
SPLINE
  5
1e0
100
AcDbEntity
  8
Calque_1
 62
7
100
AcDbSpline
 70
8
 71
3
 72
8
 73
4
 74
0
 40
0
 40
0
 40
0
 40
0
 40
1
 40
1
 40
1
 40
1
 10
44.254891
 20
234.545707
 30
0.0
 10
44.251222
 20
234.823152
 30
0.0
 10
44.173133
 20
235.044557
 30
0.0
 10
44.020624
 20
235.209922
 30
0.0
  0
SPLINE
  5
1e1
100
AcDbEntity
  8
Calque_1
 62
7
100
AcDbSpline
 70
8
 71
3
 72
8
 73
4
 74
0
 40
0
 40
0
 40
0
 40
0
 40
1
 40
1
 40
1
 40
1
 10
44.020624
 20
235.209922
 30
0.0
 10
43.869959
 20
235.375286
 30
0.0
 10
43.669685
 20
235.457967
 30
0.0
 10
43.419801
 20
235.457967
 30
0.0
  0
SPLINE
  5
1e2
100
AcDbEntity
  8
Calque_1
 62
7
100
AcDbSpline
 70
8
 71
3
 72
8
 73
4
 74
0
 40
0
 40
0
 40
0
 40
0
 40
1
 40
1
 40
1
 40
1
 10
43.419801
 20
235.457967
 30
0.0
 10
43.136844
 20
235.457967
 30
0.0
 10
42.909927
 20
235.378041
 30
0.0
 10
42.739050
 20
235.218189
 30
0.0
  0
SPLINE
  5
1e3
100
AcDbEntity
  8
Calque_1
 62
7
100
AcDbSpline
 70
8
 71
3
 72
8
 73
4
 74
0
 40
0
 40
0
 40
0
 40
0
 40
1
 40
1
 40
1
 40
1
 10
42.739050
 20
235.218189
 30
0.0
 10
42.570011
 20
235.058336
 30
0.0
 10
42.472629
 20
234.833257
 30
0.0
 10
42.446905
 20
234.542952
 30
0.0
  0
LINE
  5
1e4
100
AcDbEntity
  8
Calque_1
 62
7
100
AcDbLine
 10
42.446905
 20
234.542952
 30
0.0
 11
44.254891
 21
234.545774
 31
0.0
  0
LINE
  5
1e5
100
AcDbEntity
  8
Calque_1
 62
7
100
AcDbLine
 10
44.254891
 20
234.545774
 30
0.0
 11
44.254891
 21
234.545707
 31
0.0
  0
LINE
  5
1e6
100
AcDbEntity
  8
Calque_1
 62
7
100
AcDbLine
 10
45.541980
 20
233.944881
 30
0.0
 11
45.541980
 21
235.813503
 31
0.0
  0
LINE
  5
1e7
100
AcDbEntity
  8
Calque_1
 62
7
100
AcDbLine
 10
45.541980
 20
235.813503
 30
0.0
 11
46.049097
 21
235.813503
 31
0.0
  0
LINE
  5
1e8
100
AcDbEntity
  8
Calque_1
 62
7
100
AcDbLine
 10
46.049097
 20
235.813503
 30
0.0
 11
46.049097
 21
233.964174
 31
0.0
  0
SPLINE
  5
1e9
100
AcDbEntity
  8
Calque_1
 62
7
100
AcDbSpline
 70
8
 71
3
 72
8
 73
4
 74
0
 40
0
 40
0
 40
0
 40
0
 40
1
 40
1
 40
1
 40
1
 10
46.049097
 20
233.964174
 30
0.0
 10
46.049097
 20
233.672030
 30
0.0
 10
46.106056
 20
233.452463
 30
0.0
 10
46.219974
 20
233.305473
 30
0.0
  0
SPLINE
  5
1ea
100
AcDbEntity
  8
Calque_1
 62
7
100
AcDbSpline
 70
8
 71
3
 72
8
 73
4
 74
0
 40
0
 40
0
 40
0
 40
0
 40
1
 40
1
 40
1
 40
1
 10
46.219974
 20
233.305473
 30
0.0
 10
46.333892
 20
233.160320
 30
0.0
 10
46.504769
 20
233.087744
 30
0.0
 10
46.732605
 20
233.087744
 30
0.0
  0
SPLINE
  5
1eb
100
AcDbEntity
  8
Calque_1
 62
7
100
AcDbSpline
 70
8
 71
3
 72
8
 73
4
 74
0
 40
0
 40
0
 40
0
 40
0
 40
1
 40
1
 40
1
 40
1
 10
46.732605
 20
233.087744
 30
0.0
 10
47.006375
 20
233.087744
 30
0.0
 10
47.222268
 20
233.175019
 30
0.0
 10
47.380282
 20
233.349570
 30
0.0
  0
SPLINE
  5
1ec
100
AcDbEntity
  8
Calque_1
 62
7
100
AcDbSpline
 70
8
 71
3
 72
8
 73
4
 74
0
 40
0
 40
0
 40
0
 40
0
 40
1
 40
1
 40
1
 40
1
 10
47.380282
 20
233.349570
 30
0.0
 10
47.540135
 20
233.524121
 30
0.0
 10
47.620061
 20
233.762062
 30
0.0
 10
47.620061
 20
234.063395
 30
0.0
  0
LINE
  5
1ed
100
AcDbEntity
  8
Calque_1
 62
7
100
AcDbLine
 10
47.620061
 20
234.063395
 30
0.0
 11
47.620061
 21
235.813503
 31
0.0
  0
LINE
  5
1ee
100
AcDbEntity
  8
Calque_1
 62
7
100
AcDbLine
 10
47.620061
 20
235.813503
 30
0.0
 11
48.127178
 21
235.813503
 31
0.0
  0
LINE
  5
1ef
100
AcDbEntity
  8
Calque_1
 62
7
100
AcDbLine
 10
48.127178
 20
235.813503
 30
0.0
 11
48.127178
 21
232.726697
 31
0.0
  0
LINE
  5
1f0
100
AcDbEntity
  8
Calque_1
 62
7
100
AcDbLine
 10
48.127178
 20
232.726697
 30
0.0
 11
47.620061
 21
232.726697
 31
0.0
  0
LINE
  5
1f1
100
AcDbEntity
  8
Calque_1
 62
7
100
AcDbLine
 10
47.620061
 20
232.726697
 30
0.0
 11
47.620061
 21
233.200743
 31
0.0
  0
SPLINE
  5
1f2
100
AcDbEntity
  8
Calque_1
 62
7
100
AcDbSpline
 70
8
 71
3
 72
8
 73
4
 74
0
 40
0
 40
0
 40
0
 40
0
 40
1
 40
1
 40
1
 40
1
 10
47.620061
 20
233.200743
 30
0.0
 10
47.496956
 20
233.013328
 30
0.0
 10
47.353640
 20
232.873687
 30
0.0
 10
47.190112
 20
232.781818
 30
0.0
  0
SPLINE
  5
1f3
100
AcDbEntity
  8
Calque_1
 62
7
100
AcDbSpline
 70
8
 71
3
 72
8
 73
4
 74
0
 40
0
 40
0
 40
0
 40
0
 40
1
 40
1
 40
1
 40
1
 10
47.190112
 20
232.781818
 30
0.0
 10
47.028424
 20
232.691787
 30
0.0
 10
46.840092
 20
232.646772
 30
0.0
 10
46.625118
 20
232.646772
 30
0.0
  0
SPLINE
  5
1f4
100
AcDbEntity
  8
Calque_1
 62
7
100
AcDbSpline
 70
8
 71
3
 72
8
 73
4
 74
0
 40
0
 40
0
 40
0
 40
0
 40
1
 40
1
 40
1
 40
1
 10
46.625118
 20
232.646772
 30
0.0
 10
46.270502
 20
232.646772
 30
0.0
 10
46.001325
 20
232.757014
 30
0.0
 10
45.817587
 20
232.977499
 30
0.0
  0
SPLINE
  5
1f5
100
AcDbEntity
  8
Calque_1
 62
7
100
AcDbSpline
 70
8
 71
3
 72
8
 73
4
 74
0
 40
0
 40
0
 40
0
 40
0
 40
1
 40
1
 40
1
 40
1
 10
45.817587
 20
232.977499
 30
0.0
 10
45.633849
 20
233.197986
 30
0.0
 10
45.541980
 20
233.520447
 30
0.0
 10
45.541980
 20
233.944881
 30
0.0
  0
LINE
  5
1f6
100
AcDbEntity
  8
Calque_1
 62
7
100
AcDbLine
 10
45.541980
 20
233.944881
 30
0.0
 11
45.541980
 21
233.944881
 31
0.0
  0
LINE
  5
1f7
100
AcDbEntity
  8
Calque_1
 62
7
100
AcDbLine
 10
46.818042
 20
235.887916
 30
0.0
 11
46.818042
 21
235.887916
 31
0.0
  0
LINE
  5
1f8
100
AcDbEntity
  8
Calque_1
 62
7
100
AcDbLine
 10
46.818042
 20
235.887916
 30
0.0
 11
46.818042
 21
235.887916
 31
0.0
  0
SPLINE
  5
1f9
100
AcDbEntity
  8
Calque_1
 62
7
100
AcDbSpline
 70
8
 71
3
 72
8
 73
4
 74
0
 40
0
 40
0
 40
0
 40
0
 40
1
 40
1
 40
1
 40
1
 10
50.965938
 20
235.339457
 30
0.0
 10
50.908978
 20
235.372529
 30
0.0
 10
50.846506
 20
235.396416
 30
0.0
 10
50.778523
 20
235.411116
 30
0.0
  0
SPLINE
  5
1fa
100
AcDbEntity
  8
Calque_1
 62
7
100
AcDbSpline
 70
8
 71
3
 72
8
 73
4
 74
0
 40
0
 40
0
 40
0
 40
0
 40
1
 40
1
 40
1
 40
1
 10
50.778523
 20
235.411116
 30
0.0
 10
50.712378
 20
235.427654
 30
0.0
 10
50.638882
 20
235.435923
 30
0.0
 10
50.558037
 20
235.435923
 30
0.0
  0
SPLINE
  5
1fb
100
AcDbEntity
  8
Calque_1
 62
7
100
AcDbSpline
 70
8
 71
3
 72
8
 73
4
 74
0
 40
0
 40
0
 40
0
 40
0
 40
1
 40
1
 40
1
 40
1
 10
50.558037
 20
235.435923
 30
0.0
 10
50.271406
 20
235.435923
 30
0.0
 10
50.050920
 20
235.342216
 30
0.0
 10
49.896578
 20
235.154802
 30
0.0
  0
SPLINE
  5
1fc
100
AcDbEntity
  8
Calque_1
 62
7
100
AcDbSpline
 70
8
 71
3
 72
8
 73
4
 74
0
 40
0
 40
0
 40
0
 40
0
 40
1
 40
1
 40
1
 40
1
 10
49.896578
 20
235.154802
 30
0.0
 10
49.744077
 20
234.969227
 30
0.0
 10
49.667826
 20
234.701888
 30
0.0
 10
49.667826
 20
234.352785
 30
0.0
  0
LINE
  5
1fd
100
AcDbEntity
  8
Calque_1
 62
7
100
AcDbLine
 10
49.667826
 20
234.352785
 30
0.0
 11
49.667826
 21
232.726700
 31
0.0
  0
LINE
  5
1fe
100
AcDbEntity
  8
Calque_1
 62
7
100
AcDbLine
 10
49.667826
 20
232.726700
 30
0.0
 11
49.157952
 21
232.726700
 31
0.0
  0
LINE
  5
1ff
100
AcDbEntity
  8
Calque_1
 62
7
100
AcDbLine
 10
49.157952
 20
232.726700
 30
0.0
 11
49.157952
 21
235.813505
 31
0.0
  0
LINE
  5
200
100
AcDbEntity
  8
Calque_1
 62
7
100
AcDbLine
 10
49.157952
 20
235.813505
 30
0.0
 11
49.667826
 21
235.813505
 31
0.0
  0
LINE
  5
201
100
AcDbEntity
  8
Calque_1
 62
7
100
AcDbLine
 10
49.667826
 20
235.813505
 30
0.0
 11
49.667826
 21
235.333948
 31
0.0
  0
SPLINE
  5
202
100
AcDbEntity
  8
Calque_1
 62
7
100
AcDbSpline
 70
8
 71
3
 72
8
 73
4
 74
0
 40
0
 40
0
 40
0
 40
0
 40
1
 40
1
 40
1
 40
1
 10
49.667826
 20
235.333948
 30
0.0
 10
49.774393
 20
235.521360
 30
0.0
 10
49.913116
 20
235.660083
 30
0.0
 10
50.083994
 20
235.750115
 30
0.0
  0
SPLINE
  5
203
100
AcDbEntity
  8
Calque_1
 62
7
100
AcDbSpline
 70
8
 71
3
 72
8
 73
4
 74
0
 40
0
 40
0
 40
0
 40
0
 40
1
 40
1
 40
1
 40
1
 10
50.083994
 20
235.750115
 30
0.0
 10
50.254870
 20
235.841984
 30
0.0
 10
50.462494
 20
235.887919
 30
0.0
 10
50.706867
 20
235.887919
 30
0.0
  0
SPLINE
  5
204
100
AcDbEntity
  8
Calque_1
 62
7
100
AcDbSpline
 70
8
 71
3
 72
8
 73
4
 74
0
 40
0
 40
0
 40
0
 40
0
 40
1
 40
1
 40
1
 40
1
 10
50.706867
 20
235.887919
 30
0.0
 10
50.741778
 20
235.887919
 30
0.0
 10
50.780362
 20
235.885163
 30
0.0
 10
50.822620
 20
235.879650
 30
0.0
  0
SPLINE
  5
205
100
AcDbEntity
  8
Calque_1
 62
7
100
AcDbSpline
 70
8
 71
3
 72
8
 73
4
 74
0
 40
0
 40
0
 40
0
 40
0
 40
1
 40
1
 40
1
 40
1
 10
50.822620
 20
235.879650
 30
0.0
 10
50.864880
 20
235.875981
 30
0.0
 10
50.911734
 20
235.869546
 30
0.0
 10
50.963181
 20
235.860346
 30
0.0
  0
LINE
  5
206
100
AcDbEntity
  8
Calque_1
 62
7
100
AcDbLine
 10
50.963181
 20
235.860346
 30
0.0
 11
50.966003
 21
235.339448
 31
0.0
  0
LINE
  5
207
100
AcDbEntity
  8
Calque_1
 62
7
100
AcDbLine
 10
50.966003
 20
235.339448
 30
0.0
 11
50.965938
 21
235.339457
 31
0.0
  0
LINE
  5
208
100
AcDbEntity
  8
Calque_1
 62
7
100
AcDbLine
 10
17.366610
 20
227.341324
 30
0.0
 11
17.366610
 21
227.093276
 31
0.0
  0
LINE
  5
209
100
AcDbEntity
  8
Calque_1
 62
7
100
AcDbLine
 10
17.366610
 20
227.093276
 30
0.0
 11
15.034970
 21
227.093276
 31
0.0
  0
SPLINE
  5
20a
100
AcDbEntity
  8
Calque_1
 62
7
100
AcDbSpline
 70
8
 71
3
 72
8
 73
4
 74
0
 40
0
 40
0
 40
0
 40
0
 40
1
 40
1
 40
1
 40
1
 10
15.034970
 20
227.093276
 30
0.0
 10
15.057018
 20
226.744173
 30
0.0
 10
15.161749
 20
226.477752
 30
0.0
 10
15.349162
 20
226.294014
 30
0.0
  0
SPLINE
  5
20b
100
AcDbEntity
  8
Calque_1
 62
7
100
AcDbSpline
 70
8
 71
3
 72
8
 73
4
 74
0
 40
0
 40
0
 40
0
 40
0
 40
1
 40
1
 40
1
 40
1
 10
15.349162
 20
226.294014
 30
0.0
 10
15.538413
 20
226.112113
 30
0.0
 10
15.801159
 20
226.021162
 30
0.0
 10
16.137400
 20
226.021162
 30
0.0
  0
SPLINE
  5
20c
100
AcDbEntity
  8
Calque_1
 62
7
100
AcDbSpline
 70
8
 71
3
 72
8
 73
4
 74
0
 40
0
 40
0
 40
0
 40
0
 40
1
 40
1
 40
1
 40
1
 10
16.137400
 20
226.021162
 30
0.0
 10
16.332163
 20
226.021162
 30
0.0
 10
16.520495
 20
226.045048
 30
0.0
 10
16.702396
 20
226.092821
 30
0.0
  0
SPLINE
  5
20d
100
AcDbEntity
  8
Calque_1
 62
7
100
AcDbSpline
 70
8
 71
3
 72
8
 73
4
 74
0
 40
0
 40
0
 40
0
 40
0
 40
1
 40
1
 40
1
 40
1
 10
16.702396
 20
226.092821
 30
0.0
 10
16.886134
 20
226.140594
 30
0.0
 10
17.068035
 20
226.212252
 30
0.0
 10
17.248099
 20
226.307795
 30
0.0
  0
LINE
  5
20e
100
AcDbEntity
  8
Calque_1
 62
7
100
AcDbLine
 10
17.248099
 20
226.307795
 30
0.0
 11
17.248099
 21
225.828238
 31
0.0
  0
SPLINE
  5
20f
100
AcDbEntity
  8
Calque_1
 62
7
100
AcDbSpline
 70
8
 71
3
 72
8
 73
4
 74
0
 40
0
 40
0
 40
0
 40
0
 40
1
 40
1
 40
1
 40
1
 10
17.248099
 20
225.828238
 30
0.0
 10
17.066198
 20
225.751067
 30
0.0
 10
16.879703
 20
225.692270
 30
0.0
 10
16.688615
 20
225.651849
 30
0.0
  0
SPLINE
  5
210
100
AcDbEntity
  8
Calque_1
 62
7
100
AcDbSpline
 70
8
 71
3
 72
8
 73
4
 74
0
 40
0
 40
0
 40
0
 40
0
 40
1
 40
1
 40
1
 40
1
 10
16.688615
 20
225.651849
 30
0.0
 10
16.497527
 20
225.611427
 30
0.0
 10
16.303683
 20
225.591216
 30
0.0
 10
16.107083
 20
225.591216
 30
0.0
  0
SPLINE
  5
211
100
AcDbEntity
  8
Calque_1
 62
7
100
AcDbSpline
 70
8
 71
3
 72
8
 73
4
 74
0
 40
0
 40
0
 40
0
 40
0
 40
1
 40
1
 40
1
 40
1
 10
16.107083
 20
225.591216
 30
0.0
 10
15.614664
 20
225.591216
 30
0.0
 10
15.224220
 20
225.734531
 30
0.0
 10
14.935751
 20
226.021162
 30
0.0
  0
SPLINE
  5
212
100
AcDbEntity
  8
Calque_1
 62
7
100
AcDbSpline
 70
8
 71
3
 72
8
 73
4
 74
0
 40
0
 40
0
 40
0
 40
0
 40
1
 40
1
 40
1
 40
1
 10
14.935751
 20
226.021162
 30
0.0
 10
14.649119
 20
226.307794
 30
0.0
 10
14.505803
 20
226.695483
 30
0.0
 10
14.505803
 20
227.184228
 30
0.0
  0
SPLINE
  5
213
100
AcDbEntity
  8
Calque_1
 62
7
100
AcDbSpline
 70
8
 71
3
 72
8
 73
4
 74
0
 40
0
 40
0
 40
0
 40
0
 40
1
 40
1
 40
1
 40
1
 10
14.505803
 20
227.184228
 30
0.0
 10
14.505803
 20
227.689507
 30
0.0
 10
14.641769
 20
228.090057
 30
0.0
 10
14.913702
 20
228.385877
 30
0.0
  0
SPLINE
  5
214
100
AcDbEntity
  8
Calque_1
 62
7
100
AcDbSpline
 70
8
 71
3
 72
8
 73
4
 74
0
 40
0
 40
0
 40
0
 40
0
 40
1
 40
1
 40
1
 40
1
 10
14.913702
 20
228.385877
 30
0.0
 10
15.187472
 20
228.683533
 30
0.0
 10
15.555868
 20
228.832361
 30
0.0
 10
16.018889
 20
228.832361
 30
0.0
  0
SPLINE
  5
215
100
AcDbEntity
  8
Calque_1
 62
7
100
AcDbSpline
 70
8
 71
3
 72
8
 73
4
 74
0
 40
0
 40
0
 40
0
 40
0
 40
1
 40
1
 40
1
 40
1
 10
16.018889
 20
228.832361
 30
0.0
 10
16.434138
 20
228.832361
 30
0.0
 10
16.762111
 20
228.698232
 30
0.0
 10
17.002808
 20
228.429974
 30
0.0
  0
SPLINE
  5
216
100
AcDbEntity
  8
Calque_1
 62
7
100
AcDbSpline
 70
8
 71
3
 72
8
 73
4
 74
0
 40
0
 40
0
 40
0
 40
0
 40
1
 40
1
 40
1
 40
1
 10
17.002808
 20
228.429974
 30
0.0
 10
17.245343
 20
228.163552
 30
0.0
 10
17.366610
 20
227.800669
 30
0.0
 10
17.366610
 20
227.341324
 30
0.0
  0
LINE
  5
217
100
AcDbEntity
  8
Calque_1
 62
7
100
AcDbLine
 10
17.366610
 20
227.341324
 30
0.0
 11
17.366610
 21
227.341324
 31
0.0
  0
SPLINE
  5
218
100
AcDbEntity
  8
Calque_1
 62
7
100
AcDbSpline
 70
8
 71
3
 72
8
 73
4
 74
0
 40
0
 40
0
 40
0
 40
0
 40
1
 40
1
 40
1
 40
1
 10
16.859492
 20
227.490151
 30
0.0
 10
16.855818
 20
227.767596
 30
0.0
 10
16.777729
 20
227.989002
 30
0.0
 10
16.625225
 20
228.154367
 30
0.0
  0
SPLINE
  5
219
100
AcDbEntity
  8
Calque_1
 62
7
100
AcDbSpline
 70
8
 71
3
 72
8
 73
4
 74
0
 40
0
 40
0
 40
0
 40
0
 40
1
 40
1
 40
1
 40
1
 10
16.625225
 20
228.154367
 30
0.0
 10
16.474560
 20
228.319730
 30
0.0
 10
16.274285
 20
228.402412
 30
0.0
 10
16.024401
 20
228.402412
 30
0.0
  0
SPLINE
  5
21a
100
AcDbEntity
  8
Calque_1
 62
7
100
AcDbSpline
 70
8
 71
3
 72
8
 73
4
 74
0
 40
0
 40
0
 40
0
 40
0
 40
1
 40
1
 40
1
 40
1
 10
16.024401
 20
228.402412
 30
0.0
 10
15.741444
 20
228.402412
 30
0.0
 10
15.514527
 20
228.322486
 30
0.0
 10
15.343650
 20
228.162633
 30
0.0
  0
SPLINE
  5
21b
100
AcDbEntity
  8
Calque_1
 62
7
100
AcDbSpline
 70
8
 71
3
 72
8
 73
4
 74
0
 40
0
 40
0
 40
0
 40
0
 40
1
 40
1
 40
1
 40
1
 10
15.343650
 20
228.162633
 30
0.0
 10
15.174611
 20
228.002781
 30
0.0
 10
15.077229
 20
227.777702
 30
0.0
 10
15.051506
 20
227.487397
 30
0.0
  0
LINE
  5
21c
100
AcDbEntity
  8
Calque_1
 62
7
100
AcDbLine
 10
15.051506
 20
227.487397
 30
0.0
 11
16.859492
 21
227.490219
 31
0.0
  0
LINE
  5
21d
100
AcDbEntity
  8
Calque_1
 62
7
100
AcDbLine
 10
16.859492
 20
227.490219
 30
0.0
 11
16.859492
 21
227.490151
 31
0.0
  0
LINE
  5
21e
100
AcDbEntity
  8
Calque_1
 62
7
100
AcDbLine
 10
16.371667
 20
230.185594
 30
0.0
 11
16.920126
 21
230.185594
 31
0.0
  0
LINE
  5
21f
100
AcDbEntity
  8
Calque_1
 62
7
100
AcDbLine
 10
16.920126
 20
230.185594
 30
0.0
 11
16.021645
 21
229.149310
 31
0.0
  0
LINE
  5
220
100
AcDbEntity
  8
Calque_1
 62
7
100
AcDbLine
 10
16.021645
 20
229.149310
 30
0.0
 11
15.599965
 21
229.149310
 31
0.0
  0
LINE
  5
221
100
AcDbEntity
  8
Calque_1
 62
7
100
AcDbLine
 10
15.599965
 20
229.149310
 30
0.0
 11
16.371667
 21
230.185594
 31
0.0
  0
LINE
  5
222
100
AcDbEntity
  8
Calque_1
 62
7
100
AcDbLine
 10
16.371667
 20
230.185594
 30
0.0
 11
16.371667
 21
230.185594
 31
0.0
  0
LINE
  5
223
100
AcDbEntity
  8
Calque_1
 62
7
100
AcDbLine
 10
18.198945
 20
229.959596
 30
0.0
 11
18.706063
 21
229.959596
 31
0.0
  0
LINE
  5
224
100
AcDbEntity
  8
Calque_1
 62
7
100
AcDbLine
 10
18.706063
 20
229.959596
 30
0.0
 11
18.706063
 21
225.671141
 31
0.0
  0
LINE
  5
225
100
AcDbEntity
  8
Calque_1
 62
7
100
AcDbLine
 10
18.706063
 20
225.671141
 30
0.0
 11
18.198945
 21
225.671141
 31
0.0
  0
LINE
  5
226
100
AcDbEntity
  8
Calque_1
 62
7
100
AcDbLine
 10
18.198945
 20
225.671141
 30
0.0
 11
18.198945
 21
229.959596
 31
0.0
  0
LINE
  5
227
100
AcDbEntity
  8
Calque_1
 62
7
100
AcDbLine
 10
18.198945
 20
229.959596
 30
0.0
 11
18.198945
 21
229.959596
 31
0.0
  0
LINE
  5
228
100
AcDbEntity
  8
Calque_1
 62
7
100
AcDbLine
 10
22.404718
 20
227.341324
 30
0.0
 11
22.404718
 21
227.093276
 31
0.0
  0
LINE
  5
229
100
AcDbEntity
  8
Calque_1
 62
7
100
AcDbLine
 10
22.404718
 20
227.093276
 30
0.0
 11
20.073077
 21
227.093276
 31
0.0
  0
SPLINE
  5
22a
100
AcDbEntity
  8
Calque_1
 62
7
100
AcDbSpline
 70
8
 71
3
 72
8
 73
4
 74
0
 40
0
 40
0
 40
0
 40
0
 40
1
 40
1
 40
1
 40
1
 10
20.073077
 20
227.093276
 30
0.0
 10
20.095126
 20
226.744173
 30
0.0
 10
20.199857
 20
226.477752
 30
0.0
 10
20.387270
 20
226.294014
 30
0.0
  0
SPLINE
  5
22b
100
AcDbEntity
  8
Calque_1
 62
7
100
AcDbSpline
 70
8
 71
3
 72
8
 73
4
 74
0
 40
0
 40
0
 40
0
 40
0
 40
1
 40
1
 40
1
 40
1
 10
20.387270
 20
226.294014
 30
0.0
 10
20.576520
 20
226.112113
 30
0.0
 10
20.839266
 20
226.021162
 30
0.0
 10
21.175508
 20
226.021162
 30
0.0
  0
SPLINE
  5
22c
100
AcDbEntity
  8
Calque_1
 62
7
100
AcDbSpline
 70
8
 71
3
 72
8
 73
4
 74
0
 40
0
 40
0
 40
0
 40
0
 40
1
 40
1
 40
1
 40
1
 10
21.175508
 20
226.021162
 30
0.0
 10
21.370270
 20
226.021162
 30
0.0
 10
21.558602
 20
226.045048
 30
0.0
 10
21.740503
 20
226.092821
 30
0.0
  0
SPLINE
  5
22d
100
AcDbEntity
  8
Calque_1
 62
7
100
AcDbSpline
 70
8
 71
3
 72
8
 73
4
 74
0
 40
0
 40
0
 40
0
 40
0
 40
1
 40
1
 40
1
 40
1
 10
21.740503
 20
226.092821
 30
0.0
 10
21.924242
 20
226.140594
 30
0.0
 10
22.106143
 20
226.212252
 30
0.0
 10
22.286206
 20
226.307795
 30
0.0
  0
LINE
  5
22e
100
AcDbEntity
  8
Calque_1
 62
7
100
AcDbLine
 10
22.286206
 20
226.307795
 30
0.0
 11
22.286206
 21
225.828238
 31
0.0
  0
SPLINE
  5
22f
100
AcDbEntity
  8
Calque_1
 62
7
100
AcDbSpline
 70
8
 71
3
 72
8
 73
4
 74
0
 40
0
 40
0
 40
0
 40
0
 40
1
 40
1
 40
1
 40
1
 10
22.286206
 20
225.828238
 30
0.0
 10
22.104305
 20
225.751067
 30
0.0
 10
21.917811
 20
225.692270
 30
0.0
 10
21.726723
 20
225.651849
 30
0.0
  0
SPLINE
  5
230
100
AcDbEntity
  8
Calque_1
 62
7
100
AcDbSpline
 70
8
 71
3
 72
8
 73
4
 74
0
 40
0
 40
0
 40
0
 40
0
 40
1
 40
1
 40
1
 40
1
 10
21.726723
 20
225.651849
 30
0.0
 10
21.535635
 20
225.611427
 30
0.0
 10
21.341791
 20
225.591216
 30
0.0
 10
21.145191
 20
225.591216
 30
0.0
  0
SPLINE
  5
231
100
AcDbEntity
  8
Calque_1
 62
7
100
AcDbSpline
 70
8
 71
3
 72
8
 73
4
 74
0
 40
0
 40
0
 40
0
 40
0
 40
1
 40
1
 40
1
 40
1
 10
21.145191
 20
225.591216
 30
0.0
 10
20.652772
 20
225.591216
 30
0.0
 10
20.262328
 20
225.734531
 30
0.0
 10
19.973858
 20
226.021162
 30
0.0
  0
SPLINE
  5
232
100
AcDbEntity
  8
Calque_1
 62
7
100
AcDbSpline
 70
8
 71
3
 72
8
 73
4
 74
0
 40
0
 40
0
 40
0
 40
0
 40
1
 40
1
 40
1
 40
1
 10
19.973858
 20
226.021162
 30
0.0
 10
19.687226
 20
226.307794
 30
0.0
 10
19.543910
 20
226.695483
 30
0.0
 10
19.543910
 20
227.184228
 30
0.0
  0
SPLINE
  5
233
100
AcDbEntity
  8
Calque_1
 62
7
100
AcDbSpline
 70
8
 71
3
 72
8
 73
4
 74
0
 40
0
 40
0
 40
0
 40
0
 40
1
 40
1
 40
1
 40
1
 10
19.543910
 20
227.184228
 30
0.0
 10
19.543910
 20
227.689507
 30
0.0
 10
19.679877
 20
228.090057
 30
0.0
 10
19.951810
 20
228.385877
 30
0.0
  0
SPLINE
  5
234
100
AcDbEntity
  8
Calque_1
 62
7
100
AcDbSpline
 70
8
 71
3
 72
8
 73
4
 74
0
 40
0
 40
0
 40
0
 40
0
 40
1
 40
1
 40
1
 40
1
 10
19.951810
 20
228.385877
 30
0.0
 10
20.225580
 20
228.683533
 30
0.0
 10
20.593976
 20
228.832361
 30
0.0
 10
21.056996
 20
228.832361
 30
0.0
  0
SPLINE
  5
235
100
AcDbEntity
  8
Calque_1
 62
7
100
AcDbSpline
 70
8
 71
3
 72
8
 73
4
 74
0
 40
0
 40
0
 40
0
 40
0
 40
1
 40
1
 40
1
 40
1
 10
21.056996
 20
228.832361
 30
0.0
 10
21.472245
 20
228.832361
 30
0.0
 10
21.800218
 20
228.698232
 30
0.0
 10
22.040916
 20
228.429974
 30
0.0
  0
SPLINE
  5
236
100
AcDbEntity
  8
Calque_1
 62
7
100
AcDbSpline
 70
8
 71
3
 72
8
 73
4
 74
0
 40
0
 40
0
 40
0
 40
0
 40
1
 40
1
 40
1
 40
1
 10
22.040916
 20
228.429974
 30
0.0
 10
22.283450
 20
228.163552
 30
0.0
 10
22.404718
 20
227.800669
 30
0.0
 10
22.404718
 20
227.341324
 30
0.0
  0
LINE
  5
237
100
AcDbEntity
  8
Calque_1
 62
7
100
AcDbLine
 10
22.404718
 20
227.341324
 30
0.0
 11
22.404718
 21
227.341324
 31
0.0
  0
SPLINE
  5
238
100
AcDbEntity
  8
Calque_1
 62
7
100
AcDbSpline
 70
8
 71
3
 72
8
 73
4
 74
0
 40
0
 40
0
 40
0
 40
0
 40
1
 40
1
 40
1
 40
1
 10
21.897600
 20
227.490151
 30
0.0
 10
21.893925
 20
227.767596
 30
0.0
 10
21.815836
 20
227.989002
 30
0.0
 10
21.663333
 20
228.154367
 30
0.0
  0
SPLINE
  5
239
100
AcDbEntity
  8
Calque_1
 62
7
100
AcDbSpline
 70
8
 71
3
 72
8
 73
4
 74
0
 40
0
 40
0
 40
0
 40
0
 40
1
 40
1
 40
1
 40
1
 10
21.663333
 20
228.154367
 30
0.0
 10
21.512668
 20
228.319730
 30
0.0
 10
21.312393
 20
228.402412
 30
0.0
 10
21.062509
 20
228.402412
 30
0.0
  0
SPLINE
  5
23a
100
AcDbEntity
  8
Calque_1
 62
7
100
AcDbSpline
 70
8
 71
3
 72
8
 73
4
 74
0
 40
0
 40
0
 40
0
 40
0
 40
1
 40
1
 40
1
 40
1
 10
21.062509
 20
228.402412
 30
0.0
 10
20.779551
 20
228.402412
 30
0.0
 10
20.552634
 20
228.322486
 30
0.0
 10
20.381758
 20
228.162633
 30
0.0
  0
SPLINE
  5
23b
100
AcDbEntity
  8
Calque_1
 62
7
100
AcDbSpline
 70
8
 71
3
 72
8
 73
4
 74
0
 40
0
 40
0
 40
0
 40
0
 40
1
 40
1
 40
1
 40
1
 10
20.381758
 20
228.162633
 30
0.0
 10
20.212718
 20
228.002781
 30
0.0
 10
20.115337
 20
227.777702
 30
0.0
 10
20.089614
 20
227.487397
 30
0.0
  0
LINE
  5
23c
100
AcDbEntity
  8
Calque_1
 62
7
100
AcDbLine
 10
20.089614
 20
227.487397
 30
0.0
 11
21.897600
 21
227.490219
 31
0.0
  0
LINE
  5
23d
100
AcDbEntity
  8
Calque_1
 62
7
100
AcDbLine
 10
21.897600
 20
227.490219
 30
0.0
 11
21.897600
 21
227.490151
 31
0.0
  0
LINE
  5
23e
100
AcDbEntity
  8
Calque_1
 62
7
100
AcDbLine
 10
21.409774
 20
230.185594
 30
0.0
 11
21.958233
 21
230.185594
 31
0.0
  0
LINE
  5
23f
100
AcDbEntity
  8
Calque_1
 62
7
100
AcDbLine
 10
21.958233
 20
230.185594
 30
0.0
 11
21.059752
 21
229.149310
 31
0.0
  0
LINE
  5
240
100
AcDbEntity
  8
Calque_1
 62
7
100
AcDbLine
 10
21.059752
 20
229.149310
 30
0.0
 11
20.638073
 21
229.149310
 31
0.0
  0
LINE
  5
241
100
AcDbEntity
  8
Calque_1
 62
7
100
AcDbLine
 10
20.638073
 20
229.149310
 30
0.0
 11
21.409774
 21
230.185594
 31
0.0
  0
LINE
  5
242
100
AcDbEntity
  8
Calque_1
 62
7
100
AcDbLine
 10
21.409774
 20
230.185594
 30
0.0
 11
21.409774
 21
230.185594
 31
0.0
  0
LINE
  5
243
100
AcDbEntity
  8
Calque_1
 62
7
100
AcDbLine
 10
25.458450
 20
228.639436
 30
0.0
 11
25.458450
 21
228.165390
 31
0.0
  0
SPLINE
  5
244
100
AcDbEntity
  8
Calque_1
 62
7
100
AcDbSpline
 70
8
 71
3
 72
8
 73
4
 74
0
 40
0
 40
0
 40
0
 40
0
 40
1
 40
1
 40
1
 40
1
 10
25.458450
 20
228.165390
 30
0.0
 10
25.315134
 20
228.244398
 30
0.0
 10
25.170900
 20
228.303194
 30
0.0
 10
25.025746
 20
228.341779
 30
0.0
  0
SPLINE
  5
245
100
AcDbEntity
  8
Calque_1
 62
7
100
AcDbSpline
 70
8
 71
3
 72
8
 73
4
 74
0
 40
0
 40
0
 40
0
 40
0
 40
1
 40
1
 40
1
 40
1
 10
25.025746
 20
228.341779
 30
0.0
 10
24.882430
 20
228.382201
 30
0.0
 10
24.737277
 20
228.402412
 30
0.0
 10
24.590286
 20
228.402412
 30
0.0
  0
SPLINE
  5
246
100
AcDbEntity
  8
Calque_1
 62
7
100
AcDbSpline
 70
8
 71
3
 72
8
 73
4
 74
0
 40
0
 40
0
 40
0
 40
0
 40
1
 40
1
 40
1
 40
1
 10
24.590286
 20
228.402412
 30
0.0
 10
24.261395
 20
228.402412
 30
0.0
 10
24.005998
 20
228.297681
 30
0.0
 10
23.824097
 20
228.088220
 30
0.0
  0
SPLINE
  5
247
100
AcDbEntity
  8
Calque_1
 62
7
100
AcDbSpline
 70
8
 71
3
 72
8
 73
4
 74
0
 40
0
 40
0
 40
0
 40
0
 40
1
 40
1
 40
1
 40
1
 10
23.824097
 20
228.088220
 30
0.0
 10
23.642196
 20
227.880596
 30
0.0
 10
23.551245
 20
227.588452
 30
0.0
 10
23.551245
 20
227.211787
 30
0.0
  0
SPLINE
  5
248
100
AcDbEntity
  8
Calque_1
 62
7
100
AcDbSpline
 70
8
 71
3
 72
8
 73
4
 74
0
 40
0
 40
0
 40
0
 40
0
 40
1
 40
1
 40
1
 40
1
 10
23.551245
 20
227.211787
 30
0.0
 10
23.551245
 20
226.835124
 30
0.0
 10
23.642196
 20
226.542061
 30
0.0
 10
23.824097
 20
226.332600
 30
0.0
  0
SPLINE
  5
249
100
AcDbEntity
  8
Calque_1
 62
7
100
AcDbSpline
 70
8
 71
3
 72
8
 73
4
 74
0
 40
0
 40
0
 40
0
 40
0
 40
1
 40
1
 40
1
 40
1
 10
23.824097
 20
226.332600
 30
0.0
 10
24.005998
 20
226.124975
 30
0.0
 10
24.261395
 20
226.021162
 30
0.0
 10
24.590286
 20
226.021162
 30
0.0
  0
SPLINE
  5
24a
100
AcDbEntity
  8
Calque_1
 62
7
100
AcDbSpline
 70
8
 71
3
 72
8
 73
4
 74
0
 40
0
 40
0
 40
0
 40
0
 40
1
 40
1
 40
1
 40
1
 10
24.590286
 20
226.021162
 30
0.0
 10
24.737277
 20
226.021162
 30
0.0
 10
24.882430
 20
226.040455
 30
0.0
 10
25.025746
 20
226.079040
 30
0.0
  0
SPLINE
  5
24b
100
AcDbEntity
  8
Calque_1
 62
7
100
AcDbSpline
 70
8
 71
3
 72
8
 73
4
 74
0
 40
0
 40
0
 40
0
 40
0
 40
1
 40
1
 40
1
 40
1
 10
25.025746
 20
226.079040
 30
0.0
 10
25.170900
 20
226.119462
 30
0.0
 10
25.315134
 20
226.179177
 30
0.0
 10
25.458450
 20
226.258186
 30
0.0
  0
LINE
  5
24c
100
AcDbEntity
  8
Calque_1
 62
7
100
AcDbLine
 10
25.458450
 20
226.258186
 30
0.0
 11
25.458450
 21
225.789652
 31
0.0
  0
SPLINE
  5
24d
100
AcDbEntity
  8
Calque_1
 62
7
100
AcDbSpline
 70
8
 71
3
 72
8
 73
4
 74
0
 40
0
 40
0
 40
0
 40
0
 40
1
 40
1
 40
1
 40
1
 10
25.458450
 20
225.789652
 30
0.0
 10
25.316972
 20
225.723507
 30
0.0
 10
25.169981
 20
225.673898
 30
0.0
 10
25.017478
 20
225.640825
 30
0.0
  0
SPLINE
  5
24e
100
AcDbEntity
  8
Calque_1
 62
7
100
AcDbSpline
 70
8
 71
3
 72
8
 73
4
 74
0
 40
0
 40
0
 40
0
 40
0
 40
1
 40
1
 40
1
 40
1
 10
25.017478
 20
225.640825
 30
0.0
 10
24.866813
 20
225.607752
 30
0.0
 10
24.706041
 20
225.591216
 30
0.0
 10
24.535165
 20
225.591216
 30
0.0
  0
SPLINE
  5
24f
100
AcDbEntity
  8
Calque_1
 62
7
100
AcDbSpline
 70
8
 71
3
 72
8
 73
4
 74
0
 40
0
 40
0
 40
0
 40
0
 40
1
 40
1
 40
1
 40
1
 10
24.535165
 20
225.591216
 30
0.0
 10
24.070307
 20
225.591216
 30
0.0
 10
23.700992
 20
225.737288
 30
0.0
 10
23.427222
 20
226.029431
 30
0.0
  0
SPLINE
  5
250
100
AcDbEntity
  8
Calque_1
 62
7
100
AcDbSpline
 70
8
 71
3
 72
8
 73
4
 74
0
 40
0
 40
0
 40
0
 40
0
 40
1
 40
1
 40
1
 40
1
 10
23.427222
 20
226.029431
 30
0.0
 10
23.153452
 20
226.321574
 30
0.0
 10
23.016567
 20
226.715693
 30
0.0
 10
23.016567
 20
227.211787
 30
0.0
  0
SPLINE
  5
251
100
AcDbEntity
  8
Calque_1
 62
7
100
AcDbSpline
 70
8
 71
3
 72
8
 73
4
 74
0
 40
0
 40
0
 40
0
 40
0
 40
1
 40
1
 40
1
 40
1
 10
23.016567
 20
227.211787
 30
0.0
 10
23.016567
 20
227.715230
 30
0.0
 10
23.154371
 20
228.111187
 30
0.0
 10
23.429978
 20
228.399657
 30
0.0
  0
SPLINE
  5
252
100
AcDbEntity
  8
Calque_1
 62
7
100
AcDbSpline
 70
8
 71
3
 72
8
 73
4
 74
0
 40
0
 40
0
 40
0
 40
0
 40
1
 40
1
 40
1
 40
1
 10
23.429978
 20
228.399657
 30
0.0
 10
23.707423
 20
228.688126
 30
0.0
 10
24.086843
 20
228.832361
 30
0.0
 10
24.568238
 20
228.832361
 30
0.0
  0
SPLINE
  5
253
100
AcDbEntity
  8
Calque_1
 62
7
100
AcDbSpline
 70
8
 71
3
 72
8
 73
4
 74
0
 40
0
 40
0
 40
0
 40
0
 40
1
 40
1
 40
1
 40
1
 10
24.568238
 20
228.832361
 30
0.0
 10
24.724415
 20
228.832361
 30
0.0
 10
24.876918
 20
228.815824
 30
0.0
 10
25.025746
 20
228.782752
 30
0.0
  0
SPLINE
  5
254
100
AcDbEntity
  8
Calque_1
 62
7
100
AcDbSpline
 70
8
 71
3
 72
8
 73
4
 74
0
 40
0
 40
0
 40
0
 40
0
 40
1
 40
1
 40
1
 40
1
 10
25.025746
 20
228.782752
 30
0.0
 10
25.174574
 20
228.751515
 30
0.0
 10
25.318809
 20
228.703743
 30
0.0
 10
25.458450
 20
228.639436
 30
0.0
  0
LINE
  5
255
100
AcDbEntity
  8
Calque_1
 62
7
100
AcDbLine
 10
25.458450
 20
228.639436
 30
0.0
 11
25.458450
 21
228.639436
 31
0.0
  0
LINE
  5
256
100
AcDbEntity
  8
Calque_1
 62
7
100
AcDbLine
 10
26.847513
 20
229.634380
 30
0.0
 11
26.847513
 21
228.757947
 31
0.0
  0
LINE
  5
257
100
AcDbEntity
  8
Calque_1
 62
7
100
AcDbLine
 10
26.847513
 20
228.757947
 30
0.0
 11
27.892066
 21
228.757947
 31
0.0
  0
LINE
  5
258
100
AcDbEntity
  8
Calque_1
 62
7
100
AcDbLine
 10
27.892066
 20
228.757947
 30
0.0
 11
27.892066
 21
228.363826
 31
0.0
  0
LINE
  5
259
100
AcDbEntity
  8
Calque_1
 62
7
100
AcDbLine
 10
27.892066
 20
228.363826
 30
0.0
 11
26.847513
 21
228.363826
 31
0.0
  0
LINE
  5
25a
100
AcDbEntity
  8
Calque_1
 62
7
100
AcDbLine
 10
26.847513
 20
228.363826
 30
0.0
 11
26.847513
 21
226.688132
 31
0.0
  0
SPLINE
  5
25b
100
AcDbEntity
  8
Calque_1
 62
7
100
AcDbSpline
 70
8
 71
3
 72
8
 73
4
 74
0
 40
0
 40
0
 40
0
 40
0
 40
1
 40
1
 40
1
 40
1
 10
26.847513
 20
226.688132
 30
0.0
 10
26.847513
 20
226.436411
 30
0.0
 10
26.881505
 20
226.274721
 30
0.0
 10
26.949488
 20
226.203063
 30
0.0
  0
SPLINE
  5
25c
100
AcDbEntity
  8
Calque_1
 62
7
100
AcDbSpline
 70
8
 71
3
 72
8
 73
4
 74
0
 40
0
 40
0
 40
0
 40
0
 40
1
 40
1
 40
1
 40
1
 10
26.949488
 20
226.203063
 30
0.0
 10
27.019308
 20
226.131404
 30
0.0
 10
27.159868
 20
226.095575
 30
0.0
 10
27.371167
 20
226.095575
 30
0.0
  0
LINE
  5
25d
100
AcDbEntity
  8
Calque_1
 62
7
100
AcDbLine
 10
27.371167
 20
226.095575
 30
0.0
 11
27.892066
 21
226.095575
 31
0.0
  0
LINE
  5
25e
100
AcDbEntity
  8
Calque_1
 62
7
100
AcDbLine
 10
27.892066
 20
226.095575
 30
0.0
 11
27.892066
 21
225.671141
 31
0.0
  0
LINE
  5
25f
100
AcDbEntity
  8
Calque_1
 62
7
100
AcDbLine
 10
27.892066
 20
225.671141
 30
0.0
 11
27.371167
 21
225.671141
 31
0.0
  0
SPLINE
  5
260
100
AcDbEntity
  8
Calque_1
 62
7
100
AcDbSpline
 70
8
 71
3
 72
8
 73
4
 74
0
 40
0
 40
0
 40
0
 40
0
 40
1
 40
1
 40
1
 40
1
 10
27.371167
 20
225.671141
 30
0.0
 10
26.979804
 20
225.671141
 30
0.0
 10
26.709709
 20
225.743718
 30
0.0
 10
26.560881
 20
225.888870
 30
0.0
  0
SPLINE
  5
261
100
AcDbEntity
  8
Calque_1
 62
7
100
AcDbSpline
 70
8
 71
3
 72
8
 73
4
 74
0
 40
0
 40
0
 40
0
 40
0
 40
1
 40
1
 40
1
 40
1
 10
26.560881
 20
225.888870
 30
0.0
 10
26.412053
 20
226.035861
 30
0.0
 10
26.337639
 20
226.302282
 30
0.0
 10
26.337639
 20
226.688132
 30
0.0
  0
LINE
  5
262
100
AcDbEntity
  8
Calque_1
 62
7
100
AcDbLine
 10
26.337639
 20
226.688132
 30
0.0
 11
26.337639
 21
228.363826
 31
0.0
  0
LINE
  5
263
100
AcDbEntity
  8
Calque_1
 62
7
100
AcDbLine
 10
26.337639
 20
228.363826
 30
0.0
 11
25.965569
 21
228.363826
 31
0.0
  0
LINE
  5
264
100
AcDbEntity
  8
Calque_1
 62
7
100
AcDbLine
 10
25.965569
 20
228.363826
 30
0.0
 11
25.965569
 21
228.757947
 31
0.0
  0
LINE
  5
265
100
AcDbEntity
  8
Calque_1
 62
7
100
AcDbLine
 10
25.965569
 20
228.757947
 30
0.0
 11
26.337639
 21
228.757947
 31
0.0
  0
LINE
  5
266
100
AcDbEntity
  8
Calque_1
 62
7
100
AcDbLine
 10
26.337639
 20
228.757947
 30
0.0
 11
26.337639
 21
229.634380
 31
0.0
  0
LINE
  5
267
100
AcDbEntity
  8
Calque_1
 62
7
100
AcDbLine
 10
26.337639
 20
229.634380
 30
0.0
 11
26.847513
 21
229.634380
 31
0.0
  0
LINE
  5
268
100
AcDbEntity
  8
Calque_1
 62
7
100
AcDbLine
 10
26.847513
 20
229.634380
 30
0.0
 11
26.847513
 21
229.634380
 31
0.0
  0
SPLINE
  5
269
100
AcDbEntity
  8
Calque_1
 62
7
100
AcDbSpline
 70
8
 71
3
 72
8
 73
4
 74
0
 40
0
 40
0
 40
0
 40
0
 40
1
 40
1
 40
1
 40
1
 10
30.350485
 20
228.283901
 30
0.0
 10
30.293527
 20
228.316974
 30
0.0
 10
30.231056
 20
228.340860
 30
0.0
 10
30.163073
 20
228.355560
 30
0.0
  0
SPLINE
  5
26a
100
AcDbEntity
  8
Calque_1
 62
7
100
AcDbSpline
 70
8
 71
3
 72
8
 73
4
 74
0
 40
0
 40
0
 40
0
 40
0
 40
1
 40
1
 40
1
 40
1
 10
30.163073
 20
228.355560
 30
0.0
 10
30.096928
 20
228.372098
 30
0.0
 10
30.023432
 20
228.380368
 30
0.0
 10
29.942587
 20
228.380368
 30
0.0
  0
SPLINE
  5
26b
100
AcDbEntity
  8
Calque_1
 62
7
100
AcDbSpline
 70
8
 71
3
 72
8
 73
4
 74
0
 40
0
 40
0
 40
0
 40
0
 40
1
 40
1
 40
1
 40
1
 10
29.942587
 20
228.380368
 30
0.0
 10
29.655954
 20
228.380368
 30
0.0
 10
29.435468
 20
228.286660
 30
0.0
 10
29.281128
 20
228.099246
 30
0.0
  0
SPLINE
  5
26c
100
AcDbEntity
  8
Calque_1
 62
7
100
AcDbSpline
 70
8
 71
3
 72
8
 73
4
 74
0
 40
0
 40
0
 40
0
 40
0
 40
1
 40
1
 40
1
 40
1
 10
29.281128
 20
228.099246
 30
0.0
 10
29.128625
 20
227.913672
 30
0.0
 10
29.052373
 20
227.646333
 30
0.0
 10
29.052373
 20
227.297230
 30
0.0
  0
LINE
  5
26d
100
AcDbEntity
  8
Calque_1
 62
7
100
AcDbLine
 10
29.052373
 20
227.297230
 30
0.0
 11
29.052373
 21
225.671144
 31
0.0
  0
LINE
  5
26e
100
AcDbEntity
  8
Calque_1
 62
7
100
AcDbLine
 10
29.052373
 20
225.671144
 30
0.0
 11
28.542499
 21
225.671144
 31
0.0
  0
LINE
  5
26f
100
AcDbEntity
  8
Calque_1
 62
7
100
AcDbLine
 10
28.542499
 20
225.671144
 30
0.0
 11
28.542499
 21
228.757950
 31
0.0
  0
LINE
  5
270
100
AcDbEntity
  8
Calque_1
 62
7
100
AcDbLine
 10
28.542499
 20
228.757950
 30
0.0
 11
29.052373
 21
228.757950
 31
0.0
  0
LINE
  5
271
100
AcDbEntity
  8
Calque_1
 62
7
100
AcDbLine
 10
29.052373
 20
228.757950
 30
0.0
 11
29.052373
 21
228.278392
 31
0.0
  0
SPLINE
  5
272
100
AcDbEntity
  8
Calque_1
 62
7
100
AcDbSpline
 70
8
 71
3
 72
8
 73
4
 74
0
 40
0
 40
0
 40
0
 40
0
 40
1
 40
1
 40
1
 40
1
 10
29.052373
 20
228.278392
 30
0.0
 10
29.158942
 20
228.465805
 30
0.0
 10
29.297665
 20
228.604527
 30
0.0
 10
29.468541
 20
228.694560
 30
0.0
  0
SPLINE
  5
273
100
AcDbEntity
  8
Calque_1
 62
7
100
AcDbSpline
 70
8
 71
3
 72
8
 73
4
 74
0
 40
0
 40
0
 40
0
 40
0
 40
1
 40
1
 40
1
 40
1
 10
29.468541
 20
228.694560
 30
0.0
 10
29.639419
 20
228.786429
 30
0.0
 10
29.847043
 20
228.832363
 30
0.0
 10
30.091414
 20
228.832363
 30
0.0
  0
SPLINE
  5
274
100
AcDbEntity
  8
Calque_1
 62
7
100
AcDbSpline
 70
8
 71
3
 72
8
 73
4
 74
0
 40
0
 40
0
 40
0
 40
0
 40
1
 40
1
 40
1
 40
1
 10
30.091414
 20
228.832363
 30
0.0
 10
30.126325
 20
228.832363
 30
0.0
 10
30.164910
 20
228.829607
 30
0.0
 10
30.207170
 20
228.824094
 30
0.0
  0
SPLINE
  5
275
100
AcDbEntity
  8
Calque_1
 62
7
100
AcDbSpline
 70
8
 71
3
 72
8
 73
4
 74
0
 40
0
 40
0
 40
0
 40
0
 40
1
 40
1
 40
1
 40
1
 10
30.207170
 20
228.824094
 30
0.0
 10
30.249430
 20
228.820425
 30
0.0
 10
30.296284
 20
228.813991
 30
0.0
 10
30.347731
 20
228.804790
 30
0.0
  0
LINE
  5
276
100
AcDbEntity
  8
Calque_1
 62
7
100
AcDbLine
 10
30.347731
 20
228.804790
 30
0.0
 11
30.350553
 21
228.283893
 31
0.0
  0
LINE
  5
277
100
AcDbEntity
  8
Calque_1
 62
7
100
AcDbLine
 10
30.350553
 20
228.283893
 30
0.0
 11
30.350485
 21
228.283901
 31
0.0
  0
SPLINE
  5
278
100
AcDbEntity
  8
Calque_1
 62
7
100
AcDbSpline
 70
8
 71
3
 72
8
 73
4
 74
0
 40
0
 40
0
 40
0
 40
0
 40
1
 40
1
 40
1
 40
1
 10
31.962790
 20
228.402412
 30
0.0
 10
31.690858
 20
228.402412
 30
0.0
 10
31.475884
 20
228.295844
 30
0.0
 10
31.317870
 20
228.082708
 30
0.0
  0
SPLINE
  5
279
100
AcDbEntity
  8
Calque_1
 62
7
100
AcDbSpline
 70
8
 71
3
 72
8
 73
4
 74
0
 40
0
 40
0
 40
0
 40
0
 40
1
 40
1
 40
1
 40
1
 10
31.317870
 20
228.082708
 30
0.0
 10
31.159854
 20
227.871408
 30
0.0
 10
31.080845
 20
227.581101
 30
0.0
 10
31.080845
 20
227.211787
 30
0.0
  0
SPLINE
  5
27a
100
AcDbEntity
  8
Calque_1
 62
7
100
AcDbSpline
 70
8
 71
3
 72
8
 73
4
 74
0
 40
0
 40
0
 40
0
 40
0
 40
1
 40
1
 40
1
 40
1
 10
31.080845
 20
227.211787
 30
0.0
 10
31.080845
 20
226.842473
 30
0.0
 10
31.158934
 20
226.551248
 30
0.0
 10
31.315112
 20
226.338112
 30
0.0
  0
SPLINE
  5
27b
100
AcDbEntity
  8
Calque_1
 62
7
100
AcDbSpline
 70
8
 71
3
 72
8
 73
4
 74
0
 40
0
 40
0
 40
0
 40
0
 40
1
 40
1
 40
1
 40
1
 10
31.315112
 20
226.338112
 30
0.0
 10
31.473127
 20
226.126812
 30
0.0
 10
31.689019
 20
226.021162
 30
0.0
 10
31.962790
 20
226.021162
 30
0.0
  0
SPLINE
  5
27c
100
AcDbEntity
  8
Calque_1
 62
7
100
AcDbSpline
 70
8
 71
3
 72
8
 73
4
 74
0
 40
0
 40
0
 40
0
 40
0
 40
1
 40
1
 40
1
 40
1
 10
31.962790
 20
226.021162
 30
0.0
 10
32.232886
 20
226.021162
 30
0.0
 10
32.446941
 20
226.127731
 30
0.0
 10
32.604956
 20
226.340869
 30
0.0
  0
SPLINE
  5
27d
100
AcDbEntity
  8
Calque_1
 62
7
100
AcDbSpline
 70
8
 71
3
 72
8
 73
4
 74
0
 40
0
 40
0
 40
0
 40
0
 40
1
 40
1
 40
1
 40
1
 10
32.604956
 20
226.340869
 30
0.0
 10
32.762972
 20
226.554005
 30
0.0
 10
32.841980
 20
226.844311
 30
0.0
 10
32.841980
 20
227.211787
 30
0.0
  0
SPLINE
  5
27e
100
AcDbEntity
  8
Calque_1
 62
7
100
AcDbSpline
 70
8
 71
3
 72
8
 73
4
 74
0
 40
0
 40
0
 40
0
 40
0
 40
1
 40
1
 40
1
 40
1
 10
32.841980
 20
227.211787
 30
0.0
 10
32.841980
 20
227.577426
 30
0.0
 10
32.762972
 20
227.866814
 30
0.0
 10
32.604956
 20
228.079950
 30
0.0
  0
SPLINE
  5
27f
100
AcDbEntity
  8
Calque_1
 62
7
100
AcDbSpline
 70
8
 71
3
 72
8
 73
4
 74
0
 40
0
 40
0
 40
0
 40
0
 40
1
 40
1
 40
1
 40
1
 10
32.604956
 20
228.079950
 30
0.0
 10
32.446941
 20
228.294925
 30
0.0
 10
32.232886
 20
228.402412
 30
0.0
 10
31.962790
 20
228.402412
 30
0.0
  0
LINE
  5
280
100
AcDbEntity
  8
Calque_1
 62
7
100
AcDbLine
 10
31.962790
 20
228.402412
 30
0.0
 11
31.962790
 21
228.402412
 31
0.0
  0
SPLINE
  5
281
100
AcDbEntity
  8
Calque_1
 62
7
100
AcDbSpline
 70
8
 71
3
 72
8
 73
4
 74
0
 40
0
 40
0
 40
0
 40
0
 40
1
 40
1
 40
1
 40
1
 10
31.962790
 20
228.832361
 30
0.0
 10
32.403762
 20
228.832361
 30
0.0
 10
32.750109
 20
228.689044
 30
0.0
 10
33.001831
 20
228.402412
 30
0.0
  0
SPLINE
  5
282
100
AcDbEntity
  8
Calque_1
 62
7
100
AcDbSpline
 70
8
 71
3
 72
8
 73
4
 74
0
 40
0
 40
0
 40
0
 40
0
 40
1
 40
1
 40
1
 40
1
 10
33.001831
 20
228.402412
 30
0.0
 10
33.253552
 20
228.115781
 30
0.0
 10
33.379413
 20
227.718906
 30
0.0
 10
33.379413
 20
227.211787
 30
0.0
  0
SPLINE
  5
283
100
AcDbEntity
  8
Calque_1
 62
7
100
AcDbSpline
 70
8
 71
3
 72
8
 73
4
 74
0
 40
0
 40
0
 40
0
 40
0
 40
1
 40
1
 40
1
 40
1
 10
33.379413
 20
227.211787
 30
0.0
 10
33.379413
 20
226.706508
 30
0.0
 10
33.253552
 20
226.309633
 30
0.0
 10
33.001831
 20
226.021162
 30
0.0
  0
SPLINE
  5
284
100
AcDbEntity
  8
Calque_1
 62
7
100
AcDbSpline
 70
8
 71
3
 72
8
 73
4
 74
0
 40
0
 40
0
 40
0
 40
0
 40
1
 40
1
 40
1
 40
1
 10
33.001831
 20
226.021162
 30
0.0
 10
32.750109
 20
225.734531
 30
0.0
 10
32.403762
 20
225.591216
 30
0.0
 10
31.962790
 20
225.591216
 30
0.0
  0
SPLINE
  5
285
100
AcDbEntity
  8
Calque_1
 62
7
100
AcDbSpline
 70
8
 71
3
 72
8
 73
4
 74
0
 40
0
 40
0
 40
0
 40
0
 40
1
 40
1
 40
1
 40
1
 10
31.962790
 20
225.591216
 30
0.0
 10
31.519981
 20
225.591216
 30
0.0
 10
31.172716
 20
225.734531
 30
0.0
 10
30.920995
 20
226.021162
 30
0.0
  0
SPLINE
  5
286
100
AcDbEntity
  8
Calque_1
 62
7
100
AcDbSpline
 70
8
 71
3
 72
8
 73
4
 74
0
 40
0
 40
0
 40
0
 40
0
 40
1
 40
1
 40
1
 40
1
 10
30.920995
 20
226.021162
 30
0.0
 10
30.671110
 20
226.309633
 30
0.0
 10
30.546167
 20
226.706508
 30
0.0
 10
30.546167
 20
227.211787
 30
0.0
  0
SPLINE
  5
287
100
AcDbEntity
  8
Calque_1
 62
7
100
AcDbSpline
 70
8
 71
3
 72
8
 73
4
 74
0
 40
0
 40
0
 40
0
 40
0
 40
1
 40
1
 40
1
 40
1
 10
30.546167
 20
227.211787
 30
0.0
 10
30.546167
 20
227.718906
 30
0.0
 10
30.671110
 20
228.115781
 30
0.0
 10
30.920995
 20
228.402412
 30
0.0
  0
SPLINE
  5
288
100
AcDbEntity
  8
Calque_1
 62
7
100
AcDbSpline
 70
8
 71
3
 72
8
 73
4
 74
0
 40
0
 40
0
 40
0
 40
0
 40
1
 40
1
 40
1
 40
1
 10
30.920995
 20
228.402412
 30
0.0
 10
31.172716
 20
228.689044
 30
0.0
 10
31.519981
 20
228.832361
 30
0.0
 10
31.962790
 20
228.832361
 30
0.0
  0
LINE
  5
289
100
AcDbEntity
  8
Calque_1
 62
7
100
AcDbLine
 10
31.962790
 20
228.832361
 30
0.0
 11
31.962790
 21
228.832361
 31
0.0
  0
LINE
  5
28a
100
AcDbEntity
  8
Calque_1
 62
7
100
AcDbLine
 10
36.783168
 20
227.534248
 30
0.0
 11
36.783168
 21
225.671141
 31
0.0
  0
LINE
  5
28b
100
AcDbEntity
  8
Calque_1
 62
7
100
AcDbLine
 10
36.783168
 20
225.671141
 30
0.0
 11
36.276051
 21
225.671141
 31
0.0
  0
LINE
  5
28c
100
AcDbEntity
  8
Calque_1
 62
7
100
AcDbLine
 10
36.276051
 20
225.671141
 30
0.0
 11
36.276051
 21
227.517713
 31
0.0
  0
SPLINE
  5
28d
100
AcDbEntity
  8
Calque_1
 62
7
100
AcDbSpline
 70
8
 71
3
 72
8
 73
4
 74
0
 40
0
 40
0
 40
0
 40
0
 40
1
 40
1
 40
1
 40
1
 10
36.276051
 20
227.517713
 30
0.0
 10
36.276051
 20
227.809856
 30
0.0
 10
36.219092
 20
228.028505
 30
0.0
 10
36.105174
 20
228.173660
 30
0.0
  0
SPLINE
  5
28e
100
AcDbEntity
  8
Calque_1
 62
7
100
AcDbSpline
 70
8
 71
3
 72
8
 73
4
 74
0
 40
0
 40
0
 40
0
 40
0
 40
1
 40
1
 40
1
 40
1
 10
36.105174
 20
228.173660
 30
0.0
 10
35.991256
 20
228.318812
 30
0.0
 10
35.820379
 20
228.391388
 30
0.0
 10
35.592543
 20
228.391388
 30
0.0
  0
SPLINE
  5
28f
100
AcDbEntity
  8
Calque_1
 62
7
100
AcDbSpline
 70
8
 71
3
 72
8
 73
4
 74
0
 40
0
 40
0
 40
0
 40
0
 40
1
 40
1
 40
1
 40
1
 10
35.592543
 20
228.391388
 30
0.0
 10
35.318772
 20
228.391388
 30
0.0
 10
35.102880
 20
228.304113
 30
0.0
 10
34.944866
 20
228.129562
 30
0.0
  0
SPLINE
  5
290
100
AcDbEntity
  8
Calque_1
 62
7
100
AcDbSpline
 70
8
 71
3
 72
8
 73
4
 74
0
 40
0
 40
0
 40
0
 40
0
 40
1
 40
1
 40
1
 40
1
 10
34.944866
 20
228.129562
 30
0.0
 10
34.786851
 20
227.955010
 30
0.0
 10
34.707844
 20
227.717068
 30
0.0
 10
34.707844
 20
227.415738
 30
0.0
  0
LINE
  5
291
100
AcDbEntity
  8
Calque_1
 62
7
100
AcDbLine
 10
34.707844
 20
227.415738
 30
0.0
 11
34.707844
 21
225.671141
 31
0.0
  0
LINE
  5
292
100
AcDbEntity
  8
Calque_1
 62
7
100
AcDbLine
 10
34.707844
 20
225.671141
 30
0.0
 11
34.197967
 21
225.671141
 31
0.0
  0
LINE
  5
293
100
AcDbEntity
  8
Calque_1
 62
7
100
AcDbLine
 10
34.197967
 20
225.671141
 30
0.0
 11
34.197967
 21
228.757947
 31
0.0
  0
LINE
  5
294
100
AcDbEntity
  8
Calque_1
 62
7
100
AcDbLine
 10
34.197967
 20
228.757947
 30
0.0
 11
34.707844
 21
228.757947
 31
0.0
  0
LINE
  5
295
100
AcDbEntity
  8
Calque_1
 62
7
100
AcDbLine
 10
34.707844
 20
228.757947
 30
0.0
 11
34.707844
 21
228.278389
 31
0.0
  0
SPLINE
  5
296
100
AcDbEntity
  8
Calque_1
 62
7
100
AcDbSpline
 70
8
 71
3
 72
8
 73
4
 74
0
 40
0
 40
0
 40
0
 40
0
 40
1
 40
1
 40
1
 40
1
 10
34.707844
 20
228.278389
 30
0.0
 10
34.829111
 20
228.463966
 30
0.0
 10
34.971508
 20
228.602688
 30
0.0
 10
35.135035
 20
228.694557
 30
0.0
  0
SPLINE
  5
297
100
AcDbEntity
  8
Calque_1
 62
7
100
AcDbSpline
 70
8
 71
3
 72
8
 73
4
 74
0
 40
0
 40
0
 40
0
 40
0
 40
1
 40
1
 40
1
 40
1
 10
35.135035
 20
228.694557
 30
0.0
 10
35.300399
 20
228.786426
 30
0.0
 10
35.490568
 20
228.832361
 30
0.0
 10
35.705542
 20
228.832361
 30
0.0
  0
SPLINE
  5
298
100
AcDbEntity
  8
Calque_1
 62
7
100
AcDbSpline
 70
8
 71
3
 72
8
 73
4
 74
0
 40
0
 40
0
 40
0
 40
0
 40
1
 40
1
 40
1
 40
1
 10
35.705542
 20
228.832361
 30
0.0
 10
36.060158
 20
228.832361
 30
0.0
 10
36.328416
 20
228.722118
 30
0.0
 10
36.510316
 20
228.501633
 30
0.0
  0
SPLINE
  5
299
100
AcDbEntity
  8
Calque_1
 62
7
100
AcDbSpline
 70
8
 71
3
 72
8
 73
4
 74
0
 40
0
 40
0
 40
0
 40
0
 40
1
 40
1
 40
1
 40
1
 10
36.510316
 20
228.501633
 30
0.0
 10
36.692217
 20
228.282984
 30
0.0
 10
36.783168
 20
227.960522
 30
0.0
 10
36.783168
 20
227.534248
 30
0.0
  0
LINE
  5
29a
100
AcDbEntity
  8
Calque_1
 62
7
100
AcDbLine
 10
36.783168
 20
227.534248
 30
0.0
 11
36.783168
 21
227.534248
 31
0.0
  0
LINE
  5
29b
100
AcDbEntity
  8
Calque_1
 62
7
100
AcDbLine
 10
37.800161
 20
228.757947
 30
0.0
 11
38.307278
 21
228.757947
 31
0.0
  0
LINE
  5
29c
100
AcDbEntity
  8
Calque_1
 62
7
100
AcDbLine
 10
38.307278
 20
228.757947
 30
0.0
 11
38.307278
 21
225.671141
 31
0.0
  0
LINE
  5
29d
100
AcDbEntity
  8
Calque_1
 62
7
100
AcDbLine
 10
38.307278
 20
225.671141
 30
0.0
 11
37.800161
 21
225.671141
 31
0.0
  0
LINE
  5
29e
100
AcDbEntity
  8
Calque_1
 62
7
100
AcDbLine
 10
37.800161
 20
225.671141
 30
0.0
 11
37.800161
 21
228.757947
 31
0.0
  0
LINE
  5
29f
100
AcDbEntity
  8
Calque_1
 62
7
100
AcDbLine
 10
37.800161
 20
228.757947
 30
0.0
 11
37.800161
 21
228.757947
 31
0.0
  0
LINE
  5
2a0
100
AcDbEntity
  8
Calque_1
 62
7
100
AcDbLine
 10
37.800161
 20
229.959596
 30
0.0
 11
38.307278
 21
229.959596
 31
0.0
  0
LINE
  5
2a1
100
AcDbEntity
  8
Calque_1
 62
7
100
AcDbLine
 10
38.307278
 20
229.959596
 30
0.0
 11
38.307278
 21
229.317430
 31
0.0
  0
LINE
  5
2a2
100
AcDbEntity
  8
Calque_1
 62
7
100
AcDbLine
 10
38.307278
 20
229.317430
 30
0.0
 11
37.800161
 21
229.317430
 31
0.0
  0
LINE
  5
2a3
100
AcDbEntity
  8
Calque_1
 62
7
100
AcDbLine
 10
37.800161
 20
229.317430
 30
0.0
 11
37.800161
 21
229.959596
 31
0.0
  0
LINE
  5
2a4
100
AcDbEntity
  8
Calque_1
 62
7
100
AcDbLine
 10
37.800161
 20
229.959596
 30
0.0
 11
37.800161
 21
229.959596
 31
0.0
  0
SPLINE
  5
2a5
100
AcDbEntity
  8
Calque_1
 62
7
100
AcDbSpline
 70
8
 71
3
 72
8
 73
4
 74
0
 40
0
 40
0
 40
0
 40
0
 40
1
 40
1
 40
1
 40
1
 10
39.668780
 20
227.211787
 30
0.0
 10
39.668780
 20
226.838798
 30
0.0
 10
39.745032
 20
226.545736
 30
0.0
 10
39.897535
 20
226.332600
 30
0.0
  0
SPLINE
  5
2a6
100
AcDbEntity
  8
Calque_1
 62
7
100
AcDbSpline
 70
8
 71
3
 72
8
 73
4
 74
0
 40
0
 40
0
 40
0
 40
0
 40
1
 40
1
 40
1
 40
1
 10
39.897535
 20
226.332600
 30
0.0
 10
40.051875
 20
226.121300
 30
0.0
 10
40.263174
 20
226.015650
 30
0.0
 10
40.531432
 20
226.015650
 30
0.0
  0
SPLINE
  5
2a7
100
AcDbEntity
  8
Calque_1
 62
7
100
AcDbSpline
 70
8
 71
3
 72
8
 73
4
 74
0
 40
0
 40
0
 40
0
 40
0
 40
1
 40
1
 40
1
 40
1
 10
40.531432
 20
226.015650
 30
0.0
 10
40.799690
 20
226.015650
 30
0.0
 10
41.010989
 20
226.121300
 30
0.0
 10
41.165328
 20
226.332600
 30
0.0
  0
SPLINE
  5
2a8
100
AcDbEntity
  8
Calque_1
 62
7
100
AcDbSpline
 70
8
 71
3
 72
8
 73
4
 74
0
 40
0
 40
0
 40
0
 40
0
 40
1
 40
1
 40
1
 40
1
 10
41.165328
 20
226.332600
 30
0.0
 10
41.319670
 20
226.545736
 30
0.0
 10
41.396841
 20
226.838798
 30
0.0
 10
41.396841
 20
227.211787
 30
0.0
  0
SPLINE
  5
2a9
100
AcDbEntity
  8
Calque_1
 62
7
100
AcDbSpline
 70
8
 71
3
 72
8
 73
4
 74
0
 40
0
 40
0
 40
0
 40
0
 40
1
 40
1
 40
1
 40
1
 10
41.396841
 20
227.211787
 30
0.0
 10
41.396841
 20
227.584776
 30
0.0
 10
41.319670
 20
227.876920
 30
0.0
 10
41.165328
 20
228.088220
 30
0.0
  0
SPLINE
  5
2aa
100
AcDbEntity
  8
Calque_1
 62
7
100
AcDbSpline
 70
8
 71
3
 72
8
 73
4
 74
0
 40
0
 40
0
 40
0
 40
0
 40
1
 40
1
 40
1
 40
1
 10
41.165328
 20
228.088220
 30
0.0
 10
41.010989
 20
228.301356
 30
0.0
 10
40.799690
 20
228.407924
 30
0.0
 10
40.531432
 20
228.407924
 30
0.0
  0
SPLINE
  5
2ab
100
AcDbEntity
  8
Calque_1
 62
7
100
AcDbSpline
 70
8
 71
3
 72
8
 73
4
 74
0
 40
0
 40
0
 40
0
 40
0
 40
1
 40
1
 40
1
 40
1
 10
40.531432
 20
228.407924
 30
0.0
 10
40.263174
 20
228.407924
 30
0.0
 10
40.051875
 20
228.301356
 30
0.0
 10
39.897535
 20
228.088220
 30
0.0
  0
SPLINE
  5
2ac
100
AcDbEntity
  8
Calque_1
 62
7
100
AcDbSpline
 70
8
 71
3
 72
8
 73
4
 74
0
 40
0
 40
0
 40
0
 40
0
 40
1
 40
1
 40
1
 40
1
 10
39.897535
 20
228.088220
 30
0.0
 10
39.745032
 20
227.876920
 30
0.0
 10
39.668780
 20
227.584776
 30
0.0
 10
39.668780
 20
227.211787
 30
0.0
  0
LINE
  5
2ad
100
AcDbEntity
  8
Calque_1
 62
7
100
AcDbLine
 10
39.668780
 20
227.211787
 30
0.0
 11
39.668780
 21
227.211787
 31
0.0
  0
SPLINE
  5
2ae
100
AcDbEntity
  8
Calque_1
 62
7
100
AcDbSpline
 70
8
 71
3
 72
8
 73
4
 74
0
 40
0
 40
0
 40
0
 40
0
 40
1
 40
1
 40
1
 40
1
 10
41.396841
 20
226.134161
 30
0.0
 10
41.290272
 20
225.950423
 30
0.0
 10
41.155224
 20
225.813539
 30
0.0
 10
40.991697
 20
225.723508
 30
0.0
  0
SPLINE
  5
2af
100
AcDbEntity
  8
Calque_1
 62
7
100
AcDbSpline
 70
8
 71
3
 72
8
 73
4
 74
0
 40
0
 40
0
 40
0
 40
0
 40
1
 40
1
 40
1
 40
1
 10
40.991697
 20
225.723508
 30
0.0
 10
40.830008
 20
225.635313
 30
0.0
 10
40.635245
 20
225.591216
 30
0.0
 10
40.407409
 20
225.591216
 30
0.0
  0
SPLINE
  5
2b0
100
AcDbEntity
  8
Calque_1
 62
7
100
AcDbSpline
 70
8
 71
3
 72
8
 73
4
 74
0
 40
0
 40
0
 40
0
 40
0
 40
1
 40
1
 40
1
 40
1
 10
40.407409
 20
225.591216
 30
0.0
 10
40.034421
 20
225.591216
 30
0.0
 10
39.730334
 20
225.740044
 30
0.0
 10
39.495149
 20
226.037700
 30
0.0
  0
SPLINE
  5
2b1
100
AcDbEntity
  8
Calque_1
 62
7
100
AcDbSpline
 70
8
 71
3
 72
8
 73
4
 74
0
 40
0
 40
0
 40
0
 40
0
 40
1
 40
1
 40
1
 40
1
 10
39.495149
 20
226.037700
 30
0.0
 10
39.261800
 20
226.335356
 30
0.0
 10
39.145125
 20
226.726718
 30
0.0
 10
39.145125
 20
227.211787
 30
0.0
  0
SPLINE
  5
2b2
100
AcDbEntity
  8
Calque_1
 62
7
100
AcDbSpline
 70
8
 71
3
 72
8
 73
4
 74
0
 40
0
 40
0
 40
0
 40
0
 40
1
 40
1
 40
1
 40
1
 10
39.145125
 20
227.211787
 30
0.0
 10
39.145125
 20
227.696857
 30
0.0
 10
39.261800
 20
228.088220
 30
0.0
 10
39.495149
 20
228.385877
 30
0.0
  0
SPLINE
  5
2b3
100
AcDbEntity
  8
Calque_1
 62
7
100
AcDbSpline
 70
8
 71
3
 72
8
 73
4
 74
0
 40
0
 40
0
 40
0
 40
0
 40
1
 40
1
 40
1
 40
1
 10
39.495149
 20
228.385877
 30
0.0
 10
39.730334
 20
228.683533
 30
0.0
 10
40.034421
 20
228.832361
 30
0.0
 10
40.407409
 20
228.832361
 30
0.0
  0
SPLINE
  5
2b4
100
AcDbEntity
  8
Calque_1
 62
7
100
AcDbSpline
 70
8
 71
3
 72
8
 73
4
 74
0
 40
0
 40
0
 40
0
 40
0
 40
1
 40
1
 40
1
 40
1
 10
40.407409
 20
228.832361
 30
0.0
 10
40.635245
 20
228.832361
 30
0.0
 10
40.830008
 20
228.787344
 30
0.0
 10
40.991697
 20
228.697312
 30
0.0
  0
SPLINE
  5
2b5
100
AcDbEntity
  8
Calque_1
 62
7
100
AcDbSpline
 70
8
 71
3
 72
8
 73
4
 74
0
 40
0
 40
0
 40
0
 40
0
 40
1
 40
1
 40
1
 40
1
 10
40.991697
 20
228.697312
 30
0.0
 10
41.155224
 20
228.609117
 30
0.0
 10
41.290272
 20
228.473151
 30
0.0
 10
41.396841
 20
228.289413
 30
0.0
  0
LINE
  5
2b6
100
AcDbEntity
  8
Calque_1
 62
7
100
AcDbLine
 10
41.396841
 20
228.289413
 30
0.0
 11
41.396841
 21
228.757947
 31
0.0
  0
LINE
  5
2b7
100
AcDbEntity
  8
Calque_1
 62
7
100
AcDbLine
 10
41.396841
 20
228.757947
 30
0.0
 11
41.903958
 21
228.757947
 31
0.0
  0
LINE
  5
2b8
100
AcDbEntity
  8
Calque_1
 62
7
100
AcDbLine
 10
41.903958
 20
228.757947
 30
0.0
 11
41.903958
 21
224.497052
 31
0.0
  0
LINE
  5
2b9
100
AcDbEntity
  8
Calque_1
 62
7
100
AcDbLine
 10
41.903958
 20
224.497052
 30
0.0
 11
41.396841
 21
224.497052
 31
0.0
  0
LINE
  5
2ba
100
AcDbEntity
  8
Calque_1
 62
7
100
AcDbLine
 10
41.396841
 20
224.497052
 30
0.0
 11
41.396841
 21
226.134161
 31
0.0
  0
LINE
  5
2bb
100
AcDbEntity
  8
Calque_1
 62
7
100
AcDbLine
 10
41.396841
 20
226.134161
 30
0.0
 11
41.396841
 21
226.134161
 31
0.0
  0
LINE
  5
2bc
100
AcDbEntity
  8
Calque_1
 62
7
100
AcDbLine
 10
42.896147
 20
226.889325
 30
0.0
 11
42.896147
 21
228.757947
 31
0.0
  0
LINE
  5
2bd
100
AcDbEntity
  8
Calque_1
 62
7
100
AcDbLine
 10
42.896147
 20
228.757947
 30
0.0
 11
43.403263
 21
228.757947
 31
0.0
  0
LINE
  5
2be
100
AcDbEntity
  8
Calque_1
 62
7
100
AcDbLine
 10
43.403263
 20
228.757947
 30
0.0
 11
43.403263
 21
226.908618
 31
0.0
  0
SPLINE
  5
2bf
100
AcDbEntity
  8
Calque_1
 62
7
100
AcDbSpline
 70
8
 71
3
 72
8
 73
4
 74
0
 40
0
 40
0
 40
0
 40
0
 40
1
 40
1
 40
1
 40
1
 10
43.403263
 20
226.908618
 30
0.0
 10
43.403263
 20
226.616475
 30
0.0
 10
43.460222
 20
226.396908
 30
0.0
 10
43.574140
 20
226.249917
 30
0.0
  0
SPLINE
  5
2c0
100
AcDbEntity
  8
Calque_1
 62
7
100
AcDbSpline
 70
8
 71
3
 72
8
 73
4
 74
0
 40
0
 40
0
 40
0
 40
0
 40
1
 40
1
 40
1
 40
1
 10
43.574140
 20
226.249917
 30
0.0
 10
43.688058
 20
226.104765
 30
0.0
 10
43.858935
 20
226.032188
 30
0.0
 10
44.086772
 20
226.032188
 30
0.0
  0
SPLINE
  5
2c1
100
AcDbEntity
  8
Calque_1
 62
7
100
AcDbSpline
 70
8
 71
3
 72
8
 73
4
 74
0
 40
0
 40
0
 40
0
 40
0
 40
1
 40
1
 40
1
 40
1
 10
44.086772
 20
226.032188
 30
0.0
 10
44.360542
 20
226.032188
 30
0.0
 10
44.576435
 20
226.119464
 30
0.0
 10
44.734449
 20
226.294014
 30
0.0
  0
SPLINE
  5
2c2
100
AcDbEntity
  8
Calque_1
 62
7
100
AcDbSpline
 70
8
 71
3
 72
8
 73
4
 74
0
 40
0
 40
0
 40
0
 40
0
 40
1
 40
1
 40
1
 40
1
 10
44.734449
 20
226.294014
 30
0.0
 10
44.894302
 20
226.468565
 30
0.0
 10
44.974228
 20
226.706507
 30
0.0
 10
44.974228
 20
227.007839
 30
0.0
  0
LINE
  5
2c3
100
AcDbEntity
  8
Calque_1
 62
7
100
AcDbLine
 10
44.974228
 20
227.007839
 30
0.0
 11
44.974228
 21
228.757947
 31
0.0
  0
LINE
  5
2c4
100
AcDbEntity
  8
Calque_1
 62
7
100
AcDbLine
 10
44.974228
 20
228.757947
 30
0.0
 11
45.481344
 21
228.757947
 31
0.0
  0
LINE
  5
2c5
100
AcDbEntity
  8
Calque_1
 62
7
100
AcDbLine
 10
45.481344
 20
228.757947
 30
0.0
 11
45.481344
 21
225.671141
 31
0.0
  0
LINE
  5
2c6
100
AcDbEntity
  8
Calque_1
 62
7
100
AcDbLine
 10
45.481344
 20
225.671141
 30
0.0
 11
44.974228
 21
225.671141
 31
0.0
  0
LINE
  5
2c7
100
AcDbEntity
  8
Calque_1
 62
7
100
AcDbLine
 10
44.974228
 20
225.671141
 30
0.0
 11
44.974228
 21
226.145187
 31
0.0
  0
SPLINE
  5
2c8
100
AcDbEntity
  8
Calque_1
 62
7
100
AcDbSpline
 70
8
 71
3
 72
8
 73
4
 74
0
 40
0
 40
0
 40
0
 40
0
 40
1
 40
1
 40
1
 40
1
 10
44.974228
 20
226.145187
 30
0.0
 10
44.851122
 20
225.957773
 30
0.0
 10
44.707806
 20
225.818131
 30
0.0
 10
44.544279
 20
225.726262
 30
0.0
  0
SPLINE
  5
2c9
100
AcDbEntity
  8
Calque_1
 62
7
100
AcDbSpline
 70
8
 71
3
 72
8
 73
4
 74
0
 40
0
 40
0
 40
0
 40
0
 40
1
 40
1
 40
1
 40
1
 10
44.544279
 20
225.726262
 30
0.0
 10
44.382590
 20
225.636231
 30
0.0
 10
44.194259
 20
225.591216
 30
0.0
 10
43.979284
 20
225.591216
 30
0.0
  0
SPLINE
  5
2ca
100
AcDbEntity
  8
Calque_1
 62
7
100
AcDbSpline
 70
8
 71
3
 72
8
 73
4
 74
0
 40
0
 40
0
 40
0
 40
0
 40
1
 40
1
 40
1
 40
1
 10
43.979284
 20
225.591216
 30
0.0
 10
43.624668
 20
225.591216
 30
0.0
 10
43.355491
 20
225.701459
 30
0.0
 10
43.171753
 20
225.921944
 30
0.0
  0
SPLINE
  5
2cb
100
AcDbEntity
  8
Calque_1
 62
7
100
AcDbSpline
 70
8
 71
3
 72
8
 73
4
 74
0
 40
0
 40
0
 40
0
 40
0
 40
1
 40
1
 40
1
 40
1
 10
43.171753
 20
225.921944
 30
0.0
 10
42.988016
 20
226.142431
 30
0.0
 10
42.896147
 20
226.464891
 30
0.0
 10
42.896147
 20
226.889325
 30
0.0
  0
LINE
  5
2cc
100
AcDbEntity
  8
Calque_1
 62
7
100
AcDbLine
 10
42.896147
 20
226.889325
 30
0.0
 11
42.896147
 21
226.889325
 31
0.0
  0
LINE
  5
2cd
100
AcDbEntity
  8
Calque_1
 62
7
100
AcDbLine
 10
44.172209
 20
228.832361
 30
0.0
 11
44.172209
 21
228.832361
 31
0.0
  0
LINE
  5
2ce
100
AcDbEntity
  8
Calque_1
 62
7
100
AcDbLine
 10
44.172209
 20
228.832361
 30
0.0
 11
44.172209
 21
228.832361
 31
0.0
  0
LINE
  5
2cf
100
AcDbEntity
  8
Calque_1
 62
7
100
AcDbLine
 10
49.171733
 20
227.341324
 30
0.0
 11
49.171733
 21
227.093276
 31
0.0
  0
LINE
  5
2d0
100
AcDbEntity
  8
Calque_1
 62
7
100
AcDbLine
 10
49.171733
 20
227.093276
 30
0.0
 11
46.840092
 21
227.093276
 31
0.0
  0
SPLINE
  5
2d1
100
AcDbEntity
  8
Calque_1
 62
7
100
AcDbSpline
 70
8
 71
3
 72
8
 73
4
 74
0
 40
0
 40
0
 40
0
 40
0
 40
1
 40
1
 40
1
 40
1
 10
46.840092
 20
227.093276
 30
0.0
 10
46.862139
 20
226.744173
 30
0.0
 10
46.966870
 20
226.477752
 30
0.0
 10
47.154284
 20
226.294014
 30
0.0
  0
SPLINE
  5
2d2
100
AcDbEntity
  8
Calque_1
 62
7
100
AcDbSpline
 70
8
 71
3
 72
8
 73
4
 74
0
 40
0
 40
0
 40
0
 40
0
 40
1
 40
1
 40
1
 40
1
 10
47.154284
 20
226.294014
 30
0.0
 10
47.343535
 20
226.112113
 30
0.0
 10
47.606281
 20
226.021162
 30
0.0
 10
47.942523
 20
226.021162
 30
0.0
  0
SPLINE
  5
2d3
100
AcDbEntity
  8
Calque_1
 62
7
100
AcDbSpline
 70
8
 71
3
 72
8
 73
4
 74
0
 40
0
 40
0
 40
0
 40
0
 40
1
 40
1
 40
1
 40
1
 10
47.942523
 20
226.021162
 30
0.0
 10
48.137284
 20
226.021162
 30
0.0
 10
48.325616
 20
226.045048
 30
0.0
 10
48.507517
 20
226.092821
 30
0.0
  0
SPLINE
  5
2d4
100
AcDbEntity
  8
Calque_1
 62
7
100
AcDbSpline
 70
8
 71
3
 72
8
 73
4
 74
0
 40
0
 40
0
 40
0
 40
0
 40
1
 40
1
 40
1
 40
1
 10
48.507517
 20
226.092821
 30
0.0
 10
48.691255
 20
226.140594
 30
0.0
 10
48.873156
 20
226.212252
 30
0.0
 10
49.053219
 20
226.307795
 30
0.0
  0
LINE
  5
2d5
100
AcDbEntity
  8
Calque_1
 62
7
100
AcDbLine
 10
49.053219
 20
226.307795
 30
0.0
 11
49.053219
 21
225.828238
 31
0.0
  0
SPLINE
  5
2d6
100
AcDbEntity
  8
Calque_1
 62
7
100
AcDbSpline
 70
8
 71
3
 72
8
 73
4
 74
0
 40
0
 40
0
 40
0
 40
0
 40
1
 40
1
 40
1
 40
1
 10
49.053219
 20
225.828238
 30
0.0
 10
48.871320
 20
225.751067
 30
0.0
 10
48.684825
 20
225.692270
 30
0.0
 10
48.493736
 20
225.651849
 30
0.0
  0
SPLINE
  5
2d7
100
AcDbEntity
  8
Calque_1
 62
7
100
AcDbSpline
 70
8
 71
3
 72
8
 73
4
 74
0
 40
0
 40
0
 40
0
 40
0
 40
1
 40
1
 40
1
 40
1
 10
48.493736
 20
225.651849
 30
0.0
 10
48.302649
 20
225.611427
 30
0.0
 10
48.108805
 20
225.591216
 30
0.0
 10
47.912203
 20
225.591216
 30
0.0
  0
SPLINE
  5
2d8
100
AcDbEntity
  8
Calque_1
 62
7
100
AcDbSpline
 70
8
 71
3
 72
8
 73
4
 74
0
 40
0
 40
0
 40
0
 40
0
 40
1
 40
1
 40
1
 40
1
 10
47.912203
 20
225.591216
 30
0.0
 10
47.419786
 20
225.591216
 30
0.0
 10
47.029342
 20
225.734531
 30
0.0
 10
46.740871
 20
226.021162
 30
0.0
  0
SPLINE
  5
2d9
100
AcDbEntity
  8
Calque_1
 62
7
100
AcDbSpline
 70
8
 71
3
 72
8
 73
4
 74
0
 40
0
 40
0
 40
0
 40
0
 40
1
 40
1
 40
1
 40
1
 10
46.740871
 20
226.021162
 30
0.0
 10
46.454241
 20
226.307794
 30
0.0
 10
46.310925
 20
226.695483
 30
0.0
 10
46.310925
 20
227.184228
 30
0.0
  0
SPLINE
  5
2da
100
AcDbEntity
  8
Calque_1
 62
7
100
AcDbSpline
 70
8
 71
3
 72
8
 73
4
 74
0
 40
0
 40
0
 40
0
 40
0
 40
1
 40
1
 40
1
 40
1
 10
46.310925
 20
227.184228
 30
0.0
 10
46.310925
 20
227.689507
 30
0.0
 10
46.446892
 20
228.090057
 30
0.0
 10
46.718824
 20
228.385877
 30
0.0
  0
SPLINE
  5
2db
100
AcDbEntity
  8
Calque_1
 62
7
100
AcDbSpline
 70
8
 71
3
 72
8
 73
4
 74
0
 40
0
 40
0
 40
0
 40
0
 40
1
 40
1
 40
1
 40
1
 10
46.718824
 20
228.385877
 30
0.0
 10
46.992595
 20
228.683533
 30
0.0
 10
47.360990
 20
228.832361
 30
0.0
 10
47.824009
 20
228.832361
 30
0.0
  0
SPLINE
  5
2dc
100
AcDbEntity
  8
Calque_1
 62
7
100
AcDbSpline
 70
8
 71
3
 72
8
 73
4
 74
0
 40
0
 40
0
 40
0
 40
0
 40
1
 40
1
 40
1
 40
1
 10
47.824009
 20
228.832361
 30
0.0
 10
48.239259
 20
228.832361
 30
0.0
 10
48.567233
 20
228.698232
 30
0.0
 10
48.807929
 20
228.429974
 30
0.0
  0
SPLINE
  5
2dd
100
AcDbEntity
  8
Calque_1
 62
7
100
AcDbSpline
 70
8
 71
3
 72
8
 73
4
 74
0
 40
0
 40
0
 40
0
 40
0
 40
1
 40
1
 40
1
 40
1
 10
48.807929
 20
228.429974
 30
0.0
 10
49.050465
 20
228.163552
 30
0.0
 10
49.171733
 20
227.800669
 30
0.0
 10
49.171733
 20
227.341324
 30
0.0
  0
LINE
  5
2de
100
AcDbEntity
  8
Calque_1
 62
7
100
AcDbLine
 10
49.171733
 20
227.341324
 30
0.0
 11
49.171733
 21
227.341324
 31
0.0
  0
SPLINE
  5
2df
100
AcDbEntity
  8
Calque_1
 62
7
100
AcDbSpline
 70
8
 71
3
 72
8
 73
4
 74
0
 40
0
 40
0
 40
0
 40
0
 40
1
 40
1
 40
1
 40
1
 10
48.664614
 20
227.490151
 30
0.0
 10
48.660945
 20
227.767596
 30
0.0
 10
48.582856
 20
227.989002
 30
0.0
 10
48.430347
 20
228.154367
 30
0.0
  0
SPLINE
  5
2e0
100
AcDbEntity
  8
Calque_1
 62
7
100
AcDbSpline
 70
8
 71
3
 72
8
 73
4
 74
0
 40
0
 40
0
 40
0
 40
0
 40
1
 40
1
 40
1
 40
1
 10
48.430347
 20
228.154367
 30
0.0
 10
48.279681
 20
228.319730
 30
0.0
 10
48.079407
 20
228.402412
 30
0.0
 10
47.829524
 20
228.402412
 30
0.0
  0
SPLINE
  5
2e1
100
AcDbEntity
  8
Calque_1
 62
7
100
AcDbSpline
 70
8
 71
3
 72
8
 73
4
 74
0
 40
0
 40
0
 40
0
 40
0
 40
1
 40
1
 40
1
 40
1
 10
47.829524
 20
228.402412
 30
0.0
 10
47.546566
 20
228.402412
 30
0.0
 10
47.319649
 20
228.322486
 30
0.0
 10
47.148773
 20
228.162633
 30
0.0
  0
SPLINE
  5
2e2
100
AcDbEntity
  8
Calque_1
 62
7
100
AcDbSpline
 70
8
 71
3
 72
8
 73
4
 74
0
 40
0
 40
0
 40
0
 40
0
 40
1
 40
1
 40
1
 40
1
 10
47.148773
 20
228.162633
 30
0.0
 10
46.979733
 20
228.002781
 30
0.0
 10
46.882351
 20
227.777702
 30
0.0
 10
46.856627
 20
227.487397
 30
0.0
  0
LINE
  5
2e3
100
AcDbEntity
  8
Calque_1
 62
7
100
AcDbLine
 10
46.856627
 20
227.487397
 30
0.0
 11
48.664614
 21
227.490219
 31
0.0
  0
LINE
  5
2e4
100
AcDbEntity
  8
Calque_1
 62
7
100
AcDbLine
 10
48.664614
 20
227.490219
 30
0.0
 11
48.664614
 21
227.490151
 31
0.0
  0
SPLINE
  5
2e5
100
AcDbEntity
  8
Calque_1
 62
7
100
AcDbSpline
 70
8
 71
3
 72
8
 73
4
 74
0
 40
0
 40
0
 40
0
 40
0
 40
1
 40
1
 40
1
 40
1
 10
57.007413
 20
218.405034
 30
0.0
 10
56.965785
 20
218.446665
 30
0.0
 10
56.931721
 20
219.446691
 30
0.0
 10
56.931721
 20
220.627314
 30
0.0
  0
SPLINE
  5
2e6
100
AcDbEntity
  8
Calque_1
 62
7
100
AcDbSpline
 70
8
 71
3
 72
8
 73
4
 74
0
 40
0
 40
0
 40
0
 40
0
 40
1
 40
1
 40
1
 40
1
 10
56.931721
 20
220.627314
 30
0.0
 10
56.931721
 20
222.610608
 30
0.0
 10
56.946848
 20
222.770981
 30
0.0
 10
57.130414
 20
222.735534
 30
0.0
  0
SPLINE
  5
2e7
100
AcDbEntity
  8
Calque_1
 62
7
100
AcDbSpline
 70
8
 71
3
 72
8
 73
4
 74
0
 40
0
 40
0
 40
0
 40
0
 40
1
 40
1
 40
1
 40
1
 10
57.130414
 20
222.735534
 30
0.0
 10
57.308513
 20
222.701142
 30
0.0
 10
57.331638
 20
222.509062
 30
0.0
 10
57.353544
 20
220.882248
 30
0.0
  0
SPLINE
  5
2e8
100
AcDbEntity
  8
Calque_1
 62
7
100
AcDbSpline
 70
8
 71
3
 72
8
 73
4
 74
0
 40
0
 40
0
 40
0
 40
0
 40
1
 40
1
 40
1
 40
1
 10
57.353544
 20
220.882248
 30
0.0
 10
57.366978
 20
219.884042
 30
0.0
 10
57.379763
 20
218.977920
 30
0.0
 10
57.381927
 20
218.868640
 30
0.0
  0
SPLINE
  5
2e9
100
AcDbEntity
  8
Calque_1
 62
7
100
AcDbSpline
 70
8
 71
3
 72
8
 73
4
 74
0
 40
0
 40
0
 40
0
 40
0
 40
1
 40
1
 40
1
 40
1
 10
57.381927
 20
218.868640
 30
0.0
 10
57.385427
 20
218.692316
 30
0.0
 10
57.519672
 20
218.669953
 30
0.0
 10
58.574469
 20
218.669953
 30
0.0
  0
SPLINE
  5
2ea
100
AcDbEntity
  8
Calque_1
 62
7
100
AcDbSpline
 70
8
 71
3
 72
8
 73
4
 74
0
 40
0
 40
0
 40
0
 40
0
 40
1
 40
1
 40
1
 40
1
 10
58.574469
 20
218.669953
 30
0.0
 10
59.584347
 20
218.669953
 30
0.0
 10
59.753235
 20
218.644356
 30
0.0
 10
59.697707
 20
218.499649
 30
0.0
  0
SPLINE
  5
2eb
100
AcDbEntity
  8
Calque_1
 62
7
100
AcDbSpline
 70
8
 71
3
 72
8
 73
4
 74
0
 40
0
 40
0
 40
0
 40
0
 40
1
 40
1
 40
1
 40
1
 10
59.697707
 20
218.499649
 30
0.0
 10
59.644986
 20
218.362260
 30
0.0
 10
59.385990
 20
218.329345
 30
0.0
 10
58.357730
 20
218.329345
 30
0.0
  0
SPLINE
  5
2ec
100
AcDbEntity
  8
Calque_1
 62
7
100
AcDbSpline
 70
8
 71
3
 72
8
 73
4
 74
0
 40
0
 40
0
 40
0
 40
0
 40
1
 40
1
 40
1
 40
1
 10
58.357730
 20
218.329345
 30
0.0
 10
57.656688
 20
218.329345
 30
0.0
 10
57.049046
 20
218.363406
 30
0.0
 10
57.007413
 20
218.405034
 30
0.0
  0
LINE
  5
2ed
100
AcDbEntity
  8
Calque_1
 62
7
100
AcDbLine
 10
57.007413
 20
218.405034
 30
0.0
 11
57.007413
 21
218.405034
 31
0.0
  0
SPLINE
  5
2ee
100
AcDbEntity
  8
Calque_1
 62
7
100
AcDbSpline
 70
8
 71
3
 72
8
 73
4
 74
0
 40
0
 40
0
 40
0
 40
0
 40
1
 40
1
 40
1
 40
1
 10
59.916715
 20
218.528032
 30
0.0
 10
59.949427
 20
218.637311
 30
0.0
 10
60.326654
 20
219.620816
 30
0.0
 10
60.754999
 20
220.713600
 30
0.0
  0
SPLINE
  5
2ef
100
AcDbEntity
  8
Calque_1
 62
7
100
AcDbSpline
 70
8
 71
3
 72
8
 73
4
 74
0
 40
0
 40
0
 40
0
 40
0
 40
1
 40
1
 40
1
 40
1
 10
60.754999
 20
220.713600
 30
0.0
 10
61.252018
 20
221.981588
 30
0.0
 10
61.591825
 20
222.700482
 30
0.0
 10
61.694159
 20
222.700482
 30
0.0
  0
SPLINE
  5
2f0
100
AcDbEntity
  8
Calque_1
 62
7
100
AcDbSpline
 70
8
 71
3
 72
8
 73
4
 74
0
 40
0
 40
0
 40
0
 40
0
 40
1
 40
1
 40
1
 40
1
 10
61.694159
 20
222.700482
 30
0.0
 10
61.796651
 20
222.700482
 30
0.0
 10
62.134036
 20
221.983544
 30
0.0
 10
62.629172
 20
220.713600
 30
0.0
  0
SPLINE
  5
2f1
100
AcDbEntity
  8
Calque_1
 62
7
100
AcDbSpline
 70
8
 71
3
 72
8
 73
4
 74
0
 40
0
 40
0
 40
0
 40
0
 40
1
 40
1
 40
1
 40
1
 10
62.629172
 20
220.713600
 30
0.0
 10
63.619547
 20
218.173448
 30
0.0
 10
63.581277
 20
218.299994
 30
0.0
 10
63.344781
 20
218.347291
 30
0.0
  0
SPLINE
  5
2f2
100
AcDbEntity
  8
Calque_1
 62
7
100
AcDbSpline
 70
8
 71
3
 72
8
 73
4
 74
0
 40
0
 40
0
 40
0
 40
0
 40
1
 40
1
 40
1
 40
1
 10
63.344781
 20
218.347291
 30
0.0
 10
63.226208
 20
218.370998
 30
0.0
 10
63.051873
 20
218.651200
 30
0.0
 10
62.896778
 20
219.067328
 30
0.0
  0
LINE
  5
2f3
100
AcDbEntity
  8
Calque_1
 62
7
100
AcDbLine
 10
62.896778
 20
219.067328
 30
0.0
 11
62.642885
 21
219.748544
 31
0.0
  0
LINE
  5
2f4
100
AcDbEntity
  8
Calque_1
 62
7
100
AcDbLine
 10
62.642885
 20
219.748544
 30
0.0
 11
61.705510
 21
219.748544
 31
0.0
  0
LINE
  5
2f5
100
AcDbEntity
  8
Calque_1
 62
7
100
AcDbLine
 10
61.705510
 20
219.748544
 30
0.0
 11
60.768131
 21
219.748544
 31
0.0
  0
LINE
  5
2f6
100
AcDbEntity
  8
Calque_1
 62
7
100
AcDbLine
 10
60.768131
 20
219.748544
 30
0.0
 11
60.484218
 21
219.038945
 31
0.0
  0
SPLINE
  5
2f7
100
AcDbEntity
  8
Calque_1
 62
7
100
AcDbSpline
 70
8
 71
3
 72
8
 73
4
 74
0
 40
0
 40
0
 40
0
 40
0
 40
1
 40
1
 40
1
 40
1
 10
60.484218
 20
219.038945
 30
0.0
 10
60.311360
 20
218.606908
 30
0.0
 10
60.133210
 20
218.329345
 30
0.0
 10
60.028774
 20
218.329345
 30
0.0
  0
SPLINE
  5
2f8
100
AcDbEntity
  8
Calque_1
 62
7
100
AcDbSpline
 70
8
 71
3
 72
8
 73
4
 74
0
 40
0
 40
0
 40
0
 40
0
 40
1
 40
1
 40
1
 40
1
 10
60.028774
 20
218.329345
 30
0.0
 10
59.918445
 20
218.329345
 30
0.0
 10
59.878462
 20
218.400236
 30
0.0
 10
59.916715
 20
218.528032
 30
0.0
  0
LINE
  5
2f9
100
AcDbEntity
  8
Calque_1
 62
7
100
AcDbLine
 10
59.916715
 20
218.528032
 30
0.0
 11
59.916715
 21
218.528032
 31
0.0
  0
SPLINE
  5
2fa
100
AcDbEntity
  8
Calque_1
 62
7
100
AcDbSpline
 70
8
 71
3
 72
8
 73
4
 74
0
 40
0
 40
0
 40
0
 40
0
 40
1
 40
1
 40
1
 40
1
 10
62.198261
 20
220.912291
 30
0.0
 10
62.036065
 20
221.333792
 30
0.0
 10
61.877267
 20
221.768067
 30
0.0
 10
61.845376
 20
221.877347
 30
0.0
  0
SPLINE
  5
2fb
100
AcDbEntity
  8
Calque_1
 62
7
100
AcDbSpline
 70
8
 71
3
 72
8
 73
4
 74
0
 40
0
 40
0
 40
0
 40
0
 40
1
 40
1
 40
1
 40
1
 10
61.845376
 20
221.877347
 30
0.0
 10
61.813488
 20
221.986626
 30
0.0
 10
61.749107
 20
222.076034
 30
0.0
 10
61.702309
 20
222.076034
 30
0.0
  0
SPLINE
  5
2fc
100
AcDbEntity
  8
Calque_1
 62
7
100
AcDbSpline
 70
8
 71
3
 72
8
 73
4
 74
0
 40
0
 40
0
 40
0
 40
0
 40
1
 40
1
 40
1
 40
1
 10
61.702309
 20
222.076034
 30
0.0
 10
61.655511
 20
222.076034
 30
0.0
 10
61.469874
 20
221.681611
 30
0.0
 10
61.289779
 20
221.199542
 30
0.0
  0
SPLINE
  5
2fd
100
AcDbEntity
  8
Calque_1
 62
7
100
AcDbSpline
 70
8
 71
3
 72
8
 73
4
 74
0
 40
0
 40
0
 40
0
 40
0
 40
1
 40
1
 40
1
 40
1
 10
61.289779
 20
221.199542
 30
0.0
 10
61.109691
 20
220.717473
 30
0.0
 10
60.945310
 20
220.283197
 30
0.0
 10
60.924496
 20
220.234486
 30
0.0
  0
SPLINE
  5
2fe
100
AcDbEntity
  8
Calque_1
 62
7
100
AcDbSpline
 70
8
 71
3
 72
8
 73
4
 74
0
 40
0
 40
0
 40
0
 40
0
 40
1
 40
1
 40
1
 40
1
 10
60.924496
 20
220.234486
 30
0.0
 10
60.903668
 20
220.185774
 30
0.0
 10
61.248115
 20
220.145922
 30
0.0
 10
61.689906
 20
220.145922
 30
0.0
  0
LINE
  5
2ff
100
AcDbEntity
  8
Calque_1
 62
7
100
AcDbLine
 10
61.689906
 20
220.145922
 30
0.0
 11
62.493161
 21
220.145922
 31
0.0
  0
LINE
  5
300
100
AcDbEntity
  8
Calque_1
 62
7
100
AcDbLine
 10
62.493161
 20
220.145922
 30
0.0
 11
62.198261
 21
220.912291
 31
0.0
  0
SPLINE
  5
301
100
AcDbEntity
  8
Calque_1
 62
7
100
AcDbSpline
 70
8
 71
3
 72
8
 73
4
 74
0
 40
0
 40
0
 40
0
 40
0
 40
1
 40
1
 40
1
 40
1
 10
64.084654
 20
220.543296
 30
0.0
 10
64.084654
 20
222.249866
 30
0.0
 10
64.117488
 20
222.757251
 30
0.0
 10
64.227924
 20
222.757251
 30
0.0
  0
SPLINE
  5
302
100
AcDbEntity
  8
Calque_1
 62
7
100
AcDbSpline
 70
8
 71
3
 72
8
 73
4
 74
0
 40
0
 40
0
 40
0
 40
0
 40
1
 40
1
 40
1
 40
1
 10
64.227924
 20
222.757251
 30
0.0
 10
64.306721
 20
222.757251
 30
0.0
 10
64.958149
 20
221.944400
 30
0.0
 10
65.675541
 20
220.950916
 30
0.0
  0
SPLINE
  5
303
100
AcDbEntity
  8
Calque_1
 62
7
100
AcDbSpline
 70
8
 71
3
 72
8
 73
4
 74
0
 40
0
 40
0
 40
0
 40
0
 40
1
 40
1
 40
1
 40
1
 10
65.675541
 20
220.950916
 30
0.0
 10
66.636920
 20
219.619543
 30
0.0
 10
66.986762
 20
219.209060
 30
0.0
 10
67.006030
 20
219.389795
 30
0.0
  0
SPLINE
  5
304
100
AcDbEntity
  8
Calque_1
 62
7
100
AcDbSpline
 70
8
 71
3
 72
8
 73
4
 74
0
 40
0
 40
0
 40
0
 40
0
 40
1
 40
1
 40
1
 40
1
 10
67.006030
 20
219.389795
 30
0.0
 10
67.020395
 20
219.524663
 30
0.0
 10
67.045953
 20
220.324741
 30
0.0
 10
67.062799
 20
221.167747
 30
0.0
  0
SPLINE
  5
305
100
AcDbEntity
  8
Calque_1
 62
7
100
AcDbSpline
 70
8
 71
3
 72
8
 73
4
 74
0
 40
0
 40
0
 40
0
 40
0
 40
1
 40
1
 40
1
 40
1
 10
67.062799
 20
221.167747
 30
0.0
 10
67.088227
 20
222.440877
 30
0.0
 10
67.122271
 20
222.700482
 30
0.0
 10
67.263735
 20
222.700482
 30
0.0
  0
SPLINE
  5
306
100
AcDbEntity
  8
Calque_1
 62
7
100
AcDbSpline
 70
8
 71
3
 72
8
 73
4
 74
0
 40
0
 40
0
 40
0
 40
0
 40
1
 40
1
 40
1
 40
1
 10
67.263735
 20
222.700482
 30
0.0
 10
67.408179
 20
222.700482
 30
0.0
 10
67.438730
 20
222.367253
 30
0.0
 10
67.464909
 20
220.506111
 30
0.0
  0
SPLINE
  5
307
100
AcDbEntity
  8
Calque_1
 62
7
100
AcDbSpline
 70
8
 71
3
 72
8
 73
4
 74
0
 40
0
 40
0
 40
0
 40
0
 40
1
 40
1
 40
1
 40
1
 10
67.464909
 20
220.506111
 30
0.0
 10
67.493577
 20
218.468176
 30
0.0
 10
67.481617
 20
218.314466
 30
0.0
 10
67.297128
 20
218.349995
 30
0.0
  0
SPLINE
  5
308
100
AcDbEntity
  8
Calque_1
 62
7
100
AcDbSpline
 70
8
 71
3
 72
8
 73
4
 74
0
 40
0
 40
0
 40
0
 40
0
 40
1
 40
1
 40
1
 40
1
 10
67.297128
 20
218.349995
 30
0.0
 10
67.187871
 20
218.371049
 30
0.0
 10
66.509781
 20
219.190964
 30
0.0
 10
65.790259
 20
220.172058
 30
0.0
  0
LINE
  5
309
100
AcDbEntity
  8
Calque_1
 62
7
100
AcDbLine
 10
65.790259
 20
220.172058
 30
0.0
 11
64.482040
 21
221.955867
 31
0.0
  0
LINE
  5
30a
100
AcDbEntity
  8
Calque_1
 62
7
100
AcDbLine
 10
64.482040
 20
221.955867
 30
0.0
 11
64.450841
 21
220.142606
 31
0.0
  0
SPLINE
  5
30b
100
AcDbEntity
  8
Calque_1
 62
7
100
AcDbSpline
 70
8
 71
3
 72
8
 73
4
 74
0
 40
0
 40
0
 40
0
 40
0
 40
1
 40
1
 40
1
 40
1
 10
64.450841
 20
220.142606
 30
0.0
 10
64.424876
 20
218.634139
 30
0.0
 10
64.391489
 20
218.329345
 30
0.0
 10
64.252150
 20
218.329345
 30
0.0
  0
SPLINE
  5
30c
100
AcDbEntity
  8
Calque_1
 62
7
100
AcDbSpline
 70
8
 71
3
 72
8
 73
4
 74
0
 40
0
 40
0
 40
0
 40
0
 40
1
 40
1
 40
1
 40
1
 10
64.252150
 20
218.329345
 30
0.0
 10
64.110241
 20
218.329345
 30
0.0
 10
64.084654
 20
218.667551
 30
0.0
 10
64.084654
 20
220.543296
 30
0.0
  0
LINE
  5
30d
100
AcDbEntity
  8
Calque_1
 62
7
100
AcDbLine
 10
64.084654
 20
220.543296
 30
0.0
 11
64.084654
 21
220.543296
 31
0.0
  0
SPLINE
  5
30e
100
AcDbEntity
  8
Calque_1
 62
7
100
AcDbSpline
 70
8
 71
3
 72
8
 73
4
 74
0
 40
0
 40
0
 40
0
 40
0
 40
1
 40
1
 40
1
 40
1
 10
68.425054
 20
220.514913
 30
0.0
 10
68.447378
 20
222.097172
 30
0.0
 10
68.492757
 20
222.700482
 30
0.0
 10
68.589446
 20
222.700482
 30
0.0
  0
SPLINE
  5
30f
100
AcDbEntity
  8
Calque_1
 62
7
100
AcDbSpline
 70
8
 71
3
 72
8
 73
4
 74
0
 40
0
 40
0
 40
0
 40
0
 40
1
 40
1
 40
1
 40
1
 10
68.589446
 20
222.700482
 30
0.0
 10
68.662900
 20
222.700482
 30
0.0
 10
69.025674
 20
222.291753
 30
0.0
 10
69.395605
 20
221.792195
 30
0.0
  0
SPLINE
  5
310
100
AcDbEntity
  8
Calque_1
 62
7
100
AcDbSpline
 70
8
 71
3
 72
8
 73
4
 74
0
 40
0
 40
0
 40
0
 40
0
 40
1
 40
1
 40
1
 40
1
 10
69.395605
 20
221.792195
 30
0.0
 10
69.765539
 20
221.292636
 30
0.0
 10
70.382412
 20
220.457978
 30
0.0
 10
70.766438
 20
219.937402
 30
0.0
  0
LINE
  5
311
100
AcDbEntity
  8
Calque_1
 62
7
100
AcDbLine
 10
70.766438
 20
219.937402
 30
0.0
 11
71.464664
 21
218.990896
 31
0.0
  0
LINE
  5
312
100
AcDbEntity
  8
Calque_1
 62
7
100
AcDbLine
 10
71.464664
 20
218.990896
 30
0.0
 11
71.464664
 21
220.874075
 31
0.0
  0
SPLINE
  5
313
100
AcDbEntity
  8
Calque_1
 62
7
100
AcDbSpline
 70
8
 71
3
 72
8
 73
4
 74
0
 40
0
 40
0
 40
0
 40
0
 40
1
 40
1
 40
1
 40
1
 10
71.464664
 20
220.874075
 30
0.0
 10
71.464664
 20
222.472319
 30
0.0
 10
71.490431
 20
222.757251
 30
0.0
 10
71.634971
 20
222.757251
 30
0.0
  0
SPLINE
  5
314
100
AcDbEntity
  8
Calque_1
 62
7
100
AcDbSpline
 70
8
 71
3
 72
8
 73
4
 74
0
 40
0
 40
0
 40
0
 40
0
 40
1
 40
1
 40
1
 40
1
 10
71.634971
 20
222.757251
 30
0.0
 10
71.780533
 20
222.757251
 30
0.0
 10
71.805278
 20
222.435565
 30
0.0
 10
71.805278
 20
220.543296
 30
0.0
  0
SPLINE
  5
315
100
AcDbEntity
  8
Calque_1
 62
7
100
AcDbSpline
 70
8
 71
3
 72
8
 73
4
 74
0
 40
0
 40
0
 40
0
 40
0
 40
1
 40
1
 40
1
 40
1
 10
71.805278
 20
220.543296
 30
0.0
 10
71.805278
 20
218.715648
 30
0.0
 10
71.777394
 20
218.329345
 30
0.0
 10
71.645464
 20
218.329345
 30
0.0
  0
SPLINE
  5
316
100
AcDbEntity
  8
Calque_1
 62
7
100
AcDbSpline
 70
8
 71
3
 72
8
 73
4
 74
0
 40
0
 40
0
 40
0
 40
0
 40
1
 40
1
 40
1
 40
1
 10
71.645464
 20
218.329345
 30
0.0
 10
71.557569
 20
218.329345
 30
0.0
 10
70.880594
 20
219.151421
 30
0.0
 10
70.141078
 20
220.156183
 30
0.0
  0
LINE
  5
317
100
AcDbEntity
  8
Calque_1
 62
7
100
AcDbLine
 10
70.141078
 20
220.156183
 30
0.0
 11
68.796507
 21
221.983025
 31
0.0
  0
LINE
  5
318
100
AcDbEntity
  8
Calque_1
 62
7
100
AcDbLine
 10
68.796507
 20
221.983025
 30
0.0
 11
68.765310
 21
220.156183
 31
0.0
  0
SPLINE
  5
319
100
AcDbEntity
  8
Calque_1
 62
7
100
AcDbSpline
 70
8
 71
3
 72
8
 73
4
 74
0
 40
0
 40
0
 40
0
 40
0
 40
1
 40
1
 40
1
 40
1
 10
68.765310
 20
220.156183
 30
0.0
 10
68.739148
 20
218.623635
 30
0.0
 10
68.706735
 20
218.329345
 30
0.0
 10
68.564165
 20
218.329345
 30
0.0
  0
SPLINE
  5
31a
100
AcDbEntity
  8
Calque_1
 62
7
100
AcDbSpline
 70
8
 71
3
 72
8
 73
4
 74
0
 40
0
 40
0
 40
0
 40
0
 40
1
 40
1
 40
1
 40
1
 10
68.564165
 20
218.329345
 30
0.0
 10
68.418078
 20
218.329345
 30
0.0
 10
68.398548
 20
218.636205
 30
0.0
 10
68.425054
 20
220.514913
 30
0.0
  0
LINE
  5
31b
100
AcDbEntity
  8
Calque_1
 62
7
100
AcDbLine
 10
68.425054
 20
220.514913
 30
0.0
 11
68.425054
 21
220.514913
 31
0.0
  0
SPLINE
  5
31c
100
AcDbEntity
  8
Calque_1
 62
7
100
AcDbSpline
 70
8
 71
3
 72
8
 73
4
 74
0
 40
0
 40
0
 40
0
 40
0
 40
1
 40
1
 40
1
 40
1
 10
72.793008
 20
218.408503
 30
0.0
 10
72.762799
 20
218.458634
 30
0.0
 10
72.745343
 20
219.444837
 30
0.0
 10
72.754219
 20
220.600065
 30
0.0
  0
SPLINE
  5
31d
100
AcDbEntity
  8
Calque_1
 62
7
100
AcDbSpline
 70
8
 71
3
 72
8
 73
4
 74
0
 40
0
 40
0
 40
0
 40
0
 40
1
 40
1
 40
1
 40
1
 10
72.754219
 20
220.600065
 30
0.0
 10
72.767935
 20
222.384240
 30
0.0
 10
72.795999
 20
222.700482
 30
0.0
 10
72.940664
 20
222.700482
 30
0.0
  0
SPLINE
  5
31e
100
AcDbEntity
  8
Calque_1
 62
7
100
AcDbSpline
 70
8
 71
3
 72
8
 73
4
 74
0
 40
0
 40
0
 40
0
 40
0
 40
1
 40
1
 40
1
 40
1
 10
72.940664
 20
222.700482
 30
0.0
 10
73.086047
 20
222.700482
 30
0.0
 10
73.110973
 20
222.386157
 30
0.0
 10
73.110973
 20
220.552759
 30
0.0
  0
SPLINE
  5
31f
100
AcDbEntity
  8
Calque_1
 62
7
100
AcDbSpline
 70
8
 71
3
 72
8
 73
4
 74
0
 40
0
 40
0
 40
0
 40
0
 40
1
 40
1
 40
1
 40
1
 10
73.110973
 20
220.552759
 30
0.0
 10
73.110973
 20
219.026120
 30
0.0
 10
73.072938
 20
218.392357
 30
0.0
 10
72.979455
 20
218.361196
 30
0.0
  0
SPLINE
  5
320
100
AcDbEntity
  8
Calque_1
 62
7
100
AcDbSpline
 70
8
 71
3
 72
8
 73
4
 74
0
 40
0
 40
0
 40
0
 40
0
 40
1
 40
1
 40
1
 40
1
 10
72.979455
 20
218.361196
 30
0.0
 10
72.907119
 20
218.337095
 30
0.0
 10
72.823217
 20
218.358374
 30
0.0
 10
72.793008
 20
218.408503
 30
0.0
  0
LINE
  5
321
100
AcDbEntity
  8
Calque_1
 62
7
100
AcDbLine
 10
72.793008
 20
218.408503
 30
0.0
 11
72.793008
 21
218.408503
 31
0.0
  0
SPLINE
  5
322
100
AcDbEntity
  8
Calque_1
 62
7
100
AcDbSpline
 70
8
 71
3
 72
8
 73
4
 74
0
 40
0
 40
0
 40
0
 40
0
 40
1
 40
1
 40
1
 40
1
 10
74.778390
 20
218.667712
 30
0.0
 10
74.114533
 20
219.148596
 30
0.0
 10
73.912338
 20
219.586602
 30
0.0
 10
73.908739
 20
220.551588
 30
0.0
  0
SPLINE
  5
323
100
AcDbEntity
  8
Calque_1
 62
7
100
AcDbSpline
 70
8
 71
3
 72
8
 73
4
 74
0
 40
0
 40
0
 40
0
 40
0
 40
1
 40
1
 40
1
 40
1
 10
73.908739
 20
220.551588
 30
0.0
 10
73.906199
 20
221.240317
 30
0.0
 10
73.950158
 20
221.421750
 30
0.0
 10
74.217761
 20
221.826112
 30
0.0
  0
SPLINE
  5
324
100
AcDbEntity
  8
Calque_1
 62
7
100
AcDbSpline
 70
8
 71
3
 72
8
 73
4
 74
0
 40
0
 40
0
 40
0
 40
0
 40
1
 40
1
 40
1
 40
1
 10
74.217761
 20
221.826112
 30
0.0
 10
74.589680
 20
222.388107
 30
0.0
 10
74.932204
 20
222.631103
 30
0.0
 10
75.477110
 20
222.719526
 30
0.0
  0
SPLINE
  5
325
100
AcDbEntity
  8
Calque_1
 62
7
100
AcDbSpline
 70
8
 71
3
 72
8
 73
4
 74
0
 40
0
 40
0
 40
0
 40
0
 40
1
 40
1
 40
1
 40
1
 10
75.477110
 20
222.719526
 30
0.0
 10
76.013268
 20
222.806532
 30
0.0
 10
76.369277
 20
222.705697
 30
0.0
 10
76.797205
 20
222.345627
 30
0.0
  0
SPLINE
  5
326
100
AcDbEntity
  8
Calque_1
 62
7
100
AcDbSpline
 70
8
 71
3
 72
8
 73
4
 74
0
 40
0
 40
0
 40
0
 40
0
 40
1
 40
1
 40
1
 40
1
 10
76.797205
 20
222.345627
 30
0.0
 10
77.320016
 20
221.905718
 30
0.0
 10
77.595747
 20
221.284525
 30
0.0
 10
77.595747
 20
220.546584
 30
0.0
  0
SPLINE
  5
327
100
AcDbEntity
  8
Calque_1
 62
7
100
AcDbSpline
 70
8
 71
3
 72
8
 73
4
 74
0
 40
0
 40
0
 40
0
 40
0
 40
1
 40
1
 40
1
 40
1
 10
77.595747
 20
220.546584
 30
0.0
 10
77.595747
 20
219.694973
 30
0.0
 10
77.272298
 20
219.032510
 30
0.0
 10
76.663880
 20
218.638014
 30
0.0
  0
SPLINE
  5
328
100
AcDbEntity
  8
Calque_1
 62
7
100
AcDbSpline
 70
8
 71
3
 72
8
 73
4
 74
0
 40
0
 40
0
 40
0
 40
0
 40
1
 40
1
 40
1
 40
1
 10
76.663880
 20
218.638014
 30
0.0
 10
76.005109
 20
218.210868
 30
0.0
 10
75.395811
 20
218.220466
 30
0.0
 10
74.778390
 20
218.667712
 30
0.0
  0
LINE
  5
329
100
AcDbEntity
  8
Calque_1
 62
7
100
AcDbLine
 10
74.778390
 20
218.667712
 30
0.0
 11
74.778390
 21
218.667712
 31
0.0
  0
SPLINE
  5
32a
100
AcDbEntity
  8
Calque_1
 62
7
100
AcDbSpline
 70
8
 71
3
 72
8
 73
4
 74
0
 40
0
 40
0
 40
0
 40
0
 40
1
 40
1
 40
1
 40
1
 10
76.348045
 20
218.840890
 30
0.0
 10
76.529856
 20
218.934903
 30
0.0
 10
76.808324
 20
219.233167
 30
0.0
 10
76.966868
 20
219.503697
 30
0.0
  0
SPLINE
  5
32b
100
AcDbEntity
  8
Calque_1
 62
7
100
AcDbSpline
 70
8
 71
3
 72
8
 73
4
 74
0
 40
0
 40
0
 40
0
 40
0
 40
1
 40
1
 40
1
 40
1
 10
76.966868
 20
219.503697
 30
0.0
 10
77.328291
 20
220.120400
 30
0.0
 10
77.349590
 20
220.878105
 30
0.0
 10
77.023474
 20
221.517330
 30
0.0
  0
SPLINE
  5
32c
100
AcDbEntity
  8
Calque_1
 62
7
100
AcDbSpline
 70
8
 71
3
 72
8
 73
4
 74
0
 40
0
 40
0
 40
0
 40
0
 40
1
 40
1
 40
1
 40
1
 10
77.023474
 20
221.517330
 30
0.0
 10
76.771678
 20
222.010883
 30
0.0
 10
76.219222
 20
222.415544
 30
0.0
 10
75.796290
 20
222.416219
 30
0.0
  0
SPLINE
  5
32d
100
AcDbEntity
  8
Calque_1
 62
7
100
AcDbSpline
 70
8
 71
3
 72
8
 73
4
 74
0
 40
0
 40
0
 40
0
 40
0
 40
1
 40
1
 40
1
 40
1
 10
75.796290
 20
222.416219
 30
0.0
 10
75.345620
 20
222.416783
 30
0.0
 10
74.773677
 20
222.072520
 30
0.0
 10
74.504273
 20
221.638186
 30
0.0
  0
SPLINE
  5
32e
100
AcDbEntity
  8
Calque_1
 62
7
100
AcDbSpline
 70
8
 71
3
 72
8
 73
4
 74
0
 40
0
 40
0
 40
0
 40
0
 40
1
 40
1
 40
1
 40
1
 10
74.504273
 20
221.638186
 30
0.0
 10
74.312323
 20
221.328724
 30
0.0
 10
74.247685
 20
221.052905
 30
0.0
 10
74.247685
 20
220.543296
 30
0.0
  0
SPLINE
  5
32f
100
AcDbEntity
  8
Calque_1
 62
7
100
AcDbSpline
 70
8
 71
3
 72
8
 73
4
 74
0
 40
0
 40
0
 40
0
 40
0
 40
1
 40
1
 40
1
 40
1
 10
74.247685
 20
220.543296
 30
0.0
 10
74.247685
 20
220.022404
 30
0.0
 10
74.311674
 20
219.758896
 30
0.0
 10
74.519573
 20
219.423656
 30
0.0
  0
SPLINE
  5
330
100
AcDbEntity
  8
Calque_1
 62
7
100
AcDbSpline
 70
8
 71
3
 72
8
 73
4
 74
0
 40
0
 40
0
 40
0
 40
0
 40
1
 40
1
 40
1
 40
1
 10
74.519573
 20
219.423656
 30
0.0
 10
74.795848
 20
218.978151
 30
0.0
 10
75.283986
 20
218.682436
 30
0.0
 10
75.756383
 20
218.674395
 30
0.0
  0
SPLINE
  5
331
100
AcDbEntity
  8
Calque_1
 62
7
100
AcDbSpline
 70
8
 71
3
 72
8
 73
4
 74
0
 40
0
 40
0
 40
0
 40
0
 40
1
 40
1
 40
1
 40
1
 10
75.756383
 20
218.674395
 30
0.0
 10
75.899986
 20
218.671855
 30
0.0
 10
76.166235
 20
218.746873
 30
0.0
 10
76.348045
 20
218.840890
 30
0.0
  0
LINE
  5
332
100
AcDbEntity
  8
Calque_1
 62
7
100
AcDbLine
 10
76.348045
 20
218.840890
 30
0.0
 11
76.348045
 21
218.840890
 31
0.0
  0
SPLINE
  5
333
100
AcDbEntity
  8
Calque_1
 62
7
100
AcDbSpline
 70
8
 71
3
 72
8
 73
4
 74
0
 40
0
 40
0
 40
0
 40
0
 40
1
 40
1
 40
1
 40
1
 10
78.390516
 20
220.552759
 30
0.0
 10
78.390516
 20
222.250427
 30
0.0
 10
78.423231
 20
222.765269
 30
0.0
 10
78.528870
 20
222.730056
 30
0.0
  0
SPLINE
  5
334
100
AcDbEntity
  8
Calque_1
 62
7
100
AcDbSpline
 70
8
 71
3
 72
8
 73
4
 74
0
 40
0
 40
0
 40
0
 40
0
 40
1
 40
1
 40
1
 40
1
 10
78.528870
 20
222.730056
 30
0.0
 10
78.604965
 20
222.704684
 30
0.0
 10
79.256390
 20
221.881778
 30
0.0
 10
79.976486
 20
220.901357
 30
0.0
  0
LINE
  5
335
100
AcDbEntity
  8
Calque_1
 62
7
100
AcDbLine
 10
79.976486
 20
220.901357
 30
0.0
 11
81.285752
 21
219.118774
 31
0.0
  0
LINE
  5
336
100
AcDbEntity
  8
Calque_1
 62
7
100
AcDbLine
 10
81.285752
 20
219.118774
 30
0.0
 11
81.316949
 21
220.938012
 31
0.0
  0
SPLINE
  5
337
100
AcDbEntity
  8
Calque_1
 62
7
100
AcDbSpline
 70
8
 71
3
 72
8
 73
4
 74
0
 40
0
 40
0
 40
0
 40
0
 40
1
 40
1
 40
1
 40
1
 10
81.316949
 20
220.938012
 30
0.0
 10
81.342913
 20
222.451748
 30
0.0
 10
81.376274
 20
222.757251
 30
0.0
 10
81.515641
 20
222.757251
 30
0.0
  0
SPLINE
  5
338
100
AcDbEntity
  8
Calque_1
 62
7
100
AcDbSpline
 70
8
 71
3
 72
8
 73
4
 74
0
 40
0
 40
0
 40
0
 40
0
 40
1
 40
1
 40
1
 40
1
 10
81.515641
 20
222.757251
 30
0.0
 10
81.657571
 20
222.757251
 30
0.0
 10
81.683138
 20
222.418056
 30
0.0
 10
81.683138
 20
220.534974
 30
0.0
  0
SPLINE
  5
339
100
AcDbEntity
  8
Calque_1
 62
7
100
AcDbSpline
 70
8
 71
3
 72
8
 73
4
 74
0
 40
0
 40
0
 40
0
 40
0
 40
1
 40
1
 40
1
 40
1
 10
81.683138
 20
220.534974
 30
0.0
 10
81.683138
 20
218.684544
 30
0.0
 10
81.656439
 20
218.318835
 30
0.0
 10
81.523594
 20
218.349402
 30
0.0
  0
SPLINE
  5
33a
100
AcDbEntity
  8
Calque_1
 62
7
100
AcDbSpline
 70
8
 71
3
 72
8
 73
4
 74
0
 40
0
 40
0
 40
0
 40
0
 40
1
 40
1
 40
1
 40
1
 10
81.523594
 20
218.349402
 30
0.0
 10
81.435849
 20
218.369581
 30
0.0
 10
80.784421
 20
219.178027
 30
0.0
 10
80.075978
 20
220.145922
 30
0.0
  0
LINE
  5
33b
100
AcDbEntity
  8
Calque_1
 62
7
100
AcDbLine
 10
80.075978
 20
220.145922
 30
0.0
 11
78.787902
 21
221.905730
 31
0.0
  0
LINE
  5
33c
100
AcDbEntity
  8
Calque_1
 62
7
100
AcDbLine
 10
78.787902
 20
221.905730
 30
0.0
 11
78.756634
 21
220.117536
 31
0.0
  0
SPLINE
  5
33d
100
AcDbEntity
  8
Calque_1
 62
7
100
AcDbSpline
 70
8
 71
3
 72
8
 73
4
 74
0
 40
0
 40
0
 40
0
 40
0
 40
1
 40
1
 40
1
 40
1
 10
78.756634
 20
220.117536
 30
0.0
 10
78.730642
 20
218.631543
 30
0.0
 10
78.697071
 20
218.329345
 30
0.0
 10
78.557941
 20
218.329345
 30
0.0
  0
SPLINE
  5
33e
100
AcDbEntity
  8
Calque_1
 62
7
100
AcDbSpline
 70
8
 71
3
 72
8
 73
4
 74
0
 40
0
 40
0
 40
0
 40
0
 40
1
 40
1
 40
1
 40
1
 10
78.557941
 20
218.329345
 30
0.0
 10
78.416102
 20
218.329345
 30
0.0
 10
78.390516
 20
218.669098
 30
0.0
 10
78.390516
 20
220.552759
 30
0.0
  0
LINE
  5
33f
100
AcDbEntity
  8
Calque_1
 62
7
100
AcDbLine
 10
78.390516
 20
220.552759
 30
0.0
 11
78.390516
 21
220.552759
 31
0.0
  0
SPLINE
  5
340
100
AcDbEntity
  8
Calque_1
 62
7
100
AcDbSpline
 70
8
 71
3
 72
8
 73
4
 74
0
 40
0
 40
0
 40
0
 40
0
 40
1
 40
1
 40
1
 40
1
 10
72.133282
 20
225.258310
 30
0.0
 10
71.864940
 20
225.321352
 30
0.0
 10
71.946869
 20
225.106607
 30
0.0
 10
69.860451
 20
231.215688
 30
0.0
  0
SPLINE
  5
341
100
AcDbEntity
  8
Calque_1
 62
7
100
AcDbSpline
 70
8
 71
3
 72
8
 73
4
 74
0
 40
0
 40
0
 40
0
 40
0
 40
1
 40
1
 40
1
 40
1
 10
69.860451
 20
231.215688
 30
0.0
 10
69.540552
 20
232.152361
 30
0.0
 10
69.232365
 20
233.008137
 30
0.0
 10
69.175590
 20
233.117417
 30
0.0
  0
SPLINE
  5
342
100
AcDbEntity
  8
Calque_1
 62
7
100
AcDbSpline
 70
8
 71
3
 72
8
 73
4
 74
0
 40
0
 40
0
 40
0
 40
0
 40
1
 40
1
 40
1
 40
1
 10
69.175590
 20
233.117417
 30
0.0
 10
69.082279
 20
233.297017
 30
0.0
 10
68.844318
 20
233.316104
 30
0.0
 10
66.698746
 20
233.316104
 30
0.0
  0
SPLINE
  5
343
100
AcDbEntity
  8
Calque_1
 62
7
100
AcDbSpline
 70
8
 71
3
 72
8
 73
4
 74
0
 40
0
 40
0
 40
0
 40
0
 40
1
 40
1
 40
1
 40
1
 10
66.698746
 20
233.316104
 30
0.0
 10
64.952118
 20
233.316104
 30
0.0
 10
64.300868
 20
233.279387
 30
0.0
 10
64.233278
 20
233.177101
 30
0.0
  0
SPLINE
  5
344
100
AcDbEntity
  8
Calque_1
 62
7
100
AcDbSpline
 70
8
 71
3
 72
8
 73
4
 74
0
 40
0
 40
0
 40
0
 40
0
 40
1
 40
1
 40
1
 40
1
 10
64.233278
 20
233.177101
 30
0.0
 10
64.182758
 20
233.100647
 30
0.0
 10
63.907103
 20
232.372598
 30
0.0
 10
63.620712
 20
231.559211
 30
0.0
  0
LINE
  5
345
100
AcDbEntity
  8
Calque_1
 62
7
100
AcDbLine
 10
63.620712
 20
231.559211
 30
0.0
 11
63.100004
 21
230.080327
 31
0.0
  0
LINE
  5
346
100
AcDbEntity
  8
Calque_1
 62
7
100
AcDbLine
 10
63.100004
 20
230.080327
 30
0.0
 11
62.059558
 21
230.047683
 31
0.0
  0
SPLINE
  5
347
100
AcDbEntity
  8
Calque_1
 62
7
100
AcDbSpline
 70
8
 71
3
 72
8
 73
4
 74
0
 40
0
 40
0
 40
0
 40
0
 40
1
 40
1
 40
1
 40
1
 10
62.059558
 20
230.047683
 30
0.0
 10
61.487312
 20
230.029733
 30
0.0
 10
61.019111
 20
230.059197
 30
0.0
 10
61.019111
 20
230.113167
 30
0.0
  0
SPLINE
  5
348
100
AcDbEntity
  8
Calque_1
 62
7
100
AcDbSpline
 70
8
 71
3
 72
8
 73
4
 74
0
 40
0
 40
0
 40
0
 40
0
 40
1
 40
1
 40
1
 40
1
 10
61.019111
 20
230.113167
 30
0.0
 10
61.019111
 20
230.206644
 30
0.0
 10
62.064022
 20
233.268739
 30
0.0
 10
64.087985
 20
239.106443
 30
0.0
  0
SPLINE
  5
349
100
AcDbEntity
  8
Calque_1
 62
7
100
AcDbSpline
 70
8
 71
3
 72
8
 73
4
 74
0
 40
0
 40
0
 40
0
 40
0
 40
1
 40
1
 40
1
 40
1
 10
64.087985
 20
239.106443
 30
0.0
 10
64.596758
 20
240.573897
 30
0.0
 10
65.113535
 20
242.055544
 30
0.0
 10
65.236378
 20
242.398989
 30
0.0
  0
SPLINE
  5
34a
100
AcDbEntity
  8
Calque_1
 62
7
100
AcDbSpline
 70
8
 71
3
 72
8
 73
4
 74
0
 40
0
 40
0
 40
0
 40
0
 40
1
 40
1
 40
1
 40
1
 10
65.236378
 20
242.398989
 30
0.0
 10
65.359221
 20
242.742436
 30
0.0
 10
65.490728
 20
243.125621
 30
0.0
 10
65.528616
 20
243.250510
 30
0.0
  0
SPLINE
  5
34b
100
AcDbEntity
  8
Calque_1
 62
7
100
AcDbSpline
 70
8
 71
3
 72
8
 73
4
 74
0
 40
0
 40
0
 40
0
 40
0
 40
1
 40
1
 40
1
 40
1
 10
65.528616
 20
243.250510
 30
0.0
 10
65.566507
 20
243.375401
 30
0.0
 10
65.635025
 20
243.503130
 30
0.0
 10
65.680881
 20
243.534352
 30
0.0
  0
SPLINE
  5
34c
100
AcDbEntity
  8
Calque_1
 62
7
100
AcDbSpline
 70
8
 71
3
 72
8
 73
4
 74
0
 40
0
 40
0
 40
0
 40
0
 40
1
 40
1
 40
1
 40
1
 10
65.680881
 20
243.534352
 30
0.0
 10
65.726736
 20
243.565574
 30
0.0
 10
66.293204
 20
243.565574
 30
0.0
 10
66.939699
 20
243.534352
 30
0.0
  0
SPLINE
  5
34d
100
AcDbEntity
  8
Calque_1
 62
7
100
AcDbSpline
 70
8
 71
3
 72
8
 73
4
 74
0
 40
0
 40
0
 40
0
 40
0
 40
1
 40
1
 40
1
 40
1
 10
66.939699
 20
243.534352
 30
0.0
 10
68.115143
 20
243.477583
 30
0.0
 10
68.115143
 20
243.477583
 30
0.0
 10
68.248584
 20
243.080205
 30
0.0
  0
SPLINE
  5
34e
100
AcDbEntity
  8
Calque_1
 62
7
100
AcDbSpline
 70
8
 71
3
 72
8
 73
4
 74
0
 40
0
 40
0
 40
0
 40
0
 40
1
 40
1
 40
1
 40
1
 10
68.248584
 20
243.080205
 30
0.0
 10
68.321976
 20
242.861650
 30
0.0
 10
68.594323
 20
242.095281
 30
0.0
 10
68.853801
 20
241.377167
 30
0.0
  0
SPLINE
  5
34f
100
AcDbEntity
  8
Calque_1
 62
7
100
AcDbSpline
 70
8
 71
3
 72
8
 73
4
 74
0
 40
0
 40
0
 40
0
 40
0
 40
1
 40
1
 40
1
 40
1
 10
68.853801
 20
241.377167
 30
0.0
 10
69.113276
 20
240.659049
 30
0.0
 10
69.674811
 20
239.075221
 30
0.0
 10
70.101649
 20
237.857548
 30
0.0
  0
SPLINE
  5
350
100
AcDbEntity
  8
Calque_1
 62
7
100
AcDbSpline
 70
8
 71
3
 72
8
 73
4
 74
0
 40
0
 40
0
 40
0
 40
0
 40
1
 40
1
 40
1
 40
1
 10
70.101649
 20
237.857548
 30
0.0
 10
70.528488
 20
236.639872
 30
0.0
 10
71.184959
 20
234.775043
 30
0.0
 10
71.560470
 20
233.713481
 30
0.0
  0
SPLINE
  5
351
100
AcDbEntity
  8
Calque_1
 62
7
100
AcDbSpline
 70
8
 71
3
 72
8
 73
4
 74
0
 40
0
 40
0
 40
0
 40
0
 40
1
 40
1
 40
1
 40
1
 10
71.560470
 20
233.713481
 30
0.0
 10
72.278886
 20
231.682543
 30
0.0
 10
74.094258
 20
226.536646
 30
0.0
 10
74.362637
 20
225.770391
 30
0.0
  0
SPLINE
  5
352
100
AcDbEntity
  8
Calque_1
 62
7
100
AcDbSpline
 70
8
 71
3
 72
8
 73
4
 74
0
 40
0
 40
0
 40
0
 40
0
 40
1
 40
1
 40
1
 40
1
 10
74.362637
 20
225.770391
 30
0.0
 10
74.449268
 20
225.523048
 30
0.0
 10
74.494195
 20
225.294725
 30
0.0
 10
74.462473
 20
225.263006
 30
0.0
  0
SPLINE
  5
353
100
AcDbEntity
  8
Calque_1
 62
7
100
AcDbSpline
 70
8
 71
3
 72
8
 73
4
 74
0
 40
0
 40
0
 40
0
 40
0
 40
1
 40
1
 40
1
 40
1
 10
74.462473
 20
225.263006
 30
0.0
 10
74.385492
 20
225.186027
 30
0.0
 10
72.457519
 20
225.182138
 30
0.0
 10
72.133282
 20
225.258321
 30
0.0
  0
LINE
  5
354
100
AcDbEntity
  8
Calque_1
 62
7
100
AcDbLine
 10
72.133282
 20
225.258321
 30
0.0
 11
72.133282
 21
225.258310
 31
0.0
  0
SPLINE
  5
355
100
AcDbEntity
  8
Calque_1
 62
7
100
AcDbSpline
 70
8
 71
3
 72
8
 73
4
 74
0
 40
0
 40
0
 40
0
 40
0
 40
1
 40
1
 40
1
 40
1
 10
68.399121
 20
235.367143
 30
0.0
 10
68.399121
 20
235.571497
 30
0.0
 10
66.776803
 20
240.241812
 30
0.0
 10
66.705858
 20
240.241696
 30
0.0
  0
SPLINE
  5
356
100
AcDbEntity
  8
Calque_1
 62
7
100
AcDbSpline
 70
8
 71
3
 72
8
 73
4
 74
0
 40
0
 40
0
 40
0
 40
0
 40
1
 40
1
 40
1
 40
1
 10
66.705858
 20
240.241696
 30
0.0
 10
66.635356
 20
240.241583
 30
0.0
 10
65.415428
 20
236.809211
 30
0.0
 10
65.164837
 20
235.905891
 30
0.0
  0
SPLINE
  5
357
100
AcDbEntity
  8
Calque_1
 62
7
100
AcDbSpline
 70
8
 71
3
 72
8
 73
4
 74
0
 40
0
 40
0
 40
0
 40
0
 40
1
 40
1
 40
1
 40
1
 10
65.164837
 20
235.905891
 30
0.0
 10
65.083594
 20
235.613043
 30
0.0
 10
65.045751
 20
235.344813
 30
0.0
 10
65.080735
 20
235.309826
 30
0.0
  0
SPLINE
  5
358
100
AcDbEntity
  8
Calque_1
 62
7
100
AcDbSpline
 70
8
 71
3
 72
8
 73
4
 74
0
 40
0
 40
0
 40
0
 40
0
 40
1
 40
1
 40
1
 40
1
 10
65.080735
 20
235.309826
 30
0.0
 10
65.115722
 20
235.274842
 30
0.0
 10
65.876670
 20
235.246219
 30
0.0
 10
66.771734
 20
235.246219
 30
0.0
  0
SPLINE
  5
359
100
AcDbEntity
  8
Calque_1
 62
7
100
AcDbSpline
 70
8
 71
3
 72
8
 73
4
 74
0
 40
0
 40
0
 40
0
 40
0
 40
1
 40
1
 40
1
 40
1
 10
66.771734
 20
235.246219
 30
0.0
 10
67.847250
 20
235.246219
 30
0.0
 10
68.399121
 20
235.287226
 30
0.0
 10
68.399121
 20
235.367143
 30
0.0
  0
LINE
  5
35a
100
AcDbEntity
  8
Calque_1
 62
7
100
AcDbLine
 10
68.399121
 20
235.367143
 30
0.0
 11
68.399121
 21
235.367143
 31
0.0
  0
LINE
  5
35b
100
AcDbEntity
  8
Calque_1
 62
7
100
AcDbLine
 10
75.438514
 20
229.503203
 30
0.0
 11
75.438514
 21
233.883786
 31
0.0
  0
LINE
  5
35c
100
AcDbEntity
  8
Calque_1
 62
7
100
AcDbLine
 10
75.438514
 20
233.883786
 30
0.0
 11
77.808633
 21
233.883786
 31
0.0
  0
SPLINE
  5
35d
100
AcDbEntity
  8
Calque_1
 62
7
100
AcDbSpline
 70
8
 71
3
 72
8
 73
4
 74
0
 40
0
 40
0
 40
0
 40
0
 40
1
 40
1
 40
1
 40
1
 10
77.808633
 20
233.883786
 30
0.0
 10
79.112197
 20
233.883786
 30
0.0
 10
80.336150
 20
233.852306
 30
0.0
 10
80.528527
 20
233.813831
 30
0.0
  0
SPLINE
  5
35e
100
AcDbEntity
  8
Calque_1
 62
7
100
AcDbSpline
 70
8
 71
3
 72
8
 73
4
 74
0
 40
0
 40
0
 40
0
 40
0
 40
1
 40
1
 40
1
 40
1
 10
80.528527
 20
233.813831
 30
0.0
 10
80.720904
 20
233.775356
 30
0.0
 10
81.077545
 20
233.573335
 30
0.0
 10
81.321066
 20
233.364897
 30
0.0
  0
SPLINE
  5
35f
100
AcDbEntity
  8
Calque_1
 62
7
100
AcDbSpline
 70
8
 71
3
 72
8
 73
4
 74
0
 40
0
 40
0
 40
0
 40
0
 40
1
 40
1
 40
1
 40
1
 10
81.321066
 20
233.364897
 30
0.0
 10
81.660509
 20
233.074352
 30
0.0
 10
81.806488
 20
232.832364
 30
0.0
 10
81.946646
 20
232.327875
 30
0.0
  0
SPLINE
  5
360
100
AcDbEntity
  8
Calque_1
 62
7
100
AcDbSpline
 70
8
 71
3
 72
8
 73
4
 74
0
 40
0
 40
0
 40
0
 40
0
 40
1
 40
1
 40
1
 40
1
 10
81.946646
 20
232.327875
 30
0.0
 10
82.089642
 20
231.813158
 30
0.0
 10
82.104202
 20
231.558551
 30
0.0
 10
82.013484
 20
231.158919
 30
0.0
  0
SPLINE
  5
361
100
AcDbEntity
  8
Calque_1
 62
7
100
AcDbSpline
 70
8
 71
3
 72
8
 73
4
 74
0
 40
0
 40
0
 40
0
 40
0
 40
1
 40
1
 40
1
 40
1
 10
82.013484
 20
231.158919
 30
0.0
 10
81.878049
 20
230.562281
 30
0.0
 10
81.652875
 20
230.174717
 30
0.0
 10
81.247107
 20
229.839852
 30
0.0
  0
SPLINE
  5
362
100
AcDbEntity
  8
Calque_1
 62
7
100
AcDbSpline
 70
8
 71
3
 72
8
 73
4
 74
0
 40
0
 40
0
 40
0
 40
0
 40
1
 40
1
 40
1
 40
1
 10
81.247107
 20
229.839852
 30
0.0
 10
80.959353
 20
229.602378
 30
0.0
 10
80.958730
 20
229.598419
 30
0.0
 10
81.197055
 20
229.522781
 30
0.0
  0
SPLINE
  5
363
100
AcDbEntity
  8
Calque_1
 62
7
100
AcDbSpline
 70
8
 71
3
 72
8
 73
4
 74
0
 40
0
 40
0
 40
0
 40
0
 40
1
 40
1
 40
1
 40
1
 10
81.197055
 20
229.522781
 30
0.0
 10
81.580403
 20
229.401112
 30
0.0
 10
82.226734
 20
228.604571
 30
0.0
 10
82.368105
 20
228.079569
 30
0.0
  0
SPLINE
  5
364
100
AcDbEntity
  8
Calque_1
 62
7
100
AcDbSpline
 70
8
 71
3
 72
8
 73
4
 74
0
 40
0
 40
0
 40
0
 40
0
 40
1
 40
1
 40
1
 40
1
 10
82.368105
 20
228.079569
 30
0.0
 10
82.531500
 20
227.472775
 30
0.0
 10
82.425560
 20
226.743806
 30
0.0
 10
82.103197
 20
226.256803
 30
0.0
  0
SPLINE
  5
365
100
AcDbEntity
  8
Calque_1
 62
7
100
AcDbSpline
 70
8
 71
3
 72
8
 73
4
 74
0
 40
0
 40
0
 40
0
 40
0
 40
1
 40
1
 40
1
 40
1
 10
82.103197
 20
226.256803
 30
0.0
 10
81.951455
 20
226.027560
 30
0.0
 10
81.586110
 20
225.745829
 30
0.0
 10
81.172214
 20
225.538884
 30
0.0
  0
SPLINE
  5
366
100
AcDbEntity
  8
Calque_1
 62
7
100
AcDbSpline
 70
8
 71
3
 72
8
 73
4
 74
0
 40
0
 40
0
 40
0
 40
0
 40
1
 40
1
 40
1
 40
1
 10
81.172214
 20
225.538884
 30
0.0
 10
80.490980
 20
225.198275
 30
0.0
 10
80.490980
 20
225.198275
 30
0.0
 10
77.964747
 20
225.160449
 30
0.0
  0
LINE
  5
367
100
AcDbEntity
  8
Calque_1
 62
7
100
AcDbLine
 10
77.964747
 20
225.160449
 30
0.0
 11
75.438514
 21
225.122623
 31
0.0
  0
LINE
  5
368
100
AcDbEntity
  8
Calque_1
 62
7
100
AcDbLine
 10
75.438514
 20
225.122623
 30
0.0
 11
75.438514
 21
229.503203
 31
0.0
  0
SPLINE
  5
369
100
AcDbEntity
  8
Calque_1
 62
7
100
AcDbSpline
 70
8
 71
3
 72
8
 73
4
 74
0
 40
0
 40
0
 40
0
 40
0
 40
1
 40
1
 40
1
 40
1
 10
79.955621
 20
226.739508
 30
0.0
 10
80.400883
 20
226.894724
 30
0.0
 10
80.661290
 20
227.291359
 30
0.0
 10
80.661290
 20
227.814345
 30
0.0
  0
SPLINE
  5
36a
100
AcDbEntity
  8
Calque_1
 62
7
100
AcDbSpline
 70
8
 71
3
 72
8
 73
4
 74
0
 40
0
 40
0
 40
0
 40
0
 40
1
 40
1
 40
1
 40
1
 10
80.661290
 20
227.814345
 30
0.0
 10
80.661290
 20
228.116236
 30
0.0
 10
80.573716
 20
228.312019
 30
0.0
 10
80.329408
 20
228.556322
 30
0.0
  0
SPLINE
  5
36b
100
AcDbEntity
  8
Calque_1
 62
7
100
AcDbSpline
 70
8
 71
3
 72
8
 73
4
 74
0
 40
0
 40
0
 40
0
 40
0
 40
1
 40
1
 40
1
 40
1
 10
80.329408
 20
228.556322
 30
0.0
 10
79.997774
 20
228.887947
 30
0.0
 10
79.996453
 20
228.888198
 30
0.0
 10
78.569558
 20
228.888198
 30
0.0
  0
LINE
  5
36c
100
AcDbEntity
  8
Calque_1
 62
7
100
AcDbLine
 10
78.569558
 20
228.888198
 30
0.0
 11
77.141592
 21
228.888198
 31
0.0
  0
LINE
  5
36d
100
AcDbEntity
  8
Calque_1
 62
7
100
AcDbLine
 10
77.141592
 20
228.888198
 30
0.0
 11
77.141592
 21
227.752838
 31
0.0
  0
LINE
  5
36e
100
AcDbEntity
  8
Calque_1
 62
7
100
AcDbLine
 10
77.141592
 20
227.752838
 30
0.0
 11
77.141592
 21
226.617478
 31
0.0
  0
LINE
  5
36f
100
AcDbEntity
  8
Calque_1
 62
7
100
AcDbLine
 10
77.141592
 20
226.617478
 30
0.0
 11
78.373574
 21
226.617478
 31
0.0
  0
SPLINE
  5
370
100
AcDbEntity
  8
Calque_1
 62
7
100
AcDbSpline
 70
8
 71
3
 72
8
 73
4
 74
0
 40
0
 40
0
 40
0
 40
0
 40
1
 40
1
 40
1
 40
1
 10
78.373574
 20
226.617478
 30
0.0
 10
79.051164
 20
226.617478
 30
0.0
 10
79.763087
 20
226.672390
 30
0.0
 10
79.955621
 20
226.739508
 30
0.0
  0
LINE
  5
371
100
AcDbEntity
  8
Calque_1
 62
7
100
AcDbLine
 10
79.955621
 20
226.739508
 30
0.0
 11
79.955621
 21
226.739508
 31
0.0
  0
SPLINE
  5
372
100
AcDbEntity
  8
Calque_1
 62
7
100
AcDbSpline
 70
8
 71
3
 72
8
 73
4
 74
0
 40
0
 40
0
 40
0
 40
0
 40
1
 40
1
 40
1
 40
1
 10
80.020247
 20
230.529049
 30
0.0
 10
80.256885
 20
230.748353
 30
0.0
 10
80.320673
 20
230.912897
 30
0.0
 10
80.320673
 20
231.304012
 30
0.0
  0
SPLINE
  5
373
100
AcDbEntity
  8
Calque_1
 62
7
100
AcDbSpline
 70
8
 71
3
 72
8
 73
4
 74
0
 40
0
 40
0
 40
0
 40
0
 40
1
 40
1
 40
1
 40
1
 10
80.320673
 20
231.304012
 30
0.0
 10
80.320673
 20
231.690769
 30
0.0
 10
80.255965
 20
231.861412
 30
0.0
 10
80.028009
 20
232.075802
 30
0.0
  0
SPLINE
  5
374
100
AcDbEntity
  8
Calque_1
 62
7
100
AcDbSpline
 70
8
 71
3
 72
8
 73
4
 74
0
 40
0
 40
0
 40
0
 40
0
 40
1
 40
1
 40
1
 40
1
 10
80.028009
 20
232.075802
 30
0.0
 10
79.759691
 20
232.328146
 30
0.0
 10
79.627439
 20
232.354223
 30
0.0
 10
78.438468
 20
232.389202
 30
0.0
  0
LINE
  5
375
100
AcDbEntity
  8
Calque_1
 62
7
100
AcDbLine
 10
78.438468
 20
232.389202
 30
0.0
 11
77.141592
 21
232.427358
 31
0.0
  0
LINE
  5
376
100
AcDbEntity
  8
Calque_1
 62
7
100
AcDbLine
 10
77.141592
 20
232.427358
 30
0.0
 11
77.141592
 21
231.338993
 31
0.0
  0
LINE
  5
377
100
AcDbEntity
  8
Calque_1
 62
7
100
AcDbLine
 10
77.141592
 20
231.338993
 30
0.0
 11
77.141592
 21
230.250632
 31
0.0
  0
LINE
  5
378
100
AcDbEntity
  8
Calque_1
 62
7
100
AcDbLine
 10
77.141592
 20
230.250632
 30
0.0
 11
78.430707
 21
230.250632
 31
0.0
  0
SPLINE
  5
379
100
AcDbEntity
  8
Calque_1
 62
7
100
AcDbSpline
 70
8
 71
3
 72
8
 73
4
 74
0
 40
0
 40
0
 40
0
 40
0
 40
1
 40
1
 40
1
 40
1
 10
78.430707
 20
230.250632
 30
0.0
 10
79.641703
 20
230.250632
 30
0.0
 10
79.738028
 20
230.267509
 30
0.0
 10
80.020247
 20
230.529049
 30
0.0
  0
LINE
  5
37a
100
AcDbEntity
  8
Calque_1
 62
7
100
AcDbLine
 10
80.020247
 20
230.529049
 30
0.0
 11
80.020247
 21
230.529049
 31
0.0
  0
LINE
  5
37b
100
AcDbEntity
  8
Calque_1
 62
7
100
AcDbLine
 10
56.845203
 20
229.525287
 30
0.0
 11
56.874952
 21
233.795529
 31
0.0
  0
LINE
  5
37c
100
AcDbEntity
  8
Calque_1
 62
7
100
AcDbLine
 10
56.874952
 20
233.795529
 30
0.0
 11
57.669724
 21
233.795537
 31
0.0
  0
LINE
  5
37d
100
AcDbEntity
  8
Calque_1
 62
7
100
AcDbLine
 10
57.669724
 20
233.795537
 30
0.0
 11
58.464492
 21
233.795546
 31
0.0
  0
LINE
  5
37e
100
AcDbEntity
  8
Calque_1
 62
7
100
AcDbLine
 10
58.464492
 20
233.795546
 30
0.0
 11
58.494473
 21
230.206512
 31
0.0
  0
LINE
  5
37f
100
AcDbEntity
  8
Calque_1
 62
7
100
AcDbLine
 10
58.494473
 20
230.206512
 30
0.0
 11
58.524450
 21
226.617478
 31
0.0
  0
LINE
  5
380
100
AcDbEntity
  8
Calque_1
 62
7
100
AcDbLine
 10
58.524450
 20
226.617478
 30
0.0
 11
60.736858
 21
226.617478
 31
0.0
  0
LINE
  5
381
100
AcDbEntity
  8
Calque_1
 62
7
100
AcDbLine
 10
60.736858
 20
226.617478
 30
0.0
 11
62.949269
 21
226.617478
 31
0.0
  0
LINE
  5
382
100
AcDbEntity
  8
Calque_1
 62
7
100
AcDbLine
 10
62.949269
 20
226.617478
 30
0.0
 11
62.949269
 21
225.936261
 31
0.0
  0
LINE
  5
383
100
AcDbEntity
  8
Calque_1
 62
7
100
AcDbLine
 10
62.949269
 20
225.936261
 30
0.0
 11
62.949269
 21
225.255044
 31
0.0
  0
LINE
  5
384
100
AcDbEntity
  8
Calque_1
 62
7
100
AcDbLine
 10
62.949269
 20
225.255044
 30
0.0
 11
59.882360
 21
225.255044
 31
0.0
  0
LINE
  5
385
100
AcDbEntity
  8
Calque_1
 62
7
100
AcDbLine
 10
59.882360
 20
225.255044
 30
0.0
 11
56.815454
 21
225.255044
 31
0.0
  0
LINE
  5
386
100
AcDbEntity
  8
Calque_1
 62
7
100
AcDbLine
 10
56.815454
 20
225.255044
 30
0.0
 11
56.845203
 21
229.525287
 31
0.0
  0
LINE
  5
387
100
AcDbEntity
  8
Calque_1
 62
7
100
AcDbLine
 10
57.641338
 20
235.109271
 30
0.0
 11
56.818183
 21
235.142629
 31
0.0
  0
LINE
  5
388
100
AcDbEntity
  8
Calque_1
 62
7
100
AcDbLine
 10
56.818183
 20
235.142629
 30
0.0
 11
56.818183
 21
239.452027
 31
0.0
  0
LINE
  5
389
100
AcDbEntity
  8
Calque_1
 62
7
100
AcDbLine
 10
56.818183
 20
239.452027
 30
0.0
 11
56.818183
 21
243.761422
 31
0.0
  0
LINE
  5
38a
100
AcDbEntity
  8
Calque_1
 62
7
100
AcDbLine
 10
56.818183
 20
243.761422
 30
0.0
 11
59.777483
 21
243.761422
 31
0.0
  0
LINE
  5
38b
100
AcDbEntity
  8
Calque_1
 62
7
100
AcDbLine
 10
59.777483
 20
243.761422
 30
0.0
 11
62.736781
 21
243.761422
 31
0.0
  0
LINE
  5
38c
100
AcDbEntity
  8
Calque_1
 62
7
100
AcDbLine
 10
62.736781
 20
243.761422
 30
0.0
 11
62.701099
 21
243.015684
 31
0.0
  0
LINE
  5
38d
100
AcDbEntity
  8
Calque_1
 62
7
100
AcDbLine
 10
62.701099
 20
243.015684
 30
0.0
 11
62.665421
 21
242.269943
 31
0.0
  0
LINE
  5
38e
100
AcDbEntity
  8
Calque_1
 62
7
100
AcDbLine
 10
62.665421
 20
242.269943
 30
0.0
 11
60.621726
 21
242.249312
 31
0.0
  0
LINE
  5
38f
100
AcDbEntity
  8
Calque_1
 62
7
100
AcDbLine
 10
60.621726
 20
242.249312
 30
0.0
 11
58.578033
 21
242.228682
 31
0.0
  0
LINE
  5
390
100
AcDbEntity
  8
Calque_1
 62
7
100
AcDbLine
 10
58.578033
 20
242.228682
 30
0.0
 11
58.545386
 21
241.178474
 31
0.0
  0
LINE
  5
391
100
AcDbEntity
  8
Calque_1
 62
7
100
AcDbLine
 10
58.545386
 20
241.178474
 30
0.0
 11
58.512741
 21
240.128265
 31
0.0
  0
LINE
  5
392
100
AcDbEntity
  8
Calque_1
 62
7
100
AcDbLine
 10
58.512741
 20
240.128265
 30
0.0
 11
60.220081
 21
240.128265
 31
0.0
  0
LINE
  5
393
100
AcDbEntity
  8
Calque_1
 62
7
100
AcDbLine
 10
60.220081
 20
240.128265
 30
0.0
 11
61.927421
 21
240.128265
 31
0.0
  0
LINE
  5
394
100
AcDbEntity
  8
Calque_1
 62
7
100
AcDbLine
 10
61.927421
 20
240.128265
 30
0.0
 11
61.927421
 21
239.390283
 31
0.0
  0
LINE
  5
395
100
AcDbEntity
  8
Calque_1
 62
7
100
AcDbLine
 10
61.927421
 20
239.390283
 30
0.0
 11
61.927421
 21
238.652297
 31
0.0
  0
LINE
  5
396
100
AcDbEntity
  8
Calque_1
 62
7
100
AcDbLine
 10
61.927421
 20
238.652297
 30
0.0
 11
60.227154
 21
238.652297
 31
0.0
  0
LINE
  5
397
100
AcDbEntity
  8
Calque_1
 62
7
100
AcDbLine
 10
60.227154
 20
238.652297
 30
0.0
 11
58.526886
 21
238.652297
 31
0.0
  0
LINE
  5
398
100
AcDbEntity
  8
Calque_1
 62
7
100
AcDbLine
 10
58.526886
 20
238.652297
 30
0.0
 11
58.495689
 21
236.864103
 31
0.0
  0
LINE
  5
399
100
AcDbEntity
  8
Calque_1
 62
7
100
AcDbLine
 10
58.495689
 20
236.864103
 30
0.0
 11
58.464492
 21
235.075912
 31
0.0
  0
LINE
  5
39a
100
AcDbEntity
  8
Calque_1
 62
7
100
AcDbLine
 10
58.464492
 20
235.075912
 30
0.0
 11
57.641338
 21
235.109271
 31
0.0
  0
SPLINE
  5
39b
100
AcDbEntity
  8
Calque_1
 62
7
100
AcDbSpline
 70
8
 71
3
 72
8
 73
4
 74
0
 40
0
 40
0
 40
0
 40
0
 40
1
 40
1
 40
1
 40
1
 10
75.485585
 20
235.236756
 30
0.0
 10
75.459706
 20
235.262777
 30
0.0
 10
75.438514
 20
237.194052
 30
0.0
 10
75.438514
 20
239.528478
 30
0.0
  0
LINE
  5
39c
100
AcDbEntity
  8
Calque_1
 62
7
100
AcDbLine
 10
75.438514
 20
239.528478
 30
0.0
 11
75.438514
 21
243.772895
 31
0.0
  0
LINE
  5
39d
100
AcDbEntity
  8
Calque_1
 62
7
100
AcDbLine
 10
75.438514
 20
243.772895
 30
0.0
 11
78.156206
 21
243.738774
 31
0.0
  0
SPLINE
  5
39e
100
AcDbEntity
  8
Calque_1
 62
7
100
AcDbSpline
 70
8
 71
3
 72
8
 73
4
 74
0
 40
0
 40
0
 40
0
 40
0
 40
1
 40
1
 40
1
 40
1
 10
78.156206
 20
243.738774
 30
0.0
 10
80.873902
 20
243.704656
 30
0.0
 10
80.873902
 20
243.704656
 30
0.0
 10
81.236066
 20
243.364048
 30
0.0
  0
SPLINE
  5
39f
100
AcDbEntity
  8
Calque_1
 62
7
100
AcDbSpline
 70
8
 71
3
 72
8
 73
4
 74
0
 40
0
 40
0
 40
0
 40
0
 40
1
 40
1
 40
1
 40
1
 10
81.236066
 20
243.364048
 30
0.0
 10
82.276109
 20
242.385911
 30
0.0
 10
82.270608
 20
240.653334
 30
0.0
 10
81.225003
 20
239.880305
 30
0.0
  0
SPLINE
  5
3a0
100
AcDbEntity
  8
Calque_1
 62
7
100
AcDbSpline
 70
8
 71
3
 72
8
 73
4
 74
0
 40
0
 40
0
 40
0
 40
0
 40
1
 40
1
 40
1
 40
1
 10
81.225003
 20
239.880305
 30
0.0
 10
80.882253
 20
239.626903
 30
0.0
 10
80.882253
 20
239.626903
 30
0.0
 10
81.197543
 20
239.466000
 30
0.0
  0
SPLINE
  5
3a1
100
AcDbEntity
  8
Calque_1
 62
7
100
AcDbSpline
 70
8
 71
3
 72
8
 73
4
 74
0
 40
0
 40
0
 40
0
 40
0
 40
1
 40
1
 40
1
 40
1
 10
81.197543
 20
239.466000
 30
0.0
 10
81.671894
 20
239.223921
 30
0.0
 10
81.910741
 20
238.982452
 30
0.0
 10
82.161140
 20
238.491842
 30
0.0
  0
SPLINE
  5
3a2
100
AcDbEntity
  8
Calque_1
 62
7
100
AcDbSpline
 70
8
 71
3
 72
8
 73
4
 74
0
 40
0
 40
0
 40
0
 40
0
 40
1
 40
1
 40
1
 40
1
 10
82.161140
 20
238.491842
 30
0.0
 10
82.340140
 20
238.141122
 30
0.0
 10
82.378683
 20
237.884435
 30
0.0
 10
82.344139
 20
237.273102
 30
0.0
  0
SPLINE
  5
3a3
100
AcDbEntity
  8
Calque_1
 62
7
100
AcDbSpline
 70
8
 71
3
 72
8
 73
4
 74
0
 40
0
 40
0
 40
0
 40
0
 40
1
 40
1
 40
1
 40
1
 10
82.344139
 20
237.273102
 30
0.0
 10
82.303521
 20
236.554285
 30
0.0
 10
82.269144
 20
236.466672
 30
0.0
 10
81.865495
 20
236.053310
 30
0.0
  0
SPLINE
  5
3a4
100
AcDbEntity
  8
Calque_1
 62
7
100
AcDbSpline
 70
8
 71
3
 72
8
 73
4
 74
0
 40
0
 40
0
 40
0
 40
0
 40
1
 40
1
 40
1
 40
1
 10
81.865495
 20
236.053310
 30
0.0
 10
81.160843
 20
235.331696
 30
0.0
 10
80.827567
 20
235.259836
 30
0.0
 10
78.011822
 20
235.222405
 30
0.0
  0
SPLINE
  5
3a5
100
AcDbEntity
  8
Calque_1
 62
7
100
AcDbSpline
 70
8
 71
3
 72
8
 73
4
 74
0
 40
0
 40
0
 40
0
 40
0
 40
1
 40
1
 40
1
 40
1
 10
78.011822
 20
235.222405
 30
0.0
 10
76.648282
 20
235.204286
 30
0.0
 10
75.511477
 20
235.210749
 30
0.0
 10
75.485585
 20
235.236742
 30
0.0
  0
LINE
  5
3a6
100
AcDbEntity
  8
Calque_1
 62
7
100
AcDbLine
 10
75.485585
 20
235.236742
 30
0.0
 11
75.485585
 21
235.236756
 31
0.0
  0
SPLINE
  5
3a7
100
AcDbEntity
  8
Calque_1
 62
7
100
AcDbSpline
 70
8
 71
3
 72
8
 73
4
 74
0
 40
0
 40
0
 40
0
 40
0
 40
1
 40
1
 40
1
 40
1
 10
80.334364
 20
236.928419
 30
0.0
 10
80.632410
 20
237.194715
 30
0.0
 10
80.692255
 20
237.331096
 30
0.0
 10
80.692255
 20
237.744013
 30
0.0
  0
SPLINE
  5
3a8
100
AcDbEntity
  8
Calque_1
 62
7
100
AcDbSpline
 70
8
 71
3
 72
8
 73
4
 74
0
 40
0
 40
0
 40
0
 40
0
 40
1
 40
1
 40
1
 40
1
 10
80.692255
 20
237.744013
 30
0.0
 10
80.692255
 20
238.156926
 30
0.0
 10
80.632410
 20
238.293307
 30
0.0
 10
80.334364
 20
238.559604
 30
0.0
  0
SPLINE
  5
3a9
100
AcDbEntity
  8
Calque_1
 62
7
100
AcDbSpline
 70
8
 71
3
 72
8
 73
4
 74
0
 40
0
 40
0
 40
0
 40
0
 40
1
 40
1
 40
1
 40
1
 10
80.334364
 20
238.559604
 30
0.0
 10
79.982393
 20
238.874084
 30
0.0
 10
79.953031
 20
238.879373
 30
0.0
 10
78.559033
 20
238.879373
 30
0.0
  0
LINE
  5
3aa
100
AcDbEntity
  8
Calque_1
 62
7
100
AcDbLine
 10
78.559033
 20
238.879373
 30
0.0
 11
77.141592
 21
238.879373
 31
0.0
  0
LINE
  5
3ab
100
AcDbEntity
  8
Calque_1
 62
7
100
AcDbLine
 10
77.141592
 20
238.879373
 30
0.0
 11
77.141592
 21
237.744013
 31
0.0
  0
LINE
  5
3ac
100
AcDbEntity
  8
Calque_1
 62
7
100
AcDbLine
 10
77.141592
 20
237.744013
 30
0.0
 11
77.141592
 21
236.608650
 31
0.0
  0
LINE
  5
3ad
100
AcDbEntity
  8
Calque_1
 62
7
100
AcDbLine
 10
77.141592
 20
236.608650
 30
0.0
 11
78.559033
 21
236.608650
 31
0.0
  0
SPLINE
  5
3ae
100
AcDbEntity
  8
Calque_1
 62
7
100
AcDbSpline
 70
8
 71
3
 72
8
 73
4
 74
0
 40
0
 40
0
 40
0
 40
0
 40
1
 40
1
 40
1
 40
1
 10
78.559033
 20
236.608650
 30
0.0
 10
79.953031
 20
236.608650
 30
0.0
 10
79.982393
 20
236.613955
 30
0.0
 10
80.334364
 20
236.928419
 30
0.0
  0
LINE
  5
3af
100
AcDbEntity
  8
Calque_1
 62
7
100
AcDbLine
 10
80.334364
 20
236.928419
 30
0.0
 11
80.334364
 21
236.928419
 31
0.0
  0
SPLINE
  5
3b0
100
AcDbEntity
  8
Calque_1
 62
7
100
AcDbSpline
 70
8
 71
3
 72
8
 73
4
 74
0
 40
0
 40
0
 40
0
 40
0
 40
1
 40
1
 40
1
 40
1
 10
80.058881
 20
240.515875
 30
0.0
 10
80.329292
 20
240.748517
 30
0.0
 10
80.375726
 20
240.871608
 30
0.0
 10
80.366091
 20
241.330219
 30
0.0
  0
SPLINE
  5
3b1
100
AcDbEntity
  8
Calque_1
 62
7
100
AcDbSpline
 70
8
 71
3
 72
8
 73
4
 74
0
 40
0
 40
0
 40
0
 40
0
 40
1
 40
1
 40
1
 40
1
 10
80.366091
 20
241.330219
 30
0.0
 10
80.356862
 20
241.768787
 30
0.0
 10
80.296907
 20
241.920244
 30
0.0
 10
80.047530
 20
242.134744
 30
0.0
  0
SPLINE
  5
3b2
100
AcDbEntity
  8
Calque_1
 62
7
100
AcDbSpline
 70
8
 71
3
 72
8
 73
4
 74
0
 40
0
 40
0
 40
0
 40
0
 40
1
 40
1
 40
1
 40
1
 10
80.047530
 20
242.134744
 30
0.0
 10
79.764613
 20
242.378093
 30
0.0
 10
79.637560
 20
242.398989
 30
0.0
 10
78.440955
 20
242.398989
 30
0.0
  0
LINE
  5
3b3
100
AcDbEntity
  8
Calque_1
 62
7
100
AcDbLine
 10
78.440955
 20
242.398989
 30
0.0
 11
77.141592
 21
242.398989
 31
0.0
  0
LINE
  5
3b4
100
AcDbEntity
  8
Calque_1
 62
7
100
AcDbLine
 10
77.141592
 20
242.398989
 30
0.0
 11
77.141592
 21
241.320398
 31
0.0
  0
LINE
  5
3b5
100
AcDbEntity
  8
Calque_1
 62
7
100
AcDbLine
 10
77.141592
 20
241.320398
 30
0.0
 11
77.141592
 21
240.241803
 31
0.0
  0
LINE
  5
3b6
100
AcDbEntity
  8
Calque_1
 62
7
100
AcDbLine
 10
77.141592
 20
240.241803
 30
0.0
 11
78.440955
 21
240.241803
 31
0.0
  0
SPLINE
  5
3b7
100
AcDbEntity
  8
Calque_1
 62
7
100
AcDbSpline
 70
8
 71
3
 72
8
 73
4
 74
0
 40
0
 40
0
 40
0
 40
0
 40
1
 40
1
 40
1
 40
1
 10
78.440955
 20
240.241803
 30
0.0
 10
79.650917
 20
240.241803
 30
0.0
 10
79.762237
 20
240.260656
 30
0.0
 10
80.058881
 20
240.515875
 30
0.0
  0
LINE
  5
3b8
100
AcDbEntity
  8
Calque_1
 62
7
100
AcDbLine
 10
80.058881
 20
240.515875
 30
0.0
 11
80.058881
 21
240.515875
 31
0.0
  0
SPLINE
  5
3b9
100
AcDbEntity
  8
Calque_1
 62
7
100
AcDbSpline
 70
8
 71
3
 72
8
 73
4
 74
0
 40
0
 40
0
 40
0
 40
0
 40
1
 40
1
 40
1
 40
1
 10
55.171873
 20
247.720992
 30
0.0
 10
53.913865
 20
247.720992
 30
0.0
 10
52.901102
 20
246.708251
 30
0.0
 10
52.901102
 20
245.450271
 30
0.0
  0
LINE
  5
3ba
100
AcDbEntity
  8
Calque_1
 62
7
100
AcDbLine
 10
52.901102
 20
245.450271
 30
0.0
 11
52.901102
 21
216.942073
 31
0.0
  0
SPLINE
  5
3bb
100
AcDbEntity
  8
Calque_1
 62
7
100
AcDbSpline
 70
8
 71
3
 72
8
 73
4
 74
0
 40
0
 40
0
 40
0
 40
0
 40
1
 40
1
 40
1
 40
1
 10
52.901102
 20
216.942073
 30
0.0
 10
52.901102
 20
215.684096
 30
0.0
 10
53.913865
 20
214.671353
 30
0.0
 10
55.171873
 20
214.671353
 30
0.0
  0
LINE
  5
3bc
100
AcDbEntity
  8
Calque_1
 62
7
100
AcDbLine
 10
55.171873
 20
214.671353
 30
0.0
 11
83.826178
 21
214.671353
 31
0.0
  0
SPLINE
  5
3bd
100
AcDbEntity
  8
Calque_1
 62
7
100
AcDbSpline
 70
8
 71
3
 72
8
 73
4
 74
0
 40
0
 40
0
 40
0
 40
0
 40
1
 40
1
 40
1
 40
1
 10
83.826178
 20
214.671353
 30
0.0
 10
85.084186
 20
214.671353
 30
0.0
 10
86.096949
 20
215.684096
 30
0.0
 10
86.096949
 20
216.942073
 30
0.0
  0
LINE
  5
3be
100
AcDbEntity
  8
Calque_1
 62
7
100
AcDbLine
 10
86.096949
 20
216.942073
 30
0.0
 11
86.096949
 21
245.450271
 31
0.0
  0
SPLINE
  5
3bf
100
AcDbEntity
  8
Calque_1
 62
7
100
AcDbSpline
 70
8
 71
3
 72
8
 73
4
 74
0
 40
0
 40
0
 40
0
 40
0
 40
1
 40
1
 40
1
 40
1
 10
86.096949
 20
245.450271
 30
0.0
 10
86.096949
 20
246.708251
 30
0.0
 10
85.084186
 20
247.720992
 30
0.0
 10
83.826178
 20
247.720992
 30
0.0
  0
LINE
  5
3c0
100
AcDbEntity
  8
Calque_1
 62
7
100
AcDbLine
 10
83.826178
 20
247.720992
 30
0.0
 11
55.171873
 21
247.720992
 31
0.0
  0
LINE
  5
3c1
100
AcDbEntity
  8
Calque_1
 62
7
100
AcDbLine
 10
55.171873
 20
247.720992
 30
0.0
 11
55.171873
 21
247.720992
 31
0.0
  0
LINE
  5
3c2
100
AcDbEntity
  8
Calque_1
 62
7
100
AcDbLine
 10
56.140500
 20
246.599824
 30
0.0
 11
82.854004
 21
246.599824
 31
0.0
  0
SPLINE
  5
3c3
100
AcDbEntity
  8
Calque_1
 62
7
100
AcDbSpline
 70
8
 71
3
 72
8
 73
4
 74
0
 40
0
 40
0
 40
0
 40
0
 40
1
 40
1
 40
1
 40
1
 10
82.854004
 20
246.599824
 30
0.0
 10
84.026843
 20
246.599824
 30
0.0
 10
84.972209
 20
245.658032
 30
0.0
 10
84.972209
 20
244.485215
 30
0.0
  0
LINE
  5
3c4
100
AcDbEntity
  8
Calque_1
 62
7
100
AcDbLine
 10
84.972209
 20
244.485215
 30
0.0
 11
84.972209
 21
217.907132
 31
0.0
  0
SPLINE
  5
3c5
100
AcDbEntity
  8
Calque_1
 62
7
100
AcDbSpline
 70
8
 71
3
 72
8
 73
4
 74
0
 40
0
 40
0
 40
0
 40
0
 40
1
 40
1
 40
1
 40
1
 10
84.972209
 20
217.907132
 30
0.0
 10
84.972209
 20
216.734315
 30
0.0
 10
84.026843
 20
215.788972
 30
0.0
 10
82.854004
 20
215.788972
 30
0.0
  0
LINE
  5
3c6
100
AcDbEntity
  8
Calque_1
 62
7
100
AcDbLine
 10
82.854004
 20
215.788972
 30
0.0
 11
56.140500
 21
215.788972
 31
0.0
  0
SPLINE
  5
3c7
100
AcDbEntity
  8
Calque_1
 62
7
100
AcDbSpline
 70
8
 71
3
 72
8
 73
4
 74
0
 40
0
 40
0
 40
0
 40
0
 40
1
 40
1
 40
1
 40
1
 10
56.140500
 20
215.788972
 30
0.0
 10
54.967657
 20
215.788972
 30
0.0
 10
54.025842
 20
216.734315
 30
0.0
 10
54.025842
 20
217.907132
 30
0.0
  0
LINE
  5
3c8
100
AcDbEntity
  8
Calque_1
 62
7
100
AcDbLine
 10
54.025842
 20
217.907132
 30
0.0
 11
54.025842
 21
244.485215
 31
0.0
  0
SPLINE
  5
3c9
100
AcDbEntity
  8
Calque_1
 62
7
100
AcDbSpline
 70
8
 71
3
 72
8
 73
4
 74
0
 40
0
 40
0
 40
0
 40
0
 40
1
 40
1
 40
1
 40
1
 10
54.025842
 20
244.485215
 30
0.0
 10
54.025842
 20
245.658032
 30
0.0
 10
54.967657
 20
246.599824
 30
0.0
 10
56.140500
 20
246.599824
 30
0.0
  0
LINE
  5
3ca
100
AcDbEntity
  8
Calque_1
 62
7
100
AcDbLine
 10
56.140500
 20
246.599824
 30
0.0
 11
56.140500
 21
246.599824
 31
0.0
  0
LINE
  5
3cb
100
AcDbEntity
  8
Calque_1
 62
7
100
AcDbLine
 10
38.438808
 20
255.090548
 30
0.0
 11
62.244045
 21
255.090548
 31
0.0
  0
LINE
  5
3cc
100
AcDbEntity
  8
Calque_1
 62
7
100
AcDbLine
 10
62.244045
 20
255.090548
 30
0.0
 11
62.244045
 21
249.865008
 31
0.0
  0
LINE
  5
3cd
100
AcDbEntity
  8
Calque_1
 62
7
100
AcDbLine
 10
62.244045
 20
249.865008
 30
0.0
 11
38.438808
 21
249.865008
 31
0.0
  0
LINE
  5
3ce
100
AcDbEntity
  8
Calque_1
 62
7
100
AcDbLine
 10
38.438808
 20
249.865008
 30
0.0
 11
38.438808
 21
255.090548
 31
0.0
  0
ENDSEC
  0
SECTION
  2
OBJECTS
  0
DICTIONARY
  5
C
330
0
100
AcDbDictionary
  3
ACAD_GROUP
350
D
  3
ACAD_MLINESTYLE
350
17
  0
DICTIONARY
  5
D
330
C
100
AcDbDictionary
  0
DICTIONARY
  5
1A
330
C
100
AcDbDictionary
  0
DICTIONARY
  5
17
330
C
100
AcDbDictionary
  3
STANDARD
350
18
  0
DICTIONARY
  5
19
330
C
100
AcDbDictionary
  0
ENDSEC
  0
EOF
