<?xml version="1.0" encoding="UTF-8" standalone="no"?>
<!-- Created with Inkscape (http://www.inkscape.org/) -->

<svg
   xmlns:dc="http://purl.org/dc/elements/1.1/"
   xmlns:cc="http://creativecommons.org/ns#"
   xmlns:rdf="http://www.w3.org/1999/02/22-rdf-syntax-ns#"
   xmlns:svg="http://www.w3.org/2000/svg"
   xmlns="http://www.w3.org/2000/svg"
   xmlns:sodipodi="http://sodipodi.sourceforge.net/DTD/sodipodi-0.dtd"
   xmlns:inkscape="http://www.inkscape.org/namespaces/inkscape"
   width="210mm"
   height="297mm"
   viewBox="0 0 210 297"
   version="1.1"
   id="svg1613"
   inkscape:version="0.92.3 (2405546, 2018-03-11)"
   sodipodi:docname="skyline_seule.svg">
  <title
     id="title869">Skyline Lannion</title>
  <defs
     id="defs1607" />
  <sodipodi:namedview
     id="base"
     pagecolor="#ffffff"
     bordercolor="#666666"
     borderopacity="1.0"
     inkscape:pageopacity="0.0"
     inkscape:pageshadow="2"
     inkscape:zoom="0.14561635"
     inkscape:cx="-88.272874"
     inkscape:cy="1421.8183"
     inkscape:document-units="mm"
     inkscape:current-layer="layer1"
     showgrid="false"
     inkscape:window-width="2560"
     inkscape:window-height="1403"
     inkscape:window-x="0"
     inkscape:window-y="0"
     inkscape:window-maximized="1" />
  <metadata
     id="metadata1610">
    <rdf:RDF>
      <cc:Work
         rdf:about="">
        <dc:format>image/svg+xml</dc:format>
        <dc:type
           rdf:resource="http://purl.org/dc/dcmitype/StillImage" />
        <dc:title>Skyline Lannion</dc:title>
        <cc:license
           rdf:resource="http://creativecommons.org/licenses/by-nc-sa/4.0/" />
        <dc:creator>
          <cc:Agent>
            <dc:title>jeanfrancois.jestin@gmail.com</dc:title>
          </cc:Agent>
        </dc:creator>
        <dc:publisher>
          <cc:Agent>
            <dc:title></dc:title>
          </cc:Agent>
        </dc:publisher>
      </cc:Work>
      <cc:License
         rdf:about="http://creativecommons.org/licenses/by-nc-sa/4.0/">
        <cc:permits
           rdf:resource="http://creativecommons.org/ns#Reproduction" />
        <cc:permits
           rdf:resource="http://creativecommons.org/ns#Distribution" />
        <cc:requires
           rdf:resource="http://creativecommons.org/ns#Notice" />
        <cc:requires
           rdf:resource="http://creativecommons.org/ns#Attribution" />
        <cc:prohibits
           rdf:resource="http://creativecommons.org/ns#CommercialUse" />
        <cc:permits
           rdf:resource="http://creativecommons.org/ns#DerivativeWorks" />
        <cc:requires
           rdf:resource="http://creativecommons.org/ns#ShareAlike" />
      </cc:License>
    </rdf:RDF>
  </metadata>
  <g
     inkscape:label="Calque 1"
     inkscape:groupmode="layer"
     id="layer1">
    <path
       inkscape:connector-curvature="0"
       style="clip-rule:evenodd;display:inline;fill:none;fill-rule:evenodd;stroke:#040707;stroke-width:0.26458332;stroke-miterlimit:11.79289436;stroke-dasharray:none;image-rendering:optimizeQuality;shape-rendering:geometricPrecision;text-rendering:geometricPrecision"
       d="m 785.56688,-288.53793 v 34.45476 h -36.4799 v 8.10646 h 18.2397 v 32.42799 h -34.4531 l -22.294,52.69498 h 52.6939 v 24.32101 h -64.8539 l -2.0266,2.02673 v 2.02674 c 8.1066,24.32079 28.3737,38.507798 62.8271,44.587988 v 121.60394 h -26.3465 l -2.0269,-2.02674 c -2.0266,-2.02673 -2.0266,-2.02676 0,-4.05352 l 2.0269,-8.10697 c 0,0 0,-2.02679 -2.0269,-2.02679 l -4.0534,-4.05349 -2.0269,-2.02671 4.0534,-10.1337497 v -2.02675996 c -2.0265,0 -2.0268,-2.02674004 -4.0534,-2.02674004 h -4.0528 -2.0269 c -2.0266,-2.02679 -2.0268,-2.02697 -2.0268,-4.05352 v -2.02623 -2.0267403 c -2.0266,0 -2.0269,-2.02673 -4.0535,0 l -8.1065,2.0267403 c -2.0266,0 -4.0535,-2.0267403 -4.0535,-4.0535003 0,-2.02671 -2.0268,-2.02676 -2.0268,-2.02676 -2.0266,-2.02674 -2.0266,-2.02674 -4.0534,0 l -6.0798,4.05352 h -2.0268 l -8.1069,-4.05352 h -2.0262 -2.0269 l -2.0266,8.1064903 c -2.0268,0 -4.0537,2.02655 -6.0802,0 h -2.0269 -2.0263 c -2.0265,-3e-5 -2.0265,2.02673 -2.0265,4.05352 v 4.0535 c 2.0265,0 0,2.02671 0,2.02671 0,2.02673 -2.0269,2.02676 -2.0269,2.02676 h -4.0534 -2.0269 v 4.05352 l 2.0269,6.0802297 -2.0269,2.02673 -2.0265,2.02679 h -12.16 V -8.8485517 l -22.2934,-14.1872303 v -93.229978 l 30.4002,10.13375 2.0269,-6.08027 -32.4271,-12.16049 v -8.10649 h -46.6137 v -30.40123 h 26.3468 v -22.29424 h -32.4271 v 52.69547 h -46.6131 v 8.10649 l -34.4537,12.16049 2.0269,6.08027 32.4268,-10.13375 v 93.229978 l -22.2937,14.1872303 V 33.712668 h -40.5334 l -12.16,-22.29422 -17.5581,23.41144 V 580.92987 h 53.7652 v -49.75458 h 2.7198 v 49.75458 h 144.3902 v -49.75458 h 2.7195 v 49.75458 h 144.3908 v -49.75458 h 2.7193 v 49.75458 h 144.3903 v -49.75458 h 2.7199 v 49.75458 h 144.39022 v -49.75458 h 2.7198 v 49.75458 h 144.3905 v -49.75458 h 2.7193 v 49.75458 h 144.3903 v -49.75458 h 2.7202 v 49.75458 h 97.8315 V 238.4123 h -58.7735 c 0,0 -2.0272,0 -2.0272,-2.02674 l -10.1327,-22.29374 v -2.02673 l -24.32,-14.18725 c -2.027,-2.02674 -2.0273,-2.02676 -4.0537,-2.02676 l -22.2938,10.13375 c -2.0264,0 -2.0262,2.02674 -2.0262,2.02674 l -2.0269,26.34723 c 0,2.02674 -2.0265,6.08026 -4.0535,6.08026 h -60.8002 c 2.0268,-2.02676 2.0268,-2.02676 2.0268,-4.0535 2.0267,-6.08023 -4.0532,-14.18674 -8.1063,-14.18674 0,-4.05345 0,-4.0535 2.0259,-6.08024 2.0267,-2.02673 2.0269,-4.05354 2.0269,-6.08028 h 2.0267 c 0,2.02674 4.0535,2.02679 4.0535,4.05352 4.0534,2.02674 4.0531,2.02674 8.1065,0 2.0267,-2.02673 4.0535,-4.05355 2.0267,-8.10699 0,0 -2.0269,-4.05349 -4.0534,-4.05349 -2.0267,0 0,-2.02679 -2.0264,-2.02679 -2.0265,-2.02671 -2.0265,0 -2.0265,-2.02671 4.0532,-2.02674 8.1066,-4.05352 14.1865,-6.08026 2.0269,0 4.0531,0 6.0798,-2.02679 4.0534,0 6.0802,0 8.1071,-2.0267 l 22.293,-8.107 c 2.0267,-2.02673 4.0534,-2.02678 4.0534,-6.08025 -6.0798,-2.02671 -28.3733,10.13375 -32.4268,12.16048 -4.0534,2.02671 -10.1332,4.05353 -16.2134,6.08026 -2.0267,2.02674 -6.0798,2.02679 -8.1065,4.0535 -4.0535,0 -2.027,-3e-5 -8.1071,-2.02674 -2.0265,-4.05349 0,-2.02676 -4.0529,-4.05355 -2.0265,-2.0267 -4.0537,-2.02676 -6.0801,-4.05347 0,-4.05346 4.0534,-2.02681 2.0267,-10.13372 0,-6.08021 -2.0265,-8.10652 -8.1066,-8.10652 -4.0534,0 -6.0801,4.05305 -8.1068,6.07976 v 4.05349 c -2.0267,0 -2.0267,3e-5 -2.0267,2.02676 2.0264,4.05347 4.0534,2.02677 2.0267,6.08023 h -2.0267 c 0,0 -2.027,6e-5 -2.027,2.02677 -2.0265,0 -4.0529,0 -6.0796,2.0267 v 4.05355 c -2.0267,0 -2.027,3e-5 -6.0804,2.02674 -2.0264,4.05347 -4.0534,6.08028 -4.0534,8.10699 -2.0266,2.02676 -4.0531,2.02681 -6.0797,8.10702 0,2.02673 -2.0269,0 -4.0534,2.02673 -4.0535,4.0535 -4.0532,2.02682 -6.0798,6.08026 0,2.02674 -2.0268,2.02674 -4.0537,2.02674 -4.0531,2.02673 -10.1334,6.07975 -16.2134,8.10646 -6.08,2.02676 -10.1337,5e-5 -20.2668,2.02676 -6.0803,0 -14.1866,2.02676 -18.2397,6.08026 v 2.02676 h -18.2403 c 0,0 0,-2.02676 -2.0268,-2.02676 l -4.0535,-20.26698 c 0,-2.02674 0,-2.02674 -2.0268,-2.02674 h -2.0263 l -16.2134,4.0535 c -2.0266,0 -2.0269,0 -4.0534,2.02674 l -6.0803,22.29371 h -14.1868 v -85.12241 h -26.3466 v -26.34777 h -22.2934 v 24.32098 H 998.36828 V 88.434368 c 0,0 0,-2.02673 2.02662,-2.02673 h 2.0263 l 4.0534,2.02673 c 2.0268,0 4.0537,-2e-5 4.0537,-2.02673 2.0266,0 2.0266,-2.02674 2.0266,-2.02674 l -2.0266,-4.05352 v -4.0535 h 4.0534 8.1066 c 0,0 2.0266,0 2.0266,-2.02673 v -2.02674 -6.08028 -2.02671 c 2.0268,0 2.0268,-2.02676 2.0268,-2.02676 h 6.0797 c 2.0266,0 2.0269,0 2.0269,-2.02676 2.0266,-2.02676 2.0266,-2.02676 0,-4.05352 l -6.08,-8.10647 c -2.0266,-2.02673 -2.0266,-4.05349 0,-4.05349 l 6.08,-6.08026 c 2.0266,-2.02673 2.0266,-2.02676 2.0266,-4.05349 0,0 0,-2.02674 -2.0266,-2.02674 l -12.16,-6.08028 -2.0269,-2.02674 2.0269,-4.05347 c 0,-2.02673 0,-2.02681 -2.0269,-4.05352 h -4.0534 l -16.2131,8.10699 c 0,0 -2.02692,0 -4.05342,-2.02673 l -4.0535,-6.08026 c 0,-2.02673 0,-2.02676 -2.0268,-2.02676 -2.0266,0 -2.0269,3e-5 -2.0269,2.02676 l -8.1062,14.18728 c 0,0 -2.0269,2.02673 -4.0538,2.02673 l -8.1062,-2.02673 h -4.0537 v 4.05347 l 6.0802,12.16048 c 2.0269,2.02674 2.0269,4.05302 0,6.07976 l -6.0802,2.02676 c -2.0266,2.02668 -2.0266,2.02673 -2.0266,4.05347 0,2.02673 0,2.02676 2.0266,2.02676 l 6.0802,4.05352 c 0,0 2.0263,0 2.0263,2.02671 0,0 0,2.02676 -2.0263,2.02676 l -2.0265,6.08026 c -2.0269,0 -2.0269,2.02673 0,4.0535 h 2.0265 4.0532 2.0265 l 8.1072,4.05352 c 2.0265,0 2.0268,2.02676 2.0268,4.05347 v 72.962482 h -89.1739 V 74.247148 c 0,0 0,-2.02674 2.0263,-2.02674 0,-2.02673 2.0266,-2.02673 2.0266,0 l 6.0803,2.02674 h 2.0268 c 2.0266,0 2.0266,-2.02674 2.0266,-2.02674 l 2.0263,-6.08028 c 0,-2.02671 2.0268,-2.02671 4.0534,-2.02671 h 4.0537 4.0534 v -4.05352 l -4.0534,-10.13325 v -4.0535 l 4.0534,-6.08023 c 2.0266,0 2.0263,0 2.0263,-2.02676 -2.0269,0 -2.0263,-2.02676 -2.0263,-2.02676 l -10.1337,-6.0802 c -2.0268,0 -2.0268,-2.02679 -2.0268,-4.05355 l 2.0268,-4.05347 v -2.02674 c 0,-2.02673 -2.0263,-2.02679 -4.0531,-2.02679 l -12.1603,2.02679 c -2.0268,0 -2.0263,-2.02679 -2.0263,-2.02679 l -2.0268,-6.0802 h -4.0535 c 0,-2.0267597 -2.0268,0 -2.0268,0 l -6.0797,6.0802 h -4.0535 l -6.0802,-4.05349 h -4.0529 c 0,0 -2.0268,3e-5 -2.0268,2.02676 l -2.0269,8.10699 c 0,2.02671 -2.0266,2.02674 -2.0266,2.02674 h -6.0802 c -2.0269,0 -4.0531,2e-5 -4.0531,2.02676 v 2.02679 l 4.0531,6.0802 c 0,2.02673 0,4.05352 -2.0269,4.05352 l -6.0796,6.08023 v 2.02676 c 0,0 0,2.02674 2.0269,2.02674 v 2.02626 c 2.0265,0 2.0265,2.02676 2.0265,2.02676 0,2.02668 -2.0268,4.05347 -4.0534,4.05347 h -26.3468 v -145.92441 c 34.4536,-6.08019 54.7198,-20.267198 62.8267,-44.587988 v -2.02674 c 0,0 -2.0263,-2.02673 -4.0532,-2.02673 h -62.827 v -24.32101 h 52.6933 l -22.293,-52.69498 h -34.4537 v -32.42799 h 18.2403 v -8.10646 h -36.4805 v -34.45476 h -6.0797 z m 443.84262,504.65651 c 0,1.75843 -1.5238,1.99263 -1.9278,3.34706 -0.058,0.26173 -0.082,0.45781 -0.091,0.57566 0.01,-0.21185 0.04,-0.40463 0.091,-0.57566 0.1694,-0.76665 0.6345,-2.05385 1.9278,-3.34706 z m -2.0267,4.0535 c 0,4.05347 0,8e-5 -8.1067,8.10699 -6.08,4.0535 -6.0803,4.05302 -4.0534,12.15999 h -36.4806 c 2.0266,-2.02676 2.0269,-6.08026 4.0535,-6.08026 4.0534,-2.02671 12.1602,-6.07973 16.2136,-8.10646 2.0266,0 10.1332,-4.0535 12.1601,-2.02679 0,2.02674 2.0265,4.05352 4.0534,2.02679 4.0534,-2.02674 4.0531,-5e-5 8.1067,-4.05352 2.0264,0 2.0264,0 4.0534,-2.02674 z"
       id="path900" />
    <path
       style="clip-rule:evenodd;display:inline;fill:none;fill-rule:evenodd;stroke:#040707;stroke-width:0.26458332;stroke-miterlimit:11.79289436;stroke-dasharray:none;image-rendering:optimizeQuality;shape-rendering:geometricPrecision;text-rendering:geometricPrecision"
       d="M 84.336181,-14.928812 27.589381,84.380898 3.2688814,112.75487 V 60.059898 l -10.1332,-10.13325 V 3.3114083 H -21.051119 V 35.739398 h -6.0797 l -18.2403,-20.26748 -2.0266,-16.21397966 -4.0537,16.21397966 h -34.4531 l -4.0534,-16.21397966 -2.0269,16.21397966 -14.186501,40.53446 h -18.2403 v 22.29427 l -16.2137,10.13372 v 58.775262 l -64.8533,-66.882252 -28.3735,40.534482 v -18.24024 h -12.1605 v 32.42749 l -10.1331,10.13376 v 93.2294 h -38.5069 v -40.53443 l -30.3999,-14.18725 -42.5603,24.32098 h -34.4536 v 22.29374 h -101.33395 v -46.61472 l -10.13341,-16.21348 -10.1337,18.24021 v 44.58799 h -28.37341 v -58.77523 h -18.23969 l 2.02628,58.77523 h -34.45311 v -48.64148 l -8.10713,-12.15996 -8.10657,16.21345 v 44.58799 h -56.6702 v 350.62456 h 123.05993 v -49.75458 h 2.71984 v 49.75458 h 144.39072 v -49.75458 h 2.719 v 49.75458 h 144.3908 v -49.75458 h 2.7198 v 49.75458 h 144.3902 v -49.75458 h 2.7196 v 49.75458 H 35.909281 v -49.75458 h 2.7193 v 49.75458 H 183.01908 v -49.75458 h 2.7192 v 49.75458 h 144.3908 v -49.75458 h 2.7196 v 49.75458 h 90.625 V 34.829888 l -0.6821,0.90951 -20.2668,-32.4279897 -16.2137,36.4815097 -18.2398,-12.16051 -16.2134,12.16051 -16.2134,-16.21401 -18.2403,16.21401 -14.1868,-14.18727 -18.2402,18.24077 h -28.3734 v 58.775202 h -22.2932 c -2.0265,0 -4.0534,-2.02676 -4.0534,-4.053492 v -4.05347 c 0,0 2.0266,-2.02679 0,-4.05353 0,0 0,-2.02676 -2.0268,-2.02676 -2.0266,-2.02671 -4.0535,-4.05347 -2.0269,-6.0802 v -4.05352 c 2.0269,0 0,-2.02677 0,-4.0535 0,0 -2.0263,-2.02674 -4.0529,-2.02674 h -6.0802 c 0,2.02674 -2.0269,0 -2.0269,0 -2.0266,-2.02673 -2.0266,-2.02678 -2.0266,-4.05352 0,-2.02673 0,-2.02676 -2.0268,-4.05347 h -2.0263 l -8.1069,2.02671 h -6.0797 l -4.0537,-6.08023 -2.0265,-2.02676 c -2.0266,0 -2.0269,2.02676 -4.0535,2.02676 l -6.08,6.08023 c 0,2.02674 -2.0265,2.02676 -2.0265,2.02676 l -10.1337,-2.02676 c -2.0269,0 -4.0532,2.02676 -4.0532,4.0535 l -2.0265,8.10702 c 0,2.0267 -2.0269,4.05352 -4.0537,4.05352 l -6.0798,2.02673 c 0,0 -2.0265,3e-5 -2.0265,2.02674 0,0 -2.0269,2.02676 0,4.05349 v 4.05353 4.05347 l -4.0537,4.053492 v 4.05352 10.13325 h -30.4 V 84.380898 l 22.2931,-12.16049 z"
       id="path906"
       inkscape:connector-curvature="0" />
    <path
       inkscape:connector-curvature="0"
       style="clip-rule:evenodd;display:inline;fill:none;fill-rule:evenodd;stroke:#040707;stroke-width:0.26458332;stroke-miterlimit:11.79289436;stroke-dasharray:none;image-rendering:optimizeQuality;shape-rendering:geometricPrecision;text-rendering:geometricPrecision"
       d="m -779.02866,-49.383562 -26.34654,127.68421 h -10.1337 v 10.13372 l 4.05341,2.02676 V 118.8351 l -12.15998,4.0535 v 22.29427 l 16.2134,6.08023 v 32.42749 l -14.18656,6.0802 v 56.74853 l -22.29395,14.18722 v 105.38994 h -10.13315 l -2.02657,-30.40073 h -42.56024 v 20.26698 h -85.12048 v -10.13322 h -24.32058 v 38.50772 l -8.1062,34.45423 h -36.4806 v -16.21349 h -26.3468 v 16.21349 h -115.5205 l -28.3734,20.2675 V 412.7112 h -16.2137 v 95.25672 h -99.307 v -16.21399 h -20.2669 v 70.93572 h -64.8536 v 18.24022 h 282.5411 v -49.75458 h 2.7195 v 49.75458 h 144.3908 v -49.75458 h 2.71928 v 49.75458 h 144.39048 v -49.75458 h 2.71925 v 49.75458 h 144.39078 v -49.75458 h 2.71981 v 49.75458 h 21.3297 V 230.30528 h -46.68999 V 199.90455 L -748.6284,183.69059 V 151.2631 l 16.21369,-6.08023 V 122.8886 l -14.18685,-4.0535 V 90.461128 l 6.07973,-2.02676 v -10.13372 h -12.15999 z"
       id="path912" />
  </g>
</svg>
