<?xml version="1.0" encoding="UTF-8" standalone="no"?>
<!-- Created with Inkscape (http://www.inkscape.org/) -->

<svg
   xmlns:dc="http://purl.org/dc/elements/1.1/"
   xmlns:cc="http://creativecommons.org/ns#"
   xmlns:rdf="http://www.w3.org/1999/02/22-rdf-syntax-ns#"
   xmlns:svg="http://www.w3.org/2000/svg"
   xmlns="http://www.w3.org/2000/svg"
   xmlns:sodipodi="http://sodipodi.sourceforge.net/DTD/sodipodi-0.dtd"
   xmlns:inkscape="http://www.inkscape.org/namespaces/inkscape"
   width="240mm"
   height="297mm"
   viewBox="0 0 850.3937 1052.3622"
   id="svg2"
   version="1.1"
   inkscape:version="0.91 r13725"
   sodipodi:docname="circ_imp_centrage.svg"
   inkscape:export-filename="D:\Fablab\trender\trender médium aimant.png"
   inkscape:export-xdpi="90"
   inkscape:export-ydpi="90">
  <defs
     id="defs4" />
  <sodipodi:namedview
     id="base"
     pagecolor="#ffffff"
     bordercolor="#66ab16"
     borderopacity="0.43921569"
     inkscape:pageopacity="0"
     inkscape:pageshadow="2"
     inkscape:zoom="2"
     inkscape:cx="167.22565"
     inkscape:cy="141.82658"
     inkscape:document-units="mm"
     inkscape:current-layer="layer1"
     showgrid="true"
     inkscape:window-width="1920"
     inkscape:window-height="1017"
     inkscape:window-x="-8"
     inkscape:window-y="-8"
     inkscape:window-maximized="1"
     showguides="false">
    <inkscape:grid
       type="xygrid"
       id="grid3336"
       empcolor="#583fff"
       empopacity="0.54117647"
       empspacing="10"
       units="mm"
       spacingx="3.5433071"
       spacingy="3.5433072"
       color="#d13fff"
       opacity="0.48235294"
       enabled="false" />
  </sodipodi:namedview>
  <metadata
     id="metadata7">
    <rdf:RDF>
      <cc:Work
         rdf:about="">
        <dc:format>image/svg+xml</dc:format>
        <dc:type
           rdf:resource="http://purl.org/dc/dcmitype/StillImage" />
        <dc:title></dc:title>
      </cc:Work>
    </rdf:RDF>
  </metadata>
  <g
     inkscape:label="Calque 1"
     inkscape:groupmode="layer"
     id="layer1">
    <g
       id="g4894"
       transform="matrix(-1,0,0,1,297.6378,0)">
      <path
         inkscape:connector-curvature="0"
         id="path4143"
         d="M 295.5157,903.54323 A 146.6968,146.69678 0 0 1 148.81891,1050.2401 146.6968,146.69678 0 0 1 2.1220986,903.54323 146.6968,146.69678 0 0 1 148.81891,756.84655 146.6968,146.69678 0 0 1 295.5157,903.54323 Z"
         style="opacity:1;fill:none;fill-opacity:0.29411765;stroke:#ff0000;stroke-width:0.70089006;stroke-linecap:butt;stroke-miterlimit:4;stroke-dasharray:none;stroke-opacity:1" />
      <path
         inkscape:connector-curvature="0"
         id="path4780"
         d="m 160.91065,809.79758 a 12.091763,12.091763 0 0 1 -12.09176,12.09177 12.091763,12.091763 0 0 1 -12.09176,-12.09177 12.091763,12.091763 0 0 1 12.09176,-12.09176 12.091763,12.091763 0 0 1 12.09176,12.09176 z"
         style="opacity:1;fill:none;fill-opacity:0.29411765;stroke:#ff0000;stroke-width:0.61962324;stroke-linecap:butt;stroke-miterlimit:4;stroke-dasharray:none;stroke-opacity:1" />
      <path
         inkscape:connector-curvature="0"
         id="path4780-1"
         d="m 58.464354,887.78097 c -0.537245,-1.36835 -0.832257,-2.85839 -0.832252,-4.41733 2e-5,-6.67807 5.413689,-12.0917 12.09176,-12.0917 6.678071,0 12.09174,5.41363 12.09176,12.0917 5e-6,1.57525 -0.301212,3.08015 -0.849192,4.46023"
         style="opacity:1;fill:none;fill-opacity:0.29411765;stroke:#ff0000;stroke-width:0.61962324;stroke-linecap:butt;stroke-miterlimit:4;stroke-dasharray:none;stroke-opacity:1"
         sodipodi:nodetypes="csssc" />
      <path
         inkscape:connector-curvature="0"
         id="path4780-5"
         d="m 110.95002,977.40889 a 12.091763,12.091763 0 0 1 -12.091755,12.0918 12.091763,12.091763 0 0 1 -12.09176,-12.0918 12.091763,12.091763 0 0 1 12.09176,-12.0917 12.091763,12.091763 0 0 1 12.091755,12.0917 z"
         style="opacity:1;fill:none;fill-opacity:0.29411765;stroke:#ff0000;stroke-width:0.61962324;stroke-linecap:butt;stroke-miterlimit:4;stroke-dasharray:none;stroke-opacity:1" />
      <path
         inkscape:connector-curvature="0"
         id="path4780-0"
         d="m 210.65208,977.40889 a 12.091763,12.091763 0 0 1 -12.09176,12.0918 12.091763,12.091763 0 0 1 -12.09176,-12.0918 12.091763,12.091763 0 0 1 12.09176,-12.0918 12.091763,12.091763 0 0 1 12.09176,12.0918 z"
         style="opacity:1;fill:none;fill-opacity:0.29411765;stroke:#ff0000;stroke-width:0.61962324;stroke-linecap:butt;stroke-miterlimit:4;stroke-dasharray:none;stroke-opacity:1" />
      <path
         inkscape:connector-curvature="0"
         id="path4780-7"
         d="m 233.20427,919.47857 c 2.55736,2.2171 4.17486,5.48963 4.17485,9.13994 -2e-5,6.67811 -5.41365,12.0918 -12.09176,12.0918 -6.67811,0 -12.09174,-5.41369 -12.09176,-12.0918 -1e-5,-3.84359 1.79331,-7.26833 4.58888,-9.48314"
         style="opacity:1;fill:none;fill-opacity:0.29411765;stroke:#ff0000;stroke-width:0.61962324;stroke-linecap:butt;stroke-miterlimit:4;stroke-dasharray:none;stroke-opacity:1"
         sodipodi:nodetypes="csssc" />
      <path
         inkscape:connector-curvature="0"
         id="path4780-9"
         d="m 99.493287,1009.9358 a 12.091763,12.091763 0 0 1 -12.09176,12.0918 12.091763,12.091763 0 0 1 -12.09175,-12.0918 12.091763,12.091763 0 0 1 12.09175,-12.09171 12.091763,12.091763 0 0 1 12.09176,12.09171 z"
         style="opacity:1;fill:none;fill-opacity:0.29411765;stroke:#ff0000;stroke-width:0.61962324;stroke-linecap:butt;stroke-miterlimit:4;stroke-dasharray:none;stroke-opacity:1" />
      <path
         sodipodi:nodetypes="sssssssss"
         inkscape:connector-curvature="0"
         id="path4780-54"
         d="m 100.9075,800.63221 c -1e-5,2.29724 -0.64064,4.44485 -1.752981,6.27393 -1.579974,2.59804 -4.111656,4.55344 -7.111024,5.38218 -1.027517,0.28391 -2.109922,0.43559 -3.227754,0.43559 -0.988832,0 -1.949942,-0.1187 -2.869859,-0.34261 -5.292734,-1.28832 -9.221871,-6.05985 -9.221901,-11.74909 -3.5e-5,-6.67811 5.41365,-12.0918 12.09176,-12.0918 5.546967,0 10.221571,3.73506 11.645989,8.82736 0.29046,1.03843 0.44578,2.1333 0.44577,3.26444 z"
         style="opacity:1;fill:none;fill-opacity:0.29411765;stroke:#ff0000;stroke-width:0.61962324;stroke-linecap:butt;stroke-miterlimit:4;stroke-dasharray:none;stroke-opacity:1" />
      <path
         inkscape:connector-curvature="0"
         id="path4780-09"
         d="m 276.19905,892.13157 c 6.67809,0 12.09176,5.41367 12.09176,12.09176 0,6.6781 -5.41366,12.09177 -12.09176,12.09177"
         style="opacity:1;fill:none;fill-opacity:0.29411765;stroke:#ff0000;stroke-width:0.61962324;stroke-linecap:butt;stroke-miterlimit:4;stroke-dasharray:none;stroke-opacity:1"
         sodipodi:nodetypes="csc" />
      <path
         sodipodi:nodetypes="cccccccccccccccccc"
         inkscape:connector-curvature="0"
         id="rect4873"
         d="m 131,887.88306 35,0 m 41.5,0 68.59331,0 0,4.16664 m 0,24.3125 0,2.84134 -43.06739,0 m -15.29119,0 -10.73473,0 m -40.25,0 -35.25,0 m -40.5,0 -69.455512,0 0,-31.32048 37.09122,0 m 22.45064,0 9.913652,0"
         style="opacity:1;fill:none;fill-opacity:0.29411765;stroke:#ff0000;stroke-width:0.56929147;stroke-linecap:butt;stroke-miterlimit:4;stroke-dasharray:none;stroke-opacity:1" />
      <path
         sodipodi:nodetypes="cccccccccccc"
         inkscape:connector-curvature="0"
         id="rect4876"
         d="m 131,935.7874 -40.291339,0 0,-16.6752 m 0,-31.75 0,-16.31662 40.791339,0 m 35,0 40.68277,0 0,16.56662 m 0,31.25 0,16.9252 -40.68277,0"
         style="opacity:1;fill:none;fill-opacity:0.29411765;stroke:#ff0000;stroke-width:0.70866144;stroke-linecap:butt;stroke-miterlimit:4;stroke-dasharray:none;stroke-opacity:1" />
      <path
         sodipodi:nodetypes="cccccccc"
         inkscape:connector-curvature="0"
         id="rect4876-6"
         d="m 166.34061,870.88608 0,16.97612 m 0,31.5 0,16.5847 m -35.04341,0 0,-16.5847 m 0,-32.25 0,-16.22612"
         style="opacity:1;fill:none;fill-opacity:0.29411765;stroke:#ff0000;stroke-width:0.38966781;stroke-linecap:butt;stroke-miterlimit:4;stroke-dasharray:none;stroke-opacity:1" />
    </g>
  </g>
</svg>
