<?xml version="1.0" encoding="UTF-8" standalone="no"?>
<!-- Created with Inkscape (http://www.inkscape.org/) -->

<svg
   xmlns:dc="http://purl.org/dc/elements/1.1/"
   xmlns:cc="http://creativecommons.org/ns#"
   xmlns:rdf="http://www.w3.org/1999/02/22-rdf-syntax-ns#"
   xmlns:svg="http://www.w3.org/2000/svg"
   xmlns="http://www.w3.org/2000/svg"
   xmlns:sodipodi="http://sodipodi.sourceforge.net/DTD/sodipodi-0.dtd"
   xmlns:inkscape="http://www.inkscape.org/namespaces/inkscape"
   width="240mm"
   height="297mm"
   viewBox="0 0 850.3937 1052.3622"
   id="svg2"
   version="1.1"
   inkscape:version="0.91 r13725"
   sodipodi:docname="NOKIA 1.svg"
   inkscape:export-filename="D:\Fablab\trender\trender médium aimant.png"
   inkscape:export-xdpi="90"
   inkscape:export-ydpi="90">
  <defs
     id="defs4" />
  <sodipodi:namedview
     id="base"
     pagecolor="#ffffff"
     bordercolor="#66ab16"
     borderopacity="0.43921569"
     inkscape:pageopacity="0"
     inkscape:pageshadow="2"
     inkscape:zoom="1"
     inkscape:cx="571.82541"
     inkscape:cy="258.86241"
     inkscape:document-units="mm"
     inkscape:current-layer="layer1"
     showgrid="true"
     inkscape:window-width="1920"
     inkscape:window-height="1017"
     inkscape:window-x="-8"
     inkscape:window-y="-8"
     inkscape:window-maximized="1"
     showguides="false">
    <inkscape:grid
       type="xygrid"
       id="grid3336"
       empcolor="#583fff"
       empopacity="0.54117647"
       empspacing="10"
       units="mm"
       spacingx="3.5433071"
       spacingy="3.5433072"
       color="#d13fff"
       opacity="0.48235294"
       enabled="false" />
  </sodipodi:namedview>
  <metadata
     id="metadata7">
    <rdf:RDF>
      <cc:Work
         rdf:about="">
        <dc:format>image/svg+xml</dc:format>
        <dc:type
           rdf:resource="http://purl.org/dc/dcmitype/StillImage" />
        <dc:title></dc:title>
      </cc:Work>
    </rdf:RDF>
  </metadata>
  <g
     inkscape:label="Calque 1"
     inkscape:groupmode="layer"
     id="layer1">
    <g
       id="g6280"
       transform="translate(0.1137042,-135.58162)">
      <flowRoot
         style="font-style:normal;font-weight:normal;font-size:35.43307114px;line-height:125%;font-family:sans-serif;letter-spacing:0px;word-spacing:0px;fill:#000000;fill-opacity:1;stroke:none;stroke-width:1px;stroke-linecap:butt;stroke-linejoin:miter;stroke-opacity:1"
         id="flowRoot6272"
         xml:space="preserve"><flowRegion
           id="flowRegion6274"><rect
             y="674.36218"
             x="-59"
             height="403"
             width="431"
             id="rect6276" /></flowRegion><flowPara
           id="flowPara6278" /></flowRoot>    </g>
    <flowRoot
       xml:space="preserve"
       id="flowRoot6286"
       style="font-style:normal;font-weight:normal;font-size:35.43307114px;line-height:125%;font-family:sans-serif;letter-spacing:0px;word-spacing:0px;fill:#000000;fill-opacity:1;stroke:none;stroke-width:1px;stroke-linecap:butt;stroke-linejoin:miter;stroke-opacity:1"
       transform="translate(0.1137042,-135.58162)"><flowRegion
         id="flowRegion6288"><rect
           id="rect6290"
           width="464"
           height="402"
           x="-56"
           y="689.36218" /></flowRegion><flowPara
         id="flowPara6292" /></flowRoot>    <flowRoot
       xml:space="preserve"
       id="flowRoot6272-6"
       style="font-style:normal;font-weight:normal;font-size:35.43307114px;line-height:125%;font-family:sans-serif;letter-spacing:0px;word-spacing:0px;fill:#000000;fill-opacity:1;stroke:none;stroke-width:1px;stroke-linecap:butt;stroke-linejoin:miter;stroke-opacity:1"
       transform="translate(1076.6275,-523.47922)"><flowRegion
         id="flowRegion6274-2"><rect
           id="rect6276-1"
           width="431"
           height="403"
           x="-59"
           y="674.36218" /></flowRegion><flowPara
         id="flowPara6278-7" /></flowRoot>    <flowRoot
       xml:space="preserve"
       id="flowRoot6286-1"
       style="font-style:normal;font-weight:normal;font-size:35.43307114px;line-height:125%;font-family:sans-serif;letter-spacing:0px;word-spacing:0px;fill:#000000;fill-opacity:1;stroke:none;stroke-width:1px;stroke-linecap:butt;stroke-linejoin:miter;stroke-opacity:1"
       transform="translate(1076.6275,-523.47922)"><flowRegion
         id="flowRegion6288-0"><rect
           id="rect6290-2"
           width="464"
           height="402"
           x="-56"
           y="689.36218" /></flowRegion><flowPara
         id="flowPara6292-6" /></flowRoot>    <text
       sodipodi:linespacing="125%"
       id="text8172"
       y="62.780594"
       x="1606.1136"
       style="font-style:normal;font-weight:normal;font-size:35.43307114px;line-height:125%;font-family:sans-serif;letter-spacing:0px;word-spacing:0px;fill:#000000;fill-opacity:1;stroke:none;stroke-width:1px;stroke-linecap:butt;stroke-linejoin:miter;stroke-opacity:1"
       xml:space="preserve"><tspan
         y="62.780594"
         x="1606.1136"
         id="tspan8174"
         sodipodi:role="line" /><tspan
         id="tspan8176"
         y="107.07193"
         x="1606.1136"
         sodipodi:role="line" /></text>
    <path
       inkscape:connector-curvature="0"
       style="opacity:1;fill:none;fill-opacity:0.90789472;stroke:#00ff00;stroke-width:0.93600839;stroke-linecap:butt;stroke-miterlimit:4;stroke-dasharray:none;stroke-opacity:1"
       d="m 92.91688,774.07462 c -0.44718,-18.11095 -2.20277,-54.10954 -2.3446,-94.9238"
       id="path4236" />
    <path
       sodipodi:nodetypes="cscccsccccsc"
       inkscape:connector-curvature="0"
       style="opacity:1;fill:none;fill-opacity:0.90789472;stroke:#ff0000;stroke-width:0.93600839;stroke-linecap:butt;stroke-miterlimit:4;stroke-dasharray:none;stroke-opacity:1"
       d="m 90.57228,679.15082 c -0.30671,-88.26032 6.93309,-199.04035 51.26995,-200.14884 88.96598,-2.22428 53.85498,173.35623 49.18703,217.19684 14.92497,-34.40321 67.41508,-54.1808 92.2013,19.04618 22.05885,-70.4896 82.51925,-33.3703 86.70801,-2.99445 -0.91865,-43.16486 79.09259,-51.32325 78.82711,9.25608 -0.46911,107.04372 -8.90487,190.23623 -95.47186,231.48867 l 0.13852,98.8989 -222.89227,0 -0.0192,-99.11278 C 42.20353,915.90617 0.468004,876.00837 0.468004,769.5899 c 0,-60.09099 45.742106,-87.0597 89.620456,-95.92444"
       id="rect7839-0-8" />
    <path
       style="opacity:1;fill:none;fill-opacity:0.17105264;stroke:#00ff00;stroke-width:0.88449061;stroke-linecap:butt;stroke-miterlimit:4;stroke-dasharray:none;stroke-opacity:1"
       d="m 186.58824,514.39518 c 7.0865,15.15336 -9.29963,37.19558 -39.86362,35.97453 -36.55409,-1.46035 -35.62097,-15.1566 -35.62097,-33.85321 0,-18.69661 17.11962,-33.85321 35.62097,-33.85321 18.50135,0 31.9434,14.79573 39.86362,31.73189 z"
       id="path4240"
       inkscape:connector-curvature="0"
       sodipodi:nodetypes="sssss" />
    <path
       style="opacity:1;fill:none;fill-opacity:1;stroke:#ff0000;stroke-width:0.70866142;stroke-linecap:butt;stroke-miterlimit:4;stroke-dasharray:none;stroke-opacity:1"
       d="m -0.029536,427.25028 449.704746,0 0,627.96982 -449.704746,0 z"
       id="rect3374"
       inkscape:connector-curvature="0" />
    <path
       style="fill:none;fill-rule:evenodd;stroke:#000000;stroke-width:0.94702369px;stroke-linecap:butt;stroke-linejoin:miter;stroke-opacity:1"
       d="m 91.923884,1342.276 223.228346,0"
       id="path3376"
       inkscape:connector-curvature="0" />
    <path
       style="fill:#ff00ff"
       inkscape:connector-curvature="0"
       id="path4"
       d="m 67.895667,829.48823 -17.06103,0 0,-58.02172 29.50689,0 33.851873,43.31698 0,-43.31698 17.06103,0 0,58.02172 -28.90896,0 -34.449803,-44.05665 0,44.05665 M 212.88336,811.54579 c 0,8.06546 -1.42617,10.84696 -3.7869,13.5133 -3.61861,3.96851 -8.88485,5.16438 -19.03199,5.16438 l -29.13042,0 c -10.14714,0 -15.42224,-1.19587 -19.03641,-5.16438 -2.36073,-2.66634 -3.78691,-5.44784 -3.78691,-13.5133 l 0,-22.36716 c 0,-8.06103 1.42618,-10.8381 3.78691,-13.50887 3.6186,-3.97294 8.88927,-5.16881 19.03641,-5.16881 l 29.13042,0 c 10.14714,0 15.41338,1.19587 19.03199,5.16881 2.36073,2.67077 3.7869,5.44784 3.7869,13.50887 l 0,22.36716 m -23.53641,3.97737 c 3.89764,0 5.27066,-0.23032 6.20522,-1.08071 0.87254,-0.79282 1.25788,-1.81595 1.25788,-5.22639 l 0,-17.7077 c 0,-3.41044 -0.38534,-4.42471 -1.25788,-5.22196 -0.93456,-0.85482 -2.30758,-1.0807 -6.20522,-1.0807 l -27.6998,0 c -3.89765,0 -5.27068,0.22588 -6.20079,1.0807 -0.87697,0.79725 -1.2623,1.81152 -1.2623,5.22196 l 0,17.7077 c 0,3.41044 0.38533,4.43357 1.2623,5.22639 0.93011,0.85039 2.30314,1.08071 6.20079,1.08071 l 27.6998,0 0,0 m 48.33071,-44.05665 0,58.02172 -17.82726,0 0,-58.02172 17.82726,0 m 30.11811,0 23.53642,0 -31.76576,27.13733 35.82727,30.88439 -25.18406,0 -32.53198,-30.25988 30.11811,-27.76184 m 30.88435,0 17.83169,0 0,58.02172 -17.83169,0 m 85.80561,0 -5.2751,-10.10729 -34.49852,0 -5.21309,10.10286 -19.69636,0 31.60187,-58.01729 22.16339,0 31.59743,58.02172 -20.67962,0 m -33.57726,-22.7082 22.16782,0 -11.08613,-21.00741 -11.08169,21.00741" />
  </g>
</svg>
