<?xml version="1.0" encoding="UTF-8" standalone="no"?>
<!-- Created with Inkscape (http://www.inkscape.org/) -->

<svg
   xmlns:dc="http://purl.org/dc/elements/1.1/"
   xmlns:cc="http://creativecommons.org/ns#"
   xmlns:rdf="http://www.w3.org/1999/02/22-rdf-syntax-ns#"
   xmlns:svg="http://www.w3.org/2000/svg"
   xmlns="http://www.w3.org/2000/svg"
   xmlns:sodipodi="http://sodipodi.sourceforge.net/DTD/sodipodi-0.dtd"
   xmlns:inkscape="http://www.inkscape.org/namespaces/inkscape"
   width="240mm"
   height="297mm"
   viewBox="0 0 850.3937 1052.3622"
   id="svg2"
   version="1.1"
   inkscape:version="0.91 r13725"
   sodipodi:docname="NOKIA 2.svg"
   inkscape:export-filename="D:\Fablab\trender\trender médium aimant.png"
   inkscape:export-xdpi="90"
   inkscape:export-ydpi="90">
  <defs
     id="defs4" />
  <sodipodi:namedview
     id="base"
     pagecolor="#ffffff"
     bordercolor="#66ab16"
     borderopacity="0.43921569"
     inkscape:pageopacity="0"
     inkscape:pageshadow="2"
     inkscape:zoom="1.4142136"
     inkscape:cx="407.99621"
     inkscape:cy="359.0482"
     inkscape:document-units="mm"
     inkscape:current-layer="layer1"
     showgrid="true"
     inkscape:window-width="1920"
     inkscape:window-height="1017"
     inkscape:window-x="-8"
     inkscape:window-y="-8"
     inkscape:window-maximized="1"
     showguides="false">
    <inkscape:grid
       type="xygrid"
       id="grid3336"
       empcolor="#583fff"
       empopacity="0.54117647"
       empspacing="10"
       units="mm"
       spacingx="3.5433071"
       spacingy="3.5433072"
       color="#d13fff"
       opacity="0.48235294"
       enabled="false" />
  </sodipodi:namedview>
  <metadata
     id="metadata7">
    <rdf:RDF>
      <cc:Work
         rdf:about="">
        <dc:format>image/svg+xml</dc:format>
        <dc:type
           rdf:resource="http://purl.org/dc/dcmitype/StillImage" />
        <dc:title></dc:title>
      </cc:Work>
    </rdf:RDF>
  </metadata>
  <g
     inkscape:label="Calque 1"
     inkscape:groupmode="layer"
     id="layer1">
    <flowRoot
       xml:space="preserve"
       id="flowRoot6272"
       style="font-style:normal;font-weight:normal;font-size:35.43307114px;line-height:125%;font-family:sans-serif;letter-spacing:0px;word-spacing:0px;fill:#000000;fill-opacity:1;stroke:none;stroke-width:1px;stroke-linecap:butt;stroke-linejoin:miter;stroke-opacity:1"
       transform="translate(0.1137042,-135.58162)"><flowRegion
         id="flowRegion6274"><rect
           id="rect6276"
           width="431"
           height="403"
           x="-59"
           y="674.36218" /></flowRegion><flowPara
         id="flowPara6278" /></flowRoot>    <flowRoot
       xml:space="preserve"
       id="flowRoot6286"
       style="font-style:normal;font-weight:normal;font-size:35.43307114px;line-height:125%;font-family:sans-serif;letter-spacing:0px;word-spacing:0px;fill:#000000;fill-opacity:1;stroke:none;stroke-width:1px;stroke-linecap:butt;stroke-linejoin:miter;stroke-opacity:1"
       transform="translate(0.1137042,-135.58162)"><flowRegion
         id="flowRegion6288"><rect
           id="rect6290"
           width="464"
           height="402"
           x="-56"
           y="689.36218" /></flowRegion><flowPara
         id="flowPara6292" /></flowRoot>    <flowRoot
       xml:space="preserve"
       id="flowRoot6272-6"
       style="font-style:normal;font-weight:normal;font-size:35.43307114px;line-height:125%;font-family:sans-serif;letter-spacing:0px;word-spacing:0px;fill:#000000;fill-opacity:1;stroke:none;stroke-width:1px;stroke-linecap:butt;stroke-linejoin:miter;stroke-opacity:1"
       transform="translate(1076.6275,-523.47922)"><flowRegion
         id="flowRegion6274-2"><rect
           id="rect6276-1"
           width="431"
           height="403"
           x="-59"
           y="674.36218" /></flowRegion><flowPara
         id="flowPara6278-7" /></flowRoot>    <flowRoot
       xml:space="preserve"
       id="flowRoot6286-1"
       style="font-style:normal;font-weight:normal;font-size:35.43307114px;line-height:125%;font-family:sans-serif;letter-spacing:0px;word-spacing:0px;fill:#000000;fill-opacity:1;stroke:none;stroke-width:1px;stroke-linecap:butt;stroke-linejoin:miter;stroke-opacity:1"
       transform="translate(1076.6275,-523.47922)"><flowRegion
         id="flowRegion6288-0"><rect
           id="rect6290-2"
           width="464"
           height="402"
           x="-56"
           y="689.36218" /></flowRegion><flowPara
         id="flowPara6292-6" /></flowRoot>    <text
       sodipodi:linespacing="125%"
       id="text8172"
       y="62.780594"
       x="1606.1136"
       style="font-style:normal;font-weight:normal;font-size:35.43307114px;line-height:125%;font-family:sans-serif;letter-spacing:0px;word-spacing:0px;fill:#000000;fill-opacity:1;stroke:none;stroke-width:1px;stroke-linecap:butt;stroke-linejoin:miter;stroke-opacity:1"
       xml:space="preserve"><tspan
         y="62.780594"
         x="1606.1136"
         id="tspan8174"
         sodipodi:role="line" /><tspan
         id="tspan8176"
         y="107.07193"
         x="1606.1136"
         sodipodi:role="line" /></text>
    <path
       style="opacity:1;fill:none;fill-opacity:0.90789472;stroke:#ff0000;stroke-width:0.93600839;stroke-linecap:butt;stroke-miterlimit:4;stroke-dasharray:none;stroke-opacity:1"
       d="m 353.29382,952.9953 0.13852,98.8989 -222.89227,0 -0.0192,-99.11278"
       id="path4162"
       inkscape:connector-curvature="0"
       sodipodi:nodetypes="cccc" />
    <path
       style="fill:none;fill-rule:evenodd;stroke:#000000;stroke-width:0.94702369px;stroke-linecap:butt;stroke-linejoin:miter;stroke-opacity:1"
       d="m 91.923884,1342.276 223.228346,0"
       id="path3376"
       inkscape:connector-curvature="0" />
    <path
       style="fill:#ff00ff"
       inkscape:connector-curvature="0"
       id="path4"
       d="m 119.06389,740.20672 -12.79578,0 0,-43.51628 22.13018,0 25.3889,32.48773 0,-32.48773 12.79577,0 0,43.51628 -21.68172,0 -25.83735,-33.04248 0,33.04248 m 108.74077,-13.45683 c 0,6.0491 -1.06963,8.13522 -2.84018,10.13498 -2.71395,2.97638 -6.66363,3.87328 -14.27399,3.87328 l -21.84781,0 c -7.61036,0 -11.56668,-0.8969 -14.27731,-3.87328 -1.77055,-1.99976 -2.84018,-4.08588 -2.84018,-10.13498 l 0,-16.77536 c 0,-6.04578 1.06963,-8.12858 2.84018,-10.13166 2.71395,-2.9797 6.66695,-3.8766 14.27731,-3.8766 l 21.84781,0 c 7.61036,0 11.56004,0.8969 14.27399,3.8766 1.77055,2.00308 2.84018,4.08588 2.84018,10.13166 l 0,16.77536 m -17.65231,2.98303 c 2.92323,0 3.953,-0.17274 4.65392,-0.81053 0.6544,-0.59462 0.94341,-1.36196 0.94341,-3.91979 l 0,-13.28078 c 0,-2.55783 -0.28901,-3.31853 -0.94341,-3.91647 -0.70092,-0.64111 -1.73069,-0.81052 -4.65392,-0.81052 l -20.77485,0 c -2.92324,0 -3.95301,0.16941 -4.65059,0.81052 -0.65773,0.59794 -0.94673,1.35864 -0.94673,3.91647 l 0,13.28078 c 0,2.55783 0.289,3.32517 0.94673,3.91979 0.69758,0.63779 1.72735,0.81053 4.65059,0.81053 l 20.77485,0 0,0 m 36.24803,-33.04248 0,43.51628 -13.37044,0 0,-43.51628 13.37044,0 m 22.58859,0 17.65231,0 -23.82432,20.35299 26.87045,23.16329 -18.88804,0 -24.39899,-22.6949 22.58859,-20.82138 m 23.16326,0 13.37377,0 0,43.51628 -13.37377,0 m 64.35421,0 -3.95633,-7.58046 -25.87389,0 -3.90982,7.57714 -14.77227,0 23.70141,-43.51296 16.62254,0 23.69807,43.51628 -15.50971,0 m -25.18295,-17.03115 16.62587,0 -8.3146,-15.75555 -8.31127,15.75555" />
    <path
       style="fill:none;fill-rule:evenodd;stroke:#ff0000;stroke-width:1px;stroke-linecap:butt;stroke-linejoin:miter;stroke-opacity:1"
       d="m 131,952.3622 c -25.96279,-125.39158 -72.440412,-244.92179 -138,-359 170.57586,-35.37553 325.03946,-107.80924 477,-186 -31.75533,182.35031 -34.875,365.72475 -116.535,546.35861"
       id="path4166"
       inkscape:connector-curvature="0"
       sodipodi:nodetypes="cccc" />
    <path
       style="fill:#000000;fill-rule:evenodd;stroke:#000000;stroke-width:1px;stroke-linecap:butt;stroke-linejoin:miter;stroke-opacity:1;opacity:0.25"
       d="m 28.875,585.3622 42.875,0 0,-11.25 z"
       id="path4407"
       inkscape:connector-curvature="0" />
    <path
       style="fill:#000000;fill-rule:evenodd;stroke:#000000;stroke-width:1px;stroke-linecap:butt;stroke-linejoin:miter;stroke-opacity:1;opacity:0.25"
       d="m 128.5,556.9872 0,28.25 -28.25,0 0,-19.125 z"
       id="path4409"
       inkscape:connector-curvature="0" />
    <path
       style="fill:#000000;fill-rule:evenodd;stroke:#000000;stroke-width:1px;stroke-linecap:butt;stroke-linejoin:miter;stroke-opacity:1;opacity:0.25"
       d="m 15.202796,613.956 56.568542,0 0,27.93072 -52.325901,0 -4.242641,-7.95495 z"
       id="path4411"
       inkscape:connector-curvature="0" />
    <path
       style="fill:#000000;fill-rule:evenodd;stroke:#000000;stroke-width:1px;stroke-linecap:butt;stroke-linejoin:miter;stroke-opacity:1;opacity:0.25"
       d="m 100.23239,613.60245 0,28.46104 28.46104,0 0,-28.46104 z"
       id="path4413"
       inkscape:connector-curvature="0" />
    <path
       style="fill:#000000;fill-rule:evenodd;stroke:#000000;stroke-width:1px;stroke-linecap:butt;stroke-linejoin:miter;stroke-opacity:1;opacity:0.25"
       d="m 142.65879,613.77922 14.31892,0 0,28.28427 -14.23053,0 z"
       id="path4415"
       inkscape:connector-curvature="0" />
    <path
       style="fill:#000000;fill-rule:evenodd;stroke:#000000;stroke-width:1px;stroke-linecap:butt;stroke-linejoin:miter;stroke-opacity:1;opacity:0.25"
       d="m 163.872,613.69083 0,28.37266 7.07106,0 0,-28.28427 z"
       id="path4417"
       inkscape:connector-curvature="0" />
    <path
       style="fill:#000000;fill-rule:evenodd;stroke:#000000;stroke-width:1px;stroke-linecap:butt;stroke-linejoin:miter;stroke-opacity:1;opacity:0.25"
       d="m 174.65538,613.77922 3.71231,0 0,28.46105 -3.62393,0 z"
       id="path4419"
       inkscape:connector-curvature="0" />
    <path
       style="fill:#000000;fill-rule:evenodd;stroke:#000000;stroke-width:1px;stroke-linecap:butt;stroke-linejoin:miter;stroke-opacity:1;opacity:0.25"
       d="m 142.74718,552.17254 0,33.23402 13.96536,0 0,-37.83021 z"
       id="path4421"
       inkscape:connector-curvature="0" />
    <path
       style="fill:#000000;fill-rule:evenodd;stroke:#000000;stroke-width:1px;stroke-linecap:butt;stroke-linejoin:miter;stroke-opacity:1;opacity:0.25"
       d="m 164.13716,545.01309 0,40.30508 6.89429,0 0,-42.69157 z"
       id="path4423"
       inkscape:connector-curvature="0" />
    <path
       style="fill:#000000;fill-rule:evenodd;stroke:#000000;stroke-width:1px;stroke-linecap:butt;stroke-linejoin:miter;stroke-opacity:1;opacity:0.25"
       d="m 174.65538,541.03561 3.44714,-1.23743 0,45.60838 -3.44714,0 z"
       id="path4427"
       inkscape:connector-curvature="0" />
    <path
       style="fill:#000000;fill-rule:evenodd;stroke:#000000;stroke-width:1px;stroke-linecap:butt;stroke-linejoin:miter;stroke-opacity:1;opacity:0.25"
       d="m 363.67385,613.73503 0,28.46104 -28.46104,0 0,-28.46104 z"
       id="path4413-1"
       inkscape:connector-curvature="0" />
    <path
       style="fill:#000000;fill-rule:evenodd;stroke:#000000;stroke-width:1px;stroke-linecap:butt;stroke-linejoin:miter;stroke-opacity:1;opacity:0.25"
       d="m 321.24745,613.9118 -14.31892,0 0,28.28427 14.23053,0 z"
       id="path4415-9"
       inkscape:connector-curvature="0" />
    <path
       style="fill:#000000;fill-rule:evenodd;stroke:#000000;stroke-width:1px;stroke-linecap:butt;stroke-linejoin:miter;stroke-opacity:1;opacity:0.25"
       d="m 300.03424,613.82341 0,28.37266 -7.07106,0 0,-28.28427 z"
       id="path4417-1"
       inkscape:connector-curvature="0" />
    <path
       style="fill:#000000;fill-rule:evenodd;stroke:#000000;stroke-width:1px;stroke-linecap:butt;stroke-linejoin:miter;stroke-opacity:1;opacity:0.25"
       d="m 289.25086,613.9118 -3.71231,0 0,28.46105 3.62393,0 z"
       id="path4419-5"
       inkscape:connector-curvature="0" />
    <path
       style="fill:#000000;fill-rule:evenodd;stroke:#000000;stroke-width:1px;stroke-linecap:butt;stroke-linejoin:miter;stroke-opacity:1;opacity:0.25"
       d="m 100.06125,822.43034 0,-28.46104 28.46104,0 0,28.46104 z"
       id="path4413-0"
       inkscape:connector-curvature="0" />
    <path
       style="fill:#000000;fill-rule:evenodd;stroke:#000000;stroke-width:1px;stroke-linecap:butt;stroke-linejoin:miter;stroke-opacity:1;opacity:0.25"
       d="m 142.48765,822.25357 14.31892,0 0,-28.28427 -14.23053,0 z"
       id="path4415-97"
       inkscape:connector-curvature="0" />
    <path
       style="fill:#000000;fill-rule:evenodd;stroke:#000000;stroke-width:1px;stroke-linecap:butt;stroke-linejoin:miter;stroke-opacity:1;opacity:0.25"
       d="m 163.70086,822.34196 0,-28.37266 7.07106,0 0,28.28427 z"
       id="path4417-8"
       inkscape:connector-curvature="0" />
    <path
       style="fill:#000000;fill-rule:evenodd;stroke:#000000;stroke-width:1px;stroke-linecap:butt;stroke-linejoin:miter;stroke-opacity:1;opacity:0.25"
       d="m 174.48424,822.25357 3.71231,0 0,-28.46105 -3.62393,0 z"
       id="path4419-8"
       inkscape:connector-curvature="0" />
    <path
       style="fill:#000000;fill-rule:evenodd;stroke:#000000;stroke-width:1px;stroke-linecap:butt;stroke-linejoin:miter;stroke-opacity:1;opacity:0.25"
       d="m 363.50271,822.29776 0,-28.46104 -28.46104,0 0,28.46104 z"
       id="path4413-1-2"
       inkscape:connector-curvature="0" />
    <path
       style="fill:#000000;fill-rule:evenodd;stroke:#000000;stroke-width:1px;stroke-linecap:butt;stroke-linejoin:miter;stroke-opacity:1;opacity:0.25"
       d="m 321.07631,822.12099 -14.31892,0 0,-28.28427 14.23053,0 z"
       id="path4415-9-7"
       inkscape:connector-curvature="0" />
    <path
       style="fill:#000000;fill-rule:evenodd;stroke:#000000;stroke-width:1px;stroke-linecap:butt;stroke-linejoin:miter;stroke-opacity:1;opacity:0.25"
       d="m 299.8631,822.20938 0,-28.37266 -7.07106,0 0,28.28427 z"
       id="path4417-1-9"
       inkscape:connector-curvature="0" />
    <path
       style="fill:#000000;fill-rule:evenodd;stroke:#000000;stroke-width:1px;stroke-linecap:butt;stroke-linejoin:miter;stroke-opacity:1;opacity:0.25"
       d="m 289.07972,822.12099 -3.71231,0 0,-28.46105 3.62393,0 z"
       id="path4419-5-4"
       inkscape:connector-curvature="0" />
    <path
       style="fill:#000000;fill-rule:evenodd;stroke:#000000;stroke-width:1px;stroke-linecap:butt;stroke-linejoin:miter;stroke-opacity:1;opacity:0.25"
       d="m 285.31759,528.74963 0,56.39177 3.53553,0 0,-56.74532 z"
       id="path4489"
       inkscape:connector-curvature="0" />
    <path
       style="fill:#000000;fill-rule:evenodd;stroke:#000000;stroke-width:1px;stroke-linecap:butt;stroke-linejoin:miter;stroke-opacity:1;opacity:0.25"
       d="m 292.38865,528.57286 0,56.74532 7.07107,0 0,-56.39177 -6.89429,0"
       id="path4491"
       inkscape:connector-curvature="0" />
    <path
       style="fill:#000000;fill-rule:evenodd;stroke:#000000;stroke-width:1px;stroke-linecap:butt;stroke-linejoin:miter;stroke-opacity:1;opacity:0.25"
       d="m 306.70757,528.92641 0,56.03821 13.96536,0 0,-56.21499 z"
       id="path4493"
       inkscape:connector-curvature="0" />
    <path
       style="fill:#000000;fill-rule:evenodd;stroke:#000000;stroke-width:1px;stroke-linecap:butt;stroke-linejoin:miter;stroke-opacity:1;opacity:0.25"
       d="m 335.16861,528.74963 0,56.74532 28.63783,0 0,-57.09887 z"
       id="path4495"
       inkscape:connector-curvature="0" />
    <path
       style="fill:#000000;fill-rule:evenodd;stroke:#000000;stroke-width:1px;stroke-linecap:butt;stroke-linejoin:miter;stroke-opacity:1;opacity:0.25"
       d="m 391.56038,528.57286 0,57.09887 52.85623,0 3.88909,-31.46625 0,-25.63262 z"
       id="path4497"
       inkscape:connector-curvature="0" />
    <path
       style="fill:#000000;fill-rule:evenodd;stroke:#000000;stroke-width:1px;stroke-linecap:butt;stroke-linejoin:miter;stroke-opacity:1;opacity:0.25"
       d="m 391.73716,613.77922 0,28.1075 44.54772,0 4.41942,-28.46105 -49.49747,0"
       id="path4499"
       inkscape:connector-curvature="0" />
    <path
       style="fill:#000000;fill-rule:evenodd;stroke:#000000;stroke-width:1px;stroke-linecap:butt;stroke-linejoin:miter;stroke-opacity:1;opacity:0.25"
       d="m 434.34034,656.20563 -42.60318,0 0,14.49569 40.65864,0 z"
       id="path4501"
       inkscape:connector-curvature="0" />
    <path
       style="fill:#000000;fill-rule:evenodd;stroke:#000000;stroke-width:1px;stroke-linecap:butt;stroke-linejoin:miter;stroke-opacity:1;opacity:0.25"
       d="m 391.73716,677.41883 39.4212,0 -1.23744,7.07107 -38.00699,0 z"
       id="path4503"
       inkscape:connector-curvature="0" />
    <path
       style="fill:#000000;fill-rule:evenodd;stroke:#000000;stroke-width:1px;stroke-linecap:butt;stroke-linejoin:miter;stroke-opacity:1;opacity:0.25"
       d="m 391.73716,688.02544 0,3.71231 36.94633,0 0.95493,-3.56387 z"
       id="path4505"
       inkscape:connector-curvature="0" />
    <path
       style="fill:#000000;fill-rule:evenodd;stroke:#000000;stroke-width:1px;stroke-linecap:butt;stroke-linejoin:miter;stroke-opacity:1;opacity:0.25"
       d="m 418.43044,747.24563 0.88388,-3.53554 -27.57716,0 0,3.53554 z"
       id="path4507"
       inkscape:connector-curvature="0" />
    <path
       style="fill:#000000;fill-rule:evenodd;stroke:#000000;stroke-width:1px;stroke-linecap:butt;stroke-linejoin:miter;stroke-opacity:1;opacity:0.25"
       d="m 391.91393,750.95794 25.8094,0 -1.76777,6.71751 -24.2184,0 z"
       id="path4509"
       inkscape:connector-curvature="0" />
    <path
       style="fill:#000000;fill-rule:evenodd;stroke:#000000;stroke-width:1px;stroke-linecap:butt;stroke-linejoin:miter;stroke-opacity:1;opacity:0.25"
       d="m 414.36457,765.10007 -22.45064,0 0,14.31892 18.91511,0 z"
       id="path4511"
       inkscape:connector-curvature="0" />
    <path
       style="fill:#000000;fill-rule:evenodd;stroke:#000000;stroke-width:1px;stroke-linecap:butt;stroke-linejoin:miter;stroke-opacity:1;opacity:0.25"
       d="m 400.57599,822.02217 7.42462,-28.46105 -16.26345,0 0,28.46105 z"
       id="path4513"
       inkscape:connector-curvature="0" />
    <path
       style="fill:#000000;fill-rule:evenodd;stroke:#000000;stroke-width:1px;stroke-linecap:butt;stroke-linejoin:miter;stroke-opacity:1;opacity:0.25"
       d="m 285.40598,743.88687 0,3.53553 3.71231,0 0,-3.44714 z"
       id="path4515"
       inkscape:connector-curvature="0" />
    <path
       style="fill:#000000;fill-rule:evenodd;stroke:#000000;stroke-width:1px;stroke-linecap:butt;stroke-linejoin:miter;stroke-opacity:1;opacity:0.25"
       d="m 292.47704,743.88687 0,3.35876 7.15946,0 0,-3.35876 z"
       id="path4517"
       inkscape:connector-curvature="0" />
    <path
       style="fill:#000000;fill-rule:evenodd;stroke:#000000;stroke-width:1px;stroke-linecap:butt;stroke-linejoin:miter;stroke-opacity:1;opacity:0.25"
       d="m 306.61918,743.88687 0,3.53553 14.31891,0 0,-3.53553 z"
       id="path4519"
       inkscape:connector-curvature="0" />
    <path
       style="fill:#000000;fill-rule:evenodd;stroke:#000000;stroke-width:1px;stroke-linecap:butt;stroke-linejoin:miter;stroke-opacity:1;opacity:0.25"
       d="m 335.08023,743.79848 0,3.53554 28.37266,0 0,-3.35876 z"
       id="path4521"
       inkscape:connector-curvature="0" />
    <path
       style="fill:#000000;fill-rule:evenodd;stroke:#000000;stroke-width:1px;stroke-linecap:butt;stroke-linejoin:miter;stroke-opacity:1;opacity:0.25"
       d="m 285.49436,751.13472 0,6.8059 3.44715,0 0,-6.89429 z"
       id="path4523"
       inkscape:connector-curvature="0" />
    <path
       style="fill:#000000;fill-rule:evenodd;stroke:#000000;stroke-width:1px;stroke-linecap:butt;stroke-linejoin:miter;stroke-opacity:1;opacity:0.25"
       d="m 292.47704,750.95794 0,7.15945 7.15946,0 0,-7.15945 z"
       id="path4525"
       inkscape:connector-curvature="0" />
    <path
       style="fill:#000000;fill-rule:evenodd;stroke:#000000;stroke-width:1px;stroke-linecap:butt;stroke-linejoin:miter;stroke-opacity:1;opacity:0.25"
       d="m 306.79596,751.04633 0,6.89429 14.05374,0 0,-6.8059 z"
       id="path4527"
       inkscape:connector-curvature="0" />
    <path
       style="fill:#000000;fill-rule:evenodd;stroke:#000000;stroke-width:1px;stroke-linecap:butt;stroke-linejoin:miter;stroke-opacity:1;opacity:0.25"
       d="m 335.08023,751.13472 0,6.98267 28.37266,0 0,-7.07106 z"
       id="path4529"
       inkscape:connector-curvature="0" />
    <path
       style="fill:#000000;fill-rule:evenodd;stroke:#000000;stroke-width:1px;stroke-linecap:butt;stroke-linejoin:miter;stroke-opacity:1;opacity:0.25"
       d="m 285.49436,765.18846 0,14.14214 3.44715,0 0,-14.23053 z"
       id="path4531"
       inkscape:connector-curvature="0" />
    <path
       style="fill:#000000;fill-rule:evenodd;stroke:#000000;stroke-width:1px;stroke-linecap:butt;stroke-linejoin:miter;stroke-opacity:1;opacity:0.25"
       d="m 292.47704,765.27685 0,14.14214 7.07107,0 0,-14.23053 z"
       id="path4533"
       inkscape:connector-curvature="0" />
    <path
       style="fill:#000000;fill-rule:evenodd;stroke:#000000;stroke-width:1px;stroke-linecap:butt;stroke-linejoin:miter;stroke-opacity:1;opacity:0.25"
       d="m 306.70757,765.18846 0,14.14214 14.14213,0 0,-14.14214 z"
       id="path4535"
       inkscape:connector-curvature="0" />
    <path
       style="fill:#000000;fill-rule:evenodd;stroke:#000000;stroke-width:1px;stroke-linecap:butt;stroke-linejoin:miter;stroke-opacity:1;opacity:0.25"
       d="m 335.08023,765.18846 0,14.23053 28.54943,0 0,-14.23053 z"
       id="path4537"
       inkscape:connector-curvature="0" />
    <path
       style="fill:#000000;fill-rule:evenodd;stroke:#000000;stroke-width:1px;stroke-linecap:butt;stroke-linejoin:miter;stroke-opacity:1;opacity:0.25"
       d="m 285.40598,688.11382 0,3.62393 3.44714,0 0,-3.62393 z"
       id="path4539"
       inkscape:connector-curvature="0" />
    <path
       style="fill:#000000;fill-rule:evenodd;stroke:#000000;stroke-width:1px;stroke-linecap:butt;stroke-linejoin:miter;stroke-opacity:1;opacity:0.25"
       d="m 292.56543,688.11382 0,3.53554 7.15946,0 0,-3.62392 z"
       id="path4541"
       inkscape:connector-curvature="0" />
    <path
       style="fill:#000000;fill-rule:evenodd;stroke:#000000;stroke-width:1px;stroke-linecap:butt;stroke-linejoin:miter;stroke-opacity:1;opacity:0.25"
       d="m 306.61918,688.11382 0,3.44715 14.49569,0 0,-3.53553 z"
       id="path4543"
       inkscape:connector-curvature="0" />
    <path
       style="fill:#000000;fill-rule:evenodd;stroke:#000000;stroke-width:1px;stroke-linecap:butt;stroke-linejoin:miter;stroke-opacity:1;opacity:0.25"
       d="m 285.58275,677.50722 0,7.15946 3.35876,0 0,-7.15946 z"
       id="path4545"
       inkscape:connector-curvature="0" />
    <path
       style="fill:#000000;fill-rule:evenodd;stroke:#000000;stroke-width:1px;stroke-linecap:butt;stroke-linejoin:miter;stroke-opacity:1;opacity:0.25"
       d="m 292.56543,677.50722 0,7.07107 7.07107,0 0,-7.07107 z"
       id="path4547"
       inkscape:connector-curvature="0" />
    <path
       style="fill:#000000;fill-rule:evenodd;stroke:#000000;stroke-width:1px;stroke-linecap:butt;stroke-linejoin:miter;stroke-opacity:1;opacity:0.25"
       d="m 285.49436,656.29402 3.53554,0 0,14.05375 -3.62392,0 z"
       id="path4551"
       inkscape:connector-curvature="0" />
    <path
       style="fill:#000000;fill-rule:evenodd;stroke:#000000;stroke-width:1px;stroke-linecap:butt;stroke-linejoin:miter;stroke-opacity:1;opacity:0.25"
       d="m 292.74221,656.11724 7.07107,0 0,14.14214 -7.24785,0 z"
       id="path4553"
       inkscape:connector-curvature="0" />
    <path
       style="fill:#000000;fill-rule:evenodd;stroke:#000000;stroke-width:1px;stroke-linecap:butt;stroke-linejoin:miter;stroke-opacity:1;opacity:0.25"
       d="m 306.79596,656.29402 0,14.05375 14.23052,0 0,-14.05375 z"
       id="path4555"
       inkscape:connector-curvature="0" />
    <path
       style="fill:#000000;fill-rule:evenodd;stroke:#000000;stroke-width:1px;stroke-linecap:butt;stroke-linejoin:miter;stroke-opacity:1;opacity:0.25"
       d="m 306.79596,677.59561 0,6.98268 14.23052,0 0,-7.07107 z"
       id="path4557"
       inkscape:connector-curvature="0" />
    <path
       style="fill:#000000;fill-rule:evenodd;stroke:#000000;stroke-width:1px;stroke-linecap:butt;stroke-linejoin:miter;stroke-opacity:1;opacity:0.25"
       d="m 335.16861,688.02544 0,3.62392 28.19589,0 0,-3.62392 z"
       id="path4559"
       inkscape:connector-curvature="0" />
    <path
       style="fill:#000000;fill-rule:evenodd;stroke:#000000;stroke-width:1px;stroke-linecap:butt;stroke-linejoin:miter;stroke-opacity:1;opacity:0.25"
       d="m 335.08023,677.41883 0,7.15946 28.37266,0 0,-7.15946 z"
       id="path4561"
       inkscape:connector-curvature="0" />
    <path
       style="fill:#000000;fill-rule:evenodd;stroke:#000000;stroke-width:1px;stroke-linecap:butt;stroke-linejoin:miter;stroke-opacity:1;opacity:0.25"
       d="m 335.16861,656.29402 0,14.05375 c 0,0 28.16787,0.43443 28.28428,0 0.1164,-0.43444 0,-14.14214 0,-14.14214 z"
       id="path4565"
       inkscape:connector-curvature="0" />
    <path
       style="fill:#000000;fill-rule:evenodd;stroke:#000000;stroke-width:1px;stroke-linecap:butt;stroke-linejoin:miter;stroke-opacity:1;opacity:0.25"
       d="m 26.803849,656.25166 45.166442,0.0884 0,14.49569 -37.741825,0.0884 z"
       id="path4501-7"
       inkscape:connector-curvature="0"
       sodipodi:nodetypes="ccccc" />
    <path
       style="fill:#000000;fill-rule:evenodd;stroke:#000000;stroke-width:1px;stroke-linecap:butt;stroke-linejoin:miter;stroke-opacity:1;opacity:0.25"
       d="m 71.970291,677.55325 -34.383064,0.0884 3.181983,6.98268 31.024311,0 z"
       id="path4503-3"
       inkscape:connector-curvature="0"
       sodipodi:nodetypes="ccccc" />
    <path
       style="fill:#000000;fill-rule:evenodd;stroke:#000000;stroke-width:1px;stroke-linecap:butt;stroke-linejoin:miter;stroke-opacity:1;opacity:0.25"
       d="m 71.970291,688.15986 0,3.71231 -27.753942,0 -1.573648,-3.65226 z"
       id="path4505-3"
       inkscape:connector-curvature="0"
       sodipodi:nodetypes="ccccc" />
    <path
       style="fill:#000000;fill-rule:evenodd;stroke:#000000;stroke-width:1px;stroke-linecap:butt;stroke-linejoin:miter;stroke-opacity:1;opacity:0.25"
       d="m 178.30147,688.24824 0,3.62393 -3.44714,0 0,-3.62393 z"
       id="path4539-8"
       inkscape:connector-curvature="0" />
    <path
       style="fill:#000000;fill-rule:evenodd;stroke:#000000;stroke-width:1px;stroke-linecap:butt;stroke-linejoin:miter;stroke-opacity:1;opacity:0.25"
       d="m 171.14202,688.24824 0,3.53554 -7.15946,0 0,-3.62392 z"
       id="path4541-7"
       inkscape:connector-curvature="0" />
    <path
       style="fill:#000000;fill-rule:evenodd;stroke:#000000;stroke-width:1px;stroke-linecap:butt;stroke-linejoin:miter;stroke-opacity:1;opacity:0.25"
       d="m 157.08827,688.24824 0,3.44715 -14.49569,0 0,-3.53553 z"
       id="path4543-9"
       inkscape:connector-curvature="0" />
    <path
       style="fill:#000000;fill-rule:evenodd;stroke:#000000;stroke-width:1px;stroke-linecap:butt;stroke-linejoin:miter;stroke-opacity:1;opacity:0.25"
       d="m 178.1247,677.64164 0,7.15946 -3.35876,0 0,-7.15946 z"
       id="path4545-2"
       inkscape:connector-curvature="0" />
    <path
       style="fill:#000000;fill-rule:evenodd;stroke:#000000;stroke-width:1px;stroke-linecap:butt;stroke-linejoin:miter;stroke-opacity:1;opacity:0.25"
       d="m 171.14202,677.64164 0,7.07107 -7.07107,0 0,-7.07107 z"
       id="path4547-5"
       inkscape:connector-curvature="0" />
    <path
       style="fill:#000000;fill-rule:evenodd;stroke:#000000;stroke-width:1px;stroke-linecap:butt;stroke-linejoin:miter;stroke-opacity:1;opacity:0.25"
       d="m 178.21309,656.42844 -3.53554,0 0,14.05375 3.62392,0 z"
       id="path4551-2"
       inkscape:connector-curvature="0" />
    <path
       style="fill:#000000;fill-rule:evenodd;stroke:#000000;stroke-width:1px;stroke-linecap:butt;stroke-linejoin:miter;stroke-opacity:1;opacity:0.25"
       d="m 170.96524,656.25166 -7.07107,0 0,14.14214 7.24785,0 z"
       id="path4553-2"
       inkscape:connector-curvature="0" />
    <path
       style="fill:#000000;fill-rule:evenodd;stroke:#000000;stroke-width:1px;stroke-linecap:butt;stroke-linejoin:miter;stroke-opacity:1;opacity:0.25"
       d="m 156.91149,656.42844 0,14.05375 -14.23052,0 0,-14.05375 z"
       id="path4555-8"
       inkscape:connector-curvature="0" />
    <path
       style="fill:#000000;fill-rule:evenodd;stroke:#000000;stroke-width:1px;stroke-linecap:butt;stroke-linejoin:miter;stroke-opacity:1;opacity:0.25"
       d="m 156.91149,677.73003 0,6.98268 -14.23052,0 0,-7.07107 z"
       id="path4557-3"
       inkscape:connector-curvature="0" />
    <path
       style="fill:#000000;fill-rule:evenodd;stroke:#000000;stroke-width:1px;stroke-linecap:butt;stroke-linejoin:miter;stroke-opacity:1;opacity:0.25"
       d="m 128.53884,688.15986 0,3.62392 -28.19589,0 0,-3.62392 z"
       id="path4559-9"
       inkscape:connector-curvature="0" />
    <path
       style="fill:#000000;fill-rule:evenodd;stroke:#000000;stroke-width:1px;stroke-linecap:butt;stroke-linejoin:miter;stroke-opacity:1;opacity:0.25"
       d="m 128.62722,677.55325 0,7.15946 -28.37266,0 0,-7.15946 z"
       id="path4561-3"
       inkscape:connector-curvature="0" />
    <path
       style="fill:#000000;fill-rule:evenodd;stroke:#000000;stroke-width:1px;stroke-linecap:butt;stroke-linejoin:miter;stroke-opacity:1;opacity:0.25"
       d="m 128.53884,656.42844 0,14.05375 c 0,0 -28.16787,0.43443 -28.28428,0 -0.1164,-0.43444 0,-14.14214 0,-14.14214 z"
       id="path4565-7"
       inkscape:connector-curvature="0" />
    <path
       style="fill:#000000;fill-rule:evenodd;stroke:#000000;stroke-width:1px;stroke-linecap:butt;stroke-linejoin:miter;stroke-opacity:1;opacity:0.25"
       d="m 316.875,482.2372 4,-1.875 0,1.875 z"
       id="path4624"
       inkscape:connector-curvature="0" />
    <path
       style="fill:#000000;fill-rule:evenodd;stroke:#000000;stroke-width:1px;stroke-linecap:butt;stroke-linejoin:miter;stroke-opacity:1;opacity:0.25"
       d="m 335.375,473.7372 0,8.625 28,0 0,-21.75 z"
       id="path4626"
       inkscape:connector-curvature="0" />
    <path
       style="fill:#000000;fill-rule:evenodd;stroke:#000000;stroke-width:1px;stroke-linecap:butt;stroke-linejoin:miter;stroke-opacity:1;opacity:0.25"
       d="m 391.875,446.4872 0,35.75 56.5,0 0,-46 -35.875,0 z"
       id="path4628"
       inkscape:connector-curvature="0" />
    <path
       style="fill:#000000;fill-rule:evenodd;stroke:#000000;stroke-width:1px;stroke-linecap:butt;stroke-linejoin:miter;stroke-opacity:1;opacity:0.25"
       d="m 67.0625,743.9247 1.3125,3.5 3.4375,0 0,-3.5 z"
       id="path4630"
       inkscape:connector-curvature="0" />
    <path
       style="fill:#000000;fill-rule:evenodd;stroke:#000000;stroke-width:1px;stroke-linecap:butt;stroke-linejoin:miter;stroke-opacity:1;opacity:0.25"
       d="m 69.875,751.0497 1.9375,4.875 0,-4.875 z"
       id="path4632"
       inkscape:connector-curvature="0" />
    <path
       style="fill:#000000;fill-rule:evenodd;stroke:#000000;stroke-width:1px;stroke-linecap:butt;stroke-linejoin:miter;stroke-opacity:1;opacity:0.25"
       d="m 178.27913,747.5459 0,-3.62393 -3.44714,0 0,3.62393 z"
       id="path4539-8-7"
       inkscape:connector-curvature="0" />
    <path
       style="fill:#000000;fill-rule:evenodd;stroke:#000000;stroke-width:1px;stroke-linecap:butt;stroke-linejoin:miter;stroke-opacity:1;opacity:0.25"
       d="m 171.11968,747.5459 0,-3.53554 -7.15946,0 0,3.62392 z"
       id="path4541-7-5"
       inkscape:connector-curvature="0" />
    <path
       style="fill:#000000;fill-rule:evenodd;stroke:#000000;stroke-width:1px;stroke-linecap:butt;stroke-linejoin:miter;stroke-opacity:1;opacity:0.25"
       d="m 157.06593,747.5459 0,-3.44715 -14.49569,0 0,3.53553 z"
       id="path4543-9-0"
       inkscape:connector-curvature="0" />
    <path
       style="fill:#000000;fill-rule:evenodd;stroke:#000000;stroke-width:1px;stroke-linecap:butt;stroke-linejoin:miter;stroke-opacity:1;opacity:0.25"
       d="m 178.10236,758.1525 0,-7.15946 -3.35876,0 0,7.15946 z"
       id="path4545-2-9"
       inkscape:connector-curvature="0" />
    <path
       style="fill:#000000;fill-rule:evenodd;stroke:#000000;stroke-width:1px;stroke-linecap:butt;stroke-linejoin:miter;stroke-opacity:1;opacity:0.25"
       d="m 171.11968,758.1525 0,-7.07107 -7.07107,0 0,7.07107 z"
       id="path4547-5-1"
       inkscape:connector-curvature="0" />
    <path
       style="fill:#000000;fill-rule:evenodd;stroke:#000000;stroke-width:1px;stroke-linecap:butt;stroke-linejoin:miter;stroke-opacity:1;opacity:0.25"
       d="m 178.19075,779.3657 -3.53554,0 0,-14.05375 3.62392,0 z"
       id="path4551-2-7"
       inkscape:connector-curvature="0" />
    <path
       style="fill:#000000;fill-rule:evenodd;stroke:#000000;stroke-width:1px;stroke-linecap:butt;stroke-linejoin:miter;stroke-opacity:1;opacity:0.25"
       d="m 170.9429,779.54248 -7.07107,0 0,-14.14214 7.24785,0 z"
       id="path4553-2-8"
       inkscape:connector-curvature="0" />
    <path
       style="fill:#000000;fill-rule:evenodd;stroke:#000000;stroke-width:1px;stroke-linecap:butt;stroke-linejoin:miter;stroke-opacity:1;opacity:0.25"
       d="m 156.88915,779.3657 0,-14.05375 -14.23052,0 0,14.05375 z"
       id="path4555-8-8"
       inkscape:connector-curvature="0" />
    <path
       style="fill:#000000;fill-rule:evenodd;stroke:#000000;stroke-width:1px;stroke-linecap:butt;stroke-linejoin:miter;stroke-opacity:1;opacity:0.25"
       d="m 156.88915,758.06411 0,-6.98268 -14.23052,0 0,7.07107 z"
       id="path4557-3-9"
       inkscape:connector-curvature="0" />
    <path
       style="fill:#000000;fill-rule:evenodd;stroke:#000000;stroke-width:1px;stroke-linecap:butt;stroke-linejoin:miter;stroke-opacity:1;opacity:0.25"
       d="m 128.5165,747.63428 0,-3.62392 -28.1959,0 0,3.62392 z"
       id="path4559-9-5"
       inkscape:connector-curvature="0" />
    <path
       style="fill:#000000;fill-rule:evenodd;stroke:#000000;stroke-width:1px;stroke-linecap:butt;stroke-linejoin:miter;stroke-opacity:1;opacity:0.25"
       d="m 128.60488,758.24089 0,-7.15946 -28.37267,0 0,7.15946 z"
       id="path4561-3-5"
       inkscape:connector-curvature="0" />
    <path
       style="fill:#000000;fill-rule:evenodd;stroke:#000000;stroke-width:1px;stroke-linecap:butt;stroke-linejoin:miter;stroke-opacity:1;opacity:0.25"
       d="m 128.5165,779.3657 0,-14.05375 c 0,0 -28.16788,-0.43443 -28.28429,0 -0.1164,0.43444 0,14.14214 0,14.14214 z"
       id="path4565-7-8"
       inkscape:connector-curvature="0" />
    <path
       style="fill:#000000;fill-rule:evenodd;stroke:#000000;stroke-width:1px;stroke-linecap:butt;stroke-linejoin:miter;stroke-opacity:1;opacity:0.25"
       d="m 285.67114,850.12967 3.53553,0 0,56.74531 -3.88908,0 z"
       id="path4682"
       inkscape:connector-curvature="0" />
    <path
       style="fill:#000000;fill-rule:evenodd;stroke:#000000;stroke-width:1px;stroke-linecap:butt;stroke-linejoin:miter;stroke-opacity:1;opacity:0.25"
       d="m 292.74221,850.12967 6.89429,0 0,56.74531 -7.24785,0 z"
       id="path4684"
       inkscape:connector-curvature="0" />
    <path
       style="fill:#000000;fill-rule:evenodd;stroke:#000000;stroke-width:1px;stroke-linecap:butt;stroke-linejoin:miter;stroke-opacity:1;opacity:0.25"
       d="m 306.53079,850.30644 14.67247,0 0,56.56854 -14.49569,0 z"
       id="path4686"
       inkscape:connector-curvature="0" />
    <path
       style="fill:#000000;fill-rule:evenodd;stroke:#000000;stroke-width:1px;stroke-linecap:butt;stroke-linejoin:miter;stroke-opacity:1;opacity:0.25"
       d="m 335.16861,850.30644 28.28428,0 0,56.56854 -28.28428,0 z"
       id="path4688"
       inkscape:connector-curvature="0" />
    <path
       style="fill:#000000;fill-rule:evenodd;stroke:#000000;stroke-width:1px;stroke-linecap:butt;stroke-linejoin:miter;stroke-opacity:1;opacity:0.25"
       d="m 178.18936,850.30645 -3.53553,0 0,56.74531 3.88908,0 z"
       id="path4682-3"
       inkscape:connector-curvature="0" />
    <path
       style="fill:#000000;fill-rule:evenodd;stroke:#000000;stroke-width:1px;stroke-linecap:butt;stroke-linejoin:miter;stroke-opacity:1;opacity:0.25"
       d="m 171.11829,850.30645 -6.89429,0 0,56.74531 7.24785,0 z"
       id="path4684-6"
       inkscape:connector-curvature="0" />
    <path
       style="fill:#000000;fill-rule:evenodd;stroke:#000000;stroke-width:1px;stroke-linecap:butt;stroke-linejoin:miter;stroke-opacity:1;opacity:0.25"
       d="m 157.32971,850.48322 -14.67247,0 0,56.56854 14.49569,0 z"
       id="path4686-3"
       inkscape:connector-curvature="0" />
    <path
       style="fill:#000000;fill-rule:evenodd;stroke:#000000;stroke-width:1px;stroke-linecap:butt;stroke-linejoin:miter;stroke-opacity:1;opacity:0.25"
       d="m 128.69189,850.48322 -23.65929,-0.125 c 5.68653,19.03912 10.83256,37.86205 15.6875,56.56854 l 7.97179,0.125 z"
       id="path4688-7"
       inkscape:connector-curvature="0"
       sodipodi:nodetypes="ccccc" />
  </g>
</svg>
