<?xml version="1.0" encoding="UTF-8" standalone="no"?>
<!-- Created with Inkscape (http://www.inkscape.org/) -->

<svg
   xmlns:dc="http://purl.org/dc/elements/1.1/"
   xmlns:cc="http://creativecommons.org/ns#"
   xmlns:rdf="http://www.w3.org/1999/02/22-rdf-syntax-ns#"
   xmlns:svg="http://www.w3.org/2000/svg"
   xmlns="http://www.w3.org/2000/svg"
   xmlns:sodipodi="http://sodipodi.sourceforge.net/DTD/sodipodi-0.dtd"
   xmlns:inkscape="http://www.inkscape.org/namespaces/inkscape"
   width="240mm"
   height="297mm"
   viewBox="0 0 850.3937 1052.3622"
   id="svg2"
   version="1.1"
   inkscape:version="0.91 r13725"
   sodipodi:docname="NOKIA 31.svg"
   inkscape:export-filename="D:\Fablab\trender\trender médium aimant.png"
   inkscape:export-xdpi="90"
   inkscape:export-ydpi="90">
  <defs
     id="defs4" />
  <sodipodi:namedview
     id="base"
     pagecolor="#ffffff"
     bordercolor="#66ab16"
     borderopacity="0.43921569"
     inkscape:pageopacity="0"
     inkscape:pageshadow="2"
     inkscape:zoom="0.70710678"
     inkscape:cx="439.79273"
     inkscape:cy="341.09212"
     inkscape:document-units="mm"
     inkscape:current-layer="layer1"
     showgrid="true"
     inkscape:window-width="1920"
     inkscape:window-height="1017"
     inkscape:window-x="-8"
     inkscape:window-y="-8"
     inkscape:window-maximized="1"
     showguides="false">
    <inkscape:grid
       type="xygrid"
       id="grid3336"
       empcolor="#583fff"
       empopacity="0.54117647"
       empspacing="10"
       units="mm"
       spacingx="3.5433071"
       spacingy="3.5433072"
       color="#d13fff"
       opacity="0.48235294"
       enabled="false" />
  </sodipodi:namedview>
  <metadata
     id="metadata7">
    <rdf:RDF>
      <cc:Work
         rdf:about="">
        <dc:format>image/svg+xml</dc:format>
        <dc:type
           rdf:resource="http://purl.org/dc/dcmitype/StillImage" />
        <dc:title />
      </cc:Work>
    </rdf:RDF>
  </metadata>
  <g
     inkscape:label="Calque 1"
     inkscape:groupmode="layer"
     id="layer1">
    <path
       style="fill:#1c4598"
       inkscape:connector-curvature="0"
       id="path4"
       d="m 88.809621,734.07 -18.767607,0 0,-63.82554 32.458406,0 37.23804,47.64991 0,-47.64991 18.76761,0 0,63.82554 -31.80068,0 -37.895769,-48.46356 0,48.46356 M 248.3002,714.33281 c 0,8.87224 -1.56882,11.93196 -4.16569,14.86502 -3.98056,4.36547 -9.77358,5.68095 -20.93572,5.68095 l -32.04429,0 c -11.16216,0 -16.96491,-1.31548 -20.94059,-5.68095 -2.59689,-2.93306 -4.16572,-5.99278 -4.16572,-14.86502 l 0,-24.60451 c 0,-8.86737 1.56883,-11.92222 4.16572,-14.86014 3.98055,-4.37035 9.77843,-5.68583 20.94059,-5.68583 l 32.04429,0 c 11.16214,0 16.95516,1.31548 20.93572,5.68583 2.59687,2.93792 4.16569,5.99277 4.16569,14.86014 l 0,24.60451 m -25.89071,4.37522 c 4.28752,0 5.79789,-0.25336 6.82592,-1.18882 0.95982,-0.87211 1.3837,-1.99759 1.3837,-5.74918 l 0,-19.47897 c 0,-3.75157 -0.42388,-4.8673 -1.3837,-5.74428 -1.02803,-0.94034 -2.5384,-1.18882 -6.82592,-1.18882 l -30.47058,0 c -4.28751,0 -5.79788,0.24848 -6.82103,1.18882 -0.9647,0.87698 -1.38857,1.99271 -1.38857,5.74428 l 0,19.47897 c 0,3.75159 0.42387,4.87707 1.38857,5.74918 1.02315,0.93546 2.53352,1.18882 6.82103,1.18882 l 30.47058,0 0,0 m 53.16515,-48.46357 0,63.82554 -19.61049,0 0,-63.82554 19.61049,0 m 33.13078,0 25.89073,0 -34.94323,29.85184 39.41101,33.9737 -27.70318,0 -35.78611,-33.28672 33.13078,-30.53882 m 33.97366,0 19.61538,0 0,63.82554 -19.61538,0 m 94.3886,0 -5.80275,-11.1183 -37.94935,0 -5.73455,11.11343 -21.66656,0 34.76295,-63.82067 24.38037,0 34.75807,63.82554 -22.74818,0 m -36.93593,-24.97965 24.38523,0 -12.19506,-23.10875 -12.19017,23.10875" />
    <flowRoot
       xml:space="preserve"
       id="flowRoot6272"
       style="font-style:normal;font-weight:normal;font-size:35.43307114px;line-height:125%;font-family:sans-serif;letter-spacing:0px;word-spacing:0px;fill:#000000;fill-opacity:1;stroke:none;stroke-width:1px;stroke-linecap:butt;stroke-linejoin:miter;stroke-opacity:1"
       transform="translate(7.8911861,-135.58162)"><flowRegion
         id="flowRegion6274"><rect
           id="rect6276"
           width="431"
           height="403"
           x="-59"
           y="674.36218" /></flowRegion><flowPara
         id="flowPara6278" /></flowRoot>    <flowRoot
       xml:space="preserve"
       id="flowRoot6286"
       style="font-style:normal;font-weight:normal;font-size:35.43307114px;line-height:125%;font-family:sans-serif;letter-spacing:0px;word-spacing:0px;fill:#000000;fill-opacity:1;stroke:none;stroke-width:1px;stroke-linecap:butt;stroke-linejoin:miter;stroke-opacity:1"
       transform="translate(7.8911861,-135.58162)"><flowRegion
         id="flowRegion6288"><rect
           id="rect6290"
           width="464"
           height="402"
           x="-56"
           y="689.36218" /></flowRegion><flowPara
         id="flowPara6292" /></flowRoot>    <flowRoot
       xml:space="preserve"
       id="flowRoot6272-6"
       style="font-style:normal;font-weight:normal;font-size:35.43307114px;line-height:125%;font-family:sans-serif;letter-spacing:0px;word-spacing:0px;fill:#000000;fill-opacity:1;stroke:none;stroke-width:1px;stroke-linecap:butt;stroke-linejoin:miter;stroke-opacity:1"
       transform="translate(1084.405,-523.47922)"><flowRegion
         id="flowRegion6274-2"><rect
           id="rect6276-1"
           width="431"
           height="403"
           x="-59"
           y="674.36218" /></flowRegion><flowPara
         id="flowPara6278-7" /></flowRoot>    <flowRoot
       xml:space="preserve"
       id="flowRoot6286-1"
       style="font-style:normal;font-weight:normal;font-size:35.43307114px;line-height:125%;font-family:sans-serif;letter-spacing:0px;word-spacing:0px;fill:#000000;fill-opacity:1;stroke:none;stroke-width:1px;stroke-linecap:butt;stroke-linejoin:miter;stroke-opacity:1"
       transform="translate(1084.405,-523.47922)"><flowRegion
         id="flowRegion6288-0"><rect
           id="rect6290-2"
           width="464"
           height="402"
           x="-56"
           y="689.36218" /></flowRegion><flowPara
         id="flowPara6292-6" /></flowRoot>    <text
       sodipodi:linespacing="125%"
       id="text8172"
       y="62.780594"
       x="1613.8911"
       style="font-style:normal;font-weight:normal;font-size:35.43307114px;line-height:125%;font-family:sans-serif;letter-spacing:0px;word-spacing:0px;fill:#000000;fill-opacity:1;stroke:none;stroke-width:1px;stroke-linecap:butt;stroke-linejoin:miter;stroke-opacity:1"
       xml:space="preserve"><tspan
         y="62.780594"
         x="1613.8911"
         id="tspan8174"
         sodipodi:role="line" /><tspan
         id="tspan8176"
         y="107.07193"
         x="1613.8911"
         sodipodi:role="line" /></text>
    <path
       style="opacity:1;fill:none;fill-opacity:1;stroke:#ff0000;stroke-width:0.829;stroke-linecap:butt;stroke-miterlimit:4;stroke-dasharray:none;stroke-opacity:1"
       d="m 154.62106,1041.1992 -0.005,-99.16384 C 63.589713,899.94115 0.41451266,807.83249 0.41451669,700.96848 0.41452221,554.42883 119.20838,435.63497 265.74803,435.63497 c 126.61615,0 232.51825,88.68739 258.9746,207.33046 4.16301,18.66892 6.35892,38.07954 6.35892,58.00305 0,5.84712 -0.18913,11.65007 -0.56162,17.40311 -6.42234,99.1937 -67.35192,183.54901 -153.14284,223.65186 l 0.13624,99.17575 -222.89227,0"
       id="path4462"
       inkscape:connector-curvature="0"
       sodipodi:nodetypes="ccsssssccc" />
    <path
       style="fill:#000000;fill-rule:evenodd;stroke:#000000;stroke-width:1px;stroke-linecap:butt;stroke-linejoin:miter;stroke-opacity:0.29411766;fill-opacity:0.29411766"
       d="m 170.47758,655.85425 c 14.56448,-41.0428 58.1483,-67.36018 102.47608,-63.25199 40.16269,3.72218 72.3862,29.45968 89.01944,63.52897 l 48.68268,-0.64208 C 390.57438,601.03828 342.82302,558.12516 281.64865,551.91482 213.89339,545.0364 147.29045,589.04721 132.59599,655.38347 Z"
       id="path4176"
       inkscape:connector-curvature="0"
       sodipodi:nodetypes="csccscc" />
    <path
       transform="scale(-1,-1)"
       style="fill:#000000;fill-rule:evenodd;stroke:#000000;stroke-width:1px;stroke-linecap:butt;stroke-linejoin:miter;stroke-opacity:0.29411766;fill-opacity:0.29411766"
       d="m -321.54083,-654.9575 c 12.77712,17.07486 31.94465,29.08485 54.70626,30.95571 25.87095,2.12643 51.34796,-10.67497 64.49551,-31.88063 l -28.87152,-0.27699 c -8.64682,6.12659 -19.49172,9.36776 -30.45036,8.60546 -9.05765,-0.63007 -17.28736,-3.64651 -24.31066,-8.35066 z m -6.49324,-92.42299 c 18.18349,-33.87922 57.30479,-54.62544 97.02339,-50.94442 34.97351,3.24126 63.92686,23.17642 81.80793,50.77008 l -43.92671,-0.16375 c -11.85298,-10.68469 -26.91402,-17.80242 -44.00031,-19.2068 -20.69497,-1.701 -41.13788,6.15017 -55.21929,20.2143 z"
       id="path4176-2"
       inkscape:connector-curvature="0"
       sodipodi:nodetypes="csccscccsccscc" />
    <path
       style="opacity:1;fill:#000000;fill-opacity:0.29411766;stroke:#000000;stroke-width:1.01148415;stroke-linecap:butt;stroke-miterlimit:4;stroke-dasharray:none;stroke-opacity:0.29411766"
       d="m 266.15382,452.61661 c 136.7047,0 247.52575,110.82105 247.52576,247.52575 0,94.92994 -53.43943,177.37844 -131.87641,218.90361 l -20.4584,0.40199 C 423.4345,881.88677 469.07095,818.75866 477.71717,741.87291 490.6924,626.49183 409.93999,513.00358 291.9563,500.13454 194.12106,489.46318 98.139746,556.74575 84.463715,655.82762 L 44.5,656.36221 l 0,90 53.517683,0.89365 c 22.480807,48.75695 67.630367,86.00396 124.298007,91.75649 63.63148,6.45945 126.24656,-31.96367 145.80417,-91.61084 l 49.13039,0.51403 C 397.64473,839.90542 305.57426,900.9988 212.0082,890.79311 94.024511,877.92408 13.272105,764.43581 26.247329,649.05474 c 1.03152,-9.1727 2.589529,-18.14959 4.873813,-27.19303 33.075682,-98.4762 125.789698,-169.2451 235.032678,-169.2451 z"
       id="path4201"
       inkscape:connector-curvature="0"
       sodipodi:nodetypes="ssccssccccsccsscs" />
  </g>
</svg>
