<?xml version="1.0" encoding="UTF-8" standalone="no"?>
<!-- Created with Inkscape (http://www.inkscape.org/) -->

<svg
   xmlns:dc="http://purl.org/dc/elements/1.1/"
   xmlns:cc="http://creativecommons.org/ns#"
   xmlns:rdf="http://www.w3.org/1999/02/22-rdf-syntax-ns#"
   xmlns:svg="http://www.w3.org/2000/svg"
   xmlns="http://www.w3.org/2000/svg"
   xmlns:sodipodi="http://sodipodi.sourceforge.net/DTD/sodipodi-0.dtd"
   xmlns:inkscape="http://www.inkscape.org/namespaces/inkscape"
   width="240mm"
   height="297mm"
   viewBox="0 0 850.3937 1052.3622"
   id="svg2"
   version="1.1"
   inkscape:version="0.91 r13725"
   sodipodi:docname="NOKIA 3.svg"
   inkscape:export-filename="D:\Fablab\trender\trender médium aimant.png"
   inkscape:export-xdpi="90"
   inkscape:export-ydpi="90">
  <defs
     id="defs4" />
  <sodipodi:namedview
     id="base"
     pagecolor="#ffffff"
     bordercolor="#66ab16"
     borderopacity="0.43921569"
     inkscape:pageopacity="0"
     inkscape:pageshadow="2"
     inkscape:zoom="1.4142136"
     inkscape:cx="281.86164"
     inkscape:cy="295.01849"
     inkscape:document-units="mm"
     inkscape:current-layer="layer1"
     showgrid="true"
     inkscape:window-width="526"
     inkscape:window-height="781"
     inkscape:window-x="711"
     inkscape:window-y="146"
     inkscape:window-maximized="0"
     showguides="false">
    <inkscape:grid
       type="xygrid"
       id="grid3336"
       empcolor="#583fff"
       empopacity="0.54117647"
       empspacing="10"
       units="mm"
       spacingx="3.5433071"
       spacingy="3.5433072"
       color="#d13fff"
       opacity="0.48235294"
       enabled="false" />
  </sodipodi:namedview>
  <metadata
     id="metadata7">
    <rdf:RDF>
      <cc:Work
         rdf:about="">
        <dc:format>image/svg+xml</dc:format>
        <dc:type
           rdf:resource="http://purl.org/dc/dcmitype/StillImage" />
        <dc:title></dc:title>
      </cc:Work>
    </rdf:RDF>
  </metadata>
  <g
     inkscape:label="Calque 1"
     inkscape:groupmode="layer"
     id="layer1">
    <path
       style="fill:#1c4598"
       inkscape:connector-curvature="0"
       id="path4"
       d="m 78.910126,732.65579 -18.767607,0 0,-63.82554 32.458408,0 37.238033,47.64991 0,-47.64991 18.76761,0 0,63.82554 -31.80068,0 -37.895764,-48.46356 0,48.46356 M 238.4007,712.9186 c 0,8.87224 -1.56882,11.93196 -4.16569,14.86502 -3.98056,4.36547 -9.77358,5.68095 -20.93572,5.68095 l -32.04429,0 c -11.16216,0 -16.96491,-1.31548 -20.94059,-5.68095 -2.59689,-2.93306 -4.16572,-5.99278 -4.16572,-14.86502 l 0,-24.60451 c 0,-8.86737 1.56883,-11.92222 4.16572,-14.86014 3.98055,-4.37035 9.77843,-5.68583 20.94059,-5.68583 l 32.04429,0 c 11.16214,0 16.95516,1.31548 20.93572,5.68583 2.59687,2.93792 4.16569,5.99277 4.16569,14.86014 l 0,24.60451 m -25.89071,4.37522 c 4.28752,0 5.79789,-0.25336 6.82592,-1.18882 0.95982,-0.87211 1.3837,-1.99759 1.3837,-5.74918 l 0,-19.47897 c 0,-3.75157 -0.42388,-4.8673 -1.3837,-5.74428 -1.02803,-0.94034 -2.5384,-1.18882 -6.82592,-1.18882 l -30.47058,0 c -4.28751,0 -5.79788,0.24848 -6.82103,1.18882 -0.9647,0.87698 -1.38857,1.99271 -1.38857,5.74428 l 0,19.47897 c 0,3.75159 0.42387,4.87707 1.38857,5.74918 1.02315,0.93546 2.53352,1.18882 6.82103,1.18882 l 30.47058,0 0,0 m 53.16515,-48.46357 0,63.82554 -19.61049,0 0,-63.82554 19.61049,0 m 33.13078,0 25.89073,0 -34.94323,29.85184 39.41101,33.9737 -27.70318,0 -35.78611,-33.28672 33.13078,-30.53882 m 33.97366,0 19.61538,0 0,63.82554 -19.61538,0 m 94.3886,0 -5.80275,-11.1183 -37.94935,0 -5.73455,11.11343 -21.66656,0 34.76295,-63.82067 24.38037,0 34.75807,63.82554 -22.74818,0 m -36.93593,-24.97965 24.38523,0 -12.19506,-23.10875 -12.19017,23.10875" />
    <flowRoot
       xml:space="preserve"
       id="flowRoot6272"
       style="font-style:normal;font-weight:normal;font-size:35.43307114px;line-height:125%;font-family:sans-serif;letter-spacing:0px;word-spacing:0px;fill:#000000;fill-opacity:1;stroke:none;stroke-width:1px;stroke-linecap:butt;stroke-linejoin:miter;stroke-opacity:1"
       transform="translate(7.8911861,-135.58162)"><flowRegion
         id="flowRegion6274"><rect
           id="rect6276"
           width="431"
           height="403"
           x="-59"
           y="674.36218" /></flowRegion><flowPara
         id="flowPara6278" /></flowRoot>    <flowRoot
       xml:space="preserve"
       id="flowRoot6286"
       style="font-style:normal;font-weight:normal;font-size:35.43307114px;line-height:125%;font-family:sans-serif;letter-spacing:0px;word-spacing:0px;fill:#000000;fill-opacity:1;stroke:none;stroke-width:1px;stroke-linecap:butt;stroke-linejoin:miter;stroke-opacity:1"
       transform="translate(7.8911861,-135.58162)"><flowRegion
         id="flowRegion6288"><rect
           id="rect6290"
           width="464"
           height="402"
           x="-56"
           y="689.36218" /></flowRegion><flowPara
         id="flowPara6292" /></flowRoot>    <flowRoot
       xml:space="preserve"
       id="flowRoot6272-6"
       style="font-style:normal;font-weight:normal;font-size:35.43307114px;line-height:125%;font-family:sans-serif;letter-spacing:0px;word-spacing:0px;fill:#000000;fill-opacity:1;stroke:none;stroke-width:1px;stroke-linecap:butt;stroke-linejoin:miter;stroke-opacity:1"
       transform="translate(1084.405,-523.47922)"><flowRegion
         id="flowRegion6274-2"><rect
           id="rect6276-1"
           width="431"
           height="403"
           x="-59"
           y="674.36218" /></flowRegion><flowPara
         id="flowPara6278-7" /></flowRoot>    <flowRoot
       xml:space="preserve"
       id="flowRoot6286-1"
       style="font-style:normal;font-weight:normal;font-size:35.43307114px;line-height:125%;font-family:sans-serif;letter-spacing:0px;word-spacing:0px;fill:#000000;fill-opacity:1;stroke:none;stroke-width:1px;stroke-linecap:butt;stroke-linejoin:miter;stroke-opacity:1"
       transform="translate(1084.405,-523.47922)"><flowRegion
         id="flowRegion6288-0"><rect
           id="rect6290-2"
           width="464"
           height="402"
           x="-56"
           y="689.36218" /></flowRegion><flowPara
         id="flowPara6292-6" /></flowRoot>    <text
       sodipodi:linespacing="125%"
       id="text8172"
       y="62.780594"
       x="1613.8911"
       style="font-style:normal;font-weight:normal;font-size:35.43307114px;line-height:125%;font-family:sans-serif;letter-spacing:0px;word-spacing:0px;fill:#000000;fill-opacity:1;stroke:none;stroke-width:1px;stroke-linecap:butt;stroke-linejoin:miter;stroke-opacity:1"
       xml:space="preserve"><tspan
         y="62.780594"
         x="1613.8911"
         id="tspan8174"
         sodipodi:role="line" /><tspan
         id="tspan8176"
         y="107.07193"
         x="1613.8911"
         sodipodi:role="line" /></text>
    <path
       style="opacity:1;fill:none;fill-opacity:1;stroke:#ff0000;stroke-width:0.82903337;stroke-linecap:butt;stroke-miterlimit:4;stroke-dasharray:none;stroke-opacity:1"
       d="m 154.62106,1041.1992 -0.005,-99.16384 C 63.589713,899.94115 0.41451266,807.83249 0.41451669,700.96848 0.41452221,554.42883 119.20838,435.63497 265.74803,435.63497 c 126.61615,0 232.51825,88.68739 258.9746,207.33046 4.16301,18.66892 6.35892,38.07954 6.35892,58.00305 0,5.84712 -0.18913,11.65007 -0.56162,17.40311 -6.42234,99.1937 -67.35192,183.54901 -153.14284,223.65186 l 0.13624,99.17575 -222.89227,0"
       id="path4462"
       inkscape:connector-curvature="0"
       sodipodi:nodetypes="ccsssssccc" />
    <g
       id="g4541"
       transform="translate(1201.8267,283.29856)">
      <path
         id="path4523"
         d="m -916.84807,372.59105 c -4.50951,-4.45787 -9.69187,-8.38602 -15.53801,-11.63137 -25.72137,-14.27862 -59.38208,-10.23607 -79.06312,10.92025 l -35.267,-0.26482 c 0.877,-1.88217 1.8288,-3.73682 2.856,-5.55875 26.0793,-46.25803 87.19787,-58.21125 131.95803,-32.62302 16.53399,9.45206 29.41839,22.60829 38.54555,37.84878 z m 14.78355,90.36351 c -0.93275,2.03355 -1.95256,4.03554 -3.05981,5.99953 -26.07925,46.25807 -87.19791,58.21125 -131.95807,32.62302 -16.5298,-9.44966 -29.4119,-22.60161 -38.5386,-37.83717 l -53.8967,-0.0981 c 12.4936,30.51601 34.1915,57.26289 64.7232,75.14104 64.5669,37.8078 153.11303,20.87474 191.62053,-45.64259 5.74096,-9.91685 9.94542,-20.50501 12.6389,-31.3806 z"
         style="fill:#000000;fill-rule:evenodd;stroke:#000000;stroke-width:1px;stroke-linecap:butt;stroke-linejoin:miter;stroke-opacity:1;opacity:0.25"
         inkscape:connector-curvature="0"
         sodipodi:nodetypes="csccsscccssccsscc" />
      <path
         id="path4523-1"
         d="m -937.63777,463.24033 c -19.69526,21.06047 -53.28391,25.06432 -78.96073,10.81044 -5.6401,-3.13095 -10.6623,-6.89742 -15.0586,-11.16194 z m 184.21836,-91.52295 c -3.30286,-10.65784 -7.37079,-21.69368 -12.19582,-31.75515 -17.66737,-36.84119 -45.48543,-68.99833 -83.06224,-91.44606 -90.3125,-53.9511 -214.64183,-30.62755 -269.55023,62.17014 -11.2385,18.99352 -18.4666,39.74815 -21.7817,60.927 l 52.061,-0.31673 c 2.7024,-10.18942 6.7413,-20.10452 12.1378,-29.42643 38.5075,-66.51732 127.05363,-83.45043 191.62059,-45.64258 22.80196,13.35193 40.67682,31.65042 53.47029,52.77127 4.45758,7.35906 7.92328,14.56076 11.14055,22.51524 z"
         style="opacity:0.25;fill:#000000;fill-rule:evenodd;stroke:#000000;stroke-width:1px;stroke-linecap:butt;stroke-linejoin:miter;stroke-opacity:1"
         inkscape:connector-curvature="0"
         sodipodi:nodetypes="cscccsssccssscc" />
    </g>
    <path
       style="opacity:0.25;fill:#000000;fill-rule:evenodd;stroke:#000000;stroke-width:0.99921262;stroke-linecap:butt;stroke-linejoin:miter;stroke-miterlimit:4;stroke-dasharray:none;stroke-opacity:1"
       d="m 352.5076,905.4419 c -15.84981,-10.68214 -29.85894,-24.66935 -38.3837,-38.49003 -13.54166,8.74807 -28.3659,16.34661 -43.9063,20.93064 12.48591,21.34686 32.03558,40.98492 54.68208,54.73312 l 52.22283,-0.0957 c 14.47816,-7.75292 29.01857,-15.40623 42.35284,-24.98938 C 397.3974,920.79 372.6736,916.97022 352.5076,905.4419 Z"
       id="path4593"
       inkscape:connector-curvature="0"
       sodipodi:nodetypes="ccccccc" />
    <path
       style="fill:none;fill-rule:evenodd;stroke:#000000;stroke-width:0.99921262;stroke-linecap:butt;stroke-linejoin:miter;stroke-miterlimit:4;stroke-dasharray:none;stroke-opacity:1"
       d="m 342.56371,844.40603 c -9.04301,8.62253 -18.78093,16.2831 -28.88353,22.82878 -61.97524,39.83435 -146.03907,41.60551 -211.86757,2.28069 C 49.098213,838.02484 15.588813,787.42639 2.3663125,731.59386"
       id="path4587" />
    <path
       style="fill:#000000;fill-rule:evenodd;stroke:#000000;stroke-width:0.99921262;stroke-linecap:butt;stroke-linejoin:miter;stroke-miterlimit:4;stroke-dasharray:none;stroke-opacity:1;opacity:0.25"
       d="m 520.04708,781.54459 c -8.35897,-16.45606 -20.80421,-30.90989 -37.56982,-41.76487 l -0.0117,6.90433 -117.58162,-0.0497 c -7.94371,6.46676 -13.64755,13.58085 -18.95885,23.00173 -13.0624,23.1696 -13.6736,51.44023 -3.33224,74.78379 6.28176,13.61469 16.51226,25.3934 30.59396,33.21054 29.90043,16.59852 70.52963,8.43882 87.45503,-22.58241 13.1168,-24.04062 6.4736,-56.62038 -18.5255,-69.9968 -19.08677,-10.21292 -44.88005,-4.86491 -55.29473,15.03419 -7.8194,14.94047 -3.5678,35.07031 12.05431,43.04201 11.50881,5.87274 26.96652,2.54017 32.94994,-9.53426 4.31356,-8.70466 -4.64795,-19.1237 -12.72853,-19.7982 -8.11356,-0.67726 -1.74229,14.52348 -10.27879,14.1578 -8.47164,-0.36291 -14.56722,-10.38644 -10.25366,-19.0911 5.98342,-12.07443 21.44113,-15.407 32.94994,-9.53426 15.62212,7.9717 19.87372,28.10154 12.05429,43.04201 -10.41466,19.8991 -36.20794,25.24711 -55.29471,15.03419 -24.9991,-13.37642 -31.6423,-45.95618 -18.5255,-69.9968 16.9254,-31.02123 57.5546,-39.18093 87.45502,-22.58241 25.44604,14.12577 38.31651,41.18746 37.86427,68.56158"
       id="path4585"
       inkscape:connector-curvature="0"
       sodipodi:nodetypes="ccccscssssssssssssssc" />
    <path
       style="fill:#000000;fill-rule:evenodd;stroke:#000000;stroke-width:0.99921262;stroke-linecap:butt;stroke-linejoin:miter;stroke-miterlimit:4;stroke-dasharray:none;stroke-opacity:1;opacity:0.25"
       d="m 436.41829,623.63079 c 29.64288,0.1063 60.84291,6.63877 88.33138,19.66709 4.59005,23.13348 7.4224,47.63405 6.03639,75.41558 -7.63865,-6.93117 -15.80726,-13.18597 -25.08919,-18.6211 -7.5111,-4.3982 -15.3467,-8.05561 -23.27014,-10.91775 L 482.25,654.8622 l -34.125,0 c -3.90224,-13.11551 -7.80447,-21.67466 -11.70671,-31.23141 z"
       id="path4523-1-1"
       inkscape:connector-curvature="0"
       sodipodi:nodetypes="cccscccc" />
  </g>
</svg>
