<?xml version="1.0" encoding="UTF-8" standalone="no"?>
<!-- Created with Inkscape (http://www.inkscape.org/) -->

<svg
   xmlns:dc="http://purl.org/dc/elements/1.1/"
   xmlns:cc="http://creativecommons.org/ns#"
   xmlns:rdf="http://www.w3.org/1999/02/22-rdf-syntax-ns#"
   xmlns:svg="http://www.w3.org/2000/svg"
   xmlns="http://www.w3.org/2000/svg"
   xmlns:sodipodi="http://sodipodi.sourceforge.net/DTD/sodipodi-0.dtd"
   xmlns:inkscape="http://www.inkscape.org/namespaces/inkscape"
   inkscape:version="0.91 r13725"
   version="1.1"
   id="svg2"
   viewBox="0 0 850.3937 1222.4409"
   height="345mm"
   width="240mm"
   sodipodi:docname="boite.svg">
  <sodipodi:namedview
     inkscape:window-maximized="1"
     inkscape:window-y="27"
     inkscape:window-x="0"
     inkscape:window-height="1021"
     inkscape:window-width="1920"
     showgrid="false"
     inkscape:document-units="mm"
     inkscape:cy="208.90224"
     inkscape:cx="497.57186"
     inkscape:zoom="1.4"
     inkscape:pageshadow="2"
     inkscape:pageopacity="0.0"
     borderopacity="1.0"
     bordercolor="#666666"
     pagecolor="#ffffff"
     id="base"
     inkscape:current-layer="g4941"
     fit-margin-top="10"
     fit-margin-left="10"
     fit-margin-right="10"
     fit-margin-bottom="10" />
  <defs
     id="defs4" />
  <metadata
     id="metadata7">
    <rdf:RDF>
      <cc:Work
         rdf:about="">
        <dc:format>image/svg+xml</dc:format>
        <dc:type
           rdf:resource="http://purl.org/dc/dcmitype/StillImage" />
        <dc:title></dc:title>
      </cc:Work>
    </rdf:RDF>
  </metadata>
  <g
     inkscape:label="Calque 1"
     inkscape:groupmode="layer"
     id="layer1"
     transform="translate(68.307707,20.737462)" />
  <g
     id="g4230"
     style="stroke-width:0.35433072;stroke-miterlimit:4;stroke-dasharray:none"
     transform="translate(68.307707,20.737462)" />
  <g
     transform="translate(830.79024,-215.38143)"
     id="g4235"
     style="stroke-width:0.35433072;stroke-miterlimit:4;stroke-dasharray:none" />
  <g
     id="g4302"
     transform="translate(113.51727,44.737462)">
    <path
       style="fill:#f2f2f2;stroke:#ff0000;stroke-width:0.35433072;stroke-miterlimit:4;stroke-dasharray:none"
       id="path4200"
       d="m 28.392136,32.247933 43.787099,0 0,28.346456 43.255605,0 0,-28.346456 43.96426,0 0,28.346456 43.2556,0 0,-28.346456 43.96427,0 0,28.346456 43.2556,0 0,-28.346456 43.96427,0 0,28.346456 43.2556,0 0,-28.346456 43.96426,0 0,28.346456 43.2556,0 0,-28.346456 43.96427,0 0,28.346456 43.2556,0 0,-28.346456 43.7871,0 0,47.421259 -28.34646,0 0,46.889768 28.34646,0 0,47.59842 -28.34646,0 0,46.88977 28.34646,0 0,47.59842 -28.34646,0 0,46.88976 28.34646,0 0,47.59843 -28.34646,0 0,46.88976 28.34646,0 0,47.42126 -43.7871,0 0,-28.34645 -43.2556,0 0,28.34645 -43.96427,0 0,-28.34645 -43.2556,0 0,28.34645 -43.96426,0 0,-28.34645 -43.2556,0 0,28.34645 -43.96427,0 0,-28.34645 -43.2556,0 0,28.34645 -43.96427,0 0,-28.34645 -43.2556,0 0,28.34645 -43.96426,0 0,-28.34645 -43.255605,0 0,28.34645 -43.787099,0 0,-47.42126 28.346457,0 0,-46.88976 -28.346457,0 0,-47.59843 28.346457,0 0,-46.88976 -28.346457,0 0,-47.59842 28.346457,0 0,-46.88977 -28.346457,0 0,-47.59842 28.346457,0 0,-46.889768 -28.346457,0 0,-47.421259 z"
       inkscape:connector-curvature="0" />
    <path
       sodipodi:nodetypes="cccccccccccccccccccccc"
       inkscape:connector-curvature="0"
       style="fill:none;stroke:#ff0000;stroke-width:0.35433072;stroke-miterlimit:4;stroke-dasharray:none"
       d="m 595.32057,32.070768 0,-14.23177 -28.34571,0 0,-14.23177 28.34571,0 0,-14.23177 -566.927736,0 0,14.23177 28.345802,0 c 0,7.115885 0,7.115885 0,14.23177 l -28.345802,0 0,14.23177 m 71.664066,-35.9316404 88.22851,0 0,20.9062504 -88.22851,0 z m 335.37109,0 88.22852,0 0,20.9062504 -88.22852,0 z"
       id="path4202" />
    <path
       sodipodi:nodetypes="ccccccccccccc"
       style="fill:none;stroke:#ff0000;stroke-width:0.35433072;stroke-miterlimit:4;stroke-dasharray:none"
       id="path4206"
       d="m 595.49844,60.594382 14.11417,0 0,-28.346438 14.11418,0 0,28.346438 14.11417,0 0,56.692868 0,311.81108 -14.11417,0 0,28.34646 -14.11418,0 0,-28.34646 -14.11417,0"
       inkscape:connector-curvature="0" />
    <path
       sodipodi:nodetypes="ccccccccccccc"
       style="fill:none;stroke:#ff0000;stroke-width:0.35433072;stroke-miterlimit:4;stroke-dasharray:none"
       id="path4208"
       d="m 28.214971,429.09833 -14.114173,0 0,28.34646 -14.11417367,0 0,-28.34646 -14.11417333,0 0,-56.69292 0,-311.811027 14.11417333,0 0,-28.346439 14.11417367,0 0,28.346439 14.114173,0"
       inkscape:connector-curvature="0" />
    <path
       sodipodi:nodetypes="cccccccccccccccccccccc"
       id="path4240"
       d="m 28.392834,457.62195 0,14.23178 28.345802,0 0,14.23179 -28.345802,0 0,14.23178 566.927736,0 0,-14.23178 -28.34571,0 0,-14.23179 28.34571,0 0,-14.23178 m -71.66406,35.93164 -88.22851,0 0,-20.90625 88.22851,0 z m -335.3711,0 -88.22852,0 0,-20.90625 88.22853,0 z"
       style="fill:none;stroke:#ff0000;stroke-width:0.35433072;stroke-miterlimit:4;stroke-dasharray:none"
       inkscape:connector-curvature="0" />
  </g>
  <g
     id="g4309"
     transform="translate(-751.93616,628.84929)">
    <path
       style="fill:#ffffff;stroke:#ff0000;stroke-width:0.35433078;stroke-miterlimit:4;stroke-dasharray:none"
       d="m 708.83789,654.80273 0,-20.17187 -28.3457,0 0,-20.16992 28.3457,0 0,-20.17188 -28.3457,0 0,-20.17187 28.3457,0 0,-20.16992 -566.92773,0 0,20.16992 28.3457,0 0,20.17187 -28.3457,0 0,20.17188 28.3457,0 0,20.16992 -28.3457,0 0,20.17187 m 71.66406,-92.85546 88.22851,0 0,20.90625 -88.22851,0 z m 335.37109,0 88.22852,0 0,20.90625 -88.22852,0 z"
       transform="translate(751.93616,-628.84929)"
       id="path4960"
       inkscape:connector-curvature="0"
       sodipodi:nodetypes="cccccccccccccccccccccccccccccc" />
    <g
       id="g4941">
      <g
         id="g4937">
        <path
           inkscape:connector-curvature="0"
           d="m 893.84575,26.13098 43.7871,0 0,28.346457 43.2556,0 0,-28.346457 43.96425,0 0,28.346457 43.2556,0 0,-28.346457 43.9642,0 0,28.346457 43.2556,0 0,-28.346457 43.9643,0 0,28.346457 43.2556,0 0,-28.346457 43.9642,0 0,28.346457 43.2556,0 0,-28.346457 43.9643,0 0,28.346457 43.2556,0 0,-28.346457 43.7871,0 0,47.42126 -28.3464,0 0,46.88976 28.3464,0 0,47.59843 -28.3464,0 0,46.88976 28.3464,0 0,47.59843 -28.3464,0 0,46.88976 28.3464,0 0,47.59843 -28.3464,0 0,46.88976 28.3464,0 0,47.42126 -43.7871,0 0,-28.34646 -43.2556,0 0,28.34646 -43.9643,0 0,-28.34646 -43.2556,0 0,28.34646 -43.9642,0 0,-28.34646 -43.2556,0 0,28.34646 -43.9643,0 0,-28.34646 -43.2556,0 0,28.34646 -43.9642,0 0,-28.34646 -43.2556,0 0,28.34646 -43.96425,0 0,-28.34646 -43.2556,0 0,28.34646 -43.7871,0 0,-47.42126 28.34646,0 0,-46.88976 -28.34646,0 0,-47.59843 28.34646,0 0,-46.88976 -28.34646,0 0,-47.59843 28.34646,0 0,-46.88976 -28.34646,0 0,-47.59843 28.34646,0 0,-46.88976 -28.34646,0 0,-47.42126 z"
           id="box_bottom"
           style="fill:#f2f2f2;stroke:#ff0000;stroke-width:0.35433072;stroke-miterlimit:4;stroke-dasharray:none" />
        <path
           sodipodi:nodetypes="cccccccccccccccccccc"
           inkscape:connector-curvature="0"
           d="m 1460.9521,54.47741 20.1209,0 0,-28.346412 20.1211,0 0,28.346412 20.1211,0 0,-28.346412 20.1209,0 0,28.346412 20.1211,0 0,368.50399 -20.1211,0 1e-4,28.34645 -20.121,0 0,-28.34645 -20.1211,0 0,28.34645 -20.1211,0 0,-28.34645 -20.1209,0"
           id="box_left_side"
           style="fill:none;stroke:#ff0000;stroke-width:0.35433075;stroke-miterlimit:4;stroke-dasharray:none" />
      </g>
      <path
         style="fill:none;stroke:#ff0000;stroke-width:0.35433072;stroke-miterlimit:4;stroke-dasharray:none"
         id="box_right_side"
         d="m 893.66858,422.98139 -20.12098,0 0,28.34646 -20.12109,0 0,-28.34646 -20.12098,0 0,28.34646 -20.12098,0 0,-28.34646 -20.12109,0 0,-368.50397 20.12109,0 0,-28.346422 20.12098,0 0,28.346422 20.12098,0 1.1e-4,-28.346422 20.12098,0 0,28.346422 20.12098,0"
         inkscape:connector-curvature="0"
         sodipodi:nodetypes="cccccccccccccccccccc" />
    </g>
    <path
       sodipodi:nodetypes="cccccccccccccccccccccccccccccc"
       inkscape:connector-curvature="0"
       id="path4975"
       d="m 1460.7741,451.50494 0,20.17187 -28.3457,0 0,20.16992 28.3457,0 0,20.17188 -28.3457,0 0,20.17187 28.3457,0 0,20.16992 -566.92778,0 0,-20.16992 28.3457,0 0,-20.17187 -28.3457,0 0,-20.17188 28.3457,0 0,-20.16992 -28.3457,0 0,-20.17187 m 71.66406,92.85546 88.22852,0 0,-20.90625 -88.22852,0 z m 335.37112,0 88.2285,0 0,-20.90625 -88.2285,0 z"
       style="fill:#ffffff;stroke:#ff0000;stroke-width:0.35433078;stroke-miterlimit:4;stroke-dasharray:none" />
  </g>
</svg>
