  0
SECTION
  2
HEADER
  9
$ACADVER
  1
AC1014
  9
$HANDSEED
  5
FFFF
  9
$MEASUREMENT
 70
     1
  0
ENDSEC
  0
SECTION
  2
TABLES
  0
TABLE
  2
VPORT
  5
8
330
0
100
AcDbSymbolTable
 70
     4
  0
VPORT
  5
2E
330
8
100
AcDbSymbolTableRecord
100
AcDbViewportTableRecord
  2
*ACTIVE
 70
     0
 10
0.0
 20
0.0
 11
1.0
 21
1.0
 12
210.0
 22
148.5
 13
0.0
 23
0.0
 14
10.0
 24
10.0
 15
10.0
 25
10.0
 16
0.0
 26
0.0
 36
1.0
 17
0.0
 27
0.0
 37
0.0
 40
341.0
 41
1.24
 42
50.0
 43
0.0
 44
0.0
 50
0.0
 51
0.0
 71
     0
 72
   100
 73
     1
 74
     3
 75
     0
 76
     0
 77
     0
 78
     0
  0
ENDTAB
  0
TABLE
  2
LTYPE
  5
5
330
0
100
AcDbSymbolTable
 70
     1
  0
LTYPE
  5
14
330
5
100
AcDbSymbolTableRecord
100
AcDbLinetypeTableRecord
  2
BYBLOCK
 70
     0
  3

 72
    65
 73
     0
 40
0.0
  0
LTYPE
  5
15
330
5
100
AcDbSymbolTableRecord
100
AcDbLinetypeTableRecord
  2
BYLAYER
 70
     0
  3

 72
    65
 73
     0
 40
0.0
  0
LTYPE
  5
16
330
5
100
AcDbSymbolTableRecord
100
AcDbLinetypeTableRecord
  2
CONTINUOUS
 70
     0
  3
Solid line
 72
    65
 73
     0
 40
0.0
  0
ENDTAB
  0
TABLE
  2
LAYER
  5
2
100
AcDbSymbolTable
 70
2
  0
LAYER
  5
50
100
AcDbSymbolTableRecord
100
AcDbLayerTableRecord
  2
0
 70
0
  6
CONTINUOUS
  0
LAYER
  5
51
100
AcDbSymbolTableRecord
100
AcDbLayerTableRecord
  2
Calque_1
 70
0
  6
CONTINUOUS
  0
ENDTAB
  0
TABLE
  2
STYLE
  5
3
330
0
100
AcDbSymbolTable
 70
     1
  0
STYLE
  5
11
330
3
100
AcDbSymbolTableRecord
100
AcDbTextStyleTableRecord
  2
STANDARD
 70
     0
 40
0.0
 41
1.0
 50
0.0
 71
     0
 42
2.5
  3
txt
  4

  0
ENDTAB
  0
TABLE
  2
VIEW
  5
6
330
0
100
AcDbSymbolTable
 70
     0
  0
ENDTAB
  0
TABLE
  2
UCS
  5
7
330
0
100
AcDbSymbolTable
 70
     0
  0
ENDTAB
  0
TABLE
  2
APPID
  5
9
330
0
100
AcDbSymbolTable
 70
     2
  0
APPID
  5
12
330
9
100
AcDbSymbolTableRecord
100
AcDbRegAppTableRecord
  2
ACAD
 70
     0
  0
ENDTAB
  0
TABLE
  2
DIMSTYLE
  5
A
330
0
100
AcDbSymbolTable
 70
     1
  0
DIMSTYLE
105
27
330
A
100
AcDbSymbolTableRecord
100
AcDbDimStyleTableRecord
  2
ISO-25
 70
     0
  3

  4

  5

  6

  7

 40
1.0
 41
2.5
 42
0.625
 43
3.75
 44
1.25
 45
0.0
 46
0.0
 47
0.0
 48
0.0
140
2.5
141
2.5
142
0.0
143
0.03937007874016
144
1.0
145
0.0
146
1.0
147
0.625
 71
     0
 72
     0
 73
     0
 74
     0
 75
     0
 76
     0
 77
     1
 78
     8
170
     0
171
     3
172
     1
173
     0
174
     0
175
     0
176
     0
177
     0
178
     0
270
     2
271
     2
272
     2
273
     2
274
     3
340
11
275
     0
280
     0
281
     0
282
     0
283
     0
284
     8
285
     0
286
     0
287
     3
288
     0
  0
ENDTAB
  0
TABLE
  2
BLOCK_RECORD
  5
1
330
0
100
AcDbSymbolTable
 70
     1
  0
BLOCK_RECORD
  5
1F
330
1
100
AcDbSymbolTableRecord
100
AcDbBlockTableRecord
  2
*MODEL_SPACE
  0
BLOCK_RECORD
  5
1B
330
1
100
AcDbSymbolTableRecord
100
AcDbBlockTableRecord
  2
*PAPER_SPACE
  0
ENDTAB
  0
ENDSEC
  0
SECTION
  2
BLOCKS
  0
BLOCK
  5
20
330
1F
100
AcDbEntity
  8
0
100
AcDbBlockBegin
  2
*MODEL_SPACE
 70
     0
 10
0.0
 20
0.0
 30
0.0
  3
*MODEL_SPACE
  1

  0
ENDBLK
  5
21
330
1F
100
AcDbEntity
  8
0
100
AcDbBlockEnd
  0
BLOCK
  5
1C
330
1B
100
AcDbEntity
 67
     1
  8
0
100
AcDbBlockBegin
  2
*PAPER_SPACE
  1

  0
ENDBLK
  5
1D
330
1B
100
AcDbEntity
 67
     1
  8
0
100
AcDbBlockEnd
  0
ENDSEC
  0
SECTION
  2
ENTITIES
  0
LINE
  5
100
100
AcDbEntity
  8
Calque_1
 62
1
100
AcDbLine
 10
40.049988
 20
323.273011
 30
0.0
 11
52.407680
 21
323.273011
 31
0.0
  0
LINE
  5
101
100
AcDbEntity
  8
Calque_1
 62
1
100
AcDbLine
 10
52.407680
 20
323.273011
 30
0.0
 11
52.407680
 21
315.273011
 31
0.0
  0
LINE
  5
102
100
AcDbEntity
  8
Calque_1
 62
1
100
AcDbLine
 10
52.407680
 20
315.273011
 30
0.0
 11
64.615373
 21
315.273011
 31
0.0
  0
LINE
  5
103
100
AcDbEntity
  8
Calque_1
 62
1
100
AcDbLine
 10
64.615373
 20
315.273011
 30
0.0
 11
64.615373
 21
323.273011
 31
0.0
  0
LINE
  5
104
100
AcDbEntity
  8
Calque_1
 62
1
100
AcDbLine
 10
64.615373
 20
323.273011
 30
0.0
 11
77.023064
 21
323.273011
 31
0.0
  0
LINE
  5
105
100
AcDbEntity
  8
Calque_1
 62
1
100
AcDbLine
 10
77.023064
 20
323.273011
 30
0.0
 11
77.023064
 21
315.273011
 31
0.0
  0
LINE
  5
106
100
AcDbEntity
  8
Calque_1
 62
1
100
AcDbLine
 10
77.023064
 20
315.273011
 30
0.0
 11
89.230756
 21
315.273011
 31
0.0
  0
LINE
  5
107
100
AcDbEntity
  8
Calque_1
 62
1
100
AcDbLine
 10
89.230756
 20
315.273011
 30
0.0
 11
89.230756
 21
323.273011
 31
0.0
  0
LINE
  5
108
100
AcDbEntity
  8
Calque_1
 62
1
100
AcDbLine
 10
89.230756
 20
323.273011
 30
0.0
 11
101.638450
 21
323.273011
 31
0.0
  0
LINE
  5
109
100
AcDbEntity
  8
Calque_1
 62
1
100
AcDbLine
 10
101.638450
 20
323.273011
 30
0.0
 11
101.638450
 21
315.273011
 31
0.0
  0
LINE
  5
10a
100
AcDbEntity
  8
Calque_1
 62
1
100
AcDbLine
 10
101.638450
 20
315.273011
 30
0.0
 11
113.846142
 21
315.273011
 31
0.0
  0
LINE
  5
10b
100
AcDbEntity
  8
Calque_1
 62
1
100
AcDbLine
 10
113.846142
 20
315.273011
 30
0.0
 11
113.846142
 21
323.273011
 31
0.0
  0
LINE
  5
10c
100
AcDbEntity
  8
Calque_1
 62
1
100
AcDbLine
 10
113.846142
 20
323.273011
 30
0.0
 11
126.253835
 21
323.273011
 31
0.0
  0
LINE
  5
10d
100
AcDbEntity
  8
Calque_1
 62
1
100
AcDbLine
 10
126.253835
 20
323.273011
 30
0.0
 11
126.253835
 21
315.273011
 31
0.0
  0
LINE
  5
10e
100
AcDbEntity
  8
Calque_1
 62
1
100
AcDbLine
 10
126.253835
 20
315.273011
 30
0.0
 11
138.461527
 21
315.273011
 31
0.0
  0
LINE
  5
10f
100
AcDbEntity
  8
Calque_1
 62
1
100
AcDbLine
 10
138.461527
 20
315.273011
 30
0.0
 11
138.461527
 21
323.273011
 31
0.0
  0
LINE
  5
110
100
AcDbEntity
  8
Calque_1
 62
1
100
AcDbLine
 10
138.461527
 20
323.273011
 30
0.0
 11
150.869218
 21
323.273011
 31
0.0
  0
LINE
  5
111
100
AcDbEntity
  8
Calque_1
 62
1
100
AcDbLine
 10
150.869218
 20
323.273011
 30
0.0
 11
150.869218
 21
315.273011
 31
0.0
  0
LINE
  5
112
100
AcDbEntity
  8
Calque_1
 62
1
100
AcDbLine
 10
150.869218
 20
315.273011
 30
0.0
 11
163.076910
 21
315.273011
 31
0.0
  0
LINE
  5
113
100
AcDbEntity
  8
Calque_1
 62
1
100
AcDbLine
 10
163.076910
 20
315.273011
 30
0.0
 11
163.076910
 21
323.273011
 31
0.0
  0
LINE
  5
114
100
AcDbEntity
  8
Calque_1
 62
1
100
AcDbLine
 10
163.076910
 20
323.273011
 30
0.0
 11
175.484604
 21
323.273011
 31
0.0
  0
LINE
  5
115
100
AcDbEntity
  8
Calque_1
 62
1
100
AcDbLine
 10
175.484604
 20
323.273011
 30
0.0
 11
175.484604
 21
315.273011
 31
0.0
  0
LINE
  5
116
100
AcDbEntity
  8
Calque_1
 62
1
100
AcDbLine
 10
175.484604
 20
315.273011
 30
0.0
 11
187.692295
 21
315.273011
 31
0.0
  0
LINE
  5
117
100
AcDbEntity
  8
Calque_1
 62
1
100
AcDbLine
 10
187.692295
 20
315.273011
 30
0.0
 11
187.692295
 21
323.273011
 31
0.0
  0
LINE
  5
118
100
AcDbEntity
  8
Calque_1
 62
1
100
AcDbLine
 10
187.692295
 20
323.273011
 30
0.0
 11
200.049988
 21
323.273011
 31
0.0
  0
LINE
  5
119
100
AcDbEntity
  8
Calque_1
 62
1
100
AcDbLine
 10
200.049988
 20
323.273011
 30
0.0
 11
200.049988
 21
309.889678
 31
0.0
  0
LINE
  5
11a
100
AcDbEntity
  8
Calque_1
 62
1
100
AcDbLine
 10
200.049988
 20
309.889678
 30
0.0
 11
192.049987
 21
309.889678
 31
0.0
  0
LINE
  5
11b
100
AcDbEntity
  8
Calque_1
 62
1
100
AcDbLine
 10
192.049987
 20
309.889678
 30
0.0
 11
192.049987
 21
296.656343
 31
0.0
  0
LINE
  5
11c
100
AcDbEntity
  8
Calque_1
 62
1
100
AcDbLine
 10
192.049987
 20
296.656343
 30
0.0
 11
200.049988
 21
296.656343
 31
0.0
  0
LINE
  5
11d
100
AcDbEntity
  8
Calque_1
 62
1
100
AcDbLine
 10
200.049988
 20
296.656343
 30
0.0
 11
200.049988
 21
283.223011
 31
0.0
  0
LINE
  5
11e
100
AcDbEntity
  8
Calque_1
 62
1
100
AcDbLine
 10
200.049988
 20
283.223011
 30
0.0
 11
192.049987
 21
283.223011
 31
0.0
  0
LINE
  5
11f
100
AcDbEntity
  8
Calque_1
 62
1
100
AcDbLine
 10
192.049987
 20
283.223011
 30
0.0
 11
192.049987
 21
269.989676
 31
0.0
  0
LINE
  5
120
100
AcDbEntity
  8
Calque_1
 62
1
100
AcDbLine
 10
192.049987
 20
269.989676
 30
0.0
 11
200.049988
 21
269.989676
 31
0.0
  0
LINE
  5
121
100
AcDbEntity
  8
Calque_1
 62
1
100
AcDbLine
 10
200.049988
 20
269.989676
 30
0.0
 11
200.049988
 21
256.556344
 31
0.0
  0
LINE
  5
122
100
AcDbEntity
  8
Calque_1
 62
1
100
AcDbLine
 10
200.049988
 20
256.556344
 30
0.0
 11
192.049987
 21
256.556344
 31
0.0
  0
LINE
  5
123
100
AcDbEntity
  8
Calque_1
 62
1
100
AcDbLine
 10
192.049987
 20
256.556344
 30
0.0
 11
192.049987
 21
243.323012
 31
0.0
  0
LINE
  5
124
100
AcDbEntity
  8
Calque_1
 62
1
100
AcDbLine
 10
192.049987
 20
243.323012
 30
0.0
 11
200.049988
 21
243.323012
 31
0.0
  0
LINE
  5
125
100
AcDbEntity
  8
Calque_1
 62
1
100
AcDbLine
 10
200.049988
 20
243.323012
 30
0.0
 11
200.049988
 21
229.889677
 31
0.0
  0
LINE
  5
126
100
AcDbEntity
  8
Calque_1
 62
1
100
AcDbLine
 10
200.049988
 20
229.889677
 30
0.0
 11
192.049987
 21
229.889677
 31
0.0
  0
LINE
  5
127
100
AcDbEntity
  8
Calque_1
 62
1
100
AcDbLine
 10
192.049987
 20
229.889677
 30
0.0
 11
192.049987
 21
216.656345
 31
0.0
  0
LINE
  5
128
100
AcDbEntity
  8
Calque_1
 62
1
100
AcDbLine
 10
192.049987
 20
216.656345
 30
0.0
 11
200.049988
 21
216.656345
 31
0.0
  0
LINE
  5
129
100
AcDbEntity
  8
Calque_1
 62
1
100
AcDbLine
 10
200.049988
 20
216.656345
 30
0.0
 11
200.049988
 21
203.273012
 31
0.0
  0
LINE
  5
12a
100
AcDbEntity
  8
Calque_1
 62
1
100
AcDbLine
 10
200.049988
 20
203.273012
 30
0.0
 11
187.692295
 21
203.273012
 31
0.0
  0
LINE
  5
12b
100
AcDbEntity
  8
Calque_1
 62
1
100
AcDbLine
 10
187.692295
 20
203.273012
 30
0.0
 11
187.692295
 21
211.273010
 31
0.0
  0
LINE
  5
12c
100
AcDbEntity
  8
Calque_1
 62
1
100
AcDbLine
 10
187.692295
 20
211.273010
 30
0.0
 11
175.484604
 21
211.273010
 31
0.0
  0
LINE
  5
12d
100
AcDbEntity
  8
Calque_1
 62
1
100
AcDbLine
 10
175.484604
 20
211.273010
 30
0.0
 11
175.484604
 21
203.273012
 31
0.0
  0
LINE
  5
12e
100
AcDbEntity
  8
Calque_1
 62
1
100
AcDbLine
 10
175.484604
 20
203.273012
 30
0.0
 11
163.076910
 21
203.273012
 31
0.0
  0
LINE
  5
12f
100
AcDbEntity
  8
Calque_1
 62
1
100
AcDbLine
 10
163.076910
 20
203.273012
 30
0.0
 11
163.076910
 21
211.273010
 31
0.0
  0
LINE
  5
130
100
AcDbEntity
  8
Calque_1
 62
1
100
AcDbLine
 10
163.076910
 20
211.273010
 30
0.0
 11
150.869218
 21
211.273010
 31
0.0
  0
LINE
  5
131
100
AcDbEntity
  8
Calque_1
 62
1
100
AcDbLine
 10
150.869218
 20
211.273010
 30
0.0
 11
150.869218
 21
203.273012
 31
0.0
  0
LINE
  5
132
100
AcDbEntity
  8
Calque_1
 62
1
100
AcDbLine
 10
150.869218
 20
203.273012
 30
0.0
 11
138.461527
 21
203.273012
 31
0.0
  0
LINE
  5
133
100
AcDbEntity
  8
Calque_1
 62
1
100
AcDbLine
 10
138.461527
 20
203.273012
 30
0.0
 11
138.461527
 21
211.273010
 31
0.0
  0
LINE
  5
134
100
AcDbEntity
  8
Calque_1
 62
1
100
AcDbLine
 10
138.461527
 20
211.273010
 30
0.0
 11
126.253835
 21
211.273010
 31
0.0
  0
LINE
  5
135
100
AcDbEntity
  8
Calque_1
 62
1
100
AcDbLine
 10
126.253835
 20
211.273010
 30
0.0
 11
126.253835
 21
203.273012
 31
0.0
  0
LINE
  5
136
100
AcDbEntity
  8
Calque_1
 62
1
100
AcDbLine
 10
126.253835
 20
203.273012
 30
0.0
 11
113.846142
 21
203.273012
 31
0.0
  0
LINE
  5
137
100
AcDbEntity
  8
Calque_1
 62
1
100
AcDbLine
 10
113.846142
 20
203.273012
 30
0.0
 11
113.846142
 21
211.273010
 31
0.0
  0
LINE
  5
138
100
AcDbEntity
  8
Calque_1
 62
1
100
AcDbLine
 10
113.846142
 20
211.273010
 30
0.0
 11
101.638450
 21
211.273010
 31
0.0
  0
LINE
  5
139
100
AcDbEntity
  8
Calque_1
 62
1
100
AcDbLine
 10
101.638450
 20
211.273010
 30
0.0
 11
101.638450
 21
203.273012
 31
0.0
  0
LINE
  5
13a
100
AcDbEntity
  8
Calque_1
 62
1
100
AcDbLine
 10
101.638450
 20
203.273012
 30
0.0
 11
89.230756
 21
203.273012
 31
0.0
  0
LINE
  5
13b
100
AcDbEntity
  8
Calque_1
 62
1
100
AcDbLine
 10
89.230756
 20
203.273012
 30
0.0
 11
89.230756
 21
211.273010
 31
0.0
  0
LINE
  5
13c
100
AcDbEntity
  8
Calque_1
 62
1
100
AcDbLine
 10
89.230756
 20
211.273010
 30
0.0
 11
77.023064
 21
211.273010
 31
0.0
  0
LINE
  5
13d
100
AcDbEntity
  8
Calque_1
 62
1
100
AcDbLine
 10
77.023064
 20
211.273010
 30
0.0
 11
77.023064
 21
203.273012
 31
0.0
  0
LINE
  5
13e
100
AcDbEntity
  8
Calque_1
 62
1
100
AcDbLine
 10
77.023064
 20
203.273012
 30
0.0
 11
64.615373
 21
203.273012
 31
0.0
  0
LINE
  5
13f
100
AcDbEntity
  8
Calque_1
 62
1
100
AcDbLine
 10
64.615373
 20
203.273012
 30
0.0
 11
64.615373
 21
211.273010
 31
0.0
  0
LINE
  5
140
100
AcDbEntity
  8
Calque_1
 62
1
100
AcDbLine
 10
64.615373
 20
211.273010
 30
0.0
 11
52.407680
 21
211.273010
 31
0.0
  0
LINE
  5
141
100
AcDbEntity
  8
Calque_1
 62
1
100
AcDbLine
 10
52.407680
 20
211.273010
 30
0.0
 11
52.407680
 21
203.273012
 31
0.0
  0
LINE
  5
142
100
AcDbEntity
  8
Calque_1
 62
1
100
AcDbLine
 10
52.407680
 20
203.273012
 30
0.0
 11
40.049988
 21
203.273012
 31
0.0
  0
LINE
  5
143
100
AcDbEntity
  8
Calque_1
 62
1
100
AcDbLine
 10
40.049988
 20
203.273012
 30
0.0
 11
40.049988
 21
216.656345
 31
0.0
  0
LINE
  5
144
100
AcDbEntity
  8
Calque_1
 62
1
100
AcDbLine
 10
40.049988
 20
216.656345
 30
0.0
 11
48.049988
 21
216.656345
 31
0.0
  0
LINE
  5
145
100
AcDbEntity
  8
Calque_1
 62
1
100
AcDbLine
 10
48.049988
 20
216.656345
 30
0.0
 11
48.049988
 21
229.889677
 31
0.0
  0
LINE
  5
146
100
AcDbEntity
  8
Calque_1
 62
1
100
AcDbLine
 10
48.049988
 20
229.889677
 30
0.0
 11
40.049988
 21
229.889677
 31
0.0
  0
LINE
  5
147
100
AcDbEntity
  8
Calque_1
 62
1
100
AcDbLine
 10
40.049988
 20
229.889677
 30
0.0
 11
40.049988
 21
243.323012
 31
0.0
  0
LINE
  5
148
100
AcDbEntity
  8
Calque_1
 62
1
100
AcDbLine
 10
40.049988
 20
243.323012
 30
0.0
 11
48.049988
 21
243.323012
 31
0.0
  0
LINE
  5
149
100
AcDbEntity
  8
Calque_1
 62
1
100
AcDbLine
 10
48.049988
 20
243.323012
 30
0.0
 11
48.049988
 21
256.556344
 31
0.0
  0
LINE
  5
14a
100
AcDbEntity
  8
Calque_1
 62
1
100
AcDbLine
 10
48.049988
 20
256.556344
 30
0.0
 11
40.049988
 21
256.556344
 31
0.0
  0
LINE
  5
14b
100
AcDbEntity
  8
Calque_1
 62
1
100
AcDbLine
 10
40.049988
 20
256.556344
 30
0.0
 11
40.049988
 21
269.989676
 31
0.0
  0
LINE
  5
14c
100
AcDbEntity
  8
Calque_1
 62
1
100
AcDbLine
 10
40.049988
 20
269.989676
 30
0.0
 11
48.049988
 21
269.989676
 31
0.0
  0
LINE
  5
14d
100
AcDbEntity
  8
Calque_1
 62
1
100
AcDbLine
 10
48.049988
 20
269.989676
 30
0.0
 11
48.049988
 21
283.223011
 31
0.0
  0
LINE
  5
14e
100
AcDbEntity
  8
Calque_1
 62
1
100
AcDbLine
 10
48.049988
 20
283.223011
 30
0.0
 11
40.049988
 21
283.223011
 31
0.0
  0
LINE
  5
14f
100
AcDbEntity
  8
Calque_1
 62
1
100
AcDbLine
 10
40.049988
 20
283.223011
 30
0.0
 11
40.049988
 21
296.656343
 31
0.0
  0
LINE
  5
150
100
AcDbEntity
  8
Calque_1
 62
1
100
AcDbLine
 10
40.049988
 20
296.656343
 30
0.0
 11
48.049988
 21
296.656343
 31
0.0
  0
LINE
  5
151
100
AcDbEntity
  8
Calque_1
 62
1
100
AcDbLine
 10
48.049988
 20
296.656343
 30
0.0
 11
48.049988
 21
309.889678
 31
0.0
  0
LINE
  5
152
100
AcDbEntity
  8
Calque_1
 62
1
100
AcDbLine
 10
48.049988
 20
309.889678
 30
0.0
 11
40.049988
 21
309.889678
 31
0.0
  0
LINE
  5
153
100
AcDbEntity
  8
Calque_1
 62
1
100
AcDbLine
 10
40.049988
 20
309.889678
 30
0.0
 11
40.049988
 21
323.273011
 31
0.0
  0
LINE
  5
154
100
AcDbEntity
  8
Calque_1
 62
1
100
AcDbLine
 10
40.049988
 20
323.273011
 30
0.0
 11
40.049988
 21
323.273011
 31
0.0
  0
LINE
  5
155
100
AcDbEntity
  8
Calque_1
 62
1
100
AcDbLine
 10
200.049790
 20
323.323011
 30
0.0
 11
200.049790
 21
327.339532
 31
0.0
  0
LINE
  5
156
100
AcDbEntity
  8
Calque_1
 62
1
100
AcDbLine
 10
200.049790
 20
327.339532
 30
0.0
 11
192.050001
 21
327.339532
 31
0.0
  0
LINE
  5
157
100
AcDbEntity
  8
Calque_1
 62
1
100
AcDbLine
 10
192.050001
 20
327.339532
 30
0.0
 11
192.050001
 21
331.356054
 31
0.0
  0
LINE
  5
158
100
AcDbEntity
  8
Calque_1
 62
1
100
AcDbLine
 10
192.050001
 20
331.356054
 30
0.0
 11
200.049790
 21
331.356054
 31
0.0
  0
LINE
  5
159
100
AcDbEntity
  8
Calque_1
 62
1
100
AcDbLine
 10
200.049790
 20
331.356054
 30
0.0
 11
200.049790
 21
335.372576
 31
0.0
  0
LINE
  5
15a
100
AcDbEntity
  8
Calque_1
 62
1
100
AcDbLine
 10
200.049790
 20
335.372576
 30
0.0
 11
40.050185
 21
335.372576
 31
0.0
  0
LINE
  5
15b
100
AcDbEntity
  8
Calque_1
 62
1
100
AcDbLine
 10
40.050185
 20
335.372576
 30
0.0
 11
40.050185
 21
331.356054
 31
0.0
  0
LINE
  5
15c
100
AcDbEntity
  8
Calque_1
 62
1
100
AcDbLine
 10
40.050185
 20
331.356054
 30
0.0
 11
48.050000
 21
331.356054
 31
0.0
  0
SPLINE
  5
15d
100
AcDbEntity
  8
Calque_1
 62
1
100
AcDbSpline
 70
8
 71
3
 72
8
 73
4
 74
0
 40
0
 40
0
 40
0
 40
0
 40
1
 40
1
 40
1
 40
1
 10
48.050000
 20
331.356054
 30
0.0
 10
48.050000
 20
329.347793
 30
0.0
 10
48.050000
 20
329.347793
 30
0.0
 10
48.050000
 20
327.339532
 30
0.0
  0
LINE
  5
15e
100
AcDbEntity
  8
Calque_1
 62
1
100
AcDbLine
 10
48.050000
 20
327.339532
 30
0.0
 11
40.050185
 21
327.339532
 31
0.0
  0
LINE
  5
15f
100
AcDbEntity
  8
Calque_1
 62
1
100
AcDbLine
 10
40.050185
 20
327.339532
 30
0.0
 11
40.050185
 21
323.323011
 31
0.0
  0
LINE
  5
160
100
AcDbEntity
  8
Calque_1
 62
1
100
AcDbLine
 10
60.275377
 20
333.463718
 30
0.0
 11
85.175423
 21
333.463718
 31
0.0
  0
LINE
  5
161
100
AcDbEntity
  8
Calque_1
 62
1
100
AcDbLine
 10
85.175423
 20
333.463718
 30
0.0
 11
85.175423
 21
327.563510
 31
0.0
  0
LINE
  5
162
100
AcDbEntity
  8
Calque_1
 62
1
100
AcDbLine
 10
85.175423
 20
327.563510
 30
0.0
 11
60.275377
 21
327.563510
 31
0.0
  0
LINE
  5
163
100
AcDbEntity
  8
Calque_1
 62
1
100
AcDbLine
 10
60.275377
 20
327.563510
 30
0.0
 11
60.275377
 21
333.463718
 31
0.0
  0
LINE
  5
164
100
AcDbEntity
  8
Calque_1
 62
1
100
AcDbLine
 10
154.924551
 20
333.463718
 30
0.0
 11
179.824600
 21
333.463718
 31
0.0
  0
LINE
  5
165
100
AcDbEntity
  8
Calque_1
 62
1
100
AcDbLine
 10
179.824600
 20
333.463718
 30
0.0
 11
179.824600
 21
327.563510
 31
0.0
  0
LINE
  5
166
100
AcDbEntity
  8
Calque_1
 62
1
100
AcDbLine
 10
179.824600
 20
327.563510
 30
0.0
 11
154.924551
 21
327.563510
 31
0.0
  0
LINE
  5
167
100
AcDbEntity
  8
Calque_1
 62
1
100
AcDbLine
 10
154.924551
 20
327.563510
 30
0.0
 11
154.924551
 21
333.463718
 31
0.0
  0
LINE
  5
168
100
AcDbEntity
  8
Calque_1
 62
1
100
AcDbLine
 10
200.099989
 20
315.273013
 30
0.0
 11
204.083322
 21
315.273013
 31
0.0
  0
LINE
  5
169
100
AcDbEntity
  8
Calque_1
 62
1
100
AcDbLine
 10
204.083322
 20
315.273013
 30
0.0
 11
204.083322
 21
323.273008
 31
0.0
  0
LINE
  5
16a
100
AcDbEntity
  8
Calque_1
 62
1
100
AcDbLine
 10
204.083322
 20
323.273008
 30
0.0
 11
208.066657
 21
323.273008
 31
0.0
  0
LINE
  5
16b
100
AcDbEntity
  8
Calque_1
 62
1
100
AcDbLine
 10
208.066657
 20
323.273008
 30
0.0
 11
208.066657
 21
315.273013
 31
0.0
  0
LINE
  5
16c
100
AcDbEntity
  8
Calque_1
 62
1
100
AcDbLine
 10
208.066657
 20
315.273013
 30
0.0
 11
212.049989
 21
315.273013
 31
0.0
  0
LINE
  5
16d
100
AcDbEntity
  8
Calque_1
 62
1
100
AcDbLine
 10
212.049989
 20
315.273013
 30
0.0
 11
212.049989
 21
299.273026
 31
0.0
  0
LINE
  5
16e
100
AcDbEntity
  8
Calque_1
 62
1
100
AcDbLine
 10
212.049989
 20
299.273026
 30
0.0
 11
212.049989
 21
211.273010
 31
0.0
  0
LINE
  5
16f
100
AcDbEntity
  8
Calque_1
 62
1
100
AcDbLine
 10
212.049989
 20
211.273010
 30
0.0
 11
208.066657
 21
211.273010
 31
0.0
  0
LINE
  5
170
100
AcDbEntity
  8
Calque_1
 62
1
100
AcDbLine
 10
208.066657
 20
211.273010
 30
0.0
 11
208.066657
 21
203.273009
 31
0.0
  0
LINE
  5
171
100
AcDbEntity
  8
Calque_1
 62
1
100
AcDbLine
 10
208.066657
 20
203.273009
 30
0.0
 11
204.083322
 21
203.273009
 31
0.0
  0
LINE
  5
172
100
AcDbEntity
  8
Calque_1
 62
1
100
AcDbLine
 10
204.083322
 20
203.273009
 30
0.0
 11
204.083322
 21
211.273010
 31
0.0
  0
LINE
  5
173
100
AcDbEntity
  8
Calque_1
 62
1
100
AcDbLine
 10
204.083322
 20
211.273010
 30
0.0
 11
200.099989
 21
211.273010
 31
0.0
  0
LINE
  5
174
100
AcDbEntity
  8
Calque_1
 62
1
100
AcDbLine
 10
39.999988
 20
211.273010
 30
0.0
 11
36.016655
 21
211.273010
 31
0.0
  0
LINE
  5
175
100
AcDbEntity
  8
Calque_1
 62
1
100
AcDbLine
 10
36.016655
 20
211.273010
 30
0.0
 11
36.016655
 21
203.273009
 31
0.0
  0
LINE
  5
176
100
AcDbEntity
  8
Calque_1
 62
1
100
AcDbLine
 10
36.016655
 20
203.273009
 30
0.0
 11
32.033321
 21
203.273009
 31
0.0
  0
LINE
  5
177
100
AcDbEntity
  8
Calque_1
 62
1
100
AcDbLine
 10
32.033321
 20
203.273009
 30
0.0
 11
32.033321
 21
211.273010
 31
0.0
  0
LINE
  5
178
100
AcDbEntity
  8
Calque_1
 62
1
100
AcDbLine
 10
32.033321
 20
211.273010
 30
0.0
 11
28.049988
 21
211.273010
 31
0.0
  0
LINE
  5
179
100
AcDbEntity
  8
Calque_1
 62
1
100
AcDbLine
 10
28.049988
 20
211.273010
 30
0.0
 11
28.049988
 21
227.273012
 31
0.0
  0
LINE
  5
17a
100
AcDbEntity
  8
Calque_1
 62
1
100
AcDbLine
 10
28.049988
 20
227.273012
 30
0.0
 11
28.049988
 21
315.273013
 31
0.0
  0
LINE
  5
17b
100
AcDbEntity
  8
Calque_1
 62
1
100
AcDbLine
 10
28.049988
 20
315.273013
 30
0.0
 11
32.033321
 21
315.273013
 31
0.0
  0
LINE
  5
17c
100
AcDbEntity
  8
Calque_1
 62
1
100
AcDbLine
 10
32.033321
 20
315.273013
 30
0.0
 11
32.033321
 21
323.273008
 31
0.0
  0
LINE
  5
17d
100
AcDbEntity
  8
Calque_1
 62
1
100
AcDbLine
 10
32.033321
 20
323.273008
 30
0.0
 11
36.016655
 21
323.273008
 31
0.0
  0
LINE
  5
17e
100
AcDbEntity
  8
Calque_1
 62
1
100
AcDbLine
 10
36.016655
 20
323.273008
 30
0.0
 11
36.016655
 21
315.273013
 31
0.0
  0
LINE
  5
17f
100
AcDbEntity
  8
Calque_1
 62
1
100
AcDbLine
 10
36.016655
 20
315.273013
 30
0.0
 11
39.999988
 21
315.273013
 31
0.0
  0
LINE
  5
180
100
AcDbEntity
  8
Calque_1
 62
1
100
AcDbLine
 10
40.050185
 20
203.223010
 30
0.0
 11
40.050185
 21
199.206486
 31
0.0
  0
LINE
  5
181
100
AcDbEntity
  8
Calque_1
 62
1
100
AcDbLine
 10
40.050185
 20
199.206486
 30
0.0
 11
48.050000
 21
199.206486
 31
0.0
  0
LINE
  5
182
100
AcDbEntity
  8
Calque_1
 62
1
100
AcDbLine
 10
48.050000
 20
199.206486
 30
0.0
 11
48.050000
 21
195.189958
 31
0.0
  0
LINE
  5
183
100
AcDbEntity
  8
Calque_1
 62
1
100
AcDbLine
 10
48.050000
 20
195.189958
 30
0.0
 11
40.050185
 21
195.189958
 31
0.0
  0
LINE
  5
184
100
AcDbEntity
  8
Calque_1
 62
1
100
AcDbLine
 10
40.050185
 20
195.189958
 30
0.0
 11
40.050185
 21
191.173434
 31
0.0
  0
LINE
  5
185
100
AcDbEntity
  8
Calque_1
 62
1
100
AcDbLine
 10
40.050185
 20
191.173434
 30
0.0
 11
200.049790
 21
191.173434
 31
0.0
  0
LINE
  5
186
100
AcDbEntity
  8
Calque_1
 62
1
100
AcDbLine
 10
200.049790
 20
191.173434
 30
0.0
 11
200.049790
 21
195.189958
 31
0.0
  0
LINE
  5
187
100
AcDbEntity
  8
Calque_1
 62
1
100
AcDbLine
 10
200.049790
 20
195.189958
 30
0.0
 11
192.050001
 21
195.189958
 31
0.0
  0
LINE
  5
188
100
AcDbEntity
  8
Calque_1
 62
1
100
AcDbLine
 10
192.050001
 20
195.189958
 30
0.0
 11
192.050001
 21
199.206486
 31
0.0
  0
LINE
  5
189
100
AcDbEntity
  8
Calque_1
 62
1
100
AcDbLine
 10
192.050001
 20
199.206486
 30
0.0
 11
200.049790
 21
199.206486
 31
0.0
  0
LINE
  5
18a
100
AcDbEntity
  8
Calque_1
 62
1
100
AcDbLine
 10
200.049790
 20
199.206486
 30
0.0
 11
200.049790
 21
203.223010
 31
0.0
  0
LINE
  5
18b
100
AcDbEntity
  8
Calque_1
 62
1
100
AcDbLine
 10
179.824600
 20
193.082303
 30
0.0
 11
154.924554
 21
193.082303
 31
0.0
  0
LINE
  5
18c
100
AcDbEntity
  8
Calque_1
 62
1
100
AcDbLine
 10
154.924554
 20
193.082303
 30
0.0
 11
154.924554
 21
198.982511
 31
0.0
  0
LINE
  5
18d
100
AcDbEntity
  8
Calque_1
 62
1
100
AcDbLine
 10
154.924554
 20
198.982511
 30
0.0
 11
179.824600
 21
198.982511
 31
0.0
  0
LINE
  5
18e
100
AcDbEntity
  8
Calque_1
 62
1
100
AcDbLine
 10
179.824600
 20
198.982511
 30
0.0
 11
179.824600
 21
193.082303
 31
0.0
  0
LINE
  5
18f
100
AcDbEntity
  8
Calque_1
 62
1
100
AcDbLine
 10
85.175423
 20
193.082303
 30
0.0
 11
60.275374
 21
193.082303
 31
0.0
  0
LINE
  5
190
100
AcDbEntity
  8
Calque_1
 62
1
100
AcDbLine
 10
60.275374
 20
193.082303
 30
0.0
 11
60.275374
 21
198.982511
 31
0.0
  0
LINE
  5
191
100
AcDbEntity
  8
Calque_1
 62
1
100
AcDbLine
 10
60.275374
 20
198.982511
 30
0.0
 11
85.175426
 21
198.982511
 31
0.0
  0
LINE
  5
192
100
AcDbEntity
  8
Calque_1
 62
1
100
AcDbLine
 10
85.175426
 20
198.982511
 30
0.0
 11
85.175423
 21
193.082303
 31
0.0
  0
LINE
  5
193
100
AcDbEntity
  8
Calque_1
 62
1
100
AcDbLine
 10
200.049805
 20
160.200118
 30
0.0
 11
200.049805
 21
165.893068
 31
0.0
  0
LINE
  5
194
100
AcDbEntity
  8
Calque_1
 62
1
100
AcDbLine
 10
200.049805
 20
165.893068
 30
0.0
 11
192.050018
 21
165.893068
 31
0.0
  0
LINE
  5
195
100
AcDbEntity
  8
Calque_1
 62
1
100
AcDbLine
 10
192.050018
 20
165.893068
 30
0.0
 11
192.050018
 21
171.585468
 31
0.0
  0
LINE
  5
196
100
AcDbEntity
  8
Calque_1
 62
1
100
AcDbLine
 10
192.050018
 20
171.585468
 30
0.0
 11
200.049805
 21
171.585468
 31
0.0
  0
LINE
  5
197
100
AcDbEntity
  8
Calque_1
 62
1
100
AcDbLine
 10
200.049805
 20
171.585468
 30
0.0
 11
200.049805
 21
177.278421
 31
0.0
  0
LINE
  5
198
100
AcDbEntity
  8
Calque_1
 62
1
100
AcDbLine
 10
200.049805
 20
177.278421
 30
0.0
 11
192.050018
 21
177.278421
 31
0.0
  0
LINE
  5
199
100
AcDbEntity
  8
Calque_1
 62
1
100
AcDbLine
 10
192.050018
 20
177.278421
 30
0.0
 11
192.050018
 21
182.971371
 31
0.0
  0
LINE
  5
19a
100
AcDbEntity
  8
Calque_1
 62
1
100
AcDbLine
 10
192.050018
 20
182.971371
 30
0.0
 11
200.049805
 21
182.971371
 31
0.0
  0
LINE
  5
19b
100
AcDbEntity
  8
Calque_1
 62
1
100
AcDbLine
 10
200.049805
 20
182.971371
 30
0.0
 11
200.049805
 21
188.663770
 31
0.0
  0
LINE
  5
19c
100
AcDbEntity
  8
Calque_1
 62
1
100
AcDbLine
 10
200.049805
 20
188.663770
 30
0.0
 11
40.050201
 21
188.663770
 31
0.0
  0
LINE
  5
19d
100
AcDbEntity
  8
Calque_1
 62
1
100
AcDbLine
 10
40.050201
 20
188.663770
 30
0.0
 11
40.050201
 21
182.971371
 31
0.0
  0
LINE
  5
19e
100
AcDbEntity
  8
Calque_1
 62
1
100
AcDbLine
 10
40.050201
 20
182.971371
 30
0.0
 11
48.049987
 21
182.971371
 31
0.0
  0
LINE
  5
19f
100
AcDbEntity
  8
Calque_1
 62
1
100
AcDbLine
 10
48.049987
 20
182.971371
 30
0.0
 11
48.049987
 21
177.278421
 31
0.0
  0
LINE
  5
1a0
100
AcDbEntity
  8
Calque_1
 62
1
100
AcDbLine
 10
48.049987
 20
177.278421
 30
0.0
 11
40.050201
 21
177.278421
 31
0.0
  0
LINE
  5
1a1
100
AcDbEntity
  8
Calque_1
 62
1
100
AcDbLine
 10
40.050201
 20
177.278421
 30
0.0
 11
40.050201
 21
171.585468
 31
0.0
  0
LINE
  5
1a2
100
AcDbEntity
  8
Calque_1
 62
1
100
AcDbLine
 10
40.050201
 20
171.585468
 30
0.0
 11
48.049987
 21
171.585468
 31
0.0
  0
LINE
  5
1a3
100
AcDbEntity
  8
Calque_1
 62
1
100
AcDbLine
 10
48.049987
 20
171.585468
 30
0.0
 11
48.049987
 21
165.893068
 31
0.0
  0
LINE
  5
1a4
100
AcDbEntity
  8
Calque_1
 62
1
100
AcDbLine
 10
48.049987
 20
165.893068
 30
0.0
 11
40.050201
 21
165.893068
 31
0.0
  0
LINE
  5
1a5
100
AcDbEntity
  8
Calque_1
 62
1
100
AcDbLine
 10
40.050201
 20
165.893068
 30
0.0
 11
40.050201
 21
160.200118
 31
0.0
  0
LINE
  5
1a6
100
AcDbEntity
  8
Calque_1
 62
1
100
AcDbLine
 10
60.275391
 20
186.405993
 30
0.0
 11
85.175437
 21
186.405993
 31
0.0
  0
LINE
  5
1a7
100
AcDbEntity
  8
Calque_1
 62
1
100
AcDbLine
 10
85.175437
 20
186.405993
 30
0.0
 11
85.175437
 21
180.505784
 31
0.0
  0
LINE
  5
1a8
100
AcDbEntity
  8
Calque_1
 62
1
100
AcDbLine
 10
85.175437
 20
180.505784
 30
0.0
 11
60.275391
 21
180.505784
 31
0.0
  0
LINE
  5
1a9
100
AcDbEntity
  8
Calque_1
 62
1
100
AcDbLine
 10
60.275391
 20
180.505784
 30
0.0
 11
60.275391
 21
186.405993
 31
0.0
  0
LINE
  5
1aa
100
AcDbEntity
  8
Calque_1
 62
1
100
AcDbLine
 10
154.924565
 20
186.405993
 30
0.0
 11
179.824614
 21
186.405993
 31
0.0
  0
LINE
  5
1ab
100
AcDbEntity
  8
Calque_1
 62
1
100
AcDbLine
 10
179.824614
 20
186.405993
 30
0.0
 11
179.824614
 21
180.505784
 31
0.0
  0
LINE
  5
1ac
100
AcDbEntity
  8
Calque_1
 62
1
100
AcDbLine
 10
179.824614
 20
180.505784
 30
0.0
 11
154.924565
 21
180.505784
 31
0.0
  0
LINE
  5
1ad
100
AcDbEntity
  8
Calque_1
 62
1
100
AcDbLine
 10
154.924565
 20
180.505784
 30
0.0
 11
154.924565
 21
186.405993
 31
0.0
  0
LINE
  5
1ae
100
AcDbEntity
  8
Calque_1
 62
1
100
AcDbLine
 10
40.050040
 20
160.150013
 30
0.0
 11
52.407733
 21
160.150013
 31
0.0
  0
LINE
  5
1af
100
AcDbEntity
  8
Calque_1
 62
1
100
AcDbLine
 10
52.407733
 20
160.150013
 30
0.0
 11
52.407733
 21
152.150013
 31
0.0
  0
LINE
  5
1b0
100
AcDbEntity
  8
Calque_1
 62
1
100
AcDbLine
 10
52.407733
 20
152.150013
 30
0.0
 11
64.615424
 21
152.150013
 31
0.0
  0
LINE
  5
1b1
100
AcDbEntity
  8
Calque_1
 62
1
100
AcDbLine
 10
64.615424
 20
152.150013
 30
0.0
 11
64.615424
 21
160.150013
 31
0.0
  0
LINE
  5
1b2
100
AcDbEntity
  8
Calque_1
 62
1
100
AcDbLine
 10
64.615424
 20
160.150013
 30
0.0
 11
77.023112
 21
160.150013
 31
0.0
  0
LINE
  5
1b3
100
AcDbEntity
  8
Calque_1
 62
1
100
AcDbLine
 10
77.023112
 20
160.150013
 30
0.0
 11
77.023112
 21
152.150013
 31
0.0
  0
LINE
  5
1b4
100
AcDbEntity
  8
Calque_1
 62
1
100
AcDbLine
 10
77.023112
 20
152.150013
 30
0.0
 11
89.230804
 21
152.150013
 31
0.0
  0
LINE
  5
1b5
100
AcDbEntity
  8
Calque_1
 62
1
100
AcDbLine
 10
89.230804
 20
152.150013
 30
0.0
 11
89.230804
 21
160.150013
 31
0.0
  0
LINE
  5
1b6
100
AcDbEntity
  8
Calque_1
 62
1
100
AcDbLine
 10
89.230804
 20
160.150013
 30
0.0
 11
101.638478
 21
160.150013
 31
0.0
  0
LINE
  5
1b7
100
AcDbEntity
  8
Calque_1
 62
1
100
AcDbLine
 10
101.638478
 20
160.150013
 30
0.0
 11
101.638478
 21
152.150013
 31
0.0
  0
LINE
  5
1b8
100
AcDbEntity
  8
Calque_1
 62
1
100
AcDbLine
 10
101.638478
 20
152.150013
 30
0.0
 11
113.846170
 21
152.150013
 31
0.0
  0
LINE
  5
1b9
100
AcDbEntity
  8
Calque_1
 62
1
100
AcDbLine
 10
113.846170
 20
152.150013
 30
0.0
 11
113.846170
 21
160.150013
 31
0.0
  0
LINE
  5
1ba
100
AcDbEntity
  8
Calque_1
 62
1
100
AcDbLine
 10
113.846170
 20
160.150013
 30
0.0
 11
126.253872
 21
160.150013
 31
0.0
  0
LINE
  5
1bb
100
AcDbEntity
  8
Calque_1
 62
1
100
AcDbLine
 10
126.253872
 20
160.150013
 30
0.0
 11
126.253872
 21
152.150013
 31
0.0
  0
LINE
  5
1bc
100
AcDbEntity
  8
Calque_1
 62
1
100
AcDbLine
 10
126.253872
 20
152.150013
 30
0.0
 11
138.461564
 21
152.150013
 31
0.0
  0
LINE
  5
1bd
100
AcDbEntity
  8
Calque_1
 62
1
100
AcDbLine
 10
138.461564
 20
152.150013
 30
0.0
 11
138.461564
 21
160.150013
 31
0.0
  0
LINE
  5
1be
100
AcDbEntity
  8
Calque_1
 62
1
100
AcDbLine
 10
138.461564
 20
160.150013
 30
0.0
 11
150.869238
 21
160.150013
 31
0.0
  0
LINE
  5
1bf
100
AcDbEntity
  8
Calque_1
 62
1
100
AcDbLine
 10
150.869238
 20
160.150013
 30
0.0
 11
150.869238
 21
152.150013
 31
0.0
  0
LINE
  5
1c0
100
AcDbEntity
  8
Calque_1
 62
1
100
AcDbLine
 10
150.869238
 20
152.150013
 30
0.0
 11
163.076930
 21
152.150013
 31
0.0
  0
LINE
  5
1c1
100
AcDbEntity
  8
Calque_1
 62
1
100
AcDbLine
 10
163.076930
 20
152.150013
 30
0.0
 11
163.076930
 21
160.150013
 31
0.0
  0
LINE
  5
1c2
100
AcDbEntity
  8
Calque_1
 62
1
100
AcDbLine
 10
163.076930
 20
160.150013
 30
0.0
 11
175.484632
 21
160.150013
 31
0.0
  0
LINE
  5
1c3
100
AcDbEntity
  8
Calque_1
 62
1
100
AcDbLine
 10
175.484632
 20
160.150013
 30
0.0
 11
175.484632
 21
152.150013
 31
0.0
  0
LINE
  5
1c4
100
AcDbEntity
  8
Calque_1
 62
1
100
AcDbLine
 10
175.484632
 20
152.150013
 30
0.0
 11
187.692324
 21
152.150013
 31
0.0
  0
LINE
  5
1c5
100
AcDbEntity
  8
Calque_1
 62
1
100
AcDbLine
 10
187.692324
 20
152.150013
 30
0.0
 11
187.692324
 21
160.150013
 31
0.0
  0
LINE
  5
1c6
100
AcDbEntity
  8
Calque_1
 62
1
100
AcDbLine
 10
187.692324
 20
160.150013
 30
0.0
 11
200.050016
 21
160.150013
 31
0.0
  0
LINE
  5
1c7
100
AcDbEntity
  8
Calque_1
 62
1
100
AcDbLine
 10
200.050016
 20
160.150013
 30
0.0
 11
200.050016
 21
146.766679
 31
0.0
  0
LINE
  5
1c8
100
AcDbEntity
  8
Calque_1
 62
1
100
AcDbLine
 10
200.050016
 20
146.766679
 30
0.0
 11
192.050032
 21
146.766679
 31
0.0
  0
LINE
  5
1c9
100
AcDbEntity
  8
Calque_1
 62
1
100
AcDbLine
 10
192.050032
 20
146.766679
 30
0.0
 11
192.050032
 21
133.533347
 31
0.0
  0
LINE
  5
1ca
100
AcDbEntity
  8
Calque_1
 62
1
100
AcDbLine
 10
192.050032
 20
133.533347
 30
0.0
 11
200.050016
 21
133.533347
 31
0.0
  0
LINE
  5
1cb
100
AcDbEntity
  8
Calque_1
 62
1
100
AcDbLine
 10
200.050016
 20
133.533347
 30
0.0
 11
200.050016
 21
120.100012
 31
0.0
  0
LINE
  5
1cc
100
AcDbEntity
  8
Calque_1
 62
1
100
AcDbLine
 10
200.050016
 20
120.100012
 30
0.0
 11
192.050032
 21
120.100012
 31
0.0
  0
LINE
  5
1cd
100
AcDbEntity
  8
Calque_1
 62
1
100
AcDbLine
 10
192.050032
 20
120.100012
 30
0.0
 11
192.050032
 21
106.866680
 31
0.0
  0
LINE
  5
1ce
100
AcDbEntity
  8
Calque_1
 62
1
100
AcDbLine
 10
192.050032
 20
106.866680
 30
0.0
 11
200.050016
 21
106.866680
 31
0.0
  0
LINE
  5
1cf
100
AcDbEntity
  8
Calque_1
 62
1
100
AcDbLine
 10
200.050016
 20
106.866680
 30
0.0
 11
200.050016
 21
93.433345
 31
0.0
  0
LINE
  5
1d0
100
AcDbEntity
  8
Calque_1
 62
1
100
AcDbLine
 10
200.050016
 20
93.433345
 30
0.0
 11
192.050032
 21
93.433345
 31
0.0
  0
LINE
  5
1d1
100
AcDbEntity
  8
Calque_1
 62
1
100
AcDbLine
 10
192.050032
 20
93.433345
 30
0.0
 11
192.050032
 21
80.200013
 31
0.0
  0
LINE
  5
1d2
100
AcDbEntity
  8
Calque_1
 62
1
100
AcDbLine
 10
192.050032
 20
80.200013
 30
0.0
 11
200.050016
 21
80.200013
 31
0.0
  0
LINE
  5
1d3
100
AcDbEntity
  8
Calque_1
 62
1
100
AcDbLine
 10
200.050016
 20
80.200013
 30
0.0
 11
200.050016
 21
66.766678
 31
0.0
  0
LINE
  5
1d4
100
AcDbEntity
  8
Calque_1
 62
1
100
AcDbLine
 10
200.050016
 20
66.766678
 30
0.0
 11
192.050032
 21
66.766678
 31
0.0
  0
LINE
  5
1d5
100
AcDbEntity
  8
Calque_1
 62
1
100
AcDbLine
 10
192.050032
 20
66.766678
 30
0.0
 11
192.050032
 21
53.533346
 31
0.0
  0
LINE
  5
1d6
100
AcDbEntity
  8
Calque_1
 62
1
100
AcDbLine
 10
192.050032
 20
53.533346
 30
0.0
 11
200.050016
 21
53.533346
 31
0.0
  0
LINE
  5
1d7
100
AcDbEntity
  8
Calque_1
 62
1
100
AcDbLine
 10
200.050016
 20
53.533346
 30
0.0
 11
200.050016
 21
40.150013
 31
0.0
  0
LINE
  5
1d8
100
AcDbEntity
  8
Calque_1
 62
1
100
AcDbLine
 10
200.050016
 20
40.150013
 30
0.0
 11
187.692324
 21
40.150013
 31
0.0
  0
LINE
  5
1d9
100
AcDbEntity
  8
Calque_1
 62
1
100
AcDbLine
 10
187.692324
 20
40.150013
 30
0.0
 11
187.692324
 21
48.150014
 31
0.0
  0
LINE
  5
1da
100
AcDbEntity
  8
Calque_1
 62
1
100
AcDbLine
 10
187.692324
 20
48.150014
 30
0.0
 11
175.484632
 21
48.150014
 31
0.0
  0
LINE
  5
1db
100
AcDbEntity
  8
Calque_1
 62
1
100
AcDbLine
 10
175.484632
 20
48.150014
 30
0.0
 11
175.484632
 21
40.150013
 31
0.0
  0
LINE
  5
1dc
100
AcDbEntity
  8
Calque_1
 62
1
100
AcDbLine
 10
175.484632
 20
40.150013
 30
0.0
 11
163.076930
 21
40.150013
 31
0.0
  0
LINE
  5
1dd
100
AcDbEntity
  8
Calque_1
 62
1
100
AcDbLine
 10
163.076930
 20
40.150013
 30
0.0
 11
163.076930
 21
48.150014
 31
0.0
  0
LINE
  5
1de
100
AcDbEntity
  8
Calque_1
 62
1
100
AcDbLine
 10
163.076930
 20
48.150014
 30
0.0
 11
150.869238
 21
48.150014
 31
0.0
  0
LINE
  5
1df
100
AcDbEntity
  8
Calque_1
 62
1
100
AcDbLine
 10
150.869238
 20
48.150014
 30
0.0
 11
150.869238
 21
40.150013
 31
0.0
  0
LINE
  5
1e0
100
AcDbEntity
  8
Calque_1
 62
1
100
AcDbLine
 10
150.869238
 20
40.150013
 30
0.0
 11
138.461564
 21
40.150013
 31
0.0
  0
LINE
  5
1e1
100
AcDbEntity
  8
Calque_1
 62
1
100
AcDbLine
 10
138.461564
 20
40.150013
 30
0.0
 11
138.461564
 21
48.150014
 31
0.0
  0
LINE
  5
1e2
100
AcDbEntity
  8
Calque_1
 62
1
100
AcDbLine
 10
138.461564
 20
48.150014
 30
0.0
 11
126.253872
 21
48.150014
 31
0.0
  0
LINE
  5
1e3
100
AcDbEntity
  8
Calque_1
 62
1
100
AcDbLine
 10
126.253872
 20
48.150014
 30
0.0
 11
126.253872
 21
40.150013
 31
0.0
  0
LINE
  5
1e4
100
AcDbEntity
  8
Calque_1
 62
1
100
AcDbLine
 10
126.253872
 20
40.150013
 30
0.0
 11
113.846170
 21
40.150013
 31
0.0
  0
LINE
  5
1e5
100
AcDbEntity
  8
Calque_1
 62
1
100
AcDbLine
 10
113.846170
 20
40.150013
 30
0.0
 11
113.846170
 21
48.150014
 31
0.0
  0
LINE
  5
1e6
100
AcDbEntity
  8
Calque_1
 62
1
100
AcDbLine
 10
113.846170
 20
48.150014
 30
0.0
 11
101.638478
 21
48.150014
 31
0.0
  0
LINE
  5
1e7
100
AcDbEntity
  8
Calque_1
 62
1
100
AcDbLine
 10
101.638478
 20
48.150014
 30
0.0
 11
101.638478
 21
40.150013
 31
0.0
  0
LINE
  5
1e8
100
AcDbEntity
  8
Calque_1
 62
1
100
AcDbLine
 10
101.638478
 20
40.150013
 30
0.0
 11
89.230804
 21
40.150013
 31
0.0
  0
LINE
  5
1e9
100
AcDbEntity
  8
Calque_1
 62
1
100
AcDbLine
 10
89.230804
 20
40.150013
 30
0.0
 11
89.230804
 21
48.150014
 31
0.0
  0
LINE
  5
1ea
100
AcDbEntity
  8
Calque_1
 62
1
100
AcDbLine
 10
89.230804
 20
48.150014
 30
0.0
 11
77.023112
 21
48.150014
 31
0.0
  0
LINE
  5
1eb
100
AcDbEntity
  8
Calque_1
 62
1
100
AcDbLine
 10
77.023112
 20
48.150014
 30
0.0
 11
77.023112
 21
40.150013
 31
0.0
  0
LINE
  5
1ec
100
AcDbEntity
  8
Calque_1
 62
1
100
AcDbLine
 10
77.023112
 20
40.150013
 30
0.0
 11
64.615424
 21
40.150013
 31
0.0
  0
LINE
  5
1ed
100
AcDbEntity
  8
Calque_1
 62
1
100
AcDbLine
 10
64.615424
 20
40.150013
 30
0.0
 11
64.615424
 21
48.150014
 31
0.0
  0
LINE
  5
1ee
100
AcDbEntity
  8
Calque_1
 62
1
100
AcDbLine
 10
64.615424
 20
48.150014
 30
0.0
 11
52.407733
 21
48.150014
 31
0.0
  0
LINE
  5
1ef
100
AcDbEntity
  8
Calque_1
 62
1
100
AcDbLine
 10
52.407733
 20
48.150014
 30
0.0
 11
52.407733
 21
40.150013
 31
0.0
  0
LINE
  5
1f0
100
AcDbEntity
  8
Calque_1
 62
1
100
AcDbLine
 10
52.407733
 20
40.150013
 30
0.0
 11
40.050040
 21
40.150013
 31
0.0
  0
LINE
  5
1f1
100
AcDbEntity
  8
Calque_1
 62
1
100
AcDbLine
 10
40.050040
 20
40.150013
 30
0.0
 11
40.050040
 21
53.533346
 31
0.0
  0
LINE
  5
1f2
100
AcDbEntity
  8
Calque_1
 62
1
100
AcDbLine
 10
40.050040
 20
53.533346
 30
0.0
 11
48.050041
 21
53.533346
 31
0.0
  0
LINE
  5
1f3
100
AcDbEntity
  8
Calque_1
 62
1
100
AcDbLine
 10
48.050041
 20
53.533346
 30
0.0
 11
48.050041
 21
66.766678
 31
0.0
  0
LINE
  5
1f4
100
AcDbEntity
  8
Calque_1
 62
1
100
AcDbLine
 10
48.050041
 20
66.766678
 30
0.0
 11
40.050040
 21
66.766678
 31
0.0
  0
LINE
  5
1f5
100
AcDbEntity
  8
Calque_1
 62
1
100
AcDbLine
 10
40.050040
 20
66.766678
 30
0.0
 11
40.050040
 21
80.200013
 31
0.0
  0
LINE
  5
1f6
100
AcDbEntity
  8
Calque_1
 62
1
100
AcDbLine
 10
40.050040
 20
80.200013
 30
0.0
 11
48.050041
 21
80.200013
 31
0.0
  0
LINE
  5
1f7
100
AcDbEntity
  8
Calque_1
 62
1
100
AcDbLine
 10
48.050041
 20
80.200013
 30
0.0
 11
48.050041
 21
93.433345
 31
0.0
  0
LINE
  5
1f8
100
AcDbEntity
  8
Calque_1
 62
1
100
AcDbLine
 10
48.050041
 20
93.433345
 30
0.0
 11
40.050040
 21
93.433345
 31
0.0
  0
LINE
  5
1f9
100
AcDbEntity
  8
Calque_1
 62
1
100
AcDbLine
 10
40.050040
 20
93.433345
 30
0.0
 11
40.050040
 21
106.866680
 31
0.0
  0
LINE
  5
1fa
100
AcDbEntity
  8
Calque_1
 62
1
100
AcDbLine
 10
40.050040
 20
106.866680
 30
0.0
 11
48.050041
 21
106.866680
 31
0.0
  0
LINE
  5
1fb
100
AcDbEntity
  8
Calque_1
 62
1
100
AcDbLine
 10
48.050041
 20
106.866680
 30
0.0
 11
48.050041
 21
120.100012
 31
0.0
  0
LINE
  5
1fc
100
AcDbEntity
  8
Calque_1
 62
1
100
AcDbLine
 10
48.050041
 20
120.100012
 30
0.0
 11
40.050040
 21
120.100012
 31
0.0
  0
LINE
  5
1fd
100
AcDbEntity
  8
Calque_1
 62
1
100
AcDbLine
 10
40.050040
 20
120.100012
 30
0.0
 11
40.050040
 21
133.533347
 31
0.0
  0
LINE
  5
1fe
100
AcDbEntity
  8
Calque_1
 62
1
100
AcDbLine
 10
40.050040
 20
133.533347
 30
0.0
 11
48.050041
 21
133.533347
 31
0.0
  0
LINE
  5
1ff
100
AcDbEntity
  8
Calque_1
 62
1
100
AcDbLine
 10
48.050041
 20
133.533347
 30
0.0
 11
48.050041
 21
146.766679
 31
0.0
  0
LINE
  5
200
100
AcDbEntity
  8
Calque_1
 62
1
100
AcDbLine
 10
48.050041
 20
146.766679
 30
0.0
 11
40.050040
 21
146.766679
 31
0.0
  0
LINE
  5
201
100
AcDbEntity
  8
Calque_1
 62
1
100
AcDbLine
 10
40.050040
 20
146.766679
 30
0.0
 11
40.050040
 21
160.150013
 31
0.0
  0
LINE
  5
202
100
AcDbEntity
  8
Calque_1
 62
1
100
AcDbLine
 10
40.050040
 20
160.150013
 30
0.0
 11
40.050040
 21
160.150013
 31
0.0
  0
LINE
  5
203
100
AcDbEntity
  8
Calque_1
 62
1
100
AcDbLine
 10
200.100054
 20
152.150020
 30
0.0
 11
205.778619
 21
152.150020
 31
0.0
  0
LINE
  5
204
100
AcDbEntity
  8
Calque_1
 62
1
100
AcDbLine
 10
205.778619
 20
152.150020
 30
0.0
 11
205.778619
 21
160.150008
 31
0.0
  0
LINE
  5
205
100
AcDbEntity
  8
Calque_1
 62
1
100
AcDbLine
 10
205.778619
 20
160.150008
 30
0.0
 11
211.457241
 21
160.150008
 31
0.0
  0
LINE
  5
206
100
AcDbEntity
  8
Calque_1
 62
1
100
AcDbLine
 10
211.457241
 20
160.150008
 30
0.0
 11
211.457241
 21
152.150020
 31
0.0
  0
LINE
  5
207
100
AcDbEntity
  8
Calque_1
 62
1
100
AcDbLine
 10
211.457241
 20
152.150020
 30
0.0
 11
217.135862
 21
152.150020
 31
0.0
  0
LINE
  5
208
100
AcDbEntity
  8
Calque_1
 62
1
100
AcDbLine
 10
217.135862
 20
152.150020
 30
0.0
 11
217.135862
 21
160.150008
 31
0.0
  0
LINE
  5
209
100
AcDbEntity
  8
Calque_1
 62
1
100
AcDbLine
 10
217.135862
 20
160.150008
 30
0.0
 11
222.814428
 21
160.150008
 31
0.0
  0
LINE
  5
20a
100
AcDbEntity
  8
Calque_1
 62
1
100
AcDbLine
 10
222.814428
 20
160.150008
 30
0.0
 11
222.814428
 21
152.150020
 31
0.0
  0
LINE
  5
20b
100
AcDbEntity
  8
Calque_1
 62
1
100
AcDbLine
 10
222.814428
 20
152.150020
 30
0.0
 11
228.493049
 21
152.150020
 31
0.0
  0
LINE
  5
20c
100
AcDbEntity
  8
Calque_1
 62
1
100
AcDbLine
 10
228.493049
 20
152.150020
 30
0.0
 11
228.493049
 21
48.150005
 31
0.0
  0
LINE
  5
20d
100
AcDbEntity
  8
Calque_1
 62
1
100
AcDbLine
 10
228.493049
 20
48.150005
 30
0.0
 11
222.814428
 21
48.150005
 31
0.0
  0
LINE
  5
20e
100
AcDbEntity
  8
Calque_1
 62
1
100
AcDbLine
 10
222.814428
 20
48.150005
 30
0.0
 11
222.814456
 21
40.150007
 31
0.0
  0
LINE
  5
20f
100
AcDbEntity
  8
Calque_1
 62
1
100
AcDbLine
 10
222.814456
 20
40.150007
 30
0.0
 11
217.135862
 21
40.150007
 31
0.0
  0
LINE
  5
210
100
AcDbEntity
  8
Calque_1
 62
1
100
AcDbLine
 10
217.135862
 20
40.150007
 30
0.0
 11
217.135862
 21
48.150005
 31
0.0
  0
LINE
  5
211
100
AcDbEntity
  8
Calque_1
 62
1
100
AcDbLine
 10
217.135862
 20
48.150005
 30
0.0
 11
211.457241
 21
48.150005
 31
0.0
  0
LINE
  5
212
100
AcDbEntity
  8
Calque_1
 62
1
100
AcDbLine
 10
211.457241
 20
48.150005
 30
0.0
 11
211.457241
 21
40.150007
 31
0.0
  0
LINE
  5
213
100
AcDbEntity
  8
Calque_1
 62
1
100
AcDbLine
 10
211.457241
 20
40.150007
 30
0.0
 11
205.778619
 21
40.150007
 31
0.0
  0
LINE
  5
214
100
AcDbEntity
  8
Calque_1
 62
1
100
AcDbLine
 10
205.778619
 20
40.150007
 30
0.0
 11
205.778619
 21
48.150005
 31
0.0
  0
LINE
  5
215
100
AcDbEntity
  8
Calque_1
 62
1
100
AcDbLine
 10
205.778619
 20
48.150005
 30
0.0
 11
200.100054
 21
48.150005
 31
0.0
  0
LINE
  5
216
100
AcDbEntity
  8
Calque_1
 62
1
100
AcDbLine
 10
40.000039
 20
48.150008
 30
0.0
 11
34.321451
 21
48.150008
 31
0.0
  0
LINE
  5
217
100
AcDbEntity
  8
Calque_1
 62
1
100
AcDbLine
 10
34.321451
 20
48.150008
 30
0.0
 11
34.321451
 21
40.150007
 31
0.0
  0
LINE
  5
218
100
AcDbEntity
  8
Calque_1
 62
1
100
AcDbLine
 10
34.321451
 20
40.150007
 30
0.0
 11
28.642832
 21
40.150007
 31
0.0
  0
LINE
  5
219
100
AcDbEntity
  8
Calque_1
 62
1
100
AcDbLine
 10
28.642832
 20
40.150007
 30
0.0
 11
28.642832
 21
48.150008
 31
0.0
  0
LINE
  5
21a
100
AcDbEntity
  8
Calque_1
 62
1
100
AcDbLine
 10
28.642832
 20
48.150008
 30
0.0
 11
22.964244
 21
48.150008
 31
0.0
  0
LINE
  5
21b
100
AcDbEntity
  8
Calque_1
 62
1
100
AcDbLine
 10
22.964244
 20
48.150008
 30
0.0
 11
22.964244
 21
40.150007
 31
0.0
  0
LINE
  5
21c
100
AcDbEntity
  8
Calque_1
 62
1
100
AcDbLine
 10
22.964244
 20
40.150007
 30
0.0
 11
17.285657
 21
40.150007
 31
0.0
  0
LINE
  5
21d
100
AcDbEntity
  8
Calque_1
 62
1
100
AcDbLine
 10
17.285657
 20
40.150007
 30
0.0
 11
17.285657
 21
48.150008
 31
0.0
  0
LINE
  5
21e
100
AcDbEntity
  8
Calque_1
 62
1
100
AcDbLine
 10
17.285657
 20
48.150008
 30
0.0
 11
11.607038
 21
48.150008
 31
0.0
  0
LINE
  5
21f
100
AcDbEntity
  8
Calque_1
 62
1
100
AcDbLine
 10
11.607038
 20
48.150008
 30
0.0
 11
11.607038
 21
152.150017
 31
0.0
  0
LINE
  5
220
100
AcDbEntity
  8
Calque_1
 62
1
100
AcDbLine
 10
11.607038
 20
152.150017
 30
0.0
 11
17.285657
 21
152.150017
 31
0.0
  0
LINE
  5
221
100
AcDbEntity
  8
Calque_1
 62
1
100
AcDbLine
 10
17.285657
 20
152.150017
 30
0.0
 11
17.285657
 21
160.150008
 31
0.0
  0
LINE
  5
222
100
AcDbEntity
  8
Calque_1
 62
1
100
AcDbLine
 10
17.285657
 20
160.150008
 30
0.0
 11
22.964244
 21
160.150008
 31
0.0
  0
LINE
  5
223
100
AcDbEntity
  8
Calque_1
 62
1
100
AcDbLine
 10
22.964244
 20
160.150008
 30
0.0
 11
22.964244
 21
152.150017
 31
0.0
  0
LINE
  5
224
100
AcDbEntity
  8
Calque_1
 62
1
100
AcDbLine
 10
22.964244
 20
152.150017
 30
0.0
 11
28.642832
 21
152.150017
 31
0.0
  0
LINE
  5
225
100
AcDbEntity
  8
Calque_1
 62
1
100
AcDbLine
 10
28.642832
 20
152.150017
 30
0.0
 11
28.642863
 21
160.150008
 31
0.0
  0
LINE
  5
226
100
AcDbEntity
  8
Calque_1
 62
1
100
AcDbLine
 10
28.642863
 20
160.150008
 30
0.0
 11
34.321451
 21
160.150008
 31
0.0
  0
LINE
  5
227
100
AcDbEntity
  8
Calque_1
 62
1
100
AcDbLine
 10
34.321451
 20
160.150008
 30
0.0
 11
34.321451
 21
152.150017
 31
0.0
  0
LINE
  5
228
100
AcDbEntity
  8
Calque_1
 62
1
100
AcDbLine
 10
34.321451
 20
152.150017
 30
0.0
 11
40.000039
 21
152.150017
 31
0.0
  0
LINE
  5
229
100
AcDbEntity
  8
Calque_1
 62
1
100
AcDbLine
 10
200.049819
 20
40.100028
 30
0.0
 11
200.049819
 21
34.407078
 31
0.0
  0
LINE
  5
22a
100
AcDbEntity
  8
Calque_1
 62
1
100
AcDbLine
 10
200.049819
 20
34.407078
 30
0.0
 11
192.050032
 21
34.407078
 31
0.0
  0
LINE
  5
22b
100
AcDbEntity
  8
Calque_1
 62
1
100
AcDbLine
 10
192.050032
 20
34.407078
 30
0.0
 11
192.050032
 21
28.714679
 31
0.0
  0
LINE
  5
22c
100
AcDbEntity
  8
Calque_1
 62
1
100
AcDbLine
 10
192.050032
 20
28.714679
 30
0.0
 11
200.049819
 21
28.714679
 31
0.0
  0
LINE
  5
22d
100
AcDbEntity
  8
Calque_1
 62
1
100
AcDbLine
 10
200.049819
 20
28.714679
 30
0.0
 11
200.049819
 21
23.021726
 31
0.0
  0
LINE
  5
22e
100
AcDbEntity
  8
Calque_1
 62
1
100
AcDbLine
 10
200.049819
 20
23.021726
 30
0.0
 11
192.050032
 21
23.021726
 31
0.0
  0
LINE
  5
22f
100
AcDbEntity
  8
Calque_1
 62
1
100
AcDbLine
 10
192.050032
 20
23.021726
 30
0.0
 11
192.050032
 21
17.328776
 31
0.0
  0
LINE
  5
230
100
AcDbEntity
  8
Calque_1
 62
1
100
AcDbLine
 10
192.050032
 20
17.328776
 30
0.0
 11
200.049819
 21
17.328776
 31
0.0
  0
LINE
  5
231
100
AcDbEntity
  8
Calque_1
 62
1
100
AcDbLine
 10
200.049819
 20
17.328776
 30
0.0
 11
200.049819
 21
11.636376
 31
0.0
  0
LINE
  5
232
100
AcDbEntity
  8
Calque_1
 62
1
100
AcDbLine
 10
200.049819
 20
11.636376
 30
0.0
 11
40.050201
 21
11.636376
 31
0.0
  0
LINE
  5
233
100
AcDbEntity
  8
Calque_1
 62
1
100
AcDbLine
 10
40.050201
 20
11.636376
 30
0.0
 11
40.050201
 21
17.328776
 31
0.0
  0
LINE
  5
234
100
AcDbEntity
  8
Calque_1
 62
1
100
AcDbLine
 10
40.050201
 20
17.328776
 30
0.0
 11
48.049987
 21
17.328776
 31
0.0
  0
LINE
  5
235
100
AcDbEntity
  8
Calque_1
 62
1
100
AcDbLine
 10
48.049987
 20
17.328776
 30
0.0
 11
48.049987
 21
23.021726
 31
0.0
  0
LINE
  5
236
100
AcDbEntity
  8
Calque_1
 62
1
100
AcDbLine
 10
48.049987
 20
23.021726
 30
0.0
 11
40.050201
 21
23.021726
 31
0.0
  0
LINE
  5
237
100
AcDbEntity
  8
Calque_1
 62
1
100
AcDbLine
 10
40.050201
 20
23.021726
 30
0.0
 11
40.050201
 21
28.714679
 31
0.0
  0
LINE
  5
238
100
AcDbEntity
  8
Calque_1
 62
1
100
AcDbLine
 10
40.050201
 20
28.714679
 30
0.0
 11
48.049987
 21
28.714679
 31
0.0
  0
LINE
  5
239
100
AcDbEntity
  8
Calque_1
 62
1
100
AcDbLine
 10
48.049987
 20
28.714679
 30
0.0
 11
48.049987
 21
34.407078
 31
0.0
  0
LINE
  5
23a
100
AcDbEntity
  8
Calque_1
 62
1
100
AcDbLine
 10
48.049987
 20
34.407078
 30
0.0
 11
40.050201
 21
34.407078
 31
0.0
  0
LINE
  5
23b
100
AcDbEntity
  8
Calque_1
 62
1
100
AcDbLine
 10
40.050201
 20
34.407078
 30
0.0
 11
40.050201
 21
40.100028
 31
0.0
  0
LINE
  5
23c
100
AcDbEntity
  8
Calque_1
 62
1
100
AcDbLine
 10
60.275391
 20
13.894154
 30
0.0
 11
85.175440
 21
13.894154
 31
0.0
  0
LINE
  5
23d
100
AcDbEntity
  8
Calque_1
 62
1
100
AcDbLine
 10
85.175440
 20
13.894154
 30
0.0
 11
85.175440
 21
19.794362
 31
0.0
  0
LINE
  5
23e
100
AcDbEntity
  8
Calque_1
 62
1
100
AcDbLine
 10
85.175440
 20
19.794362
 30
0.0
 11
60.275391
 21
19.794362
 31
0.0
  0
LINE
  5
23f
100
AcDbEntity
  8
Calque_1
 62
1
100
AcDbLine
 10
60.275391
 20
19.794362
 30
0.0
 11
60.275391
 21
13.894154
 31
0.0
  0
LINE
  5
240
100
AcDbEntity
  8
Calque_1
 62
1
100
AcDbLine
 10
154.924574
 20
13.894154
 30
0.0
 11
179.824617
 21
13.894154
 31
0.0
  0
LINE
  5
241
100
AcDbEntity
  8
Calque_1
 62
1
100
AcDbLine
 10
179.824617
 20
13.894154
 30
0.0
 11
179.824617
 21
19.794362
 31
0.0
  0
LINE
  5
242
100
AcDbEntity
  8
Calque_1
 62
1
100
AcDbLine
 10
179.824617
 20
19.794362
 30
0.0
 11
154.924574
 21
19.794362
 31
0.0
  0
LINE
  5
243
100
AcDbEntity
  8
Calque_1
 62
1
100
AcDbLine
 10
154.924574
 20
19.794362
 30
0.0
 11
154.924574
 21
13.894154
 31
0.0
  0
ENDSEC
  0
SECTION
  2
OBJECTS
  0
DICTIONARY
  5
C
330
0
100
AcDbDictionary
  3
ACAD_GROUP
350
D
  3
ACAD_MLINESTYLE
350
17
  0
DICTIONARY
  5
D
330
C
100
AcDbDictionary
  0
DICTIONARY
  5
1A
330
C
100
AcDbDictionary
  0
DICTIONARY
  5
17
330
C
100
AcDbDictionary
  3
STANDARD
350
18
  0
DICTIONARY
  5
19
330
C
100
AcDbDictionary
  0
ENDSEC
  0
EOF
