<?xml version="1.0" encoding="UTF-8" standalone="no"?>
<!-- Created with Inkscape (http://www.inkscape.org/) -->

<svg
   xmlns:dc="http://purl.org/dc/elements/1.1/"
   xmlns:cc="http://creativecommons.org/ns#"
   xmlns:rdf="http://www.w3.org/1999/02/22-rdf-syntax-ns#"
   xmlns:svg="http://www.w3.org/2000/svg"
   xmlns="http://www.w3.org/2000/svg"
   xmlns:sodipodi="http://sodipodi.sourceforge.net/DTD/sodipodi-0.dtd"
   xmlns:inkscape="http://www.inkscape.org/namespaces/inkscape"
   width="148.08562mm"
   height="104.99989mm"
   viewBox="0 0 524.71282 372.04686"
   id="svg4295"
   version="1.1"
   inkscape:version="0.91 r13725"
   sodipodi:docname="sapin.svg"
   inkscape:export-filename="/home/edby8475/Documents/OwnCloud/Projets_FabLab/sapin.png"
   inkscape:export-xdpi="200"
   inkscape:export-ydpi="200">
  <defs
     id="defs4297" />
  <sodipodi:namedview
     id="base"
     pagecolor="#ffffff"
     bordercolor="#666666"
     borderopacity="1.0"
     inkscape:pageopacity="0.0"
     inkscape:pageshadow="2"
     inkscape:zoom="1.4"
     inkscape:cx="67.744553"
     inkscape:cy="156.18671"
     inkscape:document-units="px"
     inkscape:current-layer="g4206"
     showgrid="false"
     inkscape:window-width="1920"
     inkscape:window-height="1021"
     inkscape:window-x="0"
     inkscape:window-y="27"
     inkscape:window-maximized="1"
     fit-margin-top="0"
     fit-margin-left="0"
     fit-margin-right="0"
     fit-margin-bottom="0" />
  <metadata
     id="metadata4300">
    <rdf:RDF>
      <cc:Work
         rdf:about="">
        <dc:format>image/svg+xml</dc:format>
        <dc:type
           rdf:resource="http://purl.org/dc/dcmitype/StillImage" />
        <dc:title></dc:title>
      </cc:Work>
    </rdf:RDF>
  </metadata>
  <g
     style="display:inline"
     id="g4206"
     inkscape:groupmode="layer"
     inkscape:label="Copie de objets non regroupes"
     transform="translate(-215.69732,-3.9492189)">
    <rect
       style="color:#000000;clip-rule:nonzero;display:inline;overflow:visible;visibility:visible;opacity:1;isolation:auto;mix-blend-mode:normal;color-interpolation:sRGB;color-interpolation-filters:linearRGB;solid-color:#000000;solid-opacity:1;fill:#ff0000;fill-opacity:1;fill-rule:nonzero;stroke:none;stroke-width:0.99999988;stroke-linecap:butt;stroke-linejoin:round;stroke-miterlimit:4;stroke-dasharray:none;stroke-dashoffset:0;stroke-opacity:1;color-rendering:auto;image-rendering:auto;shape-rendering:auto;text-rendering:auto;enable-background:accumulate"
       id="rect4250"
       width="6.8185296"
       height="68.437836"
       x="371.45889"
       y="121.00156" />
    <path
       style="color:#000000;clip-rule:nonzero;display:inline;overflow:visible;visibility:visible;opacity:1;isolation:auto;mix-blend-mode:normal;color-interpolation:sRGB;color-interpolation-filters:linearRGB;solid-color:#000000;solid-opacity:1;fill:#ffffff;fill-opacity:1;fill-rule:nonzero;stroke:#000000;stroke-width:0.99999988;stroke-linecap:butt;stroke-linejoin:round;stroke-miterlimit:4;stroke-dasharray:none;stroke-dashoffset:0;stroke-opacity:1;color-rendering:auto;image-rendering:auto;shape-rendering:auto;text-rendering:auto;enable-background:accumulate"
       d="m 571.00977,375.49023 -59.42383,-85.30859 35.50586,-4.3086 -57.88868,-55.7207 48.36915,-8.88086 -71.39844,-51.14648 34.85742,-8.87891 -61.56641,-51.14648 29.4336,-8.88282 -46.33008,-51.146482 112.20508,-17.56836 0,-25.7734399 0,-2.27343 46.46484,0 46.4668,0 0,2.27343 0,25.7734399 112.20508,17.56836 -46.33008,51.146482 29.43164,8.88282 -61.56641,51.14648 34.85938,8.87891 -71.40039,51.14648 48.36914,8.88086 -57.88867,55.7207 35.50585,4.3086 -59.42187,85.30859 -0.75781,0 0,-85.57422 c 0.87482,-1.40866 0.88672,-2.74219 0.88672,-2.74219 l 0,-22.21679 2,-0.10742 0,-6.10938 -4.88672,0 -2,-68.00586 -12.94532,0 0,68.00586 -4.88476,0 0,6.10938 2,0.10742 0,22.21679 c 0,0 0.0116,1.33226 0.88476,2.74024 l 0,85.57617 z"
       id="path4208"
       inkscape:connector-curvature="0"
       sodipodi:nodetypes="cccccccccccccccccccccccccccccccccccccccccccc" />
    <g
       transform="matrix(1,0,0,-1,-2.364795,379.94392)"
       id="g4212"
       style="fill:none">
      <path
         style="color:#000000;clip-rule:nonzero;display:inline;overflow:visible;visibility:visible;opacity:1;isolation:auto;mix-blend-mode:normal;color-interpolation:sRGB;color-interpolation-filters:linearRGB;solid-color:#000000;solid-opacity:1;fill:none;fill-opacity:1;fill-rule:nonzero;stroke:#000000;stroke-width:0.99999988;stroke-linecap:butt;stroke-linejoin:round;stroke-miterlimit:4;stroke-dasharray:none;stroke-dashoffset:0;stroke-opacity:1;color-rendering:auto;image-rendering:auto;shape-rendering:auto;text-rendering:auto;enable-background:accumulate"
         d="m 374.86719,4.4492188 -8.22852,0.011719 -61.42383,85.3105462 35.50586,4.306641 -57.88867,55.720705 48.36914,8.88086 -71.39844,51.14648 34.85743,8.87891 -61.56641,51.14648 29.43164,8.88282 -46.32812,51.14648 112.20507,17.56836 0,25.77344 0,2.27343 38.99219,0 0,-115.96679 a 34.933069,34.933069 0 0 1 -27.45898,-34.09961 34.933069,34.933069 0 0 1 27.45898,-34.08008 l 0,-2.13867 14.94531,0 0,2.11718 a 34.933069,34.933069 0 0 1 27.46094,34.10157 34.933069,34.933069 0 0 1 -27.46094,34.08008 l 0,115.98632 38.99414,0 0,-2.27343 0,-25.77344 112.20508,-17.56836 -46.33008,-51.14648 29.43164,-8.88282 -61.56445,-51.14648 34.85742,-8.87891 -71.39843,-51.14648 48.36718,-8.88086 -57.88672,-55.720705 35.50586,-4.306641 -61.42382,-85.3105462 -8.23047,-0.011719 z m 0,82.3222652 c 8.35411,0 8.35937,6 8.35937,6 l 0,22.216796 2,0.10742 0,6.10938 -10.35937,0 -10.35742,0 0,-6.10938 2,-0.10742 0,-22.216796 c 0,0 0.003,-6 8.35742,-6 z"
         transform="matrix(1,0,0,-1,2.364795,379.94392)"
         id="path4214"
         inkscape:connector-curvature="0" />
    </g>
  </g>
</svg>
