<?xml version="1.0" encoding="UTF-8" standalone="no"?>
<!-- Created with Inkscape (http://www.inkscape.org/) -->

<svg
   xmlns:dc="http://purl.org/dc/elements/1.1/"
   xmlns:cc="http://creativecommons.org/ns#"
   xmlns:rdf="http://www.w3.org/1999/02/22-rdf-syntax-ns#"
   xmlns:svg="http://www.w3.org/2000/svg"
   xmlns="http://www.w3.org/2000/svg"
   xmlns:sodipodi="http://sodipodi.sourceforge.net/DTD/sodipodi-0.dtd"
   xmlns:inkscape="http://www.inkscape.org/namespaces/inkscape"
   width="210mm"
   height="297mm"
   viewBox="0 0 744.09448819 1052.3622047"
   id="svg2"
   version="1.1"
   inkscape:version="0.91 r13725"
   sodipodi:docname="grue complément 1.svg">
  <defs
     id="defs4">
    <clipPath
       id="clipPath296"
       clipPathUnits="userSpaceOnUse">
      <path
         id="path298"
         d="m 0,0.001 178.587,0 0,178.586 L 0,178.587 0,0.001 z" />
    </clipPath>
    <clipPath
       id="clipPath296-8"
       clipPathUnits="userSpaceOnUse">
      <path
         id="path298-0"
         d="m 0,0.001 178.587,0 0,178.586 L 0,178.587 0,0.001 z" />
    </clipPath>
  </defs>
  <sodipodi:namedview
     id="base"
     pagecolor="#ffffff"
     bordercolor="#66c866"
     borderopacity="1"
     inkscape:pageopacity="0.0"
     inkscape:pageshadow="2"
     inkscape:zoom="1.6582031"
     inkscape:cx="342.06139"
     inkscape:cy="777.18208"
     inkscape:document-units="mm"
     inkscape:current-layer="layer1"
     showgrid="false"
     inkscape:window-width="1920"
     inkscape:window-height="1017"
     inkscape:window-x="-8"
     inkscape:window-y="-8"
     inkscape:window-maximized="1"
     showguides="false" />
  <metadata
     id="metadata7">
    <rdf:RDF>
      <cc:Work
         rdf:about="">
        <dc:format>image/svg+xml</dc:format>
        <dc:type
           rdf:resource="http://purl.org/dc/dcmitype/StillImage" />
        <dc:title />
      </cc:Work>
    </rdf:RDF>
  </metadata>
  <g
     inkscape:label="Calque 1"
     inkscape:groupmode="layer"
     id="layer1">
    <g
       transform="scale(0.69212931,1.4448167)"
       style="font-style:normal;font-weight:normal;font-size:12.79857349px;line-height:125%;font-family:sans-serif;letter-spacing:0px;word-spacing:0px;fill:#000000;fill-opacity:1;stroke:none;stroke-width:0.35433071;stroke-linecap:butt;stroke-linejoin:miter;stroke-opacity:1;stroke-miterlimit:4;stroke-dasharray:none"
       id="text4520" />
    <g
       style="font-style:normal;font-weight:normal;font-size:8.85826778px;line-height:125%;font-family:sans-serif;letter-spacing:0px;word-spacing:0px;fill:#000000;fill-opacity:1;stroke:none;stroke-width:0.35433071;stroke-linecap:butt;stroke-linejoin:miter;stroke-opacity:1;stroke-miterlimit:4;stroke-dasharray:none"
       id="text4550" />
    <path
       id="path14"
       style="fill:#000000;fill-opacity:1;fill-rule:nonzero;stroke:#000000;stroke-width:0.28346458;stroke-miterlimit:4;stroke-dasharray:none"
       d="m 350.01201,238.91194 -7.85331,9.02664 12.2733,-3.50332 -4.41999,-5.52332 z"
       inkscape:connector-curvature="0" />
    <path
       id="path18"
       style="fill:#0000ff;fill-opacity:1;fill-rule:nonzero;stroke:none;stroke-width:0.28346458;stroke-miterlimit:4;stroke-dasharray:none"
       d="m 350.71,238.10794 -0.69666,0.80333 4.41998,5.52332 1.09333,-0.30667 -4.81665,-6.01998 z"
       inkscape:connector-curvature="0" />
    <path
       id="path22"
       style="fill:#ff0000;fill-opacity:1;fill-rule:nonzero;stroke:#ff0000;stroke-width:0.28346458;stroke-miterlimit:4;stroke-dasharray:none"
       d="m 351.40834,237.30394 -0.69666,0.80333 4.81332,6.01998 1.09333,-0.31333 -5.20999,-6.50998 z"
       inkscape:connector-curvature="0" />
    <path
       id="path26"
       style="fill:#00ff00;fill-opacity:1;fill-rule:nonzero;stroke:#00ff00;stroke-width:0.28346458;stroke-miterlimit:4;stroke-dasharray:none"
       d="m 352.11,236.49661 -0.7,0.80666 5.20665,6.50999 1.1,-0.31 -5.60665,-7.00665 z"
       inkscape:connector-curvature="0" />
    <path
       id="path30"
       style="fill:#ff00ff;fill-opacity:1;fill-rule:nonzero;stroke:#ff00ff;stroke-width:0.28346458;stroke-miterlimit:4;stroke-dasharray:none"
       d="m 352.808,235.69561 -0.69666,0.8 5.60331,7.00664 1.09,-0.31333 -5.99665,-7.49331 z"
       inkscape:connector-curvature="0" />
    <path
       id="path34"
       style="fill:#ffff00;fill-opacity:1;fill-rule:nonzero;stroke:#ffff00;stroke-width:0.28346458;stroke-miterlimit:4;stroke-dasharray:none"
       d="m 352.808,235.69561 5.99665,7.49331 5.86998,-1.67333 -10.34997,-7.55997 -1.51666,1.73999 z"
       inkscape:connector-curvature="0" />
    <path
       id="path38"
       style="fill:#000000;fill-opacity:1;fill-rule:nonzero;stroke:#000000;stroke-width:0.28346458;stroke-miterlimit:4;stroke-dasharray:none"
       d="m 354.32333,233.95428 10.34997,7.56331 19.01662,13.89329 6.87331,-15.61995 -36.2399,-5.83665 z"
       inkscape:connector-curvature="0" />
    <path
       id="path42"
       style="fill:#0000ff;fill-opacity:1;fill-rule:nonzero;stroke:#0000ff;stroke-width:0.28346458;stroke-miterlimit:4;stroke-dasharray:none"
       d="m 390.56189,239.79093 -6.87331,15.61995 1.58332,1.15333 7.23998,-16.45661 -1.94999,-0.31667 z"
       inkscape:connector-curvature="0" />
    <path
       id="path46"
       style="fill:#ff0000;fill-opacity:1;fill-rule:nonzero;stroke:#ff0000;stroke-width:0.28346458;stroke-miterlimit:4;stroke-dasharray:none"
       d="m 392.51189,240.1066 -7.23998,16.45995 1.58333,1.15333 7.60998,-17.29995 -1.95333,-0.31333 z"
       inkscape:connector-curvature="0" />
    <path
       id="path50"
       style="fill:#00ff00;fill-opacity:1;fill-rule:nonzero;stroke:#00ff00;stroke-width:0.28346458;stroke-miterlimit:4;stroke-dasharray:none"
       d="m 394.46488,240.41893 -7.60998,17.29995 1.58333,1.16 7.98331,-18.14328 -1.95666,-0.31667 z"
       inkscape:connector-curvature="0" />
    <path
       id="path54"
       style="fill:#ff00ff;fill-opacity:1;fill-rule:nonzero;stroke:#ff00ff;stroke-width:0.28346458;stroke-miterlimit:4;stroke-dasharray:none"
       d="m 396.42121,240.73493 -7.98331,18.14328 1.58666,1.16 8.35664,-18.98661 -1.95999,-0.31667 z"
       inkscape:connector-curvature="0" />
    <path
       id="path58"
       style="fill:#ffff00;fill-opacity:1;fill-rule:nonzero;stroke:none;stroke-width:0.28346458;stroke-miterlimit:4;stroke-dasharray:none"
       d="m 398.38087,241.0506 -8.35664,18.98661 1.58999,1.16 8.72331,-19.82994 -1.95666,-0.31667 z"
       inkscape:connector-curvature="0" />
    <path
       sodipodi:nodetypes="ccccccccccccccccccccccccccccccccccccc"
       inkscape:connector-curvature="0"
       id="path62"
       style="fill:#00ffff;fill-opacity:1;fill-rule:nonzero;stroke:#00ffff;stroke-width:0.28346458;stroke-miterlimit:4;stroke-dasharray:none"
       d="m 401.9292,183.21876 -2.98999,-11.66663 24.60326,-15.27662 3.35999,22.57993 z m 6.65665,63.09315 21.60661,51.13652 -2.37,-9.71331 -6.81665,-27.90992 -11.05663,-45.25653 0.01,-0.003 0.01,0 -1.52,-5.92332 -1.30333,-5.08332 -1.30333,-5.08665 -1.30333,-5.07999 -1.30333,-5.08665 -1.30666,-5.08332 24.9766,-4.35665 0.77,5.17665 0.76999,5.17999 0.77,5.16998 0.77,5.17665 0.76666,5.17665 1.48,9.93331 2.24999,0.0133 -2.26332,-63.20981 -60.24317,-35.7799 -4.57999,7.75331 c 14.15291,6.61747 28.30714,13.23211 42.45988,19.84994 l -32.03324,32.84657 1.72,1.43 c 9.18583,21.72792 18.9387,44.81848 27.40325,64.84981 l -6.60998,-1.06666 -8.72331,19.83327 11.07997,8.09331 z" />
    <path
       id="path66"
       style="fill:#000000;fill-opacity:1;fill-rule:nonzero;stroke:#000000;stroke-width:0.28346458;stroke-miterlimit:4;stroke-dasharray:none"
       d="m 446.02707,241.16793 -10.70997,1.27666 2.58333,-27.73658 -3.41999,-0.0167 -2.25,-0.01 -1.77333,-0.01 4.09666,35.98323 -1.65,17.65995 -1.63999,17.63328 -1.07,11.49997 15.83329,-9.71664 0,-46.5632 z"
       inkscape:connector-curvature="0" />
    <path
       id="path70"
       style="fill:#0000ff;fill-opacity:1;fill-rule:nonzero;stroke:#0000ff;stroke-width:0.28346458;stroke-miterlimit:4;stroke-dasharray:none"
       d="m 449.46473,240.76093 -3.43666,0.40667 0,46.56319 3.43666,-2.10999 0,-44.85987 z"
       inkscape:connector-curvature="0" />
    <path
       id="path74"
       style="fill:#ff0000;fill-opacity:1;fill-rule:nonzero;stroke:#ff0000;stroke-width:0.28346458;stroke-miterlimit:4;stroke-dasharray:none"
       d="m 452.90205,240.3506 -3.43666,0.41 0,44.85987 3.43666,-2.11 0,-43.15987 z"
       inkscape:connector-curvature="0" />
    <path
       id="path78"
       style="fill:#00ff00;fill-opacity:1;fill-rule:nonzero;stroke:#00ff00;stroke-width:0.28346458;stroke-miterlimit:4;stroke-dasharray:none"
       d="m 456.33971,239.9406 -3.43666,0.41 0,43.15987 3.43666,-2.10999 0,-41.45988 z"
       inkscape:connector-curvature="0" />
    <path
       id="path82"
       style="fill:#ff00ff;fill-opacity:1;fill-rule:nonzero;stroke:#ff00ff;stroke-width:0.28346458;stroke-miterlimit:4;stroke-dasharray:none"
       d="m 459.77704,239.5336 -3.43666,0.40667 0,41.46321 3.43666,-2.10666 0,-39.76322 z"
       inkscape:connector-curvature="0" />
    <path
       id="path86"
       style="fill:#ffff00;fill-opacity:1;fill-rule:nonzero;stroke:#ffff00;stroke-width:0.28346458;stroke-miterlimit:4;stroke-dasharray:none"
       d="m 462.40103,277.68449 5.46332,-39.11322 -8.08665,0.96333 0,39.75989 2.62333,-1.61 z"
       inkscape:connector-curvature="0" />
    <path
       id="path90"
       style="fill:#000000;fill-opacity:1;fill-rule:nonzero;stroke:#000000;stroke-width:0.28346458;stroke-miterlimit:4;stroke-dasharray:none"
       d="m 467.86301,238.57027 -5.46332,39.11322 36.01324,-44.4732 -0.35,-11.2633 -27.56993,-2.23333 -2.62999,18.85661 z"
       inkscape:connector-curvature="0" />
    <path
       id="path94"
       style="fill:#0000ff;fill-opacity:1;fill-rule:nonzero;stroke:#0000ff;stroke-width:0.28346458;stroke-miterlimit:4;stroke-dasharray:none"
       d="m 470.49334,219.71266 27.56992,2.23333 -0.28666,-9.16331 -26.01993,-2.10666 -1.26333,9.03664 z"
       inkscape:connector-curvature="0" />
    <path
       id="path98"
       style="fill:#ff0000;fill-opacity:1;fill-rule:nonzero;stroke:#ff0000;stroke-width:0.28346458;stroke-miterlimit:4;stroke-dasharray:none"
       d="m 471.75634,210.67468 26.01993,2.10999 -0.28333,-9.1633 -24.47327,-1.98333 -1.26333,9.03664 z"
       inkscape:connector-curvature="0" />
    <path
       id="path102"
       style="fill:#00ff00;fill-opacity:1;fill-rule:nonzero;stroke:#00ff00;stroke-width:0.28346458;stroke-miterlimit:4;stroke-dasharray:none"
       d="m 473.01933,201.63671 24.47327,1.98333 -0.28667,-9.16331 -22.9266,-1.85666 -1.26,9.03664 z"
       inkscape:connector-curvature="0" />
    <path
       id="path106"
       style="fill:#ff00ff;fill-opacity:1;fill-rule:nonzero;stroke:#ff00ff;stroke-width:0.28346458;stroke-miterlimit:4;stroke-dasharray:none"
       d="m 474.279,192.59874 22.9266,1.85666 -0.28666,-9.16331 -21.37661,-1.73999 -1.26333,9.04664 z"
       inkscape:connector-curvature="0" />
    <path
       id="path110"
       style="fill:#00ffff;fill-opacity:1;fill-rule:nonzero;stroke:#00ffff;stroke-width:0.28346458;stroke-miterlimit:4;stroke-dasharray:none"
       d="m 496.08227,158.4695 -0.0167,-0.003 -6.16998,-1.20333 -10.3933,-2.02666 -0.007,-0.003 -3.95332,28.31992 21.3766,1.73666 -0.65999,-21.20994 -0.0167,0.0133 -0.16,-5.62332 z"
       inkscape:connector-curvature="0" />
    <path
       id="path114"
       style="fill:#00ff00;fill-opacity:1;fill-rule:nonzero;stroke:#00ff00;stroke-width:0.28346458;stroke-miterlimit:4;stroke-dasharray:none"
       d="M 389.4779,201.08971 300.31481,111.9033 245.75496,66.670103 245.52163,66.48677 392.48456,208.21302 389.4779,201.08971 Z"
       inkscape:connector-curvature="0" />
    <path
       id="path118"
       style="fill:#ff00ff;fill-opacity:1;fill-rule:nonzero;stroke:#ff00ff;stroke-width:0.28346458;stroke-miterlimit:4;stroke-dasharray:none"
       d="m 317.53143,126.17293 -17.21662,-14.26996 89.16309,89.18641 -2.16,-5.11665 -69.78647,-69.7998 z"
       inkscape:connector-curvature="0" />
    <path
       id="path122"
       style="fill:#ffff00;fill-opacity:1;fill-rule:nonzero;stroke:#ffff00;stroke-width:0.28346458;stroke-miterlimit:4;stroke-dasharray:none"
       d="m 365.55863,165.98881 -6.12998,-5.08332 -6.13332,-5.08665 -6.12665,-5.07665 -29.63658,-24.56993 69.78314,69.7998 -7.77332,-18.38995 -1.71999,-1.43 -6.13332,-5.08331 -6.12998,-5.07999 z"
       inkscape:connector-curvature="0" />
    <path
       id="path126"
       style="fill:#ff0000;fill-opacity:1;fill-rule:nonzero;stroke:#ff0000;stroke-width:0.28346458;stroke-miterlimit:4;stroke-dasharray:none"
       d="m 339.5967,96.474018 -66.81315,-39.676551 34.19324,38.409888 26.14659,12.226635 6.47332,-10.959972 z"
       inkscape:connector-curvature="0" />
    <path
       id="path130"
       style="fill:#00ff00;fill-opacity:1;fill-rule:nonzero;stroke:#00ff00;stroke-width:0.28346458;stroke-miterlimit:4;stroke-dasharray:none"
       d="m 350.39767,102.89033 -10.78664,-6.406648 -6.47665,10.953298 11.42331,5.33999 5.83998,-9.88664 z"
       inkscape:connector-curvature="0" />
    <path
       id="path134"
       style="fill:#ff00ff;fill-opacity:1;fill-rule:nonzero;stroke:#ff00ff;stroke-width:0.28346458;stroke-miterlimit:4;stroke-dasharray:none"
       d="m 355.97199,118.11462 5.20999,-8.81997 -10.78331,-6.40332 -5.84332,9.88664 11.41664,5.33665 z"
       inkscape:connector-curvature="0" />
    <path
       id="path138"
       style="fill:#ffff00;fill-opacity:1;fill-rule:nonzero;stroke:#ffff00;stroke-width:0.28346458;stroke-miterlimit:4;stroke-dasharray:none"
       d="m 367.39462,123.45494 4.57999,-7.75331 -10.78997,-6.40665 -5.21332,8.81998 11.4233,5.33998 z"
       inkscape:connector-curvature="0" />
    <path
       id="path142"
       style="fill:#000000;fill-opacity:1;fill-rule:nonzero;stroke:#000000;stroke-width:0.28346458;stroke-miterlimit:4;stroke-dasharray:none"
       d="m 406.46352,381.96152 -0.40667,8.89997 17.95662,0 -17.54995,-8.89997 z"
       inkscape:connector-curvature="0" />
    <path
       id="path146"
       style="fill:#0000ff;fill-opacity:1;fill-rule:nonzero;stroke:#0000ff;stroke-width:0.28346458;stroke-miterlimit:4;stroke-dasharray:none"
       d="m 404.24686,390.86149 1.80999,0 0.4,-8.90331 -1.76666,-0.89666 -0.44333,9.79997 z"
       inkscape:connector-curvature="0" />
    <path
       id="path150"
       style="fill:#ff0000;fill-opacity:1;fill-rule:nonzero;stroke:#ff0000;stroke-width:0.28346458;stroke-miterlimit:4;stroke-dasharray:none"
       d="m 402.43686,390.86149 1.80999,0 0.44334,-9.79997 -1.76333,-0.89333 -0.49,10.6933 z"
       inkscape:connector-curvature="0" />
    <path
       id="path154"
       style="fill:#00ff00;fill-opacity:1;fill-rule:nonzero;stroke:#00ff00;stroke-width:0.28346458;stroke-miterlimit:4;stroke-dasharray:none"
       d="m 400.63987,390.86149 1.79666,0 0.49333,-10.6933 -1.75999,-0.89333 -0.53,11.58663 z"
       inkscape:connector-curvature="0" />
    <path
       id="path158"
       style="fill:#ff00ff;fill-opacity:1;fill-rule:nonzero;stroke:#ff00ff;stroke-width:0.28346458;stroke-miterlimit:4;stroke-dasharray:none"
       d="m 398.8302,390.86149 1.80999,0 0.53,-11.58663 -1.76666,-0.89333 -0.57333,12.47996 z"
       inkscape:connector-curvature="0" />
    <path
       id="path162"
       style="fill:#ffff00;fill-opacity:1;fill-rule:nonzero;stroke:#ffff00;stroke-width:0.28346458;stroke-miterlimit:4;stroke-dasharray:none"
       d="m 397.03321,390.86149 1.79666,0 0.57333,-12.47996 -1.76666,-0.9 -0.60333,13.37996 z"
       inkscape:connector-curvature="0" />
    <path
       id="path166"
       style="fill:#00ffff;fill-opacity:1;fill-rule:nonzero;stroke:none;stroke-width:0.28346458;stroke-miterlimit:4;stroke-dasharray:none"
       d="m 396.15755,390.56516 -4.50332,0.29667 5.37998,0 0.6,-13.37997 -0.88666,-0.44999 -0.59,13.53329 z"
       inkscape:connector-curvature="0" />
    <path
       id="path170"
       style="fill:#000000;fill-opacity:1;fill-rule:nonzero;stroke:#000000;stroke-width:0.28346458;stroke-miterlimit:4;stroke-dasharray:none"
       d="m 389.18156,391.02416 2.47333,-0.16333 4.50332,-0.29667 0.59,-13.52996 0.69666,-16.00662 -12.03997,1.76333 3.77666,28.23325 z"
       inkscape:connector-curvature="0" />
    <path
       id="path174"
       style="fill:#0000ff;fill-opacity:1;fill-rule:nonzero;stroke:#0000ff;stroke-width:0.28346458;stroke-miterlimit:4;stroke-dasharray:none"
       d="m 385.40557,362.79191 12.03663,-1.76333 0.15,-3.44665 -12.63663,1.84999 0.45,3.35999 z"
       inkscape:connector-curvature="0" />
    <path
       id="path178"
       style="fill:#ff0000;fill-opacity:1;fill-rule:nonzero;stroke:#ff0000;stroke-width:0.28346458;stroke-miterlimit:4;stroke-dasharray:none"
       d="m 384.50724,356.07293 0.45,3.35999 12.63663,-1.85333 0.15,-3.44332 -13.23663,1.93666 z"
       inkscape:connector-curvature="0" />
    <path
       id="path182"
       style="fill:#00ff00;fill-opacity:1;fill-rule:nonzero;stroke:#00ff00;stroke-width:0.28346458;stroke-miterlimit:4;stroke-dasharray:none"
       d="m 384.05458,352.70394 0.45333,3.36999 13.2333,-1.93666 0.15,-3.45999 -13.83663,2.02666 z"
       inkscape:connector-curvature="0" />
    <path
       id="path186"
       style="fill:#ff00ff;fill-opacity:1;fill-rule:nonzero;stroke:#ff00ff;stroke-width:0.28346458;stroke-miterlimit:4;stroke-dasharray:none"
       d="m 383.60558,349.34795 0.45,3.35666 13.83663,-2.03 0.15,-3.43665 -14.43663,2.10999 z"
       inkscape:connector-curvature="0" />
    <path
       id="path190"
       style="fill:#ffff00;fill-opacity:1;fill-rule:nonzero;stroke:#ffff00;stroke-width:0.28346458;stroke-miterlimit:4;stroke-dasharray:none"
       d="m 383.11058,345.64329 0.49333,3.70332 14.43663,-2.10666 0.55,-12.59996 0,-0.04 0,-0.01 -15.47996,11.0533 z"
       inkscape:connector-curvature="0" />
    <path
       id="path194"
       style="fill:#000000;fill-opacity:1;fill-rule:nonzero;stroke:#000000;stroke-width:0.28346458;stroke-miterlimit:4;stroke-dasharray:none"
       d="m 395.36655,297.86043 -12.25663,47.78319 15.47995,-11.0533 19.65328,-23.09993 -22.8766,-13.62996 z"
       inkscape:connector-curvature="0" />
    <path
       id="path198"
       style="fill:#0000ff;fill-opacity:1;fill-rule:nonzero;stroke:#0000ff;stroke-width:0.28346458;stroke-miterlimit:4;stroke-dasharray:none"
       d="m 396.52554,293.34211 -1.16,4.51665 22.87994,13.62996 2.93666,-3.45332 -24.6566,-14.69329 z"
       inkscape:connector-curvature="0" />
    <path
       id="path202"
       style="fill:#ff0000;fill-opacity:1;fill-rule:nonzero;stroke:#ff0000;stroke-width:0.28346458;stroke-miterlimit:4;stroke-dasharray:none"
       d="m 397.68421,288.81412 -1.16,4.52665 24.65993,14.69663 2.95,-3.46666 -26.44993,-15.75662 z"
       inkscape:connector-curvature="0" />
    <path
       id="path206"
       style="fill:#00ff00;fill-opacity:1;fill-rule:nonzero;stroke:#00ff00;stroke-width:0.28346458;stroke-miterlimit:4;stroke-dasharray:none"
       d="m 398.8432,284.2958 -1.16,4.51665 26.44993,15.75662 2.94333,-3.45665 -28.23326,-16.81662 z"
       inkscape:connector-curvature="0" />
    <path
       id="path210"
       style="fill:#ff00ff;fill-opacity:1;fill-rule:nonzero;stroke:#ff00ff;stroke-width:0.28346458;stroke-miterlimit:4;stroke-dasharray:none"
       d="m 400.00187,279.77782 -1.16,4.51665 28.23326,16.81662 2.93999,-3.45332 -30.01325,-17.87995 z"
       inkscape:connector-curvature="0" />
    <path
       id="path214"
       style="fill:#ffff00;fill-opacity:1;fill-rule:nonzero;stroke:#ffff00;stroke-width:0.28346458;stroke-miterlimit:4;stroke-dasharray:none"
       d="m 430.19378,297.44676 -21.60661,-51.13652 -5.89331,22.98327 -2.69333,10.4833 30.01325,17.87995 0.18,-0.21 z"
       inkscape:connector-curvature="0" />
    <path
       id="path218"
       style="fill:#000000;fill-opacity:1;fill-rule:nonzero;stroke:#000000;stroke-width:0.28346458;stroke-miterlimit:4;stroke-dasharray:none"
       d="m 300.31648,111.90231 17.21662,14.26996 29.63658,24.56993 24.61327,-25.2366 -4.38666,-2.04999 -11.4233,-5.33998 -11.41663,-5.33666 -11.41997,-5.33998 -0.0133,-0.007 -26.14327,-12.223295 -61.45649,-28.729916 0.23333,0.193333 54.55985,45.229868 z"
       inkscape:connector-curvature="0" />
    <path
       id="path222"
       style="fill:#0000ff;fill-opacity:1;fill-rule:nonzero;stroke:#0000ff;stroke-width:0.28346458;stroke-miterlimit:4;stroke-dasharray:none"
       d="m 347.16835,150.74153 6.12665,5.07665 26.09659,-26.75325 -7.60997,-3.55999 -24.61327,25.23659 z"
       inkscape:connector-curvature="0" />
    <path
       id="path226"
       style="fill:#ff0000;fill-opacity:1;fill-rule:nonzero;stroke:#ff0000;stroke-width:0.28346458;stroke-miterlimit:4;stroke-dasharray:none"
       d="m 353.29466,155.81984 6.13332,5.08665 27.58325,-28.27992 -7.61998,-3.56332 -26.09659,26.75659 z"
       inkscape:connector-curvature="0" />
    <path
       id="path230"
       style="fill:#00ff00;fill-opacity:1;fill-rule:nonzero;stroke:none;stroke-width:0.28346458;stroke-miterlimit:4;stroke-dasharray:none"
       d="m 359.42931,160.90583 6.12998,5.08332 29.06659,-29.80325 -7.61665,-3.55999 -27.57992,28.27992 z"
       inkscape:connector-curvature="0" />
    <path
       id="path234"
       style="fill:#ff00ff;fill-opacity:1;fill-rule:nonzero;stroke:#ff00ff;stroke-width:0.28346458;stroke-miterlimit:4;stroke-dasharray:none"
       d="m 365.55863,165.98881 6.12998,5.07999 30.55325,-31.32325 -7.61664,-3.55999 -29.06659,29.80325 z"
       inkscape:connector-curvature="0" />
    <path
       id="path238"
       style="fill:#ffff00;fill-opacity:1;fill-rule:nonzero;stroke:#ffff00;stroke-width:0.28346458;stroke-miterlimit:4;stroke-dasharray:none"
       d="m 371.68828,171.07047 6.13332,5.07999 32.03324,-32.84324 -7.61331,-3.55999 -30.55325,31.32324 z"
       inkscape:connector-curvature="0" />
    <path
       id="path242"
       style="fill:#000000;fill-opacity:1;fill-rule:nonzero;stroke:#000000;stroke-width:0.28346458;stroke-miterlimit:4;stroke-dasharray:none"
       d="m 398.93754,171.5538 2.98999,11.66663 24.9766,-4.36332 -3.35999,-22.58327 -24.6066,15.27996 z"
       inkscape:connector-curvature="0" />
    <path
       id="path250"
       style="fill:#0000ff;fill-opacity:1;fill-rule:nonzero;stroke:#0000ff;stroke-width:0.28346458;stroke-miterlimit:4;stroke-dasharray:none"
       d="m 428.44579,189.22141 -1.51625,-10.16388 -24.9375,4.4072 2.54715,9.92667 z"
       inkscape:connector-curvature="0"
       sodipodi:nodetypes="ccccc" />
    <path
       id="path254"
       style="fill:#ff0000;fill-opacity:1;fill-rule:nonzero;stroke:#ff0000;stroke-width:0.28346458;stroke-miterlimit:4;stroke-dasharray:none"
       d="m 429.21412,194.3904 -0.76666,-5.16998 -23.9066,4.16998 1.29999,5.08332 23.37327,-4.08332 z"
       inkscape:connector-curvature="0" />
    <path
       id="path258"
       style="fill:#00ff00;fill-opacity:1;fill-rule:nonzero;stroke:#00ff00;stroke-width:0.28346458;stroke-miterlimit:4;stroke-dasharray:none"
       d="m 429.98545,199.56805 -0.77,-5.17665 -23.37327,4.07999 1.30333,5.08665 22.83994,-3.98999 z"
       inkscape:connector-curvature="0" />
    <path
       id="path262"
       style="fill:#ff00ff;fill-opacity:1;fill-rule:nonzero;stroke:#ff00ff;stroke-width:0.28346458;stroke-miterlimit:4;stroke-dasharray:none"
       d="m 430.75378,204.74537 -0.76666,-5.17665 -22.83994,3.98999 1.30333,5.08332 22.30327,-3.89666 z"
       inkscape:connector-curvature="0" />
    <path
       id="path266"
       style="fill:#ffff00;fill-opacity:1;fill-rule:nonzero;stroke:#ffff00;stroke-width:0.28346458;stroke-miterlimit:4;stroke-dasharray:none"
       d="m 430.75378,204.74537 -22.30327,3.89666 1.51999,5.92331 -0.01,0 -0.01,0.003 11.05331,45.25654 -5.13999,-45.22654 3.64999,0.0167 3.64999,0.02 3.64332,0.0167 3.64999,0.02 1.77333,0.007 -1.47666,-9.9333 z"
       inkscape:connector-curvature="0" />
    <path
       id="path270"
       style="fill:#0000ff;fill-opacity:1;fill-rule:nonzero;stroke:#0000ff;stroke-width:0.28346458;stroke-miterlimit:4;stroke-dasharray:none"
       d="m 426.80846,214.65267 6.09665,53.65984 1.64666,-17.65995 -4.09332,-35.97989 -3.64999,-0.02 z"
       inkscape:connector-curvature="0" />
    <path
       id="path274"
       style="fill:#ff0000;fill-opacity:1;fill-rule:nonzero;stroke:#ff0000;stroke-width:0.28346458;stroke-miterlimit:4;stroke-dasharray:none"
       d="m 426.80846,214.65267 -3.64666,-0.0167 8.10331,71.3098 1.64,-17.63329 -6.09665,-53.65984 z"
       inkscape:connector-curvature="0" />
    <path
       id="path278"
       style="fill:#00ff00;fill-opacity:1;fill-rule:nonzero;stroke:#00ff00;stroke-width:0.28346458;stroke-miterlimit:4;stroke-dasharray:none"
       d="m 431.26478,285.94613 -8.10331,-71.31313 -3.64666,-0.0167 8.30665,73.11978 2.37332,9.70998 1.07,-11.49997 z"
       inkscape:connector-curvature="0" />
    <path
       id="path282"
       style="fill:#ff00ff;fill-opacity:1;fill-rule:nonzero;stroke:#ff00ff;stroke-width:0.28346458;stroke-miterlimit:4;stroke-dasharray:none"
       d="m 421.00448,259.82654 6.81665,27.90992 -8.30665,-73.11979 -3.64999,-0.02 5.13999,45.22987 z"
       inkscape:connector-curvature="0" />
    <path
       id="path286"
       style="fill:#ffff00;fill-opacity:1;fill-rule:nonzero;stroke:#ffff00;stroke-width:0.28346458;stroke-miterlimit:4;stroke-dasharray:none"
       d="m 496.08227,158.4695 0.16,5.62332 0.0167,-0.0133 44.00654,-35.51989 1.44333,-3.03999 -45.62654,32.9499 z"
       inkscape:connector-curvature="0" />
    <path
       id="path290"
       style="fill:#000000;fill-opacity:1;fill-rule:nonzero;stroke:#000000;stroke-width:0.28346458;stroke-miterlimit:4;stroke-dasharray:none"
       d="m 489.89429,157.26184 0,-14.90329 -1.11666,0.36333 -9.27331,12.5033 0,0.01 10.38997,2.02666 z"
       inkscape:connector-curvature="0" />
    <path
       inkscape:connector-curvature="0"
       id="path302"
       style="fill:#0000ff;fill-opacity:1;fill-rule:nonzero;stroke:#0000ff;stroke-width:0.28346458;stroke-miterlimit:4;stroke-dasharray:none"
       d="m 493.54661,144.11555 c 1.39999,0 2.53666,1.13333 2.53666,2.53665 0,1.4 -1.13667,2.53333 -2.53666,2.53333 -1.40666,0 -2.53333,-1.13333 -2.53333,-2.53333 0,-1.40332 1.12667,-2.53665 2.53333,-2.53665 m -3.65332,13.14662 6.17331,1.20333 0.02,0 4.17332,-3.01332 0,-16.46329 -10.36663,3.36999 0,14.90329 z" />
    <path
       inkscape:connector-curvature="0"
       id="path306"
       style="fill:#ff0000;fill-opacity:1;fill-rule:nonzero;stroke:#ff0000;stroke-width:0.28346458;stroke-miterlimit:4;stroke-dasharray:none"
       d="m 500.25892,155.45351 10.37664,-7.49664 0,-12.33997 -10.37664,3.37333 0,16.46328 z" />
    <path
       inkscape:connector-curvature="0"
       id="path310"
       style="fill:#00ff00;fill-opacity:1;fill-rule:nonzero;stroke:#00ff00;stroke-width:0.28346458;stroke-miterlimit:4;stroke-dasharray:none"
       d="m 510.63656,147.95853 10.36331,-7.48664 0,-8.22331 -10.36331,3.36666 0,12.34329 z" />
    <path
       inkscape:connector-curvature="0"
       id="path314"
       style="fill:#ff00ff;fill-opacity:1;fill-rule:nonzero;stroke:#ff00ff;stroke-width:0.28346458;stroke-miterlimit:4;stroke-dasharray:none"
       d="m 531.3655,132.98758 0,-4.10666 -10.3633,3.36666 0,8.22664 10.3633,-7.48664 z" />
    <path
       inkscape:connector-curvature="0"
       id="path318"
       style="fill:#00ffff;fill-opacity:1;fill-rule:nonzero;stroke:#00ffff;stroke-width:0.28346458;stroke-miterlimit:4;stroke-dasharray:none"
       d="m 541.70081,125.5236 -0.007,0 -10.32997,3.35666 0,4.10665 10.33664,-7.46331 z" />
    <path
       inkscape:connector-curvature="0"
       id="path322"
       style="fill:#ffffff;fill-opacity:1;fill-rule:nonzero;stroke:none;stroke-width:0.28346458;stroke-miterlimit:4;stroke-dasharray:none"
       d="m 493.54661,149.18553 c 1.39999,0 2.53666,-1.13333 2.53666,-2.53333 0,-1.40332 -1.13667,-2.53665 -2.53666,-2.53665 -1.40666,0 -2.53333,1.13333 -2.53333,2.53665 0,1.4 1.12667,2.53333 2.53333,2.53333" />
    <path
       style="color:#000000;clip-rule:nonzero;display:inline;overflow:visible;visibility:visible;opacity:1;isolation:auto;mix-blend-mode:normal;color-interpolation:sRGB;color-interpolation-filters:linearRGB;solid-color:#000000;solid-opacity:1;fill:none;fill-opacity:1;fill-rule:nonzero;stroke:#0000ff;stroke-width:0.60588431;stroke-linecap:butt;stroke-linejoin:miter;stroke-miterlimit:4;stroke-dasharray:none;stroke-dashoffset:0;stroke-opacity:1;color-rendering:auto;image-rendering:auto;shape-rendering:auto;text-rendering:auto;enable-background:accumulate"
       d="m 362.85778,529.22059 88.2788,0 0.24204,-105.88908 c 73.06441,-33.79269 123.60421,-107.45099 123.60421,-192.91352 0,-68.39923 -32.37311,-129.23732 -82.6331,-168.02804 l -7.78934,-5.73429 c -5.78111,-4.05662 -11.77388,-7.83201 -17.95846,-11.30642 l -5.4359,-2.95018 C 431.77819,27.0015 398.33462,18.29197 362.85683,18.29197 c -76.3431,0 -143.26676,40.32937 -180.62861,100.84573 l -6.2777,10.87627 c -16.08992,29.8893 -25.21966,64.08044 -25.21966,100.40399 0,85.67796 50.79488,159.49211 123.87975,193.04019 z"
       id="rect4920-8"
       inkscape:connector-curvature="0"
       sodipodi:nodetypes="cccsccccsccscc" />
  </g>
</svg>
