<?xml version="1.0" encoding="UTF-8" standalone="no"?>
<!-- Created with Inkscape (http://www.inkscape.org/) -->

<svg
   xmlns:dc="http://purl.org/dc/elements/1.1/"
   xmlns:cc="http://creativecommons.org/ns#"
   xmlns:rdf="http://www.w3.org/1999/02/22-rdf-syntax-ns#"
   xmlns:svg="http://www.w3.org/2000/svg"
   xmlns="http://www.w3.org/2000/svg"
   xmlns:sodipodi="http://sodipodi.sourceforge.net/DTD/sodipodi-0.dtd"
   xmlns:inkscape="http://www.inkscape.org/namespaces/inkscape"
   id="svg2"
   version="1.1"
   inkscape:version="0.91 r13725"
   width="223.23375"
   height="223.23375"
   xml:space="preserve"
   sodipodi:docname="grue niv gris V2.svg"><metadata
     id="metadata8"><rdf:RDF><cc:Work
         rdf:about=""><dc:format>image/svg+xml</dc:format><dc:type
           rdf:resource="http://purl.org/dc/dcmitype/StillImage" /><dc:title></dc:title></cc:Work></rdf:RDF></metadata><defs
     id="defs6"><clipPath
       clipPathUnits="userSpaceOnUse"
       id="clipPath296"><path
         d="m 0,0.001 178.587,0 0,178.586 L 0,178.587 0,0.001 z"
         id="path298" /></clipPath></defs><sodipodi:namedview
     pagecolor="#ffffff"
     bordercolor="#666666"
     borderopacity="1"
     objecttolerance="10"
     gridtolerance="10"
     guidetolerance="10"
     inkscape:pageopacity="0"
     inkscape:pageshadow="2"
     inkscape:window-width="1920"
     inkscape:window-height="1017"
     id="namedview4"
     showgrid="false"
     inkscape:zoom="4.7552827"
     inkscape:cx="64.517469"
     inkscape:cy="129.60121"
     inkscape:window-x="-8"
     inkscape:window-y="-8"
     inkscape:window-maximized="1"
     inkscape:current-layer="g10" /><g
     id="g10"
     inkscape:groupmode="layer"
     inkscape:label="lannion2-nivdegris-16obj"
     transform="matrix(1.25,0,0,-1.25,0,223.23375)"><g
       id="g12"
       transform="translate(85.0977,86.8164)"
       style="fill:#000000"><path
         d="M 0,0 -2.356,-2.708 1.326,-1.657 0,0 z"
         style="fill:#000000;fill-opacity:1;fill-rule:nonzero;stroke:none"
         id="path14" /></g><g
       id="g16"
       transform="translate(85.3071,87.0576)"
       style="fill:#0000ff"><path
         d="M 0,0 -0.209,-0.241 1.117,-1.898 1.445,-1.806 0,0 z"
         style="fill:#0000ff;fill-opacity:1;fill-rule:nonzero;stroke:none"
         id="path18" /></g><g
       id="g20"
       transform="translate(85.5166,87.2988)"
       style="fill:#ff0000"><path
         d="M 0,0 -0.209,-0.241 1.235,-2.047 1.563,-1.953 0,0 z"
         style="fill:#ff0000;fill-opacity:1;fill-rule:nonzero;stroke:none"
         id="path22" /></g><g
       id="g24"
       transform="translate(85.7271,87.541)"
       style="fill:#00ff00"><path
         d="M 0,0 -0.21,-0.242 1.352,-2.195 1.682,-2.102 0,0 z"
         style="fill:#00ff00;fill-opacity:1;fill-rule:nonzero;stroke:none"
         id="path26" /></g><g
       id="g28"
       transform="translate(85.9365,87.7813)"
       style="fill:#ff00ff"><path
         d="M 0,0 -0.209,-0.24 1.472,-2.342 1.799,-2.248 0,0 z"
         style="fill:#ff00ff;fill-opacity:1;fill-rule:nonzero;stroke:none"
         id="path30" /></g><g
       id="g32"
       transform="translate(85.9365,87.7813)"
       style="fill:#ffff00"><path
         d="M 0,0 1.799,-2.248 3.56,-1.746 0.455,0.522 0,0 z"
         style="fill:#ffff00;fill-opacity:1;fill-rule:nonzero;stroke:none"
         id="path34" /></g><g
       id="g36"
       transform="translate(86.3911,88.3037)"
       style="fill:#000000"><path
         d="M 0,0 3.105,-2.269 8.81,-6.437 10.872,-1.751 0,0 z"
         style="fill:#000000;fill-opacity:1;fill-rule:nonzero;stroke:none"
         id="path38" /></g><g
       id="g40"
       transform="translate(97.2627,86.5527)"
       style="fill:#0000ff"><path
         d="M 0,0 -2.062,-4.686 -1.587,-5.032 0.585,-0.095 0,0 z"
         style="fill:#0000ff;fill-opacity:1;fill-rule:nonzero;stroke:none"
         id="path42" /></g><g
       id="g44"
       transform="translate(97.8477,86.458)"
       style="fill:#ff0000"><path
         d="m 0,0 -2.172,-4.938 0.475,-0.346 2.283,5.19 L 0,0 z"
         style="fill:#ff0000;fill-opacity:1;fill-rule:nonzero;stroke:none"
         id="path46" /></g><g
       id="g48"
       transform="translate(98.4336,86.3643)"
       style="fill:#00ff00"><path
         d="M 0,0 -2.283,-5.19 -1.808,-5.538 0.587,-0.095 0,0 z"
         style="fill:#00ff00;fill-opacity:1;fill-rule:nonzero;stroke:none"
         id="path50" /></g><g
       id="g52"
       transform="translate(99.0205,86.2695)"
       style="fill:#ff00ff"><path
         d="M 0,0 -2.395,-5.443 -1.919,-5.791 0.588,-0.095 0,0 z"
         style="fill:#ff00ff;fill-opacity:1;fill-rule:nonzero;stroke:none"
         id="path54" /></g><g
       id="g56"
       transform="translate(99.6084,86.1748)"
       style="fill:#ffff00"><path
         d="M 0,0 -2.507,-5.696 -2.03,-6.044 0.587,-0.095 0,0 z"
         style="fill:#ffff00;fill-opacity:1;fill-rule:nonzero;stroke:none"
         id="path58" /></g><g
       id="g60"
       transform="translate(100.6729,103.5244)"
       style="fill:#00ffff"><path
         d="M 0,0 -0.897,3.5 6.484,8.083 7.492,1.309 Z m 1.997,-18.928 6.482,-15.341 -0.711,2.914 -2.045,8.373 -3.317,13.577 0.003,10e-4 0.003,0 L 1.956,-7.627 1.565,-6.102 1.174,-4.576 0.783,-3.052 0.392,-1.526 0,-10e-4 7.493,1.306 7.724,-0.247 7.955,-1.801 8.186,-3.352 8.417,-4.905 8.647,-6.458 9.091,-9.438 9.766,-9.442 9.087,9.521 -8.986,20.255 -10.36,17.929 c 4.245885,-1.985246 8.492166,-3.969645 12.738,-5.955 L -7.232,2.12 -6.716,1.691 c 2.7557566,-6.5183954 5.6816285,-13.445584 8.221,-19.455 l -1.983,0.32 -2.617,-5.95 3.324,-2.428 z"
         style="fill:#00ffff;fill-opacity:1;fill-rule:nonzero;stroke:none"
         id="path62"
         inkscape:connector-curvature="0"
         sodipodi:nodetypes="ccccccccccccccccccccccccccccccccccccc" /></g><g
       id="g64"
       transform="translate(113.9023,86.1396)"
       style="fill:#000000"><path
         d="m 0,0 -3.213,-0.383 0.775,8.321 -1.026,0.005 -0.675,0.003 -0.532,0.003 1.229,-10.795 -0.495,-5.298 -0.492,-5.29 -0.321,-3.45 L 0,-13.969 0,0 z"
         style="fill:#000000;fill-opacity:1;fill-rule:nonzero;stroke:none"
         id="path66" /></g><g
       id="g68"
       transform="translate(114.9336,86.2617)"
       style="fill:#0000ff"><path
         d="m 0,0 -1.031,-0.122 0,-13.969 L 0,-13.458 0,0 z"
         style="fill:#0000ff;fill-opacity:1;fill-rule:nonzero;stroke:none"
         id="path70" /></g><g
       id="g72"
       transform="translate(115.9648,86.3848)"
       style="fill:#ff0000"><path
         d="m 0,0 -1.031,-0.123 0,-13.458 L 0,-12.948 0,0 z"
         style="fill:#ff0000;fill-opacity:1;fill-rule:nonzero;stroke:none"
         id="path74" /></g><g
       id="g76"
       transform="translate(116.9961,86.5078)"
       style="fill:#00ff00"><path
         d="m 0,0 -1.031,-0.123 0,-12.948 L 0,-12.438 0,0 z"
         style="fill:#00ff00;fill-opacity:1;fill-rule:nonzero;stroke:none"
         id="path78" /></g><g
       id="g80"
       transform="translate(118.0273,86.6299)"
       style="fill:#ff00ff"><path
         d="m 0,0 -1.031,-0.122 0,-12.439 L 0,-11.929 0,0 z"
         style="fill:#ff00ff;fill-opacity:1;fill-rule:nonzero;stroke:none"
         id="path82" /></g><g
       id="g84"
       transform="translate(118.8145,75.1846)"
       style="fill:#ffff00"><path
         d="m 0,0 1.639,11.734 -2.426,-0.289 0,-11.928 L 0,0 z"
         style="fill:#ffff00;fill-opacity:1;fill-rule:nonzero;stroke:none"
         id="path86" /></g><g
       id="g88"
       transform="translate(120.4531,86.9189)"
       style="fill:#000000"><path
         d="M 0,0 -1.639,-11.734 9.165,1.608 9.06,4.987 0.789,5.657 0,0 z"
         style="fill:#000000;fill-opacity:1;fill-rule:nonzero;stroke:none"
         id="path90" /></g><g
       id="g92"
       transform="translate(121.2422,92.5762)"
       style="fill:#0000ff"><path
         d="M 0,0 8.271,-0.67 8.185,2.079 0.379,2.711 0,0 z"
         style="fill:#0000ff;fill-opacity:1;fill-rule:nonzero;stroke:none"
         id="path94" /></g><g
       id="g96"
       transform="translate(121.6211,95.2876)"
       style="fill:#ff0000"><path
         d="M 0,0 7.806,-0.633 7.721,2.116 0.379,2.711 0,0 z"
         style="fill:#ff0000;fill-opacity:1;fill-rule:nonzero;stroke:none"
         id="path98" /></g><g
       id="g100"
       transform="translate(122,97.999)"
       style="fill:#00ff00"><path
         d="M 0,0 7.342,-0.595 7.256,2.154 0.378,2.711 0,0 z"
         style="fill:#00ff00;fill-opacity:1;fill-rule:nonzero;stroke:none"
         id="path102" /></g><g
       id="g104"
       transform="translate(122.3779,100.7104)"
       style="fill:#ff00ff"><path
         d="M 0,0 6.878,-0.557 6.792,2.192 0.379,2.714 0,0 z"
         style="fill:#ff00ff;fill-opacity:1;fill-rule:nonzero;stroke:none"
         id="path106" /></g><g
       id="g108"
       transform="translate(128.9189,110.9492)"
       style="fill:#00ffff"><path
         d="M 0,0 -0.005,0.001 -1.856,0.362 -4.974,0.97 -4.976,0.971 -6.162,-7.525 0.251,-8.046 0.053,-1.683 0.048,-1.687 0,0 z"
         style="fill:#00ffff;fill-opacity:1;fill-rule:nonzero;stroke:none"
         id="path110" /></g><g
       id="g112"
       transform="translate(96.9375,98.1631)"
       style="fill:#00ff00"><path
         d="m 0,0 -26.749,26.756 -16.368,13.57 -0.07,0.055 L 0.902,-2.137 0,0 z"
         style="fill:#00ff00;fill-opacity:1;fill-rule:nonzero;stroke:none"
         id="path114" /></g><g
       id="g116"
       transform="translate(75.3535,120.6382)"
       style="fill:#ff00ff"><path
         d="M 0,0 -5.165,4.281 21.584,-22.475 20.936,-20.94 0,0 z"
         style="fill:#ff00ff;fill-opacity:1;fill-rule:nonzero;stroke:none"
         id="path118" /></g><g
       id="g120"
       transform="translate(89.7617,108.6934)"
       style="fill:#ffff00"><path
         d="m 0,0 -1.839,1.525 -1.84,1.526 -1.838,1.523 -8.891,7.371 L 6.527,-8.995 4.195,-3.478 3.679,-3.049 1.839,-1.524 0,0 z"
         style="fill:#ffff00;fill-opacity:1;fill-rule:nonzero;stroke:none"
         id="path122" /></g><g
       id="g124"
       transform="translate(81.9731,129.5479)"
       style="fill:#ff0000"><path
         d="M 0,0 -20.044,11.903 -9.786,0.38 -1.942,-3.288 0,0 z"
         style="fill:#ff0000;fill-opacity:1;fill-rule:nonzero;stroke:none"
         id="path126" /></g><g
       id="g128"
       transform="translate(85.2134,127.623)"
       style="fill:#00ff00"><path
         d="M 0,0 -3.236,1.922 -5.179,-1.364 -1.752,-2.966 0,0 z"
         style="fill:#00ff00;fill-opacity:1;fill-rule:nonzero;stroke:none"
         id="path130" /></g><g
       id="g132"
       transform="translate(86.8857,123.0557)"
       style="fill:#ff00ff"><path
         d="M 0,0 1.563,2.646 -1.672,4.567 -3.425,1.601 0,0 z"
         style="fill:#ff00ff;fill-opacity:1;fill-rule:nonzero;stroke:none"
         id="path134" /></g><g
       id="g136"
       transform="translate(90.3125,121.4536)"
       style="fill:#ffff00"><path
         d="M 0,0 1.374,2.326 -1.863,4.248 -3.427,1.602 0,0 z"
         style="fill:#ffff00;fill-opacity:1;fill-rule:nonzero;stroke:none"
         id="path138" /></g><g
       id="g140"
       transform="translate(102.0332,43.9014)"
       style="fill:#000000"><path
         d="m 0,0 -0.122,-2.67 5.387,0 L 0,0 z"
         style="fill:#000000;fill-opacity:1;fill-rule:nonzero;stroke:none"
         id="path142" /></g><g
       id="g144"
       transform="translate(101.3682,41.2314)"
       style="fill:#0000ff"><path
         d="M 0,0 0.543,0 0.663,2.671 0.133,2.94 0,0 z"
         style="fill:#0000ff;fill-opacity:1;fill-rule:nonzero;stroke:none"
         id="path146" /></g><g
       id="g148"
       transform="translate(100.8252,41.2314)"
       style="fill:#ff0000"><path
         d="M 0,0 0.543,0 0.676,2.94 0.147,3.208 0,0 z"
         style="fill:#ff0000;fill-opacity:1;fill-rule:nonzero;stroke:none"
         id="path150" /></g><g
       id="g152"
       transform="translate(100.2861,41.2314)"
       style="fill:#00ff00"><path
         d="M 0,0 0.539,0 0.687,3.208 0.159,3.476 0,0 z"
         style="fill:#00ff00;fill-opacity:1;fill-rule:nonzero;stroke:none"
         id="path154" /></g><g
       id="g156"
       transform="translate(99.7432,41.2314)"
       style="fill:#ff00ff"><path
         d="M 0,0 0.543,0 0.702,3.476 0.172,3.744 0,0 z"
         style="fill:#ff00ff;fill-opacity:1;fill-rule:nonzero;stroke:none"
         id="path158" /></g><g
       id="g160"
       transform="translate(99.2041,41.2314)"
       style="fill:#ffff00"><path
         d="M 0,0 0.539,0 0.711,3.744 0.181,4.014 0,0 z"
         style="fill:#ffff00;fill-opacity:1;fill-rule:nonzero;stroke:none"
         id="path162" /></g><g
       id="g164"
       transform="translate(98.9414,41.3203)"
       style="fill:#00ffff"><path
         d="m 0,0 -1.351,-0.089 1.614,0 0.18,4.014 L 0.177,4.06 0,0 z"
         style="fill:#00ffff;fill-opacity:1;fill-rule:nonzero;stroke:none"
         id="path166" /></g><g
       id="g168"
       transform="translate(96.8486,41.1826)"
       style="fill:#000000"><path
         d="M 0,0 0.742,0.049 2.093,0.138 2.27,4.197 2.479,8.999 -1.133,8.47 0,0 z"
         style="fill:#000000;fill-opacity:1;fill-rule:nonzero;stroke:none"
         id="path170" /></g><g
       id="g172"
       transform="translate(95.7158,49.6523)"
       style="fill:#0000ff"><path
         d="M 0,0 3.611,0.529 3.656,1.563 -0.135,1.008 0,0 z"
         style="fill:#0000ff;fill-opacity:1;fill-rule:nonzero;stroke:none"
         id="path174" /></g><g
       id="g176"
       transform="translate(95.4463,51.668)"
       style="fill:#ff0000"><path
         d="M 0,0 0.135,-1.008 3.926,-0.452 3.971,0.581 0,0 z"
         style="fill:#ff0000;fill-opacity:1;fill-rule:nonzero;stroke:none"
         id="path178" /></g><g
       id="g180"
       transform="translate(95.3105,52.6787)"
       style="fill:#00ff00"><path
         d="M 0,0 0.136,-1.011 4.106,-0.43 4.151,0.608 0,0 z"
         style="fill:#00ff00;fill-opacity:1;fill-rule:nonzero;stroke:none"
         id="path182" /></g><g
       id="g184"
       transform="translate(95.1758,53.6855)"
       style="fill:#ff00ff"><path
         d="M 0,0 0.135,-1.007 4.286,-0.398 4.331,0.633 0,0 z"
         style="fill:#ff00ff;fill-opacity:1;fill-rule:nonzero;stroke:none"
         id="path186" /></g><g
       id="g188"
       transform="translate(95.0273,54.7969)"
       style="fill:#ffff00"><path
         d="m 0,0 0.148,-1.111 4.331,0.632 0.165,3.78 0,0.012 0,0.003 L 0,0 z"
         style="fill:#ffff00;fill-opacity:1;fill-rule:nonzero;stroke:none"
         id="path190" /></g><g
       id="g192"
       transform="translate(98.7041,69.1318)"
       style="fill:#000000"><path
         d="m 0,0 -3.677,-14.335 4.644,3.316 5.896,6.93 L 0,0 z"
         style="fill:#000000;fill-opacity:1;fill-rule:nonzero;stroke:none"
         id="path194" /></g><g
       id="g196"
       transform="translate(99.0518,70.4873)"
       style="fill:#0000ff"><path
         d="M 0,0 -0.348,-1.355 6.516,-5.444 7.397,-4.408 0,0 z"
         style="fill:#0000ff;fill-opacity:1;fill-rule:nonzero;stroke:none"
         id="path198" /></g><g
       id="g200"
       transform="translate(99.3994,71.8457)"
       style="fill:#ff0000"><path
         d="M 0,0 -0.348,-1.358 7.05,-5.767 7.935,-4.727 0,0 z"
         style="fill:#ff0000;fill-opacity:1;fill-rule:nonzero;stroke:none"
         id="path202" /></g><g
       id="g204"
       transform="translate(99.7471,73.2012)"
       style="fill:#00ff00"><path
         d="M 0,0 -0.348,-1.355 7.587,-6.082 8.47,-5.045 0,0 z"
         style="fill:#00ff00;fill-opacity:1;fill-rule:nonzero;stroke:none"
         id="path206" /></g><g
       id="g208"
       transform="translate(100.0947,74.5566)"
       style="fill:#ff00ff"><path
         d="M 0,0 -0.348,-1.355 8.122,-6.4 9.004,-5.364 0,0 z"
         style="fill:#ff00ff;fill-opacity:1;fill-rule:nonzero;stroke:none"
         id="path210" /></g><g
       id="g212"
       transform="translate(109.1523,69.2559)"
       style="fill:#ffff00"><path
         d="M 0,0 -6.482,15.341 -8.25,8.446 -9.058,5.301 -0.054,-0.063 0,0 z"
         style="fill:#ffff00;fill-opacity:1;fill-rule:nonzero;stroke:none"
         id="path214" /></g><g
       id="g216"
       transform="translate(70.189,124.9194)"
       style="fill:#000000"><path
         d="m 0,0 5.165,-4.281 8.891,-7.371 7.384,7.571 -1.316,0.615 -3.427,1.602 -3.425,1.601 -3.426,1.602 -0.004,0.002 -7.843,3.667 -18.437,8.619 0.07,-0.058 L 0,0 z"
         style="fill:#000000;fill-opacity:1;fill-rule:nonzero;stroke:none"
         id="path218" /></g><g
       id="g220"
       transform="translate(84.2446,113.2676)"
       style="fill:#0000ff"><path
         d="M 0,0 1.838,-1.523 9.667,6.503 7.384,7.571 0,0 z"
         style="fill:#0000ff;fill-opacity:1;fill-rule:nonzero;stroke:none"
         id="path222" /></g><g
       id="g224"
       transform="translate(86.0825,111.7441)"
       style="fill:#ff0000"><path
         d="M 0,0 1.84,-1.526 10.115,6.958 7.829,8.027 0,0 z"
         style="fill:#ff0000;fill-opacity:1;fill-rule:nonzero;stroke:none"
         id="path226" /></g><g
       id="g228"
       transform="translate(87.9229,110.2183)"
       style="fill:#00ff00"><path
         d="M 0,0 1.839,-1.525 10.559,7.416 8.274,8.484 0,0 z"
         style="fill:#00ff00;fill-opacity:1;fill-rule:nonzero;stroke:none"
         id="path230" /></g><g
       id="g232"
       transform="translate(89.7617,108.6934)"
       style="fill:#ff00ff"><path
         d="M 0,0 1.839,-1.524 11.005,7.873 8.72,8.941 0,0 z"
         style="fill:#ff00ff;fill-opacity:1;fill-rule:nonzero;stroke:none"
         id="path234" /></g><g
       id="g236"
       transform="translate(91.6006,107.1689)"
       style="fill:#ffff00"><path
         d="M 0,0 1.84,-1.524 11.45,8.329 9.166,9.397 0,0 z"
         style="fill:#ffff00;fill-opacity:1;fill-rule:nonzero;stroke:none"
         id="path238" /></g><g
       id="g240"
       transform="translate(99.7754,107.0239)"
       style="fill:#000000"><path
         d="M 0,0 0.897,-3.5 8.39,-2.191 7.382,4.584 0,0 z"
         style="fill:#000000;fill-opacity:1;fill-rule:nonzero;stroke:none"
         id="path242" /></g><g
       id="g244"
       transform="translate(108.3965,103.2773)"
       style="fill:#000000"><path
         d="M 0,0 -0.23,1.553 -7.724,0.246 -7.332,-1.279 0,0 z"
         style="fill:#000000;fill-opacity:1;fill-rule:nonzero;stroke:none"
         id="path246" /></g><g
       id="g248"
       transform="translate(108.6279,101.7236)"
       style="fill:#0000ff"><path
         d="M 0,0 -0.231,1.554 -7.563,0.274 -7.172,-1.251 0,0 z"
         style="fill:#0000ff;fill-opacity:1;fill-rule:nonzero;stroke:none"
         id="path250" /></g><g
       id="g252"
       transform="translate(108.8584,100.1729)"
       style="fill:#ff0000"><path
         d="M 0,0 -0.23,1.551 -7.402,0.3 -7.012,-1.225 0,0 z"
         style="fill:#ff0000;fill-opacity:1;fill-rule:nonzero;stroke:none"
         id="path254" /></g><g
       id="g256"
       transform="translate(109.0898,98.6196)"
       style="fill:#00ff00"><path
         d="M 0,0 -0.231,1.553 -7.243,0.329 -6.852,-1.197 0,0 z"
         style="fill:#00ff00;fill-opacity:1;fill-rule:nonzero;stroke:none"
         id="path258" /></g><g
       id="g260"
       transform="translate(109.3203,97.0664)"
       style="fill:#ff00ff"><path
         d="M 0,0 -0.23,1.553 -7.082,0.356 -6.691,-1.169 0,0 z"
         style="fill:#ff00ff;fill-opacity:1;fill-rule:nonzero;stroke:none"
         id="path262" /></g><g
       id="g264"
       transform="translate(109.3203,97.0664)"
       style="fill:#ffff00"><path
         d="m 0,0 -6.691,-1.169 0.456,-1.777 -0.003,0 -0.003,-10e-4 3.316,-13.577 -1.542,13.568 1.095,-0.005 1.095,-0.006 1.093,-0.005 1.095,-0.006 L 0.443,-2.98 0,0 z"
         style="fill:#ffff00;fill-opacity:1;fill-rule:nonzero;stroke:none"
         id="path266" /></g><g
       id="g268"
       transform="translate(108.1367,94.0942)"
       style="fill:#0000ff"><path
         d="M 0,0 1.829,-16.098 2.323,-10.8 1.095,-0.006 0,0 z"
         style="fill:#0000ff;fill-opacity:1;fill-rule:nonzero;stroke:none"
         id="path270" /></g><g
       id="g272"
       transform="translate(108.1367,94.0942)"
       style="fill:#ff0000"><path
         d="m 0,0 -1.094,0.005 2.431,-21.393 0.492,5.29 L 0,0 z"
         style="fill:#ff0000;fill-opacity:1;fill-rule:nonzero;stroke:none"
         id="path274" /></g><g
       id="g276"
       transform="translate(109.4736,72.7061)"
       style="fill:#00ff00"><path
         d="M 0,0 -2.431,21.394 -3.525,21.399 -1.033,-0.537 -0.321,-3.45 0,0 z"
         style="fill:#00ff00;fill-opacity:1;fill-rule:nonzero;stroke:none"
         id="path278" /></g><g
       id="g280"
       transform="translate(106.3955,80.542)"
       style="fill:#ff00ff"><path
         d="M 0,0 2.045,-8.373 -0.447,13.563 -1.542,13.569 0,0 z"
         style="fill:#ff00ff;fill-opacity:1;fill-rule:nonzero;stroke:none"
         id="path282" /></g><g
       id="g284"
       transform="translate(128.9189,110.9492)"
       style="fill:#ffff00"><path
         d="M 0,0 0.048,-1.687 0.053,-1.683 13.255,8.973 13.688,9.885 0,0 z"
         style="fill:#ffff00;fill-opacity:1;fill-rule:nonzero;stroke:none"
         id="path286" /></g><g
       id="g288"
       transform="translate(127.0625,111.3115)"
       style="fill:#000000"><path
         d="M 0,0 0,4.471 -0.335,4.362 -3.117,0.611 -3.117,0.608 0,0 z"
         style="fill:#000000;fill-opacity:1;fill-rule:nonzero;stroke:none"
         id="path290" /></g><path
       inkscape:connector-curvature="0"
       id="path302"
       style="fill:#0000ff;fill-opacity:1;fill-rule:nonzero;stroke:none"
       d="m 128.1582,115.2554 c 0.42,0 0.761,-0.34 0.761,-0.761 0,-0.42 -0.341,-0.76 -0.761,-0.76 -0.422,0 -0.76,0.34 -0.76,0.76 0,0.421 0.338,0.761 0.76,0.761 m -1.096,-3.944 1.852,-0.361 0.006,0 1.252,0.904 0,4.939 -3.11,-1.011 0,-4.471 z" /><path
       inkscape:connector-curvature="0"
       id="path306"
       style="fill:#ff0000;fill-opacity:1;fill-rule:nonzero;stroke:none"
       d="m 130.1719,111.854 3.113,2.249 0,3.702 -3.113,-1.012 0,-4.939 z" /><path
       inkscape:connector-curvature="0"
       id="path310"
       style="fill:#00ff00;fill-opacity:1;fill-rule:nonzero;stroke:none"
       d="m 133.2852,114.1025 3.109,2.246 0,2.467 -3.109,-1.01 0,-3.703 z" /><path
       inkscape:connector-curvature="0"
       id="path314"
       style="fill:#ff00ff;fill-opacity:1;fill-rule:nonzero;stroke:none"
       d="m 139.5039,118.5938 0,1.232 -3.109,-1.01 0,-2.468 3.109,2.246 z" /><path
       inkscape:connector-curvature="0"
       id="path318"
       style="fill:#00ffff;fill-opacity:1;fill-rule:nonzero;stroke:none"
       d="m 142.6045,120.833 -0.002,0 -3.099,-1.007 0,-1.232 3.101,2.239 z" /><path
       inkscape:connector-curvature="0"
       id="path322"
       style="fill:#ffffff;fill-opacity:1;fill-rule:nonzero;stroke:none"
       d="m 128.1582,113.7344 c 0.42,0 0.761,0.34 0.761,0.76 0,0.421 -0.341,0.761 -0.761,0.761 -0.422,0 -0.76,-0.34 -0.76,-0.761 0,-0.42 0.338,-0.76 0.76,-0.76" /></g></svg>