<?xml version="1.0" encoding="UTF-8" standalone="no"?>
<!-- Created with Inkscape (http://www.inkscape.org/) -->

<svg
   xmlns:dc="http://purl.org/dc/elements/1.1/"
   xmlns:cc="http://creativecommons.org/ns#"
   xmlns:rdf="http://www.w3.org/1999/02/22-rdf-syntax-ns#"
   xmlns:svg="http://www.w3.org/2000/svg"
   xmlns="http://www.w3.org/2000/svg"
   xmlns:sodipodi="http://sodipodi.sourceforge.net/DTD/sodipodi-0.dtd"
   xmlns:inkscape="http://www.inkscape.org/namespaces/inkscape"
   width="210mm"
   height="297mm"
   viewBox="0 0 744.09448819 1052.3622047"
   id="svg2"
   version="1.1"
   inkscape:version="0.91 r13725"
   sodipodi:docname="grue complément 2.svg">
  <defs
     id="defs4">
    <clipPath
       id="clipPath296"
       clipPathUnits="userSpaceOnUse">
      <path
         id="path298"
         d="m 0,0.001 178.587,0 0,178.586 L 0,178.587 0,0.001 z" />
    </clipPath>
    <clipPath
       id="clipPath296-8"
       clipPathUnits="userSpaceOnUse">
      <path
         id="path298-0"
         d="m 0,0.001 178.587,0 0,178.586 L 0,178.587 0,0.001 z" />
    </clipPath>
  </defs>
  <sodipodi:namedview
     id="base"
     pagecolor="#ffffff"
     bordercolor="#66c866"
     borderopacity="1"
     inkscape:pageopacity="0.0"
     inkscape:pageshadow="2"
     inkscape:zoom="1.3748188"
     inkscape:cx="525.43695"
     inkscape:cy="778.84821"
     inkscape:document-units="mm"
     inkscape:current-layer="layer1"
     showgrid="false"
     inkscape:window-width="1920"
     inkscape:window-height="1017"
     inkscape:window-x="-8"
     inkscape:window-y="-8"
     inkscape:window-maximized="1"
     showguides="false" />
  <metadata
     id="metadata7">
    <rdf:RDF>
      <cc:Work
         rdf:about="">
        <dc:format>image/svg+xml</dc:format>
        <dc:type
           rdf:resource="http://purl.org/dc/dcmitype/StillImage" />
        <dc:title />
      </cc:Work>
    </rdf:RDF>
  </metadata>
  <g
     inkscape:label="Calque 1"
     inkscape:groupmode="layer"
     id="layer1">
    <g
       transform="scale(0.69212931,1.4448167)"
       style="font-style:normal;font-weight:normal;font-size:12.79857349px;line-height:125%;font-family:sans-serif;letter-spacing:0px;word-spacing:0px;fill:#000000;fill-opacity:1;stroke:none;stroke-width:0.35433071;stroke-linecap:butt;stroke-linejoin:miter;stroke-opacity:1;stroke-miterlimit:4;stroke-dasharray:none"
       id="text4520" />
    <g
       transform="matrix(2.7834664,0,0,2.5547538,-250.42959,-738.3572)"
       style="font-style:normal;font-weight:normal;font-size:9.24628448px;line-height:125%;font-family:sans-serif;letter-spacing:0px;word-spacing:0px;fill:#00ff00;fill-opacity:1;stroke:#00ff00;stroke-width:0.13287439;stroke-linecap:butt;stroke-linejoin:miter;stroke-miterlimit:4;stroke-dasharray:none;stroke-opacity:1"
       id="text4524">
      <path
         d="m 188.01754,406.13516 -2.73145,0 0,3.84389 2.44341,0 0,1.72826 -2.44341,0 0,6.83358 -3.12874,0 0,-14.24325 5.86019,0 0,1.83752 z"
         style="font-style:normal;font-variant:normal;font-weight:normal;font-stretch:normal;font-size:20.34182549px;font-family:Haettenschweiler;-inkscape-font-specification:Haettenschweiler;stroke-width:0.13287439;stroke-miterlimit:4;stroke-dasharray:none;fill:#00ff00;stroke:#00ff00"
         id="path4695"
         inkscape:connector-curvature="0" />
      <path
         d="m 196.24168,418.56076 -3.12875,0 q -0.50656,-0.60589 -0.50656,-3.43666 l 0,-0.0199 0.0199,-0.8542 q 0.0298,-1.77792 0.0298,-1.81765 0,-0.72508 -0.97339,-0.72508 l 0,6.83358 -3.12874,0 0,-14.24325 3.86375,0 q 1.32103,0 2.29442,0.60589 0.98332,0.60588 0.98332,1.91698 l 0,1.70839 q 0,1.65873 -1.93685,2.24475 1.94678,0.4569 1.94678,2.35401 l -0.0497,1.55941 q 0,3.41679 0.58602,3.87369 z m -3.58565,-9.33658 0,-2.34408 q 0,-0.74494 -0.97339,-0.74494 l 0,3.84389 q 0.97339,0 0.97339,-0.75487 z"
         style="font-style:normal;font-variant:normal;font-weight:normal;font-stretch:normal;font-size:20.34182549px;font-family:Haettenschweiler;-inkscape-font-specification:Haettenschweiler;stroke-width:0.13287439;stroke-miterlimit:4;stroke-dasharray:none;fill:#00ff00;stroke:#00ff00"
         id="path4697"
         inkscape:connector-curvature="0" />
      <path
         d="m 202.77728,418.54089 -6.11844,0 0,-14.24325 6.07871,0 0,1.83752 -2.94996,0 0,3.84389 2.66192,0 0,1.72826 -2.66192,0 0,5.006 2.98969,0 0,1.82758 z"
         style="font-style:normal;font-variant:normal;font-weight:normal;font-stretch:normal;font-size:20.34182549px;font-family:Haettenschweiler;-inkscape-font-specification:Haettenschweiler;stroke-width:0.13287439;stroke-miterlimit:4;stroke-dasharray:none;fill:#00ff00;stroke:#00ff00"
         id="path4699"
         inkscape:connector-curvature="0" />
      <path
         d="m 211.24973,418.54089 -3.21814,0 -2.12556,-7.58845 0,7.58845 -2.61225,0 0,-14.24325 3.55584,0 1.78786,6.49588 0,-6.49588 2.61225,0 0,14.24325 z"
         style="font-style:normal;font-variant:normal;font-weight:normal;font-stretch:normal;font-size:20.34182549px;font-family:Haettenschweiler;-inkscape-font-specification:Haettenschweiler;stroke-width:0.13287439;stroke-miterlimit:4;stroke-dasharray:none;fill:#00ff00;stroke:#00ff00"
         id="path4701"
         inkscape:connector-curvature="0" />
      <path
         d="m 218.79846,409.27384 -2.85064,0 0,-2.82084 q 0,-0.34764 -0.4271,-0.34764 -0.44696,0 -0.44696,0.34764 l 0,9.88287 q 0,0.34764 0.44696,0.34764 0.4271,0 0.4271,-0.34764 l 0,-3.51611 2.85064,0 0,3.61544 q 0,1.01312 -0.99326,1.62893 -0.99325,0.60589 -2.24475,0.60589 -3.61544,0 -3.61544,-2.5626 l 0,-9.16772 q 0,-2.77118 3.61544,-2.77118 3.23801,0 3.23801,2.52286 l 0,2.58246 z"
         style="font-style:normal;font-variant:normal;font-weight:normal;font-stretch:normal;font-size:20.34182549px;font-family:Haettenschweiler;-inkscape-font-specification:Haettenschweiler;stroke-width:0.13287439;stroke-miterlimit:4;stroke-dasharray:none;fill:#00ff00;stroke:#00ff00"
         id="path4703"
         inkscape:connector-curvature="0" />
      <path
         d="m 226.58556,418.54089 -3.12874,0 0,-6.83358 -0.87407,0 0,6.83358 -3.12875,0 0,-14.24325 3.12875,0 0,5.68141 0.87407,0 0,-5.68141 3.12874,0 0,14.24325 z"
         style="font-style:normal;font-variant:normal;font-weight:normal;font-stretch:normal;font-size:20.34182549px;font-family:Haettenschweiler;-inkscape-font-specification:Haettenschweiler;stroke-width:0.13287439;stroke-miterlimit:4;stroke-dasharray:none;fill:#00ff00;stroke:#00ff00"
         id="path4705"
         inkscape:connector-curvature="0" />
    </g>
    <g
       transform="matrix(2.7411534,0,0,2.5941894,-250.42959,-738.3572)"
       style="font-style:normal;font-weight:normal;font-size:12.81447697px;line-height:125%;font-family:sans-serif;letter-spacing:0px;word-spacing:0px;fill:#00ff00;fill-opacity:1;stroke:#00ff00;stroke-width:0.13287439;stroke-linecap:butt;stroke-linejoin:miter;stroke-miterlimit:4;stroke-dasharray:none;stroke-opacity:1"
       id="text4528">
      <path
         d="m 188.80337,416.86781 -1.10124,0 0,7.80257 -1.97098,0 0,-7.80257 -1.10124,0 0,-1.17007 4.17346,0 0,1.17007 z"
         style="font-style:normal;font-variant:normal;font-weight:normal;font-stretch:normal;font-family:Haettenschweiler;-inkscape-font-specification:Haettenschweiler;stroke-width:0.13287439;stroke-miterlimit:4;stroke-dasharray:none;fill:#00ff00;stroke:#00ff00"
         id="path4686"
         inkscape:connector-curvature="0" />
      <path
         d="m 193.02689,424.67038 -3.85435,0 0,-8.97264 3.82933,0 0,1.15756 -1.85835,0 0,2.42149 1.67689,0 0,1.08873 -1.67689,0 0,3.15356 1.88337,0 0,1.1513 z"
         style="font-style:normal;font-variant:normal;font-weight:normal;font-stretch:normal;font-family:Haettenschweiler;-inkscape-font-specification:Haettenschweiler;stroke-width:0.13287439;stroke-miterlimit:4;stroke-dasharray:none;fill:#00ff00;stroke:#00ff00"
         id="path4688"
         inkscape:connector-curvature="0" />
      <path
         d="m 197.66338,418.83253 -1.79578,0 0,-1.777 q 0,-0.219 -0.26905,-0.219 -0.28157,0 -0.28157,0.219 l 0,6.22578 q 0,0.219 0.28157,0.219 0.26905,0 0.26905,-0.219 l 0,-2.215 1.79578,0 0,2.27757 q 0,0.63822 -0.62571,1.02616 -0.6257,0.38168 -1.41409,0.38168 -2.27758,0 -2.27758,-1.61432 l 0,-5.77528 q 0,-1.74572 2.27758,-1.74572 2.0398,0 2.0398,1.5893 l 0,1.62683 z"
         style="font-style:normal;font-variant:normal;font-weight:normal;font-stretch:normal;font-family:Haettenschweiler;-inkscape-font-specification:Haettenschweiler;stroke-width:0.13287439;stroke-miterlimit:4;stroke-dasharray:none;fill:#00ff00;stroke:#00ff00"
         id="path4690"
         inkscape:connector-curvature="0" />
      <path
         d="m 202.56892,424.67038 -1.97097,0 0,-4.30486 -0.55063,0 0,4.30486 -1.97097,0 0,-8.97264 1.97097,0 0,3.57905 0.55063,0 0,-3.57905 1.97097,0 0,8.97264 z"
         style="font-style:normal;font-variant:normal;font-weight:normal;font-stretch:normal;font-family:Haettenschweiler;-inkscape-font-specification:Haettenschweiler;stroke-width:0.13287439;stroke-miterlimit:4;stroke-dasharray:none;fill:#00ff00;stroke:#00ff00"
         id="path4692"
         inkscape:connector-curvature="0" />
    </g>
    <g
       transform="matrix(2.3048869,0,0,3.0852146,-250.42959,-738.3572)"
       style="font-style:normal;font-weight:normal;font-size:9.56894112px;line-height:125%;font-family:sans-serif;letter-spacing:0px;word-spacing:0px;fill:#00ff00;fill-opacity:1;stroke:#00ff00;stroke-width:0.13287439;stroke-linecap:butt;stroke-linejoin:miter;stroke-miterlimit:4;stroke-dasharray:none;stroke-opacity:1"
       id="text4534">
      <path
         d="m 248.60961,354.5252 q 0,0.51863 -0.19623,0.91578 -0.19624,0.39715 -0.52798,0.65413 -0.39247,0.30837 -0.86438,0.4392 -0.46723,0.13082 -1.19144,0.13082 l -2.467,0 0,-6.95711 2.0605,0 q 0.76159,0 1.14005,0.0561 0.37846,0.0561 0.72421,0.23362 0.38314,0.20091 0.55601,0.51863 0.17288,0.31304 0.17288,0.75224 0,0.49527 -0.25231,0.8457 -0.2523,0.34575 -0.67281,0.556 l 0,0.0374 q 0.70552,0.14485 1.11201,0.62142 0.40649,0.47191 0.40649,1.19612 z m -1.55588,-3.13514 q 0,-0.2523 -0.0841,-0.42518 -0.0841,-0.17287 -0.271,-0.28034 -0.2196,-0.12615 -0.53265,-0.15418 -0.31304,-0.0327 -0.7756,-0.0327 l -1.10268,0 0,2.0091 1.19612,0 q 0.43453,0 0.69151,-0.0421 0.25698,-0.0467 0.47658,-0.18689 0.2196,-0.14017 0.30837,-0.35977 0.0934,-0.22427 0.0934,-0.52798 z m 0.59338,3.17252 q 0,-0.42051 -0.12615,-0.66814 -0.12615,-0.24764 -0.45789,-0.42051 -0.22427,-0.11681 -0.54666,-0.14952 -0.31772,-0.0374 -0.77561,-0.0374 l -1.4531,0 0,2.58848 1.22416,0 q 0.6074,0 0.9952,-0.0607 0.38781,-0.0654 0.63544,-0.23362 0.26165,-0.18222 0.38313,-0.41584 0.12148,-0.23362 0.12148,-0.60273 z"
         style="stroke-width:0.13287439;stroke-miterlimit:4;stroke-dasharray:none;fill:#00ff00;stroke:#00ff00"
         id="path4675"
         inkscape:connector-curvature="0" />
      <path
         d="m 255.67886,356.66513 -1.20079,0 -2.32683,-2.76602 -1.30358,0 0,2.76602 -0.92512,0 0,-6.95711 1.94836,0 q 0.63077,0 1.05128,0.0841 0.42051,0.0794 0.75692,0.28968 0.37846,0.23829 0.58871,0.60273 0.21493,0.35977 0.21493,0.91578 0,0.75225 -0.37846,1.26153 -0.37846,0.50461 -1.04193,0.76159 l 2.61651,3.04169 z m -2.16329,-4.9994 q 0,-0.29903 -0.10747,-0.52797 -0.10279,-0.23362 -0.34575,-0.39248 -0.20091,-0.13549 -0.47658,-0.18689 -0.27567,-0.0561 -0.64945,-0.0561 l -1.08866,0 0,2.62585 0.93447,0 q 0.4392,0 0.76626,-0.0747 0.32707,-0.0794 0.55601,-0.28969 0.21026,-0.19624 0.30837,-0.44854 0.1028,-0.25698 0.1028,-0.64946 z"
         style="stroke-width:0.13287439;stroke-miterlimit:4;stroke-dasharray:none;fill:#00ff00;stroke:#00ff00"
         id="path4677"
         inkscape:connector-curvature="0" />
      <path
         d="m 261.1595,356.66513 -4.58356,0 0,-6.95711 4.58356,0 0,0.82234 -3.65843,0 0,1.90631 3.65843,0 0,0.82233 -3.65843,0 0,2.5838 3.65843,0 0,0.82233 z"
         style="stroke-width:0.13287439;stroke-miterlimit:4;stroke-dasharray:none;fill:#00ff00;stroke:#00ff00"
         id="path4679"
         inkscape:connector-curvature="0" />
      <path
         d="m 267.68676,354.67939 q 0,0.40649 -0.19157,0.80364 -0.18689,0.39715 -0.52797,0.67282 -0.37379,0.29903 -0.87373,0.46723 -0.49527,0.1682 -1.19612,0.1682 -0.75224,0 -1.35497,-0.14017 -0.59806,-0.14017 -1.21948,-0.41583 l 0,-1.15874 0.0654,0 q 0.52797,0.4392 1.21948,0.67749 0.6915,0.23828 1.29891,0.23828 0.85971,0 1.33628,-0.32239 0.48126,-0.32239 0.48126,-0.85971 0,-0.46256 -0.22895,-0.68216 -0.22427,-0.2196 -0.68683,-0.34108 -0.35043,-0.0934 -0.76159,-0.15418 -0.4065,-0.0607 -0.86438,-0.15419 -0.92513,-0.19624 -1.37367,-0.66815 -0.44387,-0.47657 -0.44387,-1.23816 0,-0.87373 0.73823,-1.42974 0.73822,-0.56068 1.8736,-0.56068 0.73356,0 1.34563,0.14017 0.61208,0.14017 1.08399,0.34575 l 0,1.09333 -0.0654,0 q -0.39715,-0.33641 -1.0466,-0.55601 -0.64478,-0.22427 -1.32227,-0.22427 -0.7429,0 -1.19612,0.30837 -0.44854,0.30838 -0.44854,0.7943 0,0.43453 0.22427,0.68216 0.22427,0.24764 0.78962,0.37846 0.29903,0.0654 0.85037,0.15886 0.55133,0.0935 0.93447,0.19157 0.7756,0.20558 1.16808,0.62142 0.39248,0.41583 0.39248,1.16341 z"
         style="stroke-width:0.13287439;stroke-miterlimit:4;stroke-dasharray:none;fill:#00ff00;stroke:#00ff00"
         id="path4681"
         inkscape:connector-curvature="0" />
      <path
         d="m 274.13458,350.53036 -2.48569,0 0,6.13477 -0.92512,0 0,-6.13477 -2.48568,0 0,-0.82234 5.89649,0 0,0.82234 z"
         style="stroke-width:0.13287439;stroke-miterlimit:4;stroke-dasharray:none;fill:#00ff00;stroke:#00ff00"
         id="path4683"
         inkscape:connector-curvature="0" />
    </g>
    <g
       transform="matrix(2.3070065,0,0,3.08238,-250.42959,-738.3572)"
       style="font-style:normal;font-weight:normal;font-size:3.47405624px;line-height:125%;font-family:sans-serif;letter-spacing:0px;word-spacing:0px;fill:#00ff00;fill-opacity:1;stroke:#00ff00;stroke-width:0.13287439;stroke-linecap:butt;stroke-linejoin:miter;stroke-miterlimit:4;stroke-dasharray:none;stroke-opacity:1"
       id="text4538">
      <path
         d="m 221.40598,362.5593 -0.33587,0 0,-2.17638 -0.70228,1.48089 -0.20016,0 -0.69719,-1.48089 0,2.17638 -0.31382,0 0,-2.52582 0.45801,0 0.67343,1.40625 0.65139,-1.40625 0.46649,0 0,2.52582 z"
         style="stroke-width:0.13287439;stroke-miterlimit:4;stroke-dasharray:none;fill:#00ff00;stroke:#00ff00"
         id="path4660"
         inkscape:connector-curvature="0" />
      <path
         d="m 223.97081,360.32355 q 0.15436,0.16963 0.23579,0.4156 0.0831,0.24596 0.0831,0.55809 0,0.31212 -0.0848,0.55978 -0.0831,0.24597 -0.23409,0.41051 -0.15606,0.17133 -0.3698,0.25784 -0.21204,0.0865 -0.48515,0.0865 -0.26632,0 -0.48514,-0.0882 -0.21713,-0.0882 -0.3698,-0.25614 -0.15267,-0.16794 -0.23579,-0.41221 -0.0814,-0.24427 -0.0814,-0.55808 0,-0.30873 0.0814,-0.553 0.0814,-0.24597 0.23749,-0.42069 0.14927,-0.16624 0.36979,-0.25445 0.22222,-0.0882 0.48345,-0.0882 0.27141,0 0.48685,0.0899 0.21713,0.0882 0.3681,0.25275 z m -0.0305,0.97369 q 0,-0.49194 -0.22052,-0.75826 -0.22052,-0.26802 -0.60219,-0.26802 -0.38506,0 -0.60558,0.26802 -0.21883,0.26632 -0.21883,0.75826 0,0.49702 0.22391,0.76164 0.22392,0.26293 0.6005,0.26293 0.37658,0 0.5988,-0.26293 0.22391,-0.26462 0.22391,-0.76164 z"
         style="stroke-width:0.13287439;stroke-miterlimit:4;stroke-dasharray:none;fill:#00ff00;stroke:#00ff00"
         id="path4662"
         inkscape:connector-curvature="0" />
      <path
         d="m 226.91222,362.5593 -0.43595,0 -0.84477,-1.00422 -0.47327,0 0,1.00422 -0.33587,0 0,-2.52582 0.70736,0 q 0.22901,0 0.38167,0.0305 0.15267,0.0288 0.27481,0.10518 0.1374,0.0865 0.21373,0.21882 0.078,0.13062 0.078,0.33248 0,0.27311 -0.1374,0.458 -0.1374,0.18321 -0.37828,0.2765 l 0.94994,1.10431 z m -0.78539,-1.81506 q 0,-0.10857 -0.039,-0.19169 -0.0373,-0.0848 -0.12553,-0.14249 -0.0729,-0.0492 -0.17302,-0.0678 -0.10008,-0.0204 -0.23579,-0.0204 l -0.39524,0 0,0.95333 0.33926,0 q 0.15946,0 0.2782,-0.0271 0.11874,-0.0288 0.20186,-0.10517 0.0763,-0.0712 0.11196,-0.16285 0.0373,-0.0933 0.0373,-0.23578 z"
         style="stroke-width:0.13287439;stroke-miterlimit:4;stroke-dasharray:none;fill:#00ff00;stroke:#00ff00"
         id="path4664"
         inkscape:connector-curvature="0" />
      <path
         d="m 228.83584,362.5593 -1.59793,0 0,-2.52582 0.33587,0 0,2.22726 1.26206,0 0,0.29856 z"
         style="stroke-width:0.13287439;stroke-miterlimit:4;stroke-dasharray:none;fill:#00ff00;stroke:#00ff00"
         id="path4666"
         inkscape:connector-curvature="0" />
      <path
         d="m 231.16319,362.5593 -0.35792,0 -0.24767,-0.70398 -1.09242,0 -0.24767,0.70398 -0.34095,0 0.9194,-2.52582 0.44783,0 0.9194,2.52582 z m -0.70906,-0.99235 -0.44274,-1.24001 -0.44443,1.24001 0.88717,0 z"
         style="stroke-width:0.13287439;stroke-miterlimit:4;stroke-dasharray:none;fill:#00ff00;stroke:#00ff00"
         id="path4668"
         inkscape:connector-curvature="0" />
      <path
         d="m 232.43712,362.5593 -0.99743,0 0,-0.25784 0.33078,0 0,-2.01014 -0.33078,0 0,-0.25784 0.99743,0 0,0.25784 -0.33078,0 0,2.01014 0.33078,0 0,0.25784 z"
         style="stroke-width:0.13287439;stroke-miterlimit:4;stroke-dasharray:none;fill:#00ff00;stroke:#00ff00"
         id="path4670"
         inkscape:connector-curvature="0" />
      <path
         d="m 234.93919,360.03348 -0.87191,1.24849 0.87021,1.27733 -0.38845,0 -0.68871,-1.03985 -0.70566,1.03985 -0.36641,0 0.88039,-1.26206 -0.86003,-1.26376 0.38676,0 0.68022,1.02627 0.69549,-1.02627 0.3681,0 z"
         style="stroke-width:0.13287439;stroke-miterlimit:4;stroke-dasharray:none;fill:#00ff00;stroke:#00ff00"
         id="path4672"
         inkscape:connector-curvature="0" />
    </g>
    <g
       transform="matrix(2.2802355,0,0,3.1185686,-250.42959,-738.3572)"
       style="font-style:normal;font-weight:normal;font-size:3.50517464px;line-height:125%;font-family:sans-serif;letter-spacing:0px;word-spacing:0px;fill:#00ff00;fill-opacity:1;stroke:#00ff00;stroke-width:0.13287439;stroke-linecap:butt;stroke-linejoin:miter;stroke-miterlimit:4;stroke-dasharray:none;stroke-opacity:1"
       id="text4542">
      <path
         d="m 224.14046,362.59345 q -0.10269,0.0257 -0.20367,0.0359 -0.0993,0.012 -0.20367,0.012 -0.29781,0 -0.47923,-0.1643 -0.1797,-0.16259 -0.19511,-0.46724 -0.0411,0.007 -0.0804,0.009 -0.0377,0.003 -0.0736,0.003 -0.26871,0 -0.4895,-0.089 -0.21907,-0.089 -0.37311,-0.25844 -0.15403,-0.16944 -0.2379,-0.4159 -0.0821,-0.24645 -0.0821,-0.56308 0,-0.3115 0.0821,-0.55796 0.0822,-0.24817 0.23962,-0.42445 0.15061,-0.16773 0.37311,-0.25673 0.2242,-0.089 0.48778,-0.089 0.27384,0 0.4912,0.0907 0.21907,0.089 0.3714,0.25502 0.15575,0.17115 0.2379,0.41932 0.0839,0.24817 0.0839,0.56309 0,0.46724 -0.19169,0.78729 -0.18997,0.32005 -0.51174,0.44842 0.007,0.19511 0.0924,0.30293 0.0856,0.10783 0.3115,0.10783 0.0702,0 0.16601,-0.0222 0.0976,-0.0205 0.13864,-0.0376 l 0.0462,0 0,0.31149 z m -0.40392,-1.89806 q 0,-0.49634 -0.2225,-0.76505 -0.22249,-0.27042 -0.60758,-0.27042 -0.38852,0 -0.61101,0.27042 -0.22079,0.26871 -0.22079,0.76505 0,0.50147 0.22592,0.76846 0.22592,0.26529 0.60588,0.26529 0.37995,0 0.60416,-0.26529 0.22592,-0.26699 0.22592,-0.76846 z"
         style="stroke-width:0.13287439;stroke-miterlimit:4;stroke-dasharray:none;fill:#00ff00;stroke:#00ff00"
         id="path4645"
         inkscape:connector-curvature="0" />
      <path
         d="m 226.54513,360.94527 q 0,0.27726 -0.0616,0.48435 -0.0599,0.20539 -0.19854,0.34231 -0.13179,0.13007 -0.30807,0.18997 -0.17629,0.0599 -0.41076,0.0599 -0.23962,0 -0.41761,-0.0633 -0.178,-0.0633 -0.29952,-0.18655 -0.13863,-0.14035 -0.20024,-0.33888 -0.0599,-0.19854 -0.0599,-0.48778 l 0,-1.52496 0.33888,0 0,1.54207 q 0,0.20709 0.0274,0.3269 0.0291,0.11981 0.0958,0.21736 0.0753,0.11125 0.20367,0.16773 0.13008,0.0565 0.3115,0.0565 0.18313,0 0.31149,-0.0548 0.12836,-0.0565 0.20538,-0.16944 0.0667,-0.0976 0.0941,-0.22249 0.0291,-0.12666 0.0291,-0.31321 l 0,-1.55063 0.33888,0 0,1.52496 z"
         style="stroke-width:0.13287439;stroke-miterlimit:4;stroke-dasharray:none;fill:#00ff00;stroke:#00ff00"
         id="path4647"
         inkscape:connector-curvature="0" />
      <path
         d="m 228.09234,361.96875 -1.00637,0 0,-0.26015 0.33374,0 0,-2.02814 -0.33374,0 0,-0.26015 1.00637,0 0,0.26015 -0.33375,0 0,2.02814 0.33375,0 0,0.26015 z"
         style="stroke-width:0.13287439;stroke-miterlimit:4;stroke-dasharray:none;fill:#00ff00;stroke:#00ff00"
         id="path4649"
         inkscape:connector-curvature="0" />
      <path
         d="m 230.942,361.96875 -0.33888,0 0,-2.19587 -0.70856,1.49415 -0.20196,0 -0.70343,-1.49415 0,2.19587 -0.31663,0 0,-2.54844 0.46211,0 0.67947,1.41884 0.65722,-1.41884 0.47066,0 0,2.54844 z"
         style="stroke-width:0.13287439;stroke-miterlimit:4;stroke-dasharray:none;fill:#00ff00;stroke:#00ff00"
         id="path4651"
         inkscape:connector-curvature="0" />
      <path
         d="m 233.29704,360.19049 q 0,0.16944 -0.0599,0.31492 -0.0582,0.14376 -0.16431,0.24988 -0.13178,0.13179 -0.31149,0.19853 -0.17971,0.065 -0.45355,0.065 l -0.33888,0 0,0.94989 -0.33888,0 0,-2.54844 0.69145,0 q 0.22934,0 0.38851,0.0394 0.15917,0.0377 0.2824,0.11981 0.14548,0.0976 0.22421,0.24304 0.0804,0.14547 0.0804,0.36797 z m -0.35257,0.009 q 0,-0.13179 -0.0462,-0.22934 -0.0462,-0.0976 -0.14034,-0.15918 -0.0822,-0.0531 -0.18827,-0.0753 -0.1044,-0.024 -0.26529,-0.024 l -0.33545,0 0,1.01835 0.28582,0 q 0.20538,0 0.33375,-0.036 0.12836,-0.0376 0.2088,-0.11809 0.0804,-0.0822 0.11296,-0.17286 0.0342,-0.0907 0.0342,-0.20367 z"
         style="stroke-width:0.13287439;stroke-miterlimit:4;stroke-dasharray:none;fill:#00ff00;stroke:#00ff00"
         id="path4653"
         inkscape:connector-curvature="0" />
      <path
         d="m 235.42445,361.96875 -1.67899,0 0,-2.54844 1.67899,0 0,0.30123 -1.34011,0 0,0.69829 1.34011,0 0,0.30123 -1.34011,0 0,0.94646 1.34011,0 0,0.30123 z"
         style="stroke-width:0.13287439;stroke-miterlimit:4;stroke-dasharray:none;fill:#00ff00;stroke:#00ff00"
         id="path4655"
         inkscape:connector-curvature="0" />
      <path
         d="m 238.07216,361.96875 -0.43986,0 -0.85233,-1.01321 -0.47751,0 0,1.01321 -0.33888,0 0,-2.54844 0.7137,0 q 0.23105,0 0.38509,0.0308 0.15403,0.0291 0.27726,0.10611 0.13863,0.0873 0.21565,0.22079 0.0787,0.13178 0.0787,0.33545 0,0.27556 -0.13863,0.46211 -0.13863,0.18484 -0.38167,0.27898 l 0.95845,1.11419 z m -0.79243,-1.83132 q 0,-0.10953 -0.0394,-0.1934 -0.0377,-0.0856 -0.12665,-0.14376 -0.0736,-0.0496 -0.17457,-0.0685 -0.10098,-0.0205 -0.2379,-0.0205 l -0.39878,0 0,0.96187 0.3423,0 q 0.16088,0 0.28069,-0.0274 0.1198,-0.0291 0.20367,-0.10611 0.077,-0.0719 0.11295,-0.16431 0.0377,-0.0941 0.0377,-0.2379 z"
         style="stroke-width:0.13287439;stroke-miterlimit:4;stroke-dasharray:none;fill:#00ff00;stroke:#00ff00"
         id="path4657"
         inkscape:connector-curvature="0" />
    </g>
    <g
       transform="matrix(2.1896637,0,0,3.2475629,-250.42959,-738.3572)"
       style="font-style:normal;font-weight:normal;font-size:8.41847706px;line-height:125%;font-family:sans-serif;letter-spacing:0px;word-spacing:0px;fill:#00ff00;fill-opacity:1;stroke:#00ff00;stroke-width:0.13287439;stroke-linecap:butt;stroke-linejoin:miter;stroke-miterlimit:4;stroke-dasharray:none;stroke-opacity:1"
       id="text4546">
      <path
         d="m 254.36432,347.87344 -3.87217,0 0,-6.12066 0.81389,0 0,5.3972 3.05828,0 0,0.72346 z"
         style="stroke-width:0.13287439;stroke-miterlimit:4;stroke-dasharray:none;fill:#00ff00;stroke:#00ff00"
         id="path4630"
         inkscape:connector-curvature="0" />
      <path
         d="m 260.00404,347.87344 -0.86734,0 -0.60014,-1.70589 -2.64722,0 -0.60014,1.70589 -0.82623,0 2.22794,-6.12066 1.08519,0 2.22794,6.12066 z m -1.71823,-2.40469 -1.07286,-3.00484 -1.07697,3.00484 2.14983,0 z"
         style="stroke-width:0.13287439;stroke-miterlimit:4;stroke-dasharray:none;fill:#00ff00;stroke:#00ff00"
         id="path4632"
         inkscape:connector-curvature="0" />
      <path
         d="m 265.60265,347.87344 -1.00709,0 -2.90207,-5.47529 0,5.47529 -0.76046,0 0,-6.12066 1.26195,0 2.64722,4.99847 0,-4.99847 0.76045,0 0,6.12066 z"
         style="stroke-width:0.13287439;stroke-miterlimit:4;stroke-dasharray:none;fill:#00ff00;stroke:#00ff00"
         id="path4634"
         inkscape:connector-curvature="0" />
      <path
         d="m 271.90007,347.87344 -1.00709,0 -2.90208,-5.47529 0,5.47529 -0.76045,0 0,-6.12066 1.26195,0 2.64721,4.99847 0,-4.99847 0.76046,0 0,6.12066 z"
         style="stroke-width:0.13287439;stroke-miterlimit:4;stroke-dasharray:none;fill:#00ff00;stroke:#00ff00"
         id="path4636"
         inkscape:connector-curvature="0" />
      <path
         d="m 275.68592,347.87344 -2.41703,0 0,-0.62481 0.80157,0 0,-4.87104 -0.80157,0 0,-0.62481 2.41703,0 0,0.62481 -0.80157,0 0,4.87104 0.80157,0 0,0.62481 z"
         style="stroke-width:0.13287439;stroke-miterlimit:4;stroke-dasharray:none;fill:#00ff00;stroke:#00ff00"
         id="path4638"
         inkscape:connector-curvature="0" />
      <path
         d="m 281.64215,342.45569 q 0.37407,0.41106 0.57137,1.0071 0.20142,0.59603 0.20142,1.35238 0,0.75635 -0.20553,1.35649 -0.20141,0.59604 -0.56726,0.99476 -0.37817,0.41517 -0.8961,0.62481 -0.51383,0.20964 -1.17563,0.20964 -0.64536,0 -1.17563,-0.21375 -0.52615,-0.21375 -0.89611,-0.6207 -0.36995,-0.40694 -0.57137,-0.99887 -0.1973,-0.59192 -0.1973,-1.35238 0,-0.74813 0.1973,-1.34005 0.19731,-0.59604 0.57549,-1.01943 0.36173,-0.40283 0.8961,-0.61658 0.53849,-0.21375 1.17152,-0.21375 0.65769,0 1.17974,0.21786 0.52615,0.21375 0.89199,0.61247 z m -0.074,2.35948 q 0,-1.19207 -0.53437,-1.83743 -0.53438,-0.64947 -1.45926,-0.64947 -0.9331,0 -1.46748,0.64947 -0.53026,0.64536 -0.53026,1.83743 0,1.2044 0.54259,1.84565 0.5426,0.63714 1.45515,0.63714 0.91255,0 1.45104,-0.63714 0.54259,-0.64125 0.54259,-1.84565 z"
         style="stroke-width:0.13287439;stroke-miterlimit:4;stroke-dasharray:none;fill:#00ff00;stroke:#00ff00"
         id="path4640"
         inkscape:connector-curvature="0" />
      <path
         d="m 288.37529,347.87344 -1.00709,0 -2.90207,-5.47529 0,5.47529 -0.76046,0 0,-6.12066 1.26195,0 2.64722,4.99847 0,-4.99847 0.76045,0 0,6.12066 z"
         style="stroke-width:0.13287439;stroke-miterlimit:4;stroke-dasharray:none;fill:#00ff00;stroke:#00ff00"
         id="path4642"
         inkscape:connector-curvature="0" />
    </g>
    <g
       style="font-style:normal;font-weight:normal;font-size:8.85826778px;line-height:125%;font-family:sans-serif;letter-spacing:0px;word-spacing:0px;fill:#000000;fill-opacity:1;stroke:none;stroke-width:0.35433071;stroke-linecap:butt;stroke-linejoin:miter;stroke-opacity:1;stroke-miterlimit:4;stroke-dasharray:none"
       id="text4550" />
    <g
       id="g4562"
       transform="matrix(1.8856128,1.8856127,-1.8856128,1.8856127,614.55421,-888.48965)"
       style="fill:#0000ff;stroke:#0000ff;stroke-width:0.13287439;stroke-miterlimit:4;stroke-dasharray:none">
      <g
         transform="matrix(1.1533975,-0.00965074,-0.01283704,0.86711119,0,0)"
         style="font-style:normal;font-weight:normal;font-size:15.39390755px;line-height:125%;font-family:sans-serif;letter-spacing:0px;word-spacing:0px;fill:#0000ff;fill-opacity:1;stroke:#0000ff;stroke-width:0.13287439;stroke-linecap:butt;stroke-linejoin:miter;stroke-miterlimit:4;stroke-dasharray:none;stroke-opacity:1"
         id="text4554">
        <path
           d="m 165.54488,422.81423 2.0896,0 0,2.66086 q 0,0.26308 0.33073,0.26308 0.33073,0 0.33073,-0.26308 l 0,-9.11006 2.36772,0 0,8.93718 q 0,1.93927 -2.68341,1.93927 -0.95461,0 -1.69875,-0.46602 -0.73662,-0.46603 -0.73662,-1.2252 l 0,-2.73603 z"
           style="font-style:normal;font-variant:normal;font-weight:normal;font-stretch:normal;font-family:Haettenschweiler;-inkscape-font-specification:Haettenschweiler;fill:#0000ff;stroke:#0000ff;stroke-width:0.13287439;stroke-miterlimit:4;stroke-dasharray:none"
           id="path4614"
           inkscape:connector-curvature="0" />
        <path
           d="m 171.1372,425.30221 0,-6.93778 q 0,-2.09712 2.72099,-2.09712 2.68341,0 2.68341,2.08209 l 0,6.93778 q 0,0.93957 -0.75165,1.45069 -0.74414,0.50361 -1.94679,0.50361 -2.70596,0 -2.70596,-1.93927 z m 3.0893,0.11275 0,-7.34368 q 0,-0.32321 -0.38334,-0.32321 -0.39838,0 -0.39838,0.32321 l 0,7.34368 q 0,0.32321 0.39838,0.32321 0.38334,0 0.38334,-0.32321 z"
           style="font-style:normal;font-variant:normal;font-weight:normal;font-stretch:normal;font-family:Haettenschweiler;-inkscape-font-specification:Haettenschweiler;fill:#0000ff;stroke:#0000ff;stroke-width:0.13287439;stroke-miterlimit:4;stroke-dasharray:none"
           id="path4616"
           inkscape:connector-curvature="0" />
        <path
           d="m 179.37535,427.14377 -2.36772,0 0,-10.77874 2.36772,0 0,10.77874 z"
           style="font-style:normal;font-variant:normal;font-weight:normal;font-stretch:normal;font-family:Haettenschweiler;-inkscape-font-specification:Haettenschweiler;fill:#0000ff;stroke:#0000ff;stroke-width:0.13287439;stroke-miterlimit:4;stroke-dasharray:none"
           id="path4618"
           inkscape:connector-curvature="0" />
        <path
           d="m 185.92978,427.14377 -2.43536,0 -1.60854,-5.74265 0,5.74265 -1.97686,0 0,-10.77874 2.69093,0 1.35298,4.91582 0,-4.91582 1.97685,0 0,10.77874 z"
           style="font-style:normal;font-variant:normal;font-weight:normal;font-stretch:normal;font-family:Haettenschweiler;-inkscape-font-specification:Haettenschweiler;fill:#0000ff;stroke:#0000ff;stroke-width:0.13287439;stroke-miterlimit:4;stroke-dasharray:none"
           id="path4620"
           inkscape:connector-curvature="0" />
        <path
           d="m 189.18445,416.36503 2.36772,0 0,9.04993 q 0,0.32321 0.39837,0.32321 0.39087,0 0.39087,-0.32321 l 0,-9.04993 2.36771,0 0,8.92215 q 0,0.93205 -0.7742,1.44318 -0.77421,0.51112 -1.98438,0.51112 -1.11996,0 -1.94678,-0.45851 -0.81931,-0.45851 -0.81931,-1.48076 l 0,-8.93718 z"
           style="font-style:normal;font-variant:normal;font-weight:normal;font-stretch:normal;font-family:Haettenschweiler;-inkscape-font-specification:Haettenschweiler;fill:#0000ff;stroke:#0000ff;stroke-width:0.13287439;stroke-miterlimit:4;stroke-dasharray:none"
           id="path4622"
           inkscape:connector-curvature="0" />
        <path
           d="m 195.20521,422.82926 2.15725,0 0,2.47295 q 0,0.36831 0.44348,0.36831 0.42844,0 0.42844,-0.36831 l 0,-1.27781 q 0,-0.58629 -0.78172,-1.37553 -1.51082,-1.46573 -1.87914,-1.96934 -0.36831,-0.50361 -0.36831,-1.10493 l 0,-1.21017 q 0,-2.09712 2.73603,-2.09712 2.4504,0 2.4504,1.90921 l 0,1.8641 -2.15726,0 0,-1.98437 q 0,-0.32321 -0.35327,-0.32321 -0.41341,0 -0.41341,0.62387 l 0.0451,0.69904 q 0,0.60133 0.79675,1.39808 1.48076,1.42063 1.87914,1.98437 0.40589,0.56375 0.40589,1.27782 l 0,1.37553 q 0,2.14973 -2.74354,2.14973 -2.64583,0 -2.64583,-1.9543 l 0,-2.45792 z"
           style="font-style:normal;font-variant:normal;font-weight:normal;font-stretch:normal;font-family:Haettenschweiler;-inkscape-font-specification:Haettenschweiler;fill:#0000ff;stroke:#0000ff;stroke-width:0.13287439;stroke-miterlimit:4;stroke-dasharray:none"
           id="path4624"
           inkscape:connector-curvature="0" />
      </g>
      <g
         transform="scale(0.92779414,1.0778253)"
         style="font-style:normal;font-weight:normal;font-size:10.97218132px;line-height:125%;font-family:sans-serif;letter-spacing:0px;word-spacing:0px;fill:#0000ff;fill-opacity:1;stroke:#0000ff;stroke-width:0.13287439;stroke-linecap:butt;stroke-linejoin:miter;stroke-miterlimit:4;stroke-dasharray:none;stroke-opacity:1"
         id="text4558">
        <path
           d="m 200.16596,337.06036 -1.69297,0 -0.41789,1.66618 1.51082,0 0,1.28581 -1.83227,0 -0.48753,1.89656 -1.29116,0 0.47681,-1.89656 -1.41438,0 -0.47682,1.89656 -1.31259,0 0.48218,-1.89656 -1.44653,0 0,-1.28581 1.76798,0 0.41253,-1.66618 -1.56975,0 0,-1.28045 1.8912,0 0.46074,-1.84834 1.31259,0 -0.46074,1.84834 1.40902,0 0.46611,-1.84834 1.31259,0 -0.46611,1.84834 1.36617,0 0,1.28045 z m -2.97878,-0.0107 -1.43581,0 -0.4286,1.69298 1.44117,0 0.42324,-1.69298 z"
           style="font-style:normal;font-variant:normal;font-weight:bold;font-stretch:normal;font-family:sans-serif;-inkscape-font-specification:'sans-serif Bold';fill:#0000ff;stroke:#0000ff;stroke-width:0.13287439;stroke-miterlimit:4;stroke-dasharray:none"
           id="path4627"
           inkscape:connector-curvature="0" />
      </g>
    </g>
    <path
       style="color:#000000;clip-rule:nonzero;display:inline;overflow:visible;visibility:visible;opacity:1;isolation:auto;mix-blend-mode:normal;color-interpolation:sRGB;color-interpolation-filters:linearRGB;solid-color:#000000;solid-opacity:1;fill:none;fill-opacity:1;fill-rule:nonzero;stroke:#ff00ff;stroke-width:0.94487923;stroke-linecap:butt;stroke-linejoin:miter;stroke-miterlimit:4;stroke-dasharray:none;stroke-dashoffset:0;stroke-opacity:1;color-rendering:auto;image-rendering:auto;shape-rendering:auto;text-rendering:auto;enable-background:accumulate"
       d="m 232.50965,311.00151 a 12.249668,12.249665 0 0 1 -12.24967,12.24967 12.249668,12.249665 0 0 1 -12.24968,-12.24967 12.249668,12.249665 0 0 1 12.24968,-12.24968 12.249668,12.249665 0 0 1 12.24967,12.24968 z"
       id="path4570"
       inkscape:connector-curvature="0" />
    <path
       style="color:#000000;clip-rule:nonzero;display:inline;overflow:visible;visibility:visible;opacity:1;isolation:auto;mix-blend-mode:normal;color-interpolation:sRGB;color-interpolation-filters:linearRGB;solid-color:#000000;solid-opacity:1;fill:none;fill-opacity:1;fill-rule:nonzero;stroke:#ff00ff;stroke-width:0.94487923;stroke-linecap:butt;stroke-linejoin:miter;stroke-miterlimit:4;stroke-dasharray:none;stroke-dashoffset:0;stroke-opacity:1;color-rendering:auto;image-rendering:auto;shape-rendering:auto;text-rendering:auto;enable-background:accumulate"
       d="m 228.75789,307.98093 0,5.31142 -5.99843,0.0267 -0.0323,5.83794 -5.09009,0 0.0344,-5.81836 -6.06497,-0.0464 0,-5.31142 6.02586,0.0213 0.005,-5.88674 5.09009,0 0.0134,5.9064 z"
       id="rect4572"
       inkscape:connector-curvature="0"
       sodipodi:nodetypes="ccccccccccccc" />
    <path
       style="fill:none;fill-rule:evenodd;stroke:#ff00ff;stroke-width:0.94487923;stroke-linecap:butt;stroke-linejoin:miter;stroke-miterlimit:4;stroke-dasharray:none;stroke-opacity:1"
       d="m 342.59563,241.9538 3.77125,-3.77126 -92.39505,-89.33089 -32.90535,145.20128 -0.8065,-0.0345 c -9.37939,0 -16.98288,7.60349 -16.98288,16.9829 0,9.37938 7.60349,16.98287 16.98288,16.98287 9.37938,0 16.98289,-7.60349 16.98289,-16.98287 0,-7.42674 -4.76716,-13.74004 -11.24611,-16.26659 l 30.5678,-135.74811 86.03107,82.49556"
       id="path4579"
       inkscape:connector-curvature="0"
       sodipodi:nodetypes="cccccsssccc" />
    <g
       id="g4601"
       transform="matrix(1.4890896,0,0,1.4815448,37.043073,-241.11953)"
       style="stroke-width:0.23855635;stroke-miterlimit:4;stroke-dasharray:none;fill:none;stroke:#ff00ff">
      <path
         style="color:#000000;clip-rule:nonzero;display:inline;overflow:visible;visibility:visible;opacity:1;isolation:auto;mix-blend-mode:normal;color-interpolation:sRGB;color-interpolation-filters:linearRGB;solid-color:#000000;solid-opacity:1;fill:none;fill-opacity:1;fill-rule:nonzero;stroke:#ff00ff;stroke-width:0.23855635;stroke-linecap:butt;stroke-linejoin:miter;stroke-miterlimit:4;stroke-dasharray:none;stroke-dashoffset:0;stroke-opacity:1;color-rendering:auto;image-rendering:auto;shape-rendering:auto;text-rendering:auto;enable-background:accumulate"
         d="m 186.96864,407.48721 a 4.5936379,4.5936379 0 0 1 -4.59364,4.59364 4.5936379,4.5936379 0 0 1 -4.59364,-4.59364 4.5936379,4.5936379 0 0 1 4.59364,-4.59363 4.5936379,4.5936379 0 0 1 4.59364,4.59363 z"
         id="path4570-9"
         inkscape:connector-curvature="0" />
      <path
         sodipodi:nodetypes="ccccccccccccc"
         inkscape:connector-curvature="0"
         id="rect4572-2"
         d="m 185.56173,406.35449 0,1.99178 -2.24942,0.01 -0.0121,2.18923 -1.90879,0 0.0129,-2.18189 -2.27437,-0.0174 0,-1.99178 2.2597,0.008 0.002,-2.20753 1.90879,0 0.005,2.2149 z"
         style="color:#000000;clip-rule:nonzero;display:inline;overflow:visible;visibility:visible;opacity:1;isolation:auto;mix-blend-mode:normal;color-interpolation:sRGB;color-interpolation-filters:linearRGB;solid-color:#000000;solid-opacity:1;fill:none;fill-opacity:1;fill-rule:nonzero;stroke:#ff00ff;stroke-width:0.23855635;stroke-linecap:butt;stroke-linejoin:miter;stroke-miterlimit:4;stroke-dasharray:none;stroke-dashoffset:0;stroke-opacity:1;color-rendering:auto;image-rendering:auto;shape-rendering:auto;text-rendering:auto;enable-background:accumulate" />
    </g>
    <path
       style="color:#000000;clip-rule:nonzero;display:inline;overflow:visible;visibility:visible;opacity:1;isolation:auto;mix-blend-mode:normal;color-interpolation:sRGB;color-interpolation-filters:linearRGB;solid-color:#000000;solid-opacity:1;fill:#00ffff;fill-opacity:1;fill-rule:nonzero;stroke:#00ffff;stroke-width:0.94487923;stroke-linecap:butt;stroke-linejoin:miter;stroke-miterlimit:4;stroke-dasharray:none;stroke-dashoffset:0;stroke-opacity:1;color-rendering:auto;image-rendering:auto;shape-rendering:auto;text-rendering:auto;enable-background:accumulate"
       d="m 259.11176,45.349227 c -6.18458,3.474402 -12.17735,7.249794 -17.95846,11.306411 l 18.87049,8.879414 c 3.59076,-2.275114 7.26118,-4.434645 11.00608,-6.473331 z m 5.4359,-2.950154 c 29.38784,-15.397567 62.83141,-24.107093 98.3092,-24.107093 76.3431,0 143.26676,40.329367 180.62861,100.84573 l -18.11573,5.79872 C 490.97191,71.277222 431.03795,35.749897 362.85684,35.749897 c -28.64574,0 -55.83572,6.271255 -80.28768,17.523682 z m 285.21551,87.614907 c 16.08992,29.88931 25.21966,64.08044 25.21966,100.404 0,117.15394 -94.97204,212.12595 -212.12597,212.12595 -117.15393,0 -212.126,-94.97201 -212.126,-212.12595 0,-68.39923 32.37311,-129.23732 82.6331,-168.028052 l 12.99082,12.653953 c -46.62042,35.497459 -76.74143,91.778719 -76.74143,155.138389 0,107.382 86.51808,194.43232 193.24349,194.43232 106.72542,0 193.2435,-87.05032 193.2435,-194.43235 0,-31.80081 -7.58787,-61.81849 -21.04134,-88.32013 z"
       id="path4605"
       inkscape:connector-curvature="0"
       sodipodi:nodetypes="ccccccsccscccsssccssscc" />
    <path
       style="color:#000000;clip-rule:nonzero;display:inline;overflow:visible;visibility:visible;opacity:1;isolation:auto;mix-blend-mode:normal;color-interpolation:sRGB;color-interpolation-filters:linearRGB;solid-color:#000000;solid-opacity:1;fill:none;fill-opacity:1;fill-rule:nonzero;stroke:#ff0000;stroke-width:0.60588431;stroke-linecap:butt;stroke-linejoin:miter;stroke-miterlimit:4;stroke-dasharray:none;stroke-dashoffset:0;stroke-opacity:1;color-rendering:auto;image-rendering:auto;shape-rendering:auto;text-rendering:auto;enable-background:accumulate"
       d="m 362.85591,529.22059 -88.2788,0 -0.24204,-105.88908 C 201.27066,389.53882 150.73086,315.88052 150.73086,230.41799 c 0,-68.39923 32.37311,-129.23732 82.6331,-168.028047 l 7.78934,-5.73429 c 5.78111,-4.056617 11.77388,-7.832009 17.95846,-11.306411 l 5.4359,-2.95018 c 29.38784,-15.397567 62.83141,-24.107093 98.3092,-24.107093 76.3431,0 143.26676,40.329366 180.62861,100.845731 l 6.2777,10.87627 c 16.08992,29.8893 25.21966,64.08044 25.21966,100.40399 0,85.67796 -50.79488,159.49211 -123.87975,193.04019 z"
       id="rect4920"
       inkscape:connector-curvature="0"
       sodipodi:nodetypes="cccsccccsccscc" />
  </g>
</svg>
