  0
SECTION
  2
HEADER
  9
$ACADVER
  1
AC1014
  9
$HANDSEED
  5
FFFF
  9
$MEASUREMENT
 70
     1
  0
ENDSEC
  0
SECTION
  2
TABLES
  0
TABLE
  2
VPORT
  5
8
330
0
100
AcDbSymbolTable
 70
     4
  0
VPORT
  5
2E
330
8
100
AcDbSymbolTableRecord
100
AcDbViewportTableRecord
  2
*ACTIVE
 70
     0
 10
0.0
 20
0.0
 11
1.0
 21
1.0
 12
210.0
 22
148.5
 13
0.0
 23
0.0
 14
10.0
 24
10.0
 15
10.0
 25
10.0
 16
0.0
 26
0.0
 36
1.0
 17
0.0
 27
0.0
 37
0.0
 40
341.0
 41
1.24
 42
50.0
 43
0.0
 44
0.0
 50
0.0
 51
0.0
 71
     0
 72
   100
 73
     1
 74
     3
 75
     0
 76
     0
 77
     0
 78
     0
  0
ENDTAB
  0
TABLE
  2
LTYPE
  5
5
330
0
100
AcDbSymbolTable
 70
     1
  0
LTYPE
  5
14
330
5
100
AcDbSymbolTableRecord
100
AcDbLinetypeTableRecord
  2
BYBLOCK
 70
     0
  3

 72
    65
 73
     0
 40
0.0
  0
LTYPE
  5
15
330
5
100
AcDbSymbolTableRecord
100
AcDbLinetypeTableRecord
  2
BYLAYER
 70
     0
  3

 72
    65
 73
     0
 40
0.0
  0
LTYPE
  5
16
330
5
100
AcDbSymbolTableRecord
100
AcDbLinetypeTableRecord
  2
CONTINUOUS
 70
     0
  3
Solid line
 72
    65
 73
     0
 40
0.0
  0
ENDTAB
  0
TABLE
  2
LAYER
  5
2
100
AcDbSymbolTable
 70
2
  0
LAYER
  5
50
100
AcDbSymbolTableRecord
100
AcDbLayerTableRecord
  2
0
 70
0
  6
CONTINUOUS
  0
LAYER
  5
51
100
AcDbSymbolTableRecord
100
AcDbLayerTableRecord
  2
Calque_2
 70
0
  6
CONTINUOUS
  0
ENDTAB
  0
TABLE
  2
STYLE
  5
3
330
0
100
AcDbSymbolTable
 70
     1
  0
STYLE
  5
11
330
3
100
AcDbSymbolTableRecord
100
AcDbTextStyleTableRecord
  2
STANDARD
 70
     0
 40
0.0
 41
1.0
 50
0.0
 71
     0
 42
2.5
  3
txt
  4

  0
ENDTAB
  0
TABLE
  2
VIEW
  5
6
330
0
100
AcDbSymbolTable
 70
     0
  0
ENDTAB
  0
TABLE
  2
UCS
  5
7
330
0
100
AcDbSymbolTable
 70
     0
  0
ENDTAB
  0
TABLE
  2
APPID
  5
9
330
0
100
AcDbSymbolTable
 70
     2
  0
APPID
  5
12
330
9
100
AcDbSymbolTableRecord
100
AcDbRegAppTableRecord
  2
ACAD
 70
     0
  0
ENDTAB
  0
TABLE
  2
DIMSTYLE
  5
A
330
0
100
AcDbSymbolTable
 70
     1
  0
DIMSTYLE
105
27
330
A
100
AcDbSymbolTableRecord
100
AcDbDimStyleTableRecord
  2
ISO-25
 70
     0
  3

  4

  5

  6

  7

 40
1.0
 41
2.5
 42
0.625
 43
3.75
 44
1.25
 45
0.0
 46
0.0
 47
0.0
 48
0.0
140
2.5
141
2.5
142
0.0
143
0.03937007874016
144
1.0
145
0.0
146
1.0
147
0.625
 71
     0
 72
     0
 73
     0
 74
     0
 75
     0
 76
     0
 77
     1
 78
     8
170
     0
171
     3
172
     1
173
     0
174
     0
175
     0
176
     0
177
     0
178
     0
270
     2
271
     2
272
     2
273
     2
274
     3
340
11
275
     0
280
     0
281
     0
282
     0
283
     0
284
     8
285
     0
286
     0
287
     3
288
     0
  0
ENDTAB
  0
TABLE
  2
BLOCK_RECORD
  5
1
330
0
100
AcDbSymbolTable
 70
     1
  0
BLOCK_RECORD
  5
1F
330
1
100
AcDbSymbolTableRecord
100
AcDbBlockTableRecord
  2
*MODEL_SPACE
  0
BLOCK_RECORD
  5
1B
330
1
100
AcDbSymbolTableRecord
100
AcDbBlockTableRecord
  2
*PAPER_SPACE
  0
ENDTAB
  0
ENDSEC
  0
SECTION
  2
BLOCKS
  0
BLOCK
  5
20
330
1F
100
AcDbEntity
  8
0
100
AcDbBlockBegin
  2
*MODEL_SPACE
 70
     0
 10
0.0
 20
0.0
 30
0.0
  3
*MODEL_SPACE
  1

  0
ENDBLK
  5
21
330
1F
100
AcDbEntity
  8
0
100
AcDbBlockEnd
  0
BLOCK
  5
1C
330
1B
100
AcDbEntity
 67
     1
  8
0
100
AcDbBlockBegin
  2
*PAPER_SPACE
  1

  0
ENDBLK
  5
1D
330
1B
100
AcDbEntity
 67
     1
  8
0
100
AcDbBlockEnd
  0
ENDSEC
  0
SECTION
  2
ENTITIES
  0
SPLINE
  5
100
100
AcDbEntity
  8
Calque_2
 62
7
100
AcDbSpline
 70
8
 71
3
 72
8
 73
4
 74
0
 40
0
 40
0
 40
0
 40
0
 40
1
 40
1
 40
1
 40
1
 10
98.214437
 20
254.779666
 30
0.0
 10
85.620671
 20
254.578831
 30
0.0
 10
45.947762
 20
258.473043
 30
0.0
 10
46.187431
 20
195.569774
 30
0.0
  0
SPLINE
  5
101
100
AcDbEntity
  8
Calque_2
 62
7
100
AcDbSpline
 70
8
 71
3
 72
8
 73
4
 74
0
 40
0
 40
0
 40
0
 40
0
 40
1
 40
1
 40
1
 40
1
 10
46.187431
 20
195.569774
 30
0.0
 10
37.771761
 20
171.390438
 30
0.0
 10
26.420378
 20
150.146790
 30
0.0
 10
21.384397
 20
122.587770
 30
0.0
  0
SPLINE
  5
102
100
AcDbEntity
  8
Calque_2
 62
7
100
AcDbSpline
 70
8
 71
3
 72
8
 73
4
 74
0
 40
0
 40
0
 40
0
 40
0
 40
1
 40
1
 40
1
 40
1
 10
21.384397
 20
122.587770
 30
0.0
 10
20.032736
 20
99.576939
 30
0.0
 10
56.088447
 20
92.938452
 30
0.0
 10
98.214437
 20
92.938452
 30
0.0
  0
SPLINE
  5
103
100
AcDbEntity
  8
Calque_2
 62
7
100
AcDbSpline
 70
8
 71
3
 72
8
 73
4
 74
0
 40
0
 40
0
 40
0
 40
0
 40
1
 40
1
 40
1
 40
1
 10
98.214437
 20
92.938452
 30
0.0
 10
140.340427
 20
92.938452
 30
0.0
 10
176.395583
 20
99.576939
 30
0.0
 10
175.043925
 20
122.587770
 30
0.0
  0
SPLINE
  5
104
100
AcDbEntity
  8
Calque_2
 62
7
100
AcDbSpline
 70
8
 71
3
 72
8
 73
4
 74
0
 40
0
 40
0
 40
0
 40
0
 40
1
 40
1
 40
1
 40
1
 10
175.043925
 20
122.587770
 30
0.0
 10
170.007943
 20
150.146790
 30
0.0
 10
158.656559
 20
171.390438
 30
0.0
 10
150.240890
 20
195.569774
 30
0.0
  0
SPLINE
  5
105
100
AcDbEntity
  8
Calque_2
 62
7
100
AcDbSpline
 70
8
 71
3
 72
8
 73
4
 74
0
 40
0
 40
0
 40
0
 40
0
 40
1
 40
1
 40
1
 40
1
 10
150.240890
 20
195.569774
 30
0.0
 10
150.480559
 20
258.473043
 30
0.0
 10
110.808203
 20
254.578831
 30
0.0
 10
98.214437
 20
254.779666
 30
0.0
  0
LINE
  5
106
100
AcDbEntity
  8
Calque_2
 62
7
100
AcDbLine
 10
98.214437
 20
254.779666
 30
0.0
 11
98.214437
 21
254.779666
 31
0.0
  0
SPLINE
  5
107
100
AcDbEntity
  8
Calque_2
 62
7
100
AcDbSpline
 70
8
 71
3
 72
8
 73
4
 74
0
 40
0
 40
0
 40
0
 40
0
 40
1
 40
1
 40
1
 40
1
 10
91.976332
 20
252.901124
 30
0.0
 10
92.381248
 20
252.897794
 30
0.0
 10
92.788184
 20
252.890456
 30
0.0
 10
93.197827
 20
252.878518
 30
0.0
  0
LINE
  5
108
100
AcDbEntity
  8
Calque_2
 62
7
100
AcDbLine
 10
93.197827
 20
252.878518
 30
0.0
 11
93.161445
 21
199.774989
 31
0.0
  0
SPLINE
  5
109
100
AcDbEntity
  8
Calque_2
 62
7
100
AcDbSpline
 70
8
 71
3
 72
8
 73
4
 74
0
 40
0
 40
0
 40
0
 40
0
 40
1
 40
1
 40
1
 40
1
 10
93.161445
 20
199.774989
 30
0.0
 10
83.180758
 20
210.074350
 30
0.0
 10
56.884895
 20
221.293736
 30
0.0
 10
48.665144
 20
202.997400
 30
0.0
  0
SPLINE
  5
10a
100
AcDbEntity
  8
Calque_2
 62
7
100
AcDbSpline
 70
8
 71
3
 72
8
 73
4
 74
0
 40
0
 40
0
 40
0
 40
0
 40
1
 40
1
 40
1
 40
1
 10
48.665144
 20
202.997400
 30
0.0
 10
50.372620
 20
236.240959
 30
0.0
 10
66.466587
 20
253.110970
 30
0.0
 10
91.976332
 20
252.901124
 30
0.0
  0
LINE
  5
10b
100
AcDbEntity
  8
Calque_2
 62
7
100
AcDbLine
 10
91.976332
 20
252.901124
 30
0.0
 11
91.976332
 21
252.901124
 31
0.0
  0
SPLINE
  5
10c
100
AcDbEntity
  8
Calque_2
 62
7
100
AcDbSpline
 70
8
 71
3
 72
8
 73
4
 74
0
 40
0
 40
0
 40
0
 40
0
 40
1
 40
1
 40
1
 40
1
 10
104.451988
 20
252.901124
 30
0.0
 10
129.961733
 20
253.110970
 30
0.0
 10
146.055701
 20
236.240959
 30
0.0
 10
147.763176
 20
202.997400
 30
0.0
  0
SPLINE
  5
10d
100
AcDbEntity
  8
Calque_2
 62
7
100
AcDbSpline
 70
8
 71
3
 72
8
 73
4
 74
0
 40
0
 40
0
 40
0
 40
0
 40
1
 40
1
 40
1
 40
1
 10
147.763176
 20
202.997400
 30
0.0
 10
139.543426
 20
221.293736
 30
0.0
 10
113.247562
 20
210.074350
 30
0.0
 10
103.266875
 20
199.774995
 30
0.0
  0
LINE
  5
10e
100
AcDbEntity
  8
Calque_2
 62
7
100
AcDbLine
 10
103.266875
 20
199.774995
 30
0.0
 11
103.230494
 21
252.878524
 31
0.0
  0
SPLINE
  5
10f
100
AcDbEntity
  8
Calque_2
 62
7
100
AcDbSpline
 70
8
 71
3
 72
8
 73
4
 74
0
 40
0
 40
0
 40
0
 40
0
 40
1
 40
1
 40
1
 40
1
 10
103.230494
 20
252.878524
 30
0.0
 10
103.640136
 20
252.890462
 30
0.0
 10
104.047070
 20
252.897799
 30
0.0
 10
104.451988
 20
252.901130
 30
0.0
  0
LINE
  5
110
100
AcDbEntity
  8
Calque_2
 62
7
100
AcDbLine
 10
104.451988
 20
252.901130
 30
0.0
 11
104.451988
 21
252.901124
 31
0.0
  0
LINE
  5
111
100
AcDbEntity
  8
Calque_2
 62
7
100
AcDbLine
 10
97.611407
 20
251.490013
 30
0.0
 11
98.816914
 21
251.490013
 31
0.0
  0
LINE
  5
112
100
AcDbEntity
  8
Calque_2
 62
7
100
AcDbLine
 10
98.816914
 20
251.490013
 30
0.0
 11
98.890777
 21
194.708225
 31
0.0
  0
LINE
  5
113
100
AcDbEntity
  8
Calque_2
 62
7
100
AcDbLine
 10
98.890777
 20
194.708225
 30
0.0
 11
97.537544
 21
194.682854
 31
0.0
  0
LINE
  5
114
100
AcDbEntity
  8
Calque_2
 62
7
100
AcDbLine
 10
97.537544
 20
194.682854
 30
0.0
 11
97.611407
 21
251.490013
 31
0.0
  0
SPLINE
  5
115
100
AcDbEntity
  8
Calque_2
 62
7
100
AcDbSpline
 70
8
 71
3
 72
8
 73
4
 74
0
 40
0
 40
0
 40
0
 40
0
 40
1
 40
1
 40
1
 40
1
 10
75.577127
 20
202.115455
 30
0.0
 10
75.908710
 20
202.115605
 30
0.0
 10
76.177549
 20
201.846766
 30
0.0
 10
76.177400
 20
201.515183
 30
0.0
  0
SPLINE
  5
116
100
AcDbEntity
  8
Calque_2
 62
7
100
AcDbSpline
 70
8
 71
3
 72
8
 73
4
 74
0
 40
0
 40
0
 40
0
 40
0
 40
1
 40
1
 40
1
 40
1
 10
76.177400
 20
201.515183
 30
0.0
 10
76.177247
 20
201.183814
 30
0.0
 10
75.908495
 20
200.915311
 30
0.0
 10
75.577127
 20
200.915460
 30
0.0
  0
SPLINE
  5
117
100
AcDbEntity
  8
Calque_2
 62
7
100
AcDbSpline
 70
8
 71
3
 72
8
 73
4
 74
0
 40
0
 40
0
 40
0
 40
0
 40
1
 40
1
 40
1
 40
1
 10
75.577127
 20
200.915460
 30
0.0
 10
75.245973
 20
200.915613
 30
0.0
 10
74.977557
 20
201.184029
 30
0.0
 10
74.977405
 20
201.515183
 30
0.0
  0
SPLINE
  5
118
100
AcDbEntity
  8
Calque_2
 62
7
100
AcDbSpline
 70
8
 71
3
 72
8
 73
4
 74
0
 40
0
 40
0
 40
0
 40
0
 40
1
 40
1
 40
1
 40
1
 10
74.977405
 20
201.515183
 30
0.0
 10
74.977255
 20
201.846551
 30
0.0
 10
75.245759
 20
202.115303
 30
0.0
 10
75.577127
 20
202.115455
 30
0.0
  0
LINE
  5
119
100
AcDbEntity
  8
Calque_2
 62
7
100
AcDbLine
 10
75.577127
 20
202.115455
 30
0.0
 11
75.577127
 21
202.115455
 31
0.0
  0
SPLINE
  5
11a
100
AcDbEntity
  8
Calque_2
 62
7
100
AcDbSpline
 70
8
 71
3
 72
8
 73
4
 74
0
 40
0
 40
0
 40
0
 40
0
 40
1
 40
1
 40
1
 40
1
 10
123.151965
 20
202.115455
 30
0.0
 10
123.483551
 20
202.115608
 30
0.0
 10
123.752390
 20
201.846768
 30
0.0
 10
123.752240
 20
201.515183
 30
0.0
  0
SPLINE
  5
11b
100
AcDbEntity
  8
Calque_2
 62
7
100
AcDbSpline
 70
8
 71
3
 72
8
 73
4
 74
0
 40
0
 40
0
 40
0
 40
0
 40
1
 40
1
 40
1
 40
1
 10
123.752240
 20
201.515183
 30
0.0
 10
123.752088
 20
201.183811
 30
0.0
 10
123.483336
 20
200.915308
 30
0.0
 10
123.151965
 20
200.915460
 30
0.0
  0
SPLINE
  5
11c
100
AcDbEntity
  8
Calque_2
 62
7
100
AcDbSpline
 70
8
 71
3
 72
8
 73
4
 74
0
 40
0
 40
0
 40
0
 40
0
 40
1
 40
1
 40
1
 40
1
 10
123.151965
 20
200.915460
 30
0.0
 10
122.820811
 20
200.915613
 30
0.0
 10
122.552395
 20
201.184029
 30
0.0
 10
122.552243
 20
201.515183
 30
0.0
  0
SPLINE
  5
11d
100
AcDbEntity
  8
Calque_2
 62
7
100
AcDbSpline
 70
8
 71
3
 72
8
 73
4
 74
0
 40
0
 40
0
 40
0
 40
0
 40
1
 40
1
 40
1
 40
1
 10
122.552243
 20
201.515183
 30
0.0
 10
122.552093
 20
201.846551
 30
0.0
 10
122.820597
 20
202.115303
 30
0.0
 10
123.151965
 20
202.115455
 30
0.0
  0
LINE
  5
11e
100
AcDbEntity
  8
Calque_2
 62
7
100
AcDbLine
 10
123.151965
 20
202.115455
 30
0.0
 11
123.151965
 21
202.115455
 31
0.0
  0
SPLINE
  5
11f
100
AcDbEntity
  8
Calque_2
 62
7
100
AcDbSpline
 70
8
 71
3
 72
8
 73
4
 74
0
 40
0
 40
0
 40
0
 40
0
 40
1
 40
1
 40
1
 40
1
 10
67.889879
 20
199.435998
 30
0.0
 10
73.886712
 20
199.477829
 30
0.0
 10
81.661954
 20
197.609577
 30
0.0
 10
91.476932
 20
192.063493
 30
0.0
  0
LINE
  5
120
100
AcDbEntity
  8
Calque_2
 62
7
100
AcDbLine
 10
91.476932
 20
192.063493
 30
0.0
 11
97.533686
 21
191.776312
 31
0.0
  0
LINE
  5
121
100
AcDbEntity
  8
Calque_2
 62
7
100
AcDbLine
 10
97.533686
 20
191.776312
 30
0.0
 11
98.894635
 21
191.776312
 31
0.0
  0
LINE
  5
122
100
AcDbEntity
  8
Calque_2
 62
7
100
AcDbLine
 10
98.894635
 20
191.776312
 30
0.0
 11
104.951389
 21
192.063493
 31
0.0
  0
SPLINE
  5
123
100
AcDbEntity
  8
Calque_2
 62
7
100
AcDbSpline
 70
8
 71
3
 72
8
 73
4
 74
0
 40
0
 40
0
 40
0
 40
0
 40
1
 40
1
 40
1
 40
1
 10
104.951389
 20
192.063493
 30
0.0
 10
133.504051
 20
208.197553
 30
0.0
 10
144.791537
 20
193.206306
 30
0.0
 10
145.267274
 20
190.612695
 30
0.0
  0
SPLINE
  5
124
100
AcDbEntity
  8
Calque_2
 62
7
100
AcDbSpline
 70
8
 71
3
 72
8
 73
4
 74
0
 40
0
 40
0
 40
0
 40
0
 40
1
 40
1
 40
1
 40
1
 10
145.267274
 20
190.612695
 30
0.0
 10
152.443536
 20
172.277626
 30
0.0
 10
168.039706
 20
137.960039
 30
0.0
 10
170.980365
 20
120.076983
 30
0.0
  0
SPLINE
  5
125
100
AcDbEntity
  8
Calque_2
 62
7
100
AcDbSpline
 70
8
 71
3
 72
8
 73
4
 74
0
 40
0
 40
0
 40
0
 40
0
 40
1
 40
1
 40
1
 40
1
 10
170.980365
 20
120.076983
 30
0.0
 10
171.782305
 20
115.200129
 30
0.0
 10
172.828320
 20
115.240089
 30
0.0
 10
172.405808
 20
114.510813
 30
0.0
  0
SPLINE
  5
126
100
AcDbEntity
  8
Calque_2
 62
7
100
AcDbSpline
 70
8
 71
3
 72
8
 73
4
 74
0
 40
0
 40
0
 40
0
 40
0
 40
1
 40
1
 40
1
 40
1
 10
172.405808
 20
114.510813
 30
0.0
 10
160.890198
 20
94.634246
 30
0.0
 10
110.396782
 20
94.572253
 30
0.0
 10
98.214437
 20
94.572253
 30
0.0
  0
SPLINE
  5
127
100
AcDbEntity
  8
Calque_2
 62
7
100
AcDbSpline
 70
8
 71
3
 72
8
 73
4
 74
0
 40
0
 40
0
 40
0
 40
0
 40
1
 40
1
 40
1
 40
1
 10
98.214437
 20
94.572253
 30
0.0
 10
86.032092
 20
94.572253
 30
0.0
 10
35.538122
 20
94.634246
 30
0.0
 10
24.022513
 20
114.510813
 30
0.0
  0
SPLINE
  5
128
100
AcDbEntity
  8
Calque_2
 62
7
100
AcDbSpline
 70
8
 71
3
 72
8
 73
4
 74
0
 40
0
 40
0
 40
0
 40
0
 40
1
 40
1
 40
1
 40
1
 10
24.022513
 20
114.510813
 30
0.0
 10
23.600001
 20
115.240089
 30
0.0
 10
24.646016
 20
115.200129
 30
0.0
 10
25.447956
 20
120.076983
 30
0.0
  0
SPLINE
  5
129
100
AcDbEntity
  8
Calque_2
 62
7
100
AcDbSpline
 70
8
 71
3
 72
8
 73
4
 74
0
 40
0
 40
0
 40
0
 40
0
 40
1
 40
1
 40
1
 40
1
 10
25.447956
 20
120.076983
 30
0.0
 10
28.388615
 20
137.960039
 30
0.0
 10
43.984785
 20
172.277626
 30
0.0
 10
51.161047
 20
190.612695
 30
0.0
  0
SPLINE
  5
12a
100
AcDbEntity
  8
Calque_2
 62
7
100
AcDbSpline
 70
8
 71
3
 72
8
 73
4
 74
0
 40
0
 40
0
 40
0
 40
0
 40
1
 40
1
 40
1
 40
1
 10
51.161047
 20
190.612695
 30
0.0
 10
51.473247
 20
192.314752
 30
0.0
 10
56.441377
 20
199.356140
 30
0.0
 10
67.889879
 20
199.435998
 30
0.0
  0
LINE
  5
12b
100
AcDbEntity
  8
Calque_2
 62
7
100
AcDbLine
 10
67.889879
 20
199.435998
 30
0.0
 11
67.889879
 21
199.435998
 31
0.0
  0
SPLINE
  5
12c
100
AcDbEntity
  8
Calque_2
 62
7
100
AcDbSpline
 70
8
 71
3
 72
8
 73
4
 74
0
 40
0
 40
0
 40
0
 40
0
 40
1
 40
1
 40
1
 40
1
 10
72.325507
 20
193.591464
 30
0.0
 10
61.881509
 20
193.600156
 30
0.0
 10
53.343909
 20
188.387943
 30
0.0
 10
54.312343
 20
180.460411
 30
0.0
  0
SPLINE
  5
12d
100
AcDbEntity
  8
Calque_2
 62
7
100
AcDbSpline
 70
8
 71
3
 72
8
 73
4
 74
0
 40
0
 40
0
 40
0
 40
0
 40
1
 40
1
 40
1
 40
1
 10
54.312343
 20
180.460411
 30
0.0
 10
55.114018
 20
173.897971
 30
0.0
 10
63.237008
 20
170.259032
 30
0.0
 10
73.341950
 20
167.346451
 30
0.0
  0
SPLINE
  5
12e
100
AcDbEntity
  8
Calque_2
 62
7
100
AcDbSpline
 70
8
 71
3
 72
8
 73
4
 74
0
 40
0
 40
0
 40
0
 40
0
 40
1
 40
1
 40
1
 40
1
 10
73.341950
 20
167.346451
 30
0.0
 10
87.230356
 20
163.343346
 30
0.0
 10
92.556937
 20
170.919802
 30
0.0
 10
92.371553
 20
180.460411
 30
0.0
  0
SPLINE
  5
12f
100
AcDbEntity
  8
Calque_2
 62
7
100
AcDbSpline
 70
8
 71
3
 72
8
 73
4
 74
0
 40
0
 40
0
 40
0
 40
0
 40
1
 40
1
 40
1
 40
1
 10
92.371553
 20
180.460411
 30
0.0
 10
92.229711
 20
187.760202
 30
0.0
 10
85.327589
 20
193.179213
 30
0.0
 10
73.341950
 20
193.574375
 30
0.0
  0
SPLINE
  5
130
100
AcDbEntity
  8
Calque_2
 62
7
100
AcDbSpline
 70
8
 71
3
 72
8
 73
4
 74
0
 40
0
 40
0
 40
0
 40
0
 40
1
 40
1
 40
1
 40
1
 10
73.341950
 20
193.574375
 30
0.0
 10
73.001333
 20
193.585579
 30
0.0
 10
72.662412
 20
193.591195
 30
0.0
 10
72.325507
 20
193.591449
 30
0.0
  0
LINE
  5
131
100
AcDbEntity
  8
Calque_2
 62
7
100
AcDbLine
 10
72.325507
 20
193.591449
 30
0.0
 11
72.325507
 21
193.591464
 31
0.0
  0
SPLINE
  5
132
100
AcDbEntity
  8
Calque_2
 62
7
100
AcDbSpline
 70
8
 71
3
 72
8
 73
4
 74
0
 40
0
 40
0
 40
0
 40
0
 40
1
 40
1
 40
1
 40
1
 10
124.102814
 20
193.591464
 30
0.0
 10
123.765908
 20
193.591181
 30
0.0
 10
123.426988
 20
193.585593
 30
0.0
 10
123.086371
 20
193.574389
 30
0.0
  0
SPLINE
  5
133
100
AcDbEntity
  8
Calque_2
 62
7
100
AcDbSpline
 70
8
 71
3
 72
8
 73
4
 74
0
 40
0
 40
0
 40
0
 40
0
 40
1
 40
1
 40
1
 40
1
 10
123.086371
 20
193.574389
 30
0.0
 10
111.100732
 20
193.179227
 30
0.0
 10
104.198609
 20
187.760216
 30
0.0
 10
104.056767
 20
180.460426
 30
0.0
  0
SPLINE
  5
134
100
AcDbEntity
  8
Calque_2
 62
7
100
AcDbSpline
 70
8
 71
3
 72
8
 73
4
 74
0
 40
0
 40
0
 40
0
 40
0
 40
1
 40
1
 40
1
 40
1
 10
104.056767
 20
180.460426
 30
0.0
 10
103.871384
 20
170.919816
 30
0.0
 10
109.197964
 20
163.343360
 30
0.0
 10
123.086371
 20
167.346465
 30
0.0
  0
SPLINE
  5
135
100
AcDbEntity
  8
Calque_2
 62
7
100
AcDbSpline
 70
8
 71
3
 72
8
 73
4
 74
0
 40
0
 40
0
 40
0
 40
0
 40
1
 40
1
 40
1
 40
1
 10
123.086371
 20
167.346465
 30
0.0
 10
133.191312
 20
170.259046
 30
0.0
 10
141.314303
 20
173.897986
 30
0.0
 10
142.115977
 20
180.460426
 30
0.0
  0
SPLINE
  5
136
100
AcDbEntity
  8
Calque_2
 62
7
100
AcDbSpline
 70
8
 71
3
 72
8
 73
4
 74
0
 40
0
 40
0
 40
0
 40
0
 40
1
 40
1
 40
1
 40
1
 10
142.115977
 20
180.460426
 30
0.0
 10
143.084412
 20
188.387957
 30
0.0
 10
134.546803
 20
193.600156
 30
0.0
 10
124.102814
 20
193.591478
 30
0.0
  0
LINE
  5
137
100
AcDbEntity
  8
Calque_2
 62
7
100
AcDbLine
 10
124.102814
 20
193.591478
 30
0.0
 11
124.102814
 21
193.591464
 31
0.0
  0
SPLINE
  5
138
100
AcDbEntity
  8
Calque_2
 62
7
100
AcDbSpline
 70
8
 71
3
 72
8
 73
4
 74
0
 40
0
 40
0
 40
0
 40
0
 40
1
 40
1
 40
1
 40
1
 10
75.577127
 20
192.066250
 30
0.0
 10
75.908710
 20
192.066400
 30
0.0
 10
76.177549
 20
191.797560
 30
0.0
 10
76.177400
 20
191.465977
 30
0.0
  0
SPLINE
  5
139
100
AcDbEntity
  8
Calque_2
 62
7
100
AcDbSpline
 70
8
 71
3
 72
8
 73
4
 74
0
 40
0
 40
0
 40
0
 40
0
 40
1
 40
1
 40
1
 40
1
 10
76.177400
 20
191.465977
 30
0.0
 10
76.177247
 20
191.134609
 30
0.0
 10
75.908495
 20
190.866106
 30
0.0
 10
75.577127
 20
190.866255
 30
0.0
  0
SPLINE
  5
13a
100
AcDbEntity
  8
Calque_2
 62
7
100
AcDbSpline
 70
8
 71
3
 72
8
 73
4
 74
0
 40
0
 40
0
 40
0
 40
0
 40
1
 40
1
 40
1
 40
1
 10
75.577127
 20
190.866255
 30
0.0
 10
75.245973
 20
190.866408
 30
0.0
 10
74.977557
 20
191.134824
 30
0.0
 10
74.977405
 20
191.465977
 30
0.0
  0
SPLINE
  5
13b
100
AcDbEntity
  8
Calque_2
 62
7
100
AcDbSpline
 70
8
 71
3
 72
8
 73
4
 74
0
 40
0
 40
0
 40
0
 40
0
 40
1
 40
1
 40
1
 40
1
 10
74.977405
 20
191.465977
 30
0.0
 10
74.977255
 20
191.797346
 30
0.0
 10
75.245759
 20
192.066098
 30
0.0
 10
75.577127
 20
192.066250
 30
0.0
  0
LINE
  5
13c
100
AcDbEntity
  8
Calque_2
 62
7
100
AcDbLine
 10
75.577127
 20
192.066250
 30
0.0
 11
75.577127
 21
192.066250
 31
0.0
  0
SPLINE
  5
13d
100
AcDbEntity
  8
Calque_2
 62
7
100
AcDbSpline
 70
8
 71
3
 72
8
 73
4
 74
0
 40
0
 40
0
 40
0
 40
0
 40
1
 40
1
 40
1
 40
1
 10
123.151965
 20
192.066250
 30
0.0
 10
123.483551
 20
192.066402
 30
0.0
 10
123.752390
 20
191.797563
 30
0.0
 10
123.752240
 20
191.465977
 30
0.0
  0
SPLINE
  5
13e
100
AcDbEntity
  8
Calque_2
 62
7
100
AcDbSpline
 70
8
 71
3
 72
8
 73
4
 74
0
 40
0
 40
0
 40
0
 40
0
 40
1
 40
1
 40
1
 40
1
 10
123.752240
 20
191.465977
 30
0.0
 10
123.752088
 20
191.134606
 30
0.0
 10
123.483336
 20
190.866103
 30
0.0
 10
123.151965
 20
190.866255
 30
0.0
  0
SPLINE
  5
13f
100
AcDbEntity
  8
Calque_2
 62
7
100
AcDbSpline
 70
8
 71
3
 72
8
 73
4
 74
0
 40
0
 40
0
 40
0
 40
0
 40
1
 40
1
 40
1
 40
1
 10
123.151965
 20
190.866255
 30
0.0
 10
122.820811
 20
190.866408
 30
0.0
 10
122.552395
 20
191.134824
 30
0.0
 10
122.552243
 20
191.465977
 30
0.0
  0
SPLINE
  5
140
100
AcDbEntity
  8
Calque_2
 62
7
100
AcDbSpline
 70
8
 71
3
 72
8
 73
4
 74
0
 40
0
 40
0
 40
0
 40
0
 40
1
 40
1
 40
1
 40
1
 10
122.552243
 20
191.465977
 30
0.0
 10
122.552093
 20
191.797346
 30
0.0
 10
122.820597
 20
192.066098
 30
0.0
 10
123.151965
 20
192.066250
 30
0.0
  0
LINE
  5
141
100
AcDbEntity
  8
Calque_2
 62
7
100
AcDbLine
 10
123.151965
 20
192.066250
 30
0.0
 11
123.151965
 21
192.066250
 31
0.0
  0
SPLINE
  5
142
100
AcDbEntity
  8
Calque_2
 62
7
100
AcDbSpline
 70
8
 71
3
 72
8
 73
4
 74
0
 40
0
 40
0
 40
0
 40
0
 40
1
 40
1
 40
1
 40
1
 10
61.887695
 20
186.921757
 30
0.0
 10
66.013525
 20
186.921757
 30
0.0
 10
60.318300
 20
184.258504
 30
0.0
 10
60.840936
 20
182.725908
 30
0.0
  0
SPLINE
  5
143
100
AcDbEntity
  8
Calque_2
 62
7
100
AcDbSpline
 70
8
 71
3
 72
8
 73
4
 74
0
 40
0
 40
0
 40
0
 40
0
 40
1
 40
1
 40
1
 40
1
 10
60.840936
 20
182.725908
 30
0.0
 10
61.462409
 20
180.903492
 30
0.0
 10
60.413115
 20
180.291425
 30
0.0
 10
59.690000
 20
180.042040
 30
0.0
  0
SPLINE
  5
144
100
AcDbEntity
  8
Calque_2
 62
7
100
AcDbSpline
 70
8
 71
3
 72
8
 73
4
 74
0
 40
0
 40
0
 40
0
 40
0
 40
1
 40
1
 40
1
 40
1
 10
59.690000
 20
180.042040
 30
0.0
 10
59.690000
 20
180.042040
 30
0.0
 10
58.318741
 20
179.869579
 30
0.0
 10
58.247469
 20
181.919481
 30
0.0
  0
SPLINE
  5
145
100
AcDbEntity
  8
Calque_2
 62
7
100
AcDbSpline
 70
8
 71
3
 72
8
 73
4
 74
0
 40
0
 40
0
 40
0
 40
0
 40
1
 40
1
 40
1
 40
1
 10
58.247469
 20
181.919481
 30
0.0
 10
58.135997
 20
185.125576
 30
0.0
 10
58.207315
 20
186.921757
 30
0.0
 10
61.887695
 20
186.921757
 30
0.0
  0
LINE
  5
146
100
AcDbEntity
  8
Calque_2
 62
7
100
AcDbLine
 10
61.887695
 20
186.921757
 30
0.0
 11
61.887695
 21
186.921757
 31
0.0
  0
SPLINE
  5
147
100
AcDbEntity
  8
Calque_2
 62
7
100
AcDbSpline
 70
8
 71
3
 72
8
 73
4
 74
0
 40
0
 40
0
 40
0
 40
0
 40
1
 40
1
 40
1
 40
1
 10
124.775846
 20
183.962834
 30
0.0
 10
127.141684
 20
183.962834
 30
0.0
 10
131.233333
 20
180.957952
 30
0.0
 10
131.233333
 20
179.009614
 30
0.0
  0
SPLINE
  5
148
100
AcDbEntity
  8
Calque_2
 62
7
100
AcDbSpline
 70
8
 71
3
 72
8
 73
4
 74
0
 40
0
 40
0
 40
0
 40
0
 40
1
 40
1
 40
1
 40
1
 10
131.233333
 20
179.009614
 30
0.0
 10
131.233333
 20
177.061276
 30
0.0
 10
129.315678
 20
175.481836
 30
0.0
 10
126.949841
 20
175.481836
 30
0.0
  0
SPLINE
  5
149
100
AcDbEntity
  8
Calque_2
 62
7
100
AcDbSpline
 70
8
 71
3
 72
8
 73
4
 74
0
 40
0
 40
0
 40
0
 40
0
 40
1
 40
1
 40
1
 40
1
 10
126.949841
 20
175.481836
 30
0.0
 10
124.584003
 20
175.481836
 30
0.0
 10
121.490051
 20
179.234718
 30
0.0
 10
121.490051
 20
181.183056
 30
0.0
  0
SPLINE
  5
14a
100
AcDbEntity
  8
Calque_2
 62
7
100
AcDbSpline
 70
8
 71
3
 72
8
 73
4
 74
0
 40
0
 40
0
 40
0
 40
0
 40
1
 40
1
 40
1
 40
1
 10
121.490051
 20
181.183056
 30
0.0
 10
121.490051
 20
183.131394
 30
0.0
 10
122.410006
 20
183.962834
 30
0.0
 10
124.775846
 20
183.962834
 30
0.0
  0
LINE
  5
14b
100
AcDbEntity
  8
Calque_2
 62
7
100
AcDbLine
 10
124.775846
 20
183.962834
 30
0.0
 11
124.775846
 21
183.962834
 31
0.0
  0
SPLINE
  5
14c
100
AcDbEntity
  8
Calque_2
 62
7
100
AcDbSpline
 70
8
 71
3
 72
8
 73
4
 74
0
 40
0
 40
0
 40
0
 40
0
 40
1
 40
1
 40
1
 40
1
 10
82.298647
 20
179.916914
 30
0.0
 10
85.979028
 20
179.916914
 30
0.0
 10
88.245617
 20
179.155563
 30
0.0
 10
88.055537
 20
174.914635
 30
0.0
  0
SPLINE
  5
14d
100
AcDbEntity
  8
Calque_2
 62
7
100
AcDbSpline
 70
8
 71
3
 72
8
 73
4
 74
0
 40
0
 40
0
 40
0
 40
0
 40
1
 40
1
 40
1
 40
1
 10
88.055537
 20
174.914635
 30
0.0
 10
87.969324
 20
172.991096
 30
0.0
 10
85.998318
 20
169.105928
 30
0.0
 10
82.317937
 20
169.105928
 30
0.0
  0
SPLINE
  5
14e
100
AcDbEntity
  8
Calque_2
 62
7
100
AcDbSpline
 70
8
 71
3
 72
8
 73
4
 74
0
 40
0
 40
0
 40
0
 40
0
 40
1
 40
1
 40
1
 40
1
 10
82.317937
 20
169.105928
 30
0.0
 10
78.637556
 20
169.105928
 30
0.0
 10
78.658421
 20
171.706601
 30
0.0
 10
78.658421
 20
174.914635
 30
0.0
  0
SPLINE
  5
14f
100
AcDbEntity
  8
Calque_2
 62
7
100
AcDbSpline
 70
8
 71
3
 72
8
 73
4
 74
0
 40
0
 40
0
 40
0
 40
0
 40
1
 40
1
 40
1
 40
1
 10
78.658421
 20
174.914635
 30
0.0
 10
78.658421
 20
178.122669
 30
0.0
 10
78.618258
 20
179.916911
 30
0.0
 10
82.298647
 20
179.916914
 30
0.0
  0
LINE
  5
150
100
AcDbEntity
  8
Calque_2
 62
7
100
AcDbLine
 10
82.298647
 20
179.916914
 30
0.0
 11
82.298647
 21
179.916914
 31
0.0
  0
SPLINE
  5
151
100
AcDbEntity
  8
Calque_2
 62
7
100
AcDbSpline
 70
8
 71
3
 72
8
 73
4
 74
0
 40
0
 40
0
 40
0
 40
0
 40
1
 40
1
 40
1
 40
1
 10
118.153547
 20
118.212773
 30
0.0
 10
118.358372
 20
117.811371
 30
0.0
 10
118.627734
 20
117.450976
 30
0.0
 10
118.949501
 20
117.147827
 30
0.0
  0
LINE
  5
152
100
AcDbEntity
  8
Calque_2
 62
7
100
AcDbLine
 10
118.949501
 20
117.147827
 30
0.0
 11
98.214437
 21
109.280329
 31
0.0
  0
LINE
  5
153
100
AcDbEntity
  8
Calque_2
 62
7
100
AcDbLine
 10
98.214437
 20
109.280329
 30
0.0
 11
77.478819
 21
117.147827
 31
0.0
  0
SPLINE
  5
154
100
AcDbEntity
  8
Calque_2
 62
7
100
AcDbSpline
 70
8
 71
3
 72
8
 73
4
 74
0
 40
0
 40
0
 40
0
 40
0
 40
1
 40
1
 40
1
 40
1
 10
77.478819
 20
117.147827
 30
0.0
 10
77.800587
 20
117.450976
 30
0.0
 10
78.069948
 20
117.811371
 30
0.0
 10
78.274774
 20
118.212773
 30
0.0
  0
LINE
  5
155
100
AcDbEntity
  8
Calque_2
 62
7
100
AcDbLine
 10
78.274774
 20
118.212773
 30
0.0
 11
98.214437
 21
118.212773
 31
0.0
  0
LINE
  5
156
100
AcDbEntity
  8
Calque_2
 62
7
100
AcDbLine
 10
98.214437
 20
118.212773
 30
0.0
 11
118.153547
 21
118.212773
 31
0.0
  0
SPLINE
  5
157
100
AcDbEntity
  8
Calque_2
 62
7
100
AcDbSpline
 70
8
 71
3
 72
8
 73
4
 74
0
 40
0
 40
0
 40
0
 40
0
 40
1
 40
1
 40
1
 40
1
 10
95.612701
 20
120.718048
 30
0.0
 10
95.613830
 20
120.731905
 30
0.0
 10
95.617103
 20
120.745198
 30
0.0
 10
95.617103
 20
120.759388
 30
0.0
  0
LINE
  5
158
100
AcDbEntity
  8
Calque_2
 62
7
100
AcDbLine
 10
95.617103
 20
120.759388
 30
0.0
 11
95.617103
 21
157.596553
 31
0.0
  0
LINE
  5
159
100
AcDbEntity
  8
Calque_2
 62
7
100
AcDbLine
 10
95.617103
 20
157.596553
 30
0.0
 11
98.214431
 21
157.624127
 31
0.0
  0
LINE
  5
15a
100
AcDbEntity
  8
Calque_2
 62
7
100
AcDbLine
 10
98.214431
 20
157.624127
 30
0.0
 11
100.811206
 21
157.596553
 31
0.0
  0
LINE
  5
15b
100
AcDbEntity
  8
Calque_2
 62
7
100
AcDbLine
 10
100.811206
 20
157.596553
 30
0.0
 11
100.811206
 21
120.759388
 31
0.0
  0
SPLINE
  5
15c
100
AcDbEntity
  8
Calque_2
 62
7
100
AcDbSpline
 70
8
 71
3
 72
8
 73
4
 74
0
 40
0
 40
0
 40
0
 40
0
 40
1
 40
1
 40
1
 40
1
 10
100.811206
 20
120.759388
 30
0.0
 10
100.811206
 20
120.745192
 30
0.0
 10
100.814395
 20
120.731899
 30
0.0
 10
100.815608
 20
120.718048
 30
0.0
  0
LINE
  5
15d
100
AcDbEntity
  8
Calque_2
 62
7
100
AcDbLine
 10
100.815608
 20
120.718048
 30
0.0
 11
98.214426
 21
120.718048
 31
0.0
  0
LINE
  5
15e
100
AcDbEntity
  8
Calque_2
 62
7
100
AcDbLine
 10
98.214426
 20
120.718048
 30
0.0
 11
95.612701
 21
120.718048
 31
0.0
  0
LINE
  5
15f
100
AcDbEntity
  8
Calque_2
 62
7
100
AcDbLine
 10
92.179180
 20
160.531224
 30
0.0
 11
69.279493
 21
118.212773
 31
0.0
  0
LINE
  5
160
100
AcDbEntity
  8
Calque_2
 62
7
100
AcDbLine
 10
69.279493
 20
118.212773
 30
0.0
 11
98.214437
 21
105.339691
 31
0.0
  0
LINE
  5
161
100
AcDbEntity
  8
Calque_2
 62
7
100
AcDbLine
 10
98.214437
 20
105.339691
 30
0.0
 11
127.148827
 21
118.212773
 31
0.0
  0
LINE
  5
162
100
AcDbEntity
  8
Calque_2
 62
7
100
AcDbLine
 10
127.148827
 20
118.212773
 30
0.0
 11
104.249141
 21
160.531224
 31
0.0
  0
SPLINE
  5
163
100
AcDbEntity
  8
Calque_2
 62
7
100
AcDbSpline
 70
8
 71
3
 72
8
 73
4
 74
0
 40
0
 40
0
 40
0
 40
0
 40
1
 40
1
 40
1
 40
1
 10
104.249141
 20
160.531224
 30
0.0
 10
103.458826
 20
168.097368
 30
0.0
 10
101.424063
 20
171.270912
 30
0.0
 10
98.214437
 20
171.622778
 30
0.0
  0
SPLINE
  5
164
100
AcDbEntity
  8
Calque_2
 62
7
100
AcDbSpline
 70
8
 71
3
 72
8
 73
4
 74
0
 40
0
 40
0
 40
0
 40
0
 40
1
 40
1
 40
1
 40
1
 10
98.214437
 20
171.622778
 30
0.0
 10
95.004811
 20
171.270912
 30
0.0
 10
92.969495
 20
168.097368
 30
0.0
 10
92.179180
 20
160.531224
 30
0.0
  0
LINE
  5
165
100
AcDbEntity
  8
Calque_2
 62
7
100
AcDbLine
 10
92.179180
 20
160.531224
 30
0.0
 11
92.179180
 21
160.531224
 31
0.0
  0
SPLINE
  5
166
100
AcDbEntity
  8
Calque_2
 62
7
100
AcDbSpline
 70
8
 71
3
 72
8
 73
4
 74
0
 40
0
 40
0
 40
0
 40
0
 40
1
 40
1
 40
1
 40
1
 10
101.740561
 20
165.083711
 30
0.0
 10
101.841715
 20
163.587920
 30
0.0
 10
101.587244
 20
162.381603
 30
0.0
 10
100.942953
 20
161.601685
 30
0.0
  0
SPLINE
  5
167
100
AcDbEntity
  8
Calque_2
 62
7
100
AcDbSpline
 70
8
 71
3
 72
8
 73
4
 74
0
 40
0
 40
0
 40
0
 40
0
 40
1
 40
1
 40
1
 40
1
 10
100.942953
 20
161.601685
 30
0.0
 10
100.352919
 20
160.887465
 30
0.0
 10
99.373044
 20
160.757434
 30
0.0
 10
98.214437
 20
160.726353
 30
0.0
  0
SPLINE
  5
168
100
AcDbEntity
  8
Calque_2
 62
7
100
AcDbSpline
 70
8
 71
3
 72
8
 73
4
 74
0
 40
0
 40
0
 40
0
 40
0
 40
1
 40
1
 40
1
 40
1
 10
98.214437
 20
160.726353
 30
0.0
 10
97.055830
 20
160.757414
 30
0.0
 10
96.075401
 20
160.887465
 30
0.0
 10
95.485368
 20
161.601685
 30
0.0
  0
SPLINE
  5
169
100
AcDbEntity
  8
Calque_2
 62
7
100
AcDbSpline
 70
8
 71
3
 72
8
 73
4
 74
0
 40
0
 40
0
 40
0
 40
0
 40
1
 40
1
 40
1
 40
1
 10
95.485368
 20
161.601685
 30
0.0
 10
94.841071
 20
162.381603
 30
0.0
 10
94.586606
 20
163.587920
 30
0.0
 10
94.687760
 20
165.083711
 30
0.0
  0
SPLINE
  5
16a
100
AcDbEntity
  8
Calque_2
 62
7
100
AcDbSpline
 70
8
 71
3
 72
8
 73
4
 74
0
 40
0
 40
0
 40
0
 40
0
 40
1
 40
1
 40
1
 40
1
 10
94.687760
 20
165.083711
 30
0.0
 10
94.846544
 20
167.431727
 30
0.0
 10
96.195913
 20
169.779946
 30
0.0
 10
98.214437
 20
169.900782
 30
0.0
  0
SPLINE
  5
16b
100
AcDbEntity
  8
Calque_2
 62
7
100
AcDbSpline
 70
8
 71
3
 72
8
 73
4
 74
0
 40
0
 40
0
 40
0
 40
0
 40
1
 40
1
 40
1
 40
1
 10
98.214437
 20
169.900782
 30
0.0
 10
100.232961
 20
169.779946
 30
0.0
 10
101.581777
 20
167.431727
 30
0.0
 10
101.740561
 20
165.083711
 30
0.0
  0
LINE
  5
16c
100
AcDbEntity
  8
Calque_2
 62
7
100
AcDbLine
 10
101.740561
 20
165.083711
 30
0.0
 11
101.740561
 21
165.083711
 31
0.0
  0
SPLINE
  5
16d
100
AcDbEntity
  8
Calque_2
 62
7
100
AcDbSpline
 70
8
 71
3
 72
8
 73
4
 74
0
 40
0
 40
0
 40
0
 40
0
 40
1
 40
1
 40
1
 40
1
 10
75.577127
 20
169.659900
 30
0.0
 10
75.908710
 20
169.660049
 30
0.0
 10
76.177549
 20
169.391210
 30
0.0
 10
76.177400
 20
169.059627
 30
0.0
  0
SPLINE
  5
16e
100
AcDbEntity
  8
Calque_2
 62
7
100
AcDbSpline
 70
8
 71
3
 72
8
 73
4
 74
0
 40
0
 40
0
 40
0
 40
0
 40
1
 40
1
 40
1
 40
1
 10
76.177400
 20
169.059627
 30
0.0
 10
76.177247
 20
168.728259
 30
0.0
 10
75.908495
 20
168.459755
 30
0.0
 10
75.577127
 20
168.459905
 30
0.0
  0
SPLINE
  5
16f
100
AcDbEntity
  8
Calque_2
 62
7
100
AcDbSpline
 70
8
 71
3
 72
8
 73
4
 74
0
 40
0
 40
0
 40
0
 40
0
 40
1
 40
1
 40
1
 40
1
 10
75.577127
 20
168.459905
 30
0.0
 10
75.245973
 20
168.460057
 30
0.0
 10
74.977557
 20
168.728473
 30
0.0
 10
74.977405
 20
169.059627
 30
0.0
  0
SPLINE
  5
170
100
AcDbEntity
  8
Calque_2
 62
7
100
AcDbSpline
 70
8
 71
3
 72
8
 73
4
 74
0
 40
0
 40
0
 40
0
 40
0
 40
1
 40
1
 40
1
 40
1
 10
74.977405
 20
169.059627
 30
0.0
 10
74.977255
 20
169.390995
 30
0.0
 10
75.245759
 20
169.659747
 30
0.0
 10
75.577127
 20
169.659900
 30
0.0
  0
LINE
  5
171
100
AcDbEntity
  8
Calque_2
 62
7
100
AcDbLine
 10
75.577127
 20
169.659900
 30
0.0
 11
75.577127
 21
169.659900
 31
0.0
  0
SPLINE
  5
172
100
AcDbEntity
  8
Calque_2
 62
7
100
AcDbSpline
 70
8
 71
3
 72
8
 73
4
 74
0
 40
0
 40
0
 40
0
 40
0
 40
1
 40
1
 40
1
 40
1
 10
119.825934
 20
169.659900
 30
0.0
 10
120.157302
 20
169.659747
 30
0.0
 10
120.425805
 20
169.390995
 30
0.0
 10
120.425656
 20
169.059627
 30
0.0
  0
SPLINE
  5
173
100
AcDbEntity
  8
Calque_2
 62
7
100
AcDbSpline
 70
8
 71
3
 72
8
 73
4
 74
0
 40
0
 40
0
 40
0
 40
0
 40
1
 40
1
 40
1
 40
1
 10
120.425656
 20
169.059627
 30
0.0
 10
120.425504
 20
168.728473
 30
0.0
 10
120.157088
 20
168.460057
 30
0.0
 10
119.825934
 20
168.459905
 30
0.0
  0
SPLINE
  5
174
100
AcDbEntity
  8
Calque_2
 62
7
100
AcDbSpline
 70
8
 71
3
 72
8
 73
4
 74
0
 40
0
 40
0
 40
0
 40
0
 40
1
 40
1
 40
1
 40
1
 10
119.825934
 20
168.459905
 30
0.0
 10
119.494562
 20
168.459752
 30
0.0
 10
119.225811
 20
168.728256
 30
0.0
 10
119.225658
 20
169.059627
 30
0.0
  0
SPLINE
  5
175
100
AcDbEntity
  8
Calque_2
 62
7
100
AcDbSpline
 70
8
 71
3
 72
8
 73
4
 74
0
 40
0
 40
0
 40
0
 40
0
 40
1
 40
1
 40
1
 40
1
 10
119.225658
 20
169.059627
 30
0.0
 10
119.225509
 20
169.391213
 30
0.0
 10
119.494348
 20
169.660052
 30
0.0
 10
119.825934
 20
169.659900
 30
0.0
  0
LINE
  5
176
100
AcDbEntity
  8
Calque_2
 62
7
100
AcDbLine
 10
119.825934
 20
169.659900
 30
0.0
 11
119.825934
 21
169.659900
 31
0.0
  0
SPLINE
  5
177
100
AcDbEntity
  8
Calque_2
 62
7
100
AcDbSpline
 70
8
 71
3
 72
8
 73
4
 74
0
 40
0
 40
0
 40
0
 40
0
 40
1
 40
1
 40
1
 40
1
 10
71.234653
 20
160.343812
 30
0.0
 10
66.160009
 20
160.295109
 30
0.0
 10
60.449420
 20
159.732042
 30
0.0
 10
52.394115
 20
157.641201
 30
0.0
  0
LINE
  5
178
100
AcDbEntity
  8
Calque_2
 62
7
100
AcDbLine
 10
52.394115
 20
157.641201
 30
0.0
 11
67.815466
 21
126.596757
 31
0.0
  0
SPLINE
  5
179
100
AcDbEntity
  8
Calque_2
 62
7
100
AcDbSpline
 70
8
 71
3
 72
8
 73
4
 74
0
 40
0
 40
0
 40
0
 40
0
 40
1
 40
1
 40
1
 40
1
 10
67.815466
 20
126.596757
 30
0.0
 10
68.794099
 20
136.673944
 30
0.0
 10
78.162621
 20
145.807694
 30
0.0
 10
86.447644
 20
155.820537
 30
0.0
  0
SPLINE
  5
17a
100
AcDbEntity
  8
Calque_2
 62
7
100
AcDbSpline
 70
8
 71
3
 72
8
 73
4
 74
0
 40
0
 40
0
 40
0
 40
0
 40
1
 40
1
 40
1
 40
1
 10
86.447644
 20
155.820537
 30
0.0
 10
87.172250
 20
156.696259
 30
0.0
 10
86.598613
 20
159.083893
 30
0.0
 10
86.260782
 20
159.959614
 30
0.0
  0
SPLINE
  5
17b
100
AcDbEntity
  8
Calque_2
 62
7
100
AcDbSpline
 70
8
 71
3
 72
8
 73
4
 74
0
 40
0
 40
0
 40
0
 40
0
 40
1
 40
1
 40
1
 40
1
 10
86.260782
 20
159.959614
 30
0.0
 10
80.747997
 20
159.927003
 30
0.0
 10
76.309296
 20
160.392512
 30
0.0
 10
71.234653
 20
160.343812
 30
0.0
  0
LINE
  5
17c
100
AcDbEntity
  8
Calque_2
 62
7
100
AcDbLine
 10
71.234653
 20
160.343812
 30
0.0
 11
71.234653
 21
160.343812
 31
0.0
  0
SPLINE
  5
17d
100
AcDbEntity
  8
Calque_2
 62
7
100
AcDbSpline
 70
8
 71
3
 72
8
 73
4
 74
0
 40
0
 40
0
 40
0
 40
0
 40
1
 40
1
 40
1
 40
1
 10
125.193668
 20
160.343812
 30
0.0
 10
120.119024
 20
160.392512
 30
0.0
 10
115.680323
 20
159.927003
 30
0.0
 10
110.167539
 20
159.959614
 30
0.0
  0
SPLINE
  5
17e
100
AcDbEntity
  8
Calque_2
 62
7
100
AcDbSpline
 70
8
 71
3
 72
8
 73
4
 74
0
 40
0
 40
0
 40
0
 40
0
 40
1
 40
1
 40
1
 40
1
 10
110.167539
 20
159.959614
 30
0.0
 10
109.829707
 20
159.083893
 30
0.0
 10
109.256071
 20
156.696259
 30
0.0
 10
109.980676
 20
155.820537
 30
0.0
  0
SPLINE
  5
17f
100
AcDbEntity
  8
Calque_2
 62
7
100
AcDbSpline
 70
8
 71
3
 72
8
 73
4
 74
0
 40
0
 40
0
 40
0
 40
0
 40
1
 40
1
 40
1
 40
1
 10
109.980676
 20
155.820537
 30
0.0
 10
118.265699
 20
145.807694
 30
0.0
 10
127.634221
 20
136.673944
 30
0.0
 10
128.612855
 20
126.596757
 30
0.0
  0
LINE
  5
180
100
AcDbEntity
  8
Calque_2
 62
7
100
AcDbLine
 10
128.612855
 20
126.596757
 30
0.0
 11
144.034205
 21
157.641201
 31
0.0
  0
SPLINE
  5
181
100
AcDbEntity
  8
Calque_2
 62
7
100
AcDbSpline
 70
8
 71
3
 72
8
 73
4
 74
0
 40
0
 40
0
 40
0
 40
0
 40
1
 40
1
 40
1
 40
1
 10
144.034205
 20
157.641201
 30
0.0
 10
135.978900
 20
159.732042
 30
0.0
 10
130.268311
 20
160.295109
 30
0.0
 10
125.193668
 20
160.343812
 30
0.0
  0
LINE
  5
182
100
AcDbEntity
  8
Calque_2
 62
7
100
AcDbLine
 10
125.193668
 20
160.343812
 30
0.0
 11
125.193668
 21
160.343812
 31
0.0
  0
SPLINE
  5
183
100
AcDbEntity
  8
Calque_2
 62
7
100
AcDbSpline
 70
8
 71
3
 72
8
 73
4
 74
0
 40
0
 40
0
 40
0
 40
0
 40
1
 40
1
 40
1
 40
1
 10
70.658632
 20
157.864995
 30
0.0
 10
75.038246
 20
157.901607
 30
0.0
 10
78.940110
 20
157.551635
 30
0.0
 10
83.084678
 20
157.576160
 30
0.0
  0
SPLINE
  5
184
100
AcDbEntity
  8
Calque_2
 62
7
100
AcDbSpline
 70
8
 71
3
 72
8
 73
4
 74
0
 40
0
 40
0
 40
0
 40
0
 40
1
 40
1
 40
1
 40
1
 10
83.084678
 20
157.576160
 30
0.0
 10
83.670256
 20
157.077727
 30
0.0
 10
83.924829
 20
157.377038
 30
0.0
 10
83.789131
 20
156.157330
 30
0.0
  0
SPLINE
  5
185
100
AcDbEntity
  8
Calque_2
 62
7
100
AcDbSpline
 70
8
 71
3
 72
8
 73
4
 74
0
 40
0
 40
0
 40
0
 40
0
 40
1
 40
1
 40
1
 40
1
 10
83.789131
 20
156.157330
 30
0.0
 10
83.568227
 20
154.171756
 30
0.0
 10
67.571891
 20
142.571923
 30
0.0
 10
66.959426
 20
133.058655
 30
0.0
  0
LINE
  5
186
100
AcDbEntity
  8
Calque_2
 62
7
100
AcDbLine
 10
66.959426
 20
133.058655
 30
0.0
 11
55.365715
 21
155.833215
 31
0.0
  0
SPLINE
  5
187
100
AcDbEntity
  8
Calque_2
 62
7
100
AcDbSpline
 70
8
 71
3
 72
8
 73
4
 74
0
 40
0
 40
0
 40
0
 40
0
 40
1
 40
1
 40
1
 40
1
 10
55.365715
 20
155.833215
 30
0.0
 10
61.421775
 20
157.405091
 30
0.0
 10
66.279014
 20
157.828382
 30
0.0
 10
70.658632
 20
157.864995
 30
0.0
  0
LINE
  5
188
100
AcDbEntity
  8
Calque_2
 62
7
100
AcDbLine
 10
70.658632
 20
157.864995
 30
0.0
 11
70.658632
 21
157.864995
 31
0.0
  0
SPLINE
  5
189
100
AcDbEntity
  8
Calque_2
 62
7
100
AcDbSpline
 70
8
 71
3
 72
8
 73
4
 74
0
 40
0
 40
0
 40
0
 40
0
 40
1
 40
1
 40
1
 40
1
 10
125.769686
 20
157.864995
 30
0.0
 10
130.149304
 20
157.828382
 30
0.0
 10
135.006543
 20
157.405091
 30
0.0
 10
141.062603
 20
155.833215
 30
0.0
  0
LINE
  5
18a
100
AcDbEntity
  8
Calque_2
 62
7
100
AcDbLine
 10
141.062603
 20
155.833215
 30
0.0
 11
129.468894
 21
133.058655
 31
0.0
  0
SPLINE
  5
18b
100
AcDbEntity
  8
Calque_2
 62
7
100
AcDbSpline
 70
8
 71
3
 72
8
 73
4
 74
0
 40
0
 40
0
 40
0
 40
0
 40
1
 40
1
 40
1
 40
1
 10
129.468894
 20
133.058655
 30
0.0
 10
128.856430
 20
142.571923
 30
0.0
 10
112.860091
 20
154.171756
 30
0.0
 10
112.639187
 20
156.157330
 30
0.0
  0
SPLINE
  5
18c
100
AcDbEntity
  8
Calque_2
 62
7
100
AcDbSpline
 70
8
 71
3
 72
8
 73
4
 74
0
 40
0
 40
0
 40
0
 40
0
 40
1
 40
1
 40
1
 40
1
 10
112.639187
 20
156.157330
 30
0.0
 10
112.503489
 20
157.377038
 30
0.0
 10
112.758065
 20
157.077727
 30
0.0
 10
113.343642
 20
157.576160
 30
0.0
  0
SPLINE
  5
18d
100
AcDbEntity
  8
Calque_2
 62
7
100
AcDbSpline
 70
8
 71
3
 72
8
 73
4
 74
0
 40
0
 40
0
 40
0
 40
0
 40
1
 40
1
 40
1
 40
1
 10
113.343642
 20
157.576160
 30
0.0
 10
117.488211
 20
157.551635
 30
0.0
 10
121.390108
 20
157.901607
 30
0.0
 10
125.769686
 20
157.864995
 30
0.0
  0
LINE
  5
18e
100
AcDbEntity
  8
Calque_2
 62
7
100
AcDbLine
 10
125.769686
 20
157.864995
 30
0.0
 11
125.769686
 21
157.864995
 31
0.0
  0
LINE
  5
18f
100
AcDbEntity
  8
Calque_2
 62
7
100
AcDbLine
 10
92.694015
 20
154.074287
 30
0.0
 11
92.694015
 21
120.759388
 31
0.0
  0
SPLINE
  5
190
100
AcDbEntity
  8
Calque_2
 62
7
100
AcDbSpline
 70
8
 71
3
 72
8
 73
4
 74
0
 40
0
 40
0
 40
0
 40
0
 40
1
 40
1
 40
1
 40
1
 10
92.694015
 20
120.759388
 30
0.0
 10
92.694015
 20
120.745220
 30
0.0
 10
92.696555
 20
120.731899
 30
0.0
 10
92.697881
 20
120.718048
 30
0.0
  0
LINE
  5
191
100
AcDbEntity
  8
Calque_2
 62
7
100
AcDbLine
 10
92.697881
 20
120.718048
 30
0.0
 11
87.499371
 21
120.718048
 31
0.0
  0
LINE
  5
192
100
AcDbEntity
  8
Calque_2
 62
7
100
AcDbLine
 10
87.499371
 20
120.718048
 30
0.0
 11
87.499371
 21
143.980985
 31
0.0
  0
SPLINE
  5
193
100
AcDbEntity
  8
Calque_2
 62
7
100
AcDbSpline
 70
8
 71
3
 72
8
 73
4
 74
0
 40
0
 40
0
 40
0
 40
0
 40
1
 40
1
 40
1
 40
1
 10
87.499371
 20
143.980985
 30
0.0
 10
87.499371
 20
144.118475
 30
0.0
 10
87.404098
 20
144.227977
 30
0.0
 10
87.277231
 20
144.261003
 30
0.0
  0
LINE
  5
194
100
AcDbEntity
  8
Calque_2
 62
7
100
AcDbLine
 10
87.277231
 20
144.261003
 30
0.0
 11
92.694015
 21
154.074287
 31
0.0
  0
LINE
  5
195
100
AcDbEntity
  8
Calque_2
 62
7
100
AcDbLine
 10
103.734306
 20
154.074287
 30
0.0
 11
109.151098
 21
144.261003
 31
0.0
  0
SPLINE
  5
196
100
AcDbEntity
  8
Calque_2
 62
7
100
AcDbSpline
 70
8
 71
3
 72
8
 73
4
 74
0
 40
0
 40
0
 40
0
 40
0
 40
1
 40
1
 40
1
 40
1
 10
109.151098
 20
144.261003
 30
0.0
 10
109.024231
 20
144.227977
 30
0.0
 10
108.928958
 20
144.118475
 30
0.0
 10
108.928958
 20
143.980985
 30
0.0
  0
LINE
  5
197
100
AcDbEntity
  8
Calque_2
 62
7
100
AcDbLine
 10
108.928958
 20
143.980985
 30
0.0
 11
108.928958
 21
120.718048
 31
0.0
  0
LINE
  5
198
100
AcDbEntity
  8
Calque_2
 62
7
100
AcDbLine
 10
108.928958
 20
120.718048
 30
0.0
 11
103.730448
 21
120.718048
 31
0.0
  0
SPLINE
  5
199
100
AcDbEntity
  8
Calque_2
 62
7
100
AcDbSpline
 70
8
 71
3
 72
8
 73
4
 74
0
 40
0
 40
0
 40
0
 40
0
 40
1
 40
1
 40
1
 40
1
 10
103.730448
 20
120.718048
 30
0.0
 10
103.731576
 20
120.731905
 30
0.0
 10
103.734314
 20
120.745226
 30
0.0
 10
103.734314
 20
120.759388
 30
0.0
  0
LINE
  5
19a
100
AcDbEntity
  8
Calque_2
 62
7
100
AcDbLine
 10
103.734314
 20
120.759388
 30
0.0
 11
103.734306
 21
154.074287
 31
0.0
  0
LINE
  5
19b
100
AcDbEntity
  8
Calque_2
 62
7
100
AcDbLine
 10
84.576268
 20
139.368966
 30
0.0
 11
84.576268
 21
120.718048
 31
0.0
  0
LINE
  5
19c
100
AcDbEntity
  8
Calque_2
 62
7
100
AcDbLine
 10
84.576268
 20
120.718048
 30
0.0
 11
80.213398
 21
120.718048
 31
0.0
  0
LINE
  5
19d
100
AcDbEntity
  8
Calque_2
 62
7
100
AcDbLine
 10
80.213398
 20
120.718048
 30
0.0
 11
80.213398
 21
131.465090
 31
0.0
  0
LINE
  5
19e
100
AcDbEntity
  8
Calque_2
 62
7
100
AcDbLine
 10
80.213398
 20
131.465090
 30
0.0
 11
84.576268
 21
139.368966
 31
0.0
  0
LINE
  5
19f
100
AcDbEntity
  8
Calque_2
 62
7
100
AcDbLine
 10
111.852052
 20
139.368402
 30
0.0
 11
116.214923
 21
131.465076
 31
0.0
  0
LINE
  5
1a0
100
AcDbEntity
  8
Calque_2
 62
7
100
AcDbLine
 10
116.214923
 20
131.465076
 30
0.0
 11
116.214923
 21
120.718034
 31
0.0
  0
LINE
  5
1a1
100
AcDbEntity
  8
Calque_2
 62
7
100
AcDbLine
 10
116.214923
 20
120.718034
 30
0.0
 11
111.852052
 21
120.718034
 31
0.0
  0
LINE
  5
1a2
100
AcDbEntity
  8
Calque_2
 62
7
100
AcDbLine
 10
111.852052
 20
120.718034
 30
0.0
 11
111.852052
 21
139.368402
 31
0.0
  0
LINE
  5
1a3
100
AcDbEntity
  8
Calque_2
 62
7
100
AcDbLine
 10
76.028573
 20
123.883661
 30
0.0
 11
76.044010
 21
123.841771
 31
0.0
  0
SPLINE
  5
1a4
100
AcDbEntity
  8
Calque_2
 62
7
100
AcDbSpline
 70
8
 71
3
 72
8
 73
4
 74
0
 40
0
 40
0
 40
0
 40
0
 40
1
 40
1
 40
1
 40
1
 10
76.044010
 20
123.841771
 30
0.0
 10
76.033032
 20
123.845129
 30
0.0
 10
76.022505
 20
123.849560
 30
0.0
 10
76.011487
 20
123.852806
 30
0.0
  0
LINE
  5
1a5
100
AcDbEntity
  8
Calque_2
 62
7
100
AcDbLine
 10
76.011487
 20
123.852806
 30
0.0
 11
76.028573
 21
123.883661
 31
0.0
  0
LINE
  5
1a6
100
AcDbEntity
  8
Calque_2
 62
7
100
AcDbLine
 10
120.399748
 20
123.883661
 30
0.0
 11
120.416851
 21
123.852795
 31
0.0
  0
SPLINE
  5
1a7
100
AcDbEntity
  8
Calque_2
 62
7
100
AcDbSpline
 70
8
 71
3
 72
8
 73
4
 74
0
 40
0
 40
0
 40
0
 40
0
 40
1
 40
1
 40
1
 40
1
 10
120.416851
 20
123.852795
 30
0.0
 10
120.405844
 20
123.849549
 30
0.0
 10
120.395289
 20
123.845118
 30
0.0
 10
120.384327
 20
123.841760
 30
0.0
  0
LINE
  5
1a8
100
AcDbEntity
  8
Calque_2
 62
7
100
AcDbLine
 10
120.384327
 20
123.841760
 30
0.0
 11
120.399748
 21
123.883661
 31
0.0
  0
SPLINE
  5
1a9
100
AcDbEntity
  8
Calque_2
 62
7
100
AcDbSpline
 70
8
 71
3
 72
8
 73
4
 74
0
 40
0
 40
0
 40
0
 40
0
 40
1
 40
1
 40
1
 40
1
 10
74.992286
 20
122.507828
 30
0.0
 10
75.825505
 20
122.507769
 30
0.0
 10
76.551203
 20
122.054678
 30
0.0
 10
76.941937
 20
121.382800
 30
0.0
  0
LINE
  5
1aa
100
AcDbEntity
  8
Calque_2
 62
7
100
AcDbLine
 10
76.941937
 20
121.382800
 30
0.0
 11
77.212032
 21
120.643617
 31
0.0
  0
SPLINE
  5
1ab
100
AcDbEntity
  8
Calque_2
 62
7
100
AcDbSpline
 70
8
 71
3
 72
8
 73
4
 74
0
 40
0
 40
0
 40
0
 40
0
 40
1
 40
1
 40
1
 40
1
 10
77.212032
 20
120.643617
 30
0.0
 10
77.234412
 20
120.516087
 30
0.0
 10
77.248402
 20
120.385652
 30
0.0
 10
77.248410
 20
120.251704
 30
0.0
  0
SPLINE
  5
1ac
100
AcDbEntity
  8
Calque_2
 62
7
100
AcDbSpline
 70
8
 71
3
 72
8
 73
4
 74
0
 40
0
 40
0
 40
0
 40
0
 40
1
 40
1
 40
1
 40
1
 10
77.248410
 20
120.251704
 30
0.0
 10
77.248625
 20
119.005504
 30
0.0
 10
76.238487
 20
117.995120
 30
0.0
 10
74.992286
 20
117.995030
 30
0.0
  0
SPLINE
  5
1ad
100
AcDbEntity
  8
Calque_2
 62
7
100
AcDbSpline
 70
8
 71
3
 72
8
 73
4
 74
0
 40
0
 40
0
 40
0
 40
0
 40
1
 40
1
 40
1
 40
1
 10
74.992286
 20
117.995030
 30
0.0
 10
73.745872
 20
117.994815
 30
0.0
 10
72.735398
 20
119.005289
 30
0.0
 10
72.735612
 20
120.251704
 30
0.0
  0
SPLINE
  5
1ae
100
AcDbEntity
  8
Calque_2
 62
7
100
AcDbSpline
 70
8
 71
3
 72
8
 73
4
 74
0
 40
0
 40
0
 40
0
 40
0
 40
1
 40
1
 40
1
 40
1
 10
72.735612
 20
120.251704
 30
0.0
 10
72.735702
 20
121.497904
 30
0.0
 10
73.746086
 20
122.508042
 30
0.0
 10
74.992286
 20
122.507828
 30
0.0
  0
LINE
  5
1af
100
AcDbEntity
  8
Calque_2
 62
7
100
AcDbLine
 10
74.992286
 20
122.507828
 30
0.0
 11
74.992286
 21
122.507828
 31
0.0
  0
SPLINE
  5
1b0
100
AcDbEntity
  8
Calque_2
 62
7
100
AcDbSpline
 70
8
 71
3
 72
8
 73
4
 74
0
 40
0
 40
0
 40
0
 40
0
 40
1
 40
1
 40
1
 40
1
 10
121.436034
 20
122.507828
 30
0.0
 10
122.682234
 20
122.508042
 30
0.0
 10
123.692618
 20
121.497904
 30
0.0
 10
123.692708
 20
120.251704
 30
0.0
  0
SPLINE
  5
1b1
100
AcDbEntity
  8
Calque_2
 62
7
100
AcDbSpline
 70
8
 71
3
 72
8
 73
4
 74
0
 40
0
 40
0
 40
0
 40
0
 40
1
 40
1
 40
1
 40
1
 10
123.692708
 20
120.251704
 30
0.0
 10
123.692923
 20
119.005289
 30
0.0
 10
122.682449
 20
117.994815
 30
0.0
 10
121.436034
 20
117.995030
 30
0.0
  0
SPLINE
  5
1b2
100
AcDbEntity
  8
Calque_2
 62
7
100
AcDbSpline
 70
8
 71
3
 72
8
 73
4
 74
0
 40
0
 40
0
 40
0
 40
0
 40
1
 40
1
 40
1
 40
1
 10
121.436034
 20
117.995030
 30
0.0
 10
120.189834
 20
117.995120
 30
0.0
 10
119.179696
 20
119.005504
 30
0.0
 10
119.179910
 20
120.251704
 30
0.0
  0
SPLINE
  5
1b3
100
AcDbEntity
  8
Calque_2
 62
7
100
AcDbSpline
 70
8
 71
3
 72
8
 73
4
 74
0
 40
0
 40
0
 40
0
 40
0
 40
1
 40
1
 40
1
 40
1
 10
119.179910
 20
120.251704
 30
0.0
 10
119.179919
 20
120.385652
 30
0.0
 10
119.193908
 20
120.516087
 30
0.0
 10
119.216289
 20
120.643617
 30
0.0
  0
LINE
  5
1b4
100
AcDbEntity
  8
Calque_2
 62
7
100
AcDbLine
 10
119.216289
 20
120.643617
 30
0.0
 11
119.486384
 21
121.382800
 31
0.0
  0
SPLINE
  5
1b5
100
AcDbEntity
  8
Calque_2
 62
7
100
AcDbSpline
 70
8
 71
3
 72
8
 73
4
 74
0
 40
0
 40
0
 40
0
 40
0
 40
1
 40
1
 40
1
 40
1
 10
119.486384
 20
121.382800
 30
0.0
 10
119.877118
 20
122.054678
 30
0.0
 10
120.602815
 20
122.507769
 30
0.0
 10
121.436034
 20
122.507828
 30
0.0
  0
LINE
  5
1b6
100
AcDbEntity
  8
Calque_2
 62
7
100
AcDbLine
 10
121.436034
 20
122.507828
 30
0.0
 11
121.436034
 21
122.507828
 31
0.0
  0
SPLINE
  5
1b7
100
AcDbEntity
  8
Calque_2
 62
7
100
AcDbSpline
 70
8
 71
3
 72
8
 73
4
 74
0
 40
0
 40
0
 40
0
 40
0
 40
1
 40
1
 40
1
 40
1
 10
88.055346
 20
174.914457
 30
0.0
 10
87.969132
 20
172.990918
 30
0.0
 10
85.998341
 20
169.105799
 30
0.0
 10
82.317960
 20
169.105799
 30
0.0
  0
SPLINE
  5
1b8
100
AcDbEntity
  8
Calque_2
 62
7
100
AcDbSpline
 70
8
 71
3
 72
8
 73
4
 74
0
 40
0
 40
0
 40
0
 40
0
 40
1
 40
1
 40
1
 40
1
 10
82.317960
 20
169.105799
 30
0.0
 10
78.637579
 20
169.105799
 30
0.0
 10
78.658458
 20
171.706423
 30
0.0
 10
78.658458
 20
174.914457
 30
0.0
  0
SPLINE
  5
1b9
100
AcDbEntity
  8
Calque_2
 62
7
100
AcDbSpline
 70
8
 71
3
 72
8
 73
4
 74
0
 40
0
 40
0
 40
0
 40
0
 40
1
 40
1
 40
1
 40
1
 10
78.658458
 20
174.914457
 30
0.0
 10
78.658458
 20
178.122491
 30
0.0
 10
78.618187
 20
179.916764
 30
0.0
 10
82.298568
 20
179.916767
 30
0.0
  0
SPLINE
  5
1ba
100
AcDbEntity
  8
Calque_2
 62
7
100
AcDbSpline
 70
8
 71
3
 72
8
 73
4
 74
0
 40
0
 40
0
 40
0
 40
0
 40
1
 40
1
 40
1
 40
1
 10
82.298568
 20
179.916767
 30
0.0
 10
85.978949
 20
179.916767
 30
0.0
 10
88.245425
 20
179.155385
 30
0.0
 10
88.055346
 20
174.914457
 30
0.0
  0
LINE
  5
1bb
100
AcDbEntity
  8
Calque_2
 62
7
100
AcDbLine
 10
88.055346
 20
174.914457
 30
0.0
 11
88.055346
 21
174.914457
 31
0.0
  0
ENDSEC
  0
SECTION
  2
OBJECTS
  0
DICTIONARY
  5
C
330
0
100
AcDbDictionary
  3
ACAD_GROUP
350
D
  3
ACAD_MLINESTYLE
350
17
  0
DICTIONARY
  5
D
330
C
100
AcDbDictionary
  0
DICTIONARY
  5
1A
330
C
100
AcDbDictionary
  0
DICTIONARY
  5
17
330
C
100
AcDbDictionary
  3
STANDARD
350
18
  0
DICTIONARY
  5
19
330
C
100
AcDbDictionary
  0
ENDSEC
  0
EOF
