<?xml version="1.0" encoding="UTF-8" standalone="no"?>
<!-- Created with Inkscape (http://www.inkscape.org/) -->

<svg
   xmlns:dc="http://purl.org/dc/elements/1.1/"
   xmlns:cc="http://creativecommons.org/ns#"
   xmlns:rdf="http://www.w3.org/1999/02/22-rdf-syntax-ns#"
   xmlns:svg="http://www.w3.org/2000/svg"
   xmlns="http://www.w3.org/2000/svg"
   xmlns:sodipodi="http://sodipodi.sourceforge.net/DTD/sodipodi-0.dtd"
   xmlns:inkscape="http://www.inkscape.org/namespaces/inkscape"
   width="154.01517mm"
   height="162.12344mm"
   viewBox="0 0 545.72303 574.45314"
   id="svg2"
   version="1.1"
   inkscape:version="0.91 r13725"
   sodipodi:docname="dark_vador.svg">
  <defs
     id="defs4" />
  <sodipodi:namedview
     id="base"
     pagecolor="#ffffff"
     bordercolor="#666666"
     borderopacity="1.0"
     inkscape:pageopacity="0.0"
     inkscape:pageshadow="2"
     inkscape:zoom="0.98994949"
     inkscape:cx="49.558531"
     inkscape:cy="339.24928"
     inkscape:document-units="px"
     inkscape:current-layer="layer2"
     showgrid="false"
     inkscape:window-width="1920"
     inkscape:window-height="1021"
     inkscape:window-x="0"
     inkscape:window-y="27"
     inkscape:window-maximized="1"
     showguides="false"
     fit-margin-top="0"
     fit-margin-left="0"
     fit-margin-right="0"
     fit-margin-bottom="0" />
  <metadata
     id="metadata7">
    <rdf:RDF>
      <cc:Work
         rdf:about="">
        <dc:format>image/svg+xml</dc:format>
        <dc:type
           rdf:resource="http://purl.org/dc/dcmitype/StillImage" />
        <dc:title></dc:title>
      </cc:Work>
    </rdf:RDF>
  </metadata>
  <g
     inkscape:groupmode="layer"
     id="layer2"
     inkscape:label="Calque 2"
     transform="translate(-75.141412,-149.09961)">
    <path
       style="color:#000000;clip-rule:nonzero;display:inline;overflow:visible;visibility:visible;opacity:1;isolation:auto;mix-blend-mode:normal;color-interpolation:sRGB;color-interpolation-filters:linearRGB;solid-color:#000000;solid-opacity:1;fill:none;fill-opacity:1;fill-rule:nonzero;stroke:#000000;stroke-width:0.99999988;stroke-linecap:butt;stroke-linejoin:round;stroke-miterlimit:4;stroke-dasharray:none;stroke-dashoffset:0;stroke-opacity:1;color-rendering:auto;image-rendering:auto;shape-rendering:auto;text-rendering:auto;enable-background:accumulate"
       d="m 348.00391,149.59961 c -44.62358,0.71162 -185.19688,-13.08677 -184.34766,209.79883 -29.8193,85.67481 -70.040736,160.94758 -87.884766,258.59765 -4.78935,81.53444 122.967106,105.05664 272.232426,105.05664 149.26532,0 277.01981,-23.5222 272.23047,-105.05664 C 602.39035,520.34602 562.16891,445.07325 532.34961,359.39844 533.19883,136.51284 392.62749,150.31123 348.00391,149.59961 Z m -22.10352,6.65625 c 1.43474,0.0118 2.87664,0.0378 4.32813,0.0801 l -0.12891,188.16211 C 294.73497,308.00427 201.56065,268.25054 172.43555,333.08008 178.48566,215.28794 235.51153,155.51231 325.90039,156.25586 Z m 44.20508,0 c 90.38886,-0.74355 147.41473,59.03208 153.46484,176.82422 -29.1251,-64.82954 -122.29942,-25.07581 -157.66406,11.41797 l -0.12891,-188.16211 c 1.45149,-0.0423 2.89338,-0.0683 4.32813,-0.0801 z m -24.23828,5 4.27148,0 0.26172,201.19531 -4.79492,0.0899 z m -78.07422,174.94922 c 1.1749,-5.3e-4 2.12748,0.95205 2.12695,2.12695 -5.4e-4,1.17414 -0.95281,2.12553 -2.12695,2.125 -1.17338,-5.4e-4 -2.12446,-0.95162 -2.125,-2.125 -5.3e-4,-1.17414 0.95086,-2.12641 2.125,-2.12695 z m 168.57226,0 c 1.17491,-5.4e-4 2.12749,0.95204 2.12696,2.12695 -5.4e-4,1.17415 -0.95281,2.12554 -2.12696,2.125 -1.17338,-5.4e-4 -2.12446,-0.95162 -2.125,-2.125 -5.3e-4,-1.17414 0.95086,-2.12641 2.125,-2.12695 z m -195.81054,9.49414 c 21.24862,-0.14822 48.79869,6.47157 83.57617,26.12305 l 21.46094,1.01757 4.82226,0 21.46094,-1.01757 c 101.17085,-57.16793 141.16588,-4.04934 142.85156,5.14062 25.4277,64.96678 80.68972,186.56453 91.10938,249.92969 2.84152,17.28019 6.54787,17.1386 5.05078,19.72265 -40.80334,70.42878 -219.71702,70.64844 -262.88281,70.64844 -43.16579,0 -222.08143,-0.21966 -262.884769,-70.64844 -1.49709,-2.58405 2.209261,-2.44246 5.050781,-19.72265 10.419658,-63.36516 65.681678,-184.96291 91.109378,-249.92969 1.10622,-6.03091 18.70983,-30.98071 59.27539,-31.26367 z m 15.71679,20.70898 c -37.00629,-0.0308 -67.25763,18.43767 -63.82617,46.52735 2.84058,23.25274 31.62283,36.14662 67.42774,46.46679 49.21089,14.18423 68.0846,-12.66148 67.42773,-46.46679 -0.50259,-25.8654 -24.95893,-45.06662 -67.42773,-46.4668 -1.20691,-0.0397 -2.40781,-0.0596 -3.60157,-0.0605 z m 183.4629,0 c -1.19376,10e-4 -2.39466,0.0208 -3.60157,0.0605 -42.4688,1.40018 -66.92514,20.6014 -67.42773,46.4668 -0.65687,33.80531 18.21684,60.65102 67.42773,46.46679 35.80491,-10.32017 64.58716,-23.21405 67.42774,-46.46679 3.43146,-28.08968 -26.81991,-46.5581 -63.82617,-46.52735 z m -171.94141,5.4043 c 1.1749,-5.3e-4 2.12748,0.95205 2.12695,2.12695 -5.4e-4,1.17414 -0.95281,2.12553 -2.12695,2.125 -1.17338,-5.4e-4 -2.12446,-0.95162 -2.125,-2.125 -5.3e-4,-1.17414 0.95086,-2.12641 2.125,-2.12695 z m 168.57226,0 c 1.17491,-5.4e-4 2.12749,0.95204 2.12696,2.12695 -5.4e-4,1.17415 -0.95281,2.12554 -2.12696,2.125 -1.17338,-5.4e-4 -2.12446,-0.95162 -2.125,-2.125 -5.3e-4,-1.17414 0.95086,-2.12641 2.125,-2.12695 z m -217.07812,18.22852 c 14.61908,0 -5.56085,9.43672 -3.70899,14.86718 2.20207,6.45738 -1.5159,8.62612 -4.07812,9.50977 0,0 -4.85879,0.61108 -5.11133,-6.65235 -0.39498,-11.36018 -0.14228,-17.7246 12.89844,-17.7246 z m 222.83203,10.48437 c 8.38289,0 22.88086,10.64722 22.88086,17.55078 0,6.90356 -6.79484,12.5 -15.17773,12.5 -8.38289,0 -19.34571,-13.29761 -19.34571,-20.20117 0,-6.90356 3.25968,-9.84961 11.64258,-9.84961 z m -150.50976,14.33594 c 13.04072,0 21.07194,2.6977 20.39843,17.72461 -0.30548,6.81569 -7.28936,20.58203 -20.33008,20.58203 -13.04072,0 -12.96679,-9.21498 -12.96679,-20.58203 0,-11.36705 -0.14231,-17.7246 12.89844,-17.72461 z M 418.6543,633.49805 c 0.72576,1.42229 1.68019,2.69928 2.82031,3.77343 l -73.4707,27.87696 -73.47266,-27.87696 c 1.14012,-1.07415 2.09455,-2.35114 2.82031,-3.77343 l 70.65235,0 z m -79.86914,-8.87696 c 0.004,-0.0491 0.0156,-0.0962 0.0156,-0.14648 l 0,-130.52539 9.20313,-0.0977 9.20117,0.0977 0,130.52539 c 0,0.0503 0.0113,0.0974 0.0156,0.14648 l -9.21679,0 z M 326.61914,483.55078 245.47852,633.49805 348.00391,679.11133 450.52734,633.49805 369.38672,483.55078 C 366.58639,456.74161 359.3766,445.49677 348.00391,444.25 c -11.37269,1.24677 -18.58444,12.49161 -21.38477,39.30078 z m 33.87891,-16.13086 c 0.35842,5.30005 -0.54325,9.5744 -2.82617,12.33789 -2.09067,2.5307 -5.56267,2.99144 -9.66797,3.10157 -4.1053,-0.11006 -7.57926,-0.57087 -9.66993,-3.10157 -2.28294,-2.76349 -3.18459,-7.03784 -2.82617,-12.33789 0.56262,-8.31974 5.34385,-16.6402 12.4961,-17.06836 7.15225,0.42816 11.93152,8.74862 12.49414,17.06836 z m -92.70508,-16.21484 c 1.1749,-5.3e-4 2.12748,0.95205 2.12695,2.12695 -5.4e-4,1.17414 -0.95281,2.12553 -2.12695,2.125 -1.17338,-5.4e-4 -2.12446,-0.95162 -2.125,-2.125 -5.3e-4,-1.17414 0.95086,-2.12641 2.125,-2.12695 z m 156.78711,0 c 1.17414,5.4e-4 2.12553,0.95281 2.125,2.12695 -5.4e-4,1.17338 -0.95162,2.12446 -2.125,2.125 -1.17415,5.4e-4 -2.12642,-0.95085 -2.12696,-2.125 -5.3e-4,-1.17491 0.95205,-2.12749 2.12696,-2.12695 z m -172.17383,33.00976 c -17.98102,0.17257 -38.21539,2.16769 -66.75781,9.57618 l 54.64258,110 c 3.4676,-35.70657 36.66315,-68.07025 66.01953,-103.54883 2.5675,-3.10295 0.53493,-11.56307 -0.66211,-14.66602 -19.53349,0.11555 -35.26117,-1.53389 -53.24219,-1.36133 z m 191.19336,0 c -17.98102,-0.17256 -33.7087,1.47688 -53.24219,1.36133 -1.19704,3.10295 -3.22961,11.56307 -0.66211,14.66602 29.35638,35.47858 62.55193,67.84226 66.01953,103.54883 l 54.64258,-110 c -28.54242,-7.40849 -48.77679,-9.40361 -66.75781,-9.57618 z m -193.23438,8.78321 c 15.51832,-0.12973 29.34382,1.11033 44.0293,1.02343 2.07488,1.7661 2.97691,0.70555 2.49609,5.02735 -0.78273,7.0355 -57.46266,48.13727 -59.63281,81.8457 l -41.08008,-80.69726 c 21.45848,-5.56964 38.66917,-7.06949 54.1875,-7.19922 z m 195.27539,0 c 15.51833,0.12973 32.72902,1.62958 54.1875,7.19922 l -41.08007,80.69726 c -2.17015,-33.70843 -58.85009,-74.8102 -59.63282,-81.8457 -0.48082,-4.3218 0.42122,-3.26125 2.4961,-5.02735 14.68548,0.0869 28.5111,-1.15316 44.02929,-1.02343 z m -117.19726,13.43164 0,118.04492 c 0,0.0502 0.009,0.0974 0.0137,0.14648 l -18.41992,0 0,-82.42773 c 0,-0.48717 -0.33758,-0.87517 -0.78711,-0.99219 z m 39.11914,0 19.19336,34.77148 c -0.44953,0.11702 -0.78711,0.50502 -0.78711,0.99219 l 0,82.42773 -18.41992,0 c 0.004,-0.0491 0.0137,-0.0963 0.0137,-0.14648 z m -67.88281,52.10547 0,66.08593 -15.45899,0 0,-38.08007 z m 96.64648,0.002 15.45899,28.00391 0,38.08007 -15.45899,0 z m -126.93359,54.86719 0.0547,0.14843 c -0.0389,-0.0119 -0.0762,-0.0276 -0.11524,-0.0391 z m 157.2207,0 0.0606,0.10937 c -0.039,0.0115 -0.0764,0.0272 -0.11524,0.0391 z m -160.89258,4.875 c 2.95235,2.1e-4 5.52372,1.60565 6.90821,3.98632 l 0.95703,2.61915 c 0.0793,0.45188 0.12887,0.91405 0.1289,1.38867 7.6e-4,4.41567 -3.57847,7.99577 -7.99414,7.99609 -4.41643,7.6e-4 -7.99685,-3.57966 -7.99609,-7.99609 3.2e-4,-4.41567 3.58042,-7.9949 7.99609,-7.99414 z m 164.56446,0 c 4.41567,-7.6e-4 7.99577,3.57847 7.99609,7.99414 7.6e-4,4.41643 -3.57966,7.99685 -7.99609,7.99609 -4.41567,-3.2e-4 -7.9949,-3.58042 -7.99414,-7.99609 3e-5,-0.47462 0.0496,-0.93679 0.1289,-1.38867 l 0.95703,-2.61915 c 1.38449,-2.38067 3.95586,-3.98611 6.90821,-3.98632 z"
       id="rect4213"
       inkscape:connector-curvature="0"
       sodipodi:nodetypes="cccscccscccsscccscccccssssssssssscccccssssscssssscsscsssssssssssssssscssssssssssssccccccccscccsccccccccccsccsscssssssssssssccscsscsccsscsccssccscscsccsccccsccsccccccccccccccccccccccccccccccccc" />
    <path
       style="color:#000000;clip-rule:nonzero;display:inline;overflow:visible;visibility:visible;opacity:1;isolation:auto;mix-blend-mode:normal;color-interpolation:sRGB;color-interpolation-filters:linearRGB;solid-color:#000000;solid-opacity:1;fill:none;fill-opacity:1;fill-rule:nonzero;stroke:#000000;stroke-width:0.99999988;stroke-linecap:butt;stroke-linejoin:round;stroke-miterlimit:4;stroke-dasharray:none;stroke-dashoffset:0;stroke-opacity:1;color-rendering:auto;image-rendering:auto;shape-rendering:auto;text-rendering:auto;enable-background:accumulate"
       d="m 312.00713,432.58657 c -0.30548,6.81569 -7.2886,20.58186 -20.32932,20.58186 -13.04072,0 -12.96674,-9.21481 -12.96674,-20.58186 0,-11.36705 -0.14269,-17.72471 12.89803,-17.72472 13.04072,0 21.07154,2.69781 20.39803,17.72472 z"
       id="path4261"
       inkscape:connector-curvature="0"
       sodipodi:nodetypes="sssss" />
  </g>
</svg>
