<?xml version="1.0" encoding="UTF-8" standalone="no"?>
<!-- Created with Inkscape (http://www.inkscape.org/) -->

<svg
   xmlns:dc="http://purl.org/dc/elements/1.1/"
   xmlns:cc="http://creativecommons.org/ns#"
   xmlns:rdf="http://www.w3.org/1999/02/22-rdf-syntax-ns#"
   xmlns:svg="http://www.w3.org/2000/svg"
   xmlns="http://www.w3.org/2000/svg"
   xmlns:sodipodi="http://sodipodi.sourceforge.net/DTD/sodipodi-0.dtd"
   xmlns:inkscape="http://www.inkscape.org/namespaces/inkscape"
   width="210mm"
   height="297mm"
   viewBox="0 0 744.09448819 1052.3622047"
   id="svg2"
   version="1.1"
   inkscape:version="0.91 r13725"
   sodipodi:docname="YCT.svg">
  <defs
     id="defs4" />
  <sodipodi:namedview
     id="base"
     pagecolor="#ffffff"
     bordercolor="#66e066"
     borderopacity="1"
     inkscape:pageopacity="0.0"
     inkscape:pageshadow="2"
     inkscape:zoom="0.98994949"
     inkscape:cx="147.67969"
     inkscape:cy="242.77447"
     inkscape:document-units="mm"
     inkscape:current-layer="layer1"
     showgrid="false"
     inkscape:window-width="1920"
     inkscape:window-height="1017"
     inkscape:window-x="-8"
     inkscape:window-y="-8"
     inkscape:window-maximized="1" />
  <metadata
     id="metadata7">
    <rdf:RDF>
      <cc:Work
         rdf:about="">
        <dc:format>image/svg+xml</dc:format>
        <dc:type
           rdf:resource="http://purl.org/dc/dcmitype/StillImage" />
        <dc:title></dc:title>
      </cc:Work>
    </rdf:RDF>
  </metadata>
  <g
     inkscape:label="Calque 1"
     inkscape:groupmode="layer"
     id="layer1">
    <g
       id="g4172"
       transform="matrix(0.8,0,0,0.8,54.143839,159.57318)">
      <path
         style="fill:#000080"
         d="m 251.22048,1052.275 c -27.23973,-1.5418 -52.16076,-7.5146 -76.9393,-18.44 -6.73031,-2.9676 -16.12683,-7.8465 -22.89423,-11.8874 -32.90347,-19.6469 -60.25954,-47.80625 -78.94236,-81.26045 l -0.88191,-1.57916 -5.87457,-0.0929 c -7.45802,-0.11798 -14.01687,-0.4508 -19.90254,-1.00996 -1.05743,-0.10047 -1.94436,-0.16507 -1.97094,-0.14357 -0.0834,0.0675 -21.15713,79.73934 -21.87412,82.69794 -0.48133,1.9862 -0.74005,2.8128 -0.8804,2.8128 -0.3188,0 -20.90711,-5.1564 -21.03244,-5.2677 -0.15901,-0.1411 -0.0789,-0.4474 13.27948,-50.77305 6.5909,-24.8302 16.49472,-62.16097 22.00847,-82.95725 l 10.02501,-37.81141 -0.12806,-2.7059 c -0.29922,-6.32204 -0.13674,-16.9973 0.36738,-24.1395 2.50752,-35.52498 13.69433,-69.83815 32.55368,-99.85144 l 1.39834,-2.22536 11.74093,-44.27343 c 6.45751,-24.35038 11.7828,-44.44057 11.83397,-44.64487 0.0868,-0.34647 -0.004,-0.43079 -1.3433,-1.25411 -6.23084,-3.82898 -9.82903,-8.60305 -9.83067,-13.04328 -8.6e-4,-2.32536 0.78146,-4.13249 2.5589,-5.91094 2.87031,-2.87194 7.17248,-4.32891 13.33878,-4.5173 11.46311,-0.35022 25.05208,4.42732 31.95928,11.23607 3.25657,3.21015 4.73784,6.36223 4.5018,9.57963 -0.36562,4.98376 -4.79661,8.41165 -12.37243,9.57153 -1.13002,0.17301 -2.52364,0.2491 -4.67575,0.25527 l -3.06592,0.009 -1.24325,4.69973 c -0.68379,2.58485 -2.65268,10.01888 -4.37531,16.52008 -1.72263,6.50119 -3.13206,11.83908 -3.13206,11.86196 0,0.098 4.92029,2.45099 5.12527,2.45099 0.22721,0 0.8657,-0.49444 4.41659,-3.42017 33.91556,-27.94449 76.4284,-45.07103 120.34142,-48.48023 6.63412,-0.51504 8.35682,-0.57313 17.08991,-0.57618 8.77572,-0.003 10.78713,0.0637 17.37474,0.57655 34.33242,2.67287 67.84486,13.69899 97.27004,32.00335 19.77742,12.30284 37.65258,27.87011 52.60874,45.81637 14.26322,17.11478 25.88731,36.44208 34.2747,56.98833 l 1.20078,2.94151 4.62852,1.52466 c 21.94785,7.22976 40.08114,15.10735 53.69079,23.32473 3.19561,1.92948 7.97462,5.11348 7.88724,5.25485 -0.0391,0.0634 -0.43835,0.11517 -0.88712,0.11517 -1.16905,0 -6.78646,0.37355 -11.84226,0.78749 -13.83002,1.13234 -26.47456,2.82743 -35.10552,4.70616 -2.75515,0.59973 -7.22105,1.74145 -7.36071,1.8818 -0.0555,0.0558 0.11567,1.287 0.38038,2.73608 5.92349,32.42736 4.20345,66.80977 -4.93378,98.623 -8.56795,29.83114 -23.61028,57.72899 -43.84687,81.31946 -36.19662,42.19565 -86.3783,68.82815 -141.12897,74.90035 -8.82248,0.9785 -11.36567,1.1062 -22.92896,1.1515 -5.67883,0.022 -11.28646,-0.014 -12.46139,-0.081 z m 24.2107,-6.037 c 19.43023,-1.2819 36.74036,-4.6672 54.54528,-10.6673 39.62154,-13.3521 74.65704,-38.42195 100.31195,-71.77868 27.58896,-35.87136 42.88051,-79.45019 43.69613,-124.52798 l 0.0908,-5.02016 -21.17139,0 -21.17137,0 -10e-4,2.52789 c -0.001,3.00601 -0.20879,7.75696 -0.5027,11.50008 -2.29196,29.18882 -12.0292,57.00336 -28.46811,81.31947 -11.82404,17.48988 -27.09713,32.87956 -44.51485,44.85469 -18.885,12.98393 -39.9868,21.92484 -62.35427,26.41989 -22.81061,4.5838 -46.94257,4.3573 -69.66525,-0.654 -23.45501,-5.17285 -45.64295,-15.36618 -64.87043,-29.80206 -6.48184,-4.86652 -11.67635,-9.36968 -17.90585,-15.52271 l -3.94909,-3.9006 -0.96426,0.82306 c -12.52702,10.6933 -31.22715,26.79164 -31.22715,26.88289 0,0.24171 10.81932,10.93968 13.3871,13.23694 13.56014,12.13168 27.45952,21.89258 42.79597,30.05368 27.01148,14.3739 57.28749,22.7793 87.58577,24.3162 1.6449,0.083 3.4073,0.174 3.91643,0.2011 2.54421,0.1357 17.26861,-0.053 20.43668,-0.2624 z m -27.8423,-6.35 c 0,-0.4354 0.045,-0.4735 0.73773,-0.6247 0.88431,-0.193 0.82884,0.6832 0.82884,-13.0924 0,-14.038 0.07,-13.1122 -1.00467,-13.2841 -0.52542,-0.084 -0.5619,-0.121 -0.5619,-0.5701 l 0,-0.4802 9.57746,0 c 6.08252,0 10.04519,0.058 10.85922,0.1568 4.4379,0.5417 7.60305,2.2607 8.79449,4.7764 0.43834,0.9255 0.46254,1.0623 0.46254,2.6144 0,1.5067 -0.032,1.703 -0.39995,2.4524 -0.54702,1.1138 -1.80364,2.2233 -3.38891,2.9918 -1.19355,0.5786 -1.50988,0.8222 -1.06777,0.8222 0.10954,0 0.78571,0.2936 1.50261,0.6525 2.53057,1.2668 3.82623,2.9205 4.13672,5.2797 0.48239,3.6653 -1.54692,6.6368 -5.43833,7.9634 -2.17516,0.7415 -2.74211,0.772 -14.32129,0.7727 l -10.71679,0 0,-0.4317 z m 19.91616,-4.7009 c 1.6638,-0.2087 2.66593,-0.6151 3.45957,-1.4035 1.39942,-1.3899 1.31608,-3.4638 -0.19258,-4.7918 -1.35714,-1.1946 -2.41841,-1.3406 -9.76046,-1.3443 l -5.73224,0 0.002,3.5248 c 0.001,1.9386 0.0406,3.669 0.0878,3.8452 l 0.0859,0.3205 5.43453,0 c 2.98898,0 5.96599,-0.067 6.61553,-0.1481 z m 0.2084,-12.4005 c 1.39153,-0.2152 2.43726,-0.6285 2.85929,-1.13 0.61959,-0.7364 0.78954,-2.4249 0.33621,-3.3402 -0.30964,-0.6252 -0.91045,-1.086 -1.80971,-1.388 -0.89467,-0.3005 -1.18447,-0.3146 -7.37558,-0.3605 l -6.44432,-0.048 0,3.2123 0,3.2123 5.70496,0 c 3.47708,0 6.10492,-0.062 6.72915,-0.1583 z m -38.81665,16.2956 c -0.16511,-0.043 -0.24923,-0.2045 -0.24923,-0.4782 0,-0.3069 -0.10083,-0.4653 -0.39164,-0.6152 -0.33597,-0.1735 -9.25341,-2.3239 -21.96765,-5.2975 -1.91905,-0.4487 -3.52835,-0.8546 -3.57621,-0.9018 -0.0479,-0.047 -0.0282,-0.3013 0.0437,-0.5644 0.0719,-0.2632 0.16457,-0.4446 0.20593,-0.4033 0.0414,0.041 0.26115,0.01 0.48842,-0.069 0.30619,-0.1068 0.44933,-0.279 0.5526,-0.6649 0.37365,-1.3963 5.70351,-24.1097 5.70351,-24.3057 0,-0.1242 -0.16603,-0.3796 -0.36896,-0.5678 -0.30297,-0.2808 -0.35166,-0.4206 -0.27228,-0.7821 0.071,-0.3232 0.15956,-0.421 0.33335,-0.368 1.59544,0.4866 24.07146,5.6773 24.63748,5.6899 0.66303,0.015 0.8027,-0.033 1.0969,-0.3746 0.33553,-0.3898 0.96038,-0.5303 1.13097,-0.2542 0.0712,0.1152 -1.42288,6.819 -1.54758,6.9437 -0.0229,0.023 -0.2441,0 -0.4916,-0.048 -0.31955,-0.064 -0.44999,-0.1701 -0.44999,-0.3664 0,-0.4277 -0.2542,-0.8041 -0.69811,-1.0337 -0.38163,-0.1973 -17.95936,-4.4136 -18.02003,-4.3224 -0.0655,0.098 -1.51013,6.4217 -1.47366,6.4501 0.0668,0.052 9.83937,2.34 10.65634,2.4949 1.08233,0.2052 1.61716,0 1.94225,-0.7337 0.23018,-0.5217 0.28935,-0.5646 0.67245,-0.488 0.23104,0.046 0.44176,0.1057 0.46829,0.1323 0.046,0.046 -1.811,8.0844 -1.89124,8.1869 -0.0212,0.027 -0.23531,0.01 -0.4759,-0.047 -0.40901,-0.09 -0.43743,-0.1376 -0.43743,-0.7351 0,-0.8504 -0.19251,-1.1654 -0.90227,-1.4766 -0.6225,-0.273 -11.03496,-2.7772 -11.1343,-2.6778 -0.0316,0.032 -0.435,1.6464 -0.89653,3.5887 -0.55442,2.333 -0.78586,3.5508 -0.68215,3.5891 0.0863,0.032 4.09831,0.9919 8.91553,2.1332 6.45726,1.5299 8.90826,2.0566 9.32824,2.0041 0.41164,-0.051 0.67303,-0.1944 0.94232,-0.5154 0.3043,-0.3629 0.44144,-0.4272 0.74769,-0.3502 0.22496,0.056 0.37502,0.193 0.37502,0.3414 0,0.136 -0.35248,1.7354 -0.78329,3.5542 -0.4308,1.8189 -0.78328,3.3349 -0.78328,3.3689 0,0.074 -0.40014,0.055 -0.74769,-0.036 z m 67.70907,-1.6601 c -0.1016,-0.3882 -0.063,-0.5004 0.2843,-0.8268 0.22102,-0.2077 0.40186,-0.4063 0.40186,-0.4415 0,-0.084 -5.64978,-23.6144 -5.8363,-24.3071 -0.14072,-0.5226 -0.7116,-0.9716 -1.00495,-0.7903 -0.1452,0.09 -0.42706,-0.8126 -0.29535,-0.9456 0.0478,-0.048 5.49319,-1.3823 12.10075,-2.9644 6.60755,-1.5821 12.18313,-2.9407 12.39018,-3.0192 0.58706,-0.2224 1.01732,-0.702 1.01732,-1.134 0,-0.3208 0.0786,-0.4084 0.43743,-0.4872 0.24058,-0.053 0.46846,-0.065 0.5064,-0.027 0.12259,0.1226 1.67757,6.7836 1.60138,6.8598 -0.0405,0.041 -0.27731,0.1145 -0.52617,0.1642 -0.36437,0.073 -0.45247,0.044 -0.45247,-0.1482 0,-0.1381 -0.20965,-0.3263 -0.49739,-0.4465 -0.4375,-0.1828 -0.62178,-0.1819 -1.53097,0.01 -1.59779,0.3331 -16.93034,4.0298 -16.99901,4.0985 -0.0335,0.034 0.27663,1.4804 0.68908,3.2155 0.59193,2.4901 0.79805,3.1546 0.97857,3.1546 0.60288,0 10.89482,-2.5935 11.30988,-2.85 0.50642,-0.313 0.70207,-0.8067 0.56571,-1.4276 -0.0779,-0.3545 -0.0404,-0.406 0.35893,-0.4937 0.24521,-0.054 0.48226,-0.062 0.52675,-0.017 0.14488,0.1449 1.99338,7.9898 1.90611,8.0894 -0.0466,0.053 -0.25896,0.1398 -0.47184,0.1923 -0.35231,0.087 -0.40823,0.043 -0.6224,-0.4925 -0.28345,-0.7084 -0.54122,-0.8646 -1.42671,-0.8646 -0.68409,0 -10.84574,2.3582 -11.07621,2.5705 -0.18609,0.1714 1.49165,7.1137 1.71918,7.1137 0.40964,0 17.52535,-4.1681 17.95898,-4.3735 0.48362,-0.229 0.88382,-0.8169 0.88382,-1.2982 0,-0.1937 0.13199,-0.3005 0.44999,-0.3641 0.2475,-0.049 0.4612,-0.074 0.47489,-0.053 0.0137,0.02 0.40055,1.6272 0.85972,3.5713 0.70649,2.9912 0.80318,3.5547 0.62885,3.665 -0.36289,0.2296 -0.77413,0.1465 -0.91992,-0.1858 -0.0837,-0.1906 -0.29012,-0.3378 -0.50991,-0.3633 -0.28076,-0.033 -20.73856,4.7724 -25.01577,5.8756 l -0.74715,0.1927 -0.11756,-0.4492 z m -115.59641,-13.7174 c -2.42819,-1.2186 -4.43564,-2.2345 -4.46099,-2.2577 -0.0254,-0.023 0.0554,-0.2386 0.17954,-0.4786 0.20269,-0.3919 0.26367,-0.4219 0.59898,-0.2944 0.48899,0.1859 0.88579,0.049 0.98187,-0.3377 0.0425,-0.171 -0.30989,-2.8654 -0.78295,-5.9876 -0.47308,-3.1222 -0.86013,-5.7015 -0.86013,-5.7317 0,-0.08 -6.85842,-3.4991 -6.91177,-3.4457 -0.22048,0.2204 -4.33909,8.7976 -4.33909,9.0362 0,0.1882 0.20829,0.4858 0.51959,0.7424 0.49524,0.4082 0.51126,0.4485 0.34157,0.8581 l -0.17803,0.4298 -4.15118,-2.0741 c -2.28316,-1.1407 -4.17195,-2.093 -4.1973,-2.1162 -0.0254,-0.023 0.057,-0.2414 0.18291,-0.485 0.19199,-0.3713 0.27277,-0.4195 0.49959,-0.2981 0.31372,0.1679 0.99965,0.1878 1.23375,0.036 0.27623,-0.1793 11.30332,-22.37176 11.30332,-22.74835 0,-0.35436 -0.31481,-0.76929 -0.78206,-1.03077 -0.22787,-0.12753 -0.22873,-0.16742 -0.0127,-0.5853 l 0.2319,-0.44844 9.07559,4.5463 c 4.99157,2.50051 9.54735,4.86351 10.12395,5.25121 2.98743,2.0088 4.5471,4.20295 4.7988,6.75125 0.203,2.055 -0.9356,4.9507 -2.6144,6.6489 -1.46857,1.4856 -2.84682,2.0091 -5.28958,2.0091 -0.69272,0 -1.75197,-0.1019 -2.35388,-0.2264 -0.60192,-0.1244 -1.12626,-0.1944 -1.16521,-0.1555 -0.0863,0.086 1.5996,11.7752 1.80516,12.5157 0.0921,0.3319 0.31632,0.6442 0.60557,0.844 0.2526,0.1743 0.48393,0.3357 0.51405,0.3586 0.0813,0.062 -0.28813,0.9064 -0.39249,0.8974 -0.0493,0 -2.07624,-1.0047 -4.50443,-2.2232 z m 5.37555,-17.3225 c 0.73639,-0.4315 1.32845,-1.2296 1.6126,-2.1738 0.30051,-0.9985 0.25339,-1.4843 -0.23964,-2.471 -0.75548,-1.5118 -1.60227,-2.08315 -7.42302,-5.00845 l -5.0894,-2.5577 -1.78471,3.5672 -1.78472,3.56725 5.02271,2.4896 c 3.26531,1.6185 5.39644,2.589 6.09083,2.7738 1.43866,0.3827 2.73867,0.3152 3.59535,-0.1869 z m 156.69372,15.1362 c -2.18689,-0.436 -4.09471,-1.8488 -5.61846,-4.1608 -0.32358,-0.4909 -2.346,-4.3939 -4.49427,-8.6733 -4.19837,-8.3631 -4.06964,-8.1613 -4.98274,-7.8141 -0.20636,0.079 -0.42482,0.1427 -0.48548,0.1427 -0.17283,0 -0.46771,-0.7434 -0.34084,-0.8592 0.13827,-0.1263 7.6564,-3.98295 7.76428,-3.98295 0.0421,0 0.15653,0.1933 0.25442,0.4296 0.16339,0.3945 0.14734,0.4579 -0.19635,0.7765 -0.20587,0.1908 -0.3743,0.4564 -0.3743,0.5902 0,0.1338 1.77842,3.76655 3.95204,8.07275 4.18804,8.297 4.61765,9.0006 5.89177,9.6507 1.82476,0.931 4.31886,0.544 7.84737,-1.2176 2.84537,-1.4206 4.74863,-3.006 5.47266,-4.5589 0.40103,-0.8602 0.44181,-2.0802 0.1072,-3.207 -0.27758,-0.9347 -7.7687,-15.95483 -8.09049,-16.22189 -0.2213,-0.18367 -0.8452,-0.15695 -1.39219,0.0596 -0.17335,0.0686 -0.30101,-0.0239 -0.46171,-0.33463 l -0.2221,-0.4295 3.79779,-1.93191 c 2.08879,-1.06254 3.8429,-1.9319 3.89801,-1.9319 0.0551,0 0.18007,0.19277 0.27767,0.42838 0.16369,0.39518 0.14847,0.45121 -0.19635,0.72242 -0.22596,0.17774 -0.37378,0.43531 -0.37378,0.65127 0,0.19648 1.78984,3.92491 3.97743,8.28541 4.24932,8.47005 4.67709,9.49885 4.80661,11.55975 0.28704,4.5679 -3.0917,8.0791 -11.43054,11.8786 -4.22627,1.9257 -7.03048,2.5457 -9.38765,2.0758 z m 40.25136,-20.8699 -0.30031,-0.3818 0.35434,-0.42115 c 0.532,-0.6322 0.45368,-0.9816 -0.46454,-2.0722 -4.59128,-5.45344 -15.63398,-18.12748 -15.85539,-18.19775 -0.16718,-0.0531 -0.51103,0.0277 -0.83335,0.19568 l -0.54874,0.28603 -0.32764,-0.34876 c -0.2833,-0.30155 -0.29982,-0.37437 -0.12204,-0.53804 1.1531,-1.06152 14.53358,-12.46742 15.35436,-13.08847 0.59766,-0.45224 1.79162,-1.17154 2.65323,-1.59846 2.79578,-1.38528 4.94897,-1.52894 7.17312,-0.47858 1.20541,0.56924 3.29015,2.62231 3.96812,3.90779 0.54138,1.02652 0.8929,2.28626 0.8929,3.19989 0,1.50781 -0.82233,3.70815 -2.03387,5.4421 -0.31539,0.45138 -0.54756,0.84397 -0.51593,0.87241 0.0317,0.0284 2.87329,0.77585 6.31477,1.66092 l 6.25722,1.60924 0.68683,-0.36623 0.68683,-0.36624 0.28902,0.36743 c 0.27726,0.35247 0.27865,0.37714 0.0343,0.60551 -0.9703,0.90694 -7.31985,6.26072 -7.42516,6.26072 -0.0722,0 -0.2364,-0.16053 -0.36496,-0.35674 -0.22088,-0.33712 -0.21681,-0.37964 0.074,-0.77302 0.35517,-0.48038 0.28426,-0.81131 -0.21444,-1.00092 -0.19179,-0.0729 -2.81072,-0.75897 -5.81982,-1.52454 l -5.47111,-1.39197 -2.87466,2.47758 c -1.58108,1.36268 -2.85709,2.52506 -2.8356,2.5831 0.0215,0.058 1.47423,1.77705 3.22829,3.82003 3.45671,4.02609 3.42909,4.00429 4.35501,3.43209 l 0.45706,-0.2825 0.33403,0.3555 c 0.19824,0.2111 0.27981,0.4029 0.20064,0.472 -0.0734,0.064 -1.54333,1.3227 -3.26657,2.7971 -1.72323,1.4743 -3.26961,2.80295 -3.43641,2.95235 -0.30024,0.2689 -0.30626,0.2678 -0.60357,-0.1101 z m 4.53409,-24.38111 c 2.30177,-2.58252 2.22229,-5.20745 -0.19973,-6.59667 -1.34589,-0.77198 -2.94401,-0.49222 -4.96614,0.86935 -0.98978,0.66645 -8.64412,7.17887 -8.64412,7.35454 0,0.0476 0.33873,0.47815 0.75275,0.95681 0.41402,0.47866 1.56964,1.81362 2.56803,2.96658 l 1.81526,2.09627 3.99042,-3.43463 c 2.19475,-1.88904 4.30233,-3.78456 4.68353,-4.21225 z m -254.51649,18.16526 c -1.74938,-1.41931 -3.20302,-2.59786 -3.2303,-2.61897 -0.0273,-0.0211 0.0688,-0.19841 0.21363,-0.39405 0.22716,-0.30696 0.34261,-0.34514 0.84281,-0.27872 l 0.5796,0.077 6.89724,-8.49116 c 3.79348,-4.67015 6.8947,-8.53853 6.8916,-8.5964 -0.0128,-0.23893 -7.10784,-5.86447 -7.50691,-5.95213 -0.30705,-0.0674 -0.52891,-0.0154 -0.80539,0.18906 l -0.3816,0.28213 -0.37476,-0.32236 -0.37476,-0.32236 2.35291,-2.90004 c 1.29409,-1.59503 2.37897,-2.92701 2.41083,-2.95995 0.0319,-0.0329 0.21067,0.0836 0.39735,0.25897 0.3,0.28184 0.32086,0.36809 0.17956,0.74242 -0.13364,0.35407 -0.11349,0.50513 0.12287,0.92101 0.41051,0.72231 19.0596,15.83542 19.68751,15.95464 0.31332,0.0595 0.57864,0.0125 0.8189,-0.14488 0.32902,-0.21559 0.38184,-0.21556 0.71145,0 0.19582,0.1283 0.35604,0.26732 0.35604,0.3089 0,0.0825 -3.51413,4.45246 -4.32201,5.37463 l -0.49905,0.56967 -0.31389,-0.30731 c -0.26639,-0.26079 -0.29199,-0.37005 -0.16929,-0.72206 0.27549,-0.79025 -0.0205,-1.11687 -3.75837,-4.14714 -1.94726,-1.57862 -3.58406,-2.85415 -3.63733,-2.8345 -0.0837,0.0309 -6.55438,7.95558 -12.03519,14.73967 -1.04843,1.29773 -1.75423,2.29683 -1.75423,2.48313 0,0.1714 0.12343,0.444 0.27429,0.6057 0.27131,0.2908 0.27066,0.2982 -0.0593,0.6797 l -0.33354,0.3857 -3.18071,-2.5806 z m 285.55749,-27.43663 c -0.29697,-0.24047 -0.31015,-0.3035 -0.14626,-0.69916 0.13004,-0.31394 0.13841,-0.51281 0.0301,-0.7152 -0.19222,-0.35916 -20.42779,-14.75437 -20.83052,-14.81843 -0.16612,-0.0264 -0.48526,0.0874 -0.7092,0.25297 -0.38425,0.2841 -0.42722,0.28787 -0.7639,0.0673 -0.19621,-0.12856 -0.35674,-0.26267 -0.35674,-0.29802 0,-0.15547 10.79982,-15.22955 11.54808,-16.11848 1.57338,-1.86917 4.04028,-3.56056 6.24026,-4.27853 4.52152,-1.47562 10.01635,0.21084 14.49265,4.44803 1.95977,1.85509 3.15926,3.70569 3.89263,6.00569 0.48514,1.52152 0.55821,4.28255 0.1577,5.95867 -0.38323,1.60374 -1.00876,3.1657 -1.7857,4.45891 -0.72176,1.20138 -11.21873,15.99523 -11.35166,15.99839 -0.0501,10e-4 -0.23792,-0.11675 -0.41743,-0.26212 z m 6.16747,-15.86847 c 1.0712,-1.58888 2.03068,-3.62096 2.25351,-4.7726 0.31677,-1.63732 -0.052,-3.28579 -1.08215,-4.8373 -1.57963,-2.37911 -5.76297,-5.25347 -8.46815,-5.81844 -1.9812,-0.41378 -3.60958,-0.0283 -5.3332,1.2625 -1.3089,0.98023 -2.42615,2.33568 -5.5463,6.72878 -2.0258,2.85226 -2.5913,3.74179 -2.46192,3.8725 0.0924,0.0933 3.59136,2.60326 7.77551,5.57763 l 7.60756,5.40796 2.20611,-3.08535 c 1.21335,-1.69696 2.58541,-3.64802 3.04903,-4.33568 z m 20.43871,-25.53912 c -0.29163,-0.15449 -0.39165,-0.31459 -0.39165,-0.6269 0,-0.2797 -0.1084,-0.49043 -0.32545,-0.63265 -0.42753,-0.28013 -23.23522,-9.62002 -23.49175,-9.62002 -0.10855,0 -0.33656,0.12967 -0.50666,0.28815 -0.30453,0.2837 -0.92362,0.27781 -1.10182,-0.0105 -0.0401,-0.0649 2.05239,-5.29696 4.65003,-11.62672 5.09173,-12.40729 5.16945,-12.63679 4.49275,-13.26866 -0.31541,-0.2945 -0.33981,-0.38207 -0.19845,-0.71208 0.0887,-0.20694 0.17708,-0.39979 0.1965,-0.42853 0.0883,-0.13075 6.59529,2.63381 6.5978,2.80313 0.006,0.39227 -0.30002,0.73833 -0.65247,0.73833 -0.55618,0 -0.88269,0.24008 -1.21699,0.89485 -0.16862,0.33028 -1.79283,4.23371 -3.60934,8.6743 l -3.30278,8.0738 3.04582,1.24074 c 1.74075,0.7091 3.09425,1.18558 3.15887,1.11202 0.0622,-0.0708 1.03023,-2.37175 2.15125,-5.11325 2.32153,-5.67747 2.45203,-6.18987 1.73092,-6.79664 -0.24061,-0.20246 -0.50596,-0.39095 -0.58964,-0.41884 -0.10653,-0.0355 -0.10301,-0.19172 0.0117,-0.5208 0.0901,-0.25855 0.23634,-0.44055 0.32493,-0.40444 8.22568,3.35284 7.93276,3.20203 7.45985,3.84054 -0.14824,0.20015 -0.26473,0.21622 -0.69651,0.096 -0.6602,-0.18377 -1.1306,-0.0115 -1.54034,0.56384 -0.31088,0.43659 -4.42261,10.30115 -4.41939,10.60268 0.001,0.12504 6.7055,2.97965 6.78304,2.88818 0.0111,-0.0131 1.57623,-3.805 3.47802,-8.42639 3.79468,-9.22113 3.86488,-9.44941 3.10653,-10.10172 -0.35113,-0.30202 -0.36226,-0.34913 -0.18319,-0.77503 0.18755,-0.44606 0.1983,-0.45029 0.65868,-0.25924 0.25741,0.10683 1.7818,0.7295 3.38754,1.38373 1.60574,0.65422 2.94418,1.20746 2.9743,1.22943 0.0301,0.022 -0.0257,0.23426 -0.12409,0.47176 -0.14748,0.35606 -0.26039,0.43182 -0.64366,0.43182 -0.33489,0 -0.52809,0.0966 -0.69124,0.3456 -0.12455,0.19006 -2.41286,5.68554 -5.08515,12.21216 -2.67227,6.5266 -4.90091,11.90981 -4.95251,11.96268 -0.0516,0.0529 -0.27005,0.003 -0.48545,-0.11136 z m 15.2741,-44.05082 c 0,-0.48823 -0.15931,-0.70738 -0.61786,-0.84993 -0.90794,-0.28227 -24.68541,-3.76164 -25.06145,-3.66726 -0.24511,0.0615 -0.41041,0.22232 -0.46916,0.45637 -0.0802,0.31959 -0.14221,0.35036 -0.53622,0.26602 -0.24504,-0.0524 -0.4725,-0.12017 -0.50545,-0.15051 -0.05,-0.046 0.99835,-7.39154 1.23232,-8.63454 0.0625,-0.33203 0.14436,-0.39165 0.53778,-0.39165 0.34426,0 0.48326,0.0735 0.53852,0.28483 0.15862,0.60655 0.81494,0.35694 2.90221,-1.10372 11.64292,-8.14773 17.27433,-12.21643 17.03785,-12.30992 -0.50282,-0.19875 -16.74533,-2.55788 -17.06265,-2.47823 -0.20529,0.0515 -0.40319,0.281 -0.54242,0.62894 -0.19875,0.49676 -0.25999,0.54183 -0.65685,0.48358 -0.30888,-0.0453 -0.43766,-0.14224 -0.43766,-0.32938 0,-0.23095 0.85414,-6.09054 1.07247,-7.35737 0.0567,-0.32904 0.15688,-0.46285 0.34649,-0.46285 0.48177,0 0.71728,0.16759 0.71728,0.5104 0,0.1939 0.13635,0.4254 0.32044,0.54402 0.48195,0.31058 25.10504,3.97599 25.45419,3.78914 0.1475,-0.0789 0.3089,-0.27179 0.35864,-0.42851 0.0673,-0.21213 0.21544,-0.28499 0.57931,-0.28499 0.41464,0 0.4875,0.0486 0.47997,0.32043 -0.005,0.17624 -0.28123,2.11488 -0.61409,4.30808 l -0.60521,3.98765 -0.48321,0 c -0.39823,0 -0.49789,-0.0626 -0.56668,-0.35604 -0.13216,-0.56373 -0.5665,-0.49997 -1.65585,0.24309 -4.05817,2.76812 -19.39481,13.6514 -19.28783,13.68716 0.0736,0.0246 4.12692,0.64503 9.00745,1.37876 7.96584,1.19757 8.90627,1.31303 9.19188,1.12843 0.175,-0.11309 0.35977,-0.37135 0.4106,-0.57388 0.081,-0.32261 0.14616,-0.35751 0.52594,-0.28156 0.23843,0.0477 0.45773,0.11093 0.48733,0.14054 0.0457,0.0457 -0.79697,5.9198 -1.04912,7.31323 -0.075,0.41466 -0.134,0.46285 -0.56636,0.46285 -0.3808,0 -0.4826,-0.0576 -0.4826,-0.27318 z M 17.00569,1015.7173 c 3.68022,-13.8885 14.76644,-55.69661 50.78354,-191.51373 7.02089,-26.47512 14.2947,-53.90442 16.16402,-60.954 13.6235,-51.37699 22.24089,-83.8709 23.09557,-87.08731 0.55156,-2.07571 1.24178,-4.70329 1.53381,-5.83905 0.29203,-1.13577 2.59266,-9.81391 5.11252,-19.28476 2.51986,-9.47085 4.56522,-17.23302 4.54523,-17.24927 -0.02,-0.0163 -0.54903,-0.13966 -1.17566,-0.27425 -1.73417,-0.37247 -4.34682,-1.12495 -6.45678,-1.85965 -1.04471,-0.36377 -1.91784,-0.64031 -1.94029,-0.61453 -0.11498,0.13203 -101.48879,382.68255 -101.42556,382.74585 0.0603,0.06 9.17539,2.4077 9.52076,2.4519 0.0557,0.01 0.165,-0.2274 0.24284,-0.5212 z m 249.6959,-17.55295 c 8.30739,-0.2369 14.54954,-0.8162 22.28298,-2.0678 26.60047,-4.30523 52.17039,-15.46486 73.52682,-32.08977 34.38618,-26.7679 56.60565,-65.6049 62.01821,-108.40051 1.53097,-12.1049 1.68207,-25.26244 0.43015,-37.45538 -0.25911,-2.52358 -0.63214,-5.45864 -0.70272,-5.52924 -0.11228,-0.11227 -13.43352,5.34544 -19.15619,7.8483 -8.85212,3.87154 -15.95388,7.32133 -20.79272,10.10035 -1.43931,0.82662 -10.66406,5.54792 -27.8423,14.24991 -29.02519,14.70331 -67.21631,33.57646 -67.44007,33.32729 -0.0547,-0.0609 -4.22533,-12.20123 -9.26807,-26.9785 l -9.16864,-26.86777 -0.0359,31.43614 -0.0359,31.43615 -1.42385,0.65542 -1.42384,0.65543 -0.005,-47.30769 -0.005,-47.3077 -0.31592,0.41641 c -2.32829,3.06885 -10.85732,15.67437 -14.65737,21.66295 -18.92879,29.83021 -35.49264,63.40117 -47.46344,96.19703 -0.52893,1.44908 -1.03451,2.71244 -1.12352,2.80746 -0.34688,0.37031 -14.24445,5.20245 -21.88025,7.6077 -10.08333,3.1762 -19.77064,5.66176 -27.41506,7.03409 -1.48824,0.26717 -4.43625,0.84315 -6.55113,1.27995 -3.79215,0.7832 -9.70576,1.87879 -13.4583,2.49336 -1.05743,0.17318 -1.94847,0.33872 -1.98007,0.36787 -0.15184,0.1401 3.90632,5.15972 7.24199,8.95778 21.93071,24.97073 51.093,42.76636 83.10714,50.71427 11.44346,2.841 22.92245,4.4158 34.60706,4.7479 2.03654,0.058 3.79894,0.1143 3.91643,0.1254 0.1175,0.011 2.37359,-0.041 5.01354,-0.1168 z M 120.90995,960.64047 c 8.38117,-7.18814 15.25879,-13.12217 15.28359,-13.18671 0.0248,-0.0645 -0.67254,-0.93768 -1.54964,-1.94031 -0.8771,-1.00263 -2.45931,-2.89642 -3.51603,-4.20843 -1.05672,-1.312 -1.94607,-2.38546 -1.97632,-2.38546 -0.0399,0 -31.28416,26.72136 -32.14909,27.49519 -0.13578,0.12148 1.54347,2.23432 4.89166,6.15472 l 2.16247,2.53204 0.80743,-0.69583 c 0.44409,-0.38272 7.66476,-6.57707 16.04593,-13.76521 z m -10.7685,-11.7399 c 8.76844,-7.51964 15.98413,-13.73925 16.03488,-13.82137 0.0507,-0.0821 -0.003,-0.18603 -0.12043,-0.23091 -0.11698,-0.0449 -2.12376,0.17709 -4.45952,0.49331 -14.31841,1.93841 -26.54002,3.002 -40.81281,3.55177 l -2.52859,0.0974 1.67818,2.84832 c 3.23409,5.48912 6.96498,11.22521 10.54982,16.21992 2.99999,4.17985 3.35471,4.63787 3.54191,4.57348 0.0957,-0.0329 7.34813,-6.21226 16.11656,-13.73191 z M 50.08931,923.24146 c 14.74738,-5.19443 32.05933,-13.20554 49.60067,-22.95274 26.22863,-14.57443 53.11037,-32.90762 80.10894,-54.63379 7.41773,-5.96916 8.54605,-6.95937 14.02796,-12.3107 38.20396,-37.29401 70.56173,-69.81892 88.01169,-88.46631 7.3537,-7.85832 14.77583,-16.34705 14.50351,-16.58771 -0.065,-0.0574 -1.04744,-0.24581 -2.18321,-0.41861 -39.32282,-5.98295 -82.09192,-16.4178 -118.85567,-28.99853 -21.55636,-7.37669 -43.90241,-16.49333 -59.19128,-24.1486 -1.91546,-0.95909 -2.24547,-1.08375 -2.31112,-0.87305 -0.0421,0.1352 -5.75244,21.65091 -12.68958,47.81271 -6.93715,26.1618 -14.17666,53.46292 -16.0878,60.66917 -3.16754,11.94365 -13.1104,49.4375 -28.64609,108.02244 -3.25072,12.25845 -6.57919,24.80861 -7.39659,27.88923 -1.4738,5.55448 -1.54856,5.86333 -1.41931,5.86333 0.0368,0 1.17432,-0.39007 2.52788,-0.86684 z M 150.81728,841.5322 c -2.89816,-6.04018 -5.30514,-10.98416 -5.34885,-10.98664 -0.0437,-0.002 -3.33992,4.4573 -7.32492,9.9106 -5.61682,7.6864 -7.26721,9.85523 -7.34227,9.64868 -0.0533,-0.14653 -1.17844,-5.0251 -2.5004,-10.84125 -1.32196,-5.81617 -2.44547,-10.55861 -2.49669,-10.53878 -0.0512,0.0198 -4.52689,3.74281 -9.94593,8.27328 -5.41904,4.53047 -9.8693,8.21548 -9.88948,8.18892 -0.0202,-0.0266 9.98125,-18.12089 22.22539,-40.20959 12.24413,-22.0887 22.45453,-40.52099 22.68978,-40.96063 l 0.4277,-0.79935 -0.88803,0.20482 c -0.48842,0.11267 -6.55052,1.54583 -13.47134,3.18482 -6.92081,1.63899 -12.63879,2.98 -12.70661,2.98 -0.15611,0 -21.94499,-15.40435 -21.88033,-15.469 0.0602,-0.0602 25.70279,-5.46076 26.10064,-5.497 0.17509,-0.016 4.81206,2.88654 11.53569,7.22075 6.18359,3.9861 11.33903,7.23918 11.45653,7.22909 0.11749,-0.0101 6.04555,-2.20921 13.17347,-4.88691 7.12791,-2.67772 13.06329,-4.89766 13.18973,-4.93322 0.28764,-0.0809 20.96268,10.51039 20.81176,10.66131 -0.11217,0.11217 -24.55095,10.77885 -24.97792,10.90201 -0.13205,0.0381 -4.97028,-2.44377 -11.13713,-5.713 -5.997,-3.17918 -10.94752,-5.78033 -11.00114,-5.78033 -0.0536,0 -0.0554,0.72098 -0.004,1.60218 0.39643,6.78947 4.64195,87.23763 4.61201,87.39276 -0.0211,0.10925 -2.40954,-4.74333 -5.30771,-10.78352 z m 0.72846,-79.07771 c -0.1377,-0.43307 -5.10796,-25.71527 -5.12127,-26.05031 -0.0104,-0.2617 2.2629,-3.36575 8.57869,-11.71371 4.72605,-6.24672 8.63732,-11.35767 8.6917,-11.35767 0.0544,0 1.52171,5.82882 3.26074,12.95293 l 3.16187,12.95293 -9.13783,11.5782 c -5.02581,6.36801 -9.19001,11.63699 -9.25378,11.70884 -0.0676,0.0761 -0.14273,0.0464 -0.18012,-0.0712 z m 322.41358,65.41628 c -0.0417,-0.84203 -0.13997,-2.94088 -0.2183,-4.66412 -0.0783,-1.72323 -0.18095,-3.53369 -0.22808,-4.02324 l -0.0857,-0.8901 -21.31789,0 -21.31789,0 0.17587,1.74459 c 0.2442,2.42227 0.62282,7.63967 0.62282,8.58229 l 0,0.78155 21.2225,0 21.22249,0 -0.0759,-1.53097 z M 62.37177,782.3333 c 6.08216,-22.95032 11.0888,-41.85603 11.12585,-42.01269 0.18353,-0.77594 -2.9314,5.71588 -4.88485,10.18052 -9.64807,22.05083 -15.65636,46.53555 -17.12473,69.786 -0.0816,1.29242 -0.18247,2.69905 -0.2241,3.12586 -0.0416,0.42679 -0.0476,0.74722 -0.0132,0.71208 0.0344,-0.0352 5.03884,-18.84145 11.121,-41.79177 z m 410.51903,30.61547 c 0,-1.67121 -2.25846,-16.89826 -2.55088,-17.19857 -0.1442,-0.14809 -8.68021,2.81206 -20.16445,6.99272 -9.35171,3.40433 -19.85023,7.3671 -20.06018,7.57188 -0.0676,0.0659 -0.0397,0.79167 0.0624,1.62766 l 0.18438,1.50871 21.26435,0 21.26434,0 0,-0.5024 z m -15.09608,-59.2244 c 0,-0.03 -0.6009,-1.42391 -1.33534,-3.09755 -9.40017,-21.42141 -21.7345,-40.41517 -37.65914,-57.99172 -2.88116,-3.18004 -10.67289,-10.97215 -13.81581,-13.81651 -20.5441,-18.59248 -43.26929,-32.48937 -68.72053,-42.02394 -33.73306,-12.6371 -70.76436,-16.3397 -106.83305,-10.68177 -29.81992,4.67771 -58.63312,15.9272 -83.80451,32.71964 -6.71208,4.4778 -9.9395,6.88728 -18.83592,14.06229 -0.25815,0.2082 -0.0591,0.31873 3.2598,1.81024 12.18762,5.47705 25.90982,10.97738 39.32472,15.76268 l 3.46158,1.2348 3.08955,-1.85073 c 22.40856,-13.42331 47.53182,-21.44123 73.44301,-23.43882 3.78218,-0.29158 8.35888,-0.50419 10.85921,-0.50445 l 2.02942,-2.9e-4 0.033,-3.596 0.0331,-3.596 0.0406,3.596 0.0406,3.596 2.31183,2.9e-4 c 4.28708,4.3e-4 11.31176,0.42793 16.55339,1.00747 43.99977,4.86481 84.19832,26.81999 112.49965,61.44377 1.94832,2.38357 5.46944,7.02935 7.50021,9.89581 l 1.05941,1.49537 6.51484,1.44567 c 11.53869,2.56049 22.00516,5.10316 31.86047,7.74004 4.6386,1.2411 16.6765,4.66621 16.78652,4.77623 0.0796,0.0796 0.30339,0.0881 0.30339,0.0115 z m -46.14275,-16.54362 c -1.94523,-0.41542 -4.14137,-1.83735 -5.95491,-3.85559 -0.48424,-0.53891 -3.62946,-4.53667 -6.98937,-8.88392 l -6.10894,-7.90408 0.35225,-0.32346 0.35224,-0.32345 0.42672,0.35906 c 0.23468,0.19748 0.58632,0.35906 0.78139,0.35906 0.25018,0 3.19474,-2.18775 9.99379,-7.42517 5.30151,-4.08385 9.81535,-7.58859 10.03075,-7.78831 0.45019,-0.41742 0.48544,-0.71227 0.16035,-1.34094 -0.2227,-0.43066 -0.21925,-0.45703 0.0928,-0.70969 0.17823,-0.14432 0.37346,-0.24428 0.43383,-0.22212 0.20445,0.075 10.4451,13.4165 11.49004,14.96915 1.17325,1.74333 2.12981,3.64938 2.62118,5.22298 0.275,0.88069 0.33352,1.38049 0.33352,2.84832 0,1.71053 -0.018,1.81818 -0.4597,2.75077 -0.56085,1.1841 -1.61677,2.25777 -2.88495,2.93343 -1.68168,0.89597 -3.64575,0.73294 -5.97422,-0.49589 -0.50398,-0.26597 -0.94037,-0.45956 -0.96974,-0.43019 -0.0294,0.0294 0.0487,0.40473 0.17356,0.83413 0.61534,2.11666 0.52543,4.39944 -0.22899,5.81488 -0.58776,1.10278 -2.16878,2.59778 -3.31393,3.13367 -1.49227,0.69831 -2.70233,0.83087 -4.35764,0.47736 z m 2.07943,-6.45988 c 1.19652,-0.54339 2.05063,-1.85845 2.05063,-3.15733 0,-0.70922 -0.55714,-2.20171 -1.18776,-3.18185 -0.79756,-1.23956 -7.10405,-9.46551 -7.26417,-9.47509 -0.0663,-0.004 -1.45973,1.0256 -3.09644,2.28794 l -2.97583,2.29516 0.40556,0.51755 c 0.22305,0.28466 1.73601,2.24791 3.36211,4.36278 3.08829,4.01655 4.01469,5.08343 5.02609,5.78822 1.2198,0.85002 2.58675,1.05902 3.67981,0.56262 z m 9.02901,-7.86126 c 2.04693,-1.22711 2.23634,-2.7069 0.67767,-5.29436 -0.56401,-0.93628 -7.10457,-9.48892 -7.26251,-9.49668 -0.1076,-0.005 -4.40052,3.25887 -4.8376,3.6783 -0.22719,0.21802 -0.0282,0.51188 3.0995,4.57667 3.3253,4.32162 4.81945,5.98921 5.85661,6.53648 0.73777,0.38928 1.81659,0.38911 2.46633,-4.3e-4 z m -34.01444,-12.82545 c -1.16641,-0.13547 -2.11651,-0.44908 -3.44094,-1.13579 -3.70962,-1.92343 -10.01,-7.7078 -11.79178,-10.82602 -1.47795,-2.5865 -1.57054,-5.46056 -0.25968,-8.06007 0.73034,-1.44829 1.4105,-2.29853 5.73508,-7.16917 7.51243,-8.46102 7.31329,-8.22634 7.31329,-8.61869 0,-0.20243 -0.13677,-0.56015 -0.30395,-0.79492 l -0.30396,-0.42687 0.33956,-0.33216 0.33956,-0.33216 3.30889,2.94353 3.30889,2.94354 -0.33594,0.33593 c -0.2775,0.2775 -0.38696,0.30864 -0.62922,0.17898 -0.77705,-0.41586 -0.70905,-0.47963 -6.7046,6.28736 -3.14031,3.54437 -5.88162,6.69748 -6.09178,7.00691 -1.72015,2.53256 -1.01372,5.03064 2.35799,8.3384 1.70233,1.67004 3.16061,2.73882 4.81443,3.52851 1.0284,0.49106 1.20562,0.53026 2.39241,0.52932 1.47147,-10e-4 2.05652,-0.23303 3.16735,-1.25524 0.81105,-0.74636 11.4683,-12.73778 11.69194,-13.15566 0.19539,-0.36509 0.0985,-0.69834 -0.34373,-1.18262 l -0.32514,-0.35604 0.34231,-0.39528 0.34233,-0.39528 3.21019,2.85733 c 2.81331,2.50406 3.19223,2.89089 3.06488,3.12885 -0.22962,0.42906 -0.40844,0.47184 -0.93258,0.22312 -0.37278,-0.1769 -0.55819,-0.19567 -0.77685,-0.0786 -0.15799,0.0846 -2.7756,2.9551 -5.81695,6.37901 -3.04137,3.42391 -6.01168,6.6739 -6.60069,7.2222 -2.26059,2.10428 -4.45655,2.9153 -7.07131,2.61162 z m -21.49514,-15.04364 c -0.25463,-0.19581 -0.30534,-0.33913 -0.23842,-0.67373 0.0661,-0.33031 0.0113,-0.49309 -0.24624,-0.73054 -0.18219,-0.16804 -5.298,-3.36402 -11.36847,-7.10217 -6.07048,-3.73816 -11.11599,-6.85955 -11.21226,-6.93641 -0.11825,-0.0944 -0.13135,-0.21574 -0.0404,-0.37403 0.34654,-0.6029 0.35993,-0.60932 0.79612,-0.38186 0.5064,0.26408 0.92741,0.27805 1.22858,0.0408 0.23781,-0.18736 13.02066,-20.88529 13.21619,-21.39961 0.13503,-0.35512 -0.0414,-0.74071 -0.52794,-1.15395 -0.34303,-0.29135 -0.3471,-0.31539 -0.12576,-0.74341 l 0.22874,-0.44232 1.3871,0.8581 c 0.76292,0.47195 2.55138,1.57465 3.97438,2.45043 l 2.58727,1.59234 -0.23691,0.40103 c -0.1792,0.30339 -0.30636,0.37827 -0.52222,0.30755 -0.88625,-0.29038 -1.16643,-0.24594 -1.53264,0.24311 -0.29679,0.39635 -3.83785,6.11396 -10.18541,16.44602 l -1.14913,1.87047 6.43333,3.96772 c 9.46754,5.83906 9.31323,5.74965 9.92358,5.74965 0.3086,0 0.6766,-0.11517 0.8805,-0.27556 0.33592,-0.26422 0.36592,-0.26532 0.72985,-0.0266 l 0.37956,0.24897 -1.92025,3.12382 c -1.05615,1.71809 -1.96875,3.13845 -2.02801,3.15635 -0.0593,0.0179 -0.25327,-0.0794 -0.43116,-0.21618 z M 168.4108,687.14073 c -0.14978,-0.36161 -0.14321,-0.46441 0.0415,-0.64914 0.52784,-0.52784 0.46922,-0.66418 -2.19406,-5.1032 l -2.59225,-4.32065 -8.26529,-3.60655 c -4.5459,-1.98361 -8.48581,-3.65629 -8.75535,-3.71708 -0.46489,-0.10485 -1.55679,0.007 -2.02642,0.20733 -0.1463,0.0625 -0.29833,-0.0454 -0.46727,-0.33133 -0.24538,-0.4154 -0.24388,-0.42805 0.0745,-0.63171 1.37287,-0.8783 9.11378,-5.50116 9.2116,-5.50116 0.0681,0 0.23009,0.16209 0.35989,0.36019 0.22933,0.35001 0.22376,0.37049 -0.19725,0.72474 -0.85082,0.71593 -0.51483,1.15482 1.703,2.22456 2.11889,1.02202 8.87475,4.0995 8.91023,4.05885 0.0505,-0.0578 0.9143,-10.51678 0.95202,-11.52683 0.0445,-1.19031 -0.0929,-1.3723 -0.84988,-1.12555 -0.29625,0.0966 -0.60455,0.20407 -0.68513,0.2389 -0.0806,0.0348 -0.2549,-0.12017 -0.38739,-0.34444 l -0.24085,-0.40775 4.01897,-2.43795 4.01898,-2.43795 0.31306,0.38075 0.31306,0.38075 -0.54631,0.50537 c -0.32405,0.29976 -0.6126,0.73714 -0.70925,1.07504 -0.0896,0.31331 -0.45198,4.659 -0.80527,9.65709 l -0.64235,9.08744 2.61001,4.29966 2.61,4.29965 0.72281,-0.0292 c 0.65395,-0.0265 0.73896,0.006 0.89203,0.3421 0.093,0.20424 0.11806,0.41592 0.0556,0.47039 -0.1913,0.16673 -6.79172,4.10666 -7.03606,4.19997 -0.16224,0.062 -0.28069,-0.0377 -0.40684,-0.34225 z m 11.84974,-7.72731 c -0.1504,-0.39846 -0.13778,-0.47456 0.10711,-0.64609 0.31923,-0.2236 0.52005,-0.88721 0.6375,-2.10662 0.10547,-1.09513 1.24524,-23.57019 1.26851,-25.0138 0.0213,-1.31961 -0.21036,-1.68917 -1.05873,-1.68917 -0.47098,0 -0.55209,-0.0529 -0.69065,-0.45035 -0.0863,-0.24768 -0.14068,-0.46427 -0.12074,-0.48131 0.0199,-0.017 1.86273,-0.78281 4.0951,-1.70172 2.23237,-0.91891 4.10811,-1.70019 4.16831,-1.73618 0.0602,-0.036 0.19974,0.14738 0.31009,0.40747 0.1884,0.44411 0.17957,0.49505 -0.14507,0.83673 -0.44417,0.46749 -0.43898,0.9988 0.015,1.53835 0.50264,0.59734 20.03443,17.3533 20.52845,17.61097 0.22112,0.11533 0.66662,0.21009 0.99002,0.21057 0.52107,7.1e-4 0.6085,0.0504 0.76824,0.43605 0.10518,0.25395 0.12722,0.48467 0.0529,0.55403 -0.1306,0.12187 -8.428,3.5681 -8.59083,3.5681 -0.0496,0 -0.16145,-0.18861 -0.24847,-0.41914 -0.13418,-0.35549 -0.11729,-0.45616 0.1112,-0.66294 0.37276,-0.33734 0.33097,-0.76186 -0.12608,-1.28115 -0.31122,-0.3536 -1.81231,-1.67128 -3.74957,-3.29145 -0.19695,-0.16471 -1.06101,0.15237 -6.23958,2.28965 -3.30604,1.36447 -6.03731,2.50718 -6.0695,2.53936 -0.0322,0.0322 -0.13708,1.25537 -0.23312,2.71819 -0.20913,3.18555 -0.15981,3.44361 0.66086,3.45752 0.47812,0.008 0.57541,0.0652 0.68838,0.4041 0.0735,0.22065 0.0774,0.44339 0.009,0.50516 -0.12364,0.11122 -6.75096,2.85769 -6.89198,2.85615 -0.0416,-4.3e-4 -0.1523,-0.20407 -0.24607,-0.45248 z m 10.36198,-15.70834 c 2.23237,-0.9178 4.11065,-1.71772 4.17396,-1.77758 0.11021,-0.10424 -7.60534,-7.57408 -7.71761,-7.47182 -0.043,0.0391 -0.84412,10.09063 -0.86581,10.8626 -0.003,0.10629 0.0747,0.16227 0.17259,0.1244 0.0979,-0.0379 2.0045,-0.81979 4.23687,-1.7376 z m 145.97628,11.72783 c -2.63385,-0.30264 -4.97893,-0.98416 -7.3528,-2.13685 -5.44305,-2.643 -9.02965,-6.73548 -9.95912,-11.3638 -0.35326,-1.75913 -0.22762,-4.48015 0.28654,-6.2059 2.38181,-7.99424 9.40488,-11.81809 18.1858,-9.90163 4.66777,1.01876 9.57827,3.76703 13.68308,7.65805 l 1.10037,1.04305 0.44384,-0.22952 c 0.2441,-0.12623 0.46124,-0.20877 0.48252,-0.18341 0.11724,0.13974 0.36209,0.68869 0.36209,0.81181 0,0.079 -1.42028,1.13867 -3.1562,2.35492 -2.83234,1.98445 -3.17435,2.18653 -3.33312,1.96941 -0.11442,-0.15648 -0.14979,-0.5047 -0.10013,-0.98579 0.0681,-0.66023 0.0266,-0.82197 -0.36931,-1.439 -1.26554,-1.97217 -5.1226,-4.81247 -7.77399,-5.72468 -2.26205,-0.77826 -5.09262,-0.95285 -7.09967,-0.43792 -3.29195,0.84459 -5.70762,3.30208 -6.66066,6.77597 -0.25754,0.93869 -0.2971,1.37615 -0.2376,2.62664 0.12286,2.5816 0.91427,4.35125 2.81099,6.28558 2.78732,2.84259 6.949,4.39723 11.77791,4.39977 2.90266,0.002 4.4575,-0.59103 4.4575,-1.69878 0,-0.23094 0.0905,-0.2942 0.4208,-0.2942 0.48822,0 0.38196,-0.38214 1.05878,3.80776 0.45047,2.78869 0.45677,2.88484 0.19456,2.96806 -0.14903,0.0473 -0.45771,0.009 -0.68594,-0.0859 -0.3194,-0.1323 -0.82594,-0.13528 -2.19963,-0.0129 -2.0277,0.1806 -4.76126,0.18028 -6.33661,-7.1e-4 z M 216.96946,665.04726 c -2.18773,-0.27117 -4.9837,-1.29372 -6.65928,-2.43546 -0.98012,-0.66785 -2.53623,-2.19786 -3.23771,-3.18341 -2.29576,-3.22544 -3.23061,-8.25681 -2.20951,-11.89172 1.10559,-3.93575 3.99102,-7.24307 8.19466,-9.39283 2.19174,-1.12087 4.55311,-1.86365 7.54956,-2.37475 1.9397,-0.33085 7.10315,-0.33141 9.07136,-10e-4 1.85179,0.31089 1.93502,0.3047 2.13406,-0.15878 0.0925,-0.21541 0.18131,-0.41239 0.19735,-0.43775 0.0554,-0.0877 0.91009,0.40993 0.91009,0.52995 0,0.14428 -2.527,7.14639 -2.60847,7.22786 -0.15475,0.15476 -0.56719,-0.18713 -0.81741,-0.6776 -0.15433,-0.30251 -0.44326,-0.6566 -0.64207,-0.78686 -0.61651,-0.40395 -2.19106,-0.76358 -4.09446,-0.93516 -6.55462,-0.59087 -12.05948,2.2312 -13.87867,7.1149 -0.52252,1.40276 -0.60606,3.6695 -0.19512,5.29454 0.54934,2.1724 1.55877,3.80211 3.10778,5.0175 3.52537,2.76609 8.53373,2.94205 13.67186,0.48035 2.12384,-1.01755 3.47584,-1.91157 4.61354,-3.05078 1.11045,-1.11191 1.40726,-1.77779 1.08255,-2.42868 -0.18896,-0.37877 -0.18545,-0.44118 0.036,-0.64161 0.13494,-0.12211 0.30853,-0.22202 0.38576,-0.22202 0.0772,0 1.18198,1.05366 2.45496,2.34147 2.0123,2.03571 2.29536,2.37731 2.16767,2.61588 -0.0808,0.15092 -0.32943,0.31092 -0.55258,0.35555 -0.22316,0.0446 -1.17072,0.70287 -2.10569,1.46275 -4.46172,3.62615 -7.7334,5.2181 -12.30995,5.98985 -1.54008,0.25971 -4.87885,0.35976 -6.2663,0.18779 z m 68.64446,-3.41269 c -2.15404,-0.29865 -3.91959,-0.54872 -3.92345,-0.5557 -0.004,-0.007 0.0192,-0.237 0.0512,-0.51115 0.0482,-0.41292 0.11605,-0.49846 0.39537,-0.49846 0.19356,0 0.42507,-0.13647 0.54355,-0.32043 0.13422,-0.20841 0.70172,-4.07955 1.62324,-11.07284 0.77927,-5.91382 1.40886,-10.76134 1.39908,-10.77227 -0.01,-0.0109 -2.08446,-0.29112 -4.61042,-0.62266 -5.0625,-0.66446 -5.25754,-0.65877 -5.59801,0.16319 -0.15593,0.37647 -0.22245,0.41172 -0.61749,0.32719 -0.24348,-0.0521 -0.45409,-0.10398 -0.468,-0.11527 -0.014,-0.0113 0.19273,-1.65404 0.45922,-3.65057 0.26649,-1.99653 0.48615,-3.67811 0.48814,-3.73686 0.004,-0.12852 0.4621,-0.14054 0.77527,-0.0204 0.1239,0.0476 0.22527,0.23523 0.22527,0.41708 0,0.33757 0.25886,0.67808 0.6915,0.90962 0.13312,0.0712 5.73555,0.85232 12.44983,1.73571 9.10795,1.19834 12.30735,1.57196 12.59989,1.47142 0.22285,-0.0766 0.48431,-0.32917 0.60572,-0.58513 0.18684,-0.39387 0.26722,-0.44039 0.64087,-0.37089 0.23499,0.0437 0.44525,0.0936 0.46726,0.11089 0.0434,0.0341 -0.77881,6.44184 -0.90897,7.08407 -0.065,0.32087 -0.15534,0.39164 -0.49977,0.39164 -0.42337,0 -0.46286,-0.0472 -0.61165,-0.73072 -0.0525,-0.24095 -0.24732,-0.45185 -0.54596,-0.59087 -0.44376,-0.20658 -9.21284,-1.4419 -9.33912,-1.31562 -0.096,0.096 -2.88307,21.33216 -2.84104,21.64749 0.0207,0.15543 0.24349,0.41177 0.49503,0.56966 0.35918,0.22545 0.45854,0.38644 0.46286,0.74993 0.004,0.3531 -0.0536,0.45954 -0.24375,0.44889 -0.13707,-0.008 -2.01162,-0.25832 -4.16566,-0.55697 z M 240.4428,660.4784 c -0.0394,-0.41233 0.0146,-0.51066 0.38132,-0.69446 0.36494,-0.18288 0.4342,-0.30751 0.47489,-0.85449 0.0824,-1.1083 -0.84411,-24.69234 -0.98363,-25.03665 -0.0731,-0.18038 -0.32499,-0.39494 -0.55976,-0.47678 -0.36141,-0.12599 -0.42686,-0.22311 -0.42686,-0.63333 l 0,-0.48452 0.81889,-10e-4 c 0.45039,-8.5e-4 2.25539,-0.0676 4.01113,-0.14843 3.41429,-0.1572 3.42309,-0.15583 3.42792,0.53194 0.001,0.17975 -0.11003,0.34645 -0.26387,0.39528 -0.14633,0.0464 -0.3702,0.19951 -0.49747,0.34015 -0.21173,0.23397 -0.21566,0.6573 -0.0463,4.97715 0.10181,2.59679 0.21353,4.74728 0.24823,4.77887 0.076,0.0691 17.10395,-0.59421 17.17895,-0.66921 0.0288,-0.0288 -0.0259,-2.15983 -0.12156,-4.73556 -0.1693,-4.55764 -0.18257,-4.69177 -0.49555,-5.00473 -0.17686,-0.17687 -0.45265,-0.32158 -0.61287,-0.32158 -0.23573,0 -0.29131,-0.0914 -0.29131,-0.47894 l 0,-0.47894 1.31735,-0.0875 c 0.72454,-0.0481 2.58306,-0.13004 4.13006,-0.18209 2.49361,-0.0839 2.81271,-0.0694 2.81271,0.1275 0,0.12218 0.0372,0.31918 0.0828,0.43779 0.055,0.14323 -0.0639,0.29148 -0.35399,0.44148 -0.2402,0.12422 -0.47091,0.36887 -0.51268,0.54369 -0.0418,0.17481 0.14639,5.95751 0.41816,12.85044 0.48809,12.37948 0.49788,12.53564 0.80176,12.78183 0.16919,0.13707 0.39665,0.24922 0.50547,0.24922 0.12989,0 0.19785,0.16559 0.19785,0.48205 0,0.47589 -0.01,0.48312 -0.74769,0.5662 -0.41122,0.0463 -2.30655,0.12704 -4.21183,0.17947 l -3.46414,0.0953 0.0462,-0.4835 c 0.0351,-0.36785 0.11926,-0.49393 0.35174,-0.52707 0.16805,-0.024 0.41725,-0.16698 0.55377,-0.31782 0.23372,-0.25825 0.23736,-0.58211 0.0626,-5.54627 l -0.18558,-5.27199 -0.58183,0.009 c -2.19151,0.034 -16.60186,0.65383 -16.66479,0.71677 -0.0994,0.0994 0.30978,10.26488 0.42535,10.56607 0.0473,0.12315 0.27306,0.28914 0.50176,0.36886 0.34989,0.12198 0.41583,0.22199 0.41583,0.63074 l 0,0.48578 -2.95513,0.0944 c -1.62532,0.0519 -3.44716,0.13289 -4.04853,0.17999 l -1.0934,0.0856 -0.0459,-0.48034 z m 70.62796,-2.64355 c -0.16263,-0.0425 -0.24923,-0.2039 -0.24923,-0.46449 0,-0.21966 -0.0839,-0.469 -0.18644,-0.5541 -0.22101,-0.18342 -8.99164,-2.30122 -9.53024,-2.30122 -0.2306,0 -0.46995,0.13428 -0.6322,0.35466 -0.22349,0.30357 -0.32264,0.33714 -0.68835,0.23308 -0.23499,-0.0669 -0.41936,-0.17839 -0.40972,-0.24784 0.068,-0.48992 1.40416,-5.98757 1.47621,-6.07392 0.16798,-0.20126 0.99039,0.0557 0.97131,0.30348 -0.0424,0.55069 0.0524,0.71691 0.49008,0.85901 0.97768,0.31743 8.85975,2.15046 9.24702,2.15046 0.29957,0 0.45196,-0.097 0.57431,-0.36554 0.12394,-0.27202 0.24158,-0.34539 0.4598,-0.28677 0.16129,0.0433 0.37336,0.0796 0.47127,0.0807 0.26536,0.003 0.23958,0.16403 -0.54615,3.41471 -0.75817,3.13662 -0.73225,3.08473 -1.44767,2.89777 z m 82.53708,79.93492 c -0.25264,-0.44581 -3.84552,-5.00849 -5.56754,-7.07032 -20.63016,-24.70113 -47.6918,-42.66581 -78.21568,-51.92293 -21.73658,-6.59216 -44.99308,-8.53184 -67.86117,-5.65988 -18.50835,2.32442 -36.8915,8.01208 -53.54837,16.5676 -2.9596,1.52015 -7.28796,3.8903 -7.9497,4.35314 -0.22523,0.15754 0.16718,0.32248 2.99073,1.25707 29.32235,9.70565 60.75282,17.68202 92.68585,23.52164 5.98167,1.09387 16.47325,2.84335 21.29247,3.55054 1.91906,0.28161 7.23829,1.05887 11.82052,1.72724 4.58223,0.66838 9.10038,1.33413 10.04032,1.47945 0.93995,0.14532 2.12556,0.30614 2.6347,0.35739 1.52933,0.15395 14.31459,1.98827 20.86392,2.99339 15.51879,2.38165 33.46876,5.53216 46.28516,8.1238 2.42819,0.49101 4.46615,0.89952 4.52879,0.9078 0.0626,0.008 0.0626,-0.0754 0,-0.18593 z M 130.81099,628.53269 c 3.05171,-0.40633 5.38708,-1.23788 6.58963,-2.34635 0.80884,-0.74556 1.00503,-1.22159 0.93015,-2.25683 -0.21895,-3.02692 -4.77034,-7.07539 -11.25831,-10.0143 -2.03314,-0.92096 -6.52069,-2.42033 -8.65479,-2.8917 -3.76584,-0.83178 -6.12859,-1.10755 -9.47065,-1.10536 -6.67968,0.004 -11.12199,1.85325 -11.08038,4.61163 0.0212,1.40581 1.41654,3.52681 3.54562,5.38951 1.17656,1.02937 3.65443,2.70337 5.32731,3.59902 4.64354,2.48615 11.30517,4.48479 16.87628,5.06327 1.84462,0.19154 5.58004,0.16615 7.19514,-0.0489 z"
         id="path4159"
         inkscape:connector-curvature="0" />
      <g
         transform="translate(454.28657,114.12622)"
         id="g4149">
        <path
           sodipodi:nodetypes="csssssccccccccccssssccscsccccsssccccccccc"
           inkscape:connector-curvature="0"
           id="path4163"
           d="m -343.39755,511.22914 c -6.03039,-2.48564 -8.37244,-4.80118 -11.12543,-7.86427 -0.63674,-0.70846 -1.9599,-3.15086 -0.53411,-4.97585 1.2932,-1.65529 5.23942,-2.37474 10.02995,-2.64708 5.83075,-0.33148 17.96479,2.13152 25.16181,8.0711 4.54153,3.74806 4.56961,4.96297 4.53777,6.41467 -0.019,0.86438 -0.60816,3.10864 -7.12148,4.10479 -8.31773,0.74331 -9.35134,-0.0586 -11.26628,-0.38331 -3.27514,-0.66806 -6.47163,-1.72932 -9.68223,-2.72005 z m 7.97479,8.42488 -101.51834,382.4243 -9.75812,-2.46 101.76242,-382.69248 c 3.34592,1.12428 6.50229,2.13857 9.51404,2.72818 z m 305.978725,178.464 c 4.0121,32.90656 -0.19317,74.44523 -25.10667,112.43734 -11.82403,17.48988 -27.09712,33.28646 -44.514845,45.26159 -18.885,12.98393 -38.62224,21.30426 -60.9897,25.79917 -22.81061,4.584 -45.3571,3.2487 -68.07978,-1.7626 -23.45501,-5.17285 -38.70398,-13.29656 -58.7669,-26.54685 -6.48183,-4.28084 -27.97896,-22.72766 -34.62838,-34.0119 37.3804,-6.05287 46.33811,-9.65025 71.97022,-18.22509 -3.83843,10.61855 -7.22122,21.11292 -10.03367,31.17358 -1.81181,6.48119 -3.91686,14.96002 -3.77224,15.19401 0.0393,0.0636 17.46738,0.1157 38.729,0.1157 l 38.65751,0 -0.6183,-73.16411 2.83723,-1.37723 0.62901,74.47013 2.17205,-0.0388 c 1.19462,-0.0213 11.6836,-0.19754 23.30885,-0.39156 11.62523,-0.19401 21.15324,-0.36918 21.17334,-0.38928 0.0201,-0.0201 -19.98239,-59.32986 -28.00805,-82.82801 22.30859,-10.39058 49.46308,-24.01177 74.684485,-36.34422 20.11894,-12.94561 40.23788,-22.93544 60.35682,-29.37186 z m 7.1237,17.23989 -0.71369,-11.38948 43.16624,-0.0668 0.40437,11.50894 z"
           style="fill:#fbc432;stroke:#ff0000;stroke-width:0.14241588" />
        <path
           style="fill:#ffcc00;stroke:#00ff00;stroke-width:0.10092464;stroke-miterlimit:4;stroke-dasharray:none"
           d="m -357.55955,852.46515 32.3234,-27.45183 7.38913,8.27764 -32.1453,28.27973 z"
           id="rect4444"
           inkscape:connector-curvature="0"
           sodipodi:nodetypes="ccccc" />
      </g>
    </g>
    <path
       sodipodi:nodetypes="cccssscc"
       inkscape:connector-curvature="0"
       id="rect4146"
       d="m 367.59252,1176.2486 -212.50276,0 -8.85473,-98.8684 C 54.971446,1035.357 -4.2292544,942.54476 -4.2292544,835.46085 -4.2292444,688.79012 114.67086,569.88999 261.34159,569.88999 c 146.67076,-10e-6 264.90796,119.56303 264.90797,266.23377 0,106.89306 -58.6853,199.03594 -149.80231,241.20964 z"
       style="opacity:1;fill:none;fill-opacity:1;stroke:#ff0000;stroke-width:0.7086615;stroke-miterlimit:4.5999999;stroke-dasharray:none;stroke-opacity:1" />
  </g>
  <style
     id="style3337"
     type="text/css">
	.st0{fill:#40403F;}
	.st1{fill:#FFFFFF;stroke:#000000;stroke-width:0.25;stroke-miterlimit:10;}
</style>
</svg>
