<?xml version="1.0" encoding="UTF-8" standalone="no"?>
<svg
   xmlns:dc="http://purl.org/dc/elements/1.1/"
   xmlns:cc="http://creativecommons.org/ns#"
   xmlns:rdf="http://www.w3.org/1999/02/22-rdf-syntax-ns#"
   xmlns:svg="http://www.w3.org/2000/svg"
   xmlns="http://www.w3.org/2000/svg"
   xmlns:sodipodi="http://sodipodi.sourceforge.net/DTD/sodipodi-0.dtd"
   xmlns:inkscape="http://www.inkscape.org/namespaces/inkscape"
   width="339mm"
   height="248.59117mm"
   id="svg21174"
   version="1.1"
   inkscape:version="0.91 r13725"
   sodipodi:docname="sapin_3mm-2.svg">
  <metadata
     id="metadata21447">
    <rdf:RDF>
      <cc:Work
         rdf:about="">
        <dc:format>image/svg+xml</dc:format>
        <dc:type
           rdf:resource="http://purl.org/dc/dcmitype/StillImage" />
        <dc:title></dc:title>
      </cc:Work>
    </rdf:RDF>
  </metadata>
  <sodipodi:namedview
     pagecolor="#ffffff"
     bordercolor="#666666"
     borderopacity="1"
     objecttolerance="10"
     gridtolerance="10"
     guidetolerance="10"
     inkscape:pageopacity="0"
     inkscape:pageshadow="2"
     inkscape:window-width="1615"
     inkscape:window-height="1026"
     id="namedview21445"
     showgrid="false"
     fit-margin-top="0"
     fit-margin-left="0"
     fit-margin-right="0"
     fit-margin-bottom="0"
     units="mm"
     showguides="true"
     inkscape:guide-bbox="true"
     inkscape:zoom="0.5"
     inkscape:cx="267.90817"
     inkscape:cy="72.934259"
     inkscape:window-x="65"
     inkscape:window-y="24"
     inkscape:window-maximized="1"
     inkscape:current-layer="g21195" />
  <desc
     id="desc21176">C:\Users\professeur Michel\Documents\02 DECOUPE LASER\tree.dxf - scale = 3.993690, origin = (-29.003790, -19.136800), auto = True</desc>
  <defs
     id="defs21178">
    <marker
       refY="0"
       refX="0"
       style="overflow:visible"
       id="DistanceX"
       orient="auto">
      <path
         style="stroke:#000000;stroke-width:0.5"
         d="M 3,-3 -3,3 M 0,-5 0,5"
         id="path21181"
         inkscape:connector-curvature="0" />
    </marker>
    <pattern
       height="8"
       width="8"
       patternUnits="userSpaceOnUse"
       y="0"
       x="0"
       id="Hatch">
      <path
         linecap="square"
         stroke="#000000"
         stroke-width="0.25"
         d="M8 4 l-4,4"
         id="path21184" />
      <path
         linecap="square"
         stroke="#000000"
         stroke-width="0.25"
         d="M6 2 l-4,4"
         id="path21186" />
      <path
         linecap="square"
         stroke="#000000"
         stroke-width="0.25"
         d="M4 0 l-4,4"
         id="path21188" />
    </pattern>
    <symbol
       id="*Model_Space" />
    <symbol
       id="*Paper_Space" />
    <symbol
       id="*Paper_Space0" />
  </defs>
  <g
     inkscape:label="0"
     inkscape:groupmode="layer"
     id="g21193"
     transform="translate(0.294575,-172.03465)" />
  <g
     inkscape:label="layer 1"
     inkscape:groupmode="layer"
     id="g21195"
     transform="translate(0.294575,-172.03465)">
    <path
       style="fill:none;stroke:#ff0000;stroke-width:0.80650431;stroke-opacity:1"
       d="m 489.22346,579.02251 c -0.44671,-1.43185 1.16272,-4.83216 2.50441,-8.14253 0,0 1.34305,-3.31175 2.41675,-6.53198 0.44693,-3.48932 0.44693,-3.48932 0.89499,-6.98002 -0.17894,-3.75845 -0.26911,-5.63698 -0.26911,-5.63698 -0.089,-1.87991 -0.089,-1.87991 3.40055,-0.62703 0,0 3.49047,1.25289 10.46911,3.75846 6.44318,1.96869 6.44318,1.96869 12.88614,3.93739 5.90495,1.43185 8.85741,2.14765 8.85741,2.14765 2.95363,0.71603 2.95363,0.71603 2.95363,0.71603 0,0 0,0 0,0 -1.78974,0.89476 -1.78974,0.89476 -3.57949,1.78952 -3.57836,1.78975 -7.6947,3.84861 -7.6947,3.84861 -4.11635,2.05771 -8.76841,4.38295 -13.42161,6.44179 0,0 -4.65342,2.05772 -9.30663,3.84724 -3.57949,1.16411 -3.57949,1.16411 -7.15898,2.32683 z"
       id="path21197"
       inkscape:connector-curvature="0" />
    <path
       style="fill:none;stroke:#ff0000;stroke-width:0.80650431;stroke-opacity:1"
       d="m 504.09538,972.45605 c 0.09,1.43187 -1.87875,3.40054 -4.3843,5.01129 0,0 -2.50557,1.61092 -5.5482,2.86358 -3.40053,0.8949 -3.40053,0.8949 -6.80085,1.78963 -3.75729,0.53584 -7.42695,-10e-4 -7.42695,-10e-4 -3.66827,-0.53681 -7.24639,-2.14643 -10.37919,-4.38432 0,0 -3.13143,-2.23643 -5.81593,-5.10001 -1.87992,-2.95374 -1.87992,-2.95374 -3.75846,-5.90614 -1.0737,-3.04126 -1.43183,-6.44181 -1.43183,-6.44181 -0.35791,-3.40054 0,-7.15898 0.89499,-10.55929 0,0 0.89475,-3.40054 2.32659,-6.4418 1.52065,-3.2216 1.52065,-3.2216 3.04265,-6.44318 1.61056,-3.40032 3.84722,-5.9061 3.84722,-5.9061 2.23782,-2.50555 5.10014,-4.11635 7.60569,-5.81707 0,0 2.50577,-1.69981 4.65341,-3.48818 2.14766,-1.25289 2.14766,-1.25289 4.2953,-2.50579 2.14766,-0.71581 3.2216,-1.0737 3.2216,-1.0737 1.0737,-0.35791 1.0737,-0.35791 -1.16411,-1.07394 0,0 -2.23644,-0.71581 -6.71091,-2.14766 -4.56441,-0.71581 -4.56441,-0.71581 -9.12745,-1.43161 -4.65206,0 -8.85858,0.26774 -8.85858,0.26774 -4.20535,0.26912 -7.96379,0.80598 -11.81217,1.6108 0,0 -3.84746,0.80596 -7.78349,1.87967 -3.22158,1.78975 -3.22158,1.78975 -6.44317,3.5795 -2.50556,2.50442 -5.10126,5.726 -5.10126,5.726 -2.59458,3.22158 -5.27795,7.15898 -7.15762,11.54306 0,0 -1.87876,4.38546 -2.95248,9.21647 -0.44806,5.01135 -0.44806,5.01135 -0.89498,10.02267 0.17895,5.18892 1.25289,9.2151 1.25289,9.2151 1.0737,4.02754 3.04263,6.89128 4.83215,9.75469 0,0 1.78975,2.86374 3.3994,5.72602 1.87853,2.41532 1.87853,2.41532 3.75844,4.83209 2.14764,1.96868 5.27907,4.38432 5.27907,4.38432 3.13258,2.41677 7.24778,5.28034 11.27397,7.69582 0,0 4.02755,2.4167 7.96494,4.3841 4.47448,1.7898 4.47448,1.7898 8.94873,3.5795 5.00997,1.6109 10.7371,2.9526 10.7371,2.9526 5.72715,1.3426 12.16896,2.4166 17.53818,2.5055 0,0 5.36924,0.09 9.66453,-0.8046 4.56328,-1.1641 4.56328,-1.1641 9.1277,-2.3269 4.83101,-1.4316 9.03613,-3.4904 9.03613,-3.4904 4.20652,-2.0576 7.78487,-4.741 11.00622,-8.1415 0,0 3.22159,-3.40038 6.08505,-7.51678 1.6108,-4.02752 1.6108,-4.02752 3.22159,-8.05375 0.3579,-3.93623 -0.26911,-7.78486 -0.26911,-7.78486 -0.62565,-3.84719 -2.23645,-7.60569 -3.9374,-10.55931 0,0 -1.69958,-2.95246 -3.48933,-5.09897 -1.96869,-2.32661 -1.96869,-2.32661 -3.9374,-4.65321 -2.14651,-2.50555 -4.56327,-4.47447 -4.56327,-4.47447 -2.41538,-1.96869 -5.10012,-3.40032 -7.51687,-3.9374 0,0 -2.4154,-0.53686 -4.56304,-0.17895 -2.5058,0.62588 -2.5058,0.62588 -5.01135,1.25289 -2.86231,0.89477 -5.36786,2.3266 -5.36786,2.3266 -2.50578,1.43184 -4.65344,3.40055 -5.90608,5.9061 0,0 -1.25291,2.50577 -1.6108,5.54704 0.26774,2.50555 0.26774,2.50555 0.53686,5.0111 0.89497,1.96871 2.4156,3.40048 2.4156,3.40048 1.52178,1.43187 3.66944,2.3266 3.75844,3.75847 z"
       id="path21199"
       inkscape:connector-curvature="0" />
    <path
       style="fill:none;stroke:#ff0000;stroke-width:0.80650431;stroke-opacity:1"
       d="m 186.82266,972.45605 c -0.09,1.43203 1.87876,3.40054 4.38432,5.01129 0,0 2.50555,1.61059 5.54818,2.86358 3.40009,0.89473 3.40009,0.89473 6.80085,1.78963 3.75731,0.53552 7.42695,-8.1e-4 7.42695,-8.1e-4 3.66852,-0.53729 7.24664,-2.14675 10.37921,-4.3848 0,0 3.13143,-2.23627 5.81616,-5.10017 1.87944,-2.95342 1.87944,-2.95342 3.75821,-5.90582 1.07371,-3.04104 1.43185,-6.44181 1.43185,-6.44181 0.35789,-3.40032 0,-7.15853 -0.89477,-10.55929 0,0 -0.89498,-3.40054 -2.3266,-6.44203 -1.52086,-3.22137 -1.52086,-3.22137 -3.04264,-6.44295 -1.61078,-3.40032 -3.84768,-5.90587 -3.84768,-5.90587 -2.23758,-2.50578 -5.0999,-4.11658 -7.60522,-5.8173 0,0 -2.50578,-1.70003 -4.65344,-3.48841 -2.14764,-1.25266 -2.14764,-1.25266 -4.29529,-2.50532 -2.14765,-0.71605 -3.22181,-1.07394 -3.22181,-1.07394 -1.07349,-0.35814 -1.07349,-0.35814 1.16386,-1.07372 0,0 2.23691,-0.71603 6.7107,-2.14765 4.56464,-0.71604 4.56464,-0.71604 9.1279,-1.43207 4.65229,0 8.85879,0.26797 8.85879,0.26797 4.20492,0.26912 7.96336,0.8062 11.81197,1.61103 0,0 3.84746,0.80573 7.78372,1.87944 3.22135,1.78998 3.22135,1.78998 6.44293,3.57972 2.50578,2.5042 5.10127,5.72578 5.10127,5.72578 2.59435,3.22135 5.27817,7.15898 7.15784,11.54306 0,0 1.87832,4.38569 2.95248,9.21647 0.44784,5.01135 0.44784,5.01135 0.89453,10.02267 -0.17895,5.18892 -1.25266,9.21488 -1.25266,9.21488 -1.07394,4.02776 -3.04264,6.89118 -4.83216,9.75507 0,0 -1.78974,2.86325 -3.3994,5.72586 -1.87877,2.41532 -1.87877,2.41532 -3.75821,4.83209 -2.14811,1.969 -5.27907,4.38432 -5.27907,4.38432 -3.13303,2.41661 -7.24801,5.28034 -11.27442,7.69566 0,0 -4.02732,2.41689 -7.96473,4.38449 -4.47446,1.7896 -4.47446,1.7896 -8.94872,3.5793 -5.00996,1.6109 -10.73734,2.9526 -10.73734,2.9526 -5.7269,1.3426 -12.16871,2.4169 -17.53772,2.5056 0,0 -5.36924,0.09 -9.66476,-0.8047 -4.56304,-1.164 -4.56304,-1.164 -9.12768,-2.3266 -4.83078,-1.4319 -9.03638,-3.4907 -9.03638,-3.4907 -4.20627,-2.0576 -7.78462,-4.741 -11.00598,-8.14153 0,0 -3.22159,-3.4007 -6.08482,-7.51678 -1.61102,-4.02784 -1.61102,-4.02784 -3.22204,-8.05375 -0.35768,-3.93623 0.26934,-7.78486 0.26934,-7.78486 0.62587,-3.84751 2.23644,-7.60569 3.93739,-10.55931 0,0 1.69959,-2.95224 3.48933,-5.09897 1.9687,-2.32683 1.9687,-2.32683 3.9374,-4.65344 2.14628,-2.50555 4.56327,-4.47424 4.56327,-4.47424 2.41539,-1.96869 5.10013,-3.40032 7.51688,-3.93718 0,0 2.4154,-0.53731 4.56327,-0.17917 2.50555,0.62588 2.50555,0.62588 5.01134,1.25311 2.86207,0.89455 5.36763,2.32615 5.36763,2.32615 2.50579,1.43207 4.65343,3.40078 5.90609,5.90655 0,0 1.25313,2.50555 1.6108,5.54682 -0.26797,2.50555 -0.26797,2.50555 -0.53686,5.01134 -0.89498,1.96869 -2.41562,3.40024 -2.41562,3.40024 -1.52201,1.4317 -3.66965,2.3266 -3.75844,3.75847 z"
       id="path21201"
       inkscape:connector-curvature="0" />
    <path
       style="fill:none;stroke:#ff0000;stroke-width:0.80650431;stroke-opacity:1"
       d="m 85.709229,925.65656 c 2.952475,-0.62564 7.246177,-1.34169 13.779511,-2.50555 0,0 6.53197,-1.16273 15.30037,-2.77238 8.76978,-2.59549 8.76978,-2.59549 17.53933,-5.19029 8.7684,-3.57949 17.80729,-7.60682 17.80729,-7.60682 9.03775,-4.02618 18.34278,-8.49952 22.99621,-10.55838 0,0 4.65321,-2.05727 4.65321,-1.69936 -3.40055,-0.62725 -3.40055,-0.62725 -6.80085,-1.25288 -6.79994,-1.6108 -16.10612,-3.4907 -16.10612,-3.4907 -9.30686,-1.87832 -21.11767,-4.0262 -29.35059,-5.99489 0,0 -8.2327,-1.96869 -12.88499,-3.75844 -5.10012,-2.05863 -5.10012,-2.05863 -10.20116,-4.11658 -5.547043,-2.32523 -10.379425,-4.65183 -10.379425,-4.65183 -4.83238,-2.32661 -8.948727,-4.65343 -11.005987,-5.8173 0,0 -2.058857,-1.16272 -2.058857,-1.16272 -1.07371,2.50577 -1.07371,2.50577 -2.147877,5.01133 -2.146508,5.00997 -3.130287,7.51552 -3.130287,7.51552 -0.984919,2.50577 -0.805967,2.50577 3.578579,3.66827 0,0 4.384317,1.16433 12.974912,3.49094 4.295298,1.16249 4.295298,1.16249 8.589227,2.32636 0,0 -3.847233,2.50555 -3.847233,2.50555 -3.848605,2.50579 -11.543072,7.51575 -15.390762,10.0213 0,0 -3.848147,2.50555 -3.848147,2.50555 0.627015,4.2056 0.627015,4.2056 1.25289,8.4121 1.252663,8.41005 2.684505,12.3479 2.684505,12.3479 1.431612,3.93716 3.042406,3.40032 5.996251,2.7733 z"
       id="path21203"
       inkscape:connector-curvature="0" />
    <path
       style="fill:none;stroke:#ff0000;stroke-width:0.80650431;stroke-opacity:1"
       d="m 42.310013,929.415 c -5.190057,0.0902 -5.190057,0.0902 -3.042408,-2.50578 0,0 2.14765,-2.59435 6.443175,-7.78325 2.147421,-2.59595 2.147421,-2.59595 4.295299,-5.19029 0,0 3.042179,2.50577 3.042179,2.50577 3.042634,2.50556 9.126537,7.51553 12.169173,10.02108 0,0 3.042408,2.50577 3.042408,2.50577 -5.190057,0.0889 -5.190057,0.0889 -10.380341,0.17895 z"
       id="path21205"
       inkscape:connector-curvature="0" />
    <path
       style="fill:none;stroke:#ff0000;stroke-width:0.80650431;stroke-opacity:1"
       d="m 79.802909,828.39151 c -3.490471,-2.50579 -3.490471,-2.50579 -0.08992,-2.77467 0,0 3.400311,-0.26797 10.200249,-0.80482 7.069961,-0.8062 7.069961,-0.8062 14.138782,-1.61103 7.33679,-1.07349 15.83859,-2.32638 15.83859,-2.32638 8.50044,-1.25288 18.16383,-2.68472 23.08615,-3.40052 0,0 4.9214,-0.71605 5.10012,-0.71605 0.0902,3.13143 0.0902,3.13143 0.17918,6.26446 0,6.26399 0.44783,12.16986 0.44783,12.16986 0.4467,5.90609 1.34169,11.45291 2.59458,15.74865 0,0 1.25289,4.2953 2.86368,7.33656 0.80574,1.52088 0.80574,1.52088 1.61057,3.04265 0,0 -3.66806,-1.07394 -3.66806,-1.07394 -3.66965,-1.07416 -11.00644,-3.22022 -17.80752,-5.45826 0,0 -6.80085,-2.23643 -13.06348,-4.56304 -6.0855,-2.32683 -6.0855,-2.32683 -12.17031,-4.6532 -5.90609,-2.32661 -12.349034,-5.99648 -12.349034,-5.99648 -6.443176,-3.66828 -13.421837,-8.67824 -16.911395,-11.18379 z"
       id="path21207"
       inkscape:connector-curvature="0" />
    <path
       style="fill:none;stroke:#ff0000;stroke-width:0.80650431;stroke-opacity:1"
       d="m 285.16165,910.71385 c 2.68474,2.68474 2.68474,2.68474 3.31152,-11.00597 0,0 0.62588,-13.69072 1.87877,-41.07125 0.62702,-13.69072 0.62702,-13.69072 1.25266,-27.38145 0,0 -1.96869,2.50557 -1.96869,2.50557 -1.9687,2.50577 -5.90495,7.51573 -9.75196,12.16871 0,0 -3.84861,4.65342 -7.60727,8.94736 -3.93718,3.13143 -3.93718,3.13143 -7.87457,6.26422 -4.11543,1.96869 -8.23155,4.11657 -8.23155,4.11657 -4.11635,2.14742 -8.23268,4.47424 -11.99137,6.08482 0,0 -3.75843,1.6108 -7.15761,2.50577 -1.6998,0.44671 -1.6998,0.44671 -3.4003,0.89453 0,0 2.41653,1.07418 2.41653,1.07418 2.4154,1.0737 7.24686,3.22021 11.63232,5.54682 0,0 4.38408,2.3266 8.32126,4.83238 3.93738,2.6845 3.93738,2.6845 7.87456,5.36901 3.93624,2.86344 8.58967,6.98002 8.58967,6.98002 4.65344,4.11635 10.0213,9.48444 12.70603,12.16871 z"
       id="path21209"
       inkscape:connector-curvature="0" />
    <path
       style="fill:none;stroke:#ff0000;stroke-width:0.80650431;stroke-opacity:1"
       d="m 100.0256,787.40904 c -1.342599,4.11612 -4.205141,10.0213 -5.636983,12.97401 0,0 -1.431615,2.95361 -1.431615,2.95361 3.400311,-0.71603 3.400311,-0.71603 6.801079,-1.43206 6.799479,-1.43185 10.200249,-2.14788 10.200249,-2.14788 3.40031,-0.71535 3.40031,-0.71535 3.40031,-0.71535 0,0 0,0 0,0 -2.05749,-3.40078 -2.05749,-3.40078 -4.11635,-6.8013 -4.11657,-6.79972 -6.08504,-9.0373 -6.08504,-9.0373 -1.9687,-2.23689 -1.78952,0.0897 -3.13165,4.20627 z"
       id="path21211"
       inkscape:connector-curvature="0" />
    <path
       style="fill:none;stroke:#ff0000;stroke-width:0.80650431;stroke-opacity:1"
       d="m 114.74666,690.94767 c 3.22021,-1.25288 10.91628,-2.14786 19.14897,-3.66941 0,0 8.23155,-1.52086 16.99996,-3.6676 4.47425,-1.16388 4.47425,-1.16388 8.94873,-2.32637 0.17849,-0.17918 -0.089,1.34168 -0.089,1.34168 -0.26912,1.522 -0.98515,4.74221 -1.25267,8.14276 0,0 -0.26934,3.4003 -0.0904,6.97979 0.71604,3.57972 0.71604,3.57972 1.43207,7.15899 1.25266,3.57812 1.87944,5.36786 1.87944,5.36786 0.62566,1.78997 0.62566,1.78997 -2.05862,1.43185 0,0 -2.6845,-0.35791 -8.05237,-1.07394 -5.10013,-1.43162 -5.10013,-1.43162 -10.20162,-2.86323 -4.83078,-2.14651 -10.20025,-4.56372 -10.20025,-4.56372 -5.36901,-2.4154 -11.27533,-5.10012 -14.85459,-7.24755 0,0 -3.57949,-2.14787 -4.83147,-3.75844 z"
       id="path21213"
       inkscape:connector-curvature="0" />
    <path
       style="fill:none;stroke:#ff0000;stroke-width:0.80650431;stroke-opacity:1"
       d="m 224.36692,695.1519 c 0,1.25244 2.68335,2.50555 5.36809,3.13143 0,0 2.68427,0.62656 5.36901,0.62656 3.22158,-1.16387 3.22158,-1.16387 6.44294,-2.3266 3.75731,-2.32661 6.88964,-4.92208 6.88964,-4.92208 3.13143,-2.5948 5.63743,-5.45804 7.15921,-8.94873 0,0 1.52063,-3.48933 2.05772,-7.60478 -0.44715,-3.66941 -0.44715,-3.66941 -0.89521,-7.3377 -1.43138,-3.22158 -3.31015,-6.26399 -3.31015,-6.26399 -1.88014,-3.04241 -4.20674,-5.90495 -7.15898,-8.50067 0,0 -2.95362,-2.59433 -6.53198,-4.92116 -3.13141,-1.61102 -3.13141,-1.61102 -6.26399,-3.2216 -2.6845,-0.89452 -4.38385,-1.43183 -4.38385,-1.43183 -1.70119,-0.53686 -2.417,-0.71581 -0.62748,-2.32661 0,0 1.78975,-1.61057 6.08505,-4.65206 4.02755,-2.14764 4.02755,-2.14764 8.05396,-4.29529 3.75731,-1.25289 7.24778,-2.32661 7.24778,-2.32661 3.48955,-1.0737 6.71091,-1.96869 10.20139,-1.96869 0,0 3.48955,0 7.24662,0.89499 3.40032,1.0737 3.40032,1.0737 6.80109,2.14742 3.04241,1.25289 5.63811,3.13143 5.63811,3.13143 2.59457,1.88012 4.74108,4.38432 6.53083,8.05281 0,0 1.78952,3.66944 3.22158,8.50182 0.26889,4.74221 0.26889,4.74221 0.53686,9.48534 -0.89498,4.65229 -2.41561,9.03638 -2.41561,9.03638 -1.522,4.38547 -3.66851,8.50067 -6.17407,12.61702 0,0 -2.50532,4.11635 -5.36901,8.23268 -3.48956,3.5795 -3.48956,3.5795 -6.98003,7.15899 -4.11521,3.04104 -8.32034,5.90495 -8.32034,5.90495 -4.20651,2.86323 -8.50181,5.54796 -13.51336,8.05351 0,0 -5.01088,2.50579 -10.73666,4.83262 -6.17429,1.16272 -6.17429,1.16272 -12.34948,2.32659 -6.621,0 -12.34768,-0.98492 -12.34768,-0.98492 -5.72713,-0.98377 -10.55838,-2.95247 -14.49554,-5.9951 0,0 -3.93763,-3.04286 -6.98004,-7.15921 -1.0737,-5.18984 -1.0737,-5.18984 -2.14787,-10.38012 0.89498,-6.26286 3.40077,-11.63209 3.40077,-11.63209 2.50509,-5.36924 6.62053,-9.84257 11.00598,-12.52685 0,0 4.38409,-2.68473 9.03753,-3.5795 3.75844,-0.26909 3.75844,-0.26909 7.51688,-0.53708 2.86231,0.35814 5.36809,1.96916 5.36809,1.96916 2.50555,1.61056 4.65321,4.47424 6.08504,7.51643 0,0 1.43185,3.04286 2.14743,6.26308 -0.26752,2.7733 -0.26752,2.7733 -0.53686,5.54774 -1.25266,2.32683 -3.22158,4.1168 -3.22158,4.1168 -1.96848,1.78952 -4.65183,3.04218 -4.65183,4.29552 z"
       id="path21215"
       inkscape:connector-curvature="0" />
    <path
       style="fill:none;stroke:#ff0000;stroke-width:0.80650431;stroke-opacity:1"
       d="m 201.69437,579.02251 c 0.44716,-1.43185 -1.16227,-4.83193 -2.50418,-8.14253 0,0 -1.34283,-3.31153 -2.417,-6.5322 -0.44669,-3.48888 -0.44669,-3.48888 -0.89452,-6.97957 0.17895,-3.75868 0.26889,-5.63721 0.26889,-5.63721 0.0892,-1.87991 0.0892,-1.87991 -3.40032,-0.62703 0,0 -3.49047,1.25289 -10.46959,3.75846 -6.44271,1.96869 -6.44271,1.96869 -12.88589,3.93739 -5.90495,1.43161 -8.8572,2.14765 -8.8572,2.14765 -2.95362,0.71626 -2.95362,0.71626 -2.95362,0.71626 0,0 0,0 0,0 1.78952,0.89453 1.78952,0.89453 3.57927,1.78952 3.57812,1.78975 7.69469,3.84838 7.69469,3.84838 4.11613,2.05747 8.76841,4.38317 13.42183,6.44157 0,0 4.65321,2.05794 9.30664,3.84746 3.57927,1.16388 3.57927,1.16388 7.15852,2.3266 z"
       id="path21217"
       inkscape:connector-curvature="0" />
    <path
       style="fill:none;stroke:#ff0000;stroke-width:0.80650431;stroke-opacity:1"
       d="m 248.54662,563.14533 c -0.26934,1.61057 1.16273,2.14743 3.22113,2.14743 0,0 2.05795,0 4.74109,-0.53686 2.59594,-0.62588 2.59594,-0.62588 5.19027,-1.25289 2.5058,-0.7158 5.01135,-2.05771 5.01135,-2.05771 2.50555,-1.34283 5.0111,-3.30993 6.891,-5.81571 0,0 1.87876,-2.50577 3.13143,-5.54842 0.35813,-2.59433 0.35813,-2.59433 0.71604,-5.18983 -0.53708,-2.14788 -1.16273,-4.47447 -1.16273,-4.47447 -0.62748,-2.32683 -1.34306,-4.83125 -2.7749,-7.78349 0,0 -1.43185,-2.95361 -3.57926,-6.35438 -1.07372,-1.69935 -1.07372,-1.69935 -2.14788,-3.40032 0,0 2.68474,0.44783 2.68474,0.44783 2.68472,0.44694 8.05236,1.34169 12.88498,3.57972 0,0 4.83191,2.23646 9.12721,5.81571 2.95386,4.29553 2.95386,4.29553 5.90632,8.59083 1.60943,5.01018 2.05749,9.57437 2.05749,9.57437 0.44693,4.56349 -0.26774,8.67847 -1.96755,12.34835 0,0 -1.70049,3.66782 -4.38523,6.88965 -3.31038,3.49047 -3.31038,3.49047 -6.62213,6.98002 -3.93626,3.75731 -7.24663,6.26241 -7.24663,6.26241 -3.31151,2.50577 -5.99603,3.75889 -10.02221,4.47447 0,0 -4.02755,0.71604 -9.39587,0.89499 -4.742,-0.44671 -4.742,-0.44671 -9.48536,-0.89499 -4.11635,-1.07372 -7.87479,-2.14764 -7.87479,-2.14764 -3.75844,-1.07372 -7.15761,-2.14766 -10.55793,-3.84724 0,0 -3.40076,-1.70072 -6.80107,-4.02642 -2.41586,-2.77352 -2.41586,-2.77352 -4.83238,-5.54796 -1.43207,-3.22158 -2.32661,-6.88987 -2.32661,-6.88987 -0.89498,-3.66942 -1.25311,-7.78485 -0.35812,-11.54329 0,0 0.89498,-3.75845 3.04286,-7.15876 2.3266,-2.41585 2.3266,-2.41585 4.65319,-4.83238 2.50533,-1.43161 5.19007,-2.59434 5.19007,-2.59434 2.68472,-1.1641 5.54681,-2.05794 8.14276,-1.87877 0,0 2.59457,0.17895 4.92117,1.43048 1.87967,1.70095 1.87967,1.70095 3.75821,3.40075 1.43207,2.14766 2.41676,4.83216 2.41676,4.83216 0.98402,2.68451 1.52063,5.90632 0.80483,8.85971 0,0 -0.71581,2.95248 -2.6845,5.63585 z"
       id="path21219"
       inkscape:connector-curvature="0" />
    <path
       style="fill:none;stroke:#ff0000;stroke-width:0.80650431;stroke-opacity:1"
       d="m 298.43467,493.48336 c 2.81872,-1.11937 7.5623,-3.44437 9.97769,-4.56351 0,0 2.4154,-1.11867 2.50579,-1.0285 0.0897,4.20512 0.0897,4.20512 0.17895,8.41072 0.0885,8.32126 0.13372,12.4828 0.13372,12.4828 0.045,4.16016 0.045,4.16016 -1.16272,2.50555 0,0 -1.2077,-1.65577 -3.62447,-4.96729 -2.90774,-3.08622 -2.90774,-3.08622 -5.81615,-6.17429 -3.40008,-2.86207 -4.65321,-4.24896 -4.65321,-4.24896 -1.25289,-1.38801 -0.35789,-1.29785 2.46037,-2.41652 z"
       id="path21221"
       inkscape:connector-curvature="0" />
    <path
       style="fill:none;stroke:#ff0000;stroke-width:0.80650431;stroke-opacity:1"
       d="m 221.68834,460.57792 c 0.44693,-1.25312 -1.52176,-3.93625 -2.77467,-6.88873 0,0 -1.25289,-2.95338 -1.78997,-6.17521 0.53708,-3.22135 0.53708,-3.22135 1.07417,-6.44294 1.61057,-3.22022 2.41677,-4.83078 2.41677,-4.83078 0.80483,-1.61125 0.80483,-1.61125 -2.05864,-0.53731 0,0 -2.86391,1.0737 -8.58969,3.22021 -5.36946,1.25266 -5.36946,1.25266 -10.73846,2.50578 -5.01134,0.35814 -8.41142,0.44783 -8.41142,0.44783 -3.40077,0.0892 -5.18959,-0.0897 -4.56212,1.52086 0,0 0.62587,1.61058 3.6669,5.01135 3.49047,2.77466 3.49047,2.77466 6.98004,5.54795 3.93716,2.14652 7.6956,3.75707 7.6956,3.75707 3.75891,1.6108 7.33703,2.68474 10.55838,3.31175 0,0 3.2216,0.62566 6.08505,0.80483 z"
       id="path21223"
       inkscape:connector-curvature="0" />
    <path
       style="fill:none;stroke:#ff0000;stroke-width:0.80650431;stroke-opacity:1"
       d="m 194.13365,412.30249 c 1.52087,2.01366 3.66851,5.59178 4.69726,7.42695 0,0 1.02852,1.83472 0.93996,1.92374 -2.4154,0.58183 -2.4154,0.58183 -4.83239,1.16387 -4.74313,1.07257 -7.11402,1.60965 -7.11402,1.60965 -2.3711,0.53641 -2.3711,0.53641 -1.65575,-0.80483 0,0 0.71603,-1.34281 2.14788,-4.02641 0.89498,-2.59457 0.89498,-2.59457 1.78975,-5.19006 0.35767,-2.50578 0.98514,-3.53452 0.98514,-3.53452 0.62587,-1.02897 1.52041,-0.58228 3.04217,1.43161 z"
       id="path21225"
       inkscape:connector-curvature="0" />
    <path
       style="fill:none;stroke:#ff0000;stroke-width:0.80650431;stroke-opacity:1"
       d="m 262.59296,455.74645 c 0.44669,-1.16388 3.13143,-2.95338 4.83216,-5.01064 0,0 1.69935,-2.05909 2.4154,-4.38569 -0.0887,-2.14766 -0.0887,-2.14766 -0.17897,-4.29553 -0.89475,-1.96756 -2.86344,-3.48773 -2.86344,-3.48773 -1.96894,-1.52201 -5.01135,-2.59594 -8.05375,-2.59594 0,0 -3.04241,0 -6.08413,1.07393 -2.59434,1.87946 -2.59434,1.87946 -5.18982,3.75823 -2.14788,2.68335 -2.68474,5.36809 -2.68474,5.36809 -0.53686,2.68472 0.53686,5.36924 1.87991,8.4114 0,0 1.34145,3.04288 2.95224,6.44204 2.6845,2.50556 2.6845,2.50556 5.36924,5.01134 3.7573,1.61078 7.6059,2.95361 7.6059,2.95361 3.84724,1.34191 7.7844,2.4154 12.61702,2.23644 0,0 4.83193,-0.17917 10.55814,-1.61056 4.83193,-2.23668 4.83193,-2.23668 9.66431,-4.47448 3.93603,-3.04241 6.88964,-6.88965 6.88964,-6.88965 2.95271,-3.84859 4.92163,-8.50088 5.63744,-12.79617 0,0 0.7158,-4.29532 0.17872,-8.23156 -1.25244,-4.11657 -1.25244,-4.11657 -2.50555,-8.2327 -1.96892,-4.29529 -4.83238,-7.3377 -4.83238,-7.3377 -2.86322,-3.04263 -6.62053,-4.83124 -9.21488,-6.35209 0,0 -2.59593,-1.52178 -4.02778,-2.77444 -2.50555,-0.62588 -2.50555,-0.62588 -5.0111,-1.25266 -3.57949,0 -6.88987,0.35744 -6.88987,0.35744 -3.31175,0.35813 -6.35301,1.07416 -8.58969,2.14788 0,0 -2.23781,1.07393 -3.66942,2.50555 1.52201,1.07417 1.52201,1.07417 3.04264,2.14787 4.47289,0.7149 7.87341,2.05771 7.87341,2.05771 3.40055,1.34123 5.72715,3.31062 7.78601,5.63723 0,0 2.05748,2.32613 3.84746,5.01065 1.61056,2.4172 1.61056,2.4172 3.22113,4.8326 1.43184,2.14651 1.61101,5.10012 1.61101,5.10012 0.17897,2.95225 -0.89475,6.71068 -2.6845,9.75332 0,0 -1.78997,3.04288 -4.29552,5.36787 -2.6845,1.61102 -2.6845,1.61102 -5.36901,3.22182 -2.86232,0.89453 -5.45711,0.80597 -5.45711,0.80597 -2.59572,-0.0906 -4.92208,-1.16296 -6.9798,-1.96779 0,0 -2.05863,-0.80574 -3.84838,-1.34283 z"
       id="path21227"
       inkscape:connector-curvature="0" />
    <path
       style="fill:none;stroke:#ff0000;stroke-width:0.80650431;stroke-opacity:1"
       d="m 218.61148,372.88586 c -2.41655,1.34191 -4.56282,6.17407 -5.63699,8.5906 0,0 -1.07371,2.41562 -1.07371,2.41562 2.95361,1.43186 2.95361,1.43186 5.90609,2.86369 5.90473,2.86209 8.85879,4.29415 8.85879,4.29415 2.95249,1.43161 2.95249,1.43161 -0.17894,2.86369 0,0 -3.13281,1.43161 -9.39542,4.2953 -3.13143,1.43185 -3.13143,1.43185 -6.26446,2.86323 0,0 0,2.77512 0,2.77512 0,2.77352 0,8.32033 0,10.9156 0,0 0,2.59502 0,2.23689 2.86369,-2.23689 2.86369,-2.23689 5.72737,-4.47425 5.72601,-4.1152 10.55814,-7.51575 10.55814,-7.51575 4.83263,-3.40053 8.76842,-6.08504 12.52685,-8.50042 0,0 3.75846,-2.417 7.33771,-4.56464 3.40077,-1.34146 3.40077,-1.34146 6.80086,-2.68451 3.22089,-0.53572 2.23689,-1.60943 2.23689,-1.60943 -0.98492,-1.07417 -6.17406,-2.68473 -10.29041,-4.02641 0,0 -4.11634,-1.34306 -7.15897,-2.41653 -3.04218,-1.25311 -3.04218,-1.25311 -6.08506,-2.50578 -3.04126,-1.43185 -5.90471,-3.22159 -5.90471,-3.22159 -2.86391,-1.78975 -5.54796,-3.93739 -7.96403,-2.59458 z"
       id="path21229"
       inkscape:connector-curvature="0" />
    <path
       style="fill:none;stroke:#ff0000;stroke-width:0.80650431;stroke-opacity:1"
       d="m 278.56396,363.40165 c -0.44784,-1.8799 0.80482,-4.38545 1.43161,-6.62189 0,0 0.62586,-2.23805 0.62586,-4.20674 -0.44669,-2.23621 -0.44669,-2.23621 -0.89453,-4.47424 -0.8952,-2.50442 -2.50577,-3.84611 -2.50577,-3.84611 -1.6108,-1.34259 -3.93626,-1.52176 -6.44181,-1.52176 0,0 -2.506,0 -5.19005,0.17917 -1.87877,1.07372 -1.87877,1.07372 -3.75868,2.14742 -1.0737,1.96734 -2.23666,4.11498 -2.23666,4.11498 -1.16387,2.14788 -2.41677,4.47426 -2.59527,7.33793 0,0 -0.17917,2.86368 0.71535,6.26423 1.96871,2.86346 1.96871,2.86346 3.93741,5.72713 3.04263,2.32523 6.6219,4.11545 6.6219,4.11545 3.57994,1.7895 7.69514,3.04218 11.09546,4.02708 0,0 3.40008,0.98357 6.0848,1.6996 3.49072,-0.0886 3.49072,-0.0886 6.98004,-0.17872 4.29438,-0.895 8.32195,-2.4154 8.32195,-2.4154 4.02618,-1.52201 7.78439,-3.66989 10.55951,-6.26399 0,0 2.77329,-2.59617 4.56281,-5.63744 1.07417,-3.40054 1.07417,-3.40054 2.14789,-6.80086 0.35699,-3.75844 -0.0902,-7.51688 -0.0902,-7.51688 -0.44806,-3.75844 -1.69958,-7.51575 -3.3994,-10.28927 0,0 -1.70095,-2.77444 -3.84861,-4.56441 -2.59457,-1.25266 -2.59457,-1.25266 -5.18982,-2.50532 -3.04286,-0.71603 -5.72737,-1.07417 -5.72737,-1.07417 -2.6845,-0.35767 -5.00996,-0.35767 -6.17292,-0.35767 0,0 -1.16387,0 -1.16387,0 1.16387,1.52178 1.16387,1.52178 2.32683,3.04241 2.32546,3.04241 4.29415,5.63835 4.29415,5.63835 1.96871,2.59433 3.57927,4.74199 4.11635,7.42671 0,0 0.53708,2.68474 0,5.90495 -0.71603,2.32661 -0.71603,2.32661 -1.43161,4.65344 -0.89499,1.43138 -2.3266,2.95338 -2.3266,2.95338 -1.43208,1.52088 -3.39985,3.13143 -6.17315,4.38432 0,0 -2.77444,1.25289 -6.35393,2.14743 -2.86346,-0.17896 -2.86346,-0.17896 -5.72737,-0.35768 z"
       id="path21231"
       inkscape:connector-curvature="0" />
    <path
       style="fill:none;stroke:#ff0000;stroke-width:0.80650431;stroke-opacity:1"
       d="m 308.27222,317.76601 c 0.98377,-0.80598 -3.13258,-4.92233 -6.35438,-9.1277 0,0 -3.22113,-4.20672 -5.54682,-8.50065 -2.05749,-3.75845 -2.05749,-3.75845 -4.11612,-7.51689 -1.78975,-3.22113 -2.68474,-4.83216 -2.68474,-4.83216 -0.89475,-1.61078 -0.89475,-1.61078 -2.95269,-0.62586 0,0 -2.05841,0.98377 -6.17454,2.95247 -1.79019,0.98469 -1.79019,0.98469 -3.57994,1.96869 0.53708,0 1.96871,3.8486 1.96871,3.8486 1.43206,3.84724 3.75866,11.54194 4.92253,15.39054 0,0 1.16296,3.84746 1.16296,3.84746 1.70028,-0.26819 1.70028,-0.26819 3.40031,-0.53731 3.40009,-0.53685 8.1439,0.44807 8.1439,0.44807 4.742,0.98377 10.8259,3.48956 11.81082,2.68474 z"
       id="path21233"
       inkscape:connector-curvature="0" />
    <path
       style="fill:none;stroke:#ff0000;stroke-width:0.80650431;stroke-opacity:1"
       d="m 405.75639,910.7141 c -2.68449,2.68472 -2.68449,2.68472 -3.31152,-11.00622 0,0 -0.62586,-13.69072 -1.87875,-41.07125 -0.62702,-13.69072 -0.62702,-13.69072 -1.25266,-27.38168 0,0 1.96869,2.5058 1.96869,2.5058 1.96869,2.50555 5.90473,7.5155 9.75219,12.16894 0,0 3.84836,4.65319 7.60682,8.94736 3.93738,3.13143 3.93738,3.13143 7.87478,6.26399 4.11521,1.96869 8.23154,4.11634 8.23154,4.11634 4.11659,2.14765 8.23293,4.47447 11.99138,6.08505 0,0 3.75844,1.6108 7.1576,2.50577 1.69959,0.44671 1.69959,0.44671 3.40054,0.89477 0,0 -2.41675,1.07394 -2.41675,1.07394 -2.41563,1.0737 -7.24664,3.22021 -11.6321,5.54682 0,0 -4.38408,2.3266 -8.3217,4.83238 -3.93741,2.6845 -3.93741,2.6845 -7.87479,5.36924 -3.93603,2.86344 -8.58947,6.97979 -8.58947,6.97979 -4.65319,4.11635 -10.02128,9.48444 -12.7058,12.16896 z"
       id="path21235"
       inkscape:connector-curvature="0" />
    <path
       style="fill:none;stroke:#ff0000;stroke-width:0.80650431;stroke-opacity:1"
       d="m 466.55114,695.15168 c 0,1.25266 -2.68337,2.50555 -5.36787,3.13143 0,0 -2.68474,0.627 -5.36923,0.627 -3.2216,-1.16409 -3.2216,-1.16409 -6.44296,-2.32682 -3.75729,-2.32661 -6.88987,-4.92231 -6.88987,-4.92231 -3.13141,-2.59435 -5.6372,-5.45803 -7.15898,-8.9485 0,0 -1.52063,-3.48957 -2.05749,-7.60455 0.44671,-3.66964 0.44671,-3.66964 0.89477,-7.33793 1.43183,-3.22158 3.31038,-6.26399 3.31038,-6.26399 1.87991,-3.04263 4.2065,-5.90495 7.15898,-8.50067 0,0 2.95361,-2.59457 6.53196,-4.92116 3.13143,-1.6108 3.13143,-1.6108 6.264,-3.2216 2.6845,-0.89475 4.38408,-1.43161 4.38408,-1.43161 1.70097,-0.53708 2.41677,-0.71603 0.62703,-2.32683 0,0 -1.78975,-1.61057 -6.08505,-4.65206 -4.02755,-2.14764 -4.02755,-2.14764 -8.05375,-4.29529 -3.75729,-1.25289 -7.24776,-2.32661 -7.24776,-2.32661 -3.48934,-1.07394 -6.71092,-1.96869 -10.20139,-1.96869 0,0 -3.48933,0 -7.24664,0.89475 -3.40053,1.07394 -3.40053,1.07394 -6.80107,2.14766 -3.04241,1.25289 -5.63813,3.13143 -5.63813,3.13143 -2.59457,1.87989 -4.74108,4.38432 -6.53081,8.05259 0,0 -1.78952,3.66966 -3.22137,8.50181 -0.26912,4.74222 -0.26912,4.74222 -0.53709,9.48557 0.895,4.65207 2.41563,9.03638 2.41563,9.03638 1.522,4.38547 3.66829,8.50067 6.17406,12.61702 0,0 2.50555,4.11635 5.36901,8.23268 3.48956,3.5795 3.48956,3.5795 6.98003,7.15899 4.1152,3.04126 8.32035,5.90472 8.32035,5.90472 4.2065,2.86369 8.50179,5.54819 13.51314,8.05396 0,0 5.01132,2.50557 10.7371,4.83216 6.17405,1.16274 6.17405,1.16274 12.34926,2.3266 6.62075,0 12.3479,-0.98492 12.3479,-0.98492 5.72713,-0.98377 10.55814,-2.95246 14.49555,-5.99487 0,0 3.93738,-3.04264 6.97979,-7.15899 1.07394,-5.19029 1.07394,-5.19029 2.14788,-10.38034 -0.89499,-6.26286 -3.40054,-11.63209 -3.40054,-11.63209 -2.50555,-5.36924 -6.62076,-9.84234 -11.0062,-12.52685 0,0 -4.38434,-2.68473 -9.03753,-3.5795 -3.75844,-0.26909 -3.75844,-0.26909 -7.51688,-0.53684 -2.86231,0.3579 -5.36811,1.9687 -5.36811,1.9687 -2.50555,1.61078 -4.65319,4.47424 -6.08504,7.51687 0,0 -1.43161,3.04241 -2.14764,6.26264 0.26797,2.77352 0.26797,2.77352 0.53686,5.54818 1.25289,2.32683 3.22158,4.11658 3.22158,4.11658 1.96869,1.78952 4.65206,3.04241 4.65206,4.2953 z"
       id="path21237"
       inkscape:connector-curvature="0" />
    <path
       style="fill:none;stroke:#ff0000;stroke-width:0.80650431;stroke-opacity:1"
       d="m 442.37166,563.1451 c 0.26889,1.6108 -1.16274,2.14766 -3.2216,2.14766 0,0 -2.05747,0 -4.74084,-0.53686 -2.59572,-0.62588 -2.59572,-0.62588 -5.19029,-1.25289 -2.50555,-0.7158 -5.01133,-2.05749 -5.01133,-2.05749 -2.50555,-1.34305 -5.0111,-3.31038 -6.89101,-5.81615 0,0 -1.87855,-2.50555 -3.13143,-5.54798 -0.3579,-2.59455 -0.3579,-2.59455 -0.71581,-5.19027 0.53686,-2.14766 1.16274,-4.47425 1.16274,-4.47425 0.62701,-2.32683 1.34281,-4.83125 2.77466,-7.78349 0,0 1.43161,-2.95385 3.57949,-6.35416 1.0737,-1.69982 1.0737,-1.69982 2.14765,-3.40054 0,0 -2.68473,0.44806 -2.68473,0.44806 -2.68451,0.44671 -8.05261,1.34169 -12.88476,3.57949 0,0 -4.83238,2.23646 -9.12768,5.81595 -2.95361,4.29529 -2.95361,4.29529 -5.90609,8.59059 -1.60941,5.01018 -2.05749,9.57459 -2.05749,9.57459 -0.44692,4.56304 0.26774,8.67825 1.96734,12.34791 0,0 1.70095,3.66829 4.38544,6.88987 3.31038,3.49047 3.31038,3.49047 6.62213,6.97979 3.93626,3.75731 7.24664,6.26286 7.24664,6.26286 3.31152,2.50555 5.99603,3.75844 10.02244,4.47425 0,0 4.02755,0.71604 9.39542,0.89499 4.74221,-0.44693 4.74221,-0.44693 9.48559,-0.89499 4.11633,-1.07372 7.87479,-2.14764 7.87479,-2.14764 3.75844,-1.07372 7.15761,-2.14766 10.55814,-3.84724 0,0 3.40054,-1.70095 6.80109,-4.02618 2.41538,-2.77354 2.41538,-2.77354 4.83215,-5.5482 1.43184,-3.22158 2.32659,-6.88987 2.32659,-6.88987 0.89499,-3.66965 1.25289,-7.78485 0.35814,-11.54329 0,0 -0.895,-3.75823 -3.04264,-7.15876 -2.3266,-2.41562 -2.3266,-2.41562 -4.65321,-4.83238 -2.50577,-1.43161 -5.19027,-2.59434 -5.19027,-2.59434 -2.68474,-1.1641 -5.54706,-2.05772 -8.14276,-1.87877 0,0 -2.59435,0.17895 -4.92117,1.4307 -1.87969,1.70073 -1.87969,1.70073 -3.75844,3.40031 -1.43163,2.14788 -2.41655,4.83238 -2.41655,4.83238 -0.98377,2.68451 -1.52086,5.90609 -0.80483,8.85971 0,0 0.71581,2.95248 2.68452,5.63585 z"
       id="path21239"
       inkscape:connector-curvature="0" />
    <path
       style="fill:none;stroke:#ff0000;stroke-width:0.80650431;stroke-opacity:1"
       d="m 392.48316,493.48336 c -2.81849,-1.11892 -7.56185,-3.44437 -9.97748,-4.56327 0,0 -2.41538,-1.11891 -2.50555,-1.02874 -0.0902,4.20512 -0.0902,4.20512 -0.17895,8.4105 -0.0887,8.32148 -0.13404,12.48302 -0.13404,12.48302 -0.045,4.16016 -0.045,4.16016 1.16274,2.50555 0,0 1.20769,-1.65577 3.62445,-4.96729 2.90751,-3.08644 2.90751,-3.08644 5.81617,-6.17405 3.4003,-2.86231 4.65319,-4.2492 4.65319,-4.2492 1.25289,-1.38778 0.35791,-1.29785 -2.46058,-2.41652 z"
       id="path21241"
       inkscape:connector-curvature="0" />
    <path
       style="fill:none;stroke:#ff0000;stroke-width:0.80650431;stroke-opacity:1"
       d="m 469.2297,460.57769 c -0.44691,-1.25266 1.52178,-3.93602 2.77467,-6.8885 0,0 1.25289,-2.95361 1.78974,-6.17521 -0.53685,-3.22158 -0.53685,-3.22158 -1.07394,-6.44294 -1.61055,-3.22045 -2.41675,-4.831 -2.41675,-4.831 -0.8046,-1.6108 -0.8046,-1.6108 2.05886,-0.53709 0,0 2.86369,1.07393 8.58945,3.22044 5.36923,1.25266 5.36923,1.25266 10.73847,2.50555 5.0111,0.35791 8.41165,0.44806 8.41165,0.44806 3.40054,0.0887 5.18914,-0.0902 4.56212,1.52063 0,0 -0.62586,1.6108 -3.66714,5.01135 -3.4907,2.77466 -3.4907,2.77466 -6.98002,5.54795 -3.93741,2.14652 -7.69585,3.7573 -7.69585,3.7573 -3.75843,1.6108 -7.33656,2.68451 -10.55815,3.31152 0,0 -3.22158,0.62588 -6.08505,0.80483 z"
       id="path21243"
       inkscape:connector-curvature="0" />
    <path
       style="fill:none;stroke:#ff0000;stroke-width:0.80650431;stroke-opacity:1"
       d="m 496.78416,412.30249 c -1.52063,2.0139 -3.66828,5.59202 -4.69703,7.42695 0,0 -1.02874,1.83472 -0.93995,1.92351 2.41563,0.58206 2.41563,0.58206 4.83216,1.1641 4.74358,1.07257 7.11401,1.60942 7.11401,1.60942 2.37157,0.53686 2.37157,0.53686 1.65577,-0.80482 0,0 -0.7158,-1.34282 -2.14766,-4.02619 -0.89499,-2.59457 -0.89499,-2.59457 -1.78974,-5.19029 -0.35791,-2.50555 -0.98492,-3.53429 -0.98492,-3.53429 -0.62588,-1.02875 -1.52063,-0.58204 -3.04264,1.43161 z"
       id="path21245"
       inkscape:connector-curvature="0" />
    <path
       style="fill:none;stroke:#ff0000;stroke-width:0.80650431;stroke-opacity:1"
       d="m 428.32532,455.74668 c -0.44693,-1.16387 -3.13143,-2.95361 -4.83238,-5.0111 0,0 -1.69959,-2.05886 -2.4154,-4.38546 0.0887,-2.14766 0.0887,-2.14766 0.17895,-4.2953 0.89477,-1.96755 2.86346,-3.4882 2.86346,-3.4882 1.96869,-1.522 5.01133,-2.5957 8.05374,-2.5957 0,0 3.04263,0 6.08391,1.0737 2.59456,1.87991 2.59456,1.87991 5.19027,3.75846 2.14766,2.68335 2.68452,5.36809 2.68452,5.36809 0.53708,2.6845 -0.53686,5.36899 -1.87969,8.41164 0,0 -1.34168,3.04264 -2.95247,6.4418 -2.68474,2.50556 -2.68474,2.50556 -5.36923,5.01134 -3.75731,1.61056 -7.60568,2.95361 -7.60568,2.95361 -3.84746,1.34169 -7.78486,2.4154 -12.61702,2.23644 0,0 -4.83238,-0.17895 -10.55814,-1.61056 -4.83239,-2.23668 -4.83239,-2.23668 -9.66455,-4.47448 -3.93624,-3.04241 -6.88987,-6.88987 -6.88987,-6.88987 -2.95247,-3.84837 -4.92116,-8.50043 -5.63696,-12.79595 0,0 -0.71605,-4.29532 -0.17919,-8.23156 1.25289,-4.11635 1.25289,-4.11635 2.50577,-8.2327 1.96871,-4.29529 4.83216,-7.33793 4.83216,-7.33793 2.86369,-3.0424 6.62075,-4.83101 9.21533,-6.35164 0,0 2.59571,-1.52177 4.02755,-2.77466 2.50557,-0.62588 2.50557,-0.62588 5.01112,-1.25289 3.57949,0 6.88987,0.35789 6.88987,0.35789 3.31175,0.35814 6.35301,1.07394 8.58945,2.14789 0,0 2.2378,1.0737 3.66965,2.50555 -1.52177,1.07371 -1.52177,1.07371 -3.04263,2.14764 -4.47311,0.71467 -7.87342,2.05749 -7.87342,2.05749 -3.40054,1.34168 -5.72715,3.31039 -7.78601,5.6372 0,0 -2.05749,2.32661 -3.84723,5.01112 -1.6108,2.41676 -1.6108,2.41676 -3.22158,4.83238 -1.43185,2.14651 -1.6108,5.10012 -1.6108,5.10012 -0.17895,2.95247 0.89499,6.71093 2.6845,9.75332 0,0 1.78974,3.04265 4.29553,5.36811 2.6845,1.61055 2.6845,1.61055 5.36924,3.22135 2.86232,0.89498 5.45665,0.80596 5.45665,0.80596 2.59572,-0.0899 4.92255,-1.16272 6.98004,-1.96732 0,0 2.05886,-0.80597 3.8486,-1.34306 z"
       id="path21247"
       inkscape:connector-curvature="0" />
    <path
       style="fill:none;stroke:#ff0000;stroke-width:0.80650431;stroke-opacity:1"
       d="m 472.30636,372.88586 c 2.41675,1.34169 4.56326,6.17407 5.63698,8.59084 0,0 1.07394,2.41538 1.07394,2.41538 -2.95386,1.43186 -2.95386,1.43186 -5.9061,2.86369 -5.90495,2.86232 -8.85856,4.29415 -8.85856,4.29415 -2.95248,1.43185 -2.95248,1.43185 0.17895,2.86346 0,0 3.13256,1.43184 9.39542,4.29553 3.13143,1.43161 3.13143,1.43161 6.26399,2.86346 0,0 0,2.77466 0,2.77466 0,2.77352 0,8.32034 0,10.91605 0,0 0,2.59458 0,2.23667 -2.86345,-2.23667 -2.86345,-2.23667 -5.72714,-4.47425 -5.72577,-4.1152 -10.55815,-7.51575 -10.55815,-7.51575 -4.83216,-3.40053 -8.76841,-6.08504 -12.52685,-8.50065 0,0 -3.75844,-2.41677 -7.33793,-4.56441 -3.40055,-1.34168 -3.40055,-1.34168 -6.80085,-2.68451 -3.22045,-0.53572 -2.23666,-1.60966 -2.23666,-1.60966 0.98492,-1.0737 6.17404,-2.6845 10.29039,-4.02618 0,0 4.11635,-1.34281 7.15899,-2.41675 3.04241,-1.25289 3.04241,-1.25289 6.08504,-2.50556 3.04126,-1.43185 5.90472,-3.22159 5.90472,-3.22159 2.86369,-1.78975 5.54819,-3.93739 7.96382,-2.59458 z"
       id="path21249"
       inkscape:connector-curvature="0" />
    <path
       style="fill:none;stroke:#ff0000;stroke-width:0.80650431;stroke-opacity:1"
       d="m 412.3541,363.40165 c 0.44806,-1.8799 -0.80483,-4.38545 -1.43184,-6.62213 0,0 -0.62587,-2.23758 -0.62587,-4.20627 0.44691,-2.23667 0.44691,-2.23667 0.89499,-4.47447 0.89475,-2.50442 2.50555,-3.84611 2.50555,-3.84611 1.61078,-1.34281 3.93624,-1.52176 6.44181,-1.52176 0,0 2.50555,0 5.19027,0.17895 1.87854,1.07371 1.87854,1.07371 3.75844,2.14764 1.07372,1.96756 2.23645,4.1152 2.23645,4.1152 1.1641,2.14766 2.41676,4.47426 2.59571,7.33795 0,0 0.17896,2.86344 -0.71581,6.26399 -1.96869,2.86346 -1.96869,2.86346 -3.93739,5.72713 -3.04263,2.32548 -6.62212,4.11522 -6.62212,4.11522 -3.57927,1.78951 -7.69447,3.04241 -11.09502,4.02731 0,0 -3.40054,0.98379 -6.08504,1.69982 -3.4907,-0.089 -3.4907,-0.089 -6.98004,-0.17917 -4.29415,-0.89477 -8.32148,-2.4154 -8.32148,-2.4154 -4.0264,-1.522 -7.78484,-3.66966 -10.55951,-6.26399 0,0 -2.77353,-2.59572 -4.56328,-5.63721 -1.0737,-3.40031 -1.0737,-3.40031 -2.14764,-6.80086 -0.35676,-3.75844 0.0902,-7.51688 0.0902,-7.51688 0.44808,-3.75844 1.69959,-7.51575 3.39917,-10.28904 0,0 1.70097,-2.77467 3.84861,-4.56441 2.59457,-1.25289 2.59457,-1.25289 5.19029,-2.50578 3.04241,-0.7158 5.72713,-1.07371 5.72713,-1.07371 2.68451,-0.3579 5.00997,-0.3579 6.17269,-0.3579 0,0 1.16387,0 1.16387,0 -1.16387,1.52178 -1.16387,1.52178 -2.32659,3.04241 -2.32546,3.04264 -4.29416,5.63835 -4.29416,5.63835 -1.9687,2.59433 -3.5795,4.74199 -4.11634,7.42671 0,0 -0.53686,2.68452 0,5.90495 0.71581,2.32661 0.71581,2.32661 1.43184,4.65321 0.89475,1.43184 2.3266,2.95361 2.3266,2.95361 1.43184,1.52064 3.39917,3.13143 6.17269,4.38432 0,0 2.77467,1.25266 6.35416,2.14766 2.86367,-0.17896 2.86367,-0.17896 5.72713,-0.35791 z"
       id="path21251"
       inkscape:connector-curvature="0" />
    <path
       style="fill:none;stroke:#ff0000;stroke-width:0.80650431;stroke-opacity:1"
       d="m 382.64584,317.76601 c -0.98379,-0.80598 3.13256,-4.92233 6.35415,-9.1277 0,0 3.22136,-4.2065 5.54682,-8.50065 2.05771,-3.75845 2.05771,-3.75845 4.11635,-7.51689 1.78974,-3.22136 2.68472,-4.83216 2.68472,-4.83216 0.89477,-1.61078 0.89477,-1.61078 2.95248,-0.62586 0,0 2.05862,0.98377 6.17497,2.95247 1.78975,0.98491 1.78975,0.98491 3.57949,1.96869 -0.53685,0 -1.96869,3.8486 -1.96869,3.8486 -1.43161,3.84724 -3.75844,11.54194 -4.9223,15.39032 0,0 -1.16274,3.84746 -1.16274,3.84746 -1.70073,-0.26797 -1.70073,-0.26797 -3.40055,-0.53686 -3.4003,-0.53708 -8.1439,0.44784 -8.1439,0.44784 -4.74199,0.98377 -10.82588,3.48956 -11.8108,2.68474 z"
       id="path21253"
       inkscape:connector-curvature="0" />
    <path
       style="fill:none;stroke:#ff0000;stroke-width:0.80650431;stroke-opacity:1"
       d="m 31.841794,954.64879 c 0.804825,-0.98377 4.382947,0.0903 9.305717,0.89522 0,0 4.921172,0.80575 11.183799,1.34281 6.085271,0.17897 6.085271,0.17897 12.170314,0.35791 5.904723,-0.17894 12.795962,-0.35791 12.795962,-0.35791 6.889869,-0.17894 14.763289,-0.35812 21.475119,-0.89498 0,0 6.711145,-0.5373 12.259335,-1.43185 4.20628,-0.89497 4.20628,-0.89497 8.41142,-1.7895 2.86254,-0.89522 4.29438,-1.34306 4.29438,-1.34306 1.43161,-0.44691 1.43161,-0.44691 0.3579,1.25267 0,0 -1.07393,1.70095 -3.22158,5.10126 -1.78975,3.75867 -1.78975,3.75867 -3.57927,7.51711 -1.4307,4.11528 -2.14673,7.60454 -2.14673,7.60454 -0.71558,3.49072 -0.71558,6.35397 -0.17895,9.57579 0,0 0.53708,3.22134 1.60965,6.79948 1.43184,4.56352 1.43184,4.56352 2.86368,9.12737 1.78975,5.54715 2.95362,8.49955 2.95362,8.49955 1.16273,2.9541 1.69958,3.3117 -0.80597,2.6847 0,0 -2.50578,-0.6258 -8.0526,-2.2364 -7.87456,-2.6847 -7.87456,-2.6847 -15.749575,-5.3694 -10.200249,-3.75717 -18.790844,-7.33644 -18.790844,-7.33644 -8.590824,-3.57927 -15.569714,-6.97997 -20.938723,-10.47068 0,0 -5.369463,-3.48926 -9.126536,-7.06772 -3.579263,-3.75847 -3.579263,-3.75847 -7.158526,-7.51646 -3.400767,-3.9362 -6.085501,-7.42689 -6.085501,-7.42689 -2.684275,-3.48934 -4.651831,-6.5322 -3.846091,-7.51712 z"
       id="path21255"
       inkscape:connector-curvature="0" />
    <path
       style="fill:none;stroke:#ff0000;stroke-width:0.80650431;stroke-opacity:1"
       d="m 576.1714,690.94767 c -3.22023,-1.25288 -10.91607,-2.14786 -19.14875,-3.66964 0,0 -8.23156,-1.52063 -16.99995,-3.66714 -4.47449,-1.16388 -4.47449,-1.16388 -8.94873,-2.3266 -0.17896,-0.17895 0.0887,1.34168 0.0887,1.34168 0.26912,1.52178 0.98515,4.74221 1.25289,8.14253 0,0 0.26912,3.40053 0.0902,6.98002 -0.71603,3.57949 -0.71603,3.57949 -1.43184,7.15899 -1.25288,3.57812 -1.87991,5.36786 -1.87991,5.36786 -0.62565,1.78975 -0.62565,1.78975 2.05886,1.43185 0,0 2.6845,-0.35791 8.05259,-1.07394 5.10013,-1.43162 5.10013,-1.43162 10.20139,-2.86346 4.83101,-2.14651 10.20025,-4.56326 10.20025,-4.56326 5.36924,-2.4154 11.27533,-5.10013 14.85483,-7.24778 0,0 3.57949,-2.14764 4.83101,-3.75844 z"
       id="path21257"
       inkscape:connector-curvature="0" />
    <path
       style="fill:none;stroke:#ff0000;stroke-width:0.80650431;stroke-opacity:1"
       d="m 590.89223,787.40904 c 1.34304,4.11635 4.20536,10.0213 5.63721,12.97378 0,0 1.43161,2.95362 1.43161,2.95362 -3.4003,-0.71581 -3.4003,-0.71581 -6.80085,-1.43184 -6.79972,-1.43162 -10.20025,-2.14766 -10.20025,-2.14766 -3.40054,-0.7158 -3.40054,-0.7158 -3.40054,-0.7158 0,0 0,0 0,0 2.05749,-3.40055 2.05749,-3.40055 4.11635,-6.80107 4.11635,-6.79972 6.08504,-9.03753 6.08504,-9.03753 1.96869,-2.23644 1.78975,0.0902 3.13143,4.2065 z"
       id="path21259"
       inkscape:connector-curvature="0" />
    <path
       style="fill:none;stroke:#ff0000;stroke-width:0.80650431;stroke-opacity:1"
       d="m 611.11491,828.39151 c 3.49071,-2.50579 3.49071,-2.50579 0.0902,-2.77467 0,0 -3.40054,-0.26797 -10.20024,-0.80482 -7.06996,-0.80598 -7.06996,-0.80598 -14.13878,-1.6108 -7.3368,-1.07372 -15.8386,-2.32661 -15.8386,-2.32661 -8.50044,-1.25288 -18.16383,-2.68472 -23.08615,-3.40052 0,0 -4.92116,-0.71583 -5.10013,-0.71583 -0.0902,3.13144 -0.0902,3.13144 -0.17894,6.26401 0,6.26399 -0.44807,12.17009 -0.44807,12.17009 -0.44691,5.90609 -1.34168,11.45313 -2.59457,15.74843 0,0 -1.25289,4.29529 -2.86346,7.33678 -0.8062,1.52065 -0.8062,1.52065 -1.61078,3.04241 0,0 3.66827,-1.0737 3.66827,-1.0737 3.66966,-1.07394 11.00622,-3.22045 17.80729,-5.45826 0,0 6.80087,-2.23643 13.06371,-4.56304 6.08504,-2.3266 6.08504,-2.3266 12.17009,-4.65343 5.90609,-2.3266 12.34927,-5.99602 12.34927,-5.99602 6.44294,-3.66851 13.4216,-8.67847 16.91093,-11.18402 z"
       id="path21261"
       inkscape:connector-curvature="0" />
    <path
       style="fill:none;stroke:#ff0000;stroke-width:0.80650431;stroke-opacity:1"
       d="m 648.60803,929.415 c 5.19029,0.0902 5.19029,0.0902 3.04241,-2.50556 0,0 -2.14764,-2.59457 -6.44293,-7.78371 -2.14766,-2.59571 -2.14766,-2.59571 -4.2953,-5.19005 0,0 -3.04265,2.50555 -3.04265,2.50555 -3.04241,2.50555 -9.12631,7.51575 -12.16894,10.0213 0,0 -3.04241,2.50555 -3.04241,2.50555 5.19006,0.089 5.19006,0.089 10.38034,0.17895 z"
       id="path21263"
       inkscape:connector-curvature="0" />
    <path
       style="fill:none;stroke:#ff0000;stroke-width:0.80650431;stroke-opacity:1"
       d="m 605.20883,925.65656 c -2.95226,-0.62588 -7.24641,-1.34169 -13.77952,-2.50555 0,0 -6.53197,-1.16273 -15.30037,-2.77238 -8.76978,-2.59572 -8.76978,-2.59572 -17.53932,-5.19029 -8.76864,-3.57927 -17.80729,-7.60682 -17.80729,-7.60682 -9.03753,-4.02641 -18.34302,-8.49952 -22.99621,-10.55816 0,0 -4.65321,-2.05771 -4.65321,-1.6998 3.40032,-0.62703 3.40032,-0.62703 6.80085,-1.25266 6.79972,-1.6108 16.10634,-3.4907 16.10634,-3.4907 9.30662,-1.87854 21.11767,-4.0262 29.35037,-5.99489 0,0 8.23268,-1.96869 12.88474,-3.75844 5.10013,-2.05886 5.10013,-2.05886 10.20162,-4.11635 5.54683,-2.32546 10.37921,-4.65206 10.37921,-4.65206 4.83216,-2.32661 8.94849,-4.65343 11.0062,-5.8173 0,0 2.05887,-1.16272 2.05887,-1.16272 1.07371,2.50555 1.07371,2.50555 2.14765,5.01133 2.14627,5.00997 3.13006,7.51552 3.13006,7.51552 0.98492,2.50577 0.80596,2.50577 -3.57812,3.6685 0,0 -4.38432,1.16388 -12.97491,3.49047 -4.29554,1.16273 -4.29554,1.16273 -8.58947,2.3266 0,0 3.84724,2.50578 3.84724,2.50578 3.84861,2.50556 11.54308,7.51552 15.39054,10.02107 0,0 3.84836,2.50578 3.84836,2.50578 -0.62701,4.20514 -0.62701,4.20514 -1.25265,8.41164 -1.2529,8.4105 -2.68474,12.34791 -2.68474,12.34791 -1.43183,3.93738 -3.0424,3.40054 -5.99624,2.77352 z"
       id="path21265"
       inkscape:connector-curvature="0" />
    <path
       style="fill:none;stroke:#ff0000;stroke-width:0.80650431;stroke-opacity:1"
       d="m 659.07602,954.64901 c -0.80458,-0.98377 -4.38294,0.09 -9.30525,0.89477 0,0 -4.92117,0.80598 -11.18404,1.34282 -6.08504,0.17896 -6.08504,0.17896 -12.17008,0.35813 -5.90495,-0.17917 -12.79595,-0.35813 -12.79595,-0.35813 -6.88987,-0.17895 -14.76353,-0.3579 -21.47558,-0.89476 0,0 -6.71092,-0.53685 -12.25911,-1.43185 -4.2065,-0.89475 -4.2065,-0.89475 -8.41164,-1.78974 -2.86232,-0.89476 -4.29416,-1.34282 -4.29416,-1.34282 -1.43185,-0.44691 -1.43185,-0.44691 -0.35791,1.25289 0,0 1.07372,1.70073 3.22136,5.10127 1.78976,3.75844 1.78976,3.75844 3.57949,7.51688 1.43071,4.11528 2.14651,7.60454 2.14651,7.60454 0.71605,3.49039 0.71605,6.35413 0.17895,9.57547 0,0 -0.53684,3.22166 -1.60941,6.79996 -1.43185,4.56304 -1.43185,4.56304 -2.86369,9.12753 -1.78974,5.54693 -2.95361,8.49943 -2.95361,8.49943 -1.16274,2.9536 -1.6996,3.3115 0.80595,2.6845 0,0 2.50557,-0.6258 8.05261,-2.2364 7.87479,-2.6847 7.87479,-2.6847 15.74958,-5.3692 10.20025,-3.75737 18.79107,-7.3368 18.79107,-7.3368 8.59059,-3.57959 15.56925,-6.97981 20.93849,-10.47052 0,0 5.36924,-3.48926 9.12631,-7.0674 3.57949,-3.75847 3.57949,-3.75847 7.15898,-7.51694 3.40055,-3.93626 6.08504,-7.42696 6.08504,-7.42696 2.68474,-3.48934 4.65207,-6.53175 3.84609,-7.51667 z"
       id="path21267"
       inkscape:connector-curvature="0" />
    <path
       style="fill:none;stroke:#ff0000;stroke-width:0.80650431;stroke-opacity:1"
       d="m 521.04651,632.6037 c 0,0 0,0 0,0 z"
       id="path21269"
       inkscape:connector-curvature="0" />
    <path
       style="fill:none;stroke:#ff0000;stroke-width:0.80650431;stroke-opacity:1"
       d="m 552.72369,666.42719 c 0,0 0,0 -1.07393,-2.95386 0,0 -1.07394,-2.95247 -3.22159,-8.85719 -2.14764,-5.9061 -2.14764,-5.9061 -6.9798,-2.3266 -4.83101,3.57926 -7.15784,5.27907 -7.15784,5.27907 -2.3266,1.70074 -2.14765,1.52177 1.34167,2.68451 0,0 3.49071,1.16387 10.29042,3.66829 3.40054,1.25289 3.40054,1.25289 6.80107,2.50578 z"
       id="path21271"
       inkscape:connector-curvature="0" />
    <path
       style="fill:none;stroke:#ff0000;stroke-width:0.80650431;stroke-opacity:1"
       d="m 518.13283,644.59142 c -0.0753,0.32572 -0.15049,0.62861 -0.21775,0.89704 0,0 -0.62451,2.50555 -0.62566,2.32661 -4.02755,-1.6108 -4.02755,-1.6108 -8.05373,-3.22136 -8.05259,-3.0415 -15.03263,-6.621 -15.03263,-6.621 -6.97981,-3.57926 -12.88474,-7.69582 -19.3277,-11.81217 0,0 -6.44318,-4.11635 -13.42184,-8.23155 -3.4907,-2.05749 -3.4907,-2.05749 -6.98002,-4.11635 0,0 0,0 0,0 0,0 0,0 4.29415,-0.80483 0,0 4.2953,-0.80597 12.88611,-2.41653 7.51553,-1.69982 7.51553,-1.69982 15.03241,-3.40054 6.4418,-1.78975 13.24289,-4.11635 13.24289,-4.11635 6.80085,-2.32683 13.95869,-5.18913 17.53818,-6.62076 0,0 3.57927,-1.43183 3.57927,-1.43183 0,0 0,0 0,0 0,0 0.98377,3.13255 0.98377,3.13255 0.98492,3.13144 2.95361,9.3943 3.93739,12.52686 0,0 0.98492,3.13143 0.98492,3.13143 -4.47425,1.61079 -4.47425,1.61079 -8.94849,3.22158 -8.94736,3.22022 -13.51177,4.83102 -13.51177,4.83102 -1.64869,0.58204 -2.72605,0.95342 -3.26313,1.26247 0,0 6.60638,3.15837 13.21115,6.31764 3.30307,1.57907 3.30307,1.57907 6.60616,3.15835 0,0 -0.52226,2.14766 -0.52226,2.14766 -0.5211,2.14766 -1.56559,6.44181 -2.08807,8.58945 0,0 -0.13146,0.54211 -0.22986,0.94749 z"
       id="path21273"
       inkscape:connector-curvature="0" />
    <path
       style="fill:none;stroke:#ff0000;stroke-width:0.80650431;stroke-opacity:1"
       d="m 519.1424,534.69087 c 0,0 0,0 -2.6699,-0.93996 0,0 -2.66876,-0.93995 -8.00877,-2.81848 -5.33888,-1.87991 -5.33888,-1.87991 -3.01205,-6.35416 2.32661,-4.47311 3.48933,-6.70955 3.48933,-6.70955 1.16388,-2.2378 1.16388,-2.2378 2.86346,0.98355 0,0 1.70095,3.22158 5.10149,9.66339 1.69958,3.22158 1.69958,3.22158 3.40031,6.44295 z"
       id="path21275"
       inkscape:connector-curvature="0" />
    <path
       style="fill:none;stroke:#ff0000;stroke-width:0.80650431;stroke-opacity:1"
       d="m 154.83869,758.5104 c -0.37936,0.24012 -1.53136,0.96895 -5.02822,3.18141 0,0 -5.21448,3.3008 -15.64344,9.89941 -10.42919,6.60022 -10.42919,6.60022 -9.89233,10.26986 0.71603,5.90587 1.16387,8.94873 1.16387,8.94873 0.44692,3.04196 0.62587,3.22113 3.3106,2.4154 0,0 2.68474,-0.80483 7.87365,-2.59457 7.15875,-2.77444 7.15875,-2.77444 14.31751,-5.54843 9.12654,-3.75821 16.37568,-7.6068 16.37568,-7.6068 7.24754,-3.84701 12.61587,-7.78327 17.62675,-12.25774 0,0 5.01133,-4.47426 9.66476,-9.48444 3.57927,-4.29531 3.57927,-4.29531 7.15898,-8.59061 2.50418,-3.57925 3.75707,-5.36924 3.75707,-5.36924 1.25266,-1.7895 1.25266,-1.7895 -3.31015,-2.05862 0,0 -4.56327,-0.26797 -13.69094,-0.80482 -7.51575,-0.71603 -7.51575,-0.71603 -15.03263,-1.43184 -5.90587,-0.89477 -11.45428,-2.05886 -11.45428,-2.05886 -5.54797,-1.16274 -10.73711,-2.59344 -16.2853,-4.29417 0,0 -5.54819,-1.69935 -11.45314,-3.66804 -2.95224,-0.98539 -2.95224,-0.98539 -5.90609,-1.96894 0,0 -0.3579,2.68452 -0.3579,2.68452 -0.35813,2.68472 -1.07371,8.05259 -1.43184,12.34788 0,0 -0.35791,4.2953 -0.35791,7.5169 0.0904,1.69935 0.0904,1.69935 0.17918,3.40053 0.17873,0.17896 5.19029,1.34168 5.19029,1.34168 5.01087,1.16388 14.85322,3.3106 19.86455,4.29417 0,0 3.27203,0.64367 4.48361,0.79021 z"
       id="path21277"
       inkscape:connector-curvature="0" />
    <path
       style="fill:none;stroke:#ff0000;stroke-width:0.80650431;stroke-opacity:1"
       d="m 213.35476,808.16882 c 0,0 0,0 -1.16272,-1.07509 0,0 -1.16296,-1.07417 -3.48705,-3.22158 -2.50442,-1.25403 -2.50442,-1.25403 -5.00997,-2.50692 -2.68336,-0.3579 -6.62098,0.89499 -6.62098,0.89499 -3.93741,1.25289 -9.12608,4.11633 -12.97377,8.50043 0,0 -3.84861,4.38569 -6.35393,10.29064 -0.53686,5.45779 -0.53686,5.45779 -1.07394,10.91742 1.43161,5.00973 4.65343,9.30503 4.65343,9.30503 3.22136,4.29529 8.23155,7.87503 13.33281,10.29064 0,0 5.10014,2.41677 10.28928,3.66943 5.81728,-0.17896 5.81728,-0.17896 11.63299,-0.35814 6.44181,-1.61057 12.34768,-3.57926 12.34768,-3.57926 5.90632,-1.96869 11.27441,-4.2953 16.73357,-7.60705 0,0 5.45826,-3.31037 11.006,-7.60453 4.29552,-3.9374 4.29552,-3.9374 8.59081,-7.87456 3.04151,-3.57972 5.45804,-7.42832 5.45804,-7.42832 2.41585,-3.84701 4.2056,-7.96222 6.17429,-12.25751 0,0 1.96847,-4.2953 4.11612,-8.76887 0.62701,-4.38499 0.62701,-4.38499 1.25289,-8.76954 -0.89477,-4.29529 -1.96871,-8.32286 -1.96871,-8.32286 -1.0737,-4.02619 -2.32659,-7.78325 -4.74221,-11.45291 0,0 -2.41653,-3.66827 -5.99625,-7.24754 -3.84701,-2.23803 -3.84701,-2.23803 -7.69561,-4.47447 -4.11521,-0.89362 -8.23156,-1.43048 -8.23156,-1.43048 -4.11635,-0.53708 -8.23155,-0.71603 -12.16894,-0.0903 0,0 -3.93763,0.62725 -7.69584,2.05794 -4.20513,2.14743 -4.20513,2.14743 -8.41187,4.29531 -4.65229,2.86322 -7.87342,5.72691 -7.87342,5.72691 -3.22273,2.86369 -5.01499,5.7285 -6.80586,8.59174 0,0 3.57925,-0.35769 7.15761,-0.71558 3.40053,0.0887 3.40053,0.0887 6.80107,0.17895 3.22158,0.53663 6.08482,1.87854 6.08482,1.87854 2.86391,1.34281 5.36832,3.49047 7.15784,4.74336 0,0 1.78974,1.25266 2.86391,1.6108 1.9687,1.96869 1.9687,1.96869 3.93716,3.93716 2.86324,3.57834 4.38524,7.69469 4.38524,7.69469 1.52086,4.11635 1.69981,8.76841 0.80483,12.97377 0,0 -0.89477,4.20652 -2.86324,7.96473 -2.50577,3.40077 -2.50577,3.40077 -5.01155,6.80107 -3.04128,3.04151 -6.62076,5.18915 -6.62076,5.18915 -3.57926,2.14766 -7.69584,3.40054 -11.63301,3.40054 0,0 -3.93784,0 -7.69493,-1.25288 -2.50577,-0.895 -2.50577,-0.895 -5.01087,-1.78952 -1.25312,-0.53594 -1.07417,-2.14674 -1.07417,-2.14674 0.17919,-1.61057 1.78975,-4.2953 3.13258,-7.07019 0,0 1.34191,-2.77354 2.41425,-5.63675 0,-2.32661 0,-2.32661 0,-4.65321 z"
       id="path21279"
       inkscape:connector-curvature="0" />
    <path
       style="fill:none;stroke:#ff0000;stroke-width:0.80650431;stroke-opacity:1"
       d="m 297.91995,754.20916 c 0.7158,-18.25443 1.43162,-36.50821 1.78952,-45.63588 0,0 0.35813,-9.12608 0.35813,-9.12608 -1.52085,1.69935 -1.52085,1.69935 -3.04263,3.40007 -3.04264,3.3994 -5.81593,6.53083 -5.81593,6.53083 -2.77491,3.13258 -5.27931,5.99603 -7.6947,8.41143 0,0 -2.41654,2.41722 -4.74313,4.38477 -2.95271,1.96869 -2.95271,1.96869 -5.90632,3.93716 -3.57949,1.96871 -7.15876,3.9374 -7.15876,3.9374 3.93716,2.3266 7.87457,4.65343 11.36504,6.71069 0,0 3.48955,2.05885 6.53083,3.84747 2.41675,2.23643 2.41675,2.23643 4.83213,4.47424 1.78975,2.68472 3.66966,4.65343 3.66966,4.65343 1.87854,1.9687 3.84769,3.22136 5.81616,4.47447 z"
       id="path21281"
       inkscape:connector-curvature="0" />
    <path
       style="fill:none;stroke:#ff0000;stroke-width:0.80650431;stroke-opacity:1"
       d="m 169.87132,632.60348 c 0,0 0,0 0,0 z"
       id="path21283"
       inkscape:connector-curvature="0" />
    <path
       style="fill:none;stroke:#ff0000;stroke-width:0.80650431;stroke-opacity:1"
       d="m 138.19458,666.42696 c 0,0 0,0 1.07371,-2.95363 0,0 1.07394,-2.95247 3.22159,-8.85719 2.14765,-5.9061 2.14765,-5.9061 6.98003,-2.32683 4.83079,3.57927 7.15739,5.27907 7.15739,5.27907 2.3266,1.70097 2.14787,1.522 -1.34169,2.68474 0,0 -3.49047,1.16387 -10.28995,3.66852 -3.40077,1.25266 -3.40077,1.25266 -6.80108,2.50532 z"
       id="path21285"
       inkscape:connector-curvature="0" />
    <path
       style="fill:none;stroke:#ff0000;stroke-width:0.80650431;stroke-opacity:1"
       d="m 172.78819,644.60397 c 0.0747,0.32092 0.14808,0.61972 0.21456,0.88449 0,0 0.62496,2.50555 0.62587,2.32661 4.02755,-1.6108 4.02755,-1.6108 8.05351,-3.22136 8.05306,-3.0415 15.03287,-6.621 15.03287,-6.621 6.98002,-3.57926 12.88474,-7.69582 19.32769,-11.81217 0,0 6.44317,-4.11635 13.42183,-8.23155 3.49047,-2.05749 3.49047,-2.05749 6.98004,-4.11635 0,0 0,0 0,0 0,0 0,0 -4.29417,-0.80483 0,0 -4.29552,-0.80573 -12.88611,-2.41653 -7.51575,-1.69982 -7.51575,-1.69982 -15.03241,-3.40054 -6.4418,-1.78975 -13.24288,-4.11658 -13.24288,-4.11658 -6.80107,-2.3266 -13.95846,-5.18868 -17.53795,-6.62075 0,0 -3.57972,-1.43161 -3.57972,-1.43161 0,0 0,0 0,0 0,0 -0.98354,3.13255 -0.98354,3.13255 -0.98515,3.13144 -2.95363,9.3943 -3.93741,12.52686 0,0 -0.98492,3.13143 -0.98492,3.13143 4.47449,1.61102 4.47449,1.61102 8.94873,3.22158 8.94714,3.22022 13.51177,4.8308 13.51177,4.8308 1.64822,0.58226 2.72605,0.95364 3.26267,1.26292 0,0 -6.60614,3.1579 -13.21115,6.31741 -3.30285,1.5793 -3.30285,1.5793 -6.60615,3.15813 0,0 0.52225,2.14765 0.52225,2.14765 0.5211,2.14764 1.56583,6.44204 2.0883,8.58945 0,0 0.13323,0.54988 0.23259,0.9589 z"
       id="path21287"
       inkscape:connector-curvature="0" />
    <path
       style="fill:none;stroke:#ff0000;stroke-width:0.80650431;stroke-opacity:1"
       d="m 285.79119,607.10765 c 6.72552,-5.37266 13.45218,-10.74417 20.17772,-16.11707 0,0 -0.17919,8.9485 -0.35814,17.89631 -0.17896,4.47404 -0.17896,4.47404 -0.35791,8.94828 -0.17917,0 -3.57926,-1.78952 -3.57926,-1.78952 -3.40076,-1.78974 -10.02129,-5.36832 -13.33167,-7.15784 0,0 -1.56218,-0.84453 -2.38778,-1.29169 z"
       id="path21289"
       inkscape:connector-curvature="0" />
    <path
       style="fill:none;stroke:#ff0000;stroke-width:0.80650431;stroke-opacity:1"
       d="m 171.77566,534.6911 c 0,0 0,0 2.66988,-0.94019 0,0 2.66876,-0.93973 8.00901,-2.81872 5.33865,-1.8799 5.33865,-1.8799 3.01182,-6.35414 -2.3266,-4.47266 -3.48934,-6.70955 -3.48934,-6.70955 -1.16386,-2.23758 -1.16386,-2.23758 -2.86367,0.98355 0,0 -1.7005,3.22203 -5.10127,9.66384 -1.69935,3.22113 -1.69935,3.22113 -3.40031,6.44272 z"
       id="path21291"
       inkscape:connector-curvature="0" />
    <path
       style="fill:none;stroke:#ff0000;stroke-width:0.80650431;stroke-opacity:1"
       d="m 196.40343,520.19167 c 0.0292,0.91918 0.0924,1.7409 0.13968,2.39691 0,0 0.17919,2.41446 0.17919,2.59502 2.32659,-0.71603 2.32659,-0.71603 4.65342,-1.43207 4.65206,-1.61079 8.94736,-3.93739 8.94736,-3.93739 4.2953,-2.3266 8.23292,-5.36787 11.54422,-7.96221 0,0 3.31038,-2.59595 5.99373,-4.74359 3.84861,-2.23645 3.84861,-2.23645 7.69607,-4.47448 5.01134,-2.32661 9.57551,-4.3841 9.57551,-4.3841 4.56304,-2.05861 8.67849,-3.84746 10.73711,-4.74198 0,0 2.05749,-0.895 2.05749,-0.895 -3.13144,-0.53708 -3.13144,-0.53708 -6.26399,-1.07394 -6.26287,-1.0737 -13.15251,-2.59456 -13.15251,-2.59456 -6.891,-1.522 -14.40697,-3.49071 -20.84993,-5.72692 0,0 -6.44293,-2.23803 -11.8108,-4.74198 -2.68474,-1.25336 -2.68474,-1.25336 -5.36946,-2.50578 0,0 -0.98379,2.50578 -0.98379,2.50578 -0.98492,2.50555 -2.95362,7.5155 -3.93716,10.02107 0,0 -0.98515,2.50555 -0.98515,2.50555 4.29552,0.89475 4.29552,0.89475 8.59082,1.78975 8.58945,1.78974 12.88476,2.68472 12.88476,2.68472 4.29552,0.89453 4.29552,0.89453 2.05885,2.05841 0,0 -2.23759,1.16272 -6.71091,3.4884 -4.11635,2.41655 -4.11635,2.41655 -8.21581,4.53383 -4.10037,2.11753 -6.1275,3.19831 -6.1275,3.19831 -2.02713,1.08125 -1.98353,1.1253 -1.65211,3.60757 0,0 0.32983,2.48113 0.94726,7.39865"
       id="path21293"
       inkscape:connector-curvature="0" />
    <path
       style="fill:none;stroke:#ff0000;stroke-width:0.80650431;stroke-opacity:1"
       d="m 317.26478,411.40774 c 0,0 0,0 -1.81167,-2.97554 0,0 -1.81302,-2.97529 -5.43589,-8.92544 -1.8121,-3.06455 -1.8121,-3.06455 -3.62491,-6.13001 0,-0.17917 1.07416,-0.62588 1.07416,-0.62588 1.07349,-0.44829 3.22113,-1.16386 5.30191,-2.03557 0,0 2.08077,-0.8733 4.09351,-1.90227 2.01367,-1.02851 2.01367,-1.02851 1.47658,6.84627 z"
       id="path21295"
       inkscape:connector-curvature="0" />
    <path
       style="fill:none;stroke:#ff0000;stroke-width:0.80650431;stroke-opacity:1"
       d="m 228.54421,337.98868 c 4.29529,-0.26911 8.58944,-0.53686 10.7371,-0.67083 0,0 2.14764,-0.13533 2.14764,-0.13533 0,0 0,0 -1.43161,3.22182 -1.43206,3.22135 -2.41585,6.80107 -2.41585,6.80107 -0.98492,3.57927 -1.52178,7.51553 -1.78975,9.48422 0,0 -0.26864,1.96847 -0.26864,1.96847 -4.02665,-3.31016 -4.02665,-3.31016 -8.05261,-6.6219 -8.05419,-6.62098 -11.81127,-9.84211 -11.81127,-9.84211 -3.75844,-3.22183 -3.22136,-3.04286 0.17896,-3.22183 0,0 3.40076,-0.17872 9.66317,-0.71558 3.04286,-0.26797 3.04286,-0.26797 6.08549,-0.53708"
       id="path21297"
       inkscape:connector-curvature="0" />
    <path
       style="fill:none;stroke:#ff0000;stroke-width:0.80650431;stroke-opacity:1"
       d="m 270.87176,317.42202 c -0.35881,0.0248 -0.71763,0.05 -1.07644,0.0752 0,0 -4.26609,0.2981 -8.53057,0.59665 -2.13327,0.14921 -2.13327,0.14921 -4.26609,0.29788 0,0 0,0 0,0 1.4314,-4.2953 2.86324,-8.5906 3.57927,-10.73825 0,0 0.71604,-2.14764 0.71604,-2.14764 2.68405,1.70072 2.68405,1.70072 5.36877,3.4003 5.3681,3.40055 8.05261,5.10149 8.05261,5.10149 2.68472,1.69937 2.68472,1.69937 1.16409,2.05749 0,0 -1.522,0.35791 -4.56326,1.07395 -1.52086,0.35813 -1.52086,0.35813 -3.04286,0.7158 0,0 0.53731,-0.0887 0.53731,-0.0887 0.43231,-0.0729 1.2127,-0.20269 2.06113,-0.34399 z"
       id="path21299"
       inkscape:connector-curvature="0" />
    <path
       style="fill:none;stroke:#ff0000;stroke-width:0.80650431;stroke-opacity:1"
       d="m 477.56352,808.16882 c -1.07394,1.78974 -2.14651,3.57812 -2.14651,5.90472 0,0 0,2.32683 1.07257,5.19028 1.34168,2.77353 1.34168,2.77353 2.68472,5.5482 1.6108,2.68449 1.78975,4.29529 1.78975,4.29529 0.17896,1.6108 -1.07394,2.14651 -3.57949,3.04127 0,0 -2.50555,0.89499 -6.26285,2.14788 -3.9374,0 -3.9374,0 -7.87479,0 -4.11634,-1.25289 -7.69584,-3.40055 -7.69584,-3.40055 -3.57949,-2.14764 -6.62075,-5.18914 -9.12653,-8.58944 0,0 -2.50555,-3.40055 -4.47426,-7.15899 -0.89475,-4.20651 -0.89475,-4.20651 -1.78974,-8.41164 0.17896,-4.65229 1.69959,-8.76864 1.69959,-8.76864 1.522,-4.11635 4.38545,-7.69447 6.35416,-9.66316 0,0 1.96869,-1.9687 3.04263,-2.32683 1.78975,-1.25267 1.78975,-1.25267 3.57949,-2.50556 2.50441,-2.14765 5.36787,-3.49047 5.36787,-3.49047 2.86369,-1.34168 6.08504,-1.87876 9.48557,-1.9687 0,0 3.40055,-0.089 6.97867,0.26888 3.57949,0.35814 3.57949,0.35814 1.7886,-2.50555 -1.79225,-2.86481 -5.01497,-5.72827 -5.01497,-5.72827 -3.22138,-2.86369 -7.87344,-5.72715 -12.07994,-7.87479 0,0 -4.20537,-2.14766 -7.96381,-3.57835 -3.93739,-0.62702 -3.93739,-0.62702 -7.87479,-1.25266 -4.1152,0.17895 -8.23155,0.7158 -8.23155,0.7158 -4.11634,0.53686 -8.23154,1.43047 -12.07992,3.66715 0,0 -3.84746,2.2378 -7.42673,5.8173 -2.41675,3.66827 -2.41675,3.66827 -4.83238,7.3377 -1.25289,3.75729 -2.3266,7.78348 -2.3266,7.78348 -1.07394,4.02757 -1.96869,8.32286 -1.34281,12.70718 0,0 0.627,4.38545 2.77466,8.85856 1.96869,4.2953 1.96869,4.2953 3.93739,8.5906 1.78974,4.1152 4.20514,7.96266 4.20514,7.96266 2.41676,3.84838 5.45802,7.42788 9.75354,11.36526 0,0 4.2953,3.9374 9.8435,8.23156 5.45802,3.31037 5.45802,3.31037 10.9172,6.6219 5.36809,2.32683 11.27417,4.29552 11.27417,4.29552 5.9061,1.96869 12.3479,3.57949 18.16383,3.75844 0,0 5.8173,0.17896 11.00622,-1.07394 5.10012,-2.41676 5.10012,-2.41676 10.20162,-4.83214 5.00995,-3.57949 8.23155,-7.87503 8.23155,-7.87503 3.22136,-4.2953 4.65321,-9.30526 4.11635,-14.76466 0,0 -0.53708,-5.45802 -3.04263,-11.36274 -3.84861,-4.38547 -3.84861,-4.38547 -7.69584,-8.76979 -5.18892,-2.86344 -9.12631,-4.11633 -9.12631,-4.11633 -3.9374,-1.25289 -6.62077,-0.89499 -9.12655,0.3579 0,0 -2.5044,1.25403 -4.82849,3.40169 -1.16274,1.07392 -1.16274,1.07392 -2.32546,2.14901 z"
       id="path21301"
       inkscape:connector-curvature="0" />
    <path
       style="fill:none;stroke:#ff0000;stroke-width:0.80650431;stroke-opacity:1"
       d="m 392.99809,754.20894 c -0.7158,-18.25399 -1.43161,-36.50799 -1.78974,-45.63566 0,0 -0.3579,-9.12631 -0.3579,-9.12631 1.52064,1.69958 1.52064,1.69958 3.04264,3.40055 3.04241,3.39915 5.81593,6.53058 5.81593,6.53058 2.77466,3.13258 5.27907,5.99625 7.69469,8.41165 0,0 2.41676,2.41676 4.74336,4.38432 2.95248,1.96869 2.95248,1.96869 5.9061,3.93739 3.57949,1.96871 7.15898,3.9374 7.15898,3.9374 -3.9374,2.3266 -7.87479,4.65343 -11.36548,6.71092 0,0 -3.48935,2.05884 -6.53061,3.84724 -2.41675,2.23666 -2.41675,2.23666 -4.83238,4.47447 -1.78974,2.68449 -3.66942,4.6532 -3.66942,4.6532 -1.87876,1.9687 -3.84746,3.22158 -5.81617,4.47425 z"
       id="path21303"
       inkscape:connector-curvature="0" />
    <path
       style="fill:none;stroke:#ff0000;stroke-width:0.80650431;stroke-opacity:1"
       d="m 405.12687,607.10788 c -6.72529,-5.37289 -13.45219,-10.7444 -20.1775,-16.1173 0,0 0.17897,8.94873 0.35791,17.89609 0.17895,4.47426 0.17895,4.47426 0.3579,8.94873 0.17896,0 3.57949,-1.78975 3.57949,-1.78975 3.40055,-1.78974 10.0213,-5.36809 13.33168,-7.15784 0,0 1.56196,-0.84476 2.38754,-1.29169 z"
       id="path21305"
       inkscape:connector-curvature="0" />
    <path
       style="fill:none;stroke:#ff0000;stroke-width:0.80650431;stroke-opacity:1"
       d="m 494.51485,520.19167 c -0.0292,0.91918 -0.0926,1.7409 -0.14017,2.39714 0,0 -0.17894,2.41448 -0.17894,2.59457 -2.32661,-0.71581 -2.32661,-0.71581 -4.65319,-1.43185 -4.65207,-1.61079 -8.9476,-3.93739 -8.9476,-3.93739 -4.2953,-2.3266 -8.23269,-5.36787 -11.54421,-7.96244 0,0 -3.31038,-2.59572 -5.99375,-4.74336 -3.8486,-2.23668 -3.8486,-2.23668 -7.69582,-4.47426 -5.01135,-2.32683 -9.57576,-4.38432 -9.57576,-4.38432 -4.56326,-2.05886 -8.67824,-3.84723 -10.7371,-4.74221 0,0 -2.05772,-0.89477 -2.05772,-0.89477 3.13143,-0.53708 3.13143,-0.53708 6.26424,-1.07394 6.26284,-1.0737 13.15271,-2.59433 13.15271,-2.59433 6.89101,-1.522 14.40654,-3.49069 20.8497,-5.72715 0,0 6.44295,-2.23781 11.81082,-4.74221 2.68472,-1.25289 2.68472,-1.25289 5.36924,-2.50578 0,0 0.98377,2.50578 0.98377,2.50578 0.98492,2.50555 2.95361,7.51551 3.9374,10.0213 0,0 0.98492,2.50555 0.98492,2.50555 -4.29529,0.89475 -4.29529,0.89475 -8.59061,1.78975 -8.58944,1.78974 -12.88474,2.68449 -12.88474,2.68449 -4.29552,0.895 -4.29552,0.895 -2.05886,2.05886 0,0 2.23781,1.16273 6.71092,3.48818 4.11635,2.41677 4.11635,2.41677 8.21557,4.53383 4.10061,2.1173 6.12772,3.19853 6.12772,3.19853 2.02714,1.08103 1.98331,1.12485 1.65211,3.60735 0,0 -0.32983,2.48136 -0.94725,7.39887"
       id="path21307"
       inkscape:connector-curvature="0" />
    <path
       style="fill:none;stroke:#ff0000;stroke-width:0.80650431;stroke-opacity:1"
       d="m 373.65328,411.40774 c 0,0 0,0 1.81165,-2.97554 0,0 1.81281,-2.97551 5.43612,-8.92544 1.81166,-3.06455 1.81166,-3.06455 3.62446,-6.13023 0,-0.17895 -1.07372,-0.62588 -1.07372,-0.62588 -1.07392,-0.44807 -3.22158,-1.16387 -5.30234,-2.03557 0,0 -2.08054,-0.87308 -4.09308,-1.90182 -2.01389,-1.02874 -2.01389,-1.02874 -1.47703,6.84604 z"
       id="path21309"
       inkscape:connector-curvature="0" />
    <path
       style="fill:none;stroke:#ff0000;stroke-width:0.80650431;stroke-opacity:1"
       d="m 462.37385,337.98868 c -4.2953,-0.26911 -8.58946,-0.53686 -10.7371,-0.67083 0,0 -2.14766,-0.13517 -2.14766,-0.13517 0,0 0,0 1.43185,3.22158 1.43184,3.22135 2.41539,6.80085 2.41539,6.80085 0.98514,3.57949 1.522,7.51575 1.78974,9.48444 0,0 0.26912,1.96869 0.26912,1.96869 4.02618,-3.31038 4.02618,-3.31038 8.0526,-6.62212 8.05374,-6.62076 11.81103,-9.84234 11.81103,-9.84234 3.75846,-3.22137 3.22137,-3.04241 -0.17894,-3.22137 0,0 -3.40055,-0.17895 -9.66339,-0.71603 -3.04264,-0.26775 -3.04264,-0.26775 -6.08505,-0.53686"
       id="path21311"
       inkscape:connector-curvature="0" />
    <path
       style="fill:none;stroke:#ff0000;stroke-width:0.80650431;stroke-opacity:1"
       d="m 420.04263,317.42134 c 0.35996,0.0252 0.71992,0.0505 1.07988,0.0755 0,0 4.26607,0.29832 8.53101,0.59665 2.13304,0.14969 2.13304,0.14969 4.26609,0.2981 0,0 0,0 0,0 -1.43161,-4.2953 -2.86345,-8.59059 -3.5795,-10.73825 0,0 -0.7158,-2.14764 -0.7158,-2.14764 -2.6845,1.70072 -2.6845,1.70072 -5.36924,3.40053 -5.36787,3.40032 -8.05259,5.10127 -8.05259,5.10127 -2.68451,1.69959 -2.68451,1.69959 -1.16388,2.05749 0,0 1.522,0.35791 4.56328,1.07394 1.52063,0.35791 1.52063,0.35791 3.04241,0.7158 0,0 -0.53686,-0.0887 -0.53686,-0.0887 -0.433,-0.0729 -1.215,-0.20316 -2.0648,-0.34467 z"
       id="path21313"
       inkscape:connector-curvature="0" />
    <path
       style="fill:none;stroke:#ff0000;stroke-width:0.80650431;stroke-opacity:1"
       d="m 345.45902,288.19125 c 0.002,2.4e-4 0.005,2.4e-4 0.006,2.4e-4 0,0 3.93739,0.089 8.4105,-0.62565 3.31038,-1.34169 3.31038,-1.34169 6.62213,-2.68472 2.14764,-1.96871 3.57927,-4.11635 3.57927,-4.11635 1.43183,-2.14766 2.14649,-4.47426 0.98262,-6.08505 0,0 -1.16272,-1.6108 -4.204,-2.50555 -1.70095,-1.6108 -1.70095,-1.6108 -3.40052,-3.2216 -0.35792,-2.32545 0.35789,-5.00995 0.35789,-5.00995 0.71605,-2.68452 2.50555,-5.72715 4.83238,-7.60568 0,0 2.3266,-1.87991 5.18892,-2.59571 2.6845,0.627 2.6845,0.627 5.36924,1.25266 2.50555,1.96869 4.38409,4.11635 4.38409,4.11635 1.8799,2.14786 3.13279,4.47447 4.11658,7.24913 0,0 0.98491,2.77354 1.70072,5.99375 0,3.40054 0,3.40054 0,6.80085 -0.71581,3.57949 -2.3266,7.33793 -2.3266,7.33793 -1.6108,3.75845 -4.11635,7.69469 -7.15899,10.91629 0,0 -3.04241,3.22136 -6.62075,5.72713 -3.04241,2.14766 -3.04241,2.14766 -6.08505,4.2953 -2.50555,1.78838 -6.44295,2.95248 -6.44295,2.95248 -2.66145,0.78633 -5.97799,1.28552 -9.31233,1.36108 0,0 -3.33388,-0.0755 -6.6502,-0.57475 -2.66146,-0.78633 -2.66146,-0.78633 -6.59907,-1.95043 -2.50555,-1.78815 -5.54819,-3.93602 -5.54819,-3.93602 -3.04241,-2.14743 -6.62077,-4.65321 -9.66318,-7.87479 0,0 -3.04263,-3.22137 -5.54818,-7.15761 -1.61078,-3.75868 -1.61078,-3.75868 -3.22158,-7.51712 -0.71603,-3.57927 -0.71603,-6.98004 -0.71603,-6.98004 0,-3.4003 0.71603,-6.62029 1.70117,-9.39382 0,0 0.98355,-2.77512 2.23644,-5.10172 1.87969,-2.14764 1.87969,-2.14764 3.75844,-4.2953 2.50556,-1.96869 5.19006,-2.59435 5.19006,-2.59435 2.68474,-0.627 5.54704,0.0886 7.87365,1.96871 0,0 2.3266,1.87876 4.11635,4.92094 0.71603,2.68474 0.71603,2.68474 1.43207,5.36924 -0.35813,2.32523 -2.05773,3.93625 -2.05773,3.93625 -1.70117,1.6108 -4.74244,2.50578 -5.90495,4.11658 0,0 -1.16409,1.61056 -0.44919,3.93716 1.43184,2.14766 1.43184,2.14766 2.86345,4.29554 2.14765,1.96847 5.4594,3.31128 5.4594,3.31128 3.31015,1.34191 7.78348,2.05634 11.72065,1.96756 0,0 0.002,0 0.005,0 z"
       id="path21315"
       inkscape:connector-curvature="0" />
    <path
       style="fill:none;stroke:#ff0000;stroke-width:0.80650431;stroke-opacity:1"
       d="m 345.45949,247.11544 c 0.46517,0.26182 0.66969,-0.0292 0.98879,-0.62199 0,0 0.62702,-1.1641 1.70072,-3.48955 1.25289,-1.78975 1.25289,-1.78975 2.50555,-3.57927 1.43185,-1.25289 3.13143,-2.95247 3.13143,-2.95247 1.70095,-1.70096 3.66966,-3.8486 4.56441,-4.92254 0,0 0.895,-1.07372 0.71604,-1.07372 -2.41676,-4.92116 -2.41676,-4.92116 -4.83238,-9.84234 -4.6532,-9.84349 -6.97865,-14.94362 -6.97865,-14.94362 -0.81693,-1.78973 -1.349,-2.99744 -1.79661,-3.60277 0,0 -0.44738,0.60533 -0.9792,1.81327 -0.81693,1.7895 -0.81693,1.7895 -3.14239,6.88963 -4.65343,9.84349 -7.06881,14.76443 -7.06881,14.76443 -2.41655,4.92163 -2.59572,4.92163 -1.70097,5.99512 0,0 0.89499,1.07416 2.86369,3.22182 1.70072,1.70048 1.70072,1.70048 3.40032,3.40008 1.43206,1.25288 2.68449,3.04286 2.68449,3.04286 1.25336,1.78974 2.32683,4.11497 2.95408,5.27931 0,0 0.31886,0.59254 0.52339,0.8838 0.46586,-0.26228 0.46597,-0.26233 0.46589,-0.26216 z"
       id="path21317"
       inkscape:connector-curvature="0" />
    <path
       style="fill:none;stroke:#ff0000;stroke-width:0.80650431;stroke-opacity:1"
       d="m 166.92889,1037.2385 c -12.24153,-0.089 -24.3929,-0.089 -35.74059,-0.7149 0,0 -11.34791,-0.6249 -21.89214,-1.8759 l -15.904332,-3.217 c -5.360334,-1.9646 -10.900306,-4.2877 -10.900306,-4.2877 -5.540199,-2.3234 -11.257981,-5.004 -16.529296,-7.9536 0,0 -5.272912,-2.9481 -10.098218,-6.1649 -4.646582,-3.217 -4.646582,-3.217 -9.293163,-6.4338 -4.46649,-3.2157 -8.755626,-6.87981 -8.755626,-6.87981 -4.289362,-3.6633 -8.398405,-7.77228 -12.418883,-12.86632 0,0 -4.021849,-5.09275 -7.953538,-11.16912 -3.216794,-6.34509 -3.216794,-6.34509 -6.433815,-12.68875 -2.5007604,-6.61139 -4.4664904,-11.88408 -4.4664904,-11.88408 -1.9659574,-5.27131 -3.3957444,-9.20186 -4.3779247,-12.86626 0,0 -0.9835497,-3.66303 -1.51972024,-7.05741 -0.26751586,-2.14445 -0.26751586,-2.14445 -0.53617051,-4.28914 0,-0.8936 2.94950725,-0.8936 2.94950725,-0.8936 2.9481393,0 8.8444146,0.8936 13.2237106,1.6973 0,0 4.377699,0.80483 7.237274,1.51834 2.591833,-2.23438 2.591833,-2.23438 5.182752,-4.46785 2.322035,-5.18139 4.377926,-8.75585 4.377926,-8.75585 2.054522,-3.57425 3.841756,-5.53997 2.680624,-7.14848 0,0 -1.162273,-1.60851 -5.271543,-2.85822 -4.199203,-1.34099 -4.199203,-1.34099 -8.399547,-2.68084 -4.289135,-1.42956 -6.433817,-2.14446 -6.433817,-2.14446 -2.144453,-0.7149 -2.144453,-0.7149 -1.250835,-1.42979 l 2.680623,-2.14444 c 2.770785,-1.69845 2.770785,-1.69845 5.540199,-3.39576 3.751823,-1.96572 6.968619,-3.93169 6.968619,-3.93169 3.217021,-1.96573 5.897644,-3.93055 7.059919,-5.00265 0,0 1.16113,-1.07234 0.803685,-1.25107 l -0.357448,0 c 0,0.17873 -0.267514,-2.05589 -0.267514,-2.05589 -0.268657,-2.23324 -0.804827,-6.87982 -1.698443,-11.25912 0,0 -0.893619,-4.37793 -2.144455,-8.48697 -0.803685,-2.9495 -0.803685,-2.9495 -1.60851,-5.89765 l -0.536171,-2.68085 c -0.178724,-0.89338 -0.178724,-0.89338 1.162273,-0.0898 0,0 1.339628,0.80482 4.020479,2.41333 2.055891,1.51836 2.055891,1.51836 4.110412,3.03807 1.429787,1.42979 3.664173,2.76965 3.664173,2.76965 2.233474,1.34076 5.270403,2.59183 7.236133,3.57423 0,0 1.965957,0.98355 2.859575,1.69708 2.859347,-1.07212 2.859347,-1.07212 5.718922,-2.14446 4.823936,-2.85821 7.147341,-4.46671 7.147341,-4.46671 2.323178,-1.60851 2.144455,-1.96595 -0.0888,-4.28914 0,0 -2.234614,-2.32341 -6.522379,-6.61117 l -8.221052,-7.8636 c -3.930545,-3.57425 -6.69996,-7.0597 -6.69996,-7.0597 -2.770557,-3.48453 -4.379068,-6.8789 -5.98758,-9.73825 0,0 -1.608282,-2.85935 -3.216794,-5.18276 -1.251064,-2.85934 -1.251064,-2.85934 -2.502128,-5.71892 -0.893389,-3.39438 -1.339628,-5.09259 -1.339628,-5.09259 -0.447379,-1.6973 -0.447379,-1.6973 2.501901,-1.60851 0,0 2.948367,0.0898 8.844644,0.26752 l 11.080398,0 c 5.182753,-0.17759 9.829334,-0.62498 9.829334,-0.62498 4.646582,-0.44624 8.755853,-1.16112 10.721583,-1.33984 0,0 1.965957,-0.17872 1.787234,0.17872 1.250837,-4.37908 1.250837,-4.37908 2.501901,-8.75699 2.680852,-9.11331 3.843125,-13.58116 3.843125,-13.58116 1.160903,-4.46786 0.803457,-4.28914 -4.736743,-5.45141 0,0 -5.53997,-1.16091 -16.261781,-3.66303 -5.450267,-1.341 -5.450267,-1.341 -10.901675,-2.68062 -0.178724,-0.17873 4.646581,-2.85958 4.646581,-2.85958 4.825306,-2.68063 14.6535,-7.86224 19.568737,-10.45407 l 4.914097,-2.59093 c -0.893618,-5.36123 -0.893618,-5.36123 -1.787235,-10.72157 -1.787003,-10.723 -2.680621,-16.08448 -2.680621,-16.08448 -0.893616,-5.36009 -0.893616,-5.36009 3.931689,-2.32202 0,0 4.825306,3.0383 14.474775,9.11329 4.825305,3.03807 4.825305,3.03807 9.650606,6.07637 l 2.50191,-3.6644 c 2.50212,-3.66303 7.50478,-10.98909 10.05074,-14.74206 0,0 2.54572,-3.75296 2.63314,-3.93305 -1.92213,-1.25084 -1.92213,-1.25084 -3.84403,-2.50191 -3.93192,-2.32341 -7.41623,-4.91524 -7.41623,-4.91524 -3.48545,-2.59091 -6.52238,-5.44911 -9.560679,-8.4872 0,0 -3.038071,-3.03807 -6.076142,-6.25508 -2.502128,-2.94928 -2.502128,-2.94928 -5.004028,-5.89742 -1.964588,-2.67971 -3.930547,-5.36033 -3.930547,-5.36033 -1.965958,-2.68063 -3.931688,-5.36148 -4.914096,-6.79127 0,0 -0.983549,-1.42956 -0.983549,-1.60828 2.592059,-0.35745 2.592059,-0.35745 5.182751,-0.71491 5.181611,-0.53616 10.006917,-0.98354 10.006917,-0.98354 4.825305,-0.44624 9.291793,-0.80368 13.671093,-1.33985 0,0 4.37792,-0.53618 8.66706,-1.25084 l 6.07614,-1.07234 c 1.78723,-0.35745 2.68085,-0.62611 2.68085,-0.62611 0.89362,-0.2675 0.89362,-0.44624 1.341,-4.55663 0,0 0.44601,-4.11042 1.33848,-12.15138 0.53617,-3.93169 0.53617,-3.93169 1.07235,-7.86361 0.17872,0.17872 -5.45027,-0.35744 -5.45027,-0.35744 -5.62899,-0.53594 -17.06661,-1.78586 -22.784391,-2.41197 l -5.718923,-0.62496 c 4.915466,-4.46787 4.915466,-4.46787 9.829334,-8.93573 9.82819,-8.93456 14.74343,-13.40242 14.74343,-13.40242 4.9141,-4.46786 4.9141,-4.46786 3.57424,-9.47189 0,0 -1.34077,-5.00402 -4.02162,-15.01073 -1.33962,-5.00402 -1.33962,-5.00402 -2.68062,-10.00805 l 4.8253,2.94929 c 4.82531,2.94837 14.47455,8.84464 19.29986,11.79414 l 4.8253,2.94814 c 2.77079,-2.14469 2.77079,-2.14469 5.5402,-4.28913 5.53906,-4.28799 8.30961,-6.61118 8.30961,-6.61118 2.76965,-2.32341 2.76965,-2.68085 0.17873,-4.46808 0,0 -2.59183,-1.787 -7.77345,-5.00266 -4.11041,-2.85958 -4.11041,-2.85958 -8.22082,-5.71893 -3.0383,-2.50188 -5.98644,-5.00402 -5.98644,-5.00402 -2.94928,-2.5019 -5.80885,-5.00403 -8.31075,-7.68466 0,0 -2.50213,-2.68085 -4.64544,-5.53905 -2.23325,-3.39552 -2.23325,-3.39552 -4.46786,-6.79103 -2.32341,-3.93192 -3.48431,-5.89766 -3.48431,-5.89766 -1.16227,-1.96595 -1.16227,-1.96595 1.69707,-1.78723 0,0 2.85958,0.17872 8.57713,0.53617 l 8.93572,-0.35745 c 3.21702,-0.71488 6.8812,-1.51834 6.8812,-1.51834 3.66303,-0.80482 7.7723,-1.69845 9.64947,-2.05589 0,0 1.87579,-0.35744 1.51835,-0.17872 1.25106,-2.94815 1.25106,-2.94815 2.50212,-5.89766 2.85935,-6.07499 4.5578,-10.45293 4.5578,-10.45293 1.69707,-4.37906 2.23324,-7.05876 2.41196,-8.3096 0,0 0.17872,-1.25107 0,-1.07235 -4.64658,-1.78723 -4.64658,-1.78723 -9.29316,-3.57423 -9.1133,-3.7532 -13.75988,-5.71892 -13.75988,-5.71892 -4.64658,-1.96597 -4.82531,-2.14469 -0.62473,-4.28914 0,0 4.1992,-2.14469 12.77633,-6.25395 4.37906,-2.05453 4.37906,-2.05453 8.75699,-4.11042 0.17872,0 -0.62496,-4.02047 -0.62496,-4.02047 -0.80483,-4.02163 -2.59206,-12.06258 -3.48545,-16.08307 l -0.89362,-4.02162 c 3.93169,2.32319 3.93169,2.32319 7.86338,4.64658 7.86223,4.64523 11.79392,6.96862 11.79392,6.96862 3.93192,2.32318 3.93192,2.32318 5.80886,0.35746 0,0 1.87603,-1.96597 5.62784,-5.89652 1.78702,-2.05452 1.78702,-2.05452 3.57425,-4.11041 -0.17872,-0.17872 -2.05475,-1.60851 -2.05475,-1.60851 -1.87695,-1.42956 -5.45005,-4.11041 -9.11308,-6.96976 0,0 -3.6644,-2.85935 -7.41623,-5.8965 -2.85934,-3.12686 -2.85934,-3.12686 -5.71868,-6.25486 -1.96596,-3.21703 -3.84176,-6.16516 -3.84176,-6.16516 -1.87717,-2.94929 -3.6644,-5.62877 -5.18275,-8.39842 0,0 -1.51972,-2.77055 -2.77079,-5.63012 -0.62496,-1.42957 -0.62496,-1.42957 -1.25106,-2.85935 l 1.341,0.35746 c 1.33985,0.35744 4.02048,1.07232 6.96998,1.6085 0,0 2.94814,0.53594 6.1638,0.89339 1.69843,0.17872 1.69843,0.17872 3.39551,0.35744 0.17872,0 2.05589,-4.28914 2.05589,-4.28914 1.8758,-4.28913 5.45026,-12.86626 7.23727,-17.15539 l 1.78724,-4.28914 c -4.19921,-1.6973 -4.19921,-1.6973 -8.39954,-3.39551 -8.39841,-3.39438 -12.50882,-5.00289 -12.50882,-5.00289 -4.11064,-1.60851 -3.93192,-1.42979 0.26865,-3.48431 0,0 4.1992,-2.05589 12.41889,-6.34503 4.11041,-2.14444 4.11041,-2.14444 8.22082,-4.28913 l -0.26751,-3.84175 c -0.26867,-3.8429 -0.80483,-11.52664 -1.07235,-15.36839 l -0.26864,-3.8429 c 3.57445,3.21679 3.57445,3.21679 7.1487,6.43381 7.14734,6.43245 10.6328,9.56069 10.6328,9.56069 3.48453,3.12685 3.30581,2.94812 5.27153,0.89338 0,0 1.96597,-2.05567 6.07524,-5.98622 2.05565,-2.05474 2.05565,-2.05474 4.1104,-4.11039 0,-0.17874 -1.42979,-1.78725 -1.42979,-1.78725 -1.42979,-1.60851 -4.28799,-4.64658 -7.0574,-7.77344 0,0 -2.77079,-3.12822 -5.45142,-6.34388 -2.23324,-3.30559 -2.23324,-3.30559 -4.46785,-6.61231 -1.78723,-3.39575 -3.39552,-6.70134 -3.39552,-6.70134 -1.6085,-3.30671 -3.03692,-6.52238 -3.84062,-9.56067 0,0 -0.80482,-3.03807 -0.98355,-5.89742 -0.0887,-1.42979 -0.0887,-1.42979 -0.17872,-2.85957 l 1.96597,0.98355 c 1.96573,0.9824 5.89627,2.94812 9.47051,4.02047 0,0 3.57447,1.07234 6.79126,1.25106 3.30673,0.35745 3.30673,0.35745 6.61232,0.7149 3.39437,0.53617 7.23749,0.80483 7.23749,0.80483 3.84177,0.2675 8.12976,0.2675 12.24017,-0.17874 0,0 4.11041,-0.44736 8.04209,-1.34099 2.14469,-0.71488 2.14469,-0.71488 4.28914,-1.42978 0.35745,-0.53617 0.17873,-2.68063 0.17873,-2.68063 -0.17873,-2.14467 -0.89362,-5.8965 -1.25106,-7.6835 0,0 -0.35746,-1.78725 -0.35746,-1.60853 l -7.32721,0 c -7.32606,-0.17872 -10.98908,-0.2675 -10.98908,-0.2675 -3.66441,-0.09 -3.66441,-0.09 -0.80483,-3.66417 0,0 2.85935,-3.57425 8.57712,-10.72182 l 5.7187,-7.14848 -1.1609,-3.93169 c -1.16228,-3.93168 -3.48431,-11.79414 -4.64545,-15.72584 l -1.16227,-3.93169 c 3.57448,1.60851 3.57448,1.60851 7.14871,3.21679 7.14734,3.21566 10.90031,4.73538 10.90031,4.73538 3.75296,1.51858 4.10927,1.33986 6.70133,-2.23439 0,0 2.5907,-3.57446 7.416,-10.54308 2.41333,-3.39551 2.41333,-3.39551 4.8253,-6.79104 0,0.17872 0.89362,4.5578 0.89362,4.5578 0.89362,4.37792 2.68063,12.95506 3.57425,17.06545 0,0 0.8936,4.11042 0.8936,3.75297 2.85935,-0.26751 2.85935,-0.26751 5.71893,-0.53616 5.71755,-0.17872 8.5769,-0.0887 8.5769,-0.0887 2.85957,0.0887 2.85957,0.44623 2.59207,-2.14445 0,0 -0.26866,-2.59207 -0.80483,-8.1309 0.26865,-4.73538 0.26865,-4.73538 0.53617,-9.47188 1.07234,-3.93192 2.14468,-7.95241 2.14468,-7.95241 1.07211,-4.02161 2.14331,-8.13088 3.75159,-12.06258 0,0 1.60852,-3.93167 3.75319,-7.6835 l 6.4336,-9.29317 c 4.28914,-5.5402 8.13226,-10.63302 8.13226,-10.63302 3.84175,-5.09396 7.23613,-9.73939 10.45292,-13.67108 0,0 3.2168,-3.9317 6.25509,-7.14849 3.66418,-3.93169 3.66418,-3.93169 7.3272,-7.86361 4.26861,-4.66232 6.70135,-7.41485 6.70135,-7.41485 1.36518,-1.54505 1.68246,-1.89656 2.24305,-2.28551 0,0 0.5606,0.38895 0.87788,0.74046 1.36518,1.54505 1.36518,1.54505 3.79792,4.29758 4.26859,4.66232 7.93162,8.59424 7.93162,8.59424 3.66417,3.93169 6.70248,7.14848 9.91927,11.08018 0,0 3.21679,3.93169 6.61118,8.57712 3.84175,5.09396 3.84175,5.09396 7.68487,10.18678 4.28913,5.5402 7.50593,10.18679 7.50593,10.18679 3.2168,4.64658 5.36147,8.39841 6.96998,12.33008 0,0 1.60829,3.9317 2.67948,8.04097 1.07212,4.02161 1.07212,4.02161 2.14447,8.0421 1.07234,3.93192 1.33984,8.66842 1.33984,8.66842 0.26867,4.73538 -0.2675,10.27421 -0.53616,12.86628 0,0 -0.26752,2.59068 -0.26752,2.23324 2.85958,-0.0887 2.85958,-0.0887 5.71892,-0.17872 5.71755,0.17872 8.57714,0.44737 8.57714,0.44737 2.85934,0.26752 2.85934,0.62496 3.75296,-3.48546 0,0 0.89362,-4.11039 2.68063,-12.68753 0.89362,-4.37792 0.89362,-4.37792 1.78723,-8.757 0,-0.17872 2.41196,3.21681 2.41196,3.21681 2.41335,3.39551 7.23865,10.36413 9.82934,13.93859 0,0 2.59207,3.57425 2.94837,3.75297 3.75297,-1.51858 3.75297,-1.51858 7.50592,-3.0383 7.14736,-3.21566 10.72159,-4.82394 10.72159,-4.82394 3.57447,-1.60851 3.57447,-1.60851 2.41219,2.32318 0,0 -1.16113,3.9317 -3.48316,11.79416 -1.16227,3.93168 -1.16227,3.93168 -2.32317,7.86337 l 2.85933,3.57423 c 2.85936,3.57425 8.57714,10.72182 11.43649,14.29607 l 2.85957,3.57423 c -3.6644,0.09 -3.6644,0.09 -7.32743,0.17872 -7.32607,0.17872 -10.99025,0.17872 -10.99025,0.17872 -3.66303,0 -3.66303,-0.17872 -4.02047,1.60853 0,0 -0.35744,1.787 -1.07234,5.53883 l -0.35745,4.28913 c 0.35745,0.53617 2.50191,1.25107 2.50191,1.25107 2.14467,0.71488 6.07636,1.60851 10.18678,2.05587 0,0 4.11041,0.44624 8.3984,0.44624 3.84175,-0.2675 3.84175,-0.2675 7.68487,-0.53616 3.39439,-0.53616 6.69997,-0.89362 6.69997,-0.89362 3.30672,-0.35745 6.52353,-0.53617 10.09799,-1.60851 0,0 3.57424,-1.07235 7.50479,-3.03807 1.96573,-0.9824 1.96573,-0.9824 3.93168,-1.96595 l -0.0899,1.42978 c -0.0887,1.42979 -0.26751,4.28914 -1.07234,7.32721 0,0 -0.80368,3.03829 -2.2321,6.25396 -1.60851,3.30671 -1.60851,3.30671 -3.21679,6.6123 -1.78724,3.39575 -4.02186,6.70247 -4.02186,6.70247 -2.23324,3.30559 -4.91387,6.52125 -7.68465,9.64947 0,0 -2.7694,3.12686 -5.62762,6.16493 l -2.85958,3.21702 c 0,0.17874 2.05475,2.23439 2.05475,2.23439 2.05567,2.05474 6.16494,5.98529 8.1309,8.04096 0,0 1.96573,2.05475 1.78701,2.23347 3.48453,-3.12685 3.48453,-3.12685 6.96999,-6.25509 7.14733,-6.43245 10.72158,-9.64947 10.72158,-9.64947 3.57446,-3.21679 3.57446,-3.21679 3.3058,0.62611 0,0 -0.2675,3.84175 -0.80368,11.52549 -0.26865,3.8429 -0.26865,3.8429 -0.53617,7.68465 l 4.11042,2.14469 c 4.11041,2.14444 12.33009,6.43358 16.52929,8.48947 0,0 4.20058,2.05452 4.3793,1.8758 -4.11064,1.60851 -4.11064,1.60851 -8.22105,3.21702 -8.39841,3.39438 -12.59876,5.09259 -12.59876,5.09259 -4.1992,1.6973 -4.1992,1.6973 -2.41197,5.98644 0,0 1.78701,4.28913 5.36148,12.86626 1.8758,4.28913 1.8758,4.28913 3.75297,8.57827 0.17873,0 1.87579,-0.17872 1.87579,-0.17872 1.69845,-0.17872 4.91411,-0.53617 7.86224,-1.07211 0,0 2.94951,-0.53618 5.63012,-1.25106 1.33986,-0.35744 1.33986,-0.35744 2.68086,-0.7149 l -0.62609,1.42978 c -0.62496,1.42957 -1.87603,4.28914 -3.39576,7.05969 0,0 -1.51834,2.76965 -3.30558,5.44913 -1.87718,2.94929 -1.87718,2.94929 -3.75296,5.89742 -1.96597,3.21703 -4.82531,6.34503 -4.82531,6.34503 -2.85935,3.12686 -6.61118,6.16401 -10.27558,9.02336 0,0 -3.66303,2.85935 -7.23613,5.5402 -1.87693,1.42956 -1.87693,1.42956 -3.75296,2.85935 -0.17872,0.17872 1.60851,2.23461 1.60851,2.23461 1.787,2.05452 5.53883,5.98507 7.41486,7.95104 l 1.87694,1.96572 c 3.93192,-2.32318 3.93192,-2.32318 7.8636,-4.64657 7.86223,-4.64523 11.79393,-6.96862 11.79393,-6.96862 3.93167,-2.32318 3.93167,-2.32318 3.03807,1.69843 0,0 -0.8934,4.02049 -2.68063,12.06144 -0.80483,4.02163 -0.80483,4.02163 -1.60851,8.0421 0.17872,0 4.55665,2.05589 4.55665,2.05589 4.37906,2.05453 12.95619,6.16379 17.1554,8.30848 0,0 4.20056,2.14445 4.02184,2.32317 -4.64658,1.96597 -4.64658,1.96597 -9.29315,3.93169 -9.11331,3.7532 -13.75989,5.5402 -13.75989,5.5402 -4.64657,1.78723 -4.82531,1.60851 -4.64657,2.85958 0,0 0.17872,1.25084 0.71488,3.93054 1.69708,4.37906 1.69708,4.37906 3.39551,8.757 2.85935,6.07499 4.11042,9.0245 4.11042,9.0245 1.25106,2.94815 0.89362,2.76943 2.76942,3.12687 0,0 1.87717,0.35744 5.98644,1.25107 3.66303,0.80482 3.66303,0.80482 7.3272,1.60828 3.21702,0.71488 7.68488,0.89361 7.68488,0.89361 4.46785,0.17872 10.18542,-0.17873 13.04499,-0.35745 l 2.85935,-0.17872 c -1.16228,1.96595 -1.16228,1.96595 -2.32318,3.93169 -2.32341,3.93192 -4.55803,7.32743 -4.55803,7.32743 -2.23324,3.39552 -4.37654,6.25372 -6.87867,8.93457 0,0 -2.50191,2.68063 -5.36148,5.18276 -2.94929,2.5019 -2.94929,2.5019 -5.89742,5.00404 -3.03829,2.50189 -7.14871,5.36123 -7.14871,5.36123 -4.11041,2.85958 -9.29202,6.07524 -11.88385,7.86224 0,0 -2.59093,1.78723 -2.59093,2.14467 2.76965,2.32341 2.76965,2.32341 5.5402,4.6466 5.53906,4.28799 8.30848,6.43244 8.30848,6.43244 2.77078,2.14468 2.77078,2.14468 7.59609,-0.80346 0,0 4.8253,-2.9495 14.47454,-8.84577 4.8253,-2.94837 4.8253,-2.94837 9.65062,-5.89766 l -1.34101,5.00404 c -1.33962,5.00402 -4.02047,15.01072 -5.36124,20.01474 l -1.33986,5.00403 c 4.9141,4.46786 4.9141,4.46786 9.82934,8.93572 9.82819,8.93457 14.74206,13.40242 14.74206,13.40242 4.91546,4.46787 4.91546,4.46787 -0.80346,5.09283 0,0 -5.71777,0.62611 -17.15539,1.87603 -5.629,0.53594 -5.629,0.53594 -11.25798,1.0721 0.17872,-0.17872 0.71489,3.7532 0.71489,3.7532 0.53618,3.93169 1.42865,11.97265 1.87465,16.08307 0,0 0.44738,4.11039 0.44738,4.28913 0.89363,0.2675 0.89363,0.2675 1.78723,0.53616 1.78725,0.35745 4.82532,0.89363 4.82532,0.89363 3.03807,0.53616 7.3272,1.25082 11.70513,1.787 0,0 4.37929,0.53617 8.84578,0.89361 4.82531,0.44624 4.82531,0.44624 9.65061,0.89362 5.18161,0.53617 7.7723,0.89362 7.7723,0.89362 2.59207,0.35745 2.59207,0.53617 1.60851,1.96573 0,0 -0.98241,1.42979 -2.94813,4.11064 l -3.93192,5.36125 c -1.96458,2.67971 -4.46648,5.62785 -4.46648,5.62785 -2.50214,2.94928 -5.54021,6.16629 -8.57828,9.20436 0,0 -3.03829,3.03809 -6.07523,5.89629 -3.48545,2.59091 -3.48545,2.59091 -6.96976,5.18274 -3.9319,2.32341 -5.85382,3.57448 -5.85382,3.57448 -1.92213,1.25084 -1.83472,1.43093 0.71101,5.18389 0,0 2.54596,3.75297 7.54863,11.07903 2.50211,3.66303 2.50211,3.66303 5.00402,7.32743 l 4.82531,-3.0383 c 4.8253,-3.03807 14.47477,-9.11306 19.30007,-12.15136 l 4.82531,-3.03807 c -0.89362,5.3601 -0.89362,5.3601 -1.78724,10.72157 -1.78701,10.72296 -2.68061,16.0833 -2.68061,16.0833 -0.89363,5.36123 -0.89363,5.36123 4.02047,7.95216 0,0 4.91524,2.59183 14.74343,7.77345 4.8253,2.68062 4.8253,2.68062 9.65062,5.36147 -0.17873,0.17873 -5.63015,1.51835 -5.63015,1.51835 -5.45026,1.341 -16.17207,3.84312 -21.71204,5.00403 0,0 -5.5402,1.16227 -5.89765,0.98355 1.1609,4.46786 1.1609,4.46786 2.32319,8.93571 2.68085,9.11331 3.93191,13.49122 3.93191,13.49122 1.25083,4.37908 1.07211,4.02164 3.03807,4.20036 0,0 1.96573,0.17872 6.075,0.89361 4.64658,0.44623 4.64658,0.44623 9.29317,0.89362 5.18274,0.17759 10.72294,0.17759 10.72294,0.17759 5.5402,0 11.43647,-0.17759 14.38484,-0.26752 l 2.94929,-0.0889 c -0.44738,1.6973 -0.44738,1.6973 -0.89362,3.39551 -0.8934,3.39438 -2.14446,6.25396 -2.14446,6.25396 -1.25105,2.85934 -2.85958,5.18275 -4.46786,8.0421 0,0 -1.60851,2.85935 -3.21701,6.25372 -2.77056,3.48453 -2.77056,3.48453 -5.53998,6.96998 -3.93055,3.57425 -8.04096,7.50593 -8.04096,7.50593 -4.11064,3.93192 -8.3984,8.21968 -10.63302,10.54309 0,0 -2.23324,2.32319 -2.41196,2.68063 2.32318,1.60851 2.32318,1.60851 4.64658,3.21701 4.82394,2.85821 7.68351,3.93055 7.68351,3.93055 2.85935,1.07212 3.75296,0.35859 5.71893,-0.62496 0,0 1.96572,-0.9824 5.00266,-2.23347 2.23347,-1.34076 2.23347,-1.34076 4.46786,-2.68062 1.42979,-1.42979 3.48431,-2.9495 3.48431,-2.9495 2.05589,-1.51836 4.73673,-3.12687 6.07636,-3.93169 l 1.34099,-0.80346 c -0.17872,0.89338 -0.17872,0.89338 -0.35744,1.787 -0.35744,1.78723 -1.16227,4.73538 -1.16227,4.73538 -0.80368,2.9495 -2.05452,7.05854 -2.94814,11.43647 0,0 -0.89361,4.3793 -1.42979,9.02588 -0.26865,2.23324 -0.26865,2.23324 -0.53616,4.46786 0,-0.17872 -0.17873,-0.17872 -0.17873,-0.17872 -0.17873,0 -0.53618,0.17872 0.62496,1.25106 0,0 1.16227,1.0721 3.8429,3.03692 3.21702,1.96573 3.21702,1.96573 6.43381,3.9317 3.75182,1.96572 6.52125,3.66303 6.52125,3.66303 2.77077,1.69845 4.55778,3.12801 5.4514,3.84289 l 0.89362,0.71489 c -2.14446,0.7149 -2.14446,0.7149 -4.28913,1.4298 -4.28914,1.42956 -8.48949,2.76941 -8.48949,2.76941 -4.1992,1.34099 -8.30846,2.5907 -9.47075,4.19921 0,0 -1.16112,1.60851 0.62611,3.57423 2.05452,3.57425 2.05452,3.57425 4.11041,7.14871 2.32204,5.18139 4.91295,7.41486 4.91295,7.41486 2.59183,2.23438 5.45142,1.52087 9.82911,0.71604 0,0 4.3793,-0.8037 10.27557,-1.6973 l 5.89765,0 c 0,0.8936 -0.26865,3.03829 -0.26865,3.03829 -0.26752,2.14445 -0.8037,5.53883 -1.78724,9.20186 0,0 -0.98218,3.6644 -2.41197,7.59495 -1.96595,5.27131 -1.96595,5.27131 -3.93169,10.544 -2.50076,6.6114 -5.71778,12.95505 -5.71778,12.95505 -3.21679,6.34509 -7.14848,12.42146 -11.17032,17.51421 0,0 -4.02049,5.09404 -8.12954,9.20302 -4.28936,3.6633 -4.28936,3.6633 -8.57849,7.32745 -4.46649,3.2157 -9.11306,6.4325 -9.11306,6.4325 -4.64658,3.217 -9.4719,6.4338 -14.74481,9.3819 0,0 -5.27131,2.9496 -10.9891,5.6302 -5.5402,2.3234 -5.5402,2.3234 -11.08016,4.6464 -5.36033,1.9647 -13.31252,3.5732 -13.31252,3.5732 -7.95216,1.6085 -18.49638,2.8595 -29.8443,3.4844 -275.47554,1.4287 -276.04368,1.1675 -392.80088,0.7148 z"
       id="path21319"
       inkscape:connector-curvature="0"
       sodipodi:nodetypes="cccccccccccccccccccccccccscccccccccccccccccccccccccccccccccccccccccccccccccccccccccccccccccccccccccccccccccccccccccccccccccccccccsccccccccccccccccccccccccccccccccccccccccccccccccccccccccccccccccccccccccccccccccccccccccccccccccccccccccccccccsccccccccccccccccccccccccccccccccccccccccccccccccccccccccccccccccccccccccscccccccccccccccccccccccccccccccccccccccccccccccccccccccccccccccccccccccccccccscccccccccsccccccccccccccccccccccccc" />
    <path
       style="fill:none;stroke:#ff0000;stroke-width:0.80650431;stroke-opacity:1"
       d="m 536.08689,758.51519 c -1.13533,-0.65076 0.0742,-0.79638 3.35375,-1.44142 0,0 5.01133,-0.98379 14.85346,-3.13006 5.01133,-1.16411 5.01133,-1.16411 10.02265,-2.32683 0.17895,-0.17896 0.26775,-1.87969 0.26775,-1.87969 0.0902,-1.6998 0.0902,-4.92116 -0.26775,-9.21645 0,0 -0.35813,-4.29554 -1.07394,-9.66341 -0.35789,-2.6845 -0.35789,-2.6845 -0.7158,-5.36924 0,0 -2.95384,0.98379 -2.95384,0.98379 -2.95226,0.98492 -8.85721,2.95362 -14.40539,4.65319 0,0 -5.54819,1.70097 -10.73711,3.13143 -5.54818,1.16274 -5.54818,1.16274 -11.09637,2.32683 -5.90609,0.89477 -13.42297,1.61058 -13.42297,1.61058 -7.51575,0.71603 -16.6432,1.25288 -21.20647,1.52063 0,0 -4.56326,0.26911 -4.56326,0.26911 1.25288,1.78973 1.25288,1.78973 2.50577,3.57949 2.50441,3.57948 6.08367,7.87478 6.08367,7.87478 3.5795,4.29531 8.23293,9.30549 13.24403,13.77975 0,0 5.01133,4.47425 10.3792,8.4105 7.24778,3.84724 7.24778,3.84724 14.49691,7.69583 9.12632,3.75845 16.28529,6.53197 16.28529,6.53197 7.15898,2.77467 12.3479,4.56441 15.0324,5.36924 0,0 2.68474,0.80597 2.86369,0.62701 0.44669,-3.04263 0.44669,-3.04263 0.89477,-6.08527 0.71603,-5.90609 1.25288,-9.57551 1.25288,-9.57551 -10.42919,-6.60022 -20.85815,-13.19906 -26.07286,-16.49963 0,0 -3.47334,-2.19787 -4.63311,-2.93171 z"
       id="path21321"
       inkscape:connector-curvature="0" />
  </g>
</svg>
