<?xml version="1.0" encoding="UTF-8" standalone="no"?>
<!-- Created with Inkscape (http://www.inkscape.org/) -->

<svg
   xmlns:dc="http://purl.org/dc/elements/1.1/"
   xmlns:cc="http://creativecommons.org/ns#"
   xmlns:rdf="http://www.w3.org/1999/02/22-rdf-syntax-ns#"
   xmlns:svg="http://www.w3.org/2000/svg"
   xmlns="http://www.w3.org/2000/svg"
   xmlns:xlink="http://www.w3.org/1999/xlink"
   xmlns:sodipodi="http://sodipodi.sourceforge.net/DTD/sodipodi-0.dtd"
   xmlns:inkscape="http://www.inkscape.org/namespaces/inkscape"
   width="806.54761mm"
   height="898.54633mm"
   viewBox="0 0 2857.8459 3183.8256"
   id="svg2"
   version="1.1"
   inkscape:version="0.91 r13725"
   sodipodi:docname="legobox_2panneau.svg">
  <sodipodi:namedview
     id="base"
     pagecolor="#ffffff"
     bordercolor="#666666"
     borderopacity="1.0"
     inkscape:pageopacity="0.0"
     inkscape:pageshadow="2"
     inkscape:zoom="0.35"
     inkscape:cx="1485.8268"
     inkscape:cy="2667.6254"
     inkscape:document-units="px"
     inkscape:current-layer="svg2"
     showgrid="false"
     inkscape:window-width="1920"
     inkscape:window-height="1007"
     inkscape:window-x="0"
     inkscape:window-y="27"
     inkscape:window-maximized="1"
     fit-margin-top="0"
     fit-margin-left="0"
     fit-margin-right="0"
     fit-margin-bottom="0" />
  <defs
     id="defs4" />
  <metadata
     id="metadata7">
    <rdf:RDF>
      <cc:Work
         rdf:about="">
        <dc:format>image/svg+xml</dc:format>
        <dc:type
           rdf:resource="http://purl.org/dc/dcmitype/StillImage" />
        <dc:title></dc:title>
      </cc:Work>
    </rdf:RDF>
  </metadata>
  <g
     id="layer1"
     inkscape:groupmode="layer"
     inkscape:label="Calque 1"
     transform="translate(1436.3238,508.54008)" />
  <path
     id="path4290-8"
     style="fill:none;stroke:#ff0000;stroke-width:1;stroke-miterlimit:4;stroke-dasharray:none"
     d="m 0.5,1135.8584 0,-40.4949 17.5941,0 0,-40.495 -17.5941,0 0,-40.4949 17.5941,0 0,-40.49485 -17.5941,0 0,-40.495 17.5941,0 0,-40.4949 -17.5941,0 0,-40.49503 m 354.8267,283.46458 0,-40.4949 -17.8406,0 0,-40.495 17.8406,0 0,-40.4949 -17.8406,0 0,-40.49485 17.8406,0 0,-40.495 -17.8406,0 0,-40.4949 17.8406,0 0,-40.49503 -44.2441,0 c -14.7481,0 -29.496,17.7149 -44.2441,17.7149 l -44.2441,0 -44.2442,0 -44.2442,0 -44.2441,0 c -14.7481,0 -29.4961,-17.7149 -44.2442,-17.7149 l -44.2442,0 m 708.9085,0 -44.2442,0 c -14.748,0 -29.4961,17.7149 -44.2441,17.7149 l -44.2442,0 -44.2441,0 -44.2442,0 -44.2441,0 c -14.7481,0 -29.4961,-17.7149 -44.2442,-17.7149 l -44.2441,0 M 0.5,1419.8231 l 0,-40.4949 17.5941,0 0,-40.495 -17.5941,0 0,-40.4949 17.5941,0 0,-40.4949 -17.5941,0 0,-40.495 17.5941,0 0,-40.4949 -17.5941,0 0,-40.4951 m 354.8267,283.4647 0,-40.4949 -17.8406,0 0,-40.495 17.8406,0 0,-40.4949 -17.8406,0 0,-40.4949 17.8406,0 0,-40.495 -17.8406,0 0,-40.4949 17.8406,0 0,-40.4951 -44.2441,0 c -14.7481,0 -29.496,17.7149 -44.2441,17.7149 l -44.2441,0 -44.2442,0 -44.2442,0 -44.2441,0 c -14.7481,0 -29.4961,-17.7149 -44.2442,-17.7149 l -44.2442,0 m 708.9085,0 -44.2442,0 c -14.748,0 -29.4961,17.7149 -44.2441,17.7149 l -44.2442,0 -44.2441,0 -44.2442,0 -44.2441,0 c -14.7481,0 -29.4961,-17.7149 -44.2442,-17.7149 l -44.2441,0 m -1.0021,283.9647 -44.2441,0 c -14.7481,0 -29.496,17.7149 -44.2441,17.7149 l -44.2441,0 -44.2442,0 -44.2442,0 -44.2441,0 c -14.7481,0 -29.4961,-17.7149 -44.2442,-17.7149 l -44.2442,0 m 708.9085,0 -44.2442,0 c -14.748,0 -29.4961,17.7149 -44.2441,17.7149 l -44.2442,0 -44.2441,0 -44.2442,0 -44.2441,0 c -14.7481,0 -29.4961,-17.7149 -44.2442,-17.7149 l -44.2441,0 m 354.4553,-284.4646 0,-40.4949 17.5924,0 0,-40.495 -17.5924,0 0,-40.4949 17.5924,0 0,-40.49492 -17.5924,0 0,-40.495 17.5924,0 0,-40.4949 -17.5924,0 0,-40.49503 m 354.8267,283.46465 0,-40.4949 -17.8419,0 0,-40.495 17.8419,0 0,-40.4949 -17.8419,0 0,-40.49492 17.8419,0 0,-40.495 -17.8419,0 0,-40.4949 17.8419,0 0,-40.49503 -44.2441,0 c -14.7481,0 -29.496,17.7149 -44.2441,17.7149 l -44.2441,0 -44.2442,0 -44.2442,0 -44.2441,0 c -14.7481,0 -29.4961,-17.7149 -44.2442,-17.7149 l -44.2441,0 m 708.9084,0 -44.2442,0 c -14.748,0 -29.4961,17.7149 -44.2441,17.7149 l -44.2442,0 -44.2441,0 -44.2442,0 -44.2441,0 c -14.7481,0 -29.4961,-17.7149 -44.2442,-17.7149 l -44.2441,0 m 708.4065,0 -44.2442,0 c -14.748,0 -29.4961,17.7149 -44.2441,17.7149 l -44.2442,0 -44.2441,0 -44.2442,0 -44.2441,0 c -14.7481,0 -29.4961,-17.7149 -44.2442,-17.7149 l -44.2442,0 0,40.49503 17.8412,0 0,40.4949 -17.8412,0 0,40.495 17.8412,0 0,40.49492 -17.8412,0 0,40.4949 17.8412,0 0,40.495 -17.8412,0 0,40.4949 m 708.9065,0 0,-40.4949 17.5925,0 0,-40.495 -17.5925,0 0,-40.4949 17.5925,0 0,-40.49492 -17.5925,0 0,-40.495 17.5925,0 0,-40.4949 -17.5925,0 0,-40.49503 -44.2441,0 c -14.7481,0 -29.4961,17.7149 -44.2442,17.7149 l -44.2441,0 -44.2442,0 -44.2441,0 -44.2442,0 c -14.748,0 -29.4961,-17.7149 -44.2441,-17.7149 l -44.2442,0 m 708.78,0 -44.2441,0 c -14.7481,0 -29.4961,17.7149 -44.2442,17.7149 l -44.2441,0 -44.2442,0 -44.2441,0 -44.2442,0 c -14.748,0 -29.4961,-17.7149 -44.2441,-17.7149 l -44.2442,0 m 708.9073,283.46465 0,-40.4949 17.5924,0 0,-40.495 -17.5924,0 0,-40.4949 17.5924,0 0,-40.49492 -17.5924,0 0,-40.495 17.5924,0 0,-40.4949 -17.5924,0 0,-40.49503 -44.243,0 c -14.748,0 -29.4961,17.7149 -44.2441,17.7149 l -44.2442,0 -44.2441,0 -44.2442,0 -44.2441,0 c -14.7481,0 -29.4961,-17.7149 -44.2442,-17.7149 l -44.2441,0 m -1775.0174,567.42925 0,-40.4949 17.5924,0 0,-40.495 -17.5924,0 0,-40.4949 17.5924,0 0,-40.4949 -17.5924,0 0,-40.495 17.5924,0 0,-40.4949 -17.5924,0 0,-40.495 m 354.8267,283.4646 0,-40.4949 -17.8419,0 0,-40.495 17.8419,0 0,-40.4949 -17.8419,0 0,-40.4949 17.8419,0 0,-40.495 -17.8419,0 0,-40.4949 17.8419,0 0,-40.495 -44.2441,0 c -14.7481,0 -29.496,17.7149 -44.2441,17.7149 l -44.2441,0 -44.2442,0 -44.2442,0 -44.2441,0 c -14.7481,0 -29.4961,-17.7149 -44.2442,-17.7149 l -44.2441,0 m 708.9084,0 -44.2442,0 c -14.748,0 -29.4961,17.7149 -44.2441,17.7149 l -44.2442,0 -44.2441,0 -44.2442,0 -44.2441,0 c -14.7481,0 -29.4961,-17.7149 -44.2442,-17.7149 l -44.2441,0 m 708.4065,0 -44.2442,0 c -14.748,0 -29.4961,17.7149 -44.2441,17.7149 l -44.2442,0 -44.2441,0 -44.2442,0 -44.2441,0 c -14.7481,0 -29.4961,-17.7149 -44.2442,-17.7149 l -44.2442,0 0,40.495 17.8412,0 0,40.4949 -17.8412,0 0,40.495 17.8412,0 0,40.4949 -17.8412,0 0,40.4949 17.8412,0 0,40.495 -17.8412,0 0,40.4949 m 708.9065,0 0,-40.4949 17.5925,0 0,-40.495 -17.5925,0 0,-40.4949 17.5925,0 0,-40.4949 -17.5925,0 0,-40.495 17.5925,0 0,-40.4949 -17.5925,0 0,-40.495 -44.2441,0 c -14.7481,0 -29.4961,17.7149 -44.2442,17.7149 l -44.2441,0 -44.2442,0 -44.2441,0 -44.2442,0 c -14.748,0 -29.4961,-17.7149 -44.2441,-17.7149 l -44.2442,0 m 708.78,0 -44.2441,0 c -14.7481,0 -29.4961,17.7149 -44.2442,17.7149 l -44.2441,0 -44.2442,0 -44.2441,0 -44.2442,0 c -14.748,0 -29.4961,-17.7149 -44.2441,-17.7149 l -44.2442,0 m 708.9073,283.4646 0,-40.4949 17.5924,0 0,-40.495 -17.5924,0 0,-40.4949 17.5924,0 0,-40.4949 -17.5924,0 0,-40.495 17.5924,0 0,-40.4949 -17.5924,0 0,-40.495 -44.243,0 c -14.748,0 -29.4961,17.7149 -44.2441,17.7149 l -44.2442,0 -44.2441,0 -44.2442,0 -44.2441,0 c -14.7481,0 -29.4961,-17.7149 -44.2442,-17.7149 l -44.2441,0 m -1420.1907,283.9646 -44.2441,0 c -14.7481,0 -29.496,17.7149 -44.2441,17.7149 l -44.2441,0 -44.2442,0 -44.2442,0 -44.2441,0 c -14.7481,0 -29.4961,-17.7149 -44.2442,-17.7149 l -44.2441,0 m 708.9084,0 -44.2442,0 c -14.748,0 -29.4961,17.7149 -44.2441,17.7149 l -44.2442,0 -44.2441,0 -44.2442,0 -44.2441,0 c -14.7481,0 -29.4961,-17.7149 -44.2442,-17.7149 l -44.2441,0 m 708.4065,0 -44.2442,0 c -14.748,0 -29.4961,17.7149 -44.2441,17.7149 l -44.2442,0 -44.2441,0 -44.2442,0 -44.2441,0 c -14.7481,0 -29.4961,-17.7149 -44.2442,-17.7149 l -44.2442,0 m 708.9065,0 -44.2441,0 c -14.7481,0 -29.4961,17.7149 -44.2442,17.7149 l -44.2441,0 -44.2442,0 -44.2441,0 -44.2442,0 c -14.748,0 -29.4961,-17.7149 -44.2441,-17.7149 l -44.2442,0 m 708.78,0 -44.2441,0 c -14.7481,0 -29.4961,17.7149 -44.2442,17.7149 l -44.2441,0 -44.2442,0 -44.2441,0 -44.2442,0 c -14.748,0 -29.4961,-17.7149 -44.2441,-17.7149 l -44.2442,0 m 708.9073,0 -44.243,0 c -14.748,0 -29.4961,17.7149 -44.2441,17.7149 l -44.2442,0 -44.2441,0 -44.2442,0 -44.2441,0 c -14.7481,0 -29.4961,-17.7149 -44.2442,-17.7149 l -44.2441,0 m -710.7821,-1136.3585 0,-40.495 -17.842,0 0,-40.4949 17.842,0 0,-40.4949 -17.842,0 0,-40.495 17.842,0 0,-40.4949 -17.842,0 0,-40.495 17.842,0 0,-40.4949 -44.2442,0 c -14.748,0 -29.4961,17.7149 -44.2441,17.7149 l -44.2442,0 -44.2441,0 -44.2442,0 -44.2441,0 C 1494.8064,18.2149 1480.0584,0.5 1465.3103,0.5 l -44.2442,0 0,40.4949 17.8412,0 0,40.495 -17.8412,0 0,40.4949 17.8412,0 0,40.495 -17.8412,0 0,40.4949 17.8412,0 0,40.4949 -17.8412,0 0,40.495 m 708.9065,0 0,-40.495 17.5925,0 0,-40.4949 -17.5925,0 0,-40.4949 17.5925,0 0,-40.495 -17.5925,0 0,-40.4949 17.5925,0 0,-40.495 -17.5925,0 0,-40.4949 -44.2441,0 c -14.7481,0 -29.4961,17.7149 -44.2442,17.7149 l -44.2441,0 -44.2442,0 -44.2442,0 -44.2441,0 c -14.748,0 -29.4961,-17.7149 -44.2442,-17.7149 l -44.2441,0 m 708.78,283.4646 0,-40.495 -17.8419,0 0,-40.4949 17.8419,0 0,-40.4949 -17.8419,0 0,-40.495 17.8419,0 0,-40.4949 -17.8419,0 0,-40.495 17.8419,0 0,-40.4949 -44.2441,0 c -14.7481,0 -29.4961,17.7149 -44.2442,17.7149 l -44.2441,0 -44.2442,0 -44.2441,0 -44.2442,0 c -14.748,0 -29.4961,-17.7149 -44.2441,-17.7149 l -44.2442,0 m 708.9073,283.4646 0,-40.495 17.5924,0 0,-40.4949 -17.5924,0 0,-40.4949 17.5924,0 0,-40.495 -17.5924,0 0,-40.4949 17.5924,0 0,-40.495 -17.5924,0 0,-40.4949 -44.243,0 c -14.748,0 -29.4961,17.7149 -44.2441,17.7149 l -44.2442,0 -44.2441,0 -44.2442,0 -44.2441,0 C 2559.5417,18.2149 2544.7937,0.5 2530.0456,0.5 l -44.2441,0 m -2129.9727,283.4646 0,-40.495 -17.8406,0 0,-40.4949 17.8406,0 0,-40.4949 -17.8406,0 0,-40.495 17.8406,0 0,-40.4949 -17.8406,0 0,-40.495 17.8406,0 0,-40.4949 -44.2441,0 c -14.7481,0 -29.4961,17.7149 -44.2442,17.7149 l -44.2441,0 -44.2442,0 -44.2442,0 -44.2441,0 C 75.6158,18.2149 60.8678,0.5 46.1197,0.5 l -44.2441,0 0,40.4949 17.8427,0 0,40.495 -17.8427,0 0,40.4949 17.8427,0 0,40.495 -17.8427,0 0,40.4949 17.8427,0 0,40.4949 -17.8427,0 0,40.495 m 708.9085,0 0,-40.495 17.5924,0 0,-40.4949 -17.5924,0 0,-40.4949 17.5924,0 0,-40.495 -17.5924,0 0,-40.4949 17.5924,0 0,-40.495 -17.5924,0 0,-40.4949 -44.2442,0 c -14.748,0 -29.4961,17.7149 -44.2441,17.7149 l -44.2442,0 -44.2441,0 -44.2442,0 -44.2442,0 C 430.5711,18.2149 415.823,0.5 401.075,0.5 l -44.2442,0 m 708.78,283.4646 0,-40.495 -17.8419,0 0,-40.4949 17.8419,0 0,-40.4949 -17.8419,0 0,-40.495 17.8419,0 0,-40.4949 -17.8419,0 0,-40.495 17.8419,0 0,-40.4949 -44.2441,0 c -14.7481,0 -29.496,17.7149 -44.2441,17.7149 l -44.2441,0 -44.2442,0 -44.2442,0 -44.2441,0 C 785.3979,18.2149 770.6499,0.5 755.9018,0.5 l -44.2441,0 m 708.9084,0 -44.2442,0 c -14.748,0 -29.4961,17.7149 -44.2441,17.7149 l -44.2442,0 -44.2441,0 -44.2442,0 -44.2441,0 C 1140.3531,18.2149 1125.6051,0.5 1110.857,0.5 l -44.2441,0 m 708.4065,567.4292 0,-40.495 -17.842,0 0,-40.4949 17.842,0 0,-40.4949 -17.842,0 0,-40.495 17.842,0 0,-40.4949 -17.842,0 0,-40.495 17.842,0 0,-40.4949 -44.2442,0 c -14.748,0 -29.4961,17.7149 -44.2441,17.7149 l -44.2442,0 -44.2441,0 -44.2442,0 -44.2441,0 c -14.7481,0 -29.4961,-17.7149 -44.2442,-17.7149 l -44.2442,0 0,40.4949 17.8412,0 0,40.495 -17.8412,0 0,40.4949 17.8412,0 0,40.495 -17.8412,0 0,40.4949 17.8412,0 0,40.4949 -17.8412,0 0,40.495 m 708.9065,0 0,-40.495 17.5925,0 0,-40.4949 -17.5925,0 0,-40.4949 17.5925,0 0,-40.495 -17.5925,0 0,-40.4949 17.5925,0 0,-40.495 -17.5925,0 0,-40.4949 -44.2441,0 c -14.7481,0 -29.4961,17.7149 -44.2442,17.7149 l -44.2441,0 -44.2442,0 -44.2441,0 -44.2442,0 c -14.748,0 -29.4961,-17.7149 -44.2441,-17.7149 l -44.2442,0 m 708.78,283.4646 0,-40.495 -17.8419,0 0,-40.4949 17.8419,0 0,-40.4949 -17.8419,0 0,-40.495 17.8419,0 0,-40.4949 -17.8419,0 0,-40.495 17.8419,0 0,-40.4949 -44.2441,0 c -14.7481,0 -29.4961,17.7149 -44.2442,17.7149 l -44.2441,0 -44.2442,0 -44.2441,0 -44.2442,0 c -14.748,0 -29.4961,-17.7149 -44.2441,-17.7149 l -44.2442,0 m 708.9073,283.4646 0,-40.495 17.5924,0 0,-40.4949 -17.5924,0 0,-40.4949 17.5924,0 0,-40.495 -17.5924,0 0,-40.4949 17.5924,0 0,-40.495 -17.5924,0 0,-40.4949 -44.243,0 c -14.748,0 -29.4961,17.7149 -44.2441,17.7149 l -44.2442,0 -44.2441,0 -44.2442,0 -44.2441,0 c -14.7481,0 -29.4961,-17.7149 -44.2442,-17.7149 l -44.2441,0 m -2129.9727,283.4646 0,-40.495 -17.8406,0 0,-40.4949 17.8406,0 0,-40.4949 -17.8406,0 0,-40.495 17.8406,0 0,-40.4949 -17.8406,0 0,-40.495 17.8406,0 0,-40.4949 -44.2441,0 c -14.7481,0 -29.4961,17.7149 -44.2442,17.7149 l -44.2441,0 -44.2442,0 -44.2442,0 -44.2441,0 c -14.7481,0 -29.4961,-17.7149 -44.2442,-17.7149 l -44.2441,0 0,40.4949 17.8427,0 0,40.495 -17.8427,0 0,40.4949 17.8427,0 0,40.495 -17.8427,0 0,40.4949 17.8427,0 0,40.4949 -17.8427,0 0,40.495 m 708.9085,0 0,-40.495 17.5924,0 0,-40.4949 -17.5924,0 0,-40.4949 17.5924,0 0,-40.495 -17.5924,0 0,-40.4949 17.5924,0 0,-40.495 -17.5924,0 0,-40.4949 -44.2442,0 c -14.748,0 -29.4961,17.7149 -44.2441,17.7149 l -44.2442,0 -44.2441,0 -44.2442,0 -44.2442,0 c -14.748,0 -29.4961,-17.7149 -44.2441,-17.7149 l -44.2442,0 m 708.78,283.4646 0,-40.495 -17.8419,0 0,-40.4949 17.8419,0 0,-40.4949 -17.8419,0 0,-40.495 17.8419,0 0,-40.4949 -17.8419,0 0,-40.495 17.8419,0 0,-40.4949 -44.2441,0 c -14.7481,0 -29.496,17.7149 -44.2441,17.7149 l -44.2441,0 -44.2442,0 -44.2442,0 -44.2441,0 c -14.7481,0 -29.4961,-17.7149 -44.2442,-17.7149 l -44.2441,0 m 708.9084,0 -44.2442,0 c -14.748,0 -29.4961,17.7149 -44.2441,17.7149 l -44.2442,0 -44.2441,0 -44.2442,0 -44.2441,0 c -14.7481,0 -29.4961,-17.7149 -44.2442,-17.7149 l -44.2441,0 m 708.4045,567.4292 0,-40.495 -17.842,0 0,-40.4949 17.842,0 0,-40.495 -17.842,0 0,-40.4949 17.842,0 0,-40.4949 -17.842,0 0,-40.495 17.842,0 0,-40.4949 -44.2442,0 c -14.748,0 -29.4961,17.7149 -44.2441,17.7149 l -44.2442,0 -44.2441,0 -44.2442,0 -44.2441,0 c -14.7481,0 -29.4961,-17.7149 -44.2442,-17.7149 l -44.2442,0 0,40.4949 17.8412,0 0,40.495 -17.8412,0 0,40.4949 17.8412,0 0,40.4949 -17.8412,0 0,40.495 17.8412,0 0,40.4949 -17.8412,0 0,40.495 m 708.9085,0 0,-40.495 17.5925,0 0,-40.4949 -17.5925,0 0,-40.495 17.5925,0 0,-40.4949 -17.5925,0 0,-40.4949 17.5925,0 0,-40.495 -17.5925,0 0,-40.4949 -44.2441,0 c -14.7481,0 -29.4961,17.7149 -44.2442,17.7149 l -44.2441,0 -44.2442,0 -44.2441,0 -44.2442,0 c -14.748,0 -29.4961,-17.7149 -44.2441,-17.7149 l -44.2442,0 m 708.78,283.4646 0,-40.495 -17.8419,0 0,-40.4949 17.8419,0 0,-40.495 -17.8419,0 0,-40.4949 17.8419,0 0,-40.4949 -17.8419,0 0,-40.495 17.8419,0 0,-40.4949 -44.2441,0 c -14.7481,0 -29.4961,17.7149 -44.2442,17.7149 l -44.2441,0 -44.2442,0 -44.2441,0 -44.2442,0 c -14.748,0 -29.4961,-17.7149 -44.2441,-17.7149 l -44.2442,0 m 708.9073,283.4646 0,-40.495 17.5924,0 0,-40.4949 -17.5924,0 0,-40.495 17.5924,0 0,-40.4949 -17.5924,0 0,-40.4949 17.5924,0 0,-40.495 -17.5924,0 0,-40.4949 -44.243,0 c -14.748,0 -29.4961,17.7149 -44.2441,17.7149 l -44.2442,0 -44.2441,0 -44.2442,0 -44.2441,0 c -14.7481,0 -29.4961,-17.7149 -44.2442,-17.7149 l -44.2441,0 m -2129.9727,283.4646 0,-40.495 -17.8406,0 0,-40.4949 17.8406,0 0,-40.495 -17.8406,0 0,-40.4949 17.8406,0 0,-40.4949 -17.8406,0 0,-40.495 17.8406,0 0,-40.4949 -44.2441,0 c -14.7481,0 -29.4961,17.7149 -44.2442,17.7149 l -44.2441,0 -44.2442,0 -44.2442,0 -44.2441,0 c -14.7481,0 -29.4961,-17.7149 -44.2442,-17.7149 l -44.2441,0 0,40.4949 17.8427,0 0,40.495 -17.8427,0 0,40.4949 17.8427,0 0,40.4949 -17.8427,0 0,40.495 17.8427,0 0,40.4949 -17.8427,0 0,40.495 m 708.9085,0 0,-40.495 17.5924,0 0,-40.4949 -17.5924,0 0,-40.495 17.5924,0 0,-40.4949 -17.5924,0 0,-40.4949 17.5924,0 0,-40.495 -17.5924,0 0,-40.4949 -44.2442,0 c -14.748,0 -29.4961,17.7149 -44.2441,17.7149 l -44.2442,0 -44.2441,0 -44.2442,0 -44.2442,0 c -14.748,0 -29.4961,-17.7149 -44.2441,-17.7149 l -44.2442,0 m 708.78,283.4646 0,-40.495 -17.8419,0 0,-40.4949 17.8419,0 0,-40.495 -17.8419,0 0,-40.4949 17.8419,0 0,-40.4949 -17.8419,0 0,-40.495 17.8419,0 0,-40.4949 -44.2441,0 c -14.7481,0 -29.496,17.7149 -44.2441,17.7149 l -44.2441,0 -44.2442,0 -44.2442,0 -44.2441,0 c -14.7481,0 -29.4961,-17.7149 -44.2442,-17.7149 l -44.2441,0 m 708.9084,0 -44.2442,0 c -14.748,0 -29.4961,17.7149 -44.2441,17.7149 l -44.2442,0 -44.2441,0 -44.2442,0 -44.2441,0 c -14.7481,0 -29.4961,-17.7149 -44.2442,-17.7149 l -44.2441,0"
     inkscape:connector-curvature="0"
     sodipodi:nodetypes="ccccccccccccccccccccccccccccsscccssccsscccsscccccccccccccccccccccccccccccsscccssccsscccssccsscccssccsscccsscccccccccccccccccccccccccccccsscccssccsscccssccsscccssccccccccccccccccccccccccccccsscccssccsscccsscccccccccccccccsscccsscccccccccccccccccccccccccccccsscccssccsscccssccsscccssccccccccccccccccccccccccccccsscccssccsscccsscccccccccccccccsscccssccsscccssccsscccssccsscccssccsscccssccsscccssccsscccsscccccccccccccccsscccssccccccccccccccccccccccccccccsscccsscccccccccccccccsscccsscccccccccccccccsscccsscccccccccccccccsscccssccccccccccccccccccccccccccccsscccsscccccccccccccccsscccssccsscccsscccccccccccccccsscccssccccccccccccccccccccccccccccsscccsscccccccccccccccsscccsscccccccccccccccsscccsscccccccccccccccsscccssccccccccccccccccccccccccccccsscccsscccccccccccccccsscccssccsscccsscccccccccccccccsscccssccccccccccccccccccccccccccccsscccsscccccccccccccccsscccsscccccccccccccccsscccsscccccccccccccccsscccssccccccccccccccccccccccccccccsscccsscccccccccccccccsscccssccsscccssc" />
  <path
     sodipodi:nodetypes="ccccccccccccccccccccccccccccccccccccccccccccccccccccccccccccccccccccccccccccccccccccccccsscccssccsscccsscccccccccccccccccccccccccccccccccccccccccccccccccccccccccccccccccccccccccccccccccccccccccccccccccccccccccccccccccccccccccccccccccccccccccccccccccccccccccccccccccccccccccccccccccccccccccccccccccccsscccssccsscccssccsscccssccccccccccccccccccccccccccccsscccssccsscccsscccccccccccccccsscccssccsscccssccccccccccccccccccccccccccccsscccssccsscccssccsscccssccsscccsscccccccccccccccsscccssccsscccsscccccccccccccccsscccssccsscccssccsscccssccsscccssccsscccssccsscccssccccccccccccccsscccssccsscccssccsscccssccsscccssccsscccssccsscccssccccccccccccccsscccssccsscccssccccccccccccccccccccccccccccsscccssccsscccssccsscccssccsscccssccccccccccccccccccccccccccccsscccssccsscccsscccccccccccccccsscccssccsscccssccccccccccccccccccccccccccccsscccssccsscccssccsscccssccsscccssccccccccccccccccccccccccccccsscccssccsscccsscccccccccccccccsscccssc"
     inkscape:connector-curvature="0"
     d="m 0.5,2029.7522 0,-40.4949 17.5942,0 0,-40.495 -17.5942,0 0,-40.4949 17.5942,0 0,-40.4949 -17.5942,0 0,-40.4949 17.5942,0 0,-40.4949 -17.5942,0 0,-40.495 m 354.8267,283.4646 0,-40.4949 -17.8406,0 0,-40.495 17.8406,0 0,-40.4949 -17.8406,0 0,-40.495 17.8406,0 0,-40.4949 -17.8406,0 0,-40.4949 17.8406,0 0,-40.495 m 0,0 -44.2441,0 m 0,0 c -14.7481,0 -29.496,17.7149 -44.2441,17.7149 m 0,0 -44.2441,0 m 0,0 -44.2442,0 m 0,0 -44.2442,0 m 0,0 -44.2441,0 m 0,0 c -14.7481,0 -29.4961,-17.7149 -44.2442,-17.7149 m 0,0 -44.2442,0 m 708.9086,0 -44.2442,0 m 0,0 c -14.748,0 -29.4961,17.7149 -44.2441,17.7149 m 0,0 -44.2442,0 m 0,0 -44.2441,0 m 0,0 -44.2442,0 m 0,0 -44.2441,0 m 0,0 c -14.7482,0 -29.4962,-17.7149 -44.2443,-17.7149 m 0,0 -44.2441,0 m -355.8288,-0.5 0,-40.4949 17.5942,0 0,-40.495 -17.5942,0 0,-40.4949 17.5942,0 0,-40.4949 -17.5942,0 0,-40.495 17.5942,0 0,-40.4949 -17.5942,0 0,-40.495 m 354.8267,283.4646 0,-40.4949 -17.8406,0 0,-40.495 17.8406,0 0,-40.4949 -17.8406,0 0,-40.4949 17.8406,0 0,-40.495 -17.8406,0 0,-40.4949 17.8406,0 0,-40.495 -44.2441,0 c -14.7481,0 -29.496,17.7149 -44.2441,17.7149 l -44.2441,0 -44.2442,0 -44.2442,0 -44.2441,0 c -14.7481,0 -29.4961,-17.7149 -44.2442,-17.7149 l -44.2442,0 m 708.9086,0 -44.2442,0 c -14.748,0 -29.4961,17.7149 -44.2441,17.7149 l -44.2442,0 -44.2441,0 -44.2442,0 -44.2441,0 c -14.7482,0 -29.4962,-17.7149 -44.2443,-17.7149 l -44.2441,0 m 354.4553,567.4292 0,-40.4949 17.5925,0 0,-40.495 -17.5925,0 0,-40.4949 17.5925,0 0,-40.4949 -17.5925,0 0,-40.495 17.5925,0 0,-40.4949 -17.5925,0 0,-40.495 m 354.8267,283.4646 0,-40.4949 -17.6133,0 0,-40.495 17.6133,0 0,-40.4949 -17.6133,0 0,-40.4949 17.6133,0 0,-40.495 -17.6133,0 0,-40.4949 17.6133,0 0,-40.495 m 0,0 -44.2441,0 m 0,0 c -14.7481,0 -29.496,17.7149 -44.2441,17.7149 m 0,0 -44.2441,0 m 0,0 -44.2442,0 m 0,0 -44.2441,0 m 0,0 -44.2442,0 m 0,0 c -14.748,0 -29.4961,-17.7149 -44.2441,-17.7149 m 0,0 -44.2442,0 m 708.9084,0 -44.2442,0 m 0,0 c -14.748,0 -29.4961,17.7149 -44.2441,17.7149 m 0,0 -44.2442,0 m 0,0 -44.2441,0 m 0,0 -44.2442,0 m 0,0 -44.2441,0 m 0,0 c -14.7481,0 -29.4961,-17.7149 -44.2442,-17.7149 m 0,0 -44.2441,0 m 708.4065,0 -44.2442,0 m 0,0 c -14.748,0 -29.4961,17.7149 -44.2441,17.7149 m 0,0 -44.2442,0 m 0,0 -44.2441,0 m 0,0 -44.2442,0 m 0,0 -44.2441,0 m 0,0 c -14.7481,0 -29.4961,-17.7149 -44.2442,-17.7149 m 0,0 -44.2442,0 m 0,0 0,40.495 17.8412,0 0,40.4949 -17.8412,0 0,40.495 17.8412,0 0,40.4949 -17.8412,0 0,40.4949 17.8412,0 0,40.495 -17.8412,0 0,40.4949 m 708.9065,0 0,-40.4949 17.5925,0 0,-40.495 -17.5925,0 0,-40.4949 17.5925,0 0,-40.4949 -17.5925,0 0,-40.495 17.5925,0 0,-40.4949 -17.5925,0 0,-40.495 m 0,0 -44.2441,0 m 0,0 c -14.7481,0 -29.4961,17.7149 -44.2442,17.7149 m 0,0 -44.2441,0 m 0,0 -44.2442,0 m 0,0 -44.2441,0 m 0,0 -44.2442,0 m 0,0 c -14.748,0 -29.4961,-17.7149 -44.2441,-17.7149 m 0,0 -44.2442,0 m 708.78,0 -44.2441,0 m 0,0 c -14.7481,0 -29.4961,17.7149 -44.2442,17.7149 m 0,0 -44.2441,0 m 0,0 -44.2442,0 m 0,0 -44.2441,0 m 0,0 -44.2442,0 m 0,0 c -14.748,0 -29.4961,-17.7149 -44.2441,-17.7149 m 0,0 -44.2442,0 m 708.9073,283.4646 0,-40.4949 17.5924,0 0,-40.495 -17.5924,0 0,-40.4949 17.5924,0 0,-40.4949 -17.5924,0 0,-40.495 17.5924,0 0,-40.4949 -17.5924,0 0,-40.495 m 0,0 -44.243,0 m 0,0 c -14.748,0 -29.4961,17.7149 -44.2441,17.7149 m 0,0 -44.2442,0 m 0,0 -44.2441,0 m 0,0 -44.2442,0 m 0,0 -44.2441,0 m 0,0 c -14.7481,0 -29.4961,-17.7149 -44.2442,-17.7149 m 0,0 -44.2441,0 m -1775.0174,-0.5 0,-40.4949 17.5925,0 0,-40.495 -17.5925,0 0,-40.4949 17.5925,0 0,-40.4949 -17.5925,0 0,-40.495 17.5925,0 0,-40.4949 -17.5925,0 0,-40.495 m 354.8267,283.4646 0,-40.4949 -17.8419,0 0,-40.495 17.8419,0 0,-40.4949 -17.8419,0 0,-40.4949 17.8419,0 0,-40.495 -17.8419,0 0,-40.4949 17.8419,0 0,-40.495 -44.2441,0 c -14.7481,0 -29.496,17.7149 -44.2441,17.7149 l -44.2441,0 -44.2442,0 -44.2441,0 -44.2442,0 c -14.748,0 -29.4961,-17.7149 -44.2441,-17.7149 l -44.2442,0 m 708.9084,0 -44.2442,0 c -14.748,0 -29.4961,17.7149 -44.2441,17.7149 l -44.2442,0 -44.2441,0 -44.2442,0 -44.2441,0 c -14.7481,0 -29.4961,-17.7149 -44.2442,-17.7149 l -44.2441,0 m 708.4065,0 -44.2442,0 c -14.748,0 -29.4961,17.7149 -44.2441,17.7149 l -44.2442,0 -44.2441,0 -44.2442,0 -44.2441,0 c -14.7481,0 -29.4961,-17.7149 -44.2442,-17.7149 l -44.2442,0 0,40.495 17.8412,0 0,40.4949 -17.8412,0 0,40.495 17.8412,0 0,40.4949 -17.8412,0 0,40.4949 17.8412,0 0,40.495 -17.8412,0 0,40.4949 m 708.9065,0 0,-40.4949 17.5925,0 0,-40.495 -17.5925,0 0,-40.4949 17.5925,0 0,-40.4949 -17.5925,0 0,-40.495 17.5925,0 0,-40.4949 -17.5925,0 0,-40.495 -44.2441,0 c -14.7481,0 -29.4961,17.7149 -44.2442,17.7149 l -44.2441,0 -44.2442,0 -44.2441,0 -44.2442,0 c -14.748,0 -29.4961,-17.7149 -44.2441,-17.7149 l -44.2442,0 m 708.78,0 -44.2441,0 c -14.7481,0 -29.4961,17.7149 -44.2442,17.7149 l -44.2441,0 -44.2442,0 -44.2441,0 -44.2442,0 c -14.748,0 -29.4961,-17.7149 -44.2441,-17.7149 l -44.2442,0 m 708.9073,283.4646 0,-40.4949 17.5924,0 0,-40.495 -17.5924,0 0,-40.4949 17.5924,0 0,-40.4949 -17.5924,0 0,-40.495 17.5924,0 0,-40.4949 -17.5924,0 0,-40.495 -44.243,0 c -14.748,0 -29.4961,17.7149 -44.2441,17.7149 l -44.2442,0 -44.2441,0 -44.2442,0 -44.2441,0 c -14.7481,0 -29.4961,-17.7149 -44.2442,-17.7149 l -44.2441,0 m -2129.9707,1135.8584 -44.2442,0 c -14.748,0 -29.4961,17.7149 -44.2441,17.7149 l -44.2442,0 -44.2441,0 -44.2442,0 -44.2442,0 c -14.748,0 -29.4961,-17.7149 -44.2441,-17.7149 l -44.2442,0 0,40.495 17.8429,0 0,40.4949 -17.8429,0 0,40.4949 17.8429,0 0,40.495 -17.8429,0 0,40.4949 17.8429,0 0,40.495 -17.8429,0 0,40.4949 m 708.9066,0 0,-40.4949 17.5925,0 0,-40.495 -17.5925,0 0,-40.4949 17.5925,0 0,-40.495 -17.5925,0 0,-40.4949 17.5925,0 0,-40.4949 -17.5925,0 0,-40.495 -44.2441,0 c -14.7481,0 -29.4961,17.7149 -44.2442,17.7149 l -44.2441,0 -44.2442,0 -44.2442,0 -44.2442,0 c -14.7481,0 -29.4961,-17.7149 -44.2442,-17.7149 l -44.2441,0 m 708.7801,0 -44.2442,0 c -14.7481,0 -29.496,17.7149 -44.2441,17.7149 l -44.2441,0 -44.2442,0 -44.2441,0 -44.2442,0 c -14.748,0 -29.4961,-17.7149 -44.2441,-17.7149 l -44.2442,0 m 708.9084,0 -44.2442,0 c -14.748,0 -29.496,17.7149 -44.244,17.7149 l -44.2442,0 -44.2441,0 -44.2442,0 -44.2441,0 c -14.7481,0 -29.4962,-17.7149 -44.2442,-17.7149 l -44.2441,0 m 708.4064,0 -44.2442,0 c -14.748,0 -29.4961,17.7149 -44.2441,17.7149 l -44.2442,0 -44.2441,0 -44.2442,0 -44.2441,0 c -14.7481,0 -29.4961,-17.7149 -44.2442,-17.7149 l -44.2442,0 0,40.495 17.8412,0 0,40.4949 -17.8412,0 0,40.4949 17.8412,0 0,40.495 -17.8412,0 0,40.4949 17.8412,0 0,40.495 -17.8412,0 0,40.4949 m 708.9065,-283.4646 -44.2441,0 c -14.7481,0 -29.4961,17.7149 -44.2442,17.7149 l -44.2441,0 -44.2442,0 -44.2441,0 -44.2442,0 c -14.748,0 -29.4961,-17.7149 -44.2441,-17.7149 l -44.2442,0 m 708.78,0 -44.2441,0 c -14.7481,0 -29.4961,17.7149 -44.2442,17.7149 l -44.2441,0 -44.2442,0 -44.2441,0 -44.2442,0 c -14.748,0 -29.4961,-17.7149 -44.2441,-17.7149 l -44.2442,0 m 708.9073,283.4646 0,-40.4949 17.5924,0 0,-40.495 -17.5924,0 0,-40.4949 17.5924,0 0,-40.495 -17.5924,0 0,-40.4949 17.5924,0 0,-40.4949 -17.5924,0 0,-40.495 -44.243,0 c -14.748,0 -29.4961,17.7149 -44.2441,17.7149 l -44.2442,0 -44.2441,0 -44.2442,0 -44.2441,0 c -14.7481,0 -29.4961,-17.7149 -44.2442,-17.7149 l -44.2441,0 m -2129.9707,283.9646 -44.2442,0 c -14.748,0 -29.4961,17.7149 -44.2441,17.7149 l -44.2442,0 -44.2441,0 -44.2442,0 -44.2442,0 c -14.748,0 -29.4961,-17.7149 -44.2441,-17.7149 l -44.2442,0 m 708.9066,0 -44.2441,0 c -14.7481,0 -29.4961,17.7149 -44.2442,17.7149 l -44.2441,0 -44.2442,0 -44.2442,0 -44.2442,0 c -14.7481,0 -29.4961,-17.7149 -44.2442,-17.7149 l -44.2441,0 m 708.7801,0 -44.2441,0 c -14.7481,0 -29.4961,17.7149 -44.2442,17.7149 l -44.2441,0 -44.2442,0 -44.2441,0 -44.2442,0 c -14.748,0 -29.4961,-17.7149 -44.2441,-17.7149 l -44.2442,0 m 708.9084,0 -44.2442,0 c -14.748,0 -29.496,17.7149 -44.244,17.7149 l -44.2442,0 -44.2441,0 -44.2442,0 -44.2441,0 c -14.7481,0 -29.4961,-17.7149 -44.2442,-17.7149 l -44.2441,0 m 708.4064,0 -44.2442,0 c -14.748,0 -29.4961,17.7149 -44.2441,17.7149 l -44.2442,0 -44.2441,0 -44.2442,0 -44.2441,0 c -14.7481,0 -29.4961,-17.7149 -44.2442,-17.7149 l -44.2442,0 0,40.495 17.8412,0 0,40.4949 -17.8412,0 0,40.4949 17.8412,0 0,40.495 -17.8412,0 0,40.4949 17.8412,0 0,40.495 -17.8412,0 0,40.4949 44.2442,0 c 14.7481,0 29.4961,17.7149 44.2442,17.7149 l 44.2441,0 44.2442,0 44.2441,0 44.2442,0 c 14.748,0 29.4961,-17.7149 44.2441,-17.7149 l 44.2442,0 m 1,0 44.2442,0 c 14.748,0 29.4961,17.7149 44.2441,17.7149 l 44.2442,0 44.2441,0 44.2442,0 44.2441,0 c 14.7481,0 29.4961,-17.7149 44.2442,-17.7149 l 44.2441,0 m 0,-283.4646 -44.2441,0 c -14.7481,0 -29.4961,17.7149 -44.2442,17.7149 l -44.2441,0 -44.2442,0 -44.2441,0 -44.2442,0 c -14.748,0 -29.4961,-17.7149 -44.2441,-17.7149 l -44.2442,0 m 354.8268,283.4646 44.2442,0 c 14.748,0 29.4961,17.7149 44.2441,17.7149 l 44.2442,0 44.2441,0 44.2442,0 44.2441,0 c 14.7481,0 29.4961,-17.7149 44.2442,-17.7149 l 44.2441,0 m 0,-283.4646 -44.2441,0 c -14.7481,0 -29.4961,17.7149 -44.2442,17.7149 l -44.2441,0 -44.2442,0 -44.2441,0 -44.2442,0 c -14.748,0 -29.4961,-17.7149 -44.2441,-17.7149 l -44.2442,0 m 354.9553,283.4646 44.2441,0 c 14.7481,0 29.4961,17.7149 44.2442,17.7149 l 44.2441,0 44.2442,0 44.2441,0 44.2442,0 c 14.748,0 29.4961,-17.7149 44.2441,-17.7149 l 44.243,0 0,-40.4949 17.5924,0 0,-40.495 -17.5924,0 0,-40.4949 17.5924,0 0,-40.495 -17.5924,0 0,-40.4949 17.5924,0 0,-40.4949 -17.5924,0 0,-40.495 -44.243,0 c -14.748,0 -29.4961,17.7149 -44.2441,17.7149 l -44.2442,0 -44.2441,0 -44.2442,0 -44.2441,0 c -14.7481,0 -29.4961,-17.7149 -44.2442,-17.7149 l -44.2441,0 m -2129.9707,-851.8938 -44.2442,0 c -14.748,0 -29.4961,17.7149 -44.2441,17.7149 l -44.2442,0 -44.2441,0 -44.2442,0 -44.2442,0 c -14.748,0 -29.4961,-17.7149 -44.2441,-17.7149 l -44.2442,0 0,40.495 17.8429,0 0,40.4949 -17.8429,0 0,40.4949 17.8429,0 0,40.495 -17.8429,0 0,40.4949 17.8429,0 0,40.495 -17.8429,0 0,40.4949 m 708.9066,0 0,-40.4949 17.5925,0 0,-40.495 -17.5925,0 0,-40.4949 17.5925,0 0,-40.495 -17.5925,0 0,-40.4949 17.5925,0 0,-40.4949 -17.5925,0 0,-40.495 -44.2441,0 c -14.7481,0 -29.4961,17.7149 -44.2442,17.7149 l -44.2441,0 -44.2442,0 -44.2442,0 -44.2442,0 c -14.7481,0 -29.4961,-17.7149 -44.2442,-17.7149 l -44.2441,0 m 708.7801,0 -44.2442,0 c -14.7481,0 -29.496,17.7149 -44.2441,17.7149 l -44.2441,0 -44.2442,0 -44.2441,0 -44.2442,0 c -14.748,0 -29.4961,-17.7149 -44.2441,-17.7149 l -44.2442,0 m 708.9084,0 -44.2442,0 c -14.748,0 -29.496,17.7149 -44.244,17.7149 l -44.2442,0 -44.2441,0 -44.2442,0 -44.2441,0 c -14.7481,0 -29.4962,-17.7149 -44.2442,-17.7149 l -44.2441,0 m 708.4064,0 -44.2442,0 c -14.748,0 -29.4961,17.7149 -44.2441,17.7149 l -44.2442,0 -44.2441,0 -44.2442,0 -44.2441,0 c -14.7481,0 -29.4961,-17.7149 -44.2442,-17.7149 l -44.2442,0 0,40.495 17.8412,0 0,40.4949 -17.8412,0 0,40.4949 17.8412,0 0,40.495 -17.8412,0 0,40.4949 17.8412,0 0,40.495 -17.8412,0 0,40.4949 m 708.9065,0 0,-40.4949 17.5925,0 0,-40.495 -17.5925,0 0,-40.4949 17.5925,0 0,-40.495 -17.5925,0 0,-40.4949 17.5925,0 0,-40.4949 -17.5925,0 0,-40.495 -44.2441,0 c -14.7481,0 -29.4961,17.7149 -44.2442,17.7149 l -44.2441,0 -44.2442,0 -44.2441,0 -44.2442,0 c -14.748,0 -29.4961,-17.7149 -44.2441,-17.7149 l -44.2442,0 m 708.78,0 -44.2441,0 c -14.7481,0 -29.4961,17.7149 -44.2442,17.7149 l -44.2441,0 -44.2442,0 -44.2441,0 -44.2442,0 c -14.748,0 -29.4961,-17.7149 -44.2441,-17.7149 l -44.2442,0 m 708.9073,283.4646 0,-40.4949 17.5924,0 0,-40.495 -17.5924,0 0,-40.4949 17.5924,0 0,-40.495 -17.5924,0 0,-40.4949 17.5924,0 0,-40.4949 -17.5924,0 0,-40.495 -44.243,0 c -14.748,0 -29.4961,17.7149 -44.2441,17.7149 l -44.2442,0 -44.2441,0 -44.2442,0 -44.2441,0 c -14.7481,0 -29.4961,-17.7149 -44.2442,-17.7149 l -44.2441,0 m -2129.9707,283.9646 -44.2442,0 c -14.748,0 -29.4961,17.7149 -44.2441,17.7149 l -44.2442,0 -44.2441,0 -44.2442,0 -44.2442,0 c -14.748,0 -29.4961,-17.7149 -44.2441,-17.7149 l -44.2442,0 0,40.495 17.8429,0 0,40.4949 -17.8429,0 0,40.4949 17.8429,0 0,40.495 -17.8429,0 0,40.4949 17.8429,0 0,40.495 -17.8429,0 0,40.4949 m 708.9066,0 0,-40.4949 17.5925,0 0,-40.495 -17.5925,0 0,-40.4949 17.5925,0 0,-40.495 -17.5925,0 0,-40.4949 17.5925,0 0,-40.4949 -17.5925,0 0,-40.495 -44.2441,0 c -14.7481,0 -29.4961,17.7149 -44.2442,17.7149 l -44.2441,0 -44.2442,0 -44.2442,0 -44.2442,0 c -14.7481,0 -29.4961,-17.7149 -44.2442,-17.7149 l -44.2441,0 m 708.7801,0 -44.2441,0 c -14.7481,0 -29.4961,17.7149 -44.2442,17.7149 l -44.2441,0 -44.2442,0 -44.2441,0 -44.2442,0 c -14.748,0 -29.4961,-17.7149 -44.2441,-17.7149 l -44.2442,0 m 708.9084,0 -44.2442,0 c -14.748,0 -29.496,17.7149 -44.244,17.7149 l -44.2442,0 -44.2441,0 -44.2442,0 -44.2441,0 c -14.7481,0 -29.4961,-17.7149 -44.2442,-17.7149 l -44.2441,0 m 708.4064,0 -44.2442,0 c -14.748,0 -29.4961,17.7149 -44.2441,17.7149 l -44.2442,0 -44.2441,0 -44.2442,0 -44.2441,0 c -14.7481,0 -29.4961,-17.7149 -44.2442,-17.7149 l -44.2442,0 0,40.495 17.8412,0 0,40.4949 -17.8412,0 0,40.4949 17.8412,0 0,40.495 -17.8412,0 0,40.4949 17.8412,0 0,40.495 -17.8412,0 0,40.4949 m 708.9065,0 0,-40.4949 17.5925,0 0,-40.495 -17.5925,0 0,-40.4949 17.5925,0 0,-40.495 -17.5925,0 0,-40.4949 17.5925,0 0,-40.4949 -17.5925,0 0,-40.495 -44.2441,0 c -14.7481,0 -29.4961,17.7149 -44.2442,17.7149 l -44.2441,0 -44.2442,0 -44.2441,0 -44.2442,0 c -14.748,0 -29.4961,-17.7149 -44.2441,-17.7149 l -44.2442,0 m 708.78,0 -44.2441,0 c -14.7481,0 -29.4961,17.7149 -44.2442,17.7149 l -44.2441,0 -44.2442,0 -44.2441,0 -44.2442,0 c -14.748,0 -29.4961,-17.7149 -44.2441,-17.7149 l -44.2442,0 m 708.9073,283.4646 0,-40.4949 17.5924,0 0,-40.495 -17.5924,0 0,-40.4949 17.5924,0 0,-40.495 -17.5924,0 0,-40.4949 17.5924,0 0,-40.4949 -17.5924,0 0,-40.495 -44.243,0 c -14.748,0 -29.4961,17.7149 -44.2441,17.7149 l -44.2442,0 -44.2441,0 -44.2442,0 -44.2441,0 c -14.7481,0 -29.4961,-17.7149 -44.2442,-17.7149 l -44.2441,0"
     style="fill:none;stroke:#ff0000;stroke-width:1;stroke-miterlimit:4;stroke-dasharray:none"
     id="path4142" />
  <g
     id="g4296"
     transform="translate(0,30)"
     style="stroke:#ff0000">
    <path
       inkscape:tile-y0="2922.6804"
       inkscape:tile-x0="58.549335"
       inkscape:tile-h="34.933"
       inkscape:tile-w="1290.3217"
       inkscape:tile-cy="2939.8969"
       inkscape:tile-cx="703.71017"
       sodipodi:nodetypes="ccccccccccccccccccccccccccccccccc"
       id="path4236"
       style="color:#000000;clip-rule:nonzero;display:inline;overflow:visible;visibility:visible;opacity:1;isolation:auto;mix-blend-mode:normal;color-interpolation:sRGB;color-interpolation-filters:linearRGB;solid-color:#000000;solid-opacity:1;fill:none;fill-opacity:1;fill-rule:nonzero;stroke:#ff0000;stroke-width:1;stroke-linecap:butt;stroke-linejoin:round;stroke-miterlimit:4;stroke-dasharray:none;stroke-dashoffset:0;stroke-opacity:1;color-rendering:auto;image-rendering:auto;shape-rendering:auto;text-rendering:auto;enable-background:accumulate"
       d="m 694.85242,2922.6804 0,11.4777 17.71653,0 0,11.4776 -17.71653,0 0,11.4777 -282.46536,0 m -0.007,-34.433 0,11.4777 -17.71671,0 0,11.4776 17.71671,0 0,11.4777 -353.330725,0 0,-11.4777 17.715586,0 0,-11.4776 -17.715586,0 0,-11.4777 m 1271.605165,0 0,11.4777 17.7165,0 0,11.4776 -17.7165,0 0,11.4777 -282.4654,0 m -0.01,-34.433 0,11.4777 -17.7167,0 0,11.4776 17.7167,0 0,11.4777 -353.33067,0"
       inkscape:connector-curvature="0" />
    <path
       inkscape:connector-curvature="0"
       d="m 412.38706,2888.2474 282.46536,0 0,11.4777 17.71653,0 0,11.4776 -17.71653,0 0,11.4777 -282.46536,0 m -0.007,0 -353.330725,0 0,-11.4777 17.715586,0 0,-11.4776 -17.715586,0 0,-11.4777 353.330725,0 0,11.4777 -17.71671,0 0,11.4776 17.71671,0 z m 635.80904,-34.433 282.4654,0 0,11.4777 17.7165,0 0,11.4776 -17.7165,0 0,11.4777 -282.4654,0 m -353.34067,-34.433 353.33067,0 0,11.4777 -17.7167,0 0,11.4776 17.7167,0 0,11.4777 -353.33067,0"
       style="color:#000000;clip-rule:nonzero;display:inline;overflow:visible;visibility:visible;opacity:1;isolation:auto;mix-blend-mode:normal;color-interpolation:sRGB;color-interpolation-filters:linearRGB;solid-color:#000000;solid-opacity:1;fill:none;fill-opacity:1;fill-rule:nonzero;stroke:#ff0000;stroke-width:1;stroke-linecap:butt;stroke-linejoin:round;stroke-miterlimit:4;stroke-dasharray:none;stroke-dashoffset:0;stroke-opacity:1;color-rendering:auto;image-rendering:auto;shape-rendering:auto;text-rendering:auto;enable-background:accumulate"
       id="path4258" />
    <use
       id="use4284"
       xlink:href="#path4236"
       inkscape:tiled-clone-of="#path4236"
       y="0"
       x="0"
       width="100%"
       height="100%"
       style="stroke:#ff0000" />
    <use
       id="use4286"
       transform="translate(0,34.933)"
       xlink:href="#path4236"
       inkscape:tiled-clone-of="#path4236"
       y="0"
       x="0"
       width="100%"
       height="100%"
       style="stroke:#ff0000" />
    <use
       id="use4288"
       transform="translate(0,69.866)"
       xlink:href="#path4236"
       inkscape:tiled-clone-of="#path4236"
       y="0"
       x="0"
       width="100%"
       height="100%"
       style="stroke:#ff0000" />
    <use
       id="use4290"
       transform="translate(0,104.799)"
       xlink:href="#path4236"
       inkscape:tiled-clone-of="#path4236"
       y="0"
       x="0"
       width="100%"
       height="100%"
       style="stroke:#ff0000" />
    <use
       id="use4292"
       transform="translate(0,139.732)"
       xlink:href="#path4236"
       inkscape:tiled-clone-of="#path4236"
       y="0"
       x="0"
       width="100%"
       height="100%"
       style="stroke:#ff0000" />
    <use
       id="use4294"
       transform="translate(0,174.665)"
       xlink:href="#path4236"
       inkscape:tiled-clone-of="#path4236"
       y="0"
       x="0"
       width="100%"
       height="100%"
       style="stroke:#ff0000" />
  </g>
</svg>
