<?xml version="1.0" encoding="UTF-8" standalone="no"?>
<!-- Created with Inkscape (http://www.inkscape.org/) -->

<svg
   xmlns:dc="http://purl.org/dc/elements/1.1/"
   xmlns:cc="http://creativecommons.org/ns#"
   xmlns:rdf="http://www.w3.org/1999/02/22-rdf-syntax-ns#"
   xmlns:svg="http://www.w3.org/2000/svg"
   xmlns="http://www.w3.org/2000/svg"
   xmlns:sodipodi="http://sodipodi.sourceforge.net/DTD/sodipodi-0.dtd"
   xmlns:inkscape="http://www.inkscape.org/namespaces/inkscape"
   width="806.54761mm"
   height="898.54633mm"
   viewBox="0 0 2857.8459 3183.8256"
   id="svg2"
   version="1.1"
   inkscape:version="0.91 r13725"
   sodipodi:docname="legobox_2panneau_2.svg">
  <sodipodi:namedview
     id="base"
     pagecolor="#ffffff"
     bordercolor="#666666"
     borderopacity="1.0"
     inkscape:pageopacity="0.0"
     inkscape:pageshadow="2"
     inkscape:zoom="0.175"
     inkscape:cx="2113.5611"
     inkscape:cy="1898.4617"
     inkscape:document-units="px"
     inkscape:current-layer="svg2"
     showgrid="false"
     inkscape:window-width="1920"
     inkscape:window-height="1007"
     inkscape:window-x="0"
     inkscape:window-y="27"
     inkscape:window-maximized="1"
     fit-margin-top="0"
     fit-margin-left="0"
     fit-margin-right="0"
     fit-margin-bottom="0" />
  <defs
     id="defs4" />
  <metadata
     id="metadata7">
    <rdf:RDF>
      <cc:Work
         rdf:about="">
        <dc:format>image/svg+xml</dc:format>
        <dc:type
           rdf:resource="http://purl.org/dc/dcmitype/StillImage" />
        <dc:title></dc:title>
      </cc:Work>
    </rdf:RDF>
  </metadata>
  <g
     id="layer1"
     inkscape:groupmode="layer"
     inkscape:label="Calque 1"
     transform="translate(1436.3238,508.54008)" />
  <path
     id="use4393"
     style="fill:none;stroke:#000000;stroke-width:1;stroke-miterlimit:4;stroke-dasharray:none;stroke-opacity:1"
     d="m 2676.6817,283.9646 0,-40.495 17.5933,0 0,-40.4949 -17.5933,0 0,-40.4949 17.5933,0 0,-40.495 -17.5933,0 0,-40.4949 17.5933,0 0,-40.495 -17.5933,0 0,-40.4949 -26.5261,0 c -14.7481,0 -29.4961,17.7149 -44.2442,17.7149 l -44.2441,0 -44.2442,0 -44.2442,0 -44.2441,0 C 2414.1867,18.2149 2399.4387,0.5 2384.6906,0.5 l -44.2441,0 m 336.2352,283.9646 -26.5261,0 c -14.7481,0 -29.4961,17.7149 -44.2442,17.7149 l -44.2441,0 -44.2442,0 -44.2442,0 -44.2441,0 c -14.7481,0 -29.4961,-17.7149 -44.2442,-17.7149 l -44.2441,0 m 2.118,-0.5 0,-40.495 17.5933,0 0,-40.4949 -17.5933,0 0,-40.4949 17.5933,0 0,-40.495 -17.5933,0 0,-40.4949 17.5933,0 0,-40.495 -17.5933,0 0,-40.4949 -26.5261,0 c -14.7481,0 -29.4961,17.7149 -44.2442,17.7149 l -44.2441,0 -44.2442,0 -44.2442,0 -44.2441,0 C 2080.0695,18.2149 2065.3215,0.5 2050.5734,0.5 l -44.2441,0 m 336.2352,283.9646 -26.5261,0 c -14.7481,0 -29.4961,17.7149 -44.2442,17.7149 l -44.2441,0 -44.2442,0 -44.2442,0 -44.2441,0 c -14.7481,0 -29.4961,-17.7149 -44.2442,-17.7149 l -44.2441,0 m 2.1177,-0.5 0,-40.495 17.5933,0 0,-40.4949 -17.5933,0 0,-40.4949 17.5933,0 0,-40.495 -17.5933,0 0,-40.4949 17.5933,0 0,-40.495 -17.5933,0 0,-40.4949 -26.5261,0 c -14.7481,0 -29.4961,17.7149 -44.2442,17.7149 l -44.2441,0 -44.2442,0 -44.2442,0 -44.2441,0 C 1745.952,18.2149 1731.204,0.5 1716.4559,0.5 l -44.2441,0 m 336.2352,283.9646 -26.5261,0 c -14.7481,0 -29.4961,17.7149 -44.2442,17.7149 l -44.2441,0 -44.2442,0 -44.2442,0 -44.2441,0 c -14.7481,0 -29.4961,-17.7149 -44.2442,-17.7149 l -44.2441,0 m 2.118,-0.5 0,-40.495 17.5933,0 0,-40.4949 -17.5933,0 0,-40.4949 17.5933,0 0,-40.495 -17.5933,0 0,-40.4949 17.5933,0 0,-40.495 -17.5933,0 0,-40.4949 -26.5261,0 c -14.7481,0 -29.4961,17.7149 -44.2442,17.7149 l -44.2441,0 -44.2442,0 -44.2442,0 -44.2441,0 C 1411.8348,18.2149 1397.0868,0.5 1382.3387,0.5 l -44.2441,0 m 336.2352,283.9646 -26.5261,0 c -14.7481,0 -29.4961,17.7149 -44.2442,17.7149 l -44.2441,0 -44.2442,0 -44.2442,0 -44.2441,0 c -14.7481,0 -29.4961,-17.7149 -44.2442,-17.7149 l -44.2441,0 m 2.118,-0.5 0,-40.495 17.5933,0 0,-40.4949 -17.5933,0 0,-40.4949 17.5933,0 0,-40.495 -17.5933,0 0,-40.4949 17.5933,0 0,-40.495 -17.5933,0 0,-40.4949 -26.5261,0 c -14.7481,0 -29.4961,17.7149 -44.2442,17.7149 l -44.2441,0 -44.2442,0 -44.2442,0 -44.2441,0 C 1077.7176,18.2149 1062.9696,0.5 1048.2215,0.5 l -44.2441,0 m 336.2352,283.9646 -26.5261,0 c -14.7481,0 -29.4961,17.7149 -44.2442,17.7149 l -44.2441,0 -44.2442,0 -44.2442,0 -44.2441,0 c -14.7481,0 -29.4961,-17.7149 -44.2442,-17.7149 l -44.2441,0 m 2.118,-0.5 0,-40.495 17.5932,0 0,-40.4949 -17.5932,0 0,-40.4949 17.5932,0 0,-40.495 -17.5932,0 0,-40.4949 17.5932,0 0,-40.495 -17.5932,0 0,-40.4949 -26.52618,0 c -14.7481,0 -29.4961,17.7149 -44.2442,17.7149 l -44.2441,0 -44.2442,0 -44.2442,0 -44.2441,0 C 743.60032,18.2149 728.85232,0.5 714.10422,0.5 l -44.2441,0 m 336.23528,283.9646 -26.52618,0 c -14.7481,0 -29.4961,17.7149 -44.2442,17.7149 l -44.2441,0 -44.2442,0 -44.2442,0 -44.2441,0 c -14.7481,0 -29.4961,-17.7149 -44.2442,-17.7149 l -44.2441,0 m -331.74926,-0.5 0,-40.495 17.59324,0 0,-40.4949 -17.59324,0 0,-40.4949 17.59324,0 0,-40.495 -17.59324,0 0,-40.4949 17.59324,0 0,-40.495 -17.59324,0 0,-40.4949 -26.52616,0 c -14.7481,0 -29.4961,17.7149 -44.2442,17.7149 l -44.2441,0 -44.2442,0 -44.2442,0 -44.2441,0 C 75.6158,18.2149 60.8678,0.5 46.1197,0.5 l -44.2441,0 0,40.4949 17.8427,0 0,40.495 -17.8427,0 0,40.4949 17.8427,0 0,40.495 -17.8427,0 0,40.4949 17.8427,0 0,40.4949 -17.8427,0 0,40.495 m 336.23526,0.5 -26.52616,0 c -14.7481,0 -29.4961,17.7149 -44.2442,17.7149 l -44.2441,0 -44.2442,0 -44.2442,0 -44.2441,0 c -14.7481,0 -29.4961,-17.7149 -44.2442,-17.7149 l -44.2441,0 m 670.10252,-0.5 0,-40.495 17.59324,0 0,-40.4949 -17.59324,0 0,-40.4949 17.59324,0 0,-40.495 -17.59324,0 0,-40.4949 17.59324,0 0,-40.495 -17.59324,0 0,-40.4949 -26.52616,0 c -14.7481,0 -29.4961,17.7149 -44.2442,17.7149 l -44.2441,0 -44.2442,0 -44.2442,0 -44.2441,0 C 409.48306,18.2149 394.73506,0.5 379.98696,0.5 l -44.2441,0 m 336.23526,283.9646 -26.52616,0 c -14.7481,0 -29.4961,17.7149 -44.2442,17.7149 l -44.2441,0 -44.2442,0 -44.2442,0 -44.2441,0 c -14.7481,0 -29.4961,-17.7149 -44.2442,-17.7149 l -44.2441,0"
     inkscape:tile-cx="1348.0753"
     inkscape:tile-cy="151.33975"
     inkscape:tile-w="2693.3994"
     inkscape:tile-h="302.6795"
     inkscape:tile-x0="1.3756"
     inkscape:tile-y0="-8.8817842e-16" />
  <path
     inkscape:tile-y0="285.46142"
     inkscape:tile-x0="1.3756"
     d="m 2676.6817,567.63037 0,-40.495 17.5933,0 0,-40.4949 -17.5933,0 0,-40.4949 17.5933,0 0,-40.495 -17.5933,0 0,-40.4949 17.5933,0 0,-40.495 -17.5933,0 0,-40.4949 m 0,283.9646 -26.5261,0 c -14.7481,0 -29.4961,17.7149 -44.2442,17.7149 l -44.2441,0 -44.2442,0 -44.2442,0 -44.2441,0 c -14.7481,0 -29.4961,-17.7149 -44.2442,-17.7149 l -44.2441,0 m 2.118,-0.5 0,-40.495 17.5933,0 0,-40.4949 -17.5933,0 0,-40.4949 17.5933,0 0,-40.495 -17.5933,0 0,-40.4949 17.5933,0 0,-40.495 -17.5933,0 0,-40.4949 m 0,283.9646 -26.5261,0 c -14.7481,0 -29.4961,17.7149 -44.2442,17.7149 l -44.2441,0 -44.2442,0 -44.2442,0 -44.2441,0 c -14.7481,0 -29.4961,-17.7149 -44.2442,-17.7149 l -44.2441,0 m 2.1177,-0.5 0,-40.495 17.5933,0 0,-40.4949 -17.5933,0 0,-40.4949 17.5933,0 0,-40.495 -17.5933,0 0,-40.4949 17.5933,0 0,-40.495 -17.5933,0 0,-40.4949 m 0,283.9646 -26.5261,0 c -14.7481,0 -29.4961,17.7149 -44.2442,17.7149 l -44.2441,0 -44.2442,0 -44.2442,0 -44.2441,0 c -14.7481,0 -29.4961,-17.7149 -44.2442,-17.7149 l -44.2441,0 m 2.118,-0.5 0,-40.495 17.5933,0 0,-40.4949 -17.5933,0 0,-40.4949 17.5933,0 0,-40.495 -17.5933,0 0,-40.4949 17.5933,0 0,-40.495 -17.5933,0 0,-40.4949 m 0,283.9646 -26.5261,0 c -14.7481,0 -29.4961,17.7149 -44.2442,17.7149 l -44.2441,0 -44.2442,0 -44.2442,0 -44.2441,0 c -14.7481,0 -29.4961,-17.7149 -44.2442,-17.7149 l -44.2441,0 m 2.118,-0.5 0,-40.495 17.5933,0 0,-40.4949 -17.5933,0 0,-40.4949 17.5933,0 0,-40.495 -17.5933,0 0,-40.4949 17.5933,0 0,-40.495 -17.5933,0 0,-40.4949 m 0,283.9646 -26.5261,0 c -14.7481,0 -29.4961,17.7149 -44.2442,17.7149 l -44.2441,0 -44.2442,0 -44.2442,0 -44.2441,0 c -14.7481,0 -29.4961,-17.7149 -44.2442,-17.7149 l -44.2441,0 m 2.118,-0.5 0,-40.495 17.5932,0 0,-40.4949 -17.5932,0 0,-40.4949 17.5932,0 0,-40.495 -17.5932,0 0,-40.4949 17.5932,0 0,-40.495 -17.5932,0 0,-40.4949 m 0,283.9646 -26.52618,0 c -14.7481,0 -29.4961,17.7149 -44.2442,17.7149 l -44.2441,0 -44.2442,0 -44.2442,0 -44.2441,0 c -14.7481,0 -29.4961,-17.7149 -44.2442,-17.7149 l -44.2441,0 m -331.74926,-0.5 0,-40.495 17.59324,0 0,-40.4949 -17.59324,0 0,-40.4949 17.59324,0 0,-40.495 -17.59324,0 0,-40.4949 17.59324,0 0,-40.495 -17.59324,0 0,-40.4949 m -336.23526,0 0,40.4949 17.8427,0 0,40.495 -17.8427,0 0,40.4949 17.8427,0 0,40.495 -17.8427,0 0,40.4949 17.8427,0 0,40.4949 -17.8427,0 0,40.495 m 336.23526,0.5 -26.52616,0 c -14.7481,0 -29.4961,17.7149 -44.2442,17.7149 l -44.2441,0 -44.2442,0 -44.2442,0 -44.2441,0 c -14.7481,0 -29.4961,-17.7149 -44.2442,-17.7149 l -44.2441,0 m 670.10252,-0.5 0,-40.495 17.59324,0 0,-40.4949 -17.59324,0 0,-40.4949 17.59324,0 0,-40.495 -17.59324,0 0,-40.4949 17.59324,0 0,-40.495 -17.59324,0 0,-40.4949 m 0,283.9646 -26.52616,0 c -14.7481,0 -29.4961,17.7149 -44.2442,17.7149 l -44.2441,0 -44.2442,0 -44.2442,0 -44.2441,0 c -14.7481,0 -29.4961,-17.7149 -44.2442,-17.7149 l -44.2441,0"
     style="fill:none;stroke:#000000;stroke-width:1;stroke-miterlimit:4;stroke-dasharray:none;stroke-opacity:1"
     id="use4461"
     inkscape:connector-curvature="0"
     sodipodi:nodetypes="cccccccccccccccsscccssccccccccccccccccsscccssccccccccccccccccsscccssccccccccccccccccsscccssccccccccccccccccsscccssccccccccccccccccsscccssccccccccccccccccccccccccccccccsscccssccccccccccccccccsscccssc"
     inkscape:tile-cx="1348.0753"
     inkscape:tile-cy="436.30117"
     inkscape:tile-w="2693.3994"
     inkscape:tile-h="302.1795" />
  <path
     sodipodi:nodetypes="cccccccccccccccsscccssccccccccccccccccsscccssccccccccccccccccsscccssccccccccccccccccsscccssccccccccccccccccsscccssccccccccccccccccsscccssccccccccccccccccccccccccccccccsscccssccccccccccccccccsscccssc"
     inkscape:connector-curvature="0"
     id="use4467"
     style="fill:none;stroke:#000000;stroke-width:1;stroke-miterlimit:4;stroke-dasharray:none;stroke-opacity:1"
     d="m 2676.6817,851.54613 0,-40.495 17.5933,0 0,-40.4949 -17.5933,0 0,-40.4949 17.5933,0 0,-40.495 -17.5933,0 0,-40.4949 17.5933,0 0,-40.495 -17.5933,0 0,-40.4949 m 0,283.9646 -26.5261,0 c -14.7481,0 -29.4961,17.7149 -44.2442,17.7149 l -44.2441,0 -44.2442,0 -44.2442,0 -44.2441,0 c -14.7481,0 -29.4961,-17.7149 -44.2442,-17.7149 l -44.2441,0 m 2.118,-0.5 0,-40.495 17.5933,0 0,-40.4949 -17.5933,0 0,-40.4949 17.5933,0 0,-40.495 -17.5933,0 0,-40.4949 17.5933,0 0,-40.495 -17.5933,0 0,-40.4949 m 0,283.9646 -26.5261,0 c -14.7481,0 -29.4961,17.7149 -44.2442,17.7149 l -44.2441,0 -44.2442,0 -44.2442,0 -44.2441,0 c -14.7481,0 -29.4961,-17.7149 -44.2442,-17.7149 l -44.2441,0 m 2.1177,-0.5 0,-40.495 17.5933,0 0,-40.4949 -17.5933,0 0,-40.4949 17.5933,0 0,-40.495 -17.5933,0 0,-40.4949 17.5933,0 0,-40.495 -17.5933,0 0,-40.4949 m 0,283.9646 -26.5261,0 c -14.7481,0 -29.4961,17.7149 -44.2442,17.7149 l -44.2441,0 -44.2442,0 -44.2442,0 -44.2441,0 c -14.7481,0 -29.4961,-17.7149 -44.2442,-17.7149 l -44.2441,0 m 2.118,-0.5 0,-40.495 17.5933,0 0,-40.4949 -17.5933,0 0,-40.4949 17.5933,0 0,-40.495 -17.5933,0 0,-40.4949 17.5933,0 0,-40.495 -17.5933,0 0,-40.4949 m 0,283.9646 -26.5261,0 c -14.7481,0 -29.4961,17.7149 -44.2442,17.7149 l -44.2441,0 -44.2442,0 -44.2442,0 -44.2441,0 c -14.7481,0 -29.4961,-17.7149 -44.2442,-17.7149 l -44.2441,0 m 2.118,-0.5 0,-40.495 17.5933,0 0,-40.4949 -17.5933,0 0,-40.4949 17.5933,0 0,-40.495 -17.5933,0 0,-40.4949 17.5933,0 0,-40.495 -17.5933,0 0,-40.4949 m 0,283.9646 -26.5261,0 c -14.7481,0 -29.4961,17.7149 -44.2442,17.7149 l -44.2441,0 -44.2442,0 -44.2442,0 -44.2441,0 c -14.7481,0 -29.4961,-17.7149 -44.2442,-17.7149 l -44.2441,0 m 2.118,-0.5 0,-40.495 17.5932,0 0,-40.4949 -17.5932,0 0,-40.4949 17.5932,0 0,-40.495 -17.5932,0 0,-40.4949 17.5932,0 0,-40.495 -17.5932,0 0,-40.4949 m 0,283.9646 -26.52618,0 c -14.7481,0 -29.4961,17.7149 -44.2442,17.7149 l -44.2441,0 -44.2442,0 -44.2442,0 -44.2441,0 c -14.7481,0 -29.4961,-17.7149 -44.2442,-17.7149 l -44.2441,0 m -331.74926,-0.5 0,-40.495 17.59324,0 0,-40.4949 -17.59324,0 0,-40.4949 17.59324,0 0,-40.495 -17.59324,0 0,-40.4949 17.59324,0 0,-40.495 -17.59324,0 0,-40.4949 m -336.23526,0 0,40.4949 17.8427,0 0,40.495 -17.8427,0 0,40.4949 17.8427,0 0,40.495 -17.8427,0 0,40.4949 17.8427,0 0,40.4949 -17.8427,0 0,40.495 m 336.23526,0.5 -26.52616,0 c -14.7481,0 -29.4961,17.7149 -44.2442,17.7149 l -44.2441,0 -44.2442,0 -44.2442,0 -44.2441,0 c -14.7481,0 -29.4961,-17.7149 -44.2442,-17.7149 l -44.2441,0 m 670.10252,-0.5 0,-40.495 17.59324,0 0,-40.4949 -17.59324,0 0,-40.4949 17.59324,0 0,-40.495 -17.59324,0 0,-40.4949 17.59324,0 0,-40.495 -17.59324,0 0,-40.4949 m 0,283.9646 -26.52616,0 c -14.7481,0 -29.4961,17.7149 -44.2442,17.7149 l -44.2441,0 -44.2442,0 -44.2442,0 -44.2441,0 c -14.7481,0 -29.4961,-17.7149 -44.2442,-17.7149 l -44.2441,0"
     inkscape:tile-x0="1.3756"
     inkscape:tile-y0="285.46142" />
  <path
     sodipodi:nodetypes="cccccccccccccccsscccssccsscccssccccccccccccccccsscccssccsscccssccccccccccccccccsscccssccccccccccccccccsscccssccccccccccccccccccccccccccccccsscccssccccccccccccccccsscccssc"
     inkscape:connector-curvature="0"
     id="use4471"
     style="fill:none;stroke:#000000;stroke-width:1;stroke-miterlimit:4;stroke-dasharray:none;stroke-opacity:1"
     d="m 2676.6817,1135.462 0,-40.495 17.5933,0 0,-40.4949 -17.5933,0 0,-40.4949 17.5933,0 0,-40.49504 -17.5933,0 0,-40.4949 17.5933,0 0,-40.495 -17.5933,0 0,-40.4949 m 0,283.96464 -26.5261,0 c -14.7481,0 -29.4961,17.7149 -44.2442,17.7149 l -44.2441,0 -44.2442,0 -44.2442,0 -44.2441,0 c -14.7481,0 -29.4961,-17.7149 -44.2442,-17.7149 l -44.2441,0 m 2.118,0 -26.5261,0 c -14.7481,0 -29.4961,17.7149 -44.2442,17.7149 l -44.2441,0 -44.2442,0 -44.2442,0 -44.2441,0 c -14.7481,0 -29.4961,-17.7149 -44.2442,-17.7149 l -44.2441,0 m 2.1177,-0.5 0,-40.495 17.5933,0 0,-40.4949 -17.5933,0 0,-40.4949 17.5933,0 0,-40.49504 -17.5933,0 0,-40.4949 17.5933,0 0,-40.495 -17.5933,0 0,-40.4949 m 0,283.96464 -26.5261,0 c -14.7481,0 -29.4961,17.7149 -44.2442,17.7149 l -44.2441,0 -44.2442,0 -44.2442,0 -44.2441,0 c -14.7481,0 -29.4961,-17.7149 -44.2442,-17.7149 l -44.2441,0 m 2.118,0 -26.5261,0 c -14.7481,0 -29.4961,17.7149 -44.2442,17.7149 l -44.2441,0 -44.2442,0 -44.2442,0 -44.2441,0 c -14.7481,0 -29.4961,-17.7149 -44.2442,-17.7149 l -44.2441,0 m 2.118,-0.5 0,-40.495 17.5933,0 0,-40.4949 -17.5933,0 0,-40.4949 17.5933,0 0,-40.49504 -17.5933,0 0,-40.4949 17.5933,0 0,-40.495 -17.5933,0 0,-40.4949 m 0,283.96464 -26.5261,0 c -14.7481,0 -29.4961,17.7149 -44.2442,17.7149 l -44.2441,0 -44.2442,0 -44.2442,0 -44.2441,0 c -14.7481,0 -29.4961,-17.7149 -44.2442,-17.7149 l -44.2441,0 m 2.118,-0.5 0,-40.495 17.5932,0 0,-40.4949 -17.5932,0 0,-40.4949 17.5932,0 0,-40.49504 -17.5932,0 0,-40.4949 17.5932,0 0,-40.495 -17.5932,0 0,-40.4949 m 0,283.96464 -26.52618,0 c -14.7481,0 -29.4961,17.7149 -44.2442,17.7149 l -44.2441,0 -44.2442,0 -44.2442,0 -44.2441,0 c -14.7481,0 -29.4961,-17.7149 -44.2442,-17.7149 l -44.2441,0 m -331.74926,-0.5 0,-40.495 17.59324,0 0,-40.4949 -17.59324,0 0,-40.4949 17.59324,0 0,-40.49504 -17.59324,0 0,-40.4949 17.59324,0 0,-40.495 -17.59324,0 0,-40.4949 m -336.23526,0 0,40.4949 17.8427,0 0,40.495 -17.8427,0 0,40.4949 17.8427,0 0,40.49504 -17.8427,0 0,40.4949 17.8427,0 0,40.4949 -17.8427,0 0,40.495 m 336.23526,0.5 -26.52616,0 c -14.7481,0 -29.4961,17.7149 -44.2442,17.7149 l -44.2441,0 -44.2442,0 -44.2442,0 -44.2441,0 c -14.7481,0 -29.4961,-17.7149 -44.2442,-17.7149 l -44.2441,0 m 670.10252,-0.5 0,-40.495 17.59324,0 0,-40.4949 -17.59324,0 0,-40.4949 17.59324,0 0,-40.49504 -17.59324,0 0,-40.4949 17.59324,0 0,-40.495 -17.59324,0 0,-40.4949 m 0,283.96464 -26.52616,0 c -14.7481,0 -29.4961,17.7149 -44.2442,17.7149 l -44.2441,0 -44.2442,0 -44.2442,0 -44.2441,0 c -14.7481,0 -29.4961,-17.7149 -44.2442,-17.7149 l -44.2441,0"
     inkscape:tile-x0="1.3756"
     inkscape:tile-y0="285.46142" />
  <path
     sodipodi:nodetypes="cccccccccccccccsscccssccsscccssccccccccccccccccsscccssccsscccssccccccccccccccccsscccssccccccccccccccccsscccssccccccccccccccccccccccccccccccsscccssccccccccccccccccsscccssc"
     inkscape:connector-curvature="0"
     id="use4473"
     style="fill:none;stroke:#000000;stroke-width:1;stroke-miterlimit:4;stroke-dasharray:none;stroke-opacity:1"
     d="m 2676.6817,1419.3778 0,-40.495 17.5933,0 0,-40.4949 -17.5933,0 0,-40.4949 17.5933,0 0,-40.495 -17.5933,0 0,-40.4949 17.5933,0 0,-40.495 -17.5933,0 0,-40.4949 m 0,283.9646 -26.5261,0 c -14.7481,0 -29.4961,17.7149 -44.2442,17.7149 l -44.2441,0 -44.2442,0 -44.2442,0 -44.2441,0 c -14.7481,0 -29.4961,-17.7149 -44.2442,-17.7149 l -44.2441,0 m 2.118,0 -26.5261,0 c -14.7481,0 -29.4961,17.7149 -44.2442,17.7149 l -44.2441,0 -44.2442,0 -44.2442,0 -44.2441,0 c -14.7481,0 -29.4961,-17.7149 -44.2442,-17.7149 l -44.2441,0 m 2.1177,-0.5 0,-40.495 17.5933,0 0,-40.4949 -17.5933,0 0,-40.4949 17.5933,0 0,-40.495 -17.5933,0 0,-40.4949 17.5933,0 0,-40.495 -17.5933,0 0,-40.4949 m 0,283.9646 -26.5261,0 c -14.7481,0 -29.4961,17.7149 -44.2442,17.7149 l -44.2441,0 -44.2442,0 -44.2442,0 -44.2441,0 c -14.7481,0 -29.4961,-17.7149 -44.2442,-17.7149 l -44.2441,0 m 2.118,0 -26.5261,0 c -14.7481,0 -29.4961,17.7149 -44.2442,17.7149 l -44.2441,0 -44.2442,0 -44.2442,0 -44.2441,0 c -14.7481,0 -29.4961,-17.7149 -44.2442,-17.7149 l -44.2441,0 m 2.118,-0.5 0,-40.495 17.5933,0 0,-40.4949 -17.5933,0 0,-40.4949 17.5933,0 0,-40.495 -17.5933,0 0,-40.4949 17.5933,0 0,-40.495 -17.5933,0 0,-40.4949 m 0,283.9646 -26.5261,0 c -14.7481,0 -29.4961,17.7149 -44.2442,17.7149 l -44.2441,0 -44.2442,0 -44.2442,0 -44.2441,0 c -14.7481,0 -29.4961,-17.7149 -44.2442,-17.7149 l -44.2441,0 m 2.118,-0.5 0,-40.495 17.5932,0 0,-40.4949 -17.5932,0 0,-40.4949 17.5932,0 0,-40.495 -17.5932,0 0,-40.4949 17.5932,0 0,-40.495 -17.5932,0 0,-40.4949 m 0,283.9646 -26.52618,0 c -14.7481,0 -29.4961,17.7149 -44.2442,17.7149 l -44.2441,0 -44.2442,0 -44.2442,0 -44.2441,0 c -14.7481,0 -29.4961,-17.7149 -44.2442,-17.7149 l -44.2441,0 m -331.74926,-0.5 0,-40.495 17.59324,0 0,-40.4949 -17.59324,0 0,-40.4949 17.59324,0 0,-40.495 -17.59324,0 0,-40.4949 17.59324,0 0,-40.495 -17.59324,0 0,-40.4949 m -336.23526,0 0,40.4949 17.8427,0 0,40.495 -17.8427,0 0,40.4949 17.8427,0 0,40.495 -17.8427,0 0,40.4949 17.8427,0 0,40.4949 -17.8427,0 0,40.495 m 336.23526,0.5 -26.52616,0 c -14.7481,0 -29.4961,17.7149 -44.2442,17.7149 l -44.2441,0 -44.2442,0 -44.2442,0 -44.2441,0 c -14.7481,0 -29.4961,-17.7149 -44.2442,-17.7149 l -44.2441,0 m 670.10252,-0.5 0,-40.495 17.59324,0 0,-40.4949 -17.59324,0 0,-40.4949 17.59324,0 0,-40.495 -17.59324,0 0,-40.4949 17.59324,0 0,-40.495 -17.59324,0 0,-40.4949 m 0,283.9646 -26.52616,0 c -14.7481,0 -29.4961,17.7149 -44.2442,17.7149 l -44.2441,0 -44.2442,0 -44.2442,0 -44.2441,0 c -14.7481,0 -29.4961,-17.7149 -44.2442,-17.7149 l -44.2441,0"
     inkscape:tile-x0="1.3756"
     inkscape:tile-y0="285.46142" />
  <path
     sodipodi:nodetypes="cccccccccccccccsscccssccsscccssccsscccssccsscccssccccccccccccccccsscccssccsscccssccccccccccccccccsscccssccsscccssc"
     inkscape:connector-curvature="0"
     id="use4475"
     style="fill:none;stroke:#000000;stroke-width:1;stroke-miterlimit:4;stroke-dasharray:none;stroke-opacity:1"
     d="m 2676.6817,2888.9566 0,-40.4949 17.5933,0 0,-40.4949 -17.5933,0 0,-40.495 17.5933,0 0,-40.495 -17.5933,0 0,-40.4948 17.5933,0 0,-40.495 -17.5933,0 0,-40.4949 m 0,283.9645 -26.5261,0 c -14.7481,0 -29.4961,17.7149 -44.2442,17.7149 l -44.2441,0 -44.2442,0 -44.2442,0 -44.2441,0 c -14.7481,0 -29.4961,-17.7149 -44.2442,-17.7149 l -44.2441,0 m 2.118,0 -26.5261,0 c -14.7481,0 -29.4961,17.7149 -44.2442,17.7149 l -44.2441,0 -44.2442,0 -44.2442,0 -44.2441,0 c -14.7481,0 -29.4961,-17.7149 -44.2442,-17.7149 l -44.2441,0 m 2.1177,0 -26.5261,0 c -14.7481,0 -29.4961,17.7149 -44.2442,17.7149 l -44.2441,0 -44.2442,0 -44.2442,0 -44.2441,0 c -14.7481,0 -29.4961,-17.7149 -44.2442,-17.7149 l -44.2441,0 m 2.118,0 -26.5261,0 c -14.7481,0 -29.4961,17.7149 -44.2442,17.7149 l -44.2441,0 -44.2442,0 -44.2442,0 -44.2441,0 c -14.7481,0 -29.4961,-17.7149 -44.2442,-17.7149 l -44.2441,0 m 2.118,-0.5 0,-40.4949 17.5933,0 0,-40.4949 -17.5933,0 0,-40.495 17.5933,0 0,-40.495 -17.5933,0 0,-40.4948 17.5933,0 0,-40.495 -17.5933,0 0,-40.4949 m 0,283.9645 -26.5261,0 c -14.7481,0 -29.4961,17.7149 -44.2442,17.7149 l -44.2441,0 -44.2442,0 -44.2442,0 -44.2441,0 c -14.7481,0 -29.4961,-17.7149 -44.2442,-17.7149 l -44.2441,0 m 2.118,0 -26.52618,0 c -14.7481,0 -29.4961,17.7149 -44.2442,17.7149 l -44.2441,0 -44.2442,0 -44.2442,0 -44.2441,0 c -14.7481,0 -29.4961,-17.7149 -44.2442,-17.7149 l -44.2441,0 M 1.8756,2605.4921 l 0,40.4949 17.8427,0 0,40.495 -17.8427,0 0,40.4948 17.8427,0 0,40.495 -17.8427,0 0,40.495 17.8427,0 0,40.4949 -17.8427,0 0,40.4949 m 336.23526,0.5 -26.52616,0 c -14.7481,0 -29.4961,17.7149 -44.2442,17.7149 l -44.2441,0 -44.2442,0 -44.2442,0 -44.2441,0 c -14.7481,0 -29.4961,-17.7149 -44.2442,-17.7149 l -44.2441,0 m 670.10252,0 -26.52616,0 c -14.7481,0 -29.4961,17.7149 -44.2442,17.7149 l -44.2441,0 -44.2442,0 -44.2442,0 -44.2441,0 c -14.7481,0 -29.4961,-17.7149 -44.2442,-17.7149 l -44.2441,0"
     inkscape:tile-x0="1.3756"
     inkscape:tile-y0="285.46142" />
  <path
     sodipodi:nodetypes="cccccccccccccccsscccssccsscccssccsscccssccsscccssccccccccccccccccsscccssccsscccssccccccccccccccccsscccssccsscccssc"
     inkscape:connector-curvature="0"
     id="use4477"
     style="fill:none;stroke:#000000;stroke-width:1;stroke-miterlimit:4;stroke-dasharray:none;stroke-opacity:1"
     d="m 2676.6817,3172.8724 0,-40.4949 17.5933,0 0,-40.4949 -17.5933,0 0,-40.495 17.5933,0 0,-40.495 -17.5933,0 0,-40.4948 17.5933,0 0,-40.495 -17.5933,0 0,-40.495 m 0,283.9646 -26.5261,0 c -14.7481,0 -29.4961,17.7149 -44.2442,17.7149 l -44.2441,0 -44.2442,0 -44.2442,0 -44.2441,0 c -14.7481,0 -29.4961,-17.7149 -44.2442,-17.7149 l -44.2441,0 m 2.118,0 -26.5261,0 c -14.7481,0 -29.4961,17.7149 -44.2442,17.7149 l -44.2441,0 -44.2442,0 -44.2442,0 -44.2441,0 c -14.7481,0 -29.4961,-17.7149 -44.2442,-17.7149 l -44.2441,0 m 2.1177,0 -26.5261,0 c -14.7481,0 -29.4961,17.7149 -44.2442,17.7149 l -44.2441,0 -44.2442,0 -44.2442,0 -44.2441,0 c -14.7481,0 -29.4961,-17.7149 -44.2442,-17.7149 l -44.2441,0 m 2.118,0 -26.5261,0 c -14.7481,0 -29.4961,17.7149 -44.2442,17.7149 l -44.2441,0 -44.2442,0 -44.2442,0 -44.2441,0 c -14.7481,0 -29.4961,-17.7149 -44.2442,-17.7149 l -44.2441,0 m 2.118,-0.5 0,-40.4949 17.5933,0 0,-40.495 -17.5933,0 0,-40.4949 17.5933,0 0,-40.495 -17.5933,0 0,-40.4949 17.5933,0 0,-40.495 -17.5933,0 0,-40.4949 m 0,283.9646 -26.5261,0 c -14.7481,0 -29.4961,17.7149 -44.2442,17.7149 l -44.2441,0 -44.2442,0 -44.2442,0 -44.2441,0 c -14.7481,0 -29.4961,-17.7149 -44.2442,-17.7149 l -44.2441,0 m 2.118,0 -26.52618,0 c -14.7481,0 -29.4961,17.7149 -44.2442,17.7149 l -44.2441,0 -44.2442,0 -44.2442,0 -44.2441,0 c -14.7481,0 -29.4961,-17.7149 -44.2442,-17.7149 l -44.2441,0 M 1.8756,2889.4078 l 0,40.495 17.8427,0 0,40.495 -17.8427,0 0,40.4948 17.8427,0 0,40.495 -17.8427,0 0,40.495 17.8427,0 0,40.4949 -17.8427,0 0,40.4949 m 336.23526,0.5 -26.52616,0 c -14.7481,0 -29.4961,17.7149 -44.2442,17.7149 l -44.2441,0 -44.2442,0 -44.2442,0 -44.2441,0 c -14.7481,0 -29.4961,-17.7149 -44.2442,-17.7149 l -44.2441,0 m 670.10252,0 -26.52616,0 c -14.7481,0 -29.4961,17.7149 -44.2442,17.7149 l -44.2441,0 -44.2442,0 -44.2442,0 -44.2441,0 c -14.7481,0 -29.4961,-17.7149 -44.2442,-17.7149 l -44.2441,0"
     inkscape:tile-x0="1.3756"
     inkscape:tile-y0="285.46142" />
  <path
     inkscape:tile-y0="285.46142"
     inkscape:tile-x0="1.3756"
     d="m 2676.6817,2321.1251 0,-40.495 17.5933,0 0,-40.4949 -17.5933,0 0,-40.4949 17.5933,0 0,-40.495 -17.5933,0 0,-40.4949 17.5933,0 0,-40.495 -17.5933,0 0,-40.4949 m 0,283.9646 -26.5261,0 c -14.7481,0 -29.4961,17.7149 -44.2442,17.7149 l -44.2441,0 -44.2442,0 -44.2442,0 -44.2441,0 c -14.7481,0 -29.4961,-17.7149 -44.2442,-17.7149 l -44.2441,0 m 2.118,0 -26.5261,0 c -14.7481,0 -29.4961,17.7149 -44.2442,17.7149 l -44.2441,0 -44.2442,0 -44.2442,0 -44.2441,0 c -14.7481,0 -29.4961,-17.7149 -44.2442,-17.7149 l -44.2441,0 m 2.1177,-0.5 0,-40.495 17.5933,0 0,-40.4949 -17.5933,0 0,-40.4949 17.5933,0 0,-40.495 -17.5933,0 0,-40.4949 17.5933,0 0,-40.495 -17.5933,0 0,-40.4949 m 0,283.9646 -26.5261,0 c -14.7481,0 -29.4961,17.7149 -44.2442,17.7149 l -44.2441,0 -44.2442,0 -44.2442,0 -44.2441,0 c -14.7481,0 -29.4961,-17.7149 -44.2442,-17.7149 l -44.2441,0 m 2.118,0 -26.5261,0 c -14.7481,0 -29.4961,17.7149 -44.2442,17.7149 l -44.2441,0 -44.2442,0 -44.2442,0 -44.2441,0 c -14.7481,0 -29.4961,-17.7149 -44.2442,-17.7149 l -44.2441,0 m 2.118,-0.5 0,-40.495 17.5933,0 0,-40.4949 -17.5933,0 0,-40.4949 17.5933,0 0,-40.495 -17.5933,0 0,-40.4949 17.5933,0 0,-40.495 -17.5933,0 0,-40.4949 m 0,283.9646 -26.5261,0 c -14.7481,0 -29.4961,17.7149 -44.2442,17.7149 l -44.2441,0 -44.2442,0 -44.2442,0 -44.2441,0 c -14.7481,0 -29.4961,-17.7149 -44.2442,-17.7149 l -44.2441,0 m 2.118,0 -26.52618,0 c -14.7481,0 -29.4961,17.7149 -44.2442,17.7149 l -44.2441,0 -44.2442,0 -44.2442,0 -44.2441,0 c -14.7481,0 -29.4961,-17.7149 -44.2442,-17.7149 l -44.2441,0 M 1.8756,2037.6605 l 0,40.4948 17.8427,0 0,40.495 -17.8427,0 0,40.4949 17.8427,0 0,40.495 -17.8427,0 0,40.4949 17.8427,0 0,40.4949 -17.8427,0 0,40.495 m 336.23526,0.5 -26.52616,0 c -14.7481,0 -29.4961,17.7149 -44.2442,17.7149 l -44.2441,0 -44.2442,0 -44.2442,0 -44.2441,0 c -14.7481,0 -29.4961,-17.7149 -44.2442,-17.7149 l -44.2441,0 m 670.10252,-0.5 0,-40.495 17.59324,0 0,-40.4949 -17.59324,0 0,-40.4949 17.59324,0 0,-40.495 -17.59324,0 0,-40.4949 17.59324,0 0,-40.495 -17.59324,0 0,-40.4948 m 0,283.9646 -26.52616,0 c -14.7481,0 -29.4961,17.7148 -44.2442,17.7148 l -44.2441,0 -44.2442,0 -44.2442,0 -44.2441,0 c -14.7481,0 -29.4961,-17.7148 -44.2442,-17.7148 l -44.2441,0"
     style="fill:none;stroke:#000000;stroke-width:1;stroke-miterlimit:4;stroke-dasharray:none;stroke-opacity:1"
     id="path4511"
     inkscape:connector-curvature="0"
     sodipodi:nodetypes="cccccccccccccccsscccssccsscccssccccccccccccccccsscccssccsscccssccccccccccccccccsscccssccsscccssccccccccccccccccsscccssccccccccccccccccsscccssc" />
  <path
     inkscape:tile-y0="285.46142"
     inkscape:tile-x0="1.3756"
     d="m 2676.6817,2605.0408 0,-40.495 17.5933,0 0,-40.4949 -17.5933,0 0,-40.4949 17.5933,0 0,-40.495 -17.5933,0 0,-40.4949 17.5933,0 0,-40.495 -17.5933,0 0,-40.4949 m 0,283.9646 -26.5261,0 c -14.7481,0 -29.4961,17.7149 -44.2442,17.7149 l -44.2441,0 -44.2442,0 -44.2442,0 -44.2441,0 c -14.7481,0 -29.4961,-17.7149 -44.2442,-17.7149 l -44.2441,0 m 2.118,0 -26.5261,0 c -14.7481,0 -29.4961,17.7149 -44.2442,17.7149 l -44.2441,0 -44.2442,0 -44.2442,0 -44.2441,0 c -14.7481,0 -29.4961,-17.7149 -44.2442,-17.7149 l -44.2441,0 m 2.1177,-0.5 0,-40.495 17.5933,0 0,-40.4949 -17.5933,0 0,-40.4949 17.5933,0 0,-40.495 -17.5933,0 0,-40.4949 17.5933,0 0,-40.495 -17.5933,0 0,-40.4949 m 0,283.9646 -26.5261,0 c -14.7481,0 -29.4961,17.7149 -44.2442,17.7149 l -44.2441,0 -44.2442,0 -44.2442,0 -44.2441,0 c -14.7481,0 -29.4961,-17.7149 -44.2442,-17.7149 l -44.2441,0 m 2.118,0 -26.5261,0 c -14.7481,0 -29.4961,17.7149 -44.2442,17.7149 l -44.2441,0 -44.2442,0 -44.2442,0 -44.2441,0 c -14.7481,0 -29.4961,-17.7149 -44.2442,-17.7149 l -44.2441,0 m 2.118,-0.5 0,-40.495 17.5933,0 0,-40.4949 -17.5933,0 0,-40.4949 17.5933,0 0,-40.495 -17.5933,0 0,-40.4949 17.5933,0 0,-40.495 -17.5933,0 0,-40.4949 m 0,283.9646 -26.5261,0 c -14.7481,0 -29.4961,17.7149 -44.2442,17.7149 l -44.2441,0 -44.2442,0 -44.2442,0 -44.2441,0 c -14.7481,0 -29.4961,-17.7149 -44.2442,-17.7149 l -44.2441,0 m 2.118,0 -26.52618,0 c -14.7481,0 -29.4961,17.7149 -44.2442,17.7149 l -44.2441,0 -44.2442,0 -44.2442,0 -44.2441,0 c -14.7481,0 -29.4961,-17.7149 -44.2442,-17.7149 l -44.2441,0 M 1.8756,2321.5762 l 0,40.4948 17.8427,0 0,40.495 -17.8427,0 0,40.4949 17.8427,0 0,40.495 -17.8427,0 0,40.4949 17.8427,0 0,40.4949 -17.8427,0 0,40.495 m 336.23526,0.5 -26.52616,0 c -14.7481,0 -29.4961,17.7149 -44.2442,17.7149 l -44.2441,0 -44.2442,0 -44.2442,0 -44.2441,0 c -14.7481,0 -29.4961,-17.7149 -44.2442,-17.7149 l -44.2441,0 m 670.10252,-0.5 0,-40.495 17.59324,0 0,-40.4949 -17.59324,0 0,-40.4949 17.59324,0 0,-40.495 -17.59324,0 0,-40.4949 17.59324,0 0,-40.495 -17.59324,0 0,-40.4948 m 0,283.9646 -26.52616,0 c -14.7481,0 -29.4961,17.7149 -44.2442,17.7149 l -44.2441,0 -44.2442,0 -44.2442,0 -44.2441,0 c -14.7481,0 -29.4961,-17.7149 -44.2442,-17.7149 l -44.2441,0"
     style="fill:none;stroke:#000000;stroke-width:1;stroke-miterlimit:4;stroke-dasharray:none;stroke-opacity:1"
     id="path4513"
     inkscape:connector-curvature="0"
     sodipodi:nodetypes="cccccccccccccccsscccssccsscccssccccccccccccccccsscccssccsscccssccccccccccccccccsscccssccsscccssccccccccccccccccsscccssccccccccccccccccsscccssc" />
  <path
     inkscape:tile-y0="285.46142"
     inkscape:tile-x0="1.3756"
     d="m 2676.6817,1703.2935 0,-40.495 17.5933,0 0,-40.4949 -17.5933,0 0,-40.4949 17.5933,0 0,-40.495 -17.5933,0 0,-40.4949 17.5933,0 0,-40.495 -17.5933,0 0,-40.4949 m 0,283.9646 -26.5261,0 c -14.7481,0 -29.4961,17.7149 -44.2442,17.7149 l -44.2441,0 -44.2442,0 -44.2442,0 -44.2441,0 c -14.7481,0 -29.4961,-17.7149 -44.2442,-17.7149 l -44.2441,0 m 2.118,0 -26.5261,0 c -14.7481,0 -29.4961,17.7149 -44.2442,17.7149 l -44.2441,0 -44.2442,0 -44.2442,0 -44.2441,0 c -14.7481,0 -29.4961,-17.7149 -44.2442,-17.7149 l -44.2441,0 m 2.1177,-0.5 0,-40.495 17.5933,0 0,-40.4949 -17.5933,0 0,-40.4949 17.5933,0 0,-40.495 -17.5933,0 0,-40.4949 17.5933,0 0,-40.495 -17.5933,0 0,-40.4949 m 0,283.9646 -26.5261,0 c -14.7481,0 -29.4961,17.7149 -44.2442,17.7149 l -44.2441,0 -44.2442,0 -44.2442,0 -44.2441,0 c -14.7481,0 -29.4961,-17.7149 -44.2442,-17.7149 l -44.2441,0 m 2.118,0 -26.5261,0 c -14.7481,0 -29.4961,17.7149 -44.2442,17.7149 l -44.2441,0 -44.2442,0 -44.2442,0 -44.2441,0 c -14.7481,0 -29.4961,-17.7149 -44.2442,-17.7149 l -44.2441,0 m 2.118,-0.5 0,-40.495 17.5933,0 0,-40.4949 -17.5933,0 0,-40.4949 17.5933,0 0,-40.495 -17.5933,0 0,-40.4949 17.5933,0 0,-40.495 -17.5933,0 0,-40.4949 m 0,283.9646 -26.5261,0 c -14.7481,0 -29.4961,17.7149 -44.2442,17.7149 l -44.2441,0 -44.2442,0 -44.2442,0 -44.2441,0 c -14.7481,0 -29.4961,-17.7149 -44.2442,-17.7149 l -44.2441,0 m 2.118,-0.5 0,-40.495 17.5932,0 0,-40.4949 -17.5932,0 0,-40.4949 17.5932,0 0,-40.495 -17.5932,0 0,-40.4949 17.5932,0 0,-40.495 -17.5932,0 0,-40.4949 m 0,283.9646 -26.52618,0 c -14.7481,0 -29.4961,17.7149 -44.2442,17.7149 l -44.2441,0 -44.2442,0 -44.2442,0 -44.2441,0 c -14.7481,0 -29.4961,-17.7149 -44.2442,-17.7149 l -44.2441,0 m -331.74926,-0.5 0,-40.495 17.59324,0 0,-40.4949 -17.59324,0 0,-40.4949 17.59324,0 0,-40.495 -17.59324,0 0,-40.4949 17.59324,0 0,-40.495 -17.59324,0 0,-40.4949 m -336.23526,0 0,40.4949 17.8427,0 0,40.495 -17.8427,0 0,40.4949 17.8427,0 0,40.495 -17.8427,0 0,40.4949 17.8427,0 0,40.4949 -17.8427,0 0,40.495 m 336.23526,0.5 -26.52616,0 c -14.7481,0 -29.4961,17.7149 -44.2442,17.7149 l -44.2441,0 -44.2442,0 -44.2442,0 -44.2441,0 c -14.7481,0 -29.4961,-17.7149 -44.2442,-17.7149 l -44.2441,0 m 670.10252,-0.5 0,-40.495 17.59324,0 0,-40.4949 -17.59324,0 0,-40.4949 17.59324,0 0,-40.495 -17.59324,0 0,-40.4949 17.59324,0 0,-40.495 -17.59324,0 0,-40.4949 m 0,283.9646 -26.52616,0 c -14.7481,0 -29.4961,17.7149 -44.2442,17.7149 l -44.2441,0 -44.2442,0 -44.2442,0 -44.2441,0 c -14.7481,0 -29.4961,-17.7149 -44.2442,-17.7149 l -44.2441,0"
     style="fill:none;stroke:#000000;stroke-width:1;stroke-miterlimit:4;stroke-dasharray:none;stroke-opacity:1"
     id="path4499"
     inkscape:connector-curvature="0"
     sodipodi:nodetypes="cccccccccccccccsscccssccsscccssccccccccccccccccsscccssccsscccssccccccccccccccccsscccssccccccccccccccccsscccssccccccccccccccccccccccccccccccsscccssccccccccccccccccsscccssc" />
  <path
     id="path4525"
     style="fill:none;stroke:#000000;stroke-width:1;stroke-miterlimit:4;stroke-dasharray:none;stroke-opacity:1"
     d="m 2676.6817,1753.7935 -26.5261,0 c -14.7481,0 -29.4961,17.7149 -44.2442,17.7149 l -44.2441,0 -44.2442,0 -44.2442,0 -44.2441,0 c -14.7481,0 -29.4961,-17.7149 -44.2442,-17.7149 l -44.2441,0 m 2.118,0 -26.5261,0 c -14.7481,0 -29.4961,17.7149 -44.2442,17.7149 l -44.2441,0 -44.2442,0 -44.2442,0 -44.2441,0 c -14.7481,0 -29.4961,-17.7149 -44.2442,-17.7149 l -44.2441,0 m 2.1177,0 -26.5261,0 c -14.7481,0 -29.4961,17.7149 -44.2442,17.7149 l -44.2441,0 -44.2442,0 -44.2442,0 -44.2441,0 c -14.7481,0 -29.4961,-17.7149 -44.2442,-17.7149 l -44.2441,0 m 2.118,0 -26.5261,0 c -14.7481,0 -29.4961,17.7149 -44.2442,17.7149 l -44.2441,0 -44.2442,0 -44.2442,0 -44.2441,0 c -14.7481,0 -29.4961,-17.7149 -44.2442,-17.7149 l -44.2441,0 m 2.118,0 -26.5261,0 c -14.7481,0 -29.4961,17.7149 -44.2442,17.7149 l -44.2441,0 -44.2442,0 -44.2442,0 -44.2441,0 c -14.7481,0 -29.4961,-17.7149 -44.2442,-17.7149 l -44.2441,0 m 2.118,0 -26.52618,0 c -14.7481,0 -29.4961,17.7149 -44.2442,17.7149 l -44.2441,0 -44.2442,0 -44.2442,0 -44.2441,0 c -14.7481,0 -29.4961,-17.7149 -44.2442,-17.7149 l -44.2441,0 m -331.74926,0 -26.52616,0 c -14.7481,0 -29.4961,17.7149 -44.2442,17.7149 l -44.2441,0 -44.2442,0 -44.2442,0 -44.2441,0 c -14.7481,0 -29.4961,-17.7149 -44.2442,-17.7149 l -44.2441,0 m 670.10252,0 -26.52616,0 c -14.7481,0 -29.4961,17.7149 -44.2442,17.7149 l -44.2441,0 -44.2442,0 -44.2442,0 -44.2441,0 c -14.7481,0 -29.4961,-17.7149 -44.2442,-17.7149 l -44.2441,0 m 2340.93884,283.4158 0,-40.495 17.5933,0 0,-40.4949 -17.5933,0 0,-40.4949 17.5933,0 0,-40.495 -17.5933,0 0,-40.4949 17.5933,0 0,-40.495 -17.5933,0 0,-40.4949 m 0,283.9646 -26.5261,0 c -14.7481,0 -29.4961,17.7149 -44.2442,17.7149 l -44.2441,0 -44.2442,0 -44.2442,0 -44.2441,0 c -14.7481,0 -29.4961,-17.7149 -44.2442,-17.7149 l -44.2441,0 m 2.118,0 -26.5261,0 c -14.7481,0 -29.4961,17.7149 -44.2442,17.7149 l -44.2441,0 -44.2442,0 -44.2442,0 -44.2441,0 c -14.7481,0 -29.4961,-17.7149 -44.2442,-17.7149 l -44.2441,0 m 2.1177,-0.5 0,-40.495 17.5933,0 0,-40.4949 -17.5933,0 0,-40.4949 17.5933,0 0,-40.495 -17.5933,0 0,-40.4949 17.5933,0 0,-40.495 -17.5933,0 0,-40.4949 m 0,283.9646 -26.5261,0 c -14.7481,0 -29.4961,17.7149 -44.2442,17.7149 l -44.2441,0 -44.2442,0 -44.2442,0 -44.2441,0 c -14.7481,0 -29.4961,-17.7149 -44.2442,-17.7149 l -44.2441,0 m 2.118,0 -26.5261,0 c -14.7481,0 -29.4961,17.7149 -44.2442,17.7149 l -44.2441,0 -44.2442,0 -44.2442,0 -44.2441,0 c -14.7481,0 -29.4961,-17.7149 -44.2442,-17.7149 l -44.2441,0 m 2.118,-0.5 0,-40.495 17.5933,0 0,-40.4949 -17.5933,0 0,-40.4949 17.5933,0 0,-40.495 -17.5933,0 0,-40.4949 17.5933,0 0,-40.495 -17.5933,0 0,-40.4949 m 0,283.9646 -26.5261,0 c -14.7481,0 -29.4961,17.7149 -44.2442,17.7149 l -44.2441,0 -44.2442,0 -44.2442,0 -44.2441,0 c -14.7481,0 -29.4961,-17.7149 -44.2442,-17.7149 l -44.2441,0 m 2.118,-0.5 0,-40.495 17.5932,0 0,-40.4949 -17.5932,0 0,-40.4949 17.5932,0 0,-40.495 -17.5932,0 0,-40.4949 17.5932,0 0,-40.495 -17.5932,0 0,-40.4949 m 0,283.9646 -26.52618,0 c -14.7481,0 -29.4961,17.7149 -44.2442,17.7149 l -44.2441,0 -44.2442,0 -44.2442,0 -44.2441,0 c -14.7481,0 -29.4961,-17.7149 -44.2442,-17.7149 l -44.2441,0 m -331.74926,-0.5 0,-40.495 17.59324,0 0,-40.4949 -17.59324,0 0,-40.4949 17.59324,0 0,-40.495 -17.59324,0 0,-40.4949 17.59324,0 0,-40.495 -17.59324,0 0,-40.4949 m -336.23526,0 0,40.4949 17.8427,0 0,40.495 -17.8427,0 0,40.4949 17.8427,0 0,40.495 -17.8427,0 0,40.4949 17.8427,0 0,40.4949 -17.8427,0 0,40.495 m 336.23526,0.5 -26.52616,0 c -14.7481,0 -29.4961,17.7149 -44.2442,17.7149 l -44.2441,0 -44.2442,0 -44.2442,0 -44.2441,0 c -14.7481,0 -29.4961,-17.7149 -44.2442,-17.7149 l -44.2441,0 m 670.10252,-0.5 0,-40.495 17.59324,0 0,-40.4949 -17.59324,0 0,-40.4949 17.59324,0 0,-40.495 -17.59324,0 0,-40.4949 17.59324,0 0,-40.495 -17.59324,0 0,-40.4949 m 0,283.9646 -26.52616,0 c -14.7481,0 -29.4961,17.7149 -44.2442,17.7149 l -44.2441,0 -44.2442,0 -44.2442,0 -44.2441,0 c -14.7481,0 -29.4961,-17.7149 -44.2442,-17.7149 l -44.2441,0"
     inkscape:connector-curvature="0"
     sodipodi:nodetypes="csscccssccsscccssccsscccssccsscccssccsscccssccsscccssccsscccssccsscccssccccccccccccccccsscccssccsscccssccccccccccccccccsscccssccsscccssccccccccccccccccsscccssccccccccccccccccsscccssccccccccccccccccccccccccccccccsscccssccccccccccccccccsscccssc" />
</svg>
