<?xml version="1.0" encoding="UTF-8" standalone="no"?>
<!-- Created with Inkscape (http://www.inkscape.org/) -->

<svg
   xmlns:dc="http://purl.org/dc/elements/1.1/"
   xmlns:cc="http://creativecommons.org/ns#"
   xmlns:rdf="http://www.w3.org/1999/02/22-rdf-syntax-ns#"
   xmlns:svg="http://www.w3.org/2000/svg"
   xmlns="http://www.w3.org/2000/svg"
   xmlns:xlink="http://www.w3.org/1999/xlink"
   xmlns:sodipodi="http://sodipodi.sourceforge.net/DTD/sodipodi-0.dtd"
   xmlns:inkscape="http://www.inkscape.org/namespaces/inkscape"
   width="796.13538mm"
   height="899.34253mm"
   viewBox="0 0 2820.9522 3186.6468"
   id="svg2"
   version="1.1"
   inkscape:version="0.91 r13725"
   sodipodi:docname="legobox_2panneau_3.svg">
  <sodipodi:namedview
     id="base"
     pagecolor="#ffffff"
     bordercolor="#666666"
     borderopacity="1.0"
     inkscape:pageopacity="0.0"
     inkscape:pageshadow="2"
     inkscape:zoom="0.3580953"
     inkscape:cx="1435.4852"
     inkscape:cy="2124.4024"
     inkscape:document-units="px"
     inkscape:current-layer="svg2"
     showgrid="false"
     inkscape:window-width="1920"
     inkscape:window-height="1007"
     inkscape:window-x="0"
     inkscape:window-y="27"
     inkscape:window-maximized="1"
     fit-margin-top="0"
     fit-margin-left="0"
     fit-margin-right="0"
     fit-margin-bottom="0" />
  <defs
     id="defs4" />
  <metadata
     id="metadata7">
    <rdf:RDF>
      <cc:Work
         rdf:about="">
        <dc:format>image/svg+xml</dc:format>
        <dc:type
           rdf:resource="http://purl.org/dc/dcmitype/StillImage" />
        <dc:title></dc:title>
      </cc:Work>
    </rdf:RDF>
  </metadata>
  <g
     id="layer1"
     inkscape:groupmode="layer"
     inkscape:label="Calque 1"
     transform="translate(1434.9482,508.54008)" />
  <path
     id="use4393"
     style="fill:none;stroke:#000000;stroke-width:1;stroke-miterlimit:4;stroke-dasharray:none;stroke-opacity:1"
     d="m 2675.3061,283.9646 0,-40.495 17.5933,0 0,-40.4949 -17.5933,0 0,-40.4949 17.5933,0 0,-40.495 -17.5933,0 0,-40.4949 17.5933,0 0,-40.495 -17.5933,0 0,-40.4949 -26.5261,0 c -14.7481,0 -29.4961,17.7149 -44.2442,17.7149 l -44.2441,0 -44.2442,0 -44.2442,0 -44.2441,0 C 2412.8111,18.2149 2398.0631,0.5 2383.315,0.5 l -44.2441,0 m 336.2352,283.9646 -26.5261,0 c -14.7481,0 -29.4961,17.7149 -44.2442,17.7149 l -44.2441,0 -44.2442,0 -44.2442,0 -44.2441,0 c -14.7481,0 -29.4961,-17.7149 -44.2442,-17.7149 l -44.2441,0 m 2.118,-0.5 0,-40.495 17.5933,0 0,-40.4949 -17.5933,0 0,-40.4949 17.5933,0 0,-40.495 -17.5933,0 0,-40.4949 17.5933,0 0,-40.495 -17.5933,0 0,-40.4949 -26.5261,0 c -14.7481,0 -29.4961,17.7149 -44.2442,17.7149 l -44.2441,0 -44.2442,0 -44.2442,0 -44.2441,0 C 2078.6939,18.2149 2063.9459,0.5 2049.1978,0.5 l -44.2441,0 m 336.2352,283.9646 -26.5261,0 c -14.7481,0 -29.4961,17.7149 -44.2442,17.7149 l -44.2441,0 -44.2442,0 -44.2442,0 -44.2441,0 c -14.7481,0 -29.4961,-17.7149 -44.2442,-17.7149 l -44.2441,0 m 2.1177,-0.5 0,-40.495 17.5933,0 0,-40.4949 -17.5933,0 0,-40.4949 17.5933,0 0,-40.495 -17.5933,0 0,-40.4949 17.5933,0 0,-40.495 -17.5933,0 0,-40.4949 -26.5261,0 c -14.7481,0 -29.4961,17.7149 -44.2442,17.7149 l -44.2441,0 -44.2442,0 -44.2442,0 -44.2441,0 C 1744.5764,18.2149 1729.8284,0.5 1715.0803,0.5 l -44.2441,0 m 336.2352,283.9646 -26.5261,0 c -14.7481,0 -29.4961,17.7149 -44.2442,17.7149 l -44.2441,0 -44.2442,0 -44.2442,0 -44.2441,0 c -14.7481,0 -29.4961,-17.7149 -44.2442,-17.7149 l -44.2441,0 m 2.118,-0.5 0,-40.495 17.5933,0 0,-40.4949 -17.5933,0 0,-40.4949 17.5933,0 0,-40.495 -17.5933,0 0,-40.4949 17.5933,0 0,-40.495 -17.5933,0 0,-40.4949 -26.5261,0 c -14.7481,0 -29.4961,17.7149 -44.2442,17.7149 l -44.2441,0 -44.2442,0 -44.2442,0 -44.2441,0 C 1410.4592,18.2149 1395.7112,0.5 1380.9631,0.5 l -44.2441,0 m 336.2352,283.9646 -26.5261,0 c -14.7481,0 -29.4961,17.7149 -44.2442,17.7149 l -44.2441,0 -44.2442,0 -44.2442,0 -44.2441,0 c -14.7481,0 -29.4961,-17.7149 -44.2442,-17.7149 l -44.2441,0 m 2.118,-0.5 0,-40.495 17.5933,0 0,-40.4949 -17.5933,0 0,-40.4949 17.5933,0 0,-40.495 -17.5933,0 0,-40.4949 17.5933,0 0,-40.495 -17.5933,0 0,-40.4949 -26.5261,0 c -14.7481,0 -29.4961,17.7149 -44.2442,17.7149 l -44.2441,0 -44.2442,0 -44.2442,0 -44.2441,0 C 1076.342,18.2149 1061.594,0.5 1046.8459,0.5 l -44.2441,0 m 336.2352,283.9646 -26.5261,0 c -14.7481,0 -29.4961,17.7149 -44.2442,17.7149 l -44.2441,0 -44.2442,0 -44.2442,0 -44.2441,0 c -14.7481,0 -29.4961,-17.7149 -44.2442,-17.7149 l -44.2441,0 m 2.118,-0.5 0,-40.495 17.5932,0 0,-40.4949 -17.5932,0 0,-40.4949 17.5932,0 0,-40.495 -17.5932,0 0,-40.4949 17.5932,0 0,-40.495 -17.5932,0 0,-40.4949 -26.52618,0 c -14.7481,0 -29.4961,17.7149 -44.2442,17.7149 l -44.2441,0 -44.2442,0 -44.2442,0 -44.2441,0 C 742.22472,18.2149 727.47672,0.5 712.72862,0.5 l -44.2441,0 m 336.23528,283.9646 -26.52618,0 c -14.7481,0 -29.4961,17.7149 -44.2442,17.7149 l -44.2441,0 -44.2442,0 -44.2442,0 -44.2441,0 c -14.7481,0 -29.4961,-17.7149 -44.2442,-17.7149 l -44.2441,0 m -331.74926,-0.5 0,-40.495 17.59324,0 0,-40.4949 -17.59324,0 0,-40.4949 17.59324,0 0,-40.495 -17.59324,0 0,-40.4949 17.59324,0 0,-40.495 -17.59324,0 0,-40.4949 -26.52616,0 c -14.7481,0 -29.4961,17.7149 -44.2442,17.7149 l -44.2441,0 -44.2442,0 -44.2442,0 -44.2441,0 C 74.2402,18.2149 59.4922,0.5 44.7441,0.5 L 0.5,0.5 l 0,40.4949 17.8427,0 0,40.495 -17.8427,0 0,40.4949 17.8427,0 0,40.495 -17.8427,0 0,40.4949 17.8427,0 0,40.4949 -17.8427,0 0,40.495 m 336.23526,0.5 -26.52616,0 c -14.7481,0 -29.4961,17.7149 -44.2442,17.7149 l -44.2441,0 -44.2442,0 -44.2442,0 -44.2441,0 c -14.7481,0 -29.4961,-17.7149 -44.2442,-17.7149 l -44.2441,0 m 670.10252,-0.5 0,-40.495 17.59324,0 0,-40.4949 -17.59324,0 0,-40.4949 17.59324,0 0,-40.495 -17.59324,0 0,-40.4949 17.59324,0 0,-40.495 -17.59324,0 0,-40.4949 -26.52616,0 c -14.7481,0 -29.4961,17.7149 -44.2442,17.7149 l -44.2441,0 -44.2442,0 -44.2442,0 -44.2441,0 C 408.10746,18.2149 393.35946,0.5 378.61136,0.5 l -44.2441,0 m 336.23526,283.9646 -26.52616,0 c -14.7481,0 -29.4961,17.7149 -44.2442,17.7149 l -44.2441,0 -44.2442,0 -44.2442,0 -44.2441,0 c -14.7481,0 -29.4961,-17.7149 -44.2442,-17.7149 l -44.2441,0"
     inkscape:tile-cx="1348.0753"
     inkscape:tile-cy="151.33975"
     inkscape:tile-w="2693.3994"
     inkscape:tile-h="302.6795"
     inkscape:tile-x0="1.3756"
     inkscape:tile-y0="-8.8817842e-16"
     inkscape:connector-curvature="0" />
  <path
     inkscape:tile-y0="285.46142"
     inkscape:tile-x0="1.3756"
     d="m 2675.3061,567.63037 0,-40.495 17.5933,0 0,-40.4949 -17.5933,0 0,-40.4949 17.5933,0 0,-40.495 -17.5933,0 0,-40.4949 17.5933,0 0,-40.495 -17.5933,0 0,-40.4949 m 0,283.9646 -26.5261,0 c -14.7481,0 -29.4961,17.7149 -44.2442,17.7149 l -44.2441,0 -44.2442,0 -44.2442,0 -44.2441,0 c -14.7481,0 -29.4961,-17.7149 -44.2442,-17.7149 l -44.2441,0 m 2.118,-0.5 0,-40.495 17.5933,0 0,-40.4949 -17.5933,0 0,-40.4949 17.5933,0 0,-40.495 -17.5933,0 0,-40.4949 17.5933,0 0,-40.495 -17.5933,0 0,-40.4949 m 0,283.9646 -26.5261,0 c -14.7481,0 -29.4961,17.7149 -44.2442,17.7149 l -44.2441,0 -44.2442,0 -44.2442,0 -44.2441,0 c -14.7481,0 -29.4961,-17.7149 -44.2442,-17.7149 l -44.2441,0 m 2.1177,-0.5 0,-40.495 17.5933,0 0,-40.4949 -17.5933,0 0,-40.4949 17.5933,0 0,-40.495 -17.5933,0 0,-40.4949 17.5933,0 0,-40.495 -17.5933,0 0,-40.4949 m 0,283.9646 -26.5261,0 c -14.7481,0 -29.4961,17.7149 -44.2442,17.7149 l -44.2441,0 -44.2442,0 -44.2442,0 -44.2441,0 c -14.7481,0 -29.4961,-17.7149 -44.2442,-17.7149 l -44.2441,0 m 2.118,-0.5 0,-40.495 17.5933,0 0,-40.4949 -17.5933,0 0,-40.4949 17.5933,0 0,-40.495 -17.5933,0 0,-40.4949 17.5933,0 0,-40.495 -17.5933,0 0,-40.4949 m 0,283.9646 -26.5261,0 c -14.7481,0 -29.4961,17.7149 -44.2442,17.7149 l -44.2441,0 -44.2442,0 -44.2442,0 -44.2441,0 c -14.7481,0 -29.4961,-17.7149 -44.2442,-17.7149 l -44.2441,0 m 2.118,-0.5 0,-40.495 17.5933,0 0,-40.4949 -17.5933,0 0,-40.4949 17.5933,0 0,-40.495 -17.5933,0 0,-40.4949 17.5933,0 0,-40.495 -17.5933,0 0,-40.4949 m 0,283.9646 -26.5261,0 c -14.7481,0 -29.4961,17.7149 -44.2442,17.7149 l -44.2441,0 -44.2442,0 -44.2442,0 -44.2441,0 c -14.7481,0 -29.4961,-17.7149 -44.2442,-17.7149 l -44.2441,0 m 2.118,-0.5 0,-40.495 17.5932,0 0,-40.4949 -17.5932,0 0,-40.4949 17.5932,0 0,-40.495 -17.5932,0 0,-40.4949 17.5932,0 0,-40.495 -17.5932,0 0,-40.4949 m 0,283.9646 -26.52618,0 c -14.7481,0 -29.4961,17.7149 -44.2442,17.7149 l -44.2441,0 -44.2442,0 -44.2442,0 -44.2441,0 c -14.7481,0 -29.4961,-17.7149 -44.2442,-17.7149 l -44.2441,0 m -331.74926,-0.5 0,-40.495 17.59324,0 0,-40.4949 -17.59324,0 0,-40.4949 17.59324,0 0,-40.495 -17.59324,0 0,-40.4949 17.59324,0 0,-40.495 -17.59324,0 0,-40.4949 m -336.23526,0 0,40.4949 17.8427,0 0,40.495 -17.8427,0 0,40.4949 17.8427,0 0,40.495 -17.8427,0 0,40.4949 17.8427,0 0,40.4949 -17.8427,0 0,40.495 m 336.23526,0.5 -26.52616,0 c -14.7481,0 -29.4961,17.7149 -44.2442,17.7149 l -44.2441,0 -44.2442,0 -44.2442,0 -44.2441,0 c -14.7481,0 -29.4961,-17.7149 -44.2442,-17.7149 l -44.2441,0 m 670.10252,-0.5 0,-40.495 17.59324,0 0,-40.4949 -17.59324,0 0,-40.4949 17.59324,0 0,-40.495 -17.59324,0 0,-40.4949 17.59324,0 0,-40.495 -17.59324,0 0,-40.4949 m 0,283.9646 -26.52616,0 c -14.7481,0 -29.4961,17.7149 -44.2442,17.7149 l -44.2441,0 -44.2442,0 -44.2442,0 -44.2441,0 c -14.7481,0 -29.4961,-17.7149 -44.2442,-17.7149 l -44.2441,0"
     style="fill:none;stroke:#000000;stroke-width:1;stroke-miterlimit:4;stroke-dasharray:none;stroke-opacity:1"
     id="use4461"
     inkscape:connector-curvature="0"
     sodipodi:nodetypes="cccccccccccccccsscccssccccccccccccccccsscccssccccccccccccccccsscccssccccccccccccccccsscccssccccccccccccccccsscccssccccccccccccccccsscccssccccccccccccccccccccccccccccccsscccssccccccccccccccccsscccssc"
     inkscape:tile-cx="1348.0753"
     inkscape:tile-cy="436.30117"
     inkscape:tile-w="2693.3994"
     inkscape:tile-h="302.1795" />
  <path
     sodipodi:nodetypes="cccccccccccccccsscccssccccccccccccccccsscccssccccccccccccccccsscccssccccccccccccccccsscccssccccccccccccccccsscccssccccccccccccccccsscccssccccccccccccccccccccccccccccccsscccssccccccccccccccccsscccssc"
     inkscape:connector-curvature="0"
     id="use4467"
     style="fill:none;stroke:#000000;stroke-width:1;stroke-miterlimit:4;stroke-dasharray:none;stroke-opacity:1"
     d="m 2675.3061,851.54621 0,-40.495 17.5933,0 0,-40.4949 -17.5933,0 0,-40.4949 17.5933,0 0,-40.495 -17.5933,0 0,-40.4949 17.5933,0 0,-40.495 -17.5933,0 0,-40.4949 m 0,283.9646 -26.5261,0 c -14.7481,0 -29.4961,17.7149 -44.2442,17.7149 l -44.2441,0 -44.2442,0 -44.2442,0 -44.2441,0 c -14.7481,0 -29.4961,-17.7149 -44.2442,-17.7149 l -44.2441,0 m 2.118,-0.5 0,-40.495 17.5933,0 0,-40.4949 -17.5933,0 0,-40.4949 17.5933,0 0,-40.495 -17.5933,0 0,-40.4949 17.5933,0 0,-40.495 -17.5933,0 0,-40.4949 m 0,283.9646 -26.5261,0 c -14.7481,0 -29.4961,17.7149 -44.2442,17.7149 l -44.2441,0 -44.2442,0 -44.2442,0 -44.2441,0 c -14.7481,0 -29.4961,-17.7149 -44.2442,-17.7149 l -44.2441,0 m 2.1177,-0.5 0,-40.495 17.5933,0 0,-40.4949 -17.5933,0 0,-40.4949 17.5933,0 0,-40.495 -17.5933,0 0,-40.4949 17.5933,0 0,-40.495 -17.5933,0 0,-40.4949 m 0,283.9646 -26.5261,0 c -14.7481,0 -29.4961,17.7149 -44.2442,17.7149 l -44.2441,0 -44.2442,0 -44.2442,0 -44.2441,0 c -14.7481,0 -29.4961,-17.7149 -44.2442,-17.7149 l -44.2441,0 m 2.118,-0.5 0,-40.495 17.5933,0 0,-40.4949 -17.5933,0 0,-40.4949 17.5933,0 0,-40.495 -17.5933,0 0,-40.4949 17.5933,0 0,-40.495 -17.5933,0 0,-40.4949 m 0,283.9646 -26.5261,0 c -14.7481,0 -29.4961,17.7149 -44.2442,17.7149 l -44.2441,0 -44.2442,0 -44.2442,0 -44.2441,0 c -14.7481,0 -29.4961,-17.7149 -44.2442,-17.7149 l -44.2441,0 m 2.118,-0.5 0,-40.495 17.5933,0 0,-40.4949 -17.5933,0 0,-40.4949 17.5933,0 0,-40.495 -17.5933,0 0,-40.4949 17.5933,0 0,-40.495 -17.5933,0 0,-40.4949 m 0,283.9646 -26.5261,0 c -14.7481,0 -29.4961,17.7149 -44.2442,17.7149 l -44.2441,0 -44.2442,0 -44.2442,0 -44.2441,0 c -14.7481,0 -29.4961,-17.7149 -44.2442,-17.7149 l -44.2441,0 m 2.118,-0.5 0,-40.495 17.5932,0 0,-40.4949 -17.5932,0 0,-40.4949 17.5932,0 0,-40.495 -17.5932,0 0,-40.4949 17.5932,0 0,-40.495 -17.5932,0 0,-40.4949 m 0,283.9646 -26.52618,0 c -14.7481,0 -29.4961,17.7149 -44.2442,17.7149 l -44.2441,0 -44.2442,0 -44.2442,0 -44.2441,0 c -14.7481,0 -29.4961,-17.7149 -44.2442,-17.7149 l -44.2441,0 m -331.74926,-0.5 0,-40.495 17.59324,0 0,-40.4949 -17.59324,0 0,-40.4949 17.59324,0 0,-40.495 -17.59324,0 0,-40.4949 17.59324,0 0,-40.495 -17.59324,0 0,-40.4949 m -336.23526,0 0,40.4949 17.8427,0 0,40.495 -17.8427,0 0,40.4949 17.8427,0 0,40.495 -17.8427,0 0,40.4949 17.8427,0 0,40.4949 -17.8427,0 0,40.495 m 336.23526,0.5 -26.52616,0 c -14.7481,0 -29.4961,17.7149 -44.2442,17.7149 l -44.2441,0 -44.2442,0 -44.2442,0 -44.2441,0 c -14.7481,0 -29.4961,-17.7149 -44.2442,-17.7149 l -44.2441,0 m 670.10252,-0.5 0,-40.495 17.59324,0 0,-40.4949 -17.59324,0 0,-40.4949 17.59324,0 0,-40.495 -17.59324,0 0,-40.4949 17.59324,0 0,-40.495 -17.59324,0 0,-40.4949 m 0,283.9646 -26.52616,0 c -14.7481,0 -29.4961,17.7149 -44.2442,17.7149 l -44.2441,0 -44.2442,0 -44.2442,0 -44.2441,0 c -14.7481,0 -29.4961,-17.7149 -44.2442,-17.7149 l -44.2441,0"
     inkscape:tile-x0="1.3756"
     inkscape:tile-y0="568.08153"
     inkscape:tile-cx="1348.0753"
     inkscape:tile-cy="718.92128"
     inkscape:tile-w="2693.3994"
     inkscape:tile-h="302.1795" />
  <use
     x="0"
     y="0"
     inkscape:tiled-clone-of="#use4467"
     xlink:href="#use4467"
     transform="translate(0,284.46265)"
     id="use4216"
     width="100%"
     height="100%" />
  <use
     x="0"
     y="0"
     inkscape:tiled-clone-of="#use4467"
     xlink:href="#use4467"
     transform="translate(0,568.92529)"
     id="use4218"
     width="100%"
     height="100%" />
  <path
     id="use4858"
     style="fill:none;stroke:#000000;stroke-width:1;stroke-miterlimit:4;stroke-dasharray:none;stroke-opacity:1"
     d="m 2760.341,2296.6846 -26.5261,0 c -14.7481,0 -29.4961,17.7149 -44.2442,17.7149 l -44.2441,0 -44.2442,0 -44.2442,0 -44.2441,0 c -14.7481,0 -29.4961,-17.7149 -44.2442,-17.7149 l -65.5027,0 m 2.118,0 -26.5261,0 c -14.7481,0 -29.4961,17.7149 -44.2442,17.7149 l -44.2441,0 -44.2442,0 -44.2442,0 -44.2441,0 c -14.7481,0 -29.4961,-17.7149 -44.2442,-17.7149 l -44.2441,0 m 2.1177,0 -26.5261,0 c -14.7481,0 -29.4961,17.7149 -44.2442,17.7149 l -44.2441,0 -44.2442,0 -44.2442,0 -44.2441,0 c -14.7481,0 -29.4961,-17.7149 -44.2442,-17.7149 l -65.5029,0 m 2.118,0 -26.5261,0 c -14.7481,0 -29.4961,17.7149 -44.2442,17.7149 l -44.2441,0 -44.2442,0 -44.2442,0 -44.2441,0 c -14.7481,0 -29.4961,-17.7149 -44.2442,-17.7149 l -44.2441,0 m 2.118,0 -26.5261,0 c -14.7481,0 -29.4961,17.7149 -44.2442,17.7149 l -44.2441,0 -44.2442,0 -44.2442,0 -44.2441,0 c -14.7481,0 -29.4961,-17.7149 -44.2442,-17.7149 l -65.5028,0 m 2.118,0 -26.52619,0 c -14.7481,0 -29.4961,17.7149 -44.2442,17.7149 l -44.2441,0 -44.2442,0 -44.2442,0 -44.2441,0 c -14.7481,0 -29.4961,-17.7149 -44.2442,-17.7149 l -44.2441,0 m -353.00805,0 -26.52616,0 c -14.7481,0 -29.4961,17.7149 -44.2442,17.7149 l -44.2441,0 -44.2442,0 -44.2442,0 -44.2441,0 c -14.7481,0 -29.4961,-17.7149 -44.2442,-17.7149 l -44.2441,0 m 691.36131,0 -26.52616,0 c -14.7481,0 -29.4961,17.7149 -44.2442,17.7149 l -44.2441,0 -44.2442,0 -44.2442,0 -44.2441,0 c -14.7481,0 -29.4961,-17.7149 -44.2442,-17.7149 l -65.50289,0 m 2425.97374,283.4158 0,-40.495 17.5933,0 0,-40.4949 -17.5933,0 0,-40.4949 17.5933,0 0,-40.495 -17.5933,0 0,-40.4949 17.5933,0 0,-40.495 -17.5933,0 0,-40.4949 m 0,283.9646 -26.5261,0 c -14.7481,0 -29.4961,17.7149 -44.2442,17.7149 l -44.2441,0 -44.2442,0 -44.2442,0 -44.2441,0 c -14.7481,0 -29.4961,-17.7149 -44.2442,-17.7149 l -65.5027,0 m 2.118,0 -26.5261,0 c -14.7481,0 -29.4961,17.7149 -44.2442,17.7149 l -44.2441,0 -44.2442,0 -44.2442,0 -44.2441,0 c -14.7481,0 -29.4961,-17.7149 -44.2442,-17.7149 l -44.2441,0 m 2.1177,-0.5 0,-40.495 17.5933,0 0,-40.4949 -17.5933,0 0,-40.4949 17.5933,0 0,-40.495 -17.5933,0 0,-40.4949 17.5933,0 0,-40.495 -17.5933,0 0,-40.4949 m 0,283.9646 -26.5261,0 c -14.7481,0 -29.4961,17.7149 -44.2442,17.7149 l -44.2441,0 -44.2442,0 -44.2442,0 -44.2441,0 c -14.7481,0 -29.4961,-17.7149 -44.2442,-17.7149 l -65.5029,0 m 2.118,0 -26.5261,0 c -14.7481,0 -29.4961,17.7149 -44.2442,17.7149 l -44.2441,0 -44.2442,0 -44.2442,0 -44.2441,0 c -14.7481,0 -29.4961,-17.7149 -44.2442,-17.7149 l -44.2441,0 m 2.118,-0.5 0,-40.495 17.5933,0 0,-40.4949 -17.5933,0 0,-40.4949 17.5933,0 0,-40.495 -17.5933,0 0,-40.4949 17.5933,0 0,-40.495 -17.5933,0 0,-40.4949 m 0,283.9646 -26.5261,0 c -14.7481,0 -29.4961,17.7149 -44.2442,17.7149 l -44.2441,0 -44.2442,0 -44.2442,0 -44.2441,0 c -14.7481,0 -29.4961,-17.7149 -44.2442,-17.7149 l -65.5028,0 m 2.118,0 -26.52619,0 c -14.7481,0 -29.4961,17.7149 -44.2442,17.7149 l -44.2441,0 -44.2442,0 -44.2442,0 -44.2441,0 c -14.7481,0 -29.4961,-17.7149 -44.2442,-17.7149 l -44.2441,0 M 0.5,2296.6358 l 0,40.4949 17.8427,0 0,40.495 -17.8427,0 0,40.4949 17.8427,0 0,40.495 -17.8427,0 0,40.4949 17.8427,0 0,40.4949 -17.8427,0 0,40.495 m 336.23526,0.5 -26.52616,0 c -14.7481,0 -29.4961,17.7149 -44.2442,17.7149 l -44.2441,0 -44.2442,0 -44.2442,0 -44.2441,0 c -14.7481,0 -29.4961,-17.7149 -44.2442,-17.7149 l -44.2441,0 m 691.36131,-0.5 0,-40.495 17.59324,0 0,-40.4949 -17.59324,0 0,-40.4949 17.59324,0 0,-40.495 -17.59324,0 0,-40.4949 17.59324,0 0,-40.495 -17.59324,0 0,-40.4949 m 0,283.9646 -26.52616,0 c -14.7481,0 -29.4961,17.7149 -44.2442,17.7149 l -44.2441,0 -44.2442,0 -44.2442,0 -44.2441,0 c -14.7481,0 -29.4961,-17.7149 -44.2442,-17.7149 l -65.50289,0 M 2760.341,1444.939 l -26.5261,0 c -14.7481,0 -29.4961,17.7149 -44.2442,17.7149 l -44.2441,0 -44.2442,0 -44.2442,0 -44.2441,0 c -14.7481,0 -29.4961,-17.7149 -44.2442,-17.7149 l -65.5027,0 m 2.118,0 -26.5261,0 c -14.7481,0 -29.4961,17.7149 -44.2442,17.7149 l -44.2441,0 -44.2442,0 -44.2442,0 -44.2441,0 c -14.7481,0 -29.4961,-17.7149 -44.2442,-17.7149 l -44.2441,0 m 2.1177,0 -26.5261,0 c -14.7481,0 -29.4961,17.7149 -44.2442,17.7149 l -44.2441,0 -44.2442,0 -44.2442,0 -44.2441,0 c -14.7481,0 -29.4961,-17.7149 -44.2442,-17.7149 l -65.5029,0 m 2.118,0 -26.5261,0 c -14.7481,0 -29.4961,17.7149 -44.2442,17.7149 l -44.2441,0 -44.2442,0 -44.2442,0 -44.2441,0 c -14.7481,0 -29.4961,-17.7149 -44.2442,-17.7149 l -44.2441,0 m 2.118,0 -26.5261,0 c -14.7481,0 -29.4961,17.7149 -44.2442,17.7149 l -44.2441,0 -44.2442,0 -44.2442,0 -44.2441,0 c -14.7481,0 -29.4961,-17.7149 -44.2442,-17.7149 l -65.5028,0 m 2.118,0 -26.52619,0 c -14.7481,0 -29.4961,17.7149 -44.2442,17.7149 l -44.2441,0 -44.2442,0 -44.2442,0 -44.2441,0 c -14.7481,0 -29.4961,-17.7149 -44.2442,-17.7149 l -44.2441,0 m -353.00805,0 -26.52616,0 c -14.7481,0 -29.4961,17.7149 -44.2442,17.7149 l -44.2441,0 -44.2442,0 -44.2442,0 -44.2441,0 c -14.7481,0 -29.4961,-17.7149 -44.2442,-17.7149 l -44.2441,0 m 691.36131,0 -26.52616,0 c -14.7481,0 -29.4961,17.7149 -44.2442,17.7149 l -44.2441,0 -44.2442,0 -44.2442,0 -44.2441,0 c -14.7481,0 -29.4961,-17.7149 -44.2442,-17.7149 l -65.50289,0 m 2425.97374,283.4158 0,-40.495 17.5933,0 0,-40.4949 -17.5933,0 0,-40.4949 17.5933,0 0,-40.495 -17.5933,0 0,-40.4949 17.5933,0 0,-40.495 -17.5933,0 0,-40.4949 m 0,283.9646 -26.5261,0 c -14.7481,0 -29.4961,17.7149 -44.2442,17.7149 l -44.2441,0 -44.2442,0 -44.2442,0 -44.2441,0 c -14.7481,0 -29.4961,-17.7149 -44.2442,-17.7149 l -65.5027,0 m 2.118,0 -26.5261,0 c -14.7481,0 -29.4961,17.7149 -44.2442,17.7149 l -44.2441,0 -44.2442,0 -44.2442,0 -44.2441,0 c -14.7481,0 -29.4961,-17.7149 -44.2442,-17.7149 l -44.2441,0 m 2.1177,-0.5 0,-40.495 17.5933,0 0,-40.4949 -17.5933,0 0,-40.4949 17.5933,0 0,-40.495 -17.5933,0 0,-40.4949 17.5933,0 0,-40.495 -17.5933,0 0,-40.4949 m 0,283.9646 -26.5261,0 c -14.7481,0 -29.4961,17.7149 -44.2442,17.7149 l -44.2441,0 -44.2442,0 -44.2442,0 -44.2441,0 c -14.7481,0 -29.4961,-17.7149 -44.2442,-17.7149 l -65.5029,0 m 2.118,0 -26.5261,0 c -14.7481,0 -29.4961,17.7149 -44.2442,17.7149 l -44.2441,0 -44.2442,0 -44.2442,0 -44.2441,0 c -14.7481,0 -29.4961,-17.7149 -44.2442,-17.7149 l -44.2441,0 m 2.118,-0.5 0,-40.495 17.5933,0 0,-40.4949 -17.5933,0 0,-40.4949 17.5933,0 0,-40.495 -17.5933,0 0,-40.4949 17.5933,0 0,-40.495 -17.5933,0 0,-40.4949 m 0,283.9646 -26.5261,0 c -14.7481,0 -29.4961,17.7149 -44.2442,17.7149 l -44.2441,0 -44.2442,0 -44.2442,0 -44.2441,0 c -14.7481,0 -29.4961,-17.7149 -44.2442,-17.7149 l -65.5028,0 m 2.118,0 -26.52619,0 c -14.7481,0 -29.4961,17.7149 -44.2442,17.7149 l -44.2441,0 -44.2442,0 -44.2442,0 -44.2441,0 c -14.7481,0 -29.4961,-17.7149 -44.2442,-17.7149 l -44.2441,0 M 0.5,1444.8902 l 0,40.4949 17.8427,0 0,40.495 -17.8427,0 0,40.4949 17.8427,0 0,40.495 -17.8427,0 0,40.4949 17.8427,0 0,40.4949 -17.8427,0 0,40.495 m 336.23526,0.5 -26.52616,0 c -14.7481,0 -29.4961,17.7149 -44.2442,17.7149 l -44.2441,0 -44.2442,0 -44.2442,0 -44.2441,0 c -14.7481,0 -29.4961,-17.7149 -44.2442,-17.7149 l -44.2441,0 m 691.36131,-0.5 0,-40.495 17.59324,0 0,-40.4949 -17.59324,0 0,-40.4949 17.59324,0 0,-40.495 -17.59324,0 0,-40.4949 17.59324,0 0,-40.495 -17.59324,0 0,-40.4949 m 0,283.9646 -26.52616,0 c -14.7481,0 -29.4961,17.7149 -44.2442,17.7149 l -44.2441,0 -44.2442,0 -44.2442,0 -44.2441,0 c -14.7481,0 -29.4961,-17.7149 -44.2442,-17.7149 l -65.50289,0 m 2425.97374,567.3315 0,-40.495 17.5933,0 0,-40.4949 -17.5933,0 0,-40.4949 17.5933,0 0,-40.495 -17.5933,0 0,-40.4949 17.5933,0 0,-40.495 -17.5933,0 0,-40.4949 m -689.4933,283.4646 0,-40.495 17.5933,0 0,-40.4949 -17.5933,0 0,-40.4949 17.5933,0 0,-40.495 -17.5933,0 0,-40.4949 17.5933,0 0,-40.495 -17.5933,0 0,-40.4949 m -689.4932,283.4646 0,-40.495 17.5933,0 0,-40.4949 -17.5933,0 0,-40.4949 17.5933,0 0,-40.495 -17.5933,0 0,-40.4949 17.5933,0 0,-40.495 -17.5933,0 0,-40.4949 m -1380.8545,0 0,40.4948 17.8427,0 0,40.495 -17.8427,0 0,40.4949 17.8427,0 0,40.495 -17.8427,0 0,40.4949 17.8427,0 0,40.4949 -17.8427,0 0,40.495 m 691.36131,0 0,-40.495 17.59324,0 0,-40.4949 -17.59324,0 0,-40.4949 17.59324,0 0,-40.495 -17.59324,0 0,-40.4949 17.59324,0 0,-40.495 -17.59324,0 0,-40.4948 m 2068.47969,-0.4511 0,-40.495 17.5933,0 0,-40.4949 -17.5933,0 0,-40.4949 17.5933,0 0,-40.495 -17.5933,0 0,-40.4949 17.5933,0 0,-40.495 -17.5933,0 0,-40.4949 m 0,283.9646 -26.5261,0 c -14.7481,0 -29.4961,17.7149 -44.2442,17.7149 l -44.2441,0 -44.2442,0 -44.2442,0 -44.2441,0 c -14.7481,0 -29.4961,-17.7149 -44.2442,-17.7149 l -65.5027,0 m 2.118,0 -26.5261,0 c -14.7481,0 -29.4961,17.7149 -44.2442,17.7149 l -44.2441,0 -44.2442,0 -44.2442,0 -44.2441,0 c -14.7481,0 -29.4961,-17.7149 -44.2442,-17.7149 l -44.2441,0 m 2.1177,-0.5 0,-40.495 17.5933,0 0,-40.4949 -17.5933,0 0,-40.4949 17.5933,0 0,-40.495 -17.5933,0 0,-40.4949 17.5933,0 0,-40.495 -17.5933,0 0,-40.4949 m 0,283.9646 -26.5261,0 c -14.7481,0 -29.4961,17.7149 -44.2442,17.7149 l -44.2441,0 -44.2442,0 -44.2442,0 -44.2441,0 c -14.7481,0 -29.4961,-17.7149 -44.2442,-17.7149 l -65.5029,0 m 2.118,0 -26.5261,0 c -14.7481,0 -29.4961,17.7149 -44.2442,17.7149 l -44.2441,0 -44.2442,0 -44.2442,0 -44.2441,0 c -14.7481,0 -29.4961,-17.7149 -44.2442,-17.7149 l -44.2441,0 m 2.118,-0.5 0,-40.495 17.5933,0 0,-40.4949 -17.5933,0 0,-40.4949 17.5933,0 0,-40.495 -17.5933,0 0,-40.4949 17.5933,0 0,-40.495 -17.5933,0 0,-40.4949 m 0,283.9646 -26.5261,0 c -14.7481,0 -29.4961,17.7149 -44.2442,17.7149 l -44.2441,0 -44.2442,0 -44.2442,0 -44.2441,0 c -14.7481,0 -29.4961,-17.7149 -44.2442,-17.7149 l -65.5028,0 m 2.118,0 -26.52619,0 c -14.7481,0 -29.4961,17.7149 -44.2442,17.7149 l -44.2441,0 -44.2442,0 -44.2442,0 -44.2441,0 c -14.7481,0 -29.4961,-17.7149 -44.2442,-17.7149 l -44.2441,0 M 0.5,1728.806 l 0,40.4948 17.8427,0 0,40.495 -17.8427,0 0,40.4949 17.8427,0 0,40.495 -17.8427,0 0,40.4949 17.8427,0 0,40.4949 -17.8427,0 0,40.495 m 336.23526,0.5 -26.52616,0 c -14.7481,0 -29.4961,17.7149 -44.2442,17.7149 l -44.2441,0 -44.2442,0 -44.2442,0 -44.2441,0 c -14.7481,0 -29.4961,-17.7149 -44.2442,-17.7149 l -44.2441,0 m 691.36131,-0.5 0,-40.495 17.59324,0 0,-40.4949 -17.59324,0 0,-40.4949 17.59324,0 0,-40.495 -17.59324,0 0,-40.4949 17.59324,0 0,-40.495 -17.59324,0 0,-40.4948 m 0,283.9646 -26.52616,0 c -14.7481,0 -29.4961,17.7148 -44.2442,17.7148 l -44.2441,0 -44.2442,0 -44.2442,0 -44.2441,0 c -14.7481,0 -29.4961,-17.7148 -44.2442,-17.7148 l -65.50289,0"
     inkscape:connector-curvature="0"
     sodipodi:nodetypes="csscccssccsscccssccsscccssccsscccssccsscccssccsscccssccsscccssccsscccssccccccccccccccccsscccssccsscccssccccccccccccccccsscccssccsscccssccccccccccccccccsscccssccsscccssccccccccccccccccsscccssccccccccccccccccsscccssccsscccssccsscccssccsscccssccsscccssccsscccssccsscccssccsscccssccsscccssccccccccccccccccsscccssccsscccssccccccccccccccccsscccssccsscccssccccccccccccccccsscccssccsscccssccccccccccccccccsscccssccccccccccccccccsscccssccccccccccccccccccccccccccccccccccccccccccccccccccccccccccccccccccccccccccccccccccccccsscccssccsscccssccccccccccccccccsscccssccsscccssccccccccccccccccsscccssccsscccssccccccccccccccccsscccssccccccccccccccccsscccssc" />
  <path
     sodipodi:nodetypes="csscccssccsscccssccsscccssccsscccssccsscccssccsscccssccsscccssccsscccssccsscccssccsscccssccsscccssccsscccssccsscccssccsscccssccsscccssccsscccssccccccccccccccccccccccccccccccccccccccccccccccccccccccccccsscccssccsscccssccsscccssccsscccssccccccccccccccccsscccssccsscccssccccccccccccccccsscccssccsscccssc"
     inkscape:connector-curvature="0"
     d="m 2802.8588,3168.4319 -26.5261,0 c -14.7481,0 -29.4961,17.7149 -44.2442,17.7149 l -44.2441,0 -44.2442,0 -44.2442,0 -44.2441,0 c -14.7481,0 -29.4961,-17.7149 -44.2442,-17.7149 l -65.5027,0 m 2.118,0 -26.5261,0 c -14.7481,0 -29.4961,17.7149 -44.2442,17.7149 l -44.2441,0 -44.2442,0 -44.2442,0 -44.2441,0 c -14.7481,0 -29.4961,-17.7149 -44.2442,-17.7149 l -65.5027,0 m 2.1177,0 -26.5261,0 c -14.7481,0 -29.4961,17.7149 -44.2442,17.7149 l -44.2441,0 -44.2442,0 -44.2442,0 -44.2441,0 c -14.7481,0 -29.4961,-17.7149 -44.2442,-17.7149 l -65.5029,0 m 2.118,0 -26.5261,0 c -14.7481,0 -29.4961,17.7149 -44.2442,17.7149 l -44.2441,0 -44.2442,0 -44.2442,0 -44.2441,0 c -14.7481,0 -29.4961,-17.7149 -44.2442,-17.7149 l -44.2441,0 m 2.118,0 -26.5261,0 c -14.7481,0 -29.4961,17.7149 -44.2442,17.7149 l -44.2441,0 -44.2442,0 -44.2442,0 -44.2441,0 c -14.7481,0 -29.4961,-17.7149 -44.2442,-17.7149 l -65.5028,0 m 2.118,0 -26.5262,0 c -14.7481,0 -29.49607,17.7149 -44.24417,17.7149 l -44.2441,0 -44.2442,0 -44.2442,0 -44.2441,0 c -14.7481,0 -29.4961,-17.7149 -44.2442,-17.7149 l -65.50332,0 m -353.00805,0 -26.52616,0 c -14.7481,0 -29.4961,17.7149 -44.2442,17.7149 l -44.2441,0 -44.2442,0 -44.2442,0 -44.2441,0 c -14.7481,0 -29.4961,-17.7149 -44.2442,-17.7149 l -44.2441,0 m 691.36131,0 -26.52616,0 c -14.7481,0 -29.4961,17.7149 -44.2442,17.7149 l -44.2441,0 -44.2442,0 -44.2442,0 -44.2441,0 c -14.7481,0 -29.4961,-17.7149 -44.2442,-17.7149 l -65.50289,0 m 2468.49154,-567.8315 -26.5261,0 c -14.7481,0 -29.4961,17.7149 -44.2442,17.7149 l -44.2441,0 -44.2442,0 -44.2442,0 -44.2441,0 c -14.7481,0 -29.4961,-17.7149 -44.2442,-17.7149 l -65.5027,0 m 2.118,0 -26.5261,0 c -14.7481,0 -29.4961,17.7149 -44.2442,17.7149 l -44.2441,0 -44.2442,0 -44.2442,0 -44.2441,0 c -14.7481,0 -29.4961,-17.7149 -44.2442,-17.7149 l -65.5027,0 m 2.1177,0 -26.5261,0 c -14.7481,0 -29.4961,17.7149 -44.2442,17.7149 l -44.2441,0 -44.2442,0 -44.2442,0 -44.2441,0 c -14.7481,0 -29.4961,-17.7149 -44.2442,-17.7149 l -65.5029,0 m 2.118,0 -26.5261,0 c -14.7481,0 -29.4961,17.7149 -44.2442,17.7149 l -44.2441,0 -44.2442,0 -44.2442,0 -44.2441,0 c -14.7481,0 -29.4961,-17.7149 -44.2442,-17.7149 l -44.2441,0 m 2.118,0 -26.5261,0 c -14.7481,0 -29.4961,17.7149 -44.2442,17.7149 l -44.2441,0 -44.2442,0 -44.2442,0 -44.2441,0 c -14.7481,0 -29.4961,-17.7149 -44.2442,-17.7149 l -65.5028,0 m 2.118,0 -26.5262,0 c -14.7481,0 -29.49607,17.7149 -44.24417,17.7149 l -44.2441,0 -44.2442,0 -44.2442,0 -44.2441,0 c -14.7481,0 -29.4961,-17.7149 -44.2442,-17.7149 l -65.50332,0 m -353.00805,0 -26.52616,0 c -14.7481,0 -29.4961,17.7149 -44.2442,17.7149 l -44.2441,0 -44.2442,0 -44.2442,0 -44.2441,0 c -14.7481,0 -29.4961,-17.7149 -44.2442,-17.7149 l -44.2441,0 m 691.36131,0 -26.52616,0 c -14.7481,0 -29.4961,17.7149 -44.2442,17.7149 l -44.2441,0 -44.2442,0 -44.2442,0 -44.2441,0 c -14.7481,0 -29.4961,-17.7149 -44.2442,-17.7149 l -65.50289,0 m 2468.49154,567.3315 0,-40.495 17.5933,0 0,-40.4949 -17.5933,0 0,-40.4949 17.5933,0 0,-40.495 -17.5933,0 0,-40.4949 17.5933,0 0,-40.495 -17.5933,0 0,-40.4949 m -1400.2451,283.4646 0,-40.495 17.5933,0 0,-40.4949 -17.5933,0 0,-40.4949 17.5933,0 0,-40.495 -17.5933,0 0,-40.4949 17.5933,0 0,-40.495 -17.5933,0 0,-40.4949 m -1402.1137,0 0,40.4948 17.8427,0 0,40.495 -17.8427,0 0,40.4949 17.8427,0 0,40.495 -17.8427,0 0,40.4949 17.8427,0 0,40.4949 -17.8427,0 0,40.495 m 2802.3588,-283.9156 0,-40.495 17.5933,0 0,-40.4949 -17.5933,0 0,-40.4949 17.5933,0 0,-40.495 -17.5933,0 0,-40.4949 17.5933,0 0,-40.495 -17.5933,0 0,-40.4949 m 0,283.9646 -26.5261,0 c -14.7481,0 -29.4961,17.7149 -44.2442,17.7149 l -44.2441,0 -44.2442,0 -44.2442,0 -44.2441,0 c -14.7481,0 -29.4961,-17.7149 -44.2442,-17.7149 l -65.5027,0 m 2.118,0 -26.5261,0 c -14.7481,0 -29.4961,17.7149 -44.2442,17.7149 l -44.2441,0 -44.2442,0 -44.2442,0 -44.2441,0 c -14.7481,0 -29.4961,-17.7149 -44.2442,-17.7149 l -65.5027,0 m 2.1177,0 -26.5261,0 c -14.7481,0 -29.4961,17.7149 -44.2442,17.7149 l -44.2441,0 -44.2442,0 -44.2442,0 -44.2441,0 c -14.7481,0 -29.4961,-17.7149 -44.2442,-17.7149 l -65.5029,0 m 2.118,0 -26.5261,0 c -14.7481,0 -29.4961,17.7149 -44.2442,17.7149 l -44.2441,0 -44.2442,0 -44.2442,0 -44.2441,0 c -14.7481,0 -29.4961,-17.7149 -44.2442,-17.7149 l -44.2441,0 m 2.118,-0.5 0,-40.495 17.5933,0 0,-40.4949 -17.5933,0 0,-40.4949 17.5933,0 0,-40.495 -17.5933,0 0,-40.4949 17.5933,0 0,-40.495 -17.5933,0 0,-40.4949 m 0,283.9646 -26.5261,0 c -14.7481,0 -29.4961,17.7149 -44.2442,17.7149 l -44.2441,0 -44.2442,0 -44.2442,0 -44.2441,0 c -14.7481,0 -29.4961,-17.7149 -44.2442,-17.7149 l -65.5028,0 m 2.118,0 -26.5262,0 c -14.7481,0 -29.49607,17.7149 -44.24417,17.7149 l -44.2441,0 -44.2442,0 -44.2442,0 -44.2441,0 c -14.7481,0 -29.4961,-17.7149 -44.2442,-17.7149 l -65.50332,0 M 0.5,2600.5516 l 0,40.4948 17.8427,0 0,40.495 -17.8427,0 0,40.4949 17.8427,0 0,40.495 -17.8427,0 0,40.4949 17.8427,0 0,40.4949 -17.8427,0 0,40.495 m 336.23526,0.5 -26.52616,0 c -14.7481,0 -29.4961,17.7149 -44.2442,17.7149 l -44.2441,0 -44.2442,0 -44.2442,0 -44.2441,0 c -14.7481,0 -29.4961,-17.7149 -44.2442,-17.7149 l -44.2441,0 m 691.36131,1e-4 -26.52616,0 c -14.7481,0 -29.4961,17.7148 -44.2442,17.7148 l -44.2441,0 -44.2442,0 -44.2442,0 -44.2441,0 c -14.7481,0 -29.4961,-17.7148 -44.2442,-17.7148 l -65.50289,0"
     style="fill:none;stroke:#000000;stroke-width:1;stroke-miterlimit:4;stroke-dasharray:none;stroke-opacity:1"
     id="path4869" />
</svg>
