  0
SECTION
  2
HEADER
  9
$ACADVER
  1
AC1014
  9
$HANDSEED
  5
FFFF
  9
$MEASUREMENT
 70
     1
  0
ENDSEC
  0
SECTION
  2
TABLES
  0
TABLE
  2
VPORT
  5
8
330
0
100
AcDbSymbolTable
 70
     4
  0
VPORT
  5
2E
330
8
100
AcDbSymbolTableRecord
100
AcDbViewportTableRecord
  2
*ACTIVE
 70
     0
 10
0.0
 20
0.0
 11
1.0
 21
1.0
 12
210.0
 22
148.5
 13
0.0
 23
0.0
 14
10.0
 24
10.0
 15
10.0
 25
10.0
 16
0.0
 26
0.0
 36
1.0
 17
0.0
 27
0.0
 37
0.0
 40
341.0
 41
1.24
 42
50.0
 43
0.0
 44
0.0
 50
0.0
 51
0.0
 71
     0
 72
   100
 73
     1
 74
     3
 75
     0
 76
     0
 77
     0
 78
     0
  0
ENDTAB
  0
TABLE
  2
LTYPE
  5
5
330
0
100
AcDbSymbolTable
 70
     1
  0
LTYPE
  5
14
330
5
100
AcDbSymbolTableRecord
100
AcDbLinetypeTableRecord
  2
BYBLOCK
 70
     0
  3

 72
    65
 73
     0
 40
0.0
  0
LTYPE
  5
15
330
5
100
AcDbSymbolTableRecord
100
AcDbLinetypeTableRecord
  2
BYLAYER
 70
     0
  3

 72
    65
 73
     0
 40
0.0
  0
LTYPE
  5
16
330
5
100
AcDbSymbolTableRecord
100
AcDbLinetypeTableRecord
  2
CONTINUOUS
 70
     0
  3
Solid line
 72
    65
 73
     0
 40
0.0
  0
ENDTAB
  0
TABLE
  2
LAYER
  5
2
100
AcDbSymbolTable
 70
2
  0
LAYER
  5
50
100
AcDbSymbolTableRecord
100
AcDbLayerTableRecord
  2
0
 70
0
  6
CONTINUOUS
  0
LAYER
  5
51
100
AcDbSymbolTableRecord
100
AcDbLayerTableRecord
  2
Calque_1
 70
0
  6
CONTINUOUS
  0
ENDTAB
  0
TABLE
  2
STYLE
  5
3
330
0
100
AcDbSymbolTable
 70
     1
  0
STYLE
  5
11
330
3
100
AcDbSymbolTableRecord
100
AcDbTextStyleTableRecord
  2
STANDARD
 70
     0
 40
0.0
 41
1.0
 50
0.0
 71
     0
 42
2.5
  3
txt
  4

  0
ENDTAB
  0
TABLE
  2
VIEW
  5
6
330
0
100
AcDbSymbolTable
 70
     0
  0
ENDTAB
  0
TABLE
  2
UCS
  5
7
330
0
100
AcDbSymbolTable
 70
     0
  0
ENDTAB
  0
TABLE
  2
APPID
  5
9
330
0
100
AcDbSymbolTable
 70
     2
  0
APPID
  5
12
330
9
100
AcDbSymbolTableRecord
100
AcDbRegAppTableRecord
  2
ACAD
 70
     0
  0
ENDTAB
  0
TABLE
  2
DIMSTYLE
  5
A
330
0
100
AcDbSymbolTable
 70
     1
  0
DIMSTYLE
105
27
330
A
100
AcDbSymbolTableRecord
100
AcDbDimStyleTableRecord
  2
ISO-25
 70
     0
  3

  4

  5

  6

  7

 40
1.0
 41
2.5
 42
0.625
 43
3.75
 44
1.25
 45
0.0
 46
0.0
 47
0.0
 48
0.0
140
2.5
141
2.5
142
0.0
143
0.03937007874016
144
1.0
145
0.0
146
1.0
147
0.625
 71
     0
 72
     0
 73
     0
 74
     0
 75
     0
 76
     0
 77
     1
 78
     8
170
     0
171
     3
172
     1
173
     0
174
     0
175
     0
176
     0
177
     0
178
     0
270
     2
271
     2
272
     2
273
     2
274
     3
340
11
275
     0
280
     0
281
     0
282
     0
283
     0
284
     8
285
     0
286
     0
287
     3
288
     0
  0
ENDTAB
  0
TABLE
  2
BLOCK_RECORD
  5
1
330
0
100
AcDbSymbolTable
 70
     1
  0
BLOCK_RECORD
  5
1F
330
1
100
AcDbSymbolTableRecord
100
AcDbBlockTableRecord
  2
*MODEL_SPACE
  0
BLOCK_RECORD
  5
1B
330
1
100
AcDbSymbolTableRecord
100
AcDbBlockTableRecord
  2
*PAPER_SPACE
  0
ENDTAB
  0
ENDSEC
  0
SECTION
  2
BLOCKS
  0
BLOCK
  5
20
330
1F
100
AcDbEntity
  8
0
100
AcDbBlockBegin
  2
*MODEL_SPACE
 70
     0
 10
0.0
 20
0.0
 30
0.0
  3
*MODEL_SPACE
  1

  0
ENDBLK
  5
21
330
1F
100
AcDbEntity
  8
0
100
AcDbBlockEnd
  0
BLOCK
  5
1C
330
1B
100
AcDbEntity
 67
     1
  8
0
100
AcDbBlockBegin
  2
*PAPER_SPACE
  1

  0
ENDBLK
  5
1D
330
1B
100
AcDbEntity
 67
     1
  8
0
100
AcDbBlockEnd
  0
ENDSEC
  0
SECTION
  2
ENTITIES
  0
SPLINE
  5
100
100
AcDbEntity
  8
Calque_1
 62
1
100
AcDbSpline
 70
8
 71
3
 72
8
 73
4
 74
0
 40
0
 40
0
 40
0
 40
0
 40
1
 40
1
 40
1
 40
1
 10
364.233310
 20
294.000290
 30
0.0
 10
357.985480
 20
285.464380
 30
0.0
 10
354.604940
 20
275.137190
 30
0.0
 10
354.585050
 20
264.525830
 30
0.0
  0
SPLINE
  5
101
100
AcDbEntity
  8
Calque_1
 62
1
100
AcDbSpline
 70
8
 71
3
 72
8
 73
4
 74
0
 40
0
 40
0
 40
0
 40
0
 40
1
 40
1
 40
1
 40
1
 10
354.585050
 20
264.525830
 30
0.0
 10
354.602850
 20
248.928000
 30
0.0
 10
362.856300
 20
234.240650
 30
0.0
 10
375.197910
 20
224.847600
 30
0.0
  0
LINE
  5
102
100
AcDbEntity
  8
Calque_1
 62
1
100
AcDbLine
 10
375.197910
 20
224.847600
 30
0.0
 11
345.686180
 21
131.001250
 31
0.0
  0
LINE
  5
103
100
AcDbEntity
  8
Calque_1
 62
1
100
AcDbLine
 10
345.686180
 20
131.001250
 30
0.0
 11
355.028260
 21
131.001250
 31
0.0
  0
SPLINE
  5
104
100
AcDbEntity
  8
Calque_1
 62
1
100
AcDbSpline
 70
8
 71
3
 72
8
 73
4
 74
0
 40
0
 40
0
 40
0
 40
0
 40
1
 40
1
 40
1
 40
1
 10
355.028260
 20
131.001250
 30
0.0
 10
355.028260
 20
131.001250
 30
0.0
 10
367.293270
 20
156.502850
 30
0.0
 10
372.589790
 20
173.088160
 30
0.0
  0
SPLINE
  5
105
100
AcDbEntity
  8
Calque_1
 62
1
100
AcDbSpline
 70
8
 71
3
 72
8
 73
4
 74
0
 40
0
 40
0
 40
0
 40
0
 40
1
 40
1
 40
1
 40
1
 10
372.589790
 20
173.088160
 30
0.0
 10
376.066960
 20
183.976340
 30
0.0
 10
386.472240
 20
200.505960
 30
0.0
 10
388.614690
 20
210.500030
 30
0.0
  0
SPLINE
  5
106
100
AcDbEntity
  8
Calque_1
 62
1
100
AcDbSpline
 70
8
 71
3
 72
8
 73
4
 74
0
 40
0
 40
0
 40
0
 40
0
 40
1
 40
1
 40
1
 40
1
 10
388.614690
 20
210.500030
 30
0.0
 10
395.036150
 20
207.496140
 30
0.0
 10
397.968140
 20
210.851840
 30
0.0
 10
404.998450
 20
210.870390
 30
0.0
  0
SPLINE
  5
107
100
AcDbEntity
  8
Calque_1
 62
1
100
AcDbSpline
 70
8
 71
3
 72
8
 73
4
 74
0
 40
0
 40
0
 40
0
 40
0
 40
1
 40
1
 40
1
 40
1
 10
404.998450
 20
210.870390
 30
0.0
 10
412.028730
 20
210.851890
 30
0.0
 10
414.960770
 20
207.496140
 30
0.0
 10
421.382190
 20
210.500030
 30
0.0
  0
SPLINE
  5
108
100
AcDbEntity
  8
Calque_1
 62
1
100
AcDbSpline
 70
8
 71
3
 72
8
 73
4
 74
0
 40
0
 40
0
 40
0
 40
0
 40
1
 40
1
 40
1
 40
1
 10
421.382190
 20
210.500030
 30
0.0
 10
423.524650
 20
200.505960
 30
0.0
 10
433.929950
 20
183.976370
 30
0.0
 10
437.407060
 20
173.088160
 30
0.0
  0
SPLINE
  5
109
100
AcDbEntity
  8
Calque_1
 62
1
100
AcDbSpline
 70
8
 71
3
 72
8
 73
4
 74
0
 40
0
 40
0
 40
0
 40
0
 40
1
 40
1
 40
1
 40
1
 10
437.407060
 20
173.088160
 30
0.0
 10
442.703640
 20
156.502850
 30
0.0
 10
454.968980
 20
131.001250
 30
0.0
 10
454.968980
 20
131.001250
 30
0.0
  0
LINE
  5
10a
100
AcDbEntity
  8
Calque_1
 62
1
100
AcDbLine
 10
454.968980
 20
131.001250
 30
0.0
 11
464.311370
 21
131.001250
 31
0.0
  0
LINE
  5
10b
100
AcDbEntity
  8
Calque_1
 62
1
100
AcDbLine
 10
464.311370
 20
131.001250
 30
0.0
 11
434.798980
 21
224.847600
 31
0.0
  0
SPLINE
  5
10c
100
AcDbEntity
  8
Calque_1
 62
1
100
AcDbSpline
 70
8
 71
3
 72
8
 73
4
 74
0
 40
0
 40
0
 40
0
 40
0
 40
1
 40
1
 40
1
 40
1
 10
434.798980
 20
224.847600
 30
0.0
 10
447.140690
 20
234.240650
 30
0.0
 10
455.394440
 20
248.928000
 30
0.0
 10
455.412250
 20
264.525830
 30
0.0
  0
SPLINE
  5
10d
100
AcDbEntity
  8
Calque_1
 62
1
100
AcDbSpline
 70
8
 71
3
 72
8
 73
4
 74
0
 40
0
 40
0
 40
0
 40
0
 40
1
 40
1
 40
1
 40
1
 10
455.412250
 20
264.525830
 30
0.0
 10
455.392450
 20
275.137190
 30
0.0
 10
452.011610
 20
285.464380
 30
0.0
 10
445.763690
 20
294.000290
 30
0.0
  0
LINE
  5
10e
100
AcDbEntity
  8
Calque_1
 62
1
100
AcDbLine
 10
445.763690
 20
294.000290
 30
0.0
 11
445.763690
 21
264.610400
 31
0.0
  0
LINE
  5
10f
100
AcDbEntity
  8
Calque_1
 62
1
100
AcDbLine
 10
445.763690
 20
264.610400
 30
0.0
 11
445.763690
 21
264.610400
 31
0.0
  0
SPLINE
  5
110
100
AcDbEntity
  8
Calque_1
 62
1
100
AcDbSpline
 70
8
 71
3
 72
8
 73
4
 74
0
 40
0
 40
0
 40
0
 40
0
 40
1
 40
1
 40
1
 40
1
 10
445.763690
 20
264.610400
 30
0.0
 10
445.763690
 20
264.582300
 30
0.0
 10
445.763690
 20
264.554100
 30
0.0
 10
445.763690
 20
264.525900
 30
0.0
  0
SPLINE
  5
111
100
AcDbEntity
  8
Calque_1
 62
1
100
AcDbSpline
 70
8
 71
3
 72
8
 73
4
 74
0
 40
0
 40
0
 40
0
 40
0
 40
1
 40
1
 40
1
 40
1
 10
445.763690
 20
264.525900
 30
0.0
 10
445.744890
 20
244.454760
 30
0.0
 10
427.586980
 20
227.535180
 30
0.0
 10
407.847490
 20
225.050880
 30
0.0
  0
LINE
  5
112
100
AcDbEntity
  8
Calque_1
 62
1
100
AcDbLine
 10
407.847490
 20
225.050880
 30
0.0
 11
407.847490
 21
219.648040
 31
0.0
  0
LINE
  5
113
100
AcDbEntity
  8
Calque_1
 62
1
100
AcDbLine
 10
407.847490
 20
219.648040
 30
0.0
 11
404.996910
 21
219.648040
 31
0.0
  0
LINE
  5
114
100
AcDbEntity
  8
Calque_1
 62
1
100
AcDbLine
 10
404.996910
 20
219.648040
 30
0.0
 11
402.145640
 21
219.648040
 31
0.0
  0
LINE
  5
115
100
AcDbEntity
  8
Calque_1
 62
1
100
AcDbLine
 10
402.145640
 20
219.648040
 30
0.0
 11
402.145640
 21
225.050880
 31
0.0
  0
SPLINE
  5
116
100
AcDbEntity
  8
Calque_1
 62
1
100
AcDbSpline
 70
8
 71
3
 72
8
 73
4
 74
0
 40
0
 40
0
 40
0
 40
0
 40
1
 40
1
 40
1
 40
1
 10
402.145640
 20
225.050880
 30
0.0
 10
382.406110
 20
227.535180
 30
0.0
 10
364.248720
 20
244.454760
 30
0.0
 10
364.230250
 20
264.525900
 30
0.0
  0
SPLINE
  5
117
100
AcDbEntity
  8
Calque_1
 62
1
100
AcDbSpline
 70
8
 71
3
 72
8
 73
4
 74
0
 40
0
 40
0
 40
0
 40
0
 40
1
 40
1
 40
1
 40
1
 10
364.230250
 20
264.525900
 30
0.0
 10
364.233250
 20
264.554100
 30
0.0
 10
364.233250
 20
264.582300
 30
0.0
 10
364.234250
 20
264.610400
 30
0.0
  0
LINE
  5
118
100
AcDbEntity
  8
Calque_1
 62
1
100
AcDbLine
 10
364.234250
 20
264.610400
 30
0.0
 11
364.231250
 21
264.610400
 31
0.0
  0
LINE
  5
119
100
AcDbEntity
  8
Calque_1
 62
1
100
AcDbLine
 10
364.231250
 20
264.610400
 30
0.0
 11
364.233310
 21
294.000290
 31
0.0
  0
SPLINE
  5
11a
100
AcDbEntity
  8
Calque_1
 62
1
100
AcDbSpline
 70
8
 71
3
 72
8
 73
4
 74
0
 40
0
 40
0
 40
0
 40
0
 40
1
 40
1
 40
1
 40
1
 10
227.561318
 20
404.859487
 30
0.0
 10
226.639396
 20
404.848131
 30
0.0
 10
225.720955
 20
404.540107
 30
0.0
 10
224.954240
 20
403.938292
 30
0.0
  0
SPLINE
  5
11b
100
AcDbEntity
  8
Calque_1
 62
1
100
AcDbSpline
 70
8
 71
3
 72
8
 73
4
 74
0
 40
0
 40
0
 40
0
 40
0
 40
1
 40
1
 40
1
 40
1
 10
224.954240
 20
403.938292
 30
0.0
 10
223.363596
 20
402.730727
 30
0.0
 10
222.768053
 20
400.601360
 30
0.0
 10
223.498361
 20
398.733011
 30
0.0
  0
SPLINE
  5
11c
100
AcDbEntity
  8
Calque_1
 62
1
100
AcDbSpline
 70
8
 71
3
 72
8
 73
4
 74
0
 40
0
 40
0
 40
0
 40
0
 40
1
 40
1
 40
1
 40
1
 10
223.498361
 20
398.733011
 30
0.0
 10
225.304358
 20
394.219333
 30
0.0
 10
226.335919
 20
389.428395
 30
0.0
 10
226.548130
 20
384.565469
 30
0.0
  0
SPLINE
  5
11d
100
AcDbEntity
  8
Calque_1
 62
1
100
AcDbSpline
 70
8
 71
3
 72
8
 73
4
 74
0
 40
0
 40
0
 40
0
 40
0
 40
1
 40
1
 40
1
 40
1
 10
226.548130
 20
384.565469
 30
0.0
 10
225.532012
 20
385.785631
 30
0.0
 10
224.383483
 20
386.886480
 30
0.0
 10
223.123641
 20
387.847895
 30
0.0
  0
SPLINE
  5
11e
100
AcDbEntity
  8
Calque_1
 62
1
100
AcDbSpline
 70
8
 71
3
 72
8
 73
4
 74
0
 40
0
 40
0
 40
0
 40
0
 40
1
 40
1
 40
1
 40
1
 10
223.123641
 20
387.847895
 30
0.0
 10
221.620388
 20
388.988858
 30
0.0
 10
219.567160
 20
389.049940
 30
0.0
 10
217.999940
 20
388.000059
 30
0.0
  0
SPLINE
  5
11f
100
AcDbEntity
  8
Calque_1
 62
1
100
AcDbSpline
 70
8
 71
3
 72
8
 73
4
 74
0
 40
0
 40
0
 40
0
 40
0
 40
1
 40
1
 40
1
 40
1
 10
217.999940
 20
388.000059
 30
0.0
 10
216.432407
 20
386.950150
 30
0.0
 10
215.691184
 20
385.017762
 30
0.0
 10
216.149947
 20
383.176956
 30
0.0
  0
SPLINE
  5
120
100
AcDbEntity
  8
Calque_1
 62
1
100
AcDbSpline
 70
8
 71
3
 72
8
 73
4
 74
0
 40
0
 40
0
 40
0
 40
0
 40
1
 40
1
 40
1
 40
1
 10
216.149947
 20
383.176956
 30
0.0
 10
217.739073
 20
376.869241
 30
0.0
 10
217.661784
 20
371.927012
 30
0.0
 10
215.928601
 20
369.239984
 30
0.0
  0
SPLINE
  5
121
100
AcDbEntity
  8
Calque_1
 62
1
100
AcDbSpline
 70
8
 71
3
 72
8
 73
4
 74
0
 40
0
 40
0
 40
0
 40
0
 40
1
 40
1
 40
1
 40
1
 10
215.928601
 20
369.239984
 30
0.0
 10
214.987389
 20
367.838980
 30
0.0
 10
213.483692
 20
366.926499
 30
0.0
 10
211.816046
 20
366.743570
 30
0.0
  0
SPLINE
  5
122
100
AcDbEntity
  8
Calque_1
 62
1
100
AcDbSpline
 70
8
 71
3
 72
8
 73
4
 74
0
 40
0
 40
0
 40
0
 40
0
 40
1
 40
1
 40
1
 40
1
 10
211.816046
 20
366.743570
 30
0.0
 10
200.113865
 20
365.087067
 30
0.0
 10
200.590085
 20
361.851754
 30
0.0
 10
194.168120
 20
373.888740
 30
0.0
  0
SPLINE
  5
123
100
AcDbEntity
  8
Calque_1
 62
1
100
AcDbSpline
 70
8
 71
3
 72
8
 73
4
 74
0
 40
0
 40
0
 40
0
 40
0
 40
1
 40
1
 40
1
 40
1
 10
194.168120
 20
373.888740
 30
0.0
 10
192.824785
 20
375.291038
 30
0.0
 10
190.731669
 20
375.646492
 30
0.0
 10
189.007620
 20
374.764539
 30
0.0
  0
SPLINE
  5
124
100
AcDbEntity
  8
Calque_1
 62
1
100
AcDbSpline
 70
8
 71
3
 72
8
 73
4
 74
0
 40
0
 40
0
 40
0
 40
0
 40
1
 40
1
 40
1
 40
1
 10
189.007620
 20
374.764539
 30
0.0
 10
187.284069
 20
373.932445
 30
0.0
 10
186.301295
 20
372.061667
 30
0.0
 10
186.586084
 20
370.155501
 30
0.0
  0
SPLINE
  5
125
100
AcDbEntity
  8
Calque_1
 62
1
100
AcDbSpline
 70
8
 71
3
 72
8
 73
4
 74
0
 40
0
 40
0
 40
0
 40
0
 40
1
 40
1
 40
1
 40
1
 10
186.586084
 20
370.155501
 30
0.0
 10
187.644865
 20
362.441236
 30
0.0
 10
186.808844
 20
356.850396
 30
0.0
 10
184.367494
 20
355.197749
 30
0.0
  0
SPLINE
  5
126
100
AcDbEntity
  8
Calque_1
 62
1
100
AcDbSpline
 70
8
 71
3
 72
8
 73
4
 74
0
 40
0
 40
0
 40
0
 40
0
 40
1
 40
1
 40
1
 40
1
 10
184.367494
 20
355.197749
 30
0.0
 10
181.552419
 20
353.097827
 30
0.0
 10
179.208042
 20
350.452841
 30
0.0
 10
177.451067
 20
347.440888
 30
0.0
  0
SPLINE
  5
127
100
AcDbEntity
  8
Calque_1
 62
1
100
AcDbSpline
 70
8
 71
3
 72
8
 73
4
 74
0
 40
0
 40
0
 40
0
 40
0
 40
1
 40
1
 40
1
 40
1
 10
177.451067
 20
347.440888
 30
0.0
 10
172.018105
 20
350.022969
 30
0.0
 10
166.089320
 20
351.369758
 30
0.0
 10
160.083769
 20
351.385603
 30
0.0
  0
SPLINE
  5
128
100
AcDbEntity
  8
Calque_1
 62
1
100
AcDbSpline
 70
8
 71
3
 72
8
 73
4
 74
0
 40
0
 40
0
 40
0
 40
0
 40
1
 40
1
 40
1
 40
1
 10
160.083769
 20
351.385603
 30
0.0
 10
160.042154
 20
351.385603
 30
0.0
 10
160.000643
 20
351.382698
 30
0.0
 10
159.959028
 20
351.382434
 30
0.0
  0
SPLINE
  5
129
100
AcDbEntity
  8
Calque_1
 62
1
100
AcDbSpline
 70
8
 71
3
 72
8
 73
4
 74
0
 40
0
 40
0
 40
0
 40
0
 40
1
 40
1
 40
1
 40
1
 10
159.959028
 20
351.382434
 30
0.0
 10
159.917439
 20
351.382671
 30
0.0
 10
159.875902
 20
351.385074
 30
0.0
 10
159.834313
 20
351.385074
 30
0.0
  0
SPLINE
  5
12a
100
AcDbEntity
  8
Calque_1
 62
1
100
AcDbSpline
 70
8
 71
3
 72
8
 73
4
 74
0
 40
0
 40
0
 40
0
 40
0
 40
1
 40
1
 40
1
 40
1
 10
159.834313
 20
351.385074
 30
0.0
 10
153.828762
 20
351.369230
 30
0.0
 10
147.899977
 20
350.022441
 30
0.0
 10
142.467015
 20
347.440359
 30
0.0
  0
SPLINE
  5
12b
100
AcDbEntity
  8
Calque_1
 62
1
100
AcDbSpline
 70
8
 71
3
 72
8
 73
4
 74
0
 40
0
 40
0
 40
0
 40
0
 40
1
 40
1
 40
1
 40
1
 10
142.467015
 20
347.440359
 30
0.0
 10
140.710041
 20
350.452313
 30
0.0
 10
138.365637
 20
353.097299
 30
0.0
 10
135.550562
 20
355.197221
 30
0.0
  0
SPLINE
  5
12c
100
AcDbEntity
  8
Calque_1
 62
1
100
AcDbSpline
 70
8
 71
3
 72
8
 73
4
 74
0
 40
0
 40
0
 40
0
 40
0
 40
1
 40
1
 40
1
 40
1
 10
135.550562
 20
355.197221
 30
0.0
 10
133.109213
 20
356.849868
 30
0.0
 10
132.273217
 20
362.440682
 30
0.0
 10
133.331998
 20
370.154947
 30
0.0
  0
SPLINE
  5
12d
100
AcDbEntity
  8
Calque_1
 62
1
100
AcDbSpline
 70
8
 71
3
 72
8
 73
4
 74
0
 40
0
 40
0
 40
0
 40
0
 40
1
 40
1
 40
1
 40
1
 10
133.331998
 20
370.154947
 30
0.0
 10
133.616788
 20
372.061112
 30
0.0
 10
132.634014
 20
373.931917
 30
0.0
 10
130.910462
 20
374.764011
 30
0.0
  0
SPLINE
  5
12e
100
AcDbEntity
  8
Calque_1
 62
1
100
AcDbSpline
 70
8
 71
3
 72
8
 73
4
 74
0
 40
0
 40
0
 40
0
 40
0
 40
1
 40
1
 40
1
 40
1
 10
130.910462
 20
374.764011
 30
0.0
 10
129.186387
 20
375.645964
 30
0.0
 10
127.093297
 20
375.290510
 30
0.0
 10
125.749962
 20
373.888212
 30
0.0
  0
SPLINE
  5
12f
100
AcDbEntity
  8
Calque_1
 62
1
100
AcDbSpline
 70
8
 71
3
 72
8
 73
4
 74
0
 40
0
 40
0
 40
0
 40
0
 40
1
 40
1
 40
1
 40
1
 10
125.749962
 20
373.888212
 30
0.0
 10
119.327997
 20
361.851226
 30
0.0
 10
119.804217
 20
365.086539
 30
0.0
 10
108.102036
 20
366.743042
 30
0.0
  0
SPLINE
  5
130
100
AcDbEntity
  8
Calque_1
 62
1
100
AcDbSpline
 70
8
 71
3
 72
8
 73
4
 74
0
 40
0
 40
0
 40
0
 40
0
 40
1
 40
1
 40
1
 40
1
 10
108.102036
 20
366.743042
 30
0.0
 10
106.434390
 20
366.925971
 30
0.0
 10
104.930693
 20
367.838451
 30
0.0
 10
103.989482
 20
369.239429
 30
0.0
  0
SPLINE
  5
131
100
AcDbEntity
  8
Calque_1
 62
1
100
AcDbSpline
 70
8
 71
3
 72
8
 73
4
 74
0
 40
0
 40
0
 40
0
 40
0
 40
1
 40
1
 40
1
 40
1
 10
103.989482
 20
369.239429
 30
0.0
 10
102.256298
 20
371.926510
 30
0.0
 10
102.179009
 20
376.868687
 30
0.0
 10
103.768136
 20
383.176428
 30
0.0
  0
SPLINE
  5
132
100
AcDbEntity
  8
Calque_1
 62
1
100
AcDbSpline
 70
8
 71
3
 72
8
 73
4
 74
0
 40
0
 40
0
 40
0
 40
0
 40
1
 40
1
 40
1
 40
1
 10
103.768136
 20
383.176428
 30
0.0
 10
104.226898
 20
385.017207
 30
0.0
 10
103.485649
 20
386.949622
 30
0.0
 10
101.918116
 20
387.999530
 30
0.0
  0
SPLINE
  5
133
100
AcDbEntity
  8
Calque_1
 62
1
100
AcDbSpline
 70
8
 71
3
 72
8
 73
4
 74
0
 40
0
 40
0
 40
0
 40
0
 40
1
 40
1
 40
1
 40
1
 10
101.918116
 20
387.999530
 30
0.0
 10
100.350896
 20
389.049412
 30
0.0
 10
98.297668
 20
388.988330
 30
0.0
 10
96.794415
 20
387.847367
 30
0.0
  0
SPLINE
  5
134
100
AcDbEntity
  8
Calque_1
 62
1
100
AcDbSpline
 70
8
 71
3
 72
8
 73
4
 74
0
 40
0
 40
0
 40
0
 40
0
 40
1
 40
1
 40
1
 40
1
 10
96.794415
 20
387.847367
 30
0.0
 10
95.534573
 20
386.885926
 30
0.0
 10
94.386070
 20
385.785103
 30
0.0
 10
93.369952
 20
384.564941
 30
0.0
  0
SPLINE
  5
135
100
AcDbEntity
  8
Calque_1
 62
1
100
AcDbSpline
 70
8
 71
3
 72
8
 73
4
 74
0
 40
0
 40
0
 40
0
 40
0
 40
1
 40
1
 40
1
 40
1
 10
93.369952
 20
384.564941
 30
0.0
 10
93.582163
 20
389.427867
 30
0.0
 10
94.613724
 20
394.218805
 30
0.0
 10
96.419721
 20
398.732483
 30
0.0
  0
SPLINE
  5
136
100
AcDbEntity
  8
Calque_1
 62
1
100
AcDbSpline
 70
8
 71
3
 72
8
 73
4
 74
0
 40
0
 40
0
 40
0
 40
0
 40
1
 40
1
 40
1
 40
1
 10
96.419721
 20
398.732483
 30
0.0
 10
97.150029
 20
400.600832
 30
0.0
 10
96.554486
 20
402.730173
 30
0.0
 10
94.963842
 20
403.937764
 30
0.0
  0
SPLINE
  5
137
100
AcDbEntity
  8
Calque_1
 62
1
100
AcDbSpline
 70
8
 71
3
 72
8
 73
4
 74
0
 40
0
 40
0
 40
0
 40
0
 40
1
 40
1
 40
1
 40
1
 10
94.963842
 20
403.937764
 30
0.0
 10
94.197127
 20
404.539579
 30
0.0
 10
93.278686
 20
404.847524
 30
0.0
 10
92.356765
 20
404.858959
 30
0.0
  0
LINE
  5
138
100
AcDbEntity
  8
Calque_1
 62
1
100
AcDbLine
 10
92.356765
 20
404.858959
 30
0.0
 11
92.356765
 21
404.858959
 31
0.0
  0
SPLINE
  5
139
100
AcDbEntity
  8
Calque_1
 62
1
100
AcDbSpline
 70
8
 71
3
 72
8
 73
4
 74
0
 40
0
 40
0
 40
0
 40
0
 40
1
 40
1
 40
1
 40
1
 10
92.356765
 20
404.858959
 30
0.0
 10
91.434843
 20
404.870578
 30
0.0
 10
90.509231
 20
404.585423
 30
0.0
 10
89.728199
 20
404.002754
 30
0.0
  0
SPLINE
  5
13a
100
AcDbEntity
  8
Calque_1
 62
1
100
AcDbSpline
 70
8
 71
3
 72
8
 73
4
 74
0
 40
0
 40
0
 40
0
 40
0
 40
1
 40
1
 40
1
 40
1
 10
89.728199
 20
404.002754
 30
0.0
 10
85.049337
 20
400.531643
 30
0.0
 10
79.767473
 20
393.158201
 30
0.0
 10
81.152423
 20
377.944818
 30
0.0
  0
SPLINE
  5
13b
100
AcDbEntity
  8
Calque_1
 62
1
100
AcDbSpline
 70
8
 71
3
 72
8
 73
4
 74
0
 40
0
 40
0
 40
0
 40
0
 40
1
 40
1
 40
1
 40
1
 10
81.152423
 20
377.944818
 30
0.0
 10
81.152423
 20
377.335767
 30
0.0
 10
81.343643
 20
362.966415
 30
0.0
 10
98.006466
 20
355.760453
 30
0.0
  0
SPLINE
  5
13c
100
AcDbEntity
  8
Calque_1
 62
1
100
AcDbSpline
 70
8
 71
3
 72
8
 73
4
 74
0
 40
0
 40
0
 40
0
 40
0
 40
1
 40
1
 40
1
 40
1
 10
98.006466
 20
355.760453
 30
0.0
 10
102.410406
 20
353.904437
 30
0.0
 10
106.977666
 20
352.471848
 30
0.0
 10
111.648179
 20
351.481517
 30
0.0
  0
SPLINE
  5
13d
100
AcDbEntity
  8
Calque_1
 62
1
100
AcDbSpline
 70
8
 71
3
 72
8
 73
4
 74
0
 40
0
 40
0
 40
0
 40
0
 40
1
 40
1
 40
1
 40
1
 10
111.648179
 20
351.481517
 30
0.0
 10
119.519009
 20
350.152950
 30
0.0
 10
126.790500
 20
346.409914
 30
0.0
 10
132.476766
 20
340.765571
 30
0.0
  0
SPLINE
  5
13e
100
AcDbEntity
  8
Calque_1
 62
1
100
AcDbSpline
 70
8
 71
3
 72
8
 73
4
 74
0
 40
0
 40
0
 40
0
 40
0
 40
1
 40
1
 40
1
 40
1
 10
132.476766
 20
340.765571
 30
0.0
 10
132.274892
 20
340.590169
 30
0.0
 10
132.074537
 20
340.412099
 30
0.0
 10
131.876119
 20
340.232787
 30
0.0
  0
SPLINE
  5
13f
100
AcDbEntity
  8
Calque_1
 62
1
100
AcDbSpline
 70
8
 71
3
 72
8
 73
4
 74
0
 40
0
 40
0
 40
0
 40
0
 40
1
 40
1
 40
1
 40
1
 10
131.876119
 20
340.232787
 30
0.0
 10
130.818280
 20
339.659599
 30
0.0
 10
129.849561
 20
338.930734
 30
0.0
 10
129.006264
 20
338.063914
 30
0.0
  0
SPLINE
  5
140
100
AcDbEntity
  8
Calque_1
 62
1
100
AcDbSpline
 70
8
 71
3
 72
8
 73
4
 74
0
 40
0
 40
0
 40
0
 40
0
 40
1
 40
1
 40
1
 40
1
 10
129.006264
 20
338.063914
 30
0.0
 10
124.829349
 20
341.583854
 30
0.0
 10
115.589901
 20
347.969922
 30
0.0
 10
105.023607
 20
346.402573
 30
0.0
  0
SPLINE
  5
141
100
AcDbEntity
  8
Calque_1
 62
1
100
AcDbSpline
 70
8
 71
3
 72
8
 73
4
 74
0
 40
0
 40
0
 40
0
 40
0
 40
1
 40
1
 40
1
 40
1
 10
105.023607
 20
346.402573
 30
0.0
 10
103.930749
 20
346.242222
 30
0.0
 10
103.120927
 20
345.295279
 30
0.0
 10
103.123518
 20
344.181094
 30
0.0
  0
SPLINE
  5
142
100
AcDbEntity
  8
Calque_1
 62
1
100
AcDbSpline
 70
8
 71
3
 72
8
 73
4
 74
0
 40
0
 40
0
 40
0
 40
0
 40
1
 40
1
 40
1
 40
1
 10
103.123518
 20
344.181094
 30
0.0
 10
103.296208
 20
338.587877
 30
0.0
 10
105.602557
 20
333.278364
 30
0.0
 10
109.560454
 20
329.357997
 30
0.0
  0
SPLINE
  5
143
100
AcDbEntity
  8
Calque_1
 62
1
100
AcDbSpline
 70
8
 71
3
 72
8
 73
4
 74
0
 40
0
 40
0
 40
0
 40
0
 40
1
 40
1
 40
1
 40
1
 10
109.560454
 20
329.357997
 30
0.0
 10
112.903938
 20
326.452943
 30
0.0
 10
117.031595
 20
324.670685
 30
0.0
 10
121.373635
 20
324.213560
 30
0.0
  0
SPLINE
  5
144
100
AcDbEntity
  8
Calque_1
 62
1
100
AcDbSpline
 70
8
 71
3
 72
8
 73
4
 74
0
 40
0
 40
0
 40
0
 40
0
 40
1
 40
1
 40
1
 40
1
 10
121.373635
 20
324.213560
 30
0.0
 10
119.706408
 20
319.666106
 30
0.0
 10
118.844344
 20
314.858980
 30
0.0
 10
118.826861
 20
310.010420
 30
0.0
  0
SPLINE
  5
145
100
AcDbEntity
  8
Calque_1
 62
1
100
AcDbSpline
 70
8
 71
3
 72
8
 73
4
 74
0
 40
0
 40
0
 40
0
 40
0
 40
1
 40
1
 40
1
 40
1
 10
118.826861
 20
310.010420
 30
0.0
 10
118.847276
 20
289.001138
 30
0.0
 10
136.459554
 20
271.390055
 30
0.0
 10
157.059545
 20
268.959187
 30
0.0
  0
LINE
  5
146
100
AcDbEntity
  8
Calque_1
 62
1
100
AcDbLine
 10
157.059545
 20
268.959187
 30
0.0
 11
157.059545
 21
278.543993
 31
0.0
  0
LINE
  5
147
100
AcDbEntity
  8
Calque_1
 62
1
100
AcDbLine
 10
157.059545
 20
278.543993
 30
0.0
 11
159.959028
 21
278.543993
 31
0.0
  0
LINE
  5
148
100
AcDbEntity
  8
Calque_1
 62
1
100
AcDbLine
 10
159.959028
 20
278.543993
 30
0.0
 11
162.858537
 21
278.543993
 31
0.0
  0
LINE
  5
149
100
AcDbEntity
  8
Calque_1
 62
1
100
AcDbLine
 10
162.858537
 20
278.543993
 30
0.0
 11
162.858537
 21
268.959187
 31
0.0
  0
SPLINE
  5
14a
100
AcDbEntity
  8
Calque_1
 62
1
100
AcDbSpline
 70
8
 71
3
 72
8
 73
4
 74
0
 40
0
 40
0
 40
0
 40
0
 40
1
 40
1
 40
1
 40
1
 10
162.858537
 20
268.959187
 30
0.0
 10
183.458528
 20
271.390055
 30
0.0
 10
201.070807
 20
289.001138
 30
0.0
 10
201.091195
 20
310.010420
 30
0.0
  0
SPLINE
  5
14b
100
AcDbEntity
  8
Calque_1
 62
1
100
AcDbSpline
 70
8
 71
3
 72
8
 73
4
 74
0
 40
0
 40
0
 40
0
 40
0
 40
1
 40
1
 40
1
 40
1
 10
201.091195
 20
310.010420
 30
0.0
 10
201.073659
 20
314.858980
 30
0.0
 10
200.211648
 20
319.666106
 30
0.0
 10
198.544447
 20
324.213560
 30
0.0
  0
SPLINE
  5
14c
100
AcDbEntity
  8
Calque_1
 62
1
100
AcDbSpline
 70
8
 71
3
 72
8
 73
4
 74
0
 40
0
 40
0
 40
0
 40
0
 40
1
 40
1
 40
1
 40
1
 10
198.544447
 20
324.213560
 30
0.0
 10
202.886461
 20
324.670685
 30
0.0
 10
207.014118
 20
326.452943
 30
0.0
 10
210.357602
 20
329.357997
 30
0.0
  0
SPLINE
  5
14d
100
AcDbEntity
  8
Calque_1
 62
1
100
AcDbSpline
 70
8
 71
3
 72
8
 73
4
 74
0
 40
0
 40
0
 40
0
 40
0
 40
1
 40
1
 40
1
 40
1
 10
210.357602
 20
329.357997
 30
0.0
 10
214.315499
 20
333.278364
 30
0.0
 10
216.621874
 20
338.587877
 30
0.0
 10
216.794564
 20
344.181094
 30
0.0
  0
SPLINE
  5
14e
100
AcDbEntity
  8
Calque_1
 62
1
100
AcDbSpline
 70
8
 71
3
 72
8
 73
4
 74
0
 40
0
 40
0
 40
0
 40
0
 40
1
 40
1
 40
1
 40
1
 10
216.794564
 20
344.181094
 30
0.0
 10
216.797181
 20
345.295279
 30
0.0
 10
215.987307
 20
346.242222
 30
0.0
 10
214.894449
 20
346.402573
 30
0.0
  0
SPLINE
  5
14f
100
AcDbEntity
  8
Calque_1
 62
1
100
AcDbSpline
 70
8
 71
3
 72
8
 73
4
 74
0
 40
0
 40
0
 40
0
 40
0
 40
1
 40
1
 40
1
 40
1
 10
214.894449
 20
346.402573
 30
0.0
 10
204.328181
 20
347.969922
 30
0.0
 10
195.088733
 20
341.583827
 30
0.0
 10
190.911793
 20
338.063914
 30
0.0
  0
SPLINE
  5
150
100
AcDbEntity
  8
Calque_1
 62
1
100
AcDbSpline
 70
8
 71
3
 72
8
 73
4
 74
0
 40
0
 40
0
 40
0
 40
0
 40
1
 40
1
 40
1
 40
1
 10
190.911793
 20
338.063914
 30
0.0
 10
190.068521
 20
338.930708
 30
0.0
 10
189.099802
 20
339.659572
 30
0.0
 10
188.041963
 20
340.232787
 30
0.0
  0
SPLINE
  5
151
100
AcDbEntity
  8
Calque_1
 62
1
100
AcDbSpline
 70
8
 71
3
 72
8
 73
4
 74
0
 40
0
 40
0
 40
0
 40
0
 40
1
 40
1
 40
1
 40
1
 10
188.041963
 20
340.232787
 30
0.0
 10
187.843545
 20
340.412072
 30
0.0
 10
187.643190
 20
340.590169
 30
0.0
 10
187.441317
 20
340.765571
 30
0.0
  0
SPLINE
  5
152
100
AcDbEntity
  8
Calque_1
 62
1
100
AcDbSpline
 70
8
 71
3
 72
8
 73
4
 74
0
 40
0
 40
0
 40
0
 40
0
 40
1
 40
1
 40
1
 40
1
 10
187.441317
 20
340.765571
 30
0.0
 10
193.127582
 20
346.409940
 30
0.0
 10
200.399074
 20
350.152950
 30
0.0
 10
208.269904
 20
351.481517
 30
0.0
  0
SPLINE
  5
153
100
AcDbEntity
  8
Calque_1
 62
1
100
AcDbSpline
 70
8
 71
3
 72
8
 73
4
 74
0
 40
0
 40
0
 40
0
 40
0
 40
1
 40
1
 40
1
 40
1
 10
208.269904
 20
351.481517
 30
0.0
 10
212.940417
 20
352.471848
 30
0.0
 10
217.507677
 20
353.904437
 30
0.0
 10
221.911616
 20
355.760453
 30
0.0
  0
SPLINE
  5
154
100
AcDbEntity
  8
Calque_1
 62
1
100
AcDbSpline
 70
8
 71
3
 72
8
 73
4
 74
0
 40
0
 40
0
 40
0
 40
0
 40
1
 40
1
 40
1
 40
1
 10
221.911616
 20
355.760453
 30
0.0
 10
238.574439
 20
362.966415
 30
0.0
 10
238.765660
 20
377.335767
 30
0.0
 10
238.765660
 20
377.944818
 30
0.0
  0
SPLINE
  5
155
100
AcDbEntity
  8
Calque_1
 62
1
100
AcDbSpline
 70
8
 71
3
 72
8
 73
4
 74
0
 40
0
 40
0
 40
0
 40
0
 40
1
 40
1
 40
1
 40
1
 10
238.765660
 20
377.944818
 30
0.0
 10
240.150610
 20
393.158201
 30
0.0
 10
234.868745
 20
400.531643
 30
0.0
 10
230.189883
 20
404.002754
 30
0.0
  0
SPLINE
  5
156
100
AcDbEntity
  8
Calque_1
 62
1
100
AcDbSpline
 70
8
 71
3
 72
8
 73
4
 74
0
 40
0
 40
0
 40
0
 40
0
 40
1
 40
1
 40
1
 40
1
 10
230.189883
 20
404.002754
 30
0.0
 10
229.408851
 20
404.585423
 30
0.0
 10
228.483239
 20
404.870552
 30
0.0
 10
227.561318
 20
404.858959
 30
0.0
  0
LINE
  5
157
100
AcDbEntity
  8
Calque_1
 62
1
100
AcDbLine
 10
227.561318
 20
404.858959
 30
0.0
 11
227.561318
 21
404.859487
 31
0.0
  0
SPLINE
  5
158
100
AcDbEntity
  8
Calque_1
 62
1
100
AcDbSpline
 70
8
 71
3
 72
8
 73
4
 74
0
 40
0
 40
0
 40
0
 40
0
 40
1
 40
1
 40
1
 40
1
 10
177.804363
 20
308.766898
 30
0.0
 10
177.804354
 20
298.794965
 30
0.0
 10
169.792491
 20
290.711122
 30
0.0
 10
159.909360
 20
290.711123
 30
0.0
  0
SPLINE
  5
159
100
AcDbEntity
  8
Calque_1
 62
1
100
AcDbSpline
 70
8
 71
3
 72
8
 73
4
 74
0
 40
0
 40
0
 40
0
 40
0
 40
1
 40
1
 40
1
 40
1
 10
159.909360
 20
290.711123
 30
0.0
 10
150.026231
 20
290.711124
 30
0.0
 10
142.014370
 20
298.794967
 30
0.0
 10
142.014361
 20
308.766898
 30
0.0
  0
SPLINE
  5
15a
100
AcDbEntity
  8
Calque_1
 62
1
100
AcDbSpline
 70
8
 71
3
 72
8
 73
4
 74
0
 40
0
 40
0
 40
0
 40
0
 40
1
 40
1
 40
1
 40
1
 10
142.014361
 20
308.766898
 30
0.0
 10
142.014357
 20
313.555594
 30
0.0
 10
143.899716
 20
318.148158
 30
0.0
 10
147.255680
 20
321.534279
 30
0.0
  0
SPLINE
  5
15b
100
AcDbEntity
  8
Calque_1
 62
1
100
AcDbSpline
 70
8
 71
3
 72
8
 73
4
 74
0
 40
0
 40
0
 40
0
 40
0
 40
1
 40
1
 40
1
 40
1
 10
147.255680
 20
321.534279
 30
0.0
 10
150.611644
 20
324.920400
 30
0.0
 10
155.163309
 20
326.822703
 30
0.0
 10
159.909360
 20
326.822703
 30
0.0
  0
SPLINE
  5
15c
100
AcDbEntity
  8
Calque_1
 62
1
100
AcDbSpline
 70
8
 71
3
 72
8
 73
4
 74
0
 40
0
 40
0
 40
0
 40
0
 40
1
 40
1
 40
1
 40
1
 10
159.909360
 20
326.822703
 30
0.0
 10
164.655412
 20
326.822704
 30
0.0
 10
169.207078
 20
324.920401
 30
0.0
 10
172.563043
 20
321.534280
 30
0.0
  0
SPLINE
  5
15d
100
AcDbEntity
  8
Calque_1
 62
1
100
AcDbSpline
 70
8
 71
3
 72
8
 73
4
 74
0
 40
0
 40
0
 40
0
 40
0
 40
1
 40
1
 40
1
 40
1
 10
172.563043
 20
321.534280
 30
0.0
 10
175.919007
 20
318.148159
 30
0.0
 10
177.804367
 20
313.555594
 30
0.0
 10
177.804363
 20
308.766898
 30
0.0
  0
LINE
  5
15e
100
AcDbEntity
  8
Calque_1
 62
1
100
AcDbLine
 10
177.804363
 20
308.766898
 30
0.0
 11
177.804363
 21
308.766898
 31
0.0
  0
SPLINE
  5
15f
100
AcDbEntity
  8
Calque_1
 62
1
100
AcDbSpline
 70
8
 71
3
 72
8
 73
4
 74
0
 40
0
 40
0
 40
0
 40
0
 40
1
 40
1
 40
1
 40
1
 10
259.949140
 20
56.105720
 30
0.0
 10
270.465580
 20
54.963020
 30
0.0
 10
281.099450
 20
57.198940
 30
0.0
 10
290.299100
 20
62.487420
 30
0.0
  0
SPLINE
  5
160
100
AcDbEntity
  8
Calque_1
 62
1
100
AcDbSpline
 70
8
 71
3
 72
8
 73
4
 74
0
 40
0
 40
0
 40
0
 40
0
 40
1
 40
1
 40
1
 40
1
 10
290.299100
 20
62.487420
 30
0.0
 10
303.798410
 20
70.301760
 30
0.0
 10
312.391180
 20
84.793130
 30
0.0
 10
314.355080
 20
100.177830
 30
0.0
  0
LINE
  5
161
100
AcDbEntity
  8
Calque_1
 62
1
100
AcDbLine
 10
314.355080
 20
100.177830
 30
0.0
 11
410.384250
 21
121.543020
 31
0.0
  0
LINE
  5
162
100
AcDbEntity
  8
Calque_1
 62
1
100
AcDbLine
 10
410.384250
 20
121.543020
 30
0.0
 11
405.713190
 21
129.633520
 31
0.0
  0
SPLINE
  5
163
100
AcDbEntity
  8
Calque_1
 62
1
100
AcDbSpline
 70
8
 71
3
 72
8
 73
4
 74
0
 40
0
 40
0
 40
0
 40
0
 40
1
 40
1
 40
1
 40
1
 10
405.713190
 20
129.633520
 30
0.0
 10
405.713190
 20
129.633520
 30
0.0
 10
377.495650
 20
127.504550
 30
0.0
 10
360.484070
 20
123.798760
 30
0.0
  0
SPLINE
  5
164
100
AcDbEntity
  8
Calque_1
 62
1
100
AcDbSpline
 70
8
 71
3
 72
8
 73
4
 74
0
 40
0
 40
0
 40
0
 40
0
 40
1
 40
1
 40
1
 40
1
 10
360.484070
 20
123.798760
 30
0.0
 10
349.316060
 20
121.366050
 30
0.0
 10
329.798380
 20
122.112510
 30
0.0
 10
320.072020
 20
118.970900
 30
0.0
  0
SPLINE
  5
165
100
AcDbEntity
  8
Calque_1
 62
1
100
AcDbSpline
 70
8
 71
3
 72
8
 73
4
 74
0
 40
0
 40
0
 40
0
 40
0
 40
1
 40
1
 40
1
 40
1
 10
320.072020
 20
118.970900
 30
0.0
 10
319.462730
 20
126.033940
 30
0.0
 10
315.090600
 20
126.895220
 30
0.0
 10
311.559390
 20
132.974460
 30
0.0
  0
SPLINE
  5
166
100
AcDbEntity
  8
Calque_1
 62
1
100
AcDbSpline
 70
8
 71
3
 72
8
 73
4
 74
0
 40
0
 40
0
 40
0
 40
0
 40
1
 40
1
 40
1
 40
1
 10
311.559390
 20
132.974460
 30
0.0
 10
308.060520
 20
139.072260
 30
0.0
 10
309.500440
 20
143.289120
 30
0.0
 10
303.688260
 20
147.348400
 30
0.0
  0
SPLINE
  5
167
100
AcDbEntity
  8
Calque_1
 62
1
100
AcDbSpline
 70
8
 71
3
 72
8
 73
4
 74
0
 40
0
 40
0
 40
0
 40
0
 40
1
 40
1
 40
1
 40
1
 10
303.688260
 20
147.348400
 30
0.0
 10
311.272170
 20
154.200850
 30
0.0
 10
320.384350
 20
171.477230
 30
0.0
 10
328.075040
 20
179.932830
 30
0.0
  0
SPLINE
  5
168
100
AcDbEntity
  8
Calque_1
 62
1
100
AcDbSpline
 70
8
 71
3
 72
8
 73
4
 74
0
 40
0
 40
0
 40
0
 40
0
 40
1
 40
1
 40
1
 40
1
 10
328.075040
 20
179.932830
 30
0.0
 10
339.789960
 20
192.812720
 30
0.0
 10
355.742130
 20
216.185960
 30
0.0
 10
355.742130
 20
216.185960
 30
0.0
  0
LINE
  5
169
100
AcDbEntity
  8
Calque_1
 62
1
100
AcDbLine
 10
355.742130
 20
216.185960
 30
0.0
 11
351.070850
 21
224.276820
 31
0.0
  0
LINE
  5
16a
100
AcDbEntity
  8
Calque_1
 62
1
100
AcDbLine
 10
351.070850
 20
224.276820
 30
0.0
 11
284.554290
 21
151.794310
 31
0.0
  0
SPLINE
  5
16b
100
AcDbEntity
  8
Calque_1
 62
1
100
AcDbSpline
 70
8
 71
3
 72
8
 73
4
 74
0
 40
0
 40
0
 40
0
 40
0
 40
1
 40
1
 40
1
 40
1
 10
284.554290
 20
151.794310
 30
0.0
 10
270.248390
 20
157.786580
 30
0.0
 10
253.401930
 20
157.591020
 30
0.0
 10
239.884840
 20
149.807480
 30
0.0
  0
SPLINE
  5
16c
100
AcDbEntity
  8
Calque_1
 62
1
100
AcDbSpline
 70
8
 71
3
 72
8
 73
4
 74
0
 40
0
 40
0
 40
0
 40
0
 40
1
 40
1
 40
1
 40
1
 10
239.884840
 20
149.807480
 30
0.0
 10
230.705010
 20
144.484670
 30
0.0
 10
223.451870
 20
136.393160
 30
0.0
 10
219.183460
 20
126.713980
 30
0.0
  0
LINE
  5
16d
100
AcDbEntity
  8
Calque_1
 62
1
100
AcDbLine
 10
219.183460
 20
126.713980
 30
0.0
 11
244.636030
 21
141.409030
 31
0.0
  0
LINE
  5
16e
100
AcDbEntity
  8
Calque_1
 62
1
100
AcDbLine
 10
244.636030
 20
141.409030
 30
0.0
 11
244.636030
 21
141.409030
 31
0.0
  0
SPLINE
  5
16f
100
AcDbEntity
  8
Calque_1
 62
1
100
AcDbSpline
 70
8
 71
3
 72
8
 73
4
 74
0
 40
0
 40
0
 40
0
 40
0
 40
1
 40
1
 40
1
 40
1
 10
244.636030
 20
141.409030
 30
0.0
 10
244.660830
 20
141.423330
 30
0.0
 10
244.684830
 20
141.437230
 30
0.0
 10
244.709730
 20
141.451530
 30
0.0
  0
SPLINE
  5
170
100
AcDbEntity
  8
Calque_1
 62
1
100
AcDbSpline
 70
8
 71
3
 72
8
 73
4
 74
0
 40
0
 40
0
 40
0
 40
0
 40
1
 40
1
 40
1
 40
1
 10
244.709730
 20
141.451530
 30
0.0
 10
262.101260
 20
151.470870
 30
0.0
 10
285.833360
 20
144.204700
 30
0.0
 10
297.854680
 20
128.351790
 30
0.0
  0
LINE
  5
171
100
AcDbEntity
  8
Calque_1
 62
1
100
AcDbLine
 10
297.854680
 20
128.351790
 30
0.0
 11
302.533660
 21
131.053200
 31
0.0
  0
LINE
  5
172
100
AcDbEntity
  8
Calque_1
 62
1
100
AcDbLine
 10
302.533660
 20
131.053200
 30
0.0
 11
303.958980
 21
128.584480
 31
0.0
  0
LINE
  5
173
100
AcDbEntity
  8
Calque_1
 62
1
100
AcDbLine
 10
303.958980
 20
128.584480
 30
0.0
 11
305.384600
 21
126.115240
 31
0.0
  0
LINE
  5
174
100
AcDbEntity
  8
Calque_1
 62
1
100
AcDbLine
 10
305.384600
 20
126.115240
 30
0.0
 11
300.705620
 21
123.413830
 31
0.0
  0
SPLINE
  5
175
100
AcDbEntity
  8
Calque_1
 62
1
100
AcDbSpline
 70
8
 71
3
 72
8
 73
4
 74
0
 40
0
 40
0
 40
0
 40
0
 40
1
 40
1
 40
1
 40
1
 10
300.705620
 20
123.413830
 30
0.0
 10
308.423910
 20
105.076680
 30
0.0
 10
302.849860
 20
80.892220
 30
0.0
 10
285.476950
 20
70.840620
 30
0.0
  0
SPLINE
  5
176
100
AcDbEntity
  8
Calque_1
 62
1
100
AcDbSpline
 70
8
 71
3
 72
8
 73
4
 74
0
 40
0
 40
0
 40
0
 40
0
 40
1
 40
1
 40
1
 40
1
 10
285.476950
 20
70.840620
 30
0.0
 10
285.452150
 20
70.826320
 30
0.0
 10
285.428150
 20
70.812420
 30
0.0
 10
285.403250
 20
70.798120
 30
0.0
  0
LINE
  5
177
100
AcDbEntity
  8
Calque_1
 62
1
100
AcDbLine
 10
285.403250
 20
70.798120
 30
0.0
 11
285.403250
 21
70.798120
 31
0.0
  0
LINE
  5
178
100
AcDbEntity
  8
Calque_1
 62
1
100
AcDbLine
 10
285.403250
 20
70.798120
 30
0.0
 11
259.949140
 21
56.105720
 31
0.0
  0
SPLINE
  5
179
100
AcDbEntity
  8
Calque_1
 62
1
100
AcDbSpline
 70
8
 71
3
 72
8
 73
4
 74
0
 40
0
 40
0
 40
0
 40
0
 40
1
 40
1
 40
1
 40
1
 10
221.151180
 20
344.581710
 30
0.0
 10
222.769080
 20
334.128020
 30
0.0
 10
227.681100
 20
324.435190
 30
0.0
 10
235.170400
 20
316.917750
 30
0.0
  0
SPLINE
  5
17a
100
AcDbEntity
  8
Calque_1
 62
1
100
AcDbSpline
 70
8
 71
3
 72
8
 73
4
 74
0
 40
0
 40
0
 40
0
 40
0
 40
1
 40
1
 40
1
 40
1
 10
235.170400
 20
316.917750
 30
0.0
 10
246.212300
 20
305.901000
 30
0.0
 10
262.433920
 20
301.351560
 30
0.0
 10
277.802650
 20
303.436510
 30
0.0
  0
LINE
  5
17b
100
AcDbEntity
  8
Calque_1
 62
1
100
AcDbLine
 10
277.802650
 20
303.436510
 30
0.0
 11
323.294090
 21
216.209170
 31
0.0
  0
LINE
  5
17c
100
AcDbEntity
  8
Calque_1
 62
1
100
AcDbLine
 10
323.294090
 20
216.209170
 30
0.0
 11
329.899940
 21
222.815020
 31
0.0
  0
SPLINE
  5
17d
100
AcDbEntity
  8
Calque_1
 62
1
100
AcDbSpline
 70
8
 71
3
 72
8
 73
4
 74
0
 40
0
 40
0
 40
0
 40
0
 40
1
 40
1
 40
1
 40
1
 10
329.899940
 20
222.815020
 30
0.0
 10
329.899940
 20
222.815020
 30
0.0
 10
320.540270
 20
249.520040
 30
0.0
 10
312.557870
 20
264.992850
 30
0.0
  0
SPLINE
  5
17e
100
AcDbEntity
  8
Calque_1
 62
1
100
AcDbSpline
 70
8
 71
3
 72
8
 73
4
 74
0
 40
0
 40
0
 40
0
 40
0
 40
1
 40
1
 40
1
 40
1
 10
312.557870
 20
264.992850
 30
0.0
 10
307.317500
 20
275.150680
 30
0.0
 10
302.986930
 20
294.196520
 30
0.0
 10
297.435010
 20
302.778340
 30
0.0
  0
SPLINE
  5
17f
100
AcDbEntity
  8
Calque_1
 62
1
100
AcDbSpline
 70
8
 71
3
 72
8
 73
4
 74
0
 40
0
 40
0
 40
0
 40
0
 40
1
 40
1
 40
1
 40
1
 10
297.435010
 20
302.778340
 30
0.0
 10
304.099740
 20
305.194930
 30
0.0
 10
303.800110
 20
309.641000
 30
0.0
 10
308.758190
 20
314.625280
 30
0.0
  0
SPLINE
  5
180
100
AcDbEntity
  8
Calque_1
 62
1
100
AcDbSpline
 70
8
 71
3
 72
8
 73
4
 74
0
 40
0
 40
0
 40
0
 40
0
 40
1
 40
1
 40
1
 40
1
 10
308.758190
 20
314.625280
 30
0.0
 10
313.742450
 20
319.583380
 30
0.0
 10
318.188530
 20
319.283730
 30
0.0
 10
320.605120
 20
325.948460
 30
0.0
  0
SPLINE
  5
181
100
AcDbEntity
  8
Calque_1
 62
1
100
AcDbSpline
 70
8
 71
3
 72
8
 73
4
 74
0
 40
0
 40
0
 40
0
 40
0
 40
1
 40
1
 40
1
 40
1
 10
320.605120
 20
325.948460
 30
0.0
 10
329.186950
 20
320.396540
 30
0.0
 10
348.232770
 20
316.065980
 30
0.0
 10
358.390630
 20
310.825590
 30
0.0
  0
SPLINE
  5
182
100
AcDbEntity
  8
Calque_1
 62
1
100
AcDbSpline
 70
8
 71
3
 72
8
 73
4
 74
0
 40
0
 40
0
 40
0
 40
0
 40
1
 40
1
 40
1
 40
1
 10
358.390630
 20
310.825590
 30
0.0
 10
373.863460
 20
302.843230
 30
0.0
 10
400.568450
 20
293.483530
 30
0.0
 10
400.568450
 20
293.483530
 30
0.0
  0
LINE
  5
183
100
AcDbEntity
  8
Calque_1
 62
1
100
AcDbLine
 10
400.568450
 20
293.483530
 30
0.0
 11
407.174280
 21
300.089370
 31
0.0
  0
LINE
  5
184
100
AcDbEntity
  8
Calque_1
 62
1
100
AcDbLine
 10
407.174280
 20
300.089370
 30
0.0
 11
319.946960
 21
345.580820
 31
0.0
  0
SPLINE
  5
185
100
AcDbEntity
  8
Calque_1
 62
1
100
AcDbSpline
 70
8
 71
3
 72
8
 73
4
 74
0
 40
0
 40
0
 40
0
 40
0
 40
1
 40
1
 40
1
 40
1
 10
319.946960
 20
345.580820
 30
0.0
 10
322.031910
 20
360.949550
 30
0.0
 10
317.482470
 20
377.171150
 30
0.0
 10
306.465720
 20
388.213070
 30
0.0
  0
SPLINE
  5
186
100
AcDbEntity
  8
Calque_1
 62
1
100
AcDbSpline
 70
8
 71
3
 72
8
 73
4
 74
0
 40
0
 40
0
 40
0
 40
0
 40
1
 40
1
 40
1
 40
1
 10
306.465720
 20
388.213070
 30
0.0
 10
298.948310
 20
395.702390
 30
0.0
 10
289.255440
 20
400.614390
 30
0.0
 10
278.801760
 20
402.232290
 30
0.0
  0
LINE
  5
187
100
AcDbEntity
  8
Calque_1
 62
1
100
AcDbLine
 10
278.801760
 20
402.232290
 30
0.0
 11
299.583540
 21
381.450510
 31
0.0
  0
LINE
  5
188
100
AcDbEntity
  8
Calque_1
 62
1
100
AcDbLine
 10
299.583540
 20
381.450510
 30
0.0
 11
299.581540
 21
381.447510
 31
0.0
  0
SPLINE
  5
189
100
AcDbEntity
  8
Calque_1
 62
1
100
AcDbSpline
 70
8
 71
3
 72
8
 73
4
 74
0
 40
0
 40
0
 40
0
 40
0
 40
1
 40
1
 40
1
 40
1
 10
299.581540
 20
381.447510
 30
0.0
 10
299.601440
 20
381.427510
 30
0.0
 10
299.621440
 20
381.407710
 30
0.0
 10
299.644140
 20
381.390510
 30
0.0
  0
SPLINE
  5
18a
100
AcDbEntity
  8
Calque_1
 62
1
100
AcDbSpline
 70
8
 71
3
 72
8
 73
4
 74
0
 40
0
 40
0
 40
0
 40
0
 40
1
 40
1
 40
1
 40
1
 10
299.644140
 20
381.390510
 30
0.0
 10
313.823450
 20
367.184940
 30
0.0
 10
312.947750
 20
342.381370
 30
0.0
 10
300.746480
 20
326.666750
 30
0.0
  0
LINE
  5
18b
100
AcDbEntity
  8
Calque_1
 62
1
100
AcDbLine
 10
300.746480
 20
326.666750
 30
0.0
 11
304.566860
 21
322.846370
 31
0.0
  0
LINE
  5
18c
100
AcDbEntity
  8
Calque_1
 62
1
100
AcDbLine
 10
304.566860
 20
322.846370
 30
0.0
 11
302.551180
 21
320.830700
 31
0.0
  0
LINE
  5
18d
100
AcDbEntity
  8
Calque_1
 62
1
100
AcDbLine
 10
302.551180
 20
320.830700
 30
0.0
 11
300.535030
 21
318.814550
 31
0.0
  0
LINE
  5
18e
100
AcDbEntity
  8
Calque_1
 62
1
100
AcDbLine
 10
300.535030
 20
318.814550
 30
0.0
 11
296.714660
 21
322.634930
 31
0.0
  0
SPLINE
  5
18f
100
AcDbEntity
  8
Calque_1
 62
1
100
AcDbSpline
 70
8
 71
3
 72
8
 73
4
 74
0
 40
0
 40
0
 40
0
 40
0
 40
1
 40
1
 40
1
 40
1
 10
296.714660
 20
322.634930
 30
0.0
 10
281.000030
 20
310.433640
 30
0.0
 10
256.196880
 20
309.558360
 30
0.0
 10
241.991370
 20
323.737740
 30
0.0
  0
SPLINE
  5
190
100
AcDbEntity
  8
Calque_1
 62
1
100
AcDbSpline
 70
8
 71
3
 72
8
 73
4
 74
0
 40
0
 40
0
 40
0
 40
0
 40
1
 40
1
 40
1
 40
1
 10
241.991370
 20
323.737740
 30
0.0
 10
241.973570
 20
323.759840
 30
0.0
 10
241.953570
 20
323.779640
 30
0.0
 10
241.934270
 20
323.800340
 30
0.0
  0
LINE
  5
191
100
AcDbEntity
  8
Calque_1
 62
1
100
AcDbLine
 10
241.934270
 20
323.800340
 30
0.0
 11
241.932270
 21
323.797340
 31
0.0
  0
LINE
  5
192
100
AcDbEntity
  8
Calque_1
 62
1
100
AcDbLine
 10
241.932270
 20
323.797340
 30
0.0
 11
221.151180
 21
344.581710
 31
0.0
  0
SPLINE
  5
193
100
AcDbEntity
  8
Calque_1
 62
1
100
AcDbSpline
 70
8
 71
3
 72
8
 73
4
 74
0
 40
0
 40
0
 40
0
 40
0
 40
1
 40
1
 40
1
 40
1
 10
239.419500
 20
267.223860
 30
0.0
 10
230.883590
 20
273.471670
 30
0.0
 10
220.556400
 20
276.852230
 30
0.0
 10
209.945030
 20
276.872120
 30
0.0
  0
SPLINE
  5
194
100
AcDbEntity
  8
Calque_1
 62
1
100
AcDbSpline
 70
8
 71
3
 72
8
 73
4
 74
0
 40
0
 40
0
 40
0
 40
0
 40
1
 40
1
 40
1
 40
1
 10
209.945030
 20
276.872120
 30
0.0
 10
194.347200
 20
276.854320
 30
0.0
 10
179.659870
 20
268.600860
 30
0.0
 10
170.266820
 20
256.259250
 30
0.0
  0
LINE
  5
195
100
AcDbEntity
  8
Calque_1
 62
1
100
AcDbLine
 10
170.266820
 20
256.259250
 30
0.0
 11
76.420470
 21
285.770940
 31
0.0
  0
LINE
  5
196
100
AcDbEntity
  8
Calque_1
 62
1
100
AcDbLine
 10
76.420470
 20
285.770940
 30
0.0
 11
76.420470
 21
276.428850
 31
0.0
  0
SPLINE
  5
197
100
AcDbEntity
  8
Calque_1
 62
1
100
AcDbSpline
 70
8
 71
3
 72
8
 73
4
 74
0
 40
0
 40
0
 40
0
 40
0
 40
1
 40
1
 40
1
 40
1
 10
76.420470
 20
276.428850
 30
0.0
 10
76.420470
 20
276.428850
 30
0.0
 10
101.922070
 20
264.163900
 30
0.0
 10
118.507370
 20
258.867330
 30
0.0
  0
SPLINE
  5
198
100
AcDbEntity
  8
Calque_1
 62
1
100
AcDbSpline
 70
8
 71
3
 72
8
 73
4
 74
0
 40
0
 40
0
 40
0
 40
0
 40
1
 40
1
 40
1
 40
1
 10
118.507370
 20
258.867330
 30
0.0
 10
129.395550
 20
255.390220
 30
0.0
 10
145.925170
 20
244.984910
 30
0.0
 10
155.919250
 20
242.842460
 30
0.0
  0
SPLINE
  5
199
100
AcDbEntity
  8
Calque_1
 62
1
100
AcDbSpline
 70
8
 71
3
 72
8
 73
4
 74
0
 40
0
 40
0
 40
0
 40
0
 40
1
 40
1
 40
1
 40
1
 10
155.919250
 20
242.842460
 30
0.0
 10
152.915350
 20
236.421040
 30
0.0
 10
156.271060
 20
233.488990
 30
0.0
 10
156.289600
 20
226.458710
 30
0.0
  0
SPLINE
  5
19a
100
AcDbEntity
  8
Calque_1
 62
1
100
AcDbSpline
 70
8
 71
3
 72
8
 73
4
 74
0
 40
0
 40
0
 40
0
 40
0
 40
1
 40
1
 40
1
 40
1
 10
156.289600
 20
226.458710
 30
0.0
 10
156.271100
 20
219.428420
 30
0.0
 10
152.915350
 20
216.496370
 30
0.0
 10
155.919250
 20
210.074950
 30
0.0
  0
SPLINE
  5
19b
100
AcDbEntity
  8
Calque_1
 62
1
100
AcDbSpline
 70
8
 71
3
 72
8
 73
4
 74
0
 40
0
 40
0
 40
0
 40
0
 40
1
 40
1
 40
1
 40
1
 10
155.919250
 20
210.074950
 30
0.0
 10
145.925170
 20
207.932490
 30
0.0
 10
129.395580
 20
197.527220
 30
0.0
 10
118.507370
 20
194.050040
 30
0.0
  0
SPLINE
  5
19c
100
AcDbEntity
  8
Calque_1
 62
1
100
AcDbSpline
 70
8
 71
3
 72
8
 73
4
 74
0
 40
0
 40
0
 40
0
 40
0
 40
1
 40
1
 40
1
 40
1
 10
118.507370
 20
194.050040
 30
0.0
 10
101.922070
 20
188.753480
 30
0.0
 10
76.420470
 20
176.488510
 30
0.0
 10
76.420470
 20
176.488510
 30
0.0
  0
LINE
  5
19d
100
AcDbEntity
  8
Calque_1
 62
1
100
AcDbLine
 10
76.420470
 20
176.488510
 30
0.0
 11
76.420470
 21
167.146430
 31
0.0
  0
LINE
  5
19e
100
AcDbEntity
  8
Calque_1
 62
1
100
AcDbLine
 10
76.420470
 20
167.146430
 30
0.0
 11
170.266820
 21
196.658180
 31
0.0
  0
SPLINE
  5
19f
100
AcDbEntity
  8
Calque_1
 62
1
100
AcDbSpline
 70
8
 71
3
 72
8
 73
4
 74
0
 40
0
 40
0
 40
0
 40
0
 40
1
 40
1
 40
1
 40
1
 10
170.266820
 20
196.658180
 30
0.0
 10
179.659870
 20
184.316550
 30
0.0
 10
194.347200
 20
176.063080
 30
0.0
 10
209.945030
 20
176.045290
 30
0.0
  0
SPLINE
  5
1a0
100
AcDbEntity
  8
Calque_1
 62
1
100
AcDbSpline
 70
8
 71
3
 72
8
 73
4
 74
0
 40
0
 40
0
 40
0
 40
0
 40
1
 40
1
 40
1
 40
1
 10
209.945030
 20
176.045290
 30
0.0
 10
220.556400
 20
176.065190
 30
0.0
 10
230.883590
 20
179.445720
 30
0.0
 10
239.419500
 20
185.693560
 30
0.0
  0
LINE
  5
1a1
100
AcDbEntity
  8
Calque_1
 62
1
100
AcDbLine
 10
239.419500
 20
185.693560
 30
0.0
 11
210.029620
 21
185.693560
 31
0.0
  0
LINE
  5
1a2
100
AcDbEntity
  8
Calque_1
 62
1
100
AcDbLine
 10
210.029620
 20
185.693560
 30
0.0
 11
210.029620
 21
185.696560
 31
0.0
  0
SPLINE
  5
1a3
100
AcDbEntity
  8
Calque_1
 62
1
100
AcDbSpline
 70
8
 71
3
 72
8
 73
4
 74
0
 40
0
 40
0
 40
0
 40
0
 40
1
 40
1
 40
1
 40
1
 10
210.029620
 20
185.696560
 30
0.0
 10
210.001420
 20
185.696560
 30
0.0
 10
209.973320
 20
185.696560
 30
0.0
 10
209.944920
 20
185.692560
 30
0.0
  0
SPLINE
  5
1a4
100
AcDbEntity
  8
Calque_1
 62
1
100
AcDbSpline
 70
8
 71
3
 72
8
 73
4
 74
0
 40
0
 40
0
 40
0
 40
0
 40
1
 40
1
 40
1
 40
1
 10
209.944920
 20
185.692560
 30
0.0
 10
189.873800
 20
185.711160
 30
0.0
 10
172.954210
 20
203.869120
 30
0.0
 10
170.469920
 20
223.608650
 30
0.0
  0
LINE
  5
1a5
100
AcDbEntity
  8
Calque_1
 62
1
100
AcDbLine
 10
170.469920
 20
223.608650
 30
0.0
 11
165.067070
 21
223.608650
 31
0.0
  0
LINE
  5
1a6
100
AcDbEntity
  8
Calque_1
 62
1
100
AcDbLine
 10
165.067070
 20
223.608650
 30
0.0
 11
165.067070
 21
226.459190
 31
0.0
  0
LINE
  5
1a7
100
AcDbEntity
  8
Calque_1
 62
1
100
AcDbLine
 10
165.067070
 20
226.459190
 30
0.0
 11
165.067070
 21
229.310520
 31
0.0
  0
LINE
  5
1a8
100
AcDbEntity
  8
Calque_1
 62
1
100
AcDbLine
 10
165.067070
 20
229.310520
 30
0.0
 11
170.469920
 21
229.310520
 31
0.0
  0
SPLINE
  5
1a9
100
AcDbEntity
  8
Calque_1
 62
1
100
AcDbSpline
 70
8
 71
3
 72
8
 73
4
 74
0
 40
0
 40
0
 40
0
 40
0
 40
1
 40
1
 40
1
 40
1
 10
170.469920
 20
229.310520
 30
0.0
 10
172.954210
 20
249.050000
 30
0.0
 10
189.873800
 20
267.207430
 30
0.0
 10
209.944920
 20
267.225930
 30
0.0
  0
SPLINE
  5
1aa
100
AcDbEntity
  8
Calque_1
 62
1
100
AcDbSpline
 70
8
 71
3
 72
8
 73
4
 74
0
 40
0
 40
0
 40
0
 40
0
 40
1
 40
1
 40
1
 40
1
 10
209.944920
 20
267.225930
 30
0.0
 10
209.973220
 20
267.225930
 30
0.0
 10
210.001320
 20
267.225930
 30
0.0
 10
210.029620
 20
267.225930
 30
0.0
  0
LINE
  5
1ab
100
AcDbEntity
  8
Calque_1
 62
1
100
AcDbLine
 10
210.029620
 20
267.225930
 30
0.0
 11
210.029620
 21
267.225930
 31
0.0
  0
LINE
  5
1ac
100
AcDbEntity
  8
Calque_1
 62
1
100
AcDbLine
 10
210.029620
 20
267.225930
 30
0.0
 11
239.419500
 21
267.223860
 31
0.0
  0
LINE
  5
1ad
100
AcDbEntity
  8
Calque_1
 62
1
100
AcDbLine
 10
156.858910
 20
97.338080
 30
0.0
 11
177.495240
 21
55.166850
 31
0.0
  0
SPLINE
  5
1ae
100
AcDbEntity
  8
Calque_1
 62
1
100
AcDbSpline
 70
8
 71
3
 72
8
 73
4
 74
0
 40
0
 40
0
 40
0
 40
0
 40
1
 40
1
 40
1
 40
1
 10
177.495240
 20
55.166850
 30
0.0
 10
177.495240
 20
55.166850
 30
0.0
 10
185.044370
 20
42.024430
 30
0.0
 10
191.051590
 20
37.862340
 30
0.0
  0
SPLINE
  5
1af
100
AcDbEntity
  8
Calque_1
 62
1
100
AcDbSpline
 70
8
 71
3
 72
8
 73
4
 74
0
 40
0
 40
0
 40
0
 40
0
 40
1
 40
1
 40
1
 40
1
 10
191.051590
 20
37.862340
 30
0.0
 10
197.410220
 20
32.063660
 30
0.0
 10
206.308030
 20
30.899480
 30
0.0
 10
215.149960
 20
30.352510
 30
0.0
  0
LINE
  5
1b0
100
AcDbEntity
  8
Calque_1
 62
1
100
AcDbLine
 10
215.149960
 20
30.352510
 30
0.0
 11
215.149960
 21
40.119350
 31
0.0
  0
LINE
  5
1b1
100
AcDbEntity
  8
Calque_1
 62
1
100
AcDbLine
 10
215.149960
 20
40.119350
 30
0.0
 11
220.887430
 21
40.119350
 31
0.0
  0
LINE
  5
1b2
100
AcDbEntity
  8
Calque_1
 62
1
100
AcDbLine
 10
220.887430
 20
40.119350
 30
0.0
 11
220.887430
 21
30.352510
 31
0.0
  0
LINE
  5
1b3
100
AcDbEntity
  8
Calque_1
 62
1
100
AcDbLine
 10
220.887430
 20
30.352510
 30
0.0
 11
383.092470
 21
30.352510
 31
0.0
  0
LINE
  5
1b4
100
AcDbEntity
  8
Calque_1
 62
1
100
AcDbLine
 10
383.092470
 20
30.352510
 30
0.0
 11
383.092470
 21
40.119350
 31
0.0
  0
LINE
  5
1b5
100
AcDbEntity
  8
Calque_1
 62
1
100
AcDbLine
 10
383.092470
 20
40.119350
 30
0.0
 11
388.829850
 21
40.119350
 31
0.0
  0
LINE
  5
1b6
100
AcDbEntity
  8
Calque_1
 62
1
100
AcDbLine
 10
388.829850
 20
40.119350
 30
0.0
 11
388.829850
 21
30.352510
 31
0.0
  0
SPLINE
  5
1b7
100
AcDbEntity
  8
Calque_1
 62
1
100
AcDbSpline
 70
8
 71
3
 72
8
 73
4
 74
0
 40
0
 40
0
 40
0
 40
0
 40
1
 40
1
 40
1
 40
1
 10
388.829850
 20
30.352510
 30
0.0
 10
388.829850
 20
30.352510
 30
0.0
 10
400.518370
 20
30.510410
 30
0.0
 10
415.557180
 20
31.013260
 30
0.0
  0
SPLINE
  5
1b8
100
AcDbEntity
  8
Calque_1
 62
1
100
AcDbSpline
 70
8
 71
3
 72
8
 73
4
 74
0
 40
0
 40
0
 40
0
 40
0
 40
1
 40
1
 40
1
 40
1
 10
415.557180
 20
31.013260
 30
0.0
 10
423.467680
 20
31.277760
 30
0.0
 10
434.337620
 20
34.390940
 30
0.0
 10
446.501960
 20
38.342530
 30
0.0
  0
SPLINE
  5
1b9
100
AcDbEntity
  8
Calque_1
 62
1
100
AcDbSpline
 70
8
 71
3
 72
8
 73
4
 74
0
 40
0
 40
0
 40
0
 40
0
 40
1
 40
1
 40
1
 40
1
 10
446.501960
 20
38.342530
 30
0.0
 10
460.989580
 20
43.048780
 30
0.0
 10
466.372020
 20
48.761120
 30
0.0
 10
466.923400
 20
49.730580
 30
0.0
  0
SPLINE
  5
1ba
100
AcDbEntity
  8
Calque_1
 62
1
100
AcDbSpline
 70
8
 71
3
 72
8
 73
4
 74
0
 40
0
 40
0
 40
0
 40
0
 40
1
 40
1
 40
1
 40
1
 10
466.923400
 20
49.730580
 30
0.0
 10
468.661460
 20
52.785570
 30
0.0
 10
468.222740
 20
63.425150
 30
0.0
 10
468.222740
 20
63.425150
 30
0.0
  0
LINE
  5
1bb
100
AcDbEntity
  8
Calque_1
 62
1
100
AcDbLine
 10
468.222740
 20
63.425150
 30
0.0
 11
455.555200
 21
63.425150
 31
0.0
  0
LINE
  5
1bc
100
AcDbEntity
  8
Calque_1
 62
1
100
AcDbLine
 10
455.555200
 20
63.425150
 30
0.0
 11
455.555200
 21
53.596830
 31
0.0
  0
LINE
  5
1bd
100
AcDbEntity
  8
Calque_1
 62
1
100
AcDbLine
 10
455.555200
 20
53.596830
 30
0.0
 11
449.818020
 21
53.596830
 31
0.0
  0
LINE
  5
1be
100
AcDbEntity
  8
Calque_1
 62
1
100
AcDbLine
 10
449.818020
 20
53.596830
 30
0.0
 11
449.818020
 21
63.425150
 31
0.0
  0
LINE
  5
1bf
100
AcDbEntity
  8
Calque_1
 62
1
100
AcDbLine
 10
449.818020
 20
63.425150
 30
0.0
 11
437.991110
 21
63.425150
 31
0.0
  0
SPLINE
  5
1c0
100
AcDbEntity
  8
Calque_1
 62
1
100
AcDbSpline
 70
8
 71
3
 72
8
 73
4
 74
0
 40
0
 40
0
 40
0
 40
0
 40
1
 40
1
 40
1
 40
1
 10
437.991110
 20
63.425150
 30
0.0
 10
430.099800
 20
63.425150
 30
0.0
 10
435.506480
 20
64.478600
 30
0.0
 10
429.666820
 20
60.427840
 30
0.0
  0
SPLINE
  5
1c1
100
AcDbEntity
  8
Calque_1
 62
1
100
AcDbSpline
 70
8
 71
3
 72
8
 73
4
 74
0
 40
0
 40
0
 40
0
 40
0
 40
1
 40
1
 40
1
 40
1
 10
429.666820
 20
60.427840
 30
0.0
 10
425.685900
 20
56.351090
 30
0.0
 10
419.052990
 20
47.461710
 30
0.0
 10
405.565070
 20
46.647860
 30
0.0
  0
SPLINE
  5
1c2
100
AcDbEntity
  8
Calque_1
 62
1
100
AcDbSpline
 70
8
 71
3
 72
8
 73
4
 74
0
 40
0
 40
0
 40
0
 40
0
 40
1
 40
1
 40
1
 40
1
 10
405.565070
 20
46.647860
 30
0.0
 10
395.015240
 20
45.796280
 30
0.0
 10
389.036300
 20
45.232250
 30
0.0
 10
388.829950
 20
45.535270
 30
0.0
  0
LINE
  5
1c3
100
AcDbEntity
  8
Calque_1
 62
1
100
AcDbLine
 10
388.829950
 20
45.535270
 30
0.0
 11
204.228060
 21
45.440470
 31
0.0
  0
SPLINE
  5
1c4
100
AcDbEntity
  8
Calque_1
 62
1
100
AcDbSpline
 70
8
 71
3
 72
8
 73
4
 74
0
 40
0
 40
0
 40
0
 40
0
 40
1
 40
1
 40
1
 40
1
 10
204.228060
 20
45.440470
 30
0.0
 10
204.228060
 20
45.440470
 30
0.0
 10
195.726160
 20
56.705450
 30
0.0
 10
184.664810
 20
70.905060
 30
0.0
  0
SPLINE
  5
1c5
100
AcDbEntity
  8
Calque_1
 62
1
100
AcDbSpline
 70
8
 71
3
 72
8
 73
4
 74
0
 40
0
 40
0
 40
0
 40
0
 40
1
 40
1
 40
1
 40
1
 10
184.664810
 20
70.905060
 30
0.0
 10
176.670810
 20
82.718200
 30
0.0
 10
154.013040
 20
103.153760
 30
0.0
 10
156.858910
 20
97.338110
 30
0.0
  0
LINE
  5
1c6
100
AcDbEntity
  8
Calque_1
 62
1
100
AcDbLine
 10
156.858910
 20
97.338110
 30
0.0
 11
156.858910
 21
97.338080
 31
0.0
  0
LINE
  5
1c7
100
AcDbEntity
  8
Calque_1
 62
1
100
AcDbLine
 10
73.841580
 20
427.069440
 30
0.0
 11
473.740463
 21
427.069440
 31
0.0
  0
LINE
  5
1c8
100
AcDbEntity
  8
Calque_1
 62
1
100
AcDbLine
 10
473.740463
 20
427.069440
 30
0.0
 11
473.740463
 21
27.171460
 31
0.0
  0
LINE
  5
1c9
100
AcDbEntity
  8
Calque_1
 62
1
100
AcDbLine
 10
473.740463
 20
27.171460
 30
0.0
 11
73.841580
 21
27.171460
 31
0.0
  0
LINE
  5
1ca
100
AcDbEntity
  8
Calque_1
 62
1
100
AcDbLine
 10
73.841580
 20
27.171460
 30
0.0
 11
73.841580
 21
427.069440
 31
0.0
  0
SPLINE
  5
1cb
100
AcDbEntity
  8
Calque_1
 62
1
100
AcDbSpline
 70
8
 71
3
 72
8
 73
4
 74
0
 40
0
 40
0
 40
0
 40
0
 40
1
 40
1
 40
1
 40
1
 10
91.587332
 20
50.359311
 30
0.0
 10
92.509254
 20
50.370667
 30
0.0
 10
93.427695
 20
50.678691
 30
0.0
 10
94.194410
 20
51.280506
 30
0.0
  0
SPLINE
  5
1cc
100
AcDbEntity
  8
Calque_1
 62
1
100
AcDbSpline
 70
8
 71
3
 72
8
 73
4
 74
0
 40
0
 40
0
 40
0
 40
0
 40
1
 40
1
 40
1
 40
1
 10
94.194410
 20
51.280506
 30
0.0
 10
95.785054
 20
52.488071
 30
0.0
 10
96.380597
 20
54.617438
 30
0.0
 10
95.650289
 20
56.485787
 30
0.0
  0
SPLINE
  5
1cd
100
AcDbEntity
  8
Calque_1
 62
1
100
AcDbSpline
 70
8
 71
3
 72
8
 73
4
 74
0
 40
0
 40
0
 40
0
 40
0
 40
1
 40
1
 40
1
 40
1
 10
95.650289
 20
56.485787
 30
0.0
 10
93.844292
 20
60.999465
 30
0.0
 10
92.812731
 20
65.790403
 30
0.0
 10
92.600520
 20
70.653329
 30
0.0
  0
SPLINE
  5
1ce
100
AcDbEntity
  8
Calque_1
 62
1
100
AcDbSpline
 70
8
 71
3
 72
8
 73
4
 74
0
 40
0
 40
0
 40
0
 40
0
 40
1
 40
1
 40
1
 40
1
 10
92.600520
 20
70.653329
 30
0.0
 10
93.616638
 20
69.433167
 30
0.0
 10
94.765167
 20
68.332318
 30
0.0
 10
96.025009
 20
67.370903
 30
0.0
  0
SPLINE
  5
1cf
100
AcDbEntity
  8
Calque_1
 62
1
100
AcDbSpline
 70
8
 71
3
 72
8
 73
4
 74
0
 40
0
 40
0
 40
0
 40
0
 40
1
 40
1
 40
1
 40
1
 10
96.025009
 20
67.370903
 30
0.0
 10
97.528262
 20
66.229940
 30
0.0
 10
99.581490
 20
66.168858
 30
0.0
 10
101.148710
 20
67.218739
 30
0.0
  0
SPLINE
  5
1d0
100
AcDbEntity
  8
Calque_1
 62
1
100
AcDbSpline
 70
8
 71
3
 72
8
 73
4
 74
0
 40
0
 40
0
 40
0
 40
0
 40
1
 40
1
 40
1
 40
1
 10
101.148710
 20
67.218739
 30
0.0
 10
102.716243
 20
68.268648
 30
0.0
 10
103.457466
 20
70.201036
 30
0.0
 10
102.998703
 20
72.041842
 30
0.0
  0
SPLINE
  5
1d1
100
AcDbEntity
  8
Calque_1
 62
1
100
AcDbSpline
 70
8
 71
3
 72
8
 73
4
 74
0
 40
0
 40
0
 40
0
 40
0
 40
1
 40
1
 40
1
 40
1
 10
102.998703
 20
72.041842
 30
0.0
 10
101.409577
 20
78.349557
 30
0.0
 10
101.486866
 20
83.291786
 30
0.0
 10
103.220049
 20
85.978814
 30
0.0
  0
SPLINE
  5
1d2
100
AcDbEntity
  8
Calque_1
 62
1
100
AcDbSpline
 70
8
 71
3
 72
8
 73
4
 74
0
 40
0
 40
0
 40
0
 40
0
 40
1
 40
1
 40
1
 40
1
 10
103.220049
 20
85.978814
 30
0.0
 10
104.161261
 20
87.379818
 30
0.0
 10
105.664958
 20
88.292299
 30
0.0
 10
107.332604
 20
88.475228
 30
0.0
  0
SPLINE
  5
1d3
100
AcDbEntity
  8
Calque_1
 62
1
100
AcDbSpline
 70
8
 71
3
 72
8
 73
4
 74
0
 40
0
 40
0
 40
0
 40
0
 40
1
 40
1
 40
1
 40
1
 10
107.332604
 20
88.475228
 30
0.0
 10
119.034785
 20
90.131731
 30
0.0
 10
118.558565
 20
93.367044
 30
0.0
 10
124.980530
 20
81.330058
 30
0.0
  0
SPLINE
  5
1d4
100
AcDbEntity
  8
Calque_1
 62
1
100
AcDbSpline
 70
8
 71
3
 72
8
 73
4
 74
0
 40
0
 40
0
 40
0
 40
0
 40
1
 40
1
 40
1
 40
1
 10
124.980530
 20
81.330058
 30
0.0
 10
126.323865
 20
79.927760
 30
0.0
 10
128.416981
 20
79.572306
 30
0.0
 10
130.141030
 20
80.454259
 30
0.0
  0
SPLINE
  5
1d5
100
AcDbEntity
  8
Calque_1
 62
1
100
AcDbSpline
 70
8
 71
3
 72
8
 73
4
 74
0
 40
0
 40
0
 40
0
 40
0
 40
1
 40
1
 40
1
 40
1
 10
130.141030
 20
80.454259
 30
0.0
 10
131.864581
 20
81.286353
 30
0.0
 10
132.847355
 20
83.157131
 30
0.0
 10
132.562566
 20
85.063297
 30
0.0
  0
SPLINE
  5
1d6
100
AcDbEntity
  8
Calque_1
 62
1
100
AcDbSpline
 70
8
 71
3
 72
8
 73
4
 74
0
 40
0
 40
0
 40
0
 40
0
 40
1
 40
1
 40
1
 40
1
 10
132.562566
 20
85.063297
 30
0.0
 10
131.503785
 20
92.777562
 30
0.0
 10
132.339806
 20
98.368402
 30
0.0
 10
134.781156
 20
100.021049
 30
0.0
  0
SPLINE
  5
1d7
100
AcDbEntity
  8
Calque_1
 62
1
100
AcDbSpline
 70
8
 71
3
 72
8
 73
4
 74
0
 40
0
 40
0
 40
0
 40
0
 40
1
 40
1
 40
1
 40
1
 10
134.781156
 20
100.021049
 30
0.0
 10
137.596231
 20
102.120971
 30
0.0
 10
139.940608
 20
104.765957
 30
0.0
 10
141.697583
 20
107.777910
 30
0.0
  0
SPLINE
  5
1d8
100
AcDbEntity
  8
Calque_1
 62
1
100
AcDbSpline
 70
8
 71
3
 72
8
 73
4
 74
0
 40
0
 40
0
 40
0
 40
0
 40
1
 40
1
 40
1
 40
1
 10
141.697583
 20
107.777910
 30
0.0
 10
147.130545
 20
105.195829
 30
0.0
 10
153.059330
 20
103.849040
 30
0.0
 10
159.064881
 20
103.833195
 30
0.0
  0
SPLINE
  5
1d9
100
AcDbEntity
  8
Calque_1
 62
1
100
AcDbSpline
 70
8
 71
3
 72
8
 73
4
 74
0
 40
0
 40
0
 40
0
 40
0
 40
1
 40
1
 40
1
 40
1
 10
159.064881
 20
103.833195
 30
0.0
 10
159.106496
 20
103.833195
 30
0.0
 10
159.148007
 20
103.836100
 30
0.0
 10
159.189622
 20
103.836364
 30
0.0
  0
SPLINE
  5
1da
100
AcDbEntity
  8
Calque_1
 62
1
100
AcDbSpline
 70
8
 71
3
 72
8
 73
4
 74
0
 40
0
 40
0
 40
0
 40
0
 40
1
 40
1
 40
1
 40
1
 10
159.189622
 20
103.836364
 30
0.0
 10
159.231211
 20
103.836127
 30
0.0
 10
159.272748
 20
103.833724
 30
0.0
 10
159.314337
 20
103.833724
 30
0.0
  0
SPLINE
  5
1db
100
AcDbEntity
  8
Calque_1
 62
1
100
AcDbSpline
 70
8
 71
3
 72
8
 73
4
 74
0
 40
0
 40
0
 40
0
 40
0
 40
1
 40
1
 40
1
 40
1
 10
159.314337
 20
103.833724
 30
0.0
 10
165.319888
 20
103.849568
 30
0.0
 10
171.248673
 20
105.196357
 30
0.0
 10
176.681635
 20
107.778439
 30
0.0
  0
SPLINE
  5
1dc
100
AcDbEntity
  8
Calque_1
 62
1
100
AcDbSpline
 70
8
 71
3
 72
8
 73
4
 74
0
 40
0
 40
0
 40
0
 40
0
 40
1
 40
1
 40
1
 40
1
 10
176.681635
 20
107.778439
 30
0.0
 10
178.438609
 20
104.766485
 30
0.0
 10
180.783013
 20
102.121499
 30
0.0
 10
183.598088
 20
100.021577
 30
0.0
  0
SPLINE
  5
1dd
100
AcDbEntity
  8
Calque_1
 62
1
100
AcDbSpline
 70
8
 71
3
 72
8
 73
4
 74
0
 40
0
 40
0
 40
0
 40
0
 40
1
 40
1
 40
1
 40
1
 10
183.598088
 20
100.021577
 30
0.0
 10
186.039437
 20
98.368930
 30
0.0
 10
186.875433
 20
92.778116
 30
0.0
 10
185.816652
 20
85.063851
 30
0.0
  0
SPLINE
  5
1de
100
AcDbEntity
  8
Calque_1
 62
1
100
AcDbSpline
 70
8
 71
3
 72
8
 73
4
 74
0
 40
0
 40
0
 40
0
 40
0
 40
1
 40
1
 40
1
 40
1
 10
185.816652
 20
85.063851
 30
0.0
 10
185.531862
 20
83.157686
 30
0.0
 10
186.514636
 20
81.286881
 30
0.0
 10
188.238188
 20
80.454787
 30
0.0
  0
SPLINE
  5
1df
100
AcDbEntity
  8
Calque_1
 62
1
100
AcDbSpline
 70
8
 71
3
 72
8
 73
4
 74
0
 40
0
 40
0
 40
0
 40
0
 40
1
 40
1
 40
1
 40
1
 10
188.238188
 20
80.454787
 30
0.0
 10
189.962263
 20
79.572834
 30
0.0
 10
192.055353
 20
79.928288
 30
0.0
 10
193.398688
 20
81.330586
 30
0.0
  0
SPLINE
  5
1e0
100
AcDbEntity
  8
Calque_1
 62
1
100
AcDbSpline
 70
8
 71
3
 72
8
 73
4
 74
0
 40
0
 40
0
 40
0
 40
0
 40
1
 40
1
 40
1
 40
1
 10
193.398688
 20
81.330586
 30
0.0
 10
199.820653
 20
93.367572
 30
0.0
 10
199.344433
 20
90.132259
 30
0.0
 10
211.046614
 20
88.475756
 30
0.0
  0
SPLINE
  5
1e1
100
AcDbEntity
  8
Calque_1
 62
1
100
AcDbSpline
 70
8
 71
3
 72
8
 73
4
 74
0
 40
0
 40
0
 40
0
 40
0
 40
1
 40
1
 40
1
 40
1
 10
211.046614
 20
88.475756
 30
0.0
 10
212.714260
 20
88.292827
 30
0.0
 10
214.217957
 20
87.380347
 30
0.0
 10
215.159168
 20
85.979369
 30
0.0
  0
SPLINE
  5
1e2
100
AcDbEntity
  8
Calque_1
 62
1
100
AcDbSpline
 70
8
 71
3
 72
8
 73
4
 74
0
 40
0
 40
0
 40
0
 40
0
 40
1
 40
1
 40
1
 40
1
 10
215.159168
 20
85.979369
 30
0.0
 10
216.892352
 20
83.292288
 30
0.0
 10
216.969641
 20
78.350111
 30
0.0
 10
215.380514
 20
72.042370
 30
0.0
  0
SPLINE
  5
1e3
100
AcDbEntity
  8
Calque_1
 62
1
100
AcDbSpline
 70
8
 71
3
 72
8
 73
4
 74
0
 40
0
 40
0
 40
0
 40
0
 40
1
 40
1
 40
1
 40
1
 10
215.380514
 20
72.042370
 30
0.0
 10
214.921752
 20
70.201591
 30
0.0
 10
215.663001
 20
68.269176
 30
0.0
 10
217.230534
 20
67.219268
 30
0.0
  0
SPLINE
  5
1e4
100
AcDbEntity
  8
Calque_1
 62
1
100
AcDbSpline
 70
8
 71
3
 72
8
 73
4
 74
0
 40
0
 40
0
 40
0
 40
0
 40
1
 40
1
 40
1
 40
1
 10
217.230534
 20
67.219268
 30
0.0
 10
218.797754
 20
66.169386
 30
0.0
 10
220.850982
 20
66.230468
 30
0.0
 10
222.354235
 20
67.371431
 30
0.0
  0
SPLINE
  5
1e5
100
AcDbEntity
  8
Calque_1
 62
1
100
AcDbSpline
 70
8
 71
3
 72
8
 73
4
 74
0
 40
0
 40
0
 40
0
 40
0
 40
1
 40
1
 40
1
 40
1
 10
222.354235
 20
67.371431
 30
0.0
 10
223.614077
 20
68.332872
 30
0.0
 10
224.762580
 20
69.433695
 30
0.0
 10
225.778698
 20
70.653857
 30
0.0
  0
SPLINE
  5
1e6
100
AcDbEntity
  8
Calque_1
 62
1
100
AcDbSpline
 70
8
 71
3
 72
8
 73
4
 74
0
 40
0
 40
0
 40
0
 40
0
 40
1
 40
1
 40
1
 40
1
 10
225.778698
 20
70.653857
 30
0.0
 10
225.566487
 20
65.790931
 30
0.0
 10
224.534926
 20
60.999993
 30
0.0
 10
222.728929
 20
56.486315
 30
0.0
  0
SPLINE
  5
1e7
100
AcDbEntity
  8
Calque_1
 62
1
100
AcDbSpline
 70
8
 71
3
 72
8
 73
4
 74
0
 40
0
 40
0
 40
0
 40
0
 40
1
 40
1
 40
1
 40
1
 10
222.728929
 20
56.486315
 30
0.0
 10
221.998621
 20
54.617966
 30
0.0
 10
222.594164
 20
52.488625
 30
0.0
 10
224.184808
 20
51.281034
 30
0.0
  0
SPLINE
  5
1e8
100
AcDbEntity
  8
Calque_1
 62
1
100
AcDbSpline
 70
8
 71
3
 72
8
 73
4
 74
0
 40
0
 40
0
 40
0
 40
0
 40
1
 40
1
 40
1
 40
1
 10
224.184808
 20
51.281034
 30
0.0
 10
224.951523
 20
50.679219
 30
0.0
 10
225.869964
 20
50.371274
 30
0.0
 10
226.791885
 20
50.359839
 30
0.0
  0
LINE
  5
1e9
100
AcDbEntity
  8
Calque_1
 62
1
100
AcDbLine
 10
226.791885
 20
50.359839
 30
0.0
 11
226.791885
 21
50.359839
 31
0.0
  0
SPLINE
  5
1ea
100
AcDbEntity
  8
Calque_1
 62
1
100
AcDbSpline
 70
8
 71
3
 72
8
 73
4
 74
0
 40
0
 40
0
 40
0
 40
0
 40
1
 40
1
 40
1
 40
1
 10
226.791885
 20
50.359839
 30
0.0
 10
227.713807
 20
50.348220
 30
0.0
 10
228.639419
 20
50.633375
 30
0.0
 10
229.420451
 20
51.216044
 30
0.0
  0
SPLINE
  5
1eb
100
AcDbEntity
  8
Calque_1
 62
1
100
AcDbSpline
 70
8
 71
3
 72
8
 73
4
 74
0
 40
0
 40
0
 40
0
 40
0
 40
1
 40
1
 40
1
 40
1
 10
229.420451
 20
51.216044
 30
0.0
 10
234.099313
 20
54.687155
 30
0.0
 10
239.381177
 20
62.060597
 30
0.0
 10
237.996227
 20
77.273980
 30
0.0
  0
SPLINE
  5
1ec
100
AcDbEntity
  8
Calque_1
 62
1
100
AcDbSpline
 70
8
 71
3
 72
8
 73
4
 74
0
 40
0
 40
0
 40
0
 40
0
 40
1
 40
1
 40
1
 40
1
 10
237.996227
 20
77.273980
 30
0.0
 10
237.996227
 20
77.883031
 30
0.0
 10
237.805007
 20
92.252383
 30
0.0
 10
221.142184
 20
99.458345
 30
0.0
  0
SPLINE
  5
1ed
100
AcDbEntity
  8
Calque_1
 62
1
100
AcDbSpline
 70
8
 71
3
 72
8
 73
4
 74
0
 40
0
 40
0
 40
0
 40
0
 40
1
 40
1
 40
1
 40
1
 10
221.142184
 20
99.458345
 30
0.0
 10
216.738244
 20
101.314361
 30
0.0
 10
212.170984
 20
102.746950
 30
0.0
 10
207.500471
 20
103.737281
 30
0.0
  0
SPLINE
  5
1ee
100
AcDbEntity
  8
Calque_1
 62
1
100
AcDbSpline
 70
8
 71
3
 72
8
 73
4
 74
0
 40
0
 40
0
 40
0
 40
0
 40
1
 40
1
 40
1
 40
1
 10
207.500471
 20
103.737281
 30
0.0
 10
199.629641
 20
105.065848
 30
0.0
 10
192.358150
 20
108.808884
 30
0.0
 10
186.671884
 20
114.453227
 30
0.0
  0
SPLINE
  5
1ef
100
AcDbEntity
  8
Calque_1
 62
1
100
AcDbSpline
 70
8
 71
3
 72
8
 73
4
 74
0
 40
0
 40
0
 40
0
 40
0
 40
1
 40
1
 40
1
 40
1
 10
186.671884
 20
114.453227
 30
0.0
 10
186.873758
 20
114.628629
 30
0.0
 10
187.074113
 20
114.806700
 30
0.0
 10
187.272531
 20
114.986011
 30
0.0
  0
SPLINE
  5
1f0
100
AcDbEntity
  8
Calque_1
 62
1
100
AcDbSpline
 70
8
 71
3
 72
8
 73
4
 74
0
 40
0
 40
0
 40
0
 40
0
 40
1
 40
1
 40
1
 40
1
 10
187.272531
 20
114.986011
 30
0.0
 10
188.330370
 20
115.559199
 30
0.0
 10
189.299089
 20
116.288064
 30
0.0
 10
190.142386
 20
117.154884
 30
0.0
  0
SPLINE
  5
1f1
100
AcDbEntity
  8
Calque_1
 62
1
100
AcDbSpline
 70
8
 71
3
 72
8
 73
4
 74
0
 40
0
 40
0
 40
0
 40
0
 40
1
 40
1
 40
1
 40
1
 10
190.142386
 20
117.154884
 30
0.0
 10
194.319301
 20
113.634944
 30
0.0
 10
203.558749
 20
107.248876
 30
0.0
 10
214.125043
 20
108.816225
 30
0.0
  0
SPLINE
  5
1f2
100
AcDbEntity
  8
Calque_1
 62
1
100
AcDbSpline
 70
8
 71
3
 72
8
 73
4
 74
0
 40
0
 40
0
 40
0
 40
0
 40
1
 40
1
 40
1
 40
1
 10
214.125043
 20
108.816225
 30
0.0
 10
215.217901
 20
108.976576
 30
0.0
 10
216.027723
 20
109.923519
 30
0.0
 10
216.025132
 20
111.037704
 30
0.0
  0
SPLINE
  5
1f3
100
AcDbEntity
  8
Calque_1
 62
1
100
AcDbSpline
 70
8
 71
3
 72
8
 73
4
 74
0
 40
0
 40
0
 40
0
 40
0
 40
1
 40
1
 40
1
 40
1
 10
216.025132
 20
111.037704
 30
0.0
 10
215.852442
 20
116.630921
 30
0.0
 10
213.546093
 20
121.940435
 30
0.0
 10
209.588196
 20
125.860801
 30
0.0
  0
SPLINE
  5
1f4
100
AcDbEntity
  8
Calque_1
 62
1
100
AcDbSpline
 70
8
 71
3
 72
8
 73
4
 74
0
 40
0
 40
0
 40
0
 40
0
 40
1
 40
1
 40
1
 40
1
 10
209.588196
 20
125.860801
 30
0.0
 10
206.244712
 20
128.765855
 30
0.0
 10
202.117055
 20
130.548113
 30
0.0
 10
197.775015
 20
131.005238
 30
0.0
  0
SPLINE
  5
1f5
100
AcDbEntity
  8
Calque_1
 62
1
100
AcDbSpline
 70
8
 71
3
 72
8
 73
4
 74
0
 40
0
 40
0
 40
0
 40
0
 40
1
 40
1
 40
1
 40
1
 10
197.775015
 20
131.005238
 30
0.0
 10
199.442242
 20
135.552692
 30
0.0
 10
200.304306
 20
140.359818
 30
0.0
 10
200.321789
 20
145.208378
 30
0.0
  0
SPLINE
  5
1f6
100
AcDbEntity
  8
Calque_1
 62
1
100
AcDbSpline
 70
8
 71
3
 72
8
 73
4
 74
0
 40
0
 40
0
 40
0
 40
0
 40
1
 40
1
 40
1
 40
1
 10
200.321789
 20
145.208378
 30
0.0
 10
200.301374
 20
166.217660
 30
0.0
 10
182.689096
 20
183.828743
 30
0.0
 10
162.089105
 20
186.259611
 30
0.0
  0
LINE
  5
1f7
100
AcDbEntity
  8
Calque_1
 62
1
100
AcDbLine
 10
162.089105
 20
186.259611
 30
0.0
 11
162.089105
 21
176.674805
 31
0.0
  0
LINE
  5
1f8
100
AcDbEntity
  8
Calque_1
 62
1
100
AcDbLine
 10
162.089105
 20
176.674805
 30
0.0
 11
159.189622
 21
176.674805
 31
0.0
  0
LINE
  5
1f9
100
AcDbEntity
  8
Calque_1
 62
1
100
AcDbLine
 10
159.189622
 20
176.674805
 30
0.0
 11
156.290113
 21
176.674805
 31
0.0
  0
LINE
  5
1fa
100
AcDbEntity
  8
Calque_1
 62
1
100
AcDbLine
 10
156.290113
 20
176.674805
 30
0.0
 11
156.290113
 21
186.259611
 31
0.0
  0
SPLINE
  5
1fb
100
AcDbEntity
  8
Calque_1
 62
1
100
AcDbSpline
 70
8
 71
3
 72
8
 73
4
 74
0
 40
0
 40
0
 40
0
 40
0
 40
1
 40
1
 40
1
 40
1
 10
156.290113
 20
186.259611
 30
0.0
 10
135.690122
 20
183.828743
 30
0.0
 10
118.077843
 20
166.217660
 30
0.0
 10
118.057455
 20
145.208378
 30
0.0
  0
SPLINE
  5
1fc
100
AcDbEntity
  8
Calque_1
 62
1
100
AcDbSpline
 70
8
 71
3
 72
8
 73
4
 74
0
 40
0
 40
0
 40
0
 40
0
 40
1
 40
1
 40
1
 40
1
 10
118.057455
 20
145.208378
 30
0.0
 10
118.074991
 20
140.359818
 30
0.0
 10
118.937002
 20
135.552692
 30
0.0
 10
120.604203
 20
131.005238
 30
0.0
  0
SPLINE
  5
1fd
100
AcDbEntity
  8
Calque_1
 62
1
100
AcDbSpline
 70
8
 71
3
 72
8
 73
4
 74
0
 40
0
 40
0
 40
0
 40
0
 40
1
 40
1
 40
1
 40
1
 10
120.604203
 20
131.005238
 30
0.0
 10
116.262189
 20
130.548113
 30
0.0
 10
112.134532
 20
128.765855
 30
0.0
 10
108.791048
 20
125.860801
 30
0.0
  0
SPLINE
  5
1fe
100
AcDbEntity
  8
Calque_1
 62
1
100
AcDbSpline
 70
8
 71
3
 72
8
 73
4
 74
0
 40
0
 40
0
 40
0
 40
0
 40
1
 40
1
 40
1
 40
1
 10
108.791048
 20
125.860801
 30
0.0
 10
104.833151
 20
121.940435
 30
0.0
 10
102.526776
 20
116.630921
 30
0.0
 10
102.354086
 20
111.037704
 30
0.0
  0
SPLINE
  5
1ff
100
AcDbEntity
  8
Calque_1
 62
1
100
AcDbSpline
 70
8
 71
3
 72
8
 73
4
 74
0
 40
0
 40
0
 40
0
 40
0
 40
1
 40
1
 40
1
 40
1
 10
102.354086
 20
111.037704
 30
0.0
 10
102.351469
 20
109.923519
 30
0.0
 10
103.161343
 20
108.976576
 30
0.0
 10
104.254201
 20
108.816225
 30
0.0
  0
SPLINE
  5
200
100
AcDbEntity
  8
Calque_1
 62
1
100
AcDbSpline
 70
8
 71
3
 72
8
 73
4
 74
0
 40
0
 40
0
 40
0
 40
0
 40
1
 40
1
 40
1
 40
1
 10
104.254201
 20
108.816225
 30
0.0
 10
114.820469
 20
107.248876
 30
0.0
 10
124.059917
 20
113.634971
 30
0.0
 10
128.236857
 20
117.154884
 30
0.0
  0
SPLINE
  5
201
100
AcDbEntity
  8
Calque_1
 62
1
100
AcDbSpline
 70
8
 71
3
 72
8
 73
4
 74
0
 40
0
 40
0
 40
0
 40
0
 40
1
 40
1
 40
1
 40
1
 10
128.236857
 20
117.154884
 30
0.0
 10
129.080129
 20
116.288090
 30
0.0
 10
130.048848
 20
115.559226
 30
0.0
 10
131.106687
 20
114.986011
 30
0.0
  0
SPLINE
  5
202
100
AcDbEntity
  8
Calque_1
 62
1
100
AcDbSpline
 70
8
 71
3
 72
8
 73
4
 74
0
 40
0
 40
0
 40
0
 40
0
 40
1
 40
1
 40
1
 40
1
 10
131.106687
 20
114.986011
 30
0.0
 10
131.305105
 20
114.806726
 30
0.0
 10
131.505460
 20
114.628629
 30
0.0
 10
131.707333
 20
114.453227
 30
0.0
  0
SPLINE
  5
203
100
AcDbEntity
  8
Calque_1
 62
1
100
AcDbSpline
 70
8
 71
3
 72
8
 73
4
 74
0
 40
0
 40
0
 40
0
 40
0
 40
1
 40
1
 40
1
 40
1
 10
131.707333
 20
114.453227
 30
0.0
 10
126.021068
 20
108.808858
 30
0.0
 10
118.749576
 20
105.065848
 30
0.0
 10
110.878746
 20
103.737281
 30
0.0
  0
SPLINE
  5
204
100
AcDbEntity
  8
Calque_1
 62
1
100
AcDbSpline
 70
8
 71
3
 72
8
 73
4
 74
0
 40
0
 40
0
 40
0
 40
0
 40
1
 40
1
 40
1
 40
1
 10
110.878746
 20
103.737281
 30
0.0
 10
106.208233
 20
102.746950
 30
0.0
 10
101.640973
 20
101.314361
 30
0.0
 10
97.237034
 20
99.458345
 30
0.0
  0
SPLINE
  5
205
100
AcDbEntity
  8
Calque_1
 62
1
100
AcDbSpline
 70
8
 71
3
 72
8
 73
4
 74
0
 40
0
 40
0
 40
0
 40
0
 40
1
 40
1
 40
1
 40
1
 10
97.237034
 20
99.458345
 30
0.0
 10
80.574211
 20
92.252383
 30
0.0
 10
80.382990
 20
77.883031
 30
0.0
 10
80.382990
 20
77.273980
 30
0.0
  0
SPLINE
  5
206
100
AcDbEntity
  8
Calque_1
 62
1
100
AcDbSpline
 70
8
 71
3
 72
8
 73
4
 74
0
 40
0
 40
0
 40
0
 40
0
 40
1
 40
1
 40
1
 40
1
 10
80.382990
 20
77.273980
 30
0.0
 10
78.998040
 20
62.060597
 30
0.0
 10
84.279905
 20
54.687155
 30
0.0
 10
88.958767
 20
51.216044
 30
0.0
  0
SPLINE
  5
207
100
AcDbEntity
  8
Calque_1
 62
1
100
AcDbSpline
 70
8
 71
3
 72
8
 73
4
 74
0
 40
0
 40
0
 40
0
 40
0
 40
1
 40
1
 40
1
 40
1
 10
88.958767
 20
51.216044
 30
0.0
 10
89.739799
 20
50.633375
 30
0.0
 10
90.665411
 20
50.348246
 30
0.0
 10
91.587332
 20
50.359839
 30
0.0
  0
LINE
  5
208
100
AcDbEntity
  8
Calque_1
 62
1
100
AcDbLine
 10
91.587332
 20
50.359839
 30
0.0
 11
91.587332
 21
50.359311
 31
0.0
  0
SPLINE
  5
209
100
AcDbEntity
  8
Calque_1
 62
1
100
AcDbSpline
 70
8
 71
3
 72
8
 73
4
 74
0
 40
0
 40
0
 40
0
 40
0
 40
1
 40
1
 40
1
 40
1
 10
141.344287
 20
146.451900
 30
0.0
 10
141.344296
 20
156.423833
 30
0.0
 10
149.356159
 20
164.507676
 30
0.0
 10
159.239290
 20
164.507675
 30
0.0
  0
SPLINE
  5
20a
100
AcDbEntity
  8
Calque_1
 62
1
100
AcDbSpline
 70
8
 71
3
 72
8
 73
4
 74
0
 40
0
 40
0
 40
0
 40
0
 40
1
 40
1
 40
1
 40
1
 10
159.239290
 20
164.507675
 30
0.0
 10
169.122419
 20
164.507674
 30
0.0
 10
177.134280
 20
156.423831
 30
0.0
 10
177.134289
 20
146.451900
 30
0.0
  0
SPLINE
  5
20b
100
AcDbEntity
  8
Calque_1
 62
1
100
AcDbSpline
 70
8
 71
3
 72
8
 73
4
 74
0
 40
0
 40
0
 40
0
 40
0
 40
1
 40
1
 40
1
 40
1
 10
177.134289
 20
146.451900
 30
0.0
 10
177.134293
 20
141.663204
 30
0.0
 10
175.248934
 20
137.070640
 30
0.0
 10
171.892970
 20
133.684519
 30
0.0
  0
SPLINE
  5
20c
100
AcDbEntity
  8
Calque_1
 62
1
100
AcDbSpline
 70
8
 71
3
 72
8
 73
4
 74
0
 40
0
 40
0
 40
0
 40
0
 40
1
 40
1
 40
1
 40
1
 10
171.892970
 20
133.684519
 30
0.0
 10
168.537006
 20
130.298398
 30
0.0
 10
163.985341
 20
128.396095
 30
0.0
 10
159.239290
 20
128.396095
 30
0.0
  0
SPLINE
  5
20d
100
AcDbEntity
  8
Calque_1
 62
1
100
AcDbSpline
 70
8
 71
3
 72
8
 73
4
 74
0
 40
0
 40
0
 40
0
 40
0
 40
1
 40
1
 40
1
 40
1
 10
159.239290
 20
128.396095
 30
0.0
 10
154.493238
 20
128.396094
 30
0.0
 10
149.941572
 20
130.298397
 30
0.0
 10
146.585607
 20
133.684518
 30
0.0
  0
SPLINE
  5
20e
100
AcDbEntity
  8
Calque_1
 62
1
100
AcDbSpline
 70
8
 71
3
 72
8
 73
4
 74
0
 40
0
 40
0
 40
0
 40
0
 40
1
 40
1
 40
1
 40
1
 10
146.585607
 20
133.684518
 30
0.0
 10
143.229643
 20
137.070639
 30
0.0
 10
141.344283
 20
141.663204
 30
0.0
 10
141.344287
 20
146.451900
 30
0.0
  0
LINE
  5
20f
100
AcDbEntity
  8
Calque_1
 62
1
100
AcDbLine
 10
141.344287
 20
146.451900
 30
0.0
 11
141.344287
 21
146.451900
 31
0.0
  0
LINE
  5
210
100
AcDbEntity
  8
Calque_1
 62
1
100
AcDbLine
 10
157.881110
 20
356.144590
 30
0.0
 11
178.517430
 21
398.315810
 31
0.0
  0
SPLINE
  5
211
100
AcDbEntity
  8
Calque_1
 62
1
100
AcDbSpline
 70
8
 71
3
 72
8
 73
4
 74
0
 40
0
 40
0
 40
0
 40
0
 40
1
 40
1
 40
1
 40
1
 10
178.517430
 20
398.315810
 30
0.0
 10
178.517430
 20
398.315810
 30
0.0
 10
186.066550
 20
411.458230
 30
0.0
 10
192.073780
 20
415.620330
 30
0.0
  0
SPLINE
  5
212
100
AcDbEntity
  8
Calque_1
 62
1
100
AcDbSpline
 70
8
 71
3
 72
8
 73
4
 74
0
 40
0
 40
0
 40
0
 40
0
 40
1
 40
1
 40
1
 40
1
 10
192.073780
 20
415.620330
 30
0.0
 10
198.432400
 20
421.419010
 30
0.0
 10
207.330250
 20
422.583190
 30
0.0
 10
216.172190
 20
423.130160
 30
0.0
  0
LINE
  5
213
100
AcDbEntity
  8
Calque_1
 62
1
100
AcDbLine
 10
216.172190
 20
423.130160
 30
0.0
 11
216.172190
 21
413.363320
 31
0.0
  0
LINE
  5
214
100
AcDbEntity
  8
Calque_1
 62
1
100
AcDbLine
 10
216.172190
 20
413.363320
 30
0.0
 11
221.909640
 21
413.363320
 31
0.0
  0
LINE
  5
215
100
AcDbEntity
  8
Calque_1
 62
1
100
AcDbLine
 10
221.909640
 20
413.363320
 30
0.0
 11
221.909640
 21
423.130160
 31
0.0
  0
LINE
  5
216
100
AcDbEntity
  8
Calque_1
 62
1
100
AcDbLine
 10
221.909640
 20
423.130160
 30
0.0
 11
384.114810
 21
423.130160
 31
0.0
  0
LINE
  5
217
100
AcDbEntity
  8
Calque_1
 62
1
100
AcDbLine
 10
384.114810
 20
423.130160
 30
0.0
 11
384.114810
 21
413.363320
 31
0.0
  0
LINE
  5
218
100
AcDbEntity
  8
Calque_1
 62
1
100
AcDbLine
 10
384.114810
 20
413.363320
 30
0.0
 11
389.852190
 21
413.363320
 31
0.0
  0
LINE
  5
219
100
AcDbEntity
  8
Calque_1
 62
1
100
AcDbLine
 10
389.852190
 20
413.363320
 30
0.0
 11
389.852190
 21
423.130160
 31
0.0
  0
SPLINE
  5
21a
100
AcDbEntity
  8
Calque_1
 62
1
100
AcDbSpline
 70
8
 71
3
 72
8
 73
4
 74
0
 40
0
 40
0
 40
0
 40
0
 40
1
 40
1
 40
1
 40
1
 10
389.852190
 20
423.130160
 30
0.0
 10
389.852190
 20
423.130160
 30
0.0
 10
401.540610
 20
422.972260
 30
0.0
 10
416.578980
 20
422.469410
 30
0.0
  0
SPLINE
  5
21b
100
AcDbEntity
  8
Calque_1
 62
1
100
AcDbSpline
 70
8
 71
3
 72
8
 73
4
 74
0
 40
0
 40
0
 40
0
 40
0
 40
1
 40
1
 40
1
 40
1
 10
416.578980
 20
422.469410
 30
0.0
 10
424.489770
 20
422.204910
 30
0.0
 10
435.359710
 20
419.091730
 30
0.0
 10
447.524050
 20
415.140140
 30
0.0
  0
SPLINE
  5
21c
100
AcDbEntity
  8
Calque_1
 62
1
100
AcDbSpline
 70
8
 71
3
 72
8
 73
4
 74
0
 40
0
 40
0
 40
0
 40
0
 40
1
 40
1
 40
1
 40
1
 10
447.524050
 20
415.140140
 30
0.0
 10
462.011570
 20
410.433890
 30
0.0
 10
467.393720
 20
404.721540
 30
0.0
 10
467.945210
 20
403.752090
 30
0.0
  0
SPLINE
  5
21d
100
AcDbEntity
  8
Calque_1
 62
1
100
AcDbSpline
 70
8
 71
3
 72
8
 73
4
 74
0
 40
0
 40
0
 40
0
 40
0
 40
1
 40
1
 40
1
 40
1
 10
467.945210
 20
403.752090
 30
0.0
 10
469.683168
 20
400.697100
 30
0.0
 10
469.244449
 20
390.057520
 30
0.0
 10
469.244449
 20
390.057520
 30
0.0
  0
LINE
  5
21e
100
AcDbEntity
  8
Calque_1
 62
1
100
AcDbLine
 10
469.244449
 20
390.057520
 30
0.0
 11
456.577290
 21
390.057520
 31
0.0
  0
LINE
  5
21f
100
AcDbEntity
  8
Calque_1
 62
1
100
AcDbLine
 10
456.577290
 20
390.057520
 30
0.0
 11
456.577290
 21
399.885840
 31
0.0
  0
LINE
  5
220
100
AcDbEntity
  8
Calque_1
 62
1
100
AcDbLine
 10
456.577290
 20
399.885840
 30
0.0
 11
450.840110
 21
399.885840
 31
0.0
  0
LINE
  5
221
100
AcDbEntity
  8
Calque_1
 62
1
100
AcDbLine
 10
450.840110
 20
399.885840
 30
0.0
 11
450.840110
 21
390.057520
 31
0.0
  0
LINE
  5
222
100
AcDbEntity
  8
Calque_1
 62
1
100
AcDbLine
 10
450.840110
 20
390.057520
 30
0.0
 11
439.013200
 21
390.057520
 31
0.0
  0
SPLINE
  5
223
100
AcDbEntity
  8
Calque_1
 62
1
100
AcDbSpline
 70
8
 71
3
 72
8
 73
4
 74
0
 40
0
 40
0
 40
0
 40
0
 40
1
 40
1
 40
1
 40
1
 10
439.013200
 20
390.057520
 30
0.0
 10
431.121890
 20
390.057520
 30
0.0
 10
436.528570
 20
389.004070
 30
0.0
 10
430.688910
 20
393.054830
 30
0.0
  0
SPLINE
  5
224
100
AcDbEntity
  8
Calque_1
 62
1
100
AcDbSpline
 70
8
 71
3
 72
8
 73
4
 74
0
 40
0
 40
0
 40
0
 40
0
 40
1
 40
1
 40
1
 40
1
 10
430.688910
 20
393.054830
 30
0.0
 10
426.708000
 20
397.131580
 30
0.0
 10
420.074990
 20
406.020950
 30
0.0
 10
406.587020
 20
406.834810
 30
0.0
  0
SPLINE
  5
225
100
AcDbEntity
  8
Calque_1
 62
1
100
AcDbSpline
 70
8
 71
3
 72
8
 73
4
 74
0
 40
0
 40
0
 40
0
 40
0
 40
1
 40
1
 40
1
 40
1
 10
406.587020
 20
406.834810
 30
0.0
 10
396.037480
 20
407.686390
 30
0.0
 10
390.058640
 20
408.250410
 30
0.0
 10
389.852290
 20
407.947400
 30
0.0
  0
LINE
  5
226
100
AcDbEntity
  8
Calque_1
 62
1
100
AcDbLine
 10
389.852290
 20
407.947400
 30
0.0
 11
205.250290
 21
408.042300
 31
0.0
  0
SPLINE
  5
227
100
AcDbEntity
  8
Calque_1
 62
1
100
AcDbSpline
 70
8
 71
3
 72
8
 73
4
 74
0
 40
0
 40
0
 40
0
 40
0
 40
1
 40
1
 40
1
 40
1
 10
205.250290
 20
408.042300
 30
0.0
 10
205.250290
 20
408.042300
 30
0.0
 10
196.748350
 20
396.777320
 30
0.0
 10
185.686990
 20
382.577710
 30
0.0
  0
SPLINE
  5
228
100
AcDbEntity
  8
Calque_1
 62
1
100
AcDbSpline
 70
8
 71
3
 72
8
 73
4
 74
0
 40
0
 40
0
 40
0
 40
0
 40
1
 40
1
 40
1
 40
1
 10
185.686990
 20
382.577710
 30
0.0
 10
177.693000
 20
370.764570
 30
0.0
 10
155.035220
 20
350.329010
 30
0.0
 10
157.881110
 20
356.144660
 30
0.0
  0
LINE
  5
229
100
AcDbEntity
  8
Calque_1
 62
1
100
AcDbLine
 10
157.881110
 20
356.144660
 30
0.0
 11
157.881110
 21
356.144590
 31
0.0
  0
LINE
  5
22a
100
AcDbEntity
  8
Calque_1
 62
7
100
AcDbLine
 10
377.272700
 20
361.895150
 30
0.0
 11
377.272700
 21
358.029750
 31
0.0
  0
LINE
  5
22b
100
AcDbEntity
  8
Calque_1
 62
7
100
AcDbLine
 10
377.272700
 20
358.029750
 30
0.0
 11
379.022800
 21
358.029750
 31
0.0
  0
SPLINE
  5
22c
100
AcDbEntity
  8
Calque_1
 62
7
100
AcDbSpline
 70
8
 71
3
 72
8
 73
4
 74
0
 40
0
 40
0
 40
0
 40
0
 40
1
 40
1
 40
1
 40
1
 10
379.022800
 20
358.029750
 30
0.0
 10
379.670480
 20
358.029750
 30
0.0
 10
380.171170
 20
358.197410
 30
0.0
 10
380.524870
 20
358.532730
 30
0.0
  0
SPLINE
  5
22d
100
AcDbEntity
  8
Calque_1
 62
7
100
AcDbSpline
 70
8
 71
3
 72
8
 73
4
 74
0
 40
0
 40
0
 40
0
 40
0
 40
1
 40
1
 40
1
 40
1
 10
380.524870
 20
358.532730
 30
0.0
 10
380.878563
 20
358.868057
 30
0.0
 10
381.055410
 20
359.345777
 30
0.0
 10
381.055410
 20
359.965890
 30
0.0
  0
SPLINE
  5
22e
100
AcDbEntity
  8
Calque_1
 62
7
100
AcDbSpline
 70
8
 71
3
 72
8
 73
4
 74
0
 40
0
 40
0
 40
0
 40
0
 40
1
 40
1
 40
1
 40
1
 10
381.055410
 20
359.965890
 30
0.0
 10
381.055410
 20
360.581417
 30
0.0
 10
380.878563
 20
361.056840
 30
0.0
 10
380.524870
 20
361.392160
 30
0.0
  0
SPLINE
  5
22f
100
AcDbEntity
  8
Calque_1
 62
7
100
AcDbSpline
 70
8
 71
3
 72
8
 73
4
 74
0
 40
0
 40
0
 40
0
 40
0
 40
1
 40
1
 40
1
 40
1
 10
380.524870
 20
361.392160
 30
0.0
 10
380.171170
 20
361.727487
 30
0.0
 10
379.670480
 20
361.895150
 30
0.0
 10
379.022800
 20
361.895150
 30
0.0
  0
LINE
  5
230
100
AcDbEntity
  8
Calque_1
 62
7
100
AcDbLine
 10
379.022800
 20
361.895150
 30
0.0
 11
377.272700
 21
361.895150
 31
0.0
  0
LINE
  5
231
100
AcDbEntity
  8
Calque_1
 62
7
100
AcDbLine
 10
375.880880
 20
363.038920
 30
0.0
 11
379.022800
 21
363.038920
 31
0.0
  0
SPLINE
  5
232
100
AcDbEntity
  8
Calque_1
 62
7
100
AcDbSpline
 70
8
 71
3
 72
8
 73
4
 74
0
 40
0
 40
0
 40
0
 40
0
 40
1
 40
1
 40
1
 40
1
 10
379.022800
 20
363.038920
 30
0.0
 10
380.175760
 20
363.038920
 30
0.0
 10
381.046223
 20
362.777093
 30
0.0
 10
381.634190
 20
362.253440
 30
0.0
  0
SPLINE
  5
233
100
AcDbEntity
  8
Calque_1
 62
7
100
AcDbSpline
 70
8
 71
3
 72
8
 73
4
 74
0
 40
0
 40
0
 40
0
 40
0
 40
1
 40
1
 40
1
 40
1
 10
381.634190
 20
362.253440
 30
0.0
 10
382.226743
 20
361.734373
 30
0.0
 10
382.523020
 20
360.971857
 30
0.0
 10
382.523020
 20
359.965890
 30
0.0
  0
SPLINE
  5
234
100
AcDbEntity
  8
Calque_1
 62
7
100
AcDbSpline
 70
8
 71
3
 72
8
 73
4
 74
0
 40
0
 40
0
 40
0
 40
0
 40
1
 40
1
 40
1
 40
1
 10
382.523020
 20
359.965890
 30
0.0
 10
382.523020
 20
358.950737
 30
0.0
 10
382.226743
 20
358.183630
 30
0.0
 10
381.634190
 20
357.664570
 30
0.0
  0
SPLINE
  5
235
100
AcDbEntity
  8
Calque_1
 62
7
100
AcDbSpline
 70
8
 71
3
 72
8
 73
4
 74
0
 40
0
 40
0
 40
0
 40
0
 40
1
 40
1
 40
1
 40
1
 10
381.634190
 20
357.664570
 30
0.0
 10
381.046223
 20
357.145510
 30
0.0
 10
380.175760
 20
356.885980
 30
0.0
 10
379.022800
 20
356.885980
 30
0.0
  0
LINE
  5
236
100
AcDbEntity
  8
Calque_1
 62
7
100
AcDbLine
 10
379.022800
 20
356.885980
 30
0.0
 11
377.272700
 21
356.885980
 31
0.0
  0
LINE
  5
237
100
AcDbEntity
  8
Calque_1
 62
7
100
AcDbLine
 10
377.272700
 20
356.885980
 30
0.0
 11
377.272700
 21
352.751860
 31
0.0
  0
LINE
  5
238
100
AcDbEntity
  8
Calque_1
 62
7
100
AcDbLine
 10
377.272700
 20
352.751860
 30
0.0
 11
375.880880
 21
352.751860
 31
0.0
  0
LINE
  5
239
100
AcDbEntity
  8
Calque_1
 62
7
100
AcDbLine
 10
375.880880
 20
352.751860
 30
0.0
 11
375.880880
 21
363.038920
 31
0.0
  0
SPLINE
  5
23a
100
AcDbEntity
  8
Calque_1
 62
7
100
AcDbSpline
 70
8
 71
3
 72
8
 73
4
 74
0
 40
0
 40
0
 40
0
 40
0
 40
1
 40
1
 40
1
 40
1
 10
386.836280
 20
359.580040
 30
0.0
 10
386.156447
 20
359.580040
 30
0.0
 10
385.619013
 20
359.313620
 30
0.0
 10
385.223980
 20
358.780780
 30
0.0
  0
SPLINE
  5
23b
100
AcDbEntity
  8
Calque_1
 62
7
100
AcDbSpline
 70
8
 71
3
 72
8
 73
4
 74
0
 40
0
 40
0
 40
0
 40
0
 40
1
 40
1
 40
1
 40
1
 10
385.223980
 20
358.780780
 30
0.0
 10
384.828940
 20
358.252533
 30
0.0
 10
384.631420
 20
357.526767
 30
0.0
 10
384.631420
 20
356.603480
 30
0.0
  0
SPLINE
  5
23c
100
AcDbEntity
  8
Calque_1
 62
7
100
AcDbSpline
 70
8
 71
3
 72
8
 73
4
 74
0
 40
0
 40
0
 40
0
 40
0
 40
1
 40
1
 40
1
 40
1
 10
384.631420
 20
356.603480
 30
0.0
 10
384.631420
 20
355.680193
 30
0.0
 10
384.826643
 20
354.952130
 30
0.0
 10
385.217090
 20
354.419290
 30
0.0
  0
SPLINE
  5
23d
100
AcDbEntity
  8
Calque_1
 62
7
100
AcDbSpline
 70
8
 71
3
 72
8
 73
4
 74
0
 40
0
 40
0
 40
0
 40
0
 40
1
 40
1
 40
1
 40
1
 10
385.217090
 20
354.419290
 30
0.0
 10
385.612123
 20
353.891043
 30
0.0
 10
386.151853
 20
353.626920
 30
0.0
 10
386.836280
 20
353.626920
 30
0.0
  0
SPLINE
  5
23e
100
AcDbEntity
  8
Calque_1
 62
7
100
AcDbSpline
 70
8
 71
3
 72
8
 73
4
 74
0
 40
0
 40
0
 40
0
 40
0
 40
1
 40
1
 40
1
 40
1
 10
386.836280
 20
353.626920
 30
0.0
 10
387.511520
 20
353.626920
 30
0.0
 10
388.046657
 20
353.893340
 30
0.0
 10
388.441690
 20
354.426180
 30
0.0
  0
SPLINE
  5
23f
100
AcDbEntity
  8
Calque_1
 62
7
100
AcDbSpline
 70
8
 71
3
 72
8
 73
4
 74
0
 40
0
 40
0
 40
0
 40
0
 40
1
 40
1
 40
1
 40
1
 10
388.441690
 20
354.426180
 30
0.0
 10
388.836730
 20
354.959020
 30
0.0
 10
389.034250
 20
355.684787
 30
0.0
 10
389.034250
 20
356.603480
 30
0.0
  0
SPLINE
  5
240
100
AcDbEntity
  8
Calque_1
 62
7
100
AcDbSpline
 70
8
 71
3
 72
8
 73
4
 74
0
 40
0
 40
0
 40
0
 40
0
 40
1
 40
1
 40
1
 40
1
 10
389.034250
 20
356.603480
 30
0.0
 10
389.034250
 20
357.517580
 30
0.0
 10
388.836730
 20
358.241050
 30
0.0
 10
388.441690
 20
358.773890
 30
0.0
  0
SPLINE
  5
241
100
AcDbEntity
  8
Calque_1
 62
7
100
AcDbSpline
 70
8
 71
3
 72
8
 73
4
 74
0
 40
0
 40
0
 40
0
 40
0
 40
1
 40
1
 40
1
 40
1
 10
388.441690
 20
358.773890
 30
0.0
 10
388.046657
 20
359.311323
 30
0.0
 10
387.511520
 20
359.580040
 30
0.0
 10
386.836280
 20
359.580040
 30
0.0
  0
LINE
  5
242
100
AcDbEntity
  8
Calque_1
 62
7
100
AcDbLine
 10
386.836280
 20
359.580040
 30
0.0
 11
386.836280
 21
359.580040
 31
0.0
  0
SPLINE
  5
243
100
AcDbEntity
  8
Calque_1
 62
7
100
AcDbSpline
 70
8
 71
3
 72
8
 73
4
 74
0
 40
0
 40
0
 40
0
 40
0
 40
1
 40
1
 40
1
 40
1
 10
386.836280
 20
360.654910
 30
0.0
 10
387.938713
 20
360.654910
 30
0.0
 10
388.804580
 20
360.296620
 30
0.0
 10
389.433880
 20
359.580040
 30
0.0
  0
SPLINE
  5
244
100
AcDbEntity
  8
Calque_1
 62
7
100
AcDbSpline
 70
8
 71
3
 72
8
 73
4
 74
0
 40
0
 40
0
 40
0
 40
0
 40
1
 40
1
 40
1
 40
1
 10
389.433880
 20
359.580040
 30
0.0
 10
390.063187
 20
358.863460
 30
0.0
 10
390.377840
 20
357.871273
 30
0.0
 10
390.377840
 20
356.603480
 30
0.0
  0
SPLINE
  5
245
100
AcDbEntity
  8
Calque_1
 62
7
100
AcDbSpline
 70
8
 71
3
 72
8
 73
4
 74
0
 40
0
 40
0
 40
0
 40
0
 40
1
 40
1
 40
1
 40
1
 10
390.377840
 20
356.603480
 30
0.0
 10
390.377840
 20
355.340280
 30
0.0
 10
390.063187
 20
354.348093
 30
0.0
 10
389.433880
 20
353.626920
 30
0.0
  0
SPLINE
  5
246
100
AcDbEntity
  8
Calque_1
 62
7
100
AcDbSpline
 70
8
 71
3
 72
8
 73
4
 74
0
 40
0
 40
0
 40
0
 40
0
 40
1
 40
1
 40
1
 40
1
 10
389.433880
 20
353.626920
 30
0.0
 10
388.804580
 20
352.910340
 30
0.0
 10
387.938713
 20
352.552050
 30
0.0
 10
386.836280
 20
352.552050
 30
0.0
  0
SPLINE
  5
247
100
AcDbEntity
  8
Calque_1
 62
7
100
AcDbSpline
 70
8
 71
3
 72
8
 73
4
 74
0
 40
0
 40
0
 40
0
 40
0
 40
1
 40
1
 40
1
 40
1
 10
386.836280
 20
352.552050
 30
0.0
 10
385.729253
 20
352.552050
 30
0.0
 10
384.861090
 20
352.910340
 30
0.0
 10
384.231790
 20
353.626920
 30
0.0
  0
SPLINE
  5
248
100
AcDbEntity
  8
Calque_1
 62
7
100
AcDbSpline
 70
8
 71
3
 72
8
 73
4
 74
0
 40
0
 40
0
 40
0
 40
0
 40
1
 40
1
 40
1
 40
1
 10
384.231790
 20
353.626920
 30
0.0
 10
383.607077
 20
354.348093
 30
0.0
 10
383.294720
 20
355.340280
 30
0.0
 10
383.294720
 20
356.603480
 30
0.0
  0
SPLINE
  5
249
100
AcDbEntity
  8
Calque_1
 62
7
100
AcDbSpline
 70
8
 71
3
 72
8
 73
4
 74
0
 40
0
 40
0
 40
0
 40
0
 40
1
 40
1
 40
1
 40
1
 10
383.294720
 20
356.603480
 30
0.0
 10
383.294720
 20
357.871273
 30
0.0
 10
383.607077
 20
358.863460
 30
0.0
 10
384.231790
 20
359.580040
 30
0.0
  0
SPLINE
  5
24a
100
AcDbEntity
  8
Calque_1
 62
7
100
AcDbSpline
 70
8
 71
3
 72
8
 73
4
 74
0
 40
0
 40
0
 40
0
 40
0
 40
1
 40
1
 40
1
 40
1
 10
384.231790
 20
359.580040
 30
0.0
 10
384.861090
 20
360.296620
 30
0.0
 10
385.729253
 20
360.654910
 30
0.0
 10
386.836280
 20
360.654910
 30
0.0
  0
LINE
  5
24b
100
AcDbEntity
  8
Calque_1
 62
7
100
AcDbLine
 10
386.836280
 20
360.654910
 30
0.0
 11
386.836280
 21
360.654910
 31
0.0
  0
LINE
  5
24c
100
AcDbEntity
  8
Calque_1
 62
7
100
AcDbLine
 10
392.341540
 20
355.797330
 30
0.0
 11
392.341540
 21
360.468880
 31
0.0
  0
LINE
  5
24d
100
AcDbEntity
  8
Calque_1
 62
7
100
AcDbLine
 10
392.341540
 20
360.468880
 30
0.0
 11
393.609340
 21
360.468880
 31
0.0
  0
LINE
  5
24e
100
AcDbEntity
  8
Calque_1
 62
7
100
AcDbLine
 10
393.609340
 20
360.468880
 30
0.0
 11
393.609340
 21
355.845560
 31
0.0
  0
SPLINE
  5
24f
100
AcDbEntity
  8
Calque_1
 62
7
100
AcDbSpline
 70
8
 71
3
 72
8
 73
4
 74
0
 40
0
 40
0
 40
0
 40
0
 40
1
 40
1
 40
1
 40
1
 10
393.609340
 20
355.845560
 30
0.0
 10
393.609340
 20
355.115200
 30
0.0
 10
393.751737
 20
354.566280
 30
0.0
 10
394.036530
 20
354.198800
 30
0.0
  0
SPLINE
  5
250
100
AcDbEntity
  8
Calque_1
 62
7
100
AcDbSpline
 70
8
 71
3
 72
8
 73
4
 74
0
 40
0
 40
0
 40
0
 40
0
 40
1
 40
1
 40
1
 40
1
 10
394.036530
 20
354.198800
 30
0.0
 10
394.321323
 20
353.835920
 30
0.0
 10
394.748517
 20
353.654480
 30
0.0
 10
395.318110
 20
353.654480
 30
0.0
  0
SPLINE
  5
251
100
AcDbEntity
  8
Calque_1
 62
7
100
AcDbSpline
 70
8
 71
3
 72
8
 73
4
 74
0
 40
0
 40
0
 40
0
 40
0
 40
1
 40
1
 40
1
 40
1
 10
395.318110
 20
353.654480
 30
0.0
 10
396.002537
 20
353.654480
 30
0.0
 10
396.542267
 20
353.872670
 30
0.0
 10
396.937300
 20
354.309050
 30
0.0
  0
SPLINE
  5
252
100
AcDbEntity
  8
Calque_1
 62
7
100
AcDbSpline
 70
8
 71
3
 72
8
 73
4
 74
0
 40
0
 40
0
 40
0
 40
0
 40
1
 40
1
 40
1
 40
1
 10
396.937300
 20
354.309050
 30
0.0
 10
397.336933
 20
354.745423
 30
0.0
 10
397.536750
 20
355.340277
 30
0.0
 10
397.536750
 20
356.093610
 30
0.0
  0
LINE
  5
253
100
AcDbEntity
  8
Calque_1
 62
7
100
AcDbLine
 10
397.536750
 20
356.093610
 30
0.0
 11
397.536750
 21
360.468880
 31
0.0
  0
LINE
  5
254
100
AcDbEntity
  8
Calque_1
 62
7
100
AcDbLine
 10
397.536750
 20
360.468880
 30
0.0
 11
398.804540
 21
360.468880
 31
0.0
  0
LINE
  5
255
100
AcDbEntity
  8
Calque_1
 62
7
100
AcDbLine
 10
398.804540
 20
360.468880
 30
0.0
 11
398.804540
 21
352.751860
 31
0.0
  0
LINE
  5
256
100
AcDbEntity
  8
Calque_1
 62
7
100
AcDbLine
 10
398.804540
 20
352.751860
 30
0.0
 11
397.536750
 21
352.751860
 31
0.0
  0
LINE
  5
257
100
AcDbEntity
  8
Calque_1
 62
7
100
AcDbLine
 10
397.536750
 20
352.751860
 30
0.0
 11
397.536750
 21
353.936980
 31
0.0
  0
SPLINE
  5
258
100
AcDbEntity
  8
Calque_1
 62
7
100
AcDbSpline
 70
8
 71
3
 72
8
 73
4
 74
0
 40
0
 40
0
 40
0
 40
0
 40
1
 40
1
 40
1
 40
1
 10
397.536750
 20
353.936980
 30
0.0
 10
397.228990
 20
353.468447
 30
0.0
 10
396.870700
 20
353.119343
 30
0.0
 10
396.461880
 20
352.889670
 30
0.0
  0
SPLINE
  5
259
100
AcDbEntity
  8
Calque_1
 62
7
100
AcDbSpline
 70
8
 71
3
 72
8
 73
4
 74
0
 40
0
 40
0
 40
0
 40
0
 40
1
 40
1
 40
1
 40
1
 10
396.461880
 20
352.889670
 30
0.0
 10
396.057653
 20
352.664590
 30
0.0
 10
395.586823
 20
352.552050
 30
0.0
 10
395.049390
 20
352.552050
 30
0.0
  0
SPLINE
  5
25a
100
AcDbEntity
  8
Calque_1
 62
7
100
AcDbSpline
 70
8
 71
3
 72
8
 73
4
 74
0
 40
0
 40
0
 40
0
 40
0
 40
1
 40
1
 40
1
 40
1
 10
395.049390
 20
352.552050
 30
0.0
 10
394.162850
 20
352.552050
 30
0.0
 10
393.489907
 20
352.827657
 30
0.0
 10
393.030560
 20
353.378870
 30
0.0
  0
SPLINE
  5
25b
100
AcDbEntity
  8
Calque_1
 62
7
100
AcDbSpline
 70
8
 71
3
 72
8
 73
4
 74
0
 40
0
 40
0
 40
0
 40
0
 40
1
 40
1
 40
1
 40
1
 10
393.030560
 20
353.378870
 30
0.0
 10
392.571213
 20
353.930083
 30
0.0
 10
392.341540
 20
354.736237
 30
0.0
 10
392.341540
 20
355.797330
 30
0.0
  0
LINE
  5
25c
100
AcDbEntity
  8
Calque_1
 62
7
100
AcDbLine
 10
392.341540
 20
355.797330
 30
0.0
 11
392.341540
 21
355.797330
 31
0.0
  0
LINE
  5
25d
100
AcDbEntity
  8
Calque_1
 62
7
100
AcDbLine
 10
395.531700
 20
360.654910
 30
0.0
 11
395.531700
 21
360.654910
 31
0.0
  0
SPLINE
  5
25e
100
AcDbEntity
  8
Calque_1
 62
7
100
AcDbSpline
 70
8
 71
3
 72
8
 73
4
 74
0
 40
0
 40
0
 40
0
 40
0
 40
1
 40
1
 40
1
 40
1
 10
405.901440
 20
359.283760
 30
0.0
 10
405.759040
 20
359.366447
 30
0.0
 10
405.602863
 20
359.426163
 30
0.0
 10
405.432910
 20
359.462910
 30
0.0
  0
SPLINE
  5
25f
100
AcDbEntity
  8
Calque_1
 62
7
100
AcDbSpline
 70
8
 71
3
 72
8
 73
4
 74
0
 40
0
 40
0
 40
0
 40
0
 40
1
 40
1
 40
1
 40
1
 10
405.432910
 20
359.462910
 30
0.0
 10
405.267543
 20
359.504243
 30
0.0
 10
405.083803
 20
359.524910
 30
0.0
 10
404.881690
 20
359.524910
 30
0.0
  0
SPLINE
  5
260
100
AcDbEntity
  8
Calque_1
 62
7
100
AcDbSpline
 70
8
 71
3
 72
8
 73
4
 74
0
 40
0
 40
0
 40
0
 40
0
 40
1
 40
1
 40
1
 40
1
 10
404.881690
 20
359.524910
 30
0.0
 10
404.165110
 20
359.524910
 30
0.0
 10
403.613893
 20
359.290643
 30
0.0
 10
403.228040
 20
358.822110
 30
0.0
  0
SPLINE
  5
261
100
AcDbEntity
  8
Calque_1
 62
7
100
AcDbSpline
 70
8
 71
3
 72
8
 73
4
 74
0
 40
0
 40
0
 40
0
 40
0
 40
1
 40
1
 40
1
 40
1
 10
403.228040
 20
358.822110
 30
0.0
 10
402.846787
 20
358.358170
 30
0.0
 10
402.656160
 20
357.689823
 30
0.0
 10
402.656160
 20
356.817070
 30
0.0
  0
LINE
  5
262
100
AcDbEntity
  8
Calque_1
 62
7
100
AcDbLine
 10
402.656160
 20
356.817070
 30
0.0
 11
402.656160
 21
352.751850
 31
0.0
  0
LINE
  5
263
100
AcDbEntity
  8
Calque_1
 62
7
100
AcDbLine
 10
402.656160
 20
352.751850
 30
0.0
 11
401.381470
 21
352.751850
 31
0.0
  0
LINE
  5
264
100
AcDbEntity
  8
Calque_1
 62
7
100
AcDbLine
 10
401.381470
 20
352.751850
 30
0.0
 11
401.381470
 21
360.468870
 31
0.0
  0
LINE
  5
265
100
AcDbEntity
  8
Calque_1
 62
7
100
AcDbLine
 10
401.381470
 20
360.468870
 30
0.0
 11
402.656160
 21
360.468870
 31
0.0
  0
LINE
  5
266
100
AcDbEntity
  8
Calque_1
 62
7
100
AcDbLine
 10
402.656160
 20
360.468870
 30
0.0
 11
402.656160
 21
359.269970
 31
0.0
  0
SPLINE
  5
267
100
AcDbEntity
  8
Calque_1
 62
7
100
AcDbSpline
 70
8
 71
3
 72
8
 73
4
 74
0
 40
0
 40
0
 40
0
 40
0
 40
1
 40
1
 40
1
 40
1
 10
402.656160
 20
359.269970
 30
0.0
 10
402.922580
 20
359.738503
 30
0.0
 10
403.269387
 20
360.085310
 30
0.0
 10
403.696580
 20
360.310390
 30
0.0
  0
SPLINE
  5
268
100
AcDbEntity
  8
Calque_1
 62
7
100
AcDbSpline
 70
8
 71
3
 72
8
 73
4
 74
0
 40
0
 40
0
 40
0
 40
0
 40
1
 40
1
 40
1
 40
1
 10
403.696580
 20
360.310390
 30
0.0
 10
404.123773
 20
360.540063
 30
0.0
 10
404.642833
 20
360.654900
 30
0.0
 10
405.253760
 20
360.654900
 30
0.0
  0
SPLINE
  5
269
100
AcDbEntity
  8
Calque_1
 62
7
100
AcDbSpline
 70
8
 71
3
 72
8
 73
4
 74
0
 40
0
 40
0
 40
0
 40
0
 40
1
 40
1
 40
1
 40
1
 10
405.253760
 20
360.654900
 30
0.0
 10
405.341033
 20
360.654900
 30
0.0
 10
405.437497
 20
360.648000
 30
0.0
 10
405.543150
 20
360.634200
 30
0.0
  0
SPLINE
  5
26a
100
AcDbEntity
  8
Calque_1
 62
7
100
AcDbSpline
 70
8
 71
3
 72
8
 73
4
 74
0
 40
0
 40
0
 40
0
 40
0
 40
1
 40
1
 40
1
 40
1
 10
405.543150
 20
360.634200
 30
0.0
 10
405.648797
 20
360.625000
 30
0.0
 10
405.765930
 20
360.608933
 30
0.0
 10
405.894550
 20
360.586000
 30
0.0
  0
LINE
  5
26b
100
AcDbEntity
  8
Calque_1
 62
7
100
AcDbLine
 10
405.894550
 20
360.586000
 30
0.0
 11
405.901440
 21
359.283760
 31
0.0
  0
LINE
  5
26c
100
AcDbEntity
  8
Calque_1
 62
7
100
AcDbLine
 10
412.963880
 20
353.909420
 30
0.0
 11
412.963880
 21
349.816640
 31
0.0
  0
LINE
  5
26d
100
AcDbEntity
  8
Calque_1
 62
7
100
AcDbLine
 10
412.963880
 20
349.816640
 30
0.0
 11
411.689200
 21
349.816640
 31
0.0
  0
LINE
  5
26e
100
AcDbEntity
  8
Calque_1
 62
7
100
AcDbLine
 10
411.689200
 20
349.816640
 30
0.0
 11
411.689200
 21
360.468880
 31
0.0
  0
LINE
  5
26f
100
AcDbEntity
  8
Calque_1
 62
7
100
AcDbLine
 10
411.689200
 20
360.468880
 30
0.0
 11
412.963880
 21
360.468880
 31
0.0
  0
LINE
  5
270
100
AcDbEntity
  8
Calque_1
 62
7
100
AcDbLine
 10
412.963880
 20
360.468880
 30
0.0
 11
412.963880
 21
359.297540
 31
0.0
  0
SPLINE
  5
271
100
AcDbEntity
  8
Calque_1
 62
7
100
AcDbSpline
 70
8
 71
3
 72
8
 73
4
 74
0
 40
0
 40
0
 40
0
 40
0
 40
1
 40
1
 40
1
 40
1
 10
412.963880
 20
359.297540
 30
0.0
 10
413.230307
 20
359.756887
 30
0.0
 10
413.565630
 20
360.096803
 30
0.0
 10
413.969850
 20
360.317290
 30
0.0
  0
SPLINE
  5
272
100
AcDbEntity
  8
Calque_1
 62
7
100
AcDbSpline
 70
8
 71
3
 72
8
 73
4
 74
0
 40
0
 40
0
 40
0
 40
0
 40
1
 40
1
 40
1
 40
1
 10
413.969850
 20
360.317290
 30
0.0
 10
414.378670
 20
360.542370
 30
0.0
 10
414.865577
 20
360.654910
 30
0.0
 10
415.430570
 20
360.654910
 30
0.0
  0
SPLINE
  5
273
100
AcDbEntity
  8
Calque_1
 62
7
100
AcDbSpline
 70
8
 71
3
 72
8
 73
4
 74
0
 40
0
 40
0
 40
0
 40
0
 40
1
 40
1
 40
1
 40
1
 10
415.430570
 20
360.654910
 30
0.0
 10
416.367637
 20
360.654910
 30
0.0
 10
417.127857
 20
360.282840
 30
0.0
 10
417.711230
 20
359.538700
 30
0.0
  0
SPLINE
  5
274
100
AcDbEntity
  8
Calque_1
 62
7
100
AcDbSpline
 70
8
 71
3
 72
8
 73
4
 74
0
 40
0
 40
0
 40
0
 40
0
 40
1
 40
1
 40
1
 40
1
 10
417.711230
 20
359.538700
 30
0.0
 10
418.299190
 20
358.794560
 30
0.0
 10
418.593170
 20
357.816153
 30
0.0
 10
418.593170
 20
356.603480
 30
0.0
  0
SPLINE
  5
275
100
AcDbEntity
  8
Calque_1
 62
7
100
AcDbSpline
 70
8
 71
3
 72
8
 73
4
 74
0
 40
0
 40
0
 40
0
 40
0
 40
1
 40
1
 40
1
 40
1
 10
418.593170
 20
356.603480
 30
0.0
 10
418.593170
 20
355.390807
 30
0.0
 10
418.299190
 20
354.412400
 30
0.0
 10
417.711230
 20
353.668260
 30
0.0
  0
SPLINE
  5
276
100
AcDbEntity
  8
Calque_1
 62
7
100
AcDbSpline
 70
8
 71
3
 72
8
 73
4
 74
0
 40
0
 40
0
 40
0
 40
0
 40
1
 40
1
 40
1
 40
1
 10
417.711230
 20
353.668260
 30
0.0
 10
417.127857
 20
352.924120
 30
0.0
 10
416.367637
 20
352.552050
 30
0.0
 10
415.430570
 20
352.552050
 30
0.0
  0
SPLINE
  5
277
100
AcDbEntity
  8
Calque_1
 62
7
100
AcDbSpline
 70
8
 71
3
 72
8
 73
4
 74
0
 40
0
 40
0
 40
0
 40
0
 40
1
 40
1
 40
1
 40
1
 10
415.430570
 20
352.552050
 30
0.0
 10
414.865577
 20
352.552050
 30
0.0
 10
414.378670
 20
352.662293
 30
0.0
 10
413.969850
 20
352.882780
 30
0.0
  0
SPLINE
  5
278
100
AcDbEntity
  8
Calque_1
 62
7
100
AcDbSpline
 70
8
 71
3
 72
8
 73
4
 74
0
 40
0
 40
0
 40
0
 40
0
 40
1
 40
1
 40
1
 40
1
 10
413.969850
 20
352.882780
 30
0.0
 10
413.565630
 20
353.107860
 30
0.0
 10
413.230307
 20
353.450073
 30
0.0
 10
412.963880
 20
353.909420
 30
0.0
  0
LINE
  5
279
100
AcDbEntity
  8
Calque_1
 62
7
100
AcDbLine
 10
412.963880
 20
353.909420
 30
0.0
 11
412.963880
 21
353.909420
 31
0.0
  0
SPLINE
  5
27a
100
AcDbEntity
  8
Calque_1
 62
7
100
AcDbSpline
 70
8
 71
3
 72
8
 73
4
 74
0
 40
0
 40
0
 40
0
 40
0
 40
1
 40
1
 40
1
 40
1
 10
417.277140
 20
356.603480
 30
0.0
 10
417.277140
 20
357.535953
 30
0.0
 10
417.084217
 20
358.266313
 30
0.0
 10
416.698370
 20
358.794560
 30
0.0
  0
SPLINE
  5
27b
100
AcDbEntity
  8
Calque_1
 62
7
100
AcDbSpline
 70
8
 71
3
 72
8
 73
4
 74
0
 40
0
 40
0
 40
0
 40
0
 40
1
 40
1
 40
1
 40
1
 10
416.698370
 20
358.794560
 30
0.0
 10
416.317110
 20
359.327400
 30
0.0
 10
415.791157
 20
359.593820
 30
0.0
 10
415.120510
 20
359.593820
 30
0.0
  0
SPLINE
  5
27c
100
AcDbEntity
  8
Calque_1
 62
7
100
AcDbSpline
 70
8
 71
3
 72
8
 73
4
 74
0
 40
0
 40
0
 40
0
 40
0
 40
1
 40
1
 40
1
 40
1
 10
415.120510
 20
359.593820
 30
0.0
 10
414.449870
 20
359.593820
 30
0.0
 10
413.921623
 20
359.327400
 30
0.0
 10
413.535770
 20
358.794560
 30
0.0
  0
SPLINE
  5
27d
100
AcDbEntity
  8
Calque_1
 62
7
100
AcDbSpline
 70
8
 71
3
 72
8
 73
4
 74
0
 40
0
 40
0
 40
0
 40
0
 40
1
 40
1
 40
1
 40
1
 10
413.535770
 20
358.794560
 30
0.0
 10
413.154510
 20
358.266313
 30
0.0
 10
412.963880
 20
357.535953
 30
0.0
 10
412.963880
 20
356.603480
 30
0.0
  0
SPLINE
  5
27e
100
AcDbEntity
  8
Calque_1
 62
7
100
AcDbSpline
 70
8
 71
3
 72
8
 73
4
 74
0
 40
0
 40
0
 40
0
 40
0
 40
1
 40
1
 40
1
 40
1
 10
412.963880
 20
356.603480
 30
0.0
 10
412.963880
 20
355.671007
 30
0.0
 10
413.154510
 20
354.938350
 30
0.0
 10
413.535770
 20
354.405510
 30
0.0
  0
SPLINE
  5
27f
100
AcDbEntity
  8
Calque_1
 62
7
100
AcDbSpline
 70
8
 71
3
 72
8
 73
4
 74
0
 40
0
 40
0
 40
0
 40
0
 40
1
 40
1
 40
1
 40
1
 10
413.535770
 20
354.405510
 30
0.0
 10
413.921623
 20
353.877263
 30
0.0
 10
414.449870
 20
353.613140
 30
0.0
 10
415.120510
 20
353.613140
 30
0.0
  0
SPLINE
  5
280
100
AcDbEntity
  8
Calque_1
 62
7
100
AcDbSpline
 70
8
 71
3
 72
8
 73
4
 74
0
 40
0
 40
0
 40
0
 40
0
 40
1
 40
1
 40
1
 40
1
 10
415.120510
 20
353.613140
 30
0.0
 10
415.791157
 20
353.613140
 30
0.0
 10
416.317110
 20
353.877263
 30
0.0
 10
416.698370
 20
354.405510
 30
0.0
  0
SPLINE
  5
281
100
AcDbEntity
  8
Calque_1
 62
7
100
AcDbSpline
 70
8
 71
3
 72
8
 73
4
 74
0
 40
0
 40
0
 40
0
 40
0
 40
1
 40
1
 40
1
 40
1
 10
416.698370
 20
354.405510
 30
0.0
 10
417.084217
 20
354.938350
 30
0.0
 10
417.277140
 20
355.671007
 30
0.0
 10
417.277140
 20
356.603480
 30
0.0
  0
LINE
  5
282
100
AcDbEntity
  8
Calque_1
 62
7
100
AcDbLine
 10
417.277140
 20
356.603480
 30
0.0
 11
417.277140
 21
356.603480
 31
0.0
  0
LINE
  5
283
100
AcDbEntity
  8
Calque_1
 62
7
100
AcDbLine
 10
420.694680
 20
363.473000
 30
0.0
 11
421.962470
 21
363.473000
 31
0.0
  0
LINE
  5
284
100
AcDbEntity
  8
Calque_1
 62
7
100
AcDbLine
 10
421.962470
 20
363.473000
 30
0.0
 11
421.962470
 21
352.751860
 31
0.0
  0
LINE
  5
285
100
AcDbEntity
  8
Calque_1
 62
7
100
AcDbLine
 10
421.962470
 20
352.751860
 30
0.0
 11
420.694680
 21
352.751860
 31
0.0
  0
LINE
  5
286
100
AcDbEntity
  8
Calque_1
 62
7
100
AcDbLine
 10
420.694680
 20
352.751860
 30
0.0
 11
420.694680
 21
363.473000
 31
0.0
  0
SPLINE
  5
287
100
AcDbEntity
  8
Calque_1
 62
7
100
AcDbSpline
 70
8
 71
3
 72
8
 73
4
 74
0
 40
0
 40
0
 40
0
 40
0
 40
1
 40
1
 40
1
 40
1
 10
428.115410
 20
356.631040
 30
0.0
 10
427.091070
 20
356.631040
 30
0.0
 10
426.381383
 20
356.513907
 30
0.0
 10
425.986350
 20
356.279640
 30
0.0
  0
SPLINE
  5
288
100
AcDbEntity
  8
Calque_1
 62
7
100
AcDbSpline
 70
8
 71
3
 72
8
 73
4
 74
0
 40
0
 40
0
 40
0
 40
0
 40
1
 40
1
 40
1
 40
1
 10
425.986350
 20
356.279640
 30
0.0
 10
425.591310
 20
356.045373
 30
0.0
 10
425.393790
 20
355.645743
 30
0.0
 10
425.393790
 20
355.080750
 30
0.0
  0
SPLINE
  5
289
100
AcDbEntity
  8
Calque_1
 62
7
100
AcDbSpline
 70
8
 71
3
 72
8
 73
4
 74
0
 40
0
 40
0
 40
0
 40
0
 40
1
 40
1
 40
1
 40
1
 10
425.393790
 20
355.080750
 30
0.0
 10
425.393790
 20
354.630590
 30
0.0
 10
425.540780
 20
354.272300
 30
0.0
 10
425.834760
 20
354.005880
 30
0.0
  0
SPLINE
  5
28a
100
AcDbEntity
  8
Calque_1
 62
7
100
AcDbSpline
 70
8
 71
3
 72
8
 73
4
 74
0
 40
0
 40
0
 40
0
 40
0
 40
1
 40
1
 40
1
 40
1
 10
425.834760
 20
354.005880
 30
0.0
 10
426.133333
 20
353.744053
 30
0.0
 10
426.537557
 20
353.613140
 30
0.0
 10
427.047430
 20
353.613140
 30
0.0
  0
SPLINE
  5
28b
100
AcDbEntity
  8
Calque_1
 62
7
100
AcDbSpline
 70
8
 71
3
 72
8
 73
4
 74
0
 40
0
 40
0
 40
0
 40
0
 40
1
 40
1
 40
1
 40
1
 10
427.047430
 20
353.613140
 30
0.0
 10
427.750230
 20
353.613140
 30
0.0
 10
428.312930
 20
353.861187
 30
0.0
 10
428.735530
 20
354.357280
 30
0.0
  0
SPLINE
  5
28c
100
AcDbEntity
  8
Calque_1
 62
7
100
AcDbSpline
 70
8
 71
3
 72
8
 73
4
 74
0
 40
0
 40
0
 40
0
 40
0
 40
1
 40
1
 40
1
 40
1
 10
428.735530
 20
354.357280
 30
0.0
 10
429.162723
 20
354.857967
 30
0.0
 10
429.376320
 20
355.521720
 30
0.0
 10
429.376320
 20
356.348540
 30
0.0
  0
LINE
  5
28d
100
AcDbEntity
  8
Calque_1
 62
7
100
AcDbLine
 10
429.376320
 20
356.348540
 30
0.0
 11
429.376320
 21
356.631040
 31
0.0
  0
LINE
  5
28e
100
AcDbEntity
  8
Calque_1
 62
7
100
AcDbLine
 10
429.376320
 20
356.631040
 30
0.0
 11
428.115410
 21
356.631040
 31
0.0
  0
LINE
  5
28f
100
AcDbEntity
  8
Calque_1
 62
7
100
AcDbLine
 10
430.644110
 20
357.154700
 30
0.0
 11
430.644110
 21
352.751860
 31
0.0
  0
LINE
  5
290
100
AcDbEntity
  8
Calque_1
 62
7
100
AcDbLine
 10
430.644110
 20
352.751860
 30
0.0
 11
429.376320
 21
352.751860
 31
0.0
  0
LINE
  5
291
100
AcDbEntity
  8
Calque_1
 62
7
100
AcDbLine
 10
429.376320
 20
352.751860
 30
0.0
 11
429.376320
 21
353.923200
 31
0.0
  0
SPLINE
  5
292
100
AcDbEntity
  8
Calque_1
 62
7
100
AcDbSpline
 70
8
 71
3
 72
8
 73
4
 74
0
 40
0
 40
0
 40
0
 40
0
 40
1
 40
1
 40
1
 40
1
 10
429.376320
 20
353.923200
 30
0.0
 10
429.086933
 20
353.454667
 30
0.0
 10
428.726347
 20
353.107860
 30
0.0
 10
428.294560
 20
352.882780
 30
0.0
  0
SPLINE
  5
293
100
AcDbEntity
  8
Calque_1
 62
7
100
AcDbSpline
 70
8
 71
3
 72
8
 73
4
 74
0
 40
0
 40
0
 40
0
 40
0
 40
1
 40
1
 40
1
 40
1
 10
428.294560
 20
352.882780
 30
0.0
 10
427.862773
 20
352.662293
 30
0.0
 10
427.334527
 20
352.552050
 30
0.0
 10
426.709820
 20
352.552050
 30
0.0
  0
SPLINE
  5
294
100
AcDbEntity
  8
Calque_1
 62
7
100
AcDbSpline
 70
8
 71
3
 72
8
 73
4
 74
0
 40
0
 40
0
 40
0
 40
0
 40
1
 40
1
 40
1
 40
1
 10
426.709820
 20
352.552050
 30
0.0
 10
425.919740
 20
352.552050
 30
0.0
 10
425.290433
 20
352.772537
 30
0.0
 10
424.821900
 20
353.213510
 30
0.0
  0
SPLINE
  5
295
100
AcDbEntity
  8
Calque_1
 62
7
100
AcDbSpline
 70
8
 71
3
 72
8
 73
4
 74
0
 40
0
 40
0
 40
0
 40
0
 40
1
 40
1
 40
1
 40
1
 10
424.821900
 20
353.213510
 30
0.0
 10
424.357960
 20
353.659070
 30
0.0
 10
424.125990
 20
354.253923
 30
0.0
 10
424.125990
 20
354.998070
 30
0.0
  0
SPLINE
  5
296
100
AcDbEntity
  8
Calque_1
 62
7
100
AcDbSpline
 70
8
 71
3
 72
8
 73
4
 74
0
 40
0
 40
0
 40
0
 40
0
 40
1
 40
1
 40
1
 40
1
 10
424.125990
 20
354.998070
 30
0.0
 10
424.125990
 20
355.866230
 30
0.0
 10
424.415380
 20
356.520797
 30
0.0
 10
424.994160
 20
356.961770
 30
0.0
  0
SPLINE
  5
297
100
AcDbEntity
  8
Calque_1
 62
7
100
AcDbSpline
 70
8
 71
3
 72
8
 73
4
 74
0
 40
0
 40
0
 40
0
 40
0
 40
1
 40
1
 40
1
 40
1
 10
424.994160
 20
356.961770
 30
0.0
 10
425.577527
 20
357.402743
 30
0.0
 10
426.445690
 20
357.623230
 30
0.0
 10
427.598650
 20
357.623230
 30
0.0
  0
LINE
  5
298
100
AcDbEntity
  8
Calque_1
 62
7
100
AcDbLine
 10
427.598650
 20
357.623230
 30
0.0
 11
429.376320
 21
357.623230
 31
0.0
  0
LINE
  5
299
100
AcDbEntity
  8
Calque_1
 62
7
100
AcDbLine
 10
429.376320
 20
357.623230
 30
0.0
 11
429.376320
 21
357.747250
 31
0.0
  0
SPLINE
  5
29a
100
AcDbEntity
  8
Calque_1
 62
7
100
AcDbSpline
 70
8
 71
3
 72
8
 73
4
 74
0
 40
0
 40
0
 40
0
 40
0
 40
1
 40
1
 40
1
 40
1
 10
429.376320
 20
357.747250
 30
0.0
 10
429.376320
 20
358.330623
 30
0.0
 10
429.183393
 20
358.780783
 30
0.0
 10
428.797540
 20
359.097730
 30
0.0
  0
SPLINE
  5
29b
100
AcDbEntity
  8
Calque_1
 62
7
100
AcDbSpline
 70
8
 71
3
 72
8
 73
4
 74
0
 40
0
 40
0
 40
0
 40
0
 40
1
 40
1
 40
1
 40
1
 10
428.797540
 20
359.097730
 30
0.0
 10
428.416287
 20
359.419270
 30
0.0
 10
427.878853
 20
359.580040
 30
0.0
 10
427.185240
 20
359.580040
 30
0.0
  0
SPLINE
  5
29c
100
AcDbEntity
  8
Calque_1
 62
7
100
AcDbSpline
 70
8
 71
3
 72
8
 73
4
 74
0
 40
0
 40
0
 40
0
 40
0
 40
1
 40
1
 40
1
 40
1
 10
427.185240
 20
359.580040
 30
0.0
 10
426.744267
 20
359.580040
 30
0.0
 10
426.314777
 20
359.527217
 30
0.0
 10
425.896770
 20
359.421570
 30
0.0
  0
SPLINE
  5
29d
100
AcDbEntity
  8
Calque_1
 62
7
100
AcDbSpline
 70
8
 71
3
 72
8
 73
4
 74
0
 40
0
 40
0
 40
0
 40
0
 40
1
 40
1
 40
1
 40
1
 10
425.896770
 20
359.421570
 30
0.0
 10
425.478770
 20
359.315917
 30
0.0
 10
425.076843
 20
359.157440
 30
0.0
 10
424.690990
 20
358.946140
 30
0.0
  0
LINE
  5
29e
100
AcDbEntity
  8
Calque_1
 62
7
100
AcDbLine
 10
424.690990
 20
358.946140
 30
0.0
 11
424.690990
 21
360.117480
 31
0.0
  0
SPLINE
  5
29f
100
AcDbEntity
  8
Calque_1
 62
7
100
AcDbSpline
 70
8
 71
3
 72
8
 73
4
 74
0
 40
0
 40
0
 40
0
 40
0
 40
1
 40
1
 40
1
 40
1
 10
424.690990
 20
360.117480
 30
0.0
 10
425.154930
 20
360.296620
 30
0.0
 10
425.605090
 20
360.429830
 30
0.0
 10
426.041470
 20
360.517110
 30
0.0
  0
SPLINE
  5
2a0
100
AcDbEntity
  8
Calque_1
 62
7
100
AcDbSpline
 70
8
 71
3
 72
8
 73
4
 74
0
 40
0
 40
0
 40
0
 40
0
 40
1
 40
1
 40
1
 40
1
 10
426.041470
 20
360.517110
 30
0.0
 10
426.477843
 20
360.608977
 30
0.0
 10
426.902737
 20
360.654910
 30
0.0
 10
427.316150
 20
360.654910
 30
0.0
  0
SPLINE
  5
2a1
100
AcDbEntity
  8
Calque_1
 62
7
100
AcDbSpline
 70
8
 71
3
 72
8
 73
4
 74
0
 40
0
 40
0
 40
0
 40
0
 40
1
 40
1
 40
1
 40
1
 10
427.316150
 20
360.654910
 30
0.0
 10
428.432363
 20
360.654910
 30
0.0
 10
429.266077
 20
360.365523
 30
0.0
 10
429.817290
 20
359.786750
 30
0.0
  0
SPLINE
  5
2a2
100
AcDbEntity
  8
Calque_1
 62
7
100
AcDbSpline
 70
8
 71
3
 72
8
 73
4
 74
0
 40
0
 40
0
 40
0
 40
0
 40
1
 40
1
 40
1
 40
1
 10
429.817290
 20
359.786750
 30
0.0
 10
430.368503
 20
359.207970
 30
0.0
 10
430.644110
 20
358.330620
 30
0.0
 10
430.644110
 20
357.154700
 30
0.0
  0
LINE
  5
2a3
100
AcDbEntity
  8
Calque_1
 62
7
100
AcDbLine
 10
430.644110
 20
357.154700
 30
0.0
 11
430.644110
 21
357.154700
 31
0.0
  0
SPLINE
  5
2a4
100
AcDbEntity
  8
Calque_1
 62
7
100
AcDbSpline
 70
8
 71
3
 72
8
 73
4
 74
0
 40
0
 40
0
 40
0
 40
0
 40
1
 40
1
 40
1
 40
1
 10
434.020310
 20
356.603480
 30
0.0
 10
434.020310
 20
355.671007
 30
0.0
 10
434.210937
 20
354.938350
 30
0.0
 10
434.592190
 20
354.405510
 30
0.0
  0
SPLINE
  5
2a5
100
AcDbEntity
  8
Calque_1
 62
7
100
AcDbSpline
 70
8
 71
3
 72
8
 73
4
 74
0
 40
0
 40
0
 40
0
 40
0
 40
1
 40
1
 40
1
 40
1
 10
434.592190
 20
354.405510
 30
0.0
 10
434.978043
 20
353.877263
 30
0.0
 10
435.506293
 20
353.613140
 30
0.0
 10
436.176940
 20
353.613140
 30
0.0
  0
SPLINE
  5
2a6
100
AcDbEntity
  8
Calque_1
 62
7
100
AcDbSpline
 70
8
 71
3
 72
8
 73
4
 74
0
 40
0
 40
0
 40
0
 40
0
 40
1
 40
1
 40
1
 40
1
 10
436.176940
 20
353.613140
 30
0.0
 10
436.847580
 20
353.613140
 30
0.0
 10
437.375827
 20
353.877263
 30
0.0
 10
437.761680
 20
354.405510
 30
0.0
  0
SPLINE
  5
2a7
100
AcDbEntity
  8
Calque_1
 62
7
100
AcDbSpline
 70
8
 71
3
 72
8
 73
4
 74
0
 40
0
 40
0
 40
0
 40
0
 40
1
 40
1
 40
1
 40
1
 10
437.761680
 20
354.405510
 30
0.0
 10
438.147533
 20
354.938350
 30
0.0
 10
438.340460
 20
355.671007
 30
0.0
 10
438.340460
 20
356.603480
 30
0.0
  0
SPLINE
  5
2a8
100
AcDbEntity
  8
Calque_1
 62
7
100
AcDbSpline
 70
8
 71
3
 72
8
 73
4
 74
0
 40
0
 40
0
 40
0
 40
0
 40
1
 40
1
 40
1
 40
1
 10
438.340460
 20
356.603480
 30
0.0
 10
438.340460
 20
357.535953
 30
0.0
 10
438.147533
 20
358.266313
 30
0.0
 10
437.761680
 20
358.794560
 30
0.0
  0
SPLINE
  5
2a9
100
AcDbEntity
  8
Calque_1
 62
7
100
AcDbSpline
 70
8
 71
3
 72
8
 73
4
 74
0
 40
0
 40
0
 40
0
 40
0
 40
1
 40
1
 40
1
 40
1
 10
437.761680
 20
358.794560
 30
0.0
 10
437.375827
 20
359.327400
 30
0.0
 10
436.847580
 20
359.593820
 30
0.0
 10
436.176940
 20
359.593820
 30
0.0
  0
SPLINE
  5
2aa
100
AcDbEntity
  8
Calque_1
 62
7
100
AcDbSpline
 70
8
 71
3
 72
8
 73
4
 74
0
 40
0
 40
0
 40
0
 40
0
 40
1
 40
1
 40
1
 40
1
 10
436.176940
 20
359.593820
 30
0.0
 10
435.506293
 20
359.593820
 30
0.0
 10
434.978043
 20
359.327400
 30
0.0
 10
434.592190
 20
358.794560
 30
0.0
  0
SPLINE
  5
2ab
100
AcDbEntity
  8
Calque_1
 62
7
100
AcDbSpline
 70
8
 71
3
 72
8
 73
4
 74
0
 40
0
 40
0
 40
0
 40
0
 40
1
 40
1
 40
1
 40
1
 10
434.592190
 20
358.794560
 30
0.0
 10
434.210937
 20
358.266313
 30
0.0
 10
434.020310
 20
357.535953
 30
0.0
 10
434.020310
 20
356.603480
 30
0.0
  0
LINE
  5
2ac
100
AcDbEntity
  8
Calque_1
 62
7
100
AcDbLine
 10
434.020310
 20
356.603480
 30
0.0
 11
434.020310
 21
356.603480
 31
0.0
  0
SPLINE
  5
2ad
100
AcDbEntity
  8
Calque_1
 62
7
100
AcDbSpline
 70
8
 71
3
 72
8
 73
4
 74
0
 40
0
 40
0
 40
0
 40
0
 40
1
 40
1
 40
1
 40
1
 10
438.340460
 20
353.909420
 30
0.0
 10
438.074040
 20
353.450073
 30
0.0
 10
437.736420
 20
353.107860
 30
0.0
 10
437.327600
 20
352.882780
 30
0.0
  0
SPLINE
  5
2ae
100
AcDbEntity
  8
Calque_1
 62
7
100
AcDbSpline
 70
8
 71
3
 72
8
 73
4
 74
0
 40
0
 40
0
 40
0
 40
0
 40
1
 40
1
 40
1
 40
1
 10
437.327600
 20
352.882780
 30
0.0
 10
436.923373
 20
352.662293
 30
0.0
 10
436.436467
 20
352.552050
 30
0.0
 10
435.866880
 20
352.552050
 30
0.0
  0
SPLINE
  5
2af
100
AcDbEntity
  8
Calque_1
 62
7
100
AcDbSpline
 70
8
 71
3
 72
8
 73
4
 74
0
 40
0
 40
0
 40
0
 40
0
 40
1
 40
1
 40
1
 40
1
 10
435.866880
 20
352.552050
 30
0.0
 10
434.934407
 20
352.552050
 30
0.0
 10
434.174190
 20
352.924120
 30
0.0
 10
433.586230
 20
353.668260
 30
0.0
  0
SPLINE
  5
2b0
100
AcDbEntity
  8
Calque_1
 62
7
100
AcDbSpline
 70
8
 71
3
 72
8
 73
4
 74
0
 40
0
 40
0
 40
0
 40
0
 40
1
 40
1
 40
1
 40
1
 10
433.586230
 20
353.668260
 30
0.0
 10
433.002857
 20
354.412400
 30
0.0
 10
432.711170
 20
355.390807
 30
0.0
 10
432.711170
 20
356.603480
 30
0.0
  0
SPLINE
  5
2b1
100
AcDbEntity
  8
Calque_1
 62
7
100
AcDbSpline
 70
8
 71
3
 72
8
 73
4
 74
0
 40
0
 40
0
 40
0
 40
0
 40
1
 40
1
 40
1
 40
1
 10
432.711170
 20
356.603480
 30
0.0
 10
432.711170
 20
357.816153
 30
0.0
 10
433.002857
 20
358.794560
 30
0.0
 10
433.586230
 20
359.538700
 30
0.0
  0
SPLINE
  5
2b2
100
AcDbEntity
  8
Calque_1
 62
7
100
AcDbSpline
 70
8
 71
3
 72
8
 73
4
 74
0
 40
0
 40
0
 40
0
 40
0
 40
1
 40
1
 40
1
 40
1
 10
433.586230
 20
359.538700
 30
0.0
 10
434.174190
 20
360.282840
 30
0.0
 10
434.934407
 20
360.654910
 30
0.0
 10
435.866880
 20
360.654910
 30
0.0
  0
SPLINE
  5
2b3
100
AcDbEntity
  8
Calque_1
 62
7
100
AcDbSpline
 70
8
 71
3
 72
8
 73
4
 74
0
 40
0
 40
0
 40
0
 40
0
 40
1
 40
1
 40
1
 40
1
 10
435.866880
 20
360.654910
 30
0.0
 10
436.436467
 20
360.654910
 30
0.0
 10
436.923373
 20
360.542370
 30
0.0
 10
437.327600
 20
360.317290
 30
0.0
  0
SPLINE
  5
2b4
100
AcDbEntity
  8
Calque_1
 62
7
100
AcDbSpline
 70
8
 71
3
 72
8
 73
4
 74
0
 40
0
 40
0
 40
0
 40
0
 40
1
 40
1
 40
1
 40
1
 10
437.327600
 20
360.317290
 30
0.0
 10
437.736420
 20
360.096803
 30
0.0
 10
438.074040
 20
359.756887
 30
0.0
 10
438.340460
 20
359.297540
 30
0.0
  0
LINE
  5
2b5
100
AcDbEntity
  8
Calque_1
 62
7
100
AcDbLine
 10
438.340460
 20
359.297540
 30
0.0
 11
438.340460
 21
360.468880
 31
0.0
  0
LINE
  5
2b6
100
AcDbEntity
  8
Calque_1
 62
7
100
AcDbLine
 10
438.340460
 20
360.468880
 30
0.0
 11
439.608250
 21
360.468880
 31
0.0
  0
LINE
  5
2b7
100
AcDbEntity
  8
Calque_1
 62
7
100
AcDbLine
 10
439.608250
 20
360.468880
 30
0.0
 11
439.608250
 21
349.816640
 31
0.0
  0
LINE
  5
2b8
100
AcDbEntity
  8
Calque_1
 62
7
100
AcDbLine
 10
439.608250
 20
349.816640
 30
0.0
 11
438.340460
 21
349.816640
 31
0.0
  0
LINE
  5
2b9
100
AcDbEntity
  8
Calque_1
 62
7
100
AcDbLine
 10
438.340460
 20
349.816640
 30
0.0
 11
438.340460
 21
353.909420
 31
0.0
  0
LINE
  5
2ba
100
AcDbEntity
  8
Calque_1
 62
7
100
AcDbLine
 10
442.088720
 20
355.797330
 30
0.0
 11
442.088720
 21
360.468880
 31
0.0
  0
LINE
  5
2bb
100
AcDbEntity
  8
Calque_1
 62
7
100
AcDbLine
 10
442.088720
 20
360.468880
 30
0.0
 11
443.356510
 21
360.468880
 31
0.0
  0
LINE
  5
2bc
100
AcDbEntity
  8
Calque_1
 62
7
100
AcDbLine
 10
443.356510
 20
360.468880
 30
0.0
 11
443.356510
 21
355.845560
 31
0.0
  0
SPLINE
  5
2bd
100
AcDbEntity
  8
Calque_1
 62
7
100
AcDbSpline
 70
8
 71
3
 72
8
 73
4
 74
0
 40
0
 40
0
 40
0
 40
0
 40
1
 40
1
 40
1
 40
1
 10
443.356510
 20
355.845560
 30
0.0
 10
443.356510
 20
355.115200
 30
0.0
 10
443.498907
 20
354.566280
 30
0.0
 10
443.783700
 20
354.198800
 30
0.0
  0
SPLINE
  5
2be
100
AcDbEntity
  8
Calque_1
 62
7
100
AcDbSpline
 70
8
 71
3
 72
8
 73
4
 74
0
 40
0
 40
0
 40
0
 40
0
 40
1
 40
1
 40
1
 40
1
 10
443.783700
 20
354.198800
 30
0.0
 10
444.068500
 20
353.835920
 30
0.0
 10
444.495693
 20
353.654480
 30
0.0
 10
445.065280
 20
353.654480
 30
0.0
  0
SPLINE
  5
2bf
100
AcDbEntity
  8
Calque_1
 62
7
100
AcDbSpline
 70
8
 71
3
 72
8
 73
4
 74
0
 40
0
 40
0
 40
0
 40
0
 40
1
 40
1
 40
1
 40
1
 10
445.065280
 20
353.654480
 30
0.0
 10
445.749707
 20
353.654480
 30
0.0
 10
446.289437
 20
353.872670
 30
0.0
 10
446.684470
 20
354.309050
 30
0.0
  0
SPLINE
  5
2c0
100
AcDbEntity
  8
Calque_1
 62
7
100
AcDbSpline
 70
8
 71
3
 72
8
 73
4
 74
0
 40
0
 40
0
 40
0
 40
0
 40
1
 40
1
 40
1
 40
1
 10
446.684470
 20
354.309050
 30
0.0
 10
447.084103
 20
354.745423
 30
0.0
 10
447.283920
 20
355.340277
 30
0.0
 10
447.283920
 20
356.093610
 30
0.0
  0
LINE
  5
2c1
100
AcDbEntity
  8
Calque_1
 62
7
100
AcDbLine
 10
447.283920
 20
356.093610
 30
0.0
 11
447.283920
 21
360.468880
 31
0.0
  0
LINE
  5
2c2
100
AcDbEntity
  8
Calque_1
 62
7
100
AcDbLine
 10
447.283920
 20
360.468880
 30
0.0
 11
448.551720
 21
360.468880
 31
0.0
  0
LINE
  5
2c3
100
AcDbEntity
  8
Calque_1
 62
7
100
AcDbLine
 10
448.551720
 20
360.468880
 30
0.0
 11
448.551720
 21
352.751860
 31
0.0
  0
LINE
  5
2c4
100
AcDbEntity
  8
Calque_1
 62
7
100
AcDbLine
 10
448.551720
 20
352.751860
 30
0.0
 11
447.283920
 21
352.751860
 31
0.0
  0
LINE
  5
2c5
100
AcDbEntity
  8
Calque_1
 62
7
100
AcDbLine
 10
447.283920
 20
352.751860
 30
0.0
 11
447.283920
 21
353.936980
 31
0.0
  0
SPLINE
  5
2c6
100
AcDbEntity
  8
Calque_1
 62
7
100
AcDbSpline
 70
8
 71
3
 72
8
 73
4
 74
0
 40
0
 40
0
 40
0
 40
0
 40
1
 40
1
 40
1
 40
1
 10
447.283920
 20
353.936980
 30
0.0
 10
446.976160
 20
353.468447
 30
0.0
 10
446.617870
 20
353.119343
 30
0.0
 10
446.209050
 20
352.889670
 30
0.0
  0
SPLINE
  5
2c7
100
AcDbEntity
  8
Calque_1
 62
7
100
AcDbSpline
 70
8
 71
3
 72
8
 73
4
 74
0
 40
0
 40
0
 40
0
 40
0
 40
1
 40
1
 40
1
 40
1
 10
446.209050
 20
352.889670
 30
0.0
 10
445.804823
 20
352.664590
 30
0.0
 10
445.333993
 20
352.552050
 30
0.0
 10
444.796560
 20
352.552050
 30
0.0
  0
SPLINE
  5
2c8
100
AcDbEntity
  8
Calque_1
 62
7
100
AcDbSpline
 70
8
 71
3
 72
8
 73
4
 74
0
 40
0
 40
0
 40
0
 40
0
 40
1
 40
1
 40
1
 40
1
 10
444.796560
 20
352.552050
 30
0.0
 10
443.910027
 20
352.552050
 30
0.0
 10
443.237087
 20
352.827657
 30
0.0
 10
442.777740
 20
353.378870
 30
0.0
  0
SPLINE
  5
2c9
100
AcDbEntity
  8
Calque_1
 62
7
100
AcDbSpline
 70
8
 71
3
 72
8
 73
4
 74
0
 40
0
 40
0
 40
0
 40
0
 40
1
 40
1
 40
1
 40
1
 10
442.777740
 20
353.378870
 30
0.0
 10
442.318393
 20
353.930083
 30
0.0
 10
442.088720
 20
354.736237
 30
0.0
 10
442.088720
 20
355.797330
 30
0.0
  0
LINE
  5
2ca
100
AcDbEntity
  8
Calque_1
 62
7
100
AcDbLine
 10
442.088720
 20
355.797330
 30
0.0
 11
442.088720
 21
355.797330
 31
0.0
  0
LINE
  5
2cb
100
AcDbEntity
  8
Calque_1
 62
7
100
AcDbLine
 10
445.278880
 20
360.654910
 30
0.0
 11
445.278880
 21
360.654910
 31
0.0
  0
LINE
  5
2cc
100
AcDbEntity
  8
Calque_1
 62
7
100
AcDbLine
 10
457.777690
 20
356.927320
 30
0.0
 11
457.777690
 21
356.307200
 31
0.0
  0
LINE
  5
2cd
100
AcDbEntity
  8
Calque_1
 62
7
100
AcDbLine
 10
457.777690
 20
356.307200
 30
0.0
 11
451.948590
 21
356.307200
 31
0.0
  0
SPLINE
  5
2ce
100
AcDbEntity
  8
Calque_1
 62
7
100
AcDbSpline
 70
8
 71
3
 72
8
 73
4
 74
0
 40
0
 40
0
 40
0
 40
0
 40
1
 40
1
 40
1
 40
1
 10
451.948590
 20
356.307200
 30
0.0
 10
452.003723
 20
355.434447
 30
0.0
 10
452.265550
 20
354.768397
 30
0.0
 10
452.734070
 20
354.309050
 30
0.0
  0
SPLINE
  5
2cf
100
AcDbEntity
  8
Calque_1
 62
7
100
AcDbSpline
 70
8
 71
3
 72
8
 73
4
 74
0
 40
0
 40
0
 40
0
 40
0
 40
1
 40
1
 40
1
 40
1
 10
452.734070
 20
354.309050
 30
0.0
 10
453.207197
 20
353.854297
 30
0.0
 10
453.864060
 20
353.626920
 30
0.0
 10
454.704660
 20
353.626920
 30
0.0
  0
SPLINE
  5
2d0
100
AcDbEntity
  8
Calque_1
 62
7
100
AcDbSpline
 70
8
 71
3
 72
8
 73
4
 74
0
 40
0
 40
0
 40
0
 40
0
 40
1
 40
1
 40
1
 40
1
 10
454.704660
 20
353.626920
 30
0.0
 10
455.191567
 20
353.626920
 30
0.0
 10
455.662397
 20
353.686633
 30
0.0
 10
456.117150
 20
353.806060
 30
0.0
  0
SPLINE
  5
2d1
100
AcDbEntity
  8
Calque_1
 62
7
100
AcDbSpline
 70
8
 71
3
 72
8
 73
4
 74
0
 40
0
 40
0
 40
0
 40
0
 40
1
 40
1
 40
1
 40
1
 10
456.117150
 20
353.806060
 30
0.0
 10
456.576497
 20
353.925493
 30
0.0
 10
457.031250
 20
354.104640
 30
0.0
 10
457.481410
 20
354.343500
 30
0.0
  0
LINE
  5
2d2
100
AcDbEntity
  8
Calque_1
 62
7
100
AcDbLine
 10
457.481410
 20
354.343500
 30
0.0
 11
457.481410
 21
353.144600
 31
0.0
  0
SPLINE
  5
2d3
100
AcDbEntity
  8
Calque_1
 62
7
100
AcDbSpline
 70
8
 71
3
 72
8
 73
4
 74
0
 40
0
 40
0
 40
0
 40
0
 40
1
 40
1
 40
1
 40
1
 10
457.481410
 20
353.144600
 30
0.0
 10
457.026657
 20
352.951680
 30
0.0
 10
456.560420
 20
352.804690
 30
0.0
 10
456.082700
 20
352.703630
 30
0.0
  0
SPLINE
  5
2d4
100
AcDbEntity
  8
Calque_1
 62
7
100
AcDbSpline
 70
8
 71
3
 72
8
 73
4
 74
0
 40
0
 40
0
 40
0
 40
0
 40
1
 40
1
 40
1
 40
1
 10
456.082700
 20
352.703630
 30
0.0
 10
455.604980
 20
352.602577
 30
0.0
 10
455.120370
 20
352.552050
 30
0.0
 10
454.628870
 20
352.552050
 30
0.0
  0
SPLINE
  5
2d5
100
AcDbEntity
  8
Calque_1
 62
7
100
AcDbSpline
 70
8
 71
3
 72
8
 73
4
 74
0
 40
0
 40
0
 40
0
 40
0
 40
1
 40
1
 40
1
 40
1
 10
454.628870
 20
352.552050
 30
0.0
 10
453.397823
 20
352.552050
 30
0.0
 10
452.421713
 20
352.910340
 30
0.0
 10
451.700540
 20
353.626920
 30
0.0
  0
SPLINE
  5
2d6
100
AcDbEntity
  8
Calque_1
 62
7
100
AcDbSpline
 70
8
 71
3
 72
8
 73
4
 74
0
 40
0
 40
0
 40
0
 40
0
 40
1
 40
1
 40
1
 40
1
 10
451.700540
 20
353.626920
 30
0.0
 10
450.983960
 20
354.343500
 30
0.0
 10
450.625670
 20
355.312720
 30
0.0
 10
450.625670
 20
356.534580
 30
0.0
  0
SPLINE
  5
2d7
100
AcDbEntity
  8
Calque_1
 62
7
100
AcDbSpline
 70
8
 71
3
 72
8
 73
4
 74
0
 40
0
 40
0
 40
0
 40
0
 40
1
 40
1
 40
1
 40
1
 10
450.625670
 20
356.534580
 30
0.0
 10
450.625670
 20
357.797780
 30
0.0
 10
450.965587
 20
358.799153
 30
0.0
 10
451.645420
 20
359.538700
 30
0.0
  0
SPLINE
  5
2d8
100
AcDbEntity
  8
Calque_1
 62
7
100
AcDbSpline
 70
8
 71
3
 72
8
 73
4
 74
0
 40
0
 40
0
 40
0
 40
0
 40
1
 40
1
 40
1
 40
1
 10
451.645420
 20
359.538700
 30
0.0
 10
452.329847
 20
360.282840
 30
0.0
 10
453.250833
 20
360.654910
 30
0.0
 10
454.408380
 20
360.654910
 30
0.0
  0
SPLINE
  5
2d9
100
AcDbEntity
  8
Calque_1
 62
7
100
AcDbSpline
 70
8
 71
3
 72
8
 73
4
 74
0
 40
0
 40
0
 40
0
 40
0
 40
1
 40
1
 40
1
 40
1
 10
454.408380
 20
360.654910
 30
0.0
 10
455.446507
 20
360.654910
 30
0.0
 10
456.266440
 20
360.319587
 30
0.0
 10
456.868180
 20
359.648940
 30
0.0
  0
SPLINE
  5
2da
100
AcDbEntity
  8
Calque_1
 62
7
100
AcDbSpline
 70
8
 71
3
 72
8
 73
4
 74
0
 40
0
 40
0
 40
0
 40
0
 40
1
 40
1
 40
1
 40
1
 10
456.868180
 20
359.648940
 30
0.0
 10
457.474520
 20
358.982893
 30
0.0
 10
457.777690
 20
358.075687
 30
0.0
 10
457.777690
 20
356.927320
 30
0.0
  0
LINE
  5
2db
100
AcDbEntity
  8
Calque_1
 62
7
100
AcDbLine
 10
457.777690
 20
356.927320
 30
0.0
 11
457.777690
 21
356.927320
 31
0.0
  0
SPLINE
  5
2dc
100
AcDbEntity
  8
Calque_1
 62
7
100
AcDbSpline
 70
8
 71
3
 72
8
 73
4
 74
0
 40
0
 40
0
 40
0
 40
0
 40
1
 40
1
 40
1
 40
1
 10
456.509890
 20
357.299390
 30
0.0
 10
456.500690
 20
357.993003
 30
0.0
 10
456.305470
 20
358.546517
 30
0.0
 10
455.924230
 20
358.959930
 30
0.0
  0
SPLINE
  5
2dd
100
AcDbEntity
  8
Calque_1
 62
7
100
AcDbSpline
 70
8
 71
3
 72
8
 73
4
 74
0
 40
0
 40
0
 40
0
 40
0
 40
1
 40
1
 40
1
 40
1
 10
455.924230
 20
358.959930
 30
0.0
 10
455.547563
 20
359.373337
 30
0.0
 10
455.046873
 20
359.580040
 30
0.0
 10
454.422160
 20
359.580040
 30
0.0
  0
SPLINE
  5
2de
100
AcDbEntity
  8
Calque_1
 62
7
100
AcDbSpline
 70
8
 71
3
 72
8
 73
4
 74
0
 40
0
 40
0
 40
0
 40
0
 40
1
 40
1
 40
1
 40
1
 10
454.422160
 20
359.580040
 30
0.0
 10
453.714767
 20
359.580040
 30
0.0
 10
453.147477
 20
359.380227
 30
0.0
 10
452.720290
 20
358.980600
 30
0.0
  0
SPLINE
  5
2df
100
AcDbEntity
  8
Calque_1
 62
7
100
AcDbSpline
 70
8
 71
3
 72
8
 73
4
 74
0
 40
0
 40
0
 40
0
 40
0
 40
1
 40
1
 40
1
 40
1
 10
452.720290
 20
358.980600
 30
0.0
 10
452.297690
 20
358.580967
 30
0.0
 10
452.054237
 20
358.018267
 30
0.0
 10
451.989930
 20
357.292500
 30
0.0
  0
LINE
  5
2e0
100
AcDbEntity
  8
Calque_1
 62
7
100
AcDbLine
 10
451.989930
 20
357.292500
 30
0.0
 11
456.509890
 21
357.299390
 31
0.0
  0
LINE
  5
2e1
100
AcDbEntity
  8
Calque_1
 62
7
100
AcDbLine
 10
380.903830
 20
345.151980
 30
0.0
 11
380.903830
 21
349.327440
 31
0.0
  0
LINE
  5
2e2
100
AcDbEntity
  8
Calque_1
 62
7
100
AcDbLine
 10
380.903830
 20
349.327440
 30
0.0
 11
382.171620
 21
349.327440
 31
0.0
  0
LINE
  5
2e3
100
AcDbEntity
  8
Calque_1
 62
7
100
AcDbLine
 10
382.171620
 20
349.327440
 30
0.0
 11
382.171620
 21
338.606300
 31
0.0
  0
LINE
  5
2e4
100
AcDbEntity
  8
Calque_1
 62
7
100
AcDbLine
 10
382.171620
 20
338.606300
 30
0.0
 11
380.903830
 21
338.606300
 31
0.0
  0
LINE
  5
2e5
100
AcDbEntity
  8
Calque_1
 62
7
100
AcDbLine
 10
380.903830
 20
338.606300
 30
0.0
 11
380.903830
 21
339.763850
 31
0.0
  0
SPLINE
  5
2e6
100
AcDbEntity
  8
Calque_1
 62
7
100
AcDbSpline
 70
8
 71
3
 72
8
 73
4
 74
0
 40
0
 40
0
 40
0
 40
0
 40
1
 40
1
 40
1
 40
1
 10
380.903830
 20
339.763850
 30
0.0
 10
380.637410
 20
339.304503
 30
0.0
 10
380.299790
 20
338.962293
 30
0.0
 10
379.890970
 20
338.737220
 30
0.0
  0
SPLINE
  5
2e7
100
AcDbEntity
  8
Calque_1
 62
7
100
AcDbSpline
 70
8
 71
3
 72
8
 73
4
 74
0
 40
0
 40
0
 40
0
 40
0
 40
1
 40
1
 40
1
 40
1
 10
379.890970
 20
338.737220
 30
0.0
 10
379.486743
 20
338.516733
 30
0.0
 10
378.999837
 20
338.406490
 30
0.0
 10
378.430250
 20
338.406490
 30
0.0
  0
SPLINE
  5
2e8
100
AcDbEntity
  8
Calque_1
 62
7
100
AcDbSpline
 70
8
 71
3
 72
8
 73
4
 74
0
 40
0
 40
0
 40
0
 40
0
 40
1
 40
1
 40
1
 40
1
 10
378.430250
 20
338.406490
 30
0.0
 10
377.497777
 20
338.406490
 30
0.0
 10
376.737560
 20
338.778560
 30
0.0
 10
376.149600
 20
339.522700
 30
0.0
  0
SPLINE
  5
2e9
100
AcDbEntity
  8
Calque_1
 62
7
100
AcDbSpline
 70
8
 71
3
 72
8
 73
4
 74
0
 40
0
 40
0
 40
0
 40
0
 40
1
 40
1
 40
1
 40
1
 10
376.149600
 20
339.522700
 30
0.0
 10
375.566227
 20
340.266840
 30
0.0
 10
375.274540
 20
341.245247
 30
0.0
 10
375.274540
 20
342.457920
 30
0.0
  0
SPLINE
  5
2ea
100
AcDbEntity
  8
Calque_1
 62
7
100
AcDbSpline
 70
8
 71
3
 72
8
 73
4
 74
0
 40
0
 40
0
 40
0
 40
0
 40
1
 40
1
 40
1
 40
1
 10
375.274540
 20
342.457920
 30
0.0
 10
375.274540
 20
343.670593
 30
0.0
 10
375.566227
 20
344.649000
 30
0.0
 10
376.149600
 20
345.393140
 30
0.0
  0
SPLINE
  5
2eb
100
AcDbEntity
  8
Calque_1
 62
7
100
AcDbSpline
 70
8
 71
3
 72
8
 73
4
 74
0
 40
0
 40
0
 40
0
 40
0
 40
1
 40
1
 40
1
 40
1
 10
376.149600
 20
345.393140
 30
0.0
 10
376.737560
 20
346.137280
 30
0.0
 10
377.497777
 20
346.509350
 30
0.0
 10
378.430250
 20
346.509350
 30
0.0
  0
SPLINE
  5
2ec
100
AcDbEntity
  8
Calque_1
 62
7
100
AcDbSpline
 70
8
 71
3
 72
8
 73
4
 74
0
 40
0
 40
0
 40
0
 40
0
 40
1
 40
1
 40
1
 40
1
 10
378.430250
 20
346.509350
 30
0.0
 10
378.999837
 20
346.509350
 30
0.0
 10
379.486743
 20
346.396810
 30
0.0
 10
379.890970
 20
346.171730
 30
0.0
  0
SPLINE
  5
2ed
100
AcDbEntity
  8
Calque_1
 62
7
100
AcDbSpline
 70
8
 71
3
 72
8
 73
4
 74
0
 40
0
 40
0
 40
0
 40
0
 40
1
 40
1
 40
1
 40
1
 10
379.890970
 20
346.171730
 30
0.0
 10
380.299790
 20
345.951243
 30
0.0
 10
380.637410
 20
345.611327
 30
0.0
 10
380.903830
 20
345.151980
 30
0.0
  0
LINE
  5
2ee
100
AcDbEntity
  8
Calque_1
 62
7
100
AcDbLine
 10
380.903830
 20
345.151980
 30
0.0
 11
380.903830
 21
345.151980
 31
0.0
  0
SPLINE
  5
2ef
100
AcDbEntity
  8
Calque_1
 62
7
100
AcDbSpline
 70
8
 71
3
 72
8
 73
4
 74
0
 40
0
 40
0
 40
0
 40
0
 40
1
 40
1
 40
1
 40
1
 10
376.583680
 20
342.457920
 30
0.0
 10
376.583680
 20
341.525447
 30
0.0
 10
376.774307
 20
340.792790
 30
0.0
 10
377.155560
 20
340.259950
 30
0.0
  0
SPLINE
  5
2f0
100
AcDbEntity
  8
Calque_1
 62
7
100
AcDbSpline
 70
8
 71
3
 72
8
 73
4
 74
0
 40
0
 40
0
 40
0
 40
0
 40
1
 40
1
 40
1
 40
1
 10
377.155560
 20
340.259950
 30
0.0
 10
377.541413
 20
339.731703
 30
0.0
 10
378.069663
 20
339.467580
 30
0.0
 10
378.740310
 20
339.467580
 30
0.0
  0
SPLINE
  5
2f1
100
AcDbEntity
  8
Calque_1
 62
7
100
AcDbSpline
 70
8
 71
3
 72
8
 73
4
 74
0
 40
0
 40
0
 40
0
 40
0
 40
1
 40
1
 40
1
 40
1
 10
378.740310
 20
339.467580
 30
0.0
 10
379.410950
 20
339.467580
 30
0.0
 10
379.939197
 20
339.731703
 30
0.0
 10
380.325050
 20
340.259950
 30
0.0
  0
SPLINE
  5
2f2
100
AcDbEntity
  8
Calque_1
 62
7
100
AcDbSpline
 70
8
 71
3
 72
8
 73
4
 74
0
 40
0
 40
0
 40
0
 40
0
 40
1
 40
1
 40
1
 40
1
 10
380.325050
 20
340.259950
 30
0.0
 10
380.710903
 20
340.792790
 30
0.0
 10
380.903830
 20
341.525447
 30
0.0
 10
380.903830
 20
342.457920
 30
0.0
  0
SPLINE
  5
2f3
100
AcDbEntity
  8
Calque_1
 62
7
100
AcDbSpline
 70
8
 71
3
 72
8
 73
4
 74
0
 40
0
 40
0
 40
0
 40
0
 40
1
 40
1
 40
1
 40
1
 10
380.903830
 20
342.457920
 30
0.0
 10
380.903830
 20
343.390393
 30
0.0
 10
380.710903
 20
344.120753
 30
0.0
 10
380.325050
 20
344.649000
 30
0.0
  0
SPLINE
  5
2f4
100
AcDbEntity
  8
Calque_1
 62
7
100
AcDbSpline
 70
8
 71
3
 72
8
 73
4
 74
0
 40
0
 40
0
 40
0
 40
0
 40
1
 40
1
 40
1
 40
1
 10
380.325050
 20
344.649000
 30
0.0
 10
379.939197
 20
345.181840
 30
0.0
 10
379.410950
 20
345.448260
 30
0.0
 10
378.740310
 20
345.448260
 30
0.0
  0
SPLINE
  5
2f5
100
AcDbEntity
  8
Calque_1
 62
7
100
AcDbSpline
 70
8
 71
3
 72
8
 73
4
 74
0
 40
0
 40
0
 40
0
 40
0
 40
1
 40
1
 40
1
 40
1
 10
378.740310
 20
345.448260
 30
0.0
 10
378.069663
 20
345.448260
 30
0.0
 10
377.541413
 20
345.181840
 30
0.0
 10
377.155560
 20
344.649000
 30
0.0
  0
SPLINE
  5
2f6
100
AcDbEntity
  8
Calque_1
 62
7
100
AcDbSpline
 70
8
 71
3
 72
8
 73
4
 74
0
 40
0
 40
0
 40
0
 40
0
 40
1
 40
1
 40
1
 40
1
 10
377.155560
 20
344.649000
 30
0.0
 10
376.774307
 20
344.120753
 30
0.0
 10
376.583680
 20
343.390393
 30
0.0
 10
376.583680
 20
342.457920
 30
0.0
  0
LINE
  5
2f7
100
AcDbEntity
  8
Calque_1
 62
7
100
AcDbLine
 10
376.583680
 20
342.457920
 30
0.0
 11
376.583680
 21
342.457920
 31
0.0
  0
LINE
  5
2f8
100
AcDbEntity
  8
Calque_1
 62
7
100
AcDbLine
 10
391.383810
 20
342.781760
 30
0.0
 11
391.383810
 21
342.161640
 31
0.0
  0
LINE
  5
2f9
100
AcDbEntity
  8
Calque_1
 62
7
100
AcDbLine
 10
391.383810
 20
342.161640
 30
0.0
 11
385.554710
 21
342.161640
 31
0.0
  0
SPLINE
  5
2fa
100
AcDbEntity
  8
Calque_1
 62
7
100
AcDbSpline
 70
8
 71
3
 72
8
 73
4
 74
0
 40
0
 40
0
 40
0
 40
0
 40
1
 40
1
 40
1
 40
1
 10
385.554710
 20
342.161640
 30
0.0
 10
385.609843
 20
341.288880
 30
0.0
 10
385.871670
 20
340.622827
 30
0.0
 10
386.340190
 20
340.163480
 30
0.0
  0
SPLINE
  5
2fb
100
AcDbEntity
  8
Calque_1
 62
7
100
AcDbSpline
 70
8
 71
3
 72
8
 73
4
 74
0
 40
0
 40
0
 40
0
 40
0
 40
1
 40
1
 40
1
 40
1
 10
386.340190
 20
340.163480
 30
0.0
 10
386.813317
 20
339.708733
 30
0.0
 10
387.470180
 20
339.481360
 30
0.0
 10
388.310780
 20
339.481360
 30
0.0
  0
SPLINE
  5
2fc
100
AcDbEntity
  8
Calque_1
 62
7
100
AcDbSpline
 70
8
 71
3
 72
8
 73
4
 74
0
 40
0
 40
0
 40
0
 40
0
 40
1
 40
1
 40
1
 40
1
 10
388.310780
 20
339.481360
 30
0.0
 10
388.797687
 20
339.481360
 30
0.0
 10
389.268517
 20
339.541073
 30
0.0
 10
389.723270
 20
339.660500
 30
0.0
  0
SPLINE
  5
2fd
100
AcDbEntity
  8
Calque_1
 62
7
100
AcDbSpline
 70
8
 71
3
 72
8
 73
4
 74
0
 40
0
 40
0
 40
0
 40
0
 40
1
 40
1
 40
1
 40
1
 10
389.723270
 20
339.660500
 30
0.0
 10
390.182617
 20
339.779933
 30
0.0
 10
390.637370
 20
339.959080
 30
0.0
 10
391.087530
 20
340.197940
 30
0.0
  0
LINE
  5
2fe
100
AcDbEntity
  8
Calque_1
 62
7
100
AcDbLine
 10
391.087530
 20
340.197940
 30
0.0
 11
391.087530
 21
338.999040
 31
0.0
  0
SPLINE
  5
2ff
100
AcDbEntity
  8
Calque_1
 62
7
100
AcDbSpline
 70
8
 71
3
 72
8
 73
4
 74
0
 40
0
 40
0
 40
0
 40
0
 40
1
 40
1
 40
1
 40
1
 10
391.087530
 20
338.999040
 30
0.0
 10
390.632777
 20
338.806113
 30
0.0
 10
390.166540
 20
338.659123
 30
0.0
 10
389.688820
 20
338.558070
 30
0.0
  0
SPLINE
  5
300
100
AcDbEntity
  8
Calque_1
 62
7
100
AcDbSpline
 70
8
 71
3
 72
8
 73
4
 74
0
 40
0
 40
0
 40
0
 40
0
 40
1
 40
1
 40
1
 40
1
 10
389.688820
 20
338.558070
 30
0.0
 10
389.211100
 20
338.457017
 30
0.0
 10
388.726490
 20
338.406490
 30
0.0
 10
388.234990
 20
338.406490
 30
0.0
  0
SPLINE
  5
301
100
AcDbEntity
  8
Calque_1
 62
7
100
AcDbSpline
 70
8
 71
3
 72
8
 73
4
 74
0
 40
0
 40
0
 40
0
 40
0
 40
1
 40
1
 40
1
 40
1
 10
388.234990
 20
338.406490
 30
0.0
 10
387.003943
 20
338.406490
 30
0.0
 10
386.027833
 20
338.764780
 30
0.0
 10
385.306660
 20
339.481360
 30
0.0
  0
SPLINE
  5
302
100
AcDbEntity
  8
Calque_1
 62
7
100
AcDbSpline
 70
8
 71
3
 72
8
 73
4
 74
0
 40
0
 40
0
 40
0
 40
0
 40
1
 40
1
 40
1
 40
1
 10
385.306660
 20
339.481360
 30
0.0
 10
384.590080
 20
340.197940
 30
0.0
 10
384.231790
 20
341.167160
 30
0.0
 10
384.231790
 20
342.389020
 30
0.0
  0
SPLINE
  5
303
100
AcDbEntity
  8
Calque_1
 62
7
100
AcDbSpline
 70
8
 71
3
 72
8
 73
4
 74
0
 40
0
 40
0
 40
0
 40
0
 40
1
 40
1
 40
1
 40
1
 10
384.231790
 20
342.389020
 30
0.0
 10
384.231790
 20
343.652220
 30
0.0
 10
384.571707
 20
344.653593
 30
0.0
 10
385.251540
 20
345.393140
 30
0.0
  0
SPLINE
  5
304
100
AcDbEntity
  8
Calque_1
 62
7
100
AcDbSpline
 70
8
 71
3
 72
8
 73
4
 74
0
 40
0
 40
0
 40
0
 40
0
 40
1
 40
1
 40
1
 40
1
 10
385.251540
 20
345.393140
 30
0.0
 10
385.935967
 20
346.137280
 30
0.0
 10
386.856953
 20
346.509350
 30
0.0
 10
388.014500
 20
346.509350
 30
0.0
  0
SPLINE
  5
305
100
AcDbEntity
  8
Calque_1
 62
7
100
AcDbSpline
 70
8
 71
3
 72
8
 73
4
 74
0
 40
0
 40
0
 40
0
 40
0
 40
1
 40
1
 40
1
 40
1
 10
388.014500
 20
346.509350
 30
0.0
 10
389.052627
 20
346.509350
 30
0.0
 10
389.872560
 20
346.174027
 30
0.0
 10
390.474300
 20
345.503380
 30
0.0
  0
SPLINE
  5
306
100
AcDbEntity
  8
Calque_1
 62
7
100
AcDbSpline
 70
8
 71
3
 72
8
 73
4
 74
0
 40
0
 40
0
 40
0
 40
0
 40
1
 40
1
 40
1
 40
1
 10
390.474300
 20
345.503380
 30
0.0
 10
391.080640
 20
344.837327
 30
0.0
 10
391.383810
 20
343.930120
 30
0.0
 10
391.383810
 20
342.781760
 30
0.0
  0
LINE
  5
307
100
AcDbEntity
  8
Calque_1
 62
7
100
AcDbLine
 10
391.383810
 20
342.781760
 30
0.0
 11
391.383810
 21
342.781760
 31
0.0
  0
SPLINE
  5
308
100
AcDbEntity
  8
Calque_1
 62
7
100
AcDbSpline
 70
8
 71
3
 72
8
 73
4
 74
0
 40
0
 40
0
 40
0
 40
0
 40
1
 40
1
 40
1
 40
1
 10
390.116010
 20
343.153830
 30
0.0
 10
390.106810
 20
343.847443
 30
0.0
 10
389.911590
 20
344.400953
 30
0.0
 10
389.530350
 20
344.814360
 30
0.0
  0
SPLINE
  5
309
100
AcDbEntity
  8
Calque_1
 62
7
100
AcDbSpline
 70
8
 71
3
 72
8
 73
4
 74
0
 40
0
 40
0
 40
0
 40
0
 40
1
 40
1
 40
1
 40
1
 10
389.530350
 20
344.814360
 30
0.0
 10
389.153683
 20
345.227773
 30
0.0
 10
388.652993
 20
345.434480
 30
0.0
 10
388.028280
 20
345.434480
 30
0.0
  0
SPLINE
  5
30a
100
AcDbEntity
  8
Calque_1
 62
7
100
AcDbSpline
 70
8
 71
3
 72
8
 73
4
 74
0
 40
0
 40
0
 40
0
 40
0
 40
1
 40
1
 40
1
 40
1
 10
388.028280
 20
345.434480
 30
0.0
 10
387.320887
 20
345.434480
 30
0.0
 10
386.753597
 20
345.234663
 30
0.0
 10
386.326410
 20
344.835030
 30
0.0
  0
SPLINE
  5
30b
100
AcDbEntity
  8
Calque_1
 62
7
100
AcDbSpline
 70
8
 71
3
 72
8
 73
4
 74
0
 40
0
 40
0
 40
0
 40
0
 40
1
 40
1
 40
1
 40
1
 10
386.326410
 20
344.835030
 30
0.0
 10
385.903810
 20
344.435403
 30
0.0
 10
385.660357
 20
343.872707
 30
0.0
 10
385.596050
 20
343.146940
 30
0.0
  0
LINE
  5
30c
100
AcDbEntity
  8
Calque_1
 62
7
100
AcDbLine
 10
385.596050
 20
343.146940
 30
0.0
 11
390.116010
 21
343.153830
 31
0.0
  0
SPLINE
  5
30d
100
AcDbEntity
  8
Calque_1
 62
7
100
AcDbSpline
 70
8
 71
3
 72
8
 73
4
 74
0
 40
0
 40
0
 40
0
 40
0
 40
1
 40
1
 40
1
 40
1
 10
402.352990
 20
344.152910
 30
0.0
 10
403.019043
 20
344.010510
 30
0.0
 10
403.538103
 20
343.714230
 30
0.0
 10
403.910170
 20
343.264070
 30
0.0
  0
SPLINE
  5
30e
100
AcDbEntity
  8
Calque_1
 62
7
100
AcDbSpline
 70
8
 71
3
 72
8
 73
4
 74
0
 40
0
 40
0
 40
0
 40
0
 40
1
 40
1
 40
1
 40
1
 10
403.910170
 20
343.264070
 30
0.0
 10
404.286837
 20
342.813910
 30
0.0
 10
404.475170
 20
342.258100
 30
0.0
 10
404.475170
 20
341.596640
 30
0.0
  0
SPLINE
  5
30f
100
AcDbEntity
  8
Calque_1
 62
7
100
AcDbSpline
 70
8
 71
3
 72
8
 73
4
 74
0
 40
0
 40
0
 40
0
 40
0
 40
1
 40
1
 40
1
 40
1
 10
404.475170
 20
341.596640
 30
0.0
 10
404.475170
 20
340.581487
 30
0.0
 10
404.126067
 20
339.796007
 30
0.0
 10
403.427860
 20
339.240200
 30
0.0
  0
SPLINE
  5
310
100
AcDbEntity
  8
Calque_1
 62
7
100
AcDbSpline
 70
8
 71
3
 72
8
 73
4
 74
0
 40
0
 40
0
 40
0
 40
0
 40
1
 40
1
 40
1
 40
1
 10
403.427860
 20
339.240200
 30
0.0
 10
402.729653
 20
338.684393
 30
0.0
 10
401.737467
 20
338.406490
 30
0.0
 10
400.451300
 20
338.406490
 30
0.0
  0
SPLINE
  5
311
100
AcDbEntity
  8
Calque_1
 62
7
100
AcDbSpline
 70
8
 71
3
 72
8
 73
4
 74
0
 40
0
 40
0
 40
0
 40
0
 40
1
 40
1
 40
1
 40
1
 10
400.451300
 20
338.406490
 30
0.0
 10
400.019513
 20
338.406490
 30
0.0
 10
399.573947
 20
338.450127
 30
0.0
 10
399.114600
 20
338.537400
 30
0.0
  0
SPLINE
  5
312
100
AcDbEntity
  8
Calque_1
 62
7
100
AcDbSpline
 70
8
 71
3
 72
8
 73
4
 74
0
 40
0
 40
0
 40
0
 40
0
 40
1
 40
1
 40
1
 40
1
 10
399.114600
 20
338.537400
 30
0.0
 10
398.659847
 20
338.620080
 30
0.0
 10
398.189017
 20
338.746400
 30
0.0
 10
397.702110
 20
338.916360
 30
0.0
  0
LINE
  5
313
100
AcDbEntity
  8
Calque_1
 62
7
100
AcDbLine
 10
397.702110
 20
338.916360
 30
0.0
 11
397.702110
 21
340.259950
 31
0.0
  0
SPLINE
  5
314
100
AcDbEntity
  8
Calque_1
 62
7
100
AcDbSpline
 70
8
 71
3
 72
8
 73
4
 74
0
 40
0
 40
0
 40
0
 40
0
 40
1
 40
1
 40
1
 40
1
 10
397.702110
 20
340.259950
 30
0.0
 10
398.087963
 20
340.034870
 30
0.0
 10
398.510563
 20
339.864910
 30
0.0
 10
398.969910
 20
339.750070
 30
0.0
  0
SPLINE
  5
315
100
AcDbEntity
  8
Calque_1
 62
7
100
AcDbSpline
 70
8
 71
3
 72
8
 73
4
 74
0
 40
0
 40
0
 40
0
 40
0
 40
1
 40
1
 40
1
 40
1
 10
398.969910
 20
339.750070
 30
0.0
 10
399.429257
 20
339.635237
 30
0.0
 10
399.909273
 20
339.577820
 30
0.0
 10
400.409960
 20
339.577820
 30
0.0
  0
SPLINE
  5
316
100
AcDbEntity
  8
Calque_1
 62
7
100
AcDbSpline
 70
8
 71
3
 72
8
 73
4
 74
0
 40
0
 40
0
 40
0
 40
0
 40
1
 40
1
 40
1
 40
1
 10
400.409960
 20
339.577820
 30
0.0
 10
401.282713
 20
339.577820
 30
0.0
 10
401.946467
 20
339.750073
 30
0.0
 10
402.401220
 20
340.094580
 30
0.0
  0
SPLINE
  5
317
100
AcDbEntity
  8
Calque_1
 62
7
100
AcDbSpline
 70
8
 71
3
 72
8
 73
4
 74
0
 40
0
 40
0
 40
0
 40
0
 40
1
 40
1
 40
1
 40
1
 10
402.401220
 20
340.094580
 30
0.0
 10
402.860567
 20
340.439093
 30
0.0
 10
403.090240
 20
340.939780
 30
0.0
 10
403.090240
 20
341.596640
 30
0.0
  0
SPLINE
  5
318
100
AcDbEntity
  8
Calque_1
 62
7
100
AcDbSpline
 70
8
 71
3
 72
8
 73
4
 74
0
 40
0
 40
0
 40
0
 40
0
 40
1
 40
1
 40
1
 40
1
 10
403.090240
 20
341.596640
 30
0.0
 10
403.090240
 20
342.202980
 30
0.0
 10
402.876643
 20
342.676107
 30
0.0
 10
402.449450
 20
343.016020
 30
0.0
  0
SPLINE
  5
319
100
AcDbEntity
  8
Calque_1
 62
7
100
AcDbSpline
 70
8
 71
3
 72
8
 73
4
 74
0
 40
0
 40
0
 40
0
 40
0
 40
1
 40
1
 40
1
 40
1
 10
402.449450
 20
343.016020
 30
0.0
 10
402.026857
 20
343.360533
 30
0.0
 10
401.436597
 20
343.532790
 30
0.0
 10
400.678670
 20
343.532790
 30
0.0
  0
LINE
  5
31a
100
AcDbEntity
  8
Calque_1
 62
7
100
AcDbLine
 10
400.678670
 20
343.532790
 30
0.0
 11
399.479780
 21
343.532790
 31
0.0
  0
LINE
  5
31b
100
AcDbEntity
  8
Calque_1
 62
7
100
AcDbLine
 10
399.479780
 20
343.532790
 30
0.0
 11
399.479780
 21
344.676560
 31
0.0
  0
LINE
  5
31c
100
AcDbEntity
  8
Calque_1
 62
7
100
AcDbLine
 10
399.479780
 20
344.676560
 30
0.0
 11
400.733800
 21
344.676560
 31
0.0
  0
SPLINE
  5
31d
100
AcDbEntity
  8
Calque_1
 62
7
100
AcDbSpline
 70
8
 71
3
 72
8
 73
4
 74
0
 40
0
 40
0
 40
0
 40
0
 40
1
 40
1
 40
1
 40
1
 10
400.733800
 20
344.676560
 30
0.0
 10
401.418220
 20
344.676560
 30
0.0
 10
401.941873
 20
344.812067
 30
0.0
 10
402.304760
 20
345.083080
 30
0.0
  0
SPLINE
  5
31e
100
AcDbEntity
  8
Calque_1
 62
7
100
AcDbSpline
 70
8
 71
3
 72
8
 73
4
 74
0
 40
0
 40
0
 40
0
 40
0
 40
1
 40
1
 40
1
 40
1
 10
402.304760
 20
345.083080
 30
0.0
 10
402.667640
 20
345.358687
 30
0.0
 10
402.849080
 20
345.753723
 30
0.0
 10
402.849080
 20
346.268190
 30
0.0
  0
SPLINE
  5
31f
100
AcDbEntity
  8
Calque_1
 62
7
100
AcDbSpline
 70
8
 71
3
 72
8
 73
4
 74
0
 40
0
 40
0
 40
0
 40
0
 40
1
 40
1
 40
1
 40
1
 10
402.849080
 20
346.268190
 30
0.0
 10
402.849080
 20
346.796443
 30
0.0
 10
402.660750
 20
347.200670
 30
0.0
 10
402.284090
 20
347.480870
 30
0.0
  0
SPLINE
  5
320
100
AcDbEntity
  8
Calque_1
 62
7
100
AcDbSpline
 70
8
 71
3
 72
8
 73
4
 74
0
 40
0
 40
0
 40
0
 40
0
 40
1
 40
1
 40
1
 40
1
 10
402.284090
 20
347.480870
 30
0.0
 10
401.912017
 20
347.765663
 30
0.0
 10
401.376877
 20
347.908060
 30
0.0
 10
400.678670
 20
347.908060
 30
0.0
  0
SPLINE
  5
321
100
AcDbEntity
  8
Calque_1
 62
7
100
AcDbSpline
 70
8
 71
3
 72
8
 73
4
 74
0
 40
0
 40
0
 40
0
 40
0
 40
1
 40
1
 40
1
 40
1
 10
400.678670
 20
347.908060
 30
0.0
 10
400.297417
 20
347.908060
 30
0.0
 10
399.888600
 20
347.866720
 30
0.0
 10
399.452220
 20
347.784040
 30
0.0
  0
SPLINE
  5
322
100
AcDbEntity
  8
Calque_1
 62
7
100
AcDbSpline
 70
8
 71
3
 72
8
 73
4
 74
0
 40
0
 40
0
 40
0
 40
0
 40
1
 40
1
 40
1
 40
1
 10
399.452220
 20
347.784040
 30
0.0
 10
399.015840
 20
347.701353
 30
0.0
 10
398.535823
 20
347.572733
 30
0.0
 10
398.012170
 20
347.398180
 30
0.0
  0
LINE
  5
323
100
AcDbEntity
  8
Calque_1
 62
7
100
AcDbLine
 10
398.012170
 20
347.398180
 30
0.0
 11
398.012170
 21
348.638420
 31
0.0
  0
SPLINE
  5
324
100
AcDbEntity
  8
Calque_1
 62
7
100
AcDbSpline
 70
8
 71
3
 72
8
 73
4
 74
0
 40
0
 40
0
 40
0
 40
0
 40
1
 40
1
 40
1
 40
1
 10
398.012170
 20
348.638420
 30
0.0
 10
398.540417
 20
348.785413
 30
0.0
 10
399.034213
 20
348.895657
 30
0.0
 10
399.493560
 20
348.969150
 30
0.0
  0
SPLINE
  5
325
100
AcDbEntity
  8
Calque_1
 62
7
100
AcDbSpline
 70
8
 71
3
 72
8
 73
4
 74
0
 40
0
 40
0
 40
0
 40
0
 40
1
 40
1
 40
1
 40
1
 10
399.493560
 20
348.969150
 30
0.0
 10
399.957500
 20
349.042643
 30
0.0
 10
400.393880
 20
349.079390
 30
0.0
 10
400.802700
 20
349.079390
 30
0.0
  0
SPLINE
  5
326
100
AcDbEntity
  8
Calque_1
 62
7
100
AcDbSpline
 70
8
 71
3
 72
8
 73
4
 74
0
 40
0
 40
0
 40
0
 40
0
 40
1
 40
1
 40
1
 40
1
 10
400.802700
 20
349.079390
 30
0.0
 10
401.859193
 20
349.079390
 30
0.0
 10
402.695203
 20
348.838233
 30
0.0
 10
403.310730
 20
348.355920
 30
0.0
  0
SPLINE
  5
327
100
AcDbEntity
  8
Calque_1
 62
7
100
AcDbSpline
 70
8
 71
3
 72
8
 73
4
 74
0
 40
0
 40
0
 40
0
 40
0
 40
1
 40
1
 40
1
 40
1
 10
403.310730
 20
348.355920
 30
0.0
 10
403.926250
 20
347.878200
 30
0.0
 10
404.234010
 20
347.230523
 30
0.0
 10
404.234010
 20
346.412890
 30
0.0
  0
SPLINE
  5
328
100
AcDbEntity
  8
Calque_1
 62
7
100
AcDbSpline
 70
8
 71
3
 72
8
 73
4
 74
0
 40
0
 40
0
 40
0
 40
0
 40
1
 40
1
 40
1
 40
1
 10
404.234010
 20
346.412890
 30
0.0
 10
404.234010
 20
345.843297
 30
0.0
 10
404.070943
 20
345.360983
 30
0.0
 10
403.744810
 20
344.965950
 30
0.0
  0
SPLINE
  5
329
100
AcDbEntity
  8
Calque_1
 62
7
100
AcDbSpline
 70
8
 71
3
 72
8
 73
4
 74
0
 40
0
 40
0
 40
0
 40
0
 40
1
 40
1
 40
1
 40
1
 10
403.744810
 20
344.965950
 30
0.0
 10
403.418677
 20
344.575503
 30
0.0
 10
402.954737
 20
344.304490
 30
0.0
 10
402.352990
 20
344.152910
 30
0.0
  0
LINE
  5
32a
100
AcDbEntity
  8
Calque_1
 62
7
100
AcDbLine
 10
402.352990
 20
344.152910
 30
0.0
 11
402.352990
 21
344.152910
 31
0.0
  0
SPLINE
  5
32b
100
AcDbEntity
  8
Calque_1
 62
7
100
AcDbSpline
 70
8
 71
3
 72
8
 73
4
 74
0
 40
0
 40
0
 40
0
 40
0
 40
1
 40
1
 40
1
 40
1
 10
412.950100
 20
344.841920
 30
0.0
 10
413.267053
 20
345.411513
 30
0.0
 10
413.646017
 20
345.831817
 30
0.0
 10
414.086990
 20
346.102830
 30
0.0
  0
SPLINE
  5
32c
100
AcDbEntity
  8
Calque_1
 62
7
100
AcDbSpline
 70
8
 71
3
 72
8
 73
4
 74
0
 40
0
 40
0
 40
0
 40
0
 40
1
 40
1
 40
1
 40
1
 10
414.086990
 20
346.102830
 30
0.0
 10
414.527957
 20
346.373843
 30
0.0
 10
415.047017
 20
346.509350
 30
0.0
 10
415.644170
 20
346.509350
 30
0.0
  0
SPLINE
  5
32d
100
AcDbEntity
  8
Calque_1
 62
7
100
AcDbSpline
 70
8
 71
3
 72
8
 73
4
 74
0
 40
0
 40
0
 40
0
 40
0
 40
1
 40
1
 40
1
 40
1
 10
415.644170
 20
346.509350
 30
0.0
 10
416.448023
 20
346.509350
 30
0.0
 10
417.068140
 20
346.226853
 30
0.0
 10
417.504520
 20
345.661860
 30
0.0
  0
SPLINE
  5
32e
100
AcDbEntity
  8
Calque_1
 62
7
100
AcDbSpline
 70
8
 71
3
 72
8
 73
4
 74
0
 40
0
 40
0
 40
0
 40
0
 40
1
 40
1
 40
1
 40
1
 10
417.504520
 20
345.661860
 30
0.0
 10
417.940900
 20
345.101453
 30
0.0
 10
418.159090
 20
344.302190
 30
0.0
 10
418.159090
 20
343.264070
 30
0.0
  0
LINE
  5
32f
100
AcDbEntity
  8
Calque_1
 62
7
100
AcDbLine
 10
418.159090
 20
343.264070
 30
0.0
 11
418.159090
 21
338.606300
 31
0.0
  0
LINE
  5
330
100
AcDbEntity
  8
Calque_1
 62
7
100
AcDbLine
 10
418.159090
 20
338.606300
 30
0.0
 11
416.884400
 21
338.606300
 31
0.0
  0
LINE
  5
331
100
AcDbEntity
  8
Calque_1
 62
7
100
AcDbLine
 10
416.884400
 20
338.606300
 30
0.0
 11
416.884400
 21
343.222730
 31
0.0
  0
SPLINE
  5
332
100
AcDbEntity
  8
Calque_1
 62
7
100
AcDbSpline
 70
8
 71
3
 72
8
 73
4
 74
0
 40
0
 40
0
 40
0
 40
0
 40
1
 40
1
 40
1
 40
1
 10
416.884400
 20
343.222730
 30
0.0
 10
416.884400
 20
343.962277
 30
0.0
 10
416.753487
 20
344.511193
 30
0.0
 10
416.491660
 20
344.869480
 30
0.0
  0
SPLINE
  5
333
100
AcDbEntity
  8
Calque_1
 62
7
100
AcDbSpline
 70
8
 71
3
 72
8
 73
4
 74
0
 40
0
 40
0
 40
0
 40
0
 40
1
 40
1
 40
1
 40
1
 10
416.491660
 20
344.869480
 30
0.0
 10
416.229833
 20
345.227773
 30
0.0
 10
415.830203
 20
345.406920
 30
0.0
 10
415.292770
 20
345.406920
 30
0.0
  0
SPLINE
  5
334
100
AcDbEntity
  8
Calque_1
 62
7
100
AcDbSpline
 70
8
 71
3
 72
8
 73
4
 74
0
 40
0
 40
0
 40
0
 40
0
 40
1
 40
1
 40
1
 40
1
 10
415.292770
 20
345.406920
 30
0.0
 10
414.635903
 20
345.406920
 30
0.0
 10
414.116843
 20
345.188730
 30
0.0
 10
413.735590
 20
344.752350
 30
0.0
  0
SPLINE
  5
335
100
AcDbEntity
  8
Calque_1
 62
7
100
AcDbSpline
 70
8
 71
3
 72
8
 73
4
 74
0
 40
0
 40
0
 40
0
 40
0
 40
1
 40
1
 40
1
 40
1
 10
413.735590
 20
344.752350
 30
0.0
 10
413.354330
 20
344.315970
 30
0.0
 10
413.163700
 20
343.721117
 30
0.0
 10
413.163700
 20
342.967790
 30
0.0
  0
LINE
  5
336
100
AcDbEntity
  8
Calque_1
 62
7
100
AcDbLine
 10
413.163700
 20
342.967790
 30
0.0
 11
413.163700
 21
338.606300
 31
0.0
  0
LINE
  5
337
100
AcDbEntity
  8
Calque_1
 62
7
100
AcDbLine
 10
413.163700
 20
338.606300
 30
0.0
 11
411.889020
 21
338.606300
 31
0.0
  0
LINE
  5
338
100
AcDbEntity
  8
Calque_1
 62
7
100
AcDbLine
 10
411.889020
 20
338.606300
 30
0.0
 11
411.889020
 21
343.222730
 31
0.0
  0
SPLINE
  5
339
100
AcDbEntity
  8
Calque_1
 62
7
100
AcDbSpline
 70
8
 71
3
 72
8
 73
4
 74
0
 40
0
 40
0
 40
0
 40
0
 40
1
 40
1
 40
1
 40
1
 10
411.889020
 20
343.222730
 30
0.0
 10
411.889020
 20
343.966870
 30
0.0
 10
411.758103
 20
344.515787
 30
0.0
 10
411.496270
 20
344.869480
 30
0.0
  0
SPLINE
  5
33a
100
AcDbEntity
  8
Calque_1
 62
7
100
AcDbSpline
 70
8
 71
3
 72
8
 73
4
 74
0
 40
0
 40
0
 40
0
 40
0
 40
1
 40
1
 40
1
 40
1
 10
411.496270
 20
344.869480
 30
0.0
 10
411.234443
 20
345.227773
 30
0.0
 10
410.830220
 20
345.406920
 30
0.0
 10
410.283600
 20
345.406920
 30
0.0
  0
SPLINE
  5
33b
100
AcDbEntity
  8
Calque_1
 62
7
100
AcDbSpline
 70
8
 71
3
 72
8
 73
4
 74
0
 40
0
 40
0
 40
0
 40
0
 40
1
 40
1
 40
1
 40
1
 10
410.283600
 20
345.406920
 30
0.0
 10
409.635920
 20
345.406920
 30
0.0
 10
409.121453
 20
345.186433
 30
0.0
 10
408.740200
 20
344.745460
 30
0.0
  0
SPLINE
  5
33c
100
AcDbEntity
  8
Calque_1
 62
7
100
AcDbSpline
 70
8
 71
3
 72
8
 73
4
 74
0
 40
0
 40
0
 40
0
 40
0
 40
1
 40
1
 40
1
 40
1
 10
408.740200
 20
344.745460
 30
0.0
 10
408.358940
 20
344.309080
 30
0.0
 10
408.168310
 20
343.716523
 30
0.0
 10
408.168310
 20
342.967790
 30
0.0
  0
LINE
  5
33d
100
AcDbEntity
  8
Calque_1
 62
7
100
AcDbLine
 10
408.168310
 20
342.967790
 30
0.0
 11
408.168310
 21
338.606300
 31
0.0
  0
LINE
  5
33e
100
AcDbEntity
  8
Calque_1
 62
7
100
AcDbLine
 10
408.168310
 20
338.606300
 30
0.0
 11
406.893630
 21
338.606300
 31
0.0
  0
LINE
  5
33f
100
AcDbEntity
  8
Calque_1
 62
7
100
AcDbLine
 10
406.893630
 20
338.606300
 30
0.0
 11
406.893630
 21
346.323320
 31
0.0
  0
LINE
  5
340
100
AcDbEntity
  8
Calque_1
 62
7
100
AcDbLine
 10
406.893630
 20
346.323320
 30
0.0
 11
408.168310
 21
346.323320
 31
0.0
  0
LINE
  5
341
100
AcDbEntity
  8
Calque_1
 62
7
100
AcDbLine
 10
408.168310
 20
346.323320
 30
0.0
 11
408.168310
 21
345.124420
 31
0.0
  0
SPLINE
  5
342
100
AcDbEntity
  8
Calque_1
 62
7
100
AcDbSpline
 70
8
 71
3
 72
8
 73
4
 74
0
 40
0
 40
0
 40
0
 40
0
 40
1
 40
1
 40
1
 40
1
 10
408.168310
 20
345.124420
 30
0.0
 10
408.457697
 20
345.597547
 30
0.0
 10
408.804503
 20
345.946650
 30
0.0
 10
409.208730
 20
346.171730
 30
0.0
  0
SPLINE
  5
343
100
AcDbEntity
  8
Calque_1
 62
7
100
AcDbSpline
 70
8
 71
3
 72
8
 73
4
 74
0
 40
0
 40
0
 40
0
 40
0
 40
1
 40
1
 40
1
 40
1
 10
409.208730
 20
346.171730
 30
0.0
 10
409.612957
 20
346.396810
 30
0.0
 10
410.092973
 20
346.509350
 30
0.0
 10
410.648780
 20
346.509350
 30
0.0
  0
SPLINE
  5
344
100
AcDbEntity
  8
Calque_1
 62
7
100
AcDbSpline
 70
8
 71
3
 72
8
 73
4
 74
0
 40
0
 40
0
 40
0
 40
0
 40
1
 40
1
 40
1
 40
1
 10
410.648780
 20
346.509350
 30
0.0
 10
411.209180
 20
346.509350
 30
0.0
 10
411.684603
 20
346.366953
 30
0.0
 10
412.075050
 20
346.082160
 30
0.0
  0
SPLINE
  5
345
100
AcDbEntity
  8
Calque_1
 62
7
100
AcDbSpline
 70
8
 71
3
 72
8
 73
4
 74
0
 40
0
 40
0
 40
0
 40
0
 40
1
 40
1
 40
1
 40
1
 10
412.075050
 20
346.082160
 30
0.0
 10
412.470090
 20
345.797367
 30
0.0
 10
412.761773
 20
345.383953
 30
0.0
 10
412.950100
 20
344.841920
 30
0.0
  0
LINE
  5
346
100
AcDbEntity
  8
Calque_1
 62
7
100
AcDbLine
 10
412.950100
 20
344.841920
 30
0.0
 11
412.950100
 21
344.841920
 31
0.0
  0
SPLINE
  5
347
100
AcDbEntity
  8
Calque_1
 62
7
100
AcDbSpline
 70
8
 71
3
 72
8
 73
4
 74
0
 40
0
 40
0
 40
0
 40
0
 40
1
 40
1
 40
1
 40
1
 10
426.702930
 20
344.841920
 30
0.0
 10
427.019877
 20
345.411513
 30
0.0
 10
427.398837
 20
345.831817
 30
0.0
 10
427.839810
 20
346.102830
 30
0.0
  0
SPLINE
  5
348
100
AcDbEntity
  8
Calque_1
 62
7
100
AcDbSpline
 70
8
 71
3
 72
8
 73
4
 74
0
 40
0
 40
0
 40
0
 40
0
 40
1
 40
1
 40
1
 40
1
 10
427.839810
 20
346.102830
 30
0.0
 10
428.280783
 20
346.373843
 30
0.0
 10
428.799843
 20
346.509350
 30
0.0
 10
429.396990
 20
346.509350
 30
0.0
  0
SPLINE
  5
349
100
AcDbEntity
  8
Calque_1
 62
7
100
AcDbSpline
 70
8
 71
3
 72
8
 73
4
 74
0
 40
0
 40
0
 40
0
 40
0
 40
1
 40
1
 40
1
 40
1
 10
429.396990
 20
346.509350
 30
0.0
 10
430.200843
 20
346.509350
 30
0.0
 10
430.820960
 20
346.226853
 30
0.0
 10
431.257340
 20
345.661860
 30
0.0
  0
SPLINE
  5
34a
100
AcDbEntity
  8
Calque_1
 62
7
100
AcDbSpline
 70
8
 71
3
 72
8
 73
4
 74
0
 40
0
 40
0
 40
0
 40
0
 40
1
 40
1
 40
1
 40
1
 10
431.257340
 20
345.661860
 30
0.0
 10
431.693720
 20
345.101453
 30
0.0
 10
431.911910
 20
344.302190
 30
0.0
 10
431.911910
 20
343.264070
 30
0.0
  0
LINE
  5
34b
100
AcDbEntity
  8
Calque_1
 62
7
100
AcDbLine
 10
431.911910
 20
343.264070
 30
0.0
 11
431.911910
 21
338.606300
 31
0.0
  0
LINE
  5
34c
100
AcDbEntity
  8
Calque_1
 62
7
100
AcDbLine
 10
431.911910
 20
338.606300
 30
0.0
 11
430.637220
 21
338.606300
 31
0.0
  0
LINE
  5
34d
100
AcDbEntity
  8
Calque_1
 62
7
100
AcDbLine
 10
430.637220
 20
338.606300
 30
0.0
 11
430.637220
 21
343.222730
 31
0.0
  0
SPLINE
  5
34e
100
AcDbEntity
  8
Calque_1
 62
7
100
AcDbSpline
 70
8
 71
3
 72
8
 73
4
 74
0
 40
0
 40
0
 40
0
 40
0
 40
1
 40
1
 40
1
 40
1
 10
430.637220
 20
343.222730
 30
0.0
 10
430.637220
 20
343.962277
 30
0.0
 10
430.506307
 20
344.511193
 30
0.0
 10
430.244480
 20
344.869480
 30
0.0
  0
SPLINE
  5
34f
100
AcDbEntity
  8
Calque_1
 62
7
100
AcDbSpline
 70
8
 71
3
 72
8
 73
4
 74
0
 40
0
 40
0
 40
0
 40
0
 40
1
 40
1
 40
1
 40
1
 10
430.244480
 20
344.869480
 30
0.0
 10
429.982653
 20
345.227773
 30
0.0
 10
429.583023
 20
345.406920
 30
0.0
 10
429.045590
 20
345.406920
 30
0.0
  0
SPLINE
  5
350
100
AcDbEntity
  8
Calque_1
 62
7
100
AcDbSpline
 70
8
 71
3
 72
8
 73
4
 74
0
 40
0
 40
0
 40
0
 40
0
 40
1
 40
1
 40
1
 40
1
 10
429.045590
 20
345.406920
 30
0.0
 10
428.388723
 20
345.406920
 30
0.0
 10
427.869663
 20
345.188730
 30
0.0
 10
427.488410
 20
344.752350
 30
0.0
  0
SPLINE
  5
351
100
AcDbEntity
  8
Calque_1
 62
7
100
AcDbSpline
 70
8
 71
3
 72
8
 73
4
 74
0
 40
0
 40
0
 40
0
 40
0
 40
1
 40
1
 40
1
 40
1
 10
427.488410
 20
344.752350
 30
0.0
 10
427.107150
 20
344.315970
 30
0.0
 10
426.916520
 20
343.721117
 30
0.0
 10
426.916520
 20
342.967790
 30
0.0
  0
LINE
  5
352
100
AcDbEntity
  8
Calque_1
 62
7
100
AcDbLine
 10
426.916520
 20
342.967790
 30
0.0
 11
426.916520
 21
338.606300
 31
0.0
  0
LINE
  5
353
100
AcDbEntity
  8
Calque_1
 62
7
100
AcDbLine
 10
426.916520
 20
338.606300
 30
0.0
 11
425.641840
 21
338.606300
 31
0.0
  0
LINE
  5
354
100
AcDbEntity
  8
Calque_1
 62
7
100
AcDbLine
 10
425.641840
 20
338.606300
 30
0.0
 11
425.641840
 21
343.222730
 31
0.0
  0
SPLINE
  5
355
100
AcDbEntity
  8
Calque_1
 62
7
100
AcDbSpline
 70
8
 71
3
 72
8
 73
4
 74
0
 40
0
 40
0
 40
0
 40
0
 40
1
 40
1
 40
1
 40
1
 10
425.641840
 20
343.222730
 30
0.0
 10
425.641840
 20
343.966870
 30
0.0
 10
425.510927
 20
344.515787
 30
0.0
 10
425.249100
 20
344.869480
 30
0.0
  0
SPLINE
  5
356
100
AcDbEntity
  8
Calque_1
 62
7
100
AcDbSpline
 70
8
 71
3
 72
8
 73
4
 74
0
 40
0
 40
0
 40
0
 40
0
 40
1
 40
1
 40
1
 40
1
 10
425.249100
 20
344.869480
 30
0.0
 10
424.987267
 20
345.227773
 30
0.0
 10
424.583040
 20
345.406920
 30
0.0
 10
424.036420
 20
345.406920
 30
0.0
  0
SPLINE
  5
357
100
AcDbEntity
  8
Calque_1
 62
7
100
AcDbSpline
 70
8
 71
3
 72
8
 73
4
 74
0
 40
0
 40
0
 40
0
 40
0
 40
1
 40
1
 40
1
 40
1
 10
424.036420
 20
345.406920
 30
0.0
 10
423.388740
 20
345.406920
 30
0.0
 10
422.874273
 20
345.186433
 30
0.0
 10
422.493020
 20
344.745460
 30
0.0
  0
SPLINE
  5
358
100
AcDbEntity
  8
Calque_1
 62
7
100
AcDbSpline
 70
8
 71
3
 72
8
 73
4
 74
0
 40
0
 40
0
 40
0
 40
0
 40
1
 40
1
 40
1
 40
1
 10
422.493020
 20
344.745460
 30
0.0
 10
422.111760
 20
344.309080
 30
0.0
 10
421.921130
 20
343.716523
 30
0.0
 10
421.921130
 20
342.967790
 30
0.0
  0
LINE
  5
359
100
AcDbEntity
  8
Calque_1
 62
7
100
AcDbLine
 10
421.921130
 20
342.967790
 30
0.0
 11
421.921130
 21
338.606300
 31
0.0
  0
LINE
  5
35a
100
AcDbEntity
  8
Calque_1
 62
7
100
AcDbLine
 10
421.921130
 20
338.606300
 30
0.0
 11
420.646450
 21
338.606300
 31
0.0
  0
LINE
  5
35b
100
AcDbEntity
  8
Calque_1
 62
7
100
AcDbLine
 10
420.646450
 20
338.606300
 30
0.0
 11
420.646450
 21
346.323320
 31
0.0
  0
LINE
  5
35c
100
AcDbEntity
  8
Calque_1
 62
7
100
AcDbLine
 10
420.646450
 20
346.323320
 30
0.0
 11
421.921130
 21
346.323320
 31
0.0
  0
LINE
  5
35d
100
AcDbEntity
  8
Calque_1
 62
7
100
AcDbLine
 10
421.921130
 20
346.323320
 30
0.0
 11
421.921130
 21
345.124420
 31
0.0
  0
SPLINE
  5
35e
100
AcDbEntity
  8
Calque_1
 62
7
100
AcDbSpline
 70
8
 71
3
 72
8
 73
4
 74
0
 40
0
 40
0
 40
0
 40
0
 40
1
 40
1
 40
1
 40
1
 10
421.921130
 20
345.124420
 30
0.0
 10
422.210523
 20
345.597547
 30
0.0
 10
422.557330
 20
345.946650
 30
0.0
 10
422.961550
 20
346.171730
 30
0.0
  0
SPLINE
  5
35f
100
AcDbEntity
  8
Calque_1
 62
7
100
AcDbSpline
 70
8
 71
3
 72
8
 73
4
 74
0
 40
0
 40
0
 40
0
 40
0
 40
1
 40
1
 40
1
 40
1
 10
422.961550
 20
346.171730
 30
0.0
 10
423.365777
 20
346.396810
 30
0.0
 10
423.845793
 20
346.509350
 30
0.0
 10
424.401600
 20
346.509350
 30
0.0
  0
SPLINE
  5
360
100
AcDbEntity
  8
Calque_1
 62
7
100
AcDbSpline
 70
8
 71
3
 72
8
 73
4
 74
0
 40
0
 40
0
 40
0
 40
0
 40
1
 40
1
 40
1
 40
1
 10
424.401600
 20
346.509350
 30
0.0
 10
424.962007
 20
346.509350
 30
0.0
 10
425.437430
 20
346.366953
 30
0.0
 10
425.827870
 20
346.082160
 30
0.0
  0
SPLINE
  5
361
100
AcDbEntity
  8
Calque_1
 62
7
100
AcDbSpline
 70
8
 71
3
 72
8
 73
4
 74
0
 40
0
 40
0
 40
0
 40
0
 40
1
 40
1
 40
1
 40
1
 10
425.827870
 20
346.082160
 30
0.0
 10
426.222910
 20
345.797367
 30
0.0
 10
426.514597
 20
345.383953
 30
0.0
 10
426.702930
 20
344.841920
 30
0.0
  0
LINE
  5
362
100
AcDbEntity
  8
Calque_1
 62
7
100
AcDbLine
 10
426.702930
 20
344.841920
 30
0.0
 11
426.702930
 21
344.841920
 31
0.0
  0
ENDSEC
  0
SECTION
  2
OBJECTS
  0
DICTIONARY
  5
C
330
0
100
AcDbDictionary
  3
ACAD_GROUP
350
D
  3
ACAD_MLINESTYLE
350
17
  0
DICTIONARY
  5
D
330
C
100
AcDbDictionary
  0
DICTIONARY
  5
1A
330
C
100
AcDbDictionary
  0
DICTIONARY
  5
17
330
C
100
AcDbDictionary
  3
STANDARD
350
18
  0
DICTIONARY
  5
19
330
C
100
AcDbDictionary
  0
ENDSEC
  0
EOF
