<?xml version="1.0" encoding="UTF-8" standalone="no"?>
<!-- Created with Inkscape (http://www.inkscape.org/) -->

<svg
   xmlns:dc="http://purl.org/dc/elements/1.1/"
   xmlns:cc="http://creativecommons.org/ns#"
   xmlns:rdf="http://www.w3.org/1999/02/22-rdf-syntax-ns#"
   xmlns:svg="http://www.w3.org/2000/svg"
   xmlns="http://www.w3.org/2000/svg"
   xmlns:sodipodi="http://sodipodi.sourceforge.net/DTD/sodipodi-0.dtd"
   xmlns:inkscape="http://www.inkscape.org/namespaces/inkscape"
   width="1000.7925mm"
   height="1024.1022mm"
   viewBox="0 0 1000.7926 1024.1022"
   version="1.1"
   id="svg8"
   inkscape:version="0.92.3 (2405546, 2018-03-11)"
   sodipodi:docname="bottle.svg">
  <defs
     id="defs2" />
  <sodipodi:namedview
     id="base"
     pagecolor="#ffffff"
     bordercolor="#666666"
     borderopacity="1.0"
     inkscape:pageopacity="0.0"
     inkscape:pageshadow="2"
     inkscape:zoom="0.29999999"
     inkscape:cx="1541.2162"
     inkscape:cy="1400.2182"
     inkscape:document-units="mm"
     inkscape:current-layer="layer1"
     showgrid="false"
     inkscape:window-width="2493"
     inkscape:window-height="1385"
     inkscape:window-x="1987"
     inkscape:window-y="27"
     inkscape:window-maximized="1"
     showguides="true"
     inkscape:guide-bbox="true"
     fit-margin-top="0"
     fit-margin-left="0"
     fit-margin-right="0"
     fit-margin-bottom="0"
     inkscape:measure-start="2150.27,985.117"
     inkscape:measure-end="2173.19,985.117" />
  <metadata
     id="metadata5">
    <rdf:RDF>
      <cc:Work
         rdf:about="">
        <dc:format>image/svg+xml</dc:format>
        <dc:type
           rdf:resource="http://purl.org/dc/dcmitype/StillImage" />
        <dc:title />
      </cc:Work>
    </rdf:RDF>
  </metadata>
  <g
     inkscape:label="Calque 1"
     inkscape:groupmode="layer"
     id="layer1"
     transform="translate(569.14222,194.85229)">
    <g
       id="g3835"
       transform="matrix(0.26458333,0,0,0.26458333,28.084109,12.119889)" />
    <g
       id="g3837"
       transform="matrix(0.26458333,0,0,0.26458333,28.084109,12.119889)" />
    <g
       id="g3839"
       transform="matrix(0.26458333,0,0,0.26458333,28.084109,12.119889)" />
    <g
       id="g3841"
       transform="matrix(0.26458333,0,0,0.26458333,28.084109,12.119889)" />
    <g
       id="g3843"
       transform="matrix(0.26458333,0,0,0.26458333,28.084109,12.119889)" />
    <g
       id="g3845"
       transform="matrix(0.26458333,0,0,0.26458333,28.084109,12.119889)" />
    <g
       id="g3847"
       transform="matrix(0.26458333,0,0,0.26458333,28.084109,12.119889)" />
    <g
       id="g3849"
       transform="matrix(0.26458333,0,0,0.26458333,28.084109,12.119889)" />
    <g
       id="g3851"
       transform="matrix(0.26458333,0,0,0.26458333,28.084109,12.119889)" />
    <g
       id="g3853"
       transform="matrix(0.26458333,0,0,0.26458333,28.084109,12.119889)" />
    <g
       id="g3855"
       transform="matrix(0.26458333,0,0,0.26458333,28.084109,12.119889)" />
    <g
       id="g3857"
       transform="matrix(0.26458333,0,0,0.26458333,28.084109,12.119889)" />
    <g
       id="g3859"
       transform="matrix(0.26458333,0,0,0.26458333,28.084109,12.119889)" />
    <g
       id="g3861"
       transform="matrix(0.26458333,0,0,0.26458333,28.084109,12.119889)" />
    <g
       id="g3863"
       transform="matrix(0.26458333,0,0,0.26458333,28.084109,12.119889)" />
    <g
       id="g37428">
      <path
         sodipodi:nodetypes="cccccccccsccccccccccccccccc"
         inkscape:connector-curvature="0"
         id="path3896-6-7-3-67-64-7-8-5-0-6"
         d="m -204.90891,535.24962 c -6.24783,8.53591 -9.62837,18.8631 -9.64826,29.47446 0.0178,15.59783 8.27125,30.28518 20.61286,39.67823 l -29.51173,93.84635 h 9.34208 c 0,0 12.26501,-25.5016 17.56153,-42.08691 3.47717,-10.88818 13.88245,-27.4178 16.0249,-37.41187 6.42146,3.00389 9.35345,-0.35181 16.38376,-0.37036 7.03028,0.0185 9.96232,3.37425 16.38374,0.37036 2.14246,9.99407 12.54776,26.52366 16.02487,37.41187 5.29658,16.58531 17.56192,42.08691 17.56192,42.08691 h 9.34239 l -29.51239,-93.84635 c 12.34171,-9.39305 20.59546,-24.0804 20.61327,-39.67823 -0.0198,-10.61136 -3.40064,-20.93855 -9.64856,-29.47446 v 29.38989 0 c 0,0.0281 0,0.0563 0,0.0845 -0.0188,20.07114 -18.17671,36.99072 -37.9162,39.47502 v 5.40284 h -2.85058 -2.85127 v -5.40284 c -19.73953,-2.4843 -37.89692,-19.40388 -37.91539,-39.47502 0.003,-0.0282 0.003,-0.0564 0.004,-0.0845 h -0.003 z"
         style="fill:none;stroke:#ff0000;stroke-width:0.26540917" />
      <g
         style="stroke-width:0.99547261"
         transform="matrix(1.0000651,0,0,1.0090509,-467.18478,-69.527878)"
         id="g32567-2-3-2-9-1">
        <path
           inkscape:connector-curvature="0"
           id="path3823-4-6-9-3-5"
           transform="matrix(0.26171406,0,0,0.26171261,-313.84521,-138.77511)"
           d="m 1679.0879,2400.584 c -3.5224,0.043 -7.0315,1.2094 -9.9609,3.4883 -6.0774,4.5727 -8.3528,12.636 -5.5625,19.7109 6.9002,17.092 10.8415,35.2339 11.6523,53.6484 -3.8823,-4.6204 -8.2705,-8.789 -13.084,-12.4296 -5.7435,-4.3205 -13.5883,-4.5518 -19.5762,-0.5762 -5.9891,3.9757 -8.8211,11.2931 -7.0683,18.2637 6.0716,23.8855 5.7763,42.6003 -0.8457,52.7753 -3.5961,5.3052 -9.3413,8.7605 -15.7129,9.4532 -44.7107,6.2727 -42.8912,18.5239 -67.4277,-27.0567 -5.1325,-5.3101 -13.1297,-6.6561 -19.7168,-3.3164 -6.5852,3.1509 -10.3401,10.235 -9.252,17.4531 4.0453,29.2117 0.8511,50.3826 -8.4766,56.6407 -10.7556,7.9518 -19.7128,17.9676 -26.4257,29.373 -20.7578,-9.7776 -43.41,-14.8775 -66.3555,-14.9375 -0.159,0 -0.3176,0.011 -0.4766,0.012 -0.1589,-9e-4 -0.3176,-0.01 -0.4765,-0.01 -22.9455,0.06 -45.5977,5.1599 -66.3555,14.9375 -6.7129,-11.4054 -15.6702,-21.4212 -26.4258,-29.373 -9.3277,-6.2581 -12.5218,-27.4289 -8.4765,-56.6406 1.0881,-7.2181 -2.6668,-14.3023 -9.252,-17.4532 -6.5872,-3.3397 -14.5843,-1.9937 -19.7168,3.3164 -24.5365,45.5806 -22.717,33.3294 -67.4277,27.0567 -6.3716,-0.6927 -12.1168,-4.148 -15.7129,-9.4531 -6.622,-10.1752 -6.9173,-28.8898 -0.8457,-52.7754 1.7528,-6.9705 -1.0793,-14.288 -7.0684,-18.2637 -5.9879,-3.9756 -13.8327,-3.7443 -19.5762,0.5762 -4.8135,3.6407 -9.2016,7.8092 -13.0839,12.4296 0.8108,-18.4145 4.7521,-36.5564 11.6523,-53.6484 2.7903,-7.0749 0.5149,-15.1381 -5.5625,-19.7109 -2.9294,-2.2789 -6.4385,-3.445 -9.9609,-3.4883 v 0 c -3.5224,-0.044 -7.0589,1.0358 -10.043,3.2422 -17.8766,13.1441 -38.0571,41.0652 -32.7656,98.6739 0,2.3063 0.7306,56.7189 64.3945,84.0058 16.8262,7.0282 34.2764,12.453 52.1211,16.2031 30.0722,5.0309 57.8545,19.2047 79.5801,40.5782 -0.7713,0.6642 -1.5368,1.3385 -2.2949,2.0175 -4.0417,2.1705 -7.7429,4.9305 -10.9649,8.2129 -15.9588,-13.329 -51.2601,-37.5112 -91.6309,-31.5761 -4.1755,0.6072 -7.2696,4.193 -7.2597,8.4121 0.6598,21.1799 9.4717,41.2855 24.5937,56.1308 12.7745,11.0006 28.5451,17.7495 45.1348,19.4805 -6.37,17.2199 -9.6637,35.4231 -9.7305,53.7832 0.078,79.5561 67.3695,146.2442 146.0762,155.4492 v -36.2949 h 11.0781 11.0782 v 36.2949 c 78.7067,-9.205 145.9982,-75.8931 146.0761,-155.4492 -0.067,-18.3601 -3.3605,-36.5633 -9.7304,-53.7832 16.5896,-1.731 32.3602,-8.4799 45.1347,-19.4805 15.122,-14.8453 23.934,-34.9509 24.5938,-56.1308 0.01,-4.2191 -3.0843,-7.8049 -7.2598,-8.4121 -40.3707,-5.9351 -75.672,18.2472 -91.6309,31.5761 -3.2219,-3.2823 -6.9231,-6.0423 -10.9648,-8.2129 -0.7581,-0.6789 -1.5236,-1.3533 -2.2949,-2.0175 21.7256,-21.3736 49.5079,-35.5473 79.5801,-40.5782 17.8447,-3.7501 35.2949,-9.1749 52.1211,-16.2031 63.6639,-27.2869 64.3945,-81.6995 64.3945,-84.0058 5.2915,-57.6087 -14.889,-85.5298 -32.7656,-98.6739 -2.9841,-2.2064 -6.5206,-3.2861 -10.043,-3.2422 z"
           style="fill:none;stroke:#ff0000;stroke-width:1.20299995" />
        <path
           inkscape:connector-curvature="0"
           id="path3896-1-2-7-1-6-5"
           d="M 75.841986,584.71866 A 17.893837,17.893837 0 0 1 57.948148,602.61248 17.893837,17.893837 0 0 1 40.054313,584.71866 17.893837,17.893837 0 0 1 57.948148,566.82481 17.893837,17.893837 0 0 1 75.841986,584.71866 Z"
           style="fill:none;stroke:#ff0000;stroke-width:0.21136604" />
      </g>
      <path
         sodipodi:nodetypes="cccccccccsccccccccccccccccc"
         inkscape:connector-curvature="0"
         id="path3896-6-7-3-67-64-7-8-5-0-6-6"
         d="m -309.19308,773.14419 c 10.51644,1.1427 21.15031,-1.09322 30.34996,-6.3817 13.49931,-7.81434 22.09208,-22.30571 24.05598,-37.69041 l 96.02917,-21.36519 -4.67106,-8.0905 c 0,0 -28.21754,2.12897 -45.22912,5.83476 -11.16801,2.43271 -30.68569,1.68625 -40.41205,4.82786 -0.60929,-7.06304 -4.98142,-7.92432 -8.51263,-14.00356 -3.49887,-6.0978 -2.05895,-10.31466 -7.87113,-14.37394 7.58391,-6.85245 16.69609,-24.12883 24.38678,-32.58443 11.71492,-12.87989 27.66709,-36.25313 27.66709,-36.25313 l -4.67128,-8.09086 -66.51656,72.48251 c -14.3059,-5.99227 -31.15236,-5.79671 -44.66945,1.98683 -9.17983,5.32281 -16.43297,13.41432 -20.70138,23.0935 l 25.45257,-14.69505 v 0 c 0.0248,-0.0143 0.0488,-0.0282 0.0737,-0.0425 17.39153,-10.01934 41.12363,-2.75317 53.14495,13.09974 l 4.67898,-2.70141 1.42532,2.46872 1.42562,2.46924 -4.67898,2.70141 c 7.71829,18.33715 2.14424,42.52161 -15.22867,52.57321 -0.0248,0.0143 -0.0488,0.0282 -0.0737,0.0425 v 0 z"
         style="fill:none;stroke:#ff0000;stroke-width:0.26540917" />
      <path
         sodipodi:nodetypes="cccccccccsccccccccccccccccc"
         inkscape:connector-curvature="0"
         id="path3896-6-7-3-67-64-7-8-5-0-6-9"
         d="m -347.99104,484.6682 c 1.6179,10.45369 6.52992,20.14652 14.01922,27.66396 11.0419,11.01675 27.26352,15.56619 42.63225,13.48124 l 45.49144,87.22734 6.60585,-6.60585 c 0,0 -9.35967,-26.70502 -17.34207,-42.17783 -5.24037,-10.15783 -9.57094,-29.20367 -15.12286,-37.78549 6.66473,-2.41659 6.3651,-6.86266 11.32318,-11.84694 4.98426,-4.9581 9.43034,-4.65845 11.84693,-11.32318 8.58183,5.55192 27.62765,9.88248 37.78551,15.12287 15.47283,7.98236 42.17782,17.34206 42.17782,17.34206 l 6.60583,-6.60584 -87.22732,-45.49145 c 2.08495,-15.36873 -2.46449,-31.59033 -13.48124,-42.63225 -7.51741,-7.48932 -17.21028,-12.40132 -27.66396,-14.01922 l 20.78178,20.78178 -0.002,0.003 c 0.0199,0.02 0.0399,0.0398 0.0626,0.057 14.17931,14.20557 13.30361,39.00914 1.10234,54.72376 l 3.82038,3.82038 -2.01568,2.01567 -2.01615,2.01615 -3.82037,-3.82038 c -15.71463,12.20129 -40.51778,13.07657 -54.72329,-1.10281 -0.0178,-0.0221 -0.0378,-0.0419 -0.0571,-0.0626 l -0.002,0.003 z"
         style="fill:none;stroke:#ff0000;stroke-width:0.26540917" />
      <path
         sodipodi:nodetypes="cccccccccsccccccccccccccccc"
         inkscape:connector-curvature="0"
         id="path3896-6-7-3-67-64-7-8-5-0-6-6-3"
         d="m -329.72272,562.02605 c -8.53591,-6.24781 -18.8631,-9.62837 -29.47447,-9.64826 -15.59783,0.0178 -30.28516,8.27126 -39.67821,20.61287 l -93.84635,-29.51169 v 9.34209 c 0,0 25.5016,12.26495 42.0869,17.56152 10.88818,3.47711 27.4178,13.88242 37.41188,16.02487 -3.0039,6.42142 0.35181,9.35347 0.37035,16.38375 -0.0185,7.03029 -3.37425,9.96234 -0.37035,16.38376 -9.99408,2.14246 -26.52367,12.54773 -37.41188,16.02491 -16.5853,5.29656 -42.0869,17.56153 -42.0869,17.56153 v 9.34208 l 93.84635,-29.51175 c 9.39305,12.34163 24.08038,20.5951 39.67821,20.61289 10.61137,-0.0199 20.93856,-3.40043 29.47447,-9.64827 h -29.38988 v -0.003 c -0.0282,0 -0.0563,0 -0.0847,0.004 -20.07112,-0.0186 -36.99071,-18.17656 -39.475,-37.91609 h -5.40285 v -2.85054 -2.85133 h 5.40285 c 2.48429,-19.73948 19.40388,-37.89691 39.475,-37.91541 0.0283,0 0.0564,0 0.0847,0 v 0 z"
         style="fill:none;stroke:#ff0000;stroke-width:0.26540917" />
      <path
         sodipodi:nodetypes="cccccccccccccccccccscccccsc"
         style="fill:none;stroke:#ff0000;stroke-width:0.26014811"
         d="m -412.28331,731.91183 20.63633,42.17123 c 0,0 7.54913,13.14242 13.55635,17.30451 6.35863,5.79868 15.25644,6.96286 24.09837,7.50983 v -9.76684 h 5.73747 v 9.76684 h 162.20504 v -9.76684 h 5.73738 v 9.76684 c 0,0 11.68852,-0.1579 26.72733,-0.66075 7.9105,-0.2645 18.78044,-3.37768 30.94478,-7.32927 14.48762,-4.70625 19.87006,-10.41859 20.42144,-11.38805 1.73806,-3.05499 1.29934,-13.69457 1.29934,-13.69457 h -12.66754 v 9.82832 h -5.73718 v -9.82832 h -11.82691 c -7.89131,0 -2.48463,-1.05345 -8.32429,2.99731 -3.98092,4.07675 -10.61383,12.96613 -24.10175,13.77998 -10.54983,0.85158 -16.52877,1.41561 -16.73512,1.11259 l -184.60189,0.0948 c 0,0 -8.5019,-11.26498 -19.56325,-25.46459 -7.994,-11.81314 -30.65177,-32.2487 -27.8059,-26.43305 z"
         id="rect3980-3-1-5-5-0-4"
         inkscape:connector-curvature="0" />
      <path
         id="rect212-62-7"
         d="M -495.30064,402.18047 H -95.401757 V 802.07845 H -495.30064 Z"
         style="fill:none;stroke:#ff0000;stroke-width:0.10156726;stroke-miterlimit:4;stroke-dasharray:none"
         inkscape:connector-curvature="0" />
      <g
         style="stroke-width:0.99547261"
         transform="matrix(-1.0000651,0,0,-1.0090509,-351.95101,1272.8089)"
         id="g32567-2-3-2-9-1-7">
        <path
           inkscape:connector-curvature="0"
           id="path3823-4-6-9-3-5-4"
           d="m 1679.0879,2400.584 c -3.5224,0.043 -7.0315,1.2094 -9.9609,3.4883 -6.0774,4.5727 -8.3528,12.636 -5.5625,19.7109 6.9002,17.092 10.8415,35.2339 11.6523,53.6484 -3.8823,-4.6204 -8.2705,-8.789 -13.084,-12.4296 -5.7435,-4.3205 -13.5883,-4.5518 -19.5762,-0.5762 -5.9891,3.9757 -8.8211,11.2931 -7.0683,18.2637 6.0716,23.8855 5.7763,42.6003 -0.8457,52.7753 -3.5961,5.3052 -9.3413,8.7605 -15.7129,9.4532 -44.7107,6.2727 -42.8912,18.5239 -67.4277,-27.0567 -5.1325,-5.3101 -13.1297,-6.6561 -19.7168,-3.3164 -6.5852,3.1509 -10.3401,10.235 -9.252,17.4531 4.0453,29.2117 0.8511,50.3826 -8.4766,56.6407 -10.7556,7.9518 -19.7128,17.9676 -26.4257,29.373 -20.7578,-9.7776 -43.41,-14.8775 -66.3555,-14.9375 -0.159,0 -0.3176,0.011 -0.4766,0.012 -0.1589,-9e-4 -0.3176,-0.01 -0.4765,-0.01 -22.9455,0.06 -45.5977,5.1599 -66.3555,14.9375 -6.7129,-11.4054 -15.6702,-21.4212 -26.4258,-29.373 -9.3277,-6.2581 -12.5218,-27.4289 -8.4765,-56.6406 1.0881,-7.2181 -2.6668,-14.3023 -9.252,-17.4532 -6.5872,-3.3397 -14.5843,-1.9937 -19.7168,3.3164 -24.5365,45.5806 -22.717,33.3294 -67.4277,27.0567 -6.3716,-0.6927 -12.1168,-4.148 -15.7129,-9.4531 -6.622,-10.1752 -6.9173,-28.8898 -0.8457,-52.7754 1.7528,-6.9705 -1.0793,-14.288 -7.0684,-18.2637 -5.9879,-3.9756 -13.8327,-3.7443 -19.5762,0.5762 -4.8135,3.6407 -9.2016,7.8092 -13.0839,12.4296 0.8108,-18.4145 4.7521,-36.5564 11.6523,-53.6484 2.7903,-7.0749 0.5149,-15.1381 -5.5625,-19.7109 -2.9294,-2.2789 -6.4385,-3.445 -9.9609,-3.4883 v 0 c -3.5224,-0.044 -7.0589,1.0358 -10.043,3.2422 -17.8766,13.1441 -38.0571,41.0652 -32.7656,98.6739 0,2.3063 0.7306,56.7189 64.3945,84.0058 16.8262,7.0282 34.2764,12.453 52.1211,16.2031 30.0722,5.0309 57.8545,19.2047 79.5801,40.5782 -0.7713,0.6642 -1.5368,1.3385 -2.2949,2.0175 -4.0417,2.1705 -7.7429,4.9305 -10.9649,8.2129 -15.9588,-13.329 -51.2601,-37.5112 -91.6309,-31.5761 -4.1755,0.6072 -7.2696,4.193 -7.2597,8.4121 0.6598,21.1799 9.4717,41.2855 24.5937,56.1308 12.7745,11.0006 28.5451,17.7495 45.1348,19.4805 -6.37,17.2199 -9.6637,35.4231 -9.7305,53.7832 0.078,79.5561 67.3695,146.2442 146.0762,155.4492 v -36.2949 h 11.0781 11.0782 v 36.2949 c 78.7067,-9.205 145.9982,-75.8931 146.0761,-155.4492 -0.067,-18.3601 -3.3605,-36.5633 -9.7304,-53.7832 16.5896,-1.731 32.3602,-8.4799 45.1347,-19.4805 15.122,-14.8453 23.934,-34.9509 24.5938,-56.1308 0.01,-4.2191 -3.0843,-7.8049 -7.2598,-8.4121 -40.3707,-5.9351 -75.672,18.2472 -91.6309,31.5761 -3.2219,-3.2823 -6.9231,-6.0423 -10.9648,-8.2129 -0.7581,-0.6789 -1.5236,-1.3533 -2.2949,-2.0175 21.7256,-21.3736 49.5079,-35.5473 79.5801,-40.5782 17.8447,-3.7501 35.2949,-9.1749 52.1211,-16.2031 63.6639,-27.2869 64.3945,-81.6995 64.3945,-84.0058 5.2915,-57.6087 -14.889,-85.5298 -32.7656,-98.6739 -2.9841,-2.2064 -6.5206,-3.2861 -10.043,-3.2422 z"
           style="fill:none;stroke:#ff0000;stroke-width:1.20299995"
           transform="matrix(0.26171406,0,0,0.26171261,-313.84521,-138.77511)" />
        <path
           inkscape:connector-curvature="0"
           id="path3896-1-2-7-1-6-5-5"
           d="M 75.841986,584.71866 A 17.893837,17.893837 0 0 1 57.948148,602.61248 17.893837,17.893837 0 0 1 40.054313,584.71866 17.893837,17.893837 0 0 1 57.948148,566.82481 17.893837,17.893837 0 0 1 75.841986,584.71866 Z"
           style="fill:none;stroke:#ff0000;stroke-width:0.21136604" />
      </g>
      <path
         sodipodi:nodetypes="cccccccccccccccccccscccccsc"
         style="fill:none;stroke:#ff0000;stroke-width:0.26014811"
         d="m -411.26111,473.10532 20.63632,-42.17122 c 0,0 7.54912,-13.14242 13.55635,-17.30452 6.35862,-5.79868 15.25647,-6.96286 24.09841,-7.50983 v 9.76684 h 5.73745 v -9.76684 h 162.20517 v 9.76684 h 5.73738 v -9.76684 c 0,0 11.68842,0.1579 26.72679,0.66075 7.91079,0.2645 18.78073,3.37768 30.94507,7.32927 14.48752,4.70625 19.86967,10.4186 20.42116,11.38805 1.737958,3.05499 1.299239,13.69457 1.299239,13.69457 h -12.667159 v -9.82832 h -5.73718 v 9.82832 h -11.82691 c -7.89131,0 -2.48463,1.05345 -8.32429,-2.99731 -3.98091,-4.07675 -10.61392,-12.96612 -24.10189,-13.77998 -10.54954,-0.85158 -16.52838,-1.4156 -16.73473,-1.11259 l -184.602,-0.0949 c 0,0 -8.50194,11.26498 -19.5633,25.46459 -7.99399,11.81314 -30.65177,32.2487 -27.80588,26.43305 z"
         id="rect3980-3-1-5-5-0-4-2"
         inkscape:connector-curvature="0" />
      <g
         id="text37007"
         style="font-style:normal;font-weight:normal;font-size:10.58333302px;line-height:125%;font-family:sans-serif;letter-spacing:0px;word-spacing:0px;fill:#000000;fill-opacity:1;stroke:none;stroke-width:0.26458332px;stroke-linecap:butt;stroke-linejoin:miter;stroke-opacity:1"
         aria-label="Pour plaque
de 3mm">
        <path
           inkscape:connector-curvature="0"
           id="path37280"
           style="font-size:14.11111069px;stroke-width:0.26458332px"
           d="m -191.86952,467.35476 v 3.8654 h 1.7501 q 0.97152,0 1.50207,-0.50298 0.53054,-0.50299 0.53054,-1.43316 0,-0.92329 -0.53054,-1.42627 -0.53055,-0.50299 -1.50207,-0.50299 z m -1.39182,-1.14377 h 3.14192 q 1.72944,0 2.61139,0.78548 0.88883,0.7786 0.88883,2.28755 0,1.52273 -0.88883,2.30132 -0.88195,0.77859 -2.61139,0.77859 h -1.7501 v 4.13412 h -1.39182 z" />
        <path
           inkscape:connector-curvature="0"
           id="path37282"
           style="font-size:14.11111069px;stroke-width:0.26458332px"
           d="m -182.30594,469.66987 q -1.01975,0 -1.6123,0.79926 -0.59256,0.79237 -0.59256,2.1773 0,1.38493 0.58567,2.18419 0.59255,0.79237 1.61919,0.79237 1.01286,0 1.60541,-0.79926 0.59256,-0.79926 0.59256,-2.1773 0,-1.37115 -0.59256,-2.17041 -0.59255,-0.80615 -1.60541,-0.80615 z m 0,-1.07487 q 1.65365,0 2.5976,1.07487 0.94396,1.07487 0.94396,2.97656 0,1.8948 -0.94396,2.97656 -0.94395,1.07487 -2.5976,1.07487 -1.66054,0 -2.60449,-1.07487 -0.93707,-1.08176 -0.93707,-2.97656 0,-1.90169 0.93707,-2.97656 0.94395,-1.07487 2.60449,-1.07487 z" />
        <path
           inkscape:connector-curvature="0"
           id="path37284"
           style="font-size:14.11111069px;stroke-width:0.26458332px"
           d="m -176.80068,473.45258 v -4.67155 h 1.2678 v 4.62332 q 0,1.09554 0.42719,1.64676 0.42719,0.54432 1.28158,0.54432 1.02664,0 1.61919,-0.65457 0.59945,-0.65456 0.59945,-1.78456 v -4.37527 h 1.26779 v 7.71702 h -1.26779 v -1.18512 q -0.46164,0.7028 -1.07487,1.04731 -0.60634,0.33762 -1.41249,0.33762 -1.32981,0 -2.01883,-0.82682 -0.68902,-0.82682 -0.68902,-2.41846 z m 3.19016,-4.85758 z" />
        <path
           inkscape:connector-curvature="0"
           id="path37286"
           style="font-size:14.11111069px;stroke-width:0.26458332px"
           d="m -163.24078,469.96615 q -0.2136,-0.12403 -0.46853,-0.17915 -0.24805,-0.062 -0.55122,-0.062 -1.07487,0 -1.65365,0.7028 -0.57188,0.69591 -0.57188,2.00504 v 4.06522 h -1.27469 v -7.71702 h 1.27469 v 1.1989 q 0.39963,-0.7028 1.04042,-1.04042 0.64079,-0.34451 1.55718,-0.34451 0.13091,0 0.28939,0.0207 0.15847,0.0138 0.3514,0.0482 z" />
        <path
           inkscape:connector-curvature="0"
           id="path37288"
           style="font-size:14.11111069px;stroke-width:0.26458332px"
           d="m -156.17834,475.34049 v 4.09278 h -1.27468 v -10.65224 h 1.27468 v 1.17134 q 0.39964,-0.68902 1.00597,-1.01975 0.61323,-0.33762 1.46072,-0.33762 1.4056,0 2.28066,1.11621 0.88194,1.11621 0.88194,2.93522 0,1.81901 -0.88194,2.93522 -0.87506,1.11621 -2.28066,1.11621 -0.84749,0 -1.46072,-0.33073 -0.60633,-0.33762 -1.00597,-1.02664 z m 4.31326,-2.69406 q 0,-1.39871 -0.57877,-2.19108 -0.57189,-0.79926 -1.57786,-0.79926 -1.00596,0 -1.58474,0.79926 -0.57189,0.79237 -0.57189,2.19108 0,1.39871 0.57189,2.19797 0.57878,0.79237 1.58474,0.79237 1.00597,0 1.57786,-0.79237 0.57877,-0.79926 0.57877,-2.19797 z" />
        <path
           inkscape:connector-curvature="0"
           id="path37290"
           style="font-size:14.11111069px;stroke-width:0.26458332px"
           d="m -148.44754,465.77691 h 1.26779 v 10.72114 h -1.26779 z" />
        <path
           inkscape:connector-curvature="0"
           id="path37292"
           style="font-size:14.11111069px;stroke-width:0.26458332px"
           d="m -141.02681,472.61887 q -1.53651,0 -2.12906,0.3514 -0.59256,0.3514 -0.59256,1.19889 0,0.67524 0.44097,1.07487 0.44786,0.39274 1.21267,0.39274 1.0542,0 1.6881,-0.74414 0.64079,-0.75103 0.64079,-1.99126 v -0.2825 z m 2.5287,-0.52366 v 4.40284 h -1.26779 v -1.17134 q -0.43408,0.7028 -1.08176,1.04042 -0.64768,0.33073 -1.58474,0.33073 -1.18512,0 -1.88792,-0.66146 -0.69591,-0.66834 -0.69591,-1.78456 0,-1.30224 0.86817,-1.9637 0.87505,-0.66146 2.60449,-0.66146 h 1.77767 v -0.12402 q 0,-0.87506 -0.57878,-1.35048 -0.57188,-0.48231 -1.6123,-0.48231 -0.66146,0 -1.28847,0.15847 -0.627,0.15848 -1.20578,0.47543 v -1.17134 q 0.69591,-0.26871 1.35048,-0.39963 0.65456,-0.1378 1.27468,-0.1378 1.67432,0 2.50114,0.86816 0.82682,0.86817 0.82682,2.63205 z" />
        <path
           inkscape:connector-curvature="0"
           id="path37294"
           style="font-size:14.11111069px;stroke-width:0.26458332px"
           d="m -135.12191,472.64643 q 0,1.39871 0.57188,2.19797 0.57878,0.79237 1.58475,0.79237 1.00596,0 1.58474,-0.79237 0.57878,-0.79926 0.57878,-2.19797 0,-1.39871 -0.57878,-2.19108 -0.57878,-0.79926 -1.58474,-0.79926 -1.00597,0 -1.58475,0.79926 -0.57188,0.79237 -0.57188,2.19108 z m 4.32015,2.69406 q -0.39963,0.68902 -1.01286,1.02664 -0.60634,0.33073 -1.46072,0.33073 -1.39871,0 -2.28065,-1.11621 -0.87506,-1.11621 -0.87506,-2.93522 0,-1.81901 0.87506,-2.93522 0.88194,-1.11621 2.28065,-1.11621 0.85438,0 1.46072,0.33762 0.61323,0.33073 1.01286,1.01975 v -1.17134 h 1.26779 v 10.65224 h -1.26779 z" />
        <path
           inkscape:connector-curvature="0"
           id="path37296"
           style="font-size:14.11111069px;stroke-width:0.26458332px"
           d="m -127.0535,473.45258 v -4.67155 h 1.26779 v 4.62332 q 0,1.09554 0.42719,1.64676 0.4272,0.54432 1.28158,0.54432 1.02664,0 1.61919,-0.65457 0.59945,-0.65456 0.59945,-1.78456 v -4.37527 h 1.2678 v 7.71702 h -1.2678 v -1.18512 q -0.46164,0.7028 -1.07487,1.04731 -0.60634,0.33762 -1.41249,0.33762 -1.3298,0 -2.01882,-0.82682 -0.68902,-0.82682 -0.68902,-2.41846 z m 3.19016,-4.85758 z" />
        <path
           inkscape:connector-curvature="0"
           id="path37298"
           style="font-size:14.11111069px;stroke-width:0.26458332px"
           d="m -111.36453,472.32259 v 0.62012 h -5.8291 q 0.0827,1.30913 0.78548,1.99815 0.70969,0.68213 1.97059,0.68213 0.73036,0 1.41249,-0.17914 0.68902,-0.17915 1.36426,-0.53744 v 1.1989 q -0.68213,0.28938 -1.39871,0.44097 -0.71658,0.15158 -1.45383,0.15158 -1.84657,0 -2.92833,-1.07487 -1.07487,-1.07487 -1.07487,-2.90766 0,-1.8948 1.01975,-3.00412 1.02664,-1.11621 2.76296,-1.11621 1.55719,0 2.4598,1.00597 0.90951,0.99907 0.90951,2.72162 z m -1.2678,-0.37207 q -0.0138,-1.04042 -0.58566,-1.66054 -0.565,-0.62011 -1.50207,-0.62011 -1.06109,0 -1.70187,0.59944 -0.6339,0.59945 -0.73036,1.6881 z" />
        <path
           inkscape:connector-curvature="0"
           id="path37300"
           style="font-size:14.11111069px;stroke-width:0.26458332px"
           d="m -188.23839,484.09793 v -4.17546 h 1.26779 v 10.72114 h -1.26779 v -1.15755 q -0.39963,0.68902 -1.01286,1.02663 -0.60634,0.33073 -1.46072,0.33073 -1.39871,0 -2.28065,-1.11621 -0.87506,-1.11621 -0.87506,-2.93522 0,-1.81901 0.87506,-2.93522 0.88194,-1.11621 2.28065,-1.11621 0.85438,0 1.46072,0.33762 0.61323,0.33073 1.01286,1.01975 z m -4.32015,2.69406 q 0,1.39871 0.57188,2.19797 0.57878,0.79237 1.58475,0.79237 1.00596,0 1.58474,-0.79237 0.57878,-0.79926 0.57878,-2.19797 0,-1.39871 -0.57878,-2.19108 -0.57878,-0.79926 -1.58474,-0.79926 -1.00597,0 -1.58475,0.79926 -0.57188,0.79237 -0.57188,2.19108 z" />
        <path
           inkscape:connector-curvature="0"
           id="path37302"
           style="font-size:14.11111069px;stroke-width:0.26458332px"
           d="m -177.75841,486.46815 v 0.62012 h -5.8291 q 0.0827,1.30914 0.78548,1.99816 0.70969,0.68212 1.97059,0.68212 0.73036,0 1.41249,-0.17914 0.68902,-0.17915 1.36426,-0.53744 v 1.1989 q -0.68213,0.28939 -1.39871,0.44097 -0.71658,0.15158 -1.45383,0.15158 -1.84657,0 -2.92833,-1.07487 -1.07487,-1.07487 -1.07487,-2.90766 0,-1.8948 1.01975,-3.00412 1.02664,-1.11621 2.76296,-1.11621 1.55719,0 2.4598,1.00597 0.90951,0.99908 0.90951,2.72162 z m -1.2678,-0.37207 q -0.0138,-1.04042 -0.58566,-1.66053 -0.565,-0.62012 -1.50207,-0.62012 -1.06109,0 -1.70187,0.59945 -0.6339,0.59944 -0.73036,1.68809 z" />
        <path
           inkscape:connector-curvature="0"
           id="path37304"
           style="font-size:14.11111069px;stroke-width:0.26458332px"
           d="m -166.78923,485.097 q 0.99908,0.2136 1.55718,0.88884 0.565,0.67524 0.565,1.66743 0,1.52273 -1.04731,2.35644 -1.04731,0.83371 -2.97656,0.83371 -0.64768,0 -1.3367,-0.13091 -0.68213,-0.12402 -1.41249,-0.37896 v -1.34359 q 0.57878,0.33762 1.2678,0.50988 0.68902,0.17225 1.44005,0.17225 1.30913,0 1.99126,-0.51676 0.68902,-0.51677 0.68902,-1.50206 0,-0.90951 -0.64079,-1.41938 -0.63389,-0.51677 -1.77078,-0.51677 h -1.19889 v -1.14377 h 1.25402 q 1.02663,0 1.57096,-0.40652 0.54432,-0.41341 0.54432,-1.18511 0,-0.79238 -0.56499,-1.21268 -0.55811,-0.42719 -1.60542,-0.42719 -0.57188,0 -1.22645,0.12402 -0.65457,0.12403 -1.44005,0.38586 v -1.24024 q 0.79237,-0.22049 1.48139,-0.33073 0.69591,-0.11024 1.30914,-0.11024 1.58474,0 2.50803,0.72347 0.92328,0.71658 0.92328,1.94303 0,0.85439 -0.4892,1.44694 -0.4892,0.58567 -1.39182,0.81304 z" />
        <path
           inkscape:connector-curvature="0"
           id="path37306"
           style="font-size:14.11111069px;stroke-width:0.26458332px"
           d="m -156.19212,484.40799 q 0.47543,-0.85439 1.13689,-1.26091 0.66145,-0.40652 1.55718,-0.40652 1.20578,0 1.86035,0.84749 0.65457,0.84061 0.65457,2.39779 v 4.65777 h -1.27469 v -4.61643 q 0,-1.10932 -0.39274,-1.64675 -0.39274,-0.53744 -1.19889,-0.53744 -0.9853,0 -1.55718,0.65457 -0.57189,0.65457 -0.57189,1.78456 v 4.36149 h -1.27468 v -4.61643 q 0,-1.11621 -0.39275,-1.64675 -0.39274,-0.53744 -1.21267,-0.53744 -0.97152,0 -1.5434,0.66146 -0.57189,0.65457 -0.57189,1.77767 v 4.36149 h -1.27468 v -7.71702 h 1.27468 v 1.1989 q 0.43408,-0.70969 1.04042,-1.04731 0.60634,-0.33762 1.44005,-0.33762 0.8406,0 1.42627,0.42719 0.59256,0.42719 0.87505,1.24024 z" />
        <path
           inkscape:connector-curvature="0"
           id="path37308"
           style="font-size:14.11111069px;stroke-width:0.26458332px"
           d="m -142.43929,484.40799 q 0.47542,-0.85439 1.13688,-1.26091 0.66146,-0.40652 1.55718,-0.40652 1.20578,0 1.86035,0.84749 0.65457,0.84061 0.65457,2.39779 v 4.65777 h -1.27469 v -4.61643 q 0,-1.10932 -0.39274,-1.64675 -0.39274,-0.53744 -1.19889,-0.53744 -0.9853,0 -1.55718,0.65457 -0.57189,0.65457 -0.57189,1.78456 v 4.36149 h -1.27468 v -4.61643 q 0,-1.11621 -0.39274,-1.64675 -0.39275,-0.53744 -1.21268,-0.53744 -0.97152,0 -1.5434,0.66146 -0.57189,0.65457 -0.57189,1.77767 v 4.36149 h -1.27468 v -7.71702 h 1.27468 v 1.1989 q 0.43409,-0.70969 1.04042,-1.04731 0.60634,-0.33762 1.44005,-0.33762 0.84061,0 1.42627,0.42719 0.59256,0.42719 0.87506,1.24024 z" />
      </g>
    </g>
    <g
       id="g37397">
      <path
         sodipodi:nodetypes="cccccccccsccccccccccccccccc"
         inkscape:connector-curvature="0"
         id="path3896-6-7-3-67-64-7-8-5-0-6-1"
         d="m 92.036024,99.391933 c -6.247814,8.535907 -9.628373,18.863097 -9.648257,29.474457 0.01781,15.59784 8.271263,30.28518 20.612873,39.67823 l -29.511697,93.84635 h 9.342094 c 0,0 12.264941,-25.50159 17.561523,-42.08691 3.47711,-10.88818 13.88241,-27.4178 16.02486,-37.41187 6.42143,3.00389 9.35347,-0.35181 16.38376,-0.37036 7.03029,0.0185 9.96233,3.37425 16.38376,0.37036 2.14245,9.99407 12.54775,26.52366 16.02486,37.41187 5.29658,16.58532 17.56187,42.08691 17.56187,42.08691 h 9.34239 l -29.51234,-93.84635 c 12.34171,-9.39305 20.59541,-24.08039 20.61322,-39.67823 -0.0198,-10.61136 -3.40064,-20.93855 -9.6485,-29.474457 v 29.389887 0 0.0845 c -0.0188,20.07114 -16.17717,36.99072 -35.91666,39.47502 v 5.40284 h -4.85018 -4.85082 v -5.40284 c -19.73949,-2.4843 -35.897324,-19.40388 -35.915823,-39.47502 v -0.0845 0 z"
         style="fill:none;stroke:#ff0000;stroke-width:0.26540917" />
      <g
         style="stroke-width:0.99547261"
         transform="matrix(1.0000651,0,0,1.0090509,131.73995,-277.72586)"
         id="g32567-2-3-2-9-1-3">
        <path
           inkscape:connector-curvature="0"
           id="path3823-4-6-9-3-5-3"
           transform="matrix(0.26171406,0,0,0.26171261,-313.84521,-138.77511)"
           d="m 1679.0879,2400.584 c -3.5224,0.043 -7.0315,1.2094 -9.9609,3.4883 -6.0774,4.5727 -8.3528,12.636 -5.5625,19.7109 6.9002,17.092 10.8415,35.2339 11.6523,53.6484 -3.8823,-4.6204 -8.2705,-8.789 -13.084,-12.4296 -5.7435,-4.3205 -13.5883,-4.5518 -19.5762,-0.5762 -5.9891,3.9757 -8.8211,11.2931 -7.0683,18.2637 6.0716,23.8855 5.7763,42.6003 -0.8457,52.7753 -3.5961,5.3052 -9.3413,8.7605 -15.7129,9.4532 -44.7107,6.2727 -42.8912,18.5239 -67.4277,-27.0567 -5.1325,-5.3101 -13.1297,-6.6561 -19.7168,-3.3164 -6.5852,3.1509 -10.3401,10.235 -9.252,17.4531 4.0453,29.2117 0.8511,50.3826 -8.4766,56.6407 -10.7556,7.9518 -19.7128,17.9676 -26.4257,29.373 -20.7578,-9.7776 -43.41,-14.8775 -66.3555,-14.9375 -0.159,0 -0.3176,0.011 -0.4766,0.012 -0.1589,-9e-4 -0.3176,-0.01 -0.4765,-0.01 -22.9455,0.06 -45.5977,5.1599 -66.3555,14.9375 -6.7129,-11.4054 -15.6702,-21.4212 -26.4258,-29.373 -9.3277,-6.2581 -12.5218,-27.4289 -8.4765,-56.6406 1.0881,-7.2181 -2.6668,-14.3023 -9.252,-17.4532 -6.5872,-3.3397 -14.5843,-1.9937 -19.7168,3.3164 -24.5365,45.5806 -22.717,33.3294 -67.4277,27.0567 -6.3716,-0.6927 -12.1168,-4.148 -15.7129,-9.4531 -6.622,-10.1752 -6.9173,-28.8898 -0.8457,-52.7754 1.7528,-6.9705 -1.0793,-14.288 -7.0684,-18.2637 -5.9879,-3.9756 -13.8327,-3.7443 -19.5762,0.5762 -4.8135,3.6407 -9.2016,7.8092 -13.0839,12.4296 0.8108,-18.4145 4.7521,-36.5564 11.6523,-53.6484 2.7903,-7.0749 0.5149,-15.1381 -5.5625,-19.7109 -2.9294,-2.2789 -6.4385,-3.445 -9.9609,-3.4883 v 0 c -3.5224,-0.044 -7.0589,1.0358 -10.043,3.2422 -17.8766,13.1441 -38.0571,41.0652 -32.7656,98.6739 0,2.3063 0.7306,56.7189 64.3945,84.0058 16.8262,7.0282 34.2764,12.453 52.1211,16.2031 30.0722,5.0309 57.8545,19.2047 79.5801,40.5782 -0.7713,0.6642 -1.5368,1.3385 -2.2949,2.0175 -4.0417,2.1705 -7.7429,4.9305 -10.9649,8.2129 -15.9588,-13.329 -51.2601,-37.5112 -91.6309,-31.5761 -4.1755,0.6072 -7.2696,4.193 -7.2597,8.4121 0.6598,21.1799 9.4717,41.2855 24.5937,56.1308 12.7745,11.0006 28.5451,17.7495 45.1348,19.4805 -6.37,17.2199 -9.6637,35.4231 -9.7305,53.7832 0.078,79.5561 59.727,146.2442 138.4337,155.4492 v -36.2949 h 18.7206 18.7186 v 36.2949 c 78.7067,-9.205 138.3578,-75.8931 138.4357,-155.4492 -0.067,-18.3601 -3.3605,-36.5633 -9.7304,-53.7832 16.5896,-1.731 32.3602,-8.4799 45.1347,-19.4805 15.122,-14.8453 23.934,-34.9509 24.5938,-56.1308 0.01,-4.2191 -3.0843,-7.8049 -7.2598,-8.4121 -40.3707,-5.9351 -75.672,18.2472 -91.6309,31.5761 -3.2219,-3.2823 -6.9231,-6.0423 -10.9648,-8.2129 -0.7581,-0.6789 -1.5236,-1.3533 -2.2949,-2.0175 21.7256,-21.3736 49.5079,-35.5473 79.5801,-40.5782 17.8447,-3.7501 35.2949,-9.1749 52.1211,-16.2031 63.6639,-27.2869 64.3945,-81.6995 64.3945,-84.0058 5.2915,-57.6087 -14.889,-85.5298 -32.7656,-98.6739 -2.9841,-2.2064 -6.5206,-3.2861 -10.043,-3.2422 z"
           style="fill:none;stroke:#ff0000;stroke-width:1.20299995"
           sodipodi:nodetypes="ccccccccccccccccccccccccccccccccccccccccccccccccccccccccccccccc" />
        <path
           inkscape:connector-curvature="0"
           id="path3896-1-2-7-1-6-5-3"
           d="M 75.841986,584.71866 A 17.893837,17.893837 0 0 1 57.948148,602.61248 17.893837,17.893837 0 0 1 40.054313,584.71866 17.893837,17.893837 0 0 1 57.948148,566.82481 17.893837,17.893837 0 0 1 75.841986,584.71866 Z"
           style="fill:none;stroke:#ff0000;stroke-width:0.21136604" />
      </g>
      <path
         sodipodi:nodetypes="cccccccccsccccccccccccccccc"
         inkscape:connector-curvature="0"
         id="path3896-6-7-3-67-64-7-8-5-0-6-6-7"
         d="m 284.77537,262.12109 c 6.24781,-8.5359 9.62837,-18.86309 9.64826,-29.47446 -0.0178,-15.59783 -8.27127,-30.28516 -20.61287,-39.67821 l 29.51179,-93.846354 h -9.34209 c 0,0 -12.26504,25.501594 -17.56152,42.086904 -3.47721,10.88818 -13.88252,27.4178 -16.02497,37.41188 -6.42142,-3.0039 -9.35337,0.35181 -16.38376,0.37034 -7.03028,-0.0185 -9.96223,-3.37424 -16.38375,-0.37034 -2.14245,-9.99408 -12.54816,-26.52367 -16.02556,-37.41188 -5.29688,-16.58531 -17.56261,-42.086904 -17.56261,-42.086904 h -9.34249 l 29.51338,93.846354 c -12.3424,9.39305 -20.59625,24.08038 -20.61406,39.67821 0.0198,10.61137 3.40064,20.93856 9.64885,29.47446 v -29.38987 0 -0.0846 c 0.0188,-20.07113 16.17711,-36.99071 35.91679,-39.47501 v -5.40284 h 4.85104 4.85093 v 5.40284 c 19.73959,2.4843 35.89721,19.40388 35.91571,39.47501 v 0.0846 0 z"
         style="fill:none;stroke:#ff0000;stroke-width:0.26540917" />
      <path
         sodipodi:nodetypes="cccccccccsccccccccccccccccc"
         inkscape:connector-curvature="0"
         id="path3896-6-7-3-67-64-7-8-5-0-6-9-9"
         d="m -116.92663,170.73039 c -6.24783,8.5359 -9.62837,18.86309 -9.64826,29.47446 0.0178,15.59783 8.27125,30.28517 20.61287,39.67823 l -29.51174,93.84635 h 9.34208 c 0,0 12.26501,-25.5016 17.56153,-42.08691 3.47717,-10.88819 13.882452,-27.41781 16.024904,-37.41188 6.421461,3.00389 9.35344,-0.35181 16.383726,-0.37035 7.030385,0.0185 9.962334,3.37424 16.383756,0.37035 2.142452,9.99407 12.547759,26.52366 16.024966,37.41188 5.29648,16.58531 17.56152,42.08691 17.56152,42.08691 h 9.341995 l -29.511693,-93.84635 c 12.341606,-9.39306 20.595063,-24.0804 20.612869,-39.67823 -0.01978,-10.61137 -3.400443,-20.93856 -9.648257,-29.47446 v 29.38988 0 0.0845 c -0.0188,20.07114 -16.176267,36.99071 -35.915852,39.47501 v 5.40284 h -4.850788 -4.851213 v -5.40284 c -19.739493,-2.4843 -35.896993,-19.40387 -35.915473,-39.47501 0.003,-0.0283 0.003,-0.0564 0.004,-0.0845 h -0.003 z"
         style="fill:none;stroke:#ff0000;stroke-width:0.26540917" />
      <path
         sodipodi:nodetypes="cccccccccsccccccccccccccccc"
         inkscape:connector-curvature="0"
         id="path3896-6-7-3-67-64-7-8-5-0-6-6-3-8"
         d="m 75.810247,333.45954 c 6.247813,-8.53589 9.628373,-18.86309 9.648256,-29.47446 -0.0178,-15.59783 -8.271262,-30.28516 -20.612868,-39.67821 l 29.511791,-93.84635 h -9.342093 c 0,0 -12.26504,25.50159 -17.561521,42.08691 -3.477207,10.88817 -13.882513,27.41779 -16.024966,37.41187 -6.421421,-3.0039 -9.35337,0.35181 -16.383755,0.37035 -7.030287,-0.0185 -9.962236,-3.37425 -16.383756,-0.37035 C 16.518883,239.96522 6.1136747,223.43563 2.6364681,212.54743 -2.6601117,195.96211 -14.925053,170.46052 -14.925053,170.46052 h -9.342093 l 29.5117911,93.84635 c -12.3417046,9.39305 -20.5951611,24.08038 -20.6129671,39.67821 0.01978,10.61137 3.400443,20.93857 9.6483555,29.47446 v -29.38987 0 -0.0846 C -5.7011713,283.91391 10.45629,266.99432 30.195777,264.51002 v -5.40284 h 4.850896 4.851105 v 5.40284 c 19.739585,2.4843 35.897037,19.40389 35.915535,39.47501 v 0.0846 0 z"
         style="fill:none;stroke:#ff0000;stroke-width:0.26540917" />
      <path
         sodipodi:nodetypes="cccccccccccccccccccscccccsc"
         style="fill:none;stroke:#ff0000;stroke-width:0.26014811"
         d="m 12.747086,306.56254 20.636313,42.17123 c 0,0 7.549132,13.14244 13.556368,17.30452 6.358606,5.79868 13.25607,6.96285 22.098014,7.50982 v -9.76682 h 9.737998 v 9.76682 H 236.97775 v -9.76682 h 9.73699 v 9.76682 c 0,0 9.68901,-0.1579 24.72783,-0.66074 7.91049,-0.2645 18.78043,-3.37767 30.94477,-7.32927 14.48762,-4.70626 19.87006,-10.41861 20.42146,-11.38804 1.73806,-3.05502 1.29934,-13.69457 1.29934,-13.69457 h -10.66735 v 9.82832 h -9.73699 v -9.82832 h -9.82731 c -7.8913,0 -2.48462,-1.05347 -8.32429,2.99728 -3.98091,4.07675 -10.61383,12.96614 -24.10174,13.78 -10.54983,0.85159 -16.52878,1.4156 -16.73513,1.11257 l -184.599155,0.0948 c 0,0 -8.50185,-11.26498 -19.563207,-25.46458 C 32.558983,321.18241 9.9011997,300.74686 12.747086,306.5625 Z"
         id="rect3980-3-1-5-5-0-4-6"
         inkscape:connector-curvature="0" />
      <path
         id="rect212-62-7-7"
         d="M -141.75193,53.112595 H 328.14801 V 383.01215 h -469.89994 z"
         style="fill:none;stroke:#ff0000;stroke-width:0.10000001;stroke-miterlimit:4;stroke-dasharray:none"
         inkscape:connector-curvature="0" />
      <g
         style="stroke-width:0.99547261"
         transform="matrix(-1.0000651,0,0,-1.0090509,35.062105,710.57732)"
         id="g32567-2-3-2-9-1-7-0">
        <path
           inkscape:connector-curvature="0"
           id="path3823-4-6-9-3-5-4-4"
           transform="matrix(0.26171406,0,0,0.26171261,-313.84521,-138.77511)"
           d="m 1679.0879,2400.584 c -3.5224,0.043 -7.0315,1.2094 -9.9609,3.4883 -6.0774,4.5727 -8.3528,12.636 -5.5625,19.7109 6.9002,17.092 10.8415,35.2339 11.6523,53.6484 -3.8823,-4.6204 -8.2705,-8.789 -13.084,-12.4296 -5.7435,-4.3205 -13.5883,-4.5518 -19.5762,-0.5762 -5.9891,3.9757 -8.8211,11.2931 -7.0683,18.2637 6.0716,23.8855 5.7763,42.6003 -0.8457,52.7753 -3.5961,5.3052 -9.3413,8.7605 -15.7129,9.4532 -44.7107,6.2727 -42.8912,18.5239 -67.4277,-27.0567 -5.1325,-5.3101 -13.1297,-6.6561 -19.7168,-3.3164 -6.5852,3.1509 -10.3401,10.235 -9.252,17.4531 4.0453,29.2117 0.8511,50.3826 -8.4766,56.6407 -10.7556,7.9518 -19.7128,17.9676 -26.4257,29.373 -20.7578,-9.7776 -43.41,-14.8775 -66.3555,-14.9375 -0.159,0 -0.3176,0.011 -0.4766,0.012 -0.1589,-9e-4 -0.3176,-0.01 -0.4765,-0.01 -22.9455,0.06 -45.5977,5.1599 -66.3555,14.9375 -6.7129,-11.4054 -15.6702,-21.4212 -26.4258,-29.373 -9.3277,-6.2581 -12.5218,-27.4289 -8.4765,-56.6406 1.0881,-7.2181 -2.6668,-14.3023 -9.252,-17.4532 -6.5872,-3.3397 -14.5843,-1.9937 -19.7168,3.3164 -24.5365,45.5806 -22.717,33.3294 -67.4277,27.0567 -6.3716,-0.6927 -12.1168,-4.148 -15.7129,-9.4531 -6.622,-10.1752 -6.9173,-28.8898 -0.8457,-52.7754 1.7528,-6.9705 -1.0793,-14.288 -7.0684,-18.2637 -5.9879,-3.9756 -13.8327,-3.7443 -19.5762,0.5762 -4.8135,3.6407 -9.2016,7.8092 -13.0839,12.4296 0.8108,-18.4145 4.7521,-36.5564 11.6523,-53.6484 2.7903,-7.0749 0.5149,-15.1381 -5.5625,-19.7109 -2.9294,-2.2789 -6.4385,-3.445 -9.9609,-3.4883 v 0 c -3.5224,-0.044 -7.0589,1.0358 -10.043,3.2422 -17.8766,13.1441 -38.0571,41.0652 -32.7656,98.6739 0,2.3063 0.7306,56.7189 64.3945,84.0058 16.8262,7.0282 34.2764,12.453 52.1211,16.2031 30.0722,5.0309 57.8545,19.2047 79.5801,40.5782 -0.7713,0.6642 -1.5368,1.3385 -2.2949,2.0175 -4.0417,2.1705 -7.7429,4.9305 -10.9649,8.2129 -15.9588,-13.329 -51.2601,-37.5112 -91.6309,-31.5761 -4.1755,0.6072 -7.2696,4.193 -7.2597,8.4121 0.6598,21.1799 9.4717,41.2855 24.5937,56.1308 12.7745,11.0006 28.5451,17.7495 45.1348,19.4805 -6.37,17.2199 -9.6637,35.4231 -9.7305,53.7832 0.078,79.5561 59.7289,146.2442 138.4356,155.4492 v -36.2949 h 18.7187 18.7205 v 36.2949 c 78.7067,-9.205 138.3559,-75.8931 138.4338,-155.4492 -0.067,-18.3601 -3.3605,-36.5633 -9.7304,-53.7832 16.5896,-1.731 32.3602,-8.4799 45.1347,-19.4805 15.122,-14.8453 23.934,-34.9509 24.5938,-56.1308 0.01,-4.2191 -3.0843,-7.8049 -7.2598,-8.4121 -40.3707,-5.9351 -75.672,18.2472 -91.6309,31.5761 -3.2219,-3.2823 -6.9231,-6.0423 -10.9648,-8.2129 -0.7581,-0.6789 -1.5236,-1.3533 -2.2949,-2.0175 21.7256,-21.3736 49.5079,-35.5473 79.5801,-40.5782 17.8447,-3.7501 35.2949,-9.1749 52.1211,-16.2031 63.6639,-27.2869 64.3945,-81.6995 64.3945,-84.0058 5.2915,-57.6087 -14.889,-85.5298 -32.7656,-98.6739 -2.9841,-2.2064 -6.5206,-3.2861 -10.043,-3.2422 z"
           style="fill:none;stroke:#ff0000;stroke-width:1.20299995"
           sodipodi:nodetypes="ccccccccccccccccccccccccccccccccccccccccccccccccccccccccccccccc" />
        <path
           inkscape:connector-curvature="0"
           id="path3896-1-2-7-1-6-5-5-8"
           d="M 75.841986,584.71866 A 17.893837,17.893837 0 0 1 57.948148,602.61248 17.893837,17.893837 0 0 1 40.054313,584.71866 17.893837,17.893837 0 0 1 57.948148,566.82481 17.893837,17.893837 0 0 1 75.841986,584.71866 Z"
           style="fill:none;stroke:#ff0000;stroke-width:0.21136604" />
      </g>
      <path
         sodipodi:nodetypes="cccccccccccccccccccscccccsc"
         style="fill:none;stroke:#ff0000;stroke-width:0.26014811"
         d="m -119.38935,125.91056 20.636314,-42.171233 c 0,0 7.549133,-13.142418 13.556368,-17.304506 6.358616,-5.798678 13.256505,-6.962865 22.098449,-7.509825 v 9.766834 h 9.737 V 58.924996 H 104.84178 v 9.766834 h 9.737 v -9.766834 c 0,0 9.6886,0.1579 24.72682,0.660744 7.91049,0.264497 18.78043,3.377679 30.94477,7.329268 14.48747,4.706254 19.86972,10.418595 20.42111,11.388052 1.73796,3.054993 1.29924,13.694568 1.29924,13.694568 h -10.66695 v -9.828317 h -9.73699 v 9.828317 h -9.82726 c -7.8913,0 -2.48462,1.053458 -8.32428,-2.997302 C 149.43432,84.923576 142.8014,76.034193 129.31378,75.22034 118.76425,74.368759 112.7854,73.804731 112.57905,74.107755 l -184.599201,-0.09482 c 0,0 -8.501949,11.264976 -19.563316,25.464584 -7.993985,11.813141 -30.651773,32.248701 -27.805883,26.433051 z"
         id="rect3980-3-1-5-5-0-4-2-4"
         inkscape:connector-curvature="0" />
      <g
         id="text37007-3"
         style="font-style:normal;font-weight:normal;font-size:10.58333302px;line-height:125%;font-family:sans-serif;letter-spacing:0px;word-spacing:0px;fill:#000000;fill-opacity:1;stroke:none;stroke-width:0.26458332px;stroke-linecap:butt;stroke-linejoin:miter;stroke-opacity:1"
         aria-label="Pour plaque
de 5mm">
        <path
           inkscape:connector-curvature="0"
           id="path37311"
           style="font-size:14.11111069px;stroke-width:0.26458332px"
           d="m 227.68771,65.995854 v 3.865397 h 1.75011 q 0.97152,0 1.50206,-0.502984 0.53055,-0.502984 0.53055,-1.433159 0,-0.923286 -0.53055,-1.42627 -0.53054,-0.502984 -1.50206,-0.502984 z m -1.39182,-1.143772 h 3.14193 q 1.72944,0 2.61138,0.785482 0.88884,0.778592 0.88884,2.287544 0,1.522732 -0.88884,2.301323 -0.88194,0.778592 -2.61138,0.778592 h -1.75011 v 4.134114 h -1.39182 z" />
        <path
           inkscape:connector-curvature="0"
           id="path37313"
           style="font-size:14.11111069px;stroke-width:0.26458332px"
           d="m 237.2513,68.310958 q -1.01975,0 -1.61231,0.799262 -0.59255,0.792372 -0.59255,2.177301 0,1.384928 0.58566,2.18419 0.59256,0.792372 1.6192,0.792372 1.01285,0 1.60541,-0.799262 0.59256,-0.799262 0.59256,-2.1773 0,-1.371148 -0.59256,-2.17041 -0.59256,-0.806153 -1.60541,-0.806153 z m 0,-1.07487 q 1.65364,0 2.5976,1.07487 0.94395,1.07487 0.94395,2.976563 0,1.894802 -0.94395,2.976562 -0.94396,1.07487 -2.5976,1.07487 -1.66054,0 -2.6045,-1.07487 -0.93706,-1.08176 -0.93706,-2.976562 0,-1.901693 0.93706,-2.976563 0.94396,-1.07487 2.6045,-1.07487 z" />
        <path
           inkscape:connector-curvature="0"
           id="path37315"
           style="font-size:14.11111069px;stroke-width:0.26458332px"
           d="m 242.75656,72.093673 v -4.671549 h 1.2678 v 4.623318 q 0,1.09554 0.42719,1.646755 0.42719,0.544325 1.28157,0.544325 1.02664,0 1.6192,-0.654568 0.59944,-0.654568 0.59944,-1.784559 v -4.375271 h 1.2678 v 7.717013 h -1.2678 v -1.185113 q -0.46164,0.7028 -1.07487,1.047309 -0.60633,0.33762 -1.41249,0.33762 -1.3298,0 -2.01882,-0.826823 -0.68902,-0.826823 -0.68902,-2.418457 z m 3.19016,-4.857585 z" />
        <path
           inkscape:connector-curvature="0"
           id="path37317"
           style="font-size:14.11111069px;stroke-width:0.26458332px"
           d="m 256.31645,68.607236 q -0.21359,-0.124023 -0.46853,-0.179145 -0.24805,-0.06201 -0.55121,-0.06201 -1.07487,0 -1.65365,0.702799 -0.57189,0.695909 -0.57189,2.005046 v 4.065212 h -1.27468 v -7.717013 h 1.27468 v 1.198893 q 0.39964,-0.7028 1.04042,-1.040419 0.64079,-0.34451 1.55719,-0.34451 0.13091,0 0.28938,0.02067 0.15848,0.01378 0.3514,0.04823 z" />
        <path
           inkscape:connector-curvature="0"
           id="path37319"
           style="font-size:14.11111069px;stroke-width:0.26458332px"
           d="m 263.3789,73.981585 v 4.092774 h -1.27469 V 67.422124 h 1.27469 v 1.171332 q 0.39963,-0.689019 1.00597,-1.019748 0.61323,-0.33762 1.46072,-0.33762 1.4056,0 2.28065,1.116211 0.88195,1.116211 0.88195,2.935222 0,1.81901 -0.88195,2.935221 -0.87505,1.116211 -2.28065,1.116211 -0.84749,0 -1.46072,-0.330729 -0.60634,-0.33762 -1.00597,-1.026639 z m 4.31326,-2.694064 q 0,-1.398709 -0.57878,-2.191081 -0.57188,-0.799262 -1.57785,-0.799262 -1.00597,0 -1.58474,0.799262 -0.57189,0.792372 -0.57189,2.191081 0,1.398708 0.57189,2.19797 0.57877,0.792372 1.58474,0.792372 1.00597,0 1.57785,-0.792372 0.57878,-0.799262 0.57878,-2.19797 z" />
        <path
           inkscape:connector-curvature="0"
           id="path37321"
           style="font-size:14.11111069px;stroke-width:0.26458332px"
           d="m 271.10969,64.418 h 1.2678 v 10.721137 h -1.2678 z" />
        <path
           inkscape:connector-curvature="0"
           id="path37323"
           style="font-size:14.11111069px;stroke-width:0.26458332px"
           d="m 278.53043,71.25996 q -1.53651,0 -2.12907,0.3514 -0.59256,0.351399 -0.59256,1.198893 0,0.675238 0.44098,1.07487 0.44786,0.39274 1.21267,0.39274 1.0542,0 1.6881,-0.74414 0.64078,-0.751031 0.64078,-1.991265 V 71.25996 Z m 2.5287,-0.523655 v 4.402832 h -1.2678 v -1.171332 q -0.43408,0.702799 -1.08176,1.040419 -0.64767,0.330729 -1.58474,0.330729 -1.18511,0 -1.88791,-0.661459 -0.69591,-0.668348 -0.69591,-1.784559 0,-1.302246 0.86816,-1.963704 0.87506,-0.661459 2.6045,-0.661459 h 1.77766 v -0.124023 q 0,-0.875054 -0.57877,-1.350477 -0.57189,-0.482314 -1.61231,-0.482314 -0.66145,0 -1.28846,0.158475 -0.62701,0.158474 -1.20579,0.475423 v -1.171333 q 0.69591,-0.268717 1.35048,-0.399631 0.65457,-0.137804 1.27469,-0.137804 1.67431,0 2.50114,0.868164 0.82682,0.868165 0.82682,2.632053 z" />
        <path
           inkscape:connector-curvature="0"
           id="path37325"
           style="font-size:14.11111069px;stroke-width:0.26458332px"
           d="m 284.43532,71.287521 q 0,1.398708 0.57189,2.19797 0.57877,0.792372 1.58474,0.792372 1.00597,0 1.58475,-0.792372 0.57877,-0.799262 0.57877,-2.19797 0,-1.398709 -0.57877,-2.191081 -0.57878,-0.799262 -1.58475,-0.799262 -1.00597,0 -1.58474,0.799262 -0.57189,0.792372 -0.57189,2.191081 z m 4.32015,2.694064 q -0.39963,0.689019 -1.01286,1.026639 -0.60633,0.330729 -1.46072,0.330729 -1.3987,0 -2.28065,-1.116211 -0.87505,-1.116211 -0.87505,-2.935221 0,-1.819011 0.87505,-2.935222 0.88195,-1.116211 2.28065,-1.116211 0.85439,0 1.46072,0.33762 0.61323,0.330729 1.01286,1.019748 v -1.171332 h 1.2678 v 10.652235 h -1.2678 z" />
        <path
           inkscape:connector-curvature="0"
           id="path37327"
           style="font-size:14.11111069px;stroke-width:0.26458332px"
           d="m 292.50373,72.093673 v -4.671549 h 1.2678 v 4.623318 q 0,1.09554 0.42719,1.646755 0.42719,0.544325 1.28158,0.544325 1.02663,0 1.61919,-0.654568 0.59945,-0.654568 0.59945,-1.784559 v -4.375271 h 1.26779 v 7.717013 h -1.26779 v -1.185113 q -0.46165,0.7028 -1.07487,1.047309 -0.60634,0.33762 -1.41249,0.33762 -1.32981,0 -2.01883,-0.826823 -0.68902,-0.826823 -0.68902,-2.418457 z m 3.19016,-4.857585 z" />
        <path
           inkscape:connector-curvature="0"
           id="path37329"
           style="font-size:14.11111069px;stroke-width:0.26458332px"
           d="m 308.1927,70.963682 v 0.620117 h -5.8291 q 0.0827,1.309136 0.78548,1.998155 0.70969,0.682129 1.9706,0.682129 0.73036,0 1.41249,-0.179145 0.68902,-0.179145 1.36425,-0.537435 v 1.198893 q -0.68212,0.289388 -1.3987,0.440973 -0.71658,0.151584 -1.45384,0.151584 -1.84657,0 -2.92833,-1.07487 -1.07487,-1.07487 -1.07487,-2.90766 0,-1.894803 1.01975,-3.004124 1.02664,-1.116211 2.76297,-1.116211 1.55718,0 2.4598,1.005968 0.9095,0.999078 0.9095,2.721626 z m -1.26779,-0.372071 q -0.0138,-1.040418 -0.58567,-1.660536 -0.56499,-0.620117 -1.50206,-0.620117 -1.06109,0 -1.70188,0.599447 -0.6339,0.599446 -0.73036,1.688097 z" />
        <path
           inkscape:connector-curvature="0"
           id="path37331"
           style="font-size:14.11111069px;stroke-width:0.26458332px"
           d="m 231.31884,82.739018 v -4.175456 h 1.2678 v 10.721137 h -1.2678 v -1.157552 q -0.39963,0.689019 -1.01286,1.026638 -0.60633,0.330729 -1.46072,0.330729 -1.3987,0 -2.28065,-1.11621 -0.87505,-1.116211 -0.87505,-2.935222 0,-1.81901 0.87505,-2.935221 0.88195,-1.116211 2.28065,-1.116211 0.85439,0 1.46072,0.337619 0.61323,0.33073 1.01286,1.019749 z m -4.32015,2.694064 q 0,1.398709 0.57189,2.197971 0.57877,0.792372 1.58474,0.792372 1.00597,0 1.58475,-0.792372 0.57877,-0.799262 0.57877,-2.197971 0,-1.398708 -0.57877,-2.19108 -0.57878,-0.799263 -1.58475,-0.799263 -1.00597,0 -1.58474,0.799263 -0.57189,0.792372 -0.57189,2.19108 z" />
        <path
           inkscape:connector-curvature="0"
           id="path37333"
           style="font-size:14.11111069px;stroke-width:0.26458332px"
           d="m 241.79882,85.109243 v 0.620117 h -5.8291 q 0.0827,1.309137 0.78548,1.998156 0.70969,0.682129 1.9706,0.682129 0.73036,0 1.41249,-0.179145 0.68902,-0.179145 1.36425,-0.537435 v 1.198893 q -0.68212,0.289388 -1.3987,0.440972 -0.71658,0.151584 -1.45383,0.151584 -1.84658,0 -2.92834,-1.074869 -1.07487,-1.07487 -1.07487,-2.907661 0,-1.894802 1.01975,-3.004123 1.02664,-1.116211 2.76297,-1.116211 1.55718,0 2.4598,1.005968 0.9095,0.999078 0.9095,2.721625 z m -1.26779,-0.37207 q -0.0138,-1.040419 -0.58567,-1.660536 -0.56499,-0.620117 -1.50206,-0.620117 -1.06109,0 -1.70188,0.599446 -0.6339,0.599447 -0.73036,1.688097 z" />
        <path
           inkscape:connector-curvature="0"
           id="path37335"
           style="font-size:14.11111069px;stroke-width:0.26458332px"
           d="m 248.56499,78.997644 h 5.46392 v 1.171333 h -4.18924 v 2.521809 q 0.30317,-0.103353 0.60634,-0.151584 0.30317,-0.05512 0.60634,-0.05512 1.72255,0 2.72851,0.943956 1.00597,0.943956 1.00597,2.556261 0,1.660536 -1.03353,2.583821 -1.03353,0.916395 -2.91455,0.916395 -0.64768,0 -1.32291,-0.110243 -0.66835,-0.110243 -1.38493,-0.330729 v -1.398708 q 0.62011,0.337619 1.28157,0.502983 0.66146,0.165365 1.39871,0.165365 1.192,0 1.88791,-0.627007 0.69591,-0.627008 0.69591,-1.701877 0,-1.07487 -0.69591,-1.701878 -0.69591,-0.627007 -1.88791,-0.627007 -0.5581,0 -1.11621,0.124023 -0.55121,0.124024 -1.12999,0.385851 z" />
        <path
           inkscape:connector-curvature="0"
           id="path37337"
           style="font-size:14.11111069px;stroke-width:0.26458332px"
           d="m 263.36512,83.049076 q 0.47542,-0.854383 1.13688,-1.260905 0.66146,-0.406521 1.55718,-0.406521 1.20579,0 1.86036,0.847494 0.65456,0.840603 0.65456,2.397786 v 4.657769 h -1.27468 v -4.616428 q 0,-1.109321 -0.39274,-1.646755 -0.39274,-0.537435 -1.19889,-0.537435 -0.9853,0 -1.55719,0.654568 -0.57188,0.654568 -0.57188,1.784559 v 4.361491 h -1.27469 v -4.616428 q 0,-1.116211 -0.39274,-1.646755 -0.39274,-0.537435 -1.21267,-0.537435 -0.97152,0 -1.54341,0.661458 -0.57188,0.654568 -0.57188,1.777669 v 4.361491 h -1.27469 v -7.717014 h 1.27469 v 1.198893 q 0.43408,-0.709689 1.04042,-1.047309 0.60633,-0.337619 1.44005,-0.337619 0.8406,0 1.42627,0.427192 0.59255,0.427192 0.87505,1.240234 z" />
        <path
           inkscape:connector-curvature="0"
           id="path37339"
           style="font-size:14.11111069px;stroke-width:0.26458332px"
           d="m 277.11794,83.049076 q 0.47542,-0.854383 1.13688,-1.260905 0.66146,-0.406521 1.55719,-0.406521 1.20578,0 1.86035,0.847494 0.65457,0.840603 0.65457,2.397786 v 4.657769 h -1.27469 v -4.616428 q 0,-1.109321 -0.39274,-1.646755 -0.39274,-0.537435 -1.19889,-0.537435 -0.9853,0 -1.55719,0.654568 -0.57188,0.654568 -0.57188,1.784559 v 4.361491 h -1.27469 v -4.616428 q 0,-1.116211 -0.39274,-1.646755 -0.39274,-0.537435 -1.21267,-0.537435 -0.97152,0 -1.54341,0.661458 -0.57188,0.654568 -0.57188,1.777669 v 4.361491 h -1.27469 v -7.717014 h 1.27469 v 1.198893 q 0.43408,-0.709689 1.04042,-1.047309 0.60633,-0.337619 1.44005,-0.337619 0.8406,0 1.42627,0.427192 0.59255,0.427192 0.87505,1.240234 z" />
      </g>
    </g>
  </g>
</svg>
