  0
SECTION
  2
HEADER
  9
$ACADVER
  1
AC1014
  9
$HANDSEED
  5
FFFF
  9
$MEASUREMENT
 70
     1
  0
ENDSEC
  0
SECTION
  2
TABLES
  0
TABLE
  2
VPORT
  5
8
330
0
100
AcDbSymbolTable
 70
     4
  0
VPORT
  5
2E
330
8
100
AcDbSymbolTableRecord
100
AcDbViewportTableRecord
  2
*ACTIVE
 70
     0
 10
0.0
 20
0.0
 11
1.0
 21
1.0
 12
210.0
 22
148.5
 13
0.0
 23
0.0
 14
10.0
 24
10.0
 15
10.0
 25
10.0
 16
0.0
 26
0.0
 36
1.0
 17
0.0
 27
0.0
 37
0.0
 40
341.0
 41
1.24
 42
50.0
 43
0.0
 44
0.0
 50
0.0
 51
0.0
 71
     0
 72
   100
 73
     1
 74
     3
 75
     0
 76
     0
 77
     0
 78
     0
  0
ENDTAB
  0
TABLE
  2
LTYPE
  5
5
330
0
100
AcDbSymbolTable
 70
     1
  0
LTYPE
  5
14
330
5
100
AcDbSymbolTableRecord
100
AcDbLinetypeTableRecord
  2
BYBLOCK
 70
     0
  3

 72
    65
 73
     0
 40
0.0
  0
LTYPE
  5
15
330
5
100
AcDbSymbolTableRecord
100
AcDbLinetypeTableRecord
  2
BYLAYER
 70
     0
  3

 72
    65
 73
     0
 40
0.0
  0
LTYPE
  5
16
330
5
100
AcDbSymbolTableRecord
100
AcDbLinetypeTableRecord
  2
CONTINUOUS
 70
     0
  3
Solid line
 72
    65
 73
     0
 40
0.0
  0
ENDTAB
  0
TABLE
  2
LAYER
  5
2
100
AcDbSymbolTable
 70
2
  0
LAYER
  5
50
100
AcDbSymbolTableRecord
100
AcDbLayerTableRecord
  2
0
 70
0
  6
CONTINUOUS
  0
LAYER
  5
51
100
AcDbSymbolTableRecord
100
AcDbLayerTableRecord
  2
Calque_1
 70
0
  6
CONTINUOUS
  0
ENDTAB
  0
TABLE
  2
STYLE
  5
3
330
0
100
AcDbSymbolTable
 70
     1
  0
STYLE
  5
11
330
3
100
AcDbSymbolTableRecord
100
AcDbTextStyleTableRecord
  2
STANDARD
 70
     0
 40
0.0
 41
1.0
 50
0.0
 71
     0
 42
2.5
  3
txt
  4

  0
ENDTAB
  0
TABLE
  2
VIEW
  5
6
330
0
100
AcDbSymbolTable
 70
     0
  0
ENDTAB
  0
TABLE
  2
UCS
  5
7
330
0
100
AcDbSymbolTable
 70
     0
  0
ENDTAB
  0
TABLE
  2
APPID
  5
9
330
0
100
AcDbSymbolTable
 70
     2
  0
APPID
  5
12
330
9
100
AcDbSymbolTableRecord
100
AcDbRegAppTableRecord
  2
ACAD
 70
     0
  0
ENDTAB
  0
TABLE
  2
DIMSTYLE
  5
A
330
0
100
AcDbSymbolTable
 70
     1
  0
DIMSTYLE
105
27
330
A
100
AcDbSymbolTableRecord
100
AcDbDimStyleTableRecord
  2
ISO-25
 70
     0
  3

  4

  5

  6

  7

 40
1.0
 41
2.5
 42
0.625
 43
3.75
 44
1.25
 45
0.0
 46
0.0
 47
0.0
 48
0.0
140
2.5
141
2.5
142
0.0
143
0.03937007874016
144
1.0
145
0.0
146
1.0
147
0.625
 71
     0
 72
     0
 73
     0
 74
     0
 75
     0
 76
     0
 77
     1
 78
     8
170
     0
171
     3
172
     1
173
     0
174
     0
175
     0
176
     0
177
     0
178
     0
270
     2
271
     2
272
     2
273
     2
274
     3
340
11
275
     0
280
     0
281
     0
282
     0
283
     0
284
     8
285
     0
286
     0
287
     3
288
     0
  0
ENDTAB
  0
TABLE
  2
BLOCK_RECORD
  5
1
330
0
100
AcDbSymbolTable
 70
     1
  0
BLOCK_RECORD
  5
1F
330
1
100
AcDbSymbolTableRecord
100
AcDbBlockTableRecord
  2
*MODEL_SPACE
  0
BLOCK_RECORD
  5
1B
330
1
100
AcDbSymbolTableRecord
100
AcDbBlockTableRecord
  2
*PAPER_SPACE
  0
ENDTAB
  0
ENDSEC
  0
SECTION
  2
BLOCKS
  0
BLOCK
  5
20
330
1F
100
AcDbEntity
  8
0
100
AcDbBlockBegin
  2
*MODEL_SPACE
 70
     0
 10
0.0
 20
0.0
 30
0.0
  3
*MODEL_SPACE
  1

  0
ENDBLK
  5
21
330
1F
100
AcDbEntity
  8
0
100
AcDbBlockEnd
  0
BLOCK
  5
1C
330
1B
100
AcDbEntity
 67
     1
  8
0
100
AcDbBlockBegin
  2
*PAPER_SPACE
  1

  0
ENDBLK
  5
1D
330
1B
100
AcDbEntity
 67
     1
  8
0
100
AcDbBlockEnd
  0
ENDSEC
  0
SECTION
  2
ENTITIES
  0
LINE
  5
100
100
AcDbEntity
  8
Calque_1
 62
1
100
AcDbLine
 10
797.495327
 20
364.705563
 30
0.0
 11
797.495327
 21
360.043685
 31
0.0
  0
LINE
  5
101
100
AcDbEntity
  8
Calque_1
 62
1
100
AcDbLine
 10
797.495327
 20
360.043685
 30
0.0
 11
796.046396
 21
360.043685
 31
0.0
  0
LINE
  5
102
100
AcDbEntity
  8
Calque_1
 62
1
100
AcDbLine
 10
796.046396
 20
360.043685
 30
0.0
 11
796.046396
 21
372.177125
 31
0.0
  0
LINE
  5
103
100
AcDbEntity
  8
Calque_1
 62
1
100
AcDbLine
 10
796.046396
 20
372.177125
 30
0.0
 11
797.495327
 21
372.177125
 31
0.0
  0
LINE
  5
104
100
AcDbEntity
  8
Calque_1
 62
1
100
AcDbLine
 10
797.495327
 20
372.177125
 30
0.0
 11
797.495327
 21
370.842916
 31
0.0
  0
SPLINE
  5
105
100
AcDbEntity
  8
Calque_1
 62
1
100
AcDbSpline
 70
8
 71
3
 72
8
 73
4
 74
0
 40
0
 40
0
 40
0
 40
0
 40
1
 40
1
 40
1
 40
1
 10
797.495327
 20
370.842916
 30
0.0
 10
797.798167
 20
371.366130
 30
0.0
 10
798.179330
 20
371.753310
 30
0.0
 10
798.638814
 20
372.004456
 30
0.0
  0
SPLINE
  5
106
100
AcDbEntity
  8
Calque_1
 62
1
100
AcDbSpline
 70
8
 71
3
 72
8
 73
4
 74
0
 40
0
 40
0
 40
0
 40
0
 40
1
 40
1
 40
1
 40
1
 10
798.638814
 20
372.004456
 30
0.0
 10
799.103513
 20
372.260835
 30
0.0
 10
799.656978
 20
372.389024
 30
0.0
 10
800.299206
 20
372.389024
 30
0.0
  0
SPLINE
  5
107
100
AcDbEntity
  8
Calque_1
 62
1
100
AcDbSpline
 70
8
 71
3
 72
8
 73
4
 74
0
 40
0
 40
0
 40
0
 40
0
 40
1
 40
1
 40
1
 40
1
 10
800.299206
 20
372.389024
 30
0.0
 10
801.364371
 20
372.389024
 30
0.0
 10
802.228510
 20
371.965216
 30
0.0
 10
802.891624
 20
371.117600
 30
0.0
  0
SPLINE
  5
108
100
AcDbEntity
  8
Calque_1
 62
1
100
AcDbSpline
 70
8
 71
3
 72
8
 73
4
 74
0
 40
0
 40
0
 40
0
 40
0
 40
1
 40
1
 40
1
 40
1
 10
802.891624
 20
371.117600
 30
0.0
 10
803.559959
 20
370.269991
 30
0.0
 10
803.894127
 20
369.155535
 30
0.0
 10
803.894127
 20
367.774234
 30
0.0
  0
SPLINE
  5
109
100
AcDbEntity
  8
Calque_1
 62
1
100
AcDbSpline
 70
8
 71
3
 72
8
 73
4
 74
0
 40
0
 40
0
 40
0
 40
0
 40
1
 40
1
 40
1
 40
1
 10
803.894127
 20
367.774234
 30
0.0
 10
803.894127
 20
366.392940
 30
0.0
 10
803.559959
 20
365.278485
 30
0.0
 10
802.891624
 20
364.430869
 30
0.0
  0
SPLINE
  5
10a
100
AcDbEntity
  8
Calque_1
 62
1
100
AcDbSpline
 70
8
 71
3
 72
8
 73
4
 74
0
 40
0
 40
0
 40
0
 40
0
 40
1
 40
1
 40
1
 40
1
 10
802.891624
 20
364.430869
 30
0.0
 10
802.228510
 20
363.583253
 30
0.0
 10
801.364371
 20
363.159445
 30
0.0
 10
800.299206
 20
363.159445
 30
0.0
  0
SPLINE
  5
10b
100
AcDbEntity
  8
Calque_1
 62
1
100
AcDbSpline
 70
8
 71
3
 72
8
 73
4
 74
0
 40
0
 40
0
 40
0
 40
0
 40
1
 40
1
 40
1
 40
1
 10
800.299206
 20
363.159445
 30
0.0
 10
799.656978
 20
363.159445
 30
0.0
 10
799.103513
 20
363.285018
 30
0.0
 10
798.638814
 20
363.536164
 30
0.0
  0
SPLINE
  5
10c
100
AcDbEntity
  8
Calque_1
 62
1
100
AcDbSpline
 70
8
 71
3
 72
8
 73
4
 74
0
 40
0
 40
0
 40
0
 40
0
 40
1
 40
1
 40
1
 40
1
 10
798.638814
 20
363.536164
 30
0.0
 10
798.179330
 20
363.792543
 30
0.0
 10
797.798167
 20
364.182342
 30
0.0
 10
797.495327
 20
364.705563
 30
0.0
  0
LINE
  5
10d
100
AcDbEntity
  8
Calque_1
 62
1
100
AcDbLine
 10
797.495327
 20
364.705563
 30
0.0
 11
797.495327
 21
364.705563
 31
0.0
  0
SPLINE
  5
10e
100
AcDbEntity
  8
Calque_1
 62
1
100
AcDbSpline
 70
8
 71
3
 72
8
 73
4
 74
0
 40
0
 40
0
 40
0
 40
0
 40
1
 40
1
 40
1
 40
1
 10
802.398205
 20
367.774234
 30
0.0
 10
802.398205
 20
368.836372
 30
0.0
 10
802.178905
 20
369.668292
 30
0.0
 10
801.740305
 20
370.269994
 30
0.0
  0
SPLINE
  5
10f
100
AcDbEntity
  8
Calque_1
 62
1
100
AcDbSpline
 70
8
 71
3
 72
8
 73
4
 74
0
 40
0
 40
0
 40
0
 40
0
 40
1
 40
1
 40
1
 40
1
 10
801.740305
 20
370.269994
 30
0.0
 10
801.306934
 20
370.876921
 30
0.0
 10
800.709089
 20
371.180385
 30
0.0
 10
799.946771
 20
371.180385
 30
0.0
  0
SPLINE
  5
110
100
AcDbEntity
  8
Calque_1
 62
1
100
AcDbSpline
 70
8
 71
3
 72
8
 73
4
 74
0
 40
0
 40
0
 40
0
 40
0
 40
1
 40
1
 40
1
 40
1
 10
799.946771
 20
371.180385
 30
0.0
 10
799.184446
 20
371.180385
 30
0.0
 10
798.583988
 20
370.876921
 30
0.0
 10
798.145395
 20
370.269994
 30
0.0
  0
SPLINE
  5
111
100
AcDbEntity
  8
Calque_1
 62
1
100
AcDbSpline
 70
8
 71
3
 72
8
 73
4
 74
0
 40
0
 40
0
 40
0
 40
0
 40
1
 40
1
 40
1
 40
1
 10
798.145395
 20
370.269994
 30
0.0
 10
797.712016
 20
369.668292
 30
0.0
 10
797.495327
 20
368.836372
 30
0.0
 10
797.495327
 20
367.774234
 30
0.0
  0
SPLINE
  5
112
100
AcDbEntity
  8
Calque_1
 62
1
100
AcDbSpline
 70
8
 71
3
 72
8
 73
4
 74
0
 40
0
 40
0
 40
0
 40
0
 40
1
 40
1
 40
1
 40
1
 10
797.495327
 20
367.774234
 30
0.0
 10
797.495327
 20
366.712103
 30
0.0
 10
797.712016
 20
365.877571
 30
0.0
 10
798.145395
 20
365.270637
 30
0.0
  0
SPLINE
  5
113
100
AcDbEntity
  8
Calque_1
 62
1
100
AcDbSpline
 70
8
 71
3
 72
8
 73
4
 74
0
 40
0
 40
0
 40
0
 40
0
 40
1
 40
1
 40
1
 40
1
 10
798.145395
 20
365.270637
 30
0.0
 10
798.583988
 20
364.668935
 30
0.0
 10
799.184446
 20
364.368084
 30
0.0
 10
799.946771
 20
364.368084
 30
0.0
  0
SPLINE
  5
114
100
AcDbEntity
  8
Calque_1
 62
1
100
AcDbSpline
 70
8
 71
3
 72
8
 73
4
 74
0
 40
0
 40
0
 40
0
 40
0
 40
1
 40
1
 40
1
 40
1
 10
799.946771
 20
364.368084
 30
0.0
 10
800.709089
 20
364.368084
 30
0.0
 10
801.306934
 20
364.668935
 30
0.0
 10
801.740305
 20
365.270637
 30
0.0
  0
SPLINE
  5
115
100
AcDbEntity
  8
Calque_1
 62
1
100
AcDbSpline
 70
8
 71
3
 72
8
 73
4
 74
0
 40
0
 40
0
 40
0
 40
0
 40
1
 40
1
 40
1
 40
1
 10
801.740305
 20
365.270637
 30
0.0
 10
802.178905
 20
365.877571
 30
0.0
 10
802.398205
 20
366.712103
 30
0.0
 10
802.398205
 20
367.774234
 30
0.0
  0
LINE
  5
116
100
AcDbEntity
  8
Calque_1
 62
1
100
AcDbLine
 10
802.398205
 20
367.774234
 30
0.0
 11
802.398205
 21
367.774234
 31
0.0
  0
LINE
  5
117
100
AcDbEntity
  8
Calque_1
 62
1
100
AcDbLine
 10
806.282906
 20
375.598972
 30
0.0
 11
807.724005
 21
375.598972
 31
0.0
  0
LINE
  5
118
100
AcDbEntity
  8
Calque_1
 62
1
100
AcDbLine
 10
807.724005
 20
375.598972
 30
0.0
 11
807.724005
 21
363.387050
 31
0.0
  0
LINE
  5
119
100
AcDbEntity
  8
Calque_1
 62
1
100
AcDbLine
 10
807.724005
 20
363.387050
 30
0.0
 11
806.282906
 21
363.387050
 31
0.0
  0
LINE
  5
11a
100
AcDbEntity
  8
Calque_1
 62
1
100
AcDbLine
 10
806.282906
 20
363.387050
 30
0.0
 11
806.282906
 21
375.598972
 31
0.0
  0
SPLINE
  5
11b
100
AcDbEntity
  8
Calque_1
 62
1
100
AcDbSpline
 70
8
 71
3
 72
8
 73
4
 74
0
 40
0
 40
0
 40
0
 40
0
 40
1
 40
1
 40
1
 40
1
 10
814.718039
 20
367.805627
 30
0.0
 10
813.553670
 20
367.805627
 30
0.0
 10
812.746968
 20
367.672206
 30
0.0
 10
812.297932
 20
367.405363
 30
0.0
  0
SPLINE
  5
11c
100
AcDbEntity
  8
Calque_1
 62
1
100
AcDbSpline
 70
8
 71
3
 72
8
 73
4
 74
0
 40
0
 40
0
 40
0
 40
0
 40
1
 40
1
 40
1
 40
1
 10
812.297932
 20
367.405363
 30
0.0
 10
811.848890
 20
367.138527
 30
0.0
 10
811.624369
 20
366.683330
 30
0.0
 10
811.624369
 20
366.039772
 30
0.0
  0
SPLINE
  5
11d
100
AcDbEntity
  8
Calque_1
 62
1
100
AcDbSpline
 70
8
 71
3
 72
8
 73
4
 74
0
 40
0
 40
0
 40
0
 40
0
 40
1
 40
1
 40
1
 40
1
 10
811.624369
 20
366.039772
 30
0.0
 10
811.624369
 20
365.527015
 30
0.0
 10
811.791453
 20
365.118903
 30
0.0
 10
812.125621
 20
364.815436
 30
0.0
  0
SPLINE
  5
11e
100
AcDbEntity
  8
Calque_1
 62
1
100
AcDbSpline
 70
8
 71
3
 72
8
 73
4
 74
0
 40
0
 40
0
 40
0
 40
0
 40
1
 40
1
 40
1
 40
1
 10
812.125621
 20
364.815436
 30
0.0
 10
812.465016
 20
364.517202
 30
0.0
 10
812.924497
 20
364.368084
 30
0.0
 10
813.504065
 20
364.368084
 30
0.0
  0
SPLINE
  5
11f
100
AcDbEntity
  8
Calque_1
 62
1
100
AcDbSpline
 70
8
 71
3
 72
8
 73
4
 74
0
 40
0
 40
0
 40
0
 40
0
 40
1
 40
1
 40
1
 40
1
 10
813.504065
 20
364.368084
 30
0.0
 10
814.302938
 20
364.368084
 30
0.0
 10
814.942556
 20
364.650623
 30
0.0
 10
815.422919
 20
365.215700
 30
0.0
  0
SPLINE
  5
120
100
AcDbEntity
  8
Calque_1
 62
1
100
AcDbSpline
 70
8
 71
3
 72
8
 73
4
 74
0
 40
0
 40
0
 40
0
 40
0
 40
1
 40
1
 40
1
 40
1
 10
815.422919
 20
365.215700
 30
0.0
 10
815.908510
 20
365.786010
 30
0.0
 10
816.151306
 20
366.542061
 30
0.0
 10
816.151306
 20
367.483854
 30
0.0
  0
LINE
  5
121
100
AcDbEntity
  8
Calque_1
 62
1
100
AcDbLine
 10
816.151306
 20
367.483854
 30
0.0
 11
816.151306
 21
367.805627
 31
0.0
  0
LINE
  5
122
100
AcDbEntity
  8
Calque_1
 62
1
100
AcDbLine
 10
816.151306
 20
367.805627
 30
0.0
 11
814.718039
 21
367.805627
 31
0.0
  0
LINE
  5
123
100
AcDbEntity
  8
Calque_1
 62
1
100
AcDbLine
 10
817.592405
 20
368.402103
 30
0.0
 11
817.592405
 21
363.387050
 31
0.0
  0
LINE
  5
124
100
AcDbEntity
  8
Calque_1
 62
1
100
AcDbLine
 10
817.592405
 20
363.387050
 30
0.0
 11
816.151306
 21
363.387050
 31
0.0
  0
LINE
  5
125
100
AcDbEntity
  8
Calque_1
 62
1
100
AcDbLine
 10
816.151306
 20
363.387050
 30
0.0
 11
816.151306
 21
364.721259
 31
0.0
  0
SPLINE
  5
126
100
AcDbEntity
  8
Calque_1
 62
1
100
AcDbSpline
 70
8
 71
3
 72
8
 73
4
 74
0
 40
0
 40
0
 40
0
 40
0
 40
1
 40
1
 40
1
 40
1
 10
816.151306
 20
364.721259
 30
0.0
 10
815.822359
 20
364.187574
 30
0.0
 10
815.412480
 20
363.792543
 30
0.0
 10
814.921668
 20
363.536164
 30
0.0
  0
SPLINE
  5
127
100
AcDbEntity
  8
Calque_1
 62
1
100
AcDbSpline
 70
8
 71
3
 72
8
 73
4
 74
0
 40
0
 40
0
 40
0
 40
0
 40
1
 40
1
 40
1
 40
1
 10
814.921668
 20
363.536164
 30
0.0
 10
814.430862
 20
363.285018
 30
0.0
 10
813.830407
 20
363.159445
 30
0.0
 10
813.120302
 20
363.159445
 30
0.0
  0
SPLINE
  5
128
100
AcDbEntity
  8
Calque_1
 62
1
100
AcDbSpline
 70
8
 71
3
 72
8
 73
4
 74
0
 40
0
 40
0
 40
0
 40
0
 40
1
 40
1
 40
1
 40
1
 10
813.120302
 20
363.159445
 30
0.0
 10
812.222224
 20
363.159445
 30
0.0
 10
811.506894
 20
363.410591
 30
0.0
 10
810.974312
 20
363.912884
 30
0.0
  0
SPLINE
  5
129
100
AcDbEntity
  8
Calque_1
 62
1
100
AcDbSpline
 70
8
 71
3
 72
8
 73
4
 74
0
 40
0
 40
0
 40
0
 40
0
 40
1
 40
1
 40
1
 40
1
 10
810.974312
 20
363.912884
 30
0.0
 10
810.446951
 20
364.420408
 30
0.0
 10
810.183270
 20
365.097975
 30
0.0
 10
810.183270
 20
365.945584
 30
0.0
  0
SPLINE
  5
12a
100
AcDbEntity
  8
Calque_1
 62
1
100
AcDbSpline
 70
8
 71
3
 72
8
 73
4
 74
0
 40
0
 40
0
 40
0
 40
0
 40
1
 40
1
 40
1
 40
1
 10
810.183270
 20
365.945584
 30
0.0
 10
810.183270
 20
366.934473
 30
0.0
 10
810.512217
 20
367.680060
 30
0.0
 10
811.170109
 20
368.182346
 30
0.0
  0
SPLINE
  5
12b
100
AcDbEntity
  8
Calque_1
 62
1
100
AcDbSpline
 70
8
 71
3
 72
8
 73
4
 74
0
 40
0
 40
0
 40
0
 40
0
 40
1
 40
1
 40
1
 40
1
 10
811.170109
 20
368.182346
 30
0.0
 10
811.833230
 20
368.684639
 30
0.0
 10
812.820072
 20
368.935785
 30
0.0
 10
814.130636
 20
368.935785
 30
0.0
  0
LINE
  5
12c
100
AcDbEntity
  8
Calque_1
 62
1
100
AcDbLine
 10
814.130636
 20
368.935785
 30
0.0
 11
816.151306
 21
368.935785
 31
0.0
  0
LINE
  5
12d
100
AcDbEntity
  8
Calque_1
 62
1
100
AcDbLine
 10
816.151306
 20
368.935785
 30
0.0
 11
816.151306
 21
369.077051
 31
0.0
  0
SPLINE
  5
12e
100
AcDbEntity
  8
Calque_1
 62
1
100
AcDbSpline
 70
8
 71
3
 72
8
 73
4
 74
0
 40
0
 40
0
 40
0
 40
0
 40
1
 40
1
 40
1
 40
1
 10
816.151306
 20
369.077051
 30
0.0
 10
816.151306
 20
369.741538
 30
0.0
 10
815.932009
 20
370.254291
 30
0.0
 10
815.493416
 20
370.615311
 30
0.0
  0
SPLINE
  5
12f
100
AcDbEntity
  8
Calque_1
 62
1
100
AcDbSpline
 70
8
 71
3
 72
8
 73
4
 74
0
 40
0
 40
0
 40
0
 40
0
 40
1
 40
1
 40
1
 40
1
 10
815.493416
 20
370.615311
 30
0.0
 10
815.060038
 20
370.981563
 30
0.0
 10
814.449137
 20
371.164689
 30
0.0
 10
813.660712
 20
371.164689
 30
0.0
  0
SPLINE
  5
130
100
AcDbEntity
  8
Calque_1
 62
1
100
AcDbSpline
 70
8
 71
3
 72
8
 73
4
 74
0
 40
0
 40
0
 40
0
 40
0
 40
1
 40
1
 40
1
 40
1
 10
813.660712
 20
371.164689
 30
0.0
 10
813.159458
 20
371.164689
 30
0.0
 10
812.671259
 20
371.104520
 30
0.0
 10
812.196118
 20
370.984182
 30
0.0
  0
SPLINE
  5
131
100
AcDbEntity
  8
Calque_1
 62
1
100
AcDbSpline
 70
8
 71
3
 72
8
 73
4
 74
0
 40
0
 40
0
 40
0
 40
0
 40
1
 40
1
 40
1
 40
1
 10
812.196118
 20
370.984182
 30
0.0
 10
811.720969
 20
370.863844
 30
0.0
 10
811.264099
 20
370.683334
 30
0.0
 10
810.825506
 20
370.442652
 30
0.0
  0
LINE
  5
132
100
AcDbEntity
  8
Calque_1
 62
1
100
AcDbLine
 10
810.825506
 20
370.442652
 30
0.0
 11
810.825506
 21
371.776861
 31
0.0
  0
SPLINE
  5
133
100
AcDbEntity
  8
Calque_1
 62
1
100
AcDbSpline
 70
8
 71
3
 72
8
 73
4
 74
0
 40
0
 40
0
 40
0
 40
0
 40
1
 40
1
 40
1
 40
1
 10
810.825506
 20
371.776861
 30
0.0
 10
811.352860
 20
371.980912
 30
0.0
 10
811.864554
 20
372.132646
 30
0.0
 10
812.360588
 20
372.232062
 30
0.0
  0
SPLINE
  5
134
100
AcDbEntity
  8
Calque_1
 62
1
100
AcDbSpline
 70
8
 71
3
 72
8
 73
4
 74
0
 40
0
 40
0
 40
0
 40
0
 40
1
 40
1
 40
1
 40
1
 10
812.360588
 20
372.232062
 30
0.0
 10
812.856621
 20
372.336703
 30
0.0
 10
813.339598
 20
372.389024
 30
0.0
 10
813.809518
 20
372.389024
 30
0.0
  0
SPLINE
  5
135
100
AcDbEntity
  8
Calque_1
 62
1
100
AcDbSpline
 70
8
 71
3
 72
8
 73
4
 74
0
 40
0
 40
0
 40
0
 40
0
 40
1
 40
1
 40
1
 40
1
 10
813.809518
 20
372.389024
 30
0.0
 10
815.078312
 20
372.389024
 30
0.0
 10
816.025992
 20
372.059397
 30
0.0
 10
816.652557
 20
371.400142
 30
0.0
  0
SPLINE
  5
136
100
AcDbEntity
  8
Calque_1
 62
1
100
AcDbSpline
 70
8
 71
3
 72
8
 73
4
 74
0
 40
0
 40
0
 40
0
 40
0
 40
1
 40
1
 40
1
 40
1
 10
816.652557
 20
371.400142
 30
0.0
 10
817.279122
 20
370.740887
 30
0.0
 10
817.592405
 20
369.741541
 30
0.0
 10
817.592405
 20
368.402103
 30
0.0
  0
LINE
  5
137
100
AcDbEntity
  8
Calque_1
 62
1
100
AcDbLine
 10
817.592405
 20
368.402103
 30
0.0
 11
817.592405
 21
368.402103
 31
0.0
  0
SPLINE
  5
138
100
AcDbEntity
  8
Calque_1
 62
1
100
AcDbSpline
 70
8
 71
3
 72
8
 73
4
 74
0
 40
0
 40
0
 40
0
 40
0
 40
1
 40
1
 40
1
 40
1
 10
821.430114
 20
367.774234
 30
0.0
 10
821.430114
 20
366.712103
 30
0.0
 10
821.646803
 20
365.877571
 30
0.0
 10
822.080182
 20
365.270637
 30
0.0
  0
SPLINE
  5
139
100
AcDbEntity
  8
Calque_1
 62
1
100
AcDbSpline
 70
8
 71
3
 72
8
 73
4
 74
0
 40
0
 40
0
 40
0
 40
0
 40
1
 40
1
 40
1
 40
1
 10
822.080182
 20
365.270637
 30
0.0
 10
822.518774
 20
364.668935
 30
0.0
 10
823.119230
 20
364.368084
 30
0.0
 10
823.881548
 20
364.368084
 30
0.0
  0
SPLINE
  5
13a
100
AcDbEntity
  8
Calque_1
 62
1
100
AcDbSpline
 70
8
 71
3
 72
8
 73
4
 74
0
 40
0
 40
0
 40
0
 40
0
 40
1
 40
1
 40
1
 40
1
 10
823.881548
 20
364.368084
 30
0.0
 10
824.643872
 20
364.368084
 30
0.0
 10
825.244331
 20
364.668935
 30
0.0
 10
825.682924
 20
365.270637
 30
0.0
  0
SPLINE
  5
13b
100
AcDbEntity
  8
Calque_1
 62
1
100
AcDbSpline
 70
8
 71
3
 72
8
 73
4
 74
0
 40
0
 40
0
 40
0
 40
0
 40
1
 40
1
 40
1
 40
1
 10
825.682924
 20
365.270637
 30
0.0
 10
826.121524
 20
365.877571
 30
0.0
 10
826.340823
 20
366.712103
 30
0.0
 10
826.340823
 20
367.774234
 30
0.0
  0
SPLINE
  5
13c
100
AcDbEntity
  8
Calque_1
 62
1
100
AcDbSpline
 70
8
 71
3
 72
8
 73
4
 74
0
 40
0
 40
0
 40
0
 40
0
 40
1
 40
1
 40
1
 40
1
 10
826.340823
 20
367.774234
 30
0.0
 10
826.340823
 20
368.836372
 30
0.0
 10
826.121524
 20
369.668292
 30
0.0
 10
825.682924
 20
370.269994
 30
0.0
  0
SPLINE
  5
13d
100
AcDbEntity
  8
Calque_1
 62
1
100
AcDbSpline
 70
8
 71
3
 72
8
 73
4
 74
0
 40
0
 40
0
 40
0
 40
0
 40
1
 40
1
 40
1
 40
1
 10
825.682924
 20
370.269994
 30
0.0
 10
825.244331
 20
370.876921
 30
0.0
 10
824.643872
 20
371.180385
 30
0.0
 10
823.881548
 20
371.180385
 30
0.0
  0
SPLINE
  5
13e
100
AcDbEntity
  8
Calque_1
 62
1
100
AcDbSpline
 70
8
 71
3
 72
8
 73
4
 74
0
 40
0
 40
0
 40
0
 40
0
 40
1
 40
1
 40
1
 40
1
 10
823.881548
 20
371.180385
 30
0.0
 10
823.119230
 20
371.180385
 30
0.0
 10
822.518774
 20
370.876921
 30
0.0
 10
822.080182
 20
370.269994
 30
0.0
  0
SPLINE
  5
13f
100
AcDbEntity
  8
Calque_1
 62
1
100
AcDbSpline
 70
8
 71
3
 72
8
 73
4
 74
0
 40
0
 40
0
 40
0
 40
0
 40
1
 40
1
 40
1
 40
1
 10
822.080182
 20
370.269994
 30
0.0
 10
821.646803
 20
369.668292
 30
0.0
 10
821.430114
 20
368.836372
 30
0.0
 10
821.430114
 20
367.774234
 30
0.0
  0
LINE
  5
140
100
AcDbEntity
  8
Calque_1
 62
1
100
AcDbLine
 10
821.430114
 20
367.774234
 30
0.0
 11
821.430114
 21
367.774234
 31
0.0
  0
SPLINE
  5
141
100
AcDbEntity
  8
Calque_1
 62
1
100
AcDbSpline
 70
8
 71
3
 72
8
 73
4
 74
0
 40
0
 40
0
 40
0
 40
0
 40
1
 40
1
 40
1
 40
1
 10
826.340823
 20
364.705563
 30
0.0
 10
826.037983
 20
364.182342
 30
0.0
 10
825.654211
 20
363.792543
 30
0.0
 10
825.189505
 20
363.536164
 30
0.0
  0
SPLINE
  5
142
100
AcDbEntity
  8
Calque_1
 62
1
100
AcDbSpline
 70
8
 71
3
 72
8
 73
4
 74
0
 40
0
 40
0
 40
0
 40
0
 40
1
 40
1
 40
1
 40
1
 10
825.189505
 20
363.536164
 30
0.0
 10
824.730027
 20
363.285018
 30
0.0
 10
824.176563
 20
363.159445
 30
0.0
 10
823.529113
 20
363.159445
 30
0.0
  0
SPLINE
  5
143
100
AcDbEntity
  8
Calque_1
 62
1
100
AcDbSpline
 70
8
 71
3
 72
8
 73
4
 74
0
 40
0
 40
0
 40
0
 40
0
 40
1
 40
1
 40
1
 40
1
 10
823.529113
 20
363.159445
 30
0.0
 10
822.469169
 20
363.159445
 30
0.0
 10
821.605030
 20
363.583253
 30
0.0
 10
820.936695
 20
364.430869
 30
0.0
  0
SPLINE
  5
144
100
AcDbEntity
  8
Calque_1
 62
1
100
AcDbSpline
 70
8
 71
3
 72
8
 73
4
 74
0
 40
0
 40
0
 40
0
 40
0
 40
1
 40
1
 40
1
 40
1
 10
820.936695
 20
364.430869
 30
0.0
 10
820.273581
 20
365.278485
 30
0.0
 10
819.942024
 20
366.392940
 30
0.0
 10
819.942024
 20
367.774234
 30
0.0
  0
SPLINE
  5
145
100
AcDbEntity
  8
Calque_1
 62
1
100
AcDbSpline
 70
8
 71
3
 72
8
 73
4
 74
0
 40
0
 40
0
 40
0
 40
0
 40
1
 40
1
 40
1
 40
1
 10
819.942024
 20
367.774234
 30
0.0
 10
819.942024
 20
369.155535
 30
0.0
 10
820.273581
 20
370.269991
 30
0.0
 10
820.936695
 20
371.117600
 30
0.0
  0
SPLINE
  5
146
100
AcDbEntity
  8
Calque_1
 62
1
100
AcDbSpline
 70
8
 71
3
 72
8
 73
4
 74
0
 40
0
 40
0
 40
0
 40
0
 40
1
 40
1
 40
1
 40
1
 10
820.936695
 20
371.117600
 30
0.0
 10
821.605030
 20
371.965216
 30
0.0
 10
822.469169
 20
372.389024
 30
0.0
 10
823.529113
 20
372.389024
 30
0.0
  0
SPLINE
  5
147
100
AcDbEntity
  8
Calque_1
 62
1
100
AcDbSpline
 70
8
 71
3
 72
8
 73
4
 74
0
 40
0
 40
0
 40
0
 40
0
 40
1
 40
1
 40
1
 40
1
 10
823.529113
 20
372.389024
 30
0.0
 10
824.176563
 20
372.389024
 30
0.0
 10
824.730027
 20
372.260835
 30
0.0
 10
825.189505
 20
372.004456
 30
0.0
  0
SPLINE
  5
148
100
AcDbEntity
  8
Calque_1
 62
1
100
AcDbSpline
 70
8
 71
3
 72
8
 73
4
 74
0
 40
0
 40
0
 40
0
 40
0
 40
1
 40
1
 40
1
 40
1
 10
825.189505
 20
372.004456
 30
0.0
 10
825.654211
 20
371.753310
 30
0.0
 10
826.037983
 20
371.366130
 30
0.0
 10
826.340823
 20
370.842916
 30
0.0
  0
LINE
  5
149
100
AcDbEntity
  8
Calque_1
 62
1
100
AcDbLine
 10
826.340823
 20
370.842916
 30
0.0
 11
826.340823
 21
372.177125
 31
0.0
  0
LINE
  5
14a
100
AcDbEntity
  8
Calque_1
 62
1
100
AcDbLine
 10
826.340823
 20
372.177125
 30
0.0
 11
827.781923
 21
372.177125
 31
0.0
  0
LINE
  5
14b
100
AcDbEntity
  8
Calque_1
 62
1
100
AcDbLine
 10
827.781923
 20
372.177125
 30
0.0
 11
827.781923
 21
360.043685
 31
0.0
  0
LINE
  5
14c
100
AcDbEntity
  8
Calque_1
 62
1
100
AcDbLine
 10
827.781923
 20
360.043685
 30
0.0
 11
826.340823
 21
360.043685
 31
0.0
  0
LINE
  5
14d
100
AcDbEntity
  8
Calque_1
 62
1
100
AcDbLine
 10
826.340823
 20
360.043685
 30
0.0
 11
826.340823
 21
364.705563
 31
0.0
  0
LINE
  5
14e
100
AcDbEntity
  8
Calque_1
 62
1
100
AcDbLine
 10
830.601465
 20
366.855985
 30
0.0
 11
830.601465
 21
372.177125
 31
0.0
  0
LINE
  5
14f
100
AcDbEntity
  8
Calque_1
 62
1
100
AcDbLine
 10
830.601465
 20
372.177125
 30
0.0
 11
832.042564
 21
372.177125
 31
0.0
  0
LINE
  5
150
100
AcDbEntity
  8
Calque_1
 62
1
100
AcDbLine
 10
832.042564
 20
372.177125
 30
0.0
 11
832.042564
 21
366.910922
 31
0.0
  0
SPLINE
  5
151
100
AcDbEntity
  8
Calque_1
 62
1
100
AcDbSpline
 70
8
 71
3
 72
8
 73
4
 74
0
 40
0
 40
0
 40
0
 40
0
 40
1
 40
1
 40
1
 40
1
 10
832.042564
 20
366.910922
 30
0.0
 10
832.042564
 20
366.079009
 30
0.0
 10
832.204427
 20
365.453763
 30
0.0
 10
832.528152
 20
365.035184
 30
0.0
  0
SPLINE
  5
152
100
AcDbEntity
  8
Calque_1
 62
1
100
AcDbSpline
 70
8
 71
3
 72
8
 73
4
 74
0
 40
0
 40
0
 40
0
 40
0
 40
1
 40
1
 40
1
 40
1
 10
832.528152
 20
365.035184
 30
0.0
 10
832.851877
 20
364.621843
 30
0.0
 10
833.337465
 20
364.415173
 30
0.0
 10
833.984915
 20
364.415173
 30
0.0
  0
SPLINE
  5
153
100
AcDbEntity
  8
Calque_1
 62
1
100
AcDbSpline
 70
8
 71
3
 72
8
 73
4
 74
0
 40
0
 40
0
 40
0
 40
0
 40
1
 40
1
 40
1
 40
1
 10
833.984915
 20
364.415173
 30
0.0
 10
834.762903
 20
364.415173
 30
0.0
 10
835.376415
 20
364.663703
 30
0.0
 10
835.825451
 20
365.160763
 30
0.0
  0
SPLINE
  5
154
100
AcDbEntity
  8
Calque_1
 62
1
100
AcDbSpline
 70
8
 71
3
 72
8
 73
4
 74
0
 40
0
 40
0
 40
0
 40
0
 40
1
 40
1
 40
1
 40
1
 10
835.825451
 20
365.160763
 30
0.0
 10
836.279707
 20
365.657817
 30
0.0
 10
836.506836
 20
366.335384
 30
0.0
 10
836.506836
 20
367.193464
 30
0.0
  0
LINE
  5
155
100
AcDbEntity
  8
Calque_1
 62
1
100
AcDbLine
 10
836.506836
 20
367.193464
 30
0.0
 11
836.506836
 21
372.177125
 31
0.0
  0
LINE
  5
156
100
AcDbEntity
  8
Calque_1
 62
1
100
AcDbLine
 10
836.506836
 20
372.177125
 30
0.0
 11
837.947945
 21
372.177125
 31
0.0
  0
LINE
  5
157
100
AcDbEntity
  8
Calque_1
 62
1
100
AcDbLine
 10
837.947945
 20
372.177125
 30
0.0
 11
837.947945
 21
363.387050
 31
0.0
  0
LINE
  5
158
100
AcDbEntity
  8
Calque_1
 62
1
100
AcDbLine
 10
837.947945
 20
363.387050
 30
0.0
 11
836.506836
 21
363.387050
 31
0.0
  0
LINE
  5
159
100
AcDbEntity
  8
Calque_1
 62
1
100
AcDbLine
 10
836.506836
 20
363.387050
 30
0.0
 11
836.506836
 21
364.736955
 31
0.0
  0
SPLINE
  5
15a
100
AcDbEntity
  8
Calque_1
 62
1
100
AcDbSpline
 70
8
 71
3
 72
8
 73
4
 74
0
 40
0
 40
0
 40
0
 40
0
 40
1
 40
1
 40
1
 40
1
 10
836.506836
 20
364.736955
 30
0.0
 10
836.157004
 20
364.203270
 30
0.0
 10
835.749739
 20
363.805623
 30
0.0
 10
835.285040
 20
363.544012
 30
0.0
  0
SPLINE
  5
15b
100
AcDbEntity
  8
Calque_1
 62
1
100
AcDbSpline
 70
8
 71
3
 72
8
 73
4
 74
0
 40
0
 40
0
 40
0
 40
0
 40
1
 40
1
 40
1
 40
1
 10
835.285040
 20
363.544012
 30
0.0
 10
834.825555
 20
363.287634
 30
0.0
 10
834.290362
 20
363.159445
 30
0.0
 10
833.679461
 20
363.159445
 30
0.0
  0
SPLINE
  5
15c
100
AcDbEntity
  8
Calque_1
 62
1
100
AcDbSpline
 70
8
 71
3
 72
8
 73
4
 74
0
 40
0
 40
0
 40
0
 40
0
 40
1
 40
1
 40
1
 40
1
 10
833.679461
 20
363.159445
 30
0.0
 10
832.671737
 20
363.159445
 30
0.0
 10
831.906808
 20
363.473376
 30
0.0
 10
831.384675
 20
364.101238
 30
0.0
  0
SPLINE
  5
15d
100
AcDbEntity
  8
Calque_1
 62
1
100
AcDbSpline
 70
8
 71
3
 72
8
 73
4
 74
0
 40
0
 40
0
 40
0
 40
0
 40
1
 40
1
 40
1
 40
1
 10
831.384675
 20
364.101238
 30
0.0
 10
830.862535
 20
364.729101
 30
0.0
 10
830.601465
 20
365.647350
 30
0.0
 10
830.601465
 20
366.855985
 30
0.0
  0
LINE
  5
15e
100
AcDbEntity
  8
Calque_1
 62
1
100
AcDbLine
 10
830.601465
 20
366.855985
 30
0.0
 11
830.601465
 21
366.855985
 31
0.0
  0
LINE
  5
15f
100
AcDbEntity
  8
Calque_1
 62
1
100
AcDbLine
 10
834.227714
 20
372.389024
 30
0.0
 11
834.227714
 21
372.389024
 31
0.0
  0
LINE
  5
160
100
AcDbEntity
  8
Calque_1
 62
1
100
AcDbLine
 10
848.435075
 20
368.143106
 30
0.0
 11
848.435075
 21
367.436766
 31
0.0
  0
LINE
  5
161
100
AcDbEntity
  8
Calque_1
 62
1
100
AcDbLine
 10
848.435075
 20
367.436766
 30
0.0
 11
841.809150
 21
367.436766
 31
0.0
  0
SPLINE
  5
162
100
AcDbEntity
  8
Calque_1
 62
1
100
AcDbSpline
 70
8
 71
3
 72
8
 73
4
 74
0
 40
0
 40
0
 40
0
 40
0
 40
1
 40
1
 40
1
 40
1
 10
841.809150
 20
367.436766
 30
0.0
 10
841.871818
 20
366.442645
 30
0.0
 10
842.169434
 20
365.683977
 30
0.0
 10
842.701996
 20
365.160763
 30
0.0
  0
SPLINE
  5
163
100
AcDbEntity
  8
Calque_1
 62
1
100
AcDbSpline
 70
8
 71
3
 72
8
 73
4
 74
0
 40
0
 40
0
 40
0
 40
0
 40
1
 40
1
 40
1
 40
1
 10
842.701996
 20
365.160763
 30
0.0
 10
843.239800
 20
364.642775
 30
0.0
 10
843.986457
 20
364.383780
 30
0.0
 10
844.941969
 20
364.383780
 30
0.0
  0
SPLINE
  5
164
100
AcDbEntity
  8
Calque_1
 62
1
100
AcDbSpline
 70
8
 71
3
 72
8
 73
4
 74
0
 40
0
 40
0
 40
0
 40
0
 40
1
 40
1
 40
1
 40
1
 10
844.941969
 20
364.383780
 30
0.0
 10
845.495436
 20
364.383780
 30
0.0
 10
846.030629
 20
364.451797
 30
0.0
 10
846.547547
 20
364.587831
 30
0.0
  0
SPLINE
  5
165
100
AcDbEntity
  8
Calque_1
 62
1
100
AcDbSpline
 70
8
 71
3
 72
8
 73
4
 74
0
 40
0
 40
0
 40
0
 40
0
 40
1
 40
1
 40
1
 40
1
 10
846.547547
 20
364.587831
 30
0.0
 10
847.069681
 20
364.723872
 30
0.0
 10
847.586596
 20
364.927929
 30
0.0
 10
848.098293
 20
365.200004
 30
0.0
  0
LINE
  5
166
100
AcDbEntity
  8
Calque_1
 62
1
100
AcDbLine
 10
848.098293
 20
365.200004
 30
0.0
 11
848.098293
 21
363.834402
 31
0.0
  0
SPLINE
  5
167
100
AcDbEntity
  8
Calque_1
 62
1
100
AcDbSpline
 70
8
 71
3
 72
8
 73
4
 74
0
 40
0
 40
0
 40
0
 40
0
 40
1
 40
1
 40
1
 40
1
 10
848.098293
 20
363.834402
 30
0.0
 10
847.581374
 20
363.614649
 30
0.0
 10
847.051406
 20
363.447219
 30
0.0
 10
846.508388
 20
363.332113
 30
0.0
  0
SPLINE
  5
168
100
AcDbEntity
  8
Calque_1
 62
1
100
AcDbSpline
 70
8
 71
3
 72
8
 73
4
 74
0
 40
0
 40
0
 40
0
 40
0
 40
1
 40
1
 40
1
 40
1
 10
846.508388
 20
363.332113
 30
0.0
 10
845.965363
 20
363.217001
 30
0.0
 10
845.414506
 20
363.159445
 30
0.0
 10
844.855818
 20
363.159445
 30
0.0
  0
SPLINE
  5
169
100
AcDbEntity
  8
Calque_1
 62
1
100
AcDbSpline
 70
8
 71
3
 72
8
 73
4
 74
0
 40
0
 40
0
 40
0
 40
0
 40
1
 40
1
 40
1
 40
1
 10
844.855818
 20
363.159445
 30
0.0
 10
843.456492
 20
363.159445
 30
0.0
 10
842.346950
 20
363.567557
 30
0.0
 10
841.527192
 20
364.383780
 30
0.0
  0
SPLINE
  5
16a
100
AcDbEntity
  8
Calque_1
 62
1
100
AcDbSpline
 70
8
 71
3
 72
8
 73
4
 74
0
 40
0
 40
0
 40
0
 40
0
 40
1
 40
1
 40
1
 40
1
 10
841.527192
 20
364.383780
 30
0.0
 10
840.712654
 20
365.200004
 30
0.0
 10
840.305386
 20
366.303995
 30
0.0
 10
840.305386
 20
367.695753
 30
0.0
  0
SPLINE
  5
16b
100
AcDbEntity
  8
Calque_1
 62
1
100
AcDbSpline
 70
8
 71
3
 72
8
 73
4
 74
0
 40
0
 40
0
 40
0
 40
0
 40
1
 40
1
 40
1
 40
1
 10
840.305386
 20
367.695753
 30
0.0
 10
840.305386
 20
369.134607
 30
0.0
 10
840.691769
 20
370.275223
 30
0.0
 10
841.464536
 20
371.117600
 30
0.0
  0
SPLINE
  5
16c
100
AcDbEntity
  8
Calque_1
 62
1
100
AcDbSpline
 70
8
 71
3
 72
8
 73
4
 74
0
 40
0
 40
0
 40
0
 40
0
 40
1
 40
1
 40
1
 40
1
 10
841.464536
 20
371.117600
 30
0.0
 10
842.242518
 20
371.965216
 30
0.0
 10
843.289402
 20
372.389024
 30
0.0
 10
844.605187
 20
372.389024
 30
0.0
  0
SPLINE
  5
16d
100
AcDbEntity
  8
Calque_1
 62
1
100
AcDbSpline
 70
8
 71
3
 72
8
 73
4
 74
0
 40
0
 40
0
 40
0
 40
0
 40
1
 40
1
 40
1
 40
1
 10
844.605187
 20
372.389024
 30
0.0
 10
845.785219
 20
372.389024
 30
0.0
 10
846.717235
 20
372.007076
 30
0.0
 10
847.401234
 20
371.243180
 30
0.0
  0
SPLINE
  5
16e
100
AcDbEntity
  8
Calque_1
 62
1
100
AcDbSpline
 70
8
 71
3
 72
8
 73
4
 74
0
 40
0
 40
0
 40
0
 40
0
 40
1
 40
1
 40
1
 40
1
 10
847.401234
 20
371.243180
 30
0.0
 10
848.090461
 20
370.484509
 30
0.0
 10
848.435075
 20
369.451151
 30
0.0
 10
848.435075
 20
368.143106
 30
0.0
  0
LINE
  5
16f
100
AcDbEntity
  8
Calque_1
 62
1
100
AcDbLine
 10
848.435075
 20
368.143106
 30
0.0
 11
848.435075
 21
368.143106
 31
0.0
  0
SPLINE
  5
170
100
AcDbEntity
  8
Calque_1
 62
1
100
AcDbSpline
 70
8
 71
3
 72
8
 73
4
 74
0
 40
0
 40
0
 40
0
 40
0
 40
1
 40
1
 40
1
 40
1
 10
846.993976
 20
368.566914
 30
0.0
 10
846.983520
 20
369.356970
 30
0.0
 10
846.761609
 20
369.987449
 30
0.0
 10
846.328244
 20
370.458349
 30
0.0
  0
SPLINE
  5
171
100
AcDbEntity
  8
Calque_1
 62
1
100
AcDbSpline
 70
8
 71
3
 72
8
 73
4
 74
0
 40
0
 40
0
 40
0
 40
0
 40
1
 40
1
 40
1
 40
1
 10
846.328244
 20
370.458349
 30
0.0
 10
845.900094
 20
370.929242
 30
0.0
 10
845.330966
 20
371.164689
 30
0.0
 10
844.620861
 20
371.164689
 30
0.0
  0
SPLINE
  5
172
100
AcDbEntity
  8
Calque_1
 62
1
100
AcDbSpline
 70
8
 71
3
 72
8
 73
4
 74
0
 40
0
 40
0
 40
0
 40
0
 40
1
 40
1
 40
1
 40
1
 10
844.620861
 20
371.164689
 30
0.0
 10
843.816766
 20
371.164689
 30
0.0
 10
843.171923
 20
370.937090
 30
0.0
 10
842.686332
 20
370.481893
 30
0.0
  0
SPLINE
  5
173
100
AcDbEntity
  8
Calque_1
 62
1
100
AcDbSpline
 70
8
 71
3
 72
8
 73
4
 74
0
 40
0
 40
0
 40
0
 40
0
 40
1
 40
1
 40
1
 40
1
 10
842.686332
 20
370.481893
 30
0.0
 10
842.205969
 20
370.026696
 30
0.0
 10
841.929239
 20
369.385753
 30
0.0
 10
841.856141
 20
368.559066
 30
0.0
  0
LINE
  5
174
100
AcDbEntity
  8
Calque_1
 62
1
100
AcDbLine
 10
841.856141
 20
368.559066
 30
0.0
 11
846.993976
 21
368.566914
 31
0.0
  0
LINE
  5
175
100
AcDbEntity
  8
Calque_1
 62
1
100
AcDbLine
 10
795.905422
 20
350.751321
 30
0.0
 11
795.905422
 21
355.507376
 31
0.0
  0
LINE
  5
176
100
AcDbEntity
  8
Calque_1
 62
1
100
AcDbLine
 10
795.905422
 20
355.507376
 30
0.0
 11
797.346521
 21
355.507376
 31
0.0
  0
LINE
  5
177
100
AcDbEntity
  8
Calque_1
 62
1
100
AcDbLine
 10
797.346521
 20
355.507376
 30
0.0
 11
797.346521
 21
343.295455
 31
0.0
  0
LINE
  5
178
100
AcDbEntity
  8
Calque_1
 62
1
100
AcDbLine
 10
797.346521
 20
343.295455
 30
0.0
 11
795.905422
 21
343.295455
 31
0.0
  0
LINE
  5
179
100
AcDbEntity
  8
Calque_1
 62
1
100
AcDbLine
 10
795.905422
 20
343.295455
 30
0.0
 11
795.905422
 21
344.613968
 31
0.0
  0
SPLINE
  5
17a
100
AcDbEntity
  8
Calque_1
 62
1
100
AcDbSpline
 70
8
 71
3
 72
8
 73
4
 74
0
 40
0
 40
0
 40
0
 40
0
 40
1
 40
1
 40
1
 40
1
 10
795.905422
 20
344.613968
 30
0.0
 10
795.602582
 20
344.090747
 30
0.0
 10
795.218809
 20
343.700951
 30
0.0
 10
794.754103
 20
343.444579
 30
0.0
  0
SPLINE
  5
17b
100
AcDbEntity
  8
Calque_1
 62
1
100
AcDbSpline
 70
8
 71
3
 72
8
 73
4
 74
0
 40
0
 40
0
 40
0
 40
0
 40
1
 40
1
 40
1
 40
1
 10
794.754103
 20
343.444579
 30
0.0
 10
794.294625
 20
343.193433
 30
0.0
 10
793.741161
 20
343.067860
 30
0.0
 10
793.093711
 20
343.067860
 30
0.0
  0
SPLINE
  5
17c
100
AcDbEntity
  8
Calque_1
 62
1
100
AcDbSpline
 70
8
 71
3
 72
8
 73
4
 74
0
 40
0
 40
0
 40
0
 40
0
 40
1
 40
1
 40
1
 40
1
 10
793.093711
 20
343.067860
 30
0.0
 10
792.033775
 20
343.067860
 30
0.0
 10
791.169635
 20
343.491664
 30
0.0
 10
790.501293
 20
344.339274
 30
0.0
  0
SPLINE
  5
17d
100
AcDbEntity
  8
Calque_1
 62
1
100
AcDbSpline
 70
8
 71
3
 72
8
 73
4
 74
0
 40
0
 40
0
 40
0
 40
0
 40
1
 40
1
 40
1
 40
1
 10
790.501293
 20
344.339274
 30
0.0
 10
789.838179
 20
345.186890
 30
0.0
 10
789.506622
 20
346.301348
 30
0.0
 10
789.506622
 20
347.682649
 30
0.0
  0
SPLINE
  5
17e
100
AcDbEntity
  8
Calque_1
 62
1
100
AcDbSpline
 70
8
 71
3
 72
8
 73
4
 74
0
 40
0
 40
0
 40
0
 40
0
 40
1
 40
1
 40
1
 40
1
 10
789.506622
 20
347.682649
 30
0.0
 10
789.506622
 20
349.063943
 30
0.0
 10
789.838179
 20
350.178399
 30
0.0
 10
790.501293
 20
351.026015
 30
0.0
  0
SPLINE
  5
17f
100
AcDbEntity
  8
Calque_1
 62
1
100
AcDbSpline
 70
8
 71
3
 72
8
 73
4
 74
0
 40
0
 40
0
 40
0
 40
0
 40
1
 40
1
 40
1
 40
1
 10
790.501293
 20
351.026015
 30
0.0
 10
791.169635
 20
351.873624
 30
0.0
 10
792.033775
 20
352.297429
 30
0.0
 10
793.093711
 20
352.297429
 30
0.0
  0
SPLINE
  5
180
100
AcDbEntity
  8
Calque_1
 62
1
100
AcDbSpline
 70
8
 71
3
 72
8
 73
4
 74
0
 40
0
 40
0
 40
0
 40
0
 40
1
 40
1
 40
1
 40
1
 10
793.093711
 20
352.297429
 30
0.0
 10
793.741161
 20
352.297429
 30
0.0
 10
794.294625
 20
352.169243
 30
0.0
 10
794.754103
 20
351.912871
 30
0.0
  0
SPLINE
  5
181
100
AcDbEntity
  8
Calque_1
 62
1
100
AcDbSpline
 70
8
 71
3
 72
8
 73
4
 74
0
 40
0
 40
0
 40
0
 40
0
 40
1
 40
1
 40
1
 40
1
 10
794.754103
 20
351.912871
 30
0.0
 10
795.218809
 20
351.661725
 30
0.0
 10
795.602582
 20
351.274541
 30
0.0
 10
795.905422
 20
350.751321
 30
0.0
  0
LINE
  5
182
100
AcDbEntity
  8
Calque_1
 62
1
100
AcDbLine
 10
795.905422
 20
350.751321
 30
0.0
 11
795.905422
 21
350.751321
 31
0.0
  0
SPLINE
  5
183
100
AcDbEntity
  8
Calque_1
 62
1
100
AcDbSpline
 70
8
 71
3
 72
8
 73
4
 74
0
 40
0
 40
0
 40
0
 40
0
 40
1
 40
1
 40
1
 40
1
 10
790.994713
 20
347.682649
 30
0.0
 10
790.994713
 20
346.620511
 30
0.0
 10
791.211402
 20
345.785976
 30
0.0
 10
791.644780
 20
345.179042
 30
0.0
  0
SPLINE
  5
184
100
AcDbEntity
  8
Calque_1
 62
1
100
AcDbSpline
 70
8
 71
3
 72
8
 73
4
 74
0
 40
0
 40
0
 40
0
 40
0
 40
1
 40
1
 40
1
 40
1
 10
791.644780
 20
345.179042
 30
0.0
 10
792.083373
 20
344.577340
 30
0.0
 10
792.683832
 20
344.276489
 30
0.0
 10
793.446157
 20
344.276489
 30
0.0
  0
SPLINE
  5
185
100
AcDbEntity
  8
Calque_1
 62
1
100
AcDbSpline
 70
8
 71
3
 72
8
 73
4
 74
0
 40
0
 40
0
 40
0
 40
0
 40
1
 40
1
 40
1
 40
1
 10
793.446157
 20
344.276489
 30
0.0
 10
794.208475
 20
344.276489
 30
0.0
 10
794.808933
 20
344.577340
 30
0.0
 10
795.247533
 20
345.179042
 30
0.0
  0
SPLINE
  5
186
100
AcDbEntity
  8
Calque_1
 62
1
100
AcDbSpline
 70
8
 71
3
 72
8
 73
4
 74
0
 40
0
 40
0
 40
0
 40
0
 40
1
 40
1
 40
1
 40
1
 10
795.247533
 20
345.179042
 30
0.0
 10
795.686126
 20
345.785976
 30
0.0
 10
795.905422
 20
346.620511
 30
0.0
 10
795.905422
 20
347.682649
 30
0.0
  0
SPLINE
  5
187
100
AcDbEntity
  8
Calque_1
 62
1
100
AcDbSpline
 70
8
 71
3
 72
8
 73
4
 74
0
 40
0
 40
0
 40
0
 40
0
 40
1
 40
1
 40
1
 40
1
 10
795.905422
 20
347.682649
 30
0.0
 10
795.905422
 20
348.744780
 30
0.0
 10
795.686126
 20
349.576697
 30
0.0
 10
795.247533
 20
350.178399
 30
0.0
  0
SPLINE
  5
188
100
AcDbEntity
  8
Calque_1
 62
1
100
AcDbSpline
 70
8
 71
3
 72
8
 73
4
 74
0
 40
0
 40
0
 40
0
 40
0
 40
1
 40
1
 40
1
 40
1
 10
795.247533
 20
350.178399
 30
0.0
 10
794.808933
 20
350.785333
 30
0.0
 10
794.208475
 20
351.088800
 30
0.0
 10
793.446157
 20
351.088800
 30
0.0
  0
SPLINE
  5
189
100
AcDbEntity
  8
Calque_1
 62
1
100
AcDbSpline
 70
8
 71
3
 72
8
 73
4
 74
0
 40
0
 40
0
 40
0
 40
0
 40
1
 40
1
 40
1
 40
1
 10
793.446157
 20
351.088800
 30
0.0
 10
792.683832
 20
351.088800
 30
0.0
 10
792.083373
 20
350.785333
 30
0.0
 10
791.644780
 20
350.178399
 30
0.0
  0
SPLINE
  5
18a
100
AcDbEntity
  8
Calque_1
 62
1
100
AcDbSpline
 70
8
 71
3
 72
8
 73
4
 74
0
 40
0
 40
0
 40
0
 40
0
 40
1
 40
1
 40
1
 40
1
 10
791.644780
 20
350.178399
 30
0.0
 10
791.211402
 20
349.576697
 30
0.0
 10
790.994713
 20
348.744780
 30
0.0
 10
790.994713
 20
347.682649
 30
0.0
  0
LINE
  5
18b
100
AcDbEntity
  8
Calque_1
 62
1
100
AcDbLine
 10
790.994713
 20
347.682649
 30
0.0
 11
790.994713
 21
347.682649
 31
0.0
  0
LINE
  5
18c
100
AcDbEntity
  8
Calque_1
 62
1
100
AcDbLine
 10
807.817987
 20
348.051510
 30
0.0
 11
807.817987
 21
347.345170
 31
0.0
  0
LINE
  5
18d
100
AcDbEntity
  8
Calque_1
 62
1
100
AcDbLine
 10
807.817987
 20
347.345170
 30
0.0
 11
801.192063
 21
347.345170
 31
0.0
  0
SPLINE
  5
18e
100
AcDbEntity
  8
Calque_1
 62
1
100
AcDbSpline
 70
8
 71
3
 72
8
 73
4
 74
0
 40
0
 40
0
 40
0
 40
0
 40
1
 40
1
 40
1
 40
1
 10
801.192063
 20
347.345170
 30
0.0
 10
801.254731
 20
346.351056
 30
0.0
 10
801.552350
 20
345.592389
 30
0.0
 10
802.084919
 20
345.069168
 30
0.0
  0
SPLINE
  5
18f
100
AcDbEntity
  8
Calque_1
 62
1
100
AcDbSpline
 70
8
 71
3
 72
8
 73
4
 74
0
 40
0
 40
0
 40
0
 40
0
 40
1
 40
1
 40
1
 40
1
 10
802.084919
 20
345.069168
 30
0.0
 10
802.622722
 20
344.551179
 30
0.0
 10
803.369380
 20
344.292185
 30
0.0
 10
804.324891
 20
344.292185
 30
0.0
  0
SPLINE
  5
190
100
AcDbEntity
  8
Calque_1
 62
1
100
AcDbSpline
 70
8
 71
3
 72
8
 73
4
 74
0
 40
0
 40
0
 40
0
 40
0
 40
1
 40
1
 40
1
 40
1
 10
804.324891
 20
344.292185
 30
0.0
 10
804.878359
 20
344.292185
 30
0.0
 10
805.413548
 20
344.360205
 30
0.0
 10
805.930460
 20
344.496246
 30
0.0
  0
SPLINE
  5
191
100
AcDbEntity
  8
Calque_1
 62
1
100
AcDbSpline
 70
8
 71
3
 72
8
 73
4
 74
0
 40
0
 40
0
 40
0
 40
0
 40
1
 40
1
 40
1
 40
1
 10
805.930460
 20
344.496246
 30
0.0
 10
806.452600
 20
344.632280
 30
0.0
 10
806.969519
 20
344.836334
 30
0.0
 10
807.481216
 20
345.108409
 30
0.0
  0
LINE
  5
192
100
AcDbEntity
  8
Calque_1
 62
1
100
AcDbLine
 10
807.481216
 20
345.108409
 30
0.0
 11
807.481216
 21
343.742807
 31
0.0
  0
SPLINE
  5
193
100
AcDbEntity
  8
Calque_1
 62
1
100
AcDbSpline
 70
8
 71
3
 72
8
 73
4
 74
0
 40
0
 40
0
 40
0
 40
0
 40
1
 40
1
 40
1
 40
1
 10
807.481216
 20
343.742807
 30
0.0
 10
806.964297
 20
343.523053
 30
0.0
 10
806.434326
 20
343.355624
 30
0.0
 10
805.891301
 20
343.240518
 30
0.0
  0
SPLINE
  5
194
100
AcDbEntity
  8
Calque_1
 62
1
100
AcDbSpline
 70
8
 71
3
 72
8
 73
4
 74
0
 40
0
 40
0
 40
0
 40
0
 40
1
 40
1
 40
1
 40
1
 10
805.891301
 20
343.240518
 30
0.0
 10
805.348276
 20
343.125412
 30
0.0
 10
804.797422
 20
343.067860
 30
0.0
 10
804.238741
 20
343.067860
 30
0.0
  0
SPLINE
  5
195
100
AcDbEntity
  8
Calque_1
 62
1
100
AcDbSpline
 70
8
 71
3
 72
8
 73
4
 74
0
 40
0
 40
0
 40
0
 40
0
 40
1
 40
1
 40
1
 40
1
 10
804.238741
 20
343.067860
 30
0.0
 10
802.839408
 20
343.067860
 30
0.0
 10
801.729866
 20
343.475968
 30
0.0
 10
800.910114
 20
344.292185
 30
0.0
  0
SPLINE
  5
196
100
AcDbEntity
  8
Calque_1
 62
1
100
AcDbSpline
 70
8
 71
3
 72
8
 73
4
 74
0
 40
0
 40
0
 40
0
 40
0
 40
1
 40
1
 40
1
 40
1
 10
800.910114
 20
344.292185
 30
0.0
 10
800.095577
 20
345.108409
 30
0.0
 10
799.688308
 20
346.212400
 30
0.0
 10
799.688308
 20
347.604158
 30
0.0
  0
SPLINE
  5
197
100
AcDbEntity
  8
Calque_1
 62
1
100
AcDbSpline
 70
8
 71
3
 72
8
 73
4
 74
0
 40
0
 40
0
 40
0
 40
0
 40
1
 40
1
 40
1
 40
1
 10
799.688308
 20
347.604158
 30
0.0
 10
799.688308
 20
349.043012
 30
0.0
 10
800.074689
 20
350.183631
 30
0.0
 10
800.847449
 20
351.026015
 30
0.0
  0
SPLINE
  5
198
100
AcDbEntity
  8
Calque_1
 62
1
100
AcDbSpline
 70
8
 71
3
 72
8
 73
4
 74
0
 40
0
 40
0
 40
0
 40
0
 40
1
 40
1
 40
1
 40
1
 10
800.847449
 20
351.026015
 30
0.0
 10
801.625438
 20
351.873624
 30
0.0
 10
802.672324
 20
352.297429
 30
0.0
 10
803.988110
 20
352.297429
 30
0.0
  0
SPLINE
  5
199
100
AcDbEntity
  8
Calque_1
 62
1
100
AcDbSpline
 70
8
 71
3
 72
8
 73
4
 74
0
 40
0
 40
0
 40
0
 40
0
 40
1
 40
1
 40
1
 40
1
 10
803.988110
 20
352.297429
 30
0.0
 10
805.168142
 20
352.297429
 30
0.0
 10
806.100158
 20
351.915481
 30
0.0
 10
806.784157
 20
351.151584
 30
0.0
  0
SPLINE
  5
19a
100
AcDbEntity
  8
Calque_1
 62
1
100
AcDbSpline
 70
8
 71
3
 72
8
 73
4
 74
0
 40
0
 40
0
 40
0
 40
0
 40
1
 40
1
 40
1
 40
1
 10
806.784157
 20
351.151584
 30
0.0
 10
807.473377
 20
350.392914
 30
0.0
 10
807.817987
 20
349.359556
 30
0.0
 10
807.817987
 20
348.051510
 30
0.0
  0
LINE
  5
19b
100
AcDbEntity
  8
Calque_1
 62
1
100
AcDbLine
 10
807.817987
 20
348.051510
 30
0.0
 11
807.817987
 21
348.051510
 31
0.0
  0
SPLINE
  5
19c
100
AcDbEntity
  8
Calque_1
 62
1
100
AcDbSpline
 70
8
 71
3
 72
8
 73
4
 74
0
 40
0
 40
0
 40
0
 40
0
 40
1
 40
1
 40
1
 40
1
 10
806.376888
 20
348.475318
 30
0.0
 10
806.366433
 20
349.265382
 30
0.0
 10
806.144525
 20
349.895860
 30
0.0
 10
805.711167
 20
350.366753
 30
0.0
  0
SPLINE
  5
19d
100
AcDbEntity
  8
Calque_1
 62
1
100
AcDbSpline
 70
8
 71
3
 72
8
 73
4
 74
0
 40
0
 40
0
 40
0
 40
0
 40
1
 40
1
 40
1
 40
1
 10
805.711167
 20
350.366753
 30
0.0
 10
805.283010
 20
350.837653
 30
0.0
 10
804.713879
 20
351.073103
 30
0.0
 10
804.003774
 20
351.073103
 30
0.0
  0
SPLINE
  5
19e
100
AcDbEntity
  8
Calque_1
 62
1
100
AcDbSpline
 70
8
 71
3
 72
8
 73
4
 74
0
 40
0
 40
0
 40
0
 40
0
 40
1
 40
1
 40
1
 40
1
 10
804.003774
 20
351.073103
 30
0.0
 10
803.199686
 20
351.073103
 30
0.0
 10
802.554846
 20
350.845501
 30
0.0
 10
802.069255
 20
350.390298
 30
0.0
  0
SPLINE
  5
19f
100
AcDbEntity
  8
Calque_1
 62
1
100
AcDbSpline
 70
8
 71
3
 72
8
 73
4
 74
0
 40
0
 40
0
 40
0
 40
0
 40
1
 40
1
 40
1
 40
1
 10
802.069255
 20
350.390298
 30
0.0
 10
801.588892
 20
349.935100
 30
0.0
 10
801.312158
 20
349.294158
 30
0.0
 10
801.239054
 20
348.467470
 30
0.0
  0
LINE
  5
1a0
100
AcDbEntity
  8
Calque_1
 62
1
100
AcDbLine
 10
801.239054
 20
348.467470
 30
0.0
 11
806.376888
 21
348.475318
 31
0.0
  0
SPLINE
  5
1a1
100
AcDbEntity
  8
Calque_1
 62
1
100
AcDbSpline
 70
8
 71
3
 72
8
 73
4
 74
0
 40
0
 40
0
 40
0
 40
0
 40
1
 40
1
 40
1
 40
1
 10
820.286637
 20
349.613325
 30
0.0
 10
821.043734
 20
349.451124
 30
0.0
 10
821.633750
 20
349.113645
 30
0.0
 10
822.056686
 20
348.600888
 30
0.0
  0
SPLINE
  5
1a2
100
AcDbEntity
  8
Calque_1
 62
1
100
AcDbSpline
 70
8
 71
3
 72
8
 73
4
 74
0
 40
0
 40
0
 40
0
 40
0
 40
1
 40
1
 40
1
 40
1
 10
822.056686
 20
348.600888
 30
0.0
 10
822.484836
 20
348.088138
 30
0.0
 10
822.698911
 20
347.455044
 30
0.0
 10
822.698911
 20
346.701605
 30
0.0
  0
SPLINE
  5
1a3
100
AcDbEntity
  8
Calque_1
 62
1
100
AcDbSpline
 70
8
 71
3
 72
8
 73
4
 74
0
 40
0
 40
0
 40
0
 40
0
 40
1
 40
1
 40
1
 40
1
 10
822.698911
 20
346.701605
 30
0.0
 10
822.698911
 20
345.545297
 30
0.0
 10
822.302089
 20
344.650595
 30
0.0
 10
821.508443
 20
344.017501
 30
0.0
  0
SPLINE
  5
1a4
100
AcDbEntity
  8
Calque_1
 62
1
100
AcDbSpline
 70
8
 71
3
 72
8
 73
4
 74
0
 40
0
 40
0
 40
0
 40
0
 40
1
 40
1
 40
1
 40
1
 10
821.508443
 20
344.017501
 30
0.0
 10
820.714791
 20
343.384407
 30
0.0
 10
819.586971
 20
343.067860
 30
0.0
 10
818.124984
 20
343.067860
 30
0.0
  0
SPLINE
  5
1a5
100
AcDbEntity
  8
Calque_1
 62
1
100
AcDbSpline
 70
8
 71
3
 72
8
 73
4
 74
0
 40
0
 40
0
 40
0
 40
0
 40
1
 40
1
 40
1
 40
1
 10
818.124984
 20
343.067860
 30
0.0
 10
817.634178
 20
343.067860
 30
0.0
 10
817.127705
 20
343.117564
 30
0.0
 10
816.605566
 20
343.216974
 30
0.0
  0
SPLINE
  5
1a6
100
AcDbEntity
  8
Calque_1
 62
1
100
AcDbSpline
 70
8
 71
3
 72
8
 73
4
 74
0
 40
0
 40
0
 40
0
 40
0
 40
1
 40
1
 40
1
 40
1
 10
816.605566
 20
343.216974
 30
0.0
 10
816.088647
 20
343.311151
 30
0.0
 10
815.553458
 20
343.455036
 30
0.0
 10
814.999997
 20
343.648630
 30
0.0
  0
LINE
  5
1a7
100
AcDbEntity
  8
Calque_1
 62
1
100
AcDbLine
 10
814.999997
 20
343.648630
 30
0.0
 11
814.999997
 21
345.179042
 31
0.0
  0
SPLINE
  5
1a8
100
AcDbEntity
  8
Calque_1
 62
1
100
AcDbSpline
 70
8
 71
3
 72
8
 73
4
 74
0
 40
0
 40
0
 40
0
 40
0
 40
1
 40
1
 40
1
 40
1
 10
814.999997
 20
345.179042
 30
0.0
 10
815.438590
 20
344.922663
 30
0.0
 10
815.918956
 20
344.729073
 30
0.0
 10
816.441096
 20
344.598271
 30
0.0
  0
SPLINE
  5
1a9
100
AcDbEntity
  8
Calque_1
 62
1
100
AcDbSpline
 70
8
 71
3
 72
8
 73
4
 74
0
 40
0
 40
0
 40
0
 40
0
 40
1
 40
1
 40
1
 40
1
 10
816.441096
 20
344.598271
 30
0.0
 10
816.963229
 20
344.467470
 30
0.0
 10
817.508861
 20
344.402069
 30
0.0
 10
818.077992
 20
344.402069
 30
0.0
  0
SPLINE
  5
1aa
100
AcDbEntity
  8
Calque_1
 62
1
100
AcDbSpline
 70
8
 71
3
 72
8
 73
4
 74
0
 40
0
 40
0
 40
0
 40
0
 40
1
 40
1
 40
1
 40
1
 10
818.077992
 20
344.402069
 30
0.0
 10
819.070053
 20
344.402069
 30
0.0
 10
819.824542
 20
344.598275
 30
0.0
 10
820.341460
 20
344.990687
 30
0.0
  0
SPLINE
  5
1ab
100
AcDbEntity
  8
Calque_1
 62
1
100
AcDbSpline
 70
8
 71
3
 72
8
 73
4
 74
0
 40
0
 40
0
 40
0
 40
0
 40
1
 40
1
 40
1
 40
1
 10
820.341460
 20
344.990687
 30
0.0
 10
820.863600
 20
345.383099
 30
0.0
 10
821.124670
 20
345.953405
 30
0.0
 10
821.124670
 20
346.701605
 30
0.0
  0
SPLINE
  5
1ac
100
AcDbEntity
  8
Calque_1
 62
1
100
AcDbSpline
 70
8
 71
3
 72
8
 73
4
 74
0
 40
0
 40
0
 40
0
 40
0
 40
1
 40
1
 40
1
 40
1
 10
821.124670
 20
346.701605
 30
0.0
 10
821.124670
 20
347.392259
 30
0.0
 10
820.881875
 20
347.931176
 30
0.0
 10
820.396284
 20
348.318356
 30
0.0
  0
SPLINE
  5
1ad
100
AcDbEntity
  8
Calque_1
 62
1
100
AcDbSpline
 70
8
 71
3
 72
8
 73
4
 74
0
 40
0
 40
0
 40
0
 40
0
 40
1
 40
1
 40
1
 40
1
 10
820.396284
 20
348.318356
 30
0.0
 10
819.915921
 20
348.710768
 30
0.0
 10
819.244975
 20
348.906975
 30
0.0
 10
818.383446
 20
348.906975
 30
0.0
  0
LINE
  5
1ae
100
AcDbEntity
  8
Calque_1
 62
1
100
AcDbLine
 10
818.383446
 20
348.906975
 30
0.0
 11
817.020666
 21
348.906975
 31
0.0
  0
LINE
  5
1af
100
AcDbEntity
  8
Calque_1
 62
1
100
AcDbLine
 10
817.020666
 20
348.906975
 30
0.0
 11
817.020666
 21
350.209791
 31
0.0
  0
LINE
  5
1b0
100
AcDbEntity
  8
Calque_1
 62
1
100
AcDbLine
 10
817.020666
 20
350.209791
 30
0.0
 11
818.446101
 21
350.209791
 31
0.0
  0
SPLINE
  5
1b1
100
AcDbEntity
  8
Calque_1
 62
1
100
AcDbSpline
 70
8
 71
3
 72
8
 73
4
 74
0
 40
0
 40
0
 40
0
 40
0
 40
1
 40
1
 40
1
 40
1
 10
818.446101
 20
350.209791
 30
0.0
 10
819.224090
 20
350.209791
 30
0.0
 10
819.819327
 20
350.364141
 30
0.0
 10
820.231814
 20
350.672840
 30
0.0
  0
SPLINE
  5
1b2
100
AcDbEntity
  8
Calque_1
 62
1
100
AcDbSpline
 70
8
 71
3
 72
8
 73
4
 74
0
 40
0
 40
0
 40
0
 40
0
 40
1
 40
1
 40
1
 40
1
 10
820.231814
 20
350.672840
 30
0.0
 10
820.644300
 20
350.986771
 30
0.0
 10
820.850544
 20
351.436739
 30
0.0
 10
820.850544
 20
352.022745
 30
0.0
  0
SPLINE
  5
1b3
100
AcDbEntity
  8
Calque_1
 62
1
100
AcDbSpline
 70
8
 71
3
 72
8
 73
4
 74
0
 40
0
 40
0
 40
0
 40
0
 40
1
 40
1
 40
1
 40
1
 10
820.850544
 20
352.022745
 30
0.0
 10
820.850544
 20
352.624447
 30
0.0
 10
820.636469
 20
353.084879
 30
0.0
 10
820.208318
 20
353.404042
 30
0.0
  0
SPLINE
  5
1b4
100
AcDbEntity
  8
Calque_1
 62
1
100
AcDbSpline
 70
8
 71
3
 72
8
 73
4
 74
0
 40
0
 40
0
 40
0
 40
0
 40
1
 40
1
 40
1
 40
1
 10
820.208318
 20
353.404042
 30
0.0
 10
819.785382
 20
353.728438
 30
0.0
 10
819.177092
 20
353.890635
 30
0.0
 10
818.383446
 20
353.890635
 30
0.0
  0
SPLINE
  5
1b5
100
AcDbEntity
  8
Calque_1
 62
1
100
AcDbSpline
 70
8
 71
3
 72
8
 73
4
 74
0
 40
0
 40
0
 40
0
 40
0
 40
1
 40
1
 40
1
 40
1
 10
818.383446
 20
353.890635
 30
0.0
 10
817.950075
 20
353.890635
 30
0.0
 10
817.485372
 20
353.843543
 30
0.0
 10
816.989339
 20
353.749359
 30
0.0
  0
SPLINE
  5
1b6
100
AcDbEntity
  8
Calque_1
 62
1
100
AcDbSpline
 70
8
 71
3
 72
8
 73
4
 74
0
 40
0
 40
0
 40
0
 40
0
 40
1
 40
1
 40
1
 40
1
 10
816.989339
 20
353.749359
 30
0.0
 10
816.493305
 20
353.655182
 30
0.0
 10
815.947670
 20
353.508684
 30
0.0
 10
815.352432
 20
353.309865
 30
0.0
  0
LINE
  5
1b7
100
AcDbEntity
  8
Calque_1
 62
1
100
AcDbLine
 10
815.352432
 20
353.309865
 30
0.0
 11
815.352432
 21
354.722555
 31
0.0
  0
SPLINE
  5
1b8
100
AcDbEntity
  8
Calque_1
 62
1
100
AcDbSpline
 70
8
 71
3
 72
8
 73
4
 74
0
 40
0
 40
0
 40
0
 40
0
 40
1
 40
1
 40
1
 40
1
 10
815.352432
 20
354.722555
 30
0.0
 10
815.952891
 20
354.889981
 30
0.0
 10
816.514190
 20
355.015551
 30
0.0
 10
817.036330
 20
355.099264
 30
0.0
  0
SPLINE
  5
1b9
100
AcDbEntity
  8
Calque_1
 62
1
100
AcDbSpline
 70
8
 71
3
 72
8
 73
4
 74
0
 40
0
 40
0
 40
0
 40
0
 40
1
 40
1
 40
1
 40
1
 10
817.036330
 20
355.099264
 30
0.0
 10
817.563691
 20
355.182984
 30
0.0
 10
818.059721
 20
355.224844
 30
0.0
 10
818.524420
 20
355.224844
 30
0.0
  0
SPLINE
  5
1ba
100
AcDbEntity
  8
Calque_1
 62
1
100
AcDbSpline
 70
8
 71
3
 72
8
 73
4
 74
0
 40
0
 40
0
 40
0
 40
0
 40
1
 40
1
 40
1
 40
1
 10
818.524420
 20
355.224844
 30
0.0
 10
819.725338
 20
355.224844
 30
0.0
 10
820.675628
 20
354.950154
 30
0.0
 10
821.375291
 20
354.400773
 30
0.0
  0
SPLINE
  5
1bb
100
AcDbEntity
  8
Calque_1
 62
1
100
AcDbSpline
 70
8
 71
3
 72
8
 73
4
 74
0
 40
0
 40
0
 40
0
 40
0
 40
1
 40
1
 40
1
 40
1
 10
821.375291
 20
354.400773
 30
0.0
 10
822.074960
 20
353.856623
 30
0.0
 10
822.424795
 20
353.118884
 30
0.0
 10
822.424795
 20
352.187555
 30
0.0
  0
SPLINE
  5
1bc
100
AcDbEntity
  8
Calque_1
 62
1
100
AcDbSpline
 70
8
 71
3
 72
8
 73
4
 74
0
 40
0
 40
0
 40
0
 40
0
 40
1
 40
1
 40
1
 40
1
 10
822.424795
 20
352.187555
 30
0.0
 10
822.424795
 20
351.538765
 30
0.0
 10
822.239433
 20
350.989387
 30
0.0
 10
821.868710
 20
350.539422
 30
0.0
  0
SPLINE
  5
1bd
100
AcDbEntity
  8
Calque_1
 62
1
100
AcDbSpline
 70
8
 71
3
 72
8
 73
4
 74
0
 40
0
 40
0
 40
0
 40
0
 40
1
 40
1
 40
1
 40
1
 10
821.868710
 20
350.539422
 30
0.0
 10
821.497994
 20
350.094682
 30
0.0
 10
820.970636
 20
349.785983
 30
0.0
 10
820.286637
 20
349.613325
 30
0.0
  0
LINE
  5
1be
100
AcDbEntity
  8
Calque_1
 62
1
100
AcDbLine
 10
820.286637
 20
349.613325
 30
0.0
 11
820.286637
 21
349.613325
 31
0.0
  0
SPLINE
  5
1bf
100
AcDbEntity
  8
Calque_1
 62
1
100
AcDbSpline
 70
8
 71
3
 72
8
 73
4
 74
0
 40
0
 40
0
 40
0
 40
0
 40
1
 40
1
 40
1
 40
1
 10
832.332345
 20
350.398146
 30
0.0
 10
832.692625
 20
351.046936
 30
0.0
 10
833.123390
 20
351.525681
 30
0.0
 10
833.624638
 20
351.834380
 30
0.0
  0
SPLINE
  5
1c0
100
AcDbEntity
  8
Calque_1
 62
1
100
AcDbSpline
 70
8
 71
3
 72
8
 73
4
 74
0
 40
0
 40
0
 40
0
 40
0
 40
1
 40
1
 40
1
 40
1
 10
833.624638
 20
351.834380
 30
0.0
 10
834.125892
 20
352.143079
 30
0.0
 10
834.715909
 20
352.297429
 30
0.0
 10
835.394686
 20
352.297429
 30
0.0
  0
SPLINE
  5
1c1
100
AcDbEntity
  8
Calque_1
 62
1
100
AcDbSpline
 70
8
 71
3
 72
8
 73
4
 74
0
 40
0
 40
0
 40
0
 40
0
 40
1
 40
1
 40
1
 40
1
 10
835.394686
 20
352.297429
 30
0.0
 10
836.308428
 20
352.297429
 30
0.0
 10
837.013312
 20
351.975649
 30
0.0
 10
837.509338
 20
351.332091
 30
0.0
  0
SPLINE
  5
1c2
100
AcDbEntity
  8
Calque_1
 62
1
100
AcDbSpline
 70
8
 71
3
 72
8
 73
4
 74
0
 40
0
 40
0
 40
0
 40
0
 40
1
 40
1
 40
1
 40
1
 10
837.509338
 20
351.332091
 30
0.0
 10
838.005372
 20
350.693765
 30
0.0
 10
838.253389
 20
349.783364
 30
0.0
 10
838.253389
 20
348.600888
 30
0.0
  0
LINE
  5
1c3
100
AcDbEntity
  8
Calque_1
 62
1
100
AcDbLine
 10
838.253389
 20
348.600888
 30
0.0
 11
838.253389
 21
343.295455
 31
0.0
  0
LINE
  5
1c4
100
AcDbEntity
  8
Calque_1
 62
1
100
AcDbLine
 10
838.253389
 20
343.295455
 30
0.0
 11
836.804458
 21
343.295455
 31
0.0
  0
LINE
  5
1c5
100
AcDbEntity
  8
Calque_1
 62
1
100
AcDbLine
 10
836.804458
 20
343.295455
 30
0.0
 11
836.804458
 21
348.553800
 31
0.0
  0
SPLINE
  5
1c6
100
AcDbEntity
  8
Calque_1
 62
1
100
AcDbSpline
 70
8
 71
3
 72
8
 73
4
 74
0
 40
0
 40
0
 40
0
 40
0
 40
1
 40
1
 40
1
 40
1
 10
836.804458
 20
348.553800
 30
0.0
 10
836.804458
 20
349.396183
 30
0.0
 10
836.655648
 20
350.021430
 30
0.0
 10
836.358030
 20
350.429538
 30
0.0
  0
SPLINE
  5
1c7
100
AcDbEntity
  8
Calque_1
 62
1
100
AcDbSpline
 70
8
 71
3
 72
8
 73
4
 74
0
 40
0
 40
0
 40
0
 40
0
 40
1
 40
1
 40
1
 40
1
 10
836.358030
 20
350.429538
 30
0.0
 10
836.060411
 20
350.837653
 30
0.0
 10
835.606151
 20
351.041711
 30
0.0
 10
834.995250
 20
351.041711
 30
0.0
  0
SPLINE
  5
1c8
100
AcDbEntity
  8
Calque_1
 62
1
100
AcDbSpline
 70
8
 71
3
 72
8
 73
4
 74
0
 40
0
 40
0
 40
0
 40
0
 40
1
 40
1
 40
1
 40
1
 10
834.995250
 20
351.041711
 30
0.0
 10
834.248595
 20
351.041711
 30
0.0
 10
833.658579
 20
350.793181
 30
0.0
 10
833.225201
 20
350.296120
 30
0.0
  0
SPLINE
  5
1c9
100
AcDbEntity
  8
Calque_1
 62
1
100
AcDbSpline
 70
8
 71
3
 72
8
 73
4
 74
0
 40
0
 40
0
 40
0
 40
0
 40
1
 40
1
 40
1
 40
1
 10
833.225201
 20
350.296120
 30
0.0
 10
832.791829
 20
349.799067
 30
0.0
 10
832.575143
 20
349.121500
 30
0.0
 10
832.575143
 20
348.263419
 30
0.0
  0
LINE
  5
1ca
100
AcDbEntity
  8
Calque_1
 62
1
100
AcDbLine
 10
832.575143
 20
348.263419
 30
0.0
 11
832.575143
 21
343.295455
 31
0.0
  0
LINE
  5
1cb
100
AcDbEntity
  8
Calque_1
 62
1
100
AcDbLine
 10
832.575143
 20
343.295455
 30
0.0
 11
831.126212
 21
343.295455
 31
0.0
  0
LINE
  5
1cc
100
AcDbEntity
  8
Calque_1
 62
1
100
AcDbLine
 10
831.126212
 20
343.295455
 30
0.0
 11
831.126212
 21
348.553800
 31
0.0
  0
SPLINE
  5
1cd
100
AcDbEntity
  8
Calque_1
 62
1
100
AcDbSpline
 70
8
 71
3
 72
8
 73
4
 74
0
 40
0
 40
0
 40
0
 40
0
 40
1
 40
1
 40
1
 40
1
 10
831.126212
 20
348.553800
 30
0.0
 10
831.126212
 20
349.401416
 30
0.0
 10
830.977403
 20
350.026662
 30
0.0
 10
830.679784
 20
350.429538
 30
0.0
  0
SPLINE
  5
1ce
100
AcDbEntity
  8
Calque_1
 62
1
100
AcDbSpline
 70
8
 71
3
 72
8
 73
4
 74
0
 40
0
 40
0
 40
0
 40
0
 40
1
 40
1
 40
1
 40
1
 10
830.679784
 20
350.429538
 30
0.0
 10
830.382166
 20
350.837653
 30
0.0
 10
829.922684
 20
351.041711
 30
0.0
 10
829.301341
 20
351.041711
 30
0.0
  0
SPLINE
  5
1cf
100
AcDbEntity
  8
Calque_1
 62
1
100
AcDbSpline
 70
8
 71
3
 72
8
 73
4
 74
0
 40
0
 40
0
 40
0
 40
0
 40
1
 40
1
 40
1
 40
1
 10
829.301341
 20
351.041711
 30
0.0
 10
828.565129
 20
351.041711
 30
0.0
 10
827.980334
 20
350.790565
 30
0.0
 10
827.546956
 20
350.288272
 30
0.0
  0
SPLINE
  5
1d0
100
AcDbEntity
  8
Calque_1
 62
1
100
AcDbSpline
 70
8
 71
3
 72
8
 73
4
 74
0
 40
0
 40
0
 40
0
 40
0
 40
1
 40
1
 40
1
 40
1
 10
827.546956
 20
350.288272
 30
0.0
 10
827.113584
 20
349.791212
 30
0.0
 10
826.896898
 20
349.116261
 30
0.0
 10
826.896898
 20
348.263419
 30
0.0
  0
LINE
  5
1d1
100
AcDbEntity
  8
Calque_1
 62
1
100
AcDbLine
 10
826.896898
 20
348.263419
 30
0.0
 11
826.896898
 21
343.295455
 31
0.0
  0
LINE
  5
1d2
100
AcDbEntity
  8
Calque_1
 62
1
100
AcDbLine
 10
826.896898
 20
343.295455
 30
0.0
 11
825.447967
 21
343.295455
 31
0.0
  0
LINE
  5
1d3
100
AcDbEntity
  8
Calque_1
 62
1
100
AcDbLine
 10
825.447967
 20
343.295455
 30
0.0
 11
825.447967
 21
352.085530
 31
0.0
  0
LINE
  5
1d4
100
AcDbEntity
  8
Calque_1
 62
1
100
AcDbLine
 10
825.447967
 20
352.085530
 30
0.0
 11
826.896898
 21
352.085530
 31
0.0
  0
LINE
  5
1d5
100
AcDbEntity
  8
Calque_1
 62
1
100
AcDbLine
 10
826.896898
 20
352.085530
 30
0.0
 11
826.896898
 21
350.719928
 31
0.0
  0
SPLINE
  5
1d6
100
AcDbEntity
  8
Calque_1
 62
1
100
AcDbSpline
 70
8
 71
3
 72
8
 73
4
 74
0
 40
0
 40
0
 40
0
 40
0
 40
1
 40
1
 40
1
 40
1
 10
826.896898
 20
350.719928
 30
0.0
 10
827.225845
 20
351.258845
 30
0.0
 10
827.620057
 20
351.656493
 30
0.0
 10
828.079535
 20
351.912871
 30
0.0
  0
SPLINE
  5
1d7
100
AcDbEntity
  8
Calque_1
 62
1
100
AcDbSpline
 70
8
 71
3
 72
8
 73
4
 74
0
 40
0
 40
0
 40
0
 40
0
 40
1
 40
1
 40
1
 40
1
 10
828.079535
 20
351.912871
 30
0.0
 10
828.539019
 20
352.169243
 30
0.0
 10
829.084655
 20
352.297429
 30
0.0
 10
829.716441
 20
352.297429
 30
0.0
  0
SPLINE
  5
1d8
100
AcDbEntity
  8
Calque_1
 62
1
100
AcDbSpline
 70
8
 71
3
 72
8
 73
4
 74
0
 40
0
 40
0
 40
0
 40
0
 40
1
 40
1
 40
1
 40
1
 10
829.716441
 20
352.297429
 30
0.0
 10
830.353449
 20
352.297429
 30
0.0
 10
830.893860
 20
352.135231
 30
0.0
 10
831.337674
 20
351.810836
 30
0.0
  0
SPLINE
  5
1d9
100
AcDbEntity
  8
Calque_1
 62
1
100
AcDbSpline
 70
8
 71
3
 72
8
 73
4
 74
0
 40
0
 40
0
 40
0
 40
0
 40
1
 40
1
 40
1
 40
1
 10
831.337674
 20
351.810836
 30
0.0
 10
831.786716
 20
351.486440
 30
0.0
 10
832.118273
 20
351.015544
 30
0.0
 10
832.332345
 20
350.398146
 30
0.0
  0
LINE
  5
1da
100
AcDbEntity
  8
Calque_1
 62
1
100
AcDbLine
 10
832.332345
 20
350.398146
 30
0.0
 11
832.332345
 21
350.398146
 31
0.0
  0
SPLINE
  5
1db
100
AcDbEntity
  8
Calque_1
 62
1
100
AcDbSpline
 70
8
 71
3
 72
8
 73
4
 74
0
 40
0
 40
0
 40
0
 40
0
 40
1
 40
1
 40
1
 40
1
 10
847.965151
 20
350.398146
 30
0.0
 10
848.325425
 20
351.046936
 30
0.0
 10
848.756189
 20
351.525681
 30
0.0
 10
849.257444
 20
351.834380
 30
0.0
  0
SPLINE
  5
1dc
100
AcDbEntity
  8
Calque_1
 62
1
100
AcDbSpline
 70
8
 71
3
 72
8
 73
4
 74
0
 40
0
 40
0
 40
0
 40
0
 40
1
 40
1
 40
1
 40
1
 10
849.257444
 20
351.834380
 30
0.0
 10
849.758692
 20
352.143079
 30
0.0
 10
850.348708
 20
352.297429
 30
0.0
 10
851.027492
 20
352.297429
 30
0.0
  0
SPLINE
  5
1dd
100
AcDbEntity
  8
Calque_1
 62
1
100
AcDbSpline
 70
8
 71
3
 72
8
 73
4
 74
0
 40
0
 40
0
 40
0
 40
0
 40
1
 40
1
 40
1
 40
1
 10
851.027492
 20
352.297429
 30
0.0
 10
851.941227
 20
352.297429
 30
0.0
 10
852.646111
 20
351.975649
 30
0.0
 10
853.142145
 20
351.332091
 30
0.0
  0
SPLINE
  5
1de
100
AcDbEntity
  8
Calque_1
 62
1
100
AcDbSpline
 70
8
 71
3
 72
8
 73
4
 74
0
 40
0
 40
0
 40
0
 40
0
 40
1
 40
1
 40
1
 40
1
 10
853.142145
 20
351.332091
 30
0.0
 10
853.638178
 20
350.693765
 30
0.0
 10
853.886195
 20
349.783364
 30
0.0
 10
853.886195
 20
348.600888
 30
0.0
  0
LINE
  5
1df
100
AcDbEntity
  8
Calque_1
 62
1
100
AcDbLine
 10
853.886195
 20
348.600888
 30
0.0
 11
853.886195
 21
343.295455
 31
0.0
  0
LINE
  5
1e0
100
AcDbEntity
  8
Calque_1
 62
1
100
AcDbLine
 10
853.886195
 20
343.295455
 30
0.0
 11
852.437264
 21
343.295455
 31
0.0
  0
LINE
  5
1e1
100
AcDbEntity
  8
Calque_1
 62
1
100
AcDbLine
 10
852.437264
 20
343.295455
 30
0.0
 11
852.437264
 21
348.553800
 31
0.0
  0
SPLINE
  5
1e2
100
AcDbEntity
  8
Calque_1
 62
1
100
AcDbSpline
 70
8
 71
3
 72
8
 73
4
 74
0
 40
0
 40
0
 40
0
 40
0
 40
1
 40
1
 40
1
 40
1
 10
852.437264
 20
348.553800
 30
0.0
 10
852.437264
 20
349.396183
 30
0.0
 10
852.288454
 20
350.021430
 30
0.0
 10
851.990836
 20
350.429538
 30
0.0
  0
SPLINE
  5
1e3
100
AcDbEntity
  8
Calque_1
 62
1
100
AcDbSpline
 70
8
 71
3
 72
8
 73
4
 74
0
 40
0
 40
0
 40
0
 40
0
 40
1
 40
1
 40
1
 40
1
 10
851.990836
 20
350.429538
 30
0.0
 10
851.693217
 20
350.837653
 30
0.0
 10
851.238957
 20
351.041711
 30
0.0
 10
850.628056
 20
351.041711
 30
0.0
  0
SPLINE
  5
1e4
100
AcDbEntity
  8
Calque_1
 62
1
100
AcDbSpline
 70
8
 71
3
 72
8
 73
4
 74
0
 40
0
 40
0
 40
0
 40
0
 40
1
 40
1
 40
1
 40
1
 10
850.628056
 20
351.041711
 30
0.0
 10
849.881395
 20
351.041711
 30
0.0
 10
849.291379
 20
350.793181
 30
0.0
 10
848.858007
 20
350.296120
 30
0.0
  0
SPLINE
  5
1e5
100
AcDbEntity
  8
Calque_1
 62
1
100
AcDbSpline
 70
8
 71
3
 72
8
 73
4
 74
0
 40
0
 40
0
 40
0
 40
0
 40
1
 40
1
 40
1
 40
1
 10
848.858007
 20
350.296120
 30
0.0
 10
848.424635
 20
349.799067
 30
0.0
 10
848.207950
 20
349.121500
 30
0.0
 10
848.207950
 20
348.263419
 30
0.0
  0
LINE
  5
1e6
100
AcDbEntity
  8
Calque_1
 62
1
100
AcDbLine
 10
848.207950
 20
348.263419
 30
0.0
 11
848.207950
 21
343.295455
 31
0.0
  0
LINE
  5
1e7
100
AcDbEntity
  8
Calque_1
 62
1
100
AcDbLine
 10
848.207950
 20
343.295455
 30
0.0
 11
846.759009
 21
343.295455
 31
0.0
  0
LINE
  5
1e8
100
AcDbEntity
  8
Calque_1
 62
1
100
AcDbLine
 10
846.759009
 20
343.295455
 30
0.0
 11
846.759009
 21
348.553800
 31
0.0
  0
SPLINE
  5
1e9
100
AcDbEntity
  8
Calque_1
 62
1
100
AcDbSpline
 70
8
 71
3
 72
8
 73
4
 74
0
 40
0
 40
0
 40
0
 40
0
 40
1
 40
1
 40
1
 40
1
 10
846.759009
 20
348.553800
 30
0.0
 10
846.759009
 20
349.401416
 30
0.0
 10
846.610199
 20
350.026662
 30
0.0
 10
846.312581
 20
350.429538
 30
0.0
  0
SPLINE
  5
1ea
100
AcDbEntity
  8
Calque_1
 62
1
100
AcDbSpline
 70
8
 71
3
 72
8
 73
4
 74
0
 40
0
 40
0
 40
0
 40
0
 40
1
 40
1
 40
1
 40
1
 10
846.312581
 20
350.429538
 30
0.0
 10
846.014968
 20
350.837653
 30
0.0
 10
845.555490
 20
351.041711
 30
0.0
 10
844.934147
 20
351.041711
 30
0.0
  0
SPLINE
  5
1eb
100
AcDbEntity
  8
Calque_1
 62
1
100
AcDbSpline
 70
8
 71
3
 72
8
 73
4
 74
0
 40
0
 40
0
 40
0
 40
0
 40
1
 40
1
 40
1
 40
1
 10
844.934147
 20
351.041711
 30
0.0
 10
844.197928
 20
351.041711
 30
0.0
 10
843.613133
 20
350.790565
 30
0.0
 10
843.179762
 20
350.288272
 30
0.0
  0
SPLINE
  5
1ec
100
AcDbEntity
  8
Calque_1
 62
1
100
AcDbSpline
 70
8
 71
3
 72
8
 73
4
 74
0
 40
0
 40
0
 40
0
 40
0
 40
1
 40
1
 40
1
 40
1
 10
843.179762
 20
350.288272
 30
0.0
 10
842.746383
 20
349.791212
 30
0.0
 10
842.529694
 20
349.116261
 30
0.0
 10
842.529694
 20
348.263419
 30
0.0
  0
LINE
  5
1ed
100
AcDbEntity
  8
Calque_1
 62
1
100
AcDbLine
 10
842.529694
 20
348.263419
 30
0.0
 11
842.529694
 21
343.295455
 31
0.0
  0
LINE
  5
1ee
100
AcDbEntity
  8
Calque_1
 62
1
100
AcDbLine
 10
842.529694
 20
343.295455
 30
0.0
 11
841.080763
 21
343.295455
 31
0.0
  0
LINE
  5
1ef
100
AcDbEntity
  8
Calque_1
 62
1
100
AcDbLine
 10
841.080763
 20
343.295455
 30
0.0
 11
841.080763
 21
352.085530
 31
0.0
  0
LINE
  5
1f0
100
AcDbEntity
  8
Calque_1
 62
1
100
AcDbLine
 10
841.080763
 20
352.085530
 30
0.0
 11
842.529694
 21
352.085530
 31
0.0
  0
LINE
  5
1f1
100
AcDbEntity
  8
Calque_1
 62
1
100
AcDbLine
 10
842.529694
 20
352.085530
 30
0.0
 11
842.529694
 21
350.719928
 31
0.0
  0
SPLINE
  5
1f2
100
AcDbEntity
  8
Calque_1
 62
1
100
AcDbSpline
 70
8
 71
3
 72
8
 73
4
 74
0
 40
0
 40
0
 40
0
 40
0
 40
1
 40
1
 40
1
 40
1
 10
842.529694
 20
350.719928
 30
0.0
 10
842.858641
 20
351.258845
 30
0.0
 10
843.252856
 20
351.656493
 30
0.0
 10
843.712341
 20
351.912871
 30
0.0
  0
SPLINE
  5
1f3
100
AcDbEntity
  8
Calque_1
 62
1
100
AcDbSpline
 70
8
 71
3
 72
8
 73
4
 74
0
 40
0
 40
0
 40
0
 40
0
 40
1
 40
1
 40
1
 40
1
 10
843.712341
 20
351.912871
 30
0.0
 10
844.171819
 20
352.169243
 30
0.0
 10
844.717451
 20
352.297429
 30
0.0
 10
845.349237
 20
352.297429
 30
0.0
  0
SPLINE
  5
1f4
100
AcDbEntity
  8
Calque_1
 62
1
100
AcDbSpline
 70
8
 71
3
 72
8
 73
4
 74
0
 40
0
 40
0
 40
0
 40
0
 40
1
 40
1
 40
1
 40
1
 10
845.349237
 20
352.297429
 30
0.0
 10
845.986245
 20
352.297429
 30
0.0
 10
846.526659
 20
352.135231
 30
0.0
 10
846.970480
 20
351.810836
 30
0.0
  0
SPLINE
  5
1f5
100
AcDbEntity
  8
Calque_1
 62
1
100
AcDbSpline
 70
8
 71
3
 72
8
 73
4
 74
0
 40
0
 40
0
 40
0
 40
0
 40
1
 40
1
 40
1
 40
1
 10
846.970480
 20
351.810836
 30
0.0
 10
847.419515
 20
351.486440
 30
0.0
 10
847.751072
 20
351.015544
 30
0.0
 10
847.965151
 20
350.398146
 30
0.0
  0
LINE
  5
1f6
100
AcDbEntity
  8
Calque_1
 62
1
100
AcDbLine
 10
847.965151
 20
350.398146
 30
0.0
 11
847.965151
 21
350.398146
 31
0.0
  0
SPLINE
  5
1f7
100
AcDbEntity
  8
Calque_1
 62
1
100
AcDbSpline
 70
8
 71
3
 72
8
 73
4
 74
0
 40
0
 40
0
 40
0
 40
0
 40
1
 40
1
 40
1
 40
1
 10
661.993322
 20
339.013113
 30
0.0
 10
655.745488
 20
330.477209
 30
0.0
 10
652.364948
 20
320.150020
 30
0.0
 10
652.345055
 20
309.538651
 30
0.0
  0
SPLINE
  5
1f8
100
AcDbEntity
  8
Calque_1
 62
1
100
AcDbSpline
 70
8
 71
3
 72
8
 73
4
 74
0
 40
0
 40
0
 40
0
 40
0
 40
1
 40
1
 40
1
 40
1
 10
652.345055
 20
309.538651
 30
0.0
 10
652.362861
 20
293.940821
 30
0.0
 10
660.616308
 20
279.253480
 30
0.0
 10
672.957923
 20
269.860425
 30
0.0
  0
LINE
  5
1f9
100
AcDbEntity
  8
Calque_1
 62
1
100
AcDbLine
 10
672.957923
 20
269.860425
 30
0.0
 11
643.446192
 21
176.014077
 31
0.0
  0
LINE
  5
1fa
100
AcDbEntity
  8
Calque_1
 62
1
100
AcDbLine
 10
643.446192
 20
176.014077
 30
0.0
 11
652.788265
 21
176.014077
 31
0.0
  0
SPLINE
  5
1fb
100
AcDbEntity
  8
Calque_1
 62
1
100
AcDbSpline
 70
8
 71
3
 72
8
 73
4
 74
0
 40
0
 40
0
 40
0
 40
0
 40
1
 40
1
 40
1
 40
1
 10
652.788265
 20
176.014077
 30
0.0
 10
652.788265
 20
176.014077
 30
0.0
 10
665.053275
 20
201.515671
 30
0.0
 10
670.349796
 20
218.100984
 30
0.0
  0
SPLINE
  5
1fc
100
AcDbEntity
  8
Calque_1
 62
1
100
AcDbSpline
 70
8
 71
3
 72
8
 73
4
 74
0
 40
0
 40
0
 40
0
 40
0
 40
1
 40
1
 40
1
 40
1
 10
670.349796
 20
218.100984
 30
0.0
 10
673.826973
 20
228.989167
 30
0.0
 10
684.232250
 20
245.518786
 30
0.0
 10
686.374702
 20
255.512858
 30
0.0
  0
SPLINE
  5
1fd
100
AcDbEntity
  8
Calque_1
 62
1
100
AcDbSpline
 70
8
 71
3
 72
8
 73
4
 74
0
 40
0
 40
0
 40
0
 40
0
 40
1
 40
1
 40
1
 40
1
 10
686.374702
 20
255.512858
 30
0.0
 10
692.796163
 20
252.508968
 30
0.0
 10
695.728152
 20
255.864670
 30
0.0
 10
702.758458
 20
255.883214
 30
0.0
  0
SPLINE
  5
1fe
100
AcDbEntity
  8
Calque_1
 62
1
100
AcDbSpline
 70
8
 71
3
 72
8
 73
4
 74
0
 40
0
 40
0
 40
0
 40
0
 40
1
 40
1
 40
1
 40
1
 10
702.758458
 20
255.883214
 30
0.0
 10
709.788764
 20
255.864749
 30
0.0
 10
712.720733
 20
252.508968
 30
0.0
 10
719.142204
 20
255.512858
 30
0.0
  0
SPLINE
  5
1ff
100
AcDbEntity
  8
Calque_1
 62
1
100
AcDbSpline
 70
8
 71
3
 72
8
 73
4
 74
0
 40
0
 40
0
 40
0
 40
0
 40
1
 40
1
 40
1
 40
1
 10
719.142204
 20
255.512858
 30
0.0
 10
721.284656
 20
245.518786
 30
0.0
 10
731.689933
 20
228.989197
 30
0.0
 10
735.167100
 20
218.100984
 30
0.0
  0
SPLINE
  5
200
100
AcDbEntity
  8
Calque_1
 62
1
100
AcDbSpline
 70
8
 71
3
 72
8
 73
4
 74
0
 40
0
 40
0
 40
0
 40
0
 40
1
 40
1
 40
1
 40
1
 10
735.167100
 20
218.100984
 30
0.0
 10
740.463650
 20
201.515671
 30
0.0
 10
752.729007
 20
176.014077
 30
0.0
 10
752.729007
 20
176.014077
 30
0.0
  0
LINE
  5
201
100
AcDbEntity
  8
Calque_1
 62
1
100
AcDbLine
 10
752.729007
 20
176.014077
 30
0.0
 11
762.071397
 21
176.014077
 31
0.0
  0
LINE
  5
202
100
AcDbEntity
  8
Calque_1
 62
1
100
AcDbLine
 10
762.071397
 20
176.014077
 30
0.0
 11
732.558983
 21
269.860425
 31
0.0
  0
SPLINE
  5
203
100
AcDbEntity
  8
Calque_1
 62
1
100
AcDbSpline
 70
8
 71
3
 72
8
 73
4
 74
0
 40
0
 40
0
 40
0
 40
0
 40
1
 40
1
 40
1
 40
1
 10
732.558983
 20
269.860425
 30
0.0
 10
744.900707
 20
279.253480
 30
0.0
 10
753.154470
 20
293.940821
 30
0.0
 10
753.172276
 20
309.538651
 30
0.0
  0
SPLINE
  5
204
100
AcDbEntity
  8
Calque_1
 62
1
100
AcDbSpline
 70
8
 71
3
 72
8
 73
4
 74
0
 40
0
 40
0
 40
0
 40
0
 40
1
 40
1
 40
1
 40
1
 10
753.172276
 20
309.538651
 30
0.0
 10
753.152492
 20
320.150020
 30
0.0
 10
749.771635
 20
330.477209
 30
0.0
 10
743.523703
 20
339.013113
 30
0.0
  0
LINE
  5
205
100
AcDbEntity
  8
Calque_1
 62
1
100
AcDbLine
 10
743.523703
 20
339.013113
 30
0.0
 11
743.523703
 21
309.623230
 31
0.0
  0
LINE
  5
206
100
AcDbEntity
  8
Calque_1
 62
1
100
AcDbLine
 10
743.523703
 20
309.623230
 30
0.0
 11
743.523703
 21
309.623230
 31
0.0
  0
SPLINE
  5
207
100
AcDbEntity
  8
Calque_1
 62
1
100
AcDbSpline
 70
8
 71
3
 72
8
 73
4
 74
0
 40
0
 40
0
 40
0
 40
0
 40
1
 40
1
 40
1
 40
1
 10
743.523703
 20
309.623230
 30
0.0
 10
743.523703
 20
309.595084
 30
0.0
 10
743.523703
 20
309.566937
 30
0.0
 10
743.523703
 20
309.538691
 30
0.0
  0
SPLINE
  5
208
100
AcDbEntity
  8
Calque_1
 62
1
100
AcDbSpline
 70
8
 71
3
 72
8
 73
4
 74
0
 40
0
 40
0
 40
0
 40
0
 40
1
 40
1
 40
1
 40
1
 10
743.523703
 20
309.538691
 30
0.0
 10
743.504908
 20
289.467554
 30
0.0
 10
725.347026
 20
272.547976
 30
0.0
 10
705.607510
 20
270.063679
 30
0.0
  0
LINE
  5
209
100
AcDbEntity
  8
Calque_1
 62
1
100
AcDbLine
 10
705.607510
 20
270.063679
 30
0.0
 11
705.607510
 21
264.660839
 31
0.0
  0
LINE
  5
20a
100
AcDbEntity
  8
Calque_1
 62
1
100
AcDbLine
 10
705.607510
 20
264.660839
 30
0.0
 11
702.756915
 21
264.660839
 31
0.0
  0
LINE
  5
20b
100
AcDbEntity
  8
Calque_1
 62
1
100
AcDbLine
 10
702.756915
 20
264.660839
 30
0.0
 11
699.905647
 21
264.660839
 31
0.0
  0
LINE
  5
20c
100
AcDbEntity
  8
Calque_1
 62
1
100
AcDbLine
 10
699.905647
 20
264.660839
 30
0.0
 11
699.905647
 21
270.063679
 31
0.0
  0
SPLINE
  5
20d
100
AcDbEntity
  8
Calque_1
 62
1
100
AcDbSpline
 70
8
 71
3
 72
8
 73
4
 74
0
 40
0
 40
0
 40
0
 40
0
 40
1
 40
1
 40
1
 40
1
 10
699.905647
 20
270.063679
 30
0.0
 10
680.166121
 20
272.547976
 30
0.0
 10
662.008734
 20
289.467554
 30
0.0
 10
661.990255
 20
309.538691
 30
0.0
  0
SPLINE
  5
20e
100
AcDbEntity
  8
Calque_1
 62
1
100
AcDbSpline
 70
8
 71
3
 72
8
 73
4
 74
0
 40
0
 40
0
 40
0
 40
0
 40
1
 40
1
 40
1
 40
1
 10
661.990255
 20
309.538691
 30
0.0
 10
661.993223
 20
309.566937
 30
0.0
 10
661.993223
 20
309.595084
 30
0.0
 10
661.994212
 20
309.623230
 30
0.0
  0
LINE
  5
20f
100
AcDbEntity
  8
Calque_1
 62
1
100
AcDbLine
 10
661.994212
 20
309.623230
 30
0.0
 11
661.991244
 21
309.623230
 31
0.0
  0
LINE
  5
210
100
AcDbEntity
  8
Calque_1
 62
1
100
AcDbLine
 10
661.991244
 20
309.623230
 30
0.0
 11
661.993322
 21
339.013113
 31
0.0
  0
SPLINE
  5
211
100
AcDbEntity
  8
Calque_1
 62
1
100
AcDbSpline
 70
8
 71
3
 72
8
 73
4
 74
0
 40
0
 40
0
 40
0
 40
0
 40
1
 40
1
 40
1
 40
1
 10
827.301065
 20
222.212601
 30
0.0
 10
826.379143
 20
222.201245
 30
0.0
 10
825.460703
 20
221.893221
 30
0.0
 10
824.693988
 20
221.291406
 30
0.0
  0
SPLINE
  5
212
100
AcDbEntity
  8
Calque_1
 62
1
100
AcDbSpline
 70
8
 71
3
 72
8
 73
4
 74
0
 40
0
 40
0
 40
0
 40
0
 40
1
 40
1
 40
1
 40
1
 10
824.693988
 20
221.291406
 30
0.0
 10
823.103343
 20
220.083841
 30
0.0
 10
822.507800
 20
217.954474
 30
0.0
 10
823.238109
 20
216.086125
 30
0.0
  0
SPLINE
  5
213
100
AcDbEntity
  8
Calque_1
 62
1
100
AcDbSpline
 70
8
 71
3
 72
8
 73
4
 74
0
 40
0
 40
0
 40
0
 40
0
 40
1
 40
1
 40
1
 40
1
 10
823.238109
 20
216.086125
 30
0.0
 10
825.044105
 20
211.572446
 30
0.0
 10
826.075666
 20
206.781509
 30
0.0
 10
826.287878
 20
201.918583
 30
0.0
  0
SPLINE
  5
214
100
AcDbEntity
  8
Calque_1
 62
1
100
AcDbSpline
 70
8
 71
3
 72
8
 73
4
 74
0
 40
0
 40
0
 40
0
 40
0
 40
1
 40
1
 40
1
 40
1
 10
826.287878
 20
201.918583
 30
0.0
 10
825.271759
 20
203.138745
 30
0.0
 10
824.123231
 20
204.239594
 30
0.0
 10
822.863388
 20
205.201009
 30
0.0
  0
SPLINE
  5
215
100
AcDbEntity
  8
Calque_1
 62
1
100
AcDbSpline
 70
8
 71
3
 72
8
 73
4
 74
0
 40
0
 40
0
 40
0
 40
0
 40
1
 40
1
 40
1
 40
1
 10
822.863388
 20
205.201009
 30
0.0
 10
821.360136
 20
206.341972
 30
0.0
 10
819.306908
 20
206.403054
 30
0.0
 10
817.739688
 20
205.353172
 30
0.0
  0
SPLINE
  5
216
100
AcDbEntity
  8
Calque_1
 62
1
100
AcDbSpline
 70
8
 71
3
 72
8
 73
4
 74
0
 40
0
 40
0
 40
0
 40
0
 40
1
 40
1
 40
1
 40
1
 10
817.739688
 20
205.353172
 30
0.0
 10
816.172155
 20
204.303264
 30
0.0
 10
815.430932
 20
202.370875
 30
0.0
 10
815.889694
 20
200.530070
 30
0.0
  0
SPLINE
  5
217
100
AcDbEntity
  8
Calque_1
 62
1
100
AcDbSpline
 70
8
 71
3
 72
8
 73
4
 74
0
 40
0
 40
0
 40
0
 40
0
 40
1
 40
1
 40
1
 40
1
 10
815.889694
 20
200.530070
 30
0.0
 10
817.478821
 20
194.222355
 30
0.0
 10
817.401532
 20
189.280125
 30
0.0
 10
815.668348
 20
186.593098
 30
0.0
  0
SPLINE
  5
218
100
AcDbEntity
  8
Calque_1
 62
1
100
AcDbSpline
 70
8
 71
3
 72
8
 73
4
 74
0
 40
0
 40
0
 40
0
 40
0
 40
1
 40
1
 40
1
 40
1
 10
815.668348
 20
186.593098
 30
0.0
 10
814.727137
 20
185.192093
 30
0.0
 10
813.223440
 20
184.279613
 30
0.0
 10
811.555794
 20
184.096684
 30
0.0
  0
SPLINE
  5
219
100
AcDbEntity
  8
Calque_1
 62
1
100
AcDbSpline
 70
8
 71
3
 72
8
 73
4
 74
0
 40
0
 40
0
 40
0
 40
0
 40
1
 40
1
 40
1
 40
1
 10
811.555794
 20
184.096684
 30
0.0
 10
799.853614
 20
182.440181
 30
0.0
 10
800.329834
 20
179.204868
 30
0.0
 10
793.907869
 20
191.241854
 30
0.0
  0
SPLINE
  5
21a
100
AcDbEntity
  8
Calque_1
 62
1
100
AcDbSpline
 70
8
 71
3
 72
8
 73
4
 74
0
 40
0
 40
0
 40
0
 40
0
 40
1
 40
1
 40
1
 40
1
 10
793.907869
 20
191.241854
 30
0.0
 10
792.564534
 20
192.644152
 30
0.0
 10
790.471418
 20
192.999606
 30
0.0
 10
788.747369
 20
192.117653
 30
0.0
  0
SPLINE
  5
21b
100
AcDbEntity
  8
Calque_1
 62
1
100
AcDbSpline
 70
8
 71
3
 72
8
 73
4
 74
0
 40
0
 40
0
 40
0
 40
0
 40
1
 40
1
 40
1
 40
1
 10
788.747369
 20
192.117653
 30
0.0
 10
787.023818
 20
191.285559
 30
0.0
 10
786.041044
 20
189.414780
 30
0.0
 10
786.325833
 20
187.508615
 30
0.0
  0
SPLINE
  5
21c
100
AcDbEntity
  8
Calque_1
 62
1
100
AcDbSpline
 70
8
 71
3
 72
8
 73
4
 74
0
 40
0
 40
0
 40
0
 40
0
 40
1
 40
1
 40
1
 40
1
 10
786.325833
 20
187.508615
 30
0.0
 10
787.384614
 20
179.794350
 30
0.0
 10
786.548593
 20
174.203510
 30
0.0
 10
784.107244
 20
172.550863
 30
0.0
  0
SPLINE
  5
21d
100
AcDbEntity
  8
Calque_1
 62
1
100
AcDbSpline
 70
8
 71
3
 72
8
 73
4
 74
0
 40
0
 40
0
 40
0
 40
0
 40
1
 40
1
 40
1
 40
1
 10
784.107244
 20
172.550863
 30
0.0
 10
781.292169
 20
170.450941
 30
0.0
 10
778.947791
 20
167.805955
 30
0.0
 10
777.190817
 20
164.794001
 30
0.0
  0
SPLINE
  5
21e
100
AcDbEntity
  8
Calque_1
 62
1
100
AcDbSpline
 70
8
 71
3
 72
8
 73
4
 74
0
 40
0
 40
0
 40
0
 40
0
 40
1
 40
1
 40
1
 40
1
 10
777.190817
 20
164.794001
 30
0.0
 10
771.757855
 20
167.376083
 30
0.0
 10
765.829070
 20
168.722872
 30
0.0
 10
759.823520
 20
168.738716
 30
0.0
  0
SPLINE
  5
21f
100
AcDbEntity
  8
Calque_1
 62
1
100
AcDbSpline
 70
8
 71
3
 72
8
 73
4
 74
0
 40
0
 40
0
 40
0
 40
0
 40
1
 40
1
 40
1
 40
1
 10
759.823520
 20
168.738716
 30
0.0
 10
759.781904
 20
168.738716
 30
0.0
 10
759.740394
 20
168.735812
 30
0.0
 10
759.698779
 20
168.735548
 30
0.0
  0
SPLINE
  5
220
100
AcDbEntity
  8
Calque_1
 62
1
100
AcDbSpline
 70
8
 71
3
 72
8
 73
4
 74
0
 40
0
 40
0
 40
0
 40
0
 40
1
 40
1
 40
1
 40
1
 10
759.698779
 20
168.735548
 30
0.0
 10
759.657189
 20
168.735785
 30
0.0
 10
759.615653
 20
168.738188
 30
0.0
 10
759.574064
 20
168.738188
 30
0.0
  0
SPLINE
  5
221
100
AcDbEntity
  8
Calque_1
 62
1
100
AcDbSpline
 70
8
 71
3
 72
8
 73
4
 74
0
 40
0
 40
0
 40
0
 40
0
 40
1
 40
1
 40
1
 40
1
 10
759.574064
 20
168.738188
 30
0.0
 10
753.568513
 20
168.722343
 30
0.0
 10
747.639728
 20
167.375555
 30
0.0
 10
742.206767
 20
164.793473
 30
0.0
  0
SPLINE
  5
222
100
AcDbEntity
  8
Calque_1
 62
1
100
AcDbSpline
 70
8
 71
3
 72
8
 73
4
 74
0
 40
0
 40
0
 40
0
 40
0
 40
1
 40
1
 40
1
 40
1
 10
742.206767
 20
164.793473
 30
0.0
 10
740.449792
 20
167.805427
 30
0.0
 10
738.105388
 20
170.450413
 30
0.0
 10
735.290313
 20
172.550335
 30
0.0
  0
SPLINE
  5
223
100
AcDbEntity
  8
Calque_1
 62
1
100
AcDbSpline
 70
8
 71
3
 72
8
 73
4
 74
0
 40
0
 40
0
 40
0
 40
0
 40
1
 40
1
 40
1
 40
1
 10
735.290313
 20
172.550335
 30
0.0
 10
732.848964
 20
174.202982
 30
0.0
 10
732.012969
 20
179.793795
 30
0.0
 10
733.071750
 20
187.508060
 30
0.0
  0
SPLINE
  5
224
100
AcDbEntity
  8
Calque_1
 62
1
100
AcDbSpline
 70
8
 71
3
 72
8
 73
4
 74
0
 40
0
 40
0
 40
0
 40
0
 40
1
 40
1
 40
1
 40
1
 10
733.071750
 20
187.508060
 30
0.0
 10
733.356539
 20
189.414226
 30
0.0
 10
732.373765
 20
191.285031
 30
0.0
 10
730.650214
 20
192.117125
 30
0.0
  0
SPLINE
  5
225
100
AcDbEntity
  8
Calque_1
 62
1
100
AcDbSpline
 70
8
 71
3
 72
8
 73
4
 74
0
 40
0
 40
0
 40
0
 40
0
 40
1
 40
1
 40
1
 40
1
 10
730.650214
 20
192.117125
 30
0.0
 10
728.926139
 20
192.999077
 30
0.0
 10
726.833049
 20
192.643624
 30
0.0
 10
725.489714
 20
191.241326
 30
0.0
  0
SPLINE
  5
226
100
AcDbEntity
  8
Calque_1
 62
1
100
AcDbSpline
 70
8
 71
3
 72
8
 73
4
 74
0
 40
0
 40
0
 40
0
 40
0
 40
1
 40
1
 40
1
 40
1
 10
725.489714
 20
191.241326
 30
0.0
 10
719.067750
 20
179.204339
 30
0.0
 10
719.543969
 20
182.439653
 30
0.0
 10
707.841789
 20
184.096156
 30
0.0
  0
SPLINE
  5
227
100
AcDbEntity
  8
Calque_1
 62
1
100
AcDbSpline
 70
8
 71
3
 72
8
 73
4
 74
0
 40
0
 40
0
 40
0
 40
0
 40
1
 40
1
 40
1
 40
1
 10
707.841789
 20
184.096156
 30
0.0
 10
706.174143
 20
184.279085
 30
0.0
 10
704.670446
 20
185.191565
 30
0.0
 10
703.729235
 20
186.592543
 30
0.0
  0
SPLINE
  5
228
100
AcDbEntity
  8
Calque_1
 62
1
100
AcDbSpline
 70
8
 71
3
 72
8
 73
4
 74
0
 40
0
 40
0
 40
0
 40
0
 40
1
 40
1
 40
1
 40
1
 10
703.729235
 20
186.592543
 30
0.0
 10
701.996052
 20
189.279624
 30
0.0
 10
701.918762
 20
194.221800
 30
0.0
 10
703.507889
 20
200.529542
 30
0.0
  0
SPLINE
  5
229
100
AcDbEntity
  8
Calque_1
 62
1
100
AcDbSpline
 70
8
 71
3
 72
8
 73
4
 74
0
 40
0
 40
0
 40
0
 40
0
 40
1
 40
1
 40
1
 40
1
 10
703.507889
 20
200.529542
 30
0.0
 10
703.966651
 20
202.370321
 30
0.0
 10
703.225403
 20
204.302736
 30
0.0
 10
701.657869
 20
205.352644
 30
0.0
  0
SPLINE
  5
22a
100
AcDbEntity
  8
Calque_1
 62
1
100
AcDbSpline
 70
8
 71
3
 72
8
 73
4
 74
0
 40
0
 40
0
 40
0
 40
0
 40
1
 40
1
 40
1
 40
1
 10
701.657869
 20
205.352644
 30
0.0
 10
700.090649
 20
206.402526
 30
0.0
 10
698.037421
 20
206.341444
 30
0.0
 10
696.534169
 20
205.200481
 30
0.0
  0
SPLINE
  5
22b
100
AcDbEntity
  8
Calque_1
 62
1
100
AcDbSpline
 70
8
 71
3
 72
8
 73
4
 74
0
 40
0
 40
0
 40
0
 40
0
 40
1
 40
1
 40
1
 40
1
 10
696.534169
 20
205.200481
 30
0.0
 10
695.274326
 20
204.239040
 30
0.0
 10
694.125824
 20
203.138216
 30
0.0
 10
693.109705
 20
201.918055
 30
0.0
  0
SPLINE
  5
22c
100
AcDbEntity
  8
Calque_1
 62
1
100
AcDbSpline
 70
8
 71
3
 72
8
 73
4
 74
0
 40
0
 40
0
 40
0
 40
0
 40
1
 40
1
 40
1
 40
1
 10
693.109705
 20
201.918055
 30
0.0
 10
693.321917
 20
206.780981
 30
0.0
 10
694.353478
 20
211.571918
 30
0.0
 10
696.159475
 20
216.085597
 30
0.0
  0
SPLINE
  5
22d
100
AcDbEntity
  8
Calque_1
 62
1
100
AcDbSpline
 70
8
 71
3
 72
8
 73
4
 74
0
 40
0
 40
0
 40
0
 40
0
 40
1
 40
1
 40
1
 40
1
 10
696.159475
 20
216.085597
 30
0.0
 10
696.889783
 20
217.953946
 30
0.0
 10
696.294240
 20
220.083286
 30
0.0
 10
694.703595
 20
221.290878
 30
0.0
  0
SPLINE
  5
22e
100
AcDbEntity
  8
Calque_1
 62
1
100
AcDbSpline
 70
8
 71
3
 72
8
 73
4
 74
0
 40
0
 40
0
 40
0
 40
0
 40
1
 40
1
 40
1
 40
1
 10
694.703595
 20
221.290878
 30
0.0
 10
693.936880
 20
221.892693
 30
0.0
 10
693.018440
 20
222.200638
 30
0.0
 10
692.096518
 20
222.212073
 30
0.0
  0
LINE
  5
22f
100
AcDbEntity
  8
Calque_1
 62
1
100
AcDbLine
 10
692.096518
 20
222.212073
 30
0.0
 11
692.096518
 21
222.212073
 31
0.0
  0
SPLINE
  5
230
100
AcDbEntity
  8
Calque_1
 62
1
100
AcDbSpline
 70
8
 71
3
 72
8
 73
4
 74
0
 40
0
 40
0
 40
0
 40
0
 40
1
 40
1
 40
1
 40
1
 10
692.096518
 20
222.212073
 30
0.0
 10
691.174597
 20
222.223692
 30
0.0
 10
690.248985
 20
221.938537
 30
0.0
 10
689.467953
 20
221.355868
 30
0.0
  0
SPLINE
  5
231
100
AcDbEntity
  8
Calque_1
 62
1
100
AcDbSpline
 70
8
 71
3
 72
8
 73
4
 74
0
 40
0
 40
0
 40
0
 40
0
 40
1
 40
1
 40
1
 40
1
 10
689.467953
 20
221.355868
 30
0.0
 10
684.789091
 20
217.884756
 30
0.0
 10
679.507227
 20
210.511315
 30
0.0
 10
680.892177
 20
195.297932
 30
0.0
  0
SPLINE
  5
232
100
AcDbEntity
  8
Calque_1
 62
1
100
AcDbSpline
 70
8
 71
3
 72
8
 73
4
 74
0
 40
0
 40
0
 40
0
 40
0
 40
1
 40
1
 40
1
 40
1
 10
680.892177
 20
195.297932
 30
0.0
 10
680.892177
 20
194.688881
 30
0.0
 10
681.083398
 20
180.319529
 30
0.0
 10
697.746219
 20
173.113567
 30
0.0
  0
SPLINE
  5
233
100
AcDbEntity
  8
Calque_1
 62
1
100
AcDbSpline
 70
8
 71
3
 72
8
 73
4
 74
0
 40
0
 40
0
 40
0
 40
0
 40
1
 40
1
 40
1
 40
1
 10
697.746219
 20
173.113567
 30
0.0
 10
702.150159
 20
171.257551
 30
0.0
 10
706.717419
 20
169.824962
 30
0.0
 10
711.387931
 20
168.834631
 30
0.0
  0
SPLINE
  5
234
100
AcDbEntity
  8
Calque_1
 62
1
100
AcDbSpline
 70
8
 71
3
 72
8
 73
4
 74
0
 40
0
 40
0
 40
0
 40
0
 40
1
 40
1
 40
1
 40
1
 10
711.387931
 20
168.834631
 30
0.0
 10
719.258761
 20
167.506064
 30
0.0
 10
726.530252
 20
163.763028
 30
0.0
 10
732.216517
 20
158.118685
 30
0.0
  0
SPLINE
  5
235
100
AcDbEntity
  8
Calque_1
 62
1
100
AcDbSpline
 70
8
 71
3
 72
8
 73
4
 74
0
 40
0
 40
0
 40
0
 40
0
 40
1
 40
1
 40
1
 40
1
 10
732.216517
 20
158.118685
 30
0.0
 10
732.014644
 20
157.943282
 30
0.0
 10
731.814289
 20
157.765212
 30
0.0
 10
731.615871
 20
157.585901
 30
0.0
  0
SPLINE
  5
236
100
AcDbEntity
  8
Calque_1
 62
1
100
AcDbSpline
 70
8
 71
3
 72
8
 73
4
 74
0
 40
0
 40
0
 40
0
 40
0
 40
1
 40
1
 40
1
 40
1
 10
731.615871
 20
157.585901
 30
0.0
 10
730.558032
 20
157.012713
 30
0.0
 10
729.589313
 20
156.283848
 30
0.0
 10
728.746015
 20
155.417027
 30
0.0
  0
SPLINE
  5
237
100
AcDbEntity
  8
Calque_1
 62
1
100
AcDbSpline
 70
8
 71
3
 72
8
 73
4
 74
0
 40
0
 40
0
 40
0
 40
0
 40
1
 40
1
 40
1
 40
1
 10
728.746015
 20
155.417027
 30
0.0
 10
724.569101
 20
158.936968
 30
0.0
 10
715.329654
 20
165.323036
 30
0.0
 10
704.763361
 20
163.755686
 30
0.0
  0
SPLINE
  5
238
100
AcDbEntity
  8
Calque_1
 62
1
100
AcDbSpline
 70
8
 71
3
 72
8
 73
4
 74
0
 40
0
 40
0
 40
0
 40
0
 40
1
 40
1
 40
1
 40
1
 10
704.763361
 20
163.755686
 30
0.0
 10
703.670502
 20
163.595336
 30
0.0
 10
702.860680
 20
162.648393
 30
0.0
 10
702.863271
 20
161.534208
 30
0.0
  0
SPLINE
  5
239
100
AcDbEntity
  8
Calque_1
 62
1
100
AcDbSpline
 70
8
 71
3
 72
8
 73
4
 74
0
 40
0
 40
0
 40
0
 40
0
 40
1
 40
1
 40
1
 40
1
 10
702.863271
 20
161.534208
 30
0.0
 10
703.035962
 20
155.940991
 30
0.0
 10
705.342310
 20
150.631477
 30
0.0
 10
709.300207
 20
146.711111
 30
0.0
  0
SPLINE
  5
23a
100
AcDbEntity
  8
Calque_1
 62
1
100
AcDbSpline
 70
8
 71
3
 72
8
 73
4
 74
0
 40
0
 40
0
 40
0
 40
0
 40
1
 40
1
 40
1
 40
1
 10
709.300207
 20
146.711111
 30
0.0
 10
712.643691
 20
143.806057
 30
0.0
 10
716.771347
 20
142.023799
 30
0.0
 10
721.113387
 20
141.566674
 30
0.0
  0
SPLINE
  5
23b
100
AcDbEntity
  8
Calque_1
 62
1
100
AcDbSpline
 70
8
 71
3
 72
8
 73
4
 74
0
 40
0
 40
0
 40
0
 40
0
 40
1
 40
1
 40
1
 40
1
 10
721.113387
 20
141.566674
 30
0.0
 10
719.446160
 20
137.019220
 30
0.0
 10
718.584097
 20
132.212094
 30
0.0
 10
718.566613
 20
127.363534
 30
0.0
  0
SPLINE
  5
23c
100
AcDbEntity
  8
Calque_1
 62
1
100
AcDbSpline
 70
8
 71
3
 72
8
 73
4
 74
0
 40
0
 40
0
 40
0
 40
0
 40
1
 40
1
 40
1
 40
1
 10
718.566613
 20
127.363534
 30
0.0
 10
718.587028
 20
106.354252
 30
0.0
 10
736.199305
 20
88.743169
 30
0.0
 10
756.799295
 20
86.312300
 30
0.0
  0
LINE
  5
23d
100
AcDbEntity
  8
Calque_1
 62
1
100
AcDbLine
 10
756.799295
 20
86.312300
 30
0.0
 11
756.799295
 21
95.897106
 31
0.0
  0
LINE
  5
23e
100
AcDbEntity
  8
Calque_1
 62
1
100
AcDbLine
 10
756.799295
 20
95.897106
 30
0.0
 11
759.698779
 21
95.897106
 31
0.0
  0
LINE
  5
23f
100
AcDbEntity
  8
Calque_1
 62
1
100
AcDbLine
 10
759.698779
 20
95.897106
 30
0.0
 11
762.598288
 21
95.897106
 31
0.0
  0
LINE
  5
240
100
AcDbEntity
  8
Calque_1
 62
1
100
AcDbLine
 10
762.598288
 20
95.897106
 30
0.0
 11
762.598288
 21
86.312300
 31
0.0
  0
SPLINE
  5
241
100
AcDbEntity
  8
Calque_1
 62
1
100
AcDbSpline
 70
8
 71
3
 72
8
 73
4
 74
0
 40
0
 40
0
 40
0
 40
0
 40
1
 40
1
 40
1
 40
1
 10
762.598288
 20
86.312300
 30
0.0
 10
783.198278
 20
88.743169
 30
0.0
 10
800.810555
 20
106.354252
 30
0.0
 10
800.830944
 20
127.363534
 30
0.0
  0
SPLINE
  5
242
100
AcDbEntity
  8
Calque_1
 62
1
100
AcDbSpline
 70
8
 71
3
 72
8
 73
4
 74
0
 40
0
 40
0
 40
0
 40
0
 40
1
 40
1
 40
1
 40
1
 10
800.830944
 20
127.363534
 30
0.0
 10
800.813408
 20
132.212094
 30
0.0
 10
799.951397
 20
137.019220
 30
0.0
 10
798.284196
 20
141.566674
 30
0.0
  0
SPLINE
  5
243
100
AcDbEntity
  8
Calque_1
 62
1
100
AcDbSpline
 70
8
 71
3
 72
8
 73
4
 74
0
 40
0
 40
0
 40
0
 40
0
 40
1
 40
1
 40
1
 40
1
 10
798.284196
 20
141.566674
 30
0.0
 10
802.626210
 20
142.023799
 30
0.0
 10
806.753866
 20
143.806057
 30
0.0
 10
810.097350
 20
146.711111
 30
0.0
  0
SPLINE
  5
244
100
AcDbEntity
  8
Calque_1
 62
1
100
AcDbSpline
 70
8
 71
3
 72
8
 73
4
 74
0
 40
0
 40
0
 40
0
 40
0
 40
1
 40
1
 40
1
 40
1
 10
810.097350
 20
146.711111
 30
0.0
 10
814.055247
 20
150.631477
 30
0.0
 10
816.361622
 20
155.940991
 30
0.0
 10
816.534312
 20
161.534208
 30
0.0
  0
SPLINE
  5
245
100
AcDbEntity
  8
Calque_1
 62
1
100
AcDbSpline
 70
8
 71
3
 72
8
 73
4
 74
0
 40
0
 40
0
 40
0
 40
0
 40
1
 40
1
 40
1
 40
1
 10
816.534312
 20
161.534208
 30
0.0
 10
816.536929
 20
162.648393
 30
0.0
 10
815.727055
 20
163.595336
 30
0.0
 10
814.634197
 20
163.755686
 30
0.0
  0
SPLINE
  5
246
100
AcDbEntity
  8
Calque_1
 62
1
100
AcDbSpline
 70
8
 71
3
 72
8
 73
4
 74
0
 40
0
 40
0
 40
0
 40
0
 40
1
 40
1
 40
1
 40
1
 10
814.634197
 20
163.755686
 30
0.0
 10
804.067929
 20
165.323036
 30
0.0
 10
794.828482
 20
158.936941
 30
0.0
 10
790.651542
 20
155.417027
 30
0.0
  0
SPLINE
  5
247
100
AcDbEntity
  8
Calque_1
 62
1
100
AcDbSpline
 70
8
 71
3
 72
8
 73
4
 74
0
 40
0
 40
0
 40
0
 40
0
 40
1
 40
1
 40
1
 40
1
 10
790.651542
 20
155.417027
 30
0.0
 10
789.808270
 20
156.283822
 30
0.0
 10
788.839551
 20
157.012686
 30
0.0
 10
787.781713
 20
157.585901
 30
0.0
  0
SPLINE
  5
248
100
AcDbEntity
  8
Calque_1
 62
1
100
AcDbSpline
 70
8
 71
3
 72
8
 73
4
 74
0
 40
0
 40
0
 40
0
 40
0
 40
1
 40
1
 40
1
 40
1
 10
787.781713
 20
157.585901
 30
0.0
 10
787.583294
 20
157.765186
 30
0.0
 10
787.382939
 20
157.943282
 30
0.0
 10
787.181066
 20
158.118685
 30
0.0
  0
SPLINE
  5
249
100
AcDbEntity
  8
Calque_1
 62
1
100
AcDbSpline
 70
8
 71
3
 72
8
 73
4
 74
0
 40
0
 40
0
 40
0
 40
0
 40
1
 40
1
 40
1
 40
1
 10
787.181066
 20
158.118685
 30
0.0
 10
792.867331
 20
163.763054
 30
0.0
 10
800.138822
 20
167.506064
 30
0.0
 10
808.009652
 20
168.834631
 30
0.0
  0
SPLINE
  5
24a
100
AcDbEntity
  8
Calque_1
 62
1
100
AcDbSpline
 70
8
 71
3
 72
8
 73
4
 74
0
 40
0
 40
0
 40
0
 40
0
 40
1
 40
1
 40
1
 40
1
 10
808.009652
 20
168.834631
 30
0.0
 10
812.680165
 20
169.824962
 30
0.0
 10
817.247424
 20
171.257551
 30
0.0
 10
821.651364
 20
173.113567
 30
0.0
  0
SPLINE
  5
24b
100
AcDbEntity
  8
Calque_1
 62
1
100
AcDbSpline
 70
8
 71
3
 72
8
 73
4
 74
0
 40
0
 40
0
 40
0
 40
0
 40
1
 40
1
 40
1
 40
1
 10
821.651364
 20
173.113567
 30
0.0
 10
838.314186
 20
180.319529
 30
0.0
 10
838.505406
 20
194.688881
 30
0.0
 10
838.505406
 20
195.297932
 30
0.0
  0
SPLINE
  5
24c
100
AcDbEntity
  8
Calque_1
 62
1
100
AcDbSpline
 70
8
 71
3
 72
8
 73
4
 74
0
 40
0
 40
0
 40
0
 40
0
 40
1
 40
1
 40
1
 40
1
 10
838.505406
 20
195.297932
 30
0.0
 10
839.890356
 20
210.511315
 30
0.0
 10
834.608492
 20
217.884756
 30
0.0
 10
829.929630
 20
221.355868
 30
0.0
  0
SPLINE
  5
24d
100
AcDbEntity
  8
Calque_1
 62
1
100
AcDbSpline
 70
8
 71
3
 72
8
 73
4
 74
0
 40
0
 40
0
 40
0
 40
0
 40
1
 40
1
 40
1
 40
1
 10
829.929630
 20
221.355868
 30
0.0
 10
829.148599
 20
221.938537
 30
0.0
 10
828.222987
 20
222.223666
 30
0.0
 10
827.301065
 20
222.212073
 30
0.0
  0
LINE
  5
24e
100
AcDbEntity
  8
Calque_1
 62
1
100
AcDbLine
 10
827.301065
 20
222.212073
 30
0.0
 11
827.301065
 21
222.212601
 31
0.0
  0
SPLINE
  5
24f
100
AcDbEntity
  8
Calque_1
 62
1
100
AcDbSpline
 70
8
 71
3
 72
8
 73
4
 74
0
 40
0
 40
0
 40
0
 40
0
 40
1
 40
1
 40
1
 40
1
 10
777.544113
 20
126.120012
 30
0.0
 10
777.544104
 20
116.148079
 30
0.0
 10
769.532241
 20
108.064236
 30
0.0
 10
759.649111
 20
108.064237
 30
0.0
  0
SPLINE
  5
250
100
AcDbEntity
  8
Calque_1
 62
1
100
AcDbSpline
 70
8
 71
3
 72
8
 73
4
 74
0
 40
0
 40
0
 40
0
 40
0
 40
1
 40
1
 40
1
 40
1
 10
759.649111
 20
108.064237
 30
0.0
 10
749.765982
 20
108.064238
 30
0.0
 10
741.754121
 20
116.148081
 30
0.0
 10
741.754112
 20
126.120012
 30
0.0
  0
SPLINE
  5
251
100
AcDbEntity
  8
Calque_1
 62
1
100
AcDbSpline
 70
8
 71
3
 72
8
 73
4
 74
0
 40
0
 40
0
 40
0
 40
0
 40
1
 40
1
 40
1
 40
1
 10
741.754112
 20
126.120012
 30
0.0
 10
741.754108
 20
130.908708
 30
0.0
 10
743.639467
 20
135.501272
 30
0.0
 10
746.995431
 20
138.887393
 30
0.0
  0
SPLINE
  5
252
100
AcDbEntity
  8
Calque_1
 62
1
100
AcDbSpline
 70
8
 71
3
 72
8
 73
4
 74
0
 40
0
 40
0
 40
0
 40
0
 40
1
 40
1
 40
1
 40
1
 10
746.995431
 20
138.887393
 30
0.0
 10
750.351395
 20
142.273513
 30
0.0
 10
754.903060
 20
144.175817
 30
0.0
 10
759.649111
 20
144.175817
 30
0.0
  0
SPLINE
  5
253
100
AcDbEntity
  8
Calque_1
 62
1
100
AcDbSpline
 70
8
 71
3
 72
8
 73
4
 74
0
 40
0
 40
0
 40
0
 40
0
 40
1
 40
1
 40
1
 40
1
 10
759.649111
 20
144.175817
 30
0.0
 10
764.395163
 20
144.175817
 30
0.0
 10
768.946828
 20
142.273515
 30
0.0
 10
772.302793
 20
138.887394
 30
0.0
  0
SPLINE
  5
254
100
AcDbEntity
  8
Calque_1
 62
1
100
AcDbSpline
 70
8
 71
3
 72
8
 73
4
 74
0
 40
0
 40
0
 40
0
 40
0
 40
1
 40
1
 40
1
 40
1
 10
772.302793
 20
138.887394
 30
0.0
 10
775.658757
 20
135.501273
 30
0.0
 10
777.544116
 20
130.908708
 30
0.0
 10
777.544113
 20
126.120012
 30
0.0
  0
LINE
  5
255
100
AcDbEntity
  8
Calque_1
 62
1
100
AcDbLine
 10
777.544113
 20
126.120012
 30
0.0
 11
777.544113
 21
126.120012
 31
0.0
  0
SPLINE
  5
256
100
AcDbEntity
  8
Calque_1
 62
1
100
AcDbSpline
 70
8
 71
3
 72
8
 73
4
 74
0
 40
0
 40
0
 40
0
 40
0
 40
1
 40
1
 40
1
 40
1
 10
854.732708
 20
176.283954
 30
0.0
 10
860.980521
 20
184.819858
 30
0.0
 10
864.361081
 20
195.147048
 30
0.0
 10
864.380964
 20
205.758416
 30
0.0
  0
SPLINE
  5
257
100
AcDbEntity
  8
Calque_1
 62
1
100
AcDbSpline
 70
8
 71
3
 72
8
 73
4
 74
0
 40
0
 40
0
 40
0
 40
0
 40
1
 40
1
 40
1
 40
1
 10
864.380964
 20
205.758416
 30
0.0
 10
864.363158
 20
221.356247
 30
0.0
 10
856.109702
 20
236.043577
 30
0.0
 10
843.768096
 20
245.436632
 30
0.0
  0
LINE
  5
258
100
AcDbEntity
  8
Calque_1
 62
1
100
AcDbLine
 10
843.768096
 20
245.436632
 30
0.0
 11
873.279887
 21
339.282980
 31
0.0
  0
LINE
  5
259
100
AcDbEntity
  8
Calque_1
 62
1
100
AcDbLine
 10
873.279887
 20
339.282980
 30
0.0
 11
863.937794
 21
339.282980
 31
0.0
  0
SPLINE
  5
25a
100
AcDbEntity
  8
Calque_1
 62
1
100
AcDbSpline
 70
8
 71
3
 72
8
 73
4
 74
0
 40
0
 40
0
 40
0
 40
0
 40
1
 40
1
 40
1
 40
1
 10
863.937794
 20
339.282980
 30
0.0
 10
863.937794
 20
339.282980
 30
0.0
 10
851.672754
 20
313.781386
 30
0.0
 10
846.376273
 20
297.196073
 30
0.0
  0
SPLINE
  5
25b
100
AcDbEntity
  8
Calque_1
 62
1
100
AcDbSpline
 70
8
 71
3
 72
8
 73
4
 74
0
 40
0
 40
0
 40
0
 40
0
 40
1
 40
1
 40
1
 40
1
 10
846.376273
 20
297.196073
 30
0.0
 10
842.899066
 20
286.307900
 30
0.0
 10
832.493760
 20
269.778281
 30
0.0
 10
830.351307
 20
259.784199
 30
0.0
  0
SPLINE
  5
25c
100
AcDbEntity
  8
Calque_1
 62
1
100
AcDbSpline
 70
8
 71
3
 72
8
 73
4
 74
0
 40
0
 40
0
 40
0
 40
0
 40
1
 40
1
 40
1
 40
1
 10
830.351307
 20
259.784199
 30
0.0
 10
823.929886
 20
262.788099
 30
0.0
 10
820.997937
 20
259.432388
 30
0.0
 10
813.967551
 20
259.413853
 30
0.0
  0
SPLINE
  5
25d
100
AcDbEntity
  8
Calque_1
 62
1
100
AcDbSpline
 70
8
 71
3
 72
8
 73
4
 74
0
 40
0
 40
0
 40
0
 40
0
 40
1
 40
1
 40
1
 40
1
 10
813.967551
 20
259.413853
 30
0.0
 10
806.937265
 20
259.432318
 30
0.0
 10
804.005316
 20
262.788099
 30
0.0
 10
797.583796
 20
259.784199
 30
0.0
  0
SPLINE
  5
25e
100
AcDbEntity
  8
Calque_1
 62
1
100
AcDbSpline
 70
8
 71
3
 72
8
 73
4
 74
0
 40
0
 40
0
 40
0
 40
0
 40
1
 40
1
 40
1
 40
1
 10
797.583796
 20
259.784199
 30
0.0
 10
795.441343
 20
269.778281
 30
0.0
 10
785.035641
 20
286.307870
 30
0.0
 10
781.558236
 20
297.196073
 30
0.0
  0
SPLINE
  5
25f
100
AcDbEntity
  8
Calque_1
 62
1
100
AcDbSpline
 70
8
 71
3
 72
8
 73
4
 74
0
 40
0
 40
0
 40
0
 40
0
 40
1
 40
1
 40
1
 40
1
 10
781.558236
 20
297.196073
 30
0.0
 10
776.261360
 20
313.781386
 30
0.0
 10
763.995627
 20
339.282980
 30
0.0
 10
763.995627
 20
339.282980
 30
0.0
  0
LINE
  5
260
100
AcDbEntity
  8
Calque_1
 62
1
100
AcDbLine
 10
763.995627
 20
339.282980
 30
0.0
 11
754.653138
 21
339.282980
 31
0.0
  0
LINE
  5
261
100
AcDbEntity
  8
Calque_1
 62
1
100
AcDbLine
 10
754.653138
 20
339.282980
 30
0.0
 11
784.166512
 21
245.436632
 31
0.0
  0
SPLINE
  5
262
100
AcDbEntity
  8
Calque_1
 62
1
100
AcDbSpline
 70
8
 71
3
 72
8
 73
4
 74
0
 40
0
 40
0
 40
0
 40
0
 40
1
 40
1
 40
1
 40
1
 10
784.166512
 20
245.436632
 30
0.0
 10
771.824115
 20
236.043577
 30
0.0
 10
763.570263
 20
221.356247
 30
0.0
 10
763.552457
 20
205.758416
 30
0.0
  0
SPLINE
  5
263
100
AcDbEntity
  8
Calque_1
 62
1
100
AcDbSpline
 70
8
 71
3
 72
8
 73
4
 74
0
 40
0
 40
0
 40
0
 40
0
 40
1
 40
1
 40
1
 40
1
 10
763.552457
 20
205.758416
 30
0.0
 10
763.572241
 20
195.147048
 30
0.0
 10
766.953098
 20
184.819858
 30
0.0
 10
773.201307
 20
176.283954
 30
0.0
  0
LINE
  5
264
100
AcDbEntity
  8
Calque_1
 62
1
100
AcDbLine
 10
773.201307
 20
176.283954
 30
0.0
 11
773.201307
 21
205.673827
 31
0.0
  0
LINE
  5
265
100
AcDbEntity
  8
Calque_1
 62
1
100
AcDbLine
 10
773.201307
 20
205.673827
 30
0.0
 11
773.201307
 21
205.673827
 31
0.0
  0
SPLINE
  5
266
100
AcDbEntity
  8
Calque_1
 62
1
100
AcDbSpline
 70
8
 71
3
 72
8
 73
4
 74
0
 40
0
 40
0
 40
0
 40
0
 40
1
 40
1
 40
1
 40
1
 10
773.201307
 20
205.673827
 30
0.0
 10
773.201307
 20
205.701974
 30
0.0
 10
773.201307
 20
205.730120
 30
0.0
 10
773.201307
 20
205.758466
 30
0.0
  0
SPLINE
  5
267
100
AcDbEntity
  8
Calque_1
 62
1
100
AcDbSpline
 70
8
 71
3
 72
8
 73
4
 74
0
 40
0
 40
0
 40
0
 40
0
 40
1
 40
1
 40
1
 40
1
 10
773.201307
 20
205.758466
 30
0.0
 10
773.220102
 20
225.829593
 30
0.0
 10
791.378815
 20
242.749181
 30
0.0
 10
811.118499
 20
245.233478
 30
0.0
  0
LINE
  5
268
100
AcDbEntity
  8
Calque_1
 62
1
100
AcDbLine
 10
811.118499
 20
245.233478
 30
0.0
 11
811.118499
 21
250.636318
 31
0.0
  0
LINE
  5
269
100
AcDbEntity
  8
Calque_1
 62
1
100
AcDbLine
 10
811.118499
 20
250.636318
 30
0.0
 11
813.969134
 21
250.636318
 31
0.0
  0
LINE
  5
26a
100
AcDbEntity
  8
Calque_1
 62
1
100
AcDbLine
 10
813.969134
 20
250.636318
 30
0.0
 11
816.820363
 21
250.636318
 31
0.0
  0
LINE
  5
26b
100
AcDbEntity
  8
Calque_1
 62
1
100
AcDbLine
 10
816.820363
 20
250.636318
 30
0.0
 11
816.820363
 21
245.233478
 31
0.0
  0
SPLINE
  5
26c
100
AcDbEntity
  8
Calque_1
 62
1
100
AcDbSpline
 70
8
 71
3
 72
8
 73
4
 74
0
 40
0
 40
0
 40
0
 40
0
 40
1
 40
1
 40
1
 40
1
 10
816.820363
 20
245.233478
 30
0.0
 10
836.559948
 20
242.749181
 30
0.0
 10
854.717276
 20
225.829593
 30
0.0
 10
854.735774
 20
205.758466
 30
0.0
  0
SPLINE
  5
26d
100
AcDbEntity
  8
Calque_1
 62
1
100
AcDbSpline
 70
8
 71
3
 72
8
 73
4
 74
0
 40
0
 40
0
 40
0
 40
0
 40
1
 40
1
 40
1
 40
1
 10
854.735774
 20
205.758466
 30
0.0
 10
854.735774
 20
205.730220
 30
0.0
 10
854.735774
 20
205.702073
 30
0.0
 10
854.735774
 20
205.673827
 30
0.0
  0
LINE
  5
26e
100
AcDbEntity
  8
Calque_1
 62
1
100
AcDbLine
 10
854.735774
 20
205.673827
 30
0.0
 11
854.735774
 21
205.673827
 31
0.0
  0
LINE
  5
26f
100
AcDbEntity
  8
Calque_1
 62
1
100
AcDbLine
 10
854.735774
 20
205.673827
 30
0.0
 11
854.732708
 21
176.283954
 31
0.0
  0
SPLINE
  5
270
100
AcDbEntity
  8
Calque_1
 62
1
100
AcDbSpline
 70
8
 71
3
 72
8
 73
4
 74
0
 40
0
 40
0
 40
0
 40
0
 40
1
 40
1
 40
1
 40
1
 10
453.030651
 20
267.674660
 30
0.0
 10
446.782818
 20
259.138756
 30
0.0
 10
443.402278
 20
248.811567
 30
0.0
 10
443.382385
 20
238.200198
 30
0.0
  0
SPLINE
  5
271
100
AcDbEntity
  8
Calque_1
 62
1
100
AcDbSpline
 70
8
 71
3
 72
8
 73
4
 74
0
 40
0
 40
0
 40
0
 40
0
 40
1
 40
1
 40
1
 40
1
 10
443.382385
 20
238.200198
 30
0.0
 10
443.400191
 20
222.602368
 30
0.0
 10
451.653637
 20
207.915027
 30
0.0
 10
463.995253
 20
198.521972
 30
0.0
  0
LINE
  5
272
100
AcDbEntity
  8
Calque_1
 62
1
100
AcDbLine
 10
463.995253
 20
198.521972
 30
0.0
 11
434.483521
 21
104.675624
 31
0.0
  0
LINE
  5
273
100
AcDbEntity
  8
Calque_1
 62
1
100
AcDbLine
 10
434.483521
 20
104.675624
 30
0.0
 11
443.825595
 21
104.675624
 31
0.0
  0
SPLINE
  5
274
100
AcDbEntity
  8
Calque_1
 62
1
100
AcDbSpline
 70
8
 71
3
 72
8
 73
4
 74
0
 40
0
 40
0
 40
0
 40
0
 40
1
 40
1
 40
1
 40
1
 10
443.825595
 20
104.675624
 30
0.0
 10
443.825595
 20
104.675624
 30
0.0
 10
456.090605
 20
130.177218
 30
0.0
 10
461.387125
 20
146.762531
 30
0.0
  0
SPLINE
  5
275
100
AcDbEntity
  8
Calque_1
 62
1
100
AcDbSpline
 70
8
 71
3
 72
8
 73
4
 74
0
 40
0
 40
0
 40
0
 40
0
 40
1
 40
1
 40
1
 40
1
 10
461.387125
 20
146.762531
 30
0.0
 10
464.864302
 20
157.650714
 30
0.0
 10
475.269579
 20
174.180333
 30
0.0
 10
477.412032
 20
184.174405
 30
0.0
  0
SPLINE
  5
276
100
AcDbEntity
  8
Calque_1
 62
1
100
AcDbSpline
 70
8
 71
3
 72
8
 73
4
 74
0
 40
0
 40
0
 40
0
 40
0
 40
1
 40
1
 40
1
 40
1
 10
477.412032
 20
184.174405
 30
0.0
 10
483.833493
 20
181.170515
 30
0.0
 10
486.765481
 20
184.526217
 30
0.0
 10
493.795788
 20
184.544761
 30
0.0
  0
SPLINE
  5
277
100
AcDbEntity
  8
Calque_1
 62
1
100
AcDbSpline
 70
8
 71
3
 72
8
 73
4
 74
0
 40
0
 40
0
 40
0
 40
0
 40
1
 40
1
 40
1
 40
1
 10
493.795788
 20
184.544761
 30
0.0
 10
500.826094
 20
184.526296
 30
0.0
 10
503.758062
 20
181.170515
 30
0.0
 10
510.179533
 20
184.174405
 30
0.0
  0
SPLINE
  5
278
100
AcDbEntity
  8
Calque_1
 62
1
100
AcDbSpline
 70
8
 71
3
 72
8
 73
4
 74
0
 40
0
 40
0
 40
0
 40
0
 40
1
 40
1
 40
1
 40
1
 10
510.179533
 20
184.174405
 30
0.0
 10
512.321986
 20
174.180333
 30
0.0
 10
522.727263
 20
157.650744
 30
0.0
 10
526.204440
 20
146.762531
 30
0.0
  0
SPLINE
  5
279
100
AcDbEntity
  8
Calque_1
 62
1
100
AcDbSpline
 70
8
 71
3
 72
8
 73
4
 74
0
 40
0
 40
0
 40
0
 40
0
 40
1
 40
1
 40
1
 40
1
 10
526.204440
 20
146.762531
 30
0.0
 10
531.500980
 20
130.177218
 30
0.0
 10
543.765961
 20
104.675624
 30
0.0
 10
543.765961
 20
104.675624
 30
0.0
  0
LINE
  5
27a
100
AcDbEntity
  8
Calque_1
 62
1
100
AcDbLine
 10
543.765961
 20
104.675624
 30
0.0
 11
553.108034
 21
104.675624
 31
0.0
  0
LINE
  5
27b
100
AcDbEntity
  8
Calque_1
 62
1
100
AcDbLine
 10
553.108034
 20
104.675624
 30
0.0
 11
523.596312
 21
198.521972
 31
0.0
  0
SPLINE
  5
27c
100
AcDbEntity
  8
Calque_1
 62
1
100
AcDbSpline
 70
8
 71
3
 72
8
 73
4
 74
0
 40
0
 40
0
 40
0
 40
0
 40
1
 40
1
 40
1
 40
1
 10
523.596312
 20
198.521972
 30
0.0
 10
535.937928
 20
207.915027
 30
0.0
 10
544.191385
 20
222.602368
 30
0.0
 10
544.209181
 20
238.200198
 30
0.0
  0
SPLINE
  5
27d
100
AcDbEntity
  8
Calque_1
 62
1
100
AcDbSpline
 70
8
 71
3
 72
8
 73
4
 74
0
 40
0
 40
0
 40
0
 40
0
 40
1
 40
1
 40
1
 40
1
 10
544.209181
 20
238.200198
 30
0.0
 10
544.189297
 20
248.811567
 30
0.0
 10
540.808737
 20
259.138756
 30
0.0
 10
534.560904
 20
267.674660
 30
0.0
  0
LINE
  5
27e
100
AcDbEntity
  8
Calque_1
 62
1
100
AcDbLine
 10
534.560904
 20
267.674660
 30
0.0
 11
534.560904
 21
238.284777
 31
0.0
  0
LINE
  5
27f
100
AcDbEntity
  8
Calque_1
 62
1
100
AcDbLine
 10
534.560904
 20
238.284777
 30
0.0
 11
534.557936
 21
238.284777
 31
0.0
  0
SPLINE
  5
280
100
AcDbEntity
  8
Calque_1
 62
1
100
AcDbSpline
 70
8
 71
3
 72
8
 73
4
 74
0
 40
0
 40
0
 40
0
 40
0
 40
1
 40
1
 40
1
 40
1
 10
534.557936
 20
238.284777
 30
0.0
 10
534.557936
 20
238.256631
 30
0.0
 10
534.557936
 20
238.228484
 30
0.0
 10
534.561893
 20
238.200238
 30
0.0
  0
SPLINE
  5
281
100
AcDbEntity
  8
Calque_1
 62
1
100
AcDbSpline
 70
8
 71
3
 72
8
 73
4
 74
0
 40
0
 40
0
 40
0
 40
0
 40
1
 40
1
 40
1
 40
1
 10
534.561893
 20
238.200238
 30
0.0
 10
534.543296
 20
218.129101
 30
0.0
 10
516.385345
 20
201.209523
 30
0.0
 10
496.645829
 20
198.725226
 30
0.0
  0
LINE
  5
282
100
AcDbEntity
  8
Calque_1
 62
1
100
AcDbLine
 10
496.645829
 20
198.725226
 30
0.0
 11
496.645829
 21
193.322386
 31
0.0
  0
LINE
  5
283
100
AcDbEntity
  8
Calque_1
 62
1
100
AcDbLine
 10
496.645829
 20
193.322386
 30
0.0
 11
493.795234
 21
193.322386
 31
0.0
  0
LINE
  5
284
100
AcDbEntity
  8
Calque_1
 62
1
100
AcDbLine
 10
493.795234
 20
193.322386
 30
0.0
 11
490.943966
 21
193.322386
 31
0.0
  0
LINE
  5
285
100
AcDbEntity
  8
Calque_1
 62
1
100
AcDbLine
 10
490.943966
 20
193.322386
 30
0.0
 11
490.943966
 21
198.725226
 31
0.0
  0
SPLINE
  5
286
100
AcDbEntity
  8
Calque_1
 62
1
100
AcDbSpline
 70
8
 71
3
 72
8
 73
4
 74
0
 40
0
 40
0
 40
0
 40
0
 40
1
 40
1
 40
1
 40
1
 10
490.943966
 20
198.725226
 30
0.0
 10
471.204430
 20
201.209523
 30
0.0
 10
453.047043
 20
218.129101
 30
0.0
 10
453.028564
 20
238.200238
 30
0.0
  0
SPLINE
  5
287
100
AcDbEntity
  8
Calque_1
 62
1
100
AcDbSpline
 70
8
 71
3
 72
8
 73
4
 74
0
 40
0
 40
0
 40
0
 40
0
 40
1
 40
1
 40
1
 40
1
 10
453.028564
 20
238.200238
 30
0.0
 10
453.031532
 20
238.228484
 30
0.0
 10
453.031532
 20
238.256631
 30
0.0
 10
453.032521
 20
238.284777
 30
0.0
  0
LINE
  5
288
100
AcDbEntity
  8
Calque_1
 62
1
100
AcDbLine
 10
453.032521
 20
238.284777
 30
0.0
 11
453.029553
 21
238.284777
 31
0.0
  0
LINE
  5
289
100
AcDbEntity
  8
Calque_1
 62
1
100
AcDbLine
 10
453.029553
 20
238.284777
 30
0.0
 11
453.030651
 21
267.674660
 31
0.0
  0
SPLINE
  5
28a
100
AcDbEntity
  8
Calque_1
 62
1
100
AcDbSpline
 70
8
 71
3
 72
8
 73
4
 74
0
 40
0
 40
0
 40
0
 40
0
 40
1
 40
1
 40
1
 40
1
 10
645.767525
 20
104.945501
 30
0.0
 10
652.015358
 20
113.481405
 30
0.0
 10
655.395908
 20
123.808595
 30
0.0
 10
655.415801
 20
134.419963
 30
0.0
  0
SPLINE
  5
28b
100
AcDbEntity
  8
Calque_1
 62
1
100
AcDbSpline
 70
8
 71
3
 72
8
 73
4
 74
0
 40
0
 40
0
 40
0
 40
0
 40
1
 40
1
 40
1
 40
1
 10
655.415801
 20
134.419963
 30
0.0
 10
655.397995
 20
150.017794
 30
0.0
 10
647.144548
 20
164.705124
 30
0.0
 10
634.802943
 20
174.098179
 30
0.0
  0
LINE
  5
28c
100
AcDbEntity
  8
Calque_1
 62
1
100
AcDbLine
 10
634.802943
 20
174.098179
 30
0.0
 11
664.314655
 21
267.944527
 31
0.0
  0
LINE
  5
28d
100
AcDbEntity
  8
Calque_1
 62
1
100
AcDbLine
 10
664.314655
 20
267.944527
 30
0.0
 11
654.972581
 21
267.944527
 31
0.0
  0
SPLINE
  5
28e
100
AcDbEntity
  8
Calque_1
 62
1
100
AcDbSpline
 70
8
 71
3
 72
8
 73
4
 74
0
 40
0
 40
0
 40
0
 40
0
 40
1
 40
1
 40
1
 40
1
 10
654.972581
 20
267.944527
 30
0.0
 10
654.972581
 20
267.944527
 30
0.0
 10
642.707571
 20
242.442933
 30
0.0
 10
637.411060
 20
225.857620
 30
0.0
  0
SPLINE
  5
28f
100
AcDbEntity
  8
Calque_1
 62
1
100
AcDbSpline
 70
8
 71
3
 72
8
 73
4
 74
0
 40
0
 40
0
 40
0
 40
0
 40
1
 40
1
 40
1
 40
1
 10
637.411060
 20
225.857620
 30
0.0
 10
633.933893
 20
214.969447
 30
0.0
 10
623.528616
 20
198.439828
 30
0.0
 10
621.386164
 20
188.445746
 30
0.0
  0
SPLINE
  5
290
100
AcDbEntity
  8
Calque_1
 62
1
100
AcDbSpline
 70
8
 71
3
 72
8
 73
4
 74
0
 40
0
 40
0
 40
0
 40
0
 40
1
 40
1
 40
1
 40
1
 10
621.386164
 20
188.445746
 30
0.0
 10
614.964693
 20
191.449646
 30
0.0
 10
612.032704
 20
188.093935
 30
0.0
 10
605.002398
 20
188.075400
 30
0.0
  0
SPLINE
  5
291
100
AcDbEntity
  8
Calque_1
 62
1
100
AcDbSpline
 70
8
 71
3
 72
8
 73
4
 74
0
 40
0
 40
0
 40
0
 40
0
 40
1
 40
1
 40
1
 40
1
 10
605.002398
 20
188.075400
 30
0.0
 10
597.972082
 20
188.093865
 30
0.0
 10
595.040113
 20
191.449646
 30
0.0
 10
588.618652
 20
188.445746
 30
0.0
  0
SPLINE
  5
292
100
AcDbEntity
  8
Calque_1
 62
1
100
AcDbSpline
 70
8
 71
3
 72
8
 73
4
 74
0
 40
0
 40
0
 40
0
 40
0
 40
1
 40
1
 40
1
 40
1
 10
588.618652
 20
188.445746
 30
0.0
 10
586.476200
 20
198.439828
 30
0.0
 10
576.070923
 20
214.969417
 30
0.0
 10
572.593746
 20
225.857620
 30
0.0
  0
SPLINE
  5
293
100
AcDbEntity
  8
Calque_1
 62
1
100
AcDbSpline
 70
8
 71
3
 72
8
 73
4
 74
0
 40
0
 40
0
 40
0
 40
0
 40
1
 40
1
 40
1
 40
1
 10
572.593746
 20
225.857620
 30
0.0
 10
567.297186
 20
242.442933
 30
0.0
 10
555.032205
 20
267.944527
 30
0.0
 10
555.032205
 20
267.944527
 30
0.0
  0
LINE
  5
294
100
AcDbEntity
  8
Calque_1
 62
1
100
AcDbLine
 10
555.032205
 20
267.944527
 30
0.0
 11
545.690132
 21
267.944527
 31
0.0
  0
LINE
  5
295
100
AcDbEntity
  8
Calque_1
 62
1
100
AcDbLine
 10
545.690132
 20
267.944527
 30
0.0
 11
575.201873
 21
174.098179
 31
0.0
  0
SPLINE
  5
296
100
AcDbEntity
  8
Calque_1
 62
1
100
AcDbSpline
 70
8
 71
3
 72
8
 73
4
 74
0
 40
0
 40
0
 40
0
 40
0
 40
1
 40
1
 40
1
 40
1
 10
575.201873
 20
174.098179
 30
0.0
 10
562.860248
 20
164.705124
 30
0.0
 10
554.606791
 20
150.017794
 30
0.0
 10
554.588995
 20
134.419963
 30
0.0
  0
SPLINE
  5
297
100
AcDbEntity
  8
Calque_1
 62
1
100
AcDbSpline
 70
8
 71
3
 72
8
 73
4
 74
0
 40
0
 40
0
 40
0
 40
0
 40
1
 40
1
 40
1
 40
1
 10
554.588995
 20
134.419963
 30
0.0
 10
554.608878
 20
123.808595
 30
0.0
 10
557.989428
 20
113.481405
 30
0.0
 10
564.237262
 20
104.945501
 30
0.0
  0
LINE
  5
298
100
AcDbEntity
  8
Calque_1
 62
1
100
AcDbLine
 10
564.237262
 20
104.945501
 30
0.0
 11
564.237262
 21
134.335374
 31
0.0
  0
LINE
  5
299
100
AcDbEntity
  8
Calque_1
 62
1
100
AcDbLine
 10
564.237262
 20
134.335374
 30
0.0
 11
564.240229
 21
134.335374
 31
0.0
  0
SPLINE
  5
29a
100
AcDbEntity
  8
Calque_1
 62
1
100
AcDbSpline
 70
8
 71
3
 72
8
 73
4
 74
0
 40
0
 40
0
 40
0
 40
0
 40
1
 40
1
 40
1
 40
1
 10
564.240229
 20
134.335374
 30
0.0
 10
564.240229
 20
134.363521
 30
0.0
 10
564.240229
 20
134.391667
 30
0.0
 10
564.236273
 20
134.420013
 30
0.0
  0
SPLINE
  5
29b
100
AcDbEntity
  8
Calque_1
 62
1
100
AcDbSpline
 70
8
 71
3
 72
8
 73
4
 74
0
 40
0
 40
0
 40
0
 40
0
 40
1
 40
1
 40
1
 40
1
 10
564.236273
 20
134.420013
 30
0.0
 10
564.254870
 20
154.491140
 30
0.0
 10
582.412831
 20
171.410728
 30
0.0
 10
602.152357
 20
173.895025
 30
0.0
  0
LINE
  5
29c
100
AcDbEntity
  8
Calque_1
 62
1
100
AcDbLine
 10
602.152357
 20
173.895025
 30
0.0
 11
602.152357
 21
179.297865
 31
0.0
  0
LINE
  5
29d
100
AcDbEntity
  8
Calque_1
 62
1
100
AcDbLine
 10
602.152357
 20
179.297865
 30
0.0
 11
605.002942
 21
179.297865
 31
0.0
  0
LINE
  5
29e
100
AcDbEntity
  8
Calque_1
 62
1
100
AcDbLine
 10
605.002942
 20
179.297865
 30
0.0
 11
607.854220
 21
179.297865
 31
0.0
  0
LINE
  5
29f
100
AcDbEntity
  8
Calque_1
 62
1
100
AcDbLine
 10
607.854220
 20
179.297865
 30
0.0
 11
607.854220
 21
173.895025
 31
0.0
  0
SPLINE
  5
2a0
100
AcDbEntity
  8
Calque_1
 62
1
100
AcDbSpline
 70
8
 71
3
 72
8
 73
4
 74
0
 40
0
 40
0
 40
0
 40
0
 40
1
 40
1
 40
1
 40
1
 10
607.854220
 20
173.895025
 30
0.0
 10
627.593736
 20
171.410728
 30
0.0
 10
645.751123
 20
154.491140
 30
0.0
 10
645.769602
 20
134.420013
 30
0.0
  0
SPLINE
  5
2a1
100
AcDbEntity
  8
Calque_1
 62
1
100
AcDbSpline
 70
8
 71
3
 72
8
 73
4
 74
0
 40
0
 40
0
 40
0
 40
0
 40
1
 40
1
 40
1
 40
1
 10
645.769602
 20
134.420013
 30
0.0
 10
645.766634
 20
134.391767
 30
0.0
 10
645.766634
 20
134.363621
 30
0.0
 10
645.765645
 20
134.335374
 30
0.0
  0
LINE
  5
2a2
100
AcDbEntity
  8
Calque_1
 62
1
100
AcDbLine
 10
645.765645
 20
134.335374
 30
0.0
 11
645.768613
 21
134.335374
 31
0.0
  0
LINE
  5
2a3
100
AcDbEntity
  8
Calque_1
 62
1
100
AcDbLine
 10
645.768613
 20
134.335374
 30
0.0
 11
645.767525
 21
104.945501
 31
0.0
  0
LINE
  5
2a4
100
AcDbEntity
  8
Calque_1
 62
1
100
AcDbLine
 10
582.704315
 20
131.842503
 30
0.0
 11
603.340637
 21
89.671266
 31
0.0
  0
SPLINE
  5
2a5
100
AcDbEntity
  8
Calque_1
 62
1
100
AcDbSpline
 70
8
 71
3
 72
8
 73
4
 74
0
 40
0
 40
0
 40
0
 40
0
 40
1
 40
1
 40
1
 40
1
 10
603.340637
 20
89.671266
 30
0.0
 10
603.340637
 20
89.671266
 30
0.0
 10
610.889770
 20
76.528848
 30
0.0
 10
616.896995
 20
72.366760
 30
0.0
  0
SPLINE
  5
2a6
100
AcDbEntity
  8
Calque_1
 62
1
100
AcDbSpline
 70
8
 71
3
 72
8
 73
4
 74
0
 40
0
 40
0
 40
0
 40
0
 40
1
 40
1
 40
1
 40
1
 10
616.896995
 20
72.366760
 30
0.0
 10
623.255621
 20
66.568083
 30
0.0
 10
632.153426
 20
65.403896
 30
0.0
 10
640.995360
 20
64.856936
 30
0.0
  0
LINE
  5
2a7
100
AcDbEntity
  8
Calque_1
 62
1
100
AcDbLine
 10
640.995360
 20
64.856936
 30
0.0
 11
640.995360
 21
74.623770
 31
0.0
  0
LINE
  5
2a8
100
AcDbEntity
  8
Calque_1
 62
1
100
AcDbLine
 10
640.995360
 20
74.623770
 30
0.0
 11
646.732835
 21
74.623770
 31
0.0
  0
LINE
  5
2a9
100
AcDbEntity
  8
Calque_1
 62
1
100
AcDbLine
 10
646.732835
 20
74.623770
 30
0.0
 11
646.732835
 21
64.856936
 31
0.0
  0
LINE
  5
2aa
100
AcDbEntity
  8
Calque_1
 62
1
100
AcDbLine
 10
646.732835
 20
64.856936
 30
0.0
 11
808.935192
 21
64.856936
 31
0.0
  0
LINE
  5
2ab
100
AcDbEntity
  8
Calque_1
 62
1
100
AcDbLine
 10
808.935192
 20
64.856936
 30
0.0
 11
808.935192
 21
74.623770
 31
0.0
  0
LINE
  5
2ac
100
AcDbEntity
  8
Calque_1
 62
1
100
AcDbLine
 10
808.935192
 20
74.623770
 30
0.0
 11
814.672568
 21
74.623770
 31
0.0
  0
LINE
  5
2ad
100
AcDbEntity
  8
Calque_1
 62
1
100
AcDbLine
 10
814.672568
 20
74.623770
 30
0.0
 11
814.672568
 21
64.856936
 31
0.0
  0
SPLINE
  5
2ae
100
AcDbEntity
  8
Calque_1
 62
1
100
AcDbSpline
 70
8
 71
3
 72
8
 73
4
 74
0
 40
0
 40
0
 40
0
 40
0
 40
1
 40
1
 40
1
 40
1
 10
814.672568
 20
64.856936
 30
0.0
 10
814.672568
 20
64.856936
 30
0.0
 10
826.361091
 20
65.014835
 30
0.0
 10
841.399904
 20
65.517680
 30
0.0
  0
SPLINE
  5
2af
100
AcDbEntity
  8
Calque_1
 62
1
100
AcDbSpline
 70
8
 71
3
 72
8
 73
4
 74
0
 40
0
 40
0
 40
0
 40
0
 40
1
 40
1
 40
1
 40
1
 10
841.399904
 20
65.517680
 30
0.0
 10
849.310398
 20
65.782177
 30
0.0
 10
860.180341
 20
68.895359
 30
0.0
 10
872.344679
 20
72.846947
 30
0.0
  0
SPLINE
  5
2b0
100
AcDbEntity
  8
Calque_1
 62
1
100
AcDbSpline
 70
8
 71
3
 72
8
 73
4
 74
0
 40
0
 40
0
 40
0
 40
0
 40
1
 40
1
 40
1
 40
1
 10
872.344679
 20
72.846947
 30
0.0
 10
886.832298
 20
77.553201
 30
0.0
 10
892.214742
 20
83.265543
 30
0.0
 10
892.766133
 20
84.235000
 30
0.0
  0
SPLINE
  5
2b1
100
AcDbEntity
  8
Calque_1
 62
1
100
AcDbSpline
 70
8
 71
3
 72
8
 73
4
 74
0
 40
0
 40
0
 40
0
 40
0
 40
1
 40
1
 40
1
 40
1
 10
892.766133
 20
84.235000
 30
0.0
 10
894.504192
 20
87.289993
 30
0.0
 10
894.065473
 20
97.929568
 30
0.0
 10
894.065473
 20
97.929568
 30
0.0
  0
LINE
  5
2b2
100
AcDbEntity
  8
Calque_1
 62
1
100
AcDbLine
 10
894.065473
 20
97.929568
 30
0.0
 11
881.397920
 21
97.929568
 31
0.0
  0
LINE
  5
2b3
100
AcDbEntity
  8
Calque_1
 62
1
100
AcDbLine
 10
881.397920
 20
97.929568
 30
0.0
 11
881.397920
 21
88.101250
 31
0.0
  0
LINE
  5
2b4
100
AcDbEntity
  8
Calque_1
 62
1
100
AcDbLine
 10
881.397920
 20
88.101250
 30
0.0
 11
875.660741
 21
88.101250
 31
0.0
  0
LINE
  5
2b5
100
AcDbEntity
  8
Calque_1
 62
1
100
AcDbLine
 10
875.660741
 20
88.101250
 30
0.0
 11
875.660741
 21
97.929568
 31
0.0
  0
LINE
  5
2b6
100
AcDbEntity
  8
Calque_1
 62
1
100
AcDbLine
 10
875.660741
 20
97.929568
 30
0.0
 11
863.833827
 21
97.929568
 31
0.0
  0
SPLINE
  5
2b7
100
AcDbEntity
  8
Calque_1
 62
1
100
AcDbSpline
 70
8
 71
3
 72
8
 73
4
 74
0
 40
0
 40
0
 40
0
 40
0
 40
1
 40
1
 40
1
 40
1
 10
863.833827
 20
97.929568
 30
0.0
 10
855.942523
 20
97.929568
 30
0.0
 10
861.349203
 20
98.983025
 30
0.0
 10
855.509542
 20
94.932265
 30
0.0
  0
SPLINE
  5
2b8
100
AcDbEntity
  8
Calque_1
 62
1
100
AcDbSpline
 70
8
 71
3
 72
8
 73
4
 74
0
 40
0
 40
0
 40
0
 40
0
 40
1
 40
1
 40
1
 40
1
 10
855.509542
 20
94.932265
 30
0.0
 10
851.528624
 20
90.855515
 30
0.0
 10
844.895708
 20
81.966133
 30
0.0
 10
831.407794
 20
81.152280
 30
0.0
  0
SPLINE
  5
2b9
100
AcDbEntity
  8
Calque_1
 62
1
100
AcDbSpline
 70
8
 71
3
 72
8
 73
4
 74
0
 40
0
 40
0
 40
0
 40
0
 40
1
 40
1
 40
1
 40
1
 10
831.407794
 20
81.152280
 30
0.0
 10
820.857962
 20
80.300699
 30
0.0
 10
814.879019
 20
79.736671
 30
0.0
 10
814.672667
 20
80.039695
 30
0.0
  0
LINE
  5
2ba
100
AcDbEntity
  8
Calque_1
 62
1
100
AcDbLine
 10
814.672667
 20
80.039695
 30
0.0
 11
630.073463
 21
79.944875
 31
0.0
  0
SPLINE
  5
2bb
100
AcDbEntity
  8
Calque_1
 62
1
100
AcDbSpline
 70
8
 71
3
 72
8
 73
4
 74
0
 40
0
 40
0
 40
0
 40
0
 40
1
 40
1
 40
1
 40
1
 10
630.073463
 20
79.944875
 30
0.0
 10
630.073463
 20
79.944875
 30
0.0
 10
621.571563
 20
91.209851
 30
0.0
 10
610.510206
 20
105.409459
 30
0.0
  0
SPLINE
  5
2bc
100
AcDbEntity
  8
Calque_1
 62
1
100
AcDbSpline
 70
8
 71
3
 72
8
 73
4
 74
0
 40
0
 40
0
 40
0
 40
0
 40
1
 40
1
 40
1
 40
1
 10
610.510206
 20
105.409459
 30
0.0
 10
602.516212
 20
117.222604
 30
0.0
 10
579.858438
 20
137.658158
 30
0.0
 10
582.704315
 20
131.842513
 30
0.0
  0
LINE
  5
2bd
100
AcDbEntity
  8
Calque_1
 62
1
100
AcDbLine
 10
582.704315
 20
131.842513
 30
0.0
 11
582.704315
 21
131.842503
 31
0.0
  0
LINE
  5
2be
100
AcDbEntity
  8
Calque_1
 62
1
100
AcDbLine
 10
428.205348
 20
385.292451
 30
0.0
 11
898.105348
 21
385.292451
 31
0.0
  0
LINE
  5
2bf
100
AcDbEntity
  8
Calque_1
 62
1
100
AcDbLine
 10
898.105348
 20
385.292451
 30
0.0
 11
898.105348
 21
55.392896
 31
0.0
  0
LINE
  5
2c0
100
AcDbEntity
  8
Calque_1
 62
1
100
AcDbLine
 10
898.105348
 20
55.392896
 30
0.0
 11
428.205348
 21
55.392896
 31
0.0
  0
LINE
  5
2c1
100
AcDbEntity
  8
Calque_1
 62
1
100
AcDbLine
 10
428.205348
 20
55.392896
 30
0.0
 11
428.205348
 21
385.292451
 31
0.0
  0
SPLINE
  5
2c2
100
AcDbEntity
  8
Calque_1
 62
1
100
AcDbSpline
 70
8
 71
3
 72
8
 73
4
 74
0
 40
0
 40
0
 40
0
 40
0
 40
1
 40
1
 40
1
 40
1
 10
479.415482
 20
221.746034
 30
0.0
 10
480.337403
 20
221.757389
 30
0.0
 10
481.255844
 20
222.065414
 30
0.0
 10
482.022559
 20
222.667229
 30
0.0
  0
SPLINE
  5
2c3
100
AcDbEntity
  8
Calque_1
 62
1
100
AcDbSpline
 70
8
 71
3
 72
8
 73
4
 74
0
 40
0
 40
0
 40
0
 40
0
 40
1
 40
1
 40
1
 40
1
 10
482.022559
 20
222.667229
 30
0.0
 10
483.613203
 20
223.874793
 30
0.0
 10
484.208746
 20
226.004160
 30
0.0
 10
483.478438
 20
227.872509
 30
0.0
  0
SPLINE
  5
2c4
100
AcDbEntity
  8
Calque_1
 62
1
100
AcDbSpline
 70
8
 71
3
 72
8
 73
4
 74
0
 40
0
 40
0
 40
0
 40
0
 40
1
 40
1
 40
1
 40
1
 10
483.478438
 20
227.872509
 30
0.0
 10
481.672441
 20
232.386188
 30
0.0
 10
480.640880
 20
237.177125
 30
0.0
 10
480.428669
 20
242.040051
 30
0.0
  0
SPLINE
  5
2c5
100
AcDbEntity
  8
Calque_1
 62
1
100
AcDbSpline
 70
8
 71
3
 72
8
 73
4
 74
0
 40
0
 40
0
 40
0
 40
0
 40
1
 40
1
 40
1
 40
1
 10
480.428669
 20
242.040051
 30
0.0
 10
481.444787
 20
240.819890
 30
0.0
 10
482.593316
 20
239.719040
 30
0.0
 10
483.853158
 20
238.757626
 30
0.0
  0
SPLINE
  5
2c6
100
AcDbEntity
  8
Calque_1
 62
1
100
AcDbSpline
 70
8
 71
3
 72
8
 73
4
 74
0
 40
0
 40
0
 40
0
 40
0
 40
1
 40
1
 40
1
 40
1
 10
483.853158
 20
238.757626
 30
0.0
 10
485.356411
 20
237.616662
 30
0.0
 10
487.409639
 20
237.555580
 30
0.0
 10
488.976858
 20
238.605462
 30
0.0
  0
SPLINE
  5
2c7
100
AcDbEntity
  8
Calque_1
 62
1
100
AcDbSpline
 70
8
 71
3
 72
8
 73
4
 74
0
 40
0
 40
0
 40
0
 40
0
 40
1
 40
1
 40
1
 40
1
 10
488.976858
 20
238.605462
 30
0.0
 10
490.544392
 20
239.655370
 30
0.0
 10
491.285614
 20
241.587759
 30
0.0
 10
490.826852
 20
243.428564
 30
0.0
  0
SPLINE
  5
2c8
100
AcDbEntity
  8
Calque_1
 62
1
100
AcDbSpline
 70
8
 71
3
 72
8
 73
4
 74
0
 40
0
 40
0
 40
0
 40
0
 40
1
 40
1
 40
1
 40
1
 10
490.826852
 20
243.428564
 30
0.0
 10
489.237726
 20
249.736279
 30
0.0
 10
489.315015
 20
254.678509
 30
0.0
 10
491.048198
 20
257.365537
 30
0.0
  0
SPLINE
  5
2c9
100
AcDbEntity
  8
Calque_1
 62
1
100
AcDbSpline
 70
8
 71
3
 72
8
 73
4
 74
0
 40
0
 40
0
 40
0
 40
0
 40
1
 40
1
 40
1
 40
1
 10
491.048198
 20
257.365537
 30
0.0
 10
491.989409
 20
258.766541
 30
0.0
 10
493.493107
 20
259.679021
 30
0.0
 10
495.160753
 20
259.861950
 30
0.0
  0
SPLINE
  5
2ca
100
AcDbEntity
  8
Calque_1
 62
1
100
AcDbSpline
 70
8
 71
3
 72
8
 73
4
 74
0
 40
0
 40
0
 40
0
 40
0
 40
1
 40
1
 40
1
 40
1
 10
495.160753
 20
259.861950
 30
0.0
 10
506.862933
 20
261.518453
 30
0.0
 10
506.386713
 20
264.753767
 30
0.0
 10
512.808678
 20
252.716781
 30
0.0
  0
SPLINE
  5
2cb
100
AcDbEntity
  8
Calque_1
 62
1
100
AcDbSpline
 70
8
 71
3
 72
8
 73
4
 74
0
 40
0
 40
0
 40
0
 40
0
 40
1
 40
1
 40
1
 40
1
 10
512.808678
 20
252.716781
 30
0.0
 10
514.152012
 20
251.314482
 30
0.0
 10
516.245128
 20
250.959029
 30
0.0
 10
517.969177
 20
251.840981
 30
0.0
  0
SPLINE
  5
2cc
100
AcDbEntity
  8
Calque_1
 62
1
100
AcDbSpline
 70
8
 71
3
 72
8
 73
4
 74
0
 40
0
 40
0
 40
0
 40
0
 40
1
 40
1
 40
1
 40
1
 10
517.969177
 20
251.840981
 30
0.0
 10
519.692729
 20
252.673075
 30
0.0
 10
520.675503
 20
254.543854
 30
0.0
 10
520.390713
 20
256.450019
 30
0.0
  0
SPLINE
  5
2cd
100
AcDbEntity
  8
Calque_1
 62
1
100
AcDbSpline
 70
8
 71
3
 72
8
 73
4
 74
0
 40
0
 40
0
 40
0
 40
0
 40
1
 40
1
 40
1
 40
1
 10
520.390713
 20
256.450019
 30
0.0
 10
519.331932
 20
264.164284
 30
0.0
 10
520.167954
 20
269.755124
 30
0.0
 10
522.609303
 20
271.407772
 30
0.0
  0
SPLINE
  5
2ce
100
AcDbEntity
  8
Calque_1
 62
1
100
AcDbSpline
 70
8
 71
3
 72
8
 73
4
 74
0
 40
0
 40
0
 40
0
 40
0
 40
1
 40
1
 40
1
 40
1
 10
522.609303
 20
271.407772
 30
0.0
 10
525.424378
 20
273.507694
 30
0.0
 10
527.768755
 20
276.152680
 30
0.0
 10
529.525730
 20
279.164633
 30
0.0
  0
SPLINE
  5
2cf
100
AcDbEntity
  8
Calque_1
 62
1
100
AcDbSpline
 70
8
 71
3
 72
8
 73
4
 74
0
 40
0
 40
0
 40
0
 40
0
 40
1
 40
1
 40
1
 40
1
 10
529.525730
 20
279.164633
 30
0.0
 10
534.958691
 20
276.582551
 30
0.0
 10
540.887476
 20
275.235763
 30
0.0
 10
546.893027
 20
275.219918
 30
0.0
  0
SPLINE
  5
2d0
100
AcDbEntity
  8
Calque_1
 62
1
100
AcDbSpline
 70
8
 71
3
 72
8
 73
4
 74
0
 40
0
 40
0
 40
0
 40
0
 40
1
 40
1
 40
1
 40
1
 10
546.893027
 20
275.219918
 30
0.0
 10
546.934642
 20
275.219918
 30
0.0
 10
546.976153
 20
275.222823
 30
0.0
 10
547.017768
 20
275.223087
 30
0.0
  0
SPLINE
  5
2d1
100
AcDbEntity
  8
Calque_1
 62
1
100
AcDbSpline
 70
8
 71
3
 72
8
 73
4
 74
0
 40
0
 40
0
 40
0
 40
0
 40
1
 40
1
 40
1
 40
1
 10
547.017768
 20
275.223087
 30
0.0
 10
547.059357
 20
275.222849
 30
0.0
 10
547.100894
 20
275.220446
 30
0.0
 10
547.142483
 20
275.220446
 30
0.0
  0
SPLINE
  5
2d2
100
AcDbEntity
  8
Calque_1
 62
1
100
AcDbSpline
 70
8
 71
3
 72
8
 73
4
 74
0
 40
0
 40
0
 40
0
 40
0
 40
1
 40
1
 40
1
 40
1
 10
547.142483
 20
275.220446
 30
0.0
 10
553.148034
 20
275.236291
 30
0.0
 10
559.076818
 20
276.583079
 30
0.0
 10
564.509780
 20
279.165161
 30
0.0
  0
SPLINE
  5
2d3
100
AcDbEntity
  8
Calque_1
 62
1
100
AcDbSpline
 70
8
 71
3
 72
8
 73
4
 74
0
 40
0
 40
0
 40
0
 40
0
 40
1
 40
1
 40
1
 40
1
 10
564.509780
 20
279.165161
 30
0.0
 10
566.266755
 20
276.153208
 30
0.0
 10
568.611158
 20
273.508222
 30
0.0
 10
571.426233
 20
271.408300
 30
0.0
  0
SPLINE
  5
2d4
100
AcDbEntity
  8
Calque_1
 62
1
100
AcDbSpline
 70
8
 71
3
 72
8
 73
4
 74
0
 40
0
 40
0
 40
0
 40
0
 40
1
 40
1
 40
1
 40
1
 10
571.426233
 20
271.408300
 30
0.0
 10
573.867582
 20
269.755652
 30
0.0
 10
574.703578
 20
264.164839
 30
0.0
 10
573.644797
 20
256.450574
 30
0.0
  0
SPLINE
  5
2d5
100
AcDbEntity
  8
Calque_1
 62
1
100
AcDbSpline
 70
8
 71
3
 72
8
 73
4
 74
0
 40
0
 40
0
 40
0
 40
0
 40
1
 40
1
 40
1
 40
1
 10
573.644797
 20
256.450574
 30
0.0
 10
573.360007
 20
254.544408
 30
0.0
 10
574.342781
 20
252.673603
 30
0.0
 10
576.066333
 20
251.841509
 30
0.0
  0
SPLINE
  5
2d6
100
AcDbEntity
  8
Calque_1
 62
1
100
AcDbSpline
 70
8
 71
3
 72
8
 73
4
 74
0
 40
0
 40
0
 40
0
 40
0
 40
1
 40
1
 40
1
 40
1
 10
576.066333
 20
251.841509
 30
0.0
 10
577.790408
 20
250.959557
 30
0.0
 10
579.883497
 20
251.315010
 30
0.0
 10
581.226832
 20
252.717309
 30
0.0
  0
SPLINE
  5
2d7
100
AcDbEntity
  8
Calque_1
 62
1
100
AcDbSpline
 70
8
 71
3
 72
8
 73
4
 74
0
 40
0
 40
0
 40
0
 40
0
 40
1
 40
1
 40
1
 40
1
 10
581.226832
 20
252.717309
 30
0.0
 10
587.648797
 20
264.754295
 30
0.0
 10
587.172577
 20
261.518982
 30
0.0
 10
598.874757
 20
259.862478
 30
0.0
  0
SPLINE
  5
2d8
100
AcDbEntity
  8
Calque_1
 62
1
100
AcDbSpline
 70
8
 71
3
 72
8
 73
4
 74
0
 40
0
 40
0
 40
0
 40
0
 40
1
 40
1
 40
1
 40
1
 10
598.874757
 20
259.862478
 30
0.0
 10
600.542403
 20
259.679549
 30
0.0
 10
602.046101
 20
258.767069
 30
0.0
 10
602.987312
 20
257.366091
 30
0.0
  0
SPLINE
  5
2d9
100
AcDbEntity
  8
Calque_1
 62
1
100
AcDbSpline
 70
8
 71
3
 72
8
 73
4
 74
0
 40
0
 40
0
 40
0
 40
0
 40
1
 40
1
 40
1
 40
1
 10
602.987312
 20
257.366091
 30
0.0
 10
604.720495
 20
254.679011
 30
0.0
 10
604.797784
 20
249.736834
 30
0.0
 10
603.208658
 20
243.429093
 30
0.0
  0
SPLINE
  5
2da
100
AcDbEntity
  8
Calque_1
 62
1
100
AcDbSpline
 70
8
 71
3
 72
8
 73
4
 74
0
 40
0
 40
0
 40
0
 40
0
 40
1
 40
1
 40
1
 40
1
 10
603.208658
 20
243.429093
 30
0.0
 10
602.749895
 20
241.588314
 30
0.0
 10
603.491144
 20
239.655898
 30
0.0
 10
605.058678
 20
238.605990
 30
0.0
  0
SPLINE
  5
2db
100
AcDbEntity
  8
Calque_1
 62
1
100
AcDbSpline
 70
8
 71
3
 72
8
 73
4
 74
0
 40
0
 40
0
 40
0
 40
0
 40
1
 40
1
 40
1
 40
1
 10
605.058678
 20
238.605990
 30
0.0
 10
606.625897
 20
237.556108
 30
0.0
 10
608.679125
 20
237.617190
 30
0.0
 10
610.182378
 20
238.758154
 30
0.0
  0
SPLINE
  5
2dc
100
AcDbEntity
  8
Calque_1
 62
1
100
AcDbSpline
 70
8
 71
3
 72
8
 73
4
 74
0
 40
0
 40
0
 40
0
 40
0
 40
1
 40
1
 40
1
 40
1
 10
610.182378
 20
238.758154
 30
0.0
 10
611.442220
 20
239.719595
 30
0.0
 10
612.590723
 20
240.820418
 30
0.0
 10
613.606841
 20
242.040579
 30
0.0
  0
SPLINE
  5
2dd
100
AcDbEntity
  8
Calque_1
 62
1
100
AcDbSpline
 70
8
 71
3
 72
8
 73
4
 74
0
 40
0
 40
0
 40
0
 40
0
 40
1
 40
1
 40
1
 40
1
 10
613.606841
 20
242.040579
 30
0.0
 10
613.394630
 20
237.177653
 30
0.0
 10
612.363069
 20
232.386716
 30
0.0
 10
610.557072
 20
227.873038
 30
0.0
  0
SPLINE
  5
2de
100
AcDbEntity
  8
Calque_1
 62
1
100
AcDbSpline
 70
8
 71
3
 72
8
 73
4
 74
0
 40
0
 40
0
 40
0
 40
0
 40
1
 40
1
 40
1
 40
1
 10
610.557072
 20
227.873038
 30
0.0
 10
609.826764
 20
226.004689
 30
0.0
 10
610.422307
 20
223.875348
 30
0.0
 10
612.012951
 20
222.667757
 30
0.0
  0
SPLINE
  5
2df
100
AcDbEntity
  8
Calque_1
 62
1
100
AcDbSpline
 70
8
 71
3
 72
8
 73
4
 74
0
 40
0
 40
0
 40
0
 40
0
 40
1
 40
1
 40
1
 40
1
 10
612.012951
 20
222.667757
 30
0.0
 10
612.779666
 20
222.065942
 30
0.0
 10
613.698107
 20
221.757996
 30
0.0
 10
614.620028
 20
221.746562
 30
0.0
  0
LINE
  5
2e0
100
AcDbEntity
  8
Calque_1
 62
1
100
AcDbLine
 10
614.620028
 20
221.746562
 30
0.0
 11
614.620028
 21
221.746562
 31
0.0
  0
SPLINE
  5
2e1
100
AcDbEntity
  8
Calque_1
 62
1
100
AcDbSpline
 70
8
 71
3
 72
8
 73
4
 74
0
 40
0
 40
0
 40
0
 40
0
 40
1
 40
1
 40
1
 40
1
 10
614.620028
 20
221.746562
 30
0.0
 10
615.541950
 20
221.734942
 30
0.0
 10
616.467562
 20
222.020097
 30
0.0
 10
617.248594
 20
222.602766
 30
0.0
  0
SPLINE
  5
2e2
100
AcDbEntity
  8
Calque_1
 62
1
100
AcDbSpline
 70
8
 71
3
 72
8
 73
4
 74
0
 40
0
 40
0
 40
0
 40
0
 40
1
 40
1
 40
1
 40
1
 10
617.248594
 20
222.602766
 30
0.0
 10
621.927456
 20
226.073878
 30
0.0
 10
627.209320
 20
233.447319
 30
0.0
 10
625.824370
 20
248.660702
 30
0.0
  0
SPLINE
  5
2e3
100
AcDbEntity
  8
Calque_1
 62
1
100
AcDbSpline
 70
8
 71
3
 72
8
 73
4
 74
0
 40
0
 40
0
 40
0
 40
0
 40
1
 40
1
 40
1
 40
1
 10
625.824370
 20
248.660702
 30
0.0
 10
625.824370
 20
249.269753
 30
0.0
 10
625.633149
 20
263.639106
 30
0.0
 10
608.970327
 20
270.845067
 30
0.0
  0
SPLINE
  5
2e4
100
AcDbEntity
  8
Calque_1
 62
1
100
AcDbSpline
 70
8
 71
3
 72
8
 73
4
 74
0
 40
0
 40
0
 40
0
 40
0
 40
1
 40
1
 40
1
 40
1
 10
608.970327
 20
270.845067
 30
0.0
 10
604.566388
 20
272.701084
 30
0.0
 10
599.999128
 20
274.133672
 30
0.0
 10
595.328615
 20
275.124003
 30
0.0
  0
SPLINE
  5
2e5
100
AcDbEntity
  8
Calque_1
 62
1
100
AcDbSpline
 70
8
 71
3
 72
8
 73
4
 74
0
 40
0
 40
0
 40
0
 40
0
 40
1
 40
1
 40
1
 40
1
 10
595.328615
 20
275.124003
 30
0.0
 10
587.457786
 20
276.452570
 30
0.0
 10
580.186294
 20
280.195606
 30
0.0
 10
574.500029
 20
285.839949
 30
0.0
  0
SPLINE
  5
2e6
100
AcDbEntity
  8
Calque_1
 62
1
100
AcDbSpline
 70
8
 71
3
 72
8
 73
4
 74
0
 40
0
 40
0
 40
0
 40
0
 40
1
 40
1
 40
1
 40
1
 10
574.500029
 20
285.839949
 30
0.0
 10
574.701902
 20
286.015352
 30
0.0
 10
574.902258
 20
286.193422
 30
0.0
 10
575.100676
 20
286.372733
 30
0.0
  0
SPLINE
  5
2e7
100
AcDbEntity
  8
Calque_1
 62
1
100
AcDbSpline
 70
8
 71
3
 72
8
 73
4
 74
0
 40
0
 40
0
 40
0
 40
0
 40
1
 40
1
 40
1
 40
1
 10
575.100676
 20
286.372733
 30
0.0
 10
576.158514
 20
286.945922
 30
0.0
 10
577.127234
 20
287.674786
 30
0.0
 10
577.970531
 20
288.541607
 30
0.0
  0
SPLINE
  5
2e8
100
AcDbEntity
  8
Calque_1
 62
1
100
AcDbSpline
 70
8
 71
3
 72
8
 73
4
 74
0
 40
0
 40
0
 40
0
 40
0
 40
1
 40
1
 40
1
 40
1
 10
577.970531
 20
288.541607
 30
0.0
 10
582.147445
 20
285.021667
 30
0.0
 10
591.386893
 20
278.635599
 30
0.0
 10
601.953186
 20
280.202948
 30
0.0
  0
SPLINE
  5
2e9
100
AcDbEntity
  8
Calque_1
 62
1
100
AcDbSpline
 70
8
 71
3
 72
8
 73
4
 74
0
 40
0
 40
0
 40
0
 40
0
 40
1
 40
1
 40
1
 40
1
 10
601.953186
 20
280.202948
 30
0.0
 10
603.046044
 20
280.363298
 30
0.0
 10
603.855866
 20
281.310241
 30
0.0
 10
603.853275
 20
282.424427
 30
0.0
  0
SPLINE
  5
2ea
100
AcDbEntity
  8
Calque_1
 62
1
100
AcDbSpline
 70
8
 71
3
 72
8
 73
4
 74
0
 40
0
 40
0
 40
0
 40
0
 40
1
 40
1
 40
1
 40
1
 10
603.853275
 20
282.424427
 30
0.0
 10
603.680585
 20
288.017643
 30
0.0
 10
601.374237
 20
293.327157
 30
0.0
 10
597.416339
 20
297.247524
 30
0.0
  0
SPLINE
  5
2eb
100
AcDbEntity
  8
Calque_1
 62
1
100
AcDbSpline
 70
8
 71
3
 72
8
 73
4
 74
0
 40
0
 40
0
 40
0
 40
0
 40
1
 40
1
 40
1
 40
1
 10
597.416339
 20
297.247524
 30
0.0
 10
594.072856
 20
300.152577
 30
0.0
 10
589.945199
 20
301.934836
 30
0.0
 10
585.603159
 20
302.391960
 30
0.0
  0
SPLINE
  5
2ec
100
AcDbEntity
  8
Calque_1
 62
1
100
AcDbSpline
 70
8
 71
3
 72
8
 73
4
 74
0
 40
0
 40
0
 40
0
 40
0
 40
1
 40
1
 40
1
 40
1
 10
585.603159
 20
302.391960
 30
0.0
 10
587.270386
 20
306.939415
 30
0.0
 10
588.132450
 20
311.746540
 30
0.0
 10
588.149934
 20
316.595100
 30
0.0
  0
SPLINE
  5
2ed
100
AcDbEntity
  8
Calque_1
 62
1
100
AcDbSpline
 70
8
 71
3
 72
8
 73
4
 74
0
 40
0
 40
0
 40
0
 40
0
 40
1
 40
1
 40
1
 40
1
 10
588.149934
 20
316.595100
 30
0.0
 10
588.129518
 20
337.604382
 30
0.0
 10
570.517241
 20
355.215465
 30
0.0
 10
549.917251
 20
357.646334
 30
0.0
  0
LINE
  5
2ee
100
AcDbEntity
  8
Calque_1
 62
1
100
AcDbLine
 10
549.917251
 20
357.646334
 30
0.0
 11
549.917251
 21
348.061528
 31
0.0
  0
LINE
  5
2ef
100
AcDbEntity
  8
Calque_1
 62
1
100
AcDbLine
 10
549.917251
 20
348.061528
 30
0.0
 11
547.017768
 21
348.061528
 31
0.0
  0
LINE
  5
2f0
100
AcDbEntity
  8
Calque_1
 62
1
100
AcDbLine
 10
547.017768
 20
348.061528
 30
0.0
 11
544.118259
 21
348.061528
 31
0.0
  0
LINE
  5
2f1
100
AcDbEntity
  8
Calque_1
 62
1
100
AcDbLine
 10
544.118259
 20
348.061528
 30
0.0
 11
544.118259
 21
357.646334
 31
0.0
  0
SPLINE
  5
2f2
100
AcDbEntity
  8
Calque_1
 62
1
100
AcDbSpline
 70
8
 71
3
 72
8
 73
4
 74
0
 40
0
 40
0
 40
0
 40
0
 40
1
 40
1
 40
1
 40
1
 10
544.118259
 20
357.646334
 30
0.0
 10
523.518269
 20
355.215465
 30
0.0
 10
505.905991
 20
337.604382
 30
0.0
 10
505.885603
 20
316.595100
 30
0.0
  0
SPLINE
  5
2f3
100
AcDbEntity
  8
Calque_1
 62
1
100
AcDbSpline
 70
8
 71
3
 72
8
 73
4
 74
0
 40
0
 40
0
 40
0
 40
0
 40
1
 40
1
 40
1
 40
1
 10
505.885603
 20
316.595100
 30
0.0
 10
505.903139
 20
311.746540
 30
0.0
 10
506.765150
 20
306.939415
 30
0.0
 10
508.432351
 20
302.391960
 30
0.0
  0
SPLINE
  5
2f4
100
AcDbEntity
  8
Calque_1
 62
1
100
AcDbSpline
 70
8
 71
3
 72
8
 73
4
 74
0
 40
0
 40
0
 40
0
 40
0
 40
1
 40
1
 40
1
 40
1
 10
508.432351
 20
302.391960
 30
0.0
 10
504.090337
 20
301.934836
 30
0.0
 10
499.962680
 20
300.152577
 30
0.0
 10
496.619197
 20
297.247524
 30
0.0
  0
SPLINE
  5
2f5
100
AcDbEntity
  8
Calque_1
 62
1
100
AcDbSpline
 70
8
 71
3
 72
8
 73
4
 74
0
 40
0
 40
0
 40
0
 40
0
 40
1
 40
1
 40
1
 40
1
 10
496.619197
 20
297.247524
 30
0.0
 10
492.661299
 20
293.327157
 30
0.0
 10
490.354925
 20
288.017643
 30
0.0
 10
490.182235
 20
282.424427
 30
0.0
  0
SPLINE
  5
2f6
100
AcDbEntity
  8
Calque_1
 62
1
100
AcDbSpline
 70
8
 71
3
 72
8
 73
4
 74
0
 40
0
 40
0
 40
0
 40
0
 40
1
 40
1
 40
1
 40
1
 10
490.182235
 20
282.424427
 30
0.0
 10
490.179617
 20
281.310241
 30
0.0
 10
490.989492
 20
280.363298
 30
0.0
 10
492.082350
 20
280.202948
 30
0.0
  0
SPLINE
  5
2f7
100
AcDbEntity
  8
Calque_1
 62
1
100
AcDbSpline
 70
8
 71
3
 72
8
 73
4
 74
0
 40
0
 40
0
 40
0
 40
0
 40
1
 40
1
 40
1
 40
1
 10
492.082350
 20
280.202948
 30
0.0
 10
502.648617
 20
278.635599
 30
0.0
 10
511.888065
 20
285.021693
 30
0.0
 10
516.065005
 20
288.541607
 30
0.0
  0
SPLINE
  5
2f8
100
AcDbEntity
  8
Calque_1
 62
1
100
AcDbSpline
 70
8
 71
3
 72
8
 73
4
 74
0
 40
0
 40
0
 40
0
 40
0
 40
1
 40
1
 40
1
 40
1
 10
516.065005
 20
288.541607
 30
0.0
 10
516.908276
 20
287.674813
 30
0.0
 10
517.876995
 20
286.945948
 30
0.0
 10
518.934834
 20
286.372733
 30
0.0
  0
SPLINE
  5
2f9
100
AcDbEntity
  8
Calque_1
 62
1
100
AcDbSpline
 70
8
 71
3
 72
8
 73
4
 74
0
 40
0
 40
0
 40
0
 40
0
 40
1
 40
1
 40
1
 40
1
 10
518.934834
 20
286.372733
 30
0.0
 10
519.133252
 20
286.193448
 30
0.0
 10
519.333607
 20
286.015352
 30
0.0
 10
519.535481
 20
285.839949
 30
0.0
  0
SPLINE
  5
2fa
100
AcDbEntity
  8
Calque_1
 62
1
100
AcDbSpline
 70
8
 71
3
 72
8
 73
4
 74
0
 40
0
 40
0
 40
0
 40
0
 40
1
 40
1
 40
1
 40
1
 10
519.535481
 20
285.839949
 30
0.0
 10
513.849216
 20
280.195580
 30
0.0
 10
506.577724
 20
276.452570
 30
0.0
 10
498.706895
 20
275.124003
 30
0.0
  0
SPLINE
  5
2fb
100
AcDbEntity
  8
Calque_1
 62
1
100
AcDbSpline
 70
8
 71
3
 72
8
 73
4
 74
0
 40
0
 40
0
 40
0
 40
0
 40
1
 40
1
 40
1
 40
1
 10
498.706895
 20
275.124003
 30
0.0
 10
494.036382
 20
274.133672
 30
0.0
 10
489.469122
 20
272.701084
 30
0.0
 10
485.065183
 20
270.845067
 30
0.0
  0
SPLINE
  5
2fc
100
AcDbEntity
  8
Calque_1
 62
1
100
AcDbSpline
 70
8
 71
3
 72
8
 73
4
 74
0
 40
0
 40
0
 40
0
 40
0
 40
1
 40
1
 40
1
 40
1
 10
485.065183
 20
270.845067
 30
0.0
 10
468.402361
 20
263.639106
 30
0.0
 10
468.211140
 20
249.269753
 30
0.0
 10
468.211140
 20
248.660702
 30
0.0
  0
SPLINE
  5
2fd
100
AcDbEntity
  8
Calque_1
 62
1
100
AcDbSpline
 70
8
 71
3
 72
8
 73
4
 74
0
 40
0
 40
0
 40
0
 40
0
 40
1
 40
1
 40
1
 40
1
 10
468.211140
 20
248.660702
 30
0.0
 10
466.826190
 20
233.447319
 30
0.0
 10
472.108054
 20
226.073878
 30
0.0
 10
476.786916
 20
222.602766
 30
0.0
  0
SPLINE
  5
2fe
100
AcDbEntity
  8
Calque_1
 62
1
100
AcDbSpline
 70
8
 71
3
 72
8
 73
4
 74
0
 40
0
 40
0
 40
0
 40
0
 40
1
 40
1
 40
1
 40
1
 10
476.786916
 20
222.602766
 30
0.0
 10
477.567948
 20
222.020097
 30
0.0
 10
478.493560
 20
221.734969
 30
0.0
 10
479.415482
 20
221.746562
 30
0.0
  0
LINE
  5
2ff
100
AcDbEntity
  8
Calque_1
 62
1
100
AcDbLine
 10
479.415482
 20
221.746562
 30
0.0
 11
479.415482
 21
221.746034
 31
0.0
  0
SPLINE
  5
300
100
AcDbEntity
  8
Calque_1
 62
1
100
AcDbSpline
 70
8
 71
3
 72
8
 73
4
 74
0
 40
0
 40
0
 40
0
 40
0
 40
1
 40
1
 40
1
 40
1
 10
529.172434
 20
317.838623
 30
0.0
 10
529.172443
 20
327.810555
 30
0.0
 10
537.184306
 20
335.894398
 30
0.0
 10
547.067436
 20
335.894398
 30
0.0
  0
SPLINE
  5
301
100
AcDbEntity
  8
Calque_1
 62
1
100
AcDbSpline
 70
8
 71
3
 72
8
 73
4
 74
0
 40
0
 40
0
 40
0
 40
0
 40
1
 40
1
 40
1
 40
1
 10
547.067436
 20
335.894398
 30
0.0
 10
556.950564
 20
335.894397
 30
0.0
 10
564.962425
 20
327.810554
 30
0.0
 10
564.962435
 20
317.838623
 30
0.0
  0
SPLINE
  5
302
100
AcDbEntity
  8
Calque_1
 62
1
100
AcDbSpline
 70
8
 71
3
 72
8
 73
4
 74
0
 40
0
 40
0
 40
0
 40
0
 40
1
 40
1
 40
1
 40
1
 10
564.962435
 20
317.838623
 30
0.0
 10
564.962438
 20
313.049927
 30
0.0
 10
563.077079
 20
308.457362
 30
0.0
 10
559.721116
 20
305.071242
 30
0.0
  0
SPLINE
  5
303
100
AcDbEntity
  8
Calque_1
 62
1
100
AcDbSpline
 70
8
 71
3
 72
8
 73
4
 74
0
 40
0
 40
0
 40
0
 40
0
 40
1
 40
1
 40
1
 40
1
 10
559.721116
 20
305.071242
 30
0.0
 10
556.365152
 20
301.685121
 30
0.0
 10
551.813487
 20
299.782818
 30
0.0
 10
547.067436
 20
299.782817
 30
0.0
  0
SPLINE
  5
304
100
AcDbEntity
  8
Calque_1
 62
1
100
AcDbSpline
 70
8
 71
3
 72
8
 73
4
 74
0
 40
0
 40
0
 40
0
 40
0
 40
1
 40
1
 40
1
 40
1
 10
547.067436
 20
299.782817
 30
0.0
 10
542.321384
 20
299.782817
 30
0.0
 10
537.769718
 20
301.685120
 30
0.0
 10
534.413754
 20
305.071240
 30
0.0
  0
SPLINE
  5
305
100
AcDbEntity
  8
Calque_1
 62
1
100
AcDbSpline
 70
8
 71
3
 72
8
 73
4
 74
0
 40
0
 40
0
 40
0
 40
0
 40
1
 40
1
 40
1
 40
1
 10
534.413754
 20
305.071240
 30
0.0
 10
531.057790
 20
308.457361
 30
0.0
 10
529.172430
 20
313.049926
 30
0.0
 10
529.172434
 20
317.838623
 30
0.0
  0
LINE
  5
306
100
AcDbEntity
  8
Calque_1
 62
1
100
AcDbLine
 10
529.172434
 20
317.838623
 30
0.0
 11
529.172434
 21
317.838623
 31
0.0
  0
LINE
  5
307
100
AcDbEntity
  8
Calque_1
 62
1
100
AcDbLine
 10
450.567929
 20
312.494482
 30
0.0
 11
471.204242
 21
354.665719
 31
0.0
  0
SPLINE
  5
308
100
AcDbEntity
  8
Calque_1
 62
1
100
AcDbSpline
 70
8
 71
3
 72
8
 73
4
 74
0
 40
0
 40
0
 40
0
 40
0
 40
1
 40
1
 40
1
 40
1
 10
471.204242
 20
354.665719
 30
0.0
 10
471.204242
 20
354.665719
 30
0.0
 10
478.753374
 20
367.808137
 30
0.0
 10
484.760610
 20
371.970225
 30
0.0
  0
SPLINE
  5
309
100
AcDbEntity
  8
Calque_1
 62
1
100
AcDbSpline
 70
8
 71
3
 72
8
 73
4
 74
0
 40
0
 40
0
 40
0
 40
0
 40
1
 40
1
 40
1
 40
1
 10
484.760610
 20
371.970225
 30
0.0
 10
491.119216
 20
377.768902
 30
0.0
 10
500.017050
 20
378.933089
 30
0.0
 10
508.858994
 20
379.480050
 30
0.0
  0
LINE
  5
30a
100
AcDbEntity
  8
Calque_1
 62
1
100
AcDbLine
 10
508.858994
 20
379.480050
 30
0.0
 11
508.858994
 21
369.713215
 31
0.0
  0
LINE
  5
30b
100
AcDbEntity
  8
Calque_1
 62
1
100
AcDbLine
 10
508.858994
 20
369.713215
 30
0.0
 11
514.596469
 21
369.713215
 31
0.0
  0
LINE
  5
30c
100
AcDbEntity
  8
Calque_1
 62
1
100
AcDbLine
 10
514.596469
 20
369.713215
 30
0.0
 11
514.596469
 21
379.480050
 31
0.0
  0
LINE
  5
30d
100
AcDbEntity
  8
Calque_1
 62
1
100
AcDbLine
 10
514.596469
 20
379.480050
 30
0.0
 11
676.798866
 21
379.480050
 31
0.0
  0
LINE
  5
30e
100
AcDbEntity
  8
Calque_1
 62
1
100
AcDbLine
 10
676.798866
 20
379.480050
 30
0.0
 11
676.798866
 21
369.713215
 31
0.0
  0
LINE
  5
30f
100
AcDbEntity
  8
Calque_1
 62
1
100
AcDbLine
 10
676.798866
 20
369.713215
 30
0.0
 11
682.536242
 21
369.713215
 31
0.0
  0
LINE
  5
310
100
AcDbEntity
  8
Calque_1
 62
1
100
AcDbLine
 10
682.536242
 20
369.713215
 30
0.0
 11
682.536242
 21
379.480050
 31
0.0
  0
SPLINE
  5
311
100
AcDbEntity
  8
Calque_1
 62
1
100
AcDbSpline
 70
8
 71
3
 72
8
 73
4
 74
0
 40
0
 40
0
 40
0
 40
0
 40
1
 40
1
 40
1
 40
1
 10
682.536242
 20
379.480050
 30
0.0
 10
682.536242
 20
379.480050
 30
0.0
 10
694.224646
 20
379.322150
 30
0.0
 10
709.262865
 20
378.819306
 30
0.0
  0
SPLINE
  5
312
100
AcDbEntity
  8
Calque_1
 62
1
100
AcDbSpline
 70
8
 71
3
 72
8
 73
4
 74
0
 40
0
 40
0
 40
0
 40
0
 40
1
 40
1
 40
1
 40
1
 10
709.262865
 20
378.819306
 30
0.0
 10
717.173360
 20
378.554808
 30
0.0
 10
728.043303
 20
375.441626
 30
0.0
 10
740.207640
 20
371.490038
 30
0.0
  0
SPLINE
  5
313
100
AcDbEntity
  8
Calque_1
 62
1
100
AcDbSpline
 70
8
 71
3
 72
8
 73
4
 74
0
 40
0
 40
0
 40
0
 40
0
 40
1
 40
1
 40
1
 40
1
 10
740.207640
 20
371.490038
 30
0.0
 10
754.695180
 20
366.783784
 30
0.0
 10
760.077427
 20
361.071442
 30
0.0
 10
760.628818
 20
360.101985
 30
0.0
  0
SPLINE
  5
314
100
AcDbEntity
  8
Calque_1
 62
1
100
AcDbSpline
 70
8
 71
3
 72
8
 73
4
 74
0
 40
0
 40
0
 40
0
 40
0
 40
1
 40
1
 40
1
 40
1
 10
760.628818
 20
360.101985
 30
0.0
 10
762.366778
 20
357.046992
 30
0.0
 10
761.928059
 20
346.407417
 30
0.0
 10
761.928059
 20
346.407417
 30
0.0
  0
LINE
  5
315
100
AcDbEntity
  8
Calque_1
 62
1
100
AcDbLine
 10
761.928059
 20
346.407417
 30
0.0
 11
749.260901
 21
346.407417
 31
0.0
  0
LINE
  5
316
100
AcDbEntity
  8
Calque_1
 62
1
100
AcDbLine
 10
749.260901
 20
346.407417
 30
0.0
 11
749.260901
 21
356.235735
 31
0.0
  0
LINE
  5
317
100
AcDbEntity
  8
Calque_1
 62
1
100
AcDbLine
 10
749.260901
 20
356.235735
 30
0.0
 11
743.523703
 21
356.235735
 31
0.0
  0
LINE
  5
318
100
AcDbEntity
  8
Calque_1
 62
1
100
AcDbLine
 10
743.523703
 20
356.235735
 30
0.0
 11
743.523703
 21
346.407417
 31
0.0
  0
LINE
  5
319
100
AcDbEntity
  8
Calque_1
 62
1
100
AcDbLine
 10
743.523703
 20
346.407417
 30
0.0
 11
731.696788
 21
346.407417
 31
0.0
  0
SPLINE
  5
31a
100
AcDbEntity
  8
Calque_1
 62
1
100
AcDbSpline
 70
8
 71
3
 72
8
 73
4
 74
0
 40
0
 40
0
 40
0
 40
0
 40
1
 40
1
 40
1
 40
1
 10
731.696788
 20
346.407417
 30
0.0
 10
723.805485
 20
346.407417
 30
0.0
 10
729.212165
 20
345.353960
 30
0.0
 10
723.372504
 20
349.404720
 30
0.0
  0
SPLINE
  5
31b
100
AcDbEntity
  8
Calque_1
 62
1
100
AcDbSpline
 70
8
 71
3
 72
8
 73
4
 74
0
 40
0
 40
0
 40
0
 40
0
 40
1
 40
1
 40
1
 40
1
 10
723.372504
 20
349.404720
 30
0.0
 10
719.391586
 20
353.481470
 30
0.0
 10
712.758669
 20
362.370852
 30
0.0
 10
699.271052
 20
363.184705
 30
0.0
  0
SPLINE
  5
31c
100
AcDbEntity
  8
Calque_1
 62
1
100
AcDbSpline
 70
8
 71
3
 72
8
 73
4
 74
0
 40
0
 40
0
 40
0
 40
0
 40
1
 40
1
 40
1
 40
1
 10
699.271052
 20
363.184705
 30
0.0
 10
688.721537
 20
364.036287
 30
0.0
 10
682.742693
 20
364.600314
 30
0.0
 10
682.536341
 20
364.297290
 30
0.0
  0
LINE
  5
31d
100
AcDbEntity
  8
Calque_1
 62
1
100
AcDbLine
 10
682.536341
 20
364.297290
 30
0.0
 11
497.937117
 21
364.392110
 31
0.0
  0
SPLINE
  5
31e
100
AcDbEntity
  8
Calque_1
 62
1
100
AcDbSpline
 70
8
 71
3
 72
8
 73
4
 74
0
 40
0
 40
0
 40
0
 40
0
 40
1
 40
1
 40
1
 40
1
 10
497.937117
 20
364.392110
 30
0.0
 10
497.937117
 20
364.392110
 30
0.0
 10
489.435168
 20
353.127134
 30
0.0
 10
478.373811
 20
338.927526
 30
0.0
  0
SPLINE
  5
31f
100
AcDbEntity
  8
Calque_1
 62
1
100
AcDbSpline
 70
8
 71
3
 72
8
 73
4
 74
0
 40
0
 40
0
 40
0
 40
0
 40
1
 40
1
 40
1
 40
1
 10
478.373811
 20
338.927526
 30
0.0
 10
470.379826
 20
327.114381
 30
0.0
 10
447.722043
 20
306.678827
 30
0.0
 10
450.567929
 20
312.494472
 30
0.0
  0
LINE
  5
320
100
AcDbEntity
  8
Calque_1
 62
1
100
AcDbLine
 10
450.567929
 20
312.494472
 30
0.0
 11
450.567929
 21
312.494482
 31
0.0
  0
ENDSEC
  0
SECTION
  2
OBJECTS
  0
DICTIONARY
  5
C
330
0
100
AcDbDictionary
  3
ACAD_GROUP
350
D
  3
ACAD_MLINESTYLE
350
17
  0
DICTIONARY
  5
D
330
C
100
AcDbDictionary
  0
DICTIONARY
  5
1A
330
C
100
AcDbDictionary
  0
DICTIONARY
  5
17
330
C
100
AcDbDictionary
  3
STANDARD
350
18
  0
DICTIONARY
  5
19
330
C
100
AcDbDictionary
  0
ENDSEC
  0
EOF
