  0
SECTION
  2
HEADER
  9
$ACADVER
  1
AC1014
  9
$HANDSEED
  5
FFFF
  9
$MEASUREMENT
 70
     1
  0
ENDSEC
  0
SECTION
  2
TABLES
  0
TABLE
  2
VPORT
  5
8
330
0
100
AcDbSymbolTable
 70
     4
  0
VPORT
  5
2E
330
8
100
AcDbSymbolTableRecord
100
AcDbViewportTableRecord
  2
*ACTIVE
 70
     0
 10
0.0
 20
0.0
 11
1.0
 21
1.0
 12
210.0
 22
148.5
 13
0.0
 23
0.0
 14
10.0
 24
10.0
 15
10.0
 25
10.0
 16
0.0
 26
0.0
 36
1.0
 17
0.0
 27
0.0
 37
0.0
 40
341.0
 41
1.24
 42
50.0
 43
0.0
 44
0.0
 50
0.0
 51
0.0
 71
     0
 72
   100
 73
     1
 74
     3
 75
     0
 76
     0
 77
     0
 78
     0
  0
ENDTAB
  0
TABLE
  2
LTYPE
  5
5
330
0
100
AcDbSymbolTable
 70
     1
  0
LTYPE
  5
14
330
5
100
AcDbSymbolTableRecord
100
AcDbLinetypeTableRecord
  2
BYBLOCK
 70
     0
  3

 72
    65
 73
     0
 40
0.0
  0
LTYPE
  5
15
330
5
100
AcDbSymbolTableRecord
100
AcDbLinetypeTableRecord
  2
BYLAYER
 70
     0
  3

 72
    65
 73
     0
 40
0.0
  0
LTYPE
  5
16
330
5
100
AcDbSymbolTableRecord
100
AcDbLinetypeTableRecord
  2
CONTINUOUS
 70
     0
  3
Solid line
 72
    65
 73
     0
 40
0.0
  0
ENDTAB
  0
TABLE
  2
LAYER
  5
2
100
AcDbSymbolTable
 70
2
  0
LAYER
  5
50
100
AcDbSymbolTableRecord
100
AcDbLayerTableRecord
  2
0
 70
0
  6
CONTINUOUS
  0
LAYER
  5
51
100
AcDbSymbolTableRecord
100
AcDbLayerTableRecord
  2
Calque_1
 70
0
  6
CONTINUOUS
  0
ENDTAB
  0
TABLE
  2
STYLE
  5
3
330
0
100
AcDbSymbolTable
 70
     1
  0
STYLE
  5
11
330
3
100
AcDbSymbolTableRecord
100
AcDbTextStyleTableRecord
  2
STANDARD
 70
     0
 40
0.0
 41
1.0
 50
0.0
 71
     0
 42
2.5
  3
txt
  4

  0
ENDTAB
  0
TABLE
  2
VIEW
  5
6
330
0
100
AcDbSymbolTable
 70
     0
  0
ENDTAB
  0
TABLE
  2
UCS
  5
7
330
0
100
AcDbSymbolTable
 70
     0
  0
ENDTAB
  0
TABLE
  2
APPID
  5
9
330
0
100
AcDbSymbolTable
 70
     2
  0
APPID
  5
12
330
9
100
AcDbSymbolTableRecord
100
AcDbRegAppTableRecord
  2
ACAD
 70
     0
  0
ENDTAB
  0
TABLE
  2
DIMSTYLE
  5
A
330
0
100
AcDbSymbolTable
 70
     1
  0
DIMSTYLE
105
27
330
A
100
AcDbSymbolTableRecord
100
AcDbDimStyleTableRecord
  2
ISO-25
 70
     0
  3

  4

  5

  6

  7

 40
1.0
 41
2.5
 42
0.625
 43
3.75
 44
1.25
 45
0.0
 46
0.0
 47
0.0
 48
0.0
140
2.5
141
2.5
142
0.0
143
0.03937007874016
144
1.0
145
0.0
146
1.0
147
0.625
 71
     0
 72
     0
 73
     0
 74
     0
 75
     0
 76
     0
 77
     1
 78
     8
170
     0
171
     3
172
     1
173
     0
174
     0
175
     0
176
     0
177
     0
178
     0
270
     2
271
     2
272
     2
273
     2
274
     3
340
11
275
     0
280
     0
281
     0
282
     0
283
     0
284
     8
285
     0
286
     0
287
     3
288
     0
  0
ENDTAB
  0
TABLE
  2
BLOCK_RECORD
  5
1
330
0
100
AcDbSymbolTable
 70
     1
  0
BLOCK_RECORD
  5
1F
330
1
100
AcDbSymbolTableRecord
100
AcDbBlockTableRecord
  2
*MODEL_SPACE
  0
BLOCK_RECORD
  5
1B
330
1
100
AcDbSymbolTableRecord
100
AcDbBlockTableRecord
  2
*PAPER_SPACE
  0
ENDTAB
  0
ENDSEC
  0
SECTION
  2
BLOCKS
  0
BLOCK
  5
20
330
1F
100
AcDbEntity
  8
0
100
AcDbBlockBegin
  2
*MODEL_SPACE
 70
     0
 10
0.0
 20
0.0
 30
0.0
  3
*MODEL_SPACE
  1

  0
ENDBLK
  5
21
330
1F
100
AcDbEntity
  8
0
100
AcDbBlockEnd
  0
BLOCK
  5
1C
330
1B
100
AcDbEntity
 67
     1
  8
0
100
AcDbBlockBegin
  2
*PAPER_SPACE
  1

  0
ENDBLK
  5
1D
330
1B
100
AcDbEntity
 67
     1
  8
0
100
AcDbBlockEnd
  0
ENDSEC
  0
SECTION
  2
ENTITIES
  0
SPLINE
  5
100
100
AcDbEntity
  8
Calque_1
 62
1
100
AcDbSpline
 70
8
 71
3
 72
8
 73
4
 74
0
 40
0
 40
0
 40
0
 40
0
 40
1
 40
1
 40
1
 40
1
 10
661.178244
 20
729.857977
 30
0.0
 10
654.930430
 20
721.322070
 30
0.0
 10
651.549871
 20
710.994880
 30
0.0
 10
651.529987
 20
700.383520
 30
0.0
  0
SPLINE
  5
101
100
AcDbEntity
  8
Calque_1
 62
1
100
AcDbSpline
 70
8
 71
3
 72
8
 73
4
 74
0
 40
0
 40
0
 40
0
 40
0
 40
1
 40
1
 40
1
 40
1
 10
651.529987
 20
700.383520
 30
0.0
 10
651.547797
 20
684.785680
 30
0.0
 10
659.801250
 20
670.098340
 30
0.0
 10
672.142860
 20
660.705290
 30
0.0
  0
LINE
  5
102
100
AcDbEntity
  8
Calque_1
 62
1
100
AcDbLine
 10
672.142860
 20
660.705290
 30
0.0
 11
642.631163
 21
566.858940
 31
0.0
  0
LINE
  5
103
100
AcDbEntity
  8
Calque_1
 62
1
100
AcDbLine
 10
642.631163
 20
566.858940
 30
0.0
 11
651.973257
 21
566.858940
 31
0.0
  0
SPLINE
  5
104
100
AcDbEntity
  8
Calque_1
 62
1
100
AcDbSpline
 70
8
 71
3
 72
8
 73
4
 74
0
 40
0
 40
0
 40
0
 40
0
 40
1
 40
1
 40
1
 40
1
 10
651.973257
 20
566.858940
 30
0.0
 10
651.973257
 20
566.858940
 30
0.0
 10
664.238198
 20
592.360530
 30
0.0
 10
669.534780
 20
608.945850
 30
0.0
  0
SPLINE
  5
105
100
AcDbEntity
  8
Calque_1
 62
1
100
AcDbSpline
 70
8
 71
3
 72
8
 73
4
 74
0
 40
0
 40
0
 40
0
 40
0
 40
1
 40
1
 40
1
 40
1
 10
669.534780
 20
608.945850
 30
0.0
 10
673.011890
 20
619.834030
 30
0.0
 10
683.417190
 20
636.363650
 30
0.0
 10
685.559640
 20
646.357720
 30
0.0
  0
SPLINE
  5
106
100
AcDbEntity
  8
Calque_1
 62
1
100
AcDbSpline
 70
8
 71
3
 72
8
 73
4
 74
0
 40
0
 40
0
 40
0
 40
0
 40
1
 40
1
 40
1
 40
1
 10
685.559640
 20
646.357720
 30
0.0
 10
691.981070
 20
643.353830
 30
0.0
 10
694.913110
 20
646.709530
 30
0.0
 10
701.943400
 20
646.728080
 30
0.0
  0
SPLINE
  5
107
100
AcDbEntity
  8
Calque_1
 62
1
100
AcDbSpline
 70
8
 71
3
 72
8
 73
4
 74
0
 40
0
 40
0
 40
0
 40
0
 40
1
 40
1
 40
1
 40
1
 10
701.943400
 20
646.728080
 30
0.0
 10
708.973690
 20
646.709580
 30
0.0
 10
711.905730
 20
643.353830
 30
0.0
 10
718.327160
 20
646.357720
 30
0.0
  0
SPLINE
  5
108
100
AcDbEntity
  8
Calque_1
 62
1
100
AcDbSpline
 70
8
 71
3
 72
8
 73
4
 74
0
 40
0
 40
0
 40
0
 40
0
 40
1
 40
1
 40
1
 40
1
 10
718.327160
 20
646.357720
 30
0.0
 10
720.469610
 20
636.363650
 30
0.0
 10
730.874910
 20
619.834060
 30
0.0
 10
734.352020
 20
608.945850
 30
0.0
  0
SPLINE
  5
109
100
AcDbEntity
  8
Calque_1
 62
1
100
AcDbSpline
 70
8
 71
3
 72
8
 73
4
 74
0
 40
0
 40
0
 40
0
 40
0
 40
1
 40
1
 40
1
 40
1
 10
734.352020
 20
608.945850
 30
0.0
 10
739.648600
 20
592.360530
 30
0.0
 10
751.913890
 20
566.858940
 30
0.0
 10
751.913890
 20
566.858940
 30
0.0
  0
LINE
  5
10a
100
AcDbEntity
  8
Calque_1
 62
1
100
AcDbLine
 10
751.913890
 20
566.858940
 30
0.0
 11
761.256280
 21
566.858940
 31
0.0
  0
LINE
  5
10b
100
AcDbEntity
  8
Calque_1
 62
1
100
AcDbLine
 10
761.256280
 20
566.858940
 30
0.0
 11
731.743940
 21
660.705290
 31
0.0
  0
SPLINE
  5
10c
100
AcDbEntity
  8
Calque_1
 62
1
100
AcDbSpline
 70
8
 71
3
 72
8
 73
4
 74
0
 40
0
 40
0
 40
0
 40
0
 40
1
 40
1
 40
1
 40
1
 10
731.743940
 20
660.705290
 30
0.0
 10
744.085650
 20
670.098340
 30
0.0
 10
752.339350
 20
684.785680
 30
0.0
 10
752.357160
 20
700.383520
 30
0.0
  0
SPLINE
  5
10d
100
AcDbEntity
  8
Calque_1
 62
1
100
AcDbSpline
 70
8
 71
3
 72
8
 73
4
 74
0
 40
0
 40
0
 40
0
 40
0
 40
1
 40
1
 40
1
 40
1
 10
752.357160
 20
700.383520
 30
0.0
 10
752.337360
 20
710.994880
 30
0.0
 10
748.956520
 20
721.322070
 30
0.0
 10
742.708660
 20
729.857977
 30
0.0
  0
LINE
  5
10e
100
AcDbEntity
  8
Calque_1
 62
1
100
AcDbLine
 10
742.708660
 20
729.857977
 30
0.0
 11
742.708660
 21
700.468090
 31
0.0
  0
LINE
  5
10f
100
AcDbEntity
  8
Calque_1
 62
1
100
AcDbLine
 10
742.708660
 20
700.468090
 30
0.0
 11
742.708660
 21
700.468090
 31
0.0
  0
LINE
  5
110
100
AcDbEntity
  8
Calque_1
 62
1
100
AcDbLine
 10
742.708660
 20
700.468090
 30
0.0
 11
742.708660
 21
700.383590
 31
0.0
  0
SPLINE
  5
111
100
AcDbEntity
  8
Calque_1
 62
1
100
AcDbSpline
 70
8
 71
3
 72
8
 73
4
 74
0
 40
0
 40
0
 40
0
 40
0
 40
1
 40
1
 40
1
 40
1
 10
742.708660
 20
700.383590
 30
0.0
 10
742.689860
 20
680.312450
 30
0.0
 10
726.531490
 20
663.392870
 30
0.0
 10
706.792000
 20
660.908570
 30
0.0
  0
LINE
  5
112
100
AcDbEntity
  8
Calque_1
 62
1
100
AcDbLine
 10
706.792000
 20
660.908570
 30
0.0
 11
706.792000
 21
655.505730
 31
0.0
  0
LINE
  5
113
100
AcDbEntity
  8
Calque_1
 62
1
100
AcDbLine
 10
706.792000
 20
655.505730
 30
0.0
 11
701.941820
 21
655.505730
 31
0.0
  0
LINE
  5
114
100
AcDbEntity
  8
Calque_1
 62
1
100
AcDbLine
 10
701.941820
 20
655.505730
 30
0.0
 11
697.091000
 21
655.505730
 31
0.0
  0
LINE
  5
115
100
AcDbEntity
  8
Calque_1
 62
1
100
AcDbLine
 10
697.091000
 20
655.505730
 30
0.0
 11
697.091000
 21
660.908570
 31
0.0
  0
SPLINE
  5
116
100
AcDbEntity
  8
Calque_1
 62
1
100
AcDbSpline
 70
8
 71
3
 72
8
 73
4
 74
0
 40
0
 40
0
 40
0
 40
0
 40
1
 40
1
 40
1
 40
1
 10
697.091000
 20
660.908570
 30
0.0
 10
677.351510
 20
663.392870
 30
0.0
 10
661.193676
 20
680.312450
 30
0.0
 10
661.175177
 20
700.383590
 30
0.0
  0
LINE
  5
117
100
AcDbEntity
  8
Calque_1
 62
1
100
AcDbLine
 10
661.175177
 20
700.383590
 30
0.0
 11
661.175177
 21
700.468090
 31
0.0
  0
LINE
  5
118
100
AcDbEntity
  8
Calque_1
 62
1
100
AcDbLine
 10
661.175177
 20
700.468090
 30
0.0
 11
661.175177
 21
700.468090
 31
0.0
  0
LINE
  5
119
100
AcDbEntity
  8
Calque_1
 62
1
100
AcDbLine
 10
661.175177
 20
700.468090
 30
0.0
 11
661.178244
 21
729.857977
 31
0.0
  0
SPLINE
  5
11a
100
AcDbEntity
  8
Calque_1
 62
1
100
AcDbSpline
 70
8
 71
3
 72
8
 73
4
 74
0
 40
0
 40
0
 40
0
 40
0
 40
1
 40
1
 40
1
 40
1
 10
826.486048
 20
613.057469
 30
0.0
 10
825.564126
 20
613.046113
 30
0.0
 10
824.645685
 20
612.738089
 30
0.0
 10
823.878970
 20
612.136274
 30
0.0
  0
SPLINE
  5
11b
100
AcDbEntity
  8
Calque_1
 62
1
100
AcDbSpline
 70
8
 71
3
 72
8
 73
4
 74
0
 40
0
 40
0
 40
0
 40
0
 40
1
 40
1
 40
1
 40
1
 10
823.878970
 20
612.136274
 30
0.0
 10
822.288326
 20
610.928709
 30
0.0
 10
821.692783
 20
608.799342
 30
0.0
 10
822.423091
 20
606.930993
 30
0.0
  0
SPLINE
  5
11c
100
AcDbEntity
  8
Calque_1
 62
1
100
AcDbSpline
 70
8
 71
3
 72
8
 73
4
 74
0
 40
0
 40
0
 40
0
 40
0
 40
1
 40
1
 40
1
 40
1
 10
822.423091
 20
606.930993
 30
0.0
 10
824.229088
 20
602.417315
 30
0.0
 10
825.260649
 20
597.626377
 30
0.0
 10
825.472860
 20
592.763451
 30
0.0
  0
SPLINE
  5
11d
100
AcDbEntity
  8
Calque_1
 62
1
100
AcDbSpline
 70
8
 71
3
 72
8
 73
4
 74
0
 40
0
 40
0
 40
0
 40
0
 40
1
 40
1
 40
1
 40
1
 10
825.472860
 20
592.763451
 30
0.0
 10
824.456742
 20
593.983613
 30
0.0
 10
823.308213
 20
595.084462
 30
0.0
 10
822.048371
 20
596.045877
 30
0.0
  0
SPLINE
  5
11e
100
AcDbEntity
  8
Calque_1
 62
1
100
AcDbSpline
 70
8
 71
3
 72
8
 73
4
 74
0
 40
0
 40
0
 40
0
 40
0
 40
1
 40
1
 40
1
 40
1
 10
822.048371
 20
596.045877
 30
0.0
 10
820.545118
 20
597.186840
 30
0.0
 10
818.491890
 20
597.247922
 30
0.0
 10
816.924670
 20
596.198041
 30
0.0
  0
SPLINE
  5
11f
100
AcDbEntity
  8
Calque_1
 62
1
100
AcDbSpline
 70
8
 71
3
 72
8
 73
4
 74
0
 40
0
 40
0
 40
0
 40
0
 40
1
 40
1
 40
1
 40
1
 10
816.924670
 20
596.198041
 30
0.0
 10
815.357137
 20
595.148132
 30
0.0
 10
814.615914
 20
593.215744
 30
0.0
 10
815.074677
 20
591.374938
 30
0.0
  0
SPLINE
  5
120
100
AcDbEntity
  8
Calque_1
 62
1
100
AcDbSpline
 70
8
 71
3
 72
8
 73
4
 74
0
 40
0
 40
0
 40
0
 40
0
 40
1
 40
1
 40
1
 40
1
 10
815.074677
 20
591.374938
 30
0.0
 10
816.663803
 20
585.067223
 30
0.0
 10
816.586514
 20
580.124994
 30
0.0
 10
814.853331
 20
577.437966
 30
0.0
  0
SPLINE
  5
121
100
AcDbEntity
  8
Calque_1
 62
1
100
AcDbSpline
 70
8
 71
3
 72
8
 73
4
 74
0
 40
0
 40
0
 40
0
 40
0
 40
1
 40
1
 40
1
 40
1
 10
814.853331
 20
577.437966
 30
0.0
 10
813.912119
 20
576.036962
 30
0.0
 10
812.408422
 20
575.124481
 30
0.0
 10
810.740776
 20
574.941552
 30
0.0
  0
SPLINE
  5
122
100
AcDbEntity
  8
Calque_1
 62
1
100
AcDbSpline
 70
8
 71
3
 72
8
 73
4
 74
0
 40
0
 40
0
 40
0
 40
0
 40
1
 40
1
 40
1
 40
1
 10
810.740776
 20
574.941552
 30
0.0
 10
799.038595
 20
573.285049
 30
0.0
 10
799.514815
 20
570.049736
 30
0.0
 10
793.092850
 20
582.086722
 30
0.0
  0
SPLINE
  5
123
100
AcDbEntity
  8
Calque_1
 62
1
100
AcDbSpline
 70
8
 71
3
 72
8
 73
4
 74
0
 40
0
 40
0
 40
0
 40
0
 40
1
 40
1
 40
1
 40
1
 10
793.092850
 20
582.086722
 30
0.0
 10
791.749515
 20
583.489020
 30
0.0
 10
789.656399
 20
583.844474
 30
0.0
 10
787.932350
 20
582.962521
 30
0.0
  0
SPLINE
  5
124
100
AcDbEntity
  8
Calque_1
 62
1
100
AcDbSpline
 70
8
 71
3
 72
8
 73
4
 74
0
 40
0
 40
0
 40
0
 40
0
 40
1
 40
1
 40
1
 40
1
 10
787.932350
 20
582.962521
 30
0.0
 10
786.208799
 20
582.130427
 30
0.0
 10
785.226025
 20
580.259649
 30
0.0
 10
785.510814
 20
578.353483
 30
0.0
  0
SPLINE
  5
125
100
AcDbEntity
  8
Calque_1
 62
1
100
AcDbSpline
 70
8
 71
3
 72
8
 73
4
 74
0
 40
0
 40
0
 40
0
 40
0
 40
1
 40
1
 40
1
 40
1
 10
785.510814
 20
578.353483
 30
0.0
 10
786.569595
 20
570.639218
 30
0.0
 10
785.733574
 20
565.048378
 30
0.0
 10
783.292224
 20
563.395731
 30
0.0
  0
SPLINE
  5
126
100
AcDbEntity
  8
Calque_1
 62
1
100
AcDbSpline
 70
8
 71
3
 72
8
 73
4
 74
0
 40
0
 40
0
 40
0
 40
0
 40
1
 40
1
 40
1
 40
1
 10
783.292224
 20
563.395731
 30
0.0
 10
780.477149
 20
561.295809
 30
0.0
 10
778.132772
 20
558.650823
 30
0.0
 10
776.375797
 20
555.638870
 30
0.0
  0
SPLINE
  5
127
100
AcDbEntity
  8
Calque_1
 62
1
100
AcDbSpline
 70
8
 71
3
 72
8
 73
4
 74
0
 40
0
 40
0
 40
0
 40
0
 40
1
 40
1
 40
1
 40
1
 10
776.375797
 20
555.638870
 30
0.0
 10
770.942835
 20
558.220951
 30
0.0
 10
765.014050
 20
559.567740
 30
0.0
 10
759.008499
 20
559.583585
 30
0.0
  0
SPLINE
  5
128
100
AcDbEntity
  8
Calque_1
 62
1
100
AcDbSpline
 70
8
 71
3
 72
8
 73
4
 74
0
 40
0
 40
0
 40
0
 40
0
 40
1
 40
1
 40
1
 40
1
 10
759.008499
 20
559.583585
 30
0.0
 10
758.966884
 20
559.583585
 30
0.0
 10
758.925373
 20
559.580680
 30
0.0
 10
758.883758
 20
559.580416
 30
0.0
  0
SPLINE
  5
129
100
AcDbEntity
  8
Calque_1
 62
1
100
AcDbSpline
 70
8
 71
3
 72
8
 73
4
 74
0
 40
0
 40
0
 40
0
 40
0
 40
1
 40
1
 40
1
 40
1
 10
758.883758
 20
559.580416
 30
0.0
 10
758.842169
 20
559.580653
 30
0.0
 10
758.800632
 20
559.583057
 30
0.0
 10
758.759043
 20
559.583057
 30
0.0
  0
SPLINE
  5
12a
100
AcDbEntity
  8
Calque_1
 62
1
100
AcDbSpline
 70
8
 71
3
 72
8
 73
4
 74
0
 40
0
 40
0
 40
0
 40
0
 40
1
 40
1
 40
1
 40
1
 10
758.759043
 20
559.583057
 30
0.0
 10
752.753492
 20
559.567212
 30
0.0
 10
746.824707
 20
558.220423
 30
0.0
 10
741.391745
 20
555.638341
 30
0.0
  0
SPLINE
  5
12b
100
AcDbEntity
  8
Calque_1
 62
1
100
AcDbSpline
 70
8
 71
3
 72
8
 73
4
 74
0
 40
0
 40
0
 40
0
 40
0
 40
1
 40
1
 40
1
 40
1
 10
741.391745
 20
555.638341
 30
0.0
 10
739.634771
 20
558.650295
 30
0.0
 10
737.290367
 20
561.295281
 30
0.0
 10
734.475292
 20
563.395203
 30
0.0
  0
SPLINE
  5
12c
100
AcDbEntity
  8
Calque_1
 62
1
100
AcDbSpline
 70
8
 71
3
 72
8
 73
4
 74
0
 40
0
 40
0
 40
0
 40
0
 40
1
 40
1
 40
1
 40
1
 10
734.475292
 20
563.395203
 30
0.0
 10
732.033943
 20
565.047850
 30
0.0
 10
731.197947
 20
570.638664
 30
0.0
 10
732.256728
 20
578.352929
 30
0.0
  0
SPLINE
  5
12d
100
AcDbEntity
  8
Calque_1
 62
1
100
AcDbSpline
 70
8
 71
3
 72
8
 73
4
 74
0
 40
0
 40
0
 40
0
 40
0
 40
1
 40
1
 40
1
 40
1
 10
732.256728
 20
578.352929
 30
0.0
 10
732.541518
 20
580.259094
 30
0.0
 10
731.558744
 20
582.129899
 30
0.0
 10
729.835192
 20
582.961993
 30
0.0
  0
SPLINE
  5
12e
100
AcDbEntity
  8
Calque_1
 62
1
100
AcDbSpline
 70
8
 71
3
 72
8
 73
4
 74
0
 40
0
 40
0
 40
0
 40
0
 40
1
 40
1
 40
1
 40
1
 10
729.835192
 20
582.961993
 30
0.0
 10
728.111117
 20
583.843946
 30
0.0
 10
726.018027
 20
583.488492
 30
0.0
 10
724.674692
 20
582.086194
 30
0.0
  0
SPLINE
  5
12f
100
AcDbEntity
  8
Calque_1
 62
1
100
AcDbSpline
 70
8
 71
3
 72
8
 73
4
 74
0
 40
0
 40
0
 40
0
 40
0
 40
1
 40
1
 40
1
 40
1
 10
724.674692
 20
582.086194
 30
0.0
 10
718.252727
 20
570.049208
 30
0.0
 10
718.728947
 20
573.284521
 30
0.0
 10
707.026766
 20
574.941024
 30
0.0
  0
SPLINE
  5
130
100
AcDbEntity
  8
Calque_1
 62
1
100
AcDbSpline
 70
8
 71
3
 72
8
 73
4
 74
0
 40
0
 40
0
 40
0
 40
0
 40
1
 40
1
 40
1
 40
1
 10
707.026766
 20
574.941024
 30
0.0
 10
705.359120
 20
575.123953
 30
0.0
 10
703.855423
 20
576.036433
 30
0.0
 10
702.914212
 20
577.437411
 30
0.0
  0
SPLINE
  5
131
100
AcDbEntity
  8
Calque_1
 62
1
100
AcDbSpline
 70
8
 71
3
 72
8
 73
4
 74
0
 40
0
 40
0
 40
0
 40
0
 40
1
 40
1
 40
1
 40
1
 10
702.914212
 20
577.437411
 30
0.0
 10
701.181028
 20
580.124492
 30
0.0
 10
701.103739
 20
585.066669
 30
0.0
 10
702.692866
 20
591.374410
 30
0.0
  0
SPLINE
  5
132
100
AcDbEntity
  8
Calque_1
 62
1
100
AcDbSpline
 70
8
 71
3
 72
8
 73
4
 74
0
 40
0
 40
0
 40
0
 40
0
 40
1
 40
1
 40
1
 40
1
 10
702.692866
 20
591.374410
 30
0.0
 10
703.151628
 20
593.215189
 30
0.0
 10
702.410379
 20
595.147604
 30
0.0
 10
700.842846
 20
596.197512
 30
0.0
  0
SPLINE
  5
133
100
AcDbEntity
  8
Calque_1
 62
1
100
AcDbSpline
 70
8
 71
3
 72
8
 73
4
 74
0
 40
0
 40
0
 40
0
 40
0
 40
1
 40
1
 40
1
 40
1
 10
700.842846
 20
596.197512
 30
0.0
 10
699.275626
 20
597.247394
 30
0.0
 10
697.222398
 20
597.186312
 30
0.0
 10
695.719145
 20
596.045349
 30
0.0
  0
SPLINE
  5
134
100
AcDbEntity
  8
Calque_1
 62
1
100
AcDbSpline
 70
8
 71
3
 72
8
 73
4
 74
0
 40
0
 40
0
 40
0
 40
0
 40
1
 40
1
 40
1
 40
1
 10
695.719145
 20
596.045349
 30
0.0
 10
694.459303
 20
595.083908
 30
0.0
 10
693.310800
 20
593.983085
 30
0.0
 10
692.294682
 20
592.762923
 30
0.0
  0
SPLINE
  5
135
100
AcDbEntity
  8
Calque_1
 62
1
100
AcDbSpline
 70
8
 71
3
 72
8
 73
4
 74
0
 40
0
 40
0
 40
0
 40
0
 40
1
 40
1
 40
1
 40
1
 10
692.294682
 20
592.762923
 30
0.0
 10
692.506893
 20
597.625849
 30
0.0
 10
693.538454
 20
602.416787
 30
0.0
 10
695.344451
 20
606.930465
 30
0.0
  0
SPLINE
  5
136
100
AcDbEntity
  8
Calque_1
 62
1
100
AcDbSpline
 70
8
 71
3
 72
8
 73
4
 74
0
 40
0
 40
0
 40
0
 40
0
 40
1
 40
1
 40
1
 40
1
 10
695.344451
 20
606.930465
 30
0.0
 10
696.074759
 20
608.798814
 30
0.0
 10
695.479216
 20
610.928155
 30
0.0
 10
693.888572
 20
612.135746
 30
0.0
  0
SPLINE
  5
137
100
AcDbEntity
  8
Calque_1
 62
1
100
AcDbSpline
 70
8
 71
3
 72
8
 73
4
 74
0
 40
0
 40
0
 40
0
 40
0
 40
1
 40
1
 40
1
 40
1
 10
693.888572
 20
612.135746
 30
0.0
 10
693.121857
 20
612.737561
 30
0.0
 10
692.203416
 20
613.045506
 30
0.0
 10
691.281495
 20
613.056941
 30
0.0
  0
LINE
  5
138
100
AcDbEntity
  8
Calque_1
 62
1
100
AcDbLine
 10
691.281495
 20
613.056941
 30
0.0
 11
691.281495
 21
613.056941
 31
0.0
  0
SPLINE
  5
139
100
AcDbEntity
  8
Calque_1
 62
1
100
AcDbSpline
 70
8
 71
3
 72
8
 73
4
 74
0
 40
0
 40
0
 40
0
 40
0
 40
1
 40
1
 40
1
 40
1
 10
691.281495
 20
613.056941
 30
0.0
 10
690.359573
 20
613.068560
 30
0.0
 10
689.433961
 20
612.783405
 30
0.0
 10
688.652929
 20
612.200736
 30
0.0
  0
SPLINE
  5
13a
100
AcDbEntity
  8
Calque_1
 62
1
100
AcDbSpline
 70
8
 71
3
 72
8
 73
4
 74
0
 40
0
 40
0
 40
0
 40
0
 40
1
 40
1
 40
1
 40
1
 10
688.652929
 20
612.200736
 30
0.0
 10
683.974067
 20
608.729625
 30
0.0
 10
678.692203
 20
601.356183
 30
0.0
 10
680.077153
 20
586.142800
 30
0.0
  0
SPLINE
  5
13b
100
AcDbEntity
  8
Calque_1
 62
1
100
AcDbSpline
 70
8
 71
3
 72
8
 73
4
 74
0
 40
0
 40
0
 40
0
 40
0
 40
1
 40
1
 40
1
 40
1
 10
680.077153
 20
586.142800
 30
0.0
 10
680.077153
 20
585.533749
 30
0.0
 10
680.268373
 20
571.164397
 30
0.0
 10
696.931196
 20
563.958435
 30
0.0
  0
SPLINE
  5
13c
100
AcDbEntity
  8
Calque_1
 62
1
100
AcDbSpline
 70
8
 71
3
 72
8
 73
4
 74
0
 40
0
 40
0
 40
0
 40
0
 40
1
 40
1
 40
1
 40
1
 10
696.931196
 20
563.958435
 30
0.0
 10
701.335136
 20
562.102419
 30
0.0
 10
705.902396
 20
560.669830
 30
0.0
 10
710.572909
 20
559.679499
 30
0.0
  0
SPLINE
  5
13d
100
AcDbEntity
  8
Calque_1
 62
1
100
AcDbSpline
 70
8
 71
3
 72
8
 73
4
 74
0
 40
0
 40
0
 40
0
 40
0
 40
1
 40
1
 40
1
 40
1
 10
710.572909
 20
559.679499
 30
0.0
 10
718.443739
 20
558.350932
 30
0.0
 10
725.715230
 20
554.607896
 30
0.0
 10
731.401496
 20
548.963553
 30
0.0
  0
SPLINE
  5
13e
100
AcDbEntity
  8
Calque_1
 62
1
100
AcDbSpline
 70
8
 71
3
 72
8
 73
4
 74
0
 40
0
 40
0
 40
0
 40
0
 40
1
 40
1
 40
1
 40
1
 10
731.401496
 20
548.963553
 30
0.0
 10
731.199622
 20
548.788151
 30
0.0
 10
730.999267
 20
548.610081
 30
0.0
 10
730.800849
 20
548.430769
 30
0.0
  0
SPLINE
  5
13f
100
AcDbEntity
  8
Calque_1
 62
1
100
AcDbSpline
 70
8
 71
3
 72
8
 73
4
 74
0
 40
0
 40
0
 40
0
 40
0
 40
1
 40
1
 40
1
 40
1
 10
730.800849
 20
548.430769
 30
0.0
 10
729.743010
 20
547.857581
 30
0.0
 10
728.774291
 20
547.128716
 30
0.0
 10
727.930994
 20
546.261896
 30
0.0
  0
SPLINE
  5
140
100
AcDbEntity
  8
Calque_1
 62
1
100
AcDbSpline
 70
8
 71
3
 72
8
 73
4
 74
0
 40
0
 40
0
 40
0
 40
0
 40
1
 40
1
 40
1
 40
1
 10
727.930994
 20
546.261896
 30
0.0
 10
723.754079
 20
549.781836
 30
0.0
 10
714.514631
 20
556.167904
 30
0.0
 10
703.948337
 20
554.600555
 30
0.0
  0
SPLINE
  5
141
100
AcDbEntity
  8
Calque_1
 62
1
100
AcDbSpline
 70
8
 71
3
 72
8
 73
4
 74
0
 40
0
 40
0
 40
0
 40
0
 40
1
 40
1
 40
1
 40
1
 10
703.948337
 20
554.600555
 30
0.0
 10
702.855479
 20
554.440204
 30
0.0
 10
702.045657
 20
553.493261
 30
0.0
 10
702.048248
 20
552.379076
 30
0.0
  0
SPLINE
  5
142
100
AcDbEntity
  8
Calque_1
 62
1
100
AcDbSpline
 70
8
 71
3
 72
8
 73
4
 74
0
 40
0
 40
0
 40
0
 40
0
 40
1
 40
1
 40
1
 40
1
 10
702.048248
 20
552.379076
 30
0.0
 10
702.220938
 20
546.785859
 30
0.0
 10
704.527287
 20
541.476346
 30
0.0
 10
708.485184
 20
537.555979
 30
0.0
  0
SPLINE
  5
143
100
AcDbEntity
  8
Calque_1
 62
1
100
AcDbSpline
 70
8
 71
3
 72
8
 73
4
 74
0
 40
0
 40
0
 40
0
 40
0
 40
1
 40
1
 40
1
 40
1
 10
708.485184
 20
537.555979
 30
0.0
 10
711.828668
 20
534.650925
 30
0.0
 10
715.956325
 20
532.868667
 30
0.0
 10
720.298365
 20
532.411542
 30
0.0
  0
SPLINE
  5
144
100
AcDbEntity
  8
Calque_1
 62
1
100
AcDbSpline
 70
8
 71
3
 72
8
 73
4
 74
0
 40
0
 40
0
 40
0
 40
0
 40
1
 40
1
 40
1
 40
1
 10
720.298365
 20
532.411542
 30
0.0
 10
718.631138
 20
527.864088
 30
0.0
 10
717.769074
 20
523.056962
 30
0.0
 10
717.751591
 20
518.208402
 30
0.0
  0
SPLINE
  5
145
100
AcDbEntity
  8
Calque_1
 62
1
100
AcDbSpline
 70
8
 71
3
 72
8
 73
4
 74
0
 40
0
 40
0
 40
0
 40
0
 40
1
 40
1
 40
1
 40
1
 10
717.751591
 20
518.208402
 30
0.0
 10
717.772006
 20
497.199120
 30
0.0
 10
733.384004
 20
479.588037
 30
0.0
 10
753.983995
 20
477.157169
 30
0.0
  0
LINE
  5
146
100
AcDbEntity
  8
Calque_1
 62
1
100
AcDbLine
 10
753.983995
 20
477.157169
 30
0.0
 11
753.983995
 21
486.741975
 31
0.0
  0
LINE
  5
147
100
AcDbEntity
  8
Calque_1
 62
1
100
AcDbLine
 10
753.983995
 20
486.741975
 30
0.0
 11
758.883758
 21
486.741975
 31
0.0
  0
LINE
  5
148
100
AcDbEntity
  8
Calque_1
 62
1
100
AcDbLine
 10
758.883758
 20
486.741975
 30
0.0
 11
763.782998
 21
486.741975
 31
0.0
  0
LINE
  5
149
100
AcDbEntity
  8
Calque_1
 62
1
100
AcDbLine
 10
763.782998
 20
486.741975
 30
0.0
 11
763.782998
 21
477.157169
 31
0.0
  0
SPLINE
  5
14a
100
AcDbEntity
  8
Calque_1
 62
1
100
AcDbSpline
 70
8
 71
3
 72
8
 73
4
 74
0
 40
0
 40
0
 40
0
 40
0
 40
1
 40
1
 40
1
 40
1
 10
763.782998
 20
477.157169
 30
0.0
 10
784.382989
 20
479.588037
 30
0.0
 10
799.995537
 20
497.199120
 30
0.0
 10
800.015925
 20
518.208402
 30
0.0
  0
SPLINE
  5
14b
100
AcDbEntity
  8
Calque_1
 62
1
100
AcDbSpline
 70
8
 71
3
 72
8
 73
4
 74
0
 40
0
 40
0
 40
0
 40
0
 40
1
 40
1
 40
1
 40
1
 10
800.015925
 20
518.208402
 30
0.0
 10
799.998390
 20
523.056962
 30
0.0
 10
799.136378
 20
527.864088
 30
0.0
 10
797.469177
 20
532.411542
 30
0.0
  0
SPLINE
  5
14c
100
AcDbEntity
  8
Calque_1
 62
1
100
AcDbSpline
 70
8
 71
3
 72
8
 73
4
 74
0
 40
0
 40
0
 40
0
 40
0
 40
1
 40
1
 40
1
 40
1
 10
797.469177
 20
532.411542
 30
0.0
 10
801.811191
 20
532.868667
 30
0.0
 10
805.938848
 20
534.650925
 30
0.0
 10
809.282332
 20
537.555979
 30
0.0
  0
SPLINE
  5
14d
100
AcDbEntity
  8
Calque_1
 62
1
100
AcDbSpline
 70
8
 71
3
 72
8
 73
4
 74
0
 40
0
 40
0
 40
0
 40
0
 40
1
 40
1
 40
1
 40
1
 10
809.282332
 20
537.555979
 30
0.0
 10
813.240229
 20
541.476346
 30
0.0
 10
815.546604
 20
546.785859
 30
0.0
 10
815.719294
 20
552.379076
 30
0.0
  0
SPLINE
  5
14e
100
AcDbEntity
  8
Calque_1
 62
1
100
AcDbSpline
 70
8
 71
3
 72
8
 73
4
 74
0
 40
0
 40
0
 40
0
 40
0
 40
1
 40
1
 40
1
 40
1
 10
815.719294
 20
552.379076
 30
0.0
 10
815.721911
 20
553.493261
 30
0.0
 10
814.912037
 20
554.440204
 30
0.0
 10
813.819179
 20
554.600555
 30
0.0
  0
SPLINE
  5
14f
100
AcDbEntity
  8
Calque_1
 62
1
100
AcDbSpline
 70
8
 71
3
 72
8
 73
4
 74
0
 40
0
 40
0
 40
0
 40
0
 40
1
 40
1
 40
1
 40
1
 10
813.819179
 20
554.600555
 30
0.0
 10
803.252911
 20
556.167904
 30
0.0
 10
794.013463
 20
549.781809
 30
0.0
 10
789.836523
 20
546.261896
 30
0.0
  0
SPLINE
  5
150
100
AcDbEntity
  8
Calque_1
 62
1
100
AcDbSpline
 70
8
 71
3
 72
8
 73
4
 74
0
 40
0
 40
0
 40
0
 40
0
 40
1
 40
1
 40
1
 40
1
 10
789.836523
 20
546.261896
 30
0.0
 10
788.993251
 20
547.128690
 30
0.0
 10
788.024532
 20
547.857554
 30
0.0
 10
786.966693
 20
548.430769
 30
0.0
  0
SPLINE
  5
151
100
AcDbEntity
  8
Calque_1
 62
1
100
AcDbSpline
 70
8
 71
3
 72
8
 73
4
 74
0
 40
0
 40
0
 40
0
 40
0
 40
1
 40
1
 40
1
 40
1
 10
786.966693
 20
548.430769
 30
0.0
 10
786.768275
 20
548.610054
 30
0.0
 10
786.567920
 20
548.788151
 30
0.0
 10
786.366047
 20
548.963553
 30
0.0
  0
SPLINE
  5
152
100
AcDbEntity
  8
Calque_1
 62
1
100
AcDbSpline
 70
8
 71
3
 72
8
 73
4
 74
0
 40
0
 40
0
 40
0
 40
0
 40
1
 40
1
 40
1
 40
1
 10
786.366047
 20
548.963553
 30
0.0
 10
792.052312
 20
554.607922
 30
0.0
 10
799.323804
 20
558.350932
 30
0.0
 10
807.194634
 20
559.679499
 30
0.0
  0
SPLINE
  5
153
100
AcDbEntity
  8
Calque_1
 62
1
100
AcDbSpline
 70
8
 71
3
 72
8
 73
4
 74
0
 40
0
 40
0
 40
0
 40
0
 40
1
 40
1
 40
1
 40
1
 10
807.194634
 20
559.679499
 30
0.0
 10
811.865147
 20
560.669830
 30
0.0
 10
816.432407
 20
562.102419
 30
0.0
 10
820.836346
 20
563.958435
 30
0.0
  0
SPLINE
  5
154
100
AcDbEntity
  8
Calque_1
 62
1
100
AcDbSpline
 70
8
 71
3
 72
8
 73
4
 74
0
 40
0
 40
0
 40
0
 40
0
 40
1
 40
1
 40
1
 40
1
 10
820.836346
 20
563.958435
 30
0.0
 10
837.499169
 20
571.164397
 30
0.0
 10
837.690390
 20
585.533749
 30
0.0
 10
837.690390
 20
586.142800
 30
0.0
  0
SPLINE
  5
155
100
AcDbEntity
  8
Calque_1
 62
1
100
AcDbSpline
 70
8
 71
3
 72
8
 73
4
 74
0
 40
0
 40
0
 40
0
 40
0
 40
1
 40
1
 40
1
 40
1
 10
837.690390
 20
586.142800
 30
0.0
 10
839.075340
 20
601.356183
 30
0.0
 10
833.793475
 20
608.729625
 30
0.0
 10
829.114613
 20
612.200736
 30
0.0
  0
SPLINE
  5
156
100
AcDbEntity
  8
Calque_1
 62
1
100
AcDbSpline
 70
8
 71
3
 72
8
 73
4
 74
0
 40
0
 40
0
 40
0
 40
0
 40
1
 40
1
 40
1
 40
1
 10
829.114613
 20
612.200736
 30
0.0
 10
828.333581
 20
612.783405
 30
0.0
 10
827.407969
 20
613.068534
 30
0.0
 10
826.486048
 20
613.056941
 30
0.0
  0
LINE
  5
157
100
AcDbEntity
  8
Calque_1
 62
1
100
AcDbLine
 10
826.486048
 20
613.056941
 30
0.0
 11
826.486048
 21
613.057469
 31
0.0
  0
SPLINE
  5
158
100
AcDbEntity
  8
Calque_1
 62
1
100
AcDbSpline
 70
8
 71
3
 72
8
 73
4
 74
0
 40
0
 40
0
 40
0
 40
0
 40
1
 40
1
 40
1
 40
1
 10
776.729093
 20
516.964880
 30
0.0
 10
776.729084
 20
506.992947
 30
0.0
 10
768.717221
 20
498.909104
 30
0.0
 10
758.834090
 20
498.909105
 30
0.0
  0
SPLINE
  5
159
100
AcDbEntity
  8
Calque_1
 62
1
100
AcDbSpline
 70
8
 71
3
 72
8
 73
4
 74
0
 40
0
 40
0
 40
0
 40
0
 40
1
 40
1
 40
1
 40
1
 10
758.834090
 20
498.909105
 30
0.0
 10
748.950961
 20
498.909106
 30
0.0
 10
740.939100
 20
506.992949
 30
0.0
 10
740.939091
 20
516.964880
 30
0.0
  0
SPLINE
  5
15a
100
AcDbEntity
  8
Calque_1
 62
1
100
AcDbSpline
 70
8
 71
3
 72
8
 73
4
 74
0
 40
0
 40
0
 40
0
 40
0
 40
1
 40
1
 40
1
 40
1
 10
740.939091
 20
516.964880
 30
0.0
 10
740.939087
 20
521.753576
 30
0.0
 10
742.824446
 20
526.346140
 30
0.0
 10
746.180410
 20
529.732261
 30
0.0
  0
SPLINE
  5
15b
100
AcDbEntity
  8
Calque_1
 62
1
100
AcDbSpline
 70
8
 71
3
 72
8
 73
4
 74
0
 40
0
 40
0
 40
0
 40
0
 40
1
 40
1
 40
1
 40
1
 10
746.180410
 20
529.732261
 30
0.0
 10
749.536374
 20
533.118382
 30
0.0
 10
754.088039
 20
535.020685
 30
0.0
 10
758.834090
 20
535.020685
 30
0.0
  0
SPLINE
  5
15c
100
AcDbEntity
  8
Calque_1
 62
1
100
AcDbSpline
 70
8
 71
3
 72
8
 73
4
 74
0
 40
0
 40
0
 40
0
 40
0
 40
1
 40
1
 40
1
 40
1
 10
758.834090
 20
535.020685
 30
0.0
 10
763.580142
 20
535.020686
 30
0.0
 10
768.131808
 20
533.118383
 30
0.0
 10
771.487773
 20
529.732262
 30
0.0
  0
SPLINE
  5
15d
100
AcDbEntity
  8
Calque_1
 62
1
100
AcDbSpline
 70
8
 71
3
 72
8
 73
4
 74
0
 40
0
 40
0
 40
0
 40
0
 40
1
 40
1
 40
1
 40
1
 10
771.487773
 20
529.732262
 30
0.0
 10
774.843737
 20
526.346141
 30
0.0
 10
776.729097
 20
521.753576
 30
0.0
 10
776.729093
 20
516.964880
 30
0.0
  0
LINE
  5
15e
100
AcDbEntity
  8
Calque_1
 62
1
100
AcDbLine
 10
776.729093
 20
516.964880
 30
0.0
 11
776.729093
 21
516.964880
 31
0.0
  0
SPLINE
  5
15f
100
AcDbEntity
  8
Calque_1
 62
1
100
AcDbSpline
 70
8
 71
3
 72
8
 73
4
 74
0
 40
0
 40
0
 40
0
 40
0
 40
1
 40
1
 40
1
 40
1
 10
853.917590
 20
567.128820
 30
0.0
 10
860.165400
 20
575.664720
 30
0.0
 10
863.545960
 20
585.991910
 30
0.0
 10
863.565850
 20
596.603280
 30
0.0
  0
SPLINE
  5
160
100
AcDbEntity
  8
Calque_1
 62
1
100
AcDbSpline
 70
8
 71
3
 72
8
 73
4
 74
0
 40
0
 40
0
 40
0
 40
0
 40
1
 40
1
 40
1
 40
1
 10
863.565850
 20
596.603280
 30
0.0
 10
863.548050
 20
612.201110
 30
0.0
 10
855.294580
 20
626.888440
 30
0.0
 10
842.952980
 20
636.281490
 30
0.0
  0
LINE
  5
161
100
AcDbEntity
  8
Calque_1
 62
1
100
AcDbLine
 10
842.952980
 20
636.281490
 30
0.0
 11
872.464770
 21
730.127844
 31
0.0
  0
LINE
  5
162
100
AcDbEntity
  8
Calque_1
 62
1
100
AcDbLine
 10
872.464770
 20
730.127844
 30
0.0
 11
863.122680
 21
730.127844
 31
0.0
  0
SPLINE
  5
163
100
AcDbEntity
  8
Calque_1
 62
1
100
AcDbSpline
 70
8
 71
3
 72
8
 73
4
 74
0
 40
0
 40
0
 40
0
 40
0
 40
1
 40
1
 40
1
 40
1
 10
863.122680
 20
730.127844
 30
0.0
 10
863.122680
 20
730.127844
 30
0.0
 10
850.857640
 20
704.626250
 30
0.0
 10
845.561160
 20
688.040940
 30
0.0
  0
SPLINE
  5
164
100
AcDbEntity
  8
Calque_1
 62
1
100
AcDbSpline
 70
8
 71
3
 72
8
 73
4
 74
0
 40
0
 40
0
 40
0
 40
0
 40
1
 40
1
 40
1
 40
1
 10
845.561160
 20
688.040940
 30
0.0
 10
842.083950
 20
677.152760
 30
0.0
 10
831.678640
 20
660.623140
 30
0.0
 10
829.536190
 20
650.629060
 30
0.0
  0
SPLINE
  5
165
100
AcDbEntity
  8
Calque_1
 62
1
100
AcDbSpline
 70
8
 71
3
 72
8
 73
4
 74
0
 40
0
 40
0
 40
0
 40
0
 40
1
 40
1
 40
1
 40
1
 10
829.536190
 20
650.629060
 30
0.0
 10
823.114770
 20
653.632960
 30
0.0
 10
820.182820
 20
650.277250
 30
0.0
 10
813.152430
 20
650.258720
 30
0.0
  0
SPLINE
  5
166
100
AcDbEntity
  8
Calque_1
 62
1
100
AcDbSpline
 70
8
 71
3
 72
8
 73
4
 74
0
 40
0
 40
0
 40
0
 40
0
 40
1
 40
1
 40
1
 40
1
 10
813.152430
 20
650.258720
 30
0.0
 10
806.122150
 20
650.277220
 30
0.0
 10
803.190200
 20
653.632960
 30
0.0
 10
796.768680
 20
650.629060
 30
0.0
  0
SPLINE
  5
167
100
AcDbEntity
  8
Calque_1
 62
1
100
AcDbSpline
 70
8
 71
3
 72
8
 73
4
 74
0
 40
0
 40
0
 40
0
 40
0
 40
1
 40
1
 40
1
 40
1
 10
796.768680
 20
650.629060
 30
0.0
 10
794.626230
 20
660.623140
 30
0.0
 10
784.220520
 20
677.152730
 30
0.0
 10
780.743120
 20
688.040940
 30
0.0
  0
SPLINE
  5
168
100
AcDbEntity
  8
Calque_1
 62
1
100
AcDbSpline
 70
8
 71
3
 72
8
 73
4
 74
0
 40
0
 40
0
 40
0
 40
0
 40
1
 40
1
 40
1
 40
1
 10
780.743120
 20
688.040940
 30
0.0
 10
775.446240
 20
704.626250
 30
0.0
 10
763.180510
 20
730.127844
 30
0.0
 10
763.180510
 20
730.127844
 30
0.0
  0
LINE
  5
169
100
AcDbEntity
  8
Calque_1
 62
1
100
AcDbLine
 10
763.180510
 20
730.127844
 30
0.0
 11
753.838020
 21
730.127844
 31
0.0
  0
LINE
  5
16a
100
AcDbEntity
  8
Calque_1
 62
1
100
AcDbLine
 10
753.838020
 20
730.127844
 30
0.0
 11
783.351400
 21
636.281490
 31
0.0
  0
SPLINE
  5
16b
100
AcDbEntity
  8
Calque_1
 62
1
100
AcDbSpline
 70
8
 71
3
 72
8
 73
4
 74
0
 40
0
 40
0
 40
0
 40
0
 40
1
 40
1
 40
1
 40
1
 10
783.351400
 20
636.281490
 30
0.0
 10
771.009000
 20
626.888440
 30
0.0
 10
762.755150
 20
612.201110
 30
0.0
 10
762.737340
 20
596.603280
 30
0.0
  0
SPLINE
  5
16c
100
AcDbEntity
  8
Calque_1
 62
1
100
AcDbSpline
 70
8
 71
3
 72
8
 73
4
 74
0
 40
0
 40
0
 40
0
 40
0
 40
1
 40
1
 40
1
 40
1
 10
762.737340
 20
596.603280
 30
0.0
 10
762.757140
 20
585.991910
 30
0.0
 10
766.137980
 20
575.664720
 30
0.0
 10
772.386190
 20
567.128820
 30
0.0
  0
LINE
  5
16d
100
AcDbEntity
  8
Calque_1
 62
1
100
AcDbLine
 10
772.386190
 20
567.128820
 30
0.0
 11
772.386190
 21
596.518690
 31
0.0
  0
LINE
  5
16e
100
AcDbEntity
  8
Calque_1
 62
1
100
AcDbLine
 10
772.386190
 20
596.518690
 30
0.0
 11
772.386190
 21
596.518690
 31
0.0
  0
LINE
  5
16f
100
AcDbEntity
  8
Calque_1
 62
1
100
AcDbLine
 10
772.386190
 20
596.518690
 30
0.0
 11
772.386190
 21
596.603290
 31
0.0
  0
SPLINE
  5
170
100
AcDbEntity
  8
Calque_1
 62
1
100
AcDbSpline
 70
8
 71
3
 72
8
 73
4
 74
0
 40
0
 40
0
 40
0
 40
0
 40
1
 40
1
 40
1
 40
1
 10
772.386190
 20
596.603290
 30
0.0
 10
772.404990
 20
616.674420
 30
0.0
 10
788.563300
 20
633.594000
 30
0.0
 10
808.302980
 20
636.078300
 30
0.0
  0
LINE
  5
171
100
AcDbEntity
  8
Calque_1
 62
1
100
AcDbLine
 10
808.302980
 20
636.078300
 30
0.0
 11
808.302980
 21
641.481140
 31
0.0
  0
LINE
  5
172
100
AcDbEntity
  8
Calque_1
 62
1
100
AcDbLine
 10
808.302980
 20
641.481140
 30
0.0
 11
813.154020
 21
641.481140
 31
0.0
  0
LINE
  5
173
100
AcDbEntity
  8
Calque_1
 62
1
100
AcDbLine
 10
813.154020
 20
641.481140
 30
0.0
 11
818.004950
 21
641.481140
 31
0.0
  0
LINE
  5
174
100
AcDbEntity
  8
Calque_1
 62
1
100
AcDbLine
 10
818.004950
 20
641.481140
 30
0.0
 11
818.004950
 21
636.078300
 31
0.0
  0
SPLINE
  5
175
100
AcDbEntity
  8
Calque_1
 62
1
100
AcDbSpline
 70
8
 71
3
 72
8
 73
4
 74
0
 40
0
 40
0
 40
0
 40
0
 40
1
 40
1
 40
1
 40
1
 10
818.004950
 20
636.078300
 30
0.0
 10
837.744540
 20
633.594000
 30
0.0
 10
853.902160
 20
616.674420
 30
0.0
 10
853.920660
 20
596.603290
 30
0.0
  0
LINE
  5
176
100
AcDbEntity
  8
Calque_1
 62
1
100
AcDbLine
 10
853.920660
 20
596.603290
 30
0.0
 11
853.920660
 21
596.518690
 31
0.0
  0
LINE
  5
177
100
AcDbEntity
  8
Calque_1
 62
1
100
AcDbLine
 10
853.920660
 20
596.518690
 30
0.0
 11
853.920660
 21
596.518690
 31
0.0
  0
LINE
  5
178
100
AcDbEntity
  8
Calque_1
 62
1
100
AcDbLine
 10
853.920660
 20
596.518690
 30
0.0
 11
853.917590
 21
567.128820
 31
0.0
  0
SPLINE
  5
179
100
AcDbEntity
  8
Calque_1
 62
1
100
AcDbSpline
 70
8
 71
3
 72
8
 73
4
 74
0
 40
0
 40
0
 40
0
 40
0
 40
1
 40
1
 40
1
 40
1
 10
452.215590
 20
658.519520
 30
0.0
 10
445.967760
 20
649.983620
 30
0.0
 10
442.587220
 20
639.656430
 30
0.0
 10
442.567330
 20
629.045060
 30
0.0
  0
SPLINE
  5
17a
100
AcDbEntity
  8
Calque_1
 62
1
100
AcDbSpline
 70
8
 71
3
 72
8
 73
4
 74
0
 40
0
 40
0
 40
0
 40
0
 40
1
 40
1
 40
1
 40
1
 10
442.567330
 20
629.045060
 30
0.0
 10
442.585130
 20
613.447230
 30
0.0
 10
450.838580
 20
598.759890
 30
0.0
 10
463.180200
 20
589.366830
 30
0.0
  0
LINE
  5
17b
100
AcDbEntity
  8
Calque_1
 62
1
100
AcDbLine
 10
463.180200
 20
589.366830
 30
0.0
 11
433.668460
 21
495.520480
 31
0.0
  0
LINE
  5
17c
100
AcDbEntity
  8
Calque_1
 62
1
100
AcDbLine
 10
433.668460
 20
495.520480
 30
0.0
 11
443.010540
 21
495.520480
 31
0.0
  0
SPLINE
  5
17d
100
AcDbEntity
  8
Calque_1
 62
1
100
AcDbSpline
 70
8
 71
3
 72
8
 73
4
 74
0
 40
0
 40
0
 40
0
 40
0
 40
1
 40
1
 40
1
 40
1
 10
443.010540
 20
495.520480
 30
0.0
 10
443.010540
 20
495.520480
 30
0.0
 10
455.275550
 20
521.022080
 30
0.0
 10
460.572070
 20
537.607390
 30
0.0
  0
SPLINE
  5
17e
100
AcDbEntity
  8
Calque_1
 62
1
100
AcDbSpline
 70
8
 71
3
 72
8
 73
4
 74
0
 40
0
 40
0
 40
0
 40
0
 40
1
 40
1
 40
1
 40
1
 10
460.572070
 20
537.607390
 30
0.0
 10
464.049240
 20
548.495580
 30
0.0
 10
474.454522
 20
565.025200
 30
0.0
 10
476.596974
 20
575.019270
 30
0.0
  0
SPLINE
  5
17f
100
AcDbEntity
  8
Calque_1
 62
1
100
AcDbSpline
 70
8
 71
3
 72
8
 73
4
 74
0
 40
0
 40
0
 40
0
 40
0
 40
1
 40
1
 40
1
 40
1
 10
476.596974
 20
575.019270
 30
0.0
 10
483.018435
 20
572.015380
 30
0.0
 10
485.950414
 20
575.371080
 30
0.0
 10
492.980700
 20
575.389620
 30
0.0
  0
SPLINE
  5
180
100
AcDbEntity
  8
Calque_1
 62
1
100
AcDbSpline
 70
8
 71
3
 72
8
 73
4
 74
0
 40
0
 40
0
 40
0
 40
0
 40
1
 40
1
 40
1
 40
1
 10
492.980700
 20
575.389620
 30
0.0
 10
500.011085
 20
575.371120
 30
0.0
 10
502.943034
 20
572.015380
 30
0.0
 10
509.364456
 20
575.019270
 30
0.0
  0
SPLINE
  5
181
100
AcDbEntity
  8
Calque_1
 62
1
100
AcDbSpline
 70
8
 71
3
 72
8
 73
4
 74
0
 40
0
 40
0
 40
0
 40
0
 40
1
 40
1
 40
1
 40
1
 10
509.364456
 20
575.019270
 30
0.0
 10
511.506908
 20
565.025200
 30
0.0
 10
521.912215
 20
548.495610
 30
0.0
 10
525.389422
 20
537.607390
 30
0.0
  0
SPLINE
  5
182
100
AcDbEntity
  8
Calque_1
 62
1
100
AcDbSpline
 70
8
 71
3
 72
8
 73
4
 74
0
 40
0
 40
0
 40
0
 40
0
 40
1
 40
1
 40
1
 40
1
 10
525.389422
 20
537.607390
 30
0.0
 10
530.685902
 20
521.022080
 30
0.0
 10
542.950942
 20
495.520480
 30
0.0
 10
542.950942
 20
495.520480
 30
0.0
  0
LINE
  5
183
100
AcDbEntity
  8
Calque_1
 62
1
100
AcDbLine
 10
542.950942
 20
495.520480
 30
0.0
 11
552.292937
 21
495.520480
 31
0.0
  0
LINE
  5
184
100
AcDbEntity
  8
Calque_1
 62
1
100
AcDbLine
 10
552.292937
 20
495.520480
 30
0.0
 11
522.781244
 21
589.366830
 31
0.0
  0
SPLINE
  5
185
100
AcDbEntity
  8
Calque_1
 62
1
100
AcDbSpline
 70
8
 71
3
 72
8
 73
4
 74
0
 40
0
 40
0
 40
0
 40
0
 40
1
 40
1
 40
1
 40
1
 10
522.781244
 20
589.366830
 30
0.0
 10
535.122850
 20
598.759890
 30
0.0
 10
543.376307
 20
613.447230
 30
0.0
 10
543.394113
 20
629.045060
 30
0.0
  0
SPLINE
  5
186
100
AcDbEntity
  8
Calque_1
 62
1
100
AcDbSpline
 70
8
 71
3
 72
8
 73
4
 74
0
 40
0
 40
0
 40
0
 40
0
 40
1
 40
1
 40
1
 40
1
 10
543.394113
 20
629.045060
 30
0.0
 10
543.374333
 20
639.656430
 30
0.0
 10
539.993670
 20
649.983620
 30
0.0
 10
533.745856
 20
658.519520
 30
0.0
  0
LINE
  5
187
100
AcDbEntity
  8
Calque_1
 62
1
100
AcDbLine
 10
533.745856
 20
658.519520
 30
0.0
 11
533.745856
 21
629.129640
 31
0.0
  0
LINE
  5
188
100
AcDbEntity
  8
Calque_1
 62
1
100
AcDbLine
 10
533.745856
 20
629.129640
 30
0.0
 11
533.745856
 21
629.129640
 31
0.0
  0
LINE
  5
189
100
AcDbEntity
  8
Calque_1
 62
1
100
AcDbLine
 10
533.745856
 20
629.129640
 30
0.0
 11
533.745856
 21
629.045140
 31
0.0
  0
SPLINE
  5
18a
100
AcDbEntity
  8
Calque_1
 62
1
100
AcDbSpline
 70
8
 71
3
 72
8
 73
4
 74
0
 40
0
 40
0
 40
0
 40
0
 40
1
 40
1
 40
1
 40
1
 10
533.745856
 20
629.045140
 30
0.0
 10
533.727056
 20
608.974000
 30
0.0
 10
517.569589
 20
592.054430
 30
0.0
 10
497.830004
 20
589.570130
 30
0.0
  0
LINE
  5
18b
100
AcDbEntity
  8
Calque_1
 62
1
100
AcDbLine
 10
497.830004
 20
589.570130
 30
0.0
 11
497.830004
 21
584.167290
 31
0.0
  0
LINE
  5
18c
100
AcDbEntity
  8
Calque_1
 62
1
100
AcDbLine
 10
497.830004
 20
584.167290
 30
0.0
 11
492.979216
 21
584.167290
 31
0.0
  0
LINE
  5
18d
100
AcDbEntity
  8
Calque_1
 62
1
100
AcDbLine
 10
492.979216
 20
584.167290
 30
0.0
 11
488.128003
 21
584.167290
 31
0.0
  0
LINE
  5
18e
100
AcDbEntity
  8
Calque_1
 62
1
100
AcDbLine
 10
488.128003
 20
584.167290
 30
0.0
 11
488.128003
 21
589.570130
 31
0.0
  0
SPLINE
  5
18f
100
AcDbEntity
  8
Calque_1
 62
1
100
AcDbSpline
 70
8
 71
3
 72
8
 73
4
 74
0
 40
0
 40
0
 40
0
 40
0
 40
1
 40
1
 40
1
 40
1
 10
488.128003
 20
589.570130
 30
0.0
 10
468.388510
 20
592.054430
 30
0.0
 10
452.231010
 20
608.974000
 30
0.0
 10
452.212530
 20
629.045140
 30
0.0
  0
SPLINE
  5
190
100
AcDbEntity
  8
Calque_1
 62
1
100
AcDbSpline
 70
8
 71
3
 72
8
 73
4
 74
0
 40
0
 40
0
 40
0
 40
0
 40
1
 40
1
 40
1
 40
1
 10
452.212530
 20
629.045140
 30
0.0
 10
452.215530
 20
629.073440
 30
0.0
 10
452.215530
 20
629.101540
 30
0.0
 10
452.216530
 20
629.129640
 30
0.0
  0
LINE
  5
191
100
AcDbEntity
  8
Calque_1
 62
1
100
AcDbLine
 10
452.216530
 20
629.129640
 30
0.0
 11
452.213530
 21
629.129640
 31
0.0
  0
LINE
  5
192
100
AcDbEntity
  8
Calque_1
 62
1
100
AcDbLine
 10
452.213530
 20
629.129640
 30
0.0
 11
452.215590
 21
658.519520
 31
0.0
  0
SPLINE
  5
193
100
AcDbEntity
  8
Calque_1
 62
1
100
AcDbSpline
 70
8
 71
3
 72
8
 73
4
 74
0
 40
0
 40
0
 40
0
 40
0
 40
1
 40
1
 40
1
 40
1
 10
644.952467
 20
495.790370
 30
0.0
 10
651.200280
 20
504.326260
 30
0.0
 10
654.580840
 20
514.653460
 30
0.0
 10
654.600723
 20
525.264830
 30
0.0
  0
SPLINE
  5
194
100
AcDbEntity
  8
Calque_1
 62
1
100
AcDbSpline
 70
8
 71
3
 72
8
 73
4
 74
0
 40
0
 40
0
 40
0
 40
0
 40
1
 40
1
 40
1
 40
1
 10
654.600723
 20
525.264830
 30
0.0
 10
654.582923
 20
540.862660
 30
0.0
 10
646.329461
 20
555.549990
 30
0.0
 10
633.987855
 20
564.943040
 30
0.0
  0
LINE
  5
195
100
AcDbEntity
  8
Calque_1
 62
1
100
AcDbLine
 10
633.987855
 20
564.943040
 30
0.0
 11
663.499646
 21
658.789390
 31
0.0
  0
LINE
  5
196
100
AcDbEntity
  8
Calque_1
 62
1
100
AcDbLine
 10
663.499646
 20
658.789390
 30
0.0
 11
654.157553
 21
658.789390
 31
0.0
  0
SPLINE
  5
197
100
AcDbEntity
  8
Calque_1
 62
1
100
AcDbSpline
 70
8
 71
3
 72
8
 73
4
 74
0
 40
0
 40
0
 40
0
 40
0
 40
1
 40
1
 40
1
 40
1
 10
654.157553
 20
658.789390
 30
0.0
 10
654.157553
 20
658.789390
 30
0.0
 10
641.892513
 20
633.287800
 30
0.0
 10
636.596032
 20
616.702480
 30
0.0
  0
SPLINE
  5
198
100
AcDbEntity
  8
Calque_1
 62
1
100
AcDbSpline
 70
8
 71
3
 72
8
 73
4
 74
0
 40
0
 40
0
 40
0
 40
0
 40
1
 40
1
 40
1
 40
1
 10
636.596032
 20
616.702480
 30
0.0
 10
633.118825
 20
605.814310
 30
0.0
 10
622.713519
 20
589.284690
 30
0.0
 10
620.571066
 20
579.290610
 30
0.0
  0
SPLINE
  5
199
100
AcDbEntity
  8
Calque_1
 62
1
100
AcDbSpline
 70
8
 71
3
 72
8
 73
4
 74
0
 40
0
 40
0
 40
0
 40
0
 40
1
 40
1
 40
1
 40
1
 10
620.571066
 20
579.290610
 30
0.0
 10
614.149645
 20
582.294510
 30
0.0
 10
611.217696
 20
578.938800
 30
0.0
 10
604.187311
 20
578.920260
 30
0.0
  0
SPLINE
  5
19a
100
AcDbEntity
  8
Calque_1
 62
1
100
AcDbSpline
 70
8
 71
3
 72
8
 73
4
 74
0
 40
0
 40
0
 40
0
 40
0
 40
1
 40
1
 40
1
 40
1
 10
604.187311
 20
578.920260
 30
0.0
 10
597.157024
 20
578.938760
 30
0.0
 10
594.225075
 20
582.294510
 30
0.0
 10
587.803555
 20
579.290610
 30
0.0
  0
SPLINE
  5
19b
100
AcDbEntity
  8
Calque_1
 62
1
100
AcDbSpline
 70
8
 71
3
 72
8
 73
4
 74
0
 40
0
 40
0
 40
0
 40
0
 40
1
 40
1
 40
1
 40
1
 10
587.803555
 20
579.290610
 30
0.0
 10
585.661103
 20
589.284690
 30
0.0
 10
575.255895
 20
605.814280
 30
0.0
 10
571.778688
 20
616.702480
 30
0.0
  0
SPLINE
  5
19c
100
AcDbEntity
  8
Calque_1
 62
1
100
AcDbSpline
 70
8
 71
3
 72
8
 73
4
 74
0
 40
0
 40
0
 40
0
 40
0
 40
1
 40
1
 40
1
 40
1
 10
571.778688
 20
616.702480
 30
0.0
 10
566.482108
 20
633.287800
 30
0.0
 10
554.217167
 20
658.789390
 30
0.0
 10
554.217167
 20
658.789390
 30
0.0
  0
LINE
  5
19d
100
AcDbEntity
  8
Calque_1
 62
1
100
AcDbLine
 10
554.217167
 20
658.789390
 30
0.0
 11
544.875074
 21
658.789390
 31
0.0
  0
LINE
  5
19e
100
AcDbEntity
  8
Calque_1
 62
1
100
AcDbLine
 10
544.875074
 20
658.789390
 30
0.0
 11
574.386865
 21
564.943040
 31
0.0
  0
SPLINE
  5
19f
100
AcDbEntity
  8
Calque_1
 62
1
100
AcDbSpline
 70
8
 71
3
 72
8
 73
4
 74
0
 40
0
 40
0
 40
0
 40
0
 40
1
 40
1
 40
1
 40
1
 10
574.386865
 20
564.943040
 30
0.0
 10
562.045161
 20
555.549990
 30
0.0
 10
553.791704
 20
540.862660
 30
0.0
 10
553.773898
 20
525.264830
 30
0.0
  0
SPLINE
  5
1a0
100
AcDbEntity
  8
Calque_1
 62
1
100
AcDbSpline
 70
8
 71
3
 72
8
 73
4
 74
0
 40
0
 40
0
 40
0
 40
0
 40
1
 40
1
 40
1
 40
1
 10
553.773898
 20
525.264830
 30
0.0
 10
553.793678
 20
514.653460
 30
0.0
 10
557.174341
 20
504.326260
 30
0.0
 10
563.422254
 20
495.790370
 30
0.0
  0
LINE
  5
1a1
100
AcDbEntity
  8
Calque_1
 62
1
100
AcDbLine
 10
563.422254
 20
495.790370
 30
0.0
 11
563.422254
 21
525.180240
 31
0.0
  0
LINE
  5
1a2
100
AcDbEntity
  8
Calque_1
 62
1
100
AcDbLine
 10
563.422254
 20
525.180240
 30
0.0
 11
563.422254
 21
525.180240
 31
0.0
  0
LINE
  5
1a3
100
AcDbEntity
  8
Calque_1
 62
1
100
AcDbLine
 10
563.422254
 20
525.180240
 30
0.0
 11
563.422254
 21
525.264840
 31
0.0
  0
SPLINE
  5
1a4
100
AcDbEntity
  8
Calque_1
 62
1
100
AcDbSpline
 70
8
 71
3
 72
8
 73
4
 74
0
 40
0
 40
0
 40
0
 40
0
 40
1
 40
1
 40
1
 40
1
 10
563.422254
 20
525.264840
 30
0.0
 10
563.441049
 20
545.336000
 30
0.0
 10
579.598510
 20
562.255590
 30
0.0
 10
599.337997
 20
564.739890
 30
0.0
  0
LINE
  5
1a5
100
AcDbEntity
  8
Calque_1
 62
1
100
AcDbLine
 10
599.337997
 20
564.739890
 30
0.0
 11
599.337997
 21
570.142730
 31
0.0
  0
LINE
  5
1a6
100
AcDbEntity
  8
Calque_1
 62
1
100
AcDbLine
 10
599.337997
 20
570.142730
 30
0.0
 11
604.188893
 21
570.142730
 31
0.0
  0
LINE
  5
1a7
100
AcDbEntity
  8
Calque_1
 62
1
100
AcDbLine
 10
604.188893
 20
570.142730
 30
0.0
 11
609.039998
 21
570.142730
 31
0.0
  0
LINE
  5
1a8
100
AcDbEntity
  8
Calque_1
 62
1
100
AcDbLine
 10
609.039998
 20
570.142730
 30
0.0
 11
609.039998
 21
564.739890
 31
0.0
  0
SPLINE
  5
1a9
100
AcDbEntity
  8
Calque_1
 62
1
100
AcDbSpline
 70
8
 71
3
 72
8
 73
4
 74
0
 40
0
 40
0
 40
0
 40
0
 40
1
 40
1
 40
1
 40
1
 10
609.039998
 20
564.739890
 30
0.0
 10
628.779583
 20
562.255590
 30
0.0
 10
644.937035
 20
545.336000
 30
0.0
 10
644.955533
 20
525.264880
 30
0.0
  0
LINE
  5
1aa
100
AcDbEntity
  8
Calque_1
 62
1
100
AcDbLine
 10
644.955533
 20
525.264880
 30
0.0
 11
644.955533
 21
525.180280
 31
0.0
  0
LINE
  5
1ab
100
AcDbEntity
  8
Calque_1
 62
1
100
AcDbLine
 10
644.955533
 20
525.180280
 30
0.0
 11
644.955533
 21
525.180280
 31
0.0
  0
LINE
  5
1ac
100
AcDbEntity
  8
Calque_1
 62
1
100
AcDbLine
 10
644.955533
 20
525.180280
 30
0.0
 11
644.952467
 21
495.790370
 31
0.0
  0
LINE
  5
1ad
100
AcDbEntity
  8
Calque_1
 62
1
100
AcDbLine
 10
581.889306
 20
522.687370
 30
0.0
 11
602.525619
 21
480.516140
 31
0.0
  0
SPLINE
  5
1ae
100
AcDbEntity
  8
Calque_1
 62
1
100
AcDbSpline
 70
8
 71
3
 72
8
 73
4
 74
0
 40
0
 40
0
 40
0
 40
0
 40
1
 40
1
 40
1
 40
1
 10
602.525619
 20
480.516140
 30
0.0
 10
602.525619
 20
480.516140
 30
0.0
 10
610.074751
 20
467.373700
 30
0.0
 10
616.081987
 20
463.211620
 30
0.0
  0
SPLINE
  5
1af
100
AcDbEntity
  8
Calque_1
 62
1
100
AcDbSpline
 70
8
 71
3
 72
8
 73
4
 74
0
 40
0
 40
0
 40
0
 40
0
 40
1
 40
1
 40
1
 40
1
 10
616.081987
 20
463.211620
 30
0.0
 10
622.440593
 20
457.412940
 30
0.0
 10
629.338057
 20
456.248770
 30
0.0
 10
638.180001
 20
455.701800
 30
0.0
  0
LINE
  5
1b0
100
AcDbEntity
  8
Calque_1
 62
1
100
AcDbLine
 10
638.180001
 20
455.701800
 30
0.0
 11
638.180001
 21
465.468620
 31
0.0
  0
LINE
  5
1b1
100
AcDbEntity
  8
Calque_1
 62
1
100
AcDbLine
 10
638.180001
 20
465.468620
 30
0.0
 11
647.917999
 21
465.468620
 31
0.0
  0
LINE
  5
1b2
100
AcDbEntity
  8
Calque_1
 62
1
100
AcDbLine
 10
647.917999
 20
465.468620
 30
0.0
 11
647.917999
 21
455.701800
 31
0.0
  0
LINE
  5
1b3
100
AcDbEntity
  8
Calque_1
 62
1
100
AcDbLine
 10
647.917999
 20
455.701800
 30
0.0
 11
806.119970
 21
455.701800
 31
0.0
  0
LINE
  5
1b4
100
AcDbEntity
  8
Calque_1
 62
1
100
AcDbLine
 10
806.119970
 20
455.701800
 30
0.0
 11
806.119970
 21
465.468620
 31
0.0
  0
LINE
  5
1b5
100
AcDbEntity
  8
Calque_1
 62
1
100
AcDbLine
 10
806.119970
 20
465.468620
 30
0.0
 11
815.856960
 21
465.468620
 31
0.0
  0
LINE
  5
1b6
100
AcDbEntity
  8
Calque_1
 62
1
100
AcDbLine
 10
815.856960
 20
465.468620
 30
0.0
 11
815.856960
 21
455.701800
 31
0.0
  0
SPLINE
  5
1b7
100
AcDbEntity
  8
Calque_1
 62
1
100
AcDbSpline
 70
8
 71
3
 72
8
 73
4
 74
0
 40
0
 40
0
 40
0
 40
0
 40
1
 40
1
 40
1
 40
1
 10
815.856960
 20
455.701800
 30
0.0
 10
815.856960
 20
455.701800
 30
0.0
 10
825.545970
 20
455.859700
 30
0.0
 10
840.584790
 20
456.362540
 30
0.0
  0
SPLINE
  5
1b8
100
AcDbEntity
  8
Calque_1
 62
1
100
AcDbSpline
 70
8
 71
3
 72
8
 73
4
 74
0
 40
0
 40
0
 40
0
 40
0
 40
1
 40
1
 40
1
 40
1
 10
840.584790
 20
456.362540
 30
0.0
 10
848.495280
 20
456.627040
 30
0.0
 10
859.365220
 20
459.740210
 30
0.0
 10
871.529560
 20
463.691810
 30
0.0
  0
SPLINE
  5
1b9
100
AcDbEntity
  8
Calque_1
 62
1
100
AcDbSpline
 70
8
 71
3
 72
8
 73
4
 74
0
 40
0
 40
0
 40
0
 40
0
 40
1
 40
1
 40
1
 40
1
 10
871.529560
 20
463.691810
 30
0.0
 10
886.017180
 20
468.398070
 30
0.0
 10
891.399620
 20
474.110420
 30
0.0
 10
891.951020
 20
475.079850
 30
0.0
  0
SPLINE
  5
1ba
100
AcDbEntity
  8
Calque_1
 62
1
100
AcDbSpline
 70
8
 71
3
 72
8
 73
4
 74
0
 40
0
 40
0
 40
0
 40
0
 40
1
 40
1
 40
1
 40
1
 10
891.951020
 20
475.079850
 30
0.0
 10
893.689080
 20
478.134870
 30
0.0
 10
893.250360
 20
488.774420
 30
0.0
 10
893.250360
 20
488.774420
 30
0.0
  0
LINE
  5
1bb
100
AcDbEntity
  8
Calque_1
 62
1
100
AcDbLine
 10
893.250360
 20
488.774420
 30
0.0
 11
882.583010
 21
488.774420
 31
0.0
  0
LINE
  5
1bc
100
AcDbEntity
  8
Calque_1
 62
1
100
AcDbLine
 10
882.583010
 20
488.774420
 30
0.0
 11
882.583010
 21
478.946100
 31
0.0
  0
LINE
  5
1bd
100
AcDbEntity
  8
Calque_1
 62
1
100
AcDbLine
 10
882.583010
 20
478.946100
 30
0.0
 11
872.846020
 21
478.946100
 31
0.0
  0
LINE
  5
1be
100
AcDbEntity
  8
Calque_1
 62
1
100
AcDbLine
 10
872.846020
 20
478.946100
 30
0.0
 11
872.846020
 21
488.774420
 31
0.0
  0
LINE
  5
1bf
100
AcDbEntity
  8
Calque_1
 62
1
100
AcDbLine
 10
872.846020
 20
488.774420
 30
0.0
 11
863.018710
 21
488.774420
 31
0.0
  0
SPLINE
  5
1c0
100
AcDbEntity
  8
Calque_1
 62
1
100
AcDbSpline
 70
8
 71
3
 72
8
 73
4
 74
0
 40
0
 40
0
 40
0
 40
0
 40
1
 40
1
 40
1
 40
1
 10
863.018710
 20
488.774420
 30
0.0
 10
855.127410
 20
488.774420
 30
0.0
 10
860.534090
 20
489.827890
 30
0.0
 10
854.694420
 20
485.777140
 30
0.0
  0
SPLINE
  5
1c1
100
AcDbEntity
  8
Calque_1
 62
1
100
AcDbSpline
 70
8
 71
3
 72
8
 73
4
 74
0
 40
0
 40
0
 40
0
 40
0
 40
1
 40
1
 40
1
 40
1
 10
854.694420
 20
485.777140
 30
0.0
 10
850.713510
 20
481.700390
 30
0.0
 10
844.080590
 20
472.811000
 30
0.0
 10
830.592680
 20
471.997140
 30
0.0
  0
SPLINE
  5
1c2
100
AcDbEntity
  8
Calque_1
 62
1
100
AcDbSpline
 70
8
 71
3
 72
8
 73
4
 74
0
 40
0
 40
0
 40
0
 40
0
 40
1
 40
1
 40
1
 40
1
 10
830.592680
 20
471.997140
 30
0.0
 10
820.042850
 20
471.145550
 30
0.0
 10
814.063900
 20
470.581540
 30
0.0
 10
813.857550
 20
470.884570
 30
0.0
  0
LINE
  5
1c3
100
AcDbEntity
  8
Calque_1
 62
1
100
AcDbLine
 10
813.857550
 20
470.884570
 30
0.0
 11
629.258395
 21
470.789770
 31
0.0
  0
SPLINE
  5
1c4
100
AcDbEntity
  8
Calque_1
 62
1
100
AcDbSpline
 70
8
 71
3
 72
8
 73
4
 74
0
 40
0
 40
0
 40
0
 40
0
 40
1
 40
1
 40
1
 40
1
 10
629.258395
 20
470.789770
 30
0.0
 10
629.258395
 20
470.789770
 30
0.0
 10
620.756545
 20
482.054750
 30
0.0
 10
609.695188
 20
496.254350
 30
0.0
  0
SPLINE
  5
1c5
100
AcDbEntity
  8
Calque_1
 62
1
100
AcDbSpline
 70
8
 71
3
 72
8
 73
4
 74
0
 40
0
 40
0
 40
0
 40
0
 40
1
 40
1
 40
1
 40
1
 10
609.695188
 20
496.254350
 30
0.0
 10
601.701203
 20
508.067500
 30
0.0
 10
579.043420
 20
528.503050
 30
0.0
 10
581.889306
 20
522.687410
 30
0.0
  0
LINE
  5
1c6
100
AcDbEntity
  8
Calque_1
 62
1
100
AcDbLine
 10
581.889306
 20
522.687410
 30
0.0
 11
581.889306
 21
522.687370
 31
0.0
  0
LINE
  5
1c7
100
AcDbEntity
  8
Calque_1
 62
1
100
AcDbLine
 10
427.390290
 20
776.137315
 30
0.0
 11
897.290230
 21
776.137315
 31
0.0
  0
LINE
  5
1c8
100
AcDbEntity
  8
Calque_1
 62
1
100
AcDbLine
 10
897.290230
 20
776.137315
 30
0.0
 11
897.290230
 21
446.237760
 31
0.0
  0
LINE
  5
1c9
100
AcDbEntity
  8
Calque_1
 62
1
100
AcDbLine
 10
897.290230
 20
446.237760
 30
0.0
 11
427.390290
 21
446.237760
 31
0.0
  0
LINE
  5
1ca
100
AcDbEntity
  8
Calque_1
 62
1
100
AcDbLine
 10
427.390290
 20
446.237760
 30
0.0
 11
427.390290
 21
776.137315
 31
0.0
  0
SPLINE
  5
1cb
100
AcDbEntity
  8
Calque_1
 62
1
100
AcDbSpline
 70
8
 71
3
 72
8
 73
4
 74
0
 40
0
 40
0
 40
0
 40
0
 40
1
 40
1
 40
1
 40
1
 10
478.600447
 20
612.590891
 30
0.0
 10
479.522369
 20
612.602247
 30
0.0
 10
480.440810
 20
612.910271
 30
0.0
 10
481.207525
 20
613.512086
 30
0.0
  0
SPLINE
  5
1cc
100
AcDbEntity
  8
Calque_1
 62
1
100
AcDbSpline
 70
8
 71
3
 72
8
 73
4
 74
0
 40
0
 40
0
 40
0
 40
0
 40
1
 40
1
 40
1
 40
1
 10
481.207525
 20
613.512086
 30
0.0
 10
482.798169
 20
614.719651
 30
0.0
 10
483.393712
 20
616.849018
 30
0.0
 10
482.663404
 20
618.717367
 30
0.0
  0
SPLINE
  5
1cd
100
AcDbEntity
  8
Calque_1
 62
1
100
AcDbSpline
 70
8
 71
3
 72
8
 73
4
 74
0
 40
0
 40
0
 40
0
 40
0
 40
1
 40
1
 40
1
 40
1
 10
482.663404
 20
618.717367
 30
0.0
 10
480.857407
 20
623.231045
 30
0.0
 10
479.825846
 20
628.021983
 30
0.0
 10
479.613635
 20
632.884909
 30
0.0
  0
SPLINE
  5
1ce
100
AcDbEntity
  8
Calque_1
 62
1
100
AcDbSpline
 70
8
 71
3
 72
8
 73
4
 74
0
 40
0
 40
0
 40
0
 40
0
 40
1
 40
1
 40
1
 40
1
 10
479.613635
 20
632.884909
 30
0.0
 10
480.629753
 20
631.664747
 30
0.0
 10
481.778282
 20
630.563898
 30
0.0
 10
483.038124
 20
629.602483
 30
0.0
  0
SPLINE
  5
1cf
100
AcDbEntity
  8
Calque_1
 62
1
100
AcDbSpline
 70
8
 71
3
 72
8
 73
4
 74
0
 40
0
 40
0
 40
0
 40
0
 40
1
 40
1
 40
1
 40
1
 10
483.038124
 20
629.602483
 30
0.0
 10
484.541377
 20
628.461520
 30
0.0
 10
486.594605
 20
628.400438
 30
0.0
 10
488.161825
 20
629.450319
 30
0.0
  0
SPLINE
  5
1d0
100
AcDbEntity
  8
Calque_1
 62
1
100
AcDbSpline
 70
8
 71
3
 72
8
 73
4
 74
0
 40
0
 40
0
 40
0
 40
0
 40
1
 40
1
 40
1
 40
1
 10
488.161825
 20
629.450319
 30
0.0
 10
489.729358
 20
630.500228
 30
0.0
 10
490.470581
 20
632.432616
 30
0.0
 10
490.011818
 20
634.273422
 30
0.0
  0
SPLINE
  5
1d1
100
AcDbEntity
  8
Calque_1
 62
1
100
AcDbSpline
 70
8
 71
3
 72
8
 73
4
 74
0
 40
0
 40
0
 40
0
 40
0
 40
1
 40
1
 40
1
 40
1
 10
490.011818
 20
634.273422
 30
0.0
 10
488.422692
 20
640.581137
 30
0.0
 10
488.499981
 20
645.523366
 30
0.0
 10
490.233164
 20
648.210394
 30
0.0
  0
SPLINE
  5
1d2
100
AcDbEntity
  8
Calque_1
 62
1
100
AcDbSpline
 70
8
 71
3
 72
8
 73
4
 74
0
 40
0
 40
0
 40
0
 40
0
 40
1
 40
1
 40
1
 40
1
 10
490.233164
 20
648.210394
 30
0.0
 10
491.174376
 20
649.611398
 30
0.0
 10
492.678073
 20
650.523879
 30
0.0
 10
494.345719
 20
650.706808
 30
0.0
  0
SPLINE
  5
1d3
100
AcDbEntity
  8
Calque_1
 62
1
100
AcDbSpline
 70
8
 71
3
 72
8
 73
4
 74
0
 40
0
 40
0
 40
0
 40
0
 40
1
 40
1
 40
1
 40
1
 10
494.345719
 20
650.706808
 30
0.0
 10
506.047900
 20
652.363311
 30
0.0
 10
505.571680
 20
655.598624
 30
0.0
 10
511.993645
 20
643.561638
 30
0.0
  0
SPLINE
  5
1d4
100
AcDbEntity
  8
Calque_1
 62
1
100
AcDbSpline
 70
8
 71
3
 72
8
 73
4
 74
0
 40
0
 40
0
 40
0
 40
0
 40
1
 40
1
 40
1
 40
1
 10
511.993645
 20
643.561638
 30
0.0
 10
513.336980
 20
642.159340
 30
0.0
 10
515.430096
 20
641.803886
 30
0.0
 10
517.154145
 20
642.685839
 30
0.0
  0
SPLINE
  5
1d5
100
AcDbEntity
  8
Calque_1
 62
1
100
AcDbSpline
 70
8
 71
3
 72
8
 73
4
 74
0
 40
0
 40
0
 40
0
 40
0
 40
1
 40
1
 40
1
 40
1
 10
517.154145
 20
642.685839
 30
0.0
 10
518.877696
 20
643.517933
 30
0.0
 10
519.860470
 20
645.388711
 30
0.0
 10
519.575681
 20
647.294877
 30
0.0
  0
SPLINE
  5
1d6
100
AcDbEntity
  8
Calque_1
 62
1
100
AcDbSpline
 70
8
 71
3
 72
8
 73
4
 74
0
 40
0
 40
0
 40
0
 40
0
 40
1
 40
1
 40
1
 40
1
 10
519.575681
 20
647.294877
 30
0.0
 10
518.516900
 20
655.009142
 30
0.0
 10
519.352921
 20
660.599982
 30
0.0
 10
521.794271
 20
662.252629
 30
0.0
  0
SPLINE
  5
1d7
100
AcDbEntity
  8
Calque_1
 62
1
100
AcDbSpline
 70
8
 71
3
 72
8
 73
4
 74
0
 40
0
 40
0
 40
0
 40
0
 40
1
 40
1
 40
1
 40
1
 10
521.794271
 20
662.252629
 30
0.0
 10
524.609346
 20
664.352551
 30
0.0
 10
526.953723
 20
666.997537
 30
0.0
 10
528.710698
 20
670.009490
 30
0.0
  0
SPLINE
  5
1d8
100
AcDbEntity
  8
Calque_1
 62
1
100
AcDbSpline
 70
8
 71
3
 72
8
 73
4
 74
0
 40
0
 40
0
 40
0
 40
0
 40
1
 40
1
 40
1
 40
1
 10
528.710698
 20
670.009490
 30
0.0
 10
534.143660
 20
667.427409
 30
0.0
 10
540.072445
 20
666.080620
 30
0.0
 10
546.077996
 20
666.064775
 30
0.0
  0
SPLINE
  5
1d9
100
AcDbEntity
  8
Calque_1
 62
1
100
AcDbSpline
 70
8
 71
3
 72
8
 73
4
 74
0
 40
0
 40
0
 40
0
 40
0
 40
1
 40
1
 40
1
 40
1
 10
546.077996
 20
666.064775
 30
0.0
 10
546.119611
 20
666.064775
 30
0.0
 10
546.161122
 20
666.067680
 30
0.0
 10
546.202737
 20
666.067944
 30
0.0
  0
SPLINE
  5
1da
100
AcDbEntity
  8
Calque_1
 62
1
100
AcDbSpline
 70
8
 71
3
 72
8
 73
4
 74
0
 40
0
 40
0
 40
0
 40
0
 40
1
 40
1
 40
1
 40
1
 10
546.202737
 20
666.067944
 30
0.0
 10
546.244326
 20
666.067707
 30
0.0
 10
546.285863
 20
666.065304
 30
0.0
 10
546.327452
 20
666.065304
 30
0.0
  0
SPLINE
  5
1db
100
AcDbEntity
  8
Calque_1
 62
1
100
AcDbSpline
 70
8
 71
3
 72
8
 73
4
 74
0
 40
0
 40
0
 40
0
 40
0
 40
1
 40
1
 40
1
 40
1
 10
546.327452
 20
666.065304
 30
0.0
 10
552.333003
 20
666.081148
 30
0.0
 10
558.261788
 20
667.427937
 30
0.0
 10
563.694750
 20
670.010019
 30
0.0
  0
SPLINE
  5
1dc
100
AcDbEntity
  8
Calque_1
 62
1
100
AcDbSpline
 70
8
 71
3
 72
8
 73
4
 74
0
 40
0
 40
0
 40
0
 40
0
 40
1
 40
1
 40
1
 40
1
 10
563.694750
 20
670.010019
 30
0.0
 10
565.451724
 20
666.998065
 30
0.0
 10
567.796128
 20
664.353079
 30
0.0
 10
570.611203
 20
662.253157
 30
0.0
  0
SPLINE
  5
1dd
100
AcDbEntity
  8
Calque_1
 62
1
100
AcDbSpline
 70
8
 71
3
 72
8
 73
4
 74
0
 40
0
 40
0
 40
0
 40
0
 40
1
 40
1
 40
1
 40
1
 10
570.611203
 20
662.253157
 30
0.0
 10
573.052552
 20
660.600510
 30
0.0
 10
573.888548
 20
655.009696
 30
0.0
 10
572.829767
 20
647.295431
 30
0.0
  0
SPLINE
  5
1de
100
AcDbEntity
  8
Calque_1
 62
1
100
AcDbSpline
 70
8
 71
3
 72
8
 73
4
 74
0
 40
0
 40
0
 40
0
 40
0
 40
1
 40
1
 40
1
 40
1
 10
572.829767
 20
647.295431
 30
0.0
 10
572.544977
 20
645.389266
 30
0.0
 10
573.527751
 20
643.518461
 30
0.0
 10
575.251303
 20
642.686367
 30
0.0
  0
SPLINE
  5
1df
100
AcDbEntity
  8
Calque_1
 62
1
100
AcDbSpline
 70
8
 71
3
 72
8
 73
4
 74
0
 40
0
 40
0
 40
0
 40
0
 40
1
 40
1
 40
1
 40
1
 10
575.251303
 20
642.686367
 30
0.0
 10
576.975378
 20
641.804414
 30
0.0
 10
579.068468
 20
642.159868
 30
0.0
 10
580.411803
 20
643.562166
 30
0.0
  0
SPLINE
  5
1e0
100
AcDbEntity
  8
Calque_1
 62
1
100
AcDbSpline
 70
8
 71
3
 72
8
 73
4
 74
0
 40
0
 40
0
 40
0
 40
0
 40
1
 40
1
 40
1
 40
1
 10
580.411803
 20
643.562166
 30
0.0
 10
586.833768
 20
655.599152
 30
0.0
 10
586.357548
 20
652.363839
 30
0.0
 10
598.059729
 20
650.707336
 30
0.0
  0
SPLINE
  5
1e1
100
AcDbEntity
  8
Calque_1
 62
1
100
AcDbSpline
 70
8
 71
3
 72
8
 73
4
 74
0
 40
0
 40
0
 40
0
 40
0
 40
1
 40
1
 40
1
 40
1
 10
598.059729
 20
650.707336
 30
0.0
 10
599.727375
 20
650.524407
 30
0.0
 10
601.231072
 20
649.611927
 30
0.0
 10
602.172283
 20
648.210949
 30
0.0
  0
SPLINE
  5
1e2
100
AcDbEntity
  8
Calque_1
 62
1
100
AcDbSpline
 70
8
 71
3
 72
8
 73
4
 74
0
 40
0
 40
0
 40
0
 40
0
 40
1
 40
1
 40
1
 40
1
 10
602.172283
 20
648.210949
 30
0.0
 10
603.905467
 20
645.523868
 30
0.0
 10
603.982756
 20
640.581691
 30
0.0
 10
602.393629
 20
634.273950
 30
0.0
  0
SPLINE
  5
1e3
100
AcDbEntity
  8
Calque_1
 62
1
100
AcDbSpline
 70
8
 71
3
 72
8
 73
4
 74
0
 40
0
 40
0
 40
0
 40
0
 40
1
 40
1
 40
1
 40
1
 10
602.393629
 20
634.273950
 30
0.0
 10
601.934867
 20
632.433171
 30
0.0
 10
602.676116
 20
630.500756
 30
0.0
 10
604.243649
 20
629.450848
 30
0.0
  0
SPLINE
  5
1e4
100
AcDbEntity
  8
Calque_1
 62
1
100
AcDbSpline
 70
8
 71
3
 72
8
 73
4
 74
0
 40
0
 40
0
 40
0
 40
0
 40
1
 40
1
 40
1
 40
1
 10
604.243649
 20
629.450848
 30
0.0
 10
605.810869
 20
628.400966
 30
0.0
 10
607.864097
 20
628.462048
 30
0.0
 10
609.367350
 20
629.603011
 30
0.0
  0
SPLINE
  5
1e5
100
AcDbEntity
  8
Calque_1
 62
1
100
AcDbSpline
 70
8
 71
3
 72
8
 73
4
 74
0
 40
0
 40
0
 40
0
 40
0
 40
1
 40
1
 40
1
 40
1
 10
609.367350
 20
629.603011
 30
0.0
 10
610.627192
 20
630.564452
 30
0.0
 10
611.775695
 20
631.665275
 30
0.0
 10
612.791813
 20
632.885437
 30
0.0
  0
SPLINE
  5
1e6
100
AcDbEntity
  8
Calque_1
 62
1
100
AcDbSpline
 70
8
 71
3
 72
8
 73
4
 74
0
 40
0
 40
0
 40
0
 40
0
 40
1
 40
1
 40
1
 40
1
 10
612.791813
 20
632.885437
 30
0.0
 10
612.579602
 20
628.022511
 30
0.0
 10
611.548041
 20
623.231573
 30
0.0
 10
609.742044
 20
618.717895
 30
0.0
  0
SPLINE
  5
1e7
100
AcDbEntity
  8
Calque_1
 62
1
100
AcDbSpline
 70
8
 71
3
 72
8
 73
4
 74
0
 40
0
 40
0
 40
0
 40
0
 40
1
 40
1
 40
1
 40
1
 10
609.742044
 20
618.717895
 30
0.0
 10
609.011736
 20
616.849546
 30
0.0
 10
609.607279
 20
614.720205
 30
0.0
 10
611.197923
 20
613.512614
 30
0.0
  0
SPLINE
  5
1e8
100
AcDbEntity
  8
Calque_1
 62
1
100
AcDbSpline
 70
8
 71
3
 72
8
 73
4
 74
0
 40
0
 40
0
 40
0
 40
0
 40
1
 40
1
 40
1
 40
1
 10
611.197923
 20
613.512614
 30
0.0
 10
611.964638
 20
612.910799
 30
0.0
 10
612.883079
 20
612.602854
 30
0.0
 10
613.805000
 20
612.591419
 30
0.0
  0
LINE
  5
1e9
100
AcDbEntity
  8
Calque_1
 62
1
100
AcDbLine
 10
613.805000
 20
612.591419
 30
0.0
 11
613.805000
 21
612.591419
 31
0.0
  0
SPLINE
  5
1ea
100
AcDbEntity
  8
Calque_1
 62
1
100
AcDbSpline
 70
8
 71
3
 72
8
 73
4
 74
0
 40
0
 40
0
 40
0
 40
0
 40
1
 40
1
 40
1
 40
1
 10
613.805000
 20
612.591419
 30
0.0
 10
614.726922
 20
612.579800
 30
0.0
 10
615.652534
 20
612.864955
 30
0.0
 10
616.433566
 20
613.447624
 30
0.0
  0
SPLINE
  5
1eb
100
AcDbEntity
  8
Calque_1
 62
1
100
AcDbSpline
 70
8
 71
3
 72
8
 73
4
 74
0
 40
0
 40
0
 40
0
 40
0
 40
1
 40
1
 40
1
 40
1
 10
616.433566
 20
613.447624
 30
0.0
 10
621.112428
 20
616.918735
 30
0.0
 10
626.394292
 20
624.292177
 30
0.0
 10
625.009342
 20
639.505560
 30
0.0
  0
SPLINE
  5
1ec
100
AcDbEntity
  8
Calque_1
 62
1
100
AcDbSpline
 70
8
 71
3
 72
8
 73
4
 74
0
 40
0
 40
0
 40
0
 40
0
 40
1
 40
1
 40
1
 40
1
 10
625.009342
 20
639.505560
 30
0.0
 10
625.009342
 20
640.114611
 30
0.0
 10
624.818122
 20
654.483963
 30
0.0
 10
608.155299
 20
661.689925
 30
0.0
  0
SPLINE
  5
1ed
100
AcDbEntity
  8
Calque_1
 62
1
100
AcDbSpline
 70
8
 71
3
 72
8
 73
4
 74
0
 40
0
 40
0
 40
0
 40
0
 40
1
 40
1
 40
1
 40
1
 10
608.155299
 20
661.689925
 30
0.0
 10
603.751359
 20
663.545941
 30
0.0
 10
599.184099
 20
664.978530
 30
0.0
 10
594.513586
 20
665.968861
 30
0.0
  0
SPLINE
  5
1ee
100
AcDbEntity
  8
Calque_1
 62
1
100
AcDbSpline
 70
8
 71
3
 72
8
 73
4
 74
0
 40
0
 40
0
 40
0
 40
0
 40
1
 40
1
 40
1
 40
1
 10
594.513586
 20
665.968861
 30
0.0
 10
586.642757
 20
667.297428
 30
0.0
 10
579.371265
 20
671.040464
 30
0.0
 10
573.684999
 20
676.684807
 30
0.0
  0
SPLINE
  5
1ef
100
AcDbEntity
  8
Calque_1
 62
1
100
AcDbSpline
 70
8
 71
3
 72
8
 73
4
 74
0
 40
0
 40
0
 40
0
 40
0
 40
1
 40
1
 40
1
 40
1
 10
573.684999
 20
676.684807
 30
0.0
 10
573.886873
 20
676.860209
 30
0.0
 10
574.087228
 20
677.038280
 30
0.0
 10
574.285646
 20
677.217591
 30
0.0
  0
SPLINE
  5
1f0
100
AcDbEntity
  8
Calque_1
 62
1
100
AcDbSpline
 70
8
 71
3
 72
8
 73
4
 74
0
 40
0
 40
0
 40
0
 40
0
 40
1
 40
1
 40
1
 40
1
 10
574.285646
 20
677.217591
 30
0.0
 10
575.343485
 20
677.790779
 30
0.0
 10
576.312204
 20
678.519644
 30
0.0
 10
577.155502
 20
679.386464
 30
0.0
  0
SPLINE
  5
1f1
100
AcDbEntity
  8
Calque_1
 62
1
100
AcDbSpline
 70
8
 71
3
 72
8
 73
4
 74
0
 40
0
 40
0
 40
0
 40
0
 40
1
 40
1
 40
1
 40
1
 10
577.155502
 20
679.386464
 30
0.0
 10
581.332416
 20
675.866524
 30
0.0
 10
590.571864
 20
669.480456
 30
0.0
 10
601.138158
 20
671.047805
 30
0.0
  0
SPLINE
  5
1f2
100
AcDbEntity
  8
Calque_1
 62
1
100
AcDbSpline
 70
8
 71
3
 72
8
 73
4
 74
0
 40
0
 40
0
 40
0
 40
0
 40
1
 40
1
 40
1
 40
1
 10
601.138158
 20
671.047805
 30
0.0
 10
602.231016
 20
671.208156
 30
0.0
 10
603.040838
 20
672.155099
 30
0.0
 10
603.038247
 20
673.269284
 30
0.0
  0
SPLINE
  5
1f3
100
AcDbEntity
  8
Calque_1
 62
1
100
AcDbSpline
 70
8
 71
3
 72
8
 73
4
 74
0
 40
0
 40
0
 40
0
 40
0
 40
1
 40
1
 40
1
 40
1
 10
603.038247
 20
673.269284
 30
0.0
 10
602.865557
 20
678.862501
 30
0.0
 10
600.559208
 20
684.172015
 30
0.0
 10
596.601311
 20
688.092381
 30
0.0
  0
SPLINE
  5
1f4
100
AcDbEntity
  8
Calque_1
 62
1
100
AcDbSpline
 70
8
 71
3
 72
8
 73
4
 74
0
 40
0
 40
0
 40
0
 40
0
 40
1
 40
1
 40
1
 40
1
 10
596.601311
 20
688.092381
 30
0.0
 10
593.257827
 20
690.997435
 30
0.0
 10
589.130170
 20
692.779693
 30
0.0
 10
584.788130
 20
693.236818
 30
0.0
  0
SPLINE
  5
1f5
100
AcDbEntity
  8
Calque_1
 62
1
100
AcDbSpline
 70
8
 71
3
 72
8
 73
4
 74
0
 40
0
 40
0
 40
0
 40
0
 40
1
 40
1
 40
1
 40
1
 10
584.788130
 20
693.236818
 30
0.0
 10
586.455357
 20
697.784272
 30
0.0
 10
587.317421
 20
702.591398
 30
0.0
 10
587.334904
 20
707.439958
 30
0.0
  0
SPLINE
  5
1f6
100
AcDbEntity
  8
Calque_1
 62
1
100
AcDbSpline
 70
8
 71
3
 72
8
 73
4
 74
0
 40
0
 40
0
 40
0
 40
0
 40
1
 40
1
 40
1
 40
1
 10
587.334904
 20
707.439958
 30
0.0
 10
587.314489
 20
728.449240
 30
0.0
 10
571.701994
 20
746.060323
 30
0.0
 10
551.102003
 20
748.491191
 30
0.0
  0
LINE
  5
1f7
100
AcDbEntity
  8
Calque_1
 62
1
100
AcDbLine
 10
551.102003
 20
748.491191
 30
0.0
 11
551.102003
 21
738.906385
 31
0.0
  0
LINE
  5
1f8
100
AcDbEntity
  8
Calque_1
 62
1
100
AcDbLine
 10
551.102003
 20
738.906385
 30
0.0
 11
546.202737
 21
738.906385
 31
0.0
  0
LINE
  5
1f9
100
AcDbEntity
  8
Calque_1
 62
1
100
AcDbLine
 10
546.202737
 20
738.906385
 30
0.0
 11
541.303000
 21
738.906385
 31
0.0
  0
LINE
  5
1fa
100
AcDbEntity
  8
Calque_1
 62
1
100
AcDbLine
 10
541.303000
 20
738.906385
 30
0.0
 11
541.303000
 21
748.491191
 31
0.0
  0
SPLINE
  5
1fb
100
AcDbEntity
  8
Calque_1
 62
1
100
AcDbSpline
 70
8
 71
3
 72
8
 73
4
 74
0
 40
0
 40
0
 40
0
 40
0
 40
1
 40
1
 40
1
 40
1
 10
541.303000
 20
748.491191
 30
0.0
 10
520.703009
 20
746.060323
 30
0.0
 10
505.090958
 20
728.449240
 30
0.0
 10
505.070570
 20
707.439958
 30
0.0
  0
SPLINE
  5
1fc
100
AcDbEntity
  8
Calque_1
 62
1
100
AcDbSpline
 70
8
 71
3
 72
8
 73
4
 74
0
 40
0
 40
0
 40
0
 40
0
 40
1
 40
1
 40
1
 40
1
 10
505.070570
 20
707.439958
 30
0.0
 10
505.088106
 20
702.591398
 30
0.0
 10
505.950117
 20
697.784272
 30
0.0
 10
507.617318
 20
693.236818
 30
0.0
  0
SPLINE
  5
1fd
100
AcDbEntity
  8
Calque_1
 62
1
100
AcDbSpline
 70
8
 71
3
 72
8
 73
4
 74
0
 40
0
 40
0
 40
0
 40
0
 40
1
 40
1
 40
1
 40
1
 10
507.617318
 20
693.236818
 30
0.0
 10
503.275304
 20
692.779693
 30
0.0
 10
499.147647
 20
690.997435
 30
0.0
 10
495.804163
 20
688.092381
 30
0.0
  0
SPLINE
  5
1fe
100
AcDbEntity
  8
Calque_1
 62
1
100
AcDbSpline
 70
8
 71
3
 72
8
 73
4
 74
0
 40
0
 40
0
 40
0
 40
0
 40
1
 40
1
 40
1
 40
1
 10
495.804163
 20
688.092381
 30
0.0
 10
491.846266
 20
684.172015
 30
0.0
 10
489.539891
 20
678.862501
 30
0.0
 10
489.367201
 20
673.269284
 30
0.0
  0
SPLINE
  5
1ff
100
AcDbEntity
  8
Calque_1
 62
1
100
AcDbSpline
 70
8
 71
3
 72
8
 73
4
 74
0
 40
0
 40
0
 40
0
 40
0
 40
1
 40
1
 40
1
 40
1
 10
489.367201
 20
673.269284
 30
0.0
 10
489.364584
 20
672.155099
 30
0.0
 10
490.174458
 20
671.208156
 30
0.0
 10
491.267316
 20
671.047805
 30
0.0
  0
SPLINE
  5
200
100
AcDbEntity
  8
Calque_1
 62
1
100
AcDbSpline
 70
8
 71
3
 72
8
 73
4
 74
0
 40
0
 40
0
 40
0
 40
0
 40
1
 40
1
 40
1
 40
1
 10
491.267316
 20
671.047805
 30
0.0
 10
501.833584
 20
669.480456
 30
0.0
 10
511.073032
 20
675.866551
 30
0.0
 10
515.249972
 20
679.386464
 30
0.0
  0
SPLINE
  5
201
100
AcDbEntity
  8
Calque_1
 62
1
100
AcDbSpline
 70
8
 71
3
 72
8
 73
4
 74
0
 40
0
 40
0
 40
0
 40
0
 40
1
 40
1
 40
1
 40
1
 10
515.249972
 20
679.386464
 30
0.0
 10
516.093244
 20
678.519670
 30
0.0
 10
517.061963
 20
677.790806
 30
0.0
 10
518.119802
 20
677.217591
 30
0.0
  0
SPLINE
  5
202
100
AcDbEntity
  8
Calque_1
 62
1
100
AcDbSpline
 70
8
 71
3
 72
8
 73
4
 74
0
 40
0
 40
0
 40
0
 40
0
 40
1
 40
1
 40
1
 40
1
 10
518.119802
 20
677.217591
 30
0.0
 10
518.318220
 20
677.038306
 30
0.0
 10
518.518575
 20
676.860209
 30
0.0
 10
518.720448
 20
676.684807
 30
0.0
  0
SPLINE
  5
203
100
AcDbEntity
  8
Calque_1
 62
1
100
AcDbSpline
 70
8
 71
3
 72
8
 73
4
 74
0
 40
0
 40
0
 40
0
 40
0
 40
1
 40
1
 40
1
 40
1
 10
518.720448
 20
676.684807
 30
0.0
 10
513.034183
 20
671.040438
 30
0.0
 10
505.762691
 20
667.297428
 30
0.0
 10
497.891861
 20
665.968861
 30
0.0
  0
SPLINE
  5
204
100
AcDbEntity
  8
Calque_1
 62
1
100
AcDbSpline
 70
8
 71
3
 72
8
 73
4
 74
0
 40
0
 40
0
 40
0
 40
0
 40
1
 40
1
 40
1
 40
1
 10
497.891861
 20
665.968861
 30
0.0
 10
493.221348
 20
664.978530
 30
0.0
 10
488.654088
 20
663.545941
 30
0.0
 10
484.250149
 20
661.689925
 30
0.0
  0
SPLINE
  5
205
100
AcDbEntity
  8
Calque_1
 62
1
100
AcDbSpline
 70
8
 71
3
 72
8
 73
4
 74
0
 40
0
 40
0
 40
0
 40
0
 40
1
 40
1
 40
1
 40
1
 10
484.250149
 20
661.689925
 30
0.0
 10
467.587326
 20
654.483963
 30
0.0
 10
467.396105
 20
640.114611
 30
0.0
 10
467.396105
 20
639.505560
 30
0.0
  0
SPLINE
  5
206
100
AcDbEntity
  8
Calque_1
 62
1
100
AcDbSpline
 70
8
 71
3
 72
8
 73
4
 74
0
 40
0
 40
0
 40
0
 40
0
 40
1
 40
1
 40
1
 40
1
 10
467.396105
 20
639.505560
 30
0.0
 10
466.011155
 20
624.292177
 30
0.0
 10
471.293020
 20
616.918735
 30
0.0
 10
475.971882
 20
613.447624
 30
0.0
  0
SPLINE
  5
207
100
AcDbEntity
  8
Calque_1
 62
1
100
AcDbSpline
 70
8
 71
3
 72
8
 73
4
 74
0
 40
0
 40
0
 40
0
 40
0
 40
1
 40
1
 40
1
 40
1
 10
475.971882
 20
613.447624
 30
0.0
 10
476.752914
 20
612.864955
 30
0.0
 10
477.678526
 20
612.579826
 30
0.0
 10
478.600447
 20
612.591419
 30
0.0
  0
LINE
  5
208
100
AcDbEntity
  8
Calque_1
 62
1
100
AcDbLine
 10
478.600447
 20
612.591419
 30
0.0
 11
478.600447
 21
612.590891
 31
0.0
  0
SPLINE
  5
209
100
AcDbEntity
  8
Calque_1
 62
1
100
AcDbSpline
 70
8
 71
3
 72
8
 73
4
 74
0
 40
0
 40
0
 40
0
 40
0
 40
1
 40
1
 40
1
 40
1
 10
528.357402
 20
708.683480
 30
0.0
 10
528.357411
 20
718.655413
 30
0.0
 10
536.369274
 20
726.739256
 30
0.0
 10
546.252405
 20
726.739255
 30
0.0
  0
SPLINE
  5
20a
100
AcDbEntity
  8
Calque_1
 62
1
100
AcDbSpline
 70
8
 71
3
 72
8
 73
4
 74
0
 40
0
 40
0
 40
0
 40
0
 40
1
 40
1
 40
1
 40
1
 10
546.252405
 20
726.739255
 30
0.0
 10
556.135534
 20
726.739254
 30
0.0
 10
564.147395
 20
718.655411
 30
0.0
 10
564.147404
 20
708.683480
 30
0.0
  0
SPLINE
  5
20b
100
AcDbEntity
  8
Calque_1
 62
1
100
AcDbSpline
 70
8
 71
3
 72
8
 73
4
 74
0
 40
0
 40
0
 40
0
 40
0
 40
1
 40
1
 40
1
 40
1
 10
564.147404
 20
708.683480
 30
0.0
 10
564.147408
 20
703.894784
 30
0.0
 10
562.262049
 20
699.302220
 30
0.0
 10
558.906085
 20
695.916099
 30
0.0
  0
SPLINE
  5
20c
100
AcDbEntity
  8
Calque_1
 62
1
100
AcDbSpline
 70
8
 71
3
 72
8
 73
4
 74
0
 40
0
 40
0
 40
0
 40
0
 40
1
 40
1
 40
1
 40
1
 10
558.906085
 20
695.916099
 30
0.0
 10
555.550121
 20
692.529978
 30
0.0
 10
550.998456
 20
690.627675
 30
0.0
 10
546.252405
 20
690.627675
 30
0.0
  0
SPLINE
  5
20d
100
AcDbEntity
  8
Calque_1
 62
1
100
AcDbSpline
 70
8
 71
3
 72
8
 73
4
 74
0
 40
0
 40
0
 40
0
 40
0
 40
1
 40
1
 40
1
 40
1
 10
546.252405
 20
690.627675
 30
0.0
 10
541.506353
 20
690.627674
 30
0.0
 10
536.954687
 20
692.529977
 30
0.0
 10
533.598722
 20
695.916098
 30
0.0
  0
SPLINE
  5
20e
100
AcDbEntity
  8
Calque_1
 62
1
100
AcDbSpline
 70
8
 71
3
 72
8
 73
4
 74
0
 40
0
 40
0
 40
0
 40
0
 40
1
 40
1
 40
1
 40
1
 10
533.598722
 20
695.916098
 30
0.0
 10
530.242758
 20
699.302219
 30
0.0
 10
528.357398
 20
703.894784
 30
0.0
 10
528.357402
 20
708.683480
 30
0.0
  0
LINE
  5
20f
100
AcDbEntity
  8
Calque_1
 62
1
100
AcDbLine
 10
528.357402
 20
708.683480
 30
0.0
 11
528.357402
 21
708.683480
 31
0.0
  0
LINE
  5
210
100
AcDbEntity
  8
Calque_1
 62
1
100
AcDbLine
 10
449.752870
 20
703.339350
 30
0.0
 11
470.389184
 21
745.510583
 31
0.0
  0
SPLINE
  5
211
100
AcDbEntity
  8
Calque_1
 62
1
100
AcDbSpline
 70
8
 71
3
 72
8
 73
4
 74
0
 40
0
 40
0
 40
0
 40
0
 40
1
 40
1
 40
1
 40
1
 10
470.389184
 20
745.510583
 30
0.0
 10
470.389184
 20
745.510583
 30
0.0
 10
477.938317
 20
758.653001
 30
0.0
 10
483.945552
 20
762.815089
 30
0.0
  0
SPLINE
  5
212
100
AcDbEntity
  8
Calque_1
 62
1
100
AcDbSpline
 70
8
 71
3
 72
8
 73
4
 74
0
 40
0
 40
0
 40
0
 40
0
 40
1
 40
1
 40
1
 40
1
 10
483.945552
 20
762.815089
 30
0.0
 10
490.304168
 20
768.613767
 30
0.0
 10
497.202057
 20
769.777954
 30
0.0
 10
506.044001
 20
770.324914
 30
0.0
  0
LINE
  5
213
100
AcDbEntity
  8
Calque_1
 62
1
100
AcDbLine
 10
506.044001
 20
770.324914
 30
0.0
 11
506.044001
 21
760.558080
 31
0.0
  0
LINE
  5
214
100
AcDbEntity
  8
Calque_1
 62
1
100
AcDbLine
 10
506.044001
 20
760.558080
 30
0.0
 11
515.781001
 21
760.558080
 31
0.0
  0
LINE
  5
215
100
AcDbEntity
  8
Calque_1
 62
1
100
AcDbLine
 10
515.781001
 20
760.558080
 30
0.0
 11
515.781001
 21
770.324914
 31
0.0
  0
LINE
  5
216
100
AcDbEntity
  8
Calque_1
 62
1
100
AcDbLine
 10
515.781001
 20
770.324914
 30
0.0
 11
673.984000
 21
770.324914
 31
0.0
  0
LINE
  5
217
100
AcDbEntity
  8
Calque_1
 62
1
100
AcDbLine
 10
673.984000
 20
770.324914
 30
0.0
 11
673.984000
 21
760.558080
 31
0.0
  0
LINE
  5
218
100
AcDbEntity
  8
Calque_1
 62
1
100
AcDbLine
 10
673.984000
 20
760.558080
 30
0.0
 11
683.721000
 21
760.558080
 31
0.0
  0
LINE
  5
219
100
AcDbEntity
  8
Calque_1
 62
1
100
AcDbLine
 10
683.721000
 20
760.558080
 30
0.0
 11
683.721000
 21
770.324914
 31
0.0
  0
SPLINE
  5
21a
100
AcDbEntity
  8
Calque_1
 62
1
100
AcDbSpline
 70
8
 71
3
 72
8
 73
4
 74
0
 40
0
 40
0
 40
0
 40
0
 40
1
 40
1
 40
1
 40
1
 10
683.721000
 20
770.324914
 30
0.0
 10
683.721000
 20
770.324914
 30
0.0
 10
693.409600
 20
770.167014
 30
0.0
 10
708.447820
 20
769.664170
 30
0.0
  0
SPLINE
  5
21b
100
AcDbEntity
  8
Calque_1
 62
1
100
AcDbSpline
 70
8
 71
3
 72
8
 73
4
 74
0
 40
0
 40
0
 40
0
 40
0
 40
1
 40
1
 40
1
 40
1
 10
708.447820
 20
769.664170
 30
0.0
 10
716.358310
 20
769.399673
 30
0.0
 10
727.228250
 20
766.286491
 30
0.0
 10
739.392590
 20
762.334902
 30
0.0
  0
SPLINE
  5
21c
100
AcDbEntity
  8
Calque_1
 62
1
100
AcDbSpline
 70
8
 71
3
 72
8
 73
4
 74
0
 40
0
 40
0
 40
0
 40
0
 40
1
 40
1
 40
1
 40
1
 10
739.392590
 20
762.334902
 30
0.0
 10
753.880060
 20
757.628648
 30
0.0
 10
759.262310
 20
751.916307
 30
0.0
 10
759.813700
 20
750.946850
 30
0.0
  0
SPLINE
  5
21d
100
AcDbEntity
  8
Calque_1
 62
1
100
AcDbSpline
 70
8
 71
3
 72
8
 73
4
 74
0
 40
0
 40
0
 40
0
 40
0
 40
1
 40
1
 40
1
 40
1
 10
759.813700
 20
750.946850
 30
0.0
 10
761.551660
 20
747.891857
 30
0.0
 10
761.112940
 20
737.252282
 30
0.0
 10
761.112940
 20
737.252282
 30
0.0
  0
LINE
  5
21e
100
AcDbEntity
  8
Calque_1
 62
1
100
AcDbLine
 10
761.112940
 20
737.252282
 30
0.0
 11
750.445990
 21
737.252282
 31
0.0
  0
LINE
  5
21f
100
AcDbEntity
  8
Calque_1
 62
1
100
AcDbLine
 10
750.445990
 20
737.252282
 30
0.0
 11
750.445990
 21
747.080599
 31
0.0
  0
LINE
  5
220
100
AcDbEntity
  8
Calque_1
 62
1
100
AcDbLine
 10
750.445990
 20
747.080599
 30
0.0
 11
740.709000
 21
747.080599
 31
0.0
  0
LINE
  5
221
100
AcDbEntity
  8
Calque_1
 62
1
100
AcDbLine
 10
740.709000
 20
747.080599
 30
0.0
 11
740.709000
 21
737.252282
 31
0.0
  0
LINE
  5
222
100
AcDbEntity
  8
Calque_1
 62
1
100
AcDbLine
 10
740.709000
 20
737.252282
 30
0.0
 11
730.881740
 21
737.252282
 31
0.0
  0
SPLINE
  5
223
100
AcDbEntity
  8
Calque_1
 62
1
100
AcDbSpline
 70
8
 71
3
 72
8
 73
4
 74
0
 40
0
 40
0
 40
0
 40
0
 40
1
 40
1
 40
1
 40
1
 10
730.881740
 20
737.252282
 30
0.0
 10
722.990440
 20
737.252282
 30
0.0
 10
728.397120
 20
736.198824
 30
0.0
 10
722.557460
 20
740.249584
 30
0.0
  0
SPLINE
  5
224
100
AcDbEntity
  8
Calque_1
 62
1
100
AcDbSpline
 70
8
 71
3
 72
8
 73
4
 74
0
 40
0
 40
0
 40
0
 40
0
 40
1
 40
1
 40
1
 40
1
 10
722.557460
 20
740.249584
 30
0.0
 10
718.576540
 20
744.326334
 30
0.0
 10
711.943620
 20
753.215717
 30
0.0
 10
698.456000
 20
754.029570
 30
0.0
  0
SPLINE
  5
225
100
AcDbEntity
  8
Calque_1
 62
1
100
AcDbSpline
 70
8
 71
3
 72
8
 73
4
 74
0
 40
0
 40
0
 40
0
 40
0
 40
1
 40
1
 40
1
 40
1
 10
698.456000
 20
754.029570
 30
0.0
 10
687.906470
 20
754.881151
 30
0.0
 10
681.927620
 20
755.445179
 30
0.0
 10
681.721270
 20
755.142155
 30
0.0
  0
LINE
  5
226
100
AcDbEntity
  8
Calque_1
 62
1
100
AcDbLine
 10
681.721270
 20
755.142155
 30
0.0
 11
497.122069
 21
755.236975
 31
0.0
  0
SPLINE
  5
227
100
AcDbEntity
  8
Calque_1
 62
1
100
AcDbSpline
 70
8
 71
3
 72
8
 73
4
 74
0
 40
0
 40
0
 40
0
 40
0
 40
1
 40
1
 40
1
 40
1
 10
497.122069
 20
755.236975
 30
0.0
 10
497.122069
 20
755.236975
 30
0.0
 10
488.620120
 20
743.971999
 30
0.0
 10
477.558753
 20
729.772391
 30
0.0
  0
SPLINE
  5
228
100
AcDbEntity
  8
Calque_1
 62
1
100
AcDbSpline
 70
8
 71
3
 72
8
 73
4
 74
0
 40
0
 40
0
 40
0
 40
0
 40
1
 40
1
 40
1
 40
1
 10
477.558753
 20
729.772391
 30
0.0
 10
469.564768
 20
717.959250
 30
0.0
 10
446.906980
 20
697.523690
 30
0.0
 10
449.752870
 20
703.339340
 30
0.0
  0
LINE
  5
229
100
AcDbEntity
  8
Calque_1
 62
1
100
AcDbLine
 10
449.752870
 20
703.339340
 30
0.0
 11
449.752870
 21
703.339350
 31
0.0
  0
LINE
  5
22a
100
AcDbEntity
  8
Calque_1
 62
7
100
AcDbLine
 10
796.829930
 20
763.254056
 30
0.0
 11
796.829930
 21
759.388659
 31
0.0
  0
LINE
  5
22b
100
AcDbEntity
  8
Calque_1
 62
7
100
AcDbLine
 10
796.829930
 20
759.388659
 30
0.0
 11
798.580040
 21
759.388659
 31
0.0
  0
SPLINE
  5
22c
100
AcDbEntity
  8
Calque_1
 62
7
100
AcDbSpline
 70
8
 71
3
 72
8
 73
4
 74
0
 40
0
 40
0
 40
0
 40
0
 40
1
 40
1
 40
1
 40
1
 10
798.580040
 20
759.388659
 30
0.0
 10
799.227720
 20
759.388659
 30
0.0
 10
799.728407
 20
759.556320
 30
0.0
 10
800.082100
 20
759.891643
 30
0.0
  0
SPLINE
  5
22d
100
AcDbEntity
  8
Calque_1
 62
7
100
AcDbSpline
 70
8
 71
3
 72
8
 73
4
 74
0
 40
0
 40
0
 40
0
 40
0
 40
1
 40
1
 40
1
 40
1
 10
800.082100
 20
759.891643
 30
0.0
 10
800.435800
 20
760.226966
 30
0.0
 10
800.612650
 20
760.704685
 30
0.0
 10
800.612650
 20
761.324802
 30
0.0
  0
SPLINE
  5
22e
100
AcDbEntity
  8
Calque_1
 62
7
100
AcDbSpline
 70
8
 71
3
 72
8
 73
4
 74
0
 40
0
 40
0
 40
0
 40
0
 40
1
 40
1
 40
1
 40
1
 10
800.612650
 20
761.324802
 30
0.0
 10
800.612650
 20
761.940326
 30
0.0
 10
800.435800
 20
762.415749
 30
0.0
 10
800.082100
 20
762.751072
 30
0.0
  0
SPLINE
  5
22f
100
AcDbEntity
  8
Calque_1
 62
7
100
AcDbSpline
 70
8
 71
3
 72
8
 73
4
 74
0
 40
0
 40
0
 40
0
 40
0
 40
1
 40
1
 40
1
 40
1
 10
800.082100
 20
762.751072
 30
0.0
 10
799.728407
 20
763.086395
 30
0.0
 10
799.227720
 20
763.254056
 30
0.0
 10
798.580040
 20
763.254056
 30
0.0
  0
LINE
  5
230
100
AcDbEntity
  8
Calque_1
 62
7
100
AcDbLine
 10
798.580040
 20
763.254056
 30
0.0
 11
796.829930
 21
763.254056
 31
0.0
  0
LINE
  5
231
100
AcDbEntity
  8
Calque_1
 62
7
100
AcDbLine
 10
795.438110
 20
764.397828
 30
0.0
 11
798.580040
 21
764.397828
 31
0.0
  0
SPLINE
  5
232
100
AcDbEntity
  8
Calque_1
 62
7
100
AcDbSpline
 70
8
 71
3
 72
8
 73
4
 74
0
 40
0
 40
0
 40
0
 40
0
 40
1
 40
1
 40
1
 40
1
 10
798.580040
 20
764.397828
 30
0.0
 10
799.733000
 20
764.397828
 30
0.0
 10
800.603460
 20
764.136001
 30
0.0
 10
801.191420
 20
763.612346
 30
0.0
  0
SPLINE
  5
233
100
AcDbEntity
  8
Calque_1
 62
7
100
AcDbSpline
 70
8
 71
3
 72
8
 73
4
 74
0
 40
0
 40
0
 40
0
 40
0
 40
1
 40
1
 40
1
 40
1
 10
801.191420
 20
763.612346
 30
0.0
 10
801.783980
 20
763.093285
 30
0.0
 10
802.080260
 20
762.330770
 30
0.0
 10
802.080260
 20
761.324802
 30
0.0
  0
SPLINE
  5
234
100
AcDbEntity
  8
Calque_1
 62
7
100
AcDbSpline
 70
8
 71
3
 72
8
 73
4
 74
0
 40
0
 40
0
 40
0
 40
0
 40
1
 40
1
 40
1
 40
1
 10
802.080260
 20
761.324802
 30
0.0
 10
802.080260
 20
760.309647
 30
0.0
 10
801.783980
 20
759.542540
 30
0.0
 10
801.191420
 20
759.023479
 30
0.0
  0
SPLINE
  5
235
100
AcDbEntity
  8
Calque_1
 62
7
100
AcDbSpline
 70
8
 71
3
 72
8
 73
4
 74
0
 40
0
 40
0
 40
0
 40
0
 40
1
 40
1
 40
1
 40
1
 10
801.191420
 20
759.023479
 30
0.0
 10
800.603460
 20
758.504418
 30
0.0
 10
799.733000
 20
758.244887
 30
0.0
 10
798.580040
 20
758.244887
 30
0.0
  0
LINE
  5
236
100
AcDbEntity
  8
Calque_1
 62
7
100
AcDbLine
 10
798.580040
 20
758.244887
 30
0.0
 11
796.829930
 21
758.244887
 31
0.0
  0
LINE
  5
237
100
AcDbEntity
  8
Calque_1
 62
7
100
AcDbLine
 10
796.829930
 20
758.244887
 30
0.0
 11
796.829930
 21
754.110773
 31
0.0
  0
LINE
  5
238
100
AcDbEntity
  8
Calque_1
 62
7
100
AcDbLine
 10
796.829930
 20
754.110773
 30
0.0
 11
795.438110
 21
754.110773
 31
0.0
  0
LINE
  5
239
100
AcDbEntity
  8
Calque_1
 62
7
100
AcDbLine
 10
795.438110
 20
754.110773
 30
0.0
 11
795.438110
 21
764.397828
 31
0.0
  0
SPLINE
  5
23a
100
AcDbEntity
  8
Calque_1
 62
7
100
AcDbSpline
 70
8
 71
3
 72
8
 73
4
 74
0
 40
0
 40
0
 40
0
 40
0
 40
1
 40
1
 40
1
 40
1
 10
806.393520
 20
760.938952
 30
0.0
 10
805.713687
 20
760.938952
 30
0.0
 10
805.176250
 20
760.672531
 30
0.0
 10
804.781210
 20
760.139690
 30
0.0
  0
SPLINE
  5
23b
100
AcDbEntity
  8
Calque_1
 62
7
100
AcDbSpline
 70
8
 71
3
 72
8
 73
4
 74
0
 40
0
 40
0
 40
0
 40
0
 40
1
 40
1
 40
1
 40
1
 10
804.781210
 20
760.139690
 30
0.0
 10
804.386177
 20
759.611442
 30
0.0
 10
804.188660
 20
758.885675
 30
0.0
 10
804.188660
 20
757.962389
 30
0.0
  0
SPLINE
  5
23c
100
AcDbEntity
  8
Calque_1
 62
7
100
AcDbSpline
 70
8
 71
3
 72
8
 73
4
 74
0
 40
0
 40
0
 40
0
 40
0
 40
1
 40
1
 40
1
 40
1
 10
804.188660
 20
757.962389
 30
0.0
 10
804.188660
 20
757.039104
 30
0.0
 10
804.383880
 20
756.311040
 30
0.0
 10
804.774320
 20
755.778199
 30
0.0
  0
SPLINE
  5
23d
100
AcDbEntity
  8
Calque_1
 62
7
100
AcDbSpline
 70
8
 71
3
 72
8
 73
4
 74
0
 40
0
 40
0
 40
0
 40
0
 40
1
 40
1
 40
1
 40
1
 10
804.774320
 20
755.778199
 30
0.0
 10
805.169360
 20
755.249951
 30
0.0
 10
805.709093
 20
754.985827
 30
0.0
 10
806.393520
 20
754.985827
 30
0.0
  0
SPLINE
  5
23e
100
AcDbEntity
  8
Calque_1
 62
7
100
AcDbSpline
 70
8
 71
3
 72
8
 73
4
 74
0
 40
0
 40
0
 40
0
 40
0
 40
1
 40
1
 40
1
 40
1
 10
806.393520
 20
754.985827
 30
0.0
 10
807.068753
 20
754.985827
 30
0.0
 10
807.603890
 20
755.252248
 30
0.0
 10
807.998930
 20
755.785089
 30
0.0
  0
SPLINE
  5
23f
100
AcDbEntity
  8
Calque_1
 62
7
100
AcDbSpline
 70
8
 71
3
 72
8
 73
4
 74
0
 40
0
 40
0
 40
0
 40
0
 40
1
 40
1
 40
1
 40
1
 10
807.998930
 20
755.785089
 30
0.0
 10
808.393970
 20
756.317930
 30
0.0
 10
808.591490
 20
757.043697
 30
0.0
 10
808.591490
 20
757.962389
 30
0.0
  0
SPLINE
  5
240
100
AcDbEntity
  8
Calque_1
 62
7
100
AcDbSpline
 70
8
 71
3
 72
8
 73
4
 74
0
 40
0
 40
0
 40
0
 40
0
 40
1
 40
1
 40
1
 40
1
 10
808.591490
 20
757.962389
 30
0.0
 10
808.591490
 20
758.876488
 30
0.0
 10
808.393970
 20
759.599958
 30
0.0
 10
807.998930
 20
760.132799
 30
0.0
  0
SPLINE
  5
241
100
AcDbEntity
  8
Calque_1
 62
7
100
AcDbSpline
 70
8
 71
3
 72
8
 73
4
 74
0
 40
0
 40
0
 40
0
 40
0
 40
1
 40
1
 40
1
 40
1
 10
807.998930
 20
760.132799
 30
0.0
 10
807.603890
 20
760.670234
 30
0.0
 10
807.068753
 20
760.938952
 30
0.0
 10
806.393520
 20
760.938952
 30
0.0
  0
LINE
  5
242
100
AcDbEntity
  8
Calque_1
 62
7
100
AcDbLine
 10
806.393520
 20
760.938952
 30
0.0
 11
806.393520
 21
760.938952
 31
0.0
  0
SPLINE
  5
243
100
AcDbEntity
  8
Calque_1
 62
7
100
AcDbSpline
 70
8
 71
3
 72
8
 73
4
 74
0
 40
0
 40
0
 40
0
 40
0
 40
1
 40
1
 40
1
 40
1
 10
806.393520
 20
762.013822
 30
0.0
 10
807.495947
 20
762.013822
 30
0.0
 10
808.361813
 20
761.655532
 30
0.0
 10
808.991120
 20
760.938952
 30
0.0
  0
SPLINE
  5
244
100
AcDbEntity
  8
Calque_1
 62
7
100
AcDbSpline
 70
8
 71
3
 72
8
 73
4
 74
0
 40
0
 40
0
 40
0
 40
0
 40
1
 40
1
 40
1
 40
1
 10
808.991120
 20
760.938952
 30
0.0
 10
809.620420
 20
760.222372
 30
0.0
 10
809.935070
 20
759.230184
 30
0.0
 10
809.935070
 20
757.962389
 30
0.0
  0
SPLINE
  5
245
100
AcDbEntity
  8
Calque_1
 62
7
100
AcDbSpline
 70
8
 71
3
 72
8
 73
4
 74
0
 40
0
 40
0
 40
0
 40
0
 40
1
 40
1
 40
1
 40
1
 10
809.935070
 20
757.962389
 30
0.0
 10
809.935070
 20
756.699188
 30
0.0
 10
809.620420
 20
755.707000
 30
0.0
 10
808.991120
 20
754.985827
 30
0.0
  0
SPLINE
  5
246
100
AcDbEntity
  8
Calque_1
 62
7
100
AcDbSpline
 70
8
 71
3
 72
8
 73
4
 74
0
 40
0
 40
0
 40
0
 40
0
 40
1
 40
1
 40
1
 40
1
 10
808.991120
 20
754.985827
 30
0.0
 10
808.361813
 20
754.269247
 30
0.0
 10
807.495947
 20
753.910957
 30
0.0
 10
806.393520
 20
753.910957
 30
0.0
  0
SPLINE
  5
247
100
AcDbEntity
  8
Calque_1
 62
7
100
AcDbSpline
 70
8
 71
3
 72
8
 73
4
 74
0
 40
0
 40
0
 40
0
 40
0
 40
1
 40
1
 40
1
 40
1
 10
806.393520
 20
753.910957
 30
0.0
 10
805.286493
 20
753.910957
 30
0.0
 10
804.418327
 20
754.269247
 30
0.0
 10
803.789020
 20
754.985827
 30
0.0
  0
SPLINE
  5
248
100
AcDbEntity
  8
Calque_1
 62
7
100
AcDbSpline
 70
8
 71
3
 72
8
 73
4
 74
0
 40
0
 40
0
 40
0
 40
0
 40
1
 40
1
 40
1
 40
1
 10
803.789020
 20
754.985827
 30
0.0
 10
803.164313
 20
755.707000
 30
0.0
 10
802.851960
 20
756.699188
 30
0.0
 10
802.851960
 20
757.962389
 30
0.0
  0
SPLINE
  5
249
100
AcDbEntity
  8
Calque_1
 62
7
100
AcDbSpline
 70
8
 71
3
 72
8
 73
4
 74
0
 40
0
 40
0
 40
0
 40
0
 40
1
 40
1
 40
1
 40
1
 10
802.851960
 20
757.962389
 30
0.0
 10
802.851960
 20
759.230184
 30
0.0
 10
803.164313
 20
760.222372
 30
0.0
 10
803.789020
 20
760.938952
 30
0.0
  0
SPLINE
  5
24a
100
AcDbEntity
  8
Calque_1
 62
7
100
AcDbSpline
 70
8
 71
3
 72
8
 73
4
 74
0
 40
0
 40
0
 40
0
 40
0
 40
1
 40
1
 40
1
 40
1
 10
803.789020
 20
760.938952
 30
0.0
 10
804.418327
 20
761.655532
 30
0.0
 10
805.286493
 20
762.013822
 30
0.0
 10
806.393520
 20
762.013822
 30
0.0
  0
LINE
  5
24b
100
AcDbEntity
  8
Calque_1
 62
7
100
AcDbLine
 10
806.393520
 20
762.013822
 30
0.0
 11
806.393520
 21
762.013822
 31
0.0
  0
LINE
  5
24c
100
AcDbEntity
  8
Calque_1
 62
7
100
AcDbLine
 10
811.898780
 20
757.156237
 30
0.0
 11
811.898780
 21
761.827786
 31
0.0
  0
LINE
  5
24d
100
AcDbEntity
  8
Calque_1
 62
7
100
AcDbLine
 10
811.898780
 20
761.827786
 30
0.0
 11
813.166580
 21
761.827786
 31
0.0
  0
LINE
  5
24e
100
AcDbEntity
  8
Calque_1
 62
7
100
AcDbLine
 10
813.166580
 20
761.827786
 30
0.0
 11
813.166580
 21
757.204468
 31
0.0
  0
SPLINE
  5
24f
100
AcDbEntity
  8
Calque_1
 62
7
100
AcDbSpline
 70
8
 71
3
 72
8
 73
4
 74
0
 40
0
 40
0
 40
0
 40
0
 40
1
 40
1
 40
1
 40
1
 10
813.166580
 20
757.204468
 30
0.0
 10
813.166580
 20
756.474108
 30
0.0
 10
813.308977
 20
755.925190
 30
0.0
 10
813.593770
 20
755.557713
 30
0.0
  0
SPLINE
  5
250
100
AcDbEntity
  8
Calque_1
 62
7
100
AcDbSpline
 70
8
 71
3
 72
8
 73
4
 74
0
 40
0
 40
0
 40
0
 40
0
 40
1
 40
1
 40
1
 40
1
 10
813.593770
 20
755.557713
 30
0.0
 10
813.878563
 20
755.194830
 30
0.0
 10
814.305753
 20
755.013388
 30
0.0
 10
814.875340
 20
755.013388
 30
0.0
  0
SPLINE
  5
251
100
AcDbEntity
  8
Calque_1
 62
7
100
AcDbSpline
 70
8
 71
3
 72
8
 73
4
 74
0
 40
0
 40
0
 40
0
 40
0
 40
1
 40
1
 40
1
 40
1
 10
814.875340
 20
755.013388
 30
0.0
 10
815.559767
 20
755.013388
 30
0.0
 10
816.099500
 20
755.231577
 30
0.0
 10
816.494540
 20
755.667956
 30
0.0
  0
SPLINE
  5
252
100
AcDbEntity
  8
Calque_1
 62
7
100
AcDbSpline
 70
8
 71
3
 72
8
 73
4
 74
0
 40
0
 40
0
 40
0
 40
0
 40
1
 40
1
 40
1
 40
1
 10
816.494540
 20
755.667956
 30
0.0
 10
816.894167
 20
756.104335
 30
0.0
 10
817.093980
 20
756.699188
 30
0.0
 10
817.093980
 20
757.452515
 30
0.0
  0
LINE
  5
253
100
AcDbEntity
  8
Calque_1
 62
7
100
AcDbLine
 10
817.093980
 20
757.452515
 30
0.0
 11
817.093980
 21
761.827786
 31
0.0
  0
LINE
  5
254
100
AcDbEntity
  8
Calque_1
 62
7
100
AcDbLine
 10
817.093980
 20
761.827786
 30
0.0
 11
818.361780
 21
761.827786
 31
0.0
  0
LINE
  5
255
100
AcDbEntity
  8
Calque_1
 62
7
100
AcDbLine
 10
818.361780
 20
761.827786
 30
0.0
 11
818.361780
 21
754.110773
 31
0.0
  0
LINE
  5
256
100
AcDbEntity
  8
Calque_1
 62
7
100
AcDbLine
 10
818.361780
 20
754.110773
 30
0.0
 11
817.093980
 21
754.110773
 31
0.0
  0
LINE
  5
257
100
AcDbEntity
  8
Calque_1
 62
7
100
AcDbLine
 10
817.093980
 20
754.110773
 30
0.0
 11
817.093980
 21
755.295886
 31
0.0
  0
SPLINE
  5
258
100
AcDbEntity
  8
Calque_1
 62
7
100
AcDbSpline
 70
8
 71
3
 72
8
 73
4
 74
0
 40
0
 40
0
 40
0
 40
0
 40
1
 40
1
 40
1
 40
1
 10
817.093980
 20
755.295886
 30
0.0
 10
816.786220
 20
754.827353
 30
0.0
 10
816.427930
 20
754.478250
 30
0.0
 10
816.019110
 20
754.248577
 30
0.0
  0
SPLINE
  5
259
100
AcDbEntity
  8
Calque_1
 62
7
100
AcDbSpline
 70
8
 71
3
 72
8
 73
4
 74
0
 40
0
 40
0
 40
0
 40
0
 40
1
 40
1
 40
1
 40
1
 10
816.019110
 20
754.248577
 30
0.0
 10
815.614890
 20
754.023497
 30
0.0
 10
815.144060
 20
753.910957
 30
0.0
 10
814.606620
 20
753.910957
 30
0.0
  0
SPLINE
  5
25a
100
AcDbEntity
  8
Calque_1
 62
7
100
AcDbSpline
 70
8
 71
3
 72
8
 73
4
 74
0
 40
0
 40
0
 40
0
 40
0
 40
1
 40
1
 40
1
 40
1
 10
814.606620
 20
753.910957
 30
0.0
 10
813.720087
 20
753.910957
 30
0.0
 10
813.047147
 20
754.186565
 30
0.0
 10
812.587800
 20
754.737780
 30
0.0
  0
SPLINE
  5
25b
100
AcDbEntity
  8
Calque_1
 62
7
100
AcDbSpline
 70
8
 71
3
 72
8
 73
4
 74
0
 40
0
 40
0
 40
0
 40
0
 40
1
 40
1
 40
1
 40
1
 10
812.587800
 20
754.737780
 30
0.0
 10
812.128453
 20
755.288995
 30
0.0
 10
811.898780
 20
756.095148
 30
0.0
 10
811.898780
 20
757.156237
 30
0.0
  0
LINE
  5
25c
100
AcDbEntity
  8
Calque_1
 62
7
100
AcDbLine
 10
811.898780
 20
757.156237
 30
0.0
 11
811.898780
 21
757.156237
 31
0.0
  0
LINE
  5
25d
100
AcDbEntity
  8
Calque_1
 62
7
100
AcDbLine
 10
815.088940
 20
762.013822
 30
0.0
 11
815.088940
 21
762.013822
 31
0.0
  0
SPLINE
  5
25e
100
AcDbEntity
  8
Calque_1
 62
7
100
AcDbSpline
 70
8
 71
3
 72
8
 73
4
 74
0
 40
0
 40
0
 40
0
 40
0
 40
1
 40
1
 40
1
 40
1
 10
825.458670
 20
760.642674
 30
0.0
 10
825.316277
 20
760.725356
 30
0.0
 10
825.160100
 20
760.785071
 30
0.0
 10
824.990140
 20
760.821819
 30
0.0
  0
SPLINE
  5
25f
100
AcDbEntity
  8
Calque_1
 62
7
100
AcDbSpline
 70
8
 71
3
 72
8
 73
4
 74
0
 40
0
 40
0
 40
0
 40
0
 40
1
 40
1
 40
1
 40
1
 10
824.990140
 20
760.821819
 30
0.0
 10
824.824773
 20
760.863159
 30
0.0
 10
824.641037
 20
760.883829
 30
0.0
 10
824.438930
 20
760.883829
 30
0.0
  0
SPLINE
  5
260
100
AcDbEntity
  8
Calque_1
 62
7
100
AcDbSpline
 70
8
 71
3
 72
8
 73
4
 74
0
 40
0
 40
0
 40
0
 40
0
 40
1
 40
1
 40
1
 40
1
 10
824.438930
 20
760.883829
 30
0.0
 10
823.722350
 20
760.883829
 30
0.0
 10
823.171133
 20
760.649563
 30
0.0
 10
822.785280
 20
760.181030
 30
0.0
  0
SPLINE
  5
261
100
AcDbEntity
  8
Calque_1
 62
7
100
AcDbSpline
 70
8
 71
3
 72
8
 73
4
 74
0
 40
0
 40
0
 40
0
 40
0
 40
1
 40
1
 40
1
 40
1
 10
822.785280
 20
760.181030
 30
0.0
 10
822.404020
 20
759.717091
 30
0.0
 10
822.213390
 20
759.048742
 30
0.0
 10
822.213390
 20
758.175984
 30
0.0
  0
LINE
  5
262
100
AcDbEntity
  8
Calque_1
 62
7
100
AcDbLine
 10
822.213390
 20
758.175984
 30
0.0
 11
822.213390
 21
754.110772
 31
0.0
  0
LINE
  5
263
100
AcDbEntity
  8
Calque_1
 62
7
100
AcDbLine
 10
822.213390
 20
754.110772
 30
0.0
 11
820.938710
 21
754.110772
 31
0.0
  0
LINE
  5
264
100
AcDbEntity
  8
Calque_1
 62
7
100
AcDbLine
 10
820.938710
 20
754.110772
 30
0.0
 11
820.938710
 21
761.827785
 31
0.0
  0
LINE
  5
265
100
AcDbEntity
  8
Calque_1
 62
7
100
AcDbLine
 10
820.938710
 20
761.827785
 30
0.0
 11
822.213390
 21
761.827785
 31
0.0
  0
LINE
  5
266
100
AcDbEntity
  8
Calque_1
 62
7
100
AcDbLine
 10
822.213390
 20
761.827785
 30
0.0
 11
822.213390
 21
760.628892
 31
0.0
  0
SPLINE
  5
267
100
AcDbEntity
  8
Calque_1
 62
7
100
AcDbSpline
 70
8
 71
3
 72
8
 73
4
 74
0
 40
0
 40
0
 40
0
 40
0
 40
1
 40
1
 40
1
 40
1
 10
822.213390
 20
760.628892
 30
0.0
 10
822.479817
 20
761.097425
 30
0.0
 10
822.826623
 20
761.444232
 30
0.0
 10
823.253810
 20
761.669311
 30
0.0
  0
SPLINE
  5
268
100
AcDbEntity
  8
Calque_1
 62
7
100
AcDbSpline
 70
8
 71
3
 72
8
 73
4
 74
0
 40
0
 40
0
 40
0
 40
0
 40
1
 40
1
 40
1
 40
1
 10
823.253810
 20
761.669311
 30
0.0
 10
823.681003
 20
761.898984
 30
0.0
 10
824.200067
 20
762.013821
 30
0.0
 10
824.811000
 20
762.013821
 30
0.0
  0
SPLINE
  5
269
100
AcDbEntity
  8
Calque_1
 62
7
100
AcDbSpline
 70
8
 71
3
 72
8
 73
4
 74
0
 40
0
 40
0
 40
0
 40
0
 40
1
 40
1
 40
1
 40
1
 10
824.811000
 20
762.013821
 30
0.0
 10
824.898273
 20
762.013821
 30
0.0
 10
824.994733
 20
762.006931
 30
0.0
 10
825.100380
 20
761.993151
 30
0.0
  0
SPLINE
  5
26a
100
AcDbEntity
  8
Calque_1
 62
7
100
AcDbSpline
 70
8
 71
3
 72
8
 73
4
 74
0
 40
0
 40
0
 40
0
 40
0
 40
1
 40
1
 40
1
 40
1
 10
825.100380
 20
761.993151
 30
0.0
 10
825.206033
 20
761.983964
 30
0.0
 10
825.323167
 20
761.967888
 30
0.0
 10
825.451780
 20
761.944921
 30
0.0
  0
LINE
  5
26b
100
AcDbEntity
  8
Calque_1
 62
7
100
AcDbLine
 10
825.451780
 20
761.944921
 30
0.0
 11
825.458670
 21
760.642674
 31
0.0
  0
LINE
  5
26c
100
AcDbEntity
  8
Calque_1
 62
7
100
AcDbLine
 10
832.521120
 20
755.268325
 30
0.0
 11
832.521120
 21
751.175551
 31
0.0
  0
LINE
  5
26d
100
AcDbEntity
  8
Calque_1
 62
7
100
AcDbLine
 10
832.521120
 20
751.175551
 30
0.0
 11
831.246430
 21
751.175551
 31
0.0
  0
LINE
  5
26e
100
AcDbEntity
  8
Calque_1
 62
7
100
AcDbLine
 10
831.246430
 20
751.175551
 30
0.0
 11
831.246430
 21
761.827786
 31
0.0
  0
LINE
  5
26f
100
AcDbEntity
  8
Calque_1
 62
7
100
AcDbLine
 10
831.246430
 20
761.827786
 30
0.0
 11
832.521120
 21
761.827786
 31
0.0
  0
LINE
  5
270
100
AcDbEntity
  8
Calque_1
 62
7
100
AcDbLine
 10
832.521120
 20
761.827786
 30
0.0
 11
832.521120
 21
760.656454
 31
0.0
  0
SPLINE
  5
271
100
AcDbEntity
  8
Calque_1
 62
7
100
AcDbSpline
 70
8
 71
3
 72
8
 73
4
 74
0
 40
0
 40
0
 40
0
 40
0
 40
1
 40
1
 40
1
 40
1
 10
832.521120
 20
760.656454
 30
0.0
 10
832.787540
 20
761.115800
 30
0.0
 10
833.122863
 20
761.455716
 30
0.0
 10
833.527090
 20
761.676202
 30
0.0
  0
SPLINE
  5
272
100
AcDbEntity
  8
Calque_1
 62
7
100
AcDbSpline
 70
8
 71
3
 72
8
 73
4
 74
0
 40
0
 40
0
 40
0
 40
0
 40
1
 40
1
 40
1
 40
1
 10
833.527090
 20
761.676202
 30
0.0
 10
833.935910
 20
761.901282
 30
0.0
 10
834.422817
 20
762.013822
 30
0.0
 10
834.987810
 20
762.013822
 30
0.0
  0
SPLINE
  5
273
100
AcDbEntity
  8
Calque_1
 62
7
100
AcDbSpline
 70
8
 71
3
 72
8
 73
4
 74
0
 40
0
 40
0
 40
0
 40
0
 40
1
 40
1
 40
1
 40
1
 10
834.987810
 20
762.013822
 30
0.0
 10
835.924877
 20
762.013822
 30
0.0
 10
836.685093
 20
761.641752
 30
0.0
 10
837.268460
 20
760.897611
 30
0.0
  0
SPLINE
  5
274
100
AcDbEntity
  8
Calque_1
 62
7
100
AcDbSpline
 70
8
 71
3
 72
8
 73
4
 74
0
 40
0
 40
0
 40
0
 40
0
 40
1
 40
1
 40
1
 40
1
 10
837.268460
 20
760.897611
 30
0.0
 10
837.856427
 20
760.153470
 30
0.0
 10
838.150410
 20
759.175063
 30
0.0
 10
838.150410
 20
757.962389
 30
0.0
  0
SPLINE
  5
275
100
AcDbEntity
  8
Calque_1
 62
7
100
AcDbSpline
 70
8
 71
3
 72
8
 73
4
 74
0
 40
0
 40
0
 40
0
 40
0
 40
1
 40
1
 40
1
 40
1
 10
838.150410
 20
757.962389
 30
0.0
 10
838.150410
 20
756.749716
 30
0.0
 10
837.856427
 20
755.771309
 30
0.0
 10
837.268460
 20
755.027168
 30
0.0
  0
SPLINE
  5
276
100
AcDbEntity
  8
Calque_1
 62
7
100
AcDbSpline
 70
8
 71
3
 72
8
 73
4
 74
0
 40
0
 40
0
 40
0
 40
0
 40
1
 40
1
 40
1
 40
1
 10
837.268460
 20
755.027168
 30
0.0
 10
836.685093
 20
754.283027
 30
0.0
 10
835.924877
 20
753.910957
 30
0.0
 10
834.987810
 20
753.910957
 30
0.0
  0
SPLINE
  5
277
100
AcDbEntity
  8
Calque_1
 62
7
100
AcDbSpline
 70
8
 71
3
 72
8
 73
4
 74
0
 40
0
 40
0
 40
0
 40
0
 40
1
 40
1
 40
1
 40
1
 10
834.987810
 20
753.910957
 30
0.0
 10
834.422817
 20
753.910957
 30
0.0
 10
833.935910
 20
754.021200
 30
0.0
 10
833.527090
 20
754.241686
 30
0.0
  0
SPLINE
  5
278
100
AcDbEntity
  8
Calque_1
 62
7
100
AcDbSpline
 70
8
 71
3
 72
8
 73
4
 74
0
 40
0
 40
0
 40
0
 40
0
 40
1
 40
1
 40
1
 40
1
 10
833.527090
 20
754.241686
 30
0.0
 10
833.122863
 20
754.466766
 30
0.0
 10
832.787540
 20
754.808979
 30
0.0
 10
832.521120
 20
755.268325
 30
0.0
  0
LINE
  5
279
100
AcDbEntity
  8
Calque_1
 62
7
100
AcDbLine
 10
832.521120
 20
755.268325
 30
0.0
 11
832.521120
 21
755.268325
 31
0.0
  0
SPLINE
  5
27a
100
AcDbEntity
  8
Calque_1
 62
7
100
AcDbSpline
 70
8
 71
3
 72
8
 73
4
 74
0
 40
0
 40
0
 40
0
 40
0
 40
1
 40
1
 40
1
 40
1
 10
836.834380
 20
757.962389
 30
0.0
 10
836.834380
 20
758.894862
 30
0.0
 10
836.641453
 20
759.625222
 30
0.0
 10
836.255600
 20
760.153470
 30
0.0
  0
SPLINE
  5
27b
100
AcDbEntity
  8
Calque_1
 62
7
100
AcDbSpline
 70
8
 71
3
 72
8
 73
4
 74
0
 40
0
 40
0
 40
0
 40
0
 40
1
 40
1
 40
1
 40
1
 10
836.255600
 20
760.153470
 30
0.0
 10
835.874347
 20
760.686311
 30
0.0
 10
835.348397
 20
760.952732
 30
0.0
 10
834.677750
 20
760.952732
 30
0.0
  0
SPLINE
  5
27c
100
AcDbEntity
  8
Calque_1
 62
7
100
AcDbSpline
 70
8
 71
3
 72
8
 73
4
 74
0
 40
0
 40
0
 40
0
 40
0
 40
1
 40
1
 40
1
 40
1
 10
834.677750
 20
760.952732
 30
0.0
 10
834.007103
 20
760.952732
 30
0.0
 10
833.478857
 20
760.686311
 30
0.0
 10
833.093010
 20
760.153470
 30
0.0
  0
SPLINE
  5
27d
100
AcDbEntity
  8
Calque_1
 62
7
100
AcDbSpline
 70
8
 71
3
 72
8
 73
4
 74
0
 40
0
 40
0
 40
0
 40
0
 40
1
 40
1
 40
1
 40
1
 10
833.093010
 20
760.153470
 30
0.0
 10
832.711750
 20
759.625222
 30
0.0
 10
832.521120
 20
758.894862
 30
0.0
 10
832.521120
 20
757.962389
 30
0.0
  0
SPLINE
  5
27e
100
AcDbEntity
  8
Calque_1
 62
7
100
AcDbSpline
 70
8
 71
3
 72
8
 73
4
 74
0
 40
0
 40
0
 40
0
 40
0
 40
1
 40
1
 40
1
 40
1
 10
832.521120
 20
757.962389
 30
0.0
 10
832.521120
 20
757.029917
 30
0.0
 10
832.711750
 20
756.297260
 30
0.0
 10
833.093010
 20
755.764419
 30
0.0
  0
SPLINE
  5
27f
100
AcDbEntity
  8
Calque_1
 62
7
100
AcDbSpline
 70
8
 71
3
 72
8
 73
4
 74
0
 40
0
 40
0
 40
0
 40
0
 40
1
 40
1
 40
1
 40
1
 10
833.093010
 20
755.764419
 30
0.0
 10
833.478857
 20
755.236171
 30
0.0
 10
834.007103
 20
754.972047
 30
0.0
 10
834.677750
 20
754.972047
 30
0.0
  0
SPLINE
  5
280
100
AcDbEntity
  8
Calque_1
 62
7
100
AcDbSpline
 70
8
 71
3
 72
8
 73
4
 74
0
 40
0
 40
0
 40
0
 40
0
 40
1
 40
1
 40
1
 40
1
 10
834.677750
 20
754.972047
 30
0.0
 10
835.348397
 20
754.972047
 30
0.0
 10
835.874347
 20
755.236171
 30
0.0
 10
836.255600
 20
755.764419
 30
0.0
  0
SPLINE
  5
281
100
AcDbEntity
  8
Calque_1
 62
7
100
AcDbSpline
 70
8
 71
3
 72
8
 73
4
 74
0
 40
0
 40
0
 40
0
 40
0
 40
1
 40
1
 40
1
 40
1
 10
836.255600
 20
755.764419
 30
0.0
 10
836.641453
 20
756.297260
 30
0.0
 10
836.834380
 20
757.029917
 30
0.0
 10
836.834380
 20
757.962389
 30
0.0
  0
LINE
  5
282
100
AcDbEntity
  8
Calque_1
 62
7
100
AcDbLine
 10
836.834380
 20
757.962389
 30
0.0
 11
836.834380
 21
757.962389
 31
0.0
  0
LINE
  5
283
100
AcDbEntity
  8
Calque_1
 62
7
100
AcDbLine
 10
840.251910
 20
764.831910
 30
0.0
 11
841.519710
 21
764.831910
 31
0.0
  0
LINE
  5
284
100
AcDbEntity
  8
Calque_1
 62
7
100
AcDbLine
 10
841.519710
 20
764.831910
 30
0.0
 11
841.519710
 21
754.110773
 31
0.0
  0
LINE
  5
285
100
AcDbEntity
  8
Calque_1
 62
7
100
AcDbLine
 10
841.519710
 20
754.110773
 30
0.0
 11
840.251910
 21
754.110773
 31
0.0
  0
LINE
  5
286
100
AcDbEntity
  8
Calque_1
 62
7
100
AcDbLine
 10
840.251910
 20
754.110773
 30
0.0
 11
840.251910
 21
764.831910
 31
0.0
  0
SPLINE
  5
287
100
AcDbEntity
  8
Calque_1
 62
7
100
AcDbSpline
 70
8
 71
3
 72
8
 73
4
 74
0
 40
0
 40
0
 40
0
 40
0
 40
1
 40
1
 40
1
 40
1
 10
847.672650
 20
757.989950
 30
0.0
 10
846.648310
 20
757.989950
 30
0.0
 10
845.938620
 20
757.872817
 30
0.0
 10
845.543580
 20
757.638550
 30
0.0
  0
SPLINE
  5
288
100
AcDbEntity
  8
Calque_1
 62
7
100
AcDbSpline
 70
8
 71
3
 72
8
 73
4
 74
0
 40
0
 40
0
 40
0
 40
0
 40
1
 40
1
 40
1
 40
1
 10
845.543580
 20
757.638550
 30
0.0
 10
845.148540
 20
757.404284
 30
0.0
 10
844.951020
 20
757.004653
 30
0.0
 10
844.951020
 20
756.439657
 30
0.0
  0
SPLINE
  5
289
100
AcDbEntity
  8
Calque_1
 62
7
100
AcDbSpline
 70
8
 71
3
 72
8
 73
4
 74
0
 40
0
 40
0
 40
0
 40
0
 40
1
 40
1
 40
1
 40
1
 10
844.951020
 20
756.439657
 30
0.0
 10
844.951020
 20
755.989498
 30
0.0
 10
845.098013
 20
755.631208
 30
0.0
 10
845.392000
 20
755.364787
 30
0.0
  0
SPLINE
  5
28a
100
AcDbEntity
  8
Calque_1
 62
7
100
AcDbSpline
 70
8
 71
3
 72
8
 73
4
 74
0
 40
0
 40
0
 40
0
 40
0
 40
1
 40
1
 40
1
 40
1
 10
845.392000
 20
755.364787
 30
0.0
 10
845.690573
 20
755.102960
 30
0.0
 10
846.094797
 20
754.972047
 30
0.0
 10
846.604670
 20
754.972047
 30
0.0
  0
SPLINE
  5
28b
100
AcDbEntity
  8
Calque_1
 62
7
100
AcDbSpline
 70
8
 71
3
 72
8
 73
4
 74
0
 40
0
 40
0
 40
0
 40
0
 40
1
 40
1
 40
1
 40
1
 10
846.604670
 20
754.972047
 30
0.0
 10
847.307470
 20
754.972047
 30
0.0
 10
847.870170
 20
755.220094
 30
0.0
 10
848.292770
 20
755.716187
 30
0.0
  0
SPLINE
  5
28c
100
AcDbEntity
  8
Calque_1
 62
7
100
AcDbSpline
 70
8
 71
3
 72
8
 73
4
 74
0
 40
0
 40
0
 40
0
 40
0
 40
1
 40
1
 40
1
 40
1
 10
848.292770
 20
755.716187
 30
0.0
 10
848.719957
 20
756.216874
 30
0.0
 10
848.933550
 20
756.880629
 30
0.0
 10
848.933550
 20
757.707452
 30
0.0
  0
LINE
  5
28d
100
AcDbEntity
  8
Calque_1
 62
7
100
AcDbLine
 10
848.933550
 20
757.707452
 30
0.0
 11
848.933550
 21
757.989950
 31
0.0
  0
LINE
  5
28e
100
AcDbEntity
  8
Calque_1
 62
7
100
AcDbLine
 10
848.933550
 20
757.989950
 30
0.0
 11
847.672650
 21
757.989950
 31
0.0
  0
LINE
  5
28f
100
AcDbEntity
  8
Calque_1
 62
7
100
AcDbLine
 10
850.201350
 20
758.513605
 30
0.0
 11
850.201350
 21
754.110773
 31
0.0
  0
LINE
  5
290
100
AcDbEntity
  8
Calque_1
 62
7
100
AcDbLine
 10
850.201350
 20
754.110773
 30
0.0
 11
848.933550
 21
754.110773
 31
0.0
  0
LINE
  5
291
100
AcDbEntity
  8
Calque_1
 62
7
100
AcDbLine
 10
848.933550
 20
754.110773
 30
0.0
 11
848.933550
 21
755.282105
 31
0.0
  0
SPLINE
  5
292
100
AcDbEntity
  8
Calque_1
 62
7
100
AcDbSpline
 70
8
 71
3
 72
8
 73
4
 74
0
 40
0
 40
0
 40
0
 40
0
 40
1
 40
1
 40
1
 40
1
 10
848.933550
 20
755.282105
 30
0.0
 10
848.644163
 20
754.813572
 30
0.0
 10
848.283577
 20
754.466766
 30
0.0
 10
847.851790
 20
754.241686
 30
0.0
  0
SPLINE
  5
293
100
AcDbEntity
  8
Calque_1
 62
7
100
AcDbSpline
 70
8
 71
3
 72
8
 73
4
 74
0
 40
0
 40
0
 40
0
 40
0
 40
1
 40
1
 40
1
 40
1
 10
847.851790
 20
754.241686
 30
0.0
 10
847.420010
 20
754.021200
 30
0.0
 10
846.891763
 20
753.910957
 30
0.0
 10
846.267050
 20
753.910957
 30
0.0
  0
SPLINE
  5
294
100
AcDbEntity
  8
Calque_1
 62
7
100
AcDbSpline
 70
8
 71
3
 72
8
 73
4
 74
0
 40
0
 40
0
 40
0
 40
0
 40
1
 40
1
 40
1
 40
1
 10
846.267050
 20
753.910957
 30
0.0
 10
845.476977
 20
753.910957
 30
0.0
 10
844.847673
 20
754.131443
 30
0.0
 10
844.379140
 20
754.572416
 30
0.0
  0
SPLINE
  5
295
100
AcDbEntity
  8
Calque_1
 62
7
100
AcDbSpline
 70
8
 71
3
 72
8
 73
4
 74
0
 40
0
 40
0
 40
0
 40
0
 40
1
 40
1
 40
1
 40
1
 10
844.379140
 20
754.572416
 30
0.0
 10
843.915200
 20
755.017981
 30
0.0
 10
843.683230
 20
755.612834
 30
0.0
 10
843.683230
 20
756.356975
 30
0.0
  0
SPLINE
  5
296
100
AcDbEntity
  8
Calque_1
 62
7
100
AcDbSpline
 70
8
 71
3
 72
8
 73
4
 74
0
 40
0
 40
0
 40
0
 40
0
 40
1
 40
1
 40
1
 40
1
 10
843.683230
 20
756.356975
 30
0.0
 10
843.683230
 20
757.225139
 30
0.0
 10
843.972617
 20
757.879707
 30
0.0
 10
844.551390
 20
758.320679
 30
0.0
  0
SPLINE
  5
297
100
AcDbEntity
  8
Calque_1
 62
7
100
AcDbSpline
 70
8
 71
3
 72
8
 73
4
 74
0
 40
0
 40
0
 40
0
 40
0
 40
1
 40
1
 40
1
 40
1
 10
844.551390
 20
758.320679
 30
0.0
 10
845.134763
 20
758.761652
 30
0.0
 10
846.002930
 20
758.982138
 30
0.0
 10
847.155890
 20
758.982138
 30
0.0
  0
LINE
  5
298
100
AcDbEntity
  8
Calque_1
 62
7
100
AcDbLine
 10
847.155890
 20
758.982138
 30
0.0
 11
848.933550
 21
758.982138
 31
0.0
  0
LINE
  5
299
100
AcDbEntity
  8
Calque_1
 62
7
100
AcDbLine
 10
848.933550
 20
758.982138
 30
0.0
 11
848.933550
 21
759.106161
 31
0.0
  0
SPLINE
  5
29a
100
AcDbEntity
  8
Calque_1
 62
7
100
AcDbSpline
 70
8
 71
3
 72
8
 73
4
 74
0
 40
0
 40
0
 40
0
 40
0
 40
1
 40
1
 40
1
 40
1
 10
848.933550
 20
759.106161
 30
0.0
 10
848.933550
 20
759.689530
 30
0.0
 10
848.740627
 20
760.139689
 30
0.0
 10
848.354780
 20
760.456638
 30
0.0
  0
SPLINE
  5
29b
100
AcDbEntity
  8
Calque_1
 62
7
100
AcDbSpline
 70
8
 71
3
 72
8
 73
4
 74
0
 40
0
 40
0
 40
0
 40
0
 40
1
 40
1
 40
1
 40
1
 10
848.354780
 20
760.456638
 30
0.0
 10
847.973520
 20
760.778181
 30
0.0
 10
847.436083
 20
760.938952
 30
0.0
 10
846.742470
 20
760.938952
 30
0.0
  0
SPLINE
  5
29c
100
AcDbEntity
  8
Calque_1
 62
7
100
AcDbSpline
 70
8
 71
3
 72
8
 73
4
 74
0
 40
0
 40
0
 40
0
 40
0
 40
1
 40
1
 40
1
 40
1
 10
846.742470
 20
760.938952
 30
0.0
 10
846.301503
 20
760.938952
 30
0.0
 10
845.872017
 20
760.886127
 30
0.0
 10
845.454010
 20
760.780477
 30
0.0
  0
SPLINE
  5
29d
100
AcDbEntity
  8
Calque_1
 62
7
100
AcDbSpline
 70
8
 71
3
 72
8
 73
4
 74
0
 40
0
 40
0
 40
0
 40
0
 40
1
 40
1
 40
1
 40
1
 10
845.454010
 20
760.780477
 30
0.0
 10
845.036003
 20
760.674828
 30
0.0
 10
844.634073
 20
760.516353
 30
0.0
 10
844.248220
 20
760.305054
 30
0.0
  0
LINE
  5
29e
100
AcDbEntity
  8
Calque_1
 62
7
100
AcDbLine
 10
844.248220
 20
760.305054
 30
0.0
 11
844.248220
 21
761.476387
 31
0.0
  0
SPLINE
  5
29f
100
AcDbEntity
  8
Calque_1
 62
7
100
AcDbSpline
 70
8
 71
3
 72
8
 73
4
 74
0
 40
0
 40
0
 40
0
 40
0
 40
1
 40
1
 40
1
 40
1
 10
844.248220
 20
761.476387
 30
0.0
 10
844.712160
 20
761.655532
 30
0.0
 10
845.162320
 20
761.788742
 30
0.0
 10
845.598700
 20
761.876018
 30
0.0
  0
SPLINE
  5
2a0
100
AcDbEntity
  8
Calque_1
 62
7
100
AcDbSpline
 70
8
 71
3
 72
8
 73
4
 74
0
 40
0
 40
0
 40
0
 40
0
 40
1
 40
1
 40
1
 40
1
 10
845.598700
 20
761.876018
 30
0.0
 10
846.035080
 20
761.967887
 30
0.0
 10
846.459977
 20
762.013822
 30
0.0
 10
846.873390
 20
762.013822
 30
0.0
  0
SPLINE
  5
2a1
100
AcDbEntity
  8
Calque_1
 62
7
100
AcDbSpline
 70
8
 71
3
 72
8
 73
4
 74
0
 40
0
 40
0
 40
0
 40
0
 40
1
 40
1
 40
1
 40
1
 10
846.873390
 20
762.013822
 30
0.0
 10
847.989597
 20
762.013822
 30
0.0
 10
848.823310
 20
761.724434
 30
0.0
 10
849.374530
 20
761.145658
 30
0.0
  0
SPLINE
  5
2a2
100
AcDbEntity
  8
Calque_1
 62
7
100
AcDbSpline
 70
8
 71
3
 72
8
 73
4
 74
0
 40
0
 40
0
 40
0
 40
0
 40
1
 40
1
 40
1
 40
1
 10
849.374530
 20
761.145658
 30
0.0
 10
849.925743
 20
760.566881
 30
0.0
 10
850.201350
 20
759.689530
 30
0.0
 10
850.201350
 20
758.513605
 30
0.0
  0
LINE
  5
2a3
100
AcDbEntity
  8
Calque_1
 62
7
100
AcDbLine
 10
850.201350
 20
758.513605
 30
0.0
 11
850.201350
 21
758.513605
 31
0.0
  0
SPLINE
  5
2a4
100
AcDbEntity
  8
Calque_1
 62
7
100
AcDbSpline
 70
8
 71
3
 72
8
 73
4
 74
0
 40
0
 40
0
 40
0
 40
0
 40
1
 40
1
 40
1
 40
1
 10
853.577540
 20
757.962389
 30
0.0
 10
853.577540
 20
757.029917
 30
0.0
 10
853.768170
 20
756.297260
 30
0.0
 10
854.149430
 20
755.764419
 30
0.0
  0
SPLINE
  5
2a5
100
AcDbEntity
  8
Calque_1
 62
7
100
AcDbSpline
 70
8
 71
3
 72
8
 73
4
 74
0
 40
0
 40
0
 40
0
 40
0
 40
1
 40
1
 40
1
 40
1
 10
854.149430
 20
755.764419
 30
0.0
 10
854.535277
 20
755.236171
 30
0.0
 10
855.063523
 20
754.972047
 30
0.0
 10
855.734170
 20
754.972047
 30
0.0
  0
SPLINE
  5
2a6
100
AcDbEntity
  8
Calque_1
 62
7
100
AcDbSpline
 70
8
 71
3
 72
8
 73
4
 74
0
 40
0
 40
0
 40
0
 40
0
 40
1
 40
1
 40
1
 40
1
 10
855.734170
 20
754.972047
 30
0.0
 10
856.404817
 20
754.972047
 30
0.0
 10
856.933067
 20
755.236171
 30
0.0
 10
857.318920
 20
755.764419
 30
0.0
  0
SPLINE
  5
2a7
100
AcDbEntity
  8
Calque_1
 62
7
100
AcDbSpline
 70
8
 71
3
 72
8
 73
4
 74
0
 40
0
 40
0
 40
0
 40
0
 40
1
 40
1
 40
1
 40
1
 10
857.318920
 20
755.764419
 30
0.0
 10
857.704767
 20
756.297260
 30
0.0
 10
857.897690
 20
757.029917
 30
0.0
 10
857.897690
 20
757.962389
 30
0.0
  0
SPLINE
  5
2a8
100
AcDbEntity
  8
Calque_1
 62
7
100
AcDbSpline
 70
8
 71
3
 72
8
 73
4
 74
0
 40
0
 40
0
 40
0
 40
0
 40
1
 40
1
 40
1
 40
1
 10
857.897690
 20
757.962389
 30
0.0
 10
857.897690
 20
758.894862
 30
0.0
 10
857.704767
 20
759.625222
 30
0.0
 10
857.318920
 20
760.153470
 30
0.0
  0
SPLINE
  5
2a9
100
AcDbEntity
  8
Calque_1
 62
7
100
AcDbSpline
 70
8
 71
3
 72
8
 73
4
 74
0
 40
0
 40
0
 40
0
 40
0
 40
1
 40
1
 40
1
 40
1
 10
857.318920
 20
760.153470
 30
0.0
 10
856.933067
 20
760.686311
 30
0.0
 10
856.404817
 20
760.952732
 30
0.0
 10
855.734170
 20
760.952732
 30
0.0
  0
SPLINE
  5
2aa
100
AcDbEntity
  8
Calque_1
 62
7
100
AcDbSpline
 70
8
 71
3
 72
8
 73
4
 74
0
 40
0
 40
0
 40
0
 40
0
 40
1
 40
1
 40
1
 40
1
 10
855.734170
 20
760.952732
 30
0.0
 10
855.063523
 20
760.952732
 30
0.0
 10
854.535277
 20
760.686311
 30
0.0
 10
854.149430
 20
760.153470
 30
0.0
  0
SPLINE
  5
2ab
100
AcDbEntity
  8
Calque_1
 62
7
100
AcDbSpline
 70
8
 71
3
 72
8
 73
4
 74
0
 40
0
 40
0
 40
0
 40
0
 40
1
 40
1
 40
1
 40
1
 10
854.149430
 20
760.153470
 30
0.0
 10
853.768170
 20
759.625222
 30
0.0
 10
853.577540
 20
758.894862
 30
0.0
 10
853.577540
 20
757.962389
 30
0.0
  0
LINE
  5
2ac
100
AcDbEntity
  8
Calque_1
 62
7
100
AcDbLine
 10
853.577540
 20
757.962389
 30
0.0
 11
853.577540
 21
757.962389
 31
0.0
  0
SPLINE
  5
2ad
100
AcDbEntity
  8
Calque_1
 62
7
100
AcDbSpline
 70
8
 71
3
 72
8
 73
4
 74
0
 40
0
 40
0
 40
0
 40
0
 40
1
 40
1
 40
1
 40
1
 10
857.897690
 20
755.268325
 30
0.0
 10
857.631270
 20
754.808979
 30
0.0
 10
857.293650
 20
754.466766
 30
0.0
 10
856.884830
 20
754.241686
 30
0.0
  0
SPLINE
  5
2ae
100
AcDbEntity
  8
Calque_1
 62
7
100
AcDbSpline
 70
8
 71
3
 72
8
 73
4
 74
0
 40
0
 40
0
 40
0
 40
0
 40
1
 40
1
 40
1
 40
1
 10
856.884830
 20
754.241686
 30
0.0
 10
856.480610
 20
754.021200
 30
0.0
 10
855.993703
 20
753.910957
 30
0.0
 10
855.424110
 20
753.910957
 30
0.0
  0
SPLINE
  5
2af
100
AcDbEntity
  8
Calque_1
 62
7
100
AcDbSpline
 70
8
 71
3
 72
8
 73
4
 74
0
 40
0
 40
0
 40
0
 40
0
 40
1
 40
1
 40
1
 40
1
 10
855.424110
 20
753.910957
 30
0.0
 10
854.491643
 20
753.910957
 30
0.0
 10
853.731427
 20
754.283027
 30
0.0
 10
853.143460
 20
755.027168
 30
0.0
  0
SPLINE
  5
2b0
100
AcDbEntity
  8
Calque_1
 62
7
100
AcDbSpline
 70
8
 71
3
 72
8
 73
4
 74
0
 40
0
 40
0
 40
0
 40
0
 40
1
 40
1
 40
1
 40
1
 10
853.143460
 20
755.027168
 30
0.0
 10
852.560093
 20
755.771309
 30
0.0
 10
852.268410
 20
756.749716
 30
0.0
 10
852.268410
 20
757.962389
 30
0.0
  0
SPLINE
  5
2b1
100
AcDbEntity
  8
Calque_1
 62
7
100
AcDbSpline
 70
8
 71
3
 72
8
 73
4
 74
0
 40
0
 40
0
 40
0
 40
0
 40
1
 40
1
 40
1
 40
1
 10
852.268410
 20
757.962389
 30
0.0
 10
852.268410
 20
759.175063
 30
0.0
 10
852.560093
 20
760.153470
 30
0.0
 10
853.143460
 20
760.897611
 30
0.0
  0
SPLINE
  5
2b2
100
AcDbEntity
  8
Calque_1
 62
7
100
AcDbSpline
 70
8
 71
3
 72
8
 73
4
 74
0
 40
0
 40
0
 40
0
 40
0
 40
1
 40
1
 40
1
 40
1
 10
853.143460
 20
760.897611
 30
0.0
 10
853.731427
 20
761.641752
 30
0.0
 10
854.491643
 20
762.013822
 30
0.0
 10
855.424110
 20
762.013822
 30
0.0
  0
SPLINE
  5
2b3
100
AcDbEntity
  8
Calque_1
 62
7
100
AcDbSpline
 70
8
 71
3
 72
8
 73
4
 74
0
 40
0
 40
0
 40
0
 40
0
 40
1
 40
1
 40
1
 40
1
 10
855.424110
 20
762.013822
 30
0.0
 10
855.993703
 20
762.013822
 30
0.0
 10
856.480610
 20
761.901282
 30
0.0
 10
856.884830
 20
761.676202
 30
0.0
  0
SPLINE
  5
2b4
100
AcDbEntity
  8
Calque_1
 62
7
100
AcDbSpline
 70
8
 71
3
 72
8
 73
4
 74
0
 40
0
 40
0
 40
0
 40
0
 40
1
 40
1
 40
1
 40
1
 10
856.884830
 20
761.676202
 30
0.0
 10
857.293650
 20
761.455716
 30
0.0
 10
857.631270
 20
761.115800
 30
0.0
 10
857.897690
 20
760.656454
 30
0.0
  0
LINE
  5
2b5
100
AcDbEntity
  8
Calque_1
 62
7
100
AcDbLine
 10
857.897690
 20
760.656454
 30
0.0
 11
857.897690
 21
761.827786
 31
0.0
  0
LINE
  5
2b6
100
AcDbEntity
  8
Calque_1
 62
7
100
AcDbLine
 10
857.897690
 20
761.827786
 30
0.0
 11
859.165490
 21
761.827786
 31
0.0
  0
LINE
  5
2b7
100
AcDbEntity
  8
Calque_1
 62
7
100
AcDbLine
 10
859.165490
 20
761.827786
 30
0.0
 11
859.165490
 21
751.175551
 31
0.0
  0
LINE
  5
2b8
100
AcDbEntity
  8
Calque_1
 62
7
100
AcDbLine
 10
859.165490
 20
751.175551
 30
0.0
 11
857.897690
 21
751.175551
 31
0.0
  0
LINE
  5
2b9
100
AcDbEntity
  8
Calque_1
 62
7
100
AcDbLine
 10
857.897690
 20
751.175551
 30
0.0
 11
857.897690
 21
755.268325
 31
0.0
  0
LINE
  5
2ba
100
AcDbEntity
  8
Calque_1
 62
7
100
AcDbLine
 10
861.645950
 20
757.156237
 30
0.0
 11
861.645950
 21
761.827786
 31
0.0
  0
LINE
  5
2bb
100
AcDbEntity
  8
Calque_1
 62
7
100
AcDbLine
 10
861.645950
 20
761.827786
 30
0.0
 11
862.913750
 21
761.827786
 31
0.0
  0
LINE
  5
2bc
100
AcDbEntity
  8
Calque_1
 62
7
100
AcDbLine
 10
862.913750
 20
761.827786
 30
0.0
 11
862.913750
 21
757.204468
 31
0.0
  0
SPLINE
  5
2bd
100
AcDbEntity
  8
Calque_1
 62
7
100
AcDbSpline
 70
8
 71
3
 72
8
 73
4
 74
0
 40
0
 40
0
 40
0
 40
0
 40
1
 40
1
 40
1
 40
1
 10
862.913750
 20
757.204468
 30
0.0
 10
862.913750
 20
756.474108
 30
0.0
 10
863.056147
 20
755.925190
 30
0.0
 10
863.340940
 20
755.557713
 30
0.0
  0
SPLINE
  5
2be
100
AcDbEntity
  8
Calque_1
 62
7
100
AcDbSpline
 70
8
 71
3
 72
8
 73
4
 74
0
 40
0
 40
0
 40
0
 40
0
 40
1
 40
1
 40
1
 40
1
 10
863.340940
 20
755.557713
 30
0.0
 10
863.625733
 20
755.194830
 30
0.0
 10
864.052927
 20
755.013388
 30
0.0
 10
864.622520
 20
755.013388
 30
0.0
  0
SPLINE
  5
2bf
100
AcDbEntity
  8
Calque_1
 62
7
100
AcDbSpline
 70
8
 71
3
 72
8
 73
4
 74
0
 40
0
 40
0
 40
0
 40
0
 40
1
 40
1
 40
1
 40
1
 10
864.622520
 20
755.013388
 30
0.0
 10
865.306940
 20
755.013388
 30
0.0
 10
865.846670
 20
755.231577
 30
0.0
 10
866.241710
 20
755.667956
 30
0.0
  0
SPLINE
  5
2c0
100
AcDbEntity
  8
Calque_1
 62
7
100
AcDbSpline
 70
8
 71
3
 72
8
 73
4
 74
0
 40
0
 40
0
 40
0
 40
0
 40
1
 40
1
 40
1
 40
1
 10
866.241710
 20
755.667956
 30
0.0
 10
866.641343
 20
756.104335
 30
0.0
 10
866.841160
 20
756.699188
 30
0.0
 10
866.841160
 20
757.452515
 30
0.0
  0
LINE
  5
2c1
100
AcDbEntity
  8
Calque_1
 62
7
100
AcDbLine
 10
866.841160
 20
757.452515
 30
0.0
 11
866.841160
 21
761.827786
 31
0.0
  0
LINE
  5
2c2
100
AcDbEntity
  8
Calque_1
 62
7
100
AcDbLine
 10
866.841160
 20
761.827786
 30
0.0
 11
868.108950
 21
761.827786
 31
0.0
  0
LINE
  5
2c3
100
AcDbEntity
  8
Calque_1
 62
7
100
AcDbLine
 10
868.108950
 20
761.827786
 30
0.0
 11
868.108950
 21
754.110773
 31
0.0
  0
LINE
  5
2c4
100
AcDbEntity
  8
Calque_1
 62
7
100
AcDbLine
 10
868.108950
 20
754.110773
 30
0.0
 11
866.841160
 21
754.110773
 31
0.0
  0
LINE
  5
2c5
100
AcDbEntity
  8
Calque_1
 62
7
100
AcDbLine
 10
866.841160
 20
754.110773
 30
0.0
 11
866.841160
 21
755.295886
 31
0.0
  0
SPLINE
  5
2c6
100
AcDbEntity
  8
Calque_1
 62
7
100
AcDbSpline
 70
8
 71
3
 72
8
 73
4
 74
0
 40
0
 40
0
 40
0
 40
0
 40
1
 40
1
 40
1
 40
1
 10
866.841160
 20
755.295886
 30
0.0
 10
866.533393
 20
754.827353
 30
0.0
 10
866.175103
 20
754.478250
 30
0.0
 10
865.766290
 20
754.248577
 30
0.0
  0
SPLINE
  5
2c7
100
AcDbEntity
  8
Calque_1
 62
7
100
AcDbSpline
 70
8
 71
3
 72
8
 73
4
 74
0
 40
0
 40
0
 40
0
 40
0
 40
1
 40
1
 40
1
 40
1
 10
865.766290
 20
754.248577
 30
0.0
 10
865.362063
 20
754.023497
 30
0.0
 10
864.891233
 20
753.910957
 30
0.0
 10
864.353800
 20
753.910957
 30
0.0
  0
SPLINE
  5
2c8
100
AcDbEntity
  8
Calque_1
 62
7
100
AcDbSpline
 70
8
 71
3
 72
8
 73
4
 74
0
 40
0
 40
0
 40
0
 40
0
 40
1
 40
1
 40
1
 40
1
 10
864.353800
 20
753.910957
 30
0.0
 10
863.467260
 20
753.910957
 30
0.0
 10
862.794317
 20
754.186565
 30
0.0
 10
862.334970
 20
754.737780
 30
0.0
  0
SPLINE
  5
2c9
100
AcDbEntity
  8
Calque_1
 62
7
100
AcDbSpline
 70
8
 71
3
 72
8
 73
4
 74
0
 40
0
 40
0
 40
0
 40
0
 40
1
 40
1
 40
1
 40
1
 10
862.334970
 20
754.737780
 30
0.0
 10
861.875623
 20
755.288995
 30
0.0
 10
861.645950
 20
756.095148
 30
0.0
 10
861.645950
 20
757.156237
 30
0.0
  0
LINE
  5
2ca
100
AcDbEntity
  8
Calque_1
 62
7
100
AcDbLine
 10
861.645950
 20
757.156237
 30
0.0
 11
861.645950
 21
757.156237
 31
0.0
  0
LINE
  5
2cb
100
AcDbEntity
  8
Calque_1
 62
7
100
AcDbLine
 10
864.836110
 20
762.013822
 30
0.0
 11
864.836110
 21
762.013822
 31
0.0
  0
LINE
  5
2cc
100
AcDbEntity
  8
Calque_1
 62
7
100
AcDbLine
 10
877.334920
 20
758.286228
 30
0.0
 11
877.334920
 21
757.666111
 31
0.0
  0
LINE
  5
2cd
100
AcDbEntity
  8
Calque_1
 62
7
100
AcDbLine
 10
877.334920
 20
757.666111
 30
0.0
 11
871.505820
 21
757.666111
 31
0.0
  0
SPLINE
  5
2ce
100
AcDbEntity
  8
Calque_1
 62
7
100
AcDbSpline
 70
8
 71
3
 72
8
 73
4
 74
0
 40
0
 40
0
 40
0
 40
0
 40
1
 40
1
 40
1
 40
1
 10
871.505820
 20
757.666111
 30
0.0
 10
871.560953
 20
756.793354
 30
0.0
 10
871.822780
 20
756.127302
 30
0.0
 10
872.291300
 20
755.667956
 30
0.0
  0
SPLINE
  5
2cf
100
AcDbEntity
  8
Calque_1
 62
7
100
AcDbSpline
 70
8
 71
3
 72
8
 73
4
 74
0
 40
0
 40
0
 40
0
 40
0
 40
1
 40
1
 40
1
 40
1
 10
872.291300
 20
755.667956
 30
0.0
 10
872.764427
 20
755.213203
 30
0.0
 10
873.421293
 20
754.985827
 30
0.0
 10
874.261900
 20
754.985827
 30
0.0
  0
SPLINE
  5
2d0
100
AcDbEntity
  8
Calque_1
 62
7
100
AcDbSpline
 70
8
 71
3
 72
8
 73
4
 74
0
 40
0
 40
0
 40
0
 40
0
 40
1
 40
1
 40
1
 40
1
 10
874.261900
 20
754.985827
 30
0.0
 10
874.748807
 20
754.985827
 30
0.0
 10
875.219637
 20
755.045542
 30
0.0
 10
875.674390
 20
755.164972
 30
0.0
  0
SPLINE
  5
2d1
100
AcDbEntity
  8
Calque_1
 62
7
100
AcDbSpline
 70
8
 71
3
 72
8
 73
4
 74
0
 40
0
 40
0
 40
0
 40
0
 40
1
 40
1
 40
1
 40
1
 10
875.674390
 20
755.164972
 30
0.0
 10
876.133737
 20
755.284402
 30
0.0
 10
876.588487
 20
755.463547
 30
0.0
 10
877.038640
 20
755.702407
 30
0.0
  0
LINE
  5
2d2
100
AcDbEntity
  8
Calque_1
 62
7
100
AcDbLine
 10
877.038640
 20
755.702407
 30
0.0
 11
877.038640
 21
754.503514
 31
0.0
  0
SPLINE
  5
2d3
100
AcDbEntity
  8
Calque_1
 62
7
100
AcDbSpline
 70
8
 71
3
 72
8
 73
4
 74
0
 40
0
 40
0
 40
0
 40
0
 40
1
 40
1
 40
1
 40
1
 10
877.038640
 20
754.503514
 30
0.0
 10
876.583893
 20
754.310589
 30
0.0
 10
876.117660
 20
754.163598
 30
0.0
 10
875.639940
 20
754.062541
 30
0.0
  0
SPLINE
  5
2d4
100
AcDbEntity
  8
Calque_1
 62
7
100
AcDbSpline
 70
8
 71
3
 72
8
 73
4
 74
0
 40
0
 40
0
 40
0
 40
0
 40
1
 40
1
 40
1
 40
1
 10
875.639940
 20
754.062541
 30
0.0
 10
875.162220
 20
753.961485
 30
0.0
 10
874.677607
 20
753.910957
 30
0.0
 10
874.186100
 20
753.910957
 30
0.0
  0
SPLINE
  5
2d5
100
AcDbEntity
  8
Calque_1
 62
7
100
AcDbSpline
 70
8
 71
3
 72
8
 73
4
 74
0
 40
0
 40
0
 40
0
 40
0
 40
1
 40
1
 40
1
 40
1
 10
874.186100
 20
753.910957
 30
0.0
 10
872.955053
 20
753.910957
 30
0.0
 10
871.978943
 20
754.269247
 30
0.0
 10
871.257770
 20
754.985827
 30
0.0
  0
SPLINE
  5
2d6
100
AcDbEntity
  8
Calque_1
 62
7
100
AcDbSpline
 70
8
 71
3
 72
8
 73
4
 74
0
 40
0
 40
0
 40
0
 40
0
 40
1
 40
1
 40
1
 40
1
 10
871.257770
 20
754.985827
 30
0.0
 10
870.541190
 20
755.702407
 30
0.0
 10
870.182900
 20
756.671627
 30
0.0
 10
870.182900
 20
757.893487
 30
0.0
  0
SPLINE
  5
2d7
100
AcDbEntity
  8
Calque_1
 62
7
100
AcDbSpline
 70
8
 71
3
 72
8
 73
4
 74
0
 40
0
 40
0
 40
0
 40
0
 40
1
 40
1
 40
1
 40
1
 10
870.182900
 20
757.893487
 30
0.0
 10
870.182900
 20
759.156689
 30
0.0
 10
870.522817
 20
760.158064
 30
0.0
 10
871.202650
 20
760.897611
 30
0.0
  0
SPLINE
  5
2d8
100
AcDbEntity
  8
Calque_1
 62
7
100
AcDbSpline
 70
8
 71
3
 72
8
 73
4
 74
0
 40
0
 40
0
 40
0
 40
0
 40
1
 40
1
 40
1
 40
1
 10
871.202650
 20
760.897611
 30
0.0
 10
871.887077
 20
761.641752
 30
0.0
 10
872.808067
 20
762.013822
 30
0.0
 10
873.965620
 20
762.013822
 30
0.0
  0
SPLINE
  5
2d9
100
AcDbEntity
  8
Calque_1
 62
7
100
AcDbSpline
 70
8
 71
3
 72
8
 73
4
 74
0
 40
0
 40
0
 40
0
 40
0
 40
1
 40
1
 40
1
 40
1
 10
873.965620
 20
762.013822
 30
0.0
 10
875.003740
 20
762.013822
 30
0.0
 10
875.823673
 20
761.678499
 30
0.0
 10
876.425420
 20
761.007854
 30
0.0
  0
SPLINE
  5
2da
100
AcDbEntity
  8
Calque_1
 62
7
100
AcDbSpline
 70
8
 71
3
 72
8
 73
4
 74
0
 40
0
 40
0
 40
0
 40
0
 40
1
 40
1
 40
1
 40
1
 10
876.425420
 20
761.007854
 30
0.0
 10
877.031753
 20
760.341802
 30
0.0
 10
877.334920
 20
759.434593
 30
0.0
 10
877.334920
 20
758.286228
 30
0.0
  0
LINE
  5
2db
100
AcDbEntity
  8
Calque_1
 62
7
100
AcDbLine
 10
877.334920
 20
758.286228
 30
0.0
 11
877.334920
 21
758.286228
 31
0.0
  0
SPLINE
  5
2dc
100
AcDbEntity
  8
Calque_1
 62
7
100
AcDbSpline
 70
8
 71
3
 72
8
 73
4
 74
0
 40
0
 40
0
 40
0
 40
0
 40
1
 40
1
 40
1
 40
1
 10
876.067130
 20
758.658299
 30
0.0
 10
876.057930
 20
759.351911
 30
0.0
 10
875.862707
 20
759.905423
 30
0.0
 10
875.481460
 20
760.318835
 30
0.0
  0
SPLINE
  5
2dd
100
AcDbEntity
  8
Calque_1
 62
7
100
AcDbSpline
 70
8
 71
3
 72
8
 73
4
 74
0
 40
0
 40
0
 40
0
 40
0
 40
1
 40
1
 40
1
 40
1
 10
875.481460
 20
760.318835
 30
0.0
 10
875.104800
 20
760.732246
 30
0.0
 10
874.604113
 20
760.938952
 30
0.0
 10
873.979400
 20
760.938952
 30
0.0
  0
SPLINE
  5
2de
100
AcDbEntity
  8
Calque_1
 62
7
100
AcDbSpline
 70
8
 71
3
 72
8
 73
4
 74
0
 40
0
 40
0
 40
0
 40
0
 40
1
 40
1
 40
1
 40
1
 10
873.979400
 20
760.938952
 30
0.0
 10
873.272007
 20
760.938952
 30
0.0
 10
872.704713
 20
760.739136
 30
0.0
 10
872.277520
 20
760.339505
 30
0.0
  0
SPLINE
  5
2df
100
AcDbEntity
  8
Calque_1
 62
7
100
AcDbSpline
 70
8
 71
3
 72
8
 73
4
 74
0
 40
0
 40
0
 40
0
 40
0
 40
1
 40
1
 40
1
 40
1
 10
872.277520
 20
760.339505
 30
0.0
 10
871.854920
 20
759.939874
 30
0.0
 10
871.611467
 20
759.377175
 30
0.0
 10
871.547160
 20
758.651408
 30
0.0
  0
LINE
  5
2e0
100
AcDbEntity
  8
Calque_1
 62
7
100
AcDbLine
 10
871.547160
 20
758.651408
 30
0.0
 11
876.067130
 21
758.658299
 31
0.0
  0
LINE
  5
2e1
100
AcDbEntity
  8
Calque_1
 62
7
100
AcDbLine
 10
800.461060
 20
746.510892
 30
0.0
 11
800.461060
 21
750.686348
 31
0.0
  0
LINE
  5
2e2
100
AcDbEntity
  8
Calque_1
 62
7
100
AcDbLine
 10
800.461060
 20
750.686348
 30
0.0
 11
801.728860
 21
750.686348
 31
0.0
  0
LINE
  5
2e3
100
AcDbEntity
  8
Calque_1
 62
7
100
AcDbLine
 10
801.728860
 20
750.686348
 30
0.0
 11
801.728860
 21
739.965211
 31
0.0
  0
LINE
  5
2e4
100
AcDbEntity
  8
Calque_1
 62
7
100
AcDbLine
 10
801.728860
 20
739.965211
 30
0.0
 11
800.461060
 21
739.965211
 31
0.0
  0
LINE
  5
2e5
100
AcDbEntity
  8
Calque_1
 62
7
100
AcDbLine
 10
800.461060
 20
739.965211
 30
0.0
 11
800.461060
 21
741.122763
 31
0.0
  0
SPLINE
  5
2e6
100
AcDbEntity
  8
Calque_1
 62
7
100
AcDbSpline
 70
8
 71
3
 72
8
 73
4
 74
0
 40
0
 40
0
 40
0
 40
0
 40
1
 40
1
 40
1
 40
1
 10
800.461060
 20
741.122763
 30
0.0
 10
800.194640
 20
740.663417
 30
0.0
 10
799.857020
 20
740.321204
 30
0.0
 10
799.448200
 20
740.096125
 30
0.0
  0
SPLINE
  5
2e7
100
AcDbEntity
  8
Calque_1
 62
7
100
AcDbSpline
 70
8
 71
3
 72
8
 73
4
 74
0
 40
0
 40
0
 40
0
 40
0
 40
1
 40
1
 40
1
 40
1
 10
799.448200
 20
740.096125
 30
0.0
 10
799.043980
 20
739.875639
 30
0.0
 10
798.557073
 20
739.765396
 30
0.0
 10
797.987480
 20
739.765396
 30
0.0
  0
SPLINE
  5
2e8
100
AcDbEntity
  8
Calque_1
 62
7
100
AcDbSpline
 70
8
 71
3
 72
8
 73
4
 74
0
 40
0
 40
0
 40
0
 40
0
 40
1
 40
1
 40
1
 40
1
 10
797.987480
 20
739.765396
 30
0.0
 10
797.055013
 20
739.765396
 30
0.0
 10
796.294797
 20
740.137466
 30
0.0
 10
795.706830
 20
740.881606
 30
0.0
  0
SPLINE
  5
2e9
100
AcDbEntity
  8
Calque_1
 62
7
100
AcDbSpline
 70
8
 71
3
 72
8
 73
4
 74
0
 40
0
 40
0
 40
0
 40
0
 40
1
 40
1
 40
1
 40
1
 10
795.706830
 20
740.881606
 30
0.0
 10
795.123463
 20
741.625747
 30
0.0
 10
794.831780
 20
742.604154
 30
0.0
 10
794.831780
 20
743.816828
 30
0.0
  0
SPLINE
  5
2ea
100
AcDbEntity
  8
Calque_1
 62
7
100
AcDbSpline
 70
8
 71
3
 72
8
 73
4
 74
0
 40
0
 40
0
 40
0
 40
0
 40
1
 40
1
 40
1
 40
1
 10
794.831780
 20
743.816828
 30
0.0
 10
794.831780
 20
745.029501
 30
0.0
 10
795.123463
 20
746.007908
 30
0.0
 10
795.706830
 20
746.752049
 30
0.0
  0
SPLINE
  5
2eb
100
AcDbEntity
  8
Calque_1
 62
7
100
AcDbSpline
 70
8
 71
3
 72
8
 73
4
 74
0
 40
0
 40
0
 40
0
 40
0
 40
1
 40
1
 40
1
 40
1
 10
795.706830
 20
746.752049
 30
0.0
 10
796.294797
 20
747.496190
 30
0.0
 10
797.055013
 20
747.868260
 30
0.0
 10
797.987480
 20
747.868260
 30
0.0
  0
SPLINE
  5
2ec
100
AcDbEntity
  8
Calque_1
 62
7
100
AcDbSpline
 70
8
 71
3
 72
8
 73
4
 74
0
 40
0
 40
0
 40
0
 40
0
 40
1
 40
1
 40
1
 40
1
 10
797.987480
 20
747.868260
 30
0.0
 10
798.557073
 20
747.868260
 30
0.0
 10
799.043980
 20
747.755720
 30
0.0
 10
799.448200
 20
747.530641
 30
0.0
  0
SPLINE
  5
2ed
100
AcDbEntity
  8
Calque_1
 62
7
100
AcDbSpline
 70
8
 71
3
 72
8
 73
4
 74
0
 40
0
 40
0
 40
0
 40
0
 40
1
 40
1
 40
1
 40
1
 10
799.448200
 20
747.530641
 30
0.0
 10
799.857020
 20
747.310154
 30
0.0
 10
800.194640
 20
746.970238
 30
0.0
 10
800.461060
 20
746.510892
 30
0.0
  0
LINE
  5
2ee
100
AcDbEntity
  8
Calque_1
 62
7
100
AcDbLine
 10
800.461060
 20
746.510892
 30
0.0
 11
800.461060
 21
746.510892
 31
0.0
  0
SPLINE
  5
2ef
100
AcDbEntity
  8
Calque_1
 62
7
100
AcDbSpline
 70
8
 71
3
 72
8
 73
4
 74
0
 40
0
 40
0
 40
0
 40
0
 40
1
 40
1
 40
1
 40
1
 10
796.140910
 20
743.816828
 30
0.0
 10
796.140910
 20
742.884355
 30
0.0
 10
796.331540
 20
742.151698
 30
0.0
 10
796.712800
 20
741.618857
 30
0.0
  0
SPLINE
  5
2f0
100
AcDbEntity
  8
Calque_1
 62
7
100
AcDbSpline
 70
8
 71
3
 72
8
 73
4
 74
0
 40
0
 40
0
 40
0
 40
0
 40
1
 40
1
 40
1
 40
1
 10
796.712800
 20
741.618857
 30
0.0
 10
797.098647
 20
741.090609
 30
0.0
 10
797.626893
 20
740.826485
 30
0.0
 10
798.297540
 20
740.826485
 30
0.0
  0
SPLINE
  5
2f1
100
AcDbEntity
  8
Calque_1
 62
7
100
AcDbSpline
 70
8
 71
3
 72
8
 73
4
 74
0
 40
0
 40
0
 40
0
 40
0
 40
1
 40
1
 40
1
 40
1
 10
798.297540
 20
740.826485
 30
0.0
 10
798.968187
 20
740.826485
 30
0.0
 10
799.496437
 20
741.090609
 30
0.0
 10
799.882290
 20
741.618857
 30
0.0
  0
SPLINE
  5
2f2
100
AcDbEntity
  8
Calque_1
 62
7
100
AcDbSpline
 70
8
 71
3
 72
8
 73
4
 74
0
 40
0
 40
0
 40
0
 40
0
 40
1
 40
1
 40
1
 40
1
 10
799.882290
 20
741.618857
 30
0.0
 10
800.268137
 20
742.151698
 30
0.0
 10
800.461060
 20
742.884355
 30
0.0
 10
800.461060
 20
743.816828
 30
0.0
  0
SPLINE
  5
2f3
100
AcDbEntity
  8
Calque_1
 62
7
100
AcDbSpline
 70
8
 71
3
 72
8
 73
4
 74
0
 40
0
 40
0
 40
0
 40
0
 40
1
 40
1
 40
1
 40
1
 10
800.461060
 20
743.816828
 30
0.0
 10
800.461060
 20
744.749300
 30
0.0
 10
800.268137
 20
745.479660
 30
0.0
 10
799.882290
 20
746.007908
 30
0.0
  0
SPLINE
  5
2f4
100
AcDbEntity
  8
Calque_1
 62
7
100
AcDbSpline
 70
8
 71
3
 72
8
 73
4
 74
0
 40
0
 40
0
 40
0
 40
0
 40
1
 40
1
 40
1
 40
1
 10
799.882290
 20
746.007908
 30
0.0
 10
799.496437
 20
746.540750
 30
0.0
 10
798.968187
 20
746.807171
 30
0.0
 10
798.297540
 20
746.807171
 30
0.0
  0
SPLINE
  5
2f5
100
AcDbEntity
  8
Calque_1
 62
7
100
AcDbSpline
 70
8
 71
3
 72
8
 73
4
 74
0
 40
0
 40
0
 40
0
 40
0
 40
1
 40
1
 40
1
 40
1
 10
798.297540
 20
746.807171
 30
0.0
 10
797.626893
 20
746.807171
 30
0.0
 10
797.098647
 20
746.540750
 30
0.0
 10
796.712800
 20
746.007908
 30
0.0
  0
SPLINE
  5
2f6
100
AcDbEntity
  8
Calque_1
 62
7
100
AcDbSpline
 70
8
 71
3
 72
8
 73
4
 74
0
 40
0
 40
0
 40
0
 40
0
 40
1
 40
1
 40
1
 40
1
 10
796.712800
 20
746.007908
 30
0.0
 10
796.331540
 20
745.479660
 30
0.0
 10
796.140910
 20
744.749300
 30
0.0
 10
796.140910
 20
743.816828
 30
0.0
  0
LINE
  5
2f7
100
AcDbEntity
  8
Calque_1
 62
7
100
AcDbLine
 10
796.140910
 20
743.816828
 30
0.0
 11
796.140910
 21
743.816828
 31
0.0
  0
LINE
  5
2f8
100
AcDbEntity
  8
Calque_1
 62
7
100
AcDbLine
 10
810.941040
 20
744.140667
 30
0.0
 11
810.941040
 21
743.520550
 31
0.0
  0
LINE
  5
2f9
100
AcDbEntity
  8
Calque_1
 62
7
100
AcDbLine
 10
810.941040
 20
743.520550
 30
0.0
 11
805.111940
 21
743.520550
 31
0.0
  0
SPLINE
  5
2fa
100
AcDbEntity
  8
Calque_1
 62
7
100
AcDbSpline
 70
8
 71
3
 72
8
 73
4
 74
0
 40
0
 40
0
 40
0
 40
0
 40
1
 40
1
 40
1
 40
1
 10
805.111940
 20
743.520550
 30
0.0
 10
805.167073
 20
742.647792
 30
0.0
 10
805.428900
 20
741.981740
 30
0.0
 10
805.897420
 20
741.522394
 30
0.0
  0
SPLINE
  5
2fb
100
AcDbEntity
  8
Calque_1
 62
7
100
AcDbSpline
 70
8
 71
3
 72
8
 73
4
 74
0
 40
0
 40
0
 40
0
 40
0
 40
1
 40
1
 40
1
 40
1
 10
805.897420
 20
741.522394
 30
0.0
 10
806.370547
 20
741.067641
 30
0.0
 10
807.027413
 20
740.840265
 30
0.0
 10
807.868020
 20
740.840265
 30
0.0
  0
SPLINE
  5
2fc
100
AcDbEntity
  8
Calque_1
 62
7
100
AcDbSpline
 70
8
 71
3
 72
8
 73
4
 74
0
 40
0
 40
0
 40
0
 40
0
 40
1
 40
1
 40
1
 40
1
 10
807.868020
 20
740.840265
 30
0.0
 10
808.354927
 20
740.840265
 30
0.0
 10
808.825757
 20
740.899980
 30
0.0
 10
809.280510
 20
741.019410
 30
0.0
  0
SPLINE
  5
2fd
100
AcDbEntity
  8
Calque_1
 62
7
100
AcDbSpline
 70
8
 71
3
 72
8
 73
4
 74
0
 40
0
 40
0
 40
0
 40
0
 40
1
 40
1
 40
1
 40
1
 10
809.280510
 20
741.019410
 30
0.0
 10
809.739857
 20
741.138840
 30
0.0
 10
810.194607
 20
741.317985
 30
0.0
 10
810.644760
 20
741.556845
 30
0.0
  0
LINE
  5
2fe
100
AcDbEntity
  8
Calque_1
 62
7
100
AcDbLine
 10
810.644760
 20
741.556845
 30
0.0
 11
810.644760
 21
740.357952
 31
0.0
  0
SPLINE
  5
2ff
100
AcDbEntity
  8
Calque_1
 62
7
100
AcDbSpline
 70
8
 71
3
 72
8
 73
4
 74
0
 40
0
 40
0
 40
0
 40
0
 40
1
 40
1
 40
1
 40
1
 10
810.644760
 20
740.357952
 30
0.0
 10
810.190013
 20
740.165027
 30
0.0
 10
809.723780
 20
740.018036
 30
0.0
 10
809.246060
 20
739.916980
 30
0.0
  0
SPLINE
  5
300
100
AcDbEntity
  8
Calque_1
 62
7
100
AcDbSpline
 70
8
 71
3
 72
8
 73
4
 74
0
 40
0
 40
0
 40
0
 40
0
 40
1
 40
1
 40
1
 40
1
 10
809.246060
 20
739.916980
 30
0.0
 10
808.768340
 20
739.815924
 30
0.0
 10
808.283730
 20
739.765396
 30
0.0
 10
807.792230
 20
739.765396
 30
0.0
  0
SPLINE
  5
301
100
AcDbEntity
  8
Calque_1
 62
7
100
AcDbSpline
 70
8
 71
3
 72
8
 73
4
 74
0
 40
0
 40
0
 40
0
 40
0
 40
1
 40
1
 40
1
 40
1
 10
807.792230
 20
739.765396
 30
0.0
 10
806.561177
 20
739.765396
 30
0.0
 10
805.585063
 20
740.123686
 30
0.0
 10
804.863890
 20
740.840265
 30
0.0
  0
SPLINE
  5
302
100
AcDbEntity
  8
Calque_1
 62
7
100
AcDbSpline
 70
8
 71
3
 72
8
 73
4
 74
0
 40
0
 40
0
 40
0
 40
0
 40
1
 40
1
 40
1
 40
1
 10
804.863890
 20
740.840265
 30
0.0
 10
804.147310
 20
741.556845
 30
0.0
 10
803.789020
 20
742.526065
 30
0.0
 10
803.789020
 20
743.747926
 30
0.0
  0
SPLINE
  5
303
100
AcDbEntity
  8
Calque_1
 62
7
100
AcDbSpline
 70
8
 71
3
 72
8
 73
4
 74
0
 40
0
 40
0
 40
0
 40
0
 40
1
 40
1
 40
1
 40
1
 10
803.789020
 20
743.747926
 30
0.0
 10
803.789020
 20
745.011127
 30
0.0
 10
804.128937
 20
746.012502
 30
0.0
 10
804.808770
 20
746.752049
 30
0.0
  0
SPLINE
  5
304
100
AcDbEntity
  8
Calque_1
 62
7
100
AcDbSpline
 70
8
 71
3
 72
8
 73
4
 74
0
 40
0
 40
0
 40
0
 40
0
 40
1
 40
1
 40
1
 40
1
 10
804.808770
 20
746.752049
 30
0.0
 10
805.493197
 20
747.496190
 30
0.0
 10
806.414187
 20
747.868260
 30
0.0
 10
807.571740
 20
747.868260
 30
0.0
  0
SPLINE
  5
305
100
AcDbEntity
  8
Calque_1
 62
7
100
AcDbSpline
 70
8
 71
3
 72
8
 73
4
 74
0
 40
0
 40
0
 40
0
 40
0
 40
1
 40
1
 40
1
 40
1
 10
807.571740
 20
747.868260
 30
0.0
 10
808.609860
 20
747.868260
 30
0.0
 10
809.429793
 20
747.532937
 30
0.0
 10
810.031540
 20
746.862292
 30
0.0
  0
SPLINE
  5
306
100
AcDbEntity
  8
Calque_1
 62
7
100
AcDbSpline
 70
8
 71
3
 72
8
 73
4
 74
0
 40
0
 40
0
 40
0
 40
0
 40
1
 40
1
 40
1
 40
1
 10
810.031540
 20
746.862292
 30
0.0
 10
810.637873
 20
746.196240
 30
0.0
 10
810.941040
 20
745.289032
 30
0.0
 10
810.941040
 20
744.140667
 30
0.0
  0
LINE
  5
307
100
AcDbEntity
  8
Calque_1
 62
7
100
AcDbLine
 10
810.941040
 20
744.140667
 30
0.0
 11
810.941040
 21
744.140667
 31
0.0
  0
SPLINE
  5
308
100
AcDbEntity
  8
Calque_1
 62
7
100
AcDbSpline
 70
8
 71
3
 72
8
 73
4
 74
0
 40
0
 40
0
 40
0
 40
0
 40
1
 40
1
 40
1
 40
1
 10
809.673250
 20
744.512737
 30
0.0
 10
809.664050
 20
745.206350
 30
0.0
 10
809.468827
 20
745.759862
 30
0.0
 10
809.087580
 20
746.173273
 30
0.0
  0
SPLINE
  5
309
100
AcDbEntity
  8
Calque_1
 62
7
100
AcDbSpline
 70
8
 71
3
 72
8
 73
4
 74
0
 40
0
 40
0
 40
0
 40
0
 40
1
 40
1
 40
1
 40
1
 10
809.087580
 20
746.173273
 30
0.0
 10
808.710920
 20
746.586684
 30
0.0
 10
808.210233
 20
746.793390
 30
0.0
 10
807.585520
 20
746.793390
 30
0.0
  0
SPLINE
  5
30a
100
AcDbEntity
  8
Calque_1
 62
7
100
AcDbSpline
 70
8
 71
3
 72
8
 73
4
 74
0
 40
0
 40
0
 40
0
 40
0
 40
1
 40
1
 40
1
 40
1
 10
807.585520
 20
746.793390
 30
0.0
 10
806.878127
 20
746.793390
 30
0.0
 10
806.310833
 20
746.593575
 30
0.0
 10
805.883640
 20
746.193944
 30
0.0
  0
SPLINE
  5
30b
100
AcDbEntity
  8
Calque_1
 62
7
100
AcDbSpline
 70
8
 71
3
 72
8
 73
4
 74
0
 40
0
 40
0
 40
0
 40
0
 40
1
 40
1
 40
1
 40
1
 10
805.883640
 20
746.193944
 30
0.0
 10
805.461040
 20
745.794313
 30
0.0
 10
805.217587
 20
745.231614
 30
0.0
 10
805.153280
 20
744.505847
 30
0.0
  0
LINE
  5
30c
100
AcDbEntity
  8
Calque_1
 62
7
100
AcDbLine
 10
805.153280
 20
744.505847
 30
0.0
 11
809.673250
 21
744.512737
 31
0.0
  0
LINE
  5
30d
100
AcDbEntity
  8
Calque_1
 62
7
100
AcDbLine
 10
817.707210
 20
750.252266
 30
0.0
 11
823.171130
 21
750.252266
 31
0.0
  0
LINE
  5
30e
100
AcDbEntity
  8
Calque_1
 62
7
100
AcDbLine
 10
823.171130
 20
750.252266
 30
0.0
 11
823.171130
 21
749.080933
 31
0.0
  0
LINE
  5
30f
100
AcDbEntity
  8
Calque_1
 62
7
100
AcDbLine
 10
823.171130
 20
749.080933
 30
0.0
 11
818.981890
 21
749.080933
 31
0.0
  0
LINE
  5
310
100
AcDbEntity
  8
Calque_1
 62
7
100
AcDbLine
 10
818.981890
 20
749.080933
 30
0.0
 11
818.981890
 21
746.559124
 31
0.0
  0
SPLINE
  5
311
100
AcDbEntity
  8
Calque_1
 62
7
100
AcDbSpline
 70
8
 71
3
 72
8
 73
4
 74
0
 40
0
 40
0
 40
0
 40
0
 40
1
 40
1
 40
1
 40
1
 10
818.981890
 20
746.559124
 30
0.0
 10
819.184003
 20
746.628026
 30
0.0
 10
819.386117
 20
746.678554
 30
0.0
 10
819.588230
 20
746.710708
 30
0.0
  0
SPLINE
  5
312
100
AcDbEntity
  8
Calque_1
 62
7
100
AcDbSpline
 70
8
 71
3
 72
8
 73
4
 74
0
 40
0
 40
0
 40
0
 40
0
 40
1
 40
1
 40
1
 40
1
 10
819.588230
 20
746.710708
 30
0.0
 10
819.790343
 20
746.747455
 30
0.0
 10
819.992457
 20
746.765828
 30
0.0
 10
820.194570
 20
746.765828
 30
0.0
  0
SPLINE
  5
313
100
AcDbEntity
  8
Calque_1
 62
7
100
AcDbSpline
 70
8
 71
3
 72
8
 73
4
 74
0
 40
0
 40
0
 40
0
 40
0
 40
1
 40
1
 40
1
 40
1
 10
820.194570
 20
746.765828
 30
0.0
 10
821.342937
 20
746.765828
 30
0.0
 10
822.252440
 20
746.451176
 30
0.0
 10
822.923080
 20
745.821872
 30
0.0
  0
SPLINE
  5
314
100
AcDbEntity
  8
Calque_1
 62
7
100
AcDbSpline
 70
8
 71
3
 72
8
 73
4
 74
0
 40
0
 40
0
 40
0
 40
0
 40
1
 40
1
 40
1
 40
1
 10
822.923080
 20
745.821872
 30
0.0
 10
823.593727
 20
745.192568
 30
0.0
 10
823.929050
 20
744.340481
 30
0.0
 10
823.929050
 20
743.265611
 30
0.0
  0
SPLINE
  5
315
100
AcDbEntity
  8
Calque_1
 62
7
100
AcDbSpline
 70
8
 71
3
 72
8
 73
4
 74
0
 40
0
 40
0
 40
0
 40
0
 40
1
 40
1
 40
1
 40
1
 10
823.929050
 20
743.265611
 30
0.0
 10
823.929050
 20
742.158587
 30
0.0
 10
823.584540
 20
741.297313
 30
0.0
 10
822.895520
 20
740.681790
 30
0.0
  0
SPLINE
  5
316
100
AcDbEntity
  8
Calque_1
 62
7
100
AcDbSpline
 70
8
 71
3
 72
8
 73
4
 74
0
 40
0
 40
0
 40
0
 40
0
 40
1
 40
1
 40
1
 40
1
 10
822.895520
 20
740.681790
 30
0.0
 10
822.206500
 20
740.070860
 30
0.0
 10
821.234983
 20
739.765395
 30
0.0
 10
819.980970
 20
739.765395
 30
0.0
  0
SPLINE
  5
317
100
AcDbEntity
  8
Calque_1
 62
7
100
AcDbSpline
 70
8
 71
3
 72
8
 73
4
 74
0
 40
0
 40
0
 40
0
 40
0
 40
1
 40
1
 40
1
 40
1
 10
819.980970
 20
739.765395
 30
0.0
 10
819.549183
 20
739.765395
 30
0.0
 10
819.108213
 20
739.802143
 30
0.0
 10
818.658060
 20
739.875638
 30
0.0
  0
SPLINE
  5
318
100
AcDbEntity
  8
Calque_1
 62
7
100
AcDbSpline
 70
8
 71
3
 72
8
 73
4
 74
0
 40
0
 40
0
 40
0
 40
0
 40
1
 40
1
 40
1
 40
1
 10
818.658060
 20
739.875638
 30
0.0
 10
818.212493
 20
739.949133
 30
0.0
 10
817.750850
 20
740.059376
 30
0.0
 10
817.273130
 20
740.206367
 30
0.0
  0
LINE
  5
319
100
AcDbEntity
  8
Calque_1
 62
7
100
AcDbLine
 10
817.273130
 20
740.206367
 30
0.0
 11
817.273130
 21
741.605075
 31
0.0
  0
SPLINE
  5
31a
100
AcDbEntity
  8
Calque_1
 62
7
100
AcDbSpline
 70
8
 71
3
 72
8
 73
4
 74
0
 40
0
 40
0
 40
0
 40
0
 40
1
 40
1
 40
1
 40
1
 10
817.273130
 20
741.605075
 30
0.0
 10
817.686537
 20
741.379996
 30
0.0
 10
818.113727
 20
741.212335
 30
0.0
 10
818.554700
 20
741.102092
 30
0.0
  0
SPLINE
  5
31b
100
AcDbEntity
  8
Calque_1
 62
7
100
AcDbSpline
 70
8
 71
3
 72
8
 73
4
 74
0
 40
0
 40
0
 40
0
 40
0
 40
1
 40
1
 40
1
 40
1
 10
818.554700
 20
741.102092
 30
0.0
 10
818.995673
 20
740.991849
 30
0.0
 10
819.461910
 20
740.936727
 30
0.0
 10
819.953410
 20
740.936727
 30
0.0
  0
SPLINE
  5
31c
100
AcDbEntity
  8
Calque_1
 62
7
100
AcDbSpline
 70
8
 71
3
 72
8
 73
4
 74
0
 40
0
 40
0
 40
0
 40
0
 40
1
 40
1
 40
1
 40
1
 10
819.953410
 20
740.936727
 30
0.0
 10
820.748077
 20
740.936727
 30
0.0
 10
821.377380
 20
741.145729
 30
0.0
 10
821.841320
 20
741.563734
 30
0.0
  0
SPLINE
  5
31d
100
AcDbEntity
  8
Calque_1
 62
7
100
AcDbSpline
 70
8
 71
3
 72
8
 73
4
 74
0
 40
0
 40
0
 40
0
 40
0
 40
1
 40
1
 40
1
 40
1
 10
821.841320
 20
741.563734
 30
0.0
 10
822.305260
 20
741.981739
 30
0.0
 10
822.537230
 20
742.549032
 30
0.0
 10
822.537230
 20
743.265611
 30
0.0
  0
SPLINE
  5
31e
100
AcDbEntity
  8
Calque_1
 62
7
100
AcDbSpline
 70
8
 71
3
 72
8
 73
4
 74
0
 40
0
 40
0
 40
0
 40
0
 40
1
 40
1
 40
1
 40
1
 10
822.537230
 20
743.265611
 30
0.0
 10
822.537230
 20
743.982191
 30
0.0
 10
822.305260
 20
744.549484
 30
0.0
 10
821.841320
 20
744.967489
 30
0.0
  0
SPLINE
  5
31f
100
AcDbEntity
  8
Calque_1
 62
7
100
AcDbSpline
 70
8
 71
3
 72
8
 73
4
 74
0
 40
0
 40
0
 40
0
 40
0
 40
1
 40
1
 40
1
 40
1
 10
821.841320
 20
744.967489
 30
0.0
 10
821.377380
 20
745.385494
 30
0.0
 10
820.748077
 20
745.594496
 30
0.0
 10
819.953410
 20
745.594496
 30
0.0
  0
SPLINE
  5
320
100
AcDbEntity
  8
Calque_1
 62
7
100
AcDbSpline
 70
8
 71
3
 72
8
 73
4
 74
0
 40
0
 40
0
 40
0
 40
0
 40
1
 40
1
 40
1
 40
1
 10
819.953410
 20
745.594496
 30
0.0
 10
819.581343
 20
745.594496
 30
0.0
 10
819.209273
 20
745.553155
 30
0.0
 10
818.837200
 20
745.470473
 30
0.0
  0
SPLINE
  5
321
100
AcDbEntity
  8
Calque_1
 62
7
100
AcDbSpline
 70
8
 71
3
 72
8
 73
4
 74
0
 40
0
 40
0
 40
0
 40
0
 40
1
 40
1
 40
1
 40
1
 10
818.837200
 20
745.470473
 30
0.0
 10
818.469727
 20
745.387790
 30
0.0
 10
818.093063
 20
745.259173
 30
0.0
 10
817.707210
 20
745.084622
 30
0.0
  0
LINE
  5
322
100
AcDbEntity
  8
Calque_1
 62
7
100
AcDbLine
 10
817.707210
 20
745.084622
 30
0.0
 11
817.707210
 21
750.252266
 31
0.0
  0
SPLINE
  5
323
100
AcDbEntity
  8
Calque_1
 62
7
100
AcDbSpline
 70
8
 71
3
 72
8
 73
4
 74
0
 40
0
 40
0
 40
0
 40
0
 40
1
 40
1
 40
1
 40
1
 10
832.507340
 20
746.200834
 30
0.0
 10
832.824287
 20
746.770423
 30
0.0
 10
833.203247
 20
747.190724
 30
0.0
 10
833.644220
 20
747.461739
 30
0.0
  0
SPLINE
  5
324
100
AcDbEntity
  8
Calque_1
 62
7
100
AcDbSpline
 70
8
 71
3
 72
8
 73
4
 74
0
 40
0
 40
0
 40
0
 40
0
 40
1
 40
1
 40
1
 40
1
 10
833.644220
 20
747.461739
 30
0.0
 10
834.085193
 20
747.732753
 30
0.0
 10
834.604253
 20
747.868260
 30
0.0
 10
835.201400
 20
747.868260
 30
0.0
  0
SPLINE
  5
325
100
AcDbEntity
  8
Calque_1
 62
7
100
AcDbSpline
 70
8
 71
3
 72
8
 73
4
 74
0
 40
0
 40
0
 40
0
 40
0
 40
1
 40
1
 40
1
 40
1
 10
835.201400
 20
747.868260
 30
0.0
 10
836.005260
 20
747.868260
 30
0.0
 10
836.625380
 20
747.585762
 30
0.0
 10
837.061760
 20
747.020766
 30
0.0
  0
SPLINE
  5
326
100
AcDbEntity
  8
Calque_1
 62
7
100
AcDbSpline
 70
8
 71
3
 72
8
 73
4
 74
0
 40
0
 40
0
 40
0
 40
0
 40
1
 40
1
 40
1
 40
1
 10
837.061760
 20
747.020766
 30
0.0
 10
837.498133
 20
746.460364
 30
0.0
 10
837.716320
 20
745.661102
 30
0.0
 10
837.716320
 20
744.622980
 30
0.0
  0
LINE
  5
327
100
AcDbEntity
  8
Calque_1
 62
7
100
AcDbLine
 10
837.716320
 20
744.622980
 30
0.0
 11
837.716320
 21
739.965211
 31
0.0
  0
LINE
  5
328
100
AcDbEntity
  8
Calque_1
 62
7
100
AcDbLine
 10
837.716320
 20
739.965211
 30
0.0
 11
836.441640
 21
739.965211
 31
0.0
  0
LINE
  5
329
100
AcDbEntity
  8
Calque_1
 62
7
100
AcDbLine
 10
836.441640
 20
739.965211
 30
0.0
 11
836.441640
 21
744.581639
 31
0.0
  0
SPLINE
  5
32a
100
AcDbEntity
  8
Calque_1
 62
7
100
AcDbSpline
 70
8
 71
3
 72
8
 73
4
 74
0
 40
0
 40
0
 40
0
 40
0
 40
1
 40
1
 40
1
 40
1
 10
836.441640
 20
744.581639
 30
0.0
 10
836.441640
 20
745.321186
 30
0.0
 10
836.310727
 20
745.870105
 30
0.0
 10
836.048900
 20
746.228394
 30
0.0
  0
SPLINE
  5
32b
100
AcDbEntity
  8
Calque_1
 62
7
100
AcDbSpline
 70
8
 71
3
 72
8
 73
4
 74
0
 40
0
 40
0
 40
0
 40
0
 40
1
 40
1
 40
1
 40
1
 10
836.048900
 20
746.228394
 30
0.0
 10
835.787073
 20
746.586684
 30
0.0
 10
835.387443
 20
746.765829
 30
0.0
 10
834.850010
 20
746.765829
 30
0.0
  0
SPLINE
  5
32c
100
AcDbEntity
  8
Calque_1
 62
7
100
AcDbSpline
 70
8
 71
3
 72
8
 73
4
 74
0
 40
0
 40
0
 40
0
 40
0
 40
1
 40
1
 40
1
 40
1
 10
834.850010
 20
746.765829
 30
0.0
 10
834.193143
 20
746.765829
 30
0.0
 10
833.674080
 20
746.547640
 30
0.0
 10
833.292820
 20
746.111261
 30
0.0
  0
SPLINE
  5
32d
100
AcDbEntity
  8
Calque_1
 62
7
100
AcDbSpline
 70
8
 71
3
 72
8
 73
4
 74
0
 40
0
 40
0
 40
0
 40
0
 40
1
 40
1
 40
1
 40
1
 10
833.292820
 20
746.111261
 30
0.0
 10
832.911567
 20
745.674882
 30
0.0
 10
832.720940
 20
745.080029
 30
0.0
 10
832.720940
 20
744.326702
 30
0.0
  0
LINE
  5
32e
100
AcDbEntity
  8
Calque_1
 62
7
100
AcDbLine
 10
832.720940
 20
744.326702
 30
0.0
 11
832.720940
 21
739.965211
 31
0.0
  0
LINE
  5
32f
100
AcDbEntity
  8
Calque_1
 62
7
100
AcDbLine
 10
832.720940
 20
739.965211
 30
0.0
 11
831.446250
 21
739.965211
 31
0.0
  0
LINE
  5
330
100
AcDbEntity
  8
Calque_1
 62
7
100
AcDbLine
 10
831.446250
 20
739.965211
 30
0.0
 11
831.446250
 21
744.581639
 31
0.0
  0
SPLINE
  5
331
100
AcDbEntity
  8
Calque_1
 62
7
100
AcDbSpline
 70
8
 71
3
 72
8
 73
4
 74
0
 40
0
 40
0
 40
0
 40
0
 40
1
 40
1
 40
1
 40
1
 10
831.446250
 20
744.581639
 30
0.0
 10
831.446250
 20
745.325780
 30
0.0
 10
831.315337
 20
745.874698
 30
0.0
 10
831.053510
 20
746.228394
 30
0.0
  0
SPLINE
  5
332
100
AcDbEntity
  8
Calque_1
 62
7
100
AcDbSpline
 70
8
 71
3
 72
8
 73
4
 74
0
 40
0
 40
0
 40
0
 40
0
 40
1
 40
1
 40
1
 40
1
 10
831.053510
 20
746.228394
 30
0.0
 10
830.791683
 20
746.586684
 30
0.0
 10
830.387460
 20
746.765829
 30
0.0
 10
829.840840
 20
746.765829
 30
0.0
  0
SPLINE
  5
333
100
AcDbEntity
  8
Calque_1
 62
7
100
AcDbSpline
 70
8
 71
3
 72
8
 73
4
 74
0
 40
0
 40
0
 40
0
 40
0
 40
1
 40
1
 40
1
 40
1
 10
829.840840
 20
746.765829
 30
0.0
 10
829.193160
 20
746.765829
 30
0.0
 10
828.678690
 20
746.545343
 30
0.0
 10
828.297430
 20
746.104371
 30
0.0
  0
SPLINE
  5
334
100
AcDbEntity
  8
Calque_1
 62
7
100
AcDbSpline
 70
8
 71
3
 72
8
 73
4
 74
0
 40
0
 40
0
 40
0
 40
0
 40
1
 40
1
 40
1
 40
1
 10
828.297430
 20
746.104371
 30
0.0
 10
827.916177
 20
745.667992
 30
0.0
 10
827.725550
 20
745.075436
 30
0.0
 10
827.725550
 20
744.326702
 30
0.0
  0
LINE
  5
335
100
AcDbEntity
  8
Calque_1
 62
7
100
AcDbLine
 10
827.725550
 20
744.326702
 30
0.0
 11
827.725550
 21
739.965211
 31
0.0
  0
LINE
  5
336
100
AcDbEntity
  8
Calque_1
 62
7
100
AcDbLine
 10
827.725550
 20
739.965211
 30
0.0
 11
826.450860
 21
739.965211
 31
0.0
  0
LINE
  5
337
100
AcDbEntity
  8
Calque_1
 62
7
100
AcDbLine
 10
826.450860
 20
739.965211
 30
0.0
 11
826.450860
 21
747.682225
 31
0.0
  0
LINE
  5
338
100
AcDbEntity
  8
Calque_1
 62
7
100
AcDbLine
 10
826.450860
 20
747.682225
 30
0.0
 11
827.725550
 21
747.682225
 31
0.0
  0
LINE
  5
339
100
AcDbEntity
  8
Calque_1
 62
7
100
AcDbLine
 10
827.725550
 20
747.682225
 30
0.0
 11
827.725550
 21
746.483332
 31
0.0
  0
SPLINE
  5
33a
100
AcDbEntity
  8
Calque_1
 62
7
100
AcDbSpline
 70
8
 71
3
 72
8
 73
4
 74
0
 40
0
 40
0
 40
0
 40
0
 40
1
 40
1
 40
1
 40
1
 10
827.725550
 20
746.483332
 30
0.0
 10
828.014937
 20
746.956458
 30
0.0
 10
828.361743
 20
747.305561
 30
0.0
 10
828.765970
 20
747.530641
 30
0.0
  0
SPLINE
  5
33b
100
AcDbEntity
  8
Calque_1
 62
7
100
AcDbSpline
 70
8
 71
3
 72
8
 73
4
 74
0
 40
0
 40
0
 40
0
 40
0
 40
1
 40
1
 40
1
 40
1
 10
828.765970
 20
747.530641
 30
0.0
 10
829.170190
 20
747.755720
 30
0.0
 10
829.650207
 20
747.868260
 30
0.0
 10
830.206020
 20
747.868260
 30
0.0
  0
SPLINE
  5
33c
100
AcDbEntity
  8
Calque_1
 62
7
100
AcDbSpline
 70
8
 71
3
 72
8
 73
4
 74
0
 40
0
 40
0
 40
0
 40
0
 40
1
 40
1
 40
1
 40
1
 10
830.206020
 20
747.868260
 30
0.0
 10
830.766420
 20
747.868260
 30
0.0
 10
831.241843
 20
747.725863
 30
0.0
 10
831.632290
 20
747.441068
 30
0.0
  0
SPLINE
  5
33d
100
AcDbEntity
  8
Calque_1
 62
7
100
AcDbSpline
 70
8
 71
3
 72
8
 73
4
 74
0
 40
0
 40
0
 40
0
 40
0
 40
1
 40
1
 40
1
 40
1
 10
831.632290
 20
747.441068
 30
0.0
 10
832.027323
 20
747.156273
 30
0.0
 10
832.319007
 20
746.742862
 30
0.0
 10
832.507340
 20
746.200834
 30
0.0
  0
LINE
  5
33e
100
AcDbEntity
  8
Calque_1
 62
7
100
AcDbLine
 10
832.507340
 20
746.200834
 30
0.0
 11
832.507340
 21
746.200834
 31
0.0
  0
SPLINE
  5
33f
100
AcDbEntity
  8
Calque_1
 62
7
100
AcDbSpline
 70
8
 71
3
 72
8
 73
4
 74
0
 40
0
 40
0
 40
0
 40
0
 40
1
 40
1
 40
1
 40
1
 10
846.260160
 20
746.200834
 30
0.0
 10
846.577107
 20
746.770423
 30
0.0
 10
846.956067
 20
747.190724
 30
0.0
 10
847.397040
 20
747.461739
 30
0.0
  0
SPLINE
  5
340
100
AcDbEntity
  8
Calque_1
 62
7
100
AcDbSpline
 70
8
 71
3
 72
8
 73
4
 74
0
 40
0
 40
0
 40
0
 40
0
 40
1
 40
1
 40
1
 40
1
 10
847.397040
 20
747.461739
 30
0.0
 10
847.838013
 20
747.732753
 30
0.0
 10
848.357077
 20
747.868260
 30
0.0
 10
848.954230
 20
747.868260
 30
0.0
  0
SPLINE
  5
341
100
AcDbEntity
  8
Calque_1
 62
7
100
AcDbSpline
 70
8
 71
3
 72
8
 73
4
 74
0
 40
0
 40
0
 40
0
 40
0
 40
1
 40
1
 40
1
 40
1
 10
848.954230
 20
747.868260
 30
0.0
 10
849.758083
 20
747.868260
 30
0.0
 10
850.378200
 20
747.585762
 30
0.0
 10
850.814580
 20
747.020766
 30
0.0
  0
SPLINE
  5
342
100
AcDbEntity
  8
Calque_1
 62
7
100
AcDbSpline
 70
8
 71
3
 72
8
 73
4
 74
0
 40
0
 40
0
 40
0
 40
0
 40
1
 40
1
 40
1
 40
1
 10
850.814580
 20
747.020766
 30
0.0
 10
851.250960
 20
746.460364
 30
0.0
 10
851.469150
 20
745.661102
 30
0.0
 10
851.469150
 20
744.622980
 30
0.0
  0
LINE
  5
343
100
AcDbEntity
  8
Calque_1
 62
7
100
AcDbLine
 10
851.469150
 20
744.622980
 30
0.0
 11
851.469150
 21
739.965211
 31
0.0
  0
LINE
  5
344
100
AcDbEntity
  8
Calque_1
 62
7
100
AcDbLine
 10
851.469150
 20
739.965211
 30
0.0
 11
850.194460
 21
739.965211
 31
0.0
  0
LINE
  5
345
100
AcDbEntity
  8
Calque_1
 62
7
100
AcDbLine
 10
850.194460
 20
739.965211
 30
0.0
 11
850.194460
 21
744.581639
 31
0.0
  0
SPLINE
  5
346
100
AcDbEntity
  8
Calque_1
 62
7
100
AcDbSpline
 70
8
 71
3
 72
8
 73
4
 74
0
 40
0
 40
0
 40
0
 40
0
 40
1
 40
1
 40
1
 40
1
 10
850.194460
 20
744.581639
 30
0.0
 10
850.194460
 20
745.321186
 30
0.0
 10
850.063547
 20
745.870105
 30
0.0
 10
849.801720
 20
746.228394
 30
0.0
  0
SPLINE
  5
347
100
AcDbEntity
  8
Calque_1
 62
7
100
AcDbSpline
 70
8
 71
3
 72
8
 73
4
 74
0
 40
0
 40
0
 40
0
 40
0
 40
1
 40
1
 40
1
 40
1
 10
849.801720
 20
746.228394
 30
0.0
 10
849.539893
 20
746.586684
 30
0.0
 10
849.140263
 20
746.765829
 30
0.0
 10
848.602830
 20
746.765829
 30
0.0
  0
SPLINE
  5
348
100
AcDbEntity
  8
Calque_1
 62
7
100
AcDbSpline
 70
8
 71
3
 72
8
 73
4
 74
0
 40
0
 40
0
 40
0
 40
0
 40
1
 40
1
 40
1
 40
1
 10
848.602830
 20
746.765829
 30
0.0
 10
847.945963
 20
746.765829
 30
0.0
 10
847.426900
 20
746.547640
 30
0.0
 10
847.045640
 20
746.111261
 30
0.0
  0
SPLINE
  5
349
100
AcDbEntity
  8
Calque_1
 62
7
100
AcDbSpline
 70
8
 71
3
 72
8
 73
4
 74
0
 40
0
 40
0
 40
0
 40
0
 40
1
 40
1
 40
1
 40
1
 10
847.045640
 20
746.111261
 30
0.0
 10
846.664387
 20
745.674882
 30
0.0
 10
846.473760
 20
745.080029
 30
0.0
 10
846.473760
 20
744.326702
 30
0.0
  0
LINE
  5
34a
100
AcDbEntity
  8
Calque_1
 62
7
100
AcDbLine
 10
846.473760
 20
744.326702
 30
0.0
 11
846.473760
 21
739.965211
 31
0.0
  0
LINE
  5
34b
100
AcDbEntity
  8
Calque_1
 62
7
100
AcDbLine
 10
846.473760
 20
739.965211
 30
0.0
 11
845.199070
 21
739.965211
 31
0.0
  0
LINE
  5
34c
100
AcDbEntity
  8
Calque_1
 62
7
100
AcDbLine
 10
845.199070
 20
739.965211
 30
0.0
 11
845.199070
 21
744.581639
 31
0.0
  0
SPLINE
  5
34d
100
AcDbEntity
  8
Calque_1
 62
7
100
AcDbSpline
 70
8
 71
3
 72
8
 73
4
 74
0
 40
0
 40
0
 40
0
 40
0
 40
1
 40
1
 40
1
 40
1
 10
845.199070
 20
744.581639
 30
0.0
 10
845.199070
 20
745.325780
 30
0.0
 10
845.068157
 20
745.874698
 30
0.0
 10
844.806330
 20
746.228394
 30
0.0
  0
SPLINE
  5
34e
100
AcDbEntity
  8
Calque_1
 62
7
100
AcDbSpline
 70
8
 71
3
 72
8
 73
4
 74
0
 40
0
 40
0
 40
0
 40
0
 40
1
 40
1
 40
1
 40
1
 10
844.806330
 20
746.228394
 30
0.0
 10
844.544503
 20
746.586684
 30
0.0
 10
844.140280
 20
746.765829
 30
0.0
 10
843.593660
 20
746.765829
 30
0.0
  0
SPLINE
  5
34f
100
AcDbEntity
  8
Calque_1
 62
7
100
AcDbSpline
 70
8
 71
3
 72
8
 73
4
 74
0
 40
0
 40
0
 40
0
 40
0
 40
1
 40
1
 40
1
 40
1
 10
843.593660
 20
746.765829
 30
0.0
 10
842.945980
 20
746.765829
 30
0.0
 10
842.431510
 20
746.545343
 30
0.0
 10
842.050250
 20
746.104371
 30
0.0
  0
SPLINE
  5
350
100
AcDbEntity
  8
Calque_1
 62
7
100
AcDbSpline
 70
8
 71
3
 72
8
 73
4
 74
0
 40
0
 40
0
 40
0
 40
0
 40
1
 40
1
 40
1
 40
1
 10
842.050250
 20
746.104371
 30
0.0
 10
841.668997
 20
745.667992
 30
0.0
 10
841.478370
 20
745.075436
 30
0.0
 10
841.478370
 20
744.326702
 30
0.0
  0
LINE
  5
351
100
AcDbEntity
  8
Calque_1
 62
7
100
AcDbLine
 10
841.478370
 20
744.326702
 30
0.0
 11
841.478370
 21
739.965211
 31
0.0
  0
LINE
  5
352
100
AcDbEntity
  8
Calque_1
 62
7
100
AcDbLine
 10
841.478370
 20
739.965211
 30
0.0
 11
840.203680
 21
739.965211
 31
0.0
  0
LINE
  5
353
100
AcDbEntity
  8
Calque_1
 62
7
100
AcDbLine
 10
840.203680
 20
739.965211
 30
0.0
 11
840.203680
 21
747.682225
 31
0.0
  0
LINE
  5
354
100
AcDbEntity
  8
Calque_1
 62
7
100
AcDbLine
 10
840.203680
 20
747.682225
 30
0.0
 11
841.478370
 21
747.682225
 31
0.0
  0
LINE
  5
355
100
AcDbEntity
  8
Calque_1
 62
7
100
AcDbLine
 10
841.478370
 20
747.682225
 30
0.0
 11
841.478370
 21
746.483332
 31
0.0
  0
SPLINE
  5
356
100
AcDbEntity
  8
Calque_1
 62
7
100
AcDbSpline
 70
8
 71
3
 72
8
 73
4
 74
0
 40
0
 40
0
 40
0
 40
0
 40
1
 40
1
 40
1
 40
1
 10
841.478370
 20
746.483332
 30
0.0
 10
841.767757
 20
746.956458
 30
0.0
 10
842.114563
 20
747.305561
 30
0.0
 10
842.518790
 20
747.530641
 30
0.0
  0
SPLINE
  5
357
100
AcDbEntity
  8
Calque_1
 62
7
100
AcDbSpline
 70
8
 71
3
 72
8
 73
4
 74
0
 40
0
 40
0
 40
0
 40
0
 40
1
 40
1
 40
1
 40
1
 10
842.518790
 20
747.530641
 30
0.0
 10
842.923010
 20
747.755720
 30
0.0
 10
843.403027
 20
747.868260
 30
0.0
 10
843.958840
 20
747.868260
 30
0.0
  0
SPLINE
  5
358
100
AcDbEntity
  8
Calque_1
 62
7
100
AcDbSpline
 70
8
 71
3
 72
8
 73
4
 74
0
 40
0
 40
0
 40
0
 40
0
 40
1
 40
1
 40
1
 40
1
 10
843.958840
 20
747.868260
 30
0.0
 10
844.519240
 20
747.868260
 30
0.0
 10
844.994663
 20
747.725863
 30
0.0
 10
845.385110
 20
747.441068
 30
0.0
  0
SPLINE
  5
359
100
AcDbEntity
  8
Calque_1
 62
7
100
AcDbSpline
 70
8
 71
3
 72
8
 73
4
 74
0
 40
0
 40
0
 40
0
 40
0
 40
1
 40
1
 40
1
 40
1
 10
845.385110
 20
747.441068
 30
0.0
 10
845.780143
 20
747.156273
 30
0.0
 10
846.071827
 20
746.742862
 30
0.0
 10
846.260160
 20
746.200834
 30
0.0
  0
LINE
  5
35a
100
AcDbEntity
  8
Calque_1
 62
7
100
AcDbLine
 10
846.260160
 20
746.200834
 30
0.0
 11
846.260160
 21
746.200834
 31
0.0
  0
ENDSEC
  0
SECTION
  2
OBJECTS
  0
DICTIONARY
  5
C
330
0
100
AcDbDictionary
  3
ACAD_GROUP
350
D
  3
ACAD_MLINESTYLE
350
17
  0
DICTIONARY
  5
D
330
C
100
AcDbDictionary
  0
DICTIONARY
  5
1A
330
C
100
AcDbDictionary
  0
DICTIONARY
  5
17
330
C
100
AcDbDictionary
  3
STANDARD
350
18
  0
DICTIONARY
  5
19
330
C
100
AcDbDictionary
  0
ENDSEC
  0
EOF
