  0
SECTION
  2
HEADER
  9
$ACADVER
  1
AC1014
  9
$HANDSEED
  5
FFFF
  9
$MEASUREMENT
 70
     1
  0
ENDSEC
  0
SECTION
  2
TABLES
  0
TABLE
  2
VPORT
  5
8
330
0
100
AcDbSymbolTable
 70
     4
  0
VPORT
  5
2E
330
8
100
AcDbSymbolTableRecord
100
AcDbViewportTableRecord
  2
*ACTIVE
 70
     0
 10
0.0
 20
0.0
 11
1.0
 21
1.0
 12
210.0
 22
148.5
 13
0.0
 23
0.0
 14
10.0
 24
10.0
 15
10.0
 25
10.0
 16
0.0
 26
0.0
 36
1.0
 17
0.0
 27
0.0
 37
0.0
 40
341.0
 41
1.24
 42
50.0
 43
0.0
 44
0.0
 50
0.0
 51
0.0
 71
     0
 72
   100
 73
     1
 74
     3
 75
     0
 76
     0
 77
     0
 78
     0
  0
ENDTAB
  0
TABLE
  2
LTYPE
  5
5
330
0
100
AcDbSymbolTable
 70
     1
  0
LTYPE
  5
14
330
5
100
AcDbSymbolTableRecord
100
AcDbLinetypeTableRecord
  2
BYBLOCK
 70
     0
  3

 72
    65
 73
     0
 40
0.0
  0
LTYPE
  5
15
330
5
100
AcDbSymbolTableRecord
100
AcDbLinetypeTableRecord
  2
BYLAYER
 70
     0
  3

 72
    65
 73
     0
 40
0.0
  0
LTYPE
  5
16
330
5
100
AcDbSymbolTableRecord
100
AcDbLinetypeTableRecord
  2
CONTINUOUS
 70
     0
  3
Solid line
 72
    65
 73
     0
 40
0.0
  0
ENDTAB
  0
TABLE
  2
LAYER
  5
2
100
AcDbSymbolTable
 70
2
  0
LAYER
  5
50
100
AcDbSymbolTableRecord
100
AcDbLayerTableRecord
  2
0
 70
0
  6
CONTINUOUS
  0
LAYER
  5
51
100
AcDbSymbolTableRecord
100
AcDbLayerTableRecord
  2
Calque_1
 70
0
  6
CONTINUOUS
  0
ENDTAB
  0
TABLE
  2
STYLE
  5
3
330
0
100
AcDbSymbolTable
 70
     1
  0
STYLE
  5
11
330
3
100
AcDbSymbolTableRecord
100
AcDbTextStyleTableRecord
  2
STANDARD
 70
     0
 40
0.0
 41
1.0
 50
0.0
 71
     0
 42
2.5
  3
txt
  4

  0
ENDTAB
  0
TABLE
  2
VIEW
  5
6
330
0
100
AcDbSymbolTable
 70
     0
  0
ENDTAB
  0
TABLE
  2
UCS
  5
7
330
0
100
AcDbSymbolTable
 70
     0
  0
ENDTAB
  0
TABLE
  2
APPID
  5
9
330
0
100
AcDbSymbolTable
 70
     2
  0
APPID
  5
12
330
9
100
AcDbSymbolTableRecord
100
AcDbRegAppTableRecord
  2
ACAD
 70
     0
  0
ENDTAB
  0
TABLE
  2
DIMSTYLE
  5
A
330
0
100
AcDbSymbolTable
 70
     1
  0
DIMSTYLE
105
27
330
A
100
AcDbSymbolTableRecord
100
AcDbDimStyleTableRecord
  2
ISO-25
 70
     0
  3

  4

  5

  6

  7

 40
1.0
 41
2.5
 42
0.625
 43
3.75
 44
1.25
 45
0.0
 46
0.0
 47
0.0
 48
0.0
140
2.5
141
2.5
142
0.0
143
0.03937007874016
144
1.0
145
0.0
146
1.0
147
0.625
 71
     0
 72
     0
 73
     0
 74
     0
 75
     0
 76
     0
 77
     1
 78
     8
170
     0
171
     3
172
     1
173
     0
174
     0
175
     0
176
     0
177
     0
178
     0
270
     2
271
     2
272
     2
273
     2
274
     3
340
11
275
     0
280
     0
281
     0
282
     0
283
     0
284
     8
285
     0
286
     0
287
     3
288
     0
  0
ENDTAB
  0
TABLE
  2
BLOCK_RECORD
  5
1
330
0
100
AcDbSymbolTable
 70
     1
  0
BLOCK_RECORD
  5
1F
330
1
100
AcDbSymbolTableRecord
100
AcDbBlockTableRecord
  2
*MODEL_SPACE
  0
BLOCK_RECORD
  5
1B
330
1
100
AcDbSymbolTableRecord
100
AcDbBlockTableRecord
  2
*PAPER_SPACE
  0
ENDTAB
  0
ENDSEC
  0
SECTION
  2
BLOCKS
  0
BLOCK
  5
20
330
1F
100
AcDbEntity
  8
0
100
AcDbBlockBegin
  2
*MODEL_SPACE
 70
     0
 10
0.0
 20
0.0
 30
0.0
  3
*MODEL_SPACE
  1

  0
ENDBLK
  5
21
330
1F
100
AcDbEntity
  8
0
100
AcDbBlockEnd
  0
BLOCK
  5
1C
330
1B
100
AcDbEntity
 67
     1
  8
0
100
AcDbBlockBegin
  2
*PAPER_SPACE
  1

  0
ENDBLK
  5
1D
330
1B
100
AcDbEntity
 67
     1
  8
0
100
AcDbBlockEnd
  0
ENDSEC
  0
SECTION
  2
ENTITIES
  0
SPLINE
  5
100
100
AcDbEntity
  8
Calque_1
 62
1
100
AcDbSpline
 70
8
 71
3
 72
8
 73
4
 74
0
 40
0
 40
0
 40
0
 40
0
 40
1
 40
1
 40
1
 40
1
 10
661.178244
 20
729.857977
 30
0.0
 10
654.930430
 20
721.322073
 30
0.0
 10
651.549871
 20
710.994884
 30
0.0
 10
651.529987
 20
700.383515
 30
0.0
  0
SPLINE
  5
101
100
AcDbEntity
  8
Calque_1
 62
1
100
AcDbSpline
 70
8
 71
3
 72
8
 73
4
 74
0
 40
0
 40
0
 40
0
 40
0
 40
1
 40
1
 40
1
 40
1
 10
651.529987
 20
700.383515
 30
0.0
 10
651.547793
 20
684.785683
 30
0.0
 10
659.801250
 20
670.098342
 30
0.0
 10
672.142856
 20
660.705287
 30
0.0
  0
LINE
  5
102
100
AcDbEntity
  8
Calque_1
 62
1
100
AcDbLine
 10
672.142856
 20
660.705287
 30
0.0
 11
642.631163
 21
566.858940
 31
0.0
  0
LINE
  5
103
100
AcDbEntity
  8
Calque_1
 62
1
100
AcDbLine
 10
642.631163
 20
566.858940
 30
0.0
 11
651.973257
 21
566.858940
 31
0.0
  0
SPLINE
  5
104
100
AcDbEntity
  8
Calque_1
 62
1
100
AcDbSpline
 70
8
 71
3
 72
8
 73
4
 74
0
 40
0
 40
0
 40
0
 40
0
 40
1
 40
1
 40
1
 40
1
 10
651.973257
 20
566.858940
 30
0.0
 10
651.973257
 20
566.858940
 30
0.0
 10
664.238198
 20
592.360534
 30
0.0
 10
669.534778
 20
608.945847
 30
0.0
  0
SPLINE
  5
105
100
AcDbEntity
  8
Calque_1
 62
1
100
AcDbSpline
 70
8
 71
3
 72
8
 73
4
 74
0
 40
0
 40
0
 40
0
 40
0
 40
1
 40
1
 40
1
 40
1
 10
669.534778
 20
608.945847
 30
0.0
 10
673.011885
 20
619.834030
 30
0.0
 10
683.417192
 20
636.363648
 30
0.0
 10
685.559644
 20
646.357721
 30
0.0
  0
SPLINE
  5
106
100
AcDbEntity
  8
Calque_1
 62
1
100
AcDbSpline
 70
8
 71
3
 72
8
 73
4
 74
0
 40
0
 40
0
 40
0
 40
0
 40
1
 40
1
 40
1
 40
1
 10
685.559644
 20
646.357721
 30
0.0
 10
691.981066
 20
643.353831
 30
0.0
 10
694.913114
 20
646.709532
 30
0.0
 10
701.943400
 20
646.728077
 30
0.0
  0
SPLINE
  5
107
100
AcDbEntity
  8
Calque_1
 62
1
100
AcDbSpline
 70
8
 71
3
 72
8
 73
4
 74
0
 40
0
 40
0
 40
0
 40
0
 40
1
 40
1
 40
1
 40
1
 10
701.943400
 20
646.728077
 30
0.0
 10
708.973687
 20
646.709612
 30
0.0
 10
711.905734
 20
643.353831
 30
0.0
 10
718.327156
 20
646.357721
 30
0.0
  0
SPLINE
  5
108
100
AcDbEntity
  8
Calque_1
 62
1
100
AcDbSpline
 70
8
 71
3
 72
8
 73
4
 74
0
 40
0
 40
0
 40
0
 40
0
 40
1
 40
1
 40
1
 40
1
 10
718.327156
 20
646.357721
 30
0.0
 10
720.469608
 20
636.363648
 30
0.0
 10
730.874915
 20
619.834059
 30
0.0
 10
734.352023
 20
608.945847
 30
0.0
  0
SPLINE
  5
109
100
AcDbEntity
  8
Calque_1
 62
1
100
AcDbSpline
 70
8
 71
3
 72
8
 73
4
 74
0
 40
0
 40
0
 40
0
 40
0
 40
1
 40
1
 40
1
 40
1
 10
734.352023
 20
608.945847
 30
0.0
 10
739.648602
 20
592.360534
 30
0.0
 10
751.913890
 20
566.858940
 30
0.0
 10
751.913890
 20
566.858940
 30
0.0
  0
LINE
  5
10a
100
AcDbEntity
  8
Calque_1
 62
1
100
AcDbLine
 10
751.913890
 20
566.858940
 30
0.0
 11
761.256280
 21
566.858940
 31
0.0
  0
LINE
  5
10b
100
AcDbEntity
  8
Calque_1
 62
1
100
AcDbLine
 10
761.256280
 20
566.858940
 30
0.0
 11
731.743945
 21
660.705287
 31
0.0
  0
SPLINE
  5
10c
100
AcDbEntity
  8
Calque_1
 62
1
100
AcDbSpline
 70
8
 71
3
 72
8
 73
4
 74
0
 40
0
 40
0
 40
0
 40
0
 40
1
 40
1
 40
1
 40
1
 10
731.743945
 20
660.705287
 30
0.0
 10
744.085649
 20
670.098342
 30
0.0
 10
752.339353
 20
684.785683
 30
0.0
 10
752.357159
 20
700.383515
 30
0.0
  0
SPLINE
  5
10d
100
AcDbEntity
  8
Calque_1
 62
1
100
AcDbSpline
 70
8
 71
3
 72
8
 73
4
 74
0
 40
0
 40
0
 40
0
 40
0
 40
1
 40
1
 40
1
 40
1
 10
752.357159
 20
700.383515
 30
0.0
 10
752.337375
 20
710.994884
 30
0.0
 10
748.956518
 20
721.322073
 30
0.0
 10
742.708655
 20
729.857977
 30
0.0
  0
LINE
  5
10e
100
AcDbEntity
  8
Calque_1
 62
1
100
AcDbLine
 10
742.708655
 20
729.857977
 30
0.0
 11
742.708655
 21
700.468094
 31
0.0
  0
LINE
  5
10f
100
AcDbEntity
  8
Calque_1
 62
1
100
AcDbLine
 10
742.708655
 20
700.468094
 30
0.0
 11
742.708655
 21
700.468094
 31
0.0
  0
LINE
  5
110
100
AcDbEntity
  8
Calque_1
 62
1
100
AcDbLine
 10
742.708655
 20
700.468094
 30
0.0
 11
742.708655
 21
700.383555
 31
0.0
  0
SPLINE
  5
111
100
AcDbEntity
  8
Calque_1
 62
1
100
AcDbSpline
 70
8
 71
3
 72
8
 73
4
 74
0
 40
0
 40
0
 40
0
 40
0
 40
1
 40
1
 40
1
 40
1
 10
742.708655
 20
700.383555
 30
0.0
 10
742.689860
 20
680.312416
 30
0.0
 10
726.531488
 20
663.392839
 30
0.0
 10
706.792002
 20
660.908541
 30
0.0
  0
LINE
  5
112
100
AcDbEntity
  8
Calque_1
 62
1
100
AcDbLine
 10
706.792002
 20
660.908541
 30
0.0
 11
706.792002
 21
655.505701
 31
0.0
  0
LINE
  5
113
100
AcDbEntity
  8
Calque_1
 62
1
100
AcDbLine
 10
706.792002
 20
655.505701
 30
0.0
 11
701.941817
 21
655.505701
 31
0.0
  0
LINE
  5
114
100
AcDbEntity
  8
Calque_1
 62
1
100
AcDbLine
 10
701.941817
 20
655.505701
 30
0.0
 11
697.091000
 21
655.505701
 31
0.0
  0
LINE
  5
115
100
AcDbEntity
  8
Calque_1
 62
1
100
AcDbLine
 10
697.091000
 20
655.505701
 30
0.0
 11
697.091000
 21
660.908541
 31
0.0
  0
SPLINE
  5
116
100
AcDbEntity
  8
Calque_1
 62
1
100
AcDbSpline
 70
8
 71
3
 72
8
 73
4
 74
0
 40
0
 40
0
 40
0
 40
0
 40
1
 40
1
 40
1
 40
1
 10
697.091000
 20
660.908541
 30
0.0
 10
677.351514
 20
663.392839
 30
0.0
 10
661.193676
 20
680.312416
 30
0.0
 10
661.175177
 20
700.383555
 30
0.0
  0
LINE
  5
117
100
AcDbEntity
  8
Calque_1
 62
1
100
AcDbLine
 10
661.175177
 20
700.383555
 30
0.0
 11
661.175177
 21
700.468094
 31
0.0
  0
LINE
  5
118
100
AcDbEntity
  8
Calque_1
 62
1
100
AcDbLine
 10
661.175177
 20
700.468094
 30
0.0
 11
661.175177
 21
700.468094
 31
0.0
  0
LINE
  5
119
100
AcDbEntity
  8
Calque_1
 62
1
100
AcDbLine
 10
661.175177
 20
700.468094
 30
0.0
 11
661.178244
 21
729.857977
 31
0.0
  0
SPLINE
  5
11a
100
AcDbEntity
  8
Calque_1
 62
1
100
AcDbSpline
 70
8
 71
3
 72
8
 73
4
 74
0
 40
0
 40
0
 40
0
 40
0
 40
1
 40
1
 40
1
 40
1
 10
826.486037
 20
613.057465
 30
0.0
 10
825.564115
 20
613.046110
 30
0.0
 10
824.645675
 20
612.738085
 30
0.0
 10
823.878960
 20
612.136270
 30
0.0
  0
SPLINE
  5
11b
100
AcDbEntity
  8
Calque_1
 62
1
100
AcDbSpline
 70
8
 71
3
 72
8
 73
4
 74
0
 40
0
 40
0
 40
0
 40
0
 40
1
 40
1
 40
1
 40
1
 10
823.878960
 20
612.136270
 30
0.0
 10
822.288315
 20
610.928705
 30
0.0
 10
821.692772
 20
608.799338
 30
0.0
 10
822.423081
 20
606.930989
 30
0.0
  0
SPLINE
  5
11c
100
AcDbEntity
  8
Calque_1
 62
1
100
AcDbSpline
 70
8
 71
3
 72
8
 73
4
 74
0
 40
0
 40
0
 40
0
 40
0
 40
1
 40
1
 40
1
 40
1
 10
822.423081
 20
606.930989
 30
0.0
 10
824.229077
 20
602.417311
 30
0.0
 10
825.260638
 20
597.626373
 30
0.0
 10
825.472850
 20
592.763448
 30
0.0
  0
SPLINE
  5
11d
100
AcDbEntity
  8
Calque_1
 62
1
100
AcDbSpline
 70
8
 71
3
 72
8
 73
4
 74
0
 40
0
 40
0
 40
0
 40
0
 40
1
 40
1
 40
1
 40
1
 10
825.472850
 20
592.763448
 30
0.0
 10
824.456731
 20
593.983609
 30
0.0
 10
823.308203
 20
595.084458
 30
0.0
 10
822.048360
 20
596.045873
 30
0.0
  0
SPLINE
  5
11e
100
AcDbEntity
  8
Calque_1
 62
1
100
AcDbSpline
 70
8
 71
3
 72
8
 73
4
 74
0
 40
0
 40
0
 40
0
 40
0
 40
1
 40
1
 40
1
 40
1
 10
822.048360
 20
596.045873
 30
0.0
 10
820.545108
 20
597.186836
 30
0.0
 10
818.491880
 20
597.247919
 30
0.0
 10
816.924660
 20
596.198037
 30
0.0
  0
SPLINE
  5
11f
100
AcDbEntity
  8
Calque_1
 62
1
100
AcDbSpline
 70
8
 71
3
 72
8
 73
4
 74
0
 40
0
 40
0
 40
0
 40
0
 40
1
 40
1
 40
1
 40
1
 10
816.924660
 20
596.198037
 30
0.0
 10
815.357126
 20
595.148129
 30
0.0
 10
814.615904
 20
593.215740
 30
0.0
 10
815.074666
 20
591.374934
 30
0.0
  0
SPLINE
  5
120
100
AcDbEntity
  8
Calque_1
 62
1
100
AcDbSpline
 70
8
 71
3
 72
8
 73
4
 74
0
 40
0
 40
0
 40
0
 40
0
 40
1
 40
1
 40
1
 40
1
 10
815.074666
 20
591.374934
 30
0.0
 10
816.663793
 20
585.067219
 30
0.0
 10
816.586504
 20
580.124990
 30
0.0
 10
814.853320
 20
577.437962
 30
0.0
  0
SPLINE
  5
121
100
AcDbEntity
  8
Calque_1
 62
1
100
AcDbSpline
 70
8
 71
3
 72
8
 73
4
 74
0
 40
0
 40
0
 40
0
 40
0
 40
1
 40
1
 40
1
 40
1
 10
814.853320
 20
577.437962
 30
0.0
 10
813.912109
 20
576.036958
 30
0.0
 10
812.408412
 20
575.124477
 30
0.0
 10
810.740766
 20
574.941548
 30
0.0
  0
SPLINE
  5
122
100
AcDbEntity
  8
Calque_1
 62
1
100
AcDbSpline
 70
8
 71
3
 72
8
 73
4
 74
0
 40
0
 40
0
 40
0
 40
0
 40
1
 40
1
 40
1
 40
1
 10
810.740766
 20
574.941548
 30
0.0
 10
799.038586
 20
573.285045
 30
0.0
 10
799.514806
 20
570.049732
 30
0.0
 10
793.092841
 20
582.086718
 30
0.0
  0
SPLINE
  5
123
100
AcDbEntity
  8
Calque_1
 62
1
100
AcDbSpline
 70
8
 71
3
 72
8
 73
4
 74
0
 40
0
 40
0
 40
0
 40
0
 40
1
 40
1
 40
1
 40
1
 10
793.092841
 20
582.086718
 30
0.0
 10
791.749506
 20
583.489016
 30
0.0
 10
789.656390
 20
583.844470
 30
0.0
 10
787.932341
 20
582.962517
 30
0.0
  0
SPLINE
  5
124
100
AcDbEntity
  8
Calque_1
 62
1
100
AcDbSpline
 70
8
 71
3
 72
8
 73
4
 74
0
 40
0
 40
0
 40
0
 40
0
 40
1
 40
1
 40
1
 40
1
 10
787.932341
 20
582.962517
 30
0.0
 10
786.208790
 20
582.130423
 30
0.0
 10
785.226016
 20
580.259645
 30
0.0
 10
785.510805
 20
578.353479
 30
0.0
  0
SPLINE
  5
125
100
AcDbEntity
  8
Calque_1
 62
1
100
AcDbSpline
 70
8
 71
3
 72
8
 73
4
 74
0
 40
0
 40
0
 40
0
 40
0
 40
1
 40
1
 40
1
 40
1
 10
785.510805
 20
578.353479
 30
0.0
 10
786.569586
 20
570.639214
 30
0.0
 10
785.733565
 20
565.048375
 30
0.0
 10
783.292216
 20
563.395727
 30
0.0
  0
SPLINE
  5
126
100
AcDbEntity
  8
Calque_1
 62
1
100
AcDbSpline
 70
8
 71
3
 72
8
 73
4
 74
0
 40
0
 40
0
 40
0
 40
0
 40
1
 40
1
 40
1
 40
1
 10
783.292216
 20
563.395727
 30
0.0
 10
780.477141
 20
561.295805
 30
0.0
 10
778.132763
 20
558.650819
 30
0.0
 10
776.375788
 20
555.638866
 30
0.0
  0
SPLINE
  5
127
100
AcDbEntity
  8
Calque_1
 62
1
100
AcDbSpline
 70
8
 71
3
 72
8
 73
4
 74
0
 40
0
 40
0
 40
0
 40
0
 40
1
 40
1
 40
1
 40
1
 10
776.375788
 20
555.638866
 30
0.0
 10
770.942827
 20
558.220948
 30
0.0
 10
765.014042
 20
559.567736
 30
0.0
 10
759.008491
 20
559.583581
 30
0.0
  0
SPLINE
  5
128
100
AcDbEntity
  8
Calque_1
 62
1
100
AcDbSpline
 70
8
 71
3
 72
8
 73
4
 74
0
 40
0
 40
0
 40
0
 40
0
 40
1
 40
1
 40
1
 40
1
 10
759.008491
 20
559.583581
 30
0.0
 10
758.966876
 20
559.583581
 30
0.0
 10
758.925366
 20
559.580676
 30
0.0
 10
758.883750
 20
559.580412
 30
0.0
  0
SPLINE
  5
129
100
AcDbEntity
  8
Calque_1
 62
1
100
AcDbSpline
 70
8
 71
3
 72
8
 73
4
 74
0
 40
0
 40
0
 40
0
 40
0
 40
1
 40
1
 40
1
 40
1
 10
758.883750
 20
559.580412
 30
0.0
 10
758.842161
 20
559.580650
 30
0.0
 10
758.800625
 20
559.583053
 30
0.0
 10
758.759036
 20
559.583053
 30
0.0
  0
SPLINE
  5
12a
100
AcDbEntity
  8
Calque_1
 62
1
100
AcDbSpline
 70
8
 71
3
 72
8
 73
4
 74
0
 40
0
 40
0
 40
0
 40
0
 40
1
 40
1
 40
1
 40
1
 10
758.759036
 20
559.583053
 30
0.0
 10
752.753485
 20
559.567208
 30
0.0
 10
746.824700
 20
558.220419
 30
0.0
 10
741.391739
 20
555.638338
 30
0.0
  0
SPLINE
  5
12b
100
AcDbEntity
  8
Calque_1
 62
1
100
AcDbSpline
 70
8
 71
3
 72
8
 73
4
 74
0
 40
0
 40
0
 40
0
 40
0
 40
1
 40
1
 40
1
 40
1
 10
741.391739
 20
555.638338
 30
0.0
 10
739.634764
 20
558.650291
 30
0.0
 10
737.290360
 20
561.295277
 30
0.0
 10
734.475285
 20
563.395199
 30
0.0
  0
SPLINE
  5
12c
100
AcDbEntity
  8
Calque_1
 62
1
100
AcDbSpline
 70
8
 71
3
 72
8
 73
4
 74
0
 40
0
 40
0
 40
0
 40
0
 40
1
 40
1
 40
1
 40
1
 10
734.475285
 20
563.395199
 30
0.0
 10
732.033936
 20
565.047846
 30
0.0
 10
731.197941
 20
570.638660
 30
0.0
 10
732.256722
 20
578.352925
 30
0.0
  0
SPLINE
  5
12d
100
AcDbEntity
  8
Calque_1
 62
1
100
AcDbSpline
 70
8
 71
3
 72
8
 73
4
 74
0
 40
0
 40
0
 40
0
 40
0
 40
1
 40
1
 40
1
 40
1
 10
732.256722
 20
578.352925
 30
0.0
 10
732.541511
 20
580.259090
 30
0.0
 10
731.558737
 20
582.129895
 30
0.0
 10
729.835186
 20
582.961989
 30
0.0
  0
SPLINE
  5
12e
100
AcDbEntity
  8
Calque_1
 62
1
100
AcDbSpline
 70
8
 71
3
 72
8
 73
4
 74
0
 40
0
 40
0
 40
0
 40
0
 40
1
 40
1
 40
1
 40
1
 10
729.835186
 20
582.961989
 30
0.0
 10
728.111111
 20
583.843942
 30
0.0
 10
726.018021
 20
583.488488
 30
0.0
 10
724.674686
 20
582.086190
 30
0.0
  0
SPLINE
  5
12f
100
AcDbEntity
  8
Calque_1
 62
1
100
AcDbSpline
 70
8
 71
3
 72
8
 73
4
 74
0
 40
0
 40
0
 40
0
 40
0
 40
1
 40
1
 40
1
 40
1
 10
724.674686
 20
582.086190
 30
0.0
 10
718.252721
 20
570.049204
 30
0.0
 10
718.728941
 20
573.284517
 30
0.0
 10
707.026761
 20
574.941020
 30
0.0
  0
SPLINE
  5
130
100
AcDbEntity
  8
Calque_1
 62
1
100
AcDbSpline
 70
8
 71
3
 72
8
 73
4
 74
0
 40
0
 40
0
 40
0
 40
0
 40
1
 40
1
 40
1
 40
1
 10
707.026761
 20
574.941020
 30
0.0
 10
705.359115
 20
575.123949
 30
0.0
 10
703.855418
 20
576.036430
 30
0.0
 10
702.914207
 20
577.437408
 30
0.0
  0
SPLINE
  5
131
100
AcDbEntity
  8
Calque_1
 62
1
100
AcDbSpline
 70
8
 71
3
 72
8
 73
4
 74
0
 40
0
 40
0
 40
0
 40
0
 40
1
 40
1
 40
1
 40
1
 10
702.914207
 20
577.437408
 30
0.0
 10
701.181023
 20
580.124488
 30
0.0
 10
701.103734
 20
585.066665
 30
0.0
 10
702.692861
 20
591.374406
 30
0.0
  0
SPLINE
  5
132
100
AcDbEntity
  8
Calque_1
 62
1
100
AcDbSpline
 70
8
 71
3
 72
8
 73
4
 74
0
 40
0
 40
0
 40
0
 40
0
 40
1
 40
1
 40
1
 40
1
 10
702.692861
 20
591.374406
 30
0.0
 10
703.151623
 20
593.215185
 30
0.0
 10
702.410374
 20
595.147600
 30
0.0
 10
700.842841
 20
596.197509
 30
0.0
  0
SPLINE
  5
133
100
AcDbEntity
  8
Calque_1
 62
1
100
AcDbSpline
 70
8
 71
3
 72
8
 73
4
 74
0
 40
0
 40
0
 40
0
 40
0
 40
1
 40
1
 40
1
 40
1
 10
700.842841
 20
596.197509
 30
0.0
 10
699.275621
 20
597.247390
 30
0.0
 10
697.222393
 20
597.186308
 30
0.0
 10
695.719141
 20
596.045345
 30
0.0
  0
SPLINE
  5
134
100
AcDbEntity
  8
Calque_1
 62
1
100
AcDbSpline
 70
8
 71
3
 72
8
 73
4
 74
0
 40
0
 40
0
 40
0
 40
0
 40
1
 40
1
 40
1
 40
1
 10
695.719141
 20
596.045345
 30
0.0
 10
694.459298
 20
595.083904
 30
0.0
 10
693.310796
 20
593.983081
 30
0.0
 10
692.294677
 20
592.762919
 30
0.0
  0
SPLINE
  5
135
100
AcDbEntity
  8
Calque_1
 62
1
100
AcDbSpline
 70
8
 71
3
 72
8
 73
4
 74
0
 40
0
 40
0
 40
0
 40
0
 40
1
 40
1
 40
1
 40
1
 10
692.294677
 20
592.762919
 30
0.0
 10
692.506889
 20
597.625845
 30
0.0
 10
693.538450
 20
602.416783
 30
0.0
 10
695.344446
 20
606.930461
 30
0.0
  0
SPLINE
  5
136
100
AcDbEntity
  8
Calque_1
 62
1
100
AcDbSpline
 70
8
 71
3
 72
8
 73
4
 74
0
 40
0
 40
0
 40
0
 40
0
 40
1
 40
1
 40
1
 40
1
 10
695.344446
 20
606.930461
 30
0.0
 10
696.074755
 20
608.798810
 30
0.0
 10
695.479212
 20
610.928151
 30
0.0
 10
693.888567
 20
612.135742
 30
0.0
  0
SPLINE
  5
137
100
AcDbEntity
  8
Calque_1
 62
1
100
AcDbSpline
 70
8
 71
3
 72
8
 73
4
 74
0
 40
0
 40
0
 40
0
 40
0
 40
1
 40
1
 40
1
 40
1
 10
693.888567
 20
612.135742
 30
0.0
 10
693.121852
 20
612.737557
 30
0.0
 10
692.203412
 20
613.045502
 30
0.0
 10
691.281490
 20
613.056937
 30
0.0
  0
LINE
  5
138
100
AcDbEntity
  8
Calque_1
 62
1
100
AcDbLine
 10
691.281490
 20
613.056937
 30
0.0
 11
691.281490
 21
613.056937
 31
0.0
  0
SPLINE
  5
139
100
AcDbEntity
  8
Calque_1
 62
1
100
AcDbSpline
 70
8
 71
3
 72
8
 73
4
 74
0
 40
0
 40
0
 40
0
 40
0
 40
1
 40
1
 40
1
 40
1
 10
691.281490
 20
613.056937
 30
0.0
 10
690.359569
 20
613.068556
 30
0.0
 10
689.433957
 20
612.783401
 30
0.0
 10
688.652925
 20
612.200732
 30
0.0
  0
SPLINE
  5
13a
100
AcDbEntity
  8
Calque_1
 62
1
100
AcDbSpline
 70
8
 71
3
 72
8
 73
4
 74
0
 40
0
 40
0
 40
0
 40
0
 40
1
 40
1
 40
1
 40
1
 10
688.652925
 20
612.200732
 30
0.0
 10
683.974063
 20
608.729621
 30
0.0
 10
678.692199
 20
601.356179
 30
0.0
 10
680.077149
 20
586.142796
 30
0.0
  0
SPLINE
  5
13b
100
AcDbEntity
  8
Calque_1
 62
1
100
AcDbSpline
 70
8
 71
3
 72
8
 73
4
 74
0
 40
0
 40
0
 40
0
 40
0
 40
1
 40
1
 40
1
 40
1
 10
680.077149
 20
586.142796
 30
0.0
 10
680.077149
 20
585.533745
 30
0.0
 10
680.268370
 20
571.164393
 30
0.0
 10
696.931191
 20
563.958432
 30
0.0
  0
SPLINE
  5
13c
100
AcDbEntity
  8
Calque_1
 62
1
100
AcDbSpline
 70
8
 71
3
 72
8
 73
4
 74
0
 40
0
 40
0
 40
0
 40
0
 40
1
 40
1
 40
1
 40
1
 10
696.931191
 20
563.958432
 30
0.0
 10
701.335131
 20
562.102415
 30
0.0
 10
705.902391
 20
560.669827
 30
0.0
 10
710.572903
 20
559.679495
 30
0.0
  0
SPLINE
  5
13d
100
AcDbEntity
  8
Calque_1
 62
1
100
AcDbSpline
 70
8
 71
3
 72
8
 73
4
 74
0
 40
0
 40
0
 40
0
 40
0
 40
1
 40
1
 40
1
 40
1
 10
710.572903
 20
559.679495
 30
0.0
 10
718.443733
 20
558.350928
 30
0.0
 10
725.715224
 20
554.607892
 30
0.0
 10
731.401489
 20
548.963550
 30
0.0
  0
SPLINE
  5
13e
100
AcDbEntity
  8
Calque_1
 62
1
100
AcDbSpline
 70
8
 71
3
 72
8
 73
4
 74
0
 40
0
 40
0
 40
0
 40
0
 40
1
 40
1
 40
1
 40
1
 10
731.401489
 20
548.963550
 30
0.0
 10
731.199616
 20
548.788147
 30
0.0
 10
730.999261
 20
548.610077
 30
0.0
 10
730.800843
 20
548.430765
 30
0.0
  0
SPLINE
  5
13f
100
AcDbEntity
  8
Calque_1
 62
1
100
AcDbSpline
 70
8
 71
3
 72
8
 73
4
 74
0
 40
0
 40
0
 40
0
 40
0
 40
1
 40
1
 40
1
 40
1
 10
730.800843
 20
548.430765
 30
0.0
 10
729.743004
 20
547.857577
 30
0.0
 10
728.774285
 20
547.128712
 30
0.0
 10
727.930987
 20
546.261892
 30
0.0
  0
SPLINE
  5
140
100
AcDbEntity
  8
Calque_1
 62
1
100
AcDbSpline
 70
8
 71
3
 72
8
 73
4
 74
0
 40
0
 40
0
 40
0
 40
0
 40
1
 40
1
 40
1
 40
1
 10
727.930987
 20
546.261892
 30
0.0
 10
723.754073
 20
549.781832
 30
0.0
 10
714.514626
 20
556.167900
 30
0.0
 10
703.948332
 20
554.600551
 30
0.0
  0
SPLINE
  5
141
100
AcDbEntity
  8
Calque_1
 62
1
100
AcDbSpline
 70
8
 71
3
 72
8
 73
4
 74
0
 40
0
 40
0
 40
0
 40
0
 40
1
 40
1
 40
1
 40
1
 10
703.948332
 20
554.600551
 30
0.0
 10
702.855474
 20
554.440201
 30
0.0
 10
702.045652
 20
553.493258
 30
0.0
 10
702.048243
 20
552.379072
 30
0.0
  0
SPLINE
  5
142
100
AcDbEntity
  8
Calque_1
 62
1
100
AcDbSpline
 70
8
 71
3
 72
8
 73
4
 74
0
 40
0
 40
0
 40
0
 40
0
 40
1
 40
1
 40
1
 40
1
 10
702.048243
 20
552.379072
 30
0.0
 10
702.220933
 20
546.785856
 30
0.0
 10
704.527282
 20
541.476342
 30
0.0
 10
708.485179
 20
537.555975
 30
0.0
  0
SPLINE
  5
143
100
AcDbEntity
  8
Calque_1
 62
1
100
AcDbSpline
 70
8
 71
3
 72
8
 73
4
 74
0
 40
0
 40
0
 40
0
 40
0
 40
1
 40
1
 40
1
 40
1
 10
708.485179
 20
537.555975
 30
0.0
 10
711.828663
 20
534.650922
 30
0.0
 10
715.956319
 20
532.868663
 30
0.0
 10
720.298359
 20
532.411538
 30
0.0
  0
SPLINE
  5
144
100
AcDbEntity
  8
Calque_1
 62
1
100
AcDbSpline
 70
8
 71
3
 72
8
 73
4
 74
0
 40
0
 40
0
 40
0
 40
0
 40
1
 40
1
 40
1
 40
1
 10
720.298359
 20
532.411538
 30
0.0
 10
718.631132
 20
527.864084
 30
0.0
 10
717.769069
 20
523.056958
 30
0.0
 10
717.751585
 20
518.208399
 30
0.0
  0
SPLINE
  5
145
100
AcDbEntity
  8
Calque_1
 62
1
100
AcDbSpline
 70
8
 71
3
 72
8
 73
4
 74
0
 40
0
 40
0
 40
0
 40
0
 40
1
 40
1
 40
1
 40
1
 10
717.751585
 20
518.208399
 30
0.0
 10
717.772000
 20
497.199117
 30
0.0
 10
733.383997
 20
479.588034
 30
0.0
 10
753.983987
 20
477.157165
 30
0.0
  0
LINE
  5
146
100
AcDbEntity
  8
Calque_1
 62
1
100
AcDbLine
 10
753.983987
 20
477.157165
 30
0.0
 11
753.983987
 21
486.741971
 31
0.0
  0
LINE
  5
147
100
AcDbEntity
  8
Calque_1
 62
1
100
AcDbLine
 10
753.983987
 20
486.741971
 30
0.0
 11
758.883750
 21
486.741971
 31
0.0
  0
LINE
  5
148
100
AcDbEntity
  8
Calque_1
 62
1
100
AcDbLine
 10
758.883750
 20
486.741971
 30
0.0
 11
763.782990
 21
486.741971
 31
0.0
  0
LINE
  5
149
100
AcDbEntity
  8
Calque_1
 62
1
100
AcDbLine
 10
763.782990
 20
486.741971
 30
0.0
 11
763.782990
 21
477.157165
 31
0.0
  0
SPLINE
  5
14a
100
AcDbEntity
  8
Calque_1
 62
1
100
AcDbSpline
 70
8
 71
3
 72
8
 73
4
 74
0
 40
0
 40
0
 40
0
 40
0
 40
1
 40
1
 40
1
 40
1
 10
763.782990
 20
477.157165
 30
0.0
 10
784.382980
 20
479.588034
 30
0.0
 10
799.995527
 20
497.199117
 30
0.0
 10
800.015916
 20
518.208399
 30
0.0
  0
SPLINE
  5
14b
100
AcDbEntity
  8
Calque_1
 62
1
100
AcDbSpline
 70
8
 71
3
 72
8
 73
4
 74
0
 40
0
 40
0
 40
0
 40
0
 40
1
 40
1
 40
1
 40
1
 10
800.015916
 20
518.208399
 30
0.0
 10
799.998380
 20
523.056958
 30
0.0
 10
799.136369
 20
527.864084
 30
0.0
 10
797.469168
 20
532.411538
 30
0.0
  0
SPLINE
  5
14c
100
AcDbEntity
  8
Calque_1
 62
1
100
AcDbSpline
 70
8
 71
3
 72
8
 73
4
 74
0
 40
0
 40
0
 40
0
 40
0
 40
1
 40
1
 40
1
 40
1
 10
797.469168
 20
532.411538
 30
0.0
 10
801.811182
 20
532.868663
 30
0.0
 10
805.938838
 20
534.650922
 30
0.0
 10
809.282322
 20
537.555975
 30
0.0
  0
SPLINE
  5
14d
100
AcDbEntity
  8
Calque_1
 62
1
100
AcDbSpline
 70
8
 71
3
 72
8
 73
4
 74
0
 40
0
 40
0
 40
0
 40
0
 40
1
 40
1
 40
1
 40
1
 10
809.282322
 20
537.555975
 30
0.0
 10
813.240219
 20
541.476342
 30
0.0
 10
815.546594
 20
546.785856
 30
0.0
 10
815.719284
 20
552.379072
 30
0.0
  0
SPLINE
  5
14e
100
AcDbEntity
  8
Calque_1
 62
1
100
AcDbSpline
 70
8
 71
3
 72
8
 73
4
 74
0
 40
0
 40
0
 40
0
 40
0
 40
1
 40
1
 40
1
 40
1
 10
815.719284
 20
552.379072
 30
0.0
 10
815.721901
 20
553.493258
 30
0.0
 10
814.912027
 20
554.440201
 30
0.0
 10
813.819168
 20
554.600551
 30
0.0
  0
SPLINE
  5
14f
100
AcDbEntity
  8
Calque_1
 62
1
100
AcDbSpline
 70
8
 71
3
 72
8
 73
4
 74
0
 40
0
 40
0
 40
0
 40
0
 40
1
 40
1
 40
1
 40
1
 10
813.819168
 20
554.600551
 30
0.0
 10
803.252901
 20
556.167900
 30
0.0
 10
794.013454
 20
549.781806
 30
0.0
 10
789.836513
 20
546.261892
 30
0.0
  0
SPLINE
  5
150
100
AcDbEntity
  8
Calque_1
 62
1
100
AcDbSpline
 70
8
 71
3
 72
8
 73
4
 74
0
 40
0
 40
0
 40
0
 40
0
 40
1
 40
1
 40
1
 40
1
 10
789.836513
 20
546.261892
 30
0.0
 10
788.993242
 20
547.128686
 30
0.0
 10
788.024523
 20
547.857551
 30
0.0
 10
786.966684
 20
548.430765
 30
0.0
  0
SPLINE
  5
151
100
AcDbEntity
  8
Calque_1
 62
1
100
AcDbSpline
 70
8
 71
3
 72
8
 73
4
 74
0
 40
0
 40
0
 40
0
 40
0
 40
1
 40
1
 40
1
 40
1
 10
786.966684
 20
548.430765
 30
0.0
 10
786.768266
 20
548.610050
 30
0.0
 10
786.567911
 20
548.788147
 30
0.0
 10
786.366038
 20
548.963550
 30
0.0
  0
SPLINE
  5
152
100
AcDbEntity
  8
Calque_1
 62
1
100
AcDbSpline
 70
8
 71
3
 72
8
 73
4
 74
0
 40
0
 40
0
 40
0
 40
0
 40
1
 40
1
 40
1
 40
1
 10
786.366038
 20
548.963550
 30
0.0
 10
792.052303
 20
554.607919
 30
0.0
 10
799.323794
 20
558.350928
 30
0.0
 10
807.194624
 20
559.679495
 30
0.0
  0
SPLINE
  5
153
100
AcDbEntity
  8
Calque_1
 62
1
100
AcDbSpline
 70
8
 71
3
 72
8
 73
4
 74
0
 40
0
 40
0
 40
0
 40
0
 40
1
 40
1
 40
1
 40
1
 10
807.194624
 20
559.679495
 30
0.0
 10
811.865136
 20
560.669827
 30
0.0
 10
816.432396
 20
562.102415
 30
0.0
 10
820.836336
 20
563.958432
 30
0.0
  0
SPLINE
  5
154
100
AcDbEntity
  8
Calque_1
 62
1
100
AcDbSpline
 70
8
 71
3
 72
8
 73
4
 74
0
 40
0
 40
0
 40
0
 40
0
 40
1
 40
1
 40
1
 40
1
 10
820.836336
 20
563.958432
 30
0.0
 10
837.499157
 20
571.164393
 30
0.0
 10
837.690378
 20
585.533745
 30
0.0
 10
837.690378
 20
586.142796
 30
0.0
  0
SPLINE
  5
155
100
AcDbEntity
  8
Calque_1
 62
1
100
AcDbSpline
 70
8
 71
3
 72
8
 73
4
 74
0
 40
0
 40
0
 40
0
 40
0
 40
1
 40
1
 40
1
 40
1
 10
837.690378
 20
586.142796
 30
0.0
 10
839.075328
 20
601.356179
 30
0.0
 10
833.793464
 20
608.729621
 30
0.0
 10
829.114602
 20
612.200732
 30
0.0
  0
SPLINE
  5
156
100
AcDbEntity
  8
Calque_1
 62
1
100
AcDbSpline
 70
8
 71
3
 72
8
 73
4
 74
0
 40
0
 40
0
 40
0
 40
0
 40
1
 40
1
 40
1
 40
1
 10
829.114602
 20
612.200732
 30
0.0
 10
828.333570
 20
612.783401
 30
0.0
 10
827.407958
 20
613.068530
 30
0.0
 10
826.486037
 20
613.056937
 30
0.0
  0
LINE
  5
157
100
AcDbEntity
  8
Calque_1
 62
1
100
AcDbLine
 10
826.486037
 20
613.056937
 30
0.0
 11
826.486037
 21
613.057465
 31
0.0
  0
SPLINE
  5
158
100
AcDbEntity
  8
Calque_1
 62
1
100
AcDbSpline
 70
8
 71
3
 72
8
 73
4
 74
0
 40
0
 40
0
 40
0
 40
0
 40
1
 40
1
 40
1
 40
1
 10
776.729085
 20
516.964876
 30
0.0
 10
776.729075
 20
506.992944
 30
0.0
 10
768.717213
 20
498.909100
 30
0.0
 10
758.834083
 20
498.909101
 30
0.0
  0
SPLINE
  5
159
100
AcDbEntity
  8
Calque_1
 62
1
100
AcDbSpline
 70
8
 71
3
 72
8
 73
4
 74
0
 40
0
 40
0
 40
0
 40
0
 40
1
 40
1
 40
1
 40
1
 10
758.834083
 20
498.909101
 30
0.0
 10
748.950954
 20
498.909102
 30
0.0
 10
740.939093
 20
506.992945
 30
0.0
 10
740.939084
 20
516.964876
 30
0.0
  0
SPLINE
  5
15a
100
AcDbEntity
  8
Calque_1
 62
1
100
AcDbSpline
 70
8
 71
3
 72
8
 73
4
 74
0
 40
0
 40
0
 40
0
 40
0
 40
1
 40
1
 40
1
 40
1
 10
740.939084
 20
516.964876
 30
0.0
 10
740.939080
 20
521.753572
 30
0.0
 10
742.824439
 20
526.346136
 30
0.0
 10
746.180403
 20
529.732257
 30
0.0
  0
SPLINE
  5
15b
100
AcDbEntity
  8
Calque_1
 62
1
100
AcDbSpline
 70
8
 71
3
 72
8
 73
4
 74
0
 40
0
 40
0
 40
0
 40
0
 40
1
 40
1
 40
1
 40
1
 10
746.180403
 20
529.732257
 30
0.0
 10
749.536367
 20
533.118378
 30
0.0
 10
754.088032
 20
535.020681
 30
0.0
 10
758.834083
 20
535.020682
 30
0.0
  0
SPLINE
  5
15c
100
AcDbEntity
  8
Calque_1
 62
1
100
AcDbSpline
 70
8
 71
3
 72
8
 73
4
 74
0
 40
0
 40
0
 40
0
 40
0
 40
1
 40
1
 40
1
 40
1
 10
758.834083
 20
535.020682
 30
0.0
 10
763.580135
 20
535.020682
 30
0.0
 10
768.131800
 20
533.118379
 30
0.0
 10
771.487765
 20
529.732258
 30
0.0
  0
SPLINE
  5
15d
100
AcDbEntity
  8
Calque_1
 62
1
100
AcDbSpline
 70
8
 71
3
 72
8
 73
4
 74
0
 40
0
 40
0
 40
0
 40
0
 40
1
 40
1
 40
1
 40
1
 10
771.487765
 20
529.732258
 30
0.0
 10
774.843729
 20
526.346137
 30
0.0
 10
776.729088
 20
521.753572
 30
0.0
 10
776.729085
 20
516.964876
 30
0.0
  0
LINE
  5
15e
100
AcDbEntity
  8
Calque_1
 62
1
100
AcDbLine
 10
776.729085
 20
516.964876
 30
0.0
 11
776.729085
 21
516.964876
 31
0.0
  0
SPLINE
  5
15f
100
AcDbEntity
  8
Calque_1
 62
1
100
AcDbSpline
 70
8
 71
3
 72
8
 73
4
 74
0
 40
0
 40
0
 40
0
 40
0
 40
1
 40
1
 40
1
 40
1
 10
853.917590
 20
567.128817
 30
0.0
 10
860.165404
 20
575.664721
 30
0.0
 10
863.545964
 20
585.991910
 30
0.0
 10
863.565847
 20
596.603279
 30
0.0
  0
SPLINE
  5
160
100
AcDbEntity
  8
Calque_1
 62
1
100
AcDbSpline
 70
8
 71
3
 72
8
 73
4
 74
0
 40
0
 40
0
 40
0
 40
0
 40
1
 40
1
 40
1
 40
1
 10
863.565847
 20
596.603279
 30
0.0
 10
863.548041
 20
612.201109
 30
0.0
 10
855.294584
 20
626.888440
 30
0.0
 10
842.952979
 20
636.281495
 30
0.0
  0
LINE
  5
161
100
AcDbEntity
  8
Calque_1
 62
1
100
AcDbLine
 10
842.952979
 20
636.281495
 30
0.0
 11
872.464770
 21
730.127844
 31
0.0
  0
LINE
  5
162
100
AcDbEntity
  8
Calque_1
 62
1
100
AcDbLine
 10
872.464770
 20
730.127844
 30
0.0
 11
863.122677
 21
730.127844
 31
0.0
  0
SPLINE
  5
163
100
AcDbEntity
  8
Calque_1
 62
1
100
AcDbSpline
 70
8
 71
3
 72
8
 73
4
 74
0
 40
0
 40
0
 40
0
 40
0
 40
1
 40
1
 40
1
 40
1
 10
863.122677
 20
730.127844
 30
0.0
 10
863.122677
 20
730.127844
 30
0.0
 10
850.857637
 20
704.626250
 30
0.0
 10
845.561156
 20
688.040935
 30
0.0
  0
SPLINE
  5
164
100
AcDbEntity
  8
Calque_1
 62
1
100
AcDbSpline
 70
8
 71
3
 72
8
 73
4
 74
0
 40
0
 40
0
 40
0
 40
0
 40
1
 40
1
 40
1
 40
1
 10
845.561156
 20
688.040935
 30
0.0
 10
842.083949
 20
677.152763
 30
0.0
 10
831.678642
 20
660.623144
 30
0.0
 10
829.536190
 20
650.629061
 30
0.0
  0
SPLINE
  5
165
100
AcDbEntity
  8
Calque_1
 62
1
100
AcDbSpline
 70
8
 71
3
 72
8
 73
4
 74
0
 40
0
 40
0
 40
0
 40
0
 40
1
 40
1
 40
1
 40
1
 10
829.536190
 20
650.629061
 30
0.0
 10
823.114768
 20
653.632961
 30
0.0
 10
820.182820
 20
650.277250
 30
0.0
 10
813.152434
 20
650.258715
 30
0.0
  0
SPLINE
  5
166
100
AcDbEntity
  8
Calque_1
 62
1
100
AcDbSpline
 70
8
 71
3
 72
8
 73
4
 74
0
 40
0
 40
0
 40
0
 40
0
 40
1
 40
1
 40
1
 40
1
 10
813.152434
 20
650.258715
 30
0.0
 10
806.122148
 20
650.277180
 30
0.0
 10
803.190199
 20
653.632961
 30
0.0
 10
796.768679
 20
650.629061
 30
0.0
  0
SPLINE
  5
167
100
AcDbEntity
  8
Calque_1
 62
1
100
AcDbSpline
 70
8
 71
3
 72
8
 73
4
 74
0
 40
0
 40
0
 40
0
 40
0
 40
1
 40
1
 40
1
 40
1
 10
796.768679
 20
650.629061
 30
0.0
 10
794.626226
 20
660.623144
 30
0.0
 10
784.220524
 20
677.152733
 30
0.0
 10
780.743119
 20
688.040935
 30
0.0
  0
SPLINE
  5
168
100
AcDbEntity
  8
Calque_1
 62
1
100
AcDbSpline
 70
8
 71
3
 72
8
 73
4
 74
0
 40
0
 40
0
 40
0
 40
0
 40
1
 40
1
 40
1
 40
1
 10
780.743119
 20
688.040935
 30
0.0
 10
775.446243
 20
704.626250
 30
0.0
 10
763.180510
 20
730.127844
 30
0.0
 10
763.180510
 20
730.127844
 30
0.0
  0
LINE
  5
169
100
AcDbEntity
  8
Calque_1
 62
1
100
AcDbLine
 10
763.180510
 20
730.127844
 30
0.0
 11
753.838021
 21
730.127844
 31
0.0
  0
LINE
  5
16a
100
AcDbEntity
  8
Calque_1
 62
1
100
AcDbLine
 10
753.838021
 20
730.127844
 30
0.0
 11
783.351395
 21
636.281495
 31
0.0
  0
SPLINE
  5
16b
100
AcDbEntity
  8
Calque_1
 62
1
100
AcDbSpline
 70
8
 71
3
 72
8
 73
4
 74
0
 40
0
 40
0
 40
0
 40
0
 40
1
 40
1
 40
1
 40
1
 10
783.351395
 20
636.281495
 30
0.0
 10
771.008998
 20
626.888440
 30
0.0
 10
762.755146
 20
612.201109
 30
0.0
 10
762.737340
 20
596.603279
 30
0.0
  0
SPLINE
  5
16c
100
AcDbEntity
  8
Calque_1
 62
1
100
AcDbSpline
 70
8
 71
3
 72
8
 73
4
 74
0
 40
0
 40
0
 40
0
 40
0
 40
1
 40
1
 40
1
 40
1
 10
762.737340
 20
596.603279
 30
0.0
 10
762.757124
 20
585.991910
 30
0.0
 10
766.137981
 20
575.664721
 30
0.0
 10
772.386190
 20
567.128817
 30
0.0
  0
LINE
  5
16d
100
AcDbEntity
  8
Calque_1
 62
1
100
AcDbLine
 10
772.386190
 20
567.128817
 30
0.0
 11
772.386190
 21
596.518689
 31
0.0
  0
LINE
  5
16e
100
AcDbEntity
  8
Calque_1
 62
1
100
AcDbLine
 10
772.386190
 20
596.518689
 30
0.0
 11
772.386190
 21
596.518689
 31
0.0
  0
LINE
  5
16f
100
AcDbEntity
  8
Calque_1
 62
1
100
AcDbLine
 10
772.386190
 20
596.518689
 30
0.0
 11
772.386190
 21
596.603328
 31
0.0
  0
SPLINE
  5
170
100
AcDbEntity
  8
Calque_1
 62
1
100
AcDbSpline
 70
8
 71
3
 72
8
 73
4
 74
0
 40
0
 40
0
 40
0
 40
0
 40
1
 40
1
 40
1
 40
1
 10
772.386190
 20
596.603328
 30
0.0
 10
772.404985
 20
616.674456
 30
0.0
 10
788.563298
 20
633.594043
 30
0.0
 10
808.302982
 20
636.078341
 30
0.0
  0
LINE
  5
171
100
AcDbEntity
  8
Calque_1
 62
1
100
AcDbLine
 10
808.302982
 20
636.078341
 30
0.0
 11
808.302982
 21
641.481181
 31
0.0
  0
LINE
  5
172
100
AcDbEntity
  8
Calque_1
 62
1
100
AcDbLine
 10
808.302982
 20
641.481181
 30
0.0
 11
813.154017
 21
641.481181
 31
0.0
  0
LINE
  5
173
100
AcDbEntity
  8
Calque_1
 62
1
100
AcDbLine
 10
813.154017
 20
641.481181
 30
0.0
 11
818.004953
 21
641.481181
 31
0.0
  0
LINE
  5
174
100
AcDbEntity
  8
Calque_1
 62
1
100
AcDbLine
 10
818.004953
 20
641.481181
 30
0.0
 11
818.004953
 21
636.078341
 31
0.0
  0
SPLINE
  5
175
100
AcDbEntity
  8
Calque_1
 62
1
100
AcDbSpline
 70
8
 71
3
 72
8
 73
4
 74
0
 40
0
 40
0
 40
0
 40
0
 40
1
 40
1
 40
1
 40
1
 10
818.004953
 20
636.078341
 30
0.0
 10
837.744538
 20
633.594043
 30
0.0
 10
853.902159
 20
616.674456
 30
0.0
 10
853.920657
 20
596.603328
 30
0.0
  0
LINE
  5
176
100
AcDbEntity
  8
Calque_1
 62
1
100
AcDbLine
 10
853.920657
 20
596.603328
 30
0.0
 11
853.920657
 21
596.518689
 31
0.0
  0
LINE
  5
177
100
AcDbEntity
  8
Calque_1
 62
1
100
AcDbLine
 10
853.920657
 20
596.518689
 30
0.0
 11
853.920657
 21
596.518689
 31
0.0
  0
LINE
  5
178
100
AcDbEntity
  8
Calque_1
 62
1
100
AcDbLine
 10
853.920657
 20
596.518689
 30
0.0
 11
853.917590
 21
567.128817
 31
0.0
  0
SPLINE
  5
179
100
AcDbEntity
  8
Calque_1
 62
1
100
AcDbSpline
 70
8
 71
3
 72
8
 73
4
 74
0
 40
0
 40
0
 40
0
 40
0
 40
1
 40
1
 40
1
 40
1
 10
452.215593
 20
658.519522
 30
0.0
 10
445.967760
 20
649.983618
 30
0.0
 10
442.587220
 20
639.656429
 30
0.0
 10
442.567327
 20
629.045060
 30
0.0
  0
SPLINE
  5
17a
100
AcDbEntity
  8
Calque_1
 62
1
100
AcDbSpline
 70
8
 71
3
 72
8
 73
4
 74
0
 40
0
 40
0
 40
0
 40
0
 40
1
 40
1
 40
1
 40
1
 10
442.567327
 20
629.045060
 30
0.0
 10
442.585133
 20
613.447230
 30
0.0
 10
450.838580
 20
598.759889
 30
0.0
 10
463.180195
 20
589.366834
 30
0.0
  0
LINE
  5
17b
100
AcDbEntity
  8
Calque_1
 62
1
100
AcDbLine
 10
463.180195
 20
589.366834
 30
0.0
 11
433.668463
 21
495.520477
 31
0.0
  0
LINE
  5
17c
100
AcDbEntity
  8
Calque_1
 62
1
100
AcDbLine
 10
433.668463
 20
495.520477
 30
0.0
 11
443.010537
 21
495.520477
 31
0.0
  0
SPLINE
  5
17d
100
AcDbEntity
  8
Calque_1
 62
1
100
AcDbSpline
 70
8
 71
3
 72
8
 73
4
 74
0
 40
0
 40
0
 40
0
 40
0
 40
1
 40
1
 40
1
 40
1
 10
443.010537
 20
495.520477
 30
0.0
 10
443.010537
 20
495.520477
 30
0.0
 10
455.275547
 20
521.022081
 30
0.0
 10
460.572068
 20
537.607394
 30
0.0
  0
SPLINE
  5
17e
100
AcDbEntity
  8
Calque_1
 62
1
100
AcDbSpline
 70
8
 71
3
 72
8
 73
4
 74
0
 40
0
 40
0
 40
0
 40
0
 40
1
 40
1
 40
1
 40
1
 10
460.572068
 20
537.607394
 30
0.0
 10
464.049245
 20
548.495577
 30
0.0
 10
474.454522
 20
565.025195
 30
0.0
 10
476.596974
 20
575.019268
 30
0.0
  0
SPLINE
  5
17f
100
AcDbEntity
  8
Calque_1
 62
1
100
AcDbSpline
 70
8
 71
3
 72
8
 73
4
 74
0
 40
0
 40
0
 40
0
 40
0
 40
1
 40
1
 40
1
 40
1
 10
476.596974
 20
575.019268
 30
0.0
 10
483.018435
 20
572.015378
 30
0.0
 10
485.950414
 20
575.371079
 30
0.0
 10
492.980700
 20
575.389624
 30
0.0
  0
SPLINE
  5
180
100
AcDbEntity
  8
Calque_1
 62
1
100
AcDbSpline
 70
8
 71
3
 72
8
 73
4
 74
0
 40
0
 40
0
 40
0
 40
0
 40
1
 40
1
 40
1
 40
1
 10
492.980700
 20
575.389624
 30
0.0
 10
500.011085
 20
575.371159
 30
0.0
 10
502.943034
 20
572.015378
 30
0.0
 10
509.364456
 20
575.019268
 30
0.0
  0
SPLINE
  5
181
100
AcDbEntity
  8
Calque_1
 62
1
100
AcDbSpline
 70
8
 71
3
 72
8
 73
4
 74
0
 40
0
 40
0
 40
0
 40
0
 40
1
 40
1
 40
1
 40
1
 10
509.364456
 20
575.019268
 30
0.0
 10
511.506908
 20
565.025195
 30
0.0
 10
521.912215
 20
548.495606
 30
0.0
 10
525.389422
 20
537.607394
 30
0.0
  0
SPLINE
  5
182
100
AcDbEntity
  8
Calque_1
 62
1
100
AcDbSpline
 70
8
 71
3
 72
8
 73
4
 74
0
 40
0
 40
0
 40
0
 40
0
 40
1
 40
1
 40
1
 40
1
 10
525.389422
 20
537.607394
 30
0.0
 10
530.685902
 20
521.022081
 30
0.0
 10
542.950942
 20
495.520477
 30
0.0
 10
542.950942
 20
495.520477
 30
0.0
  0
LINE
  5
183
100
AcDbEntity
  8
Calque_1
 62
1
100
AcDbLine
 10
542.950942
 20
495.520477
 30
0.0
 11
552.292937
 21
495.520477
 31
0.0
  0
LINE
  5
184
100
AcDbEntity
  8
Calque_1
 62
1
100
AcDbLine
 10
552.292937
 20
495.520477
 30
0.0
 11
522.781245
 21
589.366834
 31
0.0
  0
SPLINE
  5
185
100
AcDbEntity
  8
Calque_1
 62
1
100
AcDbSpline
 70
8
 71
3
 72
8
 73
4
 74
0
 40
0
 40
0
 40
0
 40
0
 40
1
 40
1
 40
1
 40
1
 10
522.781245
 20
589.366834
 30
0.0
 10
535.122850
 20
598.759889
 30
0.0
 10
543.376307
 20
613.447230
 30
0.0
 10
543.394113
 20
629.045060
 30
0.0
  0
SPLINE
  5
186
100
AcDbEntity
  8
Calque_1
 62
1
100
AcDbSpline
 70
8
 71
3
 72
8
 73
4
 74
0
 40
0
 40
0
 40
0
 40
0
 40
1
 40
1
 40
1
 40
1
 10
543.394113
 20
629.045060
 30
0.0
 10
543.374329
 20
639.656429
 30
0.0
 10
539.993670
 20
649.983618
 30
0.0
 10
533.745856
 20
658.519522
 30
0.0
  0
LINE
  5
187
100
AcDbEntity
  8
Calque_1
 62
1
100
AcDbLine
 10
533.745856
 20
658.519522
 30
0.0
 11
533.745856
 21
629.129640
 31
0.0
  0
LINE
  5
188
100
AcDbEntity
  8
Calque_1
 62
1
100
AcDbLine
 10
533.745856
 20
629.129640
 30
0.0
 11
533.745856
 21
629.129640
 31
0.0
  0
LINE
  5
189
100
AcDbEntity
  8
Calque_1
 62
1
100
AcDbLine
 10
533.745856
 20
629.129640
 30
0.0
 11
533.745856
 21
629.045100
 31
0.0
  0
SPLINE
  5
18a
100
AcDbEntity
  8
Calque_1
 62
1
100
AcDbSpline
 70
8
 71
3
 72
8
 73
4
 74
0
 40
0
 40
0
 40
0
 40
0
 40
1
 40
1
 40
1
 40
1
 10
533.745856
 20
629.045100
 30
0.0
 10
533.727061
 20
608.973963
 30
0.0
 10
517.569589
 20
592.054386
 30
0.0
 10
497.830004
 20
589.570088
 30
0.0
  0
LINE
  5
18b
100
AcDbEntity
  8
Calque_1
 62
1
100
AcDbLine
 10
497.830004
 20
589.570088
 30
0.0
 11
497.830004
 21
584.167248
 31
0.0
  0
LINE
  5
18c
100
AcDbEntity
  8
Calque_1
 62
1
100
AcDbLine
 10
497.830004
 20
584.167248
 30
0.0
 11
492.979216
 21
584.167248
 31
0.0
  0
LINE
  5
18d
100
AcDbEntity
  8
Calque_1
 62
1
100
AcDbLine
 10
492.979216
 20
584.167248
 30
0.0
 11
488.128003
 21
584.167248
 31
0.0
  0
LINE
  5
18e
100
AcDbEntity
  8
Calque_1
 62
1
100
AcDbLine
 10
488.128003
 20
584.167248
 30
0.0
 11
488.128003
 21
589.570088
 31
0.0
  0
SPLINE
  5
18f
100
AcDbEntity
  8
Calque_1
 62
1
100
AcDbSpline
 70
8
 71
3
 72
8
 73
4
 74
0
 40
0
 40
0
 40
0
 40
0
 40
1
 40
1
 40
1
 40
1
 10
488.128003
 20
589.570088
 30
0.0
 10
468.388507
 20
592.054386
 30
0.0
 10
452.231005
 20
608.973963
 30
0.0
 10
452.212527
 20
629.045100
 30
0.0
  0
SPLINE
  5
190
100
AcDbEntity
  8
Calque_1
 62
1
100
AcDbSpline
 70
8
 71
3
 72
8
 73
4
 74
0
 40
0
 40
0
 40
0
 40
0
 40
1
 40
1
 40
1
 40
1
 10
452.212527
 20
629.045100
 30
0.0
 10
452.215495
 20
629.073347
 30
0.0
 10
452.215495
 20
629.101493
 30
0.0
 10
452.216484
 20
629.129640
 30
0.0
  0
LINE
  5
191
100
AcDbEntity
  8
Calque_1
 62
1
100
AcDbLine
 10
452.216484
 20
629.129640
 30
0.0
 11
452.213516
 21
629.129640
 31
0.0
  0
LINE
  5
192
100
AcDbEntity
  8
Calque_1
 62
1
100
AcDbLine
 10
452.213516
 20
629.129640
 30
0.0
 11
452.215593
 21
658.519522
 31
0.0
  0
SPLINE
  5
193
100
AcDbEntity
  8
Calque_1
 62
1
100
AcDbSpline
 70
8
 71
3
 72
8
 73
4
 74
0
 40
0
 40
0
 40
0
 40
0
 40
1
 40
1
 40
1
 40
1
 10
644.952467
 20
495.790374
 30
0.0
 10
651.200280
 20
504.326258
 30
0.0
 10
654.580840
 20
514.653457
 30
0.0
 10
654.600724
 20
525.264826
 30
0.0
  0
SPLINE
  5
194
100
AcDbEntity
  8
Calque_1
 62
1
100
AcDbSpline
 70
8
 71
3
 72
8
 73
4
 74
0
 40
0
 40
0
 40
0
 40
0
 40
1
 40
1
 40
1
 40
1
 10
654.600724
 20
525.264826
 30
0.0
 10
654.582918
 20
540.862656
 30
0.0
 10
646.329461
 20
555.549987
 30
0.0
 10
633.987855
 20
564.943042
 30
0.0
  0
LINE
  5
195
100
AcDbEntity
  8
Calque_1
 62
1
100
AcDbLine
 10
633.987855
 20
564.943042
 30
0.0
 11
663.499646
 21
658.789389
 31
0.0
  0
LINE
  5
196
100
AcDbEntity
  8
Calque_1
 62
1
100
AcDbLine
 10
663.499646
 20
658.789389
 30
0.0
 11
654.157553
 21
658.789389
 31
0.0
  0
SPLINE
  5
197
100
AcDbEntity
  8
Calque_1
 62
1
100
AcDbSpline
 70
8
 71
3
 72
8
 73
4
 74
0
 40
0
 40
0
 40
0
 40
0
 40
1
 40
1
 40
1
 40
1
 10
654.157553
 20
658.789389
 30
0.0
 10
654.157553
 20
658.789389
 30
0.0
 10
641.892513
 20
633.287795
 30
0.0
 10
636.596032
 20
616.702482
 30
0.0
  0
SPLINE
  5
198
100
AcDbEntity
  8
Calque_1
 62
1
100
AcDbSpline
 70
8
 71
3
 72
8
 73
4
 74
0
 40
0
 40
0
 40
0
 40
0
 40
1
 40
1
 40
1
 40
1
 10
636.596032
 20
616.702482
 30
0.0
 10
633.118825
 20
605.814310
 30
0.0
 10
622.713519
 20
589.284690
 30
0.0
 10
620.571066
 20
579.290608
 30
0.0
  0
SPLINE
  5
199
100
AcDbEntity
  8
Calque_1
 62
1
100
AcDbSpline
 70
8
 71
3
 72
8
 73
4
 74
0
 40
0
 40
0
 40
0
 40
0
 40
1
 40
1
 40
1
 40
1
 10
620.571066
 20
579.290608
 30
0.0
 10
614.149645
 20
582.294508
 30
0.0
 10
611.217696
 20
578.938797
 30
0.0
 10
604.187311
 20
578.920262
 30
0.0
  0
SPLINE
  5
19a
100
AcDbEntity
  8
Calque_1
 62
1
100
AcDbSpline
 70
8
 71
3
 72
8
 73
4
 74
0
 40
0
 40
0
 40
0
 40
0
 40
1
 40
1
 40
1
 40
1
 10
604.187311
 20
578.920262
 30
0.0
 10
597.157024
 20
578.938727
 30
0.0
 10
594.225075
 20
582.294508
 30
0.0
 10
587.803555
 20
579.290608
 30
0.0
  0
SPLINE
  5
19b
100
AcDbEntity
  8
Calque_1
 62
1
100
AcDbSpline
 70
8
 71
3
 72
8
 73
4
 74
0
 40
0
 40
0
 40
0
 40
0
 40
1
 40
1
 40
1
 40
1
 10
587.803555
 20
579.290608
 30
0.0
 10
585.661103
 20
589.284690
 30
0.0
 10
575.255895
 20
605.814280
 30
0.0
 10
571.778688
 20
616.702482
 30
0.0
  0
SPLINE
  5
19c
100
AcDbEntity
  8
Calque_1
 62
1
100
AcDbSpline
 70
8
 71
3
 72
8
 73
4
 74
0
 40
0
 40
0
 40
0
 40
0
 40
1
 40
1
 40
1
 40
1
 10
571.778688
 20
616.702482
 30
0.0
 10
566.482108
 20
633.287795
 30
0.0
 10
554.217167
 20
658.789389
 30
0.0
 10
554.217167
 20
658.789389
 30
0.0
  0
LINE
  5
19d
100
AcDbEntity
  8
Calque_1
 62
1
100
AcDbLine
 10
554.217167
 20
658.789389
 30
0.0
 11
544.875074
 21
658.789389
 31
0.0
  0
LINE
  5
19e
100
AcDbEntity
  8
Calque_1
 62
1
100
AcDbLine
 10
544.875074
 20
658.789389
 30
0.0
 11
574.386865
 21
564.943042
 31
0.0
  0
SPLINE
  5
19f
100
AcDbEntity
  8
Calque_1
 62
1
100
AcDbSpline
 70
8
 71
3
 72
8
 73
4
 74
0
 40
0
 40
0
 40
0
 40
0
 40
1
 40
1
 40
1
 40
1
 10
574.386865
 20
564.943042
 30
0.0
 10
562.045161
 20
555.549987
 30
0.0
 10
553.791704
 20
540.862656
 30
0.0
 10
553.773898
 20
525.264826
 30
0.0
  0
SPLINE
  5
1a0
100
AcDbEntity
  8
Calque_1
 62
1
100
AcDbSpline
 70
8
 71
3
 72
8
 73
4
 74
0
 40
0
 40
0
 40
0
 40
0
 40
1
 40
1
 40
1
 40
1
 10
553.773898
 20
525.264826
 30
0.0
 10
553.793682
 20
514.653457
 30
0.0
 10
557.174341
 20
504.326258
 30
0.0
 10
563.422253
 20
495.790374
 30
0.0
  0
LINE
  5
1a1
100
AcDbEntity
  8
Calque_1
 62
1
100
AcDbLine
 10
563.422253
 20
495.790374
 30
0.0
 11
563.422253
 21
525.180237
 31
0.0
  0
LINE
  5
1a2
100
AcDbEntity
  8
Calque_1
 62
1
100
AcDbLine
 10
563.422253
 20
525.180237
 30
0.0
 11
563.422253
 21
525.180237
 31
0.0
  0
LINE
  5
1a3
100
AcDbEntity
  8
Calque_1
 62
1
100
AcDbLine
 10
563.422253
 20
525.180237
 30
0.0
 11
563.422253
 21
525.264876
 31
0.0
  0
SPLINE
  5
1a4
100
AcDbEntity
  8
Calque_1
 62
1
100
AcDbSpline
 70
8
 71
3
 72
8
 73
4
 74
0
 40
0
 40
0
 40
0
 40
0
 40
1
 40
1
 40
1
 40
1
 10
563.422253
 20
525.264876
 30
0.0
 10
563.441049
 20
545.336003
 30
0.0
 10
579.598510
 20
562.255590
 30
0.0
 10
599.337997
 20
564.739888
 30
0.0
  0
LINE
  5
1a5
100
AcDbEntity
  8
Calque_1
 62
1
100
AcDbLine
 10
599.337997
 20
564.739888
 30
0.0
 11
599.337997
 21
570.142728
 31
0.0
  0
LINE
  5
1a6
100
AcDbEntity
  8
Calque_1
 62
1
100
AcDbLine
 10
599.337997
 20
570.142728
 30
0.0
 11
604.188893
 21
570.142728
 31
0.0
  0
LINE
  5
1a7
100
AcDbEntity
  8
Calque_1
 62
1
100
AcDbLine
 10
604.188893
 20
570.142728
 30
0.0
 11
609.039998
 21
570.142728
 31
0.0
  0
LINE
  5
1a8
100
AcDbEntity
  8
Calque_1
 62
1
100
AcDbLine
 10
609.039998
 20
570.142728
 30
0.0
 11
609.039998
 21
564.739888
 31
0.0
  0
SPLINE
  5
1a9
100
AcDbEntity
  8
Calque_1
 62
1
100
AcDbSpline
 70
8
 71
3
 72
8
 73
4
 74
0
 40
0
 40
0
 40
0
 40
0
 40
1
 40
1
 40
1
 40
1
 10
609.039998
 20
564.739888
 30
0.0
 10
628.779583
 20
562.255590
 30
0.0
 10
644.937035
 20
545.336003
 30
0.0
 10
644.955533
 20
525.264876
 30
0.0
  0
LINE
  5
1aa
100
AcDbEntity
  8
Calque_1
 62
1
100
AcDbLine
 10
644.955533
 20
525.264876
 30
0.0
 11
644.955533
 21
525.180237
 31
0.0
  0
LINE
  5
1ab
100
AcDbEntity
  8
Calque_1
 62
1
100
AcDbLine
 10
644.955533
 20
525.180237
 30
0.0
 11
644.955533
 21
525.180237
 31
0.0
  0
LINE
  5
1ac
100
AcDbEntity
  8
Calque_1
 62
1
100
AcDbLine
 10
644.955533
 20
525.180237
 30
0.0
 11
644.952467
 21
495.790374
 31
0.0
  0
LINE
  5
1ad
100
AcDbEntity
  8
Calque_1
 62
1
100
AcDbLine
 10
581.889306
 20
522.687365
 30
0.0
 11
602.525619
 21
480.516140
 31
0.0
  0
SPLINE
  5
1ae
100
AcDbEntity
  8
Calque_1
 62
1
100
AcDbSpline
 70
8
 71
3
 72
8
 73
4
 74
0
 40
0
 40
0
 40
0
 40
0
 40
1
 40
1
 40
1
 40
1
 10
602.525619
 20
480.516140
 30
0.0
 10
602.525619
 20
480.516140
 30
0.0
 10
610.074751
 20
467.373703
 30
0.0
 10
616.081987
 20
463.211624
 30
0.0
  0
SPLINE
  5
1af
100
AcDbEntity
  8
Calque_1
 62
1
100
AcDbSpline
 70
8
 71
3
 72
8
 73
4
 74
0
 40
0
 40
0
 40
0
 40
0
 40
1
 40
1
 40
1
 40
1
 10
616.081987
 20
463.211624
 30
0.0
 10
622.440593
 20
457.412937
 30
0.0
 10
629.338057
 20
456.248770
 30
0.0
 10
638.180001
 20
455.701800
 30
0.0
  0
LINE
  5
1b0
100
AcDbEntity
  8
Calque_1
 62
1
100
AcDbLine
 10
638.180001
 20
455.701800
 30
0.0
 11
638.180001
 21
465.468624
 31
0.0
  0
LINE
  5
1b1
100
AcDbEntity
  8
Calque_1
 62
1
100
AcDbLine
 10
638.180001
 20
465.468624
 30
0.0
 11
647.917999
 21
465.468624
 31
0.0
  0
LINE
  5
1b2
100
AcDbEntity
  8
Calque_1
 62
1
100
AcDbLine
 10
647.917999
 20
465.468624
 30
0.0
 11
647.917999
 21
455.701800
 31
0.0
  0
LINE
  5
1b3
100
AcDbEntity
  8
Calque_1
 62
1
100
AcDbLine
 10
647.917999
 20
455.701800
 30
0.0
 11
806.119972
 21
455.701800
 31
0.0
  0
LINE
  5
1b4
100
AcDbEntity
  8
Calque_1
 62
1
100
AcDbLine
 10
806.119972
 20
455.701800
 30
0.0
 11
806.119972
 21
465.468624
 31
0.0
  0
LINE
  5
1b5
100
AcDbEntity
  8
Calque_1
 62
1
100
AcDbLine
 10
806.119972
 20
465.468624
 30
0.0
 11
815.856961
 21
465.468624
 31
0.0
  0
LINE
  5
1b6
100
AcDbEntity
  8
Calque_1
 62
1
100
AcDbLine
 10
815.856961
 20
465.468624
 30
0.0
 11
815.856961
 21
455.701800
 31
0.0
  0
SPLINE
  5
1b7
100
AcDbEntity
  8
Calque_1
 62
1
100
AcDbSpline
 70
8
 71
3
 72
8
 73
4
 74
0
 40
0
 40
0
 40
0
 40
0
 40
1
 40
1
 40
1
 40
1
 10
815.856961
 20
455.701800
 30
0.0
 10
815.856961
 20
455.701800
 30
0.0
 10
825.545974
 20
455.859700
 30
0.0
 10
840.584786
 20
456.362544
 30
0.0
  0
SPLINE
  5
1b8
100
AcDbEntity
  8
Calque_1
 62
1
100
AcDbSpline
 70
8
 71
3
 72
8
 73
4
 74
0
 40
0
 40
0
 40
0
 40
0
 40
1
 40
1
 40
1
 40
1
 10
840.584786
 20
456.362544
 30
0.0
 10
848.495281
 20
456.627041
 30
0.0
 10
859.365224
 20
459.740213
 30
0.0
 10
871.529562
 20
463.691812
 30
0.0
  0
SPLINE
  5
1b9
100
AcDbEntity
  8
Calque_1
 62
1
100
AcDbSpline
 70
8
 71
3
 72
8
 73
4
 74
0
 40
0
 40
0
 40
0
 40
0
 40
1
 40
1
 40
1
 40
1
 10
871.529562
 20
463.691812
 30
0.0
 10
886.017181
 20
468.398066
 30
0.0
 10
891.399625
 20
474.110417
 30
0.0
 10
891.951016
 20
475.079854
 30
0.0
  0
SPLINE
  5
1ba
100
AcDbEntity
  8
Calque_1
 62
1
100
AcDbSpline
 70
8
 71
3
 72
8
 73
4
 74
0
 40
0
 40
0
 40
0
 40
0
 40
1
 40
1
 40
1
 40
1
 10
891.951016
 20
475.079854
 30
0.0
 10
893.689075
 20
478.134867
 30
0.0
 10
893.250356
 20
488.774422
 30
0.0
 10
893.250356
 20
488.774422
 30
0.0
  0
LINE
  5
1bb
100
AcDbEntity
  8
Calque_1
 62
1
100
AcDbLine
 10
893.250356
 20
488.774422
 30
0.0
 11
882.583005
 21
488.774422
 31
0.0
  0
LINE
  5
1bc
100
AcDbEntity
  8
Calque_1
 62
1
100
AcDbLine
 10
882.583005
 20
488.774422
 30
0.0
 11
882.583005
 21
478.946105
 31
0.0
  0
LINE
  5
1bd
100
AcDbEntity
  8
Calque_1
 62
1
100
AcDbLine
 10
882.583005
 20
478.946105
 30
0.0
 11
872.846015
 21
478.946105
 31
0.0
  0
LINE
  5
1be
100
AcDbEntity
  8
Calque_1
 62
1
100
AcDbLine
 10
872.846015
 20
478.946105
 30
0.0
 11
872.846015
 21
488.774422
 31
0.0
  0
LINE
  5
1bf
100
AcDbEntity
  8
Calque_1
 62
1
100
AcDbLine
 10
872.846015
 20
488.774422
 30
0.0
 11
863.018710
 21
488.774422
 31
0.0
  0
SPLINE
  5
1c0
100
AcDbEntity
  8
Calque_1
 62
1
100
AcDbSpline
 70
8
 71
3
 72
8
 73
4
 74
0
 40
0
 40
0
 40
0
 40
0
 40
1
 40
1
 40
1
 40
1
 10
863.018710
 20
488.774422
 30
0.0
 10
855.127406
 20
488.774422
 30
0.0
 10
860.534086
 20
489.827890
 30
0.0
 10
854.694425
 20
485.777140
 30
0.0
  0
SPLINE
  5
1c1
100
AcDbEntity
  8
Calque_1
 62
1
100
AcDbSpline
 70
8
 71
3
 72
8
 73
4
 74
0
 40
0
 40
0
 40
0
 40
0
 40
1
 40
1
 40
1
 40
1
 10
854.694425
 20
485.777140
 30
0.0
 10
850.713507
 20
481.700389
 30
0.0
 10
844.080590
 20
472.810997
 30
0.0
 10
830.592677
 20
471.997144
 30
0.0
  0
SPLINE
  5
1c2
100
AcDbEntity
  8
Calque_1
 62
1
100
AcDbSpline
 70
8
 71
3
 72
8
 73
4
 74
0
 40
0
 40
0
 40
0
 40
0
 40
1
 40
1
 40
1
 40
1
 10
830.592677
 20
471.997144
 30
0.0
 10
820.042845
 20
471.145553
 30
0.0
 10
814.063901
 20
470.581535
 30
0.0
 10
813.857550
 20
470.884569
 30
0.0
  0
LINE
  5
1c3
100
AcDbEntity
  8
Calque_1
 62
1
100
AcDbLine
 10
813.857550
 20
470.884569
 30
0.0
 11
629.258395
 21
470.789749
 31
0.0
  0
SPLINE
  5
1c4
100
AcDbEntity
  8
Calque_1
 62
1
100
AcDbSpline
 70
8
 71
3
 72
8
 73
4
 74
0
 40
0
 40
0
 40
0
 40
0
 40
1
 40
1
 40
1
 40
1
 10
629.258395
 20
470.789749
 30
0.0
 10
629.258395
 20
470.789749
 30
0.0
 10
620.756545
 20
482.054726
 30
0.0
 10
609.695188
 20
496.254332
 30
0.0
  0
SPLINE
  5
1c5
100
AcDbEntity
  8
Calque_1
 62
1
100
AcDbSpline
 70
8
 71
3
 72
8
 73
4
 74
0
 40
0
 40
0
 40
0
 40
0
 40
1
 40
1
 40
1
 40
1
 10
609.695188
 20
496.254332
 30
0.0
 10
601.701203
 20
508.067476
 30
0.0
 10
579.043420
 20
528.503030
 30
0.0
 10
581.889306
 20
522.687385
 30
0.0
  0
LINE
  5
1c6
100
AcDbEntity
  8
Calque_1
 62
1
100
AcDbLine
 10
581.889306
 20
522.687385
 30
0.0
 11
581.889306
 21
522.687365
 31
0.0
  0
LINE
  5
1c7
100
AcDbEntity
  8
Calque_1
 62
1
100
AcDbLine
 10
427.390291
 20
776.137315
 30
0.0
 11
897.290231
 21
776.137315
 31
0.0
  0
LINE
  5
1c8
100
AcDbEntity
  8
Calque_1
 62
1
100
AcDbLine
 10
897.290231
 20
776.137315
 30
0.0
 11
897.290231
 21
446.237760
 31
0.0
  0
LINE
  5
1c9
100
AcDbEntity
  8
Calque_1
 62
1
100
AcDbLine
 10
897.290231
 20
446.237760
 30
0.0
 11
427.390291
 21
446.237760
 31
0.0
  0
LINE
  5
1ca
100
AcDbEntity
  8
Calque_1
 62
1
100
AcDbLine
 10
427.390291
 20
446.237760
 30
0.0
 11
427.390291
 21
776.137315
 31
0.0
  0
SPLINE
  5
1cb
100
AcDbEntity
  8
Calque_1
 62
1
100
AcDbSpline
 70
8
 71
3
 72
8
 73
4
 74
0
 40
0
 40
0
 40
0
 40
0
 40
1
 40
1
 40
1
 40
1
 10
478.600453
 20
612.590888
 30
0.0
 10
479.522375
 20
612.602243
 30
0.0
 10
480.440816
 20
612.910268
 30
0.0
 10
481.207531
 20
613.512083
 30
0.0
  0
SPLINE
  5
1cc
100
AcDbEntity
  8
Calque_1
 62
1
100
AcDbSpline
 70
8
 71
3
 72
8
 73
4
 74
0
 40
0
 40
0
 40
0
 40
0
 40
1
 40
1
 40
1
 40
1
 10
481.207531
 20
613.512083
 30
0.0
 10
482.798175
 20
614.719648
 30
0.0
 10
483.393718
 20
616.849015
 30
0.0
 10
482.663410
 20
618.717364
 30
0.0
  0
SPLINE
  5
1cd
100
AcDbEntity
  8
Calque_1
 62
1
100
AcDbSpline
 70
8
 71
3
 72
8
 73
4
 74
0
 40
0
 40
0
 40
0
 40
0
 40
1
 40
1
 40
1
 40
1
 10
482.663410
 20
618.717364
 30
0.0
 10
480.857413
 20
623.231042
 30
0.0
 10
479.825852
 20
628.021980
 30
0.0
 10
479.613641
 20
632.884905
 30
0.0
  0
SPLINE
  5
1ce
100
AcDbEntity
  8
Calque_1
 62
1
100
AcDbSpline
 70
8
 71
3
 72
8
 73
4
 74
0
 40
0
 40
0
 40
0
 40
0
 40
1
 40
1
 40
1
 40
1
 10
479.613641
 20
632.884905
 30
0.0
 10
480.629759
 20
631.664744
 30
0.0
 10
481.778288
 20
630.563895
 30
0.0
 10
483.038130
 20
629.602480
 30
0.0
  0
SPLINE
  5
1cf
100
AcDbEntity
  8
Calque_1
 62
1
100
AcDbSpline
 70
8
 71
3
 72
8
 73
4
 74
0
 40
0
 40
0
 40
0
 40
0
 40
1
 40
1
 40
1
 40
1
 10
483.038130
 20
629.602480
 30
0.0
 10
484.541383
 20
628.461517
 30
0.0
 10
486.594611
 20
628.400435
 30
0.0
 10
488.161830
 20
629.450316
 30
0.0
  0
SPLINE
  5
1d0
100
AcDbEntity
  8
Calque_1
 62
1
100
AcDbSpline
 70
8
 71
3
 72
8
 73
4
 74
0
 40
0
 40
0
 40
0
 40
0
 40
1
 40
1
 40
1
 40
1
 10
488.161830
 20
629.450316
 30
0.0
 10
489.729364
 20
630.500225
 30
0.0
 10
490.470586
 20
632.432613
 30
0.0
 10
490.011824
 20
634.273419
 30
0.0
  0
SPLINE
  5
1d1
100
AcDbEntity
  8
Calque_1
 62
1
100
AcDbSpline
 70
8
 71
3
 72
8
 73
4
 74
0
 40
0
 40
0
 40
0
 40
0
 40
1
 40
1
 40
1
 40
1
 10
490.011824
 20
634.273419
 30
0.0
 10
488.422698
 20
640.581134
 30
0.0
 10
488.499987
 20
645.523363
 30
0.0
 10
490.233170
 20
648.210391
 30
0.0
  0
SPLINE
  5
1d2
100
AcDbEntity
  8
Calque_1
 62
1
100
AcDbSpline
 70
8
 71
3
 72
8
 73
4
 74
0
 40
0
 40
0
 40
0
 40
0
 40
1
 40
1
 40
1
 40
1
 10
490.233170
 20
648.210391
 30
0.0
 10
491.174381
 20
649.611395
 30
0.0
 10
492.678079
 20
650.523876
 30
0.0
 10
494.345724
 20
650.706805
 30
0.0
  0
SPLINE
  5
1d3
100
AcDbEntity
  8
Calque_1
 62
1
100
AcDbSpline
 70
8
 71
3
 72
8
 73
4
 74
0
 40
0
 40
0
 40
0
 40
0
 40
1
 40
1
 40
1
 40
1
 10
494.345724
 20
650.706805
 30
0.0
 10
506.047904
 20
652.363308
 30
0.0
 10
505.571685
 20
655.598621
 30
0.0
 10
511.993650
 20
643.561635
 30
0.0
  0
SPLINE
  5
1d4
100
AcDbEntity
  8
Calque_1
 62
1
100
AcDbSpline
 70
8
 71
3
 72
8
 73
4
 74
0
 40
0
 40
0
 40
0
 40
0
 40
1
 40
1
 40
1
 40
1
 10
511.993650
 20
643.561635
 30
0.0
 10
513.336984
 20
642.159337
 30
0.0
 10
515.430100
 20
641.803883
 30
0.0
 10
517.154149
 20
642.685836
 30
0.0
  0
SPLINE
  5
1d5
100
AcDbEntity
  8
Calque_1
 62
1
100
AcDbSpline
 70
8
 71
3
 72
8
 73
4
 74
0
 40
0
 40
0
 40
0
 40
0
 40
1
 40
1
 40
1
 40
1
 10
517.154149
 20
642.685836
 30
0.0
 10
518.877701
 20
643.517930
 30
0.0
 10
519.860475
 20
645.388708
 30
0.0
 10
519.575685
 20
647.294874
 30
0.0
  0
SPLINE
  5
1d6
100
AcDbEntity
  8
Calque_1
 62
1
100
AcDbSpline
 70
8
 71
3
 72
8
 73
4
 74
0
 40
0
 40
0
 40
0
 40
0
 40
1
 40
1
 40
1
 40
1
 10
519.575685
 20
647.294874
 30
0.0
 10
518.516904
 20
655.009139
 30
0.0
 10
519.352926
 20
660.599978
 30
0.0
 10
521.794275
 20
662.252626
 30
0.0
  0
SPLINE
  5
1d7
100
AcDbEntity
  8
Calque_1
 62
1
100
AcDbSpline
 70
8
 71
3
 72
8
 73
4
 74
0
 40
0
 40
0
 40
0
 40
0
 40
1
 40
1
 40
1
 40
1
 10
521.794275
 20
662.252626
 30
0.0
 10
524.609350
 20
664.352548
 30
0.0
 10
526.953727
 20
666.997534
 30
0.0
 10
528.710702
 20
670.009487
 30
0.0
  0
SPLINE
  5
1d8
100
AcDbEntity
  8
Calque_1
 62
1
100
AcDbSpline
 70
8
 71
3
 72
8
 73
4
 74
0
 40
0
 40
0
 40
0
 40
0
 40
1
 40
1
 40
1
 40
1
 10
528.710702
 20
670.009487
 30
0.0
 10
534.143663
 20
667.427405
 30
0.0
 10
540.072448
 20
666.080617
 30
0.0
 10
546.077999
 20
666.064772
 30
0.0
  0
SPLINE
  5
1d9
100
AcDbEntity
  8
Calque_1
 62
1
100
AcDbSpline
 70
8
 71
3
 72
8
 73
4
 74
0
 40
0
 40
0
 40
0
 40
0
 40
1
 40
1
 40
1
 40
1
 10
546.077999
 20
666.064772
 30
0.0
 10
546.119614
 20
666.064772
 30
0.0
 10
546.161125
 20
666.067677
 30
0.0
 10
546.202740
 20
666.067941
 30
0.0
  0
SPLINE
  5
1da
100
AcDbEntity
  8
Calque_1
 62
1
100
AcDbSpline
 70
8
 71
3
 72
8
 73
4
 74
0
 40
0
 40
0
 40
0
 40
0
 40
1
 40
1
 40
1
 40
1
 10
546.202740
 20
666.067941
 30
0.0
 10
546.244329
 20
666.067703
 30
0.0
 10
546.285866
 20
666.065300
 30
0.0
 10
546.327455
 20
666.065300
 30
0.0
  0
SPLINE
  5
1db
100
AcDbEntity
  8
Calque_1
 62
1
100
AcDbSpline
 70
8
 71
3
 72
8
 73
4
 74
0
 40
0
 40
0
 40
0
 40
0
 40
1
 40
1
 40
1
 40
1
 10
546.327455
 20
666.065300
 30
0.0
 10
552.333005
 20
666.081145
 30
0.0
 10
558.261790
 20
667.427934
 30
0.0
 10
563.694752
 20
670.010015
 30
0.0
  0
SPLINE
  5
1dc
100
AcDbEntity
  8
Calque_1
 62
1
100
AcDbSpline
 70
8
 71
3
 72
8
 73
4
 74
0
 40
0
 40
0
 40
0
 40
0
 40
1
 40
1
 40
1
 40
1
 10
563.694752
 20
670.010015
 30
0.0
 10
565.451726
 20
666.998062
 30
0.0
 10
567.796130
 20
664.353076
 30
0.0
 10
570.611205
 20
662.253154
 30
0.0
  0
SPLINE
  5
1dd
100
AcDbEntity
  8
Calque_1
 62
1
100
AcDbSpline
 70
8
 71
3
 72
8
 73
4
 74
0
 40
0
 40
0
 40
0
 40
0
 40
1
 40
1
 40
1
 40
1
 10
570.611205
 20
662.253154
 30
0.0
 10
573.052554
 20
660.600507
 30
0.0
 10
573.888549
 20
655.009693
 30
0.0
 10
572.829769
 20
647.295428
 30
0.0
  0
SPLINE
  5
1de
100
AcDbEntity
  8
Calque_1
 62
1
100
AcDbSpline
 70
8
 71
3
 72
8
 73
4
 74
0
 40
0
 40
0
 40
0
 40
0
 40
1
 40
1
 40
1
 40
1
 10
572.829769
 20
647.295428
 30
0.0
 10
572.544979
 20
645.389263
 30
0.0
 10
573.527753
 20
643.518458
 30
0.0
 10
575.251305
 20
642.686364
 30
0.0
  0
SPLINE
  5
1df
100
AcDbEntity
  8
Calque_1
 62
1
100
AcDbSpline
 70
8
 71
3
 72
8
 73
4
 74
0
 40
0
 40
0
 40
0
 40
0
 40
1
 40
1
 40
1
 40
1
 10
575.251305
 20
642.686364
 30
0.0
 10
576.975380
 20
641.804411
 30
0.0
 10
579.068469
 20
642.159865
 30
0.0
 10
580.411804
 20
643.562163
 30
0.0
  0
SPLINE
  5
1e0
100
AcDbEntity
  8
Calque_1
 62
1
100
AcDbSpline
 70
8
 71
3
 72
8
 73
4
 74
0
 40
0
 40
0
 40
0
 40
0
 40
1
 40
1
 40
1
 40
1
 10
580.411804
 20
643.562163
 30
0.0
 10
586.833769
 20
655.599149
 30
0.0
 10
586.357549
 20
652.363836
 30
0.0
 10
598.059729
 20
650.707333
 30
0.0
  0
SPLINE
  5
1e1
100
AcDbEntity
  8
Calque_1
 62
1
100
AcDbSpline
 70
8
 71
3
 72
8
 73
4
 74
0
 40
0
 40
0
 40
0
 40
0
 40
1
 40
1
 40
1
 40
1
 10
598.059729
 20
650.707333
 30
0.0
 10
599.727375
 20
650.524404
 30
0.0
 10
601.231072
 20
649.611923
 30
0.0
 10
602.172284
 20
648.210945
 30
0.0
  0
SPLINE
  5
1e2
100
AcDbEntity
  8
Calque_1
 62
1
100
AcDbSpline
 70
8
 71
3
 72
8
 73
4
 74
0
 40
0
 40
0
 40
0
 40
0
 40
1
 40
1
 40
1
 40
1
 10
602.172284
 20
648.210945
 30
0.0
 10
603.905467
 20
645.523865
 30
0.0
 10
603.982756
 20
640.581688
 30
0.0
 10
602.393630
 20
634.273947
 30
0.0
  0
SPLINE
  5
1e3
100
AcDbEntity
  8
Calque_1
 62
1
100
AcDbSpline
 70
8
 71
3
 72
8
 73
4
 74
0
 40
0
 40
0
 40
0
 40
0
 40
1
 40
1
 40
1
 40
1
 10
602.393630
 20
634.273947
 30
0.0
 10
601.934867
 20
632.433168
 30
0.0
 10
602.676116
 20
630.500753
 30
0.0
 10
604.243650
 20
629.450844
 30
0.0
  0
SPLINE
  5
1e4
100
AcDbEntity
  8
Calque_1
 62
1
100
AcDbSpline
 70
8
 71
3
 72
8
 73
4
 74
0
 40
0
 40
0
 40
0
 40
0
 40
1
 40
1
 40
1
 40
1
 10
604.243650
 20
629.450844
 30
0.0
 10
605.810869
 20
628.400963
 30
0.0
 10
607.864097
 20
628.462045
 30
0.0
 10
609.367350
 20
629.603008
 30
0.0
  0
SPLINE
  5
1e5
100
AcDbEntity
  8
Calque_1
 62
1
100
AcDbSpline
 70
8
 71
3
 72
8
 73
4
 74
0
 40
0
 40
0
 40
0
 40
0
 40
1
 40
1
 40
1
 40
1
 10
609.367350
 20
629.603008
 30
0.0
 10
610.627192
 20
630.564449
 30
0.0
 10
611.775694
 20
631.665272
 30
0.0
 10
612.791813
 20
632.885434
 30
0.0
  0
SPLINE
  5
1e6
100
AcDbEntity
  8
Calque_1
 62
1
100
AcDbSpline
 70
8
 71
3
 72
8
 73
4
 74
0
 40
0
 40
0
 40
0
 40
0
 40
1
 40
1
 40
1
 40
1
 10
612.791813
 20
632.885434
 30
0.0
 10
612.579601
 20
628.022508
 30
0.0
 10
611.548041
 20
623.231570
 30
0.0
 10
609.742044
 20
618.717892
 30
0.0
  0
SPLINE
  5
1e7
100
AcDbEntity
  8
Calque_1
 62
1
100
AcDbSpline
 70
8
 71
3
 72
8
 73
4
 74
0
 40
0
 40
0
 40
0
 40
0
 40
1
 40
1
 40
1
 40
1
 10
609.742044
 20
618.717892
 30
0.0
 10
609.011736
 20
616.849543
 30
0.0
 10
609.607279
 20
614.720202
 30
0.0
 10
611.197923
 20
613.512611
 30
0.0
  0
SPLINE
  5
1e8
100
AcDbEntity
  8
Calque_1
 62
1
100
AcDbSpline
 70
8
 71
3
 72
8
 73
4
 74
0
 40
0
 40
0
 40
0
 40
0
 40
1
 40
1
 40
1
 40
1
 10
611.197923
 20
613.512611
 30
0.0
 10
611.964638
 20
612.910796
 30
0.0
 10
612.883079
 20
612.602851
 30
0.0
 10
613.805000
 20
612.591416
 30
0.0
  0
LINE
  5
1e9
100
AcDbEntity
  8
Calque_1
 62
1
100
AcDbLine
 10
613.805000
 20
612.591416
 30
0.0
 11
613.805000
 21
612.591416
 31
0.0
  0
SPLINE
  5
1ea
100
AcDbEntity
  8
Calque_1
 62
1
100
AcDbSpline
 70
8
 71
3
 72
8
 73
4
 74
0
 40
0
 40
0
 40
0
 40
0
 40
1
 40
1
 40
1
 40
1
 10
613.805000
 20
612.591416
 30
0.0
 10
614.726922
 20
612.579797
 30
0.0
 10
615.652534
 20
612.864952
 30
0.0
 10
616.433565
 20
613.447621
 30
0.0
  0
SPLINE
  5
1eb
100
AcDbEntity
  8
Calque_1
 62
1
100
AcDbSpline
 70
8
 71
3
 72
8
 73
4
 74
0
 40
0
 40
0
 40
0
 40
0
 40
1
 40
1
 40
1
 40
1
 10
616.433565
 20
613.447621
 30
0.0
 10
621.112427
 20
616.918732
 30
0.0
 10
626.394292
 20
624.292174
 30
0.0
 10
625.009342
 20
639.505557
 30
0.0
  0
SPLINE
  5
1ec
100
AcDbEntity
  8
Calque_1
 62
1
100
AcDbSpline
 70
8
 71
3
 72
8
 73
4
 74
0
 40
0
 40
0
 40
0
 40
0
 40
1
 40
1
 40
1
 40
1
 10
625.009342
 20
639.505557
 30
0.0
 10
625.009342
 20
640.114608
 30
0.0
 10
624.818121
 20
654.483960
 30
0.0
 10
608.155299
 20
661.689921
 30
0.0
  0
SPLINE
  5
1ed
100
AcDbEntity
  8
Calque_1
 62
1
100
AcDbSpline
 70
8
 71
3
 72
8
 73
4
 74
0
 40
0
 40
0
 40
0
 40
0
 40
1
 40
1
 40
1
 40
1
 10
608.155299
 20
661.689921
 30
0.0
 10
603.751360
 20
663.545938
 30
0.0
 10
599.184100
 20
664.978526
 30
0.0
 10
594.513587
 20
665.968858
 30
0.0
  0
SPLINE
  5
1ee
100
AcDbEntity
  8
Calque_1
 62
1
100
AcDbSpline
 70
8
 71
3
 72
8
 73
4
 74
0
 40
0
 40
0
 40
0
 40
0
 40
1
 40
1
 40
1
 40
1
 10
594.513587
 20
665.968858
 30
0.0
 10
586.642758
 20
667.297425
 30
0.0
 10
579.371266
 20
671.040461
 30
0.0
 10
573.685001
 20
676.684803
 30
0.0
  0
SPLINE
  5
1ef
100
AcDbEntity
  8
Calque_1
 62
1
100
AcDbSpline
 70
8
 71
3
 72
8
 73
4
 74
0
 40
0
 40
0
 40
0
 40
0
 40
1
 40
1
 40
1
 40
1
 10
573.685001
 20
676.684803
 30
0.0
 10
573.886874
 20
676.860206
 30
0.0
 10
574.087229
 20
677.038276
 30
0.0
 10
574.285648
 20
677.217588
 30
0.0
  0
SPLINE
  5
1f0
100
AcDbEntity
  8
Calque_1
 62
1
100
AcDbSpline
 70
8
 71
3
 72
8
 73
4
 74
0
 40
0
 40
0
 40
0
 40
0
 40
1
 40
1
 40
1
 40
1
 10
574.285648
 20
677.217588
 30
0.0
 10
575.343486
 20
677.790776
 30
0.0
 10
576.312205
 20
678.519641
 30
0.0
 10
577.155503
 20
679.386461
 30
0.0
  0
SPLINE
  5
1f1
100
AcDbEntity
  8
Calque_1
 62
1
100
AcDbSpline
 70
8
 71
3
 72
8
 73
4
 74
0
 40
0
 40
0
 40
0
 40
0
 40
1
 40
1
 40
1
 40
1
 10
577.155503
 20
679.386461
 30
0.0
 10
581.332417
 20
675.866521
 30
0.0
 10
590.571865
 20
669.480453
 30
0.0
 10
601.138158
 20
671.047802
 30
0.0
  0
SPLINE
  5
1f2
100
AcDbEntity
  8
Calque_1
 62
1
100
AcDbSpline
 70
8
 71
3
 72
8
 73
4
 74
0
 40
0
 40
0
 40
0
 40
0
 40
1
 40
1
 40
1
 40
1
 10
601.138158
 20
671.047802
 30
0.0
 10
602.231016
 20
671.208152
 30
0.0
 10
603.040838
 20
672.155095
 30
0.0
 10
603.038247
 20
673.269281
 30
0.0
  0
SPLINE
  5
1f3
100
AcDbEntity
  8
Calque_1
 62
1
100
AcDbSpline
 70
8
 71
3
 72
8
 73
4
 74
0
 40
0
 40
0
 40
0
 40
0
 40
1
 40
1
 40
1
 40
1
 10
603.038247
 20
673.269281
 30
0.0
 10
602.865557
 20
678.862497
 30
0.0
 10
600.559209
 20
684.172011
 30
0.0
 10
596.601311
 20
688.092378
 30
0.0
  0
SPLINE
  5
1f4
100
AcDbEntity
  8
Calque_1
 62
1
100
AcDbSpline
 70
8
 71
3
 72
8
 73
4
 74
0
 40
0
 40
0
 40
0
 40
0
 40
1
 40
1
 40
1
 40
1
 10
596.601311
 20
688.092378
 30
0.0
 10
593.257828
 20
690.997431
 30
0.0
 10
589.130171
 20
692.779690
 30
0.0
 10
584.788131
 20
693.236815
 30
0.0
  0
SPLINE
  5
1f5
100
AcDbEntity
  8
Calque_1
 62
1
100
AcDbSpline
 70
8
 71
3
 72
8
 73
4
 74
0
 40
0
 40
0
 40
0
 40
0
 40
1
 40
1
 40
1
 40
1
 10
584.788131
 20
693.236815
 30
0.0
 10
586.455358
 20
697.784269
 30
0.0
 10
587.317422
 20
702.591395
 30
0.0
 10
587.334905
 20
707.439954
 30
0.0
  0
SPLINE
  5
1f6
100
AcDbEntity
  8
Calque_1
 62
1
100
AcDbSpline
 70
8
 71
3
 72
8
 73
4
 74
0
 40
0
 40
0
 40
0
 40
0
 40
1
 40
1
 40
1
 40
1
 10
587.334905
 20
707.439954
 30
0.0
 10
587.314490
 20
728.449236
 30
0.0
 10
571.701996
 20
746.060319
 30
0.0
 10
551.102006
 20
748.491188
 30
0.0
  0
LINE
  5
1f7
100
AcDbEntity
  8
Calque_1
 62
1
100
AcDbLine
 10
551.102006
 20
748.491188
 30
0.0
 11
551.102006
 21
738.906382
 31
0.0
  0
LINE
  5
1f8
100
AcDbEntity
  8
Calque_1
 62
1
100
AcDbLine
 10
551.102006
 20
738.906382
 30
0.0
 11
546.202740
 21
738.906382
 31
0.0
  0
LINE
  5
1f9
100
AcDbEntity
  8
Calque_1
 62
1
100
AcDbLine
 10
546.202740
 20
738.906382
 30
0.0
 11
541.303003
 21
738.906382
 31
0.0
  0
LINE
  5
1fa
100
AcDbEntity
  8
Calque_1
 62
1
100
AcDbLine
 10
541.303003
 20
738.906382
 30
0.0
 11
541.303003
 21
748.491188
 31
0.0
  0
SPLINE
  5
1fb
100
AcDbEntity
  8
Calque_1
 62
1
100
AcDbSpline
 70
8
 71
3
 72
8
 73
4
 74
0
 40
0
 40
0
 40
0
 40
0
 40
1
 40
1
 40
1
 40
1
 10
541.303003
 20
748.491188
 30
0.0
 10
520.703013
 20
746.060319
 30
0.0
 10
505.090963
 20
728.449236
 30
0.0
 10
505.070574
 20
707.439954
 30
0.0
  0
SPLINE
  5
1fc
100
AcDbEntity
  8
Calque_1
 62
1
100
AcDbSpline
 70
8
 71
3
 72
8
 73
4
 74
0
 40
0
 40
0
 40
0
 40
0
 40
1
 40
1
 40
1
 40
1
 10
505.070574
 20
707.439954
 30
0.0
 10
505.088110
 20
702.591395
 30
0.0
 10
505.950122
 20
697.784269
 30
0.0
 10
507.617323
 20
693.236815
 30
0.0
  0
SPLINE
  5
1fd
100
AcDbEntity
  8
Calque_1
 62
1
100
AcDbSpline
 70
8
 71
3
 72
8
 73
4
 74
0
 40
0
 40
0
 40
0
 40
0
 40
1
 40
1
 40
1
 40
1
 10
507.617323
 20
693.236815
 30
0.0
 10
503.275309
 20
692.779690
 30
0.0
 10
499.147652
 20
690.997431
 30
0.0
 10
495.804169
 20
688.092378
 30
0.0
  0
SPLINE
  5
1fe
100
AcDbEntity
  8
Calque_1
 62
1
100
AcDbSpline
 70
8
 71
3
 72
8
 73
4
 74
0
 40
0
 40
0
 40
0
 40
0
 40
1
 40
1
 40
1
 40
1
 10
495.804169
 20
688.092378
 30
0.0
 10
491.846271
 20
684.172011
 30
0.0
 10
489.539897
 20
678.862497
 30
0.0
 10
489.367207
 20
673.269281
 30
0.0
  0
SPLINE
  5
1ff
100
AcDbEntity
  8
Calque_1
 62
1
100
AcDbSpline
 70
8
 71
3
 72
8
 73
4
 74
0
 40
0
 40
0
 40
0
 40
0
 40
1
 40
1
 40
1
 40
1
 10
489.367207
 20
673.269281
 30
0.0
 10
489.364589
 20
672.155095
 30
0.0
 10
490.174464
 20
671.208152
 30
0.0
 10
491.267322
 20
671.047802
 30
0.0
  0
SPLINE
  5
200
100
AcDbEntity
  8
Calque_1
 62
1
100
AcDbSpline
 70
8
 71
3
 72
8
 73
4
 74
0
 40
0
 40
0
 40
0
 40
0
 40
1
 40
1
 40
1
 40
1
 10
491.267322
 20
671.047802
 30
0.0
 10
501.833589
 20
669.480453
 30
0.0
 10
511.073037
 20
675.866547
 30
0.0
 10
515.249977
 20
679.386461
 30
0.0
  0
SPLINE
  5
201
100
AcDbEntity
  8
Calque_1
 62
1
100
AcDbSpline
 70
8
 71
3
 72
8
 73
4
 74
0
 40
0
 40
0
 40
0
 40
0
 40
1
 40
1
 40
1
 40
1
 10
515.249977
 20
679.386461
 30
0.0
 10
516.093248
 20
678.519667
 30
0.0
 10
517.061967
 20
677.790802
 30
0.0
 10
518.119806
 20
677.217588
 30
0.0
  0
SPLINE
  5
202
100
AcDbEntity
  8
Calque_1
 62
1
100
AcDbSpline
 70
8
 71
3
 72
8
 73
4
 74
0
 40
0
 40
0
 40
0
 40
0
 40
1
 40
1
 40
1
 40
1
 10
518.119806
 20
677.217588
 30
0.0
 10
518.318224
 20
677.038303
 30
0.0
 10
518.518579
 20
676.860206
 30
0.0
 10
518.720453
 20
676.684803
 30
0.0
  0
SPLINE
  5
203
100
AcDbEntity
  8
Calque_1
 62
1
100
AcDbSpline
 70
8
 71
3
 72
8
 73
4
 74
0
 40
0
 40
0
 40
0
 40
0
 40
1
 40
1
 40
1
 40
1
 10
518.720453
 20
676.684803
 30
0.0
 10
513.034188
 20
671.040434
 30
0.0
 10
505.762696
 20
667.297425
 30
0.0
 10
497.891867
 20
665.968858
 30
0.0
  0
SPLINE
  5
204
100
AcDbEntity
  8
Calque_1
 62
1
100
AcDbSpline
 70
8
 71
3
 72
8
 73
4
 74
0
 40
0
 40
0
 40
0
 40
0
 40
1
 40
1
 40
1
 40
1
 10
497.891867
 20
665.968858
 30
0.0
 10
493.221354
 20
664.978526
 30
0.0
 10
488.654094
 20
663.545938
 30
0.0
 10
484.250155
 20
661.689921
 30
0.0
  0
SPLINE
  5
205
100
AcDbEntity
  8
Calque_1
 62
1
100
AcDbSpline
 70
8
 71
3
 72
8
 73
4
 74
0
 40
0
 40
0
 40
0
 40
0
 40
1
 40
1
 40
1
 40
1
 10
484.250155
 20
661.689921
 30
0.0
 10
467.587333
 20
654.483960
 30
0.0
 10
467.396112
 20
640.114608
 30
0.0
 10
467.396112
 20
639.505557
 30
0.0
  0
SPLINE
  5
206
100
AcDbEntity
  8
Calque_1
 62
1
100
AcDbSpline
 70
8
 71
3
 72
8
 73
4
 74
0
 40
0
 40
0
 40
0
 40
0
 40
1
 40
1
 40
1
 40
1
 10
467.396112
 20
639.505557
 30
0.0
 10
466.011162
 20
624.292174
 30
0.0
 10
471.293026
 20
616.918732
 30
0.0
 10
475.971888
 20
613.447621
 30
0.0
  0
SPLINE
  5
207
100
AcDbEntity
  8
Calque_1
 62
1
100
AcDbSpline
 70
8
 71
3
 72
8
 73
4
 74
0
 40
0
 40
0
 40
0
 40
0
 40
1
 40
1
 40
1
 40
1
 10
475.971888
 20
613.447621
 30
0.0
 10
476.752920
 20
612.864952
 30
0.0
 10
477.678532
 20
612.579823
 30
0.0
 10
478.600453
 20
612.591416
 30
0.0
  0
LINE
  5
208
100
AcDbEntity
  8
Calque_1
 62
1
100
AcDbLine
 10
478.600453
 20
612.591416
 30
0.0
 11
478.600453
 21
612.590888
 31
0.0
  0
SPLINE
  5
209
100
AcDbEntity
  8
Calque_1
 62
1
100
AcDbSpline
 70
8
 71
3
 72
8
 73
4
 74
0
 40
0
 40
0
 40
0
 40
0
 40
1
 40
1
 40
1
 40
1
 10
528.357405
 20
708.683477
 30
0.0
 10
528.357415
 20
718.655409
 30
0.0
 10
536.369278
 20
726.739253
 30
0.0
 10
546.252408
 20
726.739252
 30
0.0
  0
SPLINE
  5
20a
100
AcDbEntity
  8
Calque_1
 62
1
100
AcDbSpline
 70
8
 71
3
 72
8
 73
4
 74
0
 40
0
 40
0
 40
0
 40
0
 40
1
 40
1
 40
1
 40
1
 10
546.252408
 20
726.739252
 30
0.0
 10
556.135536
 20
726.739251
 30
0.0
 10
564.147397
 20
718.655408
 30
0.0
 10
564.147407
 20
708.683477
 30
0.0
  0
SPLINE
  5
20b
100
AcDbEntity
  8
Calque_1
 62
1
100
AcDbSpline
 70
8
 71
3
 72
8
 73
4
 74
0
 40
0
 40
0
 40
0
 40
0
 40
1
 40
1
 40
1
 40
1
 10
564.147407
 20
708.683477
 30
0.0
 10
564.147410
 20
703.894781
 30
0.0
 10
562.262051
 20
699.302217
 30
0.0
 10
558.906087
 20
695.916096
 30
0.0
  0
SPLINE
  5
20c
100
AcDbEntity
  8
Calque_1
 62
1
100
AcDbSpline
 70
8
 71
3
 72
8
 73
4
 74
0
 40
0
 40
0
 40
0
 40
0
 40
1
 40
1
 40
1
 40
1
 10
558.906087
 20
695.916096
 30
0.0
 10
555.550124
 20
692.529975
 30
0.0
 10
550.998459
 20
690.627672
 30
0.0
 10
546.252408
 20
690.627671
 30
0.0
  0
SPLINE
  5
20d
100
AcDbEntity
  8
Calque_1
 62
1
100
AcDbSpline
 70
8
 71
3
 72
8
 73
4
 74
0
 40
0
 40
0
 40
0
 40
0
 40
1
 40
1
 40
1
 40
1
 10
546.252408
 20
690.627671
 30
0.0
 10
541.506356
 20
690.627671
 30
0.0
 10
536.954690
 20
692.529974
 30
0.0
 10
533.598726
 20
695.916095
 30
0.0
  0
SPLINE
  5
20e
100
AcDbEntity
  8
Calque_1
 62
1
100
AcDbSpline
 70
8
 71
3
 72
8
 73
4
 74
0
 40
0
 40
0
 40
0
 40
0
 40
1
 40
1
 40
1
 40
1
 10
533.598726
 20
695.916095
 30
0.0
 10
530.242761
 20
699.302216
 30
0.0
 10
528.357402
 20
703.894781
 30
0.0
 10
528.357405
 20
708.683477
 30
0.0
  0
LINE
  5
20f
100
AcDbEntity
  8
Calque_1
 62
1
100
AcDbLine
 10
528.357405
 20
708.683477
 30
0.0
 11
528.357405
 21
708.683477
 31
0.0
  0
LINE
  5
210
100
AcDbEntity
  8
Calque_1
 62
1
100
AcDbLine
 10
449.752871
 20
703.339347
 30
0.0
 11
470.389184
 21
745.510583
 31
0.0
  0
SPLINE
  5
211
100
AcDbEntity
  8
Calque_1
 62
1
100
AcDbSpline
 70
8
 71
3
 72
8
 73
4
 74
0
 40
0
 40
0
 40
0
 40
0
 40
1
 40
1
 40
1
 40
1
 10
470.389184
 20
745.510583
 30
0.0
 10
470.389184
 20
745.510583
 30
0.0
 10
477.938317
 20
758.653001
 30
0.0
 10
483.945552
 20
762.815089
 30
0.0
  0
SPLINE
  5
212
100
AcDbEntity
  8
Calque_1
 62
1
100
AcDbSpline
 70
8
 71
3
 72
8
 73
4
 74
0
 40
0
 40
0
 40
0
 40
0
 40
1
 40
1
 40
1
 40
1
 10
483.945552
 20
762.815089
 30
0.0
 10
490.304168
 20
768.613767
 30
0.0
 10
497.202057
 20
769.777954
 30
0.0
 10
506.044001
 20
770.324914
 30
0.0
  0
LINE
  5
213
100
AcDbEntity
  8
Calque_1
 62
1
100
AcDbLine
 10
506.044001
 20
770.324914
 30
0.0
 11
506.044001
 21
760.558080
 31
0.0
  0
LINE
  5
214
100
AcDbEntity
  8
Calque_1
 62
1
100
AcDbLine
 10
506.044001
 20
760.558080
 30
0.0
 11
515.781001
 21
760.558080
 31
0.0
  0
LINE
  5
215
100
AcDbEntity
  8
Calque_1
 62
1
100
AcDbLine
 10
515.781001
 20
760.558080
 30
0.0
 11
515.781001
 21
770.324914
 31
0.0
  0
LINE
  5
216
100
AcDbEntity
  8
Calque_1
 62
1
100
AcDbLine
 10
515.781001
 20
770.324914
 30
0.0
 11
673.984002
 21
770.324914
 31
0.0
  0
LINE
  5
217
100
AcDbEntity
  8
Calque_1
 62
1
100
AcDbLine
 10
673.984002
 20
770.324914
 30
0.0
 11
673.984002
 21
760.558080
 31
0.0
  0
LINE
  5
218
100
AcDbEntity
  8
Calque_1
 62
1
100
AcDbLine
 10
673.984002
 20
760.558080
 30
0.0
 11
683.721001
 21
760.558080
 31
0.0
  0
LINE
  5
219
100
AcDbEntity
  8
Calque_1
 62
1
100
AcDbLine
 10
683.721001
 20
760.558080
 30
0.0
 11
683.721001
 21
770.324914
 31
0.0
  0
SPLINE
  5
21a
100
AcDbEntity
  8
Calque_1
 62
1
100
AcDbSpline
 70
8
 71
3
 72
8
 73
4
 74
0
 40
0
 40
0
 40
0
 40
0
 40
1
 40
1
 40
1
 40
1
 10
683.721001
 20
770.324914
 30
0.0
 10
683.721001
 20
770.324914
 30
0.0
 10
693.409598
 20
770.167014
 30
0.0
 10
708.447817
 20
769.664170
 30
0.0
  0
SPLINE
  5
21b
100
AcDbEntity
  8
Calque_1
 62
1
100
AcDbSpline
 70
8
 71
3
 72
8
 73
4
 74
0
 40
0
 40
0
 40
0
 40
0
 40
1
 40
1
 40
1
 40
1
 10
708.447817
 20
769.664170
 30
0.0
 10
716.358312
 20
769.399673
 30
0.0
 10
727.228255
 20
766.286491
 30
0.0
 10
739.392592
 20
762.334902
 30
0.0
  0
SPLINE
  5
21c
100
AcDbEntity
  8
Calque_1
 62
1
100
AcDbSpline
 70
8
 71
3
 72
8
 73
4
 74
0
 40
0
 40
0
 40
0
 40
0
 40
1
 40
1
 40
1
 40
1
 10
739.392592
 20
762.334902
 30
0.0
 10
753.880063
 20
757.628648
 30
0.0
 10
759.262309
 20
751.916307
 30
0.0
 10
759.813701
 20
750.946850
 30
0.0
  0
SPLINE
  5
21d
100
AcDbEntity
  8
Calque_1
 62
1
100
AcDbSpline
 70
8
 71
3
 72
8
 73
4
 74
0
 40
0
 40
0
 40
0
 40
0
 40
1
 40
1
 40
1
 40
1
 10
759.813701
 20
750.946850
 30
0.0
 10
761.551661
 20
747.891857
 30
0.0
 10
761.112942
 20
737.252282
 30
0.0
 10
761.112942
 20
737.252282
 30
0.0
  0
LINE
  5
21e
100
AcDbEntity
  8
Calque_1
 62
1
100
AcDbLine
 10
761.112942
 20
737.252282
 30
0.0
 11
750.445987
 21
737.252282
 31
0.0
  0
LINE
  5
21f
100
AcDbEntity
  8
Calque_1
 62
1
100
AcDbLine
 10
750.445987
 20
737.252282
 30
0.0
 11
750.445987
 21
747.080599
 31
0.0
  0
LINE
  5
220
100
AcDbEntity
  8
Calque_1
 62
1
100
AcDbLine
 10
750.445987
 20
747.080599
 30
0.0
 11
740.708997
 21
747.080599
 31
0.0
  0
LINE
  5
221
100
AcDbEntity
  8
Calque_1
 62
1
100
AcDbLine
 10
740.708997
 20
747.080599
 30
0.0
 11
740.708997
 21
737.252282
 31
0.0
  0
LINE
  5
222
100
AcDbEntity
  8
Calque_1
 62
1
100
AcDbLine
 10
740.708997
 20
737.252282
 30
0.0
 11
730.881741
 21
737.252282
 31
0.0
  0
SPLINE
  5
223
100
AcDbEntity
  8
Calque_1
 62
1
100
AcDbSpline
 70
8
 71
3
 72
8
 73
4
 74
0
 40
0
 40
0
 40
0
 40
0
 40
1
 40
1
 40
1
 40
1
 10
730.881741
 20
737.252282
 30
0.0
 10
722.990437
 20
737.252282
 30
0.0
 10
728.397117
 20
736.198824
 30
0.0
 10
722.557456
 20
740.249584
 30
0.0
  0
SPLINE
  5
224
100
AcDbEntity
  8
Calque_1
 62
1
100
AcDbSpline
 70
8
 71
3
 72
8
 73
4
 74
0
 40
0
 40
0
 40
0
 40
0
 40
1
 40
1
 40
1
 40
1
 10
722.557456
 20
740.249584
 30
0.0
 10
718.576538
 20
744.326335
 30
0.0
 10
711.943621
 20
753.215717
 30
0.0
 10
698.456005
 20
754.029570
 30
0.0
  0
SPLINE
  5
225
100
AcDbEntity
  8
Calque_1
 62
1
100
AcDbSpline
 70
8
 71
3
 72
8
 73
4
 74
0
 40
0
 40
0
 40
0
 40
0
 40
1
 40
1
 40
1
 40
1
 10
698.456005
 20
754.029570
 30
0.0
 10
687.906470
 20
754.881151
 30
0.0
 10
681.927625
 20
755.445179
 30
0.0
 10
681.721274
 20
755.142155
 30
0.0
  0
LINE
  5
226
100
AcDbEntity
  8
Calque_1
 62
1
100
AcDbLine
 10
681.721274
 20
755.142155
 30
0.0
 11
497.122069
 21
755.236975
 31
0.0
  0
SPLINE
  5
227
100
AcDbEntity
  8
Calque_1
 62
1
100
AcDbSpline
 70
8
 71
3
 72
8
 73
4
 74
0
 40
0
 40
0
 40
0
 40
0
 40
1
 40
1
 40
1
 40
1
 10
497.122069
 20
755.236975
 30
0.0
 10
497.122069
 20
755.236975
 30
0.0
 10
488.620120
 20
743.971998
 30
0.0
 10
477.558753
 20
729.772390
 30
0.0
  0
SPLINE
  5
228
100
AcDbEntity
  8
Calque_1
 62
1
100
AcDbSpline
 70
8
 71
3
 72
8
 73
4
 74
0
 40
0
 40
0
 40
0
 40
0
 40
1
 40
1
 40
1
 40
1
 10
477.558753
 20
729.772390
 30
0.0
 10
469.564768
 20
717.959246
 30
0.0
 10
446.906985
 20
697.523691
 30
0.0
 10
449.752871
 20
703.339337
 30
0.0
  0
LINE
  5
229
100
AcDbEntity
  8
Calque_1
 62
1
100
AcDbLine
 10
449.752871
 20
703.339337
 30
0.0
 11
449.752871
 21
703.339347
 31
0.0
  0
ENDSEC
  0
SECTION
  2
OBJECTS
  0
DICTIONARY
  5
C
330
0
100
AcDbDictionary
  3
ACAD_GROUP
350
D
  3
ACAD_MLINESTYLE
350
17
  0
DICTIONARY
  5
D
330
C
100
AcDbDictionary
  0
DICTIONARY
  5
1A
330
C
100
AcDbDictionary
  0
DICTIONARY
  5
17
330
C
100
AcDbDictionary
  3
STANDARD
350
18
  0
DICTIONARY
  5
19
330
C
100
AcDbDictionary
  0
ENDSEC
  0
EOF
