<?xml version="1.0" encoding="UTF-8" standalone="no"?>
<!-- Created with Inkscape (http://www.inkscape.org/) -->

<svg
   xmlns:dc="http://purl.org/dc/elements/1.1/"
   xmlns:cc="http://creativecommons.org/ns#"
   xmlns:rdf="http://www.w3.org/1999/02/22-rdf-syntax-ns#"
   xmlns:svg="http://www.w3.org/2000/svg"
   xmlns="http://www.w3.org/2000/svg"
   xmlns:sodipodi="http://sodipodi.sourceforge.net/DTD/sodipodi-0.dtd"
   xmlns:inkscape="http://www.inkscape.org/namespaces/inkscape"
   width="210mm"
   height="297mm"
   viewBox="0 0 744.09448819 1052.3622047"
   id="svg4803"
   version="1.1"
   inkscape:version="0.91 r"
   sodipodi:docname="cloche.svg">
  <defs
     id="defs4805" />
  <sodipodi:namedview
     id="base"
     pagecolor="#ffffff"
     bordercolor="#666666"
     borderopacity="1.0"
     inkscape:pageopacity="0.0"
     inkscape:pageshadow="2"
     inkscape:zoom="0.49497475"
     inkscape:cx="445.55099"
     inkscape:cy="440.02693"
     inkscape:document-units="px"
     inkscape:current-layer="layer1"
     showgrid="false"
     inkscape:window-width="1366"
     inkscape:window-height="716"
     inkscape:window-x="0"
     inkscape:window-y="0"
     inkscape:window-maximized="1" />
  <metadata
     id="metadata4808">
    <rdf:RDF>
      <cc:Work
         rdf:about="">
        <dc:format>image/svg+xml</dc:format>
        <dc:type
           rdf:resource="http://purl.org/dc/dcmitype/StillImage" />
        <dc:title></dc:title>
      </cc:Work>
    </rdf:RDF>
  </metadata>
  <g
     inkscape:label="Calque 1"
     inkscape:groupmode="layer"
     id="layer1">
    <path
       style="fill:none;stroke:#000000"
       d="M 351.76172 185.21875 C 335.83521 185.21875 297.206 195.90998 274.09375 206.71484 C 211.57214 235.94336 164.76565 296.67975 150.49609 367.09375 C 146.81502 385.25821 136.86811 444.31034 125.44141 515.84375 C 111.02705 606.08049 110.44922 609.34174 105.91602 625.84375 C 98.272186 653.66929 83.332286 691.08561 74.472656 704.59375 C 68.783276 713.26826 47.733093 739.21451 38.470703 748.96875 C 28.156673 759.83048 23.685068 766.92236 21.111328 776.5 L 20.435547 799.94141 C 21.824757 806.99056 27.41021 817.20554 32.875 822.6875 C 40.55754 830.39416 55.708205 841.02424 67.484375 846.97266 C 89.269385 857.97677 146.9661 875.50545 189.10742 883.92188 C 223.81039 890.8527 263.13856 896.66387 292.0293 899.13086 L 310.57617 900.71484 L 314.75977 909.02539 C 317.0614 913.59582 320.41267 919.07846 322.20703 921.21094 C 327.54763 927.55788 337.87311 934.40654 346.57422 937.37305 L 354.73242 940.1543 L 380.6543 937.79297 C 395.72492 932.97527 407.52438 922.41333 414.45703 907.5332 L 418.34375 899.18555 L 428.41406 898.38672 C 452.32106 896.48791 500.28694 889.11697 530.64258 882.67773 C 589.79262 870.13045 649.1316 850.03788 671.80859 834.87891 C 691.9744 821.39858 701.37789 810.86564 704.89844 797.80859 L 705.25 772.40234 C 703.12671 763.39322 697.79308 755.25936 685.28711 741.95898 C 662.16457 717.36766 651.27876 702.69878 641.75 683.29883 C 624.88186 648.95643 615.20608 618.15221 608.00195 575.84375 C 587.6251 456.17464 572.57592 373.99064 567.0293 352.09375 C 559.59226 322.73388 543.23387 290.79661 522.85156 265.84375 C 512.62335 253.32195 494.00467 235.95685 480.29102 226.14844 C 465.11608 215.29485 437.59214 201.5753 418.48242 195.33984 C 403.73236 190.52692 377.13794 185.21875 367.77344 185.21875 L 351.76172 185.21875 z M 362.8418 192.36523 A 8.2103491 7.1389213 0 0 1 371.05273 199.50586 A 8.2103491 7.1389213 0 0 1 362.8418 206.64453 A 8.2103491 7.1389213 0 0 1 354.63281 199.50586 A 8.2103491 7.1389213 0 0 1 362.8418 192.36523 z M 353.7168 213.52344 C 354.35173 213.53256 354.83956 213.5891 355.1582 213.69531 C 355.95534 213.96102 356.60742 216.06194 356.60742 218.36523 C 356.60742 222.00453 356.15719 222.60549 353.16992 222.94922 C 348.46622 223.49043 348.68924 226.89145 353.48242 227.71484 C 357.05341 228.32826 357.25184 228.68633 357.63086 235.22656 C 357.84977 239.00401 357.68605 244.40673 357.26758 247.23242 L 356.50586 252.36914 L 348.03711 253.76758 C 343.37886 254.53686 334.67405 256.58522 328.69336 258.31836 C 322.71268 260.05149 317.12437 261.46629 316.27539 261.46289 C 315.32404 261.45889 314.60394 259.25307 314.39844 255.71289 C 314.0884 250.37168 314.4396 249.62656 319.39844 245.09375 C 322.33152 242.41265 325.15399 240.21875 325.66992 240.21875 C 326.18585 240.21875 326.60742 239.65625 326.60742 238.96875 C 326.60742 238.26518 323.09848 237.71875 318.58008 237.71875 C 310.70358 237.71875 310.46832 237.62074 306.08008 232.49414 C 303.62027 229.62039 301.60742 226.83267 301.60742 226.29883 C 301.60742 223.58058 344.19274 213.38664 353.7168 213.52344 z M 366.29492 213.98633 C 376.15969 214.02223 376.60742 214.4781 376.60742 224.48633 C 376.60742 233.31072 376.52322 233.5436 371.60742 238.34375 C 368.85742 241.02905 366.60742 243.67468 366.60742 244.22266 C 366.60742 244.77063 369.94052 245.21875 374.01562 245.21875 C 380.53114 245.21875 381.73741 245.61738 384.01562 248.51367 C 387.46375 252.89725 387.28399 254.0138 383.16992 253.74414 C 381.2793 253.62026 376.91992 253.33307 373.48242 253.10547 C 360.82862 252.26762 361.46962 253.03181 361.875 239.24609 C 362.22823 227.2329 362.26689 227.09413 365.34375 227.07031 C 367.28846 227.05531 368.61274 226.23454 368.87305 224.88281 C 369.19511 223.21051 368.41881 222.71875 365.44922 222.71875 C 361.8921 222.71875 361.60742 222.39473 361.60742 218.34375 C 361.60742 214.1185 361.76786 213.96985 366.29492 213.98633 z M 382.55078 216.41211 C 387.72301 216.63563 401.77942 219.89056 413.86914 223.86719 C 447.06697 234.78684 482.63892 259.82979 503.33594 286.85156 C 514.81977 301.84473 520.34899 323.29058 514.10742 328.63477 C 510.96097 331.32884 510.92685 332.71875 514.00586 332.71875 C 518.42916 332.71875 520.56545 334.08696 519.03125 335.93555 C 517.18545 338.15961 518.60104 340.21457 521.99414 340.23828 C 526.76921 340.27168 528.07367 341.8548 525.89258 344.96875 C 523.44556 348.46237 521.75492 348.34748 517.85742 344.41992 C 511.83142 338.34745 498.86996 329.85659 489.3457 325.74219 C 480.34763 321.85511 479.42258 321.08472 474.88477 313.7168 C 472.21818 309.38714 468.4213 303.79423 466.44727 301.28906 C 462.03943 295.69522 461.92929 293.96875 465.98242 293.96875 C 468.89425 293.96875 470.28872 292.22976 468.16992 291.24023 C 467.6543 290.99942 465.09613 288.51073 462.48633 285.71094 L 457.74219 280.62109 L 460.42188 273.45898 C 461.89571 269.51985 462.8352 266.03051 462.50977 265.70508 C 462.18433 265.37964 458.66013 266.5552 454.67773 268.31641 L 447.43555 271.51758 L 442.5918 268.16016 C 439.92737 266.31371 437.45773 264.33486 437.10352 263.76172 C 436.74931 263.18859 435.68379 262.71875 434.73633 262.71875 C 433.4657 262.71875 433.20094 263.86673 433.72461 267.09375 C 434.1151 269.5 434.06606 271.46875 433.61523 271.46875 C 433.16436 271.46875 428.80964 269.46236 423.93945 267.00977 C 419.06926 264.55718 410.22398 260.96871 404.2832 259.03516 L 393.48242 255.51953 L 393.11328 248.01562 C 392.74801 240.57405 392.78911 240.47228 398.02539 235.99023 C 400.92982 233.50409 403.76828 231.46875 404.33203 231.46875 C 404.89578 231.46875 405.35742 230.93082 405.35742 230.27344 C 405.35742 229.61606 401.30243 228.91293 396.34766 228.71094 C 387.34746 228.34403 387.33595 228.33977 383.70117 223.16016 C 381.70015 220.30869 380.2708 217.43272 380.52344 216.76953 C 380.63757 216.46991 381.35719 216.36053 382.55078 216.41211 z M 297.68945 227.71875 C 298.58465 227.71875 299.10742 230.40765 299.10742 235.01367 C 299.10742 242.26924 299.07436 242.33558 292.9082 247.20117 C 289.49826 249.89189 286.68576 252.55418 286.6582 253.11719 C 286.6306 253.68019 290.36407 254.00635 294.95703 253.83984 C 303.2302 253.53992 303.34648 253.58074 307.45703 258.33594 C 309.73907 260.97587 311.60451 263.46416 311.60156 263.86523 C 311.59756 264.4387 294.62311 273.78489 291.66992 274.83984 C 291.29162 274.97498 288.16992 273.42186 284.73242 271.38867 C 276.36177 266.43766 260.40099 261.46875 252.86719 261.46875 C 246.04637 261.46875 243.93291 259.72752 247.41992 256.98047 C 262.87213 244.80728 292.22891 227.71875 297.68945 227.71875 z M 371.37695 261.46875 C 377.73172 261.46875 389.0111 263.56801 399.73242 266.74414 C 409.61867 269.67286 430.35742 279.6229 430.35742 281.4375 C 430.35742 282.09332 428.2883 284.03572 425.75977 285.75391 C 420.72275 289.17665 420.65904 289.11763 431.87695 291.41602 L 439.02344 292.87891 L 441.10547 300.29883 C 442.25051 304.37972 443.67457 307.71875 444.27148 307.71875 C 444.86838 307.71875 445.35875 307.29688 445.36133 306.78125 C 445.36333 306.26563 446.52569 303.94257 447.94336 301.61719 L 450.52148 297.38867 L 454.89453 301.61719 C 459.09544 305.67802 466.60742 316.0074 466.60742 317.72461 C 466.60742 318.17943 460.4003 318.50433 452.81445 318.44727 C 441.00066 318.35837 438.20592 317.92953 433.33203 315.45312 C 419.40678 308.37775 399.25167 306.0035 382.85742 309.50781 C 375.96807 310.98042 374.46012 310.98291 372.94727 309.52734 C 371.51168 308.14612 371.45062 307.18096 372.63477 304.58203 C 374.80477 299.81941 374.4515 297.07269 371.1582 293.12695 C 364.21436 284.8074 360.96858 273.17987 364.58203 269.56641 C 365.69581 268.45263 366.60742 266.17551 366.60742 264.50586 C 366.60742 261.82188 367.15925 261.46875 371.37695 261.46875 z M 350.24414 261.81445 C 351.41284 261.88843 351.60742 262.50627 351.60742 263.96289 C 351.60742 265.39687 352.75111 268.11589 354.14844 270.00586 L 356.6875 273.44336 L 354.17188 281.58984 C 352.74772 286.20074 350.28799 291.02306 348.50586 292.69727 C 345.16079 295.83981 344.2086 302.32188 346.72266 304.83594 C 349.30281 307.41609 345.72769 311.18493 338.79883 313.18945 C 327.1055 316.57233 315.40139 317.83412 303.02344 317.04883 C 293.22257 316.42703 289.28074 316.74619 281.8418 318.75586 L 272.70117 321.22461 L 271.5293 318.14062 C 270.88447 316.44457 270.35742 314.53142 270.35742 313.88867 C 270.35742 311.12165 267.74282 313.07215 266.0625 317.09375 C 264.17736 321.60551 262.04099 322.34873 257.23242 320.16406 C 241.40712 312.97417 226.48929 307.57552 217.5332 305.79688 C 211.52352 304.60336 206.60742 303.22593 206.60742 302.73633 C 206.60742 301.68928 221.26846 281.82744 222.68945 280.94922 C 223.22295 280.6195 225.39126 281.4023 227.50781 282.68945 C 230.42506 284.46354 231.56426 286.26269 232.2168 290.125 C 232.69022 292.92723 233.46843 295.21875 233.94727 295.21875 C 234.4261 295.21875 235.81414 293.53305 237.03125 291.47266 C 238.7187 288.61603 240.46019 287.53263 244.36523 286.9082 L 249.48633 286.08984 L 245.53516 282.8418 C 242.33321 280.20986 241.58656 278.6761 241.5957 274.75 L 241.60742 269.90625 L 251.91992 270.53516 C 264.8188 271.32285 273.72105 274.27404 284.03906 281.18164 L 292.09766 286.57617 L 295.55273 284.02344 C 299.82834 280.86234 300.65847 280.84996 303.42969 283.91211 C 305.27373 285.94973 305.41296 287.00708 304.26953 290.28711 C 303.04143 293.81003 303.12581 294.12499 305.06641 293.30859 C 309.69204 291.36262 312.44599 291.34348 314.02344 293.24414 C 316.59736 296.34553 318.13424 295.57583 317.26562 291.62109 C 316.61147 288.64269 317.07824 287.58288 319.97852 285.46094 C 323.26652 283.05533 323.32873 282.84855 320.98242 282.09375 C 316.10168 280.52364 314.72689 279.30424 314.35352 276.21289 C 314.02997 273.53396 314.83957 272.71517 319.97852 270.52539 C 327.10581 267.48835 340.36207 263.39418 346.91992 262.20508 C 348.49121 261.92016 349.54292 261.77007 350.24414 261.81445 z M 234.29883 271.46875 C 236.9191 271.46875 237.34649 273.97969 235.10742 276.21875 C 233.56469 277.76149 226.60742 278.34175 226.60742 276.92773 C 226.60742 275.33568 232.05581 271.46875 234.29883 271.46875 z M 308.55469 276.87695 C 308.88733 276.89659 309.10742 277.14258 309.10742 277.57227 C 309.10742 278.25977 308.54492 279.16885 307.85742 279.59375 C 307.16992 280.01865 306.60742 279.80469 306.60742 279.11719 C 306.60742 278.42969 307.16992 277.51865 307.85742 277.09375 C 308.11523 276.93441 308.3551 276.86517 308.55469 276.87695 z M 205.04492 312.72266 C 205.56055 312.72466 210.97093 313.59947 217.06836 314.66602 C 224.75782 316.01105 232.51341 318.58218 242.38086 323.05469 C 250.20531 326.6012 256.60742 329.88255 256.60742 330.34766 C 256.60742 330.81277 254.07617 331.94004 250.98242 332.85352 C 247.88867 333.76699 245.35742 334.88765 245.35742 335.34375 C 245.35742 335.79984 249.14333 337.50658 253.77148 339.13477 L 262.1875 342.09375 L 265.29883 350.53125 C 267.00994 355.17188 268.73631 358.96875 269.13672 358.96875 C 269.53714 358.96875 271.11979 355.07114 272.6543 350.30664 L 275.44531 341.64453 L 283.52539 338.95508 C 287.96995 337.47603 291.60742 335.79486 291.60742 335.2207 C 291.60742 334.64655 289.25195 333.39323 286.37305 332.43359 C 274.21557 328.3811 282.96824 325.24574 306.00781 325.40039 C 317.269 325.47599 324.58649 324.88945 329.92969 323.48438 C 342.29992 320.23143 343.19541 321.36946 342.59961 339.58203 C 342.23561 350.7093 342.19589 350.8342 338.48242 352.54883 C 336.41992 353.50116 333.04492 355.82997 330.98242 357.72266 C 327.6042 360.82272 326.05512 361.23587 315.35742 361.89062 C 308.82617 362.29037 298.98242 363.77771 293.48242 365.19727 C 284.44485 367.52989 260.33204 369.68826 257.23242 368.44141 C 256.54492 368.16486 254.43555 367.59667 252.54492 367.17969 C 250.6543 366.7627 249.10742 365.64966 249.10742 364.70508 C 249.10742 362.53995 246.36672 361.46875 240.82031 361.46875 C 237.78876 361.46875 235.60562 360.51799 233.55078 358.30078 C 231.43593 356.01882 228.82998 354.921 224.23633 354.37695 C 218.4914 353.69655 208.82767 348.89499 203.02734 343.83984 C 200.36507 341.51959 203.92195 340.18482 211.82031 340.54102 C 217.25449 340.78609 219.09875 340.32399 221.45703 338.12695 C 224.89412 334.92487 224.04505 332.73523 219.3457 332.67969 C 217.49565 332.65779 214.89117 331.81407 213.55664 330.80469 C 212.22212 329.7953 209.65712 328.96875 207.85742 328.96875 C 206.05772 328.96875 203.49272 328.13538 202.1582 327.11719 C 200.05801 325.51484 199.98451 325.09765 201.60742 324.01172 C 202.63867 323.32168 204.74805 322.7488 206.29492 322.73828 C 209.77106 322.71468 209.87179 321.29795 206.60742 318.34375 C 204.1507 316.12045 203.20405 312.71482 205.04492 312.72266 z M 398.60547 316.44922 C 410.75268 316.53993 422.5523 319.1905 431.46094 324.01562 C 435.22269 326.05307 439.88967 327.71875 441.83008 327.71875 C 449.01347 327.71875 444.99384 333.65077 436.3125 335.86133 L 431.33984 337.12695 L 436.10938 340.23633 C 439.96258 342.74687 440.96544 344.22141 441.31641 347.9043 L 441.75 352.46484 L 435.11719 353.32812 C 429.46091 354.06345 401.12046 360.32223 395.34766 362.11133 C 394.23947 362.45478 392.05745 360.93477 390.05078 358.41992 C 388.17407 356.06789 384.66301 353.42795 382.24805 352.55469 L 377.85742 350.9668 L 377.85742 337.7168 C 377.85742 320.96475 378.99643 318.24647 386.4375 317.22656 C 390.46948 316.67391 394.5564 316.41898 398.60547 316.44922 z M 449.10742 326.14648 L 458.16992 327.00586 C 468.90072 328.02276 476.18491 329.77494 477.32227 331.61523 C 478.58263 333.65453 469.58222 342.12243 461.74609 346.26758 C 454.36579 350.1716 445.98078 352.92607 444.86719 351.8125 C 444.50451 351.4498 445.04297 349.53587 446.06445 347.56055 C 447.55984 344.66878 448.75407 343.96875 452.19141 343.96875 C 458.16051 343.96875 458.63257 342.15275 453.49023 338.97461 C 449.64786 336.59989 449.10742 335.64079 449.10742 331.20508 L 449.10742 326.14648 z M 359.76562 327.71875 C 363.14976 327.71875 364.59952 331.06994 363.89258 337.25586 C 363.56933 340.0844 362.77725 340.92687 360.15234 341.23047 C 357.65389 341.51944 356.60917 340.94524 355.9707 338.93359 C 355.50264 337.45885 355.47966 334.3328 355.91992 331.98633 C 356.57057 328.51805 357.29059 327.71875 359.76562 327.71875 z M 487.9375 334.73828 L 494.46094 337.94141 C 501.6209 341.45705 514.10742 350.84035 514.10742 352.70508 C 514.10742 355.43843 507.94553 356.76723 494.54883 356.92578 C 486.28229 357.02368 480.23355 357.61516 480.04883 358.34375 C 479.87453 359.03125 480.99805 359.77445 482.54492 359.99414 C 485.27622 360.38205 486.61635 362.71875 484.10742 362.71875 C 483.41992 362.71875 482.85742 363.5625 482.85742 364.59375 C 482.85742 365.77323 484.04696 366.46875 486.06445 366.46875 C 487.8284 366.46875 490.50027 367.16648 492.00195 368.01758 C 494.32942 369.33672 500.68887 369.79949 522.85742 370.26562 C 524.57617 370.30172 526.93284 370.16552 528.0957 369.96289 C 531.87289 369.30465 531.08985 371.89246 526.74219 374.43164 C 520.51742 378.06709 485.04439 379.81381 477.40625 376.86133 C 471.0475 374.4034 457.85742 373.19111 457.85742 375.06445 C 457.85742 375.78883 458.98242 376.98288 460.35742 377.71875 C 461.73242 378.45463 462.85742 379.8816 462.85742 380.88867 C 462.85742 381.89573 463.94877 382.71875 465.2832 382.71875 C 469.5844 382.71875 469.26005 384.97445 464.74414 386.46484 C 460.70457 387.79802 458.6818 390.21875 461.60742 390.21875 C 462.29492 390.21875 462.85742 390.78125 462.85742 391.46875 C 462.85742 394.49705 457.75539 392.26401 453.07422 387.18555 L 447.97266 381.65039 L 450.94727 374.06055 C 452.5833 369.88589 453.38192 366.46875 452.72266 366.46875 C 452.06338 366.46875 448.69508 367.90261 445.23828 369.6543 C 441.78147 371.406 437.96179 372.52522 436.75 372.14062 C 434.2971 371.3621 427.11138 364.28913 427.94922 363.47852 C 428.24286 363.19443 433.82617 362.34402 440.35742 361.58789 C 456.03509 359.77292 469.27204 353.40374 480.31055 342.36523 L 487.9375 334.73828 z M 423.13086 365.42578 C 423.36788 365.43335 423.51629 365.4616 423.56836 365.51367 C 423.98491 365.93022 424.58537 369.55115 424.90234 373.55859 L 425.47852 380.84375 L 418.29492 385.76172 C 411.46684 390.43468 411.26055 390.72521 414.16992 391.60156 C 415.85365 392.10873 419.87219 392.87828 423.09961 393.3125 C 428.9616 394.10118 428.97119 394.10861 430.96094 400.95312 C 433.26217 408.86908 432.80944 410.21875 427.85742 410.21875 C 420.38281 410.21875 421.84944 415.28366 430.60938 419.72266 C 437.27537 423.10058 437.34071 425.38693 430.82031 427.02344 C 426.02907 428.22597 429.39588 431.46875 435.43555 431.46875 C 441.25943 431.46875 442.35379 432.918 439.64844 437.04688 C 437.06269 440.99322 438.55985 441.80162 447.39844 441.23438 C 453.75504 440.82641 454.38389 441.54749 452.23633 446.78125 C 450.9853 449.83008 455.30072 449.68619 461.60742 446.46875 C 468.76517 442.81714 470.35742 443.15834 470.35742 448.34375 C 470.35742 450.75 470.84089 452.71875 471.43164 452.71875 C 472.02239 452.71875 474.97552 450.75699 477.99414 448.35742 C 483.78633 443.75307 487.85742 442.71463 487.85742 445.84375 C 487.85742 449.24026 491.35777 447.81056 498.64062 441.4375 C 506.26493 434.76565 518.08817 429.95146 520.62305 432.48633 C 522.48712 434.35041 521.25613 435.65165 511.63477 441.99023 C 506.84501 445.14575 501.64603 449.47324 500.08008 451.60742 C 498.1653 454.21702 492.32025 457.94356 482.23242 462.98633 C 473.98242 467.11039 464.41992 472.61229 460.98242 475.21289 C 455.74479 479.17535 444.16032 484.89246 436.60742 487.24219 C 435.46542 487.59746 431.18208 484.24391 425.65234 478.66406 C 418.59109 471.53881 416.90764 469.16854 418.07422 468.00195 C 419.24081 466.83536 418.98501 465.87416 416.92383 463.67383 C 413.343 459.85132 411.60742 454.88006 411.60742 448.44922 C 411.60742 445.50282 410.95183 441.21109 410.15039 438.91211 C 409.04087 435.72931 409.04087 434.61593 410.15039 434.24609 C 411.75079 433.71261 412.05711 427.77778 410.80664 421.52539 C 410.18297 418.4071 409.49055 417.65391 407.68164 418.12695 C 406.40352 418.46118 403.38864 418.1316 400.98242 417.39258 L 396.60742 416.05078 L 396.60742 401.66992 C 396.60742 390.39756 397.0282 386.82562 398.55664 385.13672 C 400.33979 383.16636 400.22534 382.70191 397.22266 379.69922 C 395.22339 377.69996 394.09483 375.3528 394.33594 373.69727 C 394.68286 371.31528 396.47061 370.59269 408.77148 367.86719 C 415.5281 366.37012 421.47171 365.37282 423.13086 365.42578 z M 320.16016 370.41797 C 321.54131 370.43197 322.6469 370.5238 323.37695 370.70703 C 327.73172 371.80001 327.58269 375.68684 323.00977 380.25977 C 319.49062 383.77892 319.46351 383.90395 321.79688 386.01562 C 323.92428 387.9409 324.14433 389.73017 323.83203 402.54688 L 323.48242 416.91797 L 319.73242 418.05859 C 317.66992 418.68597 314.7168 419.15535 313.16992 419.09961 C 310.53542 419.00471 310.35742 419.50383 310.35742 427.00391 C 310.35742 431.90013 310.91311 435.19694 311.78711 435.48828 C 312.83525 435.83765 312.85174 436.64282 311.85156 438.51172 C 311.10142 439.91334 310.12921 444.9501 309.69141 449.70312 C 308.91979 458.08026 306.72244 463.5459 303.30664 465.58203 C 302.00901 466.35553 301.96709 467.07952 303.11523 468.91797 C 304.26135 470.75322 304.21112 471.71239 302.88477 473.31055 C 299.4542 477.44414 297.42004 477.41558 290.41211 473.13477 C 286.66128 470.84356 282.34918 468.96875 280.82812 468.96875 C 276.41877 468.96875 274.10742 467.63427 274.10742 465.08594 C 274.10742 463.78451 273.9668 462.69118 273.79492 462.65625 C 273.62305 462.62125 270.95117 462.28227 267.85742 461.9043 C 264.76367 461.52635 261.10742 460.20865 259.73242 458.97461 C 258.35742 457.74056 254.2793 456.33749 250.66992 455.85742 C 243.59167 454.91594 242.16552 453.25373 247.32422 451.95898 C 249.61484 451.38407 250.15457 450.7659 249.19922 449.81055 C 247.16308 447.77441 247.58611 446.46875 250.2832 446.46875 C 251.61762 446.46875 253.0869 445.85873 253.54883 445.11133 C 255.57494 441.833 252.65499 441.20396 216.49219 437.14648 C 202.94665 435.62666 199.28257 434.70298 190.21484 430.51367 C 180.43309 425.99449 170.35742 418.8439 170.35742 416.42188 C 170.35742 415.85035 170.90176 413.95131 171.56641 412.20312 L 172.77344 409.02539 L 183.12695 416.44141 C 194.66715 424.70746 207.07381 429.47494 217.23242 429.54883 C 222.77856 429.58923 223.52641 429.27701 223.88086 426.78125 C 224.3511 423.47024 225.72401 423.32694 232.85742 425.84375 C 235.95461 426.9365 242.52746 427.71875 248.61133 427.71875 C 258.24783 427.71875 259.20107 427.95041 261.01367 430.7168 C 263.41072 434.37515 274.30615 439.25984 278.88672 438.73047 C 281.84613 438.38844 282.18698 437.87455 281.83984 434.28125 L 281.44727 430.21875 L 287.77734 430.21875 C 294.41867 430.21875 295.87196 428.75081 291.53125 426.42773 C 288.65109 424.88631 288.93162 421.90957 291.9082 422.42969 C 292.96268 422.61394 295.30917 422.20062 297.12109 421.51172 C 299.84398 420.47648 300.2774 419.7146 299.625 417.11523 C 299.04917 414.821 299.33406 413.96875 300.67773 413.96875 C 302.8729 413.96875 309.10742 409.28022 309.10742 407.62891 C 309.10742 406.99131 304.43305 406.46875 298.7207 406.46875 C 292.37465 406.46875 287.5108 405.86096 286.2168 404.90625 C 284.22909 403.43973 284.23422 403.07503 286.29102 398.96875 C 287.95157 395.65355 289.61792 394.31301 293.16992 393.43555 C 298.19613 392.19392 299.2088 390.57469 295.66992 389.4375 C 287.99186 386.97021 286.64187 385.98416 285.27734 381.84961 C 284.45859 379.36881 284.30761 377.01857 284.92773 376.39844 C 287.32138 374.00479 310.49211 370.31996 320.16016 370.41797 z M 179.48633 373.2168 C 181.52928 373.00949 187.52796 378.03592 192.54492 384.27148 C 198.02921 391.08786 197.94766 392.6494 192.23242 390.25195 C 190.85742 389.67516 187.85543 388.49998 185.5625 387.64062 C 183.26958 386.78129 180.5977 385.28129 179.625 384.30859 C 177.58745 382.27104 177.23926 374.4984 179.13281 373.32812 C 179.23239 373.26658 179.35013 373.23062 179.48633 373.2168 z M 250.93555 375.44922 C 251.33688 375.41235 251.99491 375.58446 252.98633 375.90625 C 254.63387 376.44101 261.46084 376.83104 268.15625 376.77148 C 274.85167 376.71188 280.6099 377.11651 280.95312 377.67188 C 281.29634 378.22722 280.9545 380.46532 280.19531 382.64453 C 279.19798 385.50548 277.46567 387.14651 273.96094 388.54883 C 268.13146 390.88133 267.82196 392.23911 272.86914 393.34766 C 277.69684 394.40799 280.35742 397.10218 280.35742 400.93359 C 280.35742 403.69443 279.8764 403.9561 275.04492 403.82422 C 272.12305 403.74452 268.60742 403.4272 267.23242 403.11914 C 261.5485 401.84567 252.85561 398.71111 252.84766 397.93164 C 252.82756 395.96144 244.19915 391.46298 237.85742 390.11719 C 234.07617 389.31477 228.45117 387.3859 225.35742 385.83008 C 222.26367 384.27427 217.3418 382.28586 214.41992 381.41211 C 211.49805 380.53836 209.10742 379.38421 209.10742 378.84766 C 209.10742 378.3111 211.76171 377.47478 215.00586 376.98828 C 219.79891 376.26952 221.75983 376.59587 225.46875 378.73047 C 229.32245 380.94837 230.37879 381.10445 232.25781 379.73047 C 234.1112 378.37524 235.44444 378.46338 240.23242 380.26367 C 247.30006 382.92112 251.7863 381.80187 250.70117 377.65234 C 250.30903 376.15276 250.26665 375.51066 250.93555 375.44922 z M 359.68359 378.81055 C 367.74577 378.83475 375.90059 379.80512 381.83008 381.71484 C 386.51948 383.22516 390.35742 384.86241 390.35742 385.35156 C 390.35742 385.84071 386.8418 385.1293 382.54492 383.77148 C 371.41151 380.25329 347.68226 380.27967 337.54492 383.82227 C 333.5918 385.20372 330.35742 385.85494 330.35742 385.26758 C 330.35742 384.68023 333.84112 383.02211 338.09961 381.58398 C 343.65252 379.70874 351.62142 378.78634 359.68359 378.81055 z M 443.07812 395.02344 L 452.0293 395.82617 C 456.95302 396.26748 464.7888 396.67403 469.44141 396.73047 C 477.24324 396.82507 477.95738 397.0609 478.63867 399.77539 C 479.51268 403.25772 480.75006 403.38052 488.01172 400.70117 C 491.47353 399.42386 498.56161 398.54143 507.31836 398.29883 C 521.02505 397.91908 525.968 398.85817 523.46094 401.36523 C 521.90474 402.92143 509.50475 406.02069 500.35742 407.13867 C 496.57617 407.60082 490.46551 408.74901 486.7793 409.69141 C 481.58809 411.01859 478.00006 411.11597 470.86133 410.12305 C 464.49817 409.23802 460.18668 409.24617 456.9375 410.14844 C 452.2341 411.45461 446.03925 411.61616 440.59375 410.57617 L 440.59375 410.57812 C 436.23628 409.74595 435.99937 407.10169 439.71484 400.76172 L 443.07812 395.02344 z M 361.19727 395.16211 C 362.22754 395.20733 363.12101 395.71755 363.51562 396.78125 C 364.47904 399.37818 365.06725 406.98931 364.43359 408.65625 C 363.81374 410.28684 357.63911 410.83444 356.19141 409.38672 C 354.96469 408.16001 355.17673 402.10656 356.57617 398.42578 C 357.38202 396.30622 359.48014 395.08674 361.19727 395.16211 z M 398.24414 420.40234 C 399.20774 420.44259 400.73838 420.85988 403.16992 421.53516 C 407.23445 422.66393 407.85742 423.32667 407.85742 426.52734 C 407.85742 429.73004 407.40246 430.21463 404.41992 430.18164 C 402.5293 430.16074 399.99805 429.5699 398.79492 428.86914 C 397.49379 428.1113 396.60742 426.10176 396.60742 423.9082 C 396.60742 421.31783 396.63814 420.33527 398.24414 420.40234 z M 320.90039 421.46875 C 323.61628 421.46875 324.10742 422.03339 324.10742 425.14648 C 324.10742 427.1684 323.68555 429.06956 323.16992 429.37305 C 321.09252 430.59572 314.55571 431.50101 313.73438 430.67969 C 313.25189 430.1972 312.85742 428.50967 312.85742 426.92969 C 312.85742 423.6907 316.12979 421.46875 320.90039 421.46875 z M 334.22656 435.84375 C 335.29382 435.84375 336.13497 437.43691 336.37305 439.90625 C 336.66702 442.95504 336.26746 443.96875 334.77148 443.96875 C 333.67509 443.96875 332.52761 443.26563 332.2207 442.40625 C 331.24183 439.66541 332.41003 435.84375 334.22656 435.84375 z M 328.89453 436.59961 C 330.21671 436.52772 330.42341 437.3897 330.13281 440.41406 C 329.86029 443.25034 329.0077 444.71192 327.45703 445.00586 C 325.5673 445.36407 325.24991 444.73182 325.58203 441.27539 C 325.85455 438.43912 326.70714 436.97752 328.25781 436.68359 C 328.49403 436.63882 328.70565 436.60988 328.89453 436.59961 z M 390.80469 437.01758 C 392.30405 436.91991 392.85742 438.29781 392.85742 441.67773 C 392.85742 444.38605 392.26919 445.21875 390.35742 445.21875 C 388.43352 445.21875 387.85742 444.38644 387.85742 441.60352 C 387.85742 439.61457 388.64535 437.68439 389.60938 437.31445 C 390.06089 437.14119 390.45868 437.04012 390.80469 437.01758 z M 362.68164 437.17773 C 363.33774 437.04932 364.80303 437.86229 366.20117 439.17578 C 369.4791 442.25523 370.04836 447.88213 367.31055 450.1543 C 365.84615 451.36965 365.15181 450.9463 363.56055 447.86914 C 361.5325 443.94732 360.98725 438.75493 362.45117 437.29102 C 362.50925 437.23294 362.58791 437.19608 362.68164 437.17773 z M 357.04883 437.95117 C 357.51846 437.91865 358.01789 437.99307 358.54492 438.19531 C 359.62849 438.61112 360.18873 439.48026 359.78906 440.12695 C 359.38938 440.77364 359.90784 443.73169 360.94141 446.69922 C 361.97501 449.66677 362.82982 452.51563 362.83984 453.03125 C 362.87134 454.65683 358.52738 454.0495 355.63477 452.02344 C 350.83611 448.66231 352.50901 438.26554 357.04883 437.95117 z M 396.57031 438.02344 C 398.28051 438.15003 400.00258 440.47272 399.87305 443.02539 C 399.7343 445.75991 396.70826 447.40357 394.98438 445.67969 C 393.64425 444.33957 393.9413 439.21957 395.41211 438.31055 C 395.78267 438.08153 396.17565 437.99422 396.57031 438.02344 z M 336.05664 446.58984 C 337.72383 446.47795 337.94142 447.14483 337.63672 449.79688 C 337.24395 453.21562 333.84254 455.32481 332.42383 453.0293 C 330.96769 450.6732 332.56858 447.07887 335.25 446.68359 C 335.55 446.63937 335.81847 446.60583 336.05664 446.58984 z M 389.62305 447.68555 C 390.85178 447.59837 392.32067 449.28976 392.62305 452.41797 C 393.00839 456.40443 392.52262 456.89259 389.41992 455.64062 C 388.56055 455.29386 387.85742 453.32906 387.85742 451.27344 C 387.85742 448.89681 388.66736 447.75335 389.62305 447.68555 z M 327.85742 447.71875 C 329.78132 447.71875 330.35742 448.55302 330.35742 451.33594 C 330.35742 453.48039 329.55336 455.26102 328.38086 455.71094 C 325.40373 456.85338 325.35742 456.79785 325.35742 452.09375 C 325.35742 448.55209 325.83361 447.71875 327.85742 447.71875 z M 397.20508 449.23438 C 398.51037 449.19247 399.83755 450.36289 400.15039 452.56445 C 400.71593 456.54419 398.88198 458.1195 396.07422 456.06641 C 394.45931 454.88556 394.05692 453.59586 394.68555 451.61523 C 395.18794 450.03231 396.18985 449.26697 397.20508 449.23438 z M 360.37109 463.17969 C 379.27593 463.18551 398.17565 463.80407 399.35742 465.0332 C 400.71907 466.44948 399.86964 466.55064 394.10742 465.6582 C 385.27291 464.28994 335.6042 464.27281 326.60742 465.63477 C 320.88909 466.5004 320.0054 466.39525 321.35742 465.00977 C 322.5562 463.78133 341.46626 463.17386 360.37109 463.17969 z M 556.7207 464.53516 C 557.61079 464.53634 558.31161 464.72688 558.89258 465.08594 C 560.57243 466.12414 564.10598 484.81433 574.75586 548.96875 C 581.13025 587.3678 585.17241 607.66731 589.92773 625.16602 C 594.52957 642.09994 603.23428 667.02946 609.07812 680.00781 C 611.84363 686.14964 614.10742 691.8037 614.10742 692.57227 C 614.10742 694.4117 609.56019 694.1936 604.10742 692.09375 C 601.70117 691.16711 595.51367 690.36065 590.35742 690.30078 C 585.20117 690.24088 578.88668 689.84515 576.32617 689.42188 C 572.42662 688.77724 571.75297 688.22122 572.17188 685.99805 C 572.44692 684.53827 572.71258 682.92188 572.76367 682.40625 C 572.81477 681.89063 573.91612 681.46875 575.21094 681.46875 C 579.25689 681.46875 579.2747 676.8294 575.24414 672.79883 C 571.11434 668.66903 570.72336 665.55425 573.62891 659.93555 C 575.49137 656.33394 575.49137 655.90873 573.62891 654.54688 C 571.01662 652.63672 571.02737 648.16798 573.64844 646.70117 C 574.96911 645.96208 575.90972 643.28987 576.30859 639.13867 L 576.92578 632.71875 L 571.76562 632.71875 C 568.1414 632.71875 566.60742 632.19077 566.60742 630.94336 C 566.60742 629.96673 564.91992 628.79675 562.85742 628.34375 C 559.45305 627.59603 557.38032 623.96875 560.35742 623.96875 C 562.61916 623.96875 561.66076 621.77514 559.10742 621.10742 C 556.4875 620.4223 555.71476 617.16799 557.85742 615.84375 C 559.84167 614.61741 559.30748 611.46875 557.11523 611.46875 C 556.01962 611.46875 554.82185 610.31625 554.45312 608.90625 C 553.8416 606.5678 553.57227 606.68799 551.39062 610.27539 C 549.53102 613.33325 549.32404 614.59772 550.45703 615.96289 C 552.14566 617.99756 550.01471 621.46875 547.07812 621.46875 C 546.13105 621.46875 545.35742 622.03125 545.35742 622.71875 C 545.35742 623.40625 546.2474 623.96875 547.33594 623.96875 C 551.37279 623.96875 548.12132 627.10856 543.69727 627.48242 L 539.10742 627.87109 L 539.10742 618.66992 C 539.10742 613.60966 539.61209 608.93438 540.22852 608.28125 C 540.91149 607.5576 533.86206 599.10278 522.18359 586.63477 C 505.36649 568.68073 503.19661 565.89132 504.4668 563.85742 C 505.6877 561.90245 505.23609 560.80087 501.57422 556.82227 C 488.63229 542.76096 476.7657 530.21663 461.0332 513.96875 C 445.26945 497.6886 443.8005 495.80787 446.60742 495.48047 C 448.32617 495.28 450.85742 494.65961 452.23242 494.10352 C 456.90571 492.21351 463.47291 489.96733 466.11523 489.35547 C 468.25394 488.86022 468.89437 489.47189 469.52148 492.60742 C 470.41116 497.05581 472.24444 497.47353 475.90234 494.0625 C 479.7255 490.49735 481.90809 490.43896 482.78125 493.87695 C 483.93051 498.40207 485.67106 498.28719 492.26758 493.25195 C 497.65242 489.14162 498.79781 488.75894 503.69141 489.42969 C 508.86131 490.1383 509.46151 489.87335 515.8457 484.0918 C 519.53948 480.7467 524.73717 477.30436 527.39648 476.44141 C 530.05578 475.57845 536.45117 472.78141 541.60742 470.22656 C 549.66446 466.23442 554.05045 464.53162 556.7207 464.53516 z M 200.48633 467.99023 C 201.58822 467.77963 207.09728 471.02442 212.73047 475.20117 C 218.36365 479.37792 223.51047 482.46374 224.16602 482.05859 C 224.82157 481.65345 225.35742 479.7001 225.35742 477.71875 C 225.35742 475.7374 225.903 473.77961 226.57031 473.36719 C 227.97324 472.50013 233.68921 475.25309 241.30469 480.46289 C 247.01484 484.36923 248.60828 484.19313 250.4082 479.45898 L 251.55664 476.44141 L 257.71484 479.88086 C 263.71935 483.23329 263.93708 483.26135 266.41211 481.02148 C 268.60188 479.03977 269.55313 478.92345 273.3418 480.17383 C 276.57367 481.24044 278.41825 481.25822 280.32031 480.24023 C 282.35084 479.15352 283.70375 479.32755 286.63086 481.05664 C 288.68033 482.26729 290.35742 483.85017 290.35742 484.57422 C 290.35742 485.29826 284.68251 491.50509 277.74609 498.36719 C 266.43136 509.56069 238.16238 539.85582 222.57227 557.49414 C 217.51098 563.22039 216.89854 564.47122 218.16797 566.50391 C 219.38127 568.44673 219.17872 569.36995 217.02344 571.72852 C 189.92343 601.38478 182.88483 609.73398 183.54688 611.43164 C 184.47664 613.81583 184.43185 613.11831 184.25586 622.40625 C 184.1009 630.58489 183.05101 631.65477 177.33398 629.46094 C 174.82572 628.49844 174.75706 626.46875 177.23242 626.46875 C 180.27221 626.46875 179.37549 624.30668 175.98242 623.45508 C 172.66129 622.62153 171.60589 618.44914 174.41992 617.27734 C 175.59265 616.78901 175.4947 616.21799 174.0293 614.98633 C 172.95544 614.08376 171.59202 612.21875 170.99805 610.84375 C 169.95552 608.43041 169.90073 608.44124 169.42578 611.15625 C 169.15517 612.70313 168.54984 613.97775 168.08203 613.98828 C 167.61421 613.99828 166.43767 614.51043 165.4668 615.125 C 163.9705 616.07219 164.01038 616.5514 165.72656 618.26758 C 168.18162 620.72264 167.30795 623.57832 163.75781 624.70508 C 161.35318 625.46828 161.31137 625.66201 163.24805 627.07812 C 166.24867 629.27224 165.90111 630.00758 161.29492 631.20117 C 159.06055 631.78014 157.22803 633.06128 157.22266 634.04883 C 157.21666 635.09006 155.90418 635.90187 154.09766 635.98047 C 146.70124 636.30228 146.94101 636.05644 147.88867 642.30078 C 148.37549 645.50859 149.69349 648.80585 150.81641 649.62695 C 153.40226 651.51777 153.47585 657.21364 150.92773 658.19141 C 149.36345 658.79169 149.27045 659.44044 150.4375 661.62109 C 151.229 663.10002 152.08554 666.47115 152.33984 669.11133 C 152.70523 672.90476 152.28396 674.18867 150.33008 675.23438 C 148.97023 675.96218 147.85742 677.3816 147.85742 678.38867 C 147.85742 679.39573 147.20812 680.21875 146.41406 680.21875 C 145.59532 680.21875 145.94939 681.30101 147.23242 682.71875 C 148.47679 684.09375 150.25108 685.21875 151.17578 685.21875 C 152.19251 685.21875 152.85742 686.63336 152.85742 688.79688 C 152.85742 692.168 152.44269 692.44989 145.66992 693.67578 C 136.43241 695.34781 114.13721 700.06875 111.29492 700.95508 C 110.0918 701.33027 109.10742 701.11877 109.10742 700.48438 C 109.10742 699.84998 111.67629 693.4842 114.81641 686.33789 C 127.05121 658.49382 137.96435 620.09211 142.92773 587.41602 C 147.6167 556.54646 160.37687 475.86074 161.01758 473.03125 C 161.8627 469.29918 164.57787 469.46806 167.16211 473.41211 C 169.52546 477.01905 173.52124 478.88914 176.95117 477.99219 C 178.75331 477.52092 179.17791 476.4151 178.87305 472.98438 C 178.31982 466.75889 180.54879 466.69289 187.10938 472.74023 C 193.84952 478.95308 196.96204 478.94581 197.85742 472.71875 C 198.23825 470.07029 199.2656 468.22353 200.48633 467.99023 z M 332.90625 472.63477 C 333.09764 472.65099 333.29895 472.74428 333.4668 472.91211 C 333.80251 473.24783 331.22466 479.95159 327.73828 487.80859 C 324.25189 495.66559 315.55848 515.75438 308.41797 532.44922 C 295.16593 563.43313 292.96143 568.15353 292.89453 565.70312 C 292.84503 563.89073 330.77961 474.73254 332.41211 472.82422 C 332.53464 472.68099 332.71486 472.61854 332.90625 472.63477 z M 388.45703 472.99805 C 388.94906 472.95924 390.37318 475.30176 391.75391 478.46289 C 393.22669 481.83476 399.63396 496.125 405.99219 510.21875 C 426.26235 555.14998 430.62754 565.3666 429.875 566.11914 C 429.47064 566.5235 427.67413 563.53341 425.88281 559.47461 C 424.0915 555.4158 416.56696 538.59375 409.16211 522.09375 C 389.36209 477.97398 387.59713 473.81107 388.37109 473.03711 C 388.39532 473.01288 388.42423 473.00063 388.45703 472.99805 z M 466.60742 563.96875 C 483.27409 563.96875 492.85742 564.4251 492.85742 565.21875 C 492.85742 566.0124 483.27409 566.46875 466.60742 566.46875 C 449.94076 566.46875 440.35742 566.0124 440.35742 565.21875 C 440.35742 564.4251 449.94076 563.96875 466.60742 563.96875 z M 409.89648 564.03906 C 417.36573 564.03015 420.35742 564.34 420.35742 564.99609 C 420.35742 566.63215 304.29325 567.78235 303.28906 566.15625 C 302.97065 565.64063 316.102 565.21837 332.4707 565.2168 C 348.8394 565.2158 375.31055 564.84455 391.29492 564.39258 C 399.32177 564.16561 405.41494 564.04441 409.89648 564.03906 z M 265.95312 566.17578 C 275.44323 566.1561 282.86016 566.35352 282.85938 566.78125 C 282.85843 567.29687 270.9043 567.61241 256.29492 567.48242 C 241.68555 567.35242 232.82617 567.07985 236.60742 566.87695 C 244.89953 566.43204 256.46302 566.19546 265.95312 566.17578 z M 502.98047 577.71875 C 503.6003 577.71875 504.10742 584.66516 504.10742 593.1543 L 504.10742 608.58984 L 516.43555 607.99609 C 524.82322 607.5922 529.04237 607.85202 529.63477 608.81055 C 530.25969 609.82169 526.77959 610.21875 517.30664 610.21875 L 504.10742 610.21875 L 504.10742 634.39844 C 504.10742 647.69675 504.47442 665.4155 504.92383 673.77344 L 505.74219 688.96875 L 518.98633 689.18359 L 532.23242 689.39844 L 515.98242 690.23047 C 502.52569 690.92 495.75739 692.07027 476.60742 696.92383 C 463.88867 700.14739 452.49805 703.08901 451.29492 703.46094 C 450.0918 703.83288 449.10742 703.66409 449.10742 703.08594 C 449.10742 702.50779 461.28507 699.01153 476.16992 695.31641 L 503.23438 688.59961 L 502.54297 633.1582 C 502.13702 600.55657 502.31776 577.71875 502.98047 577.71875 z M 221.44531 579.49414 C 222.04381 579.86403 222.42513 601.4133 222.29297 627.38086 C 222.00457 684.04699 222.44939 691.89079 225.98242 692.50586 C 231.75284 693.51042 275.96329 704.15859 276.4707 704.66602 C 278.17067 706.36598 273.63139 705.52445 250.98242 699.94336 C 231.34117 695.10344 222.63321 693.58054 210.35742 692.83789 L 194.73242 691.89258 L 207.54492 691.68164 L 220.35742 691.46875 L 220.35742 652.09375 L 220.35742 612.71875 L 207.23242 612.71875 C 199.31576 612.71875 194.10742 612.22271 194.10742 611.46875 C 194.10742 610.71479 199.31576 610.21875 207.23242 610.21875 L 220.35742 610.21875 L 220.35742 594.52148 C 220.35742 585.88715 220.84682 579.12424 221.44531 579.49414 z M 475.01367 586.51562 C 475.77596 586.56694 476.67725 587.03857 477.60742 587.96875 C 480.0879 590.44923 479.31149 592.71875 475.98242 592.71875 C 473.48242 592.71875 472.85742 592.09375 472.85742 589.59375 C 472.85742 587.51309 473.74319 586.4301 475.01367 586.51562 z M 469.70898 586.7793 C 469.81316 586.78806 469.9061 586.81565 469.98633 586.86523 C 470.69297 587.30196 470.99967 589.0793 470.66797 590.81445 C 470.2241 593.13644 469.27871 593.96875 467.08594 593.96875 C 465.44734 593.96875 464.10742 593.46875 464.10742 592.85742 C 464.10742 590.8872 468.14629 586.64788 469.70898 586.7793 z M 249.17773 587.71875 C 249.82625 587.71875 250.35742 589.40625 250.35742 591.46875 C 250.35742 594.34741 249.79411 595.21875 247.93164 595.21875 C 246.59721 595.21875 245.21307 594.7493 244.85742 594.17383 C 244.06907 592.89826 247.53555 587.71875 249.17773 587.71875 z M 254.11133 587.85547 C 254.78445 587.85492 255.7463 588.57737 257.03906 590.00586 C 259.99232 593.26917 259.59676 595.21875 255.98242 595.21875 C 253.34354 595.21875 252.85742 594.63541 252.85742 591.46875 C 252.85742 589.05013 253.24589 587.85618 254.11133 587.85547 z M 362.54883 587.87695 C 365.74097 587.87909 368.89292 588.19161 373.05469 588.81641 C 383.66976 590.41002 410.2309 596.64232 417.47852 599.24023 C 421.74289 600.76879 421.85744 602.71875 417.68359 602.71875 C 415.49387 602.71875 415.27162 603.25896 416.00586 606.78125 C 417.26291 612.81164 421.8262 621.4973 424.48438 622.91992 C 427.50802 624.53812 431.03744 621.50228 432.05664 616.40625 C 432.46211 614.37885 433.59902 612.71875 434.58203 612.71875 C 435.94567 612.71875 436.21089 613.90399 435.69922 617.71875 C 435.06392 622.45535 435.20207 622.71875 438.31836 622.71875 L 441.60742 622.71875 L 441.67969 634.28125 C 441.71919 640.64063 442.03792 659.80417 442.38867 676.86523 C 443.0837 710.67163 442.90109 711.71752 436.41992 710.96289 C 434.33597 710.72026 431.93731 711.31856 430.91992 712.33594 C 428.59931 714.65656 424.48378 713.37654 423.41211 710 C 422.59246 707.4175 424.85543 704.76156 426.83398 705.98438 C 427.36822 706.31454 428.92885 705.98359 430.30273 705.24805 C 433.09942 703.75131 433.01671 700.91263 429.62695 682.09375 C 428.63625 676.59375 427.61336 667.82582 427.35352 662.60938 C 426.85218 652.54464 424.77182 646.94618 419.39844 641.20117 C 416.77362 638.39481 416.49852 637.48281 417.79883 635.91602 C 419.00162 634.46676 419.95118 634.33375 421.8457 635.34766 C 425.78637 637.45665 426.32479 635.26865 422.54297 632.51367 C 420.6536 631.13736 419.10742 629.01969 419.10742 627.80859 C 419.10742 622.40829 409.94436 619.49508 404.92383 623.29883 C 403.65388 624.26099 401.82576 624.74509 400.86133 624.375 C 398.14801 623.3338 398.79194 625.66972 401.72266 627.5 C 403.5908 628.66666 404.13369 629.94395 403.625 631.9707 C 402.91118 634.8148 406.5555 640.21875 409.1875 640.21875 C 409.86587 640.21875 409.56257 641.87983 408.51367 643.9082 C 407.46477 645.93656 406.59841 648.32718 406.58789 649.2207 C 406.57789 650.11421 406.05816 651.65162 405.43359 652.63867 C 403.86368 655.11967 400.39336 652.22675 401.20703 649.11523 C 401.56121 647.76089 399.87906 644.26393 397.01562 640.40234 C 392.80696 634.72659 392.05001 634.2002 390.71484 636.01367 C 389.88026 637.14724 389.03651 638.50243 388.83984 639.02734 C 388.64318 639.55224 386.80561 640.17707 384.75586 640.41406 C 380.64739 640.88905 379.5071 638.77399 380.89453 633.24609 C 381.44274 631.06183 382.51743 630.21875 384.75586 630.21875 C 388.15984 630.21875 388.68252 629.04385 386.32617 626.6875 C 385.11791 625.47924 385.11791 624.63982 386.32617 622.70508 C 388.61705 619.03681 388.19792 617.71875 384.74219 617.71875 C 382.98154 617.71875 380.94903 616.63206 380.06641 615.21875 C 379.20771 613.84375 378.11642 612.71875 377.64062 612.71875 C 377.16483 612.71875 376.41884 613.84375 375.98242 615.21875 C 375.41822 616.9964 374.09036 617.71875 371.38867 617.71875 C 368.26037 617.71875 367.74877 618.10518 368.49023 619.90625 C 370.47948 624.73824 370.40964 626.03435 368.03906 628.17969 C 366.09171 629.94203 365.0288 630.13116 363.04297 629.06836 C 356.95868 625.81214 349.75046 628.19165 348.50391 633.86719 C 346.91933 641.08169 337.08236 643.12712 334.2168 636.83789 C 332.57802 633.24119 332.66328 633.18363 326.24219 642.35742 C 323.73518 645.93918 322.20334 649.1906 322.83984 649.58398 C 324.60573 650.67535 322.8633 653.96875 320.51953 653.96875 C 319.05365 653.96875 317.99409 652.05704 316.89258 647.41992 C 315.42233 641.23052 315.48657 640.75791 318.04492 638.82812 C 320.42805 637.03053 321.09169 635.21514 321.50391 629.36523 C 321.56121 628.55218 322.74002 627.52746 324.125 627.08789 C 325.50999 626.64831 326.30613 625.7441 325.89453 625.07812 C 325.48295 624.41215 324.09439 624.20127 322.80859 624.60938 C 321.52278 625.01747 319.04391 624.41687 317.29883 623.27344 C 311.98474 619.79152 304.10742 623.43935 304.10742 629.38281 C 304.10742 630.88709 302.98242 632.82099 301.60742 633.67969 C 297.92889 635.97697 298.42625 637.91579 302.31445 636.4375 C 306.36265 634.89838 306.21005 634.88104 307.03516 637.03125 C 307.4174 638.02734 306.21103 640.46846 304.35547 642.45703 C 299.5789 647.57594 296.5273 656.97072 296.75 665.86914 C 296.85288 669.98026 296.02215 678.96875 294.9043 685.84375 C 293.78643 692.71875 292.86928 700.17188 292.86523 702.40625 C 292.85923 706.0019 293.25245 706.47134 296.29492 706.48828 C 301.11925 706.51518 302.88547 707.96447 302.03906 711.20117 C 301.28139 714.09844 296.23314 715.14695 294.73242 712.71875 C 294.30752 712.03125 291.46137 711.46875 288.4082 711.46875 L 282.85742 711.46875 L 282.85742 667.09375 L 282.85742 622.71875 L 286.14648 622.71875 C 289.20673 622.71875 289.38529 622.41501 288.72461 618.34375 C 288.21131 615.18066 288.47563 613.96875 289.67773 613.96875 C 291.51415 613.96875 292.85742 616.64245 292.85742 620.29688 C 292.85742 621.78985 294.0225 622.9651 295.99805 623.46094 C 299.17701 624.2588 302.85742 622.32164 302.85742 619.85156 C 302.85742 619.13049 303.65094 617.65374 304.62109 616.56836 C 305.59125 615.48297 306.78076 611.92188 307.26367 608.65625 C 308.07514 603.16881 307.94167 602.71875 305.5 602.71875 C 292.97489 602.71875 327.86017 592.23463 351.80469 588.80273 C 356.12435 588.1836 359.35669 587.87482 362.54883 587.87695 z M 475.9082 595.21875 C 480.18357 595.21875 480.74555 596.88905 477.75 600.69727 C 474.26469 605.12813 472.85742 604.81046 472.85742 599.59375 C 472.85742 595.78863 473.25441 595.21875 475.9082 595.21875 z M 467.95508 595.41797 C 470.43977 595.3836 471.51518 597.90281 470.58789 601.78125 C 469.97206 604.35696 468.66356 604.57753 466.87891 602.40625 C 464.31244 599.28379 464.58861 595.8651 467.43945 595.45898 C 467.61744 595.43363 467.78943 595.42026 467.95508 595.41797 z M 246.3125 596.64648 C 246.50315 596.64812 246.70544 596.66485 246.91992 596.69531 C 249.07555 597.00146 249.82284 598.04256 250.12305 601.15625 C 250.56329 605.72225 249.23954 606.31901 246.17578 602.93359 C 243.28492 599.73922 243.45269 596.62197 246.3125 596.64648 z M 255.98242 597.71875 C 259.56969 597.71875 260.10805 600.29039 257.14258 603.25586 C 254.19675 606.2017 252.85742 605.64201 252.85742 601.46875 C 252.85742 598.30209 253.34354 597.71875 255.98242 597.71875 z M 430.02344 603.60352 C 430.99976 603.55716 432.45825 604.19373 435.35742 605.60547 C 439.17266 607.4633 441.10994 609.24863 441.38086 611.15625 C 441.83414 614.34781 439.76588 614.98791 438.62305 612.00977 C 438.13988 610.75063 436.68601 610.19257 434.55273 610.44727 C 431.01232 610.86997 429.68903 612.5379 428.5332 618.03125 C 427.72538 621.87061 426.40249 622.3597 424.15234 619.64844 C 422.95484 618.20554 423.05166 617.23762 424.62305 614.99414 C 425.71396 613.43664 426.60742 610.98906 426.60742 609.55469 C 426.60742 608.12031 427.31055 606.02852 428.16992 604.90625 C 428.79629 604.08827 429.26408 603.63957 430.02344 603.60352 z M 294.96484 604.48047 C 295.10709 604.4841 295.2154 604.50571 295.28516 604.54883 C 295.84325 604.89375 296.93144 607.68342 297.70312 610.74805 C 298.47479 613.81268 299.64488 616.65397 300.30273 617.06055 C 302.15869 618.2076 300.35393 621.46875 297.86328 621.46875 C 296.30912 621.46875 295.38911 620.15177 294.81836 617.10938 C 293.72162 611.26328 290.04805 609.28009 286.63672 612.69141 C 283.40731 615.92082 282.85742 615.86995 282.85742 612.34375 C 282.85742 610.16736 284.24595 608.7934 288.56445 606.69531 C 291.31073 605.36107 293.96914 604.45503 294.96484 604.48047 z M 421.68945 605.21875 C 423.75455 605.21875 424.19317 605.88938 423.87695 608.56055 C 423.48126 611.90301 421.58419 613.5295 419.9668 611.91211 C 419.49414 611.43945 419.10742 609.7409 419.10742 608.13672 C 419.10742 606.02215 419.81676 605.21875 421.68945 605.21875 z M 301.54688 605.34375 C 302.09119 605.30821 302.8596 605.65523 303.92773 606.33203 C 306.06286 607.6849 304.66072 612.71875 302.14844 612.71875 C 300.99204 612.71875 300.35742 611.39035 300.35742 608.96875 C 300.35742 606.5263 300.63968 605.40298 301.54688 605.34375 z M 475.74023 619.26953 C 476.41992 619.27137 477.18472 619.38066 477.86914 619.59766 C 479.9784 620.26711 480.35742 621.49688 480.35742 627.6582 C 480.35742 634.40188 480.13322 634.97061 477.26172 635.51953 C 475.55913 635.84501 473.87163 635.81692 473.51172 635.45703 C 472.30904 634.25436 472.84025 620.37828 474.11914 619.58789 C 474.46597 619.37354 475.06055 619.26769 475.74023 619.26953 z M 469.35742 620.21875 C 471.28911 620.21875 471.60742 621.3488 471.60742 628.19922 C 471.60742 635.69762 471.42078 636.21343 468.51172 636.76953 C 466.80913 637.095 465.12163 637.06691 464.76172 636.70703 C 463.45641 635.40172 464.14601 623.18016 465.60742 621.71875 C 466.43242 620.89375 468.11992 620.21875 469.35742 620.21875 z M 254.57812 621.46875 C 257.67179 621.46875 259.48471 625.18823 259.60938 631.79297 C 259.73275 638.33145 258.5025 639.84119 254.41992 638.15625 C 252.11235 637.20387 252.26145 621.46875 254.57812 621.46875 z M 247.8125 622.09375 C 250.53673 622.09375 250.91845 622.67203 251.11133 627.09375 C 251.4383 634.58878 250.42735 637.71875 247.68164 637.71875 C 246.35959 637.71875 244.98049 636.94477 244.61719 635.99805 C 244.25391 635.05132 244.1327 631.5357 244.3457 628.18555 C 244.69765 622.64986 245.01294 622.09375 247.8125 622.09375 z M 540.18945 630.56055 C 540.47943 630.56956 540.84211 630.68076 541.29492 630.87109 C 542.49805 631.37681 544.74805 632.06491 546.29492 632.40039 C 550.22189 633.25208 549.79911 634.73393 545.16992 636.34766 C 539.51781 638.318 539.10742 638.14736 539.10742 633.83594 C 539.10742 631.42414 539.31951 630.53349 540.18945 630.56055 z M 373.10547 630.68359 C 376.12174 630.59059 376.64628 634.67981 376.33594 646.25195 L 375.98242 659.41016 L 369.62305 659.78711 L 363.26562 660.16406 L 361.97852 654.87891 C 361.2702 651.97241 360.27443 648.60938 359.76562 647.40625 C 359.11102 645.85836 359.41442 645.21875 360.80469 645.21875 C 363.2202 645.21875 365.35742 641.4592 365.35742 637.20898 C 365.35742 634.92888 366.43983 633.47477 369.19727 632.04883 C 370.81806 631.21069 372.10004 630.71459 373.10547 630.68359 z M 183.00391 633.64258 C 184.07582 633.63328 184.10742 634.46871 184.10742 636.65625 C 184.10742 640.39959 182.93832 640.84635 178.16992 638.92969 C 174.21287 637.33915 174.66461 636.04714 179.73242 634.46094 C 181.34385 633.95657 182.36076 633.64816 183.00391 633.64258 z M 561.5625 634.11328 C 561.98169 634.1251 562.48497 634.34825 562.98633 634.84961 C 563.88406 635.74734 563.90652 636.44696 563.05273 636.97461 C 562.35283 637.40717 561.40346 637.1507 560.94336 636.40625 C 560.12677 635.08498 560.64029 634.08728 561.5625 634.11328 z M 570.99609 635.33594 C 572.77526 635.21557 572.94229 635.91555 572.63086 639.08789 C 572.20637 643.41174 570.78008 644.59297 568.06055 642.87109 C 565.3396 641.14833 566.7987 635.90574 570.13086 635.43359 C 570.4541 635.38779 570.74193 635.35313 570.99609 635.33594 z M 163.0957 636.46875 C 164.73869 636.46875 163.70839 639.31074 161.83984 639.93359 C 160.9264 640.23806 160.64807 639.66661 161.11523 638.44922 C 161.53301 637.36052 162.42447 636.46875 163.0957 636.46875 z M 477.39453 638.03125 C 480.3653 638.03125 480.45534 638.28828 480.09961 645.6875 C 479.77504 652.4384 479.41303 653.38993 477.03711 653.72852 C 475.55511 653.93971 474.11565 653.65852 473.83789 653.10352 C 473.56011 652.54857 473.55449 648.92969 473.82617 645.0625 C 474.2827 638.56081 474.55208 638.03125 477.39453 638.03125 z M 153.60938 639.11133 C 153.85063 639.12346 154.1194 639.15263 154.41992 639.19531 C 156.48007 639.4879 157.23242 640.4297 157.23242 642.71875 C 157.23242 645.0078 156.48007 645.95155 154.41992 646.24414 C 152.01574 646.58559 151.60742 646.07298 151.60742 642.71875 C 151.60742 639.78381 151.92061 639.02638 153.60938 639.11133 z M 468.65234 639.7207 C 471.39327 639.58338 471.81554 641.48258 471.36914 648.50391 C 471.01289 654.10731 470.70715 654.62638 467.54492 654.99023 C 464.13577 655.3825 464.10742 655.32325 464.10742 647.94727 C 464.10742 640.94616 464.29562 640.4746 467.33008 639.89453 C 467.82045 639.80079 468.26078 639.74032 468.65234 639.7207 z M 247.23242 640.21875 C 248.95117 640.21875 250.42984 640.64063 250.51758 641.15625 C 251.96982 649.69059 250.96691 655.21875 247.9668 655.21875 C 246.76101 655.21875 245.39974 654.84506 244.94141 654.38672 C 244.48307 653.9284 244.10742 650.5534 244.10742 646.88672 C 244.10742 640.60895 244.28971 640.21875 247.23242 640.21875 z M 349.85156 641.48633 C 350.91622 641.46451 351.72904 641.90636 352.28906 642.8125 C 352.74541 643.55089 352.00138 645.37901 350.63477 646.875 C 345.12948 652.90145 338.06478 673.08121 340.45312 675.95898 C 341.20634 676.86655 341.53354 678.07786 341.17969 678.65039 C 340.82585 679.22293 339.89512 686.64417 339.11328 695.14258 C 337.58159 711.79163 337.81386 712.66046 343.79492 712.70117 C 346.62091 712.72037 347.28166 714.50527 345.84766 718.24219 C 345.26648 719.75673 343.24015 720.21875 337.18555 720.21875 C 329.94017 720.21875 329.247 719.98429 328.88086 717.40625 C 328.55306 715.09819 327.58565 714.53181 323.48242 714.24219 C 313.53406 713.53997 305.39877 706.46875 314.53906 706.46875 C 321.33483 706.46875 323.30422 703.18877 322.19141 693.72656 C 321.68159 689.39143 321.13256 683.875 320.9707 681.46875 C 320.80884 679.0625 320.2617 674.43154 319.75391 671.17773 C 318.86399 665.47531 318.97027 665.18193 322.71094 663.05273 C 325.24107 661.61256 326.59446 659.86489 326.59961 658.03125 C 326.60561 655.98525 327.34285 655.21875 329.30664 655.21875 C 330.87174 655.21875 335.034 652.32974 339.21289 648.34375 C 343.95137 643.82401 347.50931 641.53432 349.85156 641.48633 z M 255.17773 641.58789 C 255.5024 641.60892 255.87312 641.65068 256.29492 641.69922 C 259.58031 642.07724 259.73242 642.39798 259.73242 648.96875 C 259.73242 654.93733 259.39669 655.8919 257.18164 656.20898 C 255.77835 656.40985 254.23147 656.17678 253.74414 655.68945 C 253.2568 655.20211 252.85742 651.76507 252.85742 648.05273 C 252.85742 642.25512 252.90507 641.44068 255.17773 641.58789 z M 542.66992 642.79297 C 543.85734 642.72531 545.23317 643.09292 546.60742 644.01367 C 548.20762 645.08581 548.04972 645.6322 545.53125 647.74414 C 541.99924 650.70597 540.52195 650.85424 539.55859 648.34375 C 538.35275 645.20137 540.05759 642.94182 542.66992 642.79297 z M 559.76172 644.27539 C 560.4117 644.21226 562.3789 644.78123 564.50586 645.66992 C 568.03444 647.14426 568.78926 648.04012 568.24609 650.11719 C 567.87192 651.54805 567.49012 652.69745 567.39844 652.66992 C 567.30664 652.64242 565.75247 651.815 563.94336 650.83203 C 560.86262 649.15813 558.40226 645.5079 559.56836 644.3418 C 559.60406 644.30609 559.66886 644.28441 559.76172 644.27539 z M 381.19727 645.21875 C 381.57587 645.21875 384.59013 647.48371 387.89648 650.25195 C 391.20283 653.02018 394.65624 655.12955 395.57031 654.93945 C 396.54162 654.73744 397.38656 655.9175 397.60352 657.7793 C 397.86491 660.02245 399.1155 661.39648 401.83203 662.42188 C 405.66892 663.87014 405.68701 663.91756 404.93555 671.11133 C 403.28605 686.90222 402.78144 702.18006 403.85938 703.75195 C 404.48447 704.66345 407.32865 705.72137 410.17773 706.10352 C 416.0463 706.89065 416.83425 708.46914 412.23242 710.21875 C 410.51367 710.87221 409.10742 711.98299 409.10742 712.6875 C 409.10742 713.39202 406.33305 713.96875 402.94336 713.96875 C 397.67536 713.96875 396.72229 714.34564 396.38086 716.55469 C 396.00212 719.00512 395.11563 719.15089 379.25 719.36719 C 363.64112 719.57999 362.23173 719.40106 358.2793 716.71484 C 353.30811 713.33637 353.82573 711.46875 359.73438 711.46875 C 365.90717 711.46875 367.67586 708.306 366.53711 699.29688 C 366.03644 695.33581 365.28124 687.17188 364.85938 681.15625 L 364.0918 670.21875 L 368.51367 670.21875 C 371.2908 670.21875 373.20238 669.52143 373.6543 668.34375 C 375.40995 663.7686 376.60742 667.28635 376.60742 677.02148 C 376.60742 686.28496 377.82522 690.66696 379.83984 688.65234 C 380.15148 688.3407 380.42904 678.44079 380.45703 666.65234 C 380.48503 654.86388 380.81866 645.21875 381.19727 645.21875 z M 182.00391 645.57617 C 184.58971 645.48489 185.30617 647.10293 184.35742 650.65039 L 183.42188 654.14844 L 180.01367 651.46875 C 175.75045 648.1153 175.72919 646.96 179.91211 645.91016 C 180.7106 645.70975 181.40718 645.59724 182.00391 645.57617 z M 163.64258 647.94336 C 166.23331 647.97375 165.73975 649.73792 162.06445 652.62891 C 158.21379 655.65784 157.1101 655.83017 156.23242 653.54297 C 155.22752 650.92423 157.00063 649.07838 161.35742 648.20703 C 162.28263 648.02199 163.04472 647.93635 163.64258 647.94336 z M 546.33594 655.19531 C 547.87813 655.24976 549.10742 655.5617 549.10742 656.19141 C 549.10742 659.48138 541.20525 666.35264 539.88281 664.21289 C 539.53871 663.65612 539.46117 662.10915 539.71094 660.77344 C 539.96072 659.43772 540.20912 657.64063 540.26172 656.78125 C 540.32625 655.72743 543.76562 655.10456 546.33594 655.19531 z M 478.41797 655.35352 C 480.21105 655.27433 480.35742 656.30265 480.35742 661.87305 C 480.35742 666.94636 479.84993 668.89721 478.38086 669.46094 C 474.48138 670.95732 473.98534 670.16491 474.35742 663.03125 C 474.68951 656.66414 475.05345 655.79916 477.54492 655.44531 C 477.87269 655.39876 478.16181 655.36483 478.41797 655.35352 z M 468.73242 656.75977 C 470.26518 656.68844 470.98242 659.08881 470.98242 664.07422 C 470.98242 669.93794 470.64125 670.89269 468.43164 671.20898 C 467.02835 671.40985 465.48147 671.17678 464.99414 670.68945 C 463.30745 669.00276 464.098 660.4059 466.12695 658.37695 C 467.16971 657.33419 468.03571 656.79219 468.73242 656.75977 z M 246.35156 657.17969 C 246.98117 657.20777 247.78075 657.44288 248.79492 657.82617 C 251.19207 658.73214 251.60742 659.807 251.60742 665.10547 C 251.60742 672.05411 250.97661 672.89646 246.91992 671.36328 C 244.52277 670.45731 244.10742 669.38246 244.10742 664.08398 C 244.10742 658.8725 244.46273 657.09544 246.35156 657.17969 z M 178.95312 657.71875 C 183.52731 657.71875 185.69959 660.29427 184.65039 664.47461 C 183.57696 668.75147 182.38117 668.56864 178.54492 663.53906 C 174.5133 658.25334 174.55062 657.71875 178.95312 657.71875 z M 560.45508 657.97266 C 561.21397 657.95459 562.43155 658.27438 564.09375 658.96289 C 568.61466 660.83551 569.37291 661.8208 568.35156 664.48242 C 567.28167 667.27048 566.32982 666.99693 562.24414 662.73242 C 559.33437 659.69527 558.78552 658.0124 560.45508 657.97266 z M 256.60742 659.59375 C 259.56102 659.59375 259.73242 659.97138 259.73242 666.45312 C 259.73242 671.73127 259.27376 673.39841 257.74219 673.69336 C 256.64772 673.90413 255.06668 673.25015 254.22852 672.24023 C 253.38502 671.22388 252.8785 667.9916 253.09375 665 C 253.44113 660.17183 253.81586 659.59375 256.60742 659.59375 z M 163.49023 661.01562 C 164.05702 660.9612 164.48811 661.07414 164.69336 661.40625 C 165.71682 663.06225 159.86192 668.96875 157.19727 668.96875 C 155.9676 668.96875 155.33394 668.13782 155.58203 666.84961 C 156.01087 664.62283 161.03417 661.25146 163.49023 661.01562 z M 551.07812 669.03711 C 551.96814 669.00115 552.10253 670.02074 551.59961 672.09375 C 551.43281 672.78125 551.37159 676.15625 551.46289 679.59375 C 551.55409 683.03125 551.20123 686.47156 550.67969 687.23828 C 549.47604 689.00776 545.38436 690.06716 542.54492 689.34375 C 540.84485 688.91063 540.36659 687.4827 540.39844 682.93945 C 540.43604 677.58403 540.9079 676.69446 546.02344 672.32031 C 548.5431 670.16583 550.18811 669.07306 551.07812 669.03711 z M 174.02148 670.21875 C 174.63383 670.21875 176.46304 671.79785 178.08594 673.72656 C 179.70886 675.65529 182.03731 677.61804 183.26172 678.08789 C 185.07962 678.78549 185.42025 680.14721 185.11133 685.51758 C 184.74863 691.8227 184.5777 692.10771 180.98242 692.41992 C 178.91992 692.59902 176.40451 692.20654 175.39258 691.54883 C 173.32731 690.20649 172.04247 670.21875 174.02148 670.21875 z M 559.24219 670.21875 C 559.85515 670.21875 560.35742 670.75115 560.35742 671.40039 C 560.35742 672.04963 562.3236 674.7215 564.72656 677.33789 C 571.41888 684.62459 570.55976 690.21875 562.74805 690.21875 C 558.58852 690.21875 557.7911 689.76486 557.09766 687.00195 C 556.65365 685.23287 556.89814 683.17804 557.64062 682.43555 C 558.54628 681.5299 558.58722 680.33423 557.76758 678.80273 C 556.42548 676.29499 557.4694 670.21875 559.24219 670.21875 z M 165.99219 672.93555 C 166.97535 673.24834 167.67292 677.12178 167.64844 683.36523 L 167.61328 692.71875 L 162.31836 692.71875 C 159.40652 692.71875 156.67686 692.37218 156.25195 691.94727 C 154.59193 690.28725 157.02708 683.18509 160.27344 680.21875 C 162.15444 678.5 164.06268 676.07483 164.51562 674.82812 C 165.03927 673.38679 165.5453 672.79337 165.99219 672.93555 z M 526.48047 730.30273 C 528.9997 730.17304 532.82815 730.84522 537.23242 732.27344 C 541.83887 733.7672 551.37147 734.55133 573.48242 735.25586 C 608.0065 736.35592 635.50018 739.29827 643.56641 742.75586 C 650.01021 745.518 660.26505 754.6977 665.6582 762.5332 C 670.41433 769.4432 669.92105 775.33435 663.9082 783.42188 C 655.30166 794.99798 622.23498 813.12092 617.25781 808.99023 C 614.76503 806.9214 615.71227 805.71066 620.58398 804.73633 C 624.36327 803.98046 630.35742 799.62773 630.35742 797.63867 C 630.35742 797.14607 626.70117 795.14992 622.23242 793.20312 C 617.76367 791.25632 614.1199 789.36655 614.13477 789.00391 C 614.14967 788.64126 615.97779 787.5 618.19727 786.46875 C 620.41677 785.4375 622.14598 784.03125 622.04102 783.34375 C 621.93602 782.65625 619.15862 781.21652 615.86914 780.14258 C 609.24628 777.98037 607.40958 775.63301 611.84766 775.00391 C 616.09631 774.40167 615.3575 771.49561 610.35742 769.14453 C 606.47282 767.31796 605.83367 766.3184 604.66406 760.2168 C 603.29789 753.08981 601.27603 751.53541 600.58398 757.08203 C 600.11983 760.80202 595.37331 764.37609 592.4082 763.23828 C 588.61469 761.78256 590.25003 765.77412 594.41992 768.14844 L 598.4668 770.45312 L 595.52344 772.83594 C 593.90468 774.14673 590.95507 775.21875 588.96875 775.21875 C 583.46457 775.21875 584.40841 778.61685 590.35742 780.21875 C 593.14979 780.97065 595.35742 782.33344 595.35742 783.30469 C 595.35742 784.87129 588.49362 788.81808 582.375 790.76953 C 580.11387 791.49068 580.10834 791.62148 582.23438 793.9707 C 583.45358 795.31793 586.34243 796.77528 588.6543 797.20898 C 594.22865 798.25475 593.96181 799.98689 587.85742 802.38477 C 585.10742 803.46499 582.85742 805.06858 582.85742 805.94922 C 582.85742 807.7252 586.81449 809.44199 591.60742 809.74414 C 593.32617 809.85251 595.43555 810.00343 596.29492 810.08008 C 598.68101 810.29291 598.15603 814.56283 595.44141 817.01953 C 592.66213 819.53474 571.47031 826.46875 566.56445 826.46875 C 564.75447 826.46875 562.89974 826.09506 562.44141 825.63672 C 560.58197 823.7773 561.81265 821.74137 565.20703 821.0625 C 569.27055 820.24979 572.85742 817.17575 572.85742 814.50586 C 572.85742 812.43619 572.58155 812.38218 560.98242 812.21289 C 553.85481 812.10889 551.37325 811.50667 547.60156 808.96484 C 545.05495 807.24862 543.13604 805.28125 543.33594 804.59375 C 543.53584 803.90625 546.58943 803.34375 550.12305 803.34375 C 555.3794 803.34375 556.91062 802.82952 558.53711 800.51367 C 559.63054 798.95681 562.50496 796.85523 564.92578 795.84375 C 570.88376 793.35435 569.65441 790.98412 562 790.20117 C 557.95111 789.78702 553.92772 788.3185 550.68359 786.07031 C 547.91456 784.15138 544.03508 782.15008 542.06445 781.62305 C 537.32773 780.35625 537.89595 778.59713 543.4707 777.26758 C 550.25554 775.64944 548.96081 772.20701 541.38281 771.7168 C 535.96146 771.3661 530.40436 767.95761 533.48242 766.87109 C 537.75674 765.36232 541.01598 762.98926 541.375 761.125 C 541.71928 759.3373 540.8141 758.96875 536.07422 758.96875 C 530.28211 758.96875 529.20941 758.11675 531.77344 755.55273 C 533.78764 753.53853 532.15257 750.21875 529.14648 750.21875 C 526.1295 750.21875 525.60019 745.87361 528.48242 744.76758 C 531.27274 743.69685 530.75228 741.5574 527.39062 740.2793 C 524.45493 739.16315 522.08307 733.73321 523.51758 731.41211 C 523.92867 730.74696 524.96893 730.38055 526.48047 730.30273 z M 515.99023 732.71875 C 517.52182 732.71875 517.91932 733.70856 517.62305 736.78125 C 517.32284 739.89494 516.57555 740.93799 514.41992 741.24414 C 510.73162 741.76796 510.85307 743.22464 514.73242 744.99219 C 518.80674 746.84857 518.7108 748.70258 514.51562 749.19922 C 509.72926 749.76583 509.55652 752.2418 514.13867 754.61133 C 517.86179 756.53663 517.96616 756.77705 516.00391 758.94531 C 513.83534 761.34155 509.68666 763.22834 503.70508 764.53906 C 498.28162 765.72749 500.4165 768.22097 507.87891 769.41406 L 514.57031 770.48438 L 511.52734 772.85156 L 508.48242 775.21875 L 511.47461 777.54688 C 515.24348 780.47968 514.18583 782.26806 508.17773 783.12109 C 505.59529 783.48776 499.9668 784.75159 495.66992 785.92773 C 484.307 789.03798 485.27751 792.92377 498.16992 795.9375 C 505.26477 797.596 499.9872 801.85727 487.7793 804.32812 C 480.55159 805.79099 479.73242 806.26428 479.73242 808.97852 C 479.73242 812.04578 480.54211 812.45825 490.66992 814.55469 C 498.39555 816.15387 492.88683 823.14859 482.63281 824.75977 C 475.64866 825.85717 466.61818 834.09594 469.10938 837.09766 C 470.11431 838.30854 472.92579 838.97693 477.07227 838.99023 C 483.5915 839.01113 493.43264 843.22804 493.06445 845.84375 C 492.96765 846.53125 487.42968 847.375 480.75781 847.71875 L 468.62695 848.34375 L 461.94336 843.55273 C 458.26769 840.91766 450.40198 836.85427 444.46484 834.52344 C 432.46466 829.81237 425.35742 824.07879 425.35742 819.10742 C 425.35742 816.9538 427.15891 814.41153 431.16406 810.91406 C 449.07381 795.27448 449.6221 793.92198 441.27344 785.94336 C 435.59375 780.51542 427.58249 777.23921 410.35742 773.30273 C 405.20117 772.12437 399.61906 770.64452 397.95312 770.01367 C 395.27819 769.00075 395.14083 768.65019 396.77539 767.01562 C 397.98787 765.80314 403.12912 764.76435 411.67969 764.00391 C 418.85888 763.36545 434.57617 760.83722 446.60742 758.38672 C 465.76606 754.48455 469.95713 753.17346 480.36133 747.82227 C 494.12624 740.74256 513.05349 732.71875 515.99023 732.71875 z M 168.52148 735.39453 C 172.34648 735.37806 176.56533 735.87718 184.26562 736.87891 C 200.2947 738.96412 209.10742 741.42843 209.10742 743.82422 C 209.10742 747.30534 206.43994 751.46875 204.21094 751.46875 C 200.86419 751.46875 199.96465 753.33805 202.35547 755.32227 C 204.11679 756.78402 204.03378 757.06671 201.57422 757.97656 C 199.28282 758.8242 199.08495 759.31112 200.39258 760.88672 C 202.5231 763.45384 201.10099 764.53087 196.03125 764.18945 C 190.11378 763.79092 189.62939 765.651 194.74219 769.13281 C 200.5407 773.08159 200.36648 775.21875 194.24609 775.21875 C 191.29311 775.21875 188.22608 776.1678 186.43359 777.63477 L 183.48242 780.04883 L 188.12891 782.00977 C 190.68496 783.08771 193.60639 783.96875 194.61914 783.96875 C 195.6319 783.96875 196.76778 784.46852 197.14453 785.07812 C 198.36434 787.05183 194.52338 789.03874 187.99023 789.8125 C 181.12833 790.62519 179.37496 793.13778 184.73242 794.48242 C 186.45117 794.91381 187.85742 796.14401 187.85742 797.21484 C 187.85742 798.70069 188.96759 799.06927 192.54492 798.77148 C 196.90355 798.40867 197.2011 798.59935 196.79688 801.48828 C 196.19658 805.7784 195.98727 805.88151 188.58203 805.55664 C 180.65156 805.20874 176.34832 807.52094 178.99414 810.70898 C 180.43434 812.4443 180.31523 812.71875 178.11328 812.71875 C 174.30188 812.71875 171.60742 814.03108 171.60742 815.88672 C 171.60742 818.31601 178.77603 821.46875 184.29883 821.46875 C 187.57511 821.46875 189.10742 822.02439 189.10742 823.21094 C 189.10742 825.38352 186.38896 826.46875 180.95312 826.46875 C 178.64368 826.46875 176.43556 826.98706 176.04492 827.61914 C 175.15036 829.06655 178.70737 832.71875 181.01172 832.71875 C 183.52401 832.71875 189.10742 835.44376 189.10742 836.66992 C 189.10742 838.15756 187.59467 837.91353 172.85742 834.05664 C 150.7753 828.27752 146.04265 826.66884 143.11719 823.94336 C 139.67596 820.73737 140.73497 818.48253 145.25586 819.38672 C 149.6673 820.26901 152.8329 818.44422 150.66016 816.27148 C 147.65875 813.27007 148.92285 811.46875 154.0332 811.46875 C 161.77507 811.46875 162.35777 806.72881 154.95508 803.9668 C 149.06514 801.7692 142.33951 798.04392 141.9043 796.73828 C 141.69419 796.10795 143.88772 795.08694 146.77734 794.46875 C 153.38313 793.05557 154.77675 790.21875 148.86523 790.21875 C 144.76777 790.21875 139.10742 787.36316 139.10742 785.29492 C 139.10742 784.72659 140.35134 783.93648 141.87109 783.53906 L 144.63281 782.81641 L 141.85938 779.86328 C 138.5625 776.35392 139.31532 775.21875 144.94141 775.21875 C 150.30654 775.21875 150.27702 773.08003 144.88281 770.82617 C 140.48896 768.99029 139.10742 766.93637 139.10742 762.24219 C 139.10742 759.48524 137.01774 756.46875 135.10742 756.46875 C 134.55742 756.46875 134.10742 758.325 134.10742 760.59375 C 134.10742 765.19436 132.18543 767.86321 129.58984 766.86719 C 127.36697 766.01419 125.84914 769.96045 127.69141 771.80273 C 129.92621 774.03753 129.36125 775.21875 126.05664 775.21875 C 121.09329 775.21875 120.86014 777.79483 125.47852 781.625 L 129.73242 785.15234 L 124.41992 785.18555 C 118.45692 785.22335 117.51012 787.13648 121.61523 790.85156 C 124.90907 793.83245 123.9523 794.53881 117.19141 794.12305 C 112.90369 793.85937 111.60742 794.21769 111.60742 795.66016 C 111.60742 797.47066 116.38979 801.98226 119.48242 803.08984 C 121.73325 803.89596 119.7411 805.40546 115.20117 806.33398 C 109.16361 807.5688 109.38978 809.93173 115.81836 812.77539 C 118.94479 814.15836 121.89588 815.92399 122.375 816.69922 C 123.53887 818.5824 117.98006 817.44082 102.85742 812.6875 C 73.397122 803.42757 52.48566 784.43971 57.75 771.73047 C 60.50436 765.08087 70.577928 756.94293 87.423828 747.75977 C 96.466208 742.83052 106.3346 738.05368 109.35547 737.14453 C 114.39805 735.62694 115.41346 735.73135 121.75195 738.4043 C 129.31098 741.59194 128.45501 741.62605 155.13867 737.00391 C 161.2653 735.94265 164.69648 735.411 168.52148 735.39453 z M 215.05273 743.96875 C 215.57275 743.96875 226.19691 746.75819 238.66211 750.16602 C 251.12731 753.57386 268.28014 758.09984 276.7793 760.22461 C 305.81315 767.48296 319.35745 773.61309 326.29492 782.63281 C 337.07569 796.64933 325.69696 811.45562 290.31836 829.44531 C 276.40705 836.51907 245.65467 847.9191 241.34766 847.59961 C 240.45901 847.53371 235.95809 846.80689 231.3457 845.98438 C 226.73332 845.16188 222.60666 844.13595 222.17578 843.70508 C 220.49949 842.02878 227.21533 839.96306 232.42969 840.55078 C 237.00399 841.06638 238.3405 840.68899 240.68555 838.21484 C 242.2242 836.59149 244.1426 835.25211 244.94922 835.24023 C 246.88332 835.21173 254.10742 829.09842 254.10742 827.49023 C 254.10742 826.70523 251.81365 826.55059 247.99219 827.07617 C 240.8271 828.06162 238.75759 826.32481 243.44141 823.25586 C 246.44536 821.2876 247.80917 817.71875 245.55664 817.71875 C 244.9784 817.71875 241.91712 818.49918 238.75391 819.45117 C 233.67495 820.97971 232.66828 820.94778 230.15234 819.18555 L 227.30469 817.18945 L 230.39258 816.45703 C 232.36878 815.98838 233.48533 814.84631 233.49023 813.28516 C 233.49523 811.62256 234.35545 810.84375 236.18945 810.84375 C 239.84878 810.84375 241.02491 809.40459 239.18164 807.18359 C 237.90295 805.64285 238.40713 805.02263 242.23828 803.42188 C 248.70561 800.71965 247.26363 798.38384 238.99219 798.16406 C 226.69045 797.83719 226.60742 797.82045 226.60742 795.49414 C 226.60742 794.16988 224.96177 792.5689 222.54492 791.54297 L 218.48242 789.81836 L 225.72656 789.0625 C 232.63714 788.3408 235.85967 786.33755 234.92773 783.34375 C 234.71372 782.65625 231.8133 781.8125 228.48242 781.46875 C 220.76205 780.672 219.95978 778.42209 226.87695 776.96289 C 234.87244 775.2762 233.98764 772.37325 225.04492 770.95508 C 217.2279 769.71543 216.13714 768.44984 220.98242 766.24219 C 222.70117 765.45907 224.10742 764.07577 224.10742 763.16797 C 224.10742 762.26017 222.70117 761.16381 220.98242 760.73242 C 217.46731 759.85018 216.92425 758.34518 219.73242 757.26758 C 222.63924 756.15213 221.96412 754.65167 217.85742 753.10156 C 214.80634 751.94991 214.10742 750.96755 214.10742 747.82812 C 214.10742 745.70591 214.53272 743.96875 215.05273 743.96875 z M 339.51172 768.98633 C 345.24979 769.06181 359.2707 772.73224 379.61719 779.56836 C 391.24102 783.4738 402.20977 787.57266 403.99219 788.67578 C 409.47357 792.06817 412.85742 795.55465 412.85742 797.80859 C 412.85742 801.50852 404.82753 807.25664 395.81445 810.00977 C 384.40556 813.49471 381.59987 815.59138 381.63477 820.60352 C 381.66827 825.41419 384.11795 828.6042 391.67773 833.68164 C 400.89915 839.87511 410.97353 852.51867 408.58789 854.9043 C 407.56153 855.93067 374.1175 857.60229 357.23242 857.4707 C 348.29492 857.4011 333.46971 856.91587 324.28711 856.39453 C 305.65526 855.33673 299.10742 854.3894 299.10742 852.74805 C 299.10742 851.26941 305.4582 846.81746 310.59766 844.69336 C 312.87192 843.75344 319.96609 842.09375 326.36328 841.00391 C 332.76046 839.91407 339.93856 838.09813 342.31445 836.9707 C 346.60931 834.93265 346.96479 834.23274 348.48438 824.8125 C 349.13056 820.80669 350.17396 819.48805 354.91211 816.6875 C 364.67411 810.91755 366.7096 808.73223 367.44727 803.23242 C 368.53718 795.10653 365.72126 791.41186 350.33789 780.77539 C 342.78594 775.55379 336.60742 770.76087 336.60742 770.125 C 336.60742 769.33541 337.59903 768.96117 339.51172 768.98633 z "
       id="path5362" />
  </g>
</svg>
