<?xml version="1.0" encoding="UTF-8" standalone="no"?>
<svg
   xmlns:dc="http://purl.org/dc/elements/1.1/"
   xmlns:cc="http://creativecommons.org/ns#"
   xmlns:rdf="http://www.w3.org/1999/02/22-rdf-syntax-ns#"
   xmlns:svg="http://www.w3.org/2000/svg"
   xmlns="http://www.w3.org/2000/svg"
   xmlns:sodipodi="http://sodipodi.sourceforge.net/DTD/sodipodi-0.dtd"
   xmlns:inkscape="http://www.inkscape.org/namespaces/inkscape"
   version="1.1"
   id="svg2"
   viewBox="0 0 1090.2275 1090.6537"
   height="307.8067mm"
   width="307.68643mm"
   inkscape:version="0.91 r13725"
   sodipodi:docname="etoile.svg">
  <sodipodi:namedview
     pagecolor="#ffffff"
     bordercolor="#666666"
     borderopacity="1"
     objecttolerance="10"
     gridtolerance="10"
     guidetolerance="10"
     inkscape:pageopacity="0"
     inkscape:pageshadow="2"
     inkscape:window-width="1920"
     inkscape:window-height="1007"
     id="namedview33"
     showgrid="false"
     fit-margin-top="0"
     fit-margin-left="0"
     fit-margin-right="0"
     fit-margin-bottom="0"
     inkscape:zoom="0.59203951"
     inkscape:cx="765.4174"
     inkscape:cy="582.65912"
     inkscape:window-x="0"
     inkscape:window-y="27"
     inkscape:window-maximized="1"
     inkscape:current-layer="svg2" />
  <defs
     id="defs4" />
  <metadata
     id="metadata7">
    <rdf:RDF>
      <cc:Work
         rdf:about="">
        <dc:format>image/svg+xml</dc:format>
        <dc:type
           rdf:resource="http://purl.org/dc/dcmitype/StillImage" />
        <dc:title></dc:title>
      </cc:Work>
    </rdf:RDF>
  </metadata>
  <g
     transform="translate(-2688.6823,150.78105)"
     id="layer1">
    <path
       transform="matrix(0.63120547,0,0,0.54692585,983.09769,473.73013)"
       d="M 4428.471,353.33199 3792.684,248.3422 3565.7144,851.44475 3338.7447,248.34218 l -635.787,104.9898 408.8174,-498.11278 -408.8174,-498.11274 635.787,104.98979 226.9697,-603.10255 226.9696,603.10257 635.787,-104.98981 -408.8173,498.11279 z"
       id="path4138"
       style="color:#000000;clip-rule:nonzero;display:inline;overflow:visible;visibility:visible;opacity:1;isolation:auto;mix-blend-mode:normal;color-interpolation:sRGB;color-interpolation-filters:linearRGB;solid-color:#000000;solid-opacity:1;fill:none;fill-opacity:1;fill-rule:nonzero;stroke:#000000;stroke-width:1.70196295;stroke-linecap:butt;stroke-linejoin:round;stroke-miterlimit:4;stroke-dasharray:none;stroke-dashoffset:0;stroke-opacity:1;color-rendering:auto;image-rendering:auto;shape-rendering:auto;text-rendering:auto;enable-background:accumulate"
       inkscape:connector-curvature="0" />
    <path
       style="color:#000000;clip-rule:nonzero;display:inline;overflow:visible;visibility:visible;opacity:1;isolation:auto;mix-blend-mode:normal;color-interpolation:sRGB;color-interpolation-filters:linearRGB;solid-color:#000000;solid-opacity:1;fill:none;fill-opacity:1;fill-rule:nonzero;stroke:#000000;stroke-width:2.18890929;stroke-linecap:butt;stroke-linejoin:round;stroke-miterlimit:4;stroke-dasharray:none;stroke-dashoffset:0;stroke-opacity:1;color-rendering:auto;image-rendering:auto;shape-rendering:auto;text-rendering:auto;enable-background:accumulate"
       id="path4140"
       d="M 4428.471,353.33199 3792.684,248.3422 3565.7144,851.44475 3338.7447,248.34218 l -635.787,104.9898 408.8174,-498.11278 -408.8174,-498.11274 635.787,104.98979 226.9697,-603.10255 226.9696,603.10257 635.787,-104.98981 -408.8173,498.11279 z"
       transform="matrix(0.49078704,0,0,0.42525637,1483.7897,456.11472)"
       inkscape:connector-curvature="0" />
    <path
       transform="matrix(0.36049975,0,0,0.31236529,1948.357,439.77025)"
       d="M 4428.471,353.33199 3792.684,248.3422 3565.7144,851.44475 3338.7447,248.34218 l -635.787,104.9898 408.8174,-498.11278 -408.8174,-498.11274 635.787,104.98979 226.9697,-603.10255 226.9696,603.10257 635.787,-104.98981 -408.8173,498.11279 z"
       id="path4142"
       style="color:#000000;clip-rule:nonzero;display:inline;overflow:visible;visibility:visible;opacity:1;isolation:auto;mix-blend-mode:normal;color-interpolation:sRGB;color-interpolation-filters:linearRGB;solid-color:#000000;solid-opacity:1;fill:none;fill-opacity:1;fill-rule:nonzero;stroke:#000000;stroke-width:2.97999716;stroke-linecap:butt;stroke-linejoin:round;stroke-miterlimit:4;stroke-dasharray:none;stroke-dashoffset:0;stroke-opacity:1;color-rendering:auto;image-rendering:auto;shape-rendering:auto;text-rendering:auto;enable-background:accumulate"
       inkscape:connector-curvature="0" />
    <path
       style="color:#000000;clip-rule:nonzero;display:inline;overflow:visible;visibility:visible;opacity:1;isolation:auto;mix-blend-mode:normal;color-interpolation:sRGB;color-interpolation-filters:linearRGB;solid-color:#000000;solid-opacity:1;fill:none;fill-opacity:1;fill-rule:nonzero;stroke:#000000;stroke-width:4.7869978;stroke-linecap:butt;stroke-linejoin:round;stroke-miterlimit:4;stroke-dasharray:none;stroke-dashoffset:0;stroke-opacity:1;color-rendering:auto;image-rendering:auto;shape-rendering:auto;text-rendering:auto;enable-background:accumulate"
       id="path4144"
       d="M 4428.471,353.33199 3792.684,248.3422 3565.7144,851.44475 3338.7447,248.34218 l -635.787,104.9898 408.8174,-498.11278 -408.8174,-498.11274 635.787,104.98979 226.9697,-603.10255 226.9696,603.10257 635.787,-104.98981 -408.8173,498.11279 z"
       transform="matrix(0.22441791,0,0,0.19445335,2433.586,422.69885)"
       inkscape:connector-curvature="0" />
    <path
       transform="matrix(0.10570026,0,0,0.09158707,2856.8992,407.80576)"
       d="M 4428.471,353.33199 3792.684,248.3422 3565.7144,851.44475 3338.7447,248.34218 l -635.787,104.9898 408.8174,-498.11278 -408.8174,-498.11274 635.787,104.98979 226.9697,-603.10255 226.9696,603.10257 635.787,-104.98981 -408.8173,498.11279 z"
       id="path4146"
       style="color:#000000;clip-rule:nonzero;display:inline;overflow:visible;visibility:visible;opacity:1;isolation:auto;mix-blend-mode:normal;color-interpolation:sRGB;color-interpolation-filters:linearRGB;solid-color:#000000;solid-opacity:1;fill:none;fill-opacity:1;fill-rule:nonzero;stroke:#000000;stroke-width:10.16353035;stroke-linecap:butt;stroke-linejoin:round;stroke-miterlimit:4;stroke-dasharray:none;stroke-dashoffset:0;stroke-opacity:1;color-rendering:auto;image-rendering:auto;shape-rendering:auto;text-rendering:auto;enable-background:accumulate"
       inkscape:connector-curvature="0" />
    <path
       style="color:#000000;clip-rule:nonzero;display:inline;overflow:visible;visibility:visible;opacity:1;isolation:auto;mix-blend-mode:normal;color-interpolation:sRGB;color-interpolation-filters:linearRGB;solid-color:#000000;solid-opacity:1;fill:none;fill-opacity:1;fill-rule:nonzero;stroke:#000000;stroke-width:1.90442586;stroke-linecap:butt;stroke-linejoin:round;stroke-miterlimit:4;stroke-dasharray:none;stroke-dashoffset:0;stroke-opacity:1;color-rendering:auto;image-rendering:auto;shape-rendering:auto;text-rendering:auto;enable-background:accumulate"
       id="path4148"
       d="M 4428.471,353.33199 3792.684,248.3422 3565.7144,851.44475 3338.7447,248.34218 l -635.787,104.9898 408.8174,-498.11278 -408.8174,-498.11274 635.787,104.98979 226.9697,-603.10255 226.9696,603.10257 635.787,-104.98981 -408.8173,498.11279 z"
       transform="matrix(0.56410089,0,0,0.48878121,1222.3735,465.3119)"
       inkscape:connector-curvature="0" />
    <path
       transform="matrix(0.43141629,0,0,0.37381292,1695.4888,448.66669)"
       d="M 4428.471,353.33199 3792.684,248.3422 3565.7144,851.44475 3338.7447,248.34218 l -635.787,104.9898 408.8174,-498.11278 -408.8174,-498.11274 635.787,104.98979 226.9697,-603.10255 226.9696,603.10257 635.787,-104.98981 -408.8173,498.11279 z"
       id="path4150"
       style="color:#000000;clip-rule:nonzero;display:inline;overflow:visible;visibility:visible;opacity:1;isolation:auto;mix-blend-mode:normal;color-interpolation:sRGB;color-interpolation-filters:linearRGB;solid-color:#000000;solid-opacity:1;fill:none;fill-opacity:1;fill-rule:nonzero;stroke:#000000;stroke-width:2.49014306;stroke-linecap:butt;stroke-linejoin:round;stroke-miterlimit:4;stroke-dasharray:none;stroke-dashoffset:0;stroke-opacity:1;color-rendering:auto;image-rendering:auto;shape-rendering:auto;text-rendering:auto;enable-background:accumulate"
       inkscape:connector-curvature="0" />
    <path
       style="color:#000000;clip-rule:nonzero;display:inline;overflow:visible;visibility:visible;opacity:1;isolation:auto;mix-blend-mode:normal;color-interpolation:sRGB;color-interpolation-filters:linearRGB;solid-color:#000000;solid-opacity:1;fill:none;fill-opacity:1;fill-rule:nonzero;stroke:#000000;stroke-width:3.71927691;stroke-linecap:butt;stroke-linejoin:round;stroke-miterlimit:4;stroke-dasharray:none;stroke-dashoffset:0;stroke-opacity:1;color-rendering:auto;image-rendering:auto;shape-rendering:auto;text-rendering:auto;enable-background:accumulate"
       id="path4152"
       d="M 4428.471,353.33199 3792.684,248.3422 3565.7144,851.44475 3338.7447,248.34218 l -635.787,104.9898 408.8174,-498.11278 -408.8174,-498.11274 635.787,104.98979 226.9697,-603.10255 226.9696,603.10257 635.787,-104.98981 -408.8173,498.11279 z"
       transform="matrix(0.28884329,0,0,0.25027653,2203.8635,430.78098)"
       inkscape:connector-curvature="0" />
    <path
       transform="matrix(0.16504143,0,0,0.14300491,2645.3056,415.25009)"
       d="M 4428.471,353.33199 3792.684,248.3422 3565.7144,851.44475 3338.7447,248.34218 l -635.787,104.9898 408.8174,-498.11278 -408.8174,-498.11274 635.787,104.98979 226.9697,-603.10255 226.9696,603.10257 635.787,-104.98981 -408.8173,498.11279 z"
       id="path4154"
       style="color:#000000;clip-rule:nonzero;display:inline;overflow:visible;visibility:visible;opacity:1;isolation:auto;mix-blend-mode:normal;color-interpolation:sRGB;color-interpolation-filters:linearRGB;solid-color:#000000;solid-opacity:1;fill:none;fill-opacity:1;fill-rule:nonzero;stroke:#000000;stroke-width:6.50920153;stroke-linecap:butt;stroke-linejoin:round;stroke-miterlimit:4;stroke-dasharray:none;stroke-dashoffset:0;stroke-opacity:1;color-rendering:auto;image-rendering:auto;shape-rendering:auto;text-rendering:auto;enable-background:accumulate"
       inkscape:connector-curvature="0" />
    <path
       id="path4156"
       d="m 3233.4141,-107.79297 c -1.951,1e-5 -3.543,1.59198 -3.543,3.54297 0,1.95099 1.592,3.54492 3.543,3.54492 1.951,0 3.5429,-1.59393 3.5429,-3.54492 0,-1.95099 -1.592,-3.54296 -3.5429,-3.54297 z m 0,1 c 1.4105,0 2.5429,1.13242 2.5429,2.54297 0,1.41055 -1.1324,2.54492 -2.5429,2.54492 -1.4106,0 -2.543,-1.13437 -2.543,-2.54492 0,-1.41055 1.1324,-2.54297 2.543,-2.54297 z"
       style="color:#000000;font-style:normal;font-variant:normal;font-weight:normal;font-stretch:normal;font-size:medium;line-height:normal;font-family:sans-serif;text-indent:0;text-align:start;text-decoration:none;text-decoration-line:none;text-decoration-style:solid;text-decoration-color:#000000;letter-spacing:normal;word-spacing:normal;text-transform:none;direction:ltr;block-progression:tb;writing-mode:lr-tb;baseline-shift:baseline;text-anchor:start;white-space:normal;clip-rule:nonzero;display:inline;overflow:visible;visibility:visible;opacity:1;isolation:auto;mix-blend-mode:normal;color-interpolation:sRGB;color-interpolation-filters:linearRGB;solid-color:#000000;solid-opacity:1;fill:#000000;fill-opacity:1;fill-rule:nonzero;stroke:none;stroke-width:0.99999988;stroke-linecap:butt;stroke-linejoin:round;stroke-miterlimit:4;stroke-dasharray:none;stroke-dashoffset:0;stroke-opacity:1;color-rendering:auto;image-rendering:auto;shape-rendering:auto;text-rendering:auto;enable-background:accumulate"
       inkscape:connector-curvature="0" />
    <path
       id="circle4158"
       d="m 3233.4141,-50.953125 c -1.951,5e-6 -3.543,1.59198 -3.543,3.542969 0,1.950989 1.592,3.542964 3.543,3.542968 1.951,-4e-6 3.5429,-1.591979 3.5429,-3.542968 0,-1.950989 -1.5919,-3.542964 -3.5429,-3.542969 z m 0,1 c 1.4105,3e-6 2.5429,1.132419 2.5429,2.542969 0,1.410549 -1.1324,2.542965 -2.5429,2.542968 -1.4106,-3e-6 -2.543,-1.132419 -2.543,-2.542968 0,-1.41055 1.1324,-2.542966 2.543,-2.542969 z"
       style="color:#000000;font-style:normal;font-variant:normal;font-weight:normal;font-stretch:normal;font-size:medium;line-height:normal;font-family:sans-serif;text-indent:0;text-align:start;text-decoration:none;text-decoration-line:none;text-decoration-style:solid;text-decoration-color:#000000;letter-spacing:normal;word-spacing:normal;text-transform:none;direction:ltr;block-progression:tb;writing-mode:lr-tb;baseline-shift:baseline;text-anchor:start;white-space:normal;clip-rule:nonzero;display:inline;overflow:visible;visibility:visible;opacity:1;isolation:auto;mix-blend-mode:normal;color-interpolation:sRGB;color-interpolation-filters:linearRGB;solid-color:#000000;solid-opacity:1;fill:#000000;fill-opacity:1;fill-rule:nonzero;stroke:none;stroke-width:0.99999988;stroke-linecap:butt;stroke-linejoin:round;stroke-miterlimit:4;stroke-dasharray:none;stroke-dashoffset:0;stroke-opacity:1;color-rendering:auto;image-rendering:auto;shape-rendering:auto;text-rendering:auto;enable-background:accumulate"
       inkscape:connector-curvature="0" />
    <path
       id="circle4160"
       d="m 3233.4141,7.8847656 c -1.951,4.6e-6 -3.543,1.5919797 -3.543,3.5429684 0,1.950989 1.592,3.542965 3.543,3.542969 1.951,-4e-6 3.5429,-1.59198 3.5429,-3.542969 0,-1.9509887 -1.5919,-3.5429638 -3.5429,-3.5429684 z m 0,1 c 1.4105,3.3e-6 2.5429,1.1324194 2.5429,2.5429684 0,1.41055 -1.1324,2.542966 -2.5429,2.542969 -1.4106,-3e-6 -2.543,-1.132419 -2.543,-2.542969 0,-1.410549 1.1324,-2.5429651 2.543,-2.5429684 z"
       style="color:#000000;font-style:normal;font-variant:normal;font-weight:normal;font-stretch:normal;font-size:medium;line-height:normal;font-family:sans-serif;text-indent:0;text-align:start;text-decoration:none;text-decoration-line:none;text-decoration-style:solid;text-decoration-color:#000000;letter-spacing:normal;word-spacing:normal;text-transform:none;direction:ltr;block-progression:tb;writing-mode:lr-tb;baseline-shift:baseline;text-anchor:start;white-space:normal;clip-rule:nonzero;display:inline;overflow:visible;visibility:visible;opacity:1;isolation:auto;mix-blend-mode:normal;color-interpolation:sRGB;color-interpolation-filters:linearRGB;solid-color:#000000;solid-opacity:1;fill:#000000;fill-opacity:1;fill-rule:nonzero;stroke:none;stroke-width:0.99999988;stroke-linecap:butt;stroke-linejoin:round;stroke-miterlimit:4;stroke-dasharray:none;stroke-dashoffset:0;stroke-opacity:1;color-rendering:auto;image-rendering:auto;shape-rendering:auto;text-rendering:auto;enable-background:accumulate"
       inkscape:connector-curvature="0" />
    <path
       id="circle4162"
       d="m 3233.4141,235.23828 c -1.951,1e-5 -3.543,1.59198 -3.543,3.54297 0,1.95099 1.592,3.54296 3.543,3.54297 1.9509,-1e-5 3.5429,-1.59198 3.5429,-3.54297 0,-1.95099 -1.5919,-3.54296 -3.5429,-3.54297 z m 0,1 c 1.4105,0 2.5429,1.13242 2.5429,2.54297 0,1.41055 -1.1324,2.54297 -2.5429,2.54297 -1.4106,0 -2.543,-1.13242 -2.543,-2.54297 0,-1.41055 1.1324,-2.54297 2.543,-2.54297 z"
       style="color:#000000;font-style:normal;font-variant:normal;font-weight:normal;font-stretch:normal;font-size:medium;line-height:normal;font-family:sans-serif;text-indent:0;text-align:start;text-decoration:none;text-decoration-line:none;text-decoration-style:solid;text-decoration-color:#000000;letter-spacing:normal;word-spacing:normal;text-transform:none;direction:ltr;block-progression:tb;writing-mode:lr-tb;baseline-shift:baseline;text-anchor:start;white-space:normal;clip-rule:nonzero;display:inline;overflow:visible;visibility:visible;opacity:1;isolation:auto;mix-blend-mode:normal;color-interpolation:sRGB;color-interpolation-filters:linearRGB;solid-color:#000000;solid-opacity:1;fill:#000000;fill-opacity:1;fill-rule:nonzero;stroke:none;stroke-width:0.99999988;stroke-linecap:butt;stroke-linejoin:round;stroke-miterlimit:4;stroke-dasharray:none;stroke-dashoffset:0;stroke-opacity:1;color-rendering:auto;image-rendering:auto;shape-rendering:auto;text-rendering:auto;enable-background:accumulate"
       inkscape:connector-curvature="0" />
    <path
       id="circle4166"
       d="m 3233.4141,108.14258 c -1.951,0 -3.543,1.59198 -3.543,3.54297 0,1.95099 1.592,3.54296 3.543,3.54297 1.951,-1e-5 3.5429,-1.59198 3.5429,-3.54297 0,-1.95099 -1.592,-3.54297 -3.5429,-3.54297 z m 0,1 c 1.4105,0 2.5429,1.13242 2.5429,2.54297 0,1.41055 -1.1324,2.54296 -2.5429,2.54297 -1.4106,-1e-5 -2.543,-1.13242 -2.543,-2.54297 0,-1.41055 1.1324,-2.54297 2.543,-2.54297 z"
       style="color:#000000;font-style:normal;font-variant:normal;font-weight:normal;font-stretch:normal;font-size:medium;line-height:normal;font-family:sans-serif;text-indent:0;text-align:start;text-decoration:none;text-decoration-line:none;text-decoration-style:solid;text-decoration-color:#000000;letter-spacing:normal;word-spacing:normal;text-transform:none;direction:ltr;block-progression:tb;writing-mode:lr-tb;baseline-shift:baseline;text-anchor:start;white-space:normal;clip-rule:nonzero;display:inline;overflow:visible;visibility:visible;opacity:1;isolation:auto;mix-blend-mode:normal;color-interpolation:sRGB;color-interpolation-filters:linearRGB;solid-color:#000000;solid-opacity:1;fill:#000000;fill-opacity:1;fill-rule:nonzero;stroke:none;stroke-width:0.99999988;stroke-linecap:butt;stroke-linejoin:round;stroke-miterlimit:4;stroke-dasharray:none;stroke-dashoffset:0;stroke-opacity:1;color-rendering:auto;image-rendering:auto;shape-rendering:auto;text-rendering:auto;enable-background:accumulate"
       inkscape:connector-curvature="0" />
    <path
       id="circle4170"
       d="m 3233.4141,182.40039 c -1.951,1e-5 -3.543,1.59198 -3.543,3.54297 0,1.95099 1.592,3.54296 3.543,3.54297 1.951,-1e-5 3.5429,-1.59198 3.5429,-3.54297 0,-1.95099 -1.5919,-3.54296 -3.5429,-3.54297 z m 0,1 c 1.4105,0 2.5429,1.13242 2.5429,2.54297 0,1.41055 -1.1324,2.54296 -2.5429,2.54297 -1.4106,-1e-5 -2.543,-1.13242 -2.543,-2.54297 0,-1.41055 1.1324,-2.54297 2.543,-2.54297 z"
       style="color:#000000;font-style:normal;font-variant:normal;font-weight:normal;font-stretch:normal;font-size:medium;line-height:normal;font-family:sans-serif;text-indent:0;text-align:start;text-decoration:none;text-decoration-line:none;text-decoration-style:solid;text-decoration-color:#000000;letter-spacing:normal;word-spacing:normal;text-transform:none;direction:ltr;block-progression:tb;writing-mode:lr-tb;baseline-shift:baseline;text-anchor:start;white-space:normal;clip-rule:nonzero;display:inline;overflow:visible;visibility:visible;opacity:1;isolation:auto;mix-blend-mode:normal;color-interpolation:sRGB;color-interpolation-filters:linearRGB;solid-color:#000000;solid-opacity:1;fill:#000000;fill-opacity:1;fill-rule:nonzero;stroke:none;stroke-width:0.99999988;stroke-linecap:butt;stroke-linejoin:round;stroke-miterlimit:4;stroke-dasharray:none;stroke-dashoffset:0;stroke-opacity:1;color-rendering:auto;image-rendering:auto;shape-rendering:auto;text-rendering:auto;enable-background:accumulate"
       inkscape:connector-curvature="0" />
    <path
       id="circle4172"
       d="m 3233.4141,290.07617 c -1.951,1e-5 -3.543,1.59198 -3.543,3.54297 0,1.95099 1.592,3.54296 3.543,3.54297 1.951,-10e-6 3.5429,-1.59198 3.5429,-3.54297 0,-1.95099 -1.5919,-3.54296 -3.5429,-3.54297 z m 0,1 c 1.4105,1e-5 2.5429,1.13242 2.5429,2.54297 0,1.41055 -1.1324,2.54297 -2.5429,2.54297 -1.4106,0 -2.543,-1.13242 -2.543,-2.54297 0,-1.41055 1.1324,-2.54296 2.543,-2.54297 z"
       style="color:#000000;font-style:normal;font-variant:normal;font-weight:normal;font-stretch:normal;font-size:medium;line-height:normal;font-family:sans-serif;text-indent:0;text-align:start;text-decoration:none;text-decoration-line:none;text-decoration-style:solid;text-decoration-color:#000000;letter-spacing:normal;word-spacing:normal;text-transform:none;direction:ltr;block-progression:tb;writing-mode:lr-tb;baseline-shift:baseline;text-anchor:start;white-space:normal;clip-rule:nonzero;display:inline;overflow:visible;visibility:visible;opacity:1;isolation:auto;mix-blend-mode:normal;color-interpolation:sRGB;color-interpolation-filters:linearRGB;solid-color:#000000;solid-opacity:1;fill:#000000;fill-opacity:1;fill-rule:nonzero;stroke:none;stroke-width:0.99999988;stroke-linecap:butt;stroke-linejoin:round;stroke-miterlimit:4;stroke-dasharray:none;stroke-dashoffset:0;stroke-opacity:1;color-rendering:auto;image-rendering:auto;shape-rendering:auto;text-rendering:auto;enable-background:accumulate"
       inkscape:connector-curvature="0" />
    <path
       id="circle4174"
       d="m 3233.4141,317.49609 c -1.951,1e-5 -3.543,1.59198 -3.543,3.54297 0,1.95099 1.592,3.54297 3.543,3.54297 1.951,0 3.5429,-1.59198 3.5429,-3.54297 0,-1.95099 -1.5919,-3.54296 -3.5429,-3.54297 z m 0,1 c 1.4105,1e-5 2.5429,1.13242 2.5429,2.54297 0,1.41055 -1.1324,2.54297 -2.5429,2.54297 -1.4106,0 -2.543,-1.13242 -2.543,-2.54297 0,-1.41055 1.1324,-2.54296 2.543,-2.54297 z"
       style="color:#000000;font-style:normal;font-variant:normal;font-weight:normal;font-stretch:normal;font-size:medium;line-height:normal;font-family:sans-serif;text-indent:0;text-align:start;text-decoration:none;text-decoration-line:none;text-decoration-style:solid;text-decoration-color:#000000;letter-spacing:normal;word-spacing:normal;text-transform:none;direction:ltr;block-progression:tb;writing-mode:lr-tb;baseline-shift:baseline;text-anchor:start;white-space:normal;clip-rule:nonzero;display:inline;overflow:visible;visibility:visible;opacity:1;isolation:auto;mix-blend-mode:normal;color-interpolation:sRGB;color-interpolation-filters:linearRGB;solid-color:#000000;solid-opacity:1;fill:#000000;fill-opacity:1;fill-rule:nonzero;stroke:none;stroke-width:0.99999988;stroke-linecap:butt;stroke-linejoin:round;stroke-miterlimit:4;stroke-dasharray:none;stroke-dashoffset:0;stroke-opacity:1;color-rendering:auto;image-rendering:auto;shape-rendering:auto;text-rendering:auto;enable-background:accumulate"
       inkscape:connector-curvature="0" />
    <path
       id="circle4176"
       d="m 3233.4141,-119.21094 c -1.951,10e-6 -3.543,1.59198 -3.543,3.54297 0,1.95099 1.592,3.54297 3.543,3.54297 1.9509,0 3.5429,-1.59198 3.5429,-3.54297 0,-1.95099 -1.5919,-3.54296 -3.5429,-3.54297 z m 0,1 c 1.4105,10e-6 2.5429,1.13242 2.5429,2.54297 0,1.41055 -1.1324,2.54297 -2.5429,2.54297 -1.4106,0 -2.543,-1.13242 -2.543,-2.54297 0,-1.41055 1.1324,-2.54296 2.543,-2.54297 z"
       style="color:#000000;font-style:normal;font-variant:normal;font-weight:normal;font-stretch:normal;font-size:medium;line-height:normal;font-family:sans-serif;text-indent:0;text-align:start;text-decoration:none;text-decoration-line:none;text-decoration-style:solid;text-decoration-color:#000000;letter-spacing:normal;word-spacing:normal;text-transform:none;direction:ltr;block-progression:tb;writing-mode:lr-tb;baseline-shift:baseline;text-anchor:start;white-space:normal;clip-rule:nonzero;display:inline;overflow:visible;visibility:visible;opacity:1;isolation:auto;mix-blend-mode:normal;color-interpolation:sRGB;color-interpolation-filters:linearRGB;solid-color:#000000;solid-opacity:1;fill:#000000;fill-opacity:1;fill-rule:nonzero;stroke:none;stroke-width:0.99999988;stroke-linecap:butt;stroke-linejoin:round;stroke-miterlimit:4;stroke-dasharray:none;stroke-dashoffset:0;stroke-opacity:1;color-rendering:auto;image-rendering:auto;shape-rendering:auto;text-rendering:auto;enable-background:accumulate"
       inkscape:connector-curvature="0" />
    <path
       id="circle4178"
       d="m 3233.4141,-66.373047 c -1.951,5e-6 -3.543,1.59198 -3.543,3.542969 0,1.950989 1.592,3.542964 3.543,3.542969 1.951,-5e-6 3.5429,-1.59198 3.5429,-3.542969 0,-1.950989 -1.5919,-3.542964 -3.5429,-3.542969 z m 0,1 c 1.4105,3e-6 2.5429,1.132419 2.5429,2.542969 0,1.41055 -1.1324,2.542965 -2.5429,2.542969 -1.4106,-4e-6 -2.543,-1.132419 -2.543,-2.542969 0,-1.41055 1.1324,-2.542966 2.543,-2.542969 z"
       style="color:#000000;font-style:normal;font-variant:normal;font-weight:normal;font-stretch:normal;font-size:medium;line-height:normal;font-family:sans-serif;text-indent:0;text-align:start;text-decoration:none;text-decoration-line:none;text-decoration-style:solid;text-decoration-color:#000000;letter-spacing:normal;word-spacing:normal;text-transform:none;direction:ltr;block-progression:tb;writing-mode:lr-tb;baseline-shift:baseline;text-anchor:start;white-space:normal;clip-rule:nonzero;display:inline;overflow:visible;visibility:visible;opacity:1;isolation:auto;mix-blend-mode:normal;color-interpolation:sRGB;color-interpolation-filters:linearRGB;solid-color:#000000;solid-opacity:1;fill:#000000;fill-opacity:1;fill-rule:nonzero;stroke:none;stroke-width:0.99999988;stroke-linecap:butt;stroke-linejoin:round;stroke-miterlimit:4;stroke-dasharray:none;stroke-dashoffset:0;stroke-opacity:1;color-rendering:auto;image-rendering:auto;shape-rendering:auto;text-rendering:auto;enable-background:accumulate"
       inkscape:connector-curvature="0" />
    <path
       id="circle4180"
       d="m 3233.4141,-7.5351562 c -1.951,4.5e-6 -3.543,1.5919798 -3.543,3.5429687 0,1.9509889 1.592,3.54491732 3.543,3.54492188 1.951,-4.56e-6 3.5429,-1.59393298 3.5429,-3.54492188 0,-1.9509889 -1.5919,-3.5429642 -3.5429,-3.5429687 z m 0,1 c 1.4105,3.2e-6 2.5429,1.132419 2.5429,2.5429687 0,1.4105497 -1.1324,2.5449186 -2.5429,2.5449219 -1.4106,-3.3e-6 -2.543,-1.1343722 -2.543,-2.5449219 0,-1.4105497 1.1324,-2.5429655 2.543,-2.5429687 z"
       style="color:#000000;font-style:normal;font-variant:normal;font-weight:normal;font-stretch:normal;font-size:medium;line-height:normal;font-family:sans-serif;text-indent:0;text-align:start;text-decoration:none;text-decoration-line:none;text-decoration-style:solid;text-decoration-color:#000000;letter-spacing:normal;word-spacing:normal;text-transform:none;direction:ltr;block-progression:tb;writing-mode:lr-tb;baseline-shift:baseline;text-anchor:start;white-space:normal;clip-rule:nonzero;display:inline;overflow:visible;visibility:visible;opacity:1;isolation:auto;mix-blend-mode:normal;color-interpolation:sRGB;color-interpolation-filters:linearRGB;solid-color:#000000;solid-opacity:1;fill:#000000;fill-opacity:1;fill-rule:nonzero;stroke:none;stroke-width:0.99999988;stroke-linecap:butt;stroke-linejoin:round;stroke-miterlimit:4;stroke-dasharray:none;stroke-dashoffset:0;stroke-opacity:1;color-rendering:auto;image-rendering:auto;shape-rendering:auto;text-rendering:auto;enable-background:accumulate"
       inkscape:connector-curvature="0" />
    <path
       id="circle4182"
       d="m 3233.4141,217.81836 c -1.951,0 -3.543,1.59198 -3.543,3.54297 0,1.95098 1.592,3.54492 3.543,3.54492 1.9509,0 3.5429,-1.59394 3.5429,-3.54492 0,-1.95099 -1.5919,-3.54297 -3.5429,-3.54297 z m 0,1 c 1.4105,0 2.5429,1.13242 2.5429,2.54297 0,1.41055 -1.1324,2.54492 -2.5429,2.54492 -1.4106,0 -2.543,-1.13437 -2.543,-2.54492 0,-1.41055 1.1324,-2.54297 2.543,-2.54297 z"
       style="color:#000000;font-style:normal;font-variant:normal;font-weight:normal;font-stretch:normal;font-size:medium;line-height:normal;font-family:sans-serif;text-indent:0;text-align:start;text-decoration:none;text-decoration-line:none;text-decoration-style:solid;text-decoration-color:#000000;letter-spacing:normal;word-spacing:normal;text-transform:none;direction:ltr;block-progression:tb;writing-mode:lr-tb;baseline-shift:baseline;text-anchor:start;white-space:normal;clip-rule:nonzero;display:inline;overflow:visible;visibility:visible;opacity:1;isolation:auto;mix-blend-mode:normal;color-interpolation:sRGB;color-interpolation-filters:linearRGB;solid-color:#000000;solid-opacity:1;fill:#000000;fill-opacity:1;fill-rule:nonzero;stroke:none;stroke-width:0.99999988;stroke-linecap:butt;stroke-linejoin:round;stroke-miterlimit:4;stroke-dasharray:none;stroke-dashoffset:0;stroke-opacity:1;color-rendering:auto;image-rendering:auto;shape-rendering:auto;text-rendering:auto;enable-background:accumulate"
       inkscape:connector-curvature="0" />
    <path
       id="circle4184"
       d="m 3233.4141,70.722656 c -1.951,5e-6 -3.543,1.59198 -3.543,3.542969 0,1.950989 1.592,3.542964 3.543,3.542969 1.951,-5e-6 3.5429,-1.59198 3.5429,-3.542969 0,-1.950989 -1.5919,-3.542964 -3.5429,-3.542969 z m 0,1 c 1.4105,4e-6 2.5429,1.132419 2.5429,2.542969 0,1.41055 -1.1324,2.542965 -2.5429,2.542969 -1.4106,-4e-6 -2.543,-1.132419 -2.543,-2.542969 0,-1.41055 1.1324,-2.542965 2.543,-2.542969 z"
       style="color:#000000;font-style:normal;font-variant:normal;font-weight:normal;font-stretch:normal;font-size:medium;line-height:normal;font-family:sans-serif;text-indent:0;text-align:start;text-decoration:none;text-decoration-line:none;text-decoration-style:solid;text-decoration-color:#000000;letter-spacing:normal;word-spacing:normal;text-transform:none;direction:ltr;block-progression:tb;writing-mode:lr-tb;baseline-shift:baseline;text-anchor:start;white-space:normal;clip-rule:nonzero;display:inline;overflow:visible;visibility:visible;opacity:1;isolation:auto;mix-blend-mode:normal;color-interpolation:sRGB;color-interpolation-filters:linearRGB;solid-color:#000000;solid-opacity:1;fill:#000000;fill-opacity:1;fill-rule:nonzero;stroke:none;stroke-width:0.99999988;stroke-linecap:butt;stroke-linejoin:round;stroke-miterlimit:4;stroke-dasharray:none;stroke-dashoffset:0;stroke-opacity:1;color-rendering:auto;image-rendering:auto;shape-rendering:auto;text-rendering:auto;enable-background:accumulate"
       inkscape:connector-curvature="0" />
    <path
       id="circle4186"
       d="m 3233.4141,51.302734 c -1.951,5e-6 -3.543,1.593933 -3.543,3.544922 0,1.95099 1.592,3.542964 3.543,3.542969 1.951,-5e-6 3.5429,-1.591979 3.5429,-3.542969 0,-1.950989 -1.5919,-3.544917 -3.5429,-3.544922 z m 0,1 c 1.4105,4e-6 2.5429,1.134373 2.5429,2.544922 0,1.41055 -1.1324,2.542966 -2.5429,2.542969 -1.4106,-3e-6 -2.543,-1.132419 -2.543,-2.542969 0,-1.410549 1.1324,-2.544918 2.543,-2.544922 z"
       style="color:#000000;font-style:normal;font-variant:normal;font-weight:normal;font-stretch:normal;font-size:medium;line-height:normal;font-family:sans-serif;text-indent:0;text-align:start;text-decoration:none;text-decoration-line:none;text-decoration-style:solid;text-decoration-color:#000000;letter-spacing:normal;word-spacing:normal;text-transform:none;direction:ltr;block-progression:tb;writing-mode:lr-tb;baseline-shift:baseline;text-anchor:start;white-space:normal;clip-rule:nonzero;display:inline;overflow:visible;visibility:visible;opacity:1;isolation:auto;mix-blend-mode:normal;color-interpolation:sRGB;color-interpolation-filters:linearRGB;solid-color:#000000;solid-opacity:1;fill:#000000;fill-opacity:1;fill-rule:nonzero;stroke:none;stroke-width:0.99999988;stroke-linecap:butt;stroke-linejoin:round;stroke-miterlimit:4;stroke-dasharray:none;stroke-dashoffset:0;stroke-opacity:1;color-rendering:auto;image-rendering:auto;shape-rendering:auto;text-rendering:auto;enable-background:accumulate"
       inkscape:connector-curvature="0" />
    <path
       id="circle4188"
       d="m 3233.4141,125.56055 c -1.951,0 -3.543,1.59393 -3.543,3.54492 0,1.95098 1.592,3.54296 3.543,3.54297 1.9509,-1e-5 3.5429,-1.59199 3.5429,-3.54297 0,-1.95099 -1.5919,-3.54492 -3.5429,-3.54492 z m 0,1 c 1.4105,0 2.5429,1.13437 2.5429,2.54492 0,1.41055 -1.1324,2.54296 -2.5429,2.54297 -1.4106,-1e-5 -2.543,-1.13242 -2.543,-2.54297 0,-1.41055 1.1324,-2.54492 2.543,-2.54492 z"
       style="color:#000000;font-style:normal;font-variant:normal;font-weight:normal;font-stretch:normal;font-size:medium;line-height:normal;font-family:sans-serif;text-indent:0;text-align:start;text-decoration:none;text-decoration-line:none;text-decoration-style:solid;text-decoration-color:#000000;letter-spacing:normal;word-spacing:normal;text-transform:none;direction:ltr;block-progression:tb;writing-mode:lr-tb;baseline-shift:baseline;text-anchor:start;white-space:normal;clip-rule:nonzero;display:inline;overflow:visible;visibility:visible;opacity:1;isolation:auto;mix-blend-mode:normal;color-interpolation:sRGB;color-interpolation-filters:linearRGB;solid-color:#000000;solid-opacity:1;fill:#000000;fill-opacity:1;fill-rule:nonzero;stroke:none;stroke-width:0.99999988;stroke-linecap:butt;stroke-linejoin:round;stroke-miterlimit:4;stroke-dasharray:none;stroke-dashoffset:0;stroke-opacity:1;color-rendering:auto;image-rendering:auto;shape-rendering:auto;text-rendering:auto;enable-background:accumulate"
       inkscape:connector-curvature="0" />
    <path
       id="circle4190"
       d="m 3233.4141,164.98047 c -1.951,0 -3.543,1.59198 -3.543,3.54297 0,1.95099 1.592,3.54296 3.543,3.54297 1.951,-1e-5 3.5429,-1.59198 3.5429,-3.54297 0,-1.95099 -1.5919,-3.54297 -3.5429,-3.54297 z m 0,1 c 1.4105,0 2.5429,1.13242 2.5429,2.54297 0,1.41055 -1.1324,2.54296 -2.5429,2.54297 -1.4106,-1e-5 -2.543,-1.13242 -2.543,-2.54297 0,-1.41055 1.1324,-2.54297 2.543,-2.54297 z"
       style="color:#000000;font-style:normal;font-variant:normal;font-weight:normal;font-stretch:normal;font-size:medium;line-height:normal;font-family:sans-serif;text-indent:0;text-align:start;text-decoration:none;text-decoration-line:none;text-decoration-style:solid;text-decoration-color:#000000;letter-spacing:normal;word-spacing:normal;text-transform:none;direction:ltr;block-progression:tb;writing-mode:lr-tb;baseline-shift:baseline;text-anchor:start;white-space:normal;clip-rule:nonzero;display:inline;overflow:visible;visibility:visible;opacity:1;isolation:auto;mix-blend-mode:normal;color-interpolation:sRGB;color-interpolation-filters:linearRGB;solid-color:#000000;solid-opacity:1;fill:#000000;fill-opacity:1;fill-rule:nonzero;stroke:none;stroke-width:0.99999988;stroke-linecap:butt;stroke-linejoin:round;stroke-miterlimit:4;stroke-dasharray:none;stroke-dashoffset:0;stroke-opacity:1;color-rendering:auto;image-rendering:auto;shape-rendering:auto;text-rendering:auto;enable-background:accumulate"
       inkscape:connector-curvature="0" />
    <path
       id="circle4192"
       d="m 3233.4141,270.65625 c -1.951,0 -3.543,1.59393 -3.543,3.54492 0,1.95099 1.592,3.54297 3.543,3.54297 1.951,0 3.5429,-1.59198 3.5429,-3.54297 0,-1.95099 -1.5919,-3.54492 -3.5429,-3.54492 z m 0,1 c 1.4105,0 2.5429,1.13437 2.5429,2.54492 0,1.41055 -1.1324,2.54297 -2.5429,2.54297 -1.4106,0 -2.543,-1.13242 -2.543,-2.54297 0,-1.41055 1.1324,-2.54492 2.543,-2.54492 z"
       style="color:#000000;font-style:normal;font-variant:normal;font-weight:normal;font-stretch:normal;font-size:medium;line-height:normal;font-family:sans-serif;text-indent:0;text-align:start;text-decoration:none;text-decoration-line:none;text-decoration-style:solid;text-decoration-color:#000000;letter-spacing:normal;word-spacing:normal;text-transform:none;direction:ltr;block-progression:tb;writing-mode:lr-tb;baseline-shift:baseline;text-anchor:start;white-space:normal;clip-rule:nonzero;display:inline;overflow:visible;visibility:visible;opacity:1;isolation:auto;mix-blend-mode:normal;color-interpolation:sRGB;color-interpolation-filters:linearRGB;solid-color:#000000;solid-opacity:1;fill:#000000;fill-opacity:1;fill-rule:nonzero;stroke:none;stroke-width:0.99999988;stroke-linecap:butt;stroke-linejoin:round;stroke-miterlimit:4;stroke-dasharray:none;stroke-dashoffset:0;stroke-opacity:1;color-rendering:auto;image-rendering:auto;shape-rendering:auto;text-rendering:auto;enable-background:accumulate"
       inkscape:connector-curvature="0" />
    <path
       style="color:#000000;clip-rule:nonzero;display:inline;overflow:visible;visibility:visible;opacity:1;isolation:auto;mix-blend-mode:normal;color-interpolation:sRGB;color-interpolation-filters:linearRGB;solid-color:#000000;solid-opacity:1;fill:none;fill-opacity:1;fill-rule:nonzero;stroke:#000000;stroke-width:1.70196295;stroke-linecap:butt;stroke-linejoin:round;stroke-miterlimit:4;stroke-dasharray:none;stroke-dashoffset:0;stroke-opacity:1;color-rendering:auto;image-rendering:auto;shape-rendering:auto;text-rendering:auto;enable-background:accumulate"
       id="path9024"
       d="M 4428.471,353.33199 3792.684,248.3422 3565.7144,851.44475 3338.7447,248.34218 l -635.787,104.9898 408.8174,-498.11278 -408.8174,-498.11274 635.787,104.98979 226.9697,-603.10255 226.9696,603.10257 635.787,-104.98981 -408.8173,498.11279 z"
       transform="matrix(0.63120547,0,0,0.54692585,983.09769,473.73013)"
       inkscape:connector-curvature="0" />
  </g>
</svg>
