  0
SECTION
  2
HEADER
  9
$ACADVER
  1
AC1014
  9
$HANDSEED
  5
FFFF
  9
$MEASUREMENT
 70
     1
  0
ENDSEC
  0
SECTION
  2
TABLES
  0
TABLE
  2
VPORT
  5
8
330
0
100
AcDbSymbolTable
 70
     4
  0
VPORT
  5
2E
330
8
100
AcDbSymbolTableRecord
100
AcDbViewportTableRecord
  2
*ACTIVE
 70
     0
 10
0.0
 20
0.0
 11
1.0
 21
1.0
 12
210.0
 22
148.5
 13
0.0
 23
0.0
 14
10.0
 24
10.0
 15
10.0
 25
10.0
 16
0.0
 26
0.0
 36
1.0
 17
0.0
 27
0.0
 37
0.0
 40
341.0
 41
1.24
 42
50.0
 43
0.0
 44
0.0
 50
0.0
 51
0.0
 71
     0
 72
   100
 73
     1
 74
     3
 75
     0
 76
     0
 77
     0
 78
     0
  0
ENDTAB
  0
TABLE
  2
LTYPE
  5
5
330
0
100
AcDbSymbolTable
 70
     1
  0
LTYPE
  5
14
330
5
100
AcDbSymbolTableRecord
100
AcDbLinetypeTableRecord
  2
BYBLOCK
 70
     0
  3

 72
    65
 73
     0
 40
0.0
  0
LTYPE
  5
15
330
5
100
AcDbSymbolTableRecord
100
AcDbLinetypeTableRecord
  2
BYLAYER
 70
     0
  3

 72
    65
 73
     0
 40
0.0
  0
LTYPE
  5
16
330
5
100
AcDbSymbolTableRecord
100
AcDbLinetypeTableRecord
  2
CONTINUOUS
 70
     0
  3
Solid line
 72
    65
 73
     0
 40
0.0
  0
ENDTAB
  0
TABLE
  2
LAYER
  5
2
100
AcDbSymbolTable
 70
2
  0
LAYER
  5
50
100
AcDbSymbolTableRecord
100
AcDbLayerTableRecord
  2
0
 70
0
  6
CONTINUOUS
  0
LAYER
  5
51
100
AcDbSymbolTableRecord
100
AcDbLayerTableRecord
  2
Calque_1
 70
0
  6
CONTINUOUS
  0
ENDTAB
  0
TABLE
  2
STYLE
  5
3
330
0
100
AcDbSymbolTable
 70
     1
  0
STYLE
  5
11
330
3
100
AcDbSymbolTableRecord
100
AcDbTextStyleTableRecord
  2
STANDARD
 70
     0
 40
0.0
 41
1.0
 50
0.0
 71
     0
 42
2.5
  3
txt
  4

  0
ENDTAB
  0
TABLE
  2
VIEW
  5
6
330
0
100
AcDbSymbolTable
 70
     0
  0
ENDTAB
  0
TABLE
  2
UCS
  5
7
330
0
100
AcDbSymbolTable
 70
     0
  0
ENDTAB
  0
TABLE
  2
APPID
  5
9
330
0
100
AcDbSymbolTable
 70
     2
  0
APPID
  5
12
330
9
100
AcDbSymbolTableRecord
100
AcDbRegAppTableRecord
  2
ACAD
 70
     0
  0
ENDTAB
  0
TABLE
  2
DIMSTYLE
  5
A
330
0
100
AcDbSymbolTable
 70
     1
  0
DIMSTYLE
105
27
330
A
100
AcDbSymbolTableRecord
100
AcDbDimStyleTableRecord
  2
ISO-25
 70
     0
  3

  4

  5

  6

  7

 40
1.0
 41
2.5
 42
0.625
 43
3.75
 44
1.25
 45
0.0
 46
0.0
 47
0.0
 48
0.0
140
2.5
141
2.5
142
0.0
143
0.03937007874016
144
1.0
145
0.0
146
1.0
147
0.625
 71
     0
 72
     0
 73
     0
 74
     0
 75
     0
 76
     0
 77
     1
 78
     8
170
     0
171
     3
172
     1
173
     0
174
     0
175
     0
176
     0
177
     0
178
     0
270
     2
271
     2
272
     2
273
     2
274
     3
340
11
275
     0
280
     0
281
     0
282
     0
283
     0
284
     8
285
     0
286
     0
287
     3
288
     0
  0
ENDTAB
  0
TABLE
  2
BLOCK_RECORD
  5
1
330
0
100
AcDbSymbolTable
 70
     1
  0
BLOCK_RECORD
  5
1F
330
1
100
AcDbSymbolTableRecord
100
AcDbBlockTableRecord
  2
*MODEL_SPACE
  0
BLOCK_RECORD
  5
1B
330
1
100
AcDbSymbolTableRecord
100
AcDbBlockTableRecord
  2
*PAPER_SPACE
  0
ENDTAB
  0
ENDSEC
  0
SECTION
  2
BLOCKS
  0
BLOCK
  5
20
330
1F
100
AcDbEntity
  8
0
100
AcDbBlockBegin
  2
*MODEL_SPACE
 70
     0
 10
0.0
 20
0.0
 30
0.0
  3
*MODEL_SPACE
  1

  0
ENDBLK
  5
21
330
1F
100
AcDbEntity
  8
0
100
AcDbBlockEnd
  0
BLOCK
  5
1C
330
1B
100
AcDbEntity
 67
     1
  8
0
100
AcDbBlockBegin
  2
*PAPER_SPACE
  1

  0
ENDBLK
  5
1D
330
1B
100
AcDbEntity
 67
     1
  8
0
100
AcDbBlockEnd
  0
ENDSEC
  0
SECTION
  2
ENTITIES
  0
LINE
  5
100
100
AcDbEntity
  8
Calque_1
 62
7
100
AcDbLine
 10
1066.340771
 20
108.764394
 30
0.0
 11
953.081541
 21
124.970054
 31
0.0
  0
LINE
  5
101
100
AcDbEntity
  8
Calque_1
 62
7
100
AcDbLine
 10
953.081541
 20
124.970054
 30
0.0
 11
912.649128
 21
31.878384
 31
0.0
  0
LINE
  5
102
100
AcDbEntity
  8
Calque_1
 62
7
100
AcDbLine
 10
912.649128
 20
31.878384
 30
0.0
 11
872.216698
 21
124.970057
 31
0.0
  0
LINE
  5
103
100
AcDbEntity
  8
Calque_1
 62
7
100
AcDbLine
 10
872.216698
 20
124.970057
 30
0.0
 11
758.957468
 21
108.764396
 31
0.0
  0
LINE
  5
104
100
AcDbEntity
  8
Calque_1
 62
7
100
AcDbLine
 10
758.957468
 20
108.764396
 30
0.0
 11
831.784286
 21
185.650409
 31
0.0
  0
LINE
  5
105
100
AcDbEntity
  8
Calque_1
 62
7
100
AcDbLine
 10
831.784286
 20
185.650409
 30
0.0
 11
758.957468
 21
262.536416
 31
0.0
  0
LINE
  5
106
100
AcDbEntity
  8
Calque_1
 62
7
100
AcDbLine
 10
758.957468
 20
262.536416
 30
0.0
 11
872.216698
 21
246.330756
 31
0.0
  0
LINE
  5
107
100
AcDbEntity
  8
Calque_1
 62
7
100
AcDbLine
 10
872.216698
 20
246.330756
 30
0.0
 11
912.649128
 21
339.422426
 31
0.0
  0
LINE
  5
108
100
AcDbEntity
  8
Calque_1
 62
7
100
AcDbLine
 10
912.649128
 20
339.422426
 30
0.0
 11
953.081541
 21
246.330753
 31
0.0
  0
LINE
  5
109
100
AcDbEntity
  8
Calque_1
 62
7
100
AcDbLine
 10
953.081541
 20
246.330753
 30
0.0
 11
1066.340771
 21
262.536416
 31
0.0
  0
LINE
  5
10a
100
AcDbEntity
  8
Calque_1
 62
7
100
AcDbLine
 10
1066.340771
 20
262.536416
 30
0.0
 11
993.513971
 21
185.650401
 31
0.0
  0
LINE
  5
10b
100
AcDbEntity
  8
Calque_1
 62
7
100
AcDbLine
 10
993.513971
 20
185.650401
 30
0.0
 11
1066.340771
 21
108.764394
 31
0.0
  0
LINE
  5
10c
100
AcDbEntity
  8
Calque_1
 62
7
100
AcDbLine
 10
1032.150413
 20
125.868509
 30
0.0
 11
944.086914
 21
138.469047
 31
0.0
  0
LINE
  5
10d
100
AcDbEntity
  8
Calque_1
 62
7
100
AcDbLine
 10
944.086914
 20
138.469047
 30
0.0
 11
912.649126
 21
66.086610
 31
0.0
  0
LINE
  5
10e
100
AcDbEntity
  8
Calque_1
 62
7
100
AcDbLine
 10
912.649126
 20
66.086610
 30
0.0
 11
881.211324
 21
138.469049
 31
0.0
  0
LINE
  5
10f
100
AcDbEntity
  8
Calque_1
 62
7
100
AcDbLine
 10
881.211324
 20
138.469049
 30
0.0
 11
793.147825
 21
125.868510
 31
0.0
  0
LINE
  5
110
100
AcDbEntity
  8
Calque_1
 62
7
100
AcDbLine
 10
793.147825
 20
125.868510
 30
0.0
 11
849.773536
 21
185.650411
 31
0.0
  0
LINE
  5
111
100
AcDbEntity
  8
Calque_1
 62
7
100
AcDbLine
 10
849.773536
 20
185.650411
 30
0.0
 11
793.147825
 21
245.432307
 31
0.0
  0
LINE
  5
112
100
AcDbEntity
  8
Calque_1
 62
7
100
AcDbLine
 10
793.147825
 20
245.432307
 30
0.0
 11
881.211324
 21
232.831768
 31
0.0
  0
LINE
  5
113
100
AcDbEntity
  8
Calque_1
 62
7
100
AcDbLine
 10
881.211324
 20
232.831768
 30
0.0
 11
912.649126
 21
305.214205
 31
0.0
  0
LINE
  5
114
100
AcDbEntity
  8
Calque_1
 62
7
100
AcDbLine
 10
912.649126
 20
305.214205
 30
0.0
 11
944.086914
 21
232.831766
 31
0.0
  0
LINE
  5
115
100
AcDbEntity
  8
Calque_1
 62
7
100
AcDbLine
 10
944.086914
 20
232.831766
 30
0.0
 11
1032.150413
 21
245.432307
 31
0.0
  0
LINE
  5
116
100
AcDbEntity
  8
Calque_1
 62
7
100
AcDbLine
 10
1032.150413
 20
245.432307
 30
0.0
 11
975.524717
 21
185.650405
 31
0.0
  0
LINE
  5
117
100
AcDbEntity
  8
Calque_1
 62
7
100
AcDbLine
 10
975.524717
 20
185.650405
 30
0.0
 11
1032.150413
 21
125.868509
 31
0.0
  0
LINE
  5
118
100
AcDbEntity
  8
Calque_1
 62
7
100
AcDbLine
 10
1000.426890
 20
141.738570
 30
0.0
 11
935.741259
 21
150.994094
 31
0.0
  0
LINE
  5
119
100
AcDbEntity
  8
Calque_1
 62
7
100
AcDbLine
 10
935.741259
 20
150.994094
 30
0.0
 11
912.649136
 21
97.826729
 31
0.0
  0
LINE
  5
11a
100
AcDbEntity
  8
Calque_1
 62
7
100
AcDbLine
 10
912.649136
 20
97.826729
 30
0.0
 11
889.557002
 21
150.994096
 31
0.0
  0
LINE
  5
11b
100
AcDbEntity
  8
Calque_1
 62
7
100
AcDbLine
 10
889.557002
 20
150.994096
 30
0.0
 11
824.871371
 21
141.738571
 31
0.0
  0
LINE
  5
11c
100
AcDbEntity
  8
Calque_1
 62
7
100
AcDbLine
 10
824.871371
 20
141.738571
 30
0.0
 11
866.464879
 21
185.650413
 31
0.0
  0
LINE
  5
11d
100
AcDbEntity
  8
Calque_1
 62
7
100
AcDbLine
 10
866.464879
 20
185.650413
 30
0.0
 11
824.871371
 21
229.562252
 31
0.0
  0
LINE
  5
11e
100
AcDbEntity
  8
Calque_1
 62
7
100
AcDbLine
 10
824.871371
 20
229.562252
 30
0.0
 11
889.557002
 21
220.306728
 31
0.0
  0
LINE
  5
11f
100
AcDbEntity
  8
Calque_1
 62
7
100
AcDbLine
 10
889.557002
 20
220.306728
 30
0.0
 11
912.649136
 21
273.474093
 31
0.0
  0
LINE
  5
120
100
AcDbEntity
  8
Calque_1
 62
7
100
AcDbLine
 10
912.649136
 20
273.474093
 30
0.0
 11
935.741259
 21
220.306726
 31
0.0
  0
LINE
  5
121
100
AcDbEntity
  8
Calque_1
 62
7
100
AcDbLine
 10
935.741259
 20
220.306726
 30
0.0
 11
1000.426890
 21
229.562252
 31
0.0
  0
LINE
  5
122
100
AcDbEntity
  8
Calque_1
 62
7
100
AcDbLine
 10
1000.426890
 20
229.562252
 30
0.0
 11
958.833392
 21
185.650409
 31
0.0
  0
LINE
  5
123
100
AcDbEntity
  8
Calque_1
 62
7
100
AcDbLine
 10
958.833392
 20
185.650409
 30
0.0
 11
1000.426890
 21
141.738570
 31
0.0
  0
LINE
  5
124
100
AcDbEntity
  8
Calque_1
 62
7
100
AcDbLine
 10
967.292454
 20
158.314457
 30
0.0
 11
927.024426
 21
164.076198
 31
0.0
  0
LINE
  5
125
100
AcDbEntity
  8
Calque_1
 62
7
100
AcDbLine
 10
927.024426
 20
164.076198
 30
0.0
 11
912.649142
 21
130.978499
 31
0.0
  0
LINE
  5
126
100
AcDbEntity
  8
Calque_1
 62
7
100
AcDbLine
 10
912.649142
 20
130.978499
 30
0.0
 11
898.273853
 21
164.076199
 31
0.0
  0
LINE
  5
127
100
AcDbEntity
  8
Calque_1
 62
7
100
AcDbLine
 10
898.273853
 20
164.076199
 30
0.0
 11
858.005824
 21
158.314458
 31
0.0
  0
LINE
  5
128
100
AcDbEntity
  8
Calque_1
 62
7
100
AcDbLine
 10
858.005824
 20
158.314458
 30
0.0
 11
883.898569
 21
185.650417
 31
0.0
  0
LINE
  5
129
100
AcDbEntity
  8
Calque_1
 62
7
100
AcDbLine
 10
883.898569
 20
185.650417
 30
0.0
 11
858.005824
 21
212.986375
 31
0.0
  0
LINE
  5
12a
100
AcDbEntity
  8
Calque_1
 62
7
100
AcDbLine
 10
858.005824
 20
212.986375
 30
0.0
 11
898.273853
 21
207.224634
 31
0.0
  0
LINE
  5
12b
100
AcDbEntity
  8
Calque_1
 62
7
100
AcDbLine
 10
898.273853
 20
207.224634
 30
0.0
 11
912.649142
 21
240.322333
 31
0.0
  0
LINE
  5
12c
100
AcDbEntity
  8
Calque_1
 62
7
100
AcDbLine
 10
912.649142
 20
240.322333
 30
0.0
 11
927.024426
 21
207.224633
 31
0.0
  0
LINE
  5
12d
100
AcDbEntity
  8
Calque_1
 62
7
100
AcDbLine
 10
927.024426
 20
207.224633
 30
0.0
 11
967.292454
 21
212.986375
 31
0.0
  0
LINE
  5
12e
100
AcDbEntity
  8
Calque_1
 62
7
100
AcDbLine
 10
967.292454
 20
212.986375
 30
0.0
 11
941.399715
 21
185.650415
 31
0.0
  0
LINE
  5
12f
100
AcDbEntity
  8
Calque_1
 62
7
100
AcDbLine
 10
941.399715
 20
185.650415
 30
0.0
 11
967.292454
 21
158.314457
 31
0.0
  0
LINE
  5
130
100
AcDbEntity
  8
Calque_1
 62
7
100
AcDbLine
 10
938.385992
 20
172.775252
 30
0.0
 11
919.419854
 21
175.489019
 31
0.0
  0
LINE
  5
131
100
AcDbEntity
  8
Calque_1
 62
7
100
AcDbLine
 10
919.419854
 20
175.489019
 30
0.0
 11
912.649133
 21
159.900080
 31
0.0
  0
LINE
  5
132
100
AcDbEntity
  8
Calque_1
 62
7
100
AcDbLine
 10
912.649133
 20
159.900080
 30
0.0
 11
905.878408
 21
175.489019
 31
0.0
  0
LINE
  5
133
100
AcDbEntity
  8
Calque_1
 62
7
100
AcDbLine
 10
905.878408
 20
175.489019
 30
0.0
 11
886.912270
 21
172.775253
 31
0.0
  0
LINE
  5
134
100
AcDbEntity
  8
Calque_1
 62
7
100
AcDbLine
 10
886.912270
 20
172.775253
 30
0.0
 11
899.107686
 21
185.650425
 31
0.0
  0
LINE
  5
135
100
AcDbEntity
  8
Calque_1
 62
7
100
AcDbLine
 10
899.107686
 20
185.650425
 30
0.0
 11
886.912270
 21
198.525597
 31
0.0
  0
LINE
  5
136
100
AcDbEntity
  8
Calque_1
 62
7
100
AcDbLine
 10
886.912270
 20
198.525597
 30
0.0
 11
905.878408
 21
195.811830
 31
0.0
  0
LINE
  5
137
100
AcDbEntity
  8
Calque_1
 62
7
100
AcDbLine
 10
905.878408
 20
195.811830
 30
0.0
 11
912.649133
 21
211.400769
 31
0.0
  0
LINE
  5
138
100
AcDbEntity
  8
Calque_1
 62
7
100
AcDbLine
 10
912.649133
 20
211.400769
 30
0.0
 11
919.419854
 21
195.811830
 31
0.0
  0
LINE
  5
139
100
AcDbEntity
  8
Calque_1
 62
7
100
AcDbLine
 10
919.419854
 20
195.811830
 30
0.0
 11
938.385992
 21
198.525597
 31
0.0
  0
LINE
  5
13a
100
AcDbEntity
  8
Calque_1
 62
7
100
AcDbLine
 10
938.385992
 20
198.525597
 30
0.0
 11
926.190579
 21
185.650424
 31
0.0
  0
LINE
  5
13b
100
AcDbEntity
  8
Calque_1
 62
7
100
AcDbLine
 10
926.190579
 20
185.650424
 30
0.0
 11
938.385992
 21
172.775252
 31
0.0
  0
LINE
  5
13c
100
AcDbEntity
  8
Calque_1
 62
7
100
AcDbLine
 10
1050.001550
 20
116.938281
 30
0.0
 11
948.783111
 21
131.421089
 31
0.0
  0
LINE
  5
13d
100
AcDbEntity
  8
Calque_1
 62
7
100
AcDbLine
 10
948.783111
 20
131.421089
 30
0.0
 11
912.649140
 21
48.226157
 31
0.0
  0
LINE
  5
13e
100
AcDbEntity
  8
Calque_1
 62
7
100
AcDbLine
 10
912.649140
 20
48.226157
 30
0.0
 11
876.515154
 21
131.421092
 31
0.0
  0
LINE
  5
13f
100
AcDbEntity
  8
Calque_1
 62
7
100
AcDbLine
 10
876.515154
 20
131.421092
 30
0.0
 11
775.296715
 21
116.938283
 31
0.0
  0
LINE
  5
140
100
AcDbEntity
  8
Calque_1
 62
7
100
AcDbLine
 10
775.296715
 20
116.938283
 30
0.0
 11
840.381184
 21
185.650410
 31
0.0
  0
LINE
  5
141
100
AcDbEntity
  8
Calque_1
 62
7
100
AcDbLine
 10
840.381184
 20
185.650410
 30
0.0
 11
775.296715
 21
254.362531
 31
0.0
  0
LINE
  5
142
100
AcDbEntity
  8
Calque_1
 62
7
100
AcDbLine
 10
775.296715
 20
254.362531
 30
0.0
 11
876.515154
 21
239.879723
 31
0.0
  0
LINE
  5
143
100
AcDbEntity
  8
Calque_1
 62
7
100
AcDbLine
 10
876.515154
 20
239.879723
 30
0.0
 11
912.649140
 21
323.074656
 31
0.0
  0
LINE
  5
144
100
AcDbEntity
  8
Calque_1
 62
7
100
AcDbLine
 10
912.649140
 20
323.074656
 30
0.0
 11
948.783111
 21
239.879721
 31
0.0
  0
LINE
  5
145
100
AcDbEntity
  8
Calque_1
 62
7
100
AcDbLine
 10
948.783111
 20
239.879721
 30
0.0
 11
1050.001550
 21
254.362531
 31
0.0
  0
LINE
  5
146
100
AcDbEntity
  8
Calque_1
 62
7
100
AcDbLine
 10
1050.001550
 20
254.362531
 30
0.0
 11
984.917097
 21
185.650403
 31
0.0
  0
LINE
  5
147
100
AcDbEntity
  8
Calque_1
 62
7
100
AcDbLine
 10
984.917097
 20
185.650403
 30
0.0
 11
1050.001550
 21
116.938281
 31
0.0
  0
LINE
  5
148
100
AcDbEntity
  8
Calque_1
 62
7
100
AcDbLine
 10
1017.694273
 20
133.100353
 30
0.0
 11
940.283859
 21
144.176599
 31
0.0
  0
LINE
  5
149
100
AcDbEntity
  8
Calque_1
 62
7
100
AcDbLine
 10
940.283859
 20
144.176599
 30
0.0
 11
912.649115
 21
80.550297
 31
0.0
  0
LINE
  5
14a
100
AcDbEntity
  8
Calque_1
 62
7
100
AcDbLine
 10
912.649115
 20
80.550297
 30
0.0
 11
885.014359
 21
144.176601
 31
0.0
  0
LINE
  5
14b
100
AcDbEntity
  8
Calque_1
 62
7
100
AcDbLine
 10
885.014359
 20
144.176601
 30
0.0
 11
807.603945
 21
133.100354
 31
0.0
  0
LINE
  5
14c
100
AcDbEntity
  8
Calque_1
 62
7
100
AcDbLine
 10
807.603945
 20
133.100354
 30
0.0
 11
857.379616
 21
185.650412
 31
0.0
  0
LINE
  5
14d
100
AcDbEntity
  8
Calque_1
 62
7
100
AcDbLine
 10
857.379616
 20
185.650412
 30
0.0
 11
807.603945
 21
238.200466
 31
0.0
  0
LINE
  5
14e
100
AcDbEntity
  8
Calque_1
 62
7
100
AcDbLine
 10
807.603945
 20
238.200466
 30
0.0
 11
885.014359
 21
227.124220
 31
0.0
  0
LINE
  5
14f
100
AcDbEntity
  8
Calque_1
 62
7
100
AcDbLine
 10
885.014359
 20
227.124220
 30
0.0
 11
912.649115
 21
290.750522
 31
0.0
  0
LINE
  5
150
100
AcDbEntity
  8
Calque_1
 62
7
100
AcDbLine
 10
912.649115
 20
290.750522
 30
0.0
 11
940.283859
 21
227.124218
 31
0.0
  0
LINE
  5
151
100
AcDbEntity
  8
Calque_1
 62
7
100
AcDbLine
 10
940.283859
 20
227.124218
 30
0.0
 11
1017.694273
 21
238.200466
 31
0.0
  0
LINE
  5
152
100
AcDbEntity
  8
Calque_1
 62
7
100
AcDbLine
 10
1017.694273
 20
238.200466
 30
0.0
 11
967.918615
 21
185.650407
 31
0.0
  0
LINE
  5
153
100
AcDbEntity
  8
Calque_1
 62
7
100
AcDbLine
 10
967.918615
 20
185.650407
 30
0.0
 11
1017.694273
 21
133.100353
 31
0.0
  0
LINE
  5
154
100
AcDbEntity
  8
Calque_1
 62
7
100
AcDbLine
 10
982.979332
 20
150.466917
 30
0.0
 11
931.151250
 21
157.882724
 31
0.0
  0
LINE
  5
155
100
AcDbEntity
  8
Calque_1
 62
7
100
AcDbLine
 10
931.151250
 20
157.882724
 30
0.0
 11
912.649144
 21
115.283420
 31
0.0
  0
LINE
  5
156
100
AcDbEntity
  8
Calque_1
 62
7
100
AcDbLine
 10
912.649144
 20
115.283420
 30
0.0
 11
894.147029
 21
157.882725
 31
0.0
  0
LINE
  5
157
100
AcDbEntity
  8
Calque_1
 62
7
100
AcDbLine
 10
894.147029
 20
157.882725
 30
0.0
 11
842.318947
 21
150.466918
 31
0.0
  0
LINE
  5
158
100
AcDbEntity
  8
Calque_1
 62
7
100
AcDbLine
 10
842.318947
 20
150.466918
 30
0.0
 11
875.644922
 21
185.650416
 31
0.0
  0
LINE
  5
159
100
AcDbEntity
  8
Calque_1
 62
7
100
AcDbLine
 10
875.644922
 20
185.650416
 30
0.0
 11
842.318947
 21
220.833911
 31
0.0
  0
LINE
  5
15a
100
AcDbEntity
  8
Calque_1
 62
7
100
AcDbLine
 10
842.318947
 20
220.833911
 30
0.0
 11
894.147029
 21
213.418104
 31
0.0
  0
LINE
  5
15b
100
AcDbEntity
  8
Calque_1
 62
7
100
AcDbLine
 10
894.147029
 20
213.418104
 30
0.0
 11
912.649144
 21
256.017408
 31
0.0
  0
LINE
  5
15c
100
AcDbEntity
  8
Calque_1
 62
7
100
AcDbLine
 10
912.649144
 20
256.017408
 30
0.0
 11
931.151250
 21
213.418103
 31
0.0
  0
LINE
  5
15d
100
AcDbEntity
  8
Calque_1
 62
7
100
AcDbLine
 10
931.151250
 20
213.418103
 30
0.0
 11
982.979332
 21
220.833911
 31
0.0
  0
LINE
  5
15e
100
AcDbEntity
  8
Calque_1
 62
7
100
AcDbLine
 10
982.979332
 20
220.833911
 30
0.0
 11
949.653365
 21
185.650412
 31
0.0
  0
LINE
  5
15f
100
AcDbEntity
  8
Calque_1
 62
7
100
AcDbLine
 10
949.653365
 20
185.650412
 30
0.0
 11
982.979332
 21
150.466917
 31
0.0
  0
LINE
  5
160
100
AcDbEntity
  8
Calque_1
 62
7
100
AcDbLine
 10
952.834938
 20
165.547006
 30
0.0
 11
923.221022
 21
169.784306
 31
0.0
  0
LINE
  5
161
100
AcDbEntity
  8
Calque_1
 62
7
100
AcDbLine
 10
923.221022
 20
169.784306
 30
0.0
 11
912.649151
 21
145.443591
 31
0.0
  0
LINE
  5
162
100
AcDbEntity
  8
Calque_1
 62
7
100
AcDbLine
 10
912.649151
 20
145.443591
 30
0.0
 11
902.077275
 21
169.784307
 31
0.0
  0
LINE
  5
163
100
AcDbEntity
  8
Calque_1
 62
7
100
AcDbLine
 10
902.077275
 20
169.784307
 30
0.0
 11
872.463359
 21
165.547006
 31
0.0
  0
LINE
  5
164
100
AcDbEntity
  8
Calque_1
 62
7
100
AcDbLine
 10
872.463359
 20
165.547006
 30
0.0
 11
891.505403
 21
185.650421
 31
0.0
  0
LINE
  5
165
100
AcDbEntity
  8
Calque_1
 62
7
100
AcDbLine
 10
891.505403
 20
185.650421
 30
0.0
 11
872.463359
 21
205.753835
 31
0.0
  0
LINE
  5
166
100
AcDbEntity
  8
Calque_1
 62
7
100
AcDbLine
 10
872.463359
 20
205.753835
 30
0.0
 11
902.077275
 21
201.516535
 31
0.0
  0
LINE
  5
167
100
AcDbEntity
  8
Calque_1
 62
7
100
AcDbLine
 10
902.077275
 20
201.516535
 30
0.0
 11
912.649151
 21
225.857249
 31
0.0
  0
LINE
  5
168
100
AcDbEntity
  8
Calque_1
 62
7
100
AcDbLine
 10
912.649151
 20
225.857249
 30
0.0
 11
923.221022
 21
201.516534
 31
0.0
  0
LINE
  5
169
100
AcDbEntity
  8
Calque_1
 62
7
100
AcDbLine
 10
923.221022
 20
201.516534
 30
0.0
 11
952.834938
 21
205.753835
 31
0.0
  0
LINE
  5
16a
100
AcDbEntity
  8
Calque_1
 62
7
100
AcDbLine
 10
952.834938
 20
205.753835
 30
0.0
 11
933.792899
 21
185.650419
 31
0.0
  0
LINE
  5
16b
100
AcDbEntity
  8
Calque_1
 62
7
100
AcDbLine
 10
933.792899
 20
185.650419
 30
0.0
 11
952.834938
 21
165.547006
 31
0.0
  0
SPLINE
  5
16c
100
AcDbEntity
  8
Calque_1
 62
7
100
AcDbSpline
 70
8
 71
3
 72
8
 73
4
 74
0
 40
0
 40
0
 40
0
 40
0
 40
1
 40
1
 40
1
 40
1
 10
912.541313
 20
327.421564
 30
0.0
 10
911.990697
 20
327.421561
 30
0.0
 10
911.541399
 20
326.972272
 30
0.0
 10
911.541399
 20
326.421659
 30
0.0
  0
SPLINE
  5
16d
100
AcDbEntity
  8
Calque_1
 62
7
100
AcDbSpline
 70
8
 71
3
 72
8
 73
4
 74
0
 40
0
 40
0
 40
0
 40
0
 40
1
 40
1
 40
1
 40
1
 10
911.541399
 20
326.421659
 30
0.0
 10
911.541399
 20
325.871046
 30
0.0
 10
911.990697
 20
325.421204
 30
0.0
 10
912.541313
 20
325.421204
 30
0.0
  0
SPLINE
  5
16e
100
AcDbEntity
  8
Calque_1
 62
7
100
AcDbSpline
 70
8
 71
3
 72
8
 73
4
 74
0
 40
0
 40
0
 40
0
 40
0
 40
1
 40
1
 40
1
 40
1
 10
912.541313
 20
325.421204
 30
0.0
 10
913.091928
 20
325.421204
 30
0.0
 10
913.541198
 20
325.871046
 30
0.0
 10
913.541198
 20
326.421659
 30
0.0
  0
SPLINE
  5
16f
100
AcDbEntity
  8
Calque_1
 62
7
100
AcDbSpline
 70
8
 71
3
 72
8
 73
4
 74
0
 40
0
 40
0
 40
0
 40
0
 40
1
 40
1
 40
1
 40
1
 10
913.541198
 20
326.421659
 30
0.0
 10
913.541198
 20
326.972272
 30
0.0
 10
913.091900
 20
327.421561
 30
0.0
 10
912.541313
 20
327.421564
 30
0.0
  0
LINE
  5
170
100
AcDbEntity
  8
Calque_1
 62
7
100
AcDbLine
 10
912.541313
 20
327.421564
 30
0.0
 11
912.541313
 21
327.421564
 31
0.0
  0
SPLINE
  5
171
100
AcDbEntity
  8
Calque_1
 62
7
100
AcDbSpline
 70
8
 71
3
 72
8
 73
4
 74
0
 40
0
 40
0
 40
0
 40
0
 40
1
 40
1
 40
1
 40
1
 10
912.541313
 20
327.139342
 30
0.0
 10
912.939387
 20
327.139342
 30
0.0
 10
913.258976
 20
326.819748
 30
0.0
 10
913.258976
 20
326.421659
 30
0.0
  0
SPLINE
  5
172
100
AcDbEntity
  8
Calque_1
 62
7
100
AcDbSpline
 70
8
 71
3
 72
8
 73
4
 74
0
 40
0
 40
0
 40
0
 40
0
 40
1
 40
1
 40
1
 40
1
 10
913.258976
 20
326.421659
 30
0.0
 10
913.258976
 20
326.023571
 30
0.0
 10
912.939387
 20
325.703426
 30
0.0
 10
912.541313
 20
325.703426
 30
0.0
  0
SPLINE
  5
173
100
AcDbEntity
  8
Calque_1
 62
7
100
AcDbSpline
 70
8
 71
3
 72
8
 73
4
 74
0
 40
0
 40
0
 40
0
 40
0
 40
1
 40
1
 40
1
 40
1
 10
912.541313
 20
325.703426
 30
0.0
 10
912.143210
 20
325.703426
 30
0.0
 10
911.823622
 20
326.023571
 30
0.0
 10
911.823622
 20
326.421659
 30
0.0
  0
SPLINE
  5
174
100
AcDbEntity
  8
Calque_1
 62
7
100
AcDbSpline
 70
8
 71
3
 72
8
 73
4
 74
0
 40
0
 40
0
 40
0
 40
0
 40
1
 40
1
 40
1
 40
1
 10
911.823622
 20
326.421659
 30
0.0
 10
911.823622
 20
326.819748
 30
0.0
 10
912.143210
 20
327.139342
 30
0.0
 10
912.541313
 20
327.139342
 30
0.0
  0
LINE
  5
175
100
AcDbEntity
  8
Calque_1
 62
7
100
AcDbLine
 10
912.541313
 20
327.139342
 30
0.0
 11
912.541313
 21
327.139342
 31
0.0
  0
SPLINE
  5
176
100
AcDbEntity
  8
Calque_1
 62
7
100
AcDbSpline
 70
8
 71
3
 72
8
 73
4
 74
0
 40
0
 40
0
 40
0
 40
0
 40
1
 40
1
 40
1
 40
1
 10
912.541313
 20
311.380097
 30
0.0
 10
911.990697
 20
311.380095
 30
0.0
 10
911.541399
 20
310.930804
 30
0.0
 10
911.541399
 20
310.380192
 30
0.0
  0
SPLINE
  5
177
100
AcDbEntity
  8
Calque_1
 62
7
100
AcDbSpline
 70
8
 71
3
 72
8
 73
4
 74
0
 40
0
 40
0
 40
0
 40
0
 40
1
 40
1
 40
1
 40
1
 10
911.541399
 20
310.380192
 30
0.0
 10
911.541399
 20
309.829580
 30
0.0
 10
911.990697
 20
309.380289
 30
0.0
 10
912.541313
 20
309.380288
 30
0.0
  0
SPLINE
  5
178
100
AcDbEntity
  8
Calque_1
 62
7
100
AcDbSpline
 70
8
 71
3
 72
8
 73
4
 74
0
 40
0
 40
0
 40
0
 40
0
 40
1
 40
1
 40
1
 40
1
 10
912.541313
 20
309.380288
 30
0.0
 10
913.091928
 20
309.380289
 30
0.0
 10
913.541198
 20
309.829580
 30
0.0
 10
913.541198
 20
310.380192
 30
0.0
  0
SPLINE
  5
179
100
AcDbEntity
  8
Calque_1
 62
7
100
AcDbSpline
 70
8
 71
3
 72
8
 73
4
 74
0
 40
0
 40
0
 40
0
 40
0
 40
1
 40
1
 40
1
 40
1
 10
913.541198
 20
310.380192
 30
0.0
 10
913.541198
 20
310.930804
 30
0.0
 10
913.091928
 20
311.380095
 30
0.0
 10
912.541313
 20
311.380097
 30
0.0
  0
LINE
  5
17a
100
AcDbEntity
  8
Calque_1
 62
7
100
AcDbLine
 10
912.541313
 20
311.380097
 30
0.0
 11
912.541313
 21
311.380097
 31
0.0
  0
SPLINE
  5
17b
100
AcDbEntity
  8
Calque_1
 62
7
100
AcDbSpline
 70
8
 71
3
 72
8
 73
4
 74
0
 40
0
 40
0
 40
0
 40
0
 40
1
 40
1
 40
1
 40
1
 10
912.541313
 20
311.097874
 30
0.0
 10
912.939387
 20
311.097874
 30
0.0
 10
913.258976
 20
310.778281
 30
0.0
 10
913.258976
 20
310.380192
 30
0.0
  0
SPLINE
  5
17c
100
AcDbEntity
  8
Calque_1
 62
7
100
AcDbSpline
 70
8
 71
3
 72
8
 73
4
 74
0
 40
0
 40
0
 40
0
 40
0
 40
1
 40
1
 40
1
 40
1
 10
913.258976
 20
310.380192
 30
0.0
 10
913.258976
 20
309.982104
 30
0.0
 10
912.939387
 20
309.662511
 30
0.0
 10
912.541313
 20
309.662510
 30
0.0
  0
SPLINE
  5
17d
100
AcDbEntity
  8
Calque_1
 62
7
100
AcDbSpline
 70
8
 71
3
 72
8
 73
4
 74
0
 40
0
 40
0
 40
0
 40
0
 40
1
 40
1
 40
1
 40
1
 10
912.541313
 20
309.662510
 30
0.0
 10
912.143210
 20
309.662511
 30
0.0
 10
911.823622
 20
309.982104
 30
0.0
 10
911.823622
 20
310.380192
 30
0.0
  0
SPLINE
  5
17e
100
AcDbEntity
  8
Calque_1
 62
7
100
AcDbSpline
 70
8
 71
3
 72
8
 73
4
 74
0
 40
0
 40
0
 40
0
 40
0
 40
1
 40
1
 40
1
 40
1
 10
911.823622
 20
310.380192
 30
0.0
 10
911.823622
 20
310.778281
 30
0.0
 10
912.143210
 20
311.097874
 30
0.0
 10
912.541313
 20
311.097874
 30
0.0
  0
LINE
  5
17f
100
AcDbEntity
  8
Calque_1
 62
7
100
AcDbLine
 10
912.541313
 20
311.097874
 30
0.0
 11
912.541313
 21
311.097874
 31
0.0
  0
SPLINE
  5
180
100
AcDbEntity
  8
Calque_1
 62
7
100
AcDbSpline
 70
8
 71
3
 72
8
 73
4
 74
0
 40
0
 40
0
 40
0
 40
0
 40
1
 40
1
 40
1
 40
1
 10
912.541313
 20
294.774736
 30
0.0
 10
911.990697
 20
294.774735
 30
0.0
 10
911.541399
 20
294.325444
 30
0.0
 10
911.541399
 20
293.774832
 30
0.0
  0
SPLINE
  5
181
100
AcDbEntity
  8
Calque_1
 62
7
100
AcDbSpline
 70
8
 71
3
 72
8
 73
4
 74
0
 40
0
 40
0
 40
0
 40
0
 40
1
 40
1
 40
1
 40
1
 10
911.541399
 20
293.774832
 30
0.0
 10
911.541399
 20
293.224220
 30
0.0
 10
911.990697
 20
292.774929
 30
0.0
 10
912.541313
 20
292.774927
 30
0.0
  0
SPLINE
  5
182
100
AcDbEntity
  8
Calque_1
 62
7
100
AcDbSpline
 70
8
 71
3
 72
8
 73
4
 74
0
 40
0
 40
0
 40
0
 40
0
 40
1
 40
1
 40
1
 40
1
 10
912.541313
 20
292.774927
 30
0.0
 10
913.091928
 20
292.774929
 30
0.0
 10
913.541198
 20
293.224220
 30
0.0
 10
913.541198
 20
293.774832
 30
0.0
  0
SPLINE
  5
183
100
AcDbEntity
  8
Calque_1
 62
7
100
AcDbSpline
 70
8
 71
3
 72
8
 73
4
 74
0
 40
0
 40
0
 40
0
 40
0
 40
1
 40
1
 40
1
 40
1
 10
913.541198
 20
293.774832
 30
0.0
 10
913.541198
 20
294.325444
 30
0.0
 10
913.091928
 20
294.774735
 30
0.0
 10
912.541313
 20
294.774736
 30
0.0
  0
LINE
  5
184
100
AcDbEntity
  8
Calque_1
 62
7
100
AcDbLine
 10
912.541313
 20
294.774736
 30
0.0
 11
912.541313
 21
294.774736
 31
0.0
  0
SPLINE
  5
185
100
AcDbEntity
  8
Calque_1
 62
7
100
AcDbSpline
 70
8
 71
3
 72
8
 73
4
 74
0
 40
0
 40
0
 40
0
 40
0
 40
1
 40
1
 40
1
 40
1
 10
912.541313
 20
294.492514
 30
0.0
 10
912.939387
 20
294.492513
 30
0.0
 10
913.258976
 20
294.172920
 30
0.0
 10
913.258976
 20
293.774832
 30
0.0
  0
SPLINE
  5
186
100
AcDbEntity
  8
Calque_1
 62
7
100
AcDbSpline
 70
8
 71
3
 72
8
 73
4
 74
0
 40
0
 40
0
 40
0
 40
0
 40
1
 40
1
 40
1
 40
1
 10
913.258976
 20
293.774832
 30
0.0
 10
913.258976
 20
293.376743
 30
0.0
 10
912.939387
 20
293.057150
 30
0.0
 10
912.541313
 20
293.057150
 30
0.0
  0
SPLINE
  5
187
100
AcDbEntity
  8
Calque_1
 62
7
100
AcDbSpline
 70
8
 71
3
 72
8
 73
4
 74
0
 40
0
 40
0
 40
0
 40
0
 40
1
 40
1
 40
1
 40
1
 10
912.541313
 20
293.057150
 30
0.0
 10
912.143210
 20
293.057150
 30
0.0
 10
911.823622
 20
293.376743
 30
0.0
 10
911.823622
 20
293.774832
 30
0.0
  0
SPLINE
  5
188
100
AcDbEntity
  8
Calque_1
 62
7
100
AcDbSpline
 70
8
 71
3
 72
8
 73
4
 74
0
 40
0
 40
0
 40
0
 40
0
 40
1
 40
1
 40
1
 40
1
 10
911.823622
 20
293.774832
 30
0.0
 10
911.823622
 20
294.172920
 30
0.0
 10
912.143210
 20
294.492513
 30
0.0
 10
912.541313
 20
294.492514
 30
0.0
  0
LINE
  5
189
100
AcDbEntity
  8
Calque_1
 62
7
100
AcDbLine
 10
912.541313
 20
294.492514
 30
0.0
 11
912.541313
 21
294.492514
 31
0.0
  0
SPLINE
  5
18a
100
AcDbEntity
  8
Calque_1
 62
7
100
AcDbSpline
 70
8
 71
3
 72
8
 73
4
 74
0
 40
0
 40
0
 40
0
 40
0
 40
1
 40
1
 40
1
 40
1
 10
912.541313
 20
230.610522
 30
0.0
 10
911.990697
 20
230.610519
 30
0.0
 10
911.541399
 20
230.161230
 30
0.0
 10
911.541399
 20
229.610617
 30
0.0
  0
SPLINE
  5
18b
100
AcDbEntity
  8
Calque_1
 62
7
100
AcDbSpline
 70
8
 71
3
 72
8
 73
4
 74
0
 40
0
 40
0
 40
0
 40
0
 40
1
 40
1
 40
1
 40
1
 10
911.541399
 20
229.610617
 30
0.0
 10
911.541399
 20
229.060005
 30
0.0
 10
911.990697
 20
228.610715
 30
0.0
 10
912.541313
 20
228.610713
 30
0.0
  0
SPLINE
  5
18c
100
AcDbEntity
  8
Calque_1
 62
7
100
AcDbSpline
 70
8
 71
3
 72
8
 73
4
 74
0
 40
0
 40
0
 40
0
 40
0
 40
1
 40
1
 40
1
 40
1
 10
912.541313
 20
228.610713
 30
0.0
 10
913.091900
 20
228.610715
 30
0.0
 10
913.541198
 20
229.060005
 30
0.0
 10
913.541198
 20
229.610617
 30
0.0
  0
SPLINE
  5
18d
100
AcDbEntity
  8
Calque_1
 62
7
100
AcDbSpline
 70
8
 71
3
 72
8
 73
4
 74
0
 40
0
 40
0
 40
0
 40
0
 40
1
 40
1
 40
1
 40
1
 10
913.541198
 20
229.610617
 30
0.0
 10
913.541198
 20
230.161230
 30
0.0
 10
913.091928
 20
230.610519
 30
0.0
 10
912.541313
 20
230.610522
 30
0.0
  0
LINE
  5
18e
100
AcDbEntity
  8
Calque_1
 62
7
100
AcDbLine
 10
912.541313
 20
230.610522
 30
0.0
 11
912.541313
 21
230.610522
 31
0.0
  0
SPLINE
  5
18f
100
AcDbEntity
  8
Calque_1
 62
7
100
AcDbSpline
 70
8
 71
3
 72
8
 73
4
 74
0
 40
0
 40
0
 40
0
 40
0
 40
1
 40
1
 40
1
 40
1
 10
912.541313
 20
230.328300
 30
0.0
 10
912.939387
 20
230.328300
 30
0.0
 10
913.258976
 20
230.008706
 30
0.0
 10
913.258976
 20
229.610617
 30
0.0
  0
SPLINE
  5
190
100
AcDbEntity
  8
Calque_1
 62
7
100
AcDbSpline
 70
8
 71
3
 72
8
 73
4
 74
0
 40
0
 40
0
 40
0
 40
0
 40
1
 40
1
 40
1
 40
1
 10
913.258976
 20
229.610617
 30
0.0
 10
913.258976
 20
229.212529
 30
0.0
 10
912.939387
 20
228.892935
 30
0.0
 10
912.541313
 20
228.892935
 30
0.0
  0
SPLINE
  5
191
100
AcDbEntity
  8
Calque_1
 62
7
100
AcDbSpline
 70
8
 71
3
 72
8
 73
4
 74
0
 40
0
 40
0
 40
0
 40
0
 40
1
 40
1
 40
1
 40
1
 10
912.541313
 20
228.892935
 30
0.0
 10
912.143210
 20
228.892935
 30
0.0
 10
911.823622
 20
229.212529
 30
0.0
 10
911.823622
 20
229.610617
 30
0.0
  0
SPLINE
  5
192
100
AcDbEntity
  8
Calque_1
 62
7
100
AcDbSpline
 70
8
 71
3
 72
8
 73
4
 74
0
 40
0
 40
0
 40
0
 40
0
 40
1
 40
1
 40
1
 40
1
 10
911.823622
 20
229.610617
 30
0.0
 10
911.823622
 20
230.008706
 30
0.0
 10
912.143210
 20
230.328300
 30
0.0
 10
912.541313
 20
230.328300
 30
0.0
  0
LINE
  5
193
100
AcDbEntity
  8
Calque_1
 62
7
100
AcDbLine
 10
912.541313
 20
230.328300
 30
0.0
 11
912.541313
 21
230.328300
 31
0.0
  0
SPLINE
  5
194
100
AcDbEntity
  8
Calque_1
 62
7
100
AcDbSpline
 70
8
 71
3
 72
8
 73
4
 74
0
 40
0
 40
0
 40
0
 40
0
 40
1
 40
1
 40
1
 40
1
 10
912.541313
 20
266.479753
 30
0.0
 10
911.990697
 20
266.479753
 30
0.0
 10
911.541399
 20
266.030461
 30
0.0
 10
911.541399
 20
265.479848
 30
0.0
  0
SPLINE
  5
195
100
AcDbEntity
  8
Calque_1
 62
7
100
AcDbSpline
 70
8
 71
3
 72
8
 73
4
 74
0
 40
0
 40
0
 40
0
 40
0
 40
1
 40
1
 40
1
 40
1
 10
911.541399
 20
265.479848
 30
0.0
 10
911.541399
 20
264.929236
 30
0.0
 10
911.990697
 20
264.479946
 30
0.0
 10
912.541313
 20
264.479943
 30
0.0
  0
SPLINE
  5
196
100
AcDbEntity
  8
Calque_1
 62
7
100
AcDbSpline
 70
8
 71
3
 72
8
 73
4
 74
0
 40
0
 40
0
 40
0
 40
0
 40
1
 40
1
 40
1
 40
1
 10
912.541313
 20
264.479943
 30
0.0
 10
913.091928
 20
264.479946
 30
0.0
 10
913.541198
 20
264.929236
 30
0.0
 10
913.541198
 20
265.479848
 30
0.0
  0
SPLINE
  5
197
100
AcDbEntity
  8
Calque_1
 62
7
100
AcDbSpline
 70
8
 71
3
 72
8
 73
4
 74
0
 40
0
 40
0
 40
0
 40
0
 40
1
 40
1
 40
1
 40
1
 10
913.541198
 20
265.479848
 30
0.0
 10
913.541198
 20
266.030461
 30
0.0
 10
913.091900
 20
266.479753
 30
0.0
 10
912.541313
 20
266.479753
 30
0.0
  0
LINE
  5
198
100
AcDbEntity
  8
Calque_1
 62
7
100
AcDbLine
 10
912.541313
 20
266.479753
 30
0.0
 11
912.541313
 21
266.479753
 31
0.0
  0
SPLINE
  5
199
100
AcDbEntity
  8
Calque_1
 62
7
100
AcDbSpline
 70
8
 71
3
 72
8
 73
4
 74
0
 40
0
 40
0
 40
0
 40
0
 40
1
 40
1
 40
1
 40
1
 10
912.541313
 20
266.197531
 30
0.0
 10
912.939387
 20
266.197531
 30
0.0
 10
913.258976
 20
265.877937
 30
0.0
 10
913.258976
 20
265.479848
 30
0.0
  0
SPLINE
  5
19a
100
AcDbEntity
  8
Calque_1
 62
7
100
AcDbSpline
 70
8
 71
3
 72
8
 73
4
 74
0
 40
0
 40
0
 40
0
 40
0
 40
1
 40
1
 40
1
 40
1
 10
913.258976
 20
265.479848
 30
0.0
 10
913.258976
 20
265.081760
 30
0.0
 10
912.939387
 20
264.762169
 30
0.0
 10
912.541313
 20
264.762166
 30
0.0
  0
SPLINE
  5
19b
100
AcDbEntity
  8
Calque_1
 62
7
100
AcDbSpline
 70
8
 71
3
 72
8
 73
4
 74
0
 40
0
 40
0
 40
0
 40
0
 40
1
 40
1
 40
1
 40
1
 10
912.541313
 20
264.762166
 30
0.0
 10
912.143210
 20
264.762169
 30
0.0
 10
911.823622
 20
265.081760
 30
0.0
 10
911.823622
 20
265.479848
 30
0.0
  0
SPLINE
  5
19c
100
AcDbEntity
  8
Calque_1
 62
7
100
AcDbSpline
 70
8
 71
3
 72
8
 73
4
 74
0
 40
0
 40
0
 40
0
 40
0
 40
1
 40
1
 40
1
 40
1
 10
911.823622
 20
265.479848
 30
0.0
 10
911.823622
 20
265.877937
 30
0.0
 10
912.143210
 20
266.197531
 30
0.0
 10
912.541313
 20
266.197531
 30
0.0
  0
LINE
  5
19d
100
AcDbEntity
  8
Calque_1
 62
7
100
AcDbLine
 10
912.541313
 20
266.197531
 30
0.0
 11
912.541313
 21
266.197531
 31
0.0
  0
SPLINE
  5
19e
100
AcDbEntity
  8
Calque_1
 62
7
100
AcDbSpline
 70
8
 71
3
 72
8
 73
4
 74
0
 40
0
 40
0
 40
0
 40
0
 40
1
 40
1
 40
1
 40
1
 10
912.541313
 20
245.522549
 30
0.0
 10
911.990697
 20
245.522546
 30
0.0
 10
911.541399
 20
245.073257
 30
0.0
 10
911.541399
 20
244.522644
 30
0.0
  0
SPLINE
  5
19f
100
AcDbEntity
  8
Calque_1
 62
7
100
AcDbSpline
 70
8
 71
3
 72
8
 73
4
 74
0
 40
0
 40
0
 40
0
 40
0
 40
1
 40
1
 40
1
 40
1
 10
911.541399
 20
244.522644
 30
0.0
 10
911.541399
 20
243.972031
 30
0.0
 10
911.990697
 20
243.522742
 30
0.0
 10
912.541313
 20
243.522739
 30
0.0
  0
SPLINE
  5
1a0
100
AcDbEntity
  8
Calque_1
 62
7
100
AcDbSpline
 70
8
 71
3
 72
8
 73
4
 74
0
 40
0
 40
0
 40
0
 40
0
 40
1
 40
1
 40
1
 40
1
 10
912.541313
 20
243.522739
 30
0.0
 10
913.091928
 20
243.522742
 30
0.0
 10
913.541198
 20
243.972031
 30
0.0
 10
913.541198
 20
244.522644
 30
0.0
  0
SPLINE
  5
1a1
100
AcDbEntity
  8
Calque_1
 62
7
100
AcDbSpline
 70
8
 71
3
 72
8
 73
4
 74
0
 40
0
 40
0
 40
0
 40
0
 40
1
 40
1
 40
1
 40
1
 10
913.541198
 20
244.522644
 30
0.0
 10
913.541198
 20
245.073257
 30
0.0
 10
913.091928
 20
245.522546
 30
0.0
 10
912.541313
 20
245.522549
 30
0.0
  0
LINE
  5
1a2
100
AcDbEntity
  8
Calque_1
 62
7
100
AcDbLine
 10
912.541313
 20
245.522549
 30
0.0
 11
912.541313
 21
245.522549
 31
0.0
  0
SPLINE
  5
1a3
100
AcDbEntity
  8
Calque_1
 62
7
100
AcDbSpline
 70
8
 71
3
 72
8
 73
4
 74
0
 40
0
 40
0
 40
0
 40
0
 40
1
 40
1
 40
1
 40
1
 10
912.541313
 20
245.240327
 30
0.0
 10
912.939387
 20
245.240327
 30
0.0
 10
913.258976
 20
244.920733
 30
0.0
 10
913.258976
 20
244.522644
 30
0.0
  0
SPLINE
  5
1a4
100
AcDbEntity
  8
Calque_1
 62
7
100
AcDbSpline
 70
8
 71
3
 72
8
 73
4
 74
0
 40
0
 40
0
 40
0
 40
0
 40
1
 40
1
 40
1
 40
1
 10
913.258976
 20
244.522644
 30
0.0
 10
913.258976
 20
244.124556
 30
0.0
 10
912.939387
 20
243.804964
 30
0.0
 10
912.541313
 20
243.804962
 30
0.0
  0
SPLINE
  5
1a5
100
AcDbEntity
  8
Calque_1
 62
7
100
AcDbSpline
 70
8
 71
3
 72
8
 73
4
 74
0
 40
0
 40
0
 40
0
 40
0
 40
1
 40
1
 40
1
 40
1
 10
912.541313
 20
243.804962
 30
0.0
 10
912.143210
 20
243.804964
 30
0.0
 10
911.823622
 20
244.124556
 30
0.0
 10
911.823622
 20
244.522644
 30
0.0
  0
SPLINE
  5
1a6
100
AcDbEntity
  8
Calque_1
 62
7
100
AcDbSpline
 70
8
 71
3
 72
8
 73
4
 74
0
 40
0
 40
0
 40
0
 40
0
 40
1
 40
1
 40
1
 40
1
 10
911.823622
 20
244.522644
 30
0.0
 10
911.823622
 20
244.920733
 30
0.0
 10
912.143210
 20
245.240327
 30
0.0
 10
912.541313
 20
245.240327
 30
0.0
  0
LINE
  5
1a7
100
AcDbEntity
  8
Calque_1
 62
7
100
AcDbLine
 10
912.541313
 20
245.240327
 30
0.0
 11
912.541313
 21
245.240327
 31
0.0
  0
SPLINE
  5
1a8
100
AcDbEntity
  8
Calque_1
 62
7
100
AcDbSpline
 70
8
 71
3
 72
8
 73
4
 74
0
 40
0
 40
0
 40
0
 40
0
 40
1
 40
1
 40
1
 40
1
 10
912.541313
 20
215.134051
 30
0.0
 10
911.990697
 20
215.134048
 30
0.0
 10
911.541399
 20
214.684759
 30
0.0
 10
911.541399
 20
214.134146
 30
0.0
  0
SPLINE
  5
1a9
100
AcDbEntity
  8
Calque_1
 62
7
100
AcDbSpline
 70
8
 71
3
 72
8
 73
4
 74
0
 40
0
 40
0
 40
0
 40
0
 40
1
 40
1
 40
1
 40
1
 10
911.541399
 20
214.134146
 30
0.0
 10
911.541399
 20
213.583534
 30
0.0
 10
911.990697
 20
213.134244
 30
0.0
 10
912.541313
 20
213.134241
 30
0.0
  0
SPLINE
  5
1aa
100
AcDbEntity
  8
Calque_1
 62
7
100
AcDbSpline
 70
8
 71
3
 72
8
 73
4
 74
0
 40
0
 40
0
 40
0
 40
0
 40
1
 40
1
 40
1
 40
1
 10
912.541313
 20
213.134241
 30
0.0
 10
913.091928
 20
213.134244
 30
0.0
 10
913.541198
 20
213.583534
 30
0.0
 10
913.541198
 20
214.134146
 30
0.0
  0
SPLINE
  5
1ab
100
AcDbEntity
  8
Calque_1
 62
7
100
AcDbSpline
 70
8
 71
3
 72
8
 73
4
 74
0
 40
0
 40
0
 40
0
 40
0
 40
1
 40
1
 40
1
 40
1
 10
913.541198
 20
214.134146
 30
0.0
 10
913.541198
 20
214.684759
 30
0.0
 10
913.091928
 20
215.134048
 30
0.0
 10
912.541313
 20
215.134051
 30
0.0
  0
LINE
  5
1ac
100
AcDbEntity
  8
Calque_1
 62
7
100
AcDbLine
 10
912.541313
 20
215.134051
 30
0.0
 11
912.541313
 21
215.134051
 31
0.0
  0
SPLINE
  5
1ad
100
AcDbEntity
  8
Calque_1
 62
7
100
AcDbSpline
 70
8
 71
3
 72
8
 73
4
 74
0
 40
0
 40
0
 40
0
 40
0
 40
1
 40
1
 40
1
 40
1
 10
912.541313
 20
214.851829
 30
0.0
 10
912.939387
 20
214.851826
 30
0.0
 10
913.258976
 20
214.532235
 30
0.0
 10
913.258976
 20
214.134146
 30
0.0
  0
SPLINE
  5
1ae
100
AcDbEntity
  8
Calque_1
 62
7
100
AcDbSpline
 70
8
 71
3
 72
8
 73
4
 74
0
 40
0
 40
0
 40
0
 40
0
 40
1
 40
1
 40
1
 40
1
 10
913.258976
 20
214.134146
 30
0.0
 10
913.258976
 20
213.736058
 30
0.0
 10
912.939387
 20
213.416464
 30
0.0
 10
912.541313
 20
213.416464
 30
0.0
  0
SPLINE
  5
1af
100
AcDbEntity
  8
Calque_1
 62
7
100
AcDbSpline
 70
8
 71
3
 72
8
 73
4
 74
0
 40
0
 40
0
 40
0
 40
0
 40
1
 40
1
 40
1
 40
1
 10
912.541313
 20
213.416464
 30
0.0
 10
912.143210
 20
213.416464
 30
0.0
 10
911.823622
 20
213.736058
 30
0.0
 10
911.823622
 20
214.134146
 30
0.0
  0
SPLINE
  5
1b0
100
AcDbEntity
  8
Calque_1
 62
7
100
AcDbSpline
 70
8
 71
3
 72
8
 73
4
 74
0
 40
0
 40
0
 40
0
 40
0
 40
1
 40
1
 40
1
 40
1
 10
911.823622
 20
214.134146
 30
0.0
 10
911.823622
 20
214.532235
 30
0.0
 10
912.143210
 20
214.851826
 30
0.0
 10
912.541313
 20
214.851829
 30
0.0
  0
LINE
  5
1b1
100
AcDbEntity
  8
Calque_1
 62
7
100
AcDbLine
 10
912.541313
 20
214.851829
 30
0.0
 11
912.541313
 21
214.851829
 31
0.0
  0
SPLINE
  5
1b2
100
AcDbEntity
  8
Calque_1
 62
7
100
AcDbSpline
 70
8
 71
3
 72
8
 73
4
 74
0
 40
0
 40
0
 40
0
 40
0
 40
1
 40
1
 40
1
 40
1
 10
912.541313
 20
207.395540
 30
0.0
 10
911.990697
 20
207.395538
 30
0.0
 10
911.541399
 20
206.946248
 30
0.0
 10
911.541399
 20
206.395636
 30
0.0
  0
SPLINE
  5
1b3
100
AcDbEntity
  8
Calque_1
 62
7
100
AcDbSpline
 70
8
 71
3
 72
8
 73
4
 74
0
 40
0
 40
0
 40
0
 40
0
 40
1
 40
1
 40
1
 40
1
 10
911.541399
 20
206.395636
 30
0.0
 10
911.541399
 20
205.845023
 30
0.0
 10
911.990697
 20
205.395731
 30
0.0
 10
912.541313
 20
205.395731
 30
0.0
  0
SPLINE
  5
1b4
100
AcDbEntity
  8
Calque_1
 62
7
100
AcDbSpline
 70
8
 71
3
 72
8
 73
4
 74
0
 40
0
 40
0
 40
0
 40
0
 40
1
 40
1
 40
1
 40
1
 10
912.541313
 20
205.395731
 30
0.0
 10
913.091928
 20
205.395731
 30
0.0
 10
913.541198
 20
205.845023
 30
0.0
 10
913.541198
 20
206.395636
 30
0.0
  0
SPLINE
  5
1b5
100
AcDbEntity
  8
Calque_1
 62
7
100
AcDbSpline
 70
8
 71
3
 72
8
 73
4
 74
0
 40
0
 40
0
 40
0
 40
0
 40
1
 40
1
 40
1
 40
1
 10
913.541198
 20
206.395636
 30
0.0
 10
913.541198
 20
206.946248
 30
0.0
 10
913.091928
 20
207.395538
 30
0.0
 10
912.541313
 20
207.395540
 30
0.0
  0
LINE
  5
1b6
100
AcDbEntity
  8
Calque_1
 62
7
100
AcDbLine
 10
912.541313
 20
207.395540
 30
0.0
 11
912.541313
 21
207.395540
 31
0.0
  0
SPLINE
  5
1b7
100
AcDbEntity
  8
Calque_1
 62
7
100
AcDbSpline
 70
8
 71
3
 72
8
 73
4
 74
0
 40
0
 40
0
 40
0
 40
0
 40
1
 40
1
 40
1
 40
1
 10
912.541313
 20
207.113318
 30
0.0
 10
912.939387
 20
207.113315
 30
0.0
 10
913.258976
 20
206.793724
 30
0.0
 10
913.258976
 20
206.395636
 30
0.0
  0
SPLINE
  5
1b8
100
AcDbEntity
  8
Calque_1
 62
7
100
AcDbSpline
 70
8
 71
3
 72
8
 73
4
 74
0
 40
0
 40
0
 40
0
 40
0
 40
1
 40
1
 40
1
 40
1
 10
913.258976
 20
206.395636
 30
0.0
 10
913.258976
 20
205.997547
 30
0.0
 10
912.939387
 20
205.677953
 30
0.0
 10
912.541313
 20
205.677953
 30
0.0
  0
SPLINE
  5
1b9
100
AcDbEntity
  8
Calque_1
 62
7
100
AcDbSpline
 70
8
 71
3
 72
8
 73
4
 74
0
 40
0
 40
0
 40
0
 40
0
 40
1
 40
1
 40
1
 40
1
 10
912.541313
 20
205.677953
 30
0.0
 10
912.143210
 20
205.677953
 30
0.0
 10
911.823622
 20
205.997547
 30
0.0
 10
911.823622
 20
206.395636
 30
0.0
  0
SPLINE
  5
1ba
100
AcDbEntity
  8
Calque_1
 62
7
100
AcDbSpline
 70
8
 71
3
 72
8
 73
4
 74
0
 40
0
 40
0
 40
0
 40
0
 40
1
 40
1
 40
1
 40
1
 10
911.823622
 20
206.395636
 30
0.0
 10
911.823622
 20
206.793724
 30
0.0
 10
912.143210
 20
207.113315
 30
0.0
 10
912.541313
 20
207.113318
 30
0.0
  0
LINE
  5
1bb
100
AcDbEntity
  8
Calque_1
 62
7
100
AcDbLine
 10
912.541313
 20
207.113318
 30
0.0
 11
912.541313
 21
207.113318
 31
0.0
  0
SPLINE
  5
1bc
100
AcDbEntity
  8
Calque_1
 62
7
100
AcDbSpline
 70
8
 71
3
 72
8
 73
4
 74
0
 40
0
 40
0
 40
0
 40
0
 40
1
 40
1
 40
1
 40
1
 10
912.541313
 20
330.643969
 30
0.0
 10
911.990697
 20
330.643966
 30
0.0
 10
911.541399
 20
330.194677
 30
0.0
 10
911.541399
 20
329.644064
 30
0.0
  0
SPLINE
  5
1bd
100
AcDbEntity
  8
Calque_1
 62
7
100
AcDbSpline
 70
8
 71
3
 72
8
 73
4
 74
0
 40
0
 40
0
 40
0
 40
0
 40
1
 40
1
 40
1
 40
1
 10
911.541399
 20
329.644064
 30
0.0
 10
911.541399
 20
329.093451
 30
0.0
 10
911.990697
 20
328.644159
 30
0.0
 10
912.541313
 20
328.644159
 30
0.0
  0
SPLINE
  5
1be
100
AcDbEntity
  8
Calque_1
 62
7
100
AcDbSpline
 70
8
 71
3
 72
8
 73
4
 74
0
 40
0
 40
0
 40
0
 40
0
 40
1
 40
1
 40
1
 40
1
 10
912.541313
 20
328.644159
 30
0.0
 10
913.091900
 20
328.644159
 30
0.0
 10
913.541198
 20
329.093451
 30
0.0
 10
913.541198
 20
329.644064
 30
0.0
  0
SPLINE
  5
1bf
100
AcDbEntity
  8
Calque_1
 62
7
100
AcDbSpline
 70
8
 71
3
 72
8
 73
4
 74
0
 40
0
 40
0
 40
0
 40
0
 40
1
 40
1
 40
1
 40
1
 10
913.541198
 20
329.644064
 30
0.0
 10
913.541198
 20
330.194677
 30
0.0
 10
913.091928
 20
330.643966
 30
0.0
 10
912.541313
 20
330.643969
 30
0.0
  0
LINE
  5
1c0
100
AcDbEntity
  8
Calque_1
 62
7
100
AcDbLine
 10
912.541313
 20
330.643969
 30
0.0
 11
912.541313
 21
330.643969
 31
0.0
  0
SPLINE
  5
1c1
100
AcDbEntity
  8
Calque_1
 62
7
100
AcDbSpline
 70
8
 71
3
 72
8
 73
4
 74
0
 40
0
 40
0
 40
0
 40
0
 40
1
 40
1
 40
1
 40
1
 10
912.541313
 20
330.361747
 30
0.0
 10
912.939387
 20
330.361744
 30
0.0
 10
913.258976
 20
330.042153
 30
0.0
 10
913.258976
 20
329.644064
 30
0.0
  0
SPLINE
  5
1c2
100
AcDbEntity
  8
Calque_1
 62
7
100
AcDbSpline
 70
8
 71
3
 72
8
 73
4
 74
0
 40
0
 40
0
 40
0
 40
0
 40
1
 40
1
 40
1
 40
1
 10
913.258976
 20
329.644064
 30
0.0
 10
913.258976
 20
329.245975
 30
0.0
 10
912.939387
 20
328.926381
 30
0.0
 10
912.541313
 20
328.926381
 30
0.0
  0
SPLINE
  5
1c3
100
AcDbEntity
  8
Calque_1
 62
7
100
AcDbSpline
 70
8
 71
3
 72
8
 73
4
 74
0
 40
0
 40
0
 40
0
 40
0
 40
1
 40
1
 40
1
 40
1
 10
912.541313
 20
328.926381
 30
0.0
 10
912.143210
 20
328.926381
 30
0.0
 10
911.823622
 20
329.245975
 30
0.0
 10
911.823622
 20
329.644064
 30
0.0
  0
SPLINE
  5
1c4
100
AcDbEntity
  8
Calque_1
 62
7
100
AcDbSpline
 70
8
 71
3
 72
8
 73
4
 74
0
 40
0
 40
0
 40
0
 40
0
 40
1
 40
1
 40
1
 40
1
 10
911.823622
 20
329.644064
 30
0.0
 10
911.823622
 20
330.042153
 30
0.0
 10
912.143210
 20
330.361744
 30
0.0
 10
912.541313
 20
330.361747
 30
0.0
  0
LINE
  5
1c5
100
AcDbEntity
  8
Calque_1
 62
7
100
AcDbLine
 10
912.541313
 20
330.361747
 30
0.0
 11
912.541313
 21
330.361747
 31
0.0
  0
SPLINE
  5
1c6
100
AcDbEntity
  8
Calque_1
 62
7
100
AcDbSpline
 70
8
 71
3
 72
8
 73
4
 74
0
 40
0
 40
0
 40
0
 40
0
 40
1
 40
1
 40
1
 40
1
 10
912.541313
 20
315.731941
 30
0.0
 10
911.990697
 20
315.731940
 30
0.0
 10
911.541399
 20
315.282649
 30
0.0
 10
911.541399
 20
314.732037
 30
0.0
  0
SPLINE
  5
1c7
100
AcDbEntity
  8
Calque_1
 62
7
100
AcDbSpline
 70
8
 71
3
 72
8
 73
4
 74
0
 40
0
 40
0
 40
0
 40
0
 40
1
 40
1
 40
1
 40
1
 10
911.541399
 20
314.732037
 30
0.0
 10
911.541399
 20
314.181424
 30
0.0
 10
911.990697
 20
313.732134
 30
0.0
 10
912.541313
 20
313.732132
 30
0.0
  0
SPLINE
  5
1c8
100
AcDbEntity
  8
Calque_1
 62
7
100
AcDbSpline
 70
8
 71
3
 72
8
 73
4
 74
0
 40
0
 40
0
 40
0
 40
0
 40
1
 40
1
 40
1
 40
1
 10
912.541313
 20
313.732132
 30
0.0
 10
913.091928
 20
313.732134
 30
0.0
 10
913.541198
 20
314.181424
 30
0.0
 10
913.541198
 20
314.732037
 30
0.0
  0
SPLINE
  5
1c9
100
AcDbEntity
  8
Calque_1
 62
7
100
AcDbSpline
 70
8
 71
3
 72
8
 73
4
 74
0
 40
0
 40
0
 40
0
 40
0
 40
1
 40
1
 40
1
 40
1
 10
913.541198
 20
314.732037
 30
0.0
 10
913.541198
 20
315.282649
 30
0.0
 10
913.091928
 20
315.731940
 30
0.0
 10
912.541313
 20
315.731941
 30
0.0
  0
LINE
  5
1ca
100
AcDbEntity
  8
Calque_1
 62
7
100
AcDbLine
 10
912.541313
 20
315.731941
 30
0.0
 11
912.541313
 21
315.731941
 31
0.0
  0
SPLINE
  5
1cb
100
AcDbEntity
  8
Calque_1
 62
7
100
AcDbSpline
 70
8
 71
3
 72
8
 73
4
 74
0
 40
0
 40
0
 40
0
 40
0
 40
1
 40
1
 40
1
 40
1
 10
912.541313
 20
315.449719
 30
0.0
 10
912.939387
 20
315.449718
 30
0.0
 10
913.258976
 20
315.130125
 30
0.0
 10
913.258976
 20
314.732037
 30
0.0
  0
SPLINE
  5
1cc
100
AcDbEntity
  8
Calque_1
 62
7
100
AcDbSpline
 70
8
 71
3
 72
8
 73
4
 74
0
 40
0
 40
0
 40
0
 40
0
 40
1
 40
1
 40
1
 40
1
 10
913.258976
 20
314.732037
 30
0.0
 10
913.258976
 20
314.333948
 30
0.0
 10
912.939387
 20
314.014355
 30
0.0
 10
912.541313
 20
314.014354
 30
0.0
  0
SPLINE
  5
1cd
100
AcDbEntity
  8
Calque_1
 62
7
100
AcDbSpline
 70
8
 71
3
 72
8
 73
4
 74
0
 40
0
 40
0
 40
0
 40
0
 40
1
 40
1
 40
1
 40
1
 10
912.541313
 20
314.014354
 30
0.0
 10
912.143210
 20
314.014355
 30
0.0
 10
911.823622
 20
314.333948
 30
0.0
 10
911.823622
 20
314.732037
 30
0.0
  0
SPLINE
  5
1ce
100
AcDbEntity
  8
Calque_1
 62
7
100
AcDbSpline
 70
8
 71
3
 72
8
 73
4
 74
0
 40
0
 40
0
 40
0
 40
0
 40
1
 40
1
 40
1
 40
1
 10
911.823622
 20
314.732037
 30
0.0
 10
911.823622
 20
315.130125
 30
0.0
 10
912.143210
 20
315.449718
 30
0.0
 10
912.541313
 20
315.449719
 30
0.0
  0
LINE
  5
1cf
100
AcDbEntity
  8
Calque_1
 62
7
100
AcDbLine
 10
912.541313
 20
315.449719
 30
0.0
 11
912.541313
 21
315.449719
 31
0.0
  0
SPLINE
  5
1d0
100
AcDbEntity
  8
Calque_1
 62
7
100
AcDbSpline
 70
8
 71
3
 72
8
 73
4
 74
0
 40
0
 40
0
 40
0
 40
0
 40
1
 40
1
 40
1
 40
1
 10
912.541313
 20
299.126581
 30
0.0
 10
911.990697
 20
299.126580
 30
0.0
 10
911.541399
 20
298.677289
 30
0.0
 10
911.541399
 20
298.126676
 30
0.0
  0
SPLINE
  5
1d1
100
AcDbEntity
  8
Calque_1
 62
7
100
AcDbSpline
 70
8
 71
3
 72
8
 73
4
 74
0
 40
0
 40
0
 40
0
 40
0
 40
1
 40
1
 40
1
 40
1
 10
911.541399
 20
298.126676
 30
0.0
 10
911.541399
 20
297.576064
 30
0.0
 10
911.990697
 20
297.126222
 30
0.0
 10
912.541313
 20
297.126221
 30
0.0
  0
SPLINE
  5
1d2
100
AcDbEntity
  8
Calque_1
 62
7
100
AcDbSpline
 70
8
 71
3
 72
8
 73
4
 74
0
 40
0
 40
0
 40
0
 40
0
 40
1
 40
1
 40
1
 40
1
 10
912.541313
 20
297.126221
 30
0.0
 10
913.091928
 20
297.126222
 30
0.0
 10
913.541198
 20
297.576064
 30
0.0
 10
913.541198
 20
298.126676
 30
0.0
  0
SPLINE
  5
1d3
100
AcDbEntity
  8
Calque_1
 62
7
100
AcDbSpline
 70
8
 71
3
 72
8
 73
4
 74
0
 40
0
 40
0
 40
0
 40
0
 40
1
 40
1
 40
1
 40
1
 10
913.541198
 20
298.126676
 30
0.0
 10
913.541198
 20
298.677289
 30
0.0
 10
913.091928
 20
299.126580
 30
0.0
 10
912.541313
 20
299.126581
 30
0.0
  0
LINE
  5
1d4
100
AcDbEntity
  8
Calque_1
 62
7
100
AcDbLine
 10
912.541313
 20
299.126581
 30
0.0
 11
912.541313
 21
299.126581
 31
0.0
  0
SPLINE
  5
1d5
100
AcDbEntity
  8
Calque_1
 62
7
100
AcDbSpline
 70
8
 71
3
 72
8
 73
4
 74
0
 40
0
 40
0
 40
0
 40
0
 40
1
 40
1
 40
1
 40
1
 10
912.541313
 20
298.844359
 30
0.0
 10
912.939387
 20
298.844358
 30
0.0
 10
913.258976
 20
298.524765
 30
0.0
 10
913.258976
 20
298.126676
 30
0.0
  0
SPLINE
  5
1d6
100
AcDbEntity
  8
Calque_1
 62
7
100
AcDbSpline
 70
8
 71
3
 72
8
 73
4
 74
0
 40
0
 40
0
 40
0
 40
0
 40
1
 40
1
 40
1
 40
1
 10
913.258976
 20
298.126676
 30
0.0
 10
913.258976
 20
297.728588
 30
0.0
 10
912.939387
 20
297.408444
 30
0.0
 10
912.541313
 20
297.408443
 30
0.0
  0
SPLINE
  5
1d7
100
AcDbEntity
  8
Calque_1
 62
7
100
AcDbSpline
 70
8
 71
3
 72
8
 73
4
 74
0
 40
0
 40
0
 40
0
 40
0
 40
1
 40
1
 40
1
 40
1
 10
912.541313
 20
297.408443
 30
0.0
 10
912.143210
 20
297.408444
 30
0.0
 10
911.823622
 20
297.728588
 30
0.0
 10
911.823622
 20
298.126676
 30
0.0
  0
SPLINE
  5
1d8
100
AcDbEntity
  8
Calque_1
 62
7
100
AcDbSpline
 70
8
 71
3
 72
8
 73
4
 74
0
 40
0
 40
0
 40
0
 40
0
 40
1
 40
1
 40
1
 40
1
 10
911.823622
 20
298.126676
 30
0.0
 10
911.823622
 20
298.524765
 30
0.0
 10
912.143210
 20
298.844358
 30
0.0
 10
912.541313
 20
298.844359
 30
0.0
  0
LINE
  5
1d9
100
AcDbEntity
  8
Calque_1
 62
7
100
AcDbLine
 10
912.541313
 20
298.844359
 30
0.0
 11
912.541313
 21
298.844359
 31
0.0
  0
SPLINE
  5
1da
100
AcDbEntity
  8
Calque_1
 62
7
100
AcDbSpline
 70
8
 71
3
 72
8
 73
4
 74
0
 40
0
 40
0
 40
0
 40
0
 40
1
 40
1
 40
1
 40
1
 10
912.541313
 20
235.526811
 30
0.0
 10
911.990697
 20
235.526811
 30
0.0
 10
911.541399
 20
235.077519
 30
0.0
 10
911.541399
 20
234.526906
 30
0.0
  0
SPLINE
  5
1db
100
AcDbEntity
  8
Calque_1
 62
7
100
AcDbSpline
 70
8
 71
3
 72
8
 73
4
 74
0
 40
0
 40
0
 40
0
 40
0
 40
1
 40
1
 40
1
 40
1
 10
911.541399
 20
234.526906
 30
0.0
 10
911.541399
 20
233.976296
 30
0.0
 10
911.990697
 20
233.526451
 30
0.0
 10
912.541313
 20
233.526451
 30
0.0
  0
SPLINE
  5
1dc
100
AcDbEntity
  8
Calque_1
 62
7
100
AcDbSpline
 70
8
 71
3
 72
8
 73
4
 74
0
 40
0
 40
0
 40
0
 40
0
 40
1
 40
1
 40
1
 40
1
 10
912.541313
 20
233.526451
 30
0.0
 10
913.091900
 20
233.526451
 30
0.0
 10
913.541198
 20
233.976296
 30
0.0
 10
913.541198
 20
234.526906
 30
0.0
  0
SPLINE
  5
1dd
100
AcDbEntity
  8
Calque_1
 62
7
100
AcDbSpline
 70
8
 71
3
 72
8
 73
4
 74
0
 40
0
 40
0
 40
0
 40
0
 40
1
 40
1
 40
1
 40
1
 10
913.541198
 20
234.526906
 30
0.0
 10
913.541198
 20
235.077519
 30
0.0
 10
913.091928
 20
235.526811
 30
0.0
 10
912.541313
 20
235.526811
 30
0.0
  0
LINE
  5
1de
100
AcDbEntity
  8
Calque_1
 62
7
100
AcDbLine
 10
912.541313
 20
235.526811
 30
0.0
 11
912.541313
 21
235.526811
 31
0.0
  0
SPLINE
  5
1df
100
AcDbEntity
  8
Calque_1
 62
7
100
AcDbSpline
 70
8
 71
3
 72
8
 73
4
 74
0
 40
0
 40
0
 40
0
 40
0
 40
1
 40
1
 40
1
 40
1
 10
912.541313
 20
235.244589
 30
0.0
 10
912.939387
 20
235.244589
 30
0.0
 10
913.258976
 20
234.924995
 30
0.0
 10
913.258976
 20
234.526906
 30
0.0
  0
SPLINE
  5
1e0
100
AcDbEntity
  8
Calque_1
 62
7
100
AcDbSpline
 70
8
 71
3
 72
8
 73
4
 74
0
 40
0
 40
0
 40
0
 40
0
 40
1
 40
1
 40
1
 40
1
 10
913.258976
 20
234.526906
 30
0.0
 10
913.258976
 20
234.128817
 30
0.0
 10
912.939387
 20
233.808673
 30
0.0
 10
912.541313
 20
233.808673
 30
0.0
  0
SPLINE
  5
1e1
100
AcDbEntity
  8
Calque_1
 62
7
100
AcDbSpline
 70
8
 71
3
 72
8
 73
4
 74
0
 40
0
 40
0
 40
0
 40
0
 40
1
 40
1
 40
1
 40
1
 10
912.541313
 20
233.808673
 30
0.0
 10
912.143210
 20
233.808673
 30
0.0
 10
911.823622
 20
234.128817
 30
0.0
 10
911.823622
 20
234.526906
 30
0.0
  0
SPLINE
  5
1e2
100
AcDbEntity
  8
Calque_1
 62
7
100
AcDbSpline
 70
8
 71
3
 72
8
 73
4
 74
0
 40
0
 40
0
 40
0
 40
0
 40
1
 40
1
 40
1
 40
1
 10
911.823622
 20
234.526906
 30
0.0
 10
911.823622
 20
234.924995
 30
0.0
 10
912.143210
 20
235.244589
 30
0.0
 10
912.541313
 20
235.244589
 30
0.0
  0
LINE
  5
1e3
100
AcDbEntity
  8
Calque_1
 62
7
100
AcDbLine
 10
912.541313
 20
235.244589
 30
0.0
 11
912.541313
 21
235.244589
 31
0.0
  0
SPLINE
  5
1e4
100
AcDbEntity
  8
Calque_1
 62
7
100
AcDbSpline
 70
8
 71
3
 72
8
 73
4
 74
0
 40
0
 40
0
 40
0
 40
0
 40
1
 40
1
 40
1
 40
1
 10
912.541313
 20
277.040487
 30
0.0
 10
911.990697
 20
277.040486
 30
0.0
 10
911.541399
 20
276.591195
 30
0.0
 10
911.541399
 20
276.040583
 30
0.0
  0
SPLINE
  5
1e5
100
AcDbEntity
  8
Calque_1
 62
7
100
AcDbSpline
 70
8
 71
3
 72
8
 73
4
 74
0
 40
0
 40
0
 40
0
 40
0
 40
1
 40
1
 40
1
 40
1
 10
911.541399
 20
276.040583
 30
0.0
 10
911.541399
 20
275.489970
 30
0.0
 10
911.990697
 20
275.040680
 30
0.0
 10
912.541313
 20
275.040678
 30
0.0
  0
SPLINE
  5
1e6
100
AcDbEntity
  8
Calque_1
 62
7
100
AcDbSpline
 70
8
 71
3
 72
8
 73
4
 74
0
 40
0
 40
0
 40
0
 40
0
 40
1
 40
1
 40
1
 40
1
 10
912.541313
 20
275.040678
 30
0.0
 10
913.091928
 20
275.040680
 30
0.0
 10
913.541198
 20
275.489970
 30
0.0
 10
913.541198
 20
276.040583
 30
0.0
  0
SPLINE
  5
1e7
100
AcDbEntity
  8
Calque_1
 62
7
100
AcDbSpline
 70
8
 71
3
 72
8
 73
4
 74
0
 40
0
 40
0
 40
0
 40
0
 40
1
 40
1
 40
1
 40
1
 10
913.541198
 20
276.040583
 30
0.0
 10
913.541198
 20
276.591195
 30
0.0
 10
913.091928
 20
277.040486
 30
0.0
 10
912.541313
 20
277.040487
 30
0.0
  0
LINE
  5
1e8
100
AcDbEntity
  8
Calque_1
 62
7
100
AcDbLine
 10
912.541313
 20
277.040487
 30
0.0
 11
912.541313
 21
277.040487
 31
0.0
  0
SPLINE
  5
1e9
100
AcDbEntity
  8
Calque_1
 62
7
100
AcDbSpline
 70
8
 71
3
 72
8
 73
4
 74
0
 40
0
 40
0
 40
0
 40
0
 40
1
 40
1
 40
1
 40
1
 10
912.541313
 20
276.758265
 30
0.0
 10
912.939387
 20
276.758264
 30
0.0
 10
913.258976
 20
276.438671
 30
0.0
 10
913.258976
 20
276.040583
 30
0.0
  0
SPLINE
  5
1ea
100
AcDbEntity
  8
Calque_1
 62
7
100
AcDbSpline
 70
8
 71
3
 72
8
 73
4
 74
0
 40
0
 40
0
 40
0
 40
0
 40
1
 40
1
 40
1
 40
1
 10
913.258976
 20
276.040583
 30
0.0
 10
913.258976
 20
275.642494
 30
0.0
 10
912.939387
 20
275.322901
 30
0.0
 10
912.541313
 20
275.322900
 30
0.0
  0
SPLINE
  5
1eb
100
AcDbEntity
  8
Calque_1
 62
7
100
AcDbSpline
 70
8
 71
3
 72
8
 73
4
 74
0
 40
0
 40
0
 40
0
 40
0
 40
1
 40
1
 40
1
 40
1
 10
912.541313
 20
275.322900
 30
0.0
 10
912.143210
 20
275.322901
 30
0.0
 10
911.823622
 20
275.642494
 30
0.0
 10
911.823622
 20
276.040583
 30
0.0
  0
SPLINE
  5
1ec
100
AcDbEntity
  8
Calque_1
 62
7
100
AcDbSpline
 70
8
 71
3
 72
8
 73
4
 74
0
 40
0
 40
0
 40
0
 40
0
 40
1
 40
1
 40
1
 40
1
 10
911.823622
 20
276.040583
 30
0.0
 10
911.823622
 20
276.438671
 30
0.0
 10
912.143210
 20
276.758264
 30
0.0
 10
912.541313
 20
276.758265
 30
0.0
  0
LINE
  5
1ed
100
AcDbEntity
  8
Calque_1
 62
7
100
AcDbLine
 10
912.541313
 20
276.758265
 30
0.0
 11
912.541313
 21
276.758265
 31
0.0
  0
SPLINE
  5
1ee
100
AcDbEntity
  8
Calque_1
 62
7
100
AcDbSpline
 70
8
 71
3
 72
8
 73
4
 74
0
 40
0
 40
0
 40
0
 40
0
 40
1
 40
1
 40
1
 40
1
 10
912.541313
 20
282.521221
 30
0.0
 10
911.990697
 20
282.521219
 30
0.0
 10
911.541399
 20
282.071378
 30
0.0
 10
911.541399
 20
281.520765
 30
0.0
  0
SPLINE
  5
1ef
100
AcDbEntity
  8
Calque_1
 62
7
100
AcDbSpline
 70
8
 71
3
 72
8
 73
4
 74
0
 40
0
 40
0
 40
0
 40
0
 40
1
 40
1
 40
1
 40
1
 10
911.541399
 20
281.520765
 30
0.0
 10
911.541399
 20
280.970152
 30
0.0
 10
911.990697
 20
280.520862
 30
0.0
 10
912.541313
 20
280.520860
 30
0.0
  0
SPLINE
  5
1f0
100
AcDbEntity
  8
Calque_1
 62
7
100
AcDbSpline
 70
8
 71
3
 72
8
 73
4
 74
0
 40
0
 40
0
 40
0
 40
0
 40
1
 40
1
 40
1
 40
1
 10
912.541313
 20
280.520860
 30
0.0
 10
913.091928
 20
280.520862
 30
0.0
 10
913.541198
 20
280.970152
 30
0.0
 10
913.541198
 20
281.520765
 30
0.0
  0
SPLINE
  5
1f1
100
AcDbEntity
  8
Calque_1
 62
7
100
AcDbSpline
 70
8
 71
3
 72
8
 73
4
 74
0
 40
0
 40
0
 40
0
 40
0
 40
1
 40
1
 40
1
 40
1
 10
913.541198
 20
281.520765
 30
0.0
 10
913.541198
 20
282.071378
 30
0.0
 10
913.091928
 20
282.521219
 30
0.0
 10
912.541313
 20
282.521221
 30
0.0
  0
LINE
  5
1f2
100
AcDbEntity
  8
Calque_1
 62
7
100
AcDbLine
 10
912.541313
 20
282.521221
 30
0.0
 11
912.541313
 21
282.521221
 31
0.0
  0
SPLINE
  5
1f3
100
AcDbEntity
  8
Calque_1
 62
7
100
AcDbSpline
 70
8
 71
3
 72
8
 73
4
 74
0
 40
0
 40
0
 40
0
 40
0
 40
1
 40
1
 40
1
 40
1
 10
912.541313
 20
282.238999
 30
0.0
 10
912.939387
 20
282.238997
 30
0.0
 10
913.258976
 20
281.918853
 30
0.0
 10
913.258976
 20
281.520765
 30
0.0
  0
SPLINE
  5
1f4
100
AcDbEntity
  8
Calque_1
 62
7
100
AcDbSpline
 70
8
 71
3
 72
8
 73
4
 74
0
 40
0
 40
0
 40
0
 40
0
 40
1
 40
1
 40
1
 40
1
 10
913.258976
 20
281.520765
 30
0.0
 10
913.258976
 20
281.122677
 30
0.0
 10
912.939387
 20
280.803084
 30
0.0
 10
912.541313
 20
280.803083
 30
0.0
  0
SPLINE
  5
1f5
100
AcDbEntity
  8
Calque_1
 62
7
100
AcDbSpline
 70
8
 71
3
 72
8
 73
4
 74
0
 40
0
 40
0
 40
0
 40
0
 40
1
 40
1
 40
1
 40
1
 10
912.541313
 20
280.803083
 30
0.0
 10
912.143210
 20
280.803084
 30
0.0
 10
911.823622
 20
281.122677
 30
0.0
 10
911.823622
 20
281.520765
 30
0.0
  0
SPLINE
  5
1f6
100
AcDbEntity
  8
Calque_1
 62
7
100
AcDbSpline
 70
8
 71
3
 72
8
 73
4
 74
0
 40
0
 40
0
 40
0
 40
0
 40
1
 40
1
 40
1
 40
1
 10
911.823622
 20
281.520765
 30
0.0
 10
911.823622
 20
281.918853
 30
0.0
 10
912.143210
 20
282.238997
 30
0.0
 10
912.541313
 20
282.238999
 30
0.0
  0
LINE
  5
1f7
100
AcDbEntity
  8
Calque_1
 62
7
100
AcDbLine
 10
912.541313
 20
282.238999
 30
0.0
 11
912.541313
 21
282.238999
 31
0.0
  0
SPLINE
  5
1f8
100
AcDbEntity
  8
Calque_1
 62
7
100
AcDbSpline
 70
8
 71
3
 72
8
 73
4
 74
0
 40
0
 40
0
 40
0
 40
0
 40
1
 40
1
 40
1
 40
1
 10
912.541313
 20
261.564015
 30
0.0
 10
911.990697
 20
261.564015
 30
0.0
 10
911.541399
 20
261.114173
 30
0.0
 10
911.541399
 20
260.563560
 30
0.0
  0
SPLINE
  5
1f9
100
AcDbEntity
  8
Calque_1
 62
7
100
AcDbSpline
 70
8
 71
3
 72
8
 73
4
 74
0
 40
0
 40
0
 40
0
 40
0
 40
1
 40
1
 40
1
 40
1
 10
911.541399
 20
260.563560
 30
0.0
 10
911.541399
 20
260.012950
 30
0.0
 10
911.990697
 20
259.563658
 30
0.0
 10
912.541313
 20
259.563655
 30
0.0
  0
SPLINE
  5
1fa
100
AcDbEntity
  8
Calque_1
 62
7
100
AcDbSpline
 70
8
 71
3
 72
8
 73
4
 74
0
 40
0
 40
0
 40
0
 40
0
 40
1
 40
1
 40
1
 40
1
 10
912.541313
 20
259.563655
 30
0.0
 10
913.091900
 20
259.563658
 30
0.0
 10
913.541198
 20
260.012950
 30
0.0
 10
913.541198
 20
260.563560
 30
0.0
  0
SPLINE
  5
1fb
100
AcDbEntity
  8
Calque_1
 62
7
100
AcDbSpline
 70
8
 71
3
 72
8
 73
4
 74
0
 40
0
 40
0
 40
0
 40
0
 40
1
 40
1
 40
1
 40
1
 10
913.541198
 20
260.563560
 30
0.0
 10
913.541198
 20
261.114173
 30
0.0
 10
913.091928
 20
261.564015
 30
0.0
 10
912.541313
 20
261.564015
 30
0.0
  0
LINE
  5
1fc
100
AcDbEntity
  8
Calque_1
 62
7
100
AcDbLine
 10
912.541313
 20
261.564015
 30
0.0
 11
912.541313
 21
261.564015
 31
0.0
  0
SPLINE
  5
1fd
100
AcDbEntity
  8
Calque_1
 62
7
100
AcDbSpline
 70
8
 71
3
 72
8
 73
4
 74
0
 40
0
 40
0
 40
0
 40
0
 40
1
 40
1
 40
1
 40
1
 10
912.541313
 20
261.281793
 30
0.0
 10
912.939387
 20
261.281793
 30
0.0
 10
913.258976
 20
260.961648
 30
0.0
 10
913.258976
 20
260.563560
 30
0.0
  0
SPLINE
  5
1fe
100
AcDbEntity
  8
Calque_1
 62
7
100
AcDbSpline
 70
8
 71
3
 72
8
 73
4
 74
0
 40
0
 40
0
 40
0
 40
0
 40
1
 40
1
 40
1
 40
1
 10
913.258976
 20
260.563560
 30
0.0
 10
913.258976
 20
260.165471
 30
0.0
 10
912.939387
 20
259.845880
 30
0.0
 10
912.541313
 20
259.845877
 30
0.0
  0
SPLINE
  5
1ff
100
AcDbEntity
  8
Calque_1
 62
7
100
AcDbSpline
 70
8
 71
3
 72
8
 73
4
 74
0
 40
0
 40
0
 40
0
 40
0
 40
1
 40
1
 40
1
 40
1
 10
912.541313
 20
259.845877
 30
0.0
 10
912.143210
 20
259.845880
 30
0.0
 10
911.823622
 20
260.165471
 30
0.0
 10
911.823622
 20
260.563560
 30
0.0
  0
SPLINE
  5
200
100
AcDbEntity
  8
Calque_1
 62
7
100
AcDbSpline
 70
8
 71
3
 72
8
 73
4
 74
0
 40
0
 40
0
 40
0
 40
0
 40
1
 40
1
 40
1
 40
1
 10
911.823622
 20
260.563560
 30
0.0
 10
911.823622
 20
260.961648
 30
0.0
 10
912.143210
 20
261.281793
 30
0.0
 10
912.541313
 20
261.281793
 30
0.0
  0
LINE
  5
201
100
AcDbEntity
  8
Calque_1
 62
7
100
AcDbLine
 10
912.541313
 20
261.281793
 30
0.0
 11
912.541313
 21
261.281793
 31
0.0
  0
SPLINE
  5
202
100
AcDbEntity
  8
Calque_1
 62
7
100
AcDbSpline
 70
8
 71
3
 72
8
 73
4
 74
0
 40
0
 40
0
 40
0
 40
0
 40
1
 40
1
 40
1
 40
1
 10
912.541313
 20
250.438838
 30
0.0
 10
911.990697
 20
250.438838
 30
0.0
 10
911.541399
 20
249.989545
 30
0.0
 10
911.541399
 20
249.438933
 30
0.0
  0
SPLINE
  5
203
100
AcDbEntity
  8
Calque_1
 62
7
100
AcDbSpline
 70
8
 71
3
 72
8
 73
4
 74
0
 40
0
 40
0
 40
0
 40
0
 40
1
 40
1
 40
1
 40
1
 10
911.541399
 20
249.438933
 30
0.0
 10
911.541399
 20
248.888320
 30
0.0
 10
911.990697
 20
248.439031
 30
0.0
 10
912.541313
 20
248.439028
 30
0.0
  0
SPLINE
  5
204
100
AcDbEntity
  8
Calque_1
 62
7
100
AcDbSpline
 70
8
 71
3
 72
8
 73
4
 74
0
 40
0
 40
0
 40
0
 40
0
 40
1
 40
1
 40
1
 40
1
 10
912.541313
 20
248.439028
 30
0.0
 10
913.091928
 20
248.439031
 30
0.0
 10
913.541198
 20
248.888320
 30
0.0
 10
913.541198
 20
249.438933
 30
0.0
  0
SPLINE
  5
205
100
AcDbEntity
  8
Calque_1
 62
7
100
AcDbSpline
 70
8
 71
3
 72
8
 73
4
 74
0
 40
0
 40
0
 40
0
 40
0
 40
1
 40
1
 40
1
 40
1
 10
913.541198
 20
249.438933
 30
0.0
 10
913.541198
 20
249.989545
 30
0.0
 10
913.091928
 20
250.438838
 30
0.0
 10
912.541313
 20
250.438838
 30
0.0
  0
LINE
  5
206
100
AcDbEntity
  8
Calque_1
 62
7
100
AcDbLine
 10
912.541313
 20
250.438838
 30
0.0
 11
912.541313
 21
250.438838
 31
0.0
  0
SPLINE
  5
207
100
AcDbEntity
  8
Calque_1
 62
7
100
AcDbSpline
 70
8
 71
3
 72
8
 73
4
 74
0
 40
0
 40
0
 40
0
 40
0
 40
1
 40
1
 40
1
 40
1
 10
912.541313
 20
250.156615
 30
0.0
 10
912.939387
 20
250.156615
 30
0.0
 10
913.258976
 20
249.837021
 30
0.0
 10
913.258976
 20
249.438933
 30
0.0
  0
SPLINE
  5
208
100
AcDbEntity
  8
Calque_1
 62
7
100
AcDbSpline
 70
8
 71
3
 72
8
 73
4
 74
0
 40
0
 40
0
 40
0
 40
0
 40
1
 40
1
 40
1
 40
1
 10
913.258976
 20
249.438933
 30
0.0
 10
913.258976
 20
249.040844
 30
0.0
 10
912.939387
 20
248.721253
 30
0.0
 10
912.541313
 20
248.721250
 30
0.0
  0
SPLINE
  5
209
100
AcDbEntity
  8
Calque_1
 62
7
100
AcDbSpline
 70
8
 71
3
 72
8
 73
4
 74
0
 40
0
 40
0
 40
0
 40
0
 40
1
 40
1
 40
1
 40
1
 10
912.541313
 20
248.721250
 30
0.0
 10
912.143210
 20
248.721253
 30
0.0
 10
911.823622
 20
249.040844
 30
0.0
 10
911.823622
 20
249.438933
 30
0.0
  0
SPLINE
  5
20a
100
AcDbEntity
  8
Calque_1
 62
7
100
AcDbSpline
 70
8
 71
3
 72
8
 73
4
 74
0
 40
0
 40
0
 40
0
 40
0
 40
1
 40
1
 40
1
 40
1
 10
911.823622
 20
249.438933
 30
0.0
 10
911.823622
 20
249.837021
 30
0.0
 10
912.143210
 20
250.156615
 30
0.0
 10
912.541313
 20
250.156615
 30
0.0
  0
LINE
  5
20b
100
AcDbEntity
  8
Calque_1
 62
7
100
AcDbLine
 10
912.541313
 20
250.156615
 30
0.0
 11
912.541313
 21
250.156615
 31
0.0
  0
SPLINE
  5
20c
100
AcDbEntity
  8
Calque_1
 62
7
100
AcDbSpline
 70
8
 71
3
 72
8
 73
4
 74
0
 40
0
 40
0
 40
0
 40
0
 40
1
 40
1
 40
1
 40
1
 10
912.541313
 20
220.614784
 30
0.0
 10
911.990697
 20
220.614784
 30
0.0
 10
911.541399
 20
220.164942
 30
0.0
 10
911.541399
 20
219.614329
 30
0.0
  0
SPLINE
  5
20d
100
AcDbEntity
  8
Calque_1
 62
7
100
AcDbSpline
 70
8
 71
3
 72
8
 73
4
 74
0
 40
0
 40
0
 40
0
 40
0
 40
1
 40
1
 40
1
 40
1
 10
911.541399
 20
219.614329
 30
0.0
 10
911.541399
 20
219.063716
 30
0.0
 10
911.990697
 20
218.614424
 30
0.0
 10
912.541313
 20
218.614424
 30
0.0
  0
SPLINE
  5
20e
100
AcDbEntity
  8
Calque_1
 62
7
100
AcDbSpline
 70
8
 71
3
 72
8
 73
4
 74
0
 40
0
 40
0
 40
0
 40
0
 40
1
 40
1
 40
1
 40
1
 10
912.541313
 20
218.614424
 30
0.0
 10
913.091928
 20
218.614424
 30
0.0
 10
913.541198
 20
219.063716
 30
0.0
 10
913.541198
 20
219.614329
 30
0.0
  0
SPLINE
  5
20f
100
AcDbEntity
  8
Calque_1
 62
7
100
AcDbSpline
 70
8
 71
3
 72
8
 73
4
 74
0
 40
0
 40
0
 40
0
 40
0
 40
1
 40
1
 40
1
 40
1
 10
913.541198
 20
219.614329
 30
0.0
 10
913.541198
 20
220.164942
 30
0.0
 10
913.091928
 20
220.614784
 30
0.0
 10
912.541313
 20
220.614784
 30
0.0
  0
LINE
  5
210
100
AcDbEntity
  8
Calque_1
 62
7
100
AcDbLine
 10
912.541313
 20
220.614784
 30
0.0
 11
912.541313
 21
220.614784
 31
0.0
  0
SPLINE
  5
211
100
AcDbEntity
  8
Calque_1
 62
7
100
AcDbSpline
 70
8
 71
3
 72
8
 73
4
 74
0
 40
0
 40
0
 40
0
 40
0
 40
1
 40
1
 40
1
 40
1
 10
912.541313
 20
220.332562
 30
0.0
 10
912.939387
 20
220.332562
 30
0.0
 10
913.258976
 20
220.012417
 30
0.0
 10
913.258976
 20
219.614329
 30
0.0
  0
SPLINE
  5
212
100
AcDbEntity
  8
Calque_1
 62
7
100
AcDbSpline
 70
8
 71
3
 72
8
 73
4
 74
0
 40
0
 40
0
 40
0
 40
0
 40
1
 40
1
 40
1
 40
1
 10
913.258976
 20
219.614329
 30
0.0
 10
913.258976
 20
219.216240
 30
0.0
 10
912.939387
 20
218.896646
 30
0.0
 10
912.541313
 20
218.896646
 30
0.0
  0
SPLINE
  5
213
100
AcDbEntity
  8
Calque_1
 62
7
100
AcDbSpline
 70
8
 71
3
 72
8
 73
4
 74
0
 40
0
 40
0
 40
0
 40
0
 40
1
 40
1
 40
1
 40
1
 10
912.541313
 20
218.896646
 30
0.0
 10
912.143210
 20
218.896646
 30
0.0
 10
911.823622
 20
219.216240
 30
0.0
 10
911.823622
 20
219.614329
 30
0.0
  0
SPLINE
  5
214
100
AcDbEntity
  8
Calque_1
 62
7
100
AcDbSpline
 70
8
 71
3
 72
8
 73
4
 74
0
 40
0
 40
0
 40
0
 40
0
 40
1
 40
1
 40
1
 40
1
 10
911.823622
 20
219.614329
 30
0.0
 10
911.823622
 20
220.012417
 30
0.0
 10
912.143210
 20
220.332562
 30
0.0
 10
912.541313
 20
220.332562
 30
0.0
  0
LINE
  5
215
100
AcDbEntity
  8
Calque_1
 62
7
100
AcDbLine
 10
912.541313
 20
220.332562
 30
0.0
 11
912.541313
 21
220.332562
 31
0.0
  0
LINE
  5
216
100
AcDbEntity
  8
Calque_1
 62
7
100
AcDbLine
 10
1066.340771
 20
108.764394
 30
0.0
 11
953.081541
 21
124.970054
 31
0.0
  0
LINE
  5
217
100
AcDbEntity
  8
Calque_1
 62
7
100
AcDbLine
 10
953.081541
 20
124.970054
 30
0.0
 11
912.649128
 21
31.878384
 31
0.0
  0
LINE
  5
218
100
AcDbEntity
  8
Calque_1
 62
7
100
AcDbLine
 10
912.649128
 20
31.878384
 30
0.0
 11
872.216698
 21
124.970057
 31
0.0
  0
LINE
  5
219
100
AcDbEntity
  8
Calque_1
 62
7
100
AcDbLine
 10
872.216698
 20
124.970057
 30
0.0
 11
758.957468
 21
108.764396
 31
0.0
  0
LINE
  5
21a
100
AcDbEntity
  8
Calque_1
 62
7
100
AcDbLine
 10
758.957468
 20
108.764396
 30
0.0
 11
831.784286
 21
185.650409
 31
0.0
  0
LINE
  5
21b
100
AcDbEntity
  8
Calque_1
 62
7
100
AcDbLine
 10
831.784286
 20
185.650409
 30
0.0
 11
758.957468
 21
262.536416
 31
0.0
  0
LINE
  5
21c
100
AcDbEntity
  8
Calque_1
 62
7
100
AcDbLine
 10
758.957468
 20
262.536416
 30
0.0
 11
872.216698
 21
246.330756
 31
0.0
  0
LINE
  5
21d
100
AcDbEntity
  8
Calque_1
 62
7
100
AcDbLine
 10
872.216698
 20
246.330756
 30
0.0
 11
912.649128
 21
339.422426
 31
0.0
  0
LINE
  5
21e
100
AcDbEntity
  8
Calque_1
 62
7
100
AcDbLine
 10
912.649128
 20
339.422426
 30
0.0
 11
953.081541
 21
246.330753
 31
0.0
  0
LINE
  5
21f
100
AcDbEntity
  8
Calque_1
 62
7
100
AcDbLine
 10
953.081541
 20
246.330753
 30
0.0
 11
1066.340771
 21
262.536416
 31
0.0
  0
LINE
  5
220
100
AcDbEntity
  8
Calque_1
 62
7
100
AcDbLine
 10
1066.340771
 20
262.536416
 30
0.0
 11
993.513971
 21
185.650401
 31
0.0
  0
LINE
  5
221
100
AcDbEntity
  8
Calque_1
 62
7
100
AcDbLine
 10
993.513971
 20
185.650401
 30
0.0
 11
1066.340771
 21
108.764394
 31
0.0
  0
ENDSEC
  0
SECTION
  2
OBJECTS
  0
DICTIONARY
  5
C
330
0
100
AcDbDictionary
  3
ACAD_GROUP
350
D
  3
ACAD_MLINESTYLE
350
17
  0
DICTIONARY
  5
D
330
C
100
AcDbDictionary
  0
DICTIONARY
  5
1A
330
C
100
AcDbDictionary
  0
DICTIONARY
  5
17
330
C
100
AcDbDictionary
  3
STANDARD
350
18
  0
DICTIONARY
  5
19
330
C
100
AcDbDictionary
  0
ENDSEC
  0
EOF
