<?xml version="1.0" encoding="UTF-8" standalone="no"?>
<!-- Created with Inkscape (http://www.inkscape.org/) -->

<svg
   xmlns:dc="http://purl.org/dc/elements/1.1/"
   xmlns:cc="http://creativecommons.org/ns#"
   xmlns:rdf="http://www.w3.org/1999/02/22-rdf-syntax-ns#"
   xmlns:svg="http://www.w3.org/2000/svg"
   xmlns="http://www.w3.org/2000/svg"
   xmlns:xlink="http://www.w3.org/1999/xlink"
   xmlns:sodipodi="http://sodipodi.sourceforge.net/DTD/sodipodi-0.dtd"
   xmlns:inkscape="http://www.inkscape.org/namespaces/inkscape"
   width="1280mm"
   height="880mm"
   viewBox="0 0 4535.4331 3118.1103"
   id="svg4240"
   version="1.1"
   inkscape:version="0.91 r"
   sodipodi:docname="grand_sapin.svg">
  <title
     id="title4788">Découpage Laser</title>
  <defs
     id="defs4242" />
  <sodipodi:namedview
     id="base"
     pagecolor="#ffffff"
     bordercolor="#666666"
     borderopacity="1.0"
     inkscape:pageopacity="0.0"
     inkscape:pageshadow="2"
     inkscape:zoom="0.32"
     inkscape:cx="1447.1362"
     inkscape:cy="750.51009"
     inkscape:document-units="mm"
     inkscape:current-layer="layer1"
     showgrid="false"
     inkscape:window-width="1366"
     inkscape:window-height="716"
     inkscape:window-x="0"
     inkscape:window-y="0"
     inkscape:window-maximized="1"
     showguides="false" />
  <metadata
     id="metadata4245">
    <rdf:RDF>
      <cc:Work
         rdf:about="">
        <dc:format>image/svg+xml</dc:format>
        <dc:type
           rdf:resource="http://purl.org/dc/dcmitype/StillImage" />
        <dc:title>Découpage Laser</dc:title>
        <dc:creator>
          <cc:Agent>
            <dc:title />
          </cc:Agent>
        </dc:creator>
        <dc:publisher>
          <cc:Agent>
            <dc:title>Fablab Lannion</dc:title>
          </cc:Agent>
        </dc:publisher>
        <dc:source>http://fablab-lannion.org:8080/wiki/index.php?title=Chaine_logiciel_pour_d%C3%A9coupeuse_laser#Inkscape</dc:source>
        <dc:contributor>
          <cc:Agent>
            <dc:title>JJL</dc:title>
          </cc:Agent>
        </dc:contributor>
        <cc:license
           rdf:resource="http://creativecommons.org/licenses/by-sa/3.0/" />
      </cc:Work>
      <cc:License
         rdf:about="http://creativecommons.org/licenses/by-sa/3.0/">
        <cc:permits
           rdf:resource="http://creativecommons.org/ns#Reproduction" />
        <cc:permits
           rdf:resource="http://creativecommons.org/ns#Distribution" />
        <cc:requires
           rdf:resource="http://creativecommons.org/ns#Notice" />
        <cc:requires
           rdf:resource="http://creativecommons.org/ns#Attribution" />
        <cc:permits
           rdf:resource="http://creativecommons.org/ns#DerivativeWorks" />
        <cc:requires
           rdf:resource="http://creativecommons.org/ns#ShareAlike" />
      </cc:License>
    </rdf:RDF>
  </metadata>
  <g
     inkscape:label="Calque 1"
     inkscape:groupmode="layer"
     id="layer1"
     transform="translate(0,2065.7481)">
    <path
       style="fill:none;fill-rule:evenodd;stroke:#000000;stroke-width:3.54330707;stroke-linecap:butt;stroke-linejoin:miter;stroke-miterlimit:4;stroke-dasharray:none;stroke-opacity:1"
       d="m 1302.0759,-678.0492 c 29.1616,16.83648 -8.308,47.61577 -27.9834,48.46849 -53.3191,2.3108 -78.6812,-59.98171 -68.9536,-104.43519 17.4004,-79.51685 108.9881,-112.82682 180.887,-89.43878 105.5145,34.3229 147.7508,158.57499 109.9239,257.33887 -50.4172,131.63672 -208.3567,182.99234 -333.7907,130.40906 -157.8457,-66.17069 -218.39524,-258.22875 -150.8941,-410.24254 81.7529,-184.10901 308.1509,-253.89131 486.6943,-171.37931 210.4072,97.23747 289.4456,358.1045 191.8645,563.14618 -112.6613,236.72874 -408.0789,325.03875 -639.5981,212.34964 -263.06664,-128.04454 -360.65904,-458.06799 -232.83464,-716.04995 143.3995,-289.41667 508.06764,-396.29927 792.50164,-253.31987 315.7756,158.7342 431.9542,558.07566 273.8051,868.95358 C 1709.6443,-0.1076873 1275.6079,125.37157 938.29236,-47.958816 566.59086,-238.95848 433.34395,-702.87914 623.51706,-1069.8161 c 206.4325,-398.3094 704.71054,-540.7647 1098.30904,-335.2605 424.9205,221.858 576.5867,754.5043 355.7456,1174.76097 C 1840.2945,221.21878 1273.2709,382.09787 826.35896,145.91515 348.2085,-106.77641 178.11479,-708.18454 429.64309,-1181.7494 c 268.10167,-504.7686 903.90051,-684.0784 1404.11641,-417.2012 531.3881,283.5084 719.9151,953.70322 437.6862,1480.56836 C 1972.5337,439.62678 1267.9385,637.37221 714.42566,339.78911 129.79447,25.476043 -77.170223,-713.52342 235.76912,-1293.6829 c 329.71194,-611.2543 1103.11888,-827.439 1709.92378,-499.1416 629.726,340.6983 838.9864,1152.54474 520.2385,1785.3478237 C 2448.1601,27.804283 2047.0722,168.51734 2042.6801,176.61306"
       id="path4700"
       inkscape:connector-curvature="0"
       sodipodi:nodetypes="cssssssssssssssssssssssssc" />
    <path
       sodipodi:nodetypes="csssssssssssssssssssssssc"
       inkscape:connector-curvature="0"
       id="path4703"
       d="m 1300.7876,-679.66289 c -2.5815,33.57383 -46.5305,13.08428 -55.802,-4.29066 -25.125,-47.08503 20.091,-96.87564 64.3832,-107.31317 79.2283,-18.6703 148.8459,49.52979 158.8245,124.47564 14.644,109.98602 -79.1558,201.76891 -184.5682,210.33577 -140.4982,11.41836 -255.0625,-108.82016 -261.8471,-244.66072 -8.5376,-170.94132 138.4963,-308.54067 304.7533,-313.35827 201.3594,-5.8348 362.1245,168.17737 364.8696,364.84572 3.235,231.7668 -197.8617,415.77441 -424.9383,416.38093 -262.169,0.7002 -469.46835,-227.54787 -467.89224,-485.03086 1.79097,-292.56839 257.23564,-523.19319 545.12344,-519.40339 322.9665,4.2514 576.9405,286.92425 570.9147,605.21578 -6.6897,353.36387 -316.6141,630.7046558 -665.3083,622.42614 -383.76078,-9.111178 -684.48192,-346.30465 -673.93745,-725.40095 11.61935,-417.74137 372.406,-738.38157 785.49355,-725.44867 448.4057,14.0386 792.1971,401.8297 776.9599,845.58594 -16.4498,479.06973 -431.2541,846.0194 -905.6785,828.47126 -509.73362,-18.85411 -899.84722,-460.67898 -879.98259,-965.77101 21.25314,-540.39729 490.1043,-953.67949 1025.86349,-931.49379 571.061,23.6475 1007.5159,519.5298 983.0053,1085.95601 C 2334.9858,3.5832794 1812.0679,463.21404 1214.9752,436.37526 582.58731,407.94993 99.77764,-142.00686 128.94752,-769.7658 c 30.80973,-663.0514 607.8086,-1169.0424 1266.23368,-1137.5391 693.7147,33.1918 1222.8892,637.2353 1189.0503,1326.32621 -10.4731,213.27331 -74.898,410.92997 -178.9539,582.9443562"
       style="fill:none;fill-rule:evenodd;stroke:#ff0000;stroke-width:3.54330707;stroke-linecap:butt;stroke-linejoin:miter;stroke-miterlimit:4;stroke-dasharray:none;stroke-opacity:1"
       inkscape:transform-center-x="-54.017143"
       inkscape:transform-center-y="55.507517" />
    <path
       inkscape:transform-center-y="-53.030356"
       inkscape:transform-center-x="57.545011"
       style="fill:none;fill-rule:evenodd;stroke:#ff0000;stroke-width:3.54330707;stroke-linecap:butt;stroke-linejoin:miter;stroke-miterlimit:4;stroke-dasharray:none;stroke-opacity:1"
       d="m 1298.6146,-677.76725 c 30.537,-14.19016 34.1939,34.16232 23.585,50.75452 -28.7495,44.96365 -94.3037,29.92236 -125.0938,-3.58451 -55.0763,-59.93587 -29.7045,-154.03229 30.7538,-199.43322 88.725,-66.62767 214.6833,-29.78992 273.7727,57.92331 78.7569,116.90795 30.0234,275.67608 -85.0928,348.11206 -144.8617,91.15309 -336.8356,30.33698 -422.45133,-112.26225 -103.69213,-172.70667 -30.69802,-398.08971 139.43153,-496.79076 200.4918,-116.3158 459.403,-31.0886 571.1303,166.60102 128.9935,228.24055 31.499,520.75558 -193.7705,645.46966 -255.9655,141.707918 -582.13589,31.92333 -719.80898,-220.94002 -154.4485,-283.67427 -32.35784,-643.53616 248.10928,-794.14826 311.3716,-167.2081 704.9518,-32.7996 868.4878,275.27859 179.982,339.06022 33.247,766.37918 -302.4481,942.827311 C 1235.3036,176.47547 779.06383,18.924041 588.05278,-347.57748 380.71065,-745.41412 550.47005,-1235.0632 944.83981,-1439.0835 c 425.75319,-220.2558 948.82199,-38.2843 1165.84549,383.9565 233.1755,453.66618 38.9882,1010.163377 -411.1259,1240.18488 -481.5764,246.09969 -1071.50882,39.6939 -1314.52417,-438.29528 -259.02795,-509.48444 -40.40145,-1132.858 465.4646,-1388.8638 537.39037,-271.9593 1194.21007,-41.1098 1463.20317,492.6343 216.184,428.95884 128.3573,929.88018 -171.9767,1269.75771"
       id="path4707"
       inkscape:connector-curvature="0"
       sodipodi:nodetypes="cssssssssssssssssssssc" />
    <g
       id="g5531">
      <path
         inkscape:tile-y0="2890.6361"
         inkscape:tile-x0="39.618421"
         inkscape:tile-h="10.629919"
         inkscape:tile-w="10.629921"
         inkscape:tile-cy="2895.9511"
         inkscape:tile-cx="44.933382"
         inkscape:connector-curvature="0"
         id="path4728"
         d="m 49.653393,830.203 a 4.7200114,4.7200131 0 0 1 -4.720011,4.72001 4.7200114,4.7200131 0 0 1 -4.720011,-4.72001 4.7200114,4.7200131 0 0 1 4.720011,-4.72001 4.7200114,4.7200131 0 0 1 4.720011,4.72001 z"
         style="fill:none;stroke:#ff0000;stroke-width:1.18989921;stroke-linejoin:round;stroke-miterlimit:4;stroke-dasharray:none;stroke-opacity:1" />
      <use
         id="use5131"
         xlink:href="#path4728"
         inkscape:tiled-clone-of="#path4728"
         y="0"
         x="0" />
      <use
         id="use5133"
         transform="translate(116.92913,0)"
         xlink:href="#path4728"
         inkscape:tiled-clone-of="#path4728"
         y="0"
         x="0" />
      <use
         id="use5135"
         transform="translate(233.85827,0)"
         xlink:href="#path4728"
         inkscape:tiled-clone-of="#path4728"
         y="0"
         x="0" />
      <use
         id="use5137"
         transform="translate(350.7874,0)"
         xlink:href="#path4728"
         inkscape:tiled-clone-of="#path4728"
         y="0"
         x="0" />
      <use
         id="use5139"
         transform="translate(467.71653,0)"
         xlink:href="#path4728"
         inkscape:tiled-clone-of="#path4728"
         y="0"
         x="0" />
      <use
         id="use5141"
         transform="translate(584.64567,0)"
         xlink:href="#path4728"
         inkscape:tiled-clone-of="#path4728"
         y="0"
         x="0" />
      <use
         id="use5143"
         transform="translate(701.5748,0)"
         xlink:href="#path4728"
         inkscape:tiled-clone-of="#path4728"
         y="0"
         x="0" />
      <use
         id="use5145"
         transform="translate(818.50393,0)"
         xlink:href="#path4728"
         inkscape:tiled-clone-of="#path4728"
         y="0"
         x="0" />
      <use
         id="use5147"
         transform="translate(935.43307,0)"
         xlink:href="#path4728"
         inkscape:tiled-clone-of="#path4728"
         y="0"
         x="0" />
      <use
         id="use5149"
         transform="translate(1052.3622,0)"
         xlink:href="#path4728"
         inkscape:tiled-clone-of="#path4728"
         y="0"
         x="0" />
      <use
         id="use5151"
         transform="translate(1169.2913,0)"
         xlink:href="#path4728"
         inkscape:tiled-clone-of="#path4728"
         y="0"
         x="0" />
      <use
         id="use5153"
         transform="translate(1286.2205,0)"
         xlink:href="#path4728"
         inkscape:tiled-clone-of="#path4728"
         y="0"
         x="0" />
      <use
         id="use5155"
         transform="translate(1403.1496,0)"
         xlink:href="#path4728"
         inkscape:tiled-clone-of="#path4728"
         y="0"
         x="0" />
      <use
         id="use5157"
         transform="translate(1520.0787,0)"
         xlink:href="#path4728"
         inkscape:tiled-clone-of="#path4728"
         y="0"
         x="0" />
      <use
         id="use5159"
         transform="translate(1637.0079,0)"
         xlink:href="#path4728"
         inkscape:tiled-clone-of="#path4728"
         y="0"
         x="0" />
      <use
         id="use5161"
         transform="translate(1753.937,0)"
         xlink:href="#path4728"
         inkscape:tiled-clone-of="#path4728"
         y="0"
         x="0" />
      <use
         id="use5163"
         transform="translate(1870.8661,0)"
         xlink:href="#path4728"
         inkscape:tiled-clone-of="#path4728"
         y="0"
         x="0" />
      <use
         id="use5165"
         transform="translate(1987.7953,0)"
         xlink:href="#path4728"
         inkscape:tiled-clone-of="#path4728"
         y="0"
         x="0" />
      <use
         id="use5167"
         transform="translate(2104.7244,0)"
         xlink:href="#path4728"
         inkscape:tiled-clone-of="#path4728"
         y="0"
         x="0" />
      <use
         id="use5169"
         transform="translate(2221.6535,0)"
         xlink:href="#path4728"
         inkscape:tiled-clone-of="#path4728"
         y="0"
         x="0" />
      <use
         id="use5171"
         transform="translate(2338.5827,0)"
         xlink:href="#path4728"
         inkscape:tiled-clone-of="#path4728"
         y="0"
         x="0" />
      <use
         id="use5173"
         transform="translate(2455.5118,0)"
         xlink:href="#path4728"
         inkscape:tiled-clone-of="#path4728"
         y="0"
         x="0" />
      <use
         id="use5175"
         transform="translate(2572.4409,0)"
         xlink:href="#path4728"
         inkscape:tiled-clone-of="#path4728"
         y="0"
         x="0" />
      <use
         id="use5177"
         transform="translate(2689.3701,0)"
         xlink:href="#path4728"
         inkscape:tiled-clone-of="#path4728"
         y="0"
         x="0" />
      <use
         id="use5179"
         transform="translate(2806.2992,0)"
         xlink:href="#path4728"
         inkscape:tiled-clone-of="#path4728"
         y="0"
         x="0" />
      <use
         id="use5181"
         transform="translate(2923.2283,0)"
         xlink:href="#path4728"
         inkscape:tiled-clone-of="#path4728"
         y="0"
         x="0" />
      <use
         id="use5183"
         transform="translate(3040.1575,0)"
         xlink:href="#path4728"
         inkscape:tiled-clone-of="#path4728"
         y="0"
         x="0" />
      <use
         id="use5185"
         transform="translate(3157.0866,0)"
         xlink:href="#path4728"
         inkscape:tiled-clone-of="#path4728"
         y="0"
         x="0" />
      <use
         id="use5187"
         transform="translate(3274.0157,0)"
         xlink:href="#path4728"
         inkscape:tiled-clone-of="#path4728"
         y="0"
         x="0" />
      <use
         id="use5189"
         transform="translate(3390.9449,0)"
         xlink:href="#path4728"
         inkscape:tiled-clone-of="#path4728"
         y="0"
         x="0" />
      <use
         id="use5191"
         transform="translate(3507.874,0)"
         xlink:href="#path4728"
         inkscape:tiled-clone-of="#path4728"
         y="0"
         x="0" />
      <use
         id="use5193"
         transform="translate(3624.8031,0)"
         xlink:href="#path4728"
         inkscape:tiled-clone-of="#path4728"
         y="0"
         x="0" />
      <use
         id="use5195"
         transform="translate(3741.7323,0)"
         xlink:href="#path4728"
         inkscape:tiled-clone-of="#path4728"
         y="0"
         x="0" />
      <use
         id="use5197"
         transform="translate(3858.6614,0)"
         xlink:href="#path4728"
         inkscape:tiled-clone-of="#path4728"
         y="0"
         x="0" />
      <use
         id="use5199"
         transform="translate(3975.5905,0)"
         xlink:href="#path4728"
         inkscape:tiled-clone-of="#path4728"
         y="0"
         x="0" />
      <use
         id="use5201"
         transform="translate(4092.5197,0)"
         xlink:href="#path4728"
         inkscape:tiled-clone-of="#path4728"
         y="0"
         x="0" />
      <use
         id="use5203"
         transform="translate(4209.4488,0)"
         xlink:href="#path4728"
         inkscape:tiled-clone-of="#path4728"
         y="0"
         x="0" />
      <use
         id="use5205"
         transform="translate(4326.3779,0)"
         xlink:href="#path4728"
         inkscape:tiled-clone-of="#path4728"
         y="0"
         x="0" />
      <use
         id="use5207"
         transform="translate(4443.3071,0)"
         xlink:href="#path4728"
         inkscape:tiled-clone-of="#path4728"
         y="0"
         x="0" />
      <use
         id="use5209"
         transform="translate(4560.2362,0)"
         xlink:href="#path4728"
         inkscape:tiled-clone-of="#path4728"
         y="0"
         x="0" />
      <use
         id="use5211"
         transform="translate(4677.1653,0)"
         xlink:href="#path4728"
         inkscape:tiled-clone-of="#path4728"
         y="0"
         x="0" />
      <use
         id="use5213"
         transform="translate(4794.0945,0)"
         xlink:href="#path4728"
         inkscape:tiled-clone-of="#path4728"
         y="0"
         x="0" />
      <use
         id="use5215"
         transform="translate(4911.0236,0)"
         xlink:href="#path4728"
         inkscape:tiled-clone-of="#path4728"
         y="0"
         x="0" />
      <use
         id="use5217"
         transform="translate(5027.9527,0)"
         xlink:href="#path4728"
         inkscape:tiled-clone-of="#path4728"
         y="0"
         x="0" />
      <use
         id="use5219"
         transform="translate(5144.8819,0)"
         xlink:href="#path4728"
         inkscape:tiled-clone-of="#path4728"
         y="0"
         x="0" />
      <use
         id="use5221"
         transform="translate(5261.811,0)"
         xlink:href="#path4728"
         inkscape:tiled-clone-of="#path4728"
         y="0"
         x="0" />
      <use
         id="use5223"
         transform="translate(5378.7401,0)"
         xlink:href="#path4728"
         inkscape:tiled-clone-of="#path4728"
         y="0"
         x="0" />
      <use
         id="use5225"
         transform="translate(5495.6693,0)"
         xlink:href="#path4728"
         inkscape:tiled-clone-of="#path4728"
         y="0"
         x="0" />
      <use
         id="use5227"
         transform="translate(5612.5984,0)"
         xlink:href="#path4728"
         inkscape:tiled-clone-of="#path4728"
         y="0"
         x="0" />
      <use
         id="use5229"
         transform="translate(5729.5275,0)"
         xlink:href="#path4728"
         inkscape:tiled-clone-of="#path4728"
         y="0"
         x="0" />
      <use
         id="use5231"
         transform="translate(5846.4567,0)"
         xlink:href="#path4728"
         inkscape:tiled-clone-of="#path4728"
         y="0"
         x="0" />
      <use
         id="use5233"
         transform="translate(5963.3858,0)"
         xlink:href="#path4728"
         inkscape:tiled-clone-of="#path4728"
         y="0"
         x="0" />
      <use
         id="use5235"
         transform="translate(6080.3149,0)"
         xlink:href="#path4728"
         inkscape:tiled-clone-of="#path4728"
         y="0"
         x="0" />
      <use
         id="use5237"
         transform="translate(6197.2441,0)"
         xlink:href="#path4728"
         inkscape:tiled-clone-of="#path4728"
         y="0"
         x="0" />
      <use
         id="use5239"
         transform="translate(6314.1732,0)"
         xlink:href="#path4728"
         inkscape:tiled-clone-of="#path4728"
         y="0"
         x="0" />
      <use
         id="use5241"
         transform="translate(6431.1023,0)"
         xlink:href="#path4728"
         inkscape:tiled-clone-of="#path4728"
         y="0"
         x="0" />
      <use
         id="use5243"
         transform="translate(6548.0315,0)"
         xlink:href="#path4728"
         inkscape:tiled-clone-of="#path4728"
         y="0"
         x="0" />
      <use
         id="use5245"
         transform="translate(6664.9606,0)"
         xlink:href="#path4728"
         inkscape:tiled-clone-of="#path4728"
         y="0"
         x="0" />
      <use
         id="use5247"
         transform="translate(6781.8897,0)"
         xlink:href="#path4728"
         inkscape:tiled-clone-of="#path4728"
         y="0"
         x="0" />
      <use
         id="use5249"
         transform="translate(6898.8189,0)"
         xlink:href="#path4728"
         inkscape:tiled-clone-of="#path4728"
         y="0"
         x="0" />
      <use
         id="use5251"
         transform="translate(7015.748,0)"
         xlink:href="#path4728"
         inkscape:tiled-clone-of="#path4728"
         y="0"
         x="0" />
      <use
         id="use5253"
         transform="translate(7132.6771,0)"
         xlink:href="#path4728"
         inkscape:tiled-clone-of="#path4728"
         y="0"
         x="0" />
      <use
         id="use5255"
         transform="translate(7249.6063,0)"
         xlink:href="#path4728"
         inkscape:tiled-clone-of="#path4728"
         y="0"
         x="0" />
      <use
         id="use5257"
         transform="translate(7366.5354,0)"
         xlink:href="#path4728"
         inkscape:tiled-clone-of="#path4728"
         y="0"
         x="0" />
      <use
         id="use5259"
         transform="translate(7483.4645,0)"
         xlink:href="#path4728"
         inkscape:tiled-clone-of="#path4728"
         y="0"
         x="0" />
      <use
         id="use5261"
         transform="translate(7600.3937,0)"
         xlink:href="#path4728"
         inkscape:tiled-clone-of="#path4728"
         y="0"
         x="0" />
      <use
         id="use5263"
         transform="translate(7717.3228,0)"
         xlink:href="#path4728"
         inkscape:tiled-clone-of="#path4728"
         y="0"
         x="0" />
      <use
         id="use5265"
         transform="translate(7834.2519,0)"
         xlink:href="#path4728"
         inkscape:tiled-clone-of="#path4728"
         y="0"
         x="0" />
      <use
         id="use5267"
         transform="translate(7951.1811,0)"
         xlink:href="#path4728"
         inkscape:tiled-clone-of="#path4728"
         y="0"
         x="0" />
      <use
         id="use5269"
         transform="translate(8068.1102,0)"
         xlink:href="#path4728"
         inkscape:tiled-clone-of="#path4728"
         y="0"
         x="0" />
      <use
         id="use5271"
         transform="translate(8185.0393,0)"
         xlink:href="#path4728"
         inkscape:tiled-clone-of="#path4728"
         y="0"
         x="0" />
      <use
         id="use5273"
         transform="translate(8301.9685,0)"
         xlink:href="#path4728"
         inkscape:tiled-clone-of="#path4728"
         y="0"
         x="0" />
      <use
         id="use5275"
         transform="translate(8418.8976,0)"
         xlink:href="#path4728"
         inkscape:tiled-clone-of="#path4728"
         y="0"
         x="0" />
      <use
         id="use5277"
         transform="translate(8535.8267,0)"
         xlink:href="#path4728"
         inkscape:tiled-clone-of="#path4728"
         y="0"
         x="0" />
      <use
         id="use5279"
         transform="translate(8652.7559,0)"
         xlink:href="#path4728"
         inkscape:tiled-clone-of="#path4728"
         y="0"
         x="0" />
      <use
         id="use5281"
         transform="translate(8769.685,0)"
         xlink:href="#path4728"
         inkscape:tiled-clone-of="#path4728"
         y="0"
         x="0" />
      <use
         id="use5283"
         transform="translate(8886.6141,0)"
         xlink:href="#path4728"
         inkscape:tiled-clone-of="#path4728"
         y="0"
         x="0" />
      <use
         id="use5285"
         transform="translate(9003.5433,0)"
         xlink:href="#path4728"
         inkscape:tiled-clone-of="#path4728"
         y="0"
         x="0" />
      <use
         id="use5287"
         transform="translate(9120.4724,0)"
         xlink:href="#path4728"
         inkscape:tiled-clone-of="#path4728"
         y="0"
         x="0" />
      <use
         id="use5289"
         transform="translate(9237.4015,0)"
         xlink:href="#path4728"
         inkscape:tiled-clone-of="#path4728"
         y="0"
         x="0" />
      <use
         id="use5291"
         transform="translate(9354.3307,0)"
         xlink:href="#path4728"
         inkscape:tiled-clone-of="#path4728"
         y="0"
         x="0" />
      <use
         id="use5293"
         transform="translate(9471.2598,0)"
         xlink:href="#path4728"
         inkscape:tiled-clone-of="#path4728"
         y="0"
         x="0" />
      <use
         id="use5295"
         transform="translate(9588.1889,0)"
         xlink:href="#path4728"
         inkscape:tiled-clone-of="#path4728"
         y="0"
         x="0" />
      <use
         id="use5297"
         transform="translate(9705.1181,0)"
         xlink:href="#path4728"
         inkscape:tiled-clone-of="#path4728"
         y="0"
         x="0" />
      <use
         id="use5299"
         transform="translate(9822.0472,0)"
         xlink:href="#path4728"
         inkscape:tiled-clone-of="#path4728"
         y="0"
         x="0" />
      <use
         id="use5301"
         transform="translate(9938.9763,0)"
         xlink:href="#path4728"
         inkscape:tiled-clone-of="#path4728"
         y="0"
         x="0" />
      <use
         id="use5303"
         transform="translate(10055.905,0)"
         xlink:href="#path4728"
         inkscape:tiled-clone-of="#path4728"
         y="0"
         x="0" />
      <use
         id="use5305"
         transform="translate(10172.835,0)"
         xlink:href="#path4728"
         inkscape:tiled-clone-of="#path4728"
         y="0"
         x="0" />
      <use
         id="use5307"
         transform="translate(10289.764,0)"
         xlink:href="#path4728"
         inkscape:tiled-clone-of="#path4728"
         y="0"
         x="0" />
      <use
         id="use5309"
         transform="translate(10406.693,0)"
         xlink:href="#path4728"
         inkscape:tiled-clone-of="#path4728"
         y="0"
         x="0" />
      <use
         id="use5311"
         transform="translate(10523.622,0)"
         xlink:href="#path4728"
         inkscape:tiled-clone-of="#path4728"
         y="0"
         x="0" />
      <use
         id="use5313"
         transform="translate(10640.551,0)"
         xlink:href="#path4728"
         inkscape:tiled-clone-of="#path4728"
         y="0"
         x="0" />
      <use
         id="use5315"
         transform="translate(10757.48,0)"
         xlink:href="#path4728"
         inkscape:tiled-clone-of="#path4728"
         y="0"
         x="0" />
      <use
         id="use5317"
         transform="translate(10874.409,0)"
         xlink:href="#path4728"
         inkscape:tiled-clone-of="#path4728"
         y="0"
         x="0" />
      <use
         id="use5319"
         transform="translate(10991.339,0)"
         xlink:href="#path4728"
         inkscape:tiled-clone-of="#path4728"
         y="0"
         x="0" />
      <use
         id="use5321"
         transform="translate(11108.268,0)"
         xlink:href="#path4728"
         inkscape:tiled-clone-of="#path4728"
         y="0"
         x="0" />
      <use
         id="use5323"
         transform="translate(11225.197,0)"
         xlink:href="#path4728"
         inkscape:tiled-clone-of="#path4728"
         y="0"
         x="0" />
      <use
         id="use5325"
         transform="translate(11342.126,0)"
         xlink:href="#path4728"
         inkscape:tiled-clone-of="#path4728"
         y="0"
         x="0" />
      <use
         id="use5327"
         transform="translate(11459.055,0)"
         xlink:href="#path4728"
         inkscape:tiled-clone-of="#path4728"
         y="0"
         x="0" />
      <use
         id="use5329"
         transform="translate(11575.984,0)"
         xlink:href="#path4728"
         inkscape:tiled-clone-of="#path4728"
         y="0"
         x="0" />
      <use
         id="use5331"
         transform="translate(11692.913,0)"
         xlink:href="#path4728"
         inkscape:tiled-clone-of="#path4728"
         y="0"
         x="0" />
      <use
         id="use5333"
         transform="translate(11809.842,0)"
         xlink:href="#path4728"
         inkscape:tiled-clone-of="#path4728"
         y="0"
         x="0" />
      <use
         id="use5335"
         transform="translate(11926.772,0)"
         xlink:href="#path4728"
         inkscape:tiled-clone-of="#path4728"
         y="0"
         x="0" />
      <use
         id="use5337"
         transform="translate(12043.701,0)"
         xlink:href="#path4728"
         inkscape:tiled-clone-of="#path4728"
         y="0"
         x="0" />
      <use
         id="use5339"
         transform="translate(12160.63,0)"
         xlink:href="#path4728"
         inkscape:tiled-clone-of="#path4728"
         y="0"
         x="0" />
      <use
         id="use5341"
         transform="translate(12277.559,0)"
         xlink:href="#path4728"
         inkscape:tiled-clone-of="#path4728"
         y="0"
         x="0" />
      <use
         id="use5343"
         transform="translate(12394.488,0)"
         xlink:href="#path4728"
         inkscape:tiled-clone-of="#path4728"
         y="0"
         x="0" />
      <use
         id="use5345"
         transform="translate(12511.417,0)"
         xlink:href="#path4728"
         inkscape:tiled-clone-of="#path4728"
         y="0"
         x="0" />
      <use
         id="use5347"
         transform="translate(12628.346,0)"
         xlink:href="#path4728"
         inkscape:tiled-clone-of="#path4728"
         y="0"
         x="0" />
      <use
         id="use5349"
         transform="translate(12745.276,0)"
         xlink:href="#path4728"
         inkscape:tiled-clone-of="#path4728"
         y="0"
         x="0" />
      <use
         id="use5351"
         transform="translate(12862.205,0)"
         xlink:href="#path4728"
         inkscape:tiled-clone-of="#path4728"
         y="0"
         x="0" />
      <use
         id="use5353"
         transform="translate(12979.134,0)"
         xlink:href="#path4728"
         inkscape:tiled-clone-of="#path4728"
         y="0"
         x="0" />
      <use
         id="use5355"
         transform="translate(13096.063,0)"
         xlink:href="#path4728"
         inkscape:tiled-clone-of="#path4728"
         y="0"
         x="0" />
      <use
         id="use5357"
         transform="translate(13212.992,0)"
         xlink:href="#path4728"
         inkscape:tiled-clone-of="#path4728"
         y="0"
         x="0" />
      <use
         id="use5359"
         transform="translate(13329.921,0)"
         xlink:href="#path4728"
         inkscape:tiled-clone-of="#path4728"
         y="0"
         x="0" />
      <use
         id="use5361"
         transform="translate(13446.85,0)"
         xlink:href="#path4728"
         inkscape:tiled-clone-of="#path4728"
         y="0"
         x="0" />
      <use
         id="use5363"
         transform="translate(13563.779,0)"
         xlink:href="#path4728"
         inkscape:tiled-clone-of="#path4728"
         y="0"
         x="0" />
      <use
         id="use5365"
         transform="translate(13680.709,0)"
         xlink:href="#path4728"
         inkscape:tiled-clone-of="#path4728"
         y="0"
         x="0" />
      <use
         id="use5367"
         transform="translate(13797.638,0)"
         xlink:href="#path4728"
         inkscape:tiled-clone-of="#path4728"
         y="0"
         x="0" />
      <use
         id="use5369"
         transform="translate(13914.567,0)"
         xlink:href="#path4728"
         inkscape:tiled-clone-of="#path4728"
         y="0"
         x="0" />
      <use
         id="use5371"
         transform="translate(14031.496,0)"
         xlink:href="#path4728"
         inkscape:tiled-clone-of="#path4728"
         y="0"
         x="0" />
      <use
         id="use5373"
         transform="translate(14148.425,0)"
         xlink:href="#path4728"
         inkscape:tiled-clone-of="#path4728"
         y="0"
         x="0" />
      <use
         id="use5375"
         transform="translate(14265.354,0)"
         xlink:href="#path4728"
         inkscape:tiled-clone-of="#path4728"
         y="0"
         x="0" />
      <use
         id="use5377"
         transform="translate(14382.283,0)"
         xlink:href="#path4728"
         inkscape:tiled-clone-of="#path4728"
         y="0"
         x="0" />
      <use
         id="use5379"
         transform="translate(14499.213,0)"
         xlink:href="#path4728"
         inkscape:tiled-clone-of="#path4728"
         y="0"
         x="0" />
      <use
         id="use5381"
         transform="translate(14616.142,0)"
         xlink:href="#path4728"
         inkscape:tiled-clone-of="#path4728"
         y="0"
         x="0" />
      <use
         id="use5383"
         transform="translate(14733.071,0)"
         xlink:href="#path4728"
         inkscape:tiled-clone-of="#path4728"
         y="0"
         x="0" />
      <use
         id="use5385"
         transform="translate(14850,0)"
         xlink:href="#path4728"
         inkscape:tiled-clone-of="#path4728"
         y="0"
         x="0" />
      <use
         id="use5387"
         transform="translate(14966.929,0)"
         xlink:href="#path4728"
         inkscape:tiled-clone-of="#path4728"
         y="0"
         x="0" />
      <use
         id="use5389"
         transform="translate(15083.858,0)"
         xlink:href="#path4728"
         inkscape:tiled-clone-of="#path4728"
         y="0"
         x="0" />
      <use
         id="use5391"
         transform="translate(15200.787,0)"
         xlink:href="#path4728"
         inkscape:tiled-clone-of="#path4728"
         y="0"
         x="0" />
      <use
         id="use5393"
         transform="translate(15317.716,0)"
         xlink:href="#path4728"
         inkscape:tiled-clone-of="#path4728"
         y="0"
         x="0" />
      <use
         id="use5395"
         transform="translate(15434.646,0)"
         xlink:href="#path4728"
         inkscape:tiled-clone-of="#path4728"
         y="0"
         x="0" />
      <use
         id="use5397"
         transform="translate(15551.575,0)"
         xlink:href="#path4728"
         inkscape:tiled-clone-of="#path4728"
         y="0"
         x="0" />
      <use
         id="use5399"
         transform="translate(15668.504,0)"
         xlink:href="#path4728"
         inkscape:tiled-clone-of="#path4728"
         y="0"
         x="0" />
      <use
         id="use5401"
         transform="translate(15785.433,0)"
         xlink:href="#path4728"
         inkscape:tiled-clone-of="#path4728"
         y="0"
         x="0" />
      <use
         id="use5403"
         transform="translate(15902.362,0)"
         xlink:href="#path4728"
         inkscape:tiled-clone-of="#path4728"
         y="0"
         x="0" />
      <use
         id="use5405"
         transform="translate(16019.291,0)"
         xlink:href="#path4728"
         inkscape:tiled-clone-of="#path4728"
         y="0"
         x="0" />
      <use
         id="use5407"
         transform="translate(16136.22,0)"
         xlink:href="#path4728"
         inkscape:tiled-clone-of="#path4728"
         y="0"
         x="0" />
      <use
         id="use5409"
         transform="translate(16253.15,0)"
         xlink:href="#path4728"
         inkscape:tiled-clone-of="#path4728"
         y="0"
         x="0" />
      <use
         id="use5411"
         transform="translate(16370.079,0)"
         xlink:href="#path4728"
         inkscape:tiled-clone-of="#path4728"
         y="0"
         x="0" />
      <use
         id="use5413"
         transform="translate(16487.008,0)"
         xlink:href="#path4728"
         inkscape:tiled-clone-of="#path4728"
         y="0"
         x="0" />
      <use
         id="use5415"
         transform="translate(16603.937,0)"
         xlink:href="#path4728"
         inkscape:tiled-clone-of="#path4728"
         y="0"
         x="0" />
      <use
         id="use5417"
         transform="translate(16720.866,0)"
         xlink:href="#path4728"
         inkscape:tiled-clone-of="#path4728"
         y="0"
         x="0" />
      <use
         id="use5419"
         transform="translate(16837.795,0)"
         xlink:href="#path4728"
         inkscape:tiled-clone-of="#path4728"
         y="0"
         x="0" />
      <use
         id="use5421"
         transform="translate(16954.724,0)"
         xlink:href="#path4728"
         inkscape:tiled-clone-of="#path4728"
         y="0"
         x="0" />
      <use
         id="use5423"
         transform="translate(17071.653,0)"
         xlink:href="#path4728"
         inkscape:tiled-clone-of="#path4728"
         y="0"
         x="0" />
      <use
         id="use5425"
         transform="translate(17188.583,0)"
         xlink:href="#path4728"
         inkscape:tiled-clone-of="#path4728"
         y="0"
         x="0" />
      <use
         id="use5427"
         transform="translate(17305.512,0)"
         xlink:href="#path4728"
         inkscape:tiled-clone-of="#path4728"
         y="0"
         x="0" />
      <use
         id="use5429"
         transform="translate(17422.441,0)"
         xlink:href="#path4728"
         inkscape:tiled-clone-of="#path4728"
         y="0"
         x="0" />
      <use
         id="use5431"
         transform="translate(17539.37,0)"
         xlink:href="#path4728"
         inkscape:tiled-clone-of="#path4728"
         y="0"
         x="0" />
      <use
         id="use5433"
         transform="translate(17656.299,0)"
         xlink:href="#path4728"
         inkscape:tiled-clone-of="#path4728"
         y="0"
         x="0" />
      <use
         id="use5435"
         transform="translate(17773.228,0)"
         xlink:href="#path4728"
         inkscape:tiled-clone-of="#path4728"
         y="0"
         x="0" />
      <use
         id="use5437"
         transform="translate(17890.157,0)"
         xlink:href="#path4728"
         inkscape:tiled-clone-of="#path4728"
         y="0"
         x="0" />
      <use
         id="use5439"
         transform="translate(18007.087,0)"
         xlink:href="#path4728"
         inkscape:tiled-clone-of="#path4728"
         y="0"
         x="0" />
      <use
         id="use5441"
         transform="translate(18124.016,0)"
         xlink:href="#path4728"
         inkscape:tiled-clone-of="#path4728"
         y="0"
         x="0" />
      <use
         id="use5443"
         transform="translate(18240.945,0)"
         xlink:href="#path4728"
         inkscape:tiled-clone-of="#path4728"
         y="0"
         x="0" />
      <use
         id="use5445"
         transform="translate(18357.874,0)"
         xlink:href="#path4728"
         inkscape:tiled-clone-of="#path4728"
         y="0"
         x="0" />
      <use
         id="use5447"
         transform="translate(18474.803,0)"
         xlink:href="#path4728"
         inkscape:tiled-clone-of="#path4728"
         y="0"
         x="0" />
      <use
         id="use5449"
         transform="translate(18591.732,0)"
         xlink:href="#path4728"
         inkscape:tiled-clone-of="#path4728"
         y="0"
         x="0" />
      <use
         id="use5451"
         transform="translate(18708.661,0)"
         xlink:href="#path4728"
         inkscape:tiled-clone-of="#path4728"
         y="0"
         x="0" />
      <use
         id="use5453"
         transform="translate(18825.59,0)"
         xlink:href="#path4728"
         inkscape:tiled-clone-of="#path4728"
         y="0"
         x="0" />
      <use
         id="use5455"
         transform="translate(18942.52,0)"
         xlink:href="#path4728"
         inkscape:tiled-clone-of="#path4728"
         y="0"
         x="0" />
      <use
         id="use5457"
         transform="translate(19059.449,0)"
         xlink:href="#path4728"
         inkscape:tiled-clone-of="#path4728"
         y="0"
         x="0" />
      <use
         id="use5459"
         transform="translate(19176.378,0)"
         xlink:href="#path4728"
         inkscape:tiled-clone-of="#path4728"
         y="0"
         x="0" />
      <use
         id="use5461"
         transform="translate(19293.307,0)"
         xlink:href="#path4728"
         inkscape:tiled-clone-of="#path4728"
         y="0"
         x="0" />
      <use
         id="use5463"
         transform="translate(19410.236,0)"
         xlink:href="#path4728"
         inkscape:tiled-clone-of="#path4728"
         y="0"
         x="0" />
      <use
         id="use5465"
         transform="translate(19527.165,0)"
         xlink:href="#path4728"
         inkscape:tiled-clone-of="#path4728"
         y="0"
         x="0" />
      <use
         id="use5467"
         transform="translate(19644.094,0)"
         xlink:href="#path4728"
         inkscape:tiled-clone-of="#path4728"
         y="0"
         x="0" />
      <use
         id="use5469"
         transform="translate(19761.024,0)"
         xlink:href="#path4728"
         inkscape:tiled-clone-of="#path4728"
         y="0"
         x="0" />
      <use
         id="use5471"
         transform="translate(19877.953,0)"
         xlink:href="#path4728"
         inkscape:tiled-clone-of="#path4728"
         y="0"
         x="0" />
      <use
         id="use5473"
         transform="translate(19994.882,0)"
         xlink:href="#path4728"
         inkscape:tiled-clone-of="#path4728"
         y="0"
         x="0" />
      <use
         id="use5475"
         transform="translate(20111.811,0)"
         xlink:href="#path4728"
         inkscape:tiled-clone-of="#path4728"
         y="0"
         x="0" />
      <use
         id="use5477"
         transform="translate(20228.74,0)"
         xlink:href="#path4728"
         inkscape:tiled-clone-of="#path4728"
         y="0"
         x="0" />
      <use
         id="use5479"
         transform="translate(20345.669,0)"
         xlink:href="#path4728"
         inkscape:tiled-clone-of="#path4728"
         y="0"
         x="0" />
      <use
         id="use5481"
         transform="translate(20462.598,0)"
         xlink:href="#path4728"
         inkscape:tiled-clone-of="#path4728"
         y="0"
         x="0" />
      <use
         id="use5483"
         transform="translate(20579.527,0)"
         xlink:href="#path4728"
         inkscape:tiled-clone-of="#path4728"
         y="0"
         x="0" />
      <use
         id="use5485"
         transform="translate(20696.457,0)"
         xlink:href="#path4728"
         inkscape:tiled-clone-of="#path4728"
         y="0"
         x="0" />
      <use
         id="use5487"
         transform="translate(20813.386,0)"
         xlink:href="#path4728"
         inkscape:tiled-clone-of="#path4728"
         y="0"
         x="0" />
      <use
         id="use5489"
         transform="translate(20930.315,0)"
         xlink:href="#path4728"
         inkscape:tiled-clone-of="#path4728"
         y="0"
         x="0" />
      <use
         id="use5491"
         transform="translate(21047.244,0)"
         xlink:href="#path4728"
         inkscape:tiled-clone-of="#path4728"
         y="0"
         x="0" />
      <use
         id="use5493"
         transform="translate(21164.173,0)"
         xlink:href="#path4728"
         inkscape:tiled-clone-of="#path4728"
         y="0"
         x="0" />
      <use
         id="use5495"
         transform="translate(21281.102,0)"
         xlink:href="#path4728"
         inkscape:tiled-clone-of="#path4728"
         y="0"
         x="0" />
      <use
         id="use5497"
         transform="translate(21398.031,0)"
         xlink:href="#path4728"
         inkscape:tiled-clone-of="#path4728"
         y="0"
         x="0" />
      <use
         id="use5499"
         transform="translate(21514.961,0)"
         xlink:href="#path4728"
         inkscape:tiled-clone-of="#path4728"
         y="0"
         x="0" />
      <use
         id="use5501"
         transform="translate(21631.89,0)"
         xlink:href="#path4728"
         inkscape:tiled-clone-of="#path4728"
         y="0"
         x="0" />
      <use
         id="use5503"
         transform="translate(21748.819,0)"
         xlink:href="#path4728"
         inkscape:tiled-clone-of="#path4728"
         y="0"
         x="0" />
      <use
         id="use5505"
         transform="translate(21865.748,0)"
         xlink:href="#path4728"
         inkscape:tiled-clone-of="#path4728"
         y="0"
         x="0" />
      <use
         id="use5507"
         transform="translate(21982.677,0)"
         xlink:href="#path4728"
         inkscape:tiled-clone-of="#path4728"
         y="0"
         x="0" />
      <use
         id="use5509"
         transform="translate(22099.606,0)"
         xlink:href="#path4728"
         inkscape:tiled-clone-of="#path4728"
         y="0"
         x="0" />
      <use
         id="use5511"
         transform="translate(22216.535,0)"
         xlink:href="#path4728"
         inkscape:tiled-clone-of="#path4728"
         y="0"
         x="0" />
      <use
         id="use5513"
         transform="translate(22333.464,0)"
         xlink:href="#path4728"
         inkscape:tiled-clone-of="#path4728"
         y="0"
         x="0" />
      <use
         id="use5515"
         transform="translate(22450.394,0)"
         xlink:href="#path4728"
         inkscape:tiled-clone-of="#path4728"
         y="0"
         x="0" />
      <use
         id="use5517"
         transform="translate(22567.323,0)"
         xlink:href="#path4728"
         inkscape:tiled-clone-of="#path4728"
         y="0"
         x="0" />
      <use
         id="use5519"
         transform="translate(22684.252,0)"
         xlink:href="#path4728"
         inkscape:tiled-clone-of="#path4728"
         y="0"
         x="0" />
      <use
         id="use5521"
         transform="translate(22801.181,0)"
         xlink:href="#path4728"
         inkscape:tiled-clone-of="#path4728"
         y="0"
         x="0" />
      <use
         id="use5523"
         transform="translate(22918.11,0)"
         xlink:href="#path4728"
         inkscape:tiled-clone-of="#path4728"
         y="0"
         x="0" />
      <use
         id="use5525"
         transform="translate(23035.039,0)"
         xlink:href="#path4728"
         inkscape:tiled-clone-of="#path4728"
         y="0"
         x="0" />
      <use
         id="use5527"
         transform="translate(23151.968,0)"
         xlink:href="#path4728"
         inkscape:tiled-clone-of="#path4728"
         y="0"
         x="0" />
      <use
         id="use5529"
         transform="translate(23268.898,0)"
         xlink:href="#path4728"
         inkscape:tiled-clone-of="#path4728"
         y="0"
         x="0" />
    </g>
  </g>
</svg>
