<?xml version="1.0" encoding="UTF-8" standalone="no"?>
<!-- Created with Inkscape (http://www.inkscape.org/) -->

<svg
   xmlns:dc="http://purl.org/dc/elements/1.1/"
   xmlns:cc="http://creativecommons.org/ns#"
   xmlns:rdf="http://www.w3.org/1999/02/22-rdf-syntax-ns#"
   xmlns:svg="http://www.w3.org/2000/svg"
   xmlns="http://www.w3.org/2000/svg"
   xmlns:sodipodi="http://sodipodi.sourceforge.net/DTD/sodipodi-0.dtd"
   xmlns:inkscape="http://www.inkscape.org/namespaces/inkscape"
   width="210mm"
   height="297mm"
   viewBox="0 0 744.09448819 1052.3622047"
   id="svg2"
   version="1.1"
   inkscape:version="0.91 r"
   sodipodi:docname="renne.svg">
  <defs
     id="defs4" />
  <sodipodi:namedview
     id="base"
     pagecolor="#ffffff"
     bordercolor="#666666"
     borderopacity="1.0"
     inkscape:pageopacity="0.0"
     inkscape:pageshadow="2"
     inkscape:zoom="0.7"
     inkscape:cx="364.02616"
     inkscape:cy="584.58363"
     inkscape:document-units="px"
     inkscape:current-layer="layer1"
     showgrid="false"
     inkscape:window-width="1366"
     inkscape:window-height="716"
     inkscape:window-x="0"
     inkscape:window-y="0"
     inkscape:window-maximized="1" />
  <metadata
     id="metadata7">
    <rdf:RDF>
      <cc:Work
         rdf:about="">
        <dc:format>image/svg+xml</dc:format>
        <dc:type
           rdf:resource="http://purl.org/dc/dcmitype/StillImage" />
        <dc:title></dc:title>
      </cc:Work>
    </rdf:RDF>
  </metadata>
  <g
     inkscape:label="Calque 1"
     inkscape:groupmode="layer"
     id="layer1">
    <path
       style="fill:none;stroke:#000000"
       d="m 160.52556,516.33146 c -7.10415,4.16421 -24.52062,21.00939 -29.51062,21.7531 -0.82412,0.41798 -1.55482,-0.10813 -3.5597,-4.37332 -5.56576,-11.84065 -7.05071,-27.92343 -3.83115,-41.49343 1.77672,-7.48864 7.23438,-19.24046 12.4968,-26.90896 3.04662,-4.4396 3.09254,-4.67152 1.19916,-6.056 -1.08283,-0.79178 -5.04823,-2.37097 -8.812,-3.50929 -10.43898,-3.15722 -10.51959,-3.31719 -4.08035,-8.09808 6.85459,-5.08928 17.44178,-10.8485 24.50414,-13.32978 2.88401,-1.01325 6.18752,-2.24069 7.34112,-2.72761 8.08537,-3.41278 17.90619,-5.35319 29.88885,-5.90549 11.40786,-0.5258 14.18369,-0.30912 21.38892,1.66964 26.48062,7.27235 55.73281,29.31384 75.35791,56.7821 12.53704,17.54746 22.92388,30.90061 31.77493,40.84931 11.88071,13.35408 28.58567,29.86938 36.65347,36.23732 2.88401,2.27637 5.47962,4.41633 5.76802,4.75547 2.0697,2.43389 23.6703,17.73739 31.1686,22.0822 18.97151,10.99282 32.45286,14.90461 50.87066,14.76077 16.28214,-0.12718 21.77259,-1.65363 43.80853,-12.17964 10.09404,-4.82169 19.76859,-9.26732 21.499,-9.87917 6.65454,-2.35302 21.25283,-6.38798 27.36177,-7.56275 6.6707,-1.28283 26.95057,-1.07425 28.31215,0.29118 0.66618,0.66805 -0.46811,5.68846 -2.31409,12.45231 -0.51418,1.88395 8.64042,3.44407 11.01808,2.53168 2.36693,-4.73603 1.9035,-8.81818 2.59936,-10.77605 0.43451,-1.22255 3.3531,1.85095 5.92791,3.40497 7.77105,4.72065 10.24822,7.35841 16.64716,17.72636 2.65843,4.30734 10.02472,14.02816 16.36954,21.60185 18.49565,22.07786 20.47908,25.85257 18.94825,36.06086 -0.81844,5.45775 -7.80548,14.1375 -13.16872,16.35902 -3.66282,1.5172 -18.18431,1.01784 -21.5105,-0.7397 -1.1536,-0.60955 -3.27729,-1.6019 -4.71929,-2.2052 -1.44201,-0.60332 -6.30702,-2.77535 -10.81115,-4.82675 -18.69999,-8.51689 -36.80908,-11.73839 -47.91782,-8.52429 -7.31747,2.11718 -7.35581,2.1298 -10.48731,3.45146 -8.49069,3.58354 -24.23393,11.82149 -34.60815,18.10937 -2.59561,1.57322 -13.68594,7.4605 -24.64519,13.08283 -10.95924,5.62234 -23.70133,12.23638 -28.31575,14.69785 -7.35391,3.92281 -16.13615,7.56958 -28.84012,11.97567 -13.20913,4.58128 -24.33409,6.60462 -38.2787,6.9619 -6.34483,0.16255 -12.00798,0.14352 -12.58478,-0.0423 l 0,4e-5 c -0.5768,-0.1858 -4.5882,-1.1321 -8.91422,-2.1029 -15.5617,-3.49217 -28.05244,-6.94979 -29.96059,-10.03726 -0.86954,-1.40694 3.60653,-9.13805 15.91283,-27.48473 2.11491,-3.153 2.36946,-4.24041 1.41159,-6.03021 -0.74589,-1.3937 -4.2043,-4.18355 -6.03184,-4.18355 -2.43004,0 -3.71907,1.30906 -8.51977,8.65204 -3.11109,4.75862 -6.79748,10.38138 -8.19197,12.49502 -4.35597,6.60237 -6.01678,7.65211 -9.69562,6.12828 -3.52402,-1.45969 -22.29014,-20.58191 -27.03682,-27.54986 -18.90341,-27.74951 -29.09966,-39.6382 -47.96757,-55.92957 -4.61442,-3.98429 -8.76726,-7.83407 -9.22851,-8.55508 -0.46127,-0.721 -1.33088,-1.31092 -1.9325,-1.31092 -0.60161,0 -4.43439,-2.59561 -8.51727,-5.76802 -4.08289,-3.17241 -7.96155,-5.76802 -8.61925,-5.76802 -0.65771,0 -2.19794,-0.93362 -3.42275,-2.0747 -1.22482,-1.14109 -2.82913,-2.20293 -3.56515,-2.35966 -1.25974,-0.26823 -2.30608,-0.93048 -5.42123,-3.43113 -0.71854,-0.5768 -2.53054,-1.75662 -4.02665,-2.62183 -2.77506,-1.60481 -6.19472,-4.16376 -13.66439,-10.22513 -2.31015,-1.8746 -4.5299,-3.40838 -4.93277,-3.40838 -0.40287,0 -4.89556,-4.08879 -9.98373,-9.08621 -8.29737,-8.14935 -13.19117,-14.19404 -13.20224,-16.30709 -0.003,-0.41145 5.54124,-4.8858 12.31868,-9.94299 17.49565,-13.05491 18.33619,-13.85835 16.46063,-15.73389 z"
       id="path4170"
       inkscape:connector-curvature="0"
       sodipodi:nodetypes="ccssssssssssssssssssssscscssssssssssssssccsssssssssscsssscssssscscc" />
    <path
       style="fill:none;stroke:#000000"
       d="m 429.7918,592.14645 c -10.4043,-1.10154 -14.50291,-2.243 -24.28886,-6.76438 -8.61818,-3.98185 -15.35159,-9.14805 -15.35159,-11.77849 0,-0.89721 5.12422,-6.86541 11.38716,-13.2627 14.67188,-14.98658 25.63208,-26.68859 26.63589,-28.43865 0.24382,-0.97265 -4.56876,-6.79845 -5.66058,-6.68467 -4.36124,2.65939 -16.00488,14.58853 -26.71756,26.15058 -9.31705,10.05577 -11.77832,14.05174 -15.61425,13.01656 -2.28877,-0.61766 -4.35492,-3.02648 -7.09706,-7.00795 -7.37741,-10.71167 -11.964,-28.57078 -10.95668,-42.66275 0.75799,-10.60402 5.77371,-28.57391 10.38311,-37.19977 2.86737,-5.36588 5.56678,-9.9244 9.0284,-15.24633 2.09168,-3.21574 3.83538,-6.08277 3.87492,-6.37117 10.60803,-15.11991 6.69154,-9.70903 13.83928,-18.69225 7.84603,-9.92795 14.6873,-17.56727 35.37924,-39.50628 8.70111,-9.2255 20.0484,-21.2597 25.21622,-26.74265 23.74902,-25.05551 47.60183,-49.56065 71.46733,-75.29173 l 5.13263,-5.545 14.03272,13.4312 14.03273,13.4312 -5.57116,7.32041 c -3.06414,4.02623 -5.86384,7.55638 -6.22158,7.84478 -0.35774,0.2884 -3.45709,4.06383 -6.88748,8.38985 -3.43036,4.32602 -10.71607,13.29267 -16.19045,19.9259 -5.47438,6.63323 -10.524,12.76831 -11.22138,13.63351 -2.9105,3.61095 -29.16245,35.50597 -32.80095,39.8518 -2.17315,2.59561 -7.642,9.20262 -12.15302,14.68224 -4.51101,5.47962 -8.46735,10.19892 -8.79187,10.48732 -4.83234,5.28786 -10.73295,22.4075 -5.98992,33.03504 4.54109,9.73857 16.76749,19.83811 26.07657,21.5404 6.30267,1.15252 17.17224,-1.46659 23.00966,-5.54437 6.15034,-4.29637 13.24466,-11.0417 84.10602,-79.96865 17.19671,-16.72727 31.81699,-30.72117 32.48952,-31.09756 0.71056,-0.39767 7.02004,4.87412 15.06194,12.58477 l 13.83917,13.26913 -2.69591,3.14619 c -1.48274,1.73041 -6.37326,7.18387 -10.86781,12.11883 -4.49455,4.93494 -9.91932,11.07002 -12.05505,13.63351 -2.13574,2.56347 -7.72021,8.87476 -12.40995,14.02505 -34.55421,37.94771 -35.52724,39.02028 -59.99816,66.13717 -28.19528,31.24394 -54.20998,54.89575 -71.24671,64.77541 -11.62341,6.74047 -16.30619,9.1675 -17.68803,9.1675 -0.75612,0 -2.91206,0.7669 -4.79098,1.70423 -2.60405,1.29907 -23.64869,6.18802 -23.64869,5.4939 0,-0.0748 -3.63457,-0.52082 -8.07683,-0.99113 z"
       id="path4168"
       inkscape:connector-curvature="0"
       sodipodi:nodetypes="ssssccssssssccscccccsssssssccssssscssssssssss" />
    <path
       style="fill:none;stroke:#000000"
       d="m 328.4564,380.86635 c -19.98693,-4.0657 -37.1551,-18.99285 -43.44435,-38.47013 -8.29154,-16.98927 -15.26692,-35.38202 -29.645,-48.37315 -5.0304,-5.9689 -16.62857,-12.3877 -22.85227,-9.82169 7.41271,8.7741 18.78364,16.92763 17.96399,29.77067 3.7234,14.55963 -14.15818,7.35425 -22.20393,7.23895 -10.63419,-2.02163 -20.98094,-8.3301 -23.48048,-19.61691 -2.37805,-13.58571 1.0665,-27.36277 0.74178,-41.04143 5.96629,-0.0207 12.08221,1.11965 17.9406,0.0646 0.87173,-2.81291 3.06725,-8.30289 1.39526,-9.52955 -3.68894,-2.70643 -12.76678,-0.57877 -16.92212,-2.49762 -1.431,-0.66082 -0.71621,-3.14848 0.19679,-6.1757 1.72759,-11.93277 2.25772,-24.41908 6.86351,-35.65129 4.39669,-8.94049 13.71569,-13.78371 23.57009,-12.44352 7.86092,-0.17235 15.72462,-0.10194 23.58692,-0.14842 0.55755,8.47025 -2.84324,17.21981 -9.00139,23.03823 -4.65208,5.10831 -10.32849,7.03719 -14.84656,12.02736 -7.90783,7.2749 10.61524,3.65652 14.09786,0.93267 19.82631,-9.34021 45.7948,-44.83354 45.7948,-44.83354 0,0 2.93007,-5.09099 7.16054,-9.57808 4.23047,-4.48709 13.14791,-12.39992 19.14053,-16.14863 5.99262,-3.74871 19.22507,-5.52994 23.12576,-5.71894 9.15828,-0.004 8.32719,-0.5904 23.09298,3.45872 4.14285,1.17347 13.16246,8.96346 15.92914,14.94035 6.51387,12.53395 -12.53359,15.1586 -17.61996,5.21432 -6.70379,-8.89992 -18.11155,-9.3474 -28.20741,-8.25642 -13.82455,0.87538 -22.38495,13.36245 -31.19874,22.46525 -5.4043,5.59243 1.64327,2.8176 5.13881,2.13004 9.75904,-2.82245 21.29659,-0.41054 29.65673,3.36497 8.36014,3.77551 12.37012,19.84764 -1.40514,16.08195 -8.36941,-4.23986 -17.30392,-9.38077 -26.91256,-5.21844 -7.84773,0.86785 -16.62081,9.11518 -21.19938,12.19455 -4.57857,3.07937 -5.17649,3.23284 1.85868,6.70082 7.03517,3.46798 18.81138,16.53507 12.16636,26.0344 -9.71121,4.72093 -16.31458,-8.38617 -25.40954,-9.76468 -3.82767,-3.67112 -13.23649,-0.22322 -20.14517,2.23054 -11.39961,3.33678 -15.29249,18.31123 -6.26655,26.38903 10.46191,10.33331 27.32019,8.68571 38.63348,0.69441 9.86168,-9.87247 17.15742,6.06529 8.7503,12.96734 -4.50976,6.54583 -10.61894,10.35724 -17.46194,14.29911 -2.01529,1.94964 4.20918,5.02719 5.43109,7.41996 9.1465,9.58504 24.211,18.85925 37.3178,11.27532 12.85445,-8.74801 16.31524,12.29919 3.98709,15.41232 -10.00813,3.75469 -21.49548,3.74694 -31.90746,1.80078 -6.90925,0.7499 5.01147,12.15785 7.15352,15.93088 10.79793,12.41828 31.48246,17.67624 45.1636,6.75719 6.93206,-8.24686 22.63824,-5.19686 17.47355,7.49861 -3.22498,11.64323 -16.30484,15.48832 -27.06918,15.62141 -5.37011,0.37999 -10.84019,0.45956 -16.13243,-0.66663 z"
       id="path4166"
       inkscape:connector-curvature="0"
       sodipodi:nodetypes="cccccccccsscccccccczzccccccczcczzccccccccccccccccc" />
    <path
       style="fill:none;stroke:#000000"
       d="m 499.50364,470.31679 c -1.20532,-1.29781 -6.48449,-6.60701 -11.73147,-11.79823 -5.24699,-5.19122 -9.80314,-10.25889 -10.12478,-11.26149 -0.41504,-1.2937 5.14311,-8.56756 19.14565,-25.05566 10.85176,-12.77801 21.13381,-24.93576 22.84901,-27.01722 1.7152,-2.08144 6.19853,-7.3491 9.96295,-11.7059 3.76443,-4.3568 8.73212,-10.2459 11.03933,-13.08691 5.23506,-6.44626 11.66607,-14.1528 25.78881,-30.90385 6.07875,-7.21003 12.34198,-15.31248 13.91829,-18.00544 3.4658,-5.921 4.89105,-13.9492 3.6566,-20.59699 -1.8087,-9.74026 -13.03925,-22.66609 -23.48567,-27.03089 -5.67072,-2.36937 -16.25462,-1.64466 -22.85131,1.56471 -36.23076,27.78889 -59.225,53.68411 -95.72289,86.61634 -3.84872,3.46081 -8.7273,7.97069 -10.84128,10.02196 -7.10125,6.8906 -13.88129,11.47703 -16.96629,11.47703 -2.3675,0 -5.22317,-2.21457 -13.96345,-10.82866 -6.043,-5.95578 -11.497,-12.16936 -12.11999,-13.80796 65.35614,-68.50298 88.48093,-100.56056 157.83083,-156.25782 18.18758,-12.19866 40.84384,-20.0757 54.64446,-18.99856 10.82697,-0.94446 29.28885,5.84173 38.5433,14.69677 1.34851,1.10303 2.79839,2.69733 2.93388,3.85188 0.27786,2.36782 -2.93477,4.9239 -9.61315,11.87438 -4.48654,4.66932 -10.65302,11.22061 -13.70331,14.55841 -4.34103,4.65199 -5.90728,6.84891 -11.45438,12.77477 0,2.02605 6.00576,7.15136 7.38268,6.30037 0.69341,-0.42855 6.25768,-6.02527 12.36506,-12.43716 6.10737,-6.41189 14.09583,-14.60559 17.7521,-18.20822 l 6.64777,-6.55025 2.48167,2.35532 c 4.91298,4.66285 12.26563,19.10097 14.81821,29.09797 2.49935,9.78857 1.55365,26.00499 -2.17117,37.22997 -8.79228,26.49607 -25.73061,50.83107 -63.90017,91.80429 -3.51331,3.77137 -11.10712,11.98885 -16.87515,18.26106 -5.76802,6.27222 -12.78714,13.80496 -15.59804,16.73943 -2.8109,2.93448 -10.33323,10.99855 -16.71628,17.92018 -6.38304,6.92163 -13.04987,14.03354 -14.81516,15.80425 -1.76529,1.7707 -9.54065,9.91149 -17.27855,18.09062 -15.19493,16.06135 -17.37218,17.30932 -21.82811,12.5115 z"
       id="path4160" />
  </g>
</svg>
