<?xml version="1.0" encoding="UTF-8" standalone="no"?>
<!-- Created with Inkscape (http://www.inkscape.org/) -->

<svg
   xmlns:dc="http://purl.org/dc/elements/1.1/"
   xmlns:cc="http://creativecommons.org/ns#"
   xmlns:rdf="http://www.w3.org/1999/02/22-rdf-syntax-ns#"
   xmlns:svg="http://www.w3.org/2000/svg"
   xmlns="http://www.w3.org/2000/svg"
   xmlns:sodipodi="http://sodipodi.sourceforge.net/DTD/sodipodi-0.dtd"
   xmlns:inkscape="http://www.inkscape.org/namespaces/inkscape"
   width="210mm"
   height="297mm"
   viewBox="0 0 744.09448819 1052.3622047"
   id="svg6245"
   version="1.1"
   inkscape:version="0.91 r"
   sodipodi:docname="renne2.svg">
  <defs
     id="defs6247" />
  <sodipodi:namedview
     id="base"
     pagecolor="#ffffff"
     bordercolor="#666666"
     borderopacity="1.0"
     inkscape:pageopacity="0.0"
     inkscape:pageshadow="2"
     inkscape:zoom="0.7"
     inkscape:cx="381.57564"
     inkscape:cy="817.4944"
     inkscape:document-units="px"
     inkscape:current-layer="layer1"
     showgrid="false"
     inkscape:window-width="1366"
     inkscape:window-height="716"
     inkscape:window-x="0"
     inkscape:window-y="0"
     inkscape:window-maximized="1" />
  <metadata
     id="metadata6250">
    <rdf:RDF>
      <cc:Work
         rdf:about="">
        <dc:format>image/svg+xml</dc:format>
        <dc:type
           rdf:resource="http://purl.org/dc/dcmitype/StillImage" />
        <dc:title></dc:title>
      </cc:Work>
    </rdf:RDF>
  </metadata>
  <g
     inkscape:label="Calque 1"
     inkscape:groupmode="layer"
     id="layer1">
    <path
       style="fill:#000000"
       d="m 372.76888,673.87909 -25.49127,0 -0.71733,-1.86936 -0.71735,-1.86935 1.3224,-7.15349 1.32239,-7.15348 2.2619,-4.41467 c 1.24403,-2.42805 3.91791,-6.49137 5.94195,-9.02958 l 3.68005,-4.61493 0.7803,-38.51007 0.7803,-38.51007 1.89096,-22.5 c 1.04003,-12.375 2.18005,-24.75 2.53338,-27.5 0.35333,-2.75 1.7759,-12.875 3.16127,-22.5 1.38537,-9.625 3.91766,-24.8125 5.62732,-33.75 l 3.10846,-16.25 2.72527,-6.875 c 1.4989,-3.78125 4.49908,-9.6875 6.66708,-13.125 l 3.94184,-6.25 6.75929,-6.61276 6.75929,-6.61275 6.88938,-3.29796 6.88938,-3.29796 10.9127,-0.5535 10.9127,-0.55349 0.3373,27.33921 0.3373,27.33921 2.8125,0.39944 2.8125,0.39944 0,-27.58694 0,-27.58694 7.99332,0 7.99334,0 7.94416,2.51495 c 4.3693,1.38323 9.06918,3.359 10.44418,4.3906 1.375,1.03162 5.70775,5.0443 9.62832,8.91709 l 7.12833,7.04144 4.28026,8.25546 c 2.35414,4.5405 5.16308,11.06796 6.24206,14.50546 1.07899,3.4375 3.36386,14.125 5.07747,23.75 1.71362,9.625 3.98942,23.6875 5.05733,31.25 1.06792,7.5625 2.49185,18.8125 3.16432,25 0.67245,6.1875 2.08311,25.21552 3.13477,42.28448 l 1.91214,31.03446 0.0135,23.34054 0.0135,23.34052 5.50259,7.87814 5.50259,7.87814 1.3506,5.87186 c 0.74283,3.22953 1.55805,7.98124 1.81161,10.55936 l 0.46101,4.6875 -26.07769,0 -26.07767,0 0,-4.14812 0,-4.14813 1.98745,-6.69247 c 1.0931,-3.68086 2.88306,-8.14234 3.97767,-9.91438 1.09463,-1.77205 3.2335,-4.62815 4.75307,-6.3469 l 2.76283,-3.125 0.82858,-13.125 0.82857,-13.125 -1.35023,-17.39458 c -0.74264,-9.56703 -2.19988,-22.78578 -3.2383,-29.375 -1.03844,-6.58923 -2.75778,-15.03723 -3.82075,-18.77334 -1.06299,-3.73611 -4.20222,-11.32986 -6.97607,-16.875 l -5.04335,-10.08208 -6.07706,-8.24056 c -3.34239,-4.53231 -8.82772,-10.81347 -12.18964,-13.95816 l -6.11257,-5.71759 -4.8526,-1.34737 -4.8526,-1.34738 -7.5,0.0205 -7.5,0.0205 -5,2.29805 -5,2.29804 -6.92428,7.362 -6.92427,7.36201 -6.01939,9.1154 -6.0194,9.11541 -4.23247,10.38147 -4.23248,10.38146 -2.42397,14.25312 c -1.33323,7.83919 -3.095,22.40935 -3.91509,32.3781 l -1.49108,18.125 0.83792,13.11843 0.83792,13.11841 2.8381,3.13159 c 1.56095,1.72236 3.7337,4.58142 4.82833,6.35347 1.09461,1.77204 2.88457,6.23352 3.97767,9.91438 l 1.98745,6.69247 0,4.14813 0,4.14812 -25.49126,0 z m -241.21013,-5 -25.79861,0 0,-4.80133 0,-4.80134 1.77112,-5.88499 1.77113,-5.885 5.10387,-6.76004 5.10388,-6.76003 0,-27.35497 0,-27.35497 -1.87281,-6.13616 -1.87282,-6.13617 -1.24148,-13.75 -1.2415,-13.75 -0.0112,-17.50766 -0.0112,-17.50766 1.86199,-15.91764 1.86198,-15.91765 3.25315,-14.6997 3.25315,-14.69969 4.45178,-9.375 4.45177,-9.375 8.26063,-8.26935 8.26062,-8.26935 7.55031,-3.81137 c 4.15268,-2.09626 10.61465,-4.66574 14.35997,-5.70993 3.74531,-1.0442 10.29388,-2.26882 14.5524,-2.72141 l 7.74275,-0.82286 3.81975,0.83895 3.81975,0.83896 0,26.86734 0,26.86734 2.1875,-0.42047 2.1875,-0.42045 0.33863,-26.17608 0.33864,-26.17608 1.53636,-0.97597 1.53637,-0.97598 5.20253,-0.0191 c 2.8614,-0.01 9.6114,0.82087 15,1.84755 l 9.79747,1.86668 7.78815,3.82465 7.78816,3.82467 6.5446,5.58636 6.5446,5.58637 5.34028,7.67367 5.34027,7.67366 2.59881,6.94595 c 1.42935,3.82026 3.71079,12.30777 5.06988,18.86112 1.35909,6.55335 3.26547,17.54018 4.23642,24.41518 0.97094,6.875 2.12725,19.8125 2.56959,28.75 l 0.80423,16.25 -1.34147,17.19046 -1.34146,17.19045 -2.6836,10.93455 -2.6836,10.93454 0.78332,25.46939 0.78334,25.46938 3.86496,4.40195 3.86497,4.40197 2.37851,5.54883 2.37851,5.54884 0.79536,6.76733 0.79537,6.76731 -26.58314,0 -26.58314,0 0.86835,-6.5625 0.86836,-6.5625 2.47468,-5.625 c 1.36107,-3.09375 4.13654,-7.70139 6.16769,-10.2392 l 3.693,-4.6142 0,-28.1849 0,-28.18489 -2.29277,-5.9509 c -1.26101,-3.273 -5.1483,-10.90224 -8.63841,-16.95385 l -6.34565,-11.00294 -4.37257,-13.43503 c -2.40493,-7.38928 -4.78869,-16.20985 -5.29727,-19.6013 -0.50858,-3.39144 -1.68368,-7.98279 -2.61135,-10.20299 -0.92766,-2.2202 -3.40156,-5.98991 -5.49756,-8.37713 l -3.81092,-4.3404 -5.87925,-2.26863 -5.87814,-2.26867 -8.75,0 -8.75,0 -7.02669,3.45077 -7.02669,3.45075 -3.30883,4.77466 -3.30884,4.77466 -1.88895,9.27458 c -1.03893,5.10102 -3.41581,14.05583 -5.28196,19.89958 l -3.39303,10.625 -5.50106,10.625 c -3.02559,5.84375 -7.24771,13.97772 -9.38251,18.07547 l -3.88144,7.45046 -0.4272,28.93791 -0.4272,28.9379 3.69648,4.23664 c 2.03306,2.33014 4.95957,6.72715 6.50336,9.77114 l 2.8069,5.53451 0.65993,7.27799 0.65995,7.27798 -25.79861,0 z m 322.95139,-310.61693 -23.125,0.4534 -9.27089,-1.05815 c -5.09898,-0.58198 -14.51967,-2.00322 -20.93484,-3.15829 l -11.66395,-2.10014 -0.59303,-0.95955 -0.59303,-0.95955 8.22496,-26.58094 8.22498,-26.58093 -1.6971,-1.07532 c -0.9334,-0.59142 -2.00615,-1.08393 -2.38388,-1.09446 -0.37772,-0.01 -2.81267,6.87149 -5.41101,15.29336 -2.59834,8.42188 -6.43425,20.77029 -8.52426,27.44092 l -3.8,12.12842 -8.35188,-4.20594 -8.35187,-4.20593 -6.98445,-5.68949 -6.98445,-5.6895 -5.90771,-7.85799 -5.90771,-7.85799 -4.7121,-9.375 c -2.59166,-5.15625 -6.17702,-12.85767 -7.96748,-17.11428 -1.79045,-4.2566 -4.65841,-13.13927 -6.37323,-19.73925 l -3.11785,-11.99997 -1.33502,-16.71901 -1.33503,-16.71901 1.33853,-17.91674 c 0.73619,-9.8542 2.19595,-22.97924 3.24391,-29.16674 1.04795,-6.1875 3.28643,-16.50326 4.97439,-22.92391 l 3.069,-11.6739 0,-3.86894 0,-3.86893 -2.65971,-5.49423 -2.6597,-5.49422 -2.6528,-1.01726 c -1.45903,-0.55949 -6.53954,-2.58492 -11.29,-4.50096 l -8.6372,-3.4837 -5.26871,-4.02169 c -2.89778,-2.21193 -6.42718,-4.64169 -7.84312,-5.39947 l -2.57441,-1.37779 -7.12465,0 -7.12465,0 -4.842,-1.45069 -4.84199,-1.450701 -5.03365,-4.30861 -5.03364,-4.30861 -2.45688,-4.8159 -2.45689,-4.81589 0,-4.32889 0,-4.32889 3.07406,-3.65332 3.07408,-3.65332 8.20217,-2.69259 c 4.5112,-1.48092 9.25379,-2.69259 10.53909,-2.69259 1.2853,0 7.85468,-1.43363 14.59861,-3.18586 6.74394,-1.75222 17.93029,-5.40216 24.85854,-8.11097 l 12.59684,-4.92512 7.04983,-1.41581 7.04985,-1.41581 7.78052,1.37051 c 4.2793,0.75378 8.09157,1.68156 8.47173,2.06172 l 0.6912,0.69121 -3.39332,6.91887 -3.39334,6.91887 0.72384,1.1712 c 0.39811,0.64416 1.4813,1.17119 2.40708,1.17119 l 1.68322,0 3.4625,-7.5 c 1.90438,-4.125 3.69028,-7.5 3.96866,-7.5 0.2784,0 3.414,1.94401 6.968,4.32001 l 6.46184,4.32001 3.18775,4.11749 c 1.75326,2.26462 4.39885,6.11009 5.87908,8.54549 l 2.69131,4.42801 3.14907,11.19699 3.14908,11.197 2.53436,28.332061 2.53435,28.33206 0,14.87856 0,14.87857 1.8391,6.16438 1.83909,6.16437 3.81242,4.60928 3.81243,4.60926 6.53599,3.04911 c 3.59478,1.67702 10.19222,3.99614 14.66097,5.15362 l 8.125,2.1045 12.77474,0.72721 12.77475,0.7272 9.50438,-1.53323 9.5044,-1.53321 8.78893,-2.98931 8.78893,-2.98931 10.18193,-5.5388 10.18194,-5.5388 6.875,-1.92362 c 3.78125,-1.05797 10.03265,-2.29052 13.892,-2.73897 l 7.017,-0.81538 9.129,1.41642 9.12901,1.41641 8.22899,3.27286 c 4.52595,1.80008 10.1877,4.59291 12.58166,6.20631 2.39398,1.6134 4.73184,2.93345 5.19525,2.93345 0.46342,0 2.79803,-2.72183 5.18802,-6.04853 l 4.34543,-6.04853 7.7646,-5.185 7.76462,-5.18501 4.58893,-1.23568 4.58893,-1.23566 6.12152,-4.0933 c 3.36684,-2.2513 7.51177,-5.03122 9.21093,-6.1776 l 3.08941,-2.08431 2.98733,1.36111 2.98731,1.36111 0.73282,2.9198 0.73283,2.91982 -1.93869,2.95881 -1.93869,2.95882 0.71698,6.94688 0.71699,6.94689 -5.79109,5.9582 -5.79109,5.95821 0,3.39975 c 0,1.86986 -0.36652,4.3549 -0.81449,5.52229 l -0.8145,2.12253 -6.373,2.96749 -6.37301,2.96749 -6.5625,0.0125 c -3.60937,0.006 -6.5625,0.31587 -6.5625,0.68701 0,0.37114 1.15965,2.94791 2.57701,5.72615 1.41735,2.77825 3.66735,9.31458 5,14.52516 l 2.42299,9.4738 -0.0217,8.23754 -0.0217,8.23755 -1.80239,8.50624 -1.80238,8.50624 -4.73842,8.81728 -4.7384,8.8173 -7.32175,6.7973 -7.32176,6.7973 -16.42824,8.23963 c -9.03553,4.5318 -20.36575,9.84737 -25.17825,11.81239 -4.8125,1.96501 -9.3125,3.57448 -10,3.5766 l -1.25,0.004 -6.76646,-25.05185 -6.76645,-25.05184 -1.15496,-0.7138 -1.15495,-0.71381 -1.37258,1.37257 -1.37257,1.37258 6.89826,25.33101 6.89825,25.33101 -1.35427,0.8184 c -0.74484,0.45011 -6.69802,2.26773 -13.22927,4.03913 -6.53125,1.7714 -18.625,4.39666 -26.875,5.83392 l -15,2.6132 -23.125,0.45341 z m -327.1875,-30.66534 -8.4375,-0.0323 -8.15861,-2.78155 -8.15863,-2.78155 -6.48829,-4.76285 -6.4883,-4.76285 -3.98074,-8.08603 -3.98073,-8.08602 -0.59726,-9.3065 -0.59725,-9.3065 3.5999,-1.38941 3.59991,-1.38943 5,0.70636 c 2.75,0.3885 7.19658,1.33164 9.88128,2.09588 l 4.88128,1.38951 6.68123,6.68121 6.68121,6.68123 0,-3.72119 c 0,-2.04664 -0.89376,-8.05684 -1.98615,-13.35597 l -1.98615,-9.6348 -4.11255,-8.91107 -4.11254,-8.91106 -5.01948,-6.71394 c -2.76072,-3.69267 -7.46943,-9.00917 -10.46381,-11.81443 -2.99438,-2.80528 -10.50682,-8.97804 -16.69432,-13.71725 l -11.25,-8.61675 -12.55216,-12.53275 c -6.9037,-6.89303 -14.8874,-15.63535 -17.74158,-19.42742 l -5.18941,-6.89465 -1.33175,-5.94252 -1.33175,-5.94254 0.81159,-5.28781 0.81159,-5.28783 2.2147,-4.375 2.2147,-4.375 4.17204,-3.92256 c 2.29462,-2.1574 5.97222,-4.82928 8.17246,-5.9375 2.20023,-1.10821 4.25556,-2.01494 4.5674,-2.01494 0.31185,0 -0.50397,2.81854 -1.81292,6.26342 l -2.37991,6.2634 0,6.84818 0,6.84819 2.40797,6.33726 2.40797,6.33727 3.40902,4.46945 3.40903,4.46946 3.51844,-7.75098 3.51844,-7.75097 3.91142,-4.93858 c 2.15128,-2.71621 4.93479,-5.48626 6.18558,-6.15566 l 2.27417,-1.2171 -1.30067,4.67584 -1.30066,4.67582 0.70376,10.09938 0.70375,10.09936 2.45337,6.45675 c 1.34936,3.55121 3.93847,8.99088 5.75358,12.08814 1.81512,3.09725 3.73542,5.63137 4.26735,5.63137 0.53192,0 2.19235,-2.17998 3.68985,-4.84442 l 2.72271,-4.84443 5.94496,-5.81546 5.94496,-5.81546 7.39294,-3.71801 c 4.06612,-2.0449 7.67205,-3.4389 8.01317,-3.09777 0.34113,0.34113 -0.24829,1.60805 -1.3098,2.81539 -1.06152,1.20734 -3.06187,4.44833 -4.44524,7.20219 -1.38336,2.75387 -3.18603,7.4983 -4.00593,10.54317 l -1.49073,5.53615 0,8.44504 0,8.44504 1.96419,6.75657 1.96419,6.75659 6.46226,9.8802 c 3.55425,5.43411 8.96146,14.89209 12.01602,21.0177 l 5.55377,11.1375 6.51,-12.3875 c 3.5805,-6.81311 9.11452,-16.32499 12.29782,-21.13749 l 5.78783,-8.75 2.1036,-7.3858 2.1036,-7.38578 -0.53384,-10.17095 -0.53384,-10.17094 -4.05895,-8.67379 c -2.23242,-4.77057 -5.01118,-9.74167 -6.17501,-11.04689 l -2.11605,-2.3731 3.125,0.95152 c 1.71875,0.52333 5.31427,2.05652 7.99005,3.40711 l 4.86504,2.45559 6.2249,5.82152 6.22488,5.82151 3.43924,6.02057 3.43924,6.02056 3.89295,-6.32685 3.89295,-6.32685 2.3883,-7.19371 2.3883,-7.19372 0.80596,-7.5 0.80596,-7.5 -1.2007,-6.24901 c -0.66038,-3.43696 -1.05657,-6.39316 -0.8804,-6.56932 0.17618,-0.17618 2.68657,2.0696 5.57867,4.99061 l 5.25835,5.31091 2.93345,6.25841 c 1.6134,3.44212 3.28705,7.31934 3.71922,8.61605 l 0.78576,2.35765 2.24619,-2.03277 c 1.2354,-1.11803 3.52988,-4.60311 5.09884,-7.74465 l 2.85265,-5.71188 1.31532,-7.738 1.31533,-7.738 -2.13983,-6.875 c -1.17691,-3.78125 -2.44488,-7.60965 -2.81775,-8.50755 l -0.67791,-1.63256 4.81503,1.94655 4.81501,1.94656 5.27601,5.70413 5.276,5.70412 1.27953,4.60688 1.27952,4.60687 0.008,6.79285 0.007,6.79284 -2.68772,5.5521 -2.68773,5.5521 -15.49006,15.98796 -15.49006,15.98795 -13.35508,10.4171 c -7.34529,5.7294 -15.51376,12.56419 -18.15216,15.18842 l -4.79709,4.77132 -6.16285,9.44053 -6.16284,9.44052 -3.22128,10.16316 -3.22129,10.16315 -0.66524,8.75 -0.66524,8.75 2.78617,-3.75 c 1.5324,-2.0625 4.79663,-5.31381 7.25388,-7.22513 l 4.46773,-3.47513 6.80406,-1.978 6.80406,-1.97799 4.9246,0.66053 c 2.70854,0.36329 5.30003,1.03732 5.75888,1.49785 l 0.83426,0.83731 -0.0211,7.70529 -0.0211,7.70527 -2.35504,6.25 c -1.29526,3.4375 -3.79512,8.28167 -5.55523,10.7648 l -3.2002,4.51482 -6.92364,4.43966 -6.92364,4.43966 -6.78937,1.98304 -6.78938,1.98302 -8.52312,0 -8.52313,0 0,-20.625 0,-20.625 -2.5,0 -2.5,0 0,20.625 0,20.625 -8.4375,-0.0322 z"
       id="path6821"
       inkscape:connector-curvature="0" />
  </g>
</svg>
