<?xml version="1.0" encoding="UTF-8" standalone="no"?>
<!-- Created with Inkscape (http://www.inkscape.org/) -->

<svg
   xmlns:dc="http://purl.org/dc/elements/1.1/"
   xmlns:cc="http://creativecommons.org/ns#"
   xmlns:rdf="http://www.w3.org/1999/02/22-rdf-syntax-ns#"
   xmlns:svg="http://www.w3.org/2000/svg"
   xmlns="http://www.w3.org/2000/svg"
   xmlns:sodipodi="http://sodipodi.sourceforge.net/DTD/sodipodi-0.dtd"
   xmlns:inkscape="http://www.inkscape.org/namespaces/inkscape"
   width="310mm"
   height="199.99989mm"
   viewBox="0 0 310 199.99989"
   version="1.1"
   id="svg78053"
   sodipodi:docname="sapin-boule-3mm.svg"
   inkscape:version="0.92.3 (2405546, 2018-03-11)">
  <defs
     id="defs78047" />
  <sodipodi:namedview
     id="base"
     pagecolor="#ffffff"
     bordercolor="#666666"
     borderopacity="1.0"
     inkscape:pageopacity="0.0"
     inkscape:pageshadow="2"
     inkscape:zoom="0.7"
     inkscape:cx="490.92366"
     inkscape:cy="304.60474"
     inkscape:document-units="mm"
     inkscape:current-layer="layer1"
     showgrid="false"
     inkscape:window-width="1853"
     inkscape:window-height="1025"
     inkscape:window-x="67"
     inkscape:window-y="27"
     inkscape:window-maximized="1"
     inkscape:measure-start="-829.333,17.2147"
     inkscape:measure-end="-829.333,28.5715"
     showguides="true"
     inkscape:guide-bbox="true"
     fit-margin-top="10"
     fit-margin-left="10"
     fit-margin-right="10"
     fit-margin-bottom="10">
    <sodipodi:guide
       position="-196.54934,-38.394548"
       orientation="1,0"
       id="guide78676"
       inkscape:locked="false" />
  </sodipodi:namedview>
  <metadata
     id="metadata78050">
    <rdf:RDF>
      <cc:Work
         rdf:about="">
        <dc:format>image/svg+xml</dc:format>
        <dc:type
           rdf:resource="http://purl.org/dc/dcmitype/StillImage" />
        <dc:title></dc:title>
      </cc:Work>
    </rdf:RDF>
  </metadata>
  <g
     inkscape:label="Calque 1"
     inkscape:groupmode="layer"
     id="layer1"
     transform="translate(22.878938,-28.136835)">
    <path
       style="fill:none;stroke:#ff0000;stroke-width:0.1;stroke-miterlimit:4;stroke-dasharray:none"
       d="m 41.52782,208.50588 v -2.29615 h -2.099018 -2.099008 v -3.02718 c 0,-3.26716 -0.677067,-5.30802 -2.243248,-6.76179 -0.434847,-0.40364 -4.124356,-1.878 -8.198922,-3.27637 -17.4598307,-5.99214 -23.4853677,-9.14866 -30.1666887,-15.80304 -4.026079,-4.00986 -5.6400456,-6.15024 -5.6400456,-7.47961 0,-2.11701 4.2219046,-4.6475 14.9929616,-8.98636 6.0482567,-2.43639 9.8023357,-4.24993 10.5828897,-5.11244 0.554107,-0.61229 0.540237,-0.68223 -0.234487,-1.18221 -0.4529,-0.29228 -3.125452,-1.39254 -5.939017,-2.44503 -6.3358837,-2.37012 -7.7689547,-3.09378 -8.9823487,-4.53582 -1.15448396,-1.37204 -1.04053396,-2.57868 0.444737,-4.70934 2.181698,-3.12972 7.238198,-6.44593 19.0474317,-12.49191 4.018116,-2.05715 7.226298,-3.89828 7.129291,-4.0914 -0.097,-0.19312 -2.857045,-1.61805 -6.133407,-3.16651 -6.907531,-3.26463 -7.977635,-4.08099 -7.977635,-6.08607 0,-3.82118 6.553344,-8.11279 19.860519,-13.00613 l 5.573097,-2.04936 -3.809219,-1.30043 c -6.546631,-2.234964 -8.176102,-3.120154 -9.126406,-4.957854 -1.455624,-2.81487 0.827524,-5.04106 15.54769,-15.15989 6.641904,-4.565724 7.592748,-5.422871 9.209079,-8.301643 1.884778,-3.356872 2.793035,-5.855977 5.43425,-14.952526 2.736252,-9.423856 3.883256,-12.265381 5.813377,-14.401789 1.248401,-1.381841 1.429371,-1.462311 3.288549,-1.462311 1.912511,0 2.017941,0.0521 3.776279,1.867518 2.129038,2.198118 2.981545,4.094959 6.690384,14.886266 3.843396,11.182827 5.872654,15.682313 9.5994,21.284875 3.48984,5.2464 7.2549,7.11311 16.897285,8.37766 6.605,0.86621 9.23687,2.17057 10.71207,5.30892 2.8869,6.14162 -5.71304,13.906334 -16.916745,15.273784 -8.57174,1.04621 -13.59844,-2.4813 -11.99919,-8.42049 1.26766,-4.707704 5.43469,-4.778624 9.75608,-0.166024 1.27459,1.360484 1.6485,1.559514 2.92977,1.559514 2.645,0 6.721685,-2.523624 6.721685,-4.160974 0,-1.22798 -5.179385,-2.96253 -10.662175,-3.57072 -6.94656,-0.77056 -16.181916,1.79122 -22.896977,6.351364 -3.109005,2.11129 -7.476418,6.36907 -9.919606,9.6706 -3.581729,4.84007 -6.895981,12.40766 -8.188492,18.69723 -2.782335,13.53921 -0.0494,28.26061 7.190868,38.73401 5.800087,8.39018 15.571663,14.44106 27.543037,17.05555 2.31843,0.50633 4.47903,0.65488 9.525,0.65488 5.714745,0 6.921255,-0.10311 9.701395,-0.8291 5.55207,-0.94535 10.7367,-5.98788 15.24767,-6.29722 2.81066,-0.18145 4.35907,0.47204 5.68586,2.39966 1.61423,2.34524 0.59758,5.66151 -2.87296,9.37153 -5.54466,5.92726 -13.97268,8.57558 -33.582795,10.55264 -3.10444,0.31299 -5.84288,0.73196 -6.08542,0.93106 -0.27494,0.22569 -0.44097,1.27548 -0.44097,2.78823 v 2.42625 h -2.452603 -2.452595 l -0.10503,2.20486 -0.10503,0.61737 -18.785302,0.0913 -18.785315,0.0913 z m 2.104658,-18.25934 c -0.0384,-1.41209 -0.984454,-8.43419 -1.159914,-8.60965 -0.115477,-0.11548 -2.069388,-0.58774 -4.342033,-1.04947 -2.272638,-0.46173 -4.202456,-0.90988 -4.288476,-0.9959 -0.086,-0.086 1.703408,-1.07742 3.976506,-2.20312 l 4.132896,-2.04672 -0.206877,-2.11667 c -0.585287,-5.9883 -0.646457,-7.23168 -0.35561,-7.22852 0.17338,0.002 1.554744,1.43063 3.069695,3.175 1.514941,1.74437 2.906642,3.17158 3.092662,3.17158 0.186017,0 2.098548,-0.88285 4.250066,-1.96188 5.15989,-3.0297 3.753979,-0.81118 1.955938,2.53179 l -2.260368,4.18921 2.320218,2.64752 c 1.276114,1.45614 2.631995,3.00409 3.013072,3.43988 0.38107,0.4358 0.621877,0.86334 0.535127,0.95008 -0.0867,0.0867 -2.058498,-0.21767 -4.381683,-0.67648 -4.920823,-0.97181 -4.215086,-1.35296 -6.879771,3.71553 -1.709481,3.25158 -2.441718,4.16052 -2.471448,3.06782 z m -29.815459,-7.58472 c -0.731147,-2.0858 -1.457694,-3.93808 -1.614541,-4.11617 -0.30266,-0.34368 -3.6226117,-0.33606 -7.2751407,0.0167 -1.369531,0.13226 -2.204855,0.08 -2.204855,-0.13796 0,-0.19299 1.547811,-1.50338 3.439569,-2.91198 1.891758,-1.40859 3.559959,-2.66752 3.707109,-2.79761 0.1471597,-0.1301 -0.368777,-2.02039 -1.146514,-4.20066 -0.777744,-2.18027 -1.414071,-4.12127 -1.414071,-4.31333 0,-0.45264 0.853204,0.0112 4.6914127,2.55056 l 3.103932,2.05354 3.768459,-2.83724 c 2.072658,-1.56048 3.820399,-2.68142 3.883879,-2.49098 0.0635,0.19044 -0.463697,2.20139 -1.171504,4.46877 -0.707817,2.26738 -1.153594,4.23302 -0.990624,4.36809 0.162967,0.13506 1.844108,1.24981 3.735869,2.47722 1.891758,1.22741 3.439569,2.36943 3.439569,2.53782 0,0.16839 -1.309681,0.30754 -2.910402,0.30923 -1.600721,0.002 -3.724009,0.10083 -4.718423,0.22031 l -1.808021,0.21724 -1.307594,4.18942 c -0.719184,2.30417 -1.436101,4.18941 -1.593168,4.18941 -0.15706,0 -0.883787,-1.70656 -1.614941,-3.79236 z m 20.70474,-21.00047 c -1.811218,-2.85676 -3.396739,-5.25313 -3.523369,-5.32528 -0.12663,-0.0721 -2.761305,0.55872 -5.854827,1.40193 -3.093532,0.84322 -5.697957,1.45976 -5.787617,1.3701 -0.0897,-0.0897 0.551817,-1.07754 1.425501,-2.19528 0.873687,-1.11774 2.551788,-3.28759 3.729099,-4.82188 l 2.140578,-2.78964 -0.820564,-1.26731 c -3.134662,-4.84127 -5.833807,-9.31065 -5.702307,-9.44216 0.0857,-0.0857 2.668505,0.86408 5.739587,2.11061 l 5.583777,2.26641 2.606685,-3.39275 c 1.433684,-1.86602 3.026145,-3.98468 3.538812,-4.70814 0.512667,-0.72346 1.065294,-1.31877 1.228081,-1.32291 0.16277,-0.004 0.24866,2.79146 0.19086,6.21245 l -0.1051,6.21999 5.39263,2.21516 c 5.22923,2.14804 5.971437,2.50754 5.661457,2.74229 -0.0808,0.0612 -2.726665,0.80273 -5.879597,1.64779 l -5.732607,1.53648 -0.0203,4.96679 c -0.0112,2.73174 -0.13222,5.59738 -0.268967,6.36812 l -0.24865,1.40132 -3.293132,-5.19409 z m -4.100456,-30.68148 c 0.0881,-0.24253 0.642787,-2.02847 1.232664,-3.96875 0.589877,-1.94027 1.156284,-3.79856 1.258681,-4.12952 0.14196,-0.45879 -0.740184,-1.20041 -3.713159,-3.12165 -2.144645,-1.38595 -3.899356,-2.64262 -3.899356,-2.79262 0,-0.14999 2.183758,-0.38522 4.852803,-0.52274 l 4.852803,-0.25003 1.388421,-4.55769 c 0.763624,-2.50673 1.480951,-4.55769 1.594061,-4.55769 0.1131,0 0.918544,1.94469 1.789868,4.32153 l 1.584244,4.32153 4.84522,-0.13132 c 2.664865,-0.0722 4.839173,0.007 4.831793,0.17639 -0.007,0.16924 -1.674241,1.56081 -3.704139,3.09238 -2.029898,1.53156 -3.690349,2.88094 -3.689879,2.99861 3.5e-4,0.11766 0.708247,2.1123 1.572841,4.43252 0.864597,2.32022 1.502511,4.28807 1.417584,4.37299 -0.0849,0.0849 -1.927461,-0.98796 -4.094519,-2.38419 -2.167058,-1.39623 -4.115036,-2.468 -4.328836,-2.38171 -0.213797,0.0863 -1.955458,1.36425 -3.870356,2.83991 -3.437662,2.64914 -4.233986,3.10451 -3.920739,2.24205 z m 15.692603,-21.8846 c 0,-0.0553 0.371307,-1.2342 0.825144,-2.61972 l 0.825134,-2.51914 -2.045668,-1.52542 c -1.125114,-0.83898 -2.052048,-1.64448 -2.059858,-1.79 -0.008,-0.14552 1.145194,-0.26459 2.562195,-0.26459 h 2.576385 l 0.795327,-2.469444 c 0.437437,-1.35819 0.922824,-2.46944 1.078654,-2.46944 0.15582,0 0.634027,1.11125 1.062674,2.46944 l 0.779364,2.469444 h 2.621125 c 1.441614,0 2.612138,0.11907 2.601158,0.26459 -0.011,0.14552 -0.954267,0.94467 -2.096178,1.77588 l -2.076201,1.5113 0.518327,1.6637 c 0.733727,2.35507 0.977817,3.60398 0.704387,3.60398 -0.1296,0 -1.076674,-0.635 -2.104618,-1.41111 -1.027944,-0.77611 -1.944958,-1.41111 -2.037798,-1.41111 -0.0928,0 -1.019904,0.635 -2.060118,1.41111 -1.646891,1.22874 -2.469435,1.66527 -2.469435,1.31053 z M 58.138347,95.462516 c -1.003704,-1.95403 -2.024428,-3.55278 -2.268278,-3.55278 -0.243837,0 -1.864048,0.31407 -3.600459,0.69792 -3.505429,0.77492 -4.040576,0.83441 -4.035716,0.44861 1.453221,-2.42826 3.905206,-3.61271 5.27346,-6.23009 0.008,-0.17658 -0.778907,-1.79346 -1.749031,-3.59307 -0.970134,-1.7996 -1.763881,-3.43336 -1.763881,-3.63058 0,-0.19722 1.665681,0.41922 3.701509,1.36987 l 3.701509,1.72845 1.712941,-1.83375 c 0.942114,-1.00856 2.200178,-2.38926 2.795685,-3.06823 0.595507,-0.67896 1.192201,-1.12501 1.325991,-0.99123 0.13378,0.13378 -0.0166,2.02069 -0.334187,4.19313 -0.31758,2.17243 -0.532987,3.99027 -0.478667,4.03962 1.085214,0.56542 7.058798,3.24209 6.777801,3.65952 -0.181,0.16821 -1.916328,0.64942 -3.856289,1.06937 -1.939968,0.41994 -3.619789,0.87491 -3.732929,1.01103 -0.11314,0.13612 -0.402487,1.91436 -0.642997,3.95165 -0.240497,2.0373 -0.564234,3.83448 -0.719404,3.99375 -0.15517,0.15927 -1.103344,-1.30916 -2.107058,-3.26319 z m 4.556023,-24.13502 c 0,-0.260667 0.3175,-1.396761 0.705547,-2.524655 0.388057,-1.127894 0.705557,-2.095968 0.705557,-2.151268 0,-0.0553 -0.992187,-0.863874 -2.204848,-1.796838 l -2.204848,-1.696311 2.804375,-0.17638 2.804382,-0.176387 0.666397,-2.293048 c 0.366517,-1.261174 0.793244,-2.425998 0.948274,-2.588495 0.15503,-0.16249 0.669617,0.869374 1.143524,2.293045 l 0.861654,2.588498 2.529408,0.103647 c 1.391171,0.057 2.525315,0.21575 2.520325,0.35277 -0.005,0.137017 -0.871434,0.884124 -1.925418,1.660231 -1.053994,0.776104 -1.920981,1.569851 -1.926641,1.763878 -0.006,0.19403 0.30808,1.368494 0.697197,2.609925 0.389127,1.241434 0.625757,2.338898 0.525847,2.438808 -0.0999,0.0999 -1.103144,-0.533957 -2.229408,-1.408584 l -2.047758,-1.590221 -1.922198,1.516981 c -2.077881,1.639841 -2.451368,1.803531 -2.451368,1.074404 z"
       id="path78672"
       inkscape:connector-curvature="0"
       sodipodi:nodetypes="cccccscscssccccccccsccscscscscscssscsssscsscsscccsccscccccccccsssscsccsccccccccccccscccsccccccssccccscccccssccccscsscccscccccccccccsscccsccccccscscccsccccsccsccscccsssscscsccccsccsccccccscssscsccccsccccccccsccs" />
    <g
       id="g61716"
       transform="rotate(180,106.2813,205.82782)">
      <path
         inkscape:connector-curvature="0"
         id="rect78674"
         d="M 64.050182,266.23962 H 101.6192 v 5.8 H 64.050182 Z"
         style="opacity:1;fill:none;fill-opacity:1;stroke:#ff0000;stroke-width:0.10000002;stroke-miterlimit:4;stroke-dasharray:none;stroke-dashoffset:10;stroke-opacity:1" />
      <path
         id="path78678"
         d="M 155.97768,269.13962 A 73.14299,20.711018 0 0 1 82.834694,289.85064 73.14299,20.711018 0 0 1 9.6917038,269.13962 73.14299,20.711018 0 0 1 82.834694,248.4286 73.14299,20.711018 0 0 1 155.97768,269.13962 Z"
         style="opacity:1;fill:none;fill-opacity:1;stroke:#ff0000;stroke-width:0.09999999;stroke-miterlimit:4;stroke-dasharray:none;stroke-dashoffset:10;stroke-opacity:1"
         inkscape:connector-curvature="0" />
    </g>
    <path
       style="fill:none;stroke:#ff0000;stroke-width:0.1;stroke-miterlimit:4;stroke-dasharray:none"
       d="m 218.61182,208.50605 v -2.29615 h 2.09902 2.099 v -3.02718 c 0,-3.26716 0.67707,-5.30802 2.24325,-6.76179 0.43485,-0.40364 4.12436,-1.878 8.19892,-3.27637 17.45984,-5.99214 23.48537,-9.14866 30.16669,-15.80304 4.02608,-4.00986 5.64005,-6.15024 5.64005,-7.47961 0,-2.11701 -4.22191,-4.6475 -14.99296,-8.98636 -6.04826,-2.43639 -9.80234,-4.24993 -10.58289,-5.11244 -0.55411,-0.61229 -0.54024,-0.68223 0.23448,-1.18221 0.4529,-0.29228 3.12546,-1.39254 5.93902,-2.44503 6.33589,-2.37012 7.76896,-3.09378 8.98235,-4.53582 1.15448,-1.37204 1.04053,-2.57868 -0.44474,-4.70934 -2.18169,-3.12972 -7.23819,-6.44593 -19.04743,-12.49191 -4.01811,-2.05715 -7.2263,-3.89828 -7.12929,-4.0914 0.097,-0.19312 2.85705,-1.61805 6.13341,-3.16651 6.90753,-3.26463 7.97763,-4.08099 7.97763,-6.08607 0,-3.82118 -6.55334,-8.11279 -19.86052,-13.00614 l -5.57309,-2.04937 3.80922,-1.30043 c 6.54663,-2.234978 8.1761,-3.120172 9.1264,-4.957882 1.45563,-2.81489 -0.82752,-5.04109 -15.54769,-15.15998 -6.6419,-4.56575 -7.59275,-5.4229 -9.20908,-8.301676 -1.88477,-3.356872 -2.79303,-5.855976 -5.43425,-14.952525 -2.73625,-9.423856 -3.88325,-12.265381 -5.81337,-14.401789 -1.24841,-1.381841 -1.42938,-1.462311 -3.28855,-1.462311 -1.91251,0 -2.01794,0.0521 -3.77628,1.867518 -2.12904,2.198118 -2.98155,4.094959 -6.69039,14.886266 -3.84339,11.182828 -5.87265,15.682313 -9.5994,21.284907 -3.48984,5.24642 -7.2549,7.11314 -16.89728,8.3777 -6.605,0.86622 -9.23687,2.17058 -10.71207,5.30895 -2.8869,6.141664 5.71304,13.906402 16.91674,15.273852 8.57174,1.04621 13.59844,-2.4813 11.9992,-8.42052 -1.26767,-4.707732 -5.4347,-4.778642 -9.75609,-0.166018 -1.27459,1.360488 -1.6485,1.559518 -2.92977,1.559518 -2.645,0 -6.72168,-2.523638 -6.72168,-4.160992 0,-1.22799 5.17938,-2.96255 10.66217,-3.57074 6.94656,-0.77057 16.18192,1.79123 22.89698,6.351392 3.10901,2.1113 7.47642,6.3691 9.91961,9.67063 3.58173,4.84007 6.89598,12.40766 8.18849,18.69723 2.78233,13.53921 0.0494,28.26061 -7.19087,38.73401 -5.80008,8.39018 -15.57166,14.44106 -27.54304,17.05555 -2.31843,0.50633 -4.47903,0.65488 -9.525,0.65488 -5.71474,0 -6.92125,-0.10311 -9.70139,-0.8291 -5.55207,-0.94535 -10.7367,-5.98788 -15.2477,-6.29722 -2.81067,-0.18145 -4.35909,0.47204 -5.68589,2.39966 -1.61424,2.34524 -0.59758,5.66151 2.87298,9.37153 5.54469,5.92726 13.97272,8.57558 33.58283,10.55264 3.10444,0.31299 5.84288,0.73196 6.08542,0.93106 0.27494,0.22569 0.44097,1.27548 0.44097,2.78823 v 2.42625 h 2.45261 2.45259 l 0.10503,2.20486 0.10503,0.61737 18.7853,0.0913 18.78532,0.0913 z m -2.10466,-18.25934 c 0.0384,-1.41209 0.98446,-8.43419 1.15991,-8.60965 0.11548,-0.11548 2.06939,-0.58774 4.34204,-1.04947 2.27263,-0.46173 4.20245,-0.90988 4.28847,-0.9959 0.086,-0.086 -1.7034,-1.07742 -3.9765,-2.20312 l -4.1329,-2.04672 0.20688,-2.11667 c 0.58529,-5.9883 0.64646,-7.23168 0.35561,-7.22852 -0.17338,0.002 -1.55474,1.43063 -3.0697,3.175 -1.51494,1.74437 -2.90664,3.17158 -3.09266,3.17158 -0.18602,0 -2.09855,-0.88285 -4.25006,-1.96188 -5.15989,-3.0297 -3.75398,-0.81118 -1.95594,2.53179 l 2.26037,4.18921 -2.32022,2.64752 c -1.27612,1.45614 -2.632,3.00409 -3.01307,3.43988 -0.38108,0.4358 -0.62188,0.86334 -0.53513,0.95008 0.0867,0.0867 2.0585,-0.21767 4.38168,-0.67648 4.92082,-0.97181 4.21509,-1.35296 6.87977,3.71553 1.70948,3.25158 2.44172,4.16052 2.47145,3.06782 z m 29.81546,-7.58472 c 0.73115,-2.0858 1.45769,-3.93808 1.61454,-4.11617 0.30266,-0.34368 3.62261,-0.33606 7.27514,0.0167 1.36953,0.13226 2.20486,0.08 2.20486,-0.13797 0,-0.19299 -1.54781,-1.50337 -3.43957,-2.91197 -1.89176,-1.4086 -3.55996,-2.66752 -3.70711,-2.79762 -0.14716,-0.1301 0.36878,-2.02039 1.14651,-4.20066 0.77775,-2.18027 1.41407,-4.12126 1.41407,-4.31333 0,-0.45263 -0.8532,0.0112 -4.69141,2.55056 l -3.10393,2.05354 -3.76846,-2.83723 c -2.07266,-1.56049 -3.8204,-2.68142 -3.88388,-2.49098 -0.0635,0.19043 0.4637,2.20138 1.17151,4.46877 0.70781,2.26737 1.15359,4.23302 0.99062,4.36809 -0.16297,0.13506 -1.84411,1.24981 -3.73587,2.47722 -1.89176,1.22741 -3.43957,2.36942 -3.43957,2.53782 0,0.16838 1.30968,0.30753 2.9104,0.30922 1.60072,0.002 3.72401,0.10083 4.71842,0.22032 l 1.80803,0.21723 1.30759,4.18942 c 0.71918,2.30418 1.4361,4.18941 1.59317,4.18941 0.15706,0 0.88379,-1.70656 1.61494,-3.79236 z m -20.70474,-21.00047 c 1.81122,-2.85676 3.39674,-5.25313 3.52337,-5.32528 0.12663,-0.0721 2.7613,0.55872 5.85483,1.40193 3.09353,0.84322 5.69795,1.45976 5.78761,1.3701 0.0897,-0.0897 -0.55181,-1.07754 -1.4255,-2.19528 -0.87369,-1.11774 -2.55179,-3.28759 -3.7291,-4.82188 l -2.14058,-2.78964 0.82057,-1.26731 c 3.13466,-4.84127 5.83381,-9.31065 5.70231,-9.44216 -0.0857,-0.0857 -2.66851,0.86408 -5.73959,2.11061 l -5.58378,2.26641 -2.60668,-3.39275 c -1.43369,-1.86602 -3.02615,-3.98468 -3.53882,-4.70814 -0.51266,-0.72346 -1.06529,-1.31877 -1.22808,-1.32291 -0.16277,-0.004 -0.24866,2.79146 -0.19086,6.21245 l 0.1051,6.21999 -5.39263,2.21516 c -5.22923,2.14804 -5.97143,2.50754 -5.66145,2.74229 0.0808,0.0612 2.72666,0.80273 5.87959,1.64779 l 5.73261,1.53648 0.0203,4.96679 c 0.0112,2.73174 0.13222,5.59738 0.26897,6.36812 l 0.24865,1.40132 3.29313,-5.19409 z m 4.10045,-30.68148 c -0.0881,-0.24253 -0.64278,-2.02847 -1.23266,-3.96875 -0.58988,-1.94027 -1.15628,-3.79856 -1.25868,-4.12952 -0.14196,-0.45879 0.74018,-1.20041 3.71316,-3.12165 2.14464,-1.38595 3.89936,-2.64262 3.89936,-2.79262 0,-0.14999 -2.18376,-0.38522 -4.85281,-0.52274 l -4.8528,-0.25003 -1.38842,-4.55769 c -0.76363,-2.50673 -1.48095,-4.55769 -1.59406,-4.55769 -0.1131,0 -0.91855,1.94469 -1.78987,4.32153 l -1.58424,4.32153 -4.84522,-0.13132 c -2.66487,-0.0722 -4.83918,0.007 -4.8318,0.17639 0.007,0.16924 1.67424,1.56081 3.70414,3.09238 2.0299,1.53156 3.69035,2.88094 3.68988,2.99861 -2.6e-4,0.11766 -0.70825,2.1123 -1.57284,4.43252 -0.8646,2.32022 -1.50251,4.28807 -1.41759,4.37299 0.0849,0.0849 1.92747,-0.98796 4.09452,-2.38419 2.16706,-1.39623 4.11504,-2.468 4.32884,-2.38171 0.2138,0.0863 1.95546,1.36425 3.87036,2.83991 3.43766,2.64914 4.23398,3.10451 3.92073,2.24205 z m -15.6926,-21.8846 c 0,-0.0553 -0.37131,-1.2342 -0.82514,-2.61972 l -0.82513,-2.51915 2.04566,-1.52543 c 1.12512,-0.83898 2.05205,-1.64449 2.05986,-1.79 0.008,-0.14553 -1.14519,-0.2646 -2.56219,-0.2646 h -2.57639 l -0.79533,-2.469452 c -0.43743,-1.3582 -0.92282,-2.46945 -1.07865,-2.46945 -0.15582,0 -0.63403,1.11125 -1.06267,2.46945 l -0.77937,2.469452 h -2.62112 c -1.44162,0 -2.61214,0.11907 -2.60116,0.2646 0.011,0.14551 0.95427,0.94467 2.09618,1.77588 l 2.0762,1.51131 -0.51833,1.66371 c -0.73373,2.35507 -0.97781,3.60398 -0.70439,3.60398 0.1296,0 1.07668,-0.635 2.10462,-1.41111 1.02795,-0.77611 1.94496,-1.41111 2.0378,-1.41111 0.0928,0 1.0199,0.635 2.06012,1.41111 1.64689,1.22874 2.46943,1.66527 2.46943,1.31053 z M 202.00129,95.462638 c 1.00371,-1.95405 2.02443,-3.55281 2.26828,-3.55281 0.24384,0 1.86405,0.31408 3.60046,0.69793 3.50543,0.77492 4.04057,0.83441 4.03572,0.44861 -1.45323,-2.42827 -3.90521,-3.61273 -5.27346,-6.23012 -0.008,-0.17659 0.7789,-1.79348 1.74903,-3.5931 0.97013,-1.79961 1.76388,-3.43337 1.76388,-3.63059 0,-0.19722 -1.66568,0.41922 -3.70151,1.36987 l -3.70151,1.72846 -1.71294,-1.83376 c -0.94212,-1.00857 -2.20018,-2.38927 -2.79569,-3.06825 -0.5955,-0.67896 -1.1922,-1.12501 -1.32599,-0.99123 -0.13378,0.13378 0.0166,2.0207 0.33419,4.19315 0.31758,2.17245 0.53299,3.9903 0.47867,4.03965 -1.08522,0.56542 -7.0588,3.2421 -6.7778,3.65954 0.18099,0.16821 1.91632,0.64942 3.85628,1.06937 1.93997,0.41994 3.61979,0.87492 3.73293,1.01104 0.11314,0.13612 0.40249,1.91437 0.643,3.95167 0.2405,2.03731 0.56423,3.834504 0.7194,3.993774 0.15517,0.15927 1.10335,-1.309164 2.10706,-3.263204 z m -4.55602,-24.135142 c 0,-0.260668 -0.3175,-1.39676 -0.70555,-2.524655 -0.38806,-1.127894 -0.70556,-2.095968 -0.70556,-2.151268 0,-0.0553 0.99219,-0.863874 2.20485,-1.796838 l 2.20485,-1.696311 -2.80437,-0.17638 -2.80438,-0.176387 -0.6664,-2.293048 c -0.36652,-1.261174 -0.79325,-2.425998 -0.94828,-2.588495 -0.15503,-0.16249 -0.66961,0.869374 -1.14352,2.293045 l -0.86165,2.588498 -2.52941,0.103647 c -1.39117,0.057 -2.52532,0.21575 -2.52033,0.35277 0.005,0.137017 0.87144,0.884124 1.92542,1.660231 1.05399,0.776104 1.92098,1.569851 1.92664,1.763878 0.006,0.19403 -0.30808,1.368493 -0.6972,2.609926 -0.38912,1.241433 -0.62575,2.338899 -0.52584,2.438808 0.0999,0.0999 1.10314,-0.533958 2.22941,-1.408584 l 2.04775,-1.590222 1.9222,1.51698 c 2.07788,1.639843 2.45137,1.803533 2.45137,1.074405 z"
       id="path78672-3"
       inkscape:connector-curvature="0"
       sodipodi:nodetypes="cccccscscssccccccccsccscscscscscssscsssscsscsscccsccscccccccccsssscsccsccccccccccccscccsccccccssccccscccccssccccscsscccscccccccccccsscccsccccccscscccsccccsccsccscccsssscscsccccsccsccccccscssscsccccsccccccccsccs" />
    <path
       style="opacity:1;fill:none;fill-opacity:1;stroke:#ff0000;stroke-width:0.09942897;stroke-miterlimit:4;stroke-dasharray:none;stroke-opacity:1"
       d="M -12.829224,38.186549 H 277.07135 V 218.08701 H -12.829224 Z"
       id="rect61718"
       inkscape:connector-curvature="0" />
  </g>
</svg>
