  0
SECTION
  2
HEADER
  9
$ACADVER
  1
AC1014
  9
$HANDSEED
  5
FFFF
  9
$MEASUREMENT
 70
     1
  0
ENDSEC
  0
SECTION
  2
TABLES
  0
TABLE
  2
VPORT
  5
8
330
0
100
AcDbSymbolTable
 70
     4
  0
VPORT
  5
2E
330
8
100
AcDbSymbolTableRecord
100
AcDbViewportTableRecord
  2
*ACTIVE
 70
     0
 10
0.0
 20
0.0
 11
1.0
 21
1.0
 12
210.0
 22
148.5
 13
0.0
 23
0.0
 14
10.0
 24
10.0
 15
10.0
 25
10.0
 16
0.0
 26
0.0
 36
1.0
 17
0.0
 27
0.0
 37
0.0
 40
341.0
 41
1.24
 42
50.0
 43
0.0
 44
0.0
 50
0.0
 51
0.0
 71
     0
 72
   100
 73
     1
 74
     3
 75
     0
 76
     0
 77
     0
 78
     0
  0
ENDTAB
  0
TABLE
  2
LTYPE
  5
5
330
0
100
AcDbSymbolTable
 70
     1
  0
LTYPE
  5
14
330
5
100
AcDbSymbolTableRecord
100
AcDbLinetypeTableRecord
  2
BYBLOCK
 70
     0
  3

 72
    65
 73
     0
 40
0.0
  0
LTYPE
  5
15
330
5
100
AcDbSymbolTableRecord
100
AcDbLinetypeTableRecord
  2
BYLAYER
 70
     0
  3

 72
    65
 73
     0
 40
0.0
  0
LTYPE
  5
16
330
5
100
AcDbSymbolTableRecord
100
AcDbLinetypeTableRecord
  2
CONTINUOUS
 70
     0
  3
Solid line
 72
    65
 73
     0
 40
0.0
  0
ENDTAB
  0
TABLE
  2
LAYER
  5
2
100
AcDbSymbolTable
 70
2
  0
LAYER
  5
50
100
AcDbSymbolTableRecord
100
AcDbLayerTableRecord
  2
0
 70
0
  6
CONTINUOUS
  0
LAYER
  5
51
100
AcDbSymbolTableRecord
100
AcDbLayerTableRecord
  2
Calque_1
 70
0
  6
CONTINUOUS
  0
ENDTAB
  0
TABLE
  2
STYLE
  5
3
330
0
100
AcDbSymbolTable
 70
     1
  0
STYLE
  5
11
330
3
100
AcDbSymbolTableRecord
100
AcDbTextStyleTableRecord
  2
STANDARD
 70
     0
 40
0.0
 41
1.0
 50
0.0
 71
     0
 42
2.5
  3
txt
  4

  0
ENDTAB
  0
TABLE
  2
VIEW
  5
6
330
0
100
AcDbSymbolTable
 70
     0
  0
ENDTAB
  0
TABLE
  2
UCS
  5
7
330
0
100
AcDbSymbolTable
 70
     0
  0
ENDTAB
  0
TABLE
  2
APPID
  5
9
330
0
100
AcDbSymbolTable
 70
     2
  0
APPID
  5
12
330
9
100
AcDbSymbolTableRecord
100
AcDbRegAppTableRecord
  2
ACAD
 70
     0
  0
ENDTAB
  0
TABLE
  2
DIMSTYLE
  5
A
330
0
100
AcDbSymbolTable
 70
     1
  0
DIMSTYLE
105
27
330
A
100
AcDbSymbolTableRecord
100
AcDbDimStyleTableRecord
  2
ISO-25
 70
     0
  3

  4

  5

  6

  7

 40
1.0
 41
2.5
 42
0.625
 43
3.75
 44
1.25
 45
0.0
 46
0.0
 47
0.0
 48
0.0
140
2.5
141
2.5
142
0.0
143
0.03937007874016
144
1.0
145
0.0
146
1.0
147
0.625
 71
     0
 72
     0
 73
     0
 74
     0
 75
     0
 76
     0
 77
     1
 78
     8
170
     0
171
     3
172
     1
173
     0
174
     0
175
     0
176
     0
177
     0
178
     0
270
     2
271
     2
272
     2
273
     2
274
     3
340
11
275
     0
280
     0
281
     0
282
     0
283
     0
284
     8
285
     0
286
     0
287
     3
288
     0
  0
ENDTAB
  0
TABLE
  2
BLOCK_RECORD
  5
1
330
0
100
AcDbSymbolTable
 70
     1
  0
BLOCK_RECORD
  5
1F
330
1
100
AcDbSymbolTableRecord
100
AcDbBlockTableRecord
  2
*MODEL_SPACE
  0
BLOCK_RECORD
  5
1B
330
1
100
AcDbSymbolTableRecord
100
AcDbBlockTableRecord
  2
*PAPER_SPACE
  0
ENDTAB
  0
ENDSEC
  0
SECTION
  2
BLOCKS
  0
BLOCK
  5
20
330
1F
100
AcDbEntity
  8
0
100
AcDbBlockBegin
  2
*MODEL_SPACE
 70
     0
 10
0.0
 20
0.0
 30
0.0
  3
*MODEL_SPACE
  1

  0
ENDBLK
  5
21
330
1F
100
AcDbEntity
  8
0
100
AcDbBlockEnd
  0
BLOCK
  5
1C
330
1B
100
AcDbEntity
 67
     1
  8
0
100
AcDbBlockBegin
  2
*PAPER_SPACE
  1

  0
ENDBLK
  5
1D
330
1B
100
AcDbEntity
 67
     1
  8
0
100
AcDbBlockEnd
  0
ENDSEC
  0
SECTION
  2
ENTITIES
  0
LINE
  5
100
100
AcDbEntity
  8
Calque_1
 62
1
100
AcDbLine
 10
304.280390
 20
14.510097
 30
0.0
 11
304.280390
 21
17.410177
 31
0.0
  0
LINE
  5
101
100
AcDbEntity
  8
Calque_1
 62
1
100
AcDbLine
 10
304.280390
 20
17.410177
 30
0.0
 11
307.480710
 21
17.410177
 31
0.0
  0
LINE
  5
102
100
AcDbEntity
  8
Calque_1
 62
1
100
AcDbLine
 10
307.480710
 20
17.410177
 30
0.0
 11
307.480710
 21
20.811537
 31
0.0
  0
LINE
  5
103
100
AcDbEntity
  8
Calque_1
 62
1
100
AcDbLine
 10
307.480710
 20
20.811537
 30
0.0
 11
282.519970
 21
20.811537
 31
0.0
  0
LINE
  5
104
100
AcDbEntity
  8
Calque_1
 62
1
100
AcDbLine
 10
282.519970
 20
20.811537
 30
0.0
 11
265.696700
 21
63.724677
 31
0.0
  0
LINE
  5
105
100
AcDbEntity
  8
Calque_1
 62
1
100
AcDbLine
 10
265.696700
 20
63.724677
 30
0.0
 11
277.264470
 21
63.724677
 31
0.0
  0
LINE
  5
106
100
AcDbEntity
  8
Calque_1
 62
1
100
AcDbLine
 10
277.264470
 20
63.724677
 30
0.0
 11
255.850790
 21
100.738430
 31
0.0
  0
LINE
  5
107
100
AcDbEntity
  8
Calque_1
 62
1
100
AcDbLine
 10
255.850790
 20
100.738430
 30
0.0
 11
264.990800
 21
100.738430
 31
0.0
  0
LINE
  5
108
100
AcDbEntity
  8
Calque_1
 62
1
100
AcDbLine
 10
264.990800
 20
100.738430
 30
0.0
 11
245.651420
 21
136.054100
 31
0.0
  0
LINE
  5
109
100
AcDbEntity
  8
Calque_1
 62
1
100
AcDbLine
 10
245.651420
 20
136.054100
 30
0.0
 11
254.927340
 21
136.054100
 31
0.0
  0
LINE
  5
10a
100
AcDbEntity
  8
Calque_1
 62
1
100
AcDbLine
 10
254.927340
 20
136.054100
 30
0.0
 11
242.500700
 21
160.354950
 31
0.0
  0
LINE
  5
10b
100
AcDbEntity
  8
Calque_1
 62
1
100
AcDbLine
 10
242.500700
 20
160.354950
 30
0.0
 11
242.500700
 21
163.213680
 31
0.0
  0
LINE
  5
10c
100
AcDbEntity
  8
Calque_1
 62
1
100
AcDbLine
 10
242.500700
 20
163.213680
 30
0.0
 11
241.500770
 21
163.213680
 31
0.0
  0
LINE
  5
10d
100
AcDbEntity
  8
Calque_1
 62
1
100
AcDbLine
 10
241.500770
 20
163.213680
 30
0.0
 11
241.500770
 21
166.113770
 31
0.0
  0
SPLINE
  5
10e
100
AcDbEntity
  8
Calque_1
 62
1
100
AcDbSpline
 70
8
 71
3
 72
8
 73
4
 74
0
 40
0
 40
0
 40
0
 40
0
 40
1
 40
1
 40
1
 40
1
 10
241.500770
 20
166.113770
 30
0.0
 10
241.500770
 20
166.113770
 30
0.0
 10
240.151700
 20
173.025920
 30
0.0
 10
238.584150
 20
173.032310
 30
0.0
  0
SPLINE
  5
10f
100
AcDbEntity
  8
Calque_1
 62
1
100
AcDbSpline
 70
8
 71
3
 72
8
 73
4
 74
0
 40
0
 40
0
 40
0
 40
0
 40
1
 40
1
 40
1
 40
1
 10
238.584150
 20
173.032310
 30
0.0
 10
237.141780
 20
173.038310
 30
0.0
 10
235.600870
 20
166.113770
 30
0.0
 10
235.600870
 20
166.113770
 30
0.0
  0
LINE
  5
110
100
AcDbEntity
  8
Calque_1
 62
1
100
AcDbLine
 10
235.600870
 20
166.113770
 30
0.0
 11
235.600870
 21
163.213680
 31
0.0
  0
LINE
  5
111
100
AcDbEntity
  8
Calque_1
 62
1
100
AcDbLine
 10
235.600870
 20
163.213680
 30
0.0
 11
234.600410
 21
163.213680
 31
0.0
  0
LINE
  5
112
100
AcDbEntity
  8
Calque_1
 62
1
100
AcDbLine
 10
234.600410
 20
163.213680
 30
0.0
 11
234.600410
 21
160.354950
 31
0.0
  0
LINE
  5
113
100
AcDbEntity
  8
Calque_1
 62
1
100
AcDbLine
 10
234.600410
 20
160.354950
 30
0.0
 11
222.174304
 21
136.054100
 31
0.0
  0
LINE
  5
114
100
AcDbEntity
  8
Calque_1
 62
1
100
AcDbLine
 10
222.174304
 20
136.054100
 30
0.0
 11
231.449700
 21
136.054100
 31
0.0
  0
LINE
  5
115
100
AcDbEntity
  8
Calque_1
 62
1
100
AcDbLine
 10
231.449700
 20
136.054100
 30
0.0
 11
212.110834
 21
100.738430
 31
0.0
  0
LINE
  5
116
100
AcDbEntity
  8
Calque_1
 62
1
100
AcDbLine
 10
212.110834
 20
100.738430
 30
0.0
 11
221.250844
 21
100.738430
 31
0.0
  0
LINE
  5
117
100
AcDbEntity
  8
Calque_1
 62
1
100
AcDbLine
 10
221.250844
 20
100.738430
 30
0.0
 11
199.836639
 21
63.724677
 31
0.0
  0
LINE
  5
118
100
AcDbEntity
  8
Calque_1
 62
1
100
AcDbLine
 10
199.836639
 20
63.724677
 30
0.0
 11
211.404414
 21
63.724677
 31
0.0
  0
LINE
  5
119
100
AcDbEntity
  8
Calque_1
 62
1
100
AcDbLine
 10
211.404414
 20
63.724677
 30
0.0
 11
194.581669
 21
20.811537
 31
0.0
  0
LINE
  5
11a
100
AcDbEntity
  8
Calque_1
 62
1
100
AcDbLine
 10
194.581669
 20
20.811537
 30
0.0
 11
169.620909
 21
20.811537
 31
0.0
  0
LINE
  5
11b
100
AcDbEntity
  8
Calque_1
 62
1
100
AcDbLine
 10
169.620909
 20
20.811537
 30
0.0
 11
169.620909
 21
17.410177
 31
0.0
  0
LINE
  5
11c
100
AcDbEntity
  8
Calque_1
 62
1
100
AcDbLine
 10
169.620909
 20
17.410177
 30
0.0
 11
172.820719
 21
17.410177
 31
0.0
  0
LINE
  5
11d
100
AcDbEntity
  8
Calque_1
 62
1
100
AcDbLine
 10
172.820719
 20
17.410177
 30
0.0
 11
172.820719
 21
14.510097
 31
0.0
  0
LINE
  5
11e
100
AcDbEntity
  8
Calque_1
 62
1
100
AcDbLine
 10
172.820719
 20
14.510097
 30
0.0
 11
304.280390
 21
14.510097
 31
0.0
  0
LINE
  5
11f
100
AcDbEntity
  8
Calque_1
 62
1
100
AcDbLine
 10
264.235290
 20
14.510097
 30
0.0
 11
254.398670
 21
39.057957
 31
0.0
  0
LINE
  5
120
100
AcDbEntity
  8
Calque_1
 62
1
100
AcDbLine
 10
254.398670
 20
39.057957
 30
0.0
 11
261.152260
 21
39.057957
 31
0.0
  0
LINE
  5
121
100
AcDbEntity
  8
Calque_1
 62
1
100
AcDbLine
 10
261.152260
 20
39.057957
 30
0.0
 11
248.650700
 21
60.199307
 31
0.0
  0
LINE
  5
122
100
AcDbEntity
  8
Calque_1
 62
1
100
AcDbLine
 10
248.650700
 20
60.199307
 30
0.0
 11
253.986800
 21
60.199307
 31
0.0
  0
LINE
  5
123
100
AcDbEntity
  8
Calque_1
 62
1
100
AcDbLine
 10
253.986800
 20
60.199307
 30
0.0
 11
242.696540
 21
80.371192
 31
0.0
  0
LINE
  5
124
100
AcDbEntity
  8
Calque_1
 62
1
100
AcDbLine
 10
242.696540
 20
80.371192
 30
0.0
 11
248.111190
 21
80.371192
 31
0.0
  0
LINE
  5
125
100
AcDbEntity
  8
Calque_1
 62
1
100
AcDbLine
 10
248.111190
 20
80.371192
 30
0.0
 11
239.964920
 21
95.687575
 31
0.0
  0
LINE
  5
126
100
AcDbEntity
  8
Calque_1
 62
1
100
AcDbLine
 10
239.964920
 20
95.687575
 30
0.0
 11
239.964920
 21
98.409889
 31
0.0
  0
LINE
  5
127
100
AcDbEntity
  8
Calque_1
 62
1
100
AcDbLine
 10
239.964920
 20
98.409889
 30
0.0
 11
237.065360
 21
98.409889
 31
0.0
  0
LINE
  5
128
100
AcDbEntity
  8
Calque_1
 62
1
100
AcDbLine
 10
237.065360
 20
98.409889
 30
0.0
 11
237.065360
 21
95.565618
 31
0.0
  0
LINE
  5
129
100
AcDbEntity
  8
Calque_1
 62
1
100
AcDbLine
 10
237.065360
 20
95.565618
 30
0.0
 11
228.990400
 21
80.371192
 31
0.0
  0
LINE
  5
12a
100
AcDbEntity
  8
Calque_1
 62
1
100
AcDbLine
 10
228.990400
 20
80.371192
 30
0.0
 11
234.405060
 21
80.371192
 31
0.0
  0
LINE
  5
12b
100
AcDbEntity
  8
Calque_1
 62
1
100
AcDbLine
 10
234.405060
 20
80.371192
 30
0.0
 11
223.115308
 21
60.199307
 31
0.0
  0
LINE
  5
12c
100
AcDbEntity
  8
Calque_1
 62
1
100
AcDbLine
 10
223.115308
 20
60.199307
 30
0.0
 11
228.450900
 21
60.199307
 31
0.0
  0
LINE
  5
12d
100
AcDbEntity
  8
Calque_1
 62
1
100
AcDbLine
 10
228.450900
 20
60.199307
 30
0.0
 11
215.949339
 21
39.057957
 31
0.0
  0
LINE
  5
12e
100
AcDbEntity
  8
Calque_1
 62
1
100
AcDbLine
 10
215.949339
 20
39.057957
 30
0.0
 11
222.702931
 21
39.057957
 31
0.0
  0
LINE
  5
12f
100
AcDbEntity
  8
Calque_1
 62
1
100
AcDbLine
 10
222.702931
 20
39.057957
 30
0.0
 11
212.866324
 21
14.510097
 31
0.0
  0
LINE
  5
130
100
AcDbEntity
  8
Calque_1
 62
1
100
AcDbLine
 10
14.736880
 20
182.595842
 30
0.0
 11
309.636880
 21
182.595842
 31
0.0
  0
LINE
  5
131
100
AcDbEntity
  8
Calque_1
 62
1
100
AcDbLine
 10
309.636880
 20
182.595842
 30
0.0
 11
309.636880
 21
12.695857
 31
0.0
  0
LINE
  5
132
100
AcDbEntity
  8
Calque_1
 62
1
100
AcDbLine
 10
309.636880
 20
12.695857
 30
0.0
 11
14.736880
 21
12.695857
 31
0.0
  0
LINE
  5
133
100
AcDbEntity
  8
Calque_1
 62
1
100
AcDbLine
 10
14.736880
 20
12.695857
 30
0.0
 11
14.736880
 21
182.595842
 31
0.0
  0
LINE
  5
134
100
AcDbEntity
  8
Calque_1
 62
1
100
AcDbLine
 10
237.100811
 20
14.510107
 30
0.0
 11
237.100811
 21
56.410107
 31
0.0
  0
LINE
  5
135
100
AcDbEntity
  8
Calque_1
 62
1
100
AcDbLine
 10
237.100811
 20
56.410107
 30
0.0
 11
240.000811
 21
56.410107
 31
0.0
  0
LINE
  5
136
100
AcDbEntity
  8
Calque_1
 62
1
100
AcDbLine
 10
240.000811
 20
56.410107
 30
0.0
 11
240.000811
 21
14.510107
 31
0.0
  0
LINE
  5
137
100
AcDbEntity
  8
Calque_1
 62
1
100
AcDbLine
 10
120.905510
 20
181.035387
 30
0.0
 11
120.905510
 21
178.135307
 31
0.0
  0
LINE
  5
138
100
AcDbEntity
  8
Calque_1
 62
1
100
AcDbLine
 10
120.905510
 20
178.135307
 30
0.0
 11
117.705190
 21
178.135307
 31
0.0
  0
LINE
  5
139
100
AcDbEntity
  8
Calque_1
 62
1
100
AcDbLine
 10
117.705190
 20
178.135307
 30
0.0
 11
117.705190
 21
174.733947
 31
0.0
  0
LINE
  5
13a
100
AcDbEntity
  8
Calque_1
 62
1
100
AcDbLine
 10
117.705190
 20
174.733947
 30
0.0
 11
142.665930
 21
174.733947
 31
0.0
  0
LINE
  5
13b
100
AcDbEntity
  8
Calque_1
 62
1
100
AcDbLine
 10
142.665930
 20
174.733947
 30
0.0
 11
159.489200
 21
131.820817
 31
0.0
  0
LINE
  5
13c
100
AcDbEntity
  8
Calque_1
 62
1
100
AcDbLine
 10
159.489200
 20
131.820817
 30
0.0
 11
147.921430
 21
131.820817
 31
0.0
  0
LINE
  5
13d
100
AcDbEntity
  8
Calque_1
 62
1
100
AcDbLine
 10
147.921430
 20
131.820817
 30
0.0
 11
169.335110
 21
94.807067
 31
0.0
  0
LINE
  5
13e
100
AcDbEntity
  8
Calque_1
 62
1
100
AcDbLine
 10
169.335110
 20
94.807067
 30
0.0
 11
160.195100
 21
94.807067
 31
0.0
  0
LINE
  5
13f
100
AcDbEntity
  8
Calque_1
 62
1
100
AcDbLine
 10
160.195100
 20
94.807067
 30
0.0
 11
179.534480
 21
59.491387
 31
0.0
  0
LINE
  5
140
100
AcDbEntity
  8
Calque_1
 62
1
100
AcDbLine
 10
179.534480
 20
59.491387
 30
0.0
 11
170.258560
 21
59.491387
 31
0.0
  0
LINE
  5
141
100
AcDbEntity
  8
Calque_1
 62
1
100
AcDbLine
 10
170.258560
 20
59.491387
 30
0.0
 11
182.685200
 21
35.190542
 31
0.0
  0
LINE
  5
142
100
AcDbEntity
  8
Calque_1
 62
1
100
AcDbLine
 10
182.685200
 20
35.190542
 30
0.0
 11
182.685200
 21
32.331812
 31
0.0
  0
LINE
  5
143
100
AcDbEntity
  8
Calque_1
 62
1
100
AcDbLine
 10
182.685200
 20
32.331812
 30
0.0
 11
183.685130
 21
32.331812
 31
0.0
  0
LINE
  5
144
100
AcDbEntity
  8
Calque_1
 62
1
100
AcDbLine
 10
183.685130
 20
32.331812
 30
0.0
 11
183.685130
 21
29.431722
 31
0.0
  0
SPLINE
  5
145
100
AcDbEntity
  8
Calque_1
 62
1
100
AcDbSpline
 70
8
 71
3
 72
8
 73
4
 74
0
 40
0
 40
0
 40
0
 40
0
 40
1
 40
1
 40
1
 40
1
 10
183.685130
 20
29.431722
 30
0.0
 10
183.685130
 20
29.431722
 30
0.0
 10
185.034200
 20
22.519572
 30
0.0
 10
186.601750
 20
22.513182
 30
0.0
  0
SPLINE
  5
146
100
AcDbEntity
  8
Calque_1
 62
1
100
AcDbSpline
 70
8
 71
3
 72
8
 73
4
 74
0
 40
0
 40
0
 40
0
 40
0
 40
1
 40
1
 40
1
 40
1
 10
186.601750
 20
22.513182
 30
0.0
 10
188.044120
 20
22.507182
 30
0.0
 10
189.585030
 20
29.431722
 30
0.0
 10
189.585030
 20
29.431722
 30
0.0
  0
LINE
  5
147
100
AcDbEntity
  8
Calque_1
 62
1
100
AcDbLine
 10
189.585030
 20
29.431722
 30
0.0
 11
189.585030
 21
32.331812
 31
0.0
  0
LINE
  5
148
100
AcDbEntity
  8
Calque_1
 62
1
100
AcDbLine
 10
189.585030
 20
32.331812
 30
0.0
 11
190.585490
 21
32.331812
 31
0.0
  0
LINE
  5
149
100
AcDbEntity
  8
Calque_1
 62
1
100
AcDbLine
 10
190.585490
 20
32.331812
 30
0.0
 11
190.585490
 21
35.190542
 31
0.0
  0
LINE
  5
14a
100
AcDbEntity
  8
Calque_1
 62
1
100
AcDbLine
 10
190.585490
 20
35.190542
 30
0.0
 11
203.011590
 21
59.491397
 31
0.0
  0
LINE
  5
14b
100
AcDbEntity
  8
Calque_1
 62
1
100
AcDbLine
 10
203.011590
 20
59.491397
 30
0.0
 11
193.736200
 21
59.491397
 31
0.0
  0
LINE
  5
14c
100
AcDbEntity
  8
Calque_1
 62
1
100
AcDbLine
 10
193.736200
 20
59.491397
 30
0.0
 11
213.075060
 21
94.807067
 31
0.0
  0
LINE
  5
14d
100
AcDbEntity
  8
Calque_1
 62
1
100
AcDbLine
 10
213.075060
 20
94.807067
 30
0.0
 11
203.935050
 21
94.807067
 31
0.0
  0
LINE
  5
14e
100
AcDbEntity
  8
Calque_1
 62
1
100
AcDbLine
 10
203.935050
 20
94.807067
 30
0.0
 11
225.349260
 21
131.820817
 31
0.0
  0
LINE
  5
14f
100
AcDbEntity
  8
Calque_1
 62
1
100
AcDbLine
 10
225.349260
 20
131.820817
 30
0.0
 11
213.781480
 21
131.820817
 31
0.0
  0
LINE
  5
150
100
AcDbEntity
  8
Calque_1
 62
1
100
AcDbLine
 10
213.781480
 20
131.820817
 30
0.0
 11
230.604230
 21
174.733947
 31
0.0
  0
LINE
  5
151
100
AcDbEntity
  8
Calque_1
 62
1
100
AcDbLine
 10
230.604230
 20
174.733947
 30
0.0
 11
255.564990
 21
174.733947
 31
0.0
  0
LINE
  5
152
100
AcDbEntity
  8
Calque_1
 62
1
100
AcDbLine
 10
255.564990
 20
174.733947
 30
0.0
 11
255.564990
 21
178.135307
 31
0.0
  0
LINE
  5
153
100
AcDbEntity
  8
Calque_1
 62
1
100
AcDbLine
 10
255.564990
 20
178.135307
 30
0.0
 11
252.365180
 21
178.135307
 31
0.0
  0
LINE
  5
154
100
AcDbEntity
  8
Calque_1
 62
1
100
AcDbLine
 10
252.365180
 20
178.135307
 30
0.0
 11
252.365180
 21
181.035387
 31
0.0
  0
LINE
  5
155
100
AcDbEntity
  8
Calque_1
 62
1
100
AcDbLine
 10
252.365180
 20
181.035387
 30
0.0
 11
120.905510
 21
181.035387
 31
0.0
  0
LINE
  5
156
100
AcDbEntity
  8
Calque_1
 62
1
100
AcDbLine
 10
188.120529
 20
100.011269
 30
0.0
 11
196.195485
 21
115.205699
 31
0.0
  0
LINE
  5
157
100
AcDbEntity
  8
Calque_1
 62
1
100
AcDbLine
 10
196.195485
 20
115.205699
 30
0.0
 11
190.780829
 21
115.205699
 31
0.0
  0
LINE
  5
158
100
AcDbEntity
  8
Calque_1
 62
1
100
AcDbLine
 10
190.780829
 20
115.205699
 30
0.0
 11
202.070585
 21
135.377589
 31
0.0
  0
LINE
  5
159
100
AcDbEntity
  8
Calque_1
 62
1
100
AcDbLine
 10
202.070585
 20
135.377589
 30
0.0
 11
196.734985
 21
135.377589
 31
0.0
  0
LINE
  5
15a
100
AcDbEntity
  8
Calque_1
 62
1
100
AcDbLine
 10
196.734985
 20
135.377589
 30
0.0
 11
209.236545
 21
156.518939
 31
0.0
  0
LINE
  5
15b
100
AcDbEntity
  8
Calque_1
 62
1
100
AcDbLine
 10
209.236545
 20
156.518939
 30
0.0
 11
202.482955
 21
156.518939
 31
0.0
  0
LINE
  5
15c
100
AcDbEntity
  8
Calque_1
 62
1
100
AcDbLine
 10
202.482955
 20
156.518939
 30
0.0
 11
212.319565
 21
181.066789
 31
0.0
  0
LINE
  5
15d
100
AcDbEntity
  8
Calque_1
 62
1
100
AcDbLine
 10
160.950609
 20
181.066789
 30
0.0
 11
170.787219
 21
156.518939
 31
0.0
  0
LINE
  5
15e
100
AcDbEntity
  8
Calque_1
 62
1
100
AcDbLine
 10
170.787219
 20
156.518939
 30
0.0
 11
164.033629
 21
156.518939
 31
0.0
  0
LINE
  5
15f
100
AcDbEntity
  8
Calque_1
 62
1
100
AcDbLine
 10
164.033629
 20
156.518939
 30
0.0
 11
176.535189
 21
135.377589
 31
0.0
  0
LINE
  5
160
100
AcDbEntity
  8
Calque_1
 62
1
100
AcDbLine
 10
176.535189
 20
135.377589
 30
0.0
 11
171.199099
 21
135.377589
 31
0.0
  0
LINE
  5
161
100
AcDbEntity
  8
Calque_1
 62
1
100
AcDbLine
 10
171.199099
 20
135.377589
 30
0.0
 11
182.489359
 21
115.205699
 31
0.0
  0
LINE
  5
162
100
AcDbEntity
  8
Calque_1
 62
1
100
AcDbLine
 10
182.489359
 20
115.205699
 30
0.0
 11
177.074709
 21
115.205699
 31
0.0
  0
LINE
  5
163
100
AcDbEntity
  8
Calque_1
 62
1
100
AcDbLine
 10
177.074709
 20
115.205699
 30
0.0
 11
185.220969
 21
99.889319
 31
0.0
  0
LINE
  5
164
100
AcDbEntity
  8
Calque_1
 62
1
100
AcDbLine
 10
188.120970
 20
97.167004
 30
0.0
 11
185.220970
 21
97.167004
 31
0.0
  0
LINE
  5
165
100
AcDbEntity
  8
Calque_1
 62
1
100
AcDbLine
 10
185.220970
 20
97.167004
 30
0.0
 11
185.220970
 21
139.067004
 31
0.0
  0
LINE
  5
166
100
AcDbEntity
  8
Calque_1
 62
1
100
AcDbLine
 10
185.220970
 20
139.067004
 30
0.0
 11
188.120970
 21
139.067004
 31
0.0
  0
LINE
  5
167
100
AcDbEntity
  8
Calque_1
 62
1
100
AcDbLine
 10
188.120970
 20
139.067004
 30
0.0
 11
188.120970
 21
97.167004
 31
0.0
  0
SPLINE
  5
168
100
AcDbEntity
  8
Calque_1
 62
1
100
AcDbSpline
 70
8
 71
3
 72
8
 73
4
 74
0
 40
0
 40
0
 40
0
 40
0
 40
1
 40
1
 40
1
 40
1
 10
85.251445
 20
99.046636
 30
0.0
 10
82.471639
 20
99.575047
 30
0.0
 10
79.839327
 20
97.543497
 30
0.0
 10
79.346584
 20
94.818303
 30
0.0
  0
SPLINE
  5
169
100
AcDbEntity
  8
Calque_1
 62
1
100
AcDbSpline
 70
8
 71
3
 72
8
 73
4
 74
0
 40
0
 40
0
 40
0
 40
0
 40
1
 40
1
 40
1
 40
1
 10
79.346584
 20
94.818303
 30
0.0
 10
78.771789
 20
91.639310
 30
0.0
 10
81.100817
 20
88.640741
 30
0.0
 10
84.222566
 20
88.100161
 30
0.0
  0
SPLINE
  5
16a
100
AcDbEntity
  8
Calque_1
 62
1
100
AcDbSpline
 70
8
 71
3
 72
8
 73
4
 74
0
 40
0
 40
0
 40
0
 40
0
 40
1
 40
1
 40
1
 40
1
 10
84.222566
 20
88.100161
 30
0.0
 10
87.815558
 20
87.477979
 30
0.0
 10
91.193986
 20
90.116066
 30
0.0
 10
91.783193
 20
93.649364
 30
0.0
  0
SPLINE
  5
16b
100
AcDbEntity
  8
Calque_1
 62
1
100
AcDbSpline
 70
8
 71
3
 72
8
 73
4
 74
0
 40
0
 40
0
 40
0
 40
0
 40
1
 40
1
 40
1
 40
1
 10
91.783193
 20
93.649364
 30
0.0
 10
92.453737
 20
97.670419
 30
0.0
 10
89.495641
 20
101.441596
 30
0.0
 10
85.536579
 20
102.080233
 30
0.0
  0
SPLINE
  5
16c
100
AcDbEntity
  8
Calque_1
 62
1
100
AcDbSpline
 70
8
 71
3
 72
8
 73
4
 74
0
 40
0
 40
0
 40
0
 40
0
 40
1
 40
1
 40
1
 40
1
 10
85.536579
 20
102.080233
 30
0.0
 10
81.074056
 20
102.800084
 30
0.0
 10
76.897855
 20
99.511573
 30
0.0
 10
76.208979
 20
95.113213
 30
0.0
  0
SPLINE
  5
16d
100
AcDbEntity
  8
Calque_1
 62
1
100
AcDbSpline
 70
8
 71
3
 72
8
 73
4
 74
0
 40
0
 40
0
 40
0
 40
0
 40
1
 40
1
 40
1
 40
1
 10
76.208979
 20
95.113213
 30
0.0
 10
75.438902
 20
90.196399
 30
0.0
 10
79.067755
 20
85.603443
 30
0.0
 10
83.918348
 20
84.863521
 30
0.0
  0
SPLINE
  5
16e
100
AcDbEntity
  8
Calque_1
 62
1
100
AcDbSpline
 70
8
 71
3
 72
8
 73
4
 74
0
 40
0
 40
0
 40
0
 40
0
 40
1
 40
1
 40
1
 40
1
 10
83.918348
 20
84.863521
 30
0.0
 10
89.301760
 20
84.042320
 30
0.0
 10
94.322717
 20
88.021023
 30
0.0
 10
95.114490
 20
93.336249
 30
0.0
  0
SPLINE
  5
16f
100
AcDbEntity
  8
Calque_1
 62
1
100
AcDbSpline
 70
8
 71
3
 72
8
 73
4
 74
0
 40
0
 40
0
 40
0
 40
0
 40
1
 40
1
 40
1
 40
1
 10
95.114490
 20
93.336249
 30
0.0
 10
95.987688
 20
99.198096
 30
0.0
 10
91.650006
 20
104.657871
 30
0.0
 10
85.858223
 20
105.502289
 30
0.0
  0
SPLINE
  5
170
100
AcDbEntity
  8
Calque_1
 62
1
100
AcDbSpline
 70
8
 71
3
 72
8
 73
4
 74
0
 40
0
 40
0
 40
0
 40
0
 40
1
 40
1
 40
1
 40
1
 10
85.858223
 20
105.502289
 30
0.0
 10
79.506528
 20
106.428341
 30
0.0
 10
73.597507
 20
101.722890
 30
0.0
 10
72.699656
 20
95.443060
 30
0.0
  0
SPLINE
  5
171
100
AcDbEntity
  8
Calque_1
 62
1
100
AcDbSpline
 70
8
 71
3
 72
8
 73
4
 74
0
 40
0
 40
0
 40
0
 40
0
 40
1
 40
1
 40
1
 40
1
 10
72.699656
 20
95.443060
 30
0.0
 10
71.719917
 20
88.590484
 30
0.0
 10
76.801621
 20
82.222147
 30
0.0
 10
83.580595
 20
81.270086
 30
0.0
  0
SPLINE
  5
172
100
AcDbEntity
  8
Calque_1
 62
1
100
AcDbSpline
 70
8
 71
3
 72
8
 73
4
 74
0
 40
0
 40
0
 40
0
 40
0
 40
1
 40
1
 40
1
 40
1
 10
83.580595
 20
81.270086
 30
0.0
 10
90.944729
 20
80.235842
 30
0.0
 10
97.782132
 20
85.702001
 30
0.0
 10
98.789170
 20
92.990859
 30
0.0
  0
SPLINE
  5
173
100
AcDbEntity
  8
Calque_1
 62
1
100
AcDbSpline
 70
8
 71
3
 72
8
 73
4
 74
0
 40
0
 40
0
 40
0
 40
0
 40
1
 40
1
 40
1
 40
1
 10
98.789170
 20
92.990859
 30
0.0
 10
99.878718
 20
100.876906
 30
0.0
 10
94.020156
 20
108.192825
 30
0.0
 10
86.211004
 20
109.255598
 30
0.0
  0
SPLINE
  5
174
100
AcDbEntity
  8
Calque_1
 62
1
100
AcDbSpline
 70
8
 71
3
 72
8
 73
4
 74
0
 40
0
 40
0
 40
0
 40
0
 40
1
 40
1
 40
1
 40
1
 10
86.211004
 20
109.255598
 30
0.0
 10
77.792990
 20
110.401233
 30
0.0
 10
69.989377
 20
104.142558
 30
0.0
 10
68.870125
 20
95.803005
 30
0.0
  0
SPLINE
  5
175
100
AcDbEntity
  8
Calque_1
 62
1
100
AcDbSpline
 70
8
 71
3
 72
8
 73
4
 74
0
 40
0
 40
0
 40
0
 40
0
 40
1
 40
1
 40
1
 40
1
 10
68.870125
 20
95.803005
 30
0.0
 10
67.667635
 20
86.843245
 30
0.0
 10
74.333916
 20
78.543015
 30
0.0
 10
83.213694
 20
77.366549
 30
0.0
  0
SPLINE
  5
176
100
AcDbEntity
  8
Calque_1
 62
1
100
AcDbSpline
 70
8
 71
3
 72
8
 73
4
 74
0
 40
0
 40
0
 40
0
 40
0
 40
1
 40
1
 40
1
 40
1
 10
83.213694
 20
77.366549
 30
0.0
 10
92.724722
 20
76.106451
 30
0.0
 10
101.530257
 20
83.187628
 30
0.0
 10
102.764659
 20
92.617196
 30
0.0
  0
SPLINE
  5
177
100
AcDbEntity
  8
Calque_1
 62
1
100
AcDbSpline
 70
8
 71
3
 72
8
 73
4
 74
0
 40
0
 40
0
 40
0
 40
0
 40
1
 40
1
 40
1
 40
1
 10
102.764659
 20
92.617196
 30
0.0
 10
104.083105
 20
102.688770
 30
0.0
 10
96.579929
 20
112.008080
 30
0.0
 10
86.591251
 20
113.301133
 30
0.0
  0
SPLINE
  5
178
100
AcDbEntity
  8
Calque_1
 62
1
100
AcDbSpline
 70
8
 71
3
 72
8
 73
4
 74
0
 40
0
 40
0
 40
0
 40
0
 40
1
 40
1
 40
1
 40
1
 10
86.591251
 20
113.301133
 30
0.0
 10
75.950074
 20
114.678651
 30
0.0
 10
66.108726
 20
106.746550
 30
0.0
 10
64.756323
 20
96.189669
 30
0.0
  0
SPLINE
  5
179
100
AcDbEntity
  8
Calque_1
 62
1
100
AcDbSpline
 70
8
 71
3
 72
8
 73
4
 74
0
 40
0
 40
0
 40
0
 40
0
 40
1
 40
1
 40
1
 40
1
 10
64.756323
 20
96.189669
 30
0.0
 10
63.319018
 20
84.970044
 30
0.0
 10
71.686807
 20
74.598588
 30
0.0
 10
82.820771
 20
73.186141
 30
0.0
  0
SPLINE
  5
17a
100
AcDbEntity
  8
Calque_1
 62
1
100
AcDbSpline
 70
8
 71
3
 72
8
 73
4
 74
0
 40
0
 40
0
 40
0
 40
0
 40
1
 40
1
 40
1
 40
1
 10
82.820771
 20
73.186141
 30
0.0
 10
94.627490
 20
71.688349
 30
0.0
 10
105.536943
 20
80.498433
 30
0.0
 10
107.010115
 20
92.218158
 30
0.0
  0
SPLINE
  5
17b
100
AcDbEntity
  8
Calque_1
 62
1
100
AcDbSpline
 70
8
 71
3
 72
8
 73
4
 74
0
 40
0
 40
0
 40
0
 40
0
 40
1
 40
1
 40
1
 40
1
 10
107.010115
 20
92.218158
 30
0.0
 10
108.569084
 20
104.620432
 30
0.0
 10
99.310242
 20
116.075602
 30
0.0
 10
86.996265
 20
117.610171
 30
0.0
  0
SPLINE
  5
17c
100
AcDbEntity
  8
Calque_1
 62
1
100
AcDbSpline
 70
8
 71
3
 72
8
 73
4
 74
0
 40
0
 40
0
 40
0
 40
0
 40
1
 40
1
 40
1
 40
1
 10
86.996265
 20
117.610171
 30
0.0
 10
73.990153
 20
119.230994
 30
0.0
 10
61.981709
 20
109.517071
 30
0.0
 10
60.385080
 20
96.600530
 30
0.0
  0
SPLINE
  5
17d
100
AcDbEntity
  8
Calque_1
 62
1
100
AcDbSpline
 70
8
 71
3
 72
8
 73
4
 74
0
 40
0
 40
0
 40
0
 40
0
 40
1
 40
1
 40
1
 40
1
 10
60.385080
 20
96.600530
 30
0.0
 10
58.701735
 20
82.982463
 30
0.0
 10
68.876936
 20
70.413338
 30
0.0
 10
82.404185
 20
68.753998
 30
0.0
  0
SPLINE
  5
17e
100
AcDbEntity
  8
Calque_1
 62
1
100
AcDbSpline
 70
8
 71
3
 72
8
 73
4
 74
0
 40
0
 40
0
 40
0
 40
0
 40
1
 40
1
 40
1
 40
1
 10
82.404185
 20
68.753998
 30
0.0
 10
96.642164
 20
67.007473
 30
0.0
 10
109.779231
 20
77.650024
 30
0.0
 10
111.501929
 20
91.795964
 30
0.0
  0
SPLINE
  5
17f
100
AcDbEntity
  8
Calque_1
 62
1
100
AcDbSpline
 70
8
 71
3
 72
8
 73
4
 74
0
 40
0
 40
0
 40
0
 40
0
 40
1
 40
1
 40
1
 40
1
 10
111.501929
 20
91.795964
 30
0.0
 10
113.312280
 20
106.661665
 30
0.0
 10
102.196421
 20
120.373797
 30
0.0
 10
87.423958
 20
122.160487
 30
0.0
  0
SPLINE
  5
180
100
AcDbEntity
  8
Calque_1
 62
1
100
AcDbSpline
 70
8
 71
3
 72
8
 73
4
 74
0
 40
0
 40
0
 40
0
 40
0
 40
1
 40
1
 40
1
 40
1
 10
87.423958
 20
122.160487
 30
0.0
 10
71.922872
 20
124.035301
 30
0.0
 10
57.628678
 20
112.440292
 30
0.0
 10
55.777371
 20
97.033617
 30
0.0
  0
SPLINE
  5
181
100
AcDbEntity
  8
Calque_1
 62
1
100
AcDbSpline
 70
8
 71
3
 72
8
 73
4
 74
0
 40
0
 40
0
 40
0
 40
0
 40
1
 40
1
 40
1
 40
1
 10
55.777371
 20
97.033617
 30
0.0
 10
53.837464
 20
80.889616
 30
0.0
 10
65.917366
 20
66.006493
 30
0.0
 10
81.965802
 20
64.089949
 30
0.0
  0
SPLINE
  5
182
100
AcDbEntity
  8
Calque_1
 62
1
100
AcDbSpline
 70
8
 71
3
 72
8
 73
4
 74
0
 40
0
 40
0
 40
0
 40
0
 40
1
 40
1
 40
1
 40
1
 10
81.965802
 20
64.089949
 30
0.0
 10
98.760116
 20
62.084330
 30
0.0
 10
114.238918
 20
74.654763
 30
0.0
 10
116.221312
 20
91.352381
 30
0.0
  0
SPLINE
  5
183
100
AcDbEntity
  8
Calque_1
 62
1
100
AcDbSpline
 70
8
 71
3
 72
8
 73
4
 74
0
 40
0
 40
0
 40
0
 40
0
 40
1
 40
1
 40
1
 40
1
 10
116.221312
 20
91.352381
 30
0.0
 10
118.293259
 20
108.804282
 30
0.0
 10
105.226747
 20
124.885408
 30
0.0
 10
87.872652
 20
126.934249
 30
0.0
  0
SPLINE
  5
184
100
AcDbEntity
  8
Calque_1
 62
1
100
AcDbSpline
 70
8
 71
3
 72
8
 73
4
 74
0
 40
0
 40
0
 40
0
 40
0
 40
1
 40
1
 40
1
 40
1
 10
87.872652
 20
126.934249
 30
0.0
 10
69.756007
 20
129.073118
 30
0.0
 10
53.066031
 20
115.505081
 30
0.0
 10
50.950145
 20
97.487336
 30
0.0
  0
SPLINE
  5
185
100
AcDbEntity
  8
Calque_1
 62
1
100
AcDbSpline
 70
8
 71
3
 72
8
 73
4
 74
0
 40
0
 40
0
 40
0
 40
0
 40
1
 40
1
 40
1
 40
1
 10
50.950145
 20
97.487336
 30
0.0
 10
48.743754
 20
78.698905
 30
0.0
 10
62.818684
 20
61.393653
 30
0.0
 10
81.507140
 20
59.210137
 30
0.0
  0
SPLINE
  5
186
100
AcDbEntity
  8
Calque_1
 62
1
100
AcDbSpline
 70
8
 71
3
 72
8
 73
4
 74
0
 40
0
 40
0
 40
0
 40
0
 40
1
 40
1
 40
1
 40
1
 10
81.507140
 20
59.210137
 30
0.0
 10
100.974291
 20
56.935636
 30
0.0
 10
118.901144
 20
71.522737
 30
0.0
 10
121.152877
 20
90.888854
 30
0.0
  0
SPLINE
  5
187
100
AcDbEntity
  8
Calque_1
 62
1
100
AcDbSpline
 70
8
 71
3
 72
8
 73
4
 74
0
 40
0
 40
0
 40
0
 40
0
 40
1
 40
1
 40
1
 40
1
 10
121.152877
 20
90.888854
 30
0.0
 10
123.496068
 20
111.041552
 30
0.0
 10
108.391591
 20
129.596245
 30
0.0
 10
88.340968
 20
131.916764
 30
0.0
  0
SPLINE
  5
188
100
AcDbEntity
  8
Calque_1
 62
1
100
AcDbSpline
 70
8
 71
3
 72
8
 73
4
 74
0
 40
0
 40
0
 40
0
 40
0
 40
1
 40
1
 40
1
 40
1
 10
88.340968
 20
131.916764
 30
0.0
 10
67.495994
 20
134.329215
 30
0.0
 10
48.307325
 20
118.702242
 30
0.0
 10
45.917453
 20
97.960368
 30
0.0
  0
SPLINE
  5
189
100
AcDbEntity
  8
Calque_1
 62
1
100
AcDbSpline
 70
8
 71
3
 72
8
 73
4
 74
0
 40
0
 40
0
 40
0
 40
0
 40
1
 40
1
 40
1
 40
1
 10
45.917453
 20
97.960368
 30
0.0
 10
43.435172
 20
76.416487
 30
0.0
 10
59.589690
 20
56.587791
 30
0.0
 10
81.029461
 20
54.128003
 30
0.0
  0
SPLINE
  5
18a
100
AcDbEntity
  8
Calque_1
 62
1
100
AcDbSpline
 70
8
 71
3
 72
8
 73
4
 74
0
 40
0
 40
0
 40
0
 40
0
 40
1
 40
1
 40
1
 40
1
 10
81.029461
 20
54.128003
 30
0.0
 10
103.278789
 20
51.575331
 30
0.0
 10
123.753483
 20
68.262374
 30
0.0
 10
126.283739
 20
90.406595
 30
0.0
  0
SPLINE
  5
18b
100
AcDbEntity
  8
Calque_1
 62
1
100
AcDbSpline
 70
8
 71
3
 72
8
 73
4
 74
0
 40
0
 40
0
 40
0
 40
0
 40
1
 40
1
 40
1
 40
1
 10
126.283739
 20
90.406595
 30
0.0
 10
128.907347
 20
113.367818
 30
0.0
 10
111.682873
 20
134.494391
 30
0.0
 10
88.827742
 20
137.095663
 30
0.0
  0
SPLINE
  5
18c
100
AcDbEntity
  8
Calque_1
 62
1
100
AcDbSpline
 70
8
 71
3
 72
8
 73
4
 74
0
 40
0
 40
0
 40
0
 40
0
 40
1
 40
1
 40
1
 40
1
 10
88.827742
 20
137.095663
 30
0.0
 10
65.148263
 20
139.790759
 30
0.0
 10
43.364001
 20
122.024019
 30
0.0
 10
40.691172
 20
98.451596
 30
0.0
  0
SPLINE
  5
18d
100
AcDbEntity
  8
Calque_1
 62
1
100
AcDbSpline
 70
8
 71
3
 72
8
 73
4
 74
0
 40
0
 40
0
 40
0
 40
0
 40
1
 40
1
 40
1
 40
1
 10
40.691172
 20
98.451596
 30
0.0
 10
37.924048
 20
74.047580
 30
0.0
 10
56.237836
 20
51.599903
 30
0.0
 10
80.533840
 20
48.854979
 30
0.0
  0
SPLINE
  5
18e
100
AcDbEntity
  8
Calque_1
 62
1
100
AcDbSpline
 70
8
 71
3
 72
8
 73
4
 74
0
 40
0
 40
0
 40
0
 40
0
 40
1
 40
1
 40
1
 40
1
 10
80.533840
 20
48.854979
 30
0.0
 10
105.668589
 20
46.015288
 30
0.0
 10
128.785347
 20
64.880842
 30
0.0
 10
131.602893
 20
89.906638
 30
0.0
  0
SPLINE
  5
18f
100
AcDbEntity
  8
Calque_1
 62
1
100
AcDbSpline
 70
8
 71
3
 72
8
 73
4
 74
0
 40
0
 40
0
 40
0
 40
0
 40
1
 40
1
 40
1
 40
1
 10
131.602893
 20
89.906638
 30
0.0
 10
134.515668
 20
115.778242
 30
0.0
 10
115.093699
 20
139.569662
 30
0.0
 10
89.331980
 20
142.460360
 30
0.0
  0
SPLINE
  5
190
100
AcDbEntity
  8
Calque_1
 62
1
100
AcDbSpline
 70
8
 71
3
 72
8
 73
4
 74
0
 40
0
 40
0
 40
0
 40
0
 40
1
 40
1
 40
1
 40
1
 10
89.331980
 20
142.460360
 30
0.0
 10
62.717475
 20
145.446749
 30
0.0
 10
38.245875
 20
125.463761
 30
0.0
 10
35.281507
 20
98.960060
 30
0.0
  0
SPLINE
  5
191
100
AcDbEntity
  8
Calque_1
 62
1
100
AcDbSpline
 70
8
 71
3
 72
8
 73
4
 74
0
 40
0
 40
0
 40
0
 40
0
 40
1
 40
1
 40
1
 40
1
 10
35.281507
 20
98.960060
 30
0.0
 10
32.220987
 20
71.596684
 30
0.0
 10
52.769535
 20
46.439453
 30
0.0
 10
80.021202
 20
43.400898
 30
0.0
  0
SPLINE
  5
192
100
AcDbEntity
  8
Calque_1
 62
1
100
AcDbSpline
 70
8
 71
3
 72
8
 73
4
 74
0
 40
0
 40
0
 40
0
 40
0
 40
1
 40
1
 40
1
 40
1
 10
80.021202
 20
43.400898
 30
0.0
 10
108.139351
 20
40.265735
 30
0.0
 10
133.987605
 20
61.384333
 30
0.0
 10
137.100849
 20
89.389875
 30
0.0
  0
SPLINE
  5
193
100
AcDbEntity
  8
Calque_1
 62
1
100
AcDbSpline
 70
8
 71
3
 72
8
 73
4
 74
0
 40
0
 40
0
 40
0
 40
0
 40
1
 40
1
 40
1
 40
1
 10
137.100849
 20
89.389875
 30
0.0
 10
140.311162
 20
118.268633
 30
0.0
 10
118.618084
 20
144.813229
 30
0.0
 10
89.852817
 20
148.001668
 30
0.0
  0
SPLINE
  5
194
100
AcDbEntity
  8
Calque_1
 62
1
100
AcDbSpline
 70
8
 71
3
 72
8
 73
4
 74
0
 40
0
 40
0
 40
0
 40
0
 40
1
 40
1
 40
1
 40
1
 10
89.852817
 20
148.001668
 30
0.0
 10
60.207687
 20
151.287635
 30
0.0
 10
32.961481
 20
129.015689
 30
0.0
 10
29.697347
 20
99.484926
 30
0.0
  0
SPLINE
  5
195
100
AcDbEntity
  8
Calque_1
 62
1
100
AcDbSpline
 70
8
 71
3
 72
8
 73
4
 74
0
 40
0
 40
0
 40
0
 40
0
 40
1
 40
1
 40
1
 40
1
 10
29.697347
 20
99.484926
 30
0.0
 10
26.335231
 20
69.067718
 30
0.0
 10
49.190380
 20
41.114698
 30
0.0
 10
79.492354
 20
37.774375
 30
0.0
  0
SPLINE
  5
196
100
AcDbEntity
  8
Calque_1
 62
1
100
AcDbSpline
 70
8
 71
3
 72
8
 73
4
 74
0
 40
0
 40
0
 40
0
 40
0
 40
1
 40
1
 40
1
 40
1
 10
79.492354
 20
37.774375
 30
0.0
 10
110.687278
 20
34.335612
 30
0.0
 10
139.352258
 20
57.778258
 30
0.0
 10
142.769264
 20
88.857091
 30
0.0
  0
SPLINE
  5
197
100
AcDbEntity
  8
Calque_1
 62
1
100
AcDbSpline
 70
8
 71
3
 72
8
 73
4
 74
0
 40
0
 40
0
 40
0
 40
0
 40
1
 40
1
 40
1
 40
1
 10
142.769264
 20
88.857091
 30
0.0
 10
146.285151
 20
120.835311
 30
0.0
 10
122.250785
 20
150.217350
 30
0.0
 10
90.389496
 20
153.711519
 30
0.0
  0
SPLINE
  5
198
100
AcDbEntity
  8
Calque_1
 62
1
100
AcDbSpline
 70
8
 71
3
 72
8
 73
4
 74
0
 40
0
 40
0
 40
0
 40
0
 40
1
 40
1
 40
1
 40
1
 10
90.389496
 20
153.711519
 30
0.0
 10
57.622460
 20
157.305020
 30
0.0
 10
27.518324
 20
132.674721
 30
0.0
 10
23.946510
 20
100.025457
 30
0.0
  0
SPLINE
  5
199
100
AcDbEntity
  8
Calque_1
 62
1
100
AcDbSpline
 70
8
 71
3
 72
8
 73
4
 74
0
 40
0
 40
0
 40
0
 40
0
 40
1
 40
1
 40
1
 40
1
 10
23.946510
 20
100.025457
 30
0.0
 10
20.274918
 20
66.464141
 30
0.0
 10
45.505295
 20
35.632925
 30
0.0
 10
78.948011
 20
31.982985
 30
0.0
  0
SPLINE
  5
19a
100
AcDbEntity
  8
Calque_1
 62
1
100
AcDbSpline
 70
8
 71
3
 72
8
 73
4
 74
0
 40
0
 40
0
 40
0
 40
0
 40
1
 40
1
 40
1
 40
1
 10
78.948011
 20
31.982985
 30
0.0
 10
113.309015
 20
28.232829
 30
0.0
 10
144.872251
 20
54.067395
 30
0.0
 10
148.600785
 20
88.308975
 30
0.0
  0
SPLINE
  5
19b
100
AcDbEntity
  8
Calque_1
 62
1
100
AcDbSpline
 70
8
 71
3
 72
8
 73
4
 74
0
 40
0
 40
0
 40
0
 40
0
 40
1
 40
1
 40
1
 40
1
 10
148.600785
 20
88.308975
 30
0.0
 10
152.429977
 20
123.475018
 30
0.0
 10
125.987158
 20
155.775166
 30
0.0
 10
90.941345
 20
159.582759
 30
0.0
  0
SPLINE
  5
19c
100
AcDbEntity
  8
Calque_1
 62
1
100
AcDbSpline
 70
8
 71
3
 72
8
 73
4
 74
0
 40
0
 40
0
 40
0
 40
0
 40
1
 40
1
 40
1
 40
1
 10
90.941345
 20
159.582759
 30
0.0
 10
54.964963
 20
163.491456
 30
0.0
 10
21.923068
 20
136.436348
 30
0.0
 10
18.035948
 20
100.581001
 30
0.0
  0
SPLINE
  5
19d
100
AcDbEntity
  8
Calque_1
 62
1
100
AcDbSpline
 70
8
 71
3
 72
8
 73
4
 74
0
 40
0
 40
0
 40
0
 40
0
 40
1
 40
1
 40
1
 40
1
 10
18.035948
 20
100.581001
 30
0.0
 10
14.047288
 20
63.789031
 30
0.0
 10
41.718667
 20
30.000601
 30
0.0
 10
78.388807
 20
26.033486
 30
0.0
  0
SPLINE
  5
19e
100
AcDbEntity
  8
Calque_1
 62
1
100
AcDbSpline
 70
8
 71
3
 72
8
 73
4
 74
0
 40
0
 40
0
 40
0
 40
0
 40
1
 40
1
 40
1
 40
1
 10
78.388807
 20
26.033486
 30
0.0
 10
116.001566
 20
21.964406
 30
0.0
 10
150.541279
 20
50.256008
 30
0.0
 10
154.588837
 20
87.746148
 30
0.0
  0
SPLINE
  5
19f
100
AcDbEntity
  8
Calque_1
 62
1
100
AcDbSpline
 70
8
 71
3
 72
8
 73
4
 74
0
 40
0
 40
0
 40
0
 40
0
 40
1
 40
1
 40
1
 40
1
 10
154.588837
 20
87.746148
 30
0.0
 10
158.738794
 20
126.184842
 30
0.0
 10
129.823062
 20
161.480547
 30
0.0
 10
91.507762
 20
165.608993
 30
0.0
  0
SPLINE
  5
1a0
100
AcDbEntity
  8
Calque_1
 62
1
100
AcDbSpline
 70
8
 71
3
 72
8
 73
4
 74
0
 40
0
 40
0
 40
0
 40
0
 40
1
 40
1
 40
1
 40
1
 10
91.507762
 20
165.608993
 30
0.0
 10
89.316981
 20
165.845047
 30
0.0
 10
87.115320
 20
165.979921
 30
0.0
 10
84.912111
 20
166.013168
 30
0.0
  0
LINE
  5
1a1
100
AcDbEntity
  8
Calque_1
 62
1
100
AcDbLine
 10
82.418967
 20
96.912487
 30
0.0
 11
88.318965
 21
96.912487
 31
0.0
  0
LINE
  5
1a2
100
AcDbEntity
  8
Calque_1
 62
1
100
AcDbLine
 10
88.318965
 20
96.912487
 30
0.0
 11
88.318965
 21
91.012487
 31
0.0
  0
LINE
  5
1a3
100
AcDbEntity
  8
Calque_1
 62
1
100
AcDbLine
 10
88.318965
 20
91.012487
 30
0.0
 11
82.418967
 21
91.012487
 31
0.0
  0
LINE
  5
1a4
100
AcDbEntity
  8
Calque_1
 62
1
100
AcDbLine
 10
82.418967
 20
91.012487
 30
0.0
 11
82.418967
 21
96.912487
 31
0.0
  0
LINE
  5
1a5
100
AcDbEntity
  8
Calque_1
 62
1
100
AcDbLine
 10
23.694709
 20
90.812037
 30
0.0
 11
20.567173
 21
90.812037
 31
0.0
  0
LINE
  5
1a6
100
AcDbEntity
  8
Calque_1
 62
1
100
AcDbLine
 10
20.567173
 20
90.812037
 30
0.0
 11
20.567173
 21
96.712037
 31
0.0
  0
LINE
  5
1a7
100
AcDbEntity
  8
Calque_1
 62
1
100
AcDbLine
 10
20.567173
 20
96.712037
 30
0.0
 11
23.694709
 21
96.712037
 31
0.0
  0
LINE
  5
1a8
100
AcDbEntity
  8
Calque_1
 62
1
100
AcDbLine
 10
148.928748
 20
96.712037
 30
0.0
 11
151.930706
 21
96.712037
 31
0.0
  0
LINE
  5
1a9
100
AcDbEntity
  8
Calque_1
 62
1
100
AcDbLine
 10
151.930706
 20
96.712037
 30
0.0
 11
151.930706
 21
90.812037
 31
0.0
  0
LINE
  5
1aa
100
AcDbEntity
  8
Calque_1
 62
1
100
AcDbLine
 10
151.930706
 20
90.812037
 30
0.0
 11
148.836875
 21
90.812037
 31
0.0
  0
SPLINE
  5
1ab
100
AcDbEntity
  8
Calque_1
 62
1
100
AcDbSpline
 70
8
 71
3
 72
8
 73
4
 74
0
 40
0
 40
0
 40
0
 40
0
 40
1
 40
1
 40
1
 40
1
 10
84.912109
 20
166.013167
 30
0.0
 10
84.912109
 20
166.013167
 30
0.0
 10
82.048666
 20
166.015167
 30
0.0
 10
82.048666
 20
162.968267
 30
0.0
  0
SPLINE
  5
1ac
100
AcDbEntity
  8
Calque_1
 62
1
100
AcDbSpline
 70
8
 71
3
 72
8
 73
4
 74
0
 40
0
 40
0
 40
0
 40
0
 40
1
 40
1
 40
1
 40
1
 10
82.048666
 20
162.968267
 30
0.0
 10
82.048666
 20
159.945347
 30
0.0
 10
84.912109
 20
159.956907
 30
0.0
 10
84.912109
 20
159.956907
 30
0.0
  0
ENDSEC
  0
SECTION
  2
OBJECTS
  0
DICTIONARY
  5
C
330
0
100
AcDbDictionary
  3
ACAD_GROUP
350
D
  3
ACAD_MLINESTYLE
350
17
  0
DICTIONARY
  5
D
330
C
100
AcDbDictionary
  0
DICTIONARY
  5
1A
330
C
100
AcDbDictionary
  0
DICTIONARY
  5
17
330
C
100
AcDbDictionary
  3
STANDARD
350
18
  0
DICTIONARY
  5
19
330
C
100
AcDbDictionary
  0
ENDSEC
  0
EOF
