  0
SECTION
  2
HEADER
  9
$ACADVER
  1
AC1014
  9
$HANDSEED
  5
FFFF
  9
$MEASUREMENT
 70
     1
  0
ENDSEC
  0
SECTION
  2
TABLES
  0
TABLE
  2
VPORT
  5
8
330
0
100
AcDbSymbolTable
 70
     4
  0
VPORT
  5
2E
330
8
100
AcDbSymbolTableRecord
100
AcDbViewportTableRecord
  2
*ACTIVE
 70
     0
 10
0.0
 20
0.0
 11
1.0
 21
1.0
 12
210.0
 22
148.5
 13
0.0
 23
0.0
 14
10.0
 24
10.0
 15
10.0
 25
10.0
 16
0.0
 26
0.0
 36
1.0
 17
0.0
 27
0.0
 37
0.0
 40
341.0
 41
1.24
 42
50.0
 43
0.0
 44
0.0
 50
0.0
 51
0.0
 71
     0
 72
   100
 73
     1
 74
     3
 75
     0
 76
     0
 77
     0
 78
     0
  0
ENDTAB
  0
TABLE
  2
LTYPE
  5
5
330
0
100
AcDbSymbolTable
 70
     1
  0
LTYPE
  5
14
330
5
100
AcDbSymbolTableRecord
100
AcDbLinetypeTableRecord
  2
BYBLOCK
 70
     0
  3

 72
    65
 73
     0
 40
0.0
  0
LTYPE
  5
15
330
5
100
AcDbSymbolTableRecord
100
AcDbLinetypeTableRecord
  2
BYLAYER
 70
     0
  3

 72
    65
 73
     0
 40
0.0
  0
LTYPE
  5
16
330
5
100
AcDbSymbolTableRecord
100
AcDbLinetypeTableRecord
  2
CONTINUOUS
 70
     0
  3
Solid line
 72
    65
 73
     0
 40
0.0
  0
ENDTAB
  0
TABLE
  2
LAYER
  5
2
100
AcDbSymbolTable
 70
2
  0
LAYER
  5
50
100
AcDbSymbolTableRecord
100
AcDbLayerTableRecord
  2
0
 70
0
  6
CONTINUOUS
  0
LAYER
  5
51
100
AcDbSymbolTableRecord
100
AcDbLayerTableRecord
  2
Calque_1
 70
0
  6
CONTINUOUS
  0
ENDTAB
  0
TABLE
  2
STYLE
  5
3
330
0
100
AcDbSymbolTable
 70
     1
  0
STYLE
  5
11
330
3
100
AcDbSymbolTableRecord
100
AcDbTextStyleTableRecord
  2
STANDARD
 70
     0
 40
0.0
 41
1.0
 50
0.0
 71
     0
 42
2.5
  3
txt
  4

  0
ENDTAB
  0
TABLE
  2
VIEW
  5
6
330
0
100
AcDbSymbolTable
 70
     0
  0
ENDTAB
  0
TABLE
  2
UCS
  5
7
330
0
100
AcDbSymbolTable
 70
     0
  0
ENDTAB
  0
TABLE
  2
APPID
  5
9
330
0
100
AcDbSymbolTable
 70
     2
  0
APPID
  5
12
330
9
100
AcDbSymbolTableRecord
100
AcDbRegAppTableRecord
  2
ACAD
 70
     0
  0
ENDTAB
  0
TABLE
  2
DIMSTYLE
  5
A
330
0
100
AcDbSymbolTable
 70
     1
  0
DIMSTYLE
105
27
330
A
100
AcDbSymbolTableRecord
100
AcDbDimStyleTableRecord
  2
ISO-25
 70
     0
  3

  4

  5

  6

  7

 40
1.0
 41
2.5
 42
0.625
 43
3.75
 44
1.25
 45
0.0
 46
0.0
 47
0.0
 48
0.0
140
2.5
141
2.5
142
0.0
143
0.03937007874016
144
1.0
145
0.0
146
1.0
147
0.625
 71
     0
 72
     0
 73
     0
 74
     0
 75
     0
 76
     0
 77
     1
 78
     8
170
     0
171
     3
172
     1
173
     0
174
     0
175
     0
176
     0
177
     0
178
     0
270
     2
271
     2
272
     2
273
     2
274
     3
340
11
275
     0
280
     0
281
     0
282
     0
283
     0
284
     8
285
     0
286
     0
287
     3
288
     0
  0
ENDTAB
  0
TABLE
  2
BLOCK_RECORD
  5
1
330
0
100
AcDbSymbolTable
 70
     1
  0
BLOCK_RECORD
  5
1F
330
1
100
AcDbSymbolTableRecord
100
AcDbBlockTableRecord
  2
*MODEL_SPACE
  0
BLOCK_RECORD
  5
1B
330
1
100
AcDbSymbolTableRecord
100
AcDbBlockTableRecord
  2
*PAPER_SPACE
  0
ENDTAB
  0
ENDSEC
  0
SECTION
  2
BLOCKS
  0
BLOCK
  5
20
330
1F
100
AcDbEntity
  8
0
100
AcDbBlockBegin
  2
*MODEL_SPACE
 70
     0
 10
0.0
 20
0.0
 30
0.0
  3
*MODEL_SPACE
  1

  0
ENDBLK
  5
21
330
1F
100
AcDbEntity
  8
0
100
AcDbBlockEnd
  0
BLOCK
  5
1C
330
1B
100
AcDbEntity
 67
     1
  8
0
100
AcDbBlockBegin
  2
*PAPER_SPACE
  1

  0
ENDBLK
  5
1D
330
1B
100
AcDbEntity
 67
     1
  8
0
100
AcDbBlockEnd
  0
ENDSEC
  0
SECTION
  2
ENTITIES
  0
LINE
  5
100
100
AcDbEntity
  8
Calque_1
 62
1
100
AcDbLine
 10
64.406758
 20
19.630845
 30
0.0
 11
64.406758
 21
21.926995
 31
0.0
  0
LINE
  5
101
100
AcDbEntity
  8
Calque_1
 62
1
100
AcDbLine
 10
64.406758
 20
21.926995
 30
0.0
 11
62.307740
 21
21.926995
 31
0.0
  0
LINE
  5
102
100
AcDbEntity
  8
Calque_1
 62
1
100
AcDbLine
 10
62.307740
 20
21.926995
 30
0.0
 11
60.208732
 21
21.926995
 31
0.0
  0
LINE
  5
103
100
AcDbEntity
  8
Calque_1
 62
1
100
AcDbLine
 10
60.208732
 20
21.926995
 30
0.0
 11
60.208732
 21
24.954175
 31
0.0
  0
SPLINE
  5
104
100
AcDbEntity
  8
Calque_1
 62
1
100
AcDbSpline
 70
8
 71
3
 72
8
 73
4
 74
0
 40
0
 40
0
 40
0
 40
0
 40
1
 40
1
 40
1
 40
1
 10
60.208732
 20
24.954175
 30
0.0
 10
60.208732
 20
28.221335
 30
0.0
 10
59.531665
 20
30.262195
 30
0.0
 10
57.965484
 20
31.715965
 30
0.0
  0
SPLINE
  5
105
100
AcDbEntity
  8
Calque_1
 62
1
100
AcDbSpline
 70
8
 71
3
 72
8
 73
4
 74
0
 40
0
 40
0
 40
0
 40
0
 40
1
 40
1
 40
1
 40
1
 10
57.965484
 20
31.715965
 30
0.0
 10
57.530637
 20
32.119605
 30
0.0
 10
53.841128
 20
33.593965
 30
0.0
 10
49.766562
 20
34.992335
 30
0.0
  0
SPLINE
  5
106
100
AcDbEntity
  8
Calque_1
 62
1
100
AcDbSpline
 70
8
 71
3
 72
8
 73
4
 74
0
 40
0
 40
0
 40
0
 40
0
 40
1
 40
1
 40
1
 40
1
 10
49.766562
 20
34.992335
 30
0.0
 10
32.306731
 20
40.984475
 30
0.0
 10
26.281194
 20
44.140995
 30
0.0
 10
19.599873
 20
50.795375
 30
0.0
  0
SPLINE
  5
107
100
AcDbEntity
  8
Calque_1
 62
1
100
AcDbSpline
 70
8
 71
3
 72
8
 73
4
 74
0
 40
0
 40
0
 40
0
 40
0
 40
1
 40
1
 40
1
 40
1
 10
19.599873
 20
50.795375
 30
0.0
 10
15.573794
 20
54.805235
 30
0.0
 10
13.959828
 20
56.945615
 30
0.0
 10
13.959828
 20
58.274985
 30
0.0
  0
SPLINE
  5
108
100
AcDbEntity
  8
Calque_1
 62
1
100
AcDbSpline
 70
8
 71
3
 72
8
 73
4
 74
0
 40
0
 40
0
 40
0
 40
0
 40
1
 40
1
 40
1
 40
1
 10
13.959828
 20
58.274985
 30
0.0
 10
13.959828
 20
60.391995
 30
0.0
 10
18.181732
 20
62.922485
 30
0.0
 10
28.952789
 20
67.261345
 30
0.0
  0
SPLINE
  5
109
100
AcDbEntity
  8
Calque_1
 62
1
100
AcDbSpline
 70
8
 71
3
 72
8
 73
4
 74
0
 40
0
 40
0
 40
0
 40
0
 40
1
 40
1
 40
1
 40
1
 10
28.952789
 20
67.261345
 30
0.0
 10
35.001046
 20
69.697735
 30
0.0
 10
38.755125
 20
71.511275
 30
0.0
 10
39.535679
 20
72.373785
 30
0.0
  0
SPLINE
  5
10a
100
AcDbEntity
  8
Calque_1
 62
1
100
AcDbSpline
 70
8
 71
3
 72
8
 73
4
 74
0
 40
0
 40
0
 40
0
 40
0
 40
1
 40
1
 40
1
 40
1
 10
39.535679
 20
72.373785
 30
0.0
 10
40.089786
 20
72.986075
 30
0.0
 10
40.075916
 20
73.056015
 30
0.0
 10
39.301192
 20
73.555995
 30
0.0
  0
SPLINE
  5
10b
100
AcDbEntity
  8
Calque_1
 62
1
100
AcDbSpline
 70
8
 71
3
 72
8
 73
4
 74
0
 40
0
 40
0
 40
0
 40
0
 40
1
 40
1
 40
1
 40
1
 10
39.301192
 20
73.555995
 30
0.0
 10
38.848292
 20
73.848275
 30
0.0
 10
36.175740
 20
74.948535
 30
0.0
 10
33.362175
 20
76.001025
 30
0.0
  0
SPLINE
  5
10c
100
AcDbEntity
  8
Calque_1
 62
1
100
AcDbSpline
 70
8
 71
3
 72
8
 73
4
 74
0
 40
0
 40
0
 40
0
 40
0
 40
1
 40
1
 40
1
 40
1
 10
33.362175
 20
76.001025
 30
0.0
 10
27.026291
 20
78.371145
 30
0.0
 10
25.593220
 20
79.094805
 30
0.0
 10
24.379826
 20
80.536845
 30
0.0
  0
SPLINE
  5
10d
100
AcDbEntity
  8
Calque_1
 62
1
100
AcDbSpline
 70
8
 71
3
 72
8
 73
4
 74
0
 40
0
 40
0
 40
0
 40
0
 40
1
 40
1
 40
1
 40
1
 10
24.379826
 20
80.536845
 30
0.0
 10
23.225342
 20
81.908885
 30
0.0
 10
23.339292
 20
83.115525
 30
0.0
 10
24.824563
 20
85.246185
 30
0.0
  0
SPLINE
  5
10e
100
AcDbEntity
  8
Calque_1
 62
1
100
AcDbSpline
 70
8
 71
3
 72
8
 73
4
 74
0
 40
0
 40
0
 40
0
 40
0
 40
1
 40
1
 40
1
 40
1
 10
24.824563
 20
85.246185
 30
0.0
 10
27.006261
 20
88.375905
 30
0.0
 10
32.062761
 20
91.692115
 30
0.0
 10
43.871995
 20
97.738095
 30
0.0
  0
SPLINE
  5
10f
100
AcDbEntity
  8
Calque_1
 62
1
100
AcDbSpline
 70
8
 71
3
 72
8
 73
4
 74
0
 40
0
 40
0
 40
0
 40
0
 40
1
 40
1
 40
1
 40
1
 10
43.871995
 20
97.738095
 30
0.0
 10
47.890111
 20
99.795245
 30
0.0
 10
51.098293
 20
101.636375
 30
0.0
 10
51.001286
 20
101.829495
 30
0.0
  0
SPLINE
  5
110
100
AcDbEntity
  8
Calque_1
 62
1
100
AcDbSpline
 70
8
 71
3
 72
8
 73
4
 74
0
 40
0
 40
0
 40
0
 40
0
 40
1
 40
1
 40
1
 40
1
 10
51.001286
 20
101.829495
 30
0.0
 10
50.904286
 20
102.022615
 30
0.0
 10
48.144241
 20
103.447545
 30
0.0
 10
44.867879
 20
104.996005
 30
0.0
  0
SPLINE
  5
111
100
AcDbEntity
  8
Calque_1
 62
1
100
AcDbSpline
 70
8
 71
3
 72
8
 73
4
 74
0
 40
0
 40
0
 40
0
 40
0
 40
1
 40
1
 40
1
 40
1
 10
44.867879
 20
104.996005
 30
0.0
 10
37.960348
 20
108.260635
 30
0.0
 10
36.890244
 20
109.076995
 30
0.0
 10
36.890244
 20
111.082075
 30
0.0
  0
SPLINE
  5
112
100
AcDbEntity
  8
Calque_1
 62
1
100
AcDbSpline
 70
8
 71
3
 72
8
 73
4
 74
0
 40
0
 40
0
 40
0
 40
0
 40
1
 40
1
 40
1
 40
1
 10
36.890244
 20
111.082075
 30
0.0
 10
36.890244
 20
114.903255
 30
0.0
 10
43.443588
 20
119.194865
 30
0.0
 10
56.750763
 20
124.088205
 30
0.0
  0
LINE
  5
113
100
AcDbEntity
  8
Calque_1
 62
1
100
AcDbLine
 10
56.750763
 20
124.088205
 30
0.0
 11
62.323860
 21
126.137565
 31
0.0
  0
LINE
  5
114
100
AcDbEntity
  8
Calque_1
 62
1
100
AcDbLine
 10
62.323860
 20
126.137565
 30
0.0
 11
58.514641
 21
127.437995
 31
0.0
  0
SPLINE
  5
115
100
AcDbEntity
  8
Calque_1
 62
1
100
AcDbSpline
 70
8
 71
3
 72
8
 73
4
 74
0
 40
0
 40
0
 40
0
 40
0
 40
1
 40
1
 40
1
 40
1
 10
58.514641
 20
127.437995
 30
0.0
 10
51.968010
 20
129.672959
 30
0.0
 10
50.338539
 20
130.558149
 30
0.0
 10
49.388235
 20
132.395849
 30
0.0
  0
SPLINE
  5
116
100
AcDbEntity
  8
Calque_1
 62
1
100
AcDbSpline
 70
8
 71
3
 72
8
 73
4
 74
0
 40
0
 40
0
 40
0
 40
0
 40
1
 40
1
 40
1
 40
1
 10
49.388235
 20
132.395849
 30
0.0
 10
47.932611
 20
135.210719
 30
0.0
 10
50.215759
 20
137.436909
 30
0.0
 10
64.935925
 20
147.555739
 30
0.0
  0
SPLINE
  5
117
100
AcDbEntity
  8
Calque_1
 62
1
100
AcDbSpline
 70
8
 71
3
 72
8
 73
4
 74
0
 40
0
 40
0
 40
0
 40
0
 40
1
 40
1
 40
1
 40
1
 10
64.935925
 20
147.555739
 30
0.0
 10
71.577829
 20
152.121463
 30
0.0
 10
72.528673
 20
152.978610
 30
0.0
 10
74.145004
 20
155.857382
 30
0.0
  0
SPLINE
  5
118
100
AcDbEntity
  8
Calque_1
 62
1
100
AcDbSpline
 70
8
 71
3
 72
8
 73
4
 74
0
 40
0
 40
0
 40
0
 40
0
 40
1
 40
1
 40
1
 40
1
 10
74.145004
 20
155.857382
 30
0.0
 10
76.029782
 20
159.214254
 30
0.0
 10
76.938039
 20
161.713359
 30
0.0
 10
79.579254
 20
170.809908
 30
0.0
  0
SPLINE
  5
119
100
AcDbEntity
  8
Calque_1
 62
1
100
AcDbSpline
 70
8
 71
3
 72
8
 73
4
 74
0
 40
0
 40
0
 40
0
 40
0
 40
1
 40
1
 40
1
 40
1
 10
79.579254
 20
170.809908
 30
0.0
 10
82.315506
 20
180.233764
 30
0.0
 10
83.462510
 20
183.075289
 30
0.0
 10
85.392631
 20
185.211697
 30
0.0
  0
SPLINE
  5
11a
100
AcDbEntity
  8
Calque_1
 62
1
100
AcDbSpline
 70
8
 71
3
 72
8
 73
4
 74
0
 40
0
 40
0
 40
0
 40
0
 40
1
 40
1
 40
1
 40
1
 10
85.392631
 20
185.211697
 30
0.0
 10
86.641032
 20
186.593538
 30
0.0
 10
86.822002
 20
186.674008
 30
0.0
 10
88.681180
 20
186.674008
 30
0.0
  0
SPLINE
  5
11b
100
AcDbEntity
  8
Calque_1
 62
1
100
AcDbSpline
 70
8
 71
3
 72
8
 73
4
 74
0
 40
0
 40
0
 40
0
 40
0
 40
1
 40
1
 40
1
 40
1
 10
88.681180
 20
186.674008
 30
0.0
 10
90.593691
 20
186.674008
 30
0.0
 10
90.699121
 20
186.621908
 30
0.0
 10
92.457459
 20
184.806490
 30
0.0
  0
SPLINE
  5
11c
100
AcDbEntity
  8
Calque_1
 62
1
100
AcDbSpline
 70
8
 71
3
 72
8
 73
4
 74
0
 40
0
 40
0
 40
0
 40
0
 40
1
 40
1
 40
1
 40
1
 10
92.457459
 20
184.806490
 30
0.0
 10
94.586497
 20
182.608372
 30
0.0
 10
95.439004
 20
180.711531
 30
0.0
 10
99.147843
 20
169.920224
 30
0.0
  0
SPLINE
  5
11d
100
AcDbEntity
  8
Calque_1
 62
1
100
AcDbSpline
 70
8
 71
3
 72
8
 73
4
 74
0
 40
0
 40
0
 40
0
 40
0
 40
1
 40
1
 40
1
 40
1
 10
99.147843
 20
169.920224
 30
0.0
 10
102.991239
 20
158.737397
 30
0.0
 10
105.020497
 20
154.237911
 30
0.0
 10
108.747243
 20
148.635349
 30
0.0
  0
SPLINE
  5
11e
100
AcDbEntity
  8
Calque_1
 62
1
100
AcDbSpline
 70
8
 71
3
 72
8
 73
4
 74
0
 40
0
 40
0
 40
0
 40
0
 40
1
 40
1
 40
1
 40
1
 10
108.747243
 20
148.635349
 30
0.0
 10
112.237083
 20
143.388949
 30
0.0
 10
116.002143
 20
141.522239
 30
0.0
 10
125.644528
 20
140.257689
 30
0.0
  0
SPLINE
  5
11f
100
AcDbEntity
  8
Calque_1
 62
1
100
AcDbSpline
 70
8
 71
3
 72
8
 73
4
 74
0
 40
0
 40
0
 40
0
 40
0
 40
1
 40
1
 40
1
 40
1
 10
125.644528
 20
140.257689
 30
0.0
 10
132.249528
 20
139.391479
 30
0.0
 10
134.881398
 20
138.087119
 30
0.0
 10
136.356598
 20
134.948769
 30
0.0
  0
SPLINE
  5
120
100
AcDbEntity
  8
Calque_1
 62
1
100
AcDbSpline
 70
8
 71
3
 72
8
 73
4
 74
0
 40
0
 40
0
 40
0
 40
0
 40
1
 40
1
 40
1
 40
1
 10
136.356598
 20
134.948769
 30
0.0
 10
139.243498
 20
128.807149
 30
0.0
 10
130.643558
 20
121.042435
 30
0.0
 10
119.439853
 20
119.674985
 30
0.0
  0
SPLINE
  5
121
100
AcDbEntity
  8
Calque_1
 62
1
100
AcDbSpline
 70
8
 71
3
 72
8
 73
4
 74
0
 40
0
 40
0
 40
0
 40
0
 40
1
 40
1
 40
1
 40
1
 10
119.439853
 20
119.674985
 30
0.0
 10
110.868113
 20
118.628775
 30
0.0
 10
105.841413
 20
122.156285
 30
0.0
 10
107.440663
 20
128.095475
 30
0.0
  0
SPLINE
  5
122
100
AcDbEntity
  8
Calque_1
 62
1
100
AcDbSpline
 70
8
 71
3
 72
8
 73
4
 74
0
 40
0
 40
0
 40
0
 40
0
 40
1
 40
1
 40
1
 40
1
 10
107.440663
 20
128.095475
 30
0.0
 10
108.708323
 20
132.803179
 30
0.0
 10
112.875353
 20
132.874099
 30
0.0
 10
117.196743
 20
128.261499
 30
0.0
  0
SPLINE
  5
123
100
AcDbEntity
  8
Calque_1
 62
1
100
AcDbSpline
 70
8
 71
3
 72
8
 73
4
 74
0
 40
0
 40
0
 40
0
 40
0
 40
1
 40
1
 40
1
 40
1
 10
117.196743
 20
128.261499
 30
0.0
 10
118.471333
 20
126.901015
 30
0.0
 10
118.845243
 20
126.701985
 30
0.0
 10
120.126513
 20
126.701985
 30
0.0
  0
SPLINE
  5
124
100
AcDbEntity
  8
Calque_1
 62
1
100
AcDbSpline
 70
8
 71
3
 72
8
 73
4
 74
0
 40
0
 40
0
 40
0
 40
0
 40
1
 40
1
 40
1
 40
1
 10
120.126513
 20
126.701985
 30
0.0
 10
122.771513
 20
126.701985
 30
0.0
 10
126.848198
 20
129.225609
 30
0.0
 10
126.848198
 20
130.862959
 30
0.0
  0
SPLINE
  5
125
100
AcDbEntity
  8
Calque_1
 62
1
100
AcDbSpline
 70
8
 71
3
 72
8
 73
4
 74
0
 40
0
 40
0
 40
0
 40
0
 40
1
 40
1
 40
1
 40
1
 10
126.848198
 20
130.862959
 30
0.0
 10
126.848198
 20
132.090939
 30
0.0
 10
121.668813
 20
133.825489
 30
0.0
 10
116.186023
 20
134.433679
 30
0.0
  0
SPLINE
  5
126
100
AcDbEntity
  8
Calque_1
 62
1
100
AcDbSpline
 70
8
 71
3
 72
8
 73
4
 74
0
 40
0
 40
0
 40
0
 40
0
 40
1
 40
1
 40
1
 40
1
 10
116.186023
 20
134.433679
 30
0.0
 10
109.239463
 20
135.204239
 30
0.0
 10
100.004107
 20
132.642459
 30
0.0
 10
93.289046
 20
128.082315
 30
0.0
  0
SPLINE
  5
127
100
AcDbEntity
  8
Calque_1
 62
1
100
AcDbSpline
 70
8
 71
3
 72
8
 73
4
 74
0
 40
0
 40
0
 40
0
 40
0
 40
1
 40
1
 40
1
 40
1
 10
93.289046
 20
128.082315
 30
0.0
 10
90.180041
 20
125.971025
 30
0.0
 10
85.812628
 20
121.713245
 30
0.0
 10
83.369440
 20
118.411715
 30
0.0
  0
SPLINE
  5
128
100
AcDbEntity
  8
Calque_1
 62
1
100
AcDbSpline
 70
8
 71
3
 72
8
 73
4
 74
0
 40
0
 40
0
 40
0
 40
0
 40
1
 40
1
 40
1
 40
1
 10
83.369440
 20
118.411715
 30
0.0
 10
79.787711
 20
113.571645
 30
0.0
 10
76.473459
 20
106.004055
 30
0.0
 10
75.180948
 20
99.714485
 30
0.0
  0
SPLINE
  5
129
100
AcDbEntity
  8
Calque_1
 62
1
100
AcDbSpline
 70
8
 71
3
 72
8
 73
4
 74
0
 40
0
 40
0
 40
0
 40
0
 40
1
 40
1
 40
1
 40
1
 10
75.180948
 20
99.714485
 30
0.0
 10
72.398613
 20
86.175275
 30
0.0
 10
75.131548
 20
71.453875
 30
0.0
 10
82.371816
 20
60.980475
 30
0.0
  0
SPLINE
  5
12a
100
AcDbEntity
  8
Calque_1
 62
1
100
AcDbSpline
 70
8
 71
3
 72
8
 73
4
 74
0
 40
0
 40
0
 40
0
 40
0
 40
1
 40
1
 40
1
 40
1
 10
82.371816
 20
60.980475
 30
0.0
 10
88.171903
 20
52.590295
 30
0.0
 10
97.943479
 20
46.539415
 30
0.0
 10
109.914853
 20
43.924925
 30
0.0
  0
SPLINE
  5
12b
100
AcDbEntity
  8
Calque_1
 62
1
100
AcDbSpline
 70
8
 71
3
 72
8
 73
4
 74
0
 40
0
 40
0
 40
0
 40
0
 40
1
 40
1
 40
1
 40
1
 10
109.914853
 20
43.924925
 30
0.0
 10
112.233283
 20
43.418595
 30
0.0
 10
114.393883
 20
43.270045
 30
0.0
 10
119.439853
 20
43.270045
 30
0.0
  0
SPLINE
  5
12c
100
AcDbEntity
  8
Calque_1
 62
1
100
AcDbSpline
 70
8
 71
3
 72
8
 73
4
 74
0
 40
0
 40
0
 40
0
 40
0
 40
1
 40
1
 40
1
 40
1
 10
119.439853
 20
43.270045
 30
0.0
 10
125.154598
 20
43.270045
 30
0.0
 10
126.361108
 20
43.373155
 30
0.0
 10
129.141248
 20
44.099145
 30
0.0
  0
SPLINE
  5
12d
100
AcDbEntity
  8
Calque_1
 62
1
100
AcDbSpline
 70
8
 71
3
 72
8
 73
4
 74
0
 40
0
 40
0
 40
0
 40
0
 40
1
 40
1
 40
1
 40
1
 10
129.141248
 20
44.099145
 30
0.0
 10
134.693318
 20
45.044495
 30
0.0
 10
139.877948
 20
50.087025
 30
0.0
 10
144.388918
 20
50.396365
 30
0.0
  0
SPLINE
  5
12e
100
AcDbEntity
  8
Calque_1
 62
1
100
AcDbSpline
 70
8
 71
3
 72
8
 73
4
 74
0
 40
0
 40
0
 40
0
 40
0
 40
1
 40
1
 40
1
 40
1
 10
144.388918
 20
50.396365
 30
0.0
 10
147.199578
 20
50.577815
 30
0.0
 10
148.747988
 20
49.924325
 30
0.0
 10
150.074778
 20
47.996705
 30
0.0
  0
SPLINE
  5
12f
100
AcDbEntity
  8
Calque_1
 62
1
100
AcDbSpline
 70
8
 71
3
 72
8
 73
4
 74
0
 40
0
 40
0
 40
0
 40
0
 40
1
 40
1
 40
1
 40
1
 10
150.074778
 20
47.996705
 30
0.0
 10
151.689008
 20
45.651465
 30
0.0
 10
150.672358
 20
42.335195
 30
0.0
 10
147.201818
 20
38.625175
 30
0.0
  0
SPLINE
  5
130
100
AcDbEntity
  8
Calque_1
 62
1
100
AcDbSpline
 70
8
 71
3
 72
8
 73
4
 74
0
 40
0
 40
0
 40
0
 40
0
 40
1
 40
1
 40
1
 40
1
 10
147.201818
 20
38.625175
 30
0.0
 10
141.657158
 20
32.697915
 30
0.0
 10
133.229138
 20
30.049595
 30
0.0
 10
113.619023
 20
28.072535
 30
0.0
  0
SPLINE
  5
131
100
AcDbEntity
  8
Calque_1
 62
1
100
AcDbSpline
 70
8
 71
3
 72
8
 73
4
 74
0
 40
0
 40
0
 40
0
 40
0
 40
1
 40
1
 40
1
 40
1
 10
113.619023
 20
28.072535
 30
0.0
 10
110.514583
 20
27.759545
 30
0.0
 10
107.776143
 20
27.340575
 30
0.0
 10
107.533603
 20
27.141475
 30
0.0
  0
SPLINE
  5
132
100
AcDbEntity
  8
Calque_1
 62
1
100
AcDbSpline
 70
8
 71
3
 72
8
 73
4
 74
0
 40
0
 40
0
 40
0
 40
0
 40
1
 40
1
 40
1
 40
1
 10
107.533603
 20
27.141475
 30
0.0
 10
107.258663
 20
26.915785
 30
0.0
 10
107.092633
 20
25.865995
 30
0.0
 10
107.092633
 20
24.353245
 30
0.0
  0
LINE
  5
133
100
AcDbEntity
  8
Calque_1
 62
1
100
AcDbLine
 10
107.092633
 20
24.353245
 30
0.0
 11
107.092633
 21
21.926995
 31
0.0
  0
LINE
  5
134
100
AcDbEntity
  8
Calque_1
 62
1
100
AcDbLine
 10
107.092633
 20
21.926995
 30
0.0
 11
104.640030
 21
21.926995
 31
0.0
  0
LINE
  5
135
100
AcDbEntity
  8
Calque_1
 62
1
100
AcDbLine
 10
104.640030
 20
21.926995
 30
0.0
 11
102.187435
 21
21.926995
 31
0.0
  0
LINE
  5
136
100
AcDbEntity
  8
Calque_1
 62
1
100
AcDbLine
 10
102.187435
 20
21.926995
 30
0.0
 11
102.082405
 21
19.722135
 31
0.0
  0
LINE
  5
137
100
AcDbEntity
  8
Calque_1
 62
1
100
AcDbLine
 10
102.082405
 20
19.722135
 30
0.0
 11
101.977375
 21
19.104765
 31
0.0
  0
LINE
  5
138
100
AcDbEntity
  8
Calque_1
 62
1
100
AcDbLine
 10
101.977375
 20
19.104765
 30
0.0
 11
83.192073
 21
19.013465
 31
0.0
  0
LINE
  5
139
100
AcDbEntity
  8
Calque_1
 62
1
100
AcDbLine
 10
83.192073
 20
19.013465
 30
0.0
 11
64.406758
 21
18.922165
 31
0.0
  0
LINE
  5
13a
100
AcDbEntity
  8
Calque_1
 62
1
100
AcDbLine
 10
64.406758
 20
18.922165
 30
0.0
 11
64.406758
 21
19.630845
 31
0.0
  0
SPLINE
  5
13b
100
AcDbEntity
  8
Calque_1
 62
1
100
AcDbSpline
 70
8
 71
3
 72
8
 73
4
 74
0
 40
0
 40
0
 40
0
 40
0
 40
1
 40
1
 40
1
 40
1
 10
66.511416
 20
37.890185
 30
0.0
 10
66.473016
 20
39.302275
 30
0.0
 10
65.526962
 20
46.324375
 30
0.0
 10
65.351502
 20
46.499835
 30
0.0
  0
SPLINE
  5
13c
100
AcDbEntity
  8
Calque_1
 62
1
100
AcDbSpline
 70
8
 71
3
 72
8
 73
4
 74
0
 40
0
 40
0
 40
0
 40
0
 40
1
 40
1
 40
1
 40
1
 10
65.351502
 20
46.499835
 30
0.0
 10
65.236025
 20
46.615315
 30
0.0
 10
63.282114
 20
47.087575
 30
0.0
 10
61.009469
 20
47.549305
 30
0.0
  0
SPLINE
  5
13d
100
AcDbEntity
  8
Calque_1
 62
1
100
AcDbSpline
 70
8
 71
3
 72
8
 73
4
 74
0
 40
0
 40
0
 40
0
 40
0
 40
1
 40
1
 40
1
 40
1
 10
61.009469
 20
47.549305
 30
0.0
 10
58.736831
 20
48.011035
 30
0.0
 10
56.807013
 20
48.459185
 30
0.0
 10
56.720993
 20
48.545205
 30
0.0
  0
SPLINE
  5
13e
100
AcDbEntity
  8
Calque_1
 62
1
100
AcDbSpline
 70
8
 71
3
 72
8
 73
4
 74
0
 40
0
 40
0
 40
0
 40
0
 40
1
 40
1
 40
1
 40
1
 10
56.720993
 20
48.545205
 30
0.0
 10
56.634993
 20
48.631205
 30
0.0
 10
58.424401
 20
49.622625
 30
0.0
 10
60.697499
 20
50.748325
 30
0.0
  0
LINE
  5
13f
100
AcDbEntity
  8
Calque_1
 62
1
100
AcDbLine
 10
60.697499
 20
50.748325
 30
0.0
 11
64.830395
 21
52.795045
 31
0.0
  0
LINE
  5
140
100
AcDbEntity
  8
Calque_1
 62
1
100
AcDbLine
 10
64.830395
 20
52.795045
 30
0.0
 11
64.623518
 21
54.911715
 31
0.0
  0
SPLINE
  5
141
100
AcDbEntity
  8
Calque_1
 62
1
100
AcDbSpline
 70
8
 71
3
 72
8
 73
4
 74
0
 40
0
 40
0
 40
0
 40
0
 40
1
 40
1
 40
1
 40
1
 10
64.623518
 20
54.911715
 30
0.0
 10
64.038231
 20
60.900015
 30
0.0
 10
63.977061
 20
62.143395
 30
0.0
 10
64.267908
 20
62.140235
 30
0.0
  0
SPLINE
  5
142
100
AcDbEntity
  8
Calque_1
 62
1
100
AcDbSpline
 70
8
 71
3
 72
8
 73
4
 74
0
 40
0
 40
0
 40
0
 40
0
 40
1
 40
1
 40
1
 40
1
 10
64.267908
 20
62.140235
 30
0.0
 10
64.441288
 20
62.138235
 30
0.0
 10
65.822652
 20
60.709605
 30
0.0
 10
67.337603
 20
58.965235
 30
0.0
  0
SPLINE
  5
143
100
AcDbEntity
  8
Calque_1
 62
1
100
AcDbSpline
 70
8
 71
3
 72
8
 73
4
 74
0
 40
0
 40
0
 40
0
 40
0
 40
1
 40
1
 40
1
 40
1
 10
67.337603
 20
58.965235
 30
0.0
 10
68.852544
 20
57.220865
 30
0.0
 10
70.244245
 20
55.793655
 30
0.0
 10
70.430265
 20
55.793655
 30
0.0
  0
SPLINE
  5
144
100
AcDbEntity
  8
Calque_1
 62
1
100
AcDbSpline
 70
8
 71
3
 72
8
 73
4
 74
0
 40
0
 40
0
 40
0
 40
0
 40
1
 40
1
 40
1
 40
1
 10
70.430265
 20
55.793655
 30
0.0
 10
70.616282
 20
55.793655
 30
0.0
 10
72.528813
 20
56.676505
 30
0.0
 10
74.680331
 20
57.755535
 30
0.0
  0
SPLINE
  5
145
100
AcDbEntity
  8
Calque_1
 62
1
100
AcDbSpline
 70
8
 71
3
 72
8
 73
4
 74
0
 40
0
 40
0
 40
0
 40
0
 40
1
 40
1
 40
1
 40
1
 10
74.680331
 20
57.755535
 30
0.0
 10
79.840221
 20
60.785235
 30
0.0
 10
78.434310
 20
58.566715
 30
0.0
 10
76.636269
 20
55.223745
 30
0.0
  0
LINE
  5
146
100
AcDbEntity
  8
Calque_1
 62
1
100
AcDbLine
 10
76.636269
 20
55.223745
 30
0.0
 11
74.375901
 21
51.034535
 31
0.0
  0
LINE
  5
147
100
AcDbEntity
  8
Calque_1
 62
1
100
AcDbLine
 10
74.375901
 20
51.034535
 30
0.0
 11
76.696119
 21
48.387015
 31
0.0
  0
SPLINE
  5
148
100
AcDbEntity
  8
Calque_1
 62
1
100
AcDbSpline
 70
8
 71
3
 72
8
 73
4
 74
0
 40
0
 40
0
 40
0
 40
0
 40
1
 40
1
 40
1
 40
1
 10
76.696119
 20
48.387015
 30
0.0
 10
77.972233
 20
46.930875
 30
0.0
 10
79.328114
 20
45.382925
 30
0.0
 10
79.709191
 20
44.947135
 30
0.0
  0
SPLINE
  5
149
100
AcDbEntity
  8
Calque_1
 62
1
100
AcDbSpline
 70
8
 71
3
 72
8
 73
4
 74
0
 40
0
 40
0
 40
0
 40
0
 40
1
 40
1
 40
1
 40
1
 10
79.709191
 20
44.947135
 30
0.0
 10
80.090261
 20
44.511335
 30
0.0
 10
80.331068
 20
44.083795
 30
0.0
 10
80.244318
 20
43.997055
 30
0.0
  0
SPLINE
  5
14a
100
AcDbEntity
  8
Calque_1
 62
1
100
AcDbSpline
 70
8
 71
3
 72
8
 73
4
 74
0
 40
0
 40
0
 40
0
 40
0
 40
1
 40
1
 40
1
 40
1
 10
80.244318
 20
43.997055
 30
0.0
 10
80.157618
 20
43.910355
 30
0.0
 10
78.185820
 20
44.214725
 30
0.0
 10
75.862635
 20
44.673535
 30
0.0
  0
SPLINE
  5
14b
100
AcDbEntity
  8
Calque_1
 62
1
100
AcDbSpline
 70
8
 71
3
 72
8
 73
4
 74
0
 40
0
 40
0
 40
0
 40
0
 40
1
 40
1
 40
1
 40
1
 10
75.862635
 20
44.673535
 30
0.0
 10
70.941812
 20
45.645345
 30
0.0
 10
71.647549
 20
46.026495
 30
0.0
 10
68.982864
 20
40.958005
 30
0.0
  0
SPLINE
  5
14c
100
AcDbEntity
  8
Calque_1
 62
1
100
AcDbSpline
 70
8
 71
3
 72
8
 73
4
 74
0
 40
0
 40
0
 40
0
 40
0
 40
1
 40
1
 40
1
 40
1
 10
68.982864
 20
40.958005
 30
0.0
 10
67.273383
 20
37.706425
 30
0.0
 10
66.541146
 20
36.797485
 30
0.0
 10
66.511416
 20
37.890185
 30
0.0
  0
LINE
  5
14d
100
AcDbEntity
  8
Calque_1
 62
1
100
AcDbLine
 10
66.511416
 20
37.890185
 30
0.0
 11
66.511416
 21
37.890185
 31
0.0
  0
SPLINE
  5
14e
100
AcDbEntity
  8
Calque_1
 62
1
100
AcDbSpline
 70
8
 71
3
 72
8
 73
4
 74
0
 40
0
 40
0
 40
0
 40
0
 40
1
 40
1
 40
1
 40
1
 10
36.695957
 20
45.474905
 30
0.0
 10
35.964810
 20
47.560705
 30
0.0
 10
35.238263
 20
49.412985
 30
0.0
 10
35.081416
 20
49.591075
 30
0.0
  0
SPLINE
  5
14f
100
AcDbEntity
  8
Calque_1
 62
1
100
AcDbSpline
 70
8
 71
3
 72
8
 73
4
 74
0
 40
0
 40
0
 40
0
 40
0
 40
1
 40
1
 40
1
 40
1
 10
35.081416
 20
49.591075
 30
0.0
 10
34.778756
 20
49.934755
 30
0.0
 10
31.458804
 20
49.927135
 30
0.0
 10
27.806275
 20
49.574375
 30
0.0
  0
SPLINE
  5
150
100
AcDbEntity
  8
Calque_1
 62
1
100
AcDbSpline
 70
8
 71
3
 72
8
 73
4
 74
0
 40
0
 40
0
 40
0
 40
0
 40
1
 40
1
 40
1
 40
1
 10
27.806275
 20
49.574375
 30
0.0
 10
26.436744
 20
49.442115
 30
0.0
 10
25.601420
 20
49.494375
 30
0.0
 10
25.601420
 20
49.712335
 30
0.0
  0
SPLINE
  5
151
100
AcDbEntity
  8
Calque_1
 62
1
100
AcDbSpline
 70
8
 71
3
 72
8
 73
4
 74
0
 40
0
 40
0
 40
0
 40
0
 40
1
 40
1
 40
1
 40
1
 10
25.601420
 20
49.712335
 30
0.0
 10
25.601420
 20
49.905325
 30
0.0
 10
27.149231
 20
51.215715
 30
0.0
 10
29.040989
 20
52.624315
 30
0.0
  0
SPLINE
  5
152
100
AcDbEntity
  8
Calque_1
 62
1
100
AcDbSpline
 70
8
 71
3
 72
8
 73
4
 74
0
 40
0
 40
0
 40
0
 40
0
 40
1
 40
1
 40
1
 40
1
 10
29.040989
 20
52.624315
 30
0.0
 10
30.932747
 20
54.032905
 30
0.0
 10
32.600948
 20
55.291835
 30
0.0
 10
32.748098
 20
55.421925
 30
0.0
  0
SPLINE
  5
153
100
AcDbEntity
  8
Calque_1
 62
1
100
AcDbSpline
 70
8
 71
3
 72
8
 73
4
 74
0
 40
0
 40
0
 40
0
 40
0
 40
1
 40
1
 40
1
 40
1
 10
32.748098
 20
55.421925
 30
0.0
 10
32.895258
 20
55.552025
 30
0.0
 10
32.379321
 20
57.442315
 30
0.0
 10
31.601584
 20
59.622585
 30
0.0
  0
SPLINE
  5
154
100
AcDbEntity
  8
Calque_1
 62
1
100
AcDbSpline
 70
8
 71
3
 72
8
 73
4
 74
0
 40
0
 40
0
 40
0
 40
0
 40
1
 40
1
 40
1
 40
1
 10
31.601584
 20
59.622585
 30
0.0
 10
30.823840
 20
61.802855
 30
0.0
 10
30.187513
 20
63.743855
 30
0.0
 10
30.187513
 20
63.935915
 30
0.0
  0
SPLINE
  5
155
100
AcDbEntity
  8
Calque_1
 62
1
100
AcDbSpline
 70
8
 71
3
 72
8
 73
4
 74
0
 40
0
 40
0
 40
0
 40
0
 40
1
 40
1
 40
1
 40
1
 10
30.187513
 20
63.935915
 30
0.0
 10
30.187513
 20
64.388555
 30
0.0
 10
31.040717
 20
63.924715
 30
0.0
 10
34.878926
 20
61.385355
 30
0.0
  0
LINE
  5
156
100
AcDbEntity
  8
Calque_1
 62
1
100
AcDbLine
 10
34.878926
 20
61.385355
 30
0.0
 11
37.982858
 21
59.331815
 31
0.0
  0
LINE
  5
157
100
AcDbEntity
  8
Calque_1
 62
1
100
AcDbLine
 10
37.982858
 20
59.331815
 30
0.0
 11
41.751317
 21
62.169055
 31
0.0
  0
SPLINE
  5
158
100
AcDbEntity
  8
Calque_1
 62
1
100
AcDbSpline
 70
8
 71
3
 72
8
 73
4
 74
0
 40
0
 40
0
 40
0
 40
0
 40
1
 40
1
 40
1
 40
1
 10
41.751317
 20
62.169055
 30
0.0
 10
43.823975
 20
63.729535
 30
0.0
 10
45.571716
 20
64.850475
 30
0.0
 10
45.635196
 20
64.660035
 30
0.0
  0
SPLINE
  5
159
100
AcDbEntity
  8
Calque_1
 62
1
100
AcDbSpline
 70
8
 71
3
 72
8
 73
4
 74
0
 40
0
 40
0
 40
0
 40
0
 40
1
 40
1
 40
1
 40
1
 10
45.635196
 20
64.660035
 30
0.0
 10
45.698696
 20
64.469595
 30
0.0
 10
45.171499
 20
62.458645
 30
0.0
 10
44.463692
 20
60.191265
 30
0.0
  0
SPLINE
  5
15a
100
AcDbEntity
  8
Calque_1
 62
1
100
AcDbSpline
 70
8
 71
3
 72
8
 73
4
 74
0
 40
0
 40
0
 40
0
 40
0
 40
1
 40
1
 40
1
 40
1
 10
44.463692
 20
60.191265
 30
0.0
 10
43.755875
 20
57.923885
 30
0.0
 10
43.310098
 20
55.958245
 30
0.0
 10
43.473068
 20
55.823175
 30
0.0
  0
SPLINE
  5
15b
100
AcDbEntity
  8
Calque_1
 62
1
100
AcDbSpline
 70
8
 71
3
 72
8
 73
4
 74
0
 40
0
 40
0
 40
0
 40
0
 40
1
 40
1
 40
1
 40
1
 10
43.473068
 20
55.823175
 30
0.0
 10
43.636035
 20
55.688115
 30
0.0
 10
45.317176
 20
54.573365
 30
0.0
 10
47.208937
 20
53.345955
 30
0.0
  0
SPLINE
  5
15c
100
AcDbEntity
  8
Calque_1
 62
1
100
AcDbSpline
 70
8
 71
3
 72
8
 73
4
 74
0
 40
0
 40
0
 40
0
 40
0
 40
1
 40
1
 40
1
 40
1
 10
47.208937
 20
53.345955
 30
0.0
 10
49.100695
 20
52.118545
 30
0.0
 10
50.648506
 20
50.976525
 30
0.0
 10
50.648506
 20
50.808135
 30
0.0
  0
SPLINE
  5
15d
100
AcDbEntity
  8
Calque_1
 62
1
100
AcDbSpline
 70
8
 71
3
 72
8
 73
4
 74
0
 40
0
 40
0
 40
0
 40
0
 40
1
 40
1
 40
1
 40
1
 10
50.648506
 20
50.808135
 30
0.0
 10
50.648506
 20
50.639745
 30
0.0
 10
49.338825
 20
50.500595
 30
0.0
 10
47.738104
 20
50.498905
 30
0.0
  0
SPLINE
  5
15e
100
AcDbEntity
  8
Calque_1
 62
1
100
AcDbSpline
 70
8
 71
3
 72
8
 73
4
 74
0
 40
0
 40
0
 40
0
 40
0
 40
1
 40
1
 40
1
 40
1
 10
47.738104
 20
50.498905
 30
0.0
 10
46.137383
 20
50.496905
 30
0.0
 10
44.014095
 20
50.398075
 30
0.0
 10
43.019681
 20
50.278595
 30
0.0
  0
LINE
  5
15f
100
AcDbEntity
  8
Calque_1
 62
1
100
AcDbLine
 10
43.019681
 20
50.278595
 30
0.0
 11
41.211660
 21
50.061355
 31
0.0
  0
LINE
  5
160
100
AcDbEntity
  8
Calque_1
 62
1
100
AcDbLine
 10
41.211660
 20
50.061355
 30
0.0
 11
39.904066
 21
45.871935
 31
0.0
  0
SPLINE
  5
161
100
AcDbEntity
  8
Calque_1
 62
1
100
AcDbSpline
 70
8
 71
3
 72
8
 73
4
 74
0
 40
0
 40
0
 40
0
 40
0
 40
1
 40
1
 40
1
 40
1
 10
39.904066
 20
45.871935
 30
0.0
 10
39.184882
 20
43.567765
 30
0.0
 10
38.467965
 20
41.682525
 30
0.0
 10
38.310898
 20
41.682525
 30
0.0
  0
SPLINE
  5
162
100
AcDbEntity
  8
Calque_1
 62
1
100
AcDbSpline
 70
8
 71
3
 72
8
 73
4
 74
0
 40
0
 40
0
 40
0
 40
0
 40
1
 40
1
 40
1
 40
1
 10
38.310898
 20
41.682525
 30
0.0
 10
38.153838
 20
41.682525
 30
0.0
 10
37.427111
 20
43.389085
 30
0.0
 10
36.695957
 20
45.474885
 30
0.0
  0
LINE
  5
163
100
AcDbEntity
  8
Calque_1
 62
1
100
AcDbLine
 10
36.695957
 20
45.474885
 30
0.0
 11
36.695957
 21
45.474905
 31
0.0
  0
SPLINE
  5
164
100
AcDbEntity
  8
Calque_1
 62
1
100
AcDbSpline
 70
8
 71
3
 72
8
 73
4
 74
0
 40
0
 40
0
 40
0
 40
0
 40
1
 40
1
 40
1
 40
1
 10
57.400697
 20
66.475375
 30
0.0
 10
55.589479
 20
69.332135
 30
0.0
 10
54.003958
 20
71.728505
 30
0.0
 10
53.877328
 20
71.800655
 30
0.0
  0
SPLINE
  5
165
100
AcDbEntity
  8
Calque_1
 62
1
100
AcDbSpline
 70
8
 71
3
 72
8
 73
4
 74
0
 40
0
 40
0
 40
0
 40
0
 40
1
 40
1
 40
1
 40
1
 10
53.877328
 20
71.800655
 30
0.0
 10
53.750698
 20
71.872755
 30
0.0
 10
51.116023
 20
71.241935
 30
0.0
 10
48.022501
 20
70.398725
 30
0.0
  0
SPLINE
  5
166
100
AcDbEntity
  8
Calque_1
 62
1
100
AcDbSpline
 70
8
 71
3
 72
8
 73
4
 74
0
 40
0
 40
0
 40
0
 40
0
 40
1
 40
1
 40
1
 40
1
 10
48.022501
 20
70.398725
 30
0.0
 10
44.928969
 20
69.555505
 30
0.0
 10
42.324544
 20
68.938965
 30
0.0
 10
42.234884
 20
69.028625
 30
0.0
  0
SPLINE
  5
167
100
AcDbEntity
  8
Calque_1
 62
1
100
AcDbSpline
 70
8
 71
3
 72
8
 73
4
 74
0
 40
0
 40
0
 40
0
 40
0
 40
1
 40
1
 40
1
 40
1
 10
42.234884
 20
69.028625
 30
0.0
 10
42.145184
 20
69.118325
 30
0.0
 10
42.786701
 20
70.106165
 30
0.0
 10
43.660385
 20
71.223905
 30
0.0
  0
SPLINE
  5
168
100
AcDbEntity
  8
Calque_1
 62
1
100
AcDbSpline
 70
8
 71
3
 72
8
 73
4
 74
0
 40
0
 40
0
 40
0
 40
0
 40
1
 40
1
 40
1
 40
1
 10
43.660385
 20
71.223905
 30
0.0
 10
44.534072
 20
72.341645
 30
0.0
 10
46.212173
 20
74.511495
 30
0.0
 10
47.389484
 20
76.045785
 30
0.0
  0
LINE
  5
169
100
AcDbEntity
  8
Calque_1
 62
1
100
AcDbLine
 10
47.389484
 20
76.045785
 30
0.0
 11
49.530062
 21
78.835425
 31
0.0
  0
LINE
  5
16a
100
AcDbEntity
  8
Calque_1
 62
1
100
AcDbLine
 10
49.530062
 20
78.835425
 30
0.0
 11
48.709498
 21
80.102735
 31
0.0
  0
SPLINE
  5
16b
100
AcDbEntity
  8
Calque_1
 62
1
100
AcDbSpline
 70
8
 71
3
 72
8
 73
4
 74
0
 40
0
 40
0
 40
0
 40
0
 40
1
 40
1
 40
1
 40
1
 10
48.709498
 20
80.102735
 30
0.0
 10
45.574836
 20
84.944005
 30
0.0
 10
42.875691
 20
89.413385
 30
0.0
 10
43.007191
 20
89.544895
 30
0.0
  0
SPLINE
  5
16c
100
AcDbEntity
  8
Calque_1
 62
1
100
AcDbSpline
 70
8
 71
3
 72
8
 73
4
 74
0
 40
0
 40
0
 40
0
 40
0
 40
1
 40
1
 40
1
 40
1
 10
43.007191
 20
89.544895
 30
0.0
 10
43.092891
 20
89.630595
 30
0.0
 10
45.675696
 20
88.680815
 30
0.0
 10
48.746778
 20
87.434285
 30
0.0
  0
LINE
  5
16d
100
AcDbEntity
  8
Calque_1
 62
1
100
AcDbLine
 10
48.746778
 20
87.434285
 30
0.0
 11
54.330555
 21
85.167875
 31
0.0
  0
LINE
  5
16e
100
AcDbEntity
  8
Calque_1
 62
1
100
AcDbLine
 10
54.330555
 20
85.167875
 30
0.0
 11
56.937240
 21
88.560625
 31
0.0
  0
SPLINE
  5
16f
100
AcDbEntity
  8
Calque_1
 62
1
100
AcDbSpline
 70
8
 71
3
 72
8
 73
4
 74
0
 40
0
 40
0
 40
0
 40
0
 40
1
 40
1
 40
1
 40
1
 10
56.937240
 20
88.560625
 30
0.0
 10
58.370924
 20
90.426645
 30
0.0
 10
59.963385
 20
92.545305
 30
0.0
 10
60.476052
 20
93.268765
 30
0.0
  0
SPLINE
  5
170
100
AcDbEntity
  8
Calque_1
 62
1
100
AcDbSpline
 70
8
 71
3
 72
8
 73
4
 74
0
 40
0
 40
0
 40
0
 40
0
 40
1
 40
1
 40
1
 40
1
 10
60.476052
 20
93.268765
 30
0.0
 10
60.988719
 20
93.992225
 30
0.0
 10
61.541346
 20
94.587535
 30
0.0
 10
61.704133
 20
94.591675
 30
0.0
  0
SPLINE
  5
171
100
AcDbEntity
  8
Calque_1
 62
1
100
AcDbSpline
 70
8
 71
3
 72
8
 73
4
 74
0
 40
0
 40
0
 40
0
 40
0
 40
1
 40
1
 40
1
 40
1
 10
61.704133
 20
94.591675
 30
0.0
 10
61.866903
 20
94.595675
 30
0.0
 10
61.952793
 20
91.800215
 30
0.0
 10
61.894993
 20
88.379225
 30
0.0
  0
LINE
  5
172
100
AcDbEntity
  8
Calque_1
 62
1
100
AcDbLine
 10
61.894993
 20
88.379225
 30
0.0
 11
61.789893
 21
82.159235
 31
0.0
  0
LINE
  5
173
100
AcDbEntity
  8
Calque_1
 62
1
100
AcDbLine
 10
61.789893
 20
82.159235
 30
0.0
 11
67.182523
 21
79.944075
 31
0.0
  0
SPLINE
  5
174
100
AcDbEntity
  8
Calque_1
 62
1
100
AcDbSpline
 70
8
 71
3
 72
8
 73
4
 74
0
 40
0
 40
0
 40
0
 40
0
 40
1
 40
1
 40
1
 40
1
 10
67.182523
 20
79.944075
 30
0.0
 10
72.411753
 20
77.796035
 30
0.0
 10
73.153960
 20
77.436535
 30
0.0
 10
72.843980
 20
77.201785
 30
0.0
  0
SPLINE
  5
175
100
AcDbEntity
  8
Calque_1
 62
1
100
AcDbSpline
 70
8
 71
3
 72
8
 73
4
 74
0
 40
0
 40
0
 40
0
 40
0
 40
1
 40
1
 40
1
 40
1
 10
72.843980
 20
77.201785
 30
0.0
 10
72.763180
 20
77.140585
 30
0.0
 10
70.117315
 20
76.399055
 30
0.0
 10
66.964383
 20
75.553995
 30
0.0
  0
LINE
  5
176
100
AcDbEntity
  8
Calque_1
 62
1
100
AcDbLine
 10
66.964383
 20
75.553995
 30
0.0
 11
61.231776
 21
74.017515
 31
0.0
  0
LINE
  5
177
100
AcDbEntity
  8
Calque_1
 62
1
100
AcDbLine
 10
61.231776
 20
74.017515
 30
0.0
 11
61.211476
 21
69.050725
 31
0.0
  0
SPLINE
  5
178
100
AcDbEntity
  8
Calque_1
 62
1
100
AcDbSpline
 70
8
 71
3
 72
8
 73
4
 74
0
 40
0
 40
0
 40
0
 40
0
 40
1
 40
1
 40
1
 40
1
 10
61.211476
 20
69.050725
 30
0.0
 10
61.200276
 20
66.318985
 30
0.0
 10
61.079256
 20
63.453345
 30
0.0
 10
60.942509
 20
62.682605
 30
0.0
  0
LINE
  5
179
100
AcDbEntity
  8
Calque_1
 62
1
100
AcDbLine
 10
60.942509
 20
62.682605
 30
0.0
 11
60.693859
 21
61.281285
 31
0.0
  0
LINE
  5
17a
100
AcDbEntity
  8
Calque_1
 62
1
100
AcDbLine
 10
60.693859
 20
61.281285
 30
0.0
 11
57.400727
 21
66.475375
 31
0.0
  0
LINE
  5
17b
100
AcDbEntity
  8
Calque_1
 62
1
100
AcDbLine
 10
57.400727
 20
66.475375
 30
0.0
 11
57.400697
 21
66.475375
 31
0.0
  0
SPLINE
  5
17c
100
AcDbEntity
  8
Calque_1
 62
1
100
AcDbSpline
 70
8
 71
3
 72
8
 73
4
 74
0
 40
0
 40
0
 40
0
 40
0
 40
1
 40
1
 40
1
 40
1
 10
53.300241
 20
97.156855
 30
0.0
 10
53.388341
 20
97.399385
 30
0.0
 10
53.943028
 20
99.185325
 30
0.0
 10
54.532905
 20
101.125605
 30
0.0
  0
SPLINE
  5
17d
100
AcDbEntity
  8
Calque_1
 62
1
100
AcDbSpline
 70
8
 71
3
 72
8
 73
4
 74
0
 40
0
 40
0
 40
0
 40
0
 40
1
 40
1
 40
1
 40
1
 10
54.532905
 20
101.125605
 30
0.0
 10
55.122782
 20
103.065875
 30
0.0
 10
55.689189
 20
104.924165
 30
0.0
 10
55.791586
 20
105.255125
 30
0.0
  0
SPLINE
  5
17e
100
AcDbEntity
  8
Calque_1
 62
1
100
AcDbSpline
 70
8
 71
3
 72
8
 73
4
 74
0
 40
0
 40
0
 40
0
 40
0
 40
1
 40
1
 40
1
 40
1
 10
55.791586
 20
105.255125
 30
0.0
 10
55.933546
 20
105.713915
 30
0.0
 10
55.051402
 20
106.455535
 30
0.0
 10
52.078427
 20
108.376775
 30
0.0
  0
SPLINE
  5
17f
100
AcDbEntity
  8
Calque_1
 62
1
100
AcDbSpline
 70
8
 71
3
 72
8
 73
4
 74
0
 40
0
 40
0
 40
0
 40
0
 40
1
 40
1
 40
1
 40
1
 10
52.078427
 20
108.376775
 30
0.0
 10
49.933782
 20
109.762725
 30
0.0
 10
48.179071
 20
111.019395
 30
0.0
 10
48.179071
 20
111.169395
 30
0.0
  0
SPLINE
  5
180
100
AcDbEntity
  8
Calque_1
 62
1
100
AcDbSpline
 70
8
 71
3
 72
8
 73
4
 74
0
 40
0
 40
0
 40
0
 40
0
 40
1
 40
1
 40
1
 40
1
 10
48.179071
 20
111.169395
 30
0.0
 10
48.179071
 20
111.319385
 30
0.0
 10
50.362829
 20
111.554615
 30
0.0
 10
53.031874
 20
111.692135
 30
0.0
  0
LINE
  5
181
100
AcDbEntity
  8
Calque_1
 62
1
100
AcDbLine
 10
53.031874
 20
111.692135
 30
0.0
 11
57.884677
 21
111.942165
 31
0.0
  0
LINE
  5
182
100
AcDbEntity
  8
Calque_1
 62
1
100
AcDbLine
 10
57.884677
 20
111.942165
 30
0.0
 11
59.273098
 21
116.499855
 31
0.0
  0
SPLINE
  5
183
100
AcDbEntity
  8
Calque_1
 62
1
100
AcDbSpline
 70
8
 71
3
 72
8
 73
4
 74
0
 40
0
 40
0
 40
0
 40
0
 40
1
 40
1
 40
1
 40
1
 10
59.273098
 20
116.499855
 30
0.0
 10
60.036722
 20
119.006585
 30
0.0
 10
60.754049
 20
121.057545
 30
0.0
 10
60.867159
 20
121.057545
 30
0.0
  0
SPLINE
  5
184
100
AcDbEntity
  8
Calque_1
 62
1
100
AcDbSpline
 70
8
 71
3
 72
8
 73
4
 74
0
 40
0
 40
0
 40
0
 40
0
 40
1
 40
1
 40
1
 40
1
 10
60.867159
 20
121.057545
 30
0.0
 10
60.980259
 20
121.057545
 30
0.0
 10
61.785703
 20
119.112855
 30
0.0
 10
62.657027
 20
116.736015
 30
0.0
  0
LINE
  5
185
100
AcDbEntity
  8
Calque_1
 62
1
100
AcDbLine
 10
62.657027
 20
116.736015
 30
0.0
 11
64.241271
 21
112.414485
 31
0.0
  0
LINE
  5
186
100
AcDbEntity
  8
Calque_1
 62
1
100
AcDbLine
 10
64.241271
 20
112.414485
 30
0.0
 11
69.086491
 21
112.545805
 31
0.0
  0
SPLINE
  5
187
100
AcDbEntity
  8
Calque_1
 62
1
100
AcDbSpline
 70
8
 71
3
 72
8
 73
4
 74
0
 40
0
 40
0
 40
0
 40
0
 40
1
 40
1
 40
1
 40
1
 10
69.086491
 20
112.545805
 30
0.0
 10
71.751356
 20
112.618005
 30
0.0
 10
73.925664
 20
112.538805
 30
0.0
 10
73.918284
 20
112.369415
 30
0.0
  0
SPLINE
  5
188
100
AcDbEntity
  8
Calque_1
 62
1
100
AcDbSpline
 70
8
 71
3
 72
8
 73
4
 74
0
 40
0
 40
0
 40
0
 40
0
 40
1
 40
1
 40
1
 40
1
 10
73.918284
 20
112.369415
 30
0.0
 10
73.911284
 20
112.200175
 30
0.0
 10
72.244043
 20
110.808605
 30
0.0
 10
70.214145
 20
109.277035
 30
0.0
  0
SPLINE
  5
189
100
AcDbEntity
  8
Calque_1
 62
1
100
AcDbSpline
 70
8
 71
3
 72
8
 73
4
 74
0
 40
0
 40
0
 40
0
 40
0
 40
1
 40
1
 40
1
 40
1
 10
70.214145
 20
109.277035
 30
0.0
 10
68.184247
 20
107.745475
 30
0.0
 10
66.523796
 20
106.396095
 30
0.0
 10
66.524266
 20
106.278425
 30
0.0
  0
SPLINE
  5
18a
100
AcDbEntity
  8
Calque_1
 62
1
100
AcDbSpline
 70
8
 71
3
 72
8
 73
4
 74
0
 40
0
 40
0
 40
0
 40
0
 40
1
 40
1
 40
1
 40
1
 10
66.524266
 20
106.278425
 30
0.0
 10
66.524616
 20
106.160765
 30
0.0
 10
67.232513
 20
104.166125
 30
0.0
 10
68.097107
 20
101.845905
 30
0.0
  0
SPLINE
  5
18b
100
AcDbEntity
  8
Calque_1
 62
1
100
AcDbSpline
 70
8
 71
3
 72
8
 73
4
 74
0
 40
0
 40
0
 40
0
 40
0
 40
1
 40
1
 40
1
 40
1
 10
68.097107
 20
101.845905
 30
0.0
 10
68.961704
 20
99.525685
 30
0.0
 10
69.599618
 20
97.557835
 30
0.0
 10
69.514691
 20
97.472915
 30
0.0
  0
SPLINE
  5
18c
100
AcDbEntity
  8
Calque_1
 62
1
100
AcDbSpline
 70
8
 71
3
 72
8
 73
4
 74
0
 40
0
 40
0
 40
0
 40
0
 40
1
 40
1
 40
1
 40
1
 10
69.514691
 20
97.472915
 30
0.0
 10
69.429791
 20
97.388015
 30
0.0
 10
67.587230
 20
98.460875
 30
0.0
 10
65.420172
 20
99.857105
 30
0.0
  0
SPLINE
  5
18d
100
AcDbEntity
  8
Calque_1
 62
1
100
AcDbSpline
 70
8
 71
3
 72
8
 73
4
 74
0
 40
0
 40
0
 40
0
 40
0
 40
1
 40
1
 40
1
 40
1
 10
65.420172
 20
99.857105
 30
0.0
 10
63.253114
 20
101.253335
 30
0.0
 10
61.305136
 20
102.325105
 30
0.0
 10
61.091336
 20
102.238815
 30
0.0
  0
SPLINE
  5
18e
100
AcDbEntity
  8
Calque_1
 62
1
100
AcDbSpline
 70
8
 71
3
 72
8
 73
4
 74
0
 40
0
 40
0
 40
0
 40
0
 40
1
 40
1
 40
1
 40
1
 10
61.091336
 20
102.238815
 30
0.0
 10
60.877539
 20
102.152515
 30
0.0
 10
59.135878
 20
100.874565
 30
0.0
 10
57.220980
 20
99.398905
 30
0.0
  0
SPLINE
  5
18f
100
AcDbEntity
  8
Calque_1
 62
1
100
AcDbSpline
 70
8
 71
3
 72
8
 73
4
 74
0
 40
0
 40
0
 40
0
 40
0
 40
1
 40
1
 40
1
 40
1
 10
57.220980
 20
99.398905
 30
0.0
 10
53.783318
 20
96.749765
 30
0.0
 10
52.986994
 20
96.294395
 30
0.0
 10
53.300241
 20
97.156855
 30
0.0
  0
LINE
  5
190
100
AcDbEntity
  8
Calque_1
 62
1
100
AcDbLine
 10
53.300241
 20
97.156855
 30
0.0
 11
53.300241
 21
97.156855
 31
0.0
  0
SPLINE
  5
191
100
AcDbEntity
  8
Calque_1
 62
1
100
AcDbSpline
 70
8
 71
3
 72
8
 73
4
 74
0
 40
0
 40
0
 40
0
 40
0
 40
1
 40
1
 40
1
 40
1
 10
68.992844
 20
119.041455
 30
0.0
 10
68.992844
 20
119.096755
 30
0.0
 10
69.364151
 20
120.275655
 30
0.0
 10
69.817988
 20
121.661175
 30
0.0
  0
LINE
  5
192
100
AcDbEntity
  8
Calque_1
 62
1
100
AcDbLine
 10
69.817988
 20
121.661175
 30
0.0
 11
70.643122
 21
124.180315
 31
0.0
  0
LINE
  5
193
100
AcDbEntity
  8
Calque_1
 62
1
100
AcDbLine
 10
70.643122
 20
124.180315
 30
0.0
 11
68.597454
 21
125.705735
 31
0.0
  0
SPLINE
  5
194
100
AcDbEntity
  8
Calque_1
 62
1
100
AcDbSpline
 70
8
 71
3
 72
8
 73
4
 74
0
 40
0
 40
0
 40
0
 40
0
 40
1
 40
1
 40
1
 40
1
 10
68.597454
 20
125.705735
 30
0.0
 10
67.472340
 20
126.544715
 30
0.0
 10
66.545406
 20
127.350215
 30
0.0
 10
66.537596
 20
127.495735
 30
0.0
  0
SPLINE
  5
195
100
AcDbEntity
  8
Calque_1
 62
1
100
AcDbSpline
 70
8
 71
3
 72
8
 73
4
 74
0
 40
0
 40
0
 40
0
 40
0
 40
1
 40
1
 40
1
 40
1
 10
66.537596
 20
127.495735
 30
0.0
 10
66.529596
 20
127.641255
 30
0.0
 10
67.682790
 20
127.760325
 30
0.0
 10
69.099791
 20
127.760325
 30
0.0
  0
LINE
  5
196
100
AcDbEntity
  8
Calque_1
 62
1
100
AcDbLine
 10
69.099791
 20
127.760325
 30
0.0
 11
71.676176
 21
127.760325
 31
0.0
  0
LINE
  5
197
100
AcDbEntity
  8
Calque_1
 62
1
100
AcDbLine
 10
71.676176
 20
127.760325
 30
0.0
 11
72.471503
 21
130.229769
 31
0.0
  0
SPLINE
  5
198
100
AcDbEntity
  8
Calque_1
 62
1
100
AcDbSpline
 70
8
 71
3
 72
8
 73
4
 74
0
 40
0
 40
0
 40
0
 40
0
 40
1
 40
1
 40
1
 40
1
 10
72.471503
 20
130.229769
 30
0.0
 10
72.908940
 20
131.587959
 30
0.0
 10
73.394327
 20
132.699209
 30
0.0
 10
73.550157
 20
132.699209
 30
0.0
  0
SPLINE
  5
199
100
AcDbEntity
  8
Calque_1
 62
1
100
AcDbSpline
 70
8
 71
3
 72
8
 73
4
 74
0
 40
0
 40
0
 40
0
 40
0
 40
1
 40
1
 40
1
 40
1
 10
73.550157
 20
132.699209
 30
0.0
 10
73.705977
 20
132.699209
 30
0.0
 10
74.184184
 20
131.587959
 30
0.0
 10
74.612831
 20
130.229769
 30
0.0
  0
LINE
  5
19a
100
AcDbEntity
  8
Calque_1
 62
1
100
AcDbLine
 10
74.612831
 20
130.229769
 30
0.0
 11
75.392195
 21
127.760325
 31
0.0
  0
LINE
  5
19b
100
AcDbEntity
  8
Calque_1
 62
1
100
AcDbLine
 10
75.392195
 20
127.760325
 30
0.0
 11
78.013320
 21
127.760325
 31
0.0
  0
SPLINE
  5
19c
100
AcDbEntity
  8
Calque_1
 62
1
100
AcDbSpline
 70
8
 71
3
 72
8
 73
4
 74
0
 40
0
 40
0
 40
0
 40
0
 40
1
 40
1
 40
1
 40
1
 10
78.013320
 20
127.760325
 30
0.0
 10
79.454934
 20
127.760325
 30
0.0
 10
80.625458
 20
127.641255
 30
0.0
 10
80.614478
 20
127.495735
 30
0.0
  0
SPLINE
  5
19d
100
AcDbEntity
  8
Calque_1
 62
1
100
AcDbSpline
 70
8
 71
3
 72
8
 73
4
 74
0
 40
0
 40
0
 40
0
 40
0
 40
1
 40
1
 40
1
 40
1
 10
80.614478
 20
127.495735
 30
0.0
 10
80.603478
 20
127.350215
 30
0.0
 10
79.660211
 20
126.551065
 30
0.0
 10
78.518300
 20
125.719855
 30
0.0
  0
LINE
  5
19e
100
AcDbEntity
  8
Calque_1
 62
1
100
AcDbLine
 10
78.518300
 20
125.719855
 30
0.0
 11
76.442099
 21
124.208555
 31
0.0
  0
LINE
  5
19f
100
AcDbEntity
  8
Calque_1
 62
1
100
AcDbLine
 10
76.442099
 20
124.208555
 30
0.0
 11
76.960426
 21
122.544855
 31
0.0
  0
SPLINE
  5
1a0
100
AcDbEntity
  8
Calque_1
 62
1
100
AcDbSpline
 70
8
 71
3
 72
8
 73
4
 74
0
 40
0
 40
0
 40
0
 40
0
 40
1
 40
1
 40
1
 40
1
 10
76.960426
 20
122.544855
 30
0.0
 10
77.694153
 20
120.189785
 30
0.0
 10
77.938243
 20
118.940875
 30
0.0
 10
77.664813
 20
118.940875
 30
0.0
  0
SPLINE
  5
1a1
100
AcDbEntity
  8
Calque_1
 62
1
100
AcDbSpline
 70
8
 71
3
 72
8
 73
4
 74
0
 40
0
 40
0
 40
0
 40
0
 40
1
 40
1
 40
1
 40
1
 10
77.664813
 20
118.940875
 30
0.0
 10
77.535213
 20
118.940875
 30
0.0
 10
76.588139
 20
119.575875
 30
0.0
 10
75.560195
 20
120.351985
 30
0.0
  0
SPLINE
  5
1a2
100
AcDbEntity
  8
Calque_1
 62
1
100
AcDbSpline
 70
8
 71
3
 72
8
 73
4
 74
0
 40
0
 40
0
 40
0
 40
0
 40
1
 40
1
 40
1
 40
1
 10
75.560195
 20
120.351985
 30
0.0
 10
74.532251
 20
121.128095
 30
0.0
 10
73.615237
 20
121.763095
 30
0.0
 10
73.522397
 20
121.763095
 30
0.0
  0
SPLINE
  5
1a3
100
AcDbEntity
  8
Calque_1
 62
1
100
AcDbSpline
 70
8
 71
3
 72
8
 73
4
 74
0
 40
0
 40
0
 40
0
 40
0
 40
1
 40
1
 40
1
 40
1
 10
73.522397
 20
121.763095
 30
0.0
 10
73.429597
 20
121.763095
 30
0.0
 10
72.502493
 20
121.128095
 30
0.0
 10
71.462279
 20
120.351985
 30
0.0
  0
SPLINE
  5
1a4
100
AcDbEntity
  8
Calque_1
 62
1
100
AcDbSpline
 70
8
 71
3
 72
8
 73
4
 74
0
 40
0
 40
0
 40
0
 40
0
 40
1
 40
1
 40
1
 40
1
 10
71.462279
 20
120.351985
 30
0.0
 10
69.815388
 20
119.123245
 30
0.0
 10
68.992844
 20
118.686715
 30
0.0
 10
68.992844
 20
119.041455
 30
0.0
  0
LINE
  5
1a5
100
AcDbEntity
  8
Calque_1
 62
1
100
AcDbLine
 10
68.992844
 20
119.041455
 30
0.0
 11
68.992844
 21
119.041455
 31
0.0
  0
SPLINE
  5
1a6
100
AcDbEntity
  8
Calque_1
 62
1
100
AcDbSpline
 70
8
 71
3
 72
8
 73
4
 74
0
 40
0
 40
0
 40
0
 40
0
 40
1
 40
1
 40
1
 40
1
 10
81.017285
 20
132.674209
 30
0.0
 10
80.013581
 20
134.628239
 30
0.0
 10
78.992857
 20
136.226989
 30
0.0
 10
78.749007
 20
136.226989
 30
0.0
  0
SPLINE
  5
1a7
100
AcDbEntity
  8
Calque_1
 62
1
100
AcDbSpline
 70
8
 71
3
 72
8
 73
4
 74
0
 40
0
 40
0
 40
0
 40
0
 40
1
 40
1
 40
1
 40
1
 10
78.749007
 20
136.226989
 30
0.0
 10
78.505170
 20
136.226989
 30
0.0
 10
76.884959
 20
135.912919
 30
0.0
 10
75.148548
 20
135.529069
 30
0.0
  0
SPLINE
  5
1a8
100
AcDbEntity
  8
Calque_1
 62
1
100
AcDbSpline
 70
8
 71
3
 72
8
 73
4
 74
0
 40
0
 40
0
 40
0
 40
0
 40
1
 40
1
 40
1
 40
1
 10
75.148548
 20
135.529069
 30
0.0
 10
71.643119
 20
134.754149
 30
0.0
 10
71.107972
 20
134.694659
 30
0.0
 10
71.112832
 20
135.080459
 30
0.0
  0
SPLINE
  5
1a9
100
AcDbEntity
  8
Calque_1
 62
1
100
AcDbSpline
 70
8
 71
3
 72
8
 73
4
 74
0
 40
0
 40
0
 40
0
 40
0
 40
1
 40
1
 40
1
 40
1
 10
71.112832
 20
135.080459
 30
0.0
 10
72.566053
 20
137.508719
 30
0.0
 10
75.018038
 20
138.693169
 30
0.0
 10
76.386292
 20
141.310549
 30
0.0
  0
SPLINE
  5
1aa
100
AcDbEntity
  8
Calque_1
 62
1
100
AcDbSpline
 70
8
 71
3
 72
8
 73
4
 74
0
 40
0
 40
0
 40
0
 40
0
 40
1
 40
1
 40
1
 40
1
 10
76.386292
 20
141.310549
 30
0.0
 10
76.394292
 20
141.487129
 30
0.0
 10
75.607385
 20
143.104009
 30
0.0
 10
74.637261
 20
144.903619
 30
0.0
  0
SPLINE
  5
1ab
100
AcDbEntity
  8
Calque_1
 62
1
100
AcDbSpline
 70
8
 71
3
 72
8
 73
4
 74
0
 40
0
 40
0
 40
0
 40
0
 40
1
 40
1
 40
1
 40
1
 10
74.637261
 20
144.903619
 30
0.0
 10
73.667127
 20
146.703219
 30
0.0
 10
72.873380
 20
148.336979
 30
0.0
 10
72.873380
 20
148.534199
 30
0.0
  0
SPLINE
  5
1ac
100
AcDbEntity
  8
Calque_1
 62
1
100
AcDbSpline
 70
8
 71
3
 72
8
 73
4
 74
0
 40
0
 40
0
 40
0
 40
0
 40
1
 40
1
 40
1
 40
1
 10
72.873380
 20
148.534199
 30
0.0
 10
72.873380
 20
148.731419
 30
0.0
 10
74.539061
 20
148.114979
 30
0.0
 10
76.574889
 20
147.164329
 30
0.0
  0
LINE
  5
1ad
100
AcDbEntity
  8
Calque_1
 62
1
100
AcDbLine
 10
76.574889
 20
147.164329
 30
0.0
 11
80.276398
 21
145.435879
 31
0.0
  0
LINE
  5
1ae
100
AcDbEntity
  8
Calque_1
 62
1
100
AcDbLine
 10
80.276398
 20
145.435879
 30
0.0
 11
81.989339
 21
147.269629
 31
0.0
  0
SPLINE
  5
1af
100
AcDbEntity
  8
Calque_1
 62
1
100
AcDbSpline
 70
8
 71
3
 72
8
 73
4
 74
0
 40
0
 40
0
 40
0
 40
0
 40
1
 40
1
 40
1
 40
1
 10
81.989339
 20
147.269629
 30
0.0
 10
82.931453
 20
148.278189
 30
0.0
 10
84.189517
 20
149.658889
 30
0.0
 10
84.785024
 20
150.337859
 30
0.0
  0
SPLINE
  5
1b0
100
AcDbEntity
  8
Calque_1
 62
1
100
AcDbSpline
 70
8
 71
3
 72
8
 73
4
 74
0
 40
0
 40
0
 40
0
 40
0
 40
1
 40
1
 40
1
 40
1
 10
84.785024
 20
150.337859
 30
0.0
 10
85.380531
 20
151.016819
 30
0.0
 10
85.977225
 20
151.462869
 30
0.0
 10
86.111015
 20
151.329089
 30
0.0
  0
SPLINE
  5
1b1
100
AcDbEntity
  8
Calque_1
 62
1
100
AcDbSpline
 70
8
 71
3
 72
8
 73
4
 74
0
 40
0
 40
0
 40
0
 40
0
 40
1
 40
1
 40
1
 40
1
 10
86.111015
 20
151.329089
 30
0.0
 10
86.244795
 20
151.195309
 30
0.0
 10
86.094415
 20
149.308399
 30
0.0
 10
85.776828
 20
147.135959
 30
0.0
  0
SPLINE
  5
1b2
100
AcDbEntity
  8
Calque_1
 62
1
100
AcDbSpline
 70
8
 71
3
 72
8
 73
4
 74
0
 40
0
 40
0
 40
0
 40
0
 40
1
 40
1
 40
1
 40
1
 10
85.776828
 20
147.135959
 30
0.0
 10
85.459248
 20
144.963529
 30
0.0
 10
85.243841
 20
143.145689
 30
0.0
 10
85.298161
 20
143.096339
 30
0.0
  0
SPLINE
  5
1b3
100
AcDbEntity
  8
Calque_1
 62
1
100
AcDbSpline
 70
8
 71
3
 72
8
 73
4
 74
0
 40
0
 40
0
 40
0
 40
0
 40
1
 40
1
 40
1
 40
1
 10
85.298161
 20
143.096339
 30
0.0
 10
86.383375
 20
142.530919
 30
0.0
 10
92.356959
 20
139.854249
 30
0.0
 10
92.075962
 20
139.436819
 30
0.0
  0
SPLINE
  5
1b4
100
AcDbEntity
  8
Calque_1
 62
1
100
AcDbSpline
 70
8
 71
3
 72
8
 73
4
 74
0
 40
0
 40
0
 40
0
 40
0
 40
1
 40
1
 40
1
 40
1
 10
92.075962
 20
139.436819
 30
0.0
 10
91.894962
 20
139.268609
 30
0.0
 10
90.159634
 20
138.787399
 30
0.0
 10
88.219673
 20
138.367449
 30
0.0
  0
SPLINE
  5
1b5
100
AcDbEntity
  8
Calque_1
 62
1
100
AcDbSpline
 70
8
 71
3
 72
8
 73
4
 74
0
 40
0
 40
0
 40
0
 40
0
 40
1
 40
1
 40
1
 40
1
 10
88.219673
 20
138.367449
 30
0.0
 10
86.279705
 20
137.947509
 30
0.0
 10
84.599884
 20
137.492539
 30
0.0
 10
84.486744
 20
137.356419
 30
0.0
  0
SPLINE
  5
1b6
100
AcDbEntity
  8
Calque_1
 62
1
100
AcDbSpline
 70
8
 71
3
 72
8
 73
4
 74
0
 40
0
 40
0
 40
0
 40
0
 40
1
 40
1
 40
1
 40
1
 10
84.486744
 20
137.356419
 30
0.0
 10
84.373604
 20
137.220299
 30
0.0
 10
84.084257
 20
135.442059
 30
0.0
 10
83.843747
 20
133.404769
 30
0.0
  0
SPLINE
  5
1b7
100
AcDbEntity
  8
Calque_1
 62
1
100
AcDbSpline
 70
8
 71
3
 72
8
 73
4
 74
0
 40
0
 40
0
 40
0
 40
0
 40
1
 40
1
 40
1
 40
1
 10
83.843747
 20
133.404769
 30
0.0
 10
83.603250
 20
131.367469
 30
0.0
 10
83.279513
 20
129.570289
 30
0.0
 10
83.124343
 20
129.411019
 30
0.0
  0
SPLINE
  5
1b8
100
AcDbEntity
  8
Calque_1
 62
1
100
AcDbSpline
 70
8
 71
3
 72
8
 73
4
 74
0
 40
0
 40
0
 40
0
 40
0
 40
1
 40
1
 40
1
 40
1
 10
83.124343
 20
129.411019
 30
0.0
 10
82.969173
 20
129.251749
 30
0.0
 10
82.020999
 20
130.720179
 30
0.0
 10
81.017285
 20
132.674209
 30
0.0
  0
LINE
  5
1b9
100
AcDbEntity
  8
Calque_1
 62
1
100
AcDbLine
 10
81.017285
 20
132.674209
 30
0.0
 11
81.017285
 21
132.674209
 31
0.0
  0
SPLINE
  5
1ba
100
AcDbEntity
  8
Calque_1
 62
1
100
AcDbSpline
 70
8
 71
3
 72
8
 73
4
 74
0
 40
0
 40
0
 40
0
 40
0
 40
1
 40
1
 40
1
 40
1
 10
85.573308
 20
156.809229
 30
0.0
 10
85.573308
 20
157.069896
 30
0.0
 10
85.890808
 20
158.205990
 30
0.0
 10
86.278855
 20
159.333884
 30
0.0
  0
SPLINE
  5
1bb
100
AcDbEntity
  8
Calque_1
 62
1
100
AcDbSpline
 70
8
 71
3
 72
8
 73
4
 74
0
 40
0
 40
0
 40
0
 40
0
 40
1
 40
1
 40
1
 40
1
 10
86.278855
 20
159.333884
 30
0.0
 10
86.666912
 20
160.461778
 30
0.0
 10
86.984412
 20
161.429852
 30
0.0
 10
86.984412
 20
161.485152
 30
0.0
  0
SPLINE
  5
1bc
100
AcDbEntity
  8
Calque_1
 62
1
100
AcDbSpline
 70
8
 71
3
 72
8
 73
4
 74
0
 40
0
 40
0
 40
0
 40
0
 40
1
 40
1
 40
1
 40
1
 10
86.984412
 20
161.485152
 30
0.0
 10
86.984412
 20
161.540452
 30
0.0
 10
85.992225
 20
162.349026
 30
0.0
 10
84.779564
 20
163.281990
 30
0.0
  0
LINE
  5
1bd
100
AcDbEntity
  8
Calque_1
 62
1
100
AcDbLine
 10
84.779564
 20
163.281990
 30
0.0
 11
82.574716
 21
164.978301
 31
0.0
  0
LINE
  5
1be
100
AcDbEntity
  8
Calque_1
 62
1
100
AcDbLine
 10
82.574716
 20
164.978301
 30
0.0
 11
85.379091
 21
165.154681
 31
0.0
  0
LINE
  5
1bf
100
AcDbEntity
  8
Calque_1
 62
1
100
AcDbLine
 10
85.379091
 20
165.154681
 30
0.0
 11
88.183473
 21
165.331068
 31
0.0
  0
LINE
  5
1c0
100
AcDbEntity
  8
Calque_1
 62
1
100
AcDbLine
 10
88.183473
 20
165.331068
 30
0.0
 11
88.849870
 21
167.624116
 31
0.0
  0
SPLINE
  5
1c1
100
AcDbEntity
  8
Calque_1
 62
1
100
AcDbSpline
 70
8
 71
3
 72
8
 73
4
 74
0
 40
0
 40
0
 40
0
 40
0
 40
1
 40
1
 40
1
 40
1
 10
88.849870
 20
167.624116
 30
0.0
 10
89.216387
 20
168.885290
 30
0.0
 10
89.643114
 20
170.050114
 30
0.0
 10
89.798144
 20
170.212611
 30
0.0
  0
SPLINE
  5
1c2
100
AcDbEntity
  8
Calque_1
 62
1
100
AcDbSpline
 70
8
 71
3
 72
8
 73
4
 74
0
 40
0
 40
0
 40
0
 40
0
 40
1
 40
1
 40
1
 40
1
 10
89.798144
 20
170.212611
 30
0.0
 10
89.953174
 20
170.375101
 30
0.0
 10
90.467761
 20
169.343237
 30
0.0
 10
90.941668
 20
167.919566
 30
0.0
  0
LINE
  5
1c3
100
AcDbEntity
  8
Calque_1
 62
1
100
AcDbLine
 10
90.941668
 20
167.919566
 30
0.0
 11
91.803322
 21
165.331068
 31
0.0
  0
LINE
  5
1c4
100
AcDbEntity
  8
Calque_1
 62
1
100
AcDbLine
 10
91.803322
 20
165.331068
 30
0.0
 11
94.332730
 21
165.227421
 31
0.0
  0
SPLINE
  5
1c5
100
AcDbEntity
  8
Calque_1
 62
1
100
AcDbSpline
 70
8
 71
3
 72
8
 73
4
 74
0
 40
0
 40
0
 40
0
 40
0
 40
1
 40
1
 40
1
 40
1
 10
94.332730
 20
165.227421
 30
0.0
 10
95.723901
 20
165.170421
 30
0.0
 10
96.858045
 20
165.011671
 30
0.0
 10
96.853055
 20
164.874651
 30
0.0
  0
SPLINE
  5
1c6
100
AcDbEntity
  8
Calque_1
 62
1
100
AcDbSpline
 70
8
 71
3
 72
8
 73
4
 74
0
 40
0
 40
0
 40
0
 40
0
 40
1
 40
1
 40
1
 40
1
 10
96.853055
 20
164.874651
 30
0.0
 10
96.848055
 20
164.737634
 30
0.0
 10
95.981621
 20
163.990527
 30
0.0
 10
94.927637
 20
163.214420
 30
0.0
  0
SPLINE
  5
1c7
100
AcDbEntity
  8
Calque_1
 62
1
100
AcDbSpline
 70
8
 71
3
 72
8
 73
4
 74
0
 40
0
 40
0
 40
0
 40
0
 40
1
 40
1
 40
1
 40
1
 10
94.927637
 20
163.214420
 30
0.0
 10
93.873643
 20
162.438316
 30
0.0
 10
93.006656
 20
161.644569
 30
0.0
 10
93.000996
 20
161.450542
 30
0.0
  0
SPLINE
  5
1c8
100
AcDbEntity
  8
Calque_1
 62
1
100
AcDbSpline
 70
8
 71
3
 72
8
 73
4
 74
0
 40
0
 40
0
 40
0
 40
0
 40
1
 40
1
 40
1
 40
1
 10
93.000996
 20
161.450542
 30
0.0
 10
92.994996
 20
161.256512
 30
0.0
 10
93.309076
 20
160.082048
 30
0.0
 10
93.698193
 20
158.840617
 30
0.0
  0
SPLINE
  5
1c9
100
AcDbEntity
  8
Calque_1
 62
1
100
AcDbSpline
 70
8
 71
3
 72
8
 73
4
 74
0
 40
0
 40
0
 40
0
 40
0
 40
1
 40
1
 40
1
 40
1
 10
93.698193
 20
158.840617
 30
0.0
 10
94.087320
 20
157.599183
 30
0.0
 10
94.323950
 20
156.501719
 30
0.0
 10
94.224040
 20
156.401809
 30
0.0
  0
SPLINE
  5
1ca
100
AcDbEntity
  8
Calque_1
 62
1
100
AcDbSpline
 70
8
 71
3
 72
8
 73
4
 74
0
 40
0
 40
0
 40
0
 40
0
 40
1
 40
1
 40
1
 40
1
 10
94.224040
 20
156.401809
 30
0.0
 10
94.124140
 20
156.301909
 30
0.0
 10
93.120896
 20
156.935766
 30
0.0
 10
91.994632
 20
157.810393
 30
0.0
  0
LINE
  5
1cb
100
AcDbEntity
  8
Calque_1
 62
1
100
AcDbLine
 10
91.994632
 20
157.810393
 30
0.0
 11
89.946874
 21
159.400614
 31
0.0
  0
LINE
  5
1cc
100
AcDbEntity
  8
Calque_1
 62
1
100
AcDbLine
 10
89.946874
 20
159.400614
 30
0.0
 11
88.024676
 21
157.883633
 31
0.0
  0
SPLINE
  5
1cd
100
AcDbEntity
  8
Calque_1
 62
1
100
AcDbSpline
 70
8
 71
3
 72
8
 73
4
 74
0
 40
0
 40
0
 40
0
 40
0
 40
1
 40
1
 40
1
 40
1
 10
88.024676
 20
157.883633
 30
0.0
 10
85.946795
 20
156.243792
 30
0.0
 10
85.573308
 20
156.080102
 30
0.0
 10
85.573308
 20
156.809229
 30
0.0
  0
LINE
  5
1ce
100
AcDbEntity
  8
Calque_1
 62
1
100
AcDbLine
 10
85.573308
 20
156.809229
 30
0.0
 11
85.573308
 21
156.809229
 31
0.0
  0
LINE
  5
1cf
100
AcDbEntity
  8
Calque_1
 62
1
100
AcDbLine
 10
171.391356
 20
82.720705
 30
0.0
 11
133.822338
 21
82.720705
 31
0.0
  0
LINE
  5
1d0
100
AcDbEntity
  8
Calque_1
 62
1
100
AcDbLine
 10
133.822338
 20
82.720705
 30
0.0
 11
133.822338
 21
88.520705
 31
0.0
  0
LINE
  5
1d1
100
AcDbEntity
  8
Calque_1
 62
1
100
AcDbLine
 10
133.822338
 20
88.520705
 30
0.0
 11
171.391356
 21
88.520705
 31
0.0
  0
LINE
  5
1d2
100
AcDbEntity
  8
Calque_1
 62
1
100
AcDbLine
 10
171.391356
 20
88.520705
 30
0.0
 11
171.391356
 21
82.720705
 31
0.0
  0
SPLINE
  5
1d3
100
AcDbEntity
  8
Calque_1
 62
1
100
AcDbSpline
 70
8
 71
3
 72
8
 73
4
 74
0
 40
0
 40
0
 40
0
 40
0
 40
1
 40
1
 40
1
 40
1
 10
79.463858
 20
85.620705
 30
0.0
 10
79.463856
 20
91.113609
 30
0.0
 10
87.169969
 20
96.381537
 30
0.0
 10
100.886940
 20
100.265607
 30
0.0
  0
SPLINE
  5
1d4
100
AcDbEntity
  8
Calque_1
 62
1
100
AcDbSpline
 70
8
 71
3
 72
8
 73
4
 74
0
 40
0
 40
0
 40
0
 40
0
 40
1
 40
1
 40
1
 40
1
 10
100.886940
 20
100.265607
 30
0.0
 10
114.603911
 20
104.149677
 30
0.0
 10
133.208116
 20
106.331725
 30
0.0
 10
152.606844
 20
106.331725
 30
0.0
  0
SPLINE
  5
1d5
100
AcDbEntity
  8
Calque_1
 62
1
100
AcDbSpline
 70
8
 71
3
 72
8
 73
4
 74
0
 40
0
 40
0
 40
0
 40
0
 40
1
 40
1
 40
1
 40
1
 10
152.606844
 20
106.331725
 30
0.0
 10
172.005572
 20
106.331725
 30
0.0
 10
190.609779
 20
104.149677
 30
0.0
 10
204.326751
 20
100.265608
 30
0.0
  0
SPLINE
  5
1d6
100
AcDbEntity
  8
Calque_1
 62
1
100
AcDbSpline
 70
8
 71
3
 72
8
 73
4
 74
0
 40
0
 40
0
 40
0
 40
0
 40
1
 40
1
 40
1
 40
1
 10
204.326751
 20
100.265608
 30
0.0
 10
218.043723
 20
96.381538
 30
0.0
 10
225.749836
 20
91.113609
 30
0.0
 10
225.749834
 20
85.620705
 30
0.0
  0
SPLINE
  5
1d7
100
AcDbEntity
  8
Calque_1
 62
1
100
AcDbSpline
 70
8
 71
3
 72
8
 73
4
 74
0
 40
0
 40
0
 40
0
 40
0
 40
1
 40
1
 40
1
 40
1
 10
225.749834
 20
85.620705
 30
0.0
 10
225.749836
 20
80.127801
 30
0.0
 10
218.043723
 20
74.859872
 30
0.0
 10
204.326751
 20
70.975802
 30
0.0
  0
SPLINE
  5
1d8
100
AcDbEntity
  8
Calque_1
 62
1
100
AcDbSpline
 70
8
 71
3
 72
8
 73
4
 74
0
 40
0
 40
0
 40
0
 40
0
 40
1
 40
1
 40
1
 40
1
 10
204.326751
 20
70.975802
 30
0.0
 10
190.609779
 20
67.091733
 30
0.0
 10
172.005572
 20
64.909685
 30
0.0
 10
152.606844
 20
64.909685
 30
0.0
  0
SPLINE
  5
1d9
100
AcDbEntity
  8
Calque_1
 62
1
100
AcDbSpline
 70
8
 71
3
 72
8
 73
4
 74
0
 40
0
 40
0
 40
0
 40
0
 40
1
 40
1
 40
1
 40
1
 10
152.606844
 20
64.909685
 30
0.0
 10
133.208116
 20
64.909685
 30
0.0
 10
114.603911
 20
67.091733
 30
0.0
 10
100.886940
 20
70.975803
 30
0.0
  0
SPLINE
  5
1da
100
AcDbEntity
  8
Calque_1
 62
1
100
AcDbSpline
 70
8
 71
3
 72
8
 73
4
 74
0
 40
0
 40
0
 40
0
 40
0
 40
1
 40
1
 40
1
 40
1
 10
100.886940
 20
70.975803
 30
0.0
 10
87.169969
 20
74.859873
 30
0.0
 10
79.463856
 20
80.127801
 30
0.0
 10
79.463858
 20
85.620705
 30
0.0
  0
LINE
  5
1db
100
AcDbEntity
  8
Calque_1
 62
1
100
AcDbLine
 10
79.463858
 20
85.620705
 30
0.0
 11
79.463858
 21
85.620705
 31
0.0
  0
LINE
  5
1dc
100
AcDbEntity
  8
Calque_1
 62
1
100
AcDbLine
 10
241.490758
 20
19.630675
 30
0.0
 11
241.490758
 21
21.926825
 31
0.0
  0
LINE
  5
1dd
100
AcDbEntity
  8
Calque_1
 62
1
100
AcDbLine
 10
241.490758
 20
21.926825
 30
0.0
 11
243.589778
 21
21.926825
 31
0.0
  0
LINE
  5
1de
100
AcDbEntity
  8
Calque_1
 62
1
100
AcDbLine
 10
243.589778
 20
21.926825
 30
0.0
 11
245.688778
 21
21.926825
 31
0.0
  0
LINE
  5
1df
100
AcDbEntity
  8
Calque_1
 62
1
100
AcDbLine
 10
245.688778
 20
21.926825
 30
0.0
 11
245.688778
 21
24.954005
 31
0.0
  0
SPLINE
  5
1e0
100
AcDbEntity
  8
Calque_1
 62
1
100
AcDbSpline
 70
8
 71
3
 72
8
 73
4
 74
0
 40
0
 40
0
 40
0
 40
0
 40
1
 40
1
 40
1
 40
1
 10
245.688778
 20
24.954005
 30
0.0
 10
245.688778
 20
28.221165
 30
0.0
 10
246.365848
 20
30.262025
 30
0.0
 10
247.932028
 20
31.715795
 30
0.0
  0
SPLINE
  5
1e1
100
AcDbEntity
  8
Calque_1
 62
1
100
AcDbSpline
 70
8
 71
3
 72
8
 73
4
 74
0
 40
0
 40
0
 40
0
 40
0
 40
1
 40
1
 40
1
 40
1
 10
247.932028
 20
31.715795
 30
0.0
 10
248.366878
 20
32.119435
 30
0.0
 10
252.056388
 20
33.593795
 30
0.0
 10
256.130948
 20
34.992165
 30
0.0
  0
SPLINE
  5
1e2
100
AcDbEntity
  8
Calque_1
 62
1
100
AcDbSpline
 70
8
 71
3
 72
8
 73
4
 74
0
 40
0
 40
0
 40
0
 40
0
 40
1
 40
1
 40
1
 40
1
 10
256.130948
 20
34.992165
 30
0.0
 10
273.590788
 20
40.984305
 30
0.0
 10
279.616318
 20
44.140825
 30
0.0
 10
286.297638
 20
50.795205
 30
0.0
  0
SPLINE
  5
1e3
100
AcDbEntity
  8
Calque_1
 62
1
100
AcDbSpline
 70
8
 71
3
 72
8
 73
4
 74
0
 40
0
 40
0
 40
0
 40
0
 40
1
 40
1
 40
1
 40
1
 10
286.297638
 20
50.795205
 30
0.0
 10
290.323718
 20
54.805065
 30
0.0
 10
291.937688
 20
56.945445
 30
0.0
 10
291.937688
 20
58.274815
 30
0.0
  0
SPLINE
  5
1e4
100
AcDbEntity
  8
Calque_1
 62
1
100
AcDbSpline
 70
8
 71
3
 72
8
 73
4
 74
0
 40
0
 40
0
 40
0
 40
0
 40
1
 40
1
 40
1
 40
1
 10
291.937688
 20
58.274815
 30
0.0
 10
291.937688
 20
60.391825
 30
0.0
 10
287.715778
 20
62.922315
 30
0.0
 10
276.944728
 20
67.261175
 30
0.0
  0
SPLINE
  5
1e5
100
AcDbEntity
  8
Calque_1
 62
1
100
AcDbSpline
 70
8
 71
3
 72
8
 73
4
 74
0
 40
0
 40
0
 40
0
 40
0
 40
1
 40
1
 40
1
 40
1
 10
276.944728
 20
67.261175
 30
0.0
 10
270.896468
 20
69.697565
 30
0.0
 10
267.142388
 20
71.511105
 30
0.0
 10
266.361838
 20
72.373615
 30
0.0
  0
SPLINE
  5
1e6
100
AcDbEntity
  8
Calque_1
 62
1
100
AcDbSpline
 70
8
 71
3
 72
8
 73
4
 74
0
 40
0
 40
0
 40
0
 40
0
 40
1
 40
1
 40
1
 40
1
 10
266.361838
 20
72.373615
 30
0.0
 10
265.807728
 20
72.985905
 30
0.0
 10
265.821598
 20
73.055845
 30
0.0
 10
266.596318
 20
73.555825
 30
0.0
  0
SPLINE
  5
1e7
100
AcDbEntity
  8
Calque_1
 62
1
100
AcDbSpline
 70
8
 71
3
 72
8
 73
4
 74
0
 40
0
 40
0
 40
0
 40
0
 40
1
 40
1
 40
1
 40
1
 10
266.596318
 20
73.555825
 30
0.0
 10
267.049218
 20
73.848105
 30
0.0
 10
269.721778
 20
74.948365
 30
0.0
 10
272.535338
 20
76.000855
 30
0.0
  0
SPLINE
  5
1e8
100
AcDbEntity
  8
Calque_1
 62
1
100
AcDbSpline
 70
8
 71
3
 72
8
 73
4
 74
0
 40
0
 40
0
 40
0
 40
0
 40
1
 40
1
 40
1
 40
1
 10
272.535338
 20
76.000855
 30
0.0
 10
278.871228
 20
78.370975
 30
0.0
 10
280.304298
 20
79.094635
 30
0.0
 10
281.517688
 20
80.536675
 30
0.0
  0
SPLINE
  5
1e9
100
AcDbEntity
  8
Calque_1
 62
1
100
AcDbSpline
 70
8
 71
3
 72
8
 73
4
 74
0
 40
0
 40
0
 40
0
 40
0
 40
1
 40
1
 40
1
 40
1
 10
281.517688
 20
80.536675
 30
0.0
 10
282.672168
 20
81.908715
 30
0.0
 10
282.558218
 20
83.115355
 30
0.0
 10
281.072948
 20
85.246015
 30
0.0
  0
SPLINE
  5
1ea
100
AcDbEntity
  8
Calque_1
 62
1
100
AcDbSpline
 70
8
 71
3
 72
8
 73
4
 74
0
 40
0
 40
0
 40
0
 40
0
 40
1
 40
1
 40
1
 40
1
 10
281.072948
 20
85.246015
 30
0.0
 10
278.891258
 20
88.375735
 30
0.0
 10
273.834758
 20
91.691945
 30
0.0
 10
262.025518
 20
97.737925
 30
0.0
  0
SPLINE
  5
1eb
100
AcDbEntity
  8
Calque_1
 62
1
100
AcDbSpline
 70
8
 71
3
 72
8
 73
4
 74
0
 40
0
 40
0
 40
0
 40
0
 40
1
 40
1
 40
1
 40
1
 10
262.025518
 20
97.737925
 30
0.0
 10
258.007408
 20
99.795075
 30
0.0
 10
254.799218
 20
101.636205
 30
0.0
 10
254.896228
 20
101.829325
 30
0.0
  0
SPLINE
  5
1ec
100
AcDbEntity
  8
Calque_1
 62
1
100
AcDbSpline
 70
8
 71
3
 72
8
 73
4
 74
0
 40
0
 40
0
 40
0
 40
0
 40
1
 40
1
 40
1
 40
1
 10
254.896228
 20
101.829325
 30
0.0
 10
254.993228
 20
102.022445
 30
0.0
 10
257.753278
 20
103.447375
 30
0.0
 10
261.029638
 20
104.995835
 30
0.0
  0
SPLINE
  5
1ed
100
AcDbEntity
  8
Calque_1
 62
1
100
AcDbSpline
 70
8
 71
3
 72
8
 73
4
 74
0
 40
0
 40
0
 40
0
 40
0
 40
1
 40
1
 40
1
 40
1
 10
261.029638
 20
104.995835
 30
0.0
 10
267.937168
 20
108.260465
 30
0.0
 10
269.007268
 20
109.076825
 30
0.0
 10
269.007268
 20
111.081905
 30
0.0
  0
SPLINE
  5
1ee
100
AcDbEntity
  8
Calque_1
 62
1
100
AcDbSpline
 70
8
 71
3
 72
8
 73
4
 74
0
 40
0
 40
0
 40
0
 40
0
 40
1
 40
1
 40
1
 40
1
 10
269.007268
 20
111.081905
 30
0.0
 10
269.007268
 20
114.903085
 30
0.0
 10
262.453928
 20
119.194695
 30
0.0
 10
249.146748
 20
124.088045
 30
0.0
  0
LINE
  5
1ef
100
AcDbEntity
  8
Calque_1
 62
1
100
AcDbLine
 10
249.146748
 20
124.088045
 30
0.0
 11
243.573658
 21
126.137415
 31
0.0
  0
LINE
  5
1f0
100
AcDbEntity
  8
Calque_1
 62
1
100
AcDbLine
 10
243.573658
 20
126.137415
 30
0.0
 11
247.382878
 21
127.437845
 31
0.0
  0
SPLINE
  5
1f1
100
AcDbEntity
  8
Calque_1
 62
1
100
AcDbSpline
 70
8
 71
3
 72
8
 73
4
 74
0
 40
0
 40
0
 40
0
 40
0
 40
1
 40
1
 40
1
 40
1
 10
247.382878
 20
127.437845
 30
0.0
 10
253.929508
 20
129.672823
 30
0.0
 10
255.558978
 20
130.558017
 30
0.0
 10
256.509278
 20
132.395727
 30
0.0
  0
SPLINE
  5
1f2
100
AcDbEntity
  8
Calque_1
 62
1
100
AcDbSpline
 70
8
 71
3
 72
8
 73
4
 74
0
 40
0
 40
0
 40
0
 40
0
 40
1
 40
1
 40
1
 40
1
 10
256.509278
 20
132.395727
 30
0.0
 10
257.964908
 20
135.210617
 30
0.0
 10
255.681758
 20
137.436817
 30
0.0
 10
240.961588
 20
147.555707
 30
0.0
  0
SPLINE
  5
1f3
100
AcDbEntity
  8
Calque_1
 62
1
100
AcDbSpline
 70
8
 71
3
 72
8
 73
4
 74
0
 40
0
 40
0
 40
0
 40
0
 40
1
 40
1
 40
1
 40
1
 10
240.961588
 20
147.555707
 30
0.0
 10
234.319688
 20
152.121457
 30
0.0
 10
233.368838
 20
152.978607
 30
0.0
 10
231.752508
 20
155.857383
 30
0.0
  0
SPLINE
  5
1f4
100
AcDbEntity
  8
Calque_1
 62
1
100
AcDbSpline
 70
8
 71
3
 72
8
 73
4
 74
0
 40
0
 40
0
 40
0
 40
0
 40
1
 40
1
 40
1
 40
1
 10
231.752508
 20
155.857383
 30
0.0
 10
229.867738
 20
159.214255
 30
0.0
 10
228.959478
 20
161.713359
 30
0.0
 10
226.318258
 20
170.809908
 30
0.0
  0
SPLINE
  5
1f5
100
AcDbEntity
  8
Calque_1
 62
1
100
AcDbSpline
 70
8
 71
3
 72
8
 73
4
 74
0
 40
0
 40
0
 40
0
 40
0
 40
1
 40
1
 40
1
 40
1
 10
226.318258
 20
170.809908
 30
0.0
 10
223.582008
 20
180.233764
 30
0.0
 10
222.435008
 20
183.075289
 30
0.0
 10
220.504888
 20
185.211697
 30
0.0
  0
SPLINE
  5
1f6
100
AcDbEntity
  8
Calque_1
 62
1
100
AcDbSpline
 70
8
 71
3
 72
8
 73
4
 74
0
 40
0
 40
0
 40
0
 40
0
 40
1
 40
1
 40
1
 40
1
 10
220.504888
 20
185.211697
 30
0.0
 10
219.256478
 20
186.593538
 30
0.0
 10
219.075508
 20
186.674008
 30
0.0
 10
217.216338
 20
186.674008
 30
0.0
  0
SPLINE
  5
1f7
100
AcDbEntity
  8
Calque_1
 62
1
100
AcDbSpline
 70
8
 71
3
 72
8
 73
4
 74
0
 40
0
 40
0
 40
0
 40
0
 40
1
 40
1
 40
1
 40
1
 10
217.216338
 20
186.674008
 30
0.0
 10
215.303828
 20
186.674008
 30
0.0
 10
215.198398
 20
186.621908
 30
0.0
 10
213.440058
 20
184.806490
 30
0.0
  0
SPLINE
  5
1f8
100
AcDbEntity
  8
Calque_1
 62
1
100
AcDbSpline
 70
8
 71
3
 72
8
 73
4
 74
0
 40
0
 40
0
 40
0
 40
0
 40
1
 40
1
 40
1
 40
1
 10
213.440058
 20
184.806490
 30
0.0
 10
211.311018
 20
182.608372
 30
0.0
 10
210.458508
 20
180.711531
 30
0.0
 10
206.749668
 20
169.920224
 30
0.0
  0
SPLINE
  5
1f9
100
AcDbEntity
  8
Calque_1
 62
1
100
AcDbSpline
 70
8
 71
3
 72
8
 73
4
 74
0
 40
0
 40
0
 40
0
 40
0
 40
1
 40
1
 40
1
 40
1
 10
206.749668
 20
169.920224
 30
0.0
 10
202.906278
 20
158.737396
 30
0.0
 10
200.877018
 20
154.237911
 30
0.0
 10
197.150268
 20
148.635317
 30
0.0
  0
SPLINE
  5
1fa
100
AcDbEntity
  8
Calque_1
 62
1
100
AcDbSpline
 70
8
 71
3
 72
8
 73
4
 74
0
 40
0
 40
0
 40
0
 40
0
 40
1
 40
1
 40
1
 40
1
 10
197.150268
 20
148.635317
 30
0.0
 10
193.660428
 20
143.388897
 30
0.0
 10
189.895368
 20
141.522177
 30
0.0
 10
180.252988
 20
140.257617
 30
0.0
  0
SPLINE
  5
1fb
100
AcDbEntity
  8
Calque_1
 62
1
100
AcDbSpline
 70
8
 71
3
 72
8
 73
4
 74
0
 40
0
 40
0
 40
0
 40
0
 40
1
 40
1
 40
1
 40
1
 10
180.252988
 20
140.257617
 30
0.0
 10
173.647988
 20
139.391397
 30
0.0
 10
171.016118
 20
138.087037
 30
0.0
 10
169.540918
 20
134.948667
 30
0.0
  0
SPLINE
  5
1fc
100
AcDbEntity
  8
Calque_1
 62
1
100
AcDbSpline
 70
8
 71
3
 72
8
 73
4
 74
0
 40
0
 40
0
 40
0
 40
0
 40
1
 40
1
 40
1
 40
1
 10
169.540918
 20
134.948667
 30
0.0
 10
166.654018
 20
128.807003
 30
0.0
 10
175.253958
 20
121.042265
 30
0.0
 10
186.457658
 20
119.674815
 30
0.0
  0
SPLINE
  5
1fd
100
AcDbEntity
  8
Calque_1
 62
1
100
AcDbSpline
 70
8
 71
3
 72
8
 73
4
 74
0
 40
0
 40
0
 40
0
 40
0
 40
1
 40
1
 40
1
 40
1
 10
186.457658
 20
119.674815
 30
0.0
 10
195.029398
 20
118.628605
 30
0.0
 10
200.056098
 20
122.156115
 30
0.0
 10
198.456858
 20
128.095335
 30
0.0
  0
SPLINE
  5
1fe
100
AcDbEntity
  8
Calque_1
 62
1
100
AcDbSpline
 70
8
 71
3
 72
8
 73
4
 74
0
 40
0
 40
0
 40
0
 40
0
 40
1
 40
1
 40
1
 40
1
 10
198.456858
 20
128.095335
 30
0.0
 10
197.189188
 20
132.803067
 30
0.0
 10
193.022158
 20
132.873977
 30
0.0
 10
188.700768
 20
128.261353
 30
0.0
  0
SPLINE
  5
1ff
100
AcDbEntity
  8
Calque_1
 62
1
100
AcDbSpline
 70
8
 71
3
 72
8
 73
4
 74
0
 40
0
 40
0
 40
0
 40
0
 40
1
 40
1
 40
1
 40
1
 10
188.700768
 20
128.261353
 30
0.0
 10
187.426178
 20
126.900865
 30
0.0
 10
187.052268
 20
126.701835
 30
0.0
 10
185.770998
 20
126.701835
 30
0.0
  0
SPLINE
  5
200
100
AcDbEntity
  8
Calque_1
 62
1
100
AcDbSpline
 70
8
 71
3
 72
8
 73
4
 74
0
 40
0
 40
0
 40
0
 40
0
 40
1
 40
1
 40
1
 40
1
 10
185.770998
 20
126.701835
 30
0.0
 10
183.125998
 20
126.701835
 30
0.0
 10
179.049318
 20
129.225473
 30
0.0
 10
179.049318
 20
130.862827
 30
0.0
  0
SPLINE
  5
201
100
AcDbEntity
  8
Calque_1
 62
1
100
AcDbSpline
 70
8
 71
3
 72
8
 73
4
 74
0
 40
0
 40
0
 40
0
 40
0
 40
1
 40
1
 40
1
 40
1
 10
179.049318
 20
130.862827
 30
0.0
 10
179.049318
 20
132.090817
 30
0.0
 10
184.228698
 20
133.825377
 30
0.0
 10
189.711488
 20
134.433567
 30
0.0
  0
SPLINE
  5
202
100
AcDbEntity
  8
Calque_1
 62
1
100
AcDbSpline
 70
8
 71
3
 72
8
 73
4
 74
0
 40
0
 40
0
 40
0
 40
0
 40
1
 40
1
 40
1
 40
1
 10
189.711488
 20
134.433567
 30
0.0
 10
196.658048
 20
135.204137
 30
0.0
 10
205.893408
 20
132.642337
 30
0.0
 10
212.608468
 20
128.082175
 30
0.0
  0
SPLINE
  5
203
100
AcDbEntity
  8
Calque_1
 62
1
100
AcDbSpline
 70
8
 71
3
 72
8
 73
4
 74
0
 40
0
 40
0
 40
0
 40
0
 40
1
 40
1
 40
1
 40
1
 10
212.608468
 20
128.082175
 30
0.0
 10
215.717478
 20
125.970875
 30
0.0
 10
220.084888
 20
121.713075
 30
0.0
 10
222.528078
 20
118.411545
 30
0.0
  0
SPLINE
  5
204
100
AcDbEntity
  8
Calque_1
 62
1
100
AcDbSpline
 70
8
 71
3
 72
8
 73
4
 74
0
 40
0
 40
0
 40
0
 40
0
 40
1
 40
1
 40
1
 40
1
 10
222.528078
 20
118.411545
 30
0.0
 10
226.109808
 20
113.571475
 30
0.0
 10
229.424058
 20
106.003885
 30
0.0
 10
230.716568
 20
99.714315
 30
0.0
  0
SPLINE
  5
205
100
AcDbEntity
  8
Calque_1
 62
1
100
AcDbSpline
 70
8
 71
3
 72
8
 73
4
 74
0
 40
0
 40
0
 40
0
 40
0
 40
1
 40
1
 40
1
 40
1
 10
230.716568
 20
99.714315
 30
0.0
 10
233.498898
 20
86.175105
 30
0.0
 10
230.765968
 20
71.453705
 30
0.0
 10
223.525698
 20
60.980305
 30
0.0
  0
SPLINE
  5
206
100
AcDbEntity
  8
Calque_1
 62
1
100
AcDbSpline
 70
8
 71
3
 72
8
 73
4
 74
0
 40
0
 40
0
 40
0
 40
0
 40
1
 40
1
 40
1
 40
1
 10
223.525698
 20
60.980305
 30
0.0
 10
217.725618
 20
52.590125
 30
0.0
 10
207.954038
 20
46.539245
 30
0.0
 10
195.982658
 20
43.924755
 30
0.0
  0
SPLINE
  5
207
100
AcDbEntity
  8
Calque_1
 62
1
100
AcDbSpline
 70
8
 71
3
 72
8
 73
4
 74
0
 40
0
 40
0
 40
0
 40
0
 40
1
 40
1
 40
1
 40
1
 10
195.982658
 20
43.924755
 30
0.0
 10
193.664228
 20
43.418425
 30
0.0
 10
191.503628
 20
43.269875
 30
0.0
 10
186.457658
 20
43.269875
 30
0.0
  0
SPLINE
  5
208
100
AcDbEntity
  8
Calque_1
 62
1
100
AcDbSpline
 70
8
 71
3
 72
8
 73
4
 74
0
 40
0
 40
0
 40
0
 40
0
 40
1
 40
1
 40
1
 40
1
 10
186.457658
 20
43.269875
 30
0.0
 10
180.742918
 20
43.269875
 30
0.0
 10
179.536408
 20
43.372985
 30
0.0
 10
176.756268
 20
44.098975
 30
0.0
  0
SPLINE
  5
209
100
AcDbEntity
  8
Calque_1
 62
1
100
AcDbSpline
 70
8
 71
3
 72
8
 73
4
 74
0
 40
0
 40
0
 40
0
 40
0
 40
1
 40
1
 40
1
 40
1
 10
176.756268
 20
44.098975
 30
0.0
 10
171.204198
 20
45.044325
 30
0.0
 10
166.019568
 20
50.086855
 30
0.0
 10
161.508568
 20
50.396195
 30
0.0
  0
SPLINE
  5
20a
100
AcDbEntity
  8
Calque_1
 62
1
100
AcDbSpline
 70
8
 71
3
 72
8
 73
4
 74
0
 40
0
 40
0
 40
0
 40
0
 40
1
 40
1
 40
1
 40
1
 10
161.508568
 20
50.396195
 30
0.0
 10
158.697898
 20
50.577645
 30
0.0
 10
157.149478
 20
49.924155
 30
0.0
 10
155.822678
 20
47.996535
 30
0.0
  0
SPLINE
  5
20b
100
AcDbEntity
  8
Calque_1
 62
1
100
AcDbSpline
 70
8
 71
3
 72
8
 73
4
 74
0
 40
0
 40
0
 40
0
 40
0
 40
1
 40
1
 40
1
 40
1
 10
155.822678
 20
47.996535
 30
0.0
 10
154.208438
 20
45.651295
 30
0.0
 10
155.225098
 20
42.335025
 30
0.0
 10
158.695658
 20
38.625005
 30
0.0
  0
SPLINE
  5
20c
100
AcDbEntity
  8
Calque_1
 62
1
100
AcDbSpline
 70
8
 71
3
 72
8
 73
4
 74
0
 40
0
 40
0
 40
0
 40
0
 40
1
 40
1
 40
1
 40
1
 10
158.695658
 20
38.625005
 30
0.0
 10
164.240348
 20
32.697745
 30
0.0
 10
172.668378
 20
30.049425
 30
0.0
 10
192.278488
 20
28.072365
 30
0.0
  0
SPLINE
  5
20d
100
AcDbEntity
  8
Calque_1
 62
1
100
AcDbSpline
 70
8
 71
3
 72
8
 73
4
 74
0
 40
0
 40
0
 40
0
 40
0
 40
1
 40
1
 40
1
 40
1
 10
192.278488
 20
28.072365
 30
0.0
 10
195.382928
 20
27.759375
 30
0.0
 10
198.121368
 20
27.340405
 30
0.0
 10
198.363908
 20
27.141305
 30
0.0
  0
SPLINE
  5
20e
100
AcDbEntity
  8
Calque_1
 62
1
100
AcDbSpline
 70
8
 71
3
 72
8
 73
4
 74
0
 40
0
 40
0
 40
0
 40
0
 40
1
 40
1
 40
1
 40
1
 10
198.363908
 20
27.141305
 30
0.0
 10
198.638848
 20
26.915615
 30
0.0
 10
198.804878
 20
25.865825
 30
0.0
 10
198.804878
 20
24.353075
 30
0.0
  0
LINE
  5
20f
100
AcDbEntity
  8
Calque_1
 62
1
100
AcDbLine
 10
198.804878
 20
24.353075
 30
0.0
 11
198.804878
 21
21.926825
 31
0.0
  0
LINE
  5
210
100
AcDbEntity
  8
Calque_1
 62
1
100
AcDbLine
 10
198.804878
 20
21.926825
 30
0.0
 11
201.257488
 21
21.926825
 31
0.0
  0
LINE
  5
211
100
AcDbEntity
  8
Calque_1
 62
1
100
AcDbLine
 10
201.257488
 20
21.926825
 30
0.0
 11
203.710078
 21
21.926825
 31
0.0
  0
LINE
  5
212
100
AcDbEntity
  8
Calque_1
 62
1
100
AcDbLine
 10
203.710078
 20
21.926825
 30
0.0
 11
203.815108
 21
19.721965
 31
0.0
  0
LINE
  5
213
100
AcDbEntity
  8
Calque_1
 62
1
100
AcDbLine
 10
203.815108
 20
19.721965
 30
0.0
 11
203.920138
 21
19.104595
 31
0.0
  0
LINE
  5
214
100
AcDbEntity
  8
Calque_1
 62
1
100
AcDbLine
 10
203.920138
 20
19.104595
 30
0.0
 11
222.705438
 21
19.013295
 31
0.0
  0
LINE
  5
215
100
AcDbEntity
  8
Calque_1
 62
1
100
AcDbLine
 10
222.705438
 20
19.013295
 30
0.0
 11
241.490758
 21
18.921995
 31
0.0
  0
LINE
  5
216
100
AcDbEntity
  8
Calque_1
 62
1
100
AcDbLine
 10
241.490758
 20
18.921995
 30
0.0
 11
241.490758
 21
19.630675
 31
0.0
  0
SPLINE
  5
217
100
AcDbEntity
  8
Calque_1
 62
1
100
AcDbSpline
 70
8
 71
3
 72
8
 73
4
 74
0
 40
0
 40
0
 40
0
 40
0
 40
1
 40
1
 40
1
 40
1
 10
239.386098
 20
37.890015
 30
0.0
 10
239.424498
 20
39.302105
 30
0.0
 10
240.370558
 20
46.324205
 30
0.0
 10
240.546008
 20
46.499665
 30
0.0
  0
SPLINE
  5
218
100
AcDbEntity
  8
Calque_1
 62
1
100
AcDbSpline
 70
8
 71
3
 72
8
 73
4
 74
0
 40
0
 40
0
 40
0
 40
0
 40
1
 40
1
 40
1
 40
1
 10
240.546008
 20
46.499665
 30
0.0
 10
240.661488
 20
46.615145
 30
0.0
 10
242.615398
 20
47.087405
 30
0.0
 10
244.888048
 20
47.549135
 30
0.0
  0
SPLINE
  5
219
100
AcDbEntity
  8
Calque_1
 62
1
100
AcDbSpline
 70
8
 71
3
 72
8
 73
4
 74
0
 40
0
 40
0
 40
0
 40
0
 40
1
 40
1
 40
1
 40
1
 10
244.888048
 20
47.549135
 30
0.0
 10
247.160678
 20
48.010865
 30
0.0
 10
249.090498
 20
48.459015
 30
0.0
 10
249.176518
 20
48.545035
 30
0.0
  0
SPLINE
  5
21a
100
AcDbEntity
  8
Calque_1
 62
1
100
AcDbSpline
 70
8
 71
3
 72
8
 73
4
 74
0
 40
0
 40
0
 40
0
 40
0
 40
1
 40
1
 40
1
 40
1
 10
249.176518
 20
48.545035
 30
0.0
 10
249.262518
 20
48.631035
 30
0.0
 10
247.473118
 20
49.622455
 30
0.0
 10
245.200018
 20
50.748155
 30
0.0
  0
LINE
  5
21b
100
AcDbEntity
  8
Calque_1
 62
1
100
AcDbLine
 10
245.200018
 20
50.748155
 30
0.0
 11
241.067118
 21
52.794875
 31
0.0
  0
LINE
  5
21c
100
AcDbEntity
  8
Calque_1
 62
1
100
AcDbLine
 10
241.067118
 20
52.794875
 30
0.0
 11
241.273998
 21
54.911545
 31
0.0
  0
SPLINE
  5
21d
100
AcDbEntity
  8
Calque_1
 62
1
100
AcDbSpline
 70
8
 71
3
 72
8
 73
4
 74
0
 40
0
 40
0
 40
0
 40
0
 40
1
 40
1
 40
1
 40
1
 10
241.273998
 20
54.911545
 30
0.0
 10
241.859288
 20
60.899845
 30
0.0
 10
241.920458
 20
62.143225
 30
0.0
 10
241.629608
 20
62.140065
 30
0.0
  0
SPLINE
  5
21e
100
AcDbEntity
  8
Calque_1
 62
1
100
AcDbSpline
 70
8
 71
3
 72
8
 73
4
 74
0
 40
0
 40
0
 40
0
 40
0
 40
1
 40
1
 40
1
 40
1
 10
241.629608
 20
62.140065
 30
0.0
 10
241.456228
 20
62.138065
 30
0.0
 10
240.074868
 20
60.709435
 30
0.0
 10
238.559908
 20
58.965065
 30
0.0
  0
SPLINE
  5
21f
100
AcDbEntity
  8
Calque_1
 62
1
100
AcDbSpline
 70
8
 71
3
 72
8
 73
4
 74
0
 40
0
 40
0
 40
0
 40
0
 40
1
 40
1
 40
1
 40
1
 10
238.559908
 20
58.965065
 30
0.0
 10
237.044968
 20
57.220695
 30
0.0
 10
235.653268
 20
55.793485
 30
0.0
 10
235.467248
 20
55.793485
 30
0.0
  0
SPLINE
  5
220
100
AcDbEntity
  8
Calque_1
 62
1
100
AcDbSpline
 70
8
 71
3
 72
8
 73
4
 74
0
 40
0
 40
0
 40
0
 40
0
 40
1
 40
1
 40
1
 40
1
 10
235.467248
 20
55.793485
 30
0.0
 10
235.281228
 20
55.793485
 30
0.0
 10
233.368698
 20
56.676335
 30
0.0
 10
231.217188
 20
57.755365
 30
0.0
  0
SPLINE
  5
221
100
AcDbEntity
  8
Calque_1
 62
1
100
AcDbSpline
 70
8
 71
3
 72
8
 73
4
 74
0
 40
0
 40
0
 40
0
 40
0
 40
1
 40
1
 40
1
 40
1
 10
231.217188
 20
57.755365
 30
0.0
 10
226.057298
 20
60.785065
 30
0.0
 10
227.463208
 20
58.566545
 30
0.0
 10
229.261248
 20
55.223575
 30
0.0
  0
LINE
  5
222
100
AcDbEntity
  8
Calque_1
 62
1
100
AcDbLine
 10
229.261248
 20
55.223575
 30
0.0
 11
231.521618
 21
51.034365
 31
0.0
  0
LINE
  5
223
100
AcDbEntity
  8
Calque_1
 62
1
100
AcDbLine
 10
231.521618
 20
51.034365
 30
0.0
 11
229.201398
 21
48.386845
 31
0.0
  0
SPLINE
  5
224
100
AcDbEntity
  8
Calque_1
 62
1
100
AcDbSpline
 70
8
 71
3
 72
8
 73
4
 74
0
 40
0
 40
0
 40
0
 40
0
 40
1
 40
1
 40
1
 40
1
 10
229.201398
 20
48.386845
 30
0.0
 10
227.925278
 20
46.930705
 30
0.0
 10
226.569398
 20
45.382755
 30
0.0
 10
226.188328
 20
44.946965
 30
0.0
  0
SPLINE
  5
225
100
AcDbEntity
  8
Calque_1
 62
1
100
AcDbSpline
 70
8
 71
3
 72
8
 73
4
 74
0
 40
0
 40
0
 40
0
 40
0
 40
1
 40
1
 40
1
 40
1
 10
226.188328
 20
44.946965
 30
0.0
 10
225.807248
 20
44.511165
 30
0.0
 10
225.566448
 20
44.083625
 30
0.0
 10
225.653198
 20
43.996885
 30
0.0
  0
SPLINE
  5
226
100
AcDbEntity
  8
Calque_1
 62
1
100
AcDbSpline
 70
8
 71
3
 72
8
 73
4
 74
0
 40
0
 40
0
 40
0
 40
0
 40
1
 40
1
 40
1
 40
1
 10
225.653198
 20
43.996885
 30
0.0
 10
225.739898
 20
43.910185
 30
0.0
 10
227.711698
 20
44.214555
 30
0.0
 10
230.034878
 20
44.673365
 30
0.0
  0
SPLINE
  5
227
100
AcDbEntity
  8
Calque_1
 62
1
100
AcDbSpline
 70
8
 71
3
 72
8
 73
4
 74
0
 40
0
 40
0
 40
0
 40
0
 40
1
 40
1
 40
1
 40
1
 10
230.034878
 20
44.673365
 30
0.0
 10
234.955698
 20
45.645175
 30
0.0
 10
234.249968
 20
46.026325
 30
0.0
 10
236.914648
 20
40.957835
 30
0.0
  0
SPLINE
  5
228
100
AcDbEntity
  8
Calque_1
 62
1
100
AcDbSpline
 70
8
 71
3
 72
8
 73
4
 74
0
 40
0
 40
0
 40
0
 40
0
 40
1
 40
1
 40
1
 40
1
 10
236.914648
 20
40.957835
 30
0.0
 10
238.624128
 20
37.706255
 30
0.0
 10
239.356368
 20
36.797315
 30
0.0
 10
239.386098
 20
37.890015
 30
0.0
  0
LINE
  5
229
100
AcDbEntity
  8
Calque_1
 62
1
100
AcDbLine
 10
239.386098
 20
37.890015
 30
0.0
 11
239.386098
 21
37.890015
 31
0.0
  0
SPLINE
  5
22a
100
AcDbEntity
  8
Calque_1
 62
1
100
AcDbSpline
 70
8
 71
3
 72
8
 73
4
 74
0
 40
0
 40
0
 40
0
 40
0
 40
1
 40
1
 40
1
 40
1
 10
269.201558
 20
45.474735
 30
0.0
 10
269.932708
 20
47.560535
 30
0.0
 10
270.659248
 20
49.412815
 30
0.0
 10
270.816098
 20
49.590905
 30
0.0
  0
SPLINE
  5
22b
100
AcDbEntity
  8
Calque_1
 62
1
100
AcDbSpline
 70
8
 71
3
 72
8
 73
4
 74
0
 40
0
 40
0
 40
0
 40
0
 40
1
 40
1
 40
1
 40
1
 10
270.816098
 20
49.590905
 30
0.0
 10
271.118758
 20
49.934585
 30
0.0
 10
274.438708
 20
49.926965
 30
0.0
 10
278.091238
 20
49.574205
 30
0.0
  0
SPLINE
  5
22c
100
AcDbEntity
  8
Calque_1
 62
1
100
AcDbSpline
 70
8
 71
3
 72
8
 73
4
 74
0
 40
0
 40
0
 40
0
 40
0
 40
1
 40
1
 40
1
 40
1
 10
278.091238
 20
49.574205
 30
0.0
 10
279.460768
 20
49.441945
 30
0.0
 10
280.296098
 20
49.494205
 30
0.0
 10
280.296098
 20
49.712175
 30
0.0
  0
SPLINE
  5
22d
100
AcDbEntity
  8
Calque_1
 62
1
100
AcDbSpline
 70
8
 71
3
 72
8
 73
4
 74
0
 40
0
 40
0
 40
0
 40
0
 40
1
 40
1
 40
1
 40
1
 10
280.296098
 20
49.712175
 30
0.0
 10
280.296098
 20
49.905165
 30
0.0
 10
278.748288
 20
51.215545
 30
0.0
 10
276.856528
 20
52.624145
 30
0.0
  0
SPLINE
  5
22e
100
AcDbEntity
  8
Calque_1
 62
1
100
AcDbSpline
 70
8
 71
3
 72
8
 73
4
 74
0
 40
0
 40
0
 40
0
 40
0
 40
1
 40
1
 40
1
 40
1
 10
276.856528
 20
52.624145
 30
0.0
 10
274.964768
 20
54.032745
 30
0.0
 10
273.296568
 20
55.291665
 30
0.0
 10
273.149418
 20
55.421765
 30
0.0
  0
SPLINE
  5
22f
100
AcDbEntity
  8
Calque_1
 62
1
100
AcDbSpline
 70
8
 71
3
 72
8
 73
4
 74
0
 40
0
 40
0
 40
0
 40
0
 40
1
 40
1
 40
1
 40
1
 10
273.149418
 20
55.421765
 30
0.0
 10
273.002258
 20
55.551865
 30
0.0
 10
273.518198
 20
57.442155
 30
0.0
 10
274.295928
 20
59.622425
 30
0.0
  0
SPLINE
  5
230
100
AcDbEntity
  8
Calque_1
 62
1
100
AcDbSpline
 70
8
 71
3
 72
8
 73
4
 74
0
 40
0
 40
0
 40
0
 40
0
 40
1
 40
1
 40
1
 40
1
 10
274.295928
 20
59.622425
 30
0.0
 10
275.073678
 20
61.802695
 30
0.0
 10
275.709998
 20
63.743685
 30
0.0
 10
275.709998
 20
63.935755
 30
0.0
  0
SPLINE
  5
231
100
AcDbEntity
  8
Calque_1
 62
1
100
AcDbSpline
 70
8
 71
3
 72
8
 73
4
 74
0
 40
0
 40
0
 40
0
 40
0
 40
1
 40
1
 40
1
 40
1
 10
275.709998
 20
63.935755
 30
0.0
 10
275.709998
 20
64.388385
 30
0.0
 10
274.856798
 20
63.924555
 30
0.0
 10
271.018588
 20
61.385195
 30
0.0
  0
LINE
  5
232
100
AcDbEntity
  8
Calque_1
 62
1
100
AcDbLine
 10
271.018588
 20
61.385195
 30
0.0
 11
267.914658
 21
59.331655
 31
0.0
  0
LINE
  5
233
100
AcDbEntity
  8
Calque_1
 62
1
100
AcDbLine
 10
267.914658
 20
59.331655
 30
0.0
 11
264.146198
 21
62.168885
 31
0.0
  0
SPLINE
  5
234
100
AcDbEntity
  8
Calque_1
 62
1
100
AcDbSpline
 70
8
 71
3
 72
8
 73
4
 74
0
 40
0
 40
0
 40
0
 40
0
 40
1
 40
1
 40
1
 40
1
 10
264.146198
 20
62.168885
 30
0.0
 10
262.073538
 20
63.729375
 30
0.0
 10
260.325798
 20
64.850305
 30
0.0
 10
260.262318
 20
64.659865
 30
0.0
  0
SPLINE
  5
235
100
AcDbEntity
  8
Calque_1
 62
1
100
AcDbSpline
 70
8
 71
3
 72
8
 73
4
 74
0
 40
0
 40
0
 40
0
 40
0
 40
1
 40
1
 40
1
 40
1
 10
260.262318
 20
64.659865
 30
0.0
 10
260.198818
 20
64.469435
 30
0.0
 10
260.726018
 20
62.458485
 30
0.0
 10
261.433828
 20
60.191095
 30
0.0
  0
SPLINE
  5
236
100
AcDbEntity
  8
Calque_1
 62
1
100
AcDbSpline
 70
8
 71
3
 72
8
 73
4
 74
0
 40
0
 40
0
 40
0
 40
0
 40
1
 40
1
 40
1
 40
1
 10
261.433828
 20
60.191095
 30
0.0
 10
262.141638
 20
57.923725
 30
0.0
 10
262.587418
 20
55.958075
 30
0.0
 10
262.424448
 20
55.823005
 30
0.0
  0
SPLINE
  5
237
100
AcDbEntity
  8
Calque_1
 62
1
100
AcDbSpline
 70
8
 71
3
 72
8
 73
4
 74
0
 40
0
 40
0
 40
0
 40
0
 40
1
 40
1
 40
1
 40
1
 10
262.424448
 20
55.823005
 30
0.0
 10
262.261478
 20
55.687945
 30
0.0
 10
260.580338
 20
54.573195
 30
0.0
 10
258.688578
 20
53.345785
 30
0.0
  0
SPLINE
  5
238
100
AcDbEntity
  8
Calque_1
 62
1
100
AcDbSpline
 70
8
 71
3
 72
8
 73
4
 74
0
 40
0
 40
0
 40
0
 40
0
 40
1
 40
1
 40
1
 40
1
 10
258.688578
 20
53.345785
 30
0.0
 10
256.796818
 20
52.118375
 30
0.0
 10
255.249008
 20
50.976365
 30
0.0
 10
255.249008
 20
50.807965
 30
0.0
  0
SPLINE
  5
239
100
AcDbEntity
  8
Calque_1
 62
1
100
AcDbSpline
 70
8
 71
3
 72
8
 73
4
 74
0
 40
0
 40
0
 40
0
 40
0
 40
1
 40
1
 40
1
 40
1
 10
255.249008
 20
50.807965
 30
0.0
 10
255.249008
 20
50.639585
 30
0.0
 10
256.558688
 20
50.500435
 30
0.0
 10
258.159408
 20
50.498745
 30
0.0
  0
SPLINE
  5
23a
100
AcDbEntity
  8
Calque_1
 62
1
100
AcDbSpline
 70
8
 71
3
 72
8
 73
4
 74
0
 40
0
 40
0
 40
0
 40
0
 40
1
 40
1
 40
1
 40
1
 10
258.159408
 20
50.498745
 30
0.0
 10
259.760128
 20
50.496745
 30
0.0
 10
261.883418
 20
50.397915
 30
0.0
 10
262.877828
 20
50.278425
 30
0.0
  0
LINE
  5
23b
100
AcDbEntity
  8
Calque_1
 62
1
100
AcDbLine
 10
262.877828
 20
50.278425
 30
0.0
 11
264.685858
 21
50.061195
 31
0.0
  0
LINE
  5
23c
100
AcDbEntity
  8
Calque_1
 62
1
100
AcDbLine
 10
264.685858
 20
50.061195
 30
0.0
 11
265.993448
 21
45.871775
 31
0.0
  0
SPLINE
  5
23d
100
AcDbEntity
  8
Calque_1
 62
1
100
AcDbSpline
 70
8
 71
3
 72
8
 73
4
 74
0
 40
0
 40
0
 40
0
 40
0
 40
1
 40
1
 40
1
 40
1
 10
265.993448
 20
45.871775
 30
0.0
 10
266.712628
 20
43.567595
 30
0.0
 10
267.429548
 20
41.682365
 30
0.0
 10
267.586618
 20
41.682365
 30
0.0
  0
SPLINE
  5
23e
100
AcDbEntity
  8
Calque_1
 62
1
100
AcDbSpline
 70
8
 71
3
 72
8
 73
4
 74
0
 40
0
 40
0
 40
0
 40
0
 40
1
 40
1
 40
1
 40
1
 10
267.586618
 20
41.682365
 30
0.0
 10
267.743678
 20
41.682365
 30
0.0
 10
268.470408
 20
43.388925
 30
0.0
 10
269.201558
 20
45.474725
 30
0.0
  0
LINE
  5
23f
100
AcDbEntity
  8
Calque_1
 62
1
100
AcDbLine
 10
269.201558
 20
45.474725
 30
0.0
 11
269.201558
 21
45.474735
 31
0.0
  0
SPLINE
  5
240
100
AcDbEntity
  8
Calque_1
 62
1
100
AcDbSpline
 70
8
 71
3
 72
8
 73
4
 74
0
 40
0
 40
0
 40
0
 40
0
 40
1
 40
1
 40
1
 40
1
 10
248.496818
 20
66.475205
 30
0.0
 10
250.308038
 20
69.331965
 30
0.0
 10
251.893558
 20
71.728335
 30
0.0
 10
252.020188
 20
71.800485
 30
0.0
  0
SPLINE
  5
241
100
AcDbEntity
  8
Calque_1
 62
1
100
AcDbSpline
 70
8
 71
3
 72
8
 73
4
 74
0
 40
0
 40
0
 40
0
 40
0
 40
1
 40
1
 40
1
 40
1
 10
252.020188
 20
71.800485
 30
0.0
 10
252.146818
 20
71.872585
 30
0.0
 10
254.781488
 20
71.241765
 30
0.0
 10
257.875018
 20
70.398555
 30
0.0
  0
SPLINE
  5
242
100
AcDbEntity
  8
Calque_1
 62
1
100
AcDbSpline
 70
8
 71
3
 72
8
 73
4
 74
0
 40
0
 40
0
 40
0
 40
0
 40
1
 40
1
 40
1
 40
1
 10
257.875018
 20
70.398555
 30
0.0
 10
260.968548
 20
69.555335
 30
0.0
 10
263.572968
 20
68.938795
 30
0.0
 10
263.662628
 20
69.028455
 30
0.0
  0
SPLINE
  5
243
100
AcDbEntity
  8
Calque_1
 62
1
100
AcDbSpline
 70
8
 71
3
 72
8
 73
4
 74
0
 40
0
 40
0
 40
0
 40
0
 40
1
 40
1
 40
1
 40
1
 10
263.662628
 20
69.028455
 30
0.0
 10
263.752328
 20
69.118155
 30
0.0
 10
263.110818
 20
70.105995
 30
0.0
 10
262.237128
 20
71.223735
 30
0.0
  0
SPLINE
  5
244
100
AcDbEntity
  8
Calque_1
 62
1
100
AcDbSpline
 70
8
 71
3
 72
8
 73
4
 74
0
 40
0
 40
0
 40
0
 40
0
 40
1
 40
1
 40
1
 40
1
 10
262.237128
 20
71.223735
 30
0.0
 10
261.363438
 20
72.341475
 30
0.0
 10
259.685338
 20
74.511325
 30
0.0
 10
258.508028
 20
76.045615
 30
0.0
  0
LINE
  5
245
100
AcDbEntity
  8
Calque_1
 62
1
100
AcDbLine
 10
258.508028
 20
76.045615
 30
0.0
 11
256.367448
 21
78.835255
 31
0.0
  0
LINE
  5
246
100
AcDbEntity
  8
Calque_1
 62
1
100
AcDbLine
 10
256.367448
 20
78.835255
 30
0.0
 11
257.188018
 21
80.102565
 31
0.0
  0
SPLINE
  5
247
100
AcDbEntity
  8
Calque_1
 62
1
100
AcDbSpline
 70
8
 71
3
 72
8
 73
4
 74
0
 40
0
 40
0
 40
0
 40
0
 40
1
 40
1
 40
1
 40
1
 10
257.188018
 20
80.102565
 30
0.0
 10
260.322678
 20
84.943835
 30
0.0
 10
263.021828
 20
89.413215
 30
0.0
 10
262.890328
 20
89.544725
 30
0.0
  0
SPLINE
  5
248
100
AcDbEntity
  8
Calque_1
 62
1
100
AcDbSpline
 70
8
 71
3
 72
8
 73
4
 74
0
 40
0
 40
0
 40
0
 40
0
 40
1
 40
1
 40
1
 40
1
 10
262.890328
 20
89.544725
 30
0.0
 10
262.804628
 20
89.630425
 30
0.0
 10
260.221818
 20
88.680645
 30
0.0
 10
257.150738
 20
87.434115
 30
0.0
  0
LINE
  5
249
100
AcDbEntity
  8
Calque_1
 62
1
100
AcDbLine
 10
257.150738
 20
87.434115
 30
0.0
 11
251.566958
 21
85.167705
 31
0.0
  0
LINE
  5
24a
100
AcDbEntity
  8
Calque_1
 62
1
100
AcDbLine
 10
251.566958
 20
85.167705
 30
0.0
 11
248.960278
 21
88.560455
 31
0.0
  0
SPLINE
  5
24b
100
AcDbEntity
  8
Calque_1
 62
1
100
AcDbSpline
 70
8
 71
3
 72
8
 73
4
 74
0
 40
0
 40
0
 40
0
 40
0
 40
1
 40
1
 40
1
 40
1
 10
248.960278
 20
88.560455
 30
0.0
 10
247.526588
 20
90.426475
 30
0.0
 10
245.934128
 20
92.545135
 30
0.0
 10
245.421458
 20
93.268595
 30
0.0
  0
SPLINE
  5
24c
100
AcDbEntity
  8
Calque_1
 62
1
100
AcDbSpline
 70
8
 71
3
 72
8
 73
4
 74
0
 40
0
 40
0
 40
0
 40
0
 40
1
 40
1
 40
1
 40
1
 10
245.421458
 20
93.268595
 30
0.0
 10
244.908798
 20
93.992055
 30
0.0
 10
244.356168
 20
94.587365
 30
0.0
 10
244.193378
 20
94.591505
 30
0.0
  0
SPLINE
  5
24d
100
AcDbEntity
  8
Calque_1
 62
1
100
AcDbSpline
 70
8
 71
3
 72
8
 73
4
 74
0
 40
0
 40
0
 40
0
 40
0
 40
1
 40
1
 40
1
 40
1
 10
244.193378
 20
94.591505
 30
0.0
 10
244.030608
 20
94.595505
 30
0.0
 10
243.944718
 20
91.800045
 30
0.0
 10
244.002518
 20
88.379055
 30
0.0
  0
LINE
  5
24e
100
AcDbEntity
  8
Calque_1
 62
1
100
AcDbLine
 10
244.002518
 20
88.379055
 30
0.0
 11
244.107618
 21
82.159065
 31
0.0
  0
LINE
  5
24f
100
AcDbEntity
  8
Calque_1
 62
1
100
AcDbLine
 10
244.107618
 20
82.159065
 30
0.0
 11
238.714988
 21
79.943905
 31
0.0
  0
SPLINE
  5
250
100
AcDbEntity
  8
Calque_1
 62
1
100
AcDbSpline
 70
8
 71
3
 72
8
 73
4
 74
0
 40
0
 40
0
 40
0
 40
0
 40
1
 40
1
 40
1
 40
1
 10
238.714988
 20
79.943905
 30
0.0
 10
233.485758
 20
77.795865
 30
0.0
 10
232.743558
 20
77.436365
 30
0.0
 10
233.053538
 20
77.201615
 30
0.0
  0
SPLINE
  5
251
100
AcDbEntity
  8
Calque_1
 62
1
100
AcDbSpline
 70
8
 71
3
 72
8
 73
4
 74
0
 40
0
 40
0
 40
0
 40
0
 40
1
 40
1
 40
1
 40
1
 10
233.053538
 20
77.201615
 30
0.0
 10
233.134338
 20
77.140415
 30
0.0
 10
235.780198
 20
76.398885
 30
0.0
 10
238.933128
 20
75.553825
 30
0.0
  0
LINE
  5
252
100
AcDbEntity
  8
Calque_1
 62
1
100
AcDbLine
 10
238.933128
 20
75.553825
 30
0.0
 11
244.665738
 21
74.017345
 31
0.0
  0
LINE
  5
253
100
AcDbEntity
  8
Calque_1
 62
1
100
AcDbLine
 10
244.665738
 20
74.017345
 30
0.0
 11
244.686038
 21
69.050555
 31
0.0
  0
SPLINE
  5
254
100
AcDbEntity
  8
Calque_1
 62
1
100
AcDbSpline
 70
8
 71
3
 72
8
 73
4
 74
0
 40
0
 40
0
 40
0
 40
0
 40
1
 40
1
 40
1
 40
1
 10
244.686038
 20
69.050555
 30
0.0
 10
244.697238
 20
66.318815
 30
0.0
 10
244.818258
 20
63.453175
 30
0.0
 10
244.955008
 20
62.682435
 30
0.0
  0
LINE
  5
255
100
AcDbEntity
  8
Calque_1
 62
1
100
AcDbLine
 10
244.955008
 20
62.682435
 30
0.0
 11
245.203658
 21
61.281115
 31
0.0
  0
LINE
  5
256
100
AcDbEntity
  8
Calque_1
 62
1
100
AcDbLine
 10
245.203658
 20
61.281115
 30
0.0
 11
248.496788
 21
66.475205
 31
0.0
  0
LINE
  5
257
100
AcDbEntity
  8
Calque_1
 62
1
100
AcDbLine
 10
248.496788
 20
66.475205
 30
0.0
 11
248.496818
 21
66.475205
 31
0.0
  0
SPLINE
  5
258
100
AcDbEntity
  8
Calque_1
 62
1
100
AcDbSpline
 70
8
 71
3
 72
8
 73
4
 74
0
 40
0
 40
0
 40
0
 40
0
 40
1
 40
1
 40
1
 40
1
 10
252.597268
 20
97.156685
 30
0.0
 10
252.509168
 20
97.399215
 30
0.0
 10
251.954488
 20
99.185155
 30
0.0
 10
251.364608
 20
101.125435
 30
0.0
  0
SPLINE
  5
259
100
AcDbEntity
  8
Calque_1
 62
1
100
AcDbSpline
 70
8
 71
3
 72
8
 73
4
 74
0
 40
0
 40
0
 40
0
 40
0
 40
1
 40
1
 40
1
 40
1
 10
251.364608
 20
101.125435
 30
0.0
 10
250.774728
 20
103.065705
 30
0.0
 10
250.208328
 20
104.923995
 30
0.0
 10
250.105928
 20
105.254955
 30
0.0
  0
SPLINE
  5
25a
100
AcDbEntity
  8
Calque_1
 62
1
100
AcDbSpline
 70
8
 71
3
 72
8
 73
4
 74
0
 40
0
 40
0
 40
0
 40
0
 40
1
 40
1
 40
1
 40
1
 10
250.105928
 20
105.254955
 30
0.0
 10
249.963968
 20
105.713745
 30
0.0
 10
250.846108
 20
106.455365
 30
0.0
 10
253.819088
 20
108.376605
 30
0.0
  0
SPLINE
  5
25b
100
AcDbEntity
  8
Calque_1
 62
1
100
AcDbSpline
 70
8
 71
3
 72
8
 73
4
 74
0
 40
0
 40
0
 40
0
 40
0
 40
1
 40
1
 40
1
 40
1
 10
253.819088
 20
108.376605
 30
0.0
 10
255.963728
 20
109.762555
 30
0.0
 10
257.718448
 20
111.019225
 30
0.0
 10
257.718448
 20
111.169225
 30
0.0
  0
SPLINE
  5
25c
100
AcDbEntity
  8
Calque_1
 62
1
100
AcDbSpline
 70
8
 71
3
 72
8
 73
4
 74
0
 40
0
 40
0
 40
0
 40
0
 40
1
 40
1
 40
1
 40
1
 10
257.718448
 20
111.169225
 30
0.0
 10
257.718448
 20
111.319215
 30
0.0
 10
255.534688
 20
111.554445
 30
0.0
 10
252.865638
 20
111.691965
 30
0.0
  0
LINE
  5
25d
100
AcDbEntity
  8
Calque_1
 62
1
100
AcDbLine
 10
252.865638
 20
111.691965
 30
0.0
 11
248.012838
 21
111.941995
 31
0.0
  0
LINE
  5
25e
100
AcDbEntity
  8
Calque_1
 62
1
100
AcDbLine
 10
248.012838
 20
111.941995
 30
0.0
 11
246.624418
 21
116.499685
 31
0.0
  0
SPLINE
  5
25f
100
AcDbEntity
  8
Calque_1
 62
1
100
AcDbSpline
 70
8
 71
3
 72
8
 73
4
 74
0
 40
0
 40
0
 40
0
 40
0
 40
1
 40
1
 40
1
 40
1
 10
246.624418
 20
116.499685
 30
0.0
 10
245.860788
 20
119.006415
 30
0.0
 10
245.143468
 20
121.057375
 30
0.0
 10
245.030358
 20
121.057375
 30
0.0
  0
SPLINE
  5
260
100
AcDbEntity
  8
Calque_1
 62
1
100
AcDbSpline
 70
8
 71
3
 72
8
 73
4
 74
0
 40
0
 40
0
 40
0
 40
0
 40
1
 40
1
 40
1
 40
1
 10
245.030358
 20
121.057375
 30
0.0
 10
244.917258
 20
121.057375
 30
0.0
 10
244.111808
 20
119.112685
 30
0.0
 10
243.240488
 20
116.735845
 30
0.0
  0
LINE
  5
261
100
AcDbEntity
  8
Calque_1
 62
1
100
AcDbLine
 10
243.240488
 20
116.735845
 30
0.0
 11
241.656248
 21
112.414315
 31
0.0
  0
LINE
  5
262
100
AcDbEntity
  8
Calque_1
 62
1
100
AcDbLine
 10
241.656248
 20
112.414315
 30
0.0
 11
236.811028
 21
112.545635
 31
0.0
  0
SPLINE
  5
263
100
AcDbEntity
  8
Calque_1
 62
1
100
AcDbSpline
 70
8
 71
3
 72
8
 73
4
 74
0
 40
0
 40
0
 40
0
 40
0
 40
1
 40
1
 40
1
 40
1
 10
236.811028
 20
112.545635
 30
0.0
 10
234.146158
 20
112.617835
 30
0.0
 10
231.971848
 20
112.538635
 30
0.0
 10
231.979228
 20
112.369245
 30
0.0
  0
SPLINE
  5
264
100
AcDbEntity
  8
Calque_1
 62
1
100
AcDbSpline
 70
8
 71
3
 72
8
 73
4
 74
0
 40
0
 40
0
 40
0
 40
0
 40
1
 40
1
 40
1
 40
1
 10
231.979228
 20
112.369245
 30
0.0
 10
231.986228
 20
112.200005
 30
0.0
 10
233.653468
 20
110.808435
 30
0.0
 10
235.683368
 20
109.276865
 30
0.0
  0
SPLINE
  5
265
100
AcDbEntity
  8
Calque_1
 62
1
100
AcDbSpline
 70
8
 71
3
 72
8
 73
4
 74
0
 40
0
 40
0
 40
0
 40
0
 40
1
 40
1
 40
1
 40
1
 10
235.683368
 20
109.276865
 30
0.0
 10
237.713268
 20
107.745305
 30
0.0
 10
239.373718
 20
106.395925
 30
0.0
 10
239.373248
 20
106.278255
 30
0.0
  0
SPLINE
  5
266
100
AcDbEntity
  8
Calque_1
 62
1
100
AcDbSpline
 70
8
 71
3
 72
8
 73
4
 74
0
 40
0
 40
0
 40
0
 40
0
 40
1
 40
1
 40
1
 40
1
 10
239.373248
 20
106.278255
 30
0.0
 10
239.372988
 20
106.160595
 30
0.0
 10
238.664998
 20
104.165955
 30
0.0
 10
237.800408
 20
101.845735
 30
0.0
  0
SPLINE
  5
267
100
AcDbEntity
  8
Calque_1
 62
1
100
AcDbSpline
 70
8
 71
3
 72
8
 73
4
 74
0
 40
0
 40
0
 40
0
 40
0
 40
1
 40
1
 40
1
 40
1
 10
237.800408
 20
101.845735
 30
0.0
 10
236.935808
 20
99.525515
 30
0.0
 10
236.297898
 20
97.557665
 30
0.0
 10
236.382818
 20
97.472745
 30
0.0
  0
SPLINE
  5
268
100
AcDbEntity
  8
Calque_1
 62
1
100
AcDbSpline
 70
8
 71
3
 72
8
 73
4
 74
0
 40
0
 40
0
 40
0
 40
0
 40
1
 40
1
 40
1
 40
1
 10
236.382818
 20
97.472745
 30
0.0
 10
236.467718
 20
97.387845
 30
0.0
 10
238.310288
 20
98.460705
 30
0.0
 10
240.477338
 20
99.856935
 30
0.0
  0
SPLINE
  5
269
100
AcDbEntity
  8
Calque_1
 62
1
100
AcDbSpline
 70
8
 71
3
 72
8
 73
4
 74
0
 40
0
 40
0
 40
0
 40
0
 40
1
 40
1
 40
1
 40
1
 10
240.477338
 20
99.856935
 30
0.0
 10
242.644398
 20
101.253165
 30
0.0
 10
244.592378
 20
102.324935
 30
0.0
 10
244.806178
 20
102.238645
 30
0.0
  0
SPLINE
  5
26a
100
AcDbEntity
  8
Calque_1
 62
1
100
AcDbSpline
 70
8
 71
3
 72
8
 73
4
 74
0
 40
0
 40
0
 40
0
 40
0
 40
1
 40
1
 40
1
 40
1
 10
244.806178
 20
102.238645
 30
0.0
 10
245.019978
 20
102.152345
 30
0.0
 10
246.761638
 20
100.874395
 30
0.0
 10
248.676538
 20
99.398735
 30
0.0
  0
SPLINE
  5
26b
100
AcDbEntity
  8
Calque_1
 62
1
100
AcDbSpline
 70
8
 71
3
 72
8
 73
4
 74
0
 40
0
 40
0
 40
0
 40
0
 40
1
 40
1
 40
1
 40
1
 10
248.676538
 20
99.398735
 30
0.0
 10
252.114198
 20
96.749595
 30
0.0
 10
252.910518
 20
96.294225
 30
0.0
 10
252.597268
 20
97.156685
 30
0.0
  0
LINE
  5
26c
100
AcDbEntity
  8
Calque_1
 62
1
100
AcDbLine
 10
252.597268
 20
97.156685
 30
0.0
 11
252.597268
 21
97.156685
 31
0.0
  0
SPLINE
  5
26d
100
AcDbEntity
  8
Calque_1
 62
1
100
AcDbSpline
 70
8
 71
3
 72
8
 73
4
 74
0
 40
0
 40
0
 40
0
 40
0
 40
1
 40
1
 40
1
 40
1
 10
236.904668
 20
119.041285
 30
0.0
 10
236.904668
 20
119.096585
 30
0.0
 10
236.533358
 20
120.275485
 30
0.0
 10
236.079528
 20
121.661005
 30
0.0
  0
LINE
  5
26e
100
AcDbEntity
  8
Calque_1
 62
1
100
AcDbLine
 10
236.079528
 20
121.661005
 30
0.0
 11
235.254398
 21
124.180155
 31
0.0
  0
LINE
  5
26f
100
AcDbEntity
  8
Calque_1
 62
1
100
AcDbLine
 10
235.254398
 20
124.180155
 30
0.0
 11
237.300058
 21
125.705585
 31
0.0
  0
SPLINE
  5
270
100
AcDbEntity
  8
Calque_1
 62
1
100
AcDbSpline
 70
8
 71
3
 72
8
 73
4
 74
0
 40
0
 40
0
 40
0
 40
0
 40
1
 40
1
 40
1
 40
1
 10
237.300058
 20
125.705585
 30
0.0
 10
238.425178
 20
126.544565
 30
0.0
 10
239.352108
 20
127.350075
 30
0.0
 10
239.359918
 20
127.495585
 30
0.0
  0
SPLINE
  5
271
100
AcDbEntity
  8
Calque_1
 62
1
100
AcDbSpline
 70
8
 71
3
 72
8
 73
4
 74
0
 40
0
 40
0
 40
0
 40
0
 40
1
 40
1
 40
1
 40
1
 10
239.359918
 20
127.495585
 30
0.0
 10
239.367918
 20
127.641115
 30
0.0
 10
238.214728
 20
127.760185
 30
0.0
 10
236.797728
 20
127.760185
 30
0.0
  0
LINE
  5
272
100
AcDbEntity
  8
Calque_1
 62
1
100
AcDbLine
 10
236.797728
 20
127.760185
 30
0.0
 11
234.221338
 21
127.760185
 31
0.0
  0
LINE
  5
273
100
AcDbEntity
  8
Calque_1
 62
1
100
AcDbLine
 10
234.221338
 20
127.760185
 30
0.0
 11
233.426008
 21
130.229637
 31
0.0
  0
SPLINE
  5
274
100
AcDbEntity
  8
Calque_1
 62
1
100
AcDbSpline
 70
8
 71
3
 72
8
 73
4
 74
0
 40
0
 40
0
 40
0
 40
0
 40
1
 40
1
 40
1
 40
1
 10
233.426008
 20
130.229637
 30
0.0
 10
232.988578
 20
131.587837
 30
0.0
 10
232.503188
 20
132.699087
 30
0.0
 10
232.347358
 20
132.699087
 30
0.0
  0
SPLINE
  5
275
100
AcDbEntity
  8
Calque_1
 62
1
100
AcDbSpline
 70
8
 71
3
 72
8
 73
4
 74
0
 40
0
 40
0
 40
0
 40
0
 40
1
 40
1
 40
1
 40
1
 10
232.347358
 20
132.699087
 30
0.0
 10
232.191538
 20
132.699087
 30
0.0
 10
231.713328
 20
131.587837
 30
0.0
 10
231.284688
 20
130.229637
 30
0.0
  0
LINE
  5
276
100
AcDbEntity
  8
Calque_1
 62
1
100
AcDbLine
 10
231.284688
 20
130.229637
 30
0.0
 11
230.505318
 21
127.760185
 31
0.0
  0
LINE
  5
277
100
AcDbEntity
  8
Calque_1
 62
1
100
AcDbLine
 10
230.505318
 20
127.760185
 30
0.0
 11
227.884198
 21
127.760185
 31
0.0
  0
SPLINE
  5
278
100
AcDbEntity
  8
Calque_1
 62
1
100
AcDbSpline
 70
8
 71
3
 72
8
 73
4
 74
0
 40
0
 40
0
 40
0
 40
0
 40
1
 40
1
 40
1
 40
1
 10
227.884198
 20
127.760185
 30
0.0
 10
226.442578
 20
127.760185
 30
0.0
 10
225.272058
 20
127.641115
 30
0.0
 10
225.283038
 20
127.495585
 30
0.0
  0
SPLINE
  5
279
100
AcDbEntity
  8
Calque_1
 62
1
100
AcDbSpline
 70
8
 71
3
 72
8
 73
4
 74
0
 40
0
 40
0
 40
0
 40
0
 40
1
 40
1
 40
1
 40
1
 10
225.283038
 20
127.495585
 30
0.0
 10
225.294038
 20
127.350075
 30
0.0
 10
226.237308
 20
126.550915
 30
0.0
 10
227.379218
 20
125.719705
 30
0.0
  0
LINE
  5
27a
100
AcDbEntity
  8
Calque_1
 62
1
100
AcDbLine
 10
227.379218
 20
125.719705
 30
0.0
 11
229.455418
 21
124.208395
 31
0.0
  0
LINE
  5
27b
100
AcDbEntity
  8
Calque_1
 62
1
100
AcDbLine
 10
229.455418
 20
124.208395
 30
0.0
 11
228.937088
 21
122.544685
 31
0.0
  0
SPLINE
  5
27c
100
AcDbEntity
  8
Calque_1
 62
1
100
AcDbSpline
 70
8
 71
3
 72
8
 73
4
 74
0
 40
0
 40
0
 40
0
 40
0
 40
1
 40
1
 40
1
 40
1
 10
228.937088
 20
122.544685
 30
0.0
 10
228.203358
 20
120.189615
 30
0.0
 10
227.959278
 20
118.940705
 30
0.0
 10
228.232698
 20
118.940705
 30
0.0
  0
SPLINE
  5
27d
100
AcDbEntity
  8
Calque_1
 62
1
100
AcDbSpline
 70
8
 71
3
 72
8
 73
4
 74
0
 40
0
 40
0
 40
0
 40
0
 40
1
 40
1
 40
1
 40
1
 10
228.232698
 20
118.940705
 30
0.0
 10
228.362298
 20
118.940705
 30
0.0
 10
229.309378
 20
119.575705
 30
0.0
 10
230.337318
 20
120.351815
 30
0.0
  0
SPLINE
  5
27e
100
AcDbEntity
  8
Calque_1
 62
1
100
AcDbSpline
 70
8
 71
3
 72
8
 73
4
 74
0
 40
0
 40
0
 40
0
 40
0
 40
1
 40
1
 40
1
 40
1
 10
230.337318
 20
120.351815
 30
0.0
 10
231.365268
 20
121.127925
 30
0.0
 10
232.282278
 20
121.762925
 30
0.0
 10
232.375118
 20
121.762925
 30
0.0
  0
SPLINE
  5
27f
100
AcDbEntity
  8
Calque_1
 62
1
100
AcDbSpline
 70
8
 71
3
 72
8
 73
4
 74
0
 40
0
 40
0
 40
0
 40
0
 40
1
 40
1
 40
1
 40
1
 10
232.375118
 20
121.762925
 30
0.0
 10
232.467918
 20
121.762925
 30
0.0
 10
233.395018
 20
121.127925
 30
0.0
 10
234.435238
 20
120.351815
 30
0.0
  0
SPLINE
  5
280
100
AcDbEntity
  8
Calque_1
 62
1
100
AcDbSpline
 70
8
 71
3
 72
8
 73
4
 74
0
 40
0
 40
0
 40
0
 40
0
 40
1
 40
1
 40
1
 40
1
 10
234.435238
 20
120.351815
 30
0.0
 10
236.082128
 20
119.123075
 30
0.0
 10
236.904668
 20
118.686545
 30
0.0
 10
236.904668
 20
119.041285
 30
0.0
  0
LINE
  5
281
100
AcDbEntity
  8
Calque_1
 62
1
100
AcDbLine
 10
236.904668
 20
119.041285
 30
0.0
 11
236.904668
 21
119.041285
 31
0.0
  0
SPLINE
  5
282
100
AcDbEntity
  8
Calque_1
 62
1
100
AcDbSpline
 70
8
 71
3
 72
8
 73
4
 74
0
 40
0
 40
0
 40
0
 40
0
 40
1
 40
1
 40
1
 40
1
 10
224.880228
 20
132.674087
 30
0.0
 10
225.883938
 20
134.628137
 30
0.0
 10
226.904658
 20
136.226897
 30
0.0
 10
227.148508
 20
136.226897
 30
0.0
  0
SPLINE
  5
283
100
AcDbEntity
  8
Calque_1
 62
1
100
AcDbSpline
 70
8
 71
3
 72
8
 73
4
 74
0
 40
0
 40
0
 40
0
 40
0
 40
1
 40
1
 40
1
 40
1
 10
227.148508
 20
136.226897
 30
0.0
 10
227.392348
 20
136.226897
 30
0.0
 10
229.012558
 20
135.912817
 30
0.0
 10
230.748968
 20
135.528967
 30
0.0
  0
SPLINE
  5
284
100
AcDbEntity
  8
Calque_1
 62
1
100
AcDbSpline
 70
8
 71
3
 72
8
 73
4
 74
0
 40
0
 40
0
 40
0
 40
0
 40
1
 40
1
 40
1
 40
1
 10
230.748968
 20
135.528967
 30
0.0
 10
234.254398
 20
134.754047
 30
0.0
 10
234.789538
 20
134.694557
 30
0.0
 10
234.784688
 20
135.080357
 30
0.0
  0
SPLINE
  5
285
100
AcDbEntity
  8
Calque_1
 62
1
100
AcDbSpline
 70
8
 71
3
 72
8
 73
4
 74
0
 40
0
 40
0
 40
0
 40
0
 40
1
 40
1
 40
1
 40
1
 10
234.784688
 20
135.080357
 30
0.0
 10
233.331458
 20
137.508627
 30
0.0
 10
230.879478
 20
138.693087
 30
0.0
 10
229.511228
 20
141.310477
 30
0.0
  0
SPLINE
  5
286
100
AcDbEntity
  8
Calque_1
 62
1
100
AcDbSpline
 70
8
 71
3
 72
8
 73
4
 74
0
 40
0
 40
0
 40
0
 40
0
 40
1
 40
1
 40
1
 40
1
 10
229.511228
 20
141.310477
 30
0.0
 10
229.503228
 20
141.487067
 30
0.0
 10
230.290128
 20
143.103957
 30
0.0
 10
231.260258
 20
144.903577
 30
0.0
  0
SPLINE
  5
287
100
AcDbEntity
  8
Calque_1
 62
1
100
AcDbSpline
 70
8
 71
3
 72
8
 73
4
 74
0
 40
0
 40
0
 40
0
 40
0
 40
1
 40
1
 40
1
 40
1
 10
231.260258
 20
144.903577
 30
0.0
 10
232.230388
 20
146.703187
 30
0.0
 10
233.024138
 20
148.336947
 30
0.0
 10
233.024138
 20
148.534167
 30
0.0
  0
SPLINE
  5
288
100
AcDbEntity
  8
Calque_1
 62
1
100
AcDbSpline
 70
8
 71
3
 72
8
 73
4
 74
0
 40
0
 40
0
 40
0
 40
0
 40
1
 40
1
 40
1
 40
1
 10
233.024138
 20
148.534167
 30
0.0
 10
233.024138
 20
148.731387
 30
0.0
 10
231.358458
 20
148.114947
 30
0.0
 10
229.322628
 20
147.164297
 30
0.0
  0
LINE
  5
289
100
AcDbEntity
  8
Calque_1
 62
1
100
AcDbLine
 10
229.322628
 20
147.164297
 30
0.0
 11
225.621118
 21
145.435837
 31
0.0
  0
LINE
  5
28a
100
AcDbEntity
  8
Calque_1
 62
1
100
AcDbLine
 10
225.621118
 20
145.435837
 30
0.0
 11
223.908178
 21
147.269597
 31
0.0
  0
SPLINE
  5
28b
100
AcDbEntity
  8
Calque_1
 62
1
100
AcDbSpline
 70
8
 71
3
 72
8
 73
4
 74
0
 40
0
 40
0
 40
0
 40
0
 40
1
 40
1
 40
1
 40
1
 10
223.908178
 20
147.269597
 30
0.0
 10
222.966058
 20
148.278167
 30
0.0
 10
221.707998
 20
149.658867
 30
0.0
 10
221.112488
 20
150.337847
 30
0.0
  0
SPLINE
  5
28c
100
AcDbEntity
  8
Calque_1
 62
1
100
AcDbSpline
 70
8
 71
3
 72
8
 73
4
 74
0
 40
0
 40
0
 40
0
 40
0
 40
1
 40
1
 40
1
 40
1
 10
221.112488
 20
150.337847
 30
0.0
 10
220.516988
 20
151.016807
 30
0.0
 10
219.920288
 20
151.462857
 30
0.0
 10
219.786498
 20
151.329077
 30
0.0
  0
SPLINE
  5
28d
100
AcDbEntity
  8
Calque_1
 62
1
100
AcDbSpline
 70
8
 71
3
 72
8
 73
4
 74
0
 40
0
 40
0
 40
0
 40
0
 40
1
 40
1
 40
1
 40
1
 10
219.786498
 20
151.329077
 30
0.0
 10
219.652718
 20
151.195297
 30
0.0
 10
219.803098
 20
149.308377
 30
0.0
 10
220.120688
 20
147.135927
 30
0.0
  0
SPLINE
  5
28e
100
AcDbEntity
  8
Calque_1
 62
1
100
AcDbSpline
 70
8
 71
3
 72
8
 73
4
 74
0
 40
0
 40
0
 40
0
 40
0
 40
1
 40
1
 40
1
 40
1
 10
220.120688
 20
147.135927
 30
0.0
 10
220.438268
 20
144.963477
 30
0.0
 10
220.653678
 20
143.145627
 30
0.0
 10
220.599358
 20
143.096277
 30
0.0
  0
SPLINE
  5
28f
100
AcDbEntity
  8
Calque_1
 62
1
100
AcDbSpline
 70
8
 71
3
 72
8
 73
4
 74
0
 40
0
 40
0
 40
0
 40
0
 40
1
 40
1
 40
1
 40
1
 10
220.599358
 20
143.096277
 30
0.0
 10
219.514138
 20
142.530857
 30
0.0
 10
213.540558
 20
139.854177
 30
0.0
 10
213.821558
 20
139.436737
 30
0.0
  0
SPLINE
  5
290
100
AcDbEntity
  8
Calque_1
 62
1
100
AcDbSpline
 70
8
 71
3
 72
8
 73
4
 74
0
 40
0
 40
0
 40
0
 40
0
 40
1
 40
1
 40
1
 40
1
 10
213.821558
 20
139.436737
 30
0.0
 10
214.002548
 20
139.268527
 30
0.0
 10
215.737878
 20
138.787317
 30
0.0
 10
217.677838
 20
138.367367
 30
0.0
  0
SPLINE
  5
291
100
AcDbEntity
  8
Calque_1
 62
1
100
AcDbSpline
 70
8
 71
3
 72
8
 73
4
 74
0
 40
0
 40
0
 40
0
 40
0
 40
1
 40
1
 40
1
 40
1
 10
217.677838
 20
138.367367
 30
0.0
 10
219.617808
 20
137.947427
 30
0.0
 10
221.297628
 20
137.492447
 30
0.0
 10
221.410768
 20
137.356327
 30
0.0
  0
SPLINE
  5
292
100
AcDbEntity
  8
Calque_1
 62
1
100
AcDbSpline
 70
8
 71
3
 72
8
 73
4
 74
0
 40
0
 40
0
 40
0
 40
0
 40
1
 40
1
 40
1
 40
1
 10
221.410768
 20
137.356327
 30
0.0
 10
221.523908
 20
137.220207
 30
0.0
 10
221.813258
 20
135.441957
 30
0.0
 10
222.053768
 20
133.404657
 30
0.0
  0
SPLINE
  5
293
100
AcDbEntity
  8
Calque_1
 62
1
100
AcDbSpline
 70
8
 71
3
 72
8
 73
4
 74
0
 40
0
 40
0
 40
0
 40
0
 40
1
 40
1
 40
1
 40
1
 10
222.053768
 20
133.404657
 30
0.0
 10
222.294268
 20
131.367347
 30
0.0
 10
222.617998
 20
129.570153
 30
0.0
 10
222.773168
 20
129.410883
 30
0.0
  0
SPLINE
  5
294
100
AcDbEntity
  8
Calque_1
 62
1
100
AcDbSpline
 70
8
 71
3
 72
8
 73
4
 74
0
 40
0
 40
0
 40
0
 40
0
 40
1
 40
1
 40
1
 40
1
 10
222.773168
 20
129.410883
 30
0.0
 10
222.928338
 20
129.251613
 30
0.0
 10
223.876518
 20
130.720047
 30
0.0
 10
224.880228
 20
132.674087
 30
0.0
  0
LINE
  5
295
100
AcDbEntity
  8
Calque_1
 62
1
100
AcDbLine
 10
224.880228
 20
132.674087
 30
0.0
 11
224.880228
 21
132.674087
 31
0.0
  0
SPLINE
  5
296
100
AcDbEntity
  8
Calque_1
 62
1
100
AcDbSpline
 70
8
 71
3
 72
8
 73
4
 74
0
 40
0
 40
0
 40
0
 40
0
 40
1
 40
1
 40
1
 40
1
 10
220.324208
 20
156.809229
 30
0.0
 10
220.324208
 20
157.069897
 30
0.0
 10
220.006708
 20
158.205989
 30
0.0
 10
219.618658
 20
159.333884
 30
0.0
  0
SPLINE
  5
297
100
AcDbEntity
  8
Calque_1
 62
1
100
AcDbSpline
 70
8
 71
3
 72
8
 73
4
 74
0
 40
0
 40
0
 40
0
 40
0
 40
1
 40
1
 40
1
 40
1
 10
219.618658
 20
159.333884
 30
0.0
 10
219.230598
 20
160.461778
 30
0.0
 10
218.913098
 20
161.429852
 30
0.0
 10
218.913098
 20
161.485152
 30
0.0
  0
SPLINE
  5
298
100
AcDbEntity
  8
Calque_1
 62
1
100
AcDbSpline
 70
8
 71
3
 72
8
 73
4
 74
0
 40
0
 40
0
 40
0
 40
0
 40
1
 40
1
 40
1
 40
1
 10
218.913098
 20
161.485152
 30
0.0
 10
218.913098
 20
161.540452
 30
0.0
 10
219.905288
 20
162.349026
 30
0.0
 10
221.117948
 20
163.281990
 30
0.0
  0
LINE
  5
299
100
AcDbEntity
  8
Calque_1
 62
1
100
AcDbLine
 10
221.117948
 20
163.281990
 30
0.0
 11
223.322798
 21
164.978301
 31
0.0
  0
LINE
  5
29a
100
AcDbEntity
  8
Calque_1
 62
1
100
AcDbLine
 10
223.322798
 20
164.978301
 30
0.0
 11
220.518428
 21
165.154681
 31
0.0
  0
LINE
  5
29b
100
AcDbEntity
  8
Calque_1
 62
1
100
AcDbLine
 10
220.518428
 20
165.154681
 30
0.0
 11
217.714048
 21
165.331068
 31
0.0
  0
LINE
  5
29c
100
AcDbEntity
  8
Calque_1
 62
1
100
AcDbLine
 10
217.714048
 20
165.331068
 30
0.0
 11
217.047648
 21
167.624116
 31
0.0
  0
SPLINE
  5
29d
100
AcDbEntity
  8
Calque_1
 62
1
100
AcDbSpline
 70
8
 71
3
 72
8
 73
4
 74
0
 40
0
 40
0
 40
0
 40
0
 40
1
 40
1
 40
1
 40
1
 10
217.047648
 20
167.624116
 30
0.0
 10
216.681128
 20
168.885290
 30
0.0
 10
216.254398
 20
170.050114
 30
0.0
 10
216.099368
 20
170.212611
 30
0.0
  0
SPLINE
  5
29e
100
AcDbEntity
  8
Calque_1
 62
1
100
AcDbSpline
 70
8
 71
3
 72
8
 73
4
 74
0
 40
0
 40
0
 40
0
 40
0
 40
1
 40
1
 40
1
 40
1
 10
216.099368
 20
170.212611
 30
0.0
 10
215.944338
 20
170.375101
 30
0.0
 10
215.429758
 20
169.343237
 30
0.0
 10
214.955848
 20
167.919566
 30
0.0
  0
LINE
  5
29f
100
AcDbEntity
  8
Calque_1
 62
1
100
AcDbLine
 10
214.955848
 20
167.919566
 30
0.0
 11
214.094198
 21
165.331068
 31
0.0
  0
LINE
  5
2a0
100
AcDbEntity
  8
Calque_1
 62
1
100
AcDbLine
 10
214.094198
 20
165.331068
 30
0.0
 11
211.564788
 21
165.227421
 31
0.0
  0
SPLINE
  5
2a1
100
AcDbEntity
  8
Calque_1
 62
1
100
AcDbSpline
 70
8
 71
3
 72
8
 73
4
 74
0
 40
0
 40
0
 40
0
 40
0
 40
1
 40
1
 40
1
 40
1
 10
211.564788
 20
165.227421
 30
0.0
 10
210.173618
 20
165.170421
 30
0.0
 10
209.039468
 20
165.011671
 30
0.0
 10
209.044458
 20
164.874651
 30
0.0
  0
SPLINE
  5
2a2
100
AcDbEntity
  8
Calque_1
 62
1
100
AcDbSpline
 70
8
 71
3
 72
8
 73
4
 74
0
 40
0
 40
0
 40
0
 40
0
 40
1
 40
1
 40
1
 40
1
 10
209.044458
 20
164.874651
 30
0.0
 10
209.049458
 20
164.737634
 30
0.0
 10
209.915898
 20
163.990527
 30
0.0
 10
210.969878
 20
163.214420
 30
0.0
  0
SPLINE
  5
2a3
100
AcDbEntity
  8
Calque_1
 62
1
100
AcDbSpline
 70
8
 71
3
 72
8
 73
4
 74
0
 40
0
 40
0
 40
0
 40
0
 40
1
 40
1
 40
1
 40
1
 10
210.969878
 20
163.214420
 30
0.0
 10
212.023868
 20
162.438316
 30
0.0
 10
212.890858
 20
161.644569
 30
0.0
 10
212.896518
 20
161.450542
 30
0.0
  0
SPLINE
  5
2a4
100
AcDbEntity
  8
Calque_1
 62
1
100
AcDbSpline
 70
8
 71
3
 72
8
 73
4
 74
0
 40
0
 40
0
 40
0
 40
0
 40
1
 40
1
 40
1
 40
1
 10
212.896518
 20
161.450542
 30
0.0
 10
212.902518
 20
161.256512
 30
0.0
 10
212.588438
 20
160.082049
 30
0.0
 10
212.199318
 20
158.840616
 30
0.0
  0
SPLINE
  5
2a5
100
AcDbEntity
  8
Calque_1
 62
1
100
AcDbSpline
 70
8
 71
3
 72
8
 73
4
 74
0
 40
0
 40
0
 40
0
 40
0
 40
1
 40
1
 40
1
 40
1
 10
212.199318
 20
158.840616
 30
0.0
 10
211.810198
 20
157.599183
 30
0.0
 10
211.573568
 20
156.501717
 30
0.0
 10
211.673478
 20
156.401808
 30
0.0
  0
SPLINE
  5
2a6
100
AcDbEntity
  8
Calque_1
 62
1
100
AcDbSpline
 70
8
 71
3
 72
8
 73
4
 74
0
 40
0
 40
0
 40
0
 40
0
 40
1
 40
1
 40
1
 40
1
 10
211.673478
 20
156.401808
 30
0.0
 10
211.773378
 20
156.301908
 30
0.0
 10
212.776618
 20
156.935766
 30
0.0
 10
213.902888
 20
157.810392
 30
0.0
  0
LINE
  5
2a7
100
AcDbEntity
  8
Calque_1
 62
1
100
AcDbLine
 10
213.902888
 20
157.810392
 30
0.0
 11
215.950638
 21
159.400614
 31
0.0
  0
LINE
  5
2a8
100
AcDbEntity
  8
Calque_1
 62
1
100
AcDbLine
 10
215.950638
 20
159.400614
 30
0.0
 11
217.872838
 21
157.883634
 31
0.0
  0
SPLINE
  5
2a9
100
AcDbEntity
  8
Calque_1
 62
1
100
AcDbSpline
 70
8
 71
3
 72
8
 73
4
 74
0
 40
0
 40
0
 40
0
 40
0
 40
1
 40
1
 40
1
 40
1
 10
217.872838
 20
157.883634
 30
0.0
 10
219.950718
 20
156.243791
 30
0.0
 10
220.324208
 20
156.080101
 30
0.0
 10
220.324208
 20
156.809229
 30
0.0
  0
LINE
  5
2aa
100
AcDbEntity
  8
Calque_1
 62
1
100
AcDbLine
 10
220.324208
 20
156.809229
 30
0.0
 11
220.324208
 21
156.809229
 31
0.0
  0
LINE
  5
2ab
100
AcDbEntity
  8
Calque_1
 62
1
100
AcDbLine
 10
10.049714
 20
189.950176
 30
0.0
 11
299.950288
 21
189.950176
 31
0.0
  0
LINE
  5
2ac
100
AcDbEntity
  8
Calque_1
 62
1
100
AcDbLine
 10
299.950288
 20
189.950176
 30
0.0
 11
299.950288
 21
10.049715
 31
0.0
  0
LINE
  5
2ad
100
AcDbEntity
  8
Calque_1
 62
1
100
AcDbLine
 10
299.950288
 20
10.049715
 30
0.0
 11
10.049714
 21
10.049715
 31
0.0
  0
LINE
  5
2ae
100
AcDbEntity
  8
Calque_1
 62
1
100
AcDbLine
 10
10.049714
 20
10.049715
 30
0.0
 11
10.049714
 21
189.950176
 31
0.0
  0
ENDSEC
  0
SECTION
  2
OBJECTS
  0
DICTIONARY
  5
C
330
0
100
AcDbDictionary
  3
ACAD_GROUP
350
D
  3
ACAD_MLINESTYLE
350
17
  0
DICTIONARY
  5
D
330
C
100
AcDbDictionary
  0
DICTIONARY
  5
1A
330
C
100
AcDbDictionary
  0
DICTIONARY
  5
17
330
C
100
AcDbDictionary
  3
STANDARD
350
18
  0
DICTIONARY
  5
19
330
C
100
AcDbDictionary
  0
ENDSEC
  0
EOF
