<?xml version="1.0" encoding="UTF-8" standalone="no"?>
<!-- Created with Inkscape (http://www.inkscape.org/) -->

<svg
   xmlns:dc="http://purl.org/dc/elements/1.1/"
   xmlns:cc="http://creativecommons.org/ns#"
   xmlns:rdf="http://www.w3.org/1999/02/22-rdf-syntax-ns#"
   xmlns:svg="http://www.w3.org/2000/svg"
   xmlns="http://www.w3.org/2000/svg"
   xmlns:sodipodi="http://sodipodi.sourceforge.net/DTD/sodipodi-0.dtd"
   xmlns:inkscape="http://www.inkscape.org/namespaces/inkscape"
   width="210mm"
   height="297mm"
   viewBox="0 0 744.09448819 1052.3622047"
   id="svg4194"
   version="1.1"
   inkscape:version="0.91 r"
   sodipodi:docname="sapin.svg">
  <defs
     id="defs4196" />
  <sodipodi:namedview
     id="base"
     pagecolor="#ffffff"
     bordercolor="#666666"
     borderopacity="1.0"
     inkscape:pageopacity="0.0"
     inkscape:pageshadow="2"
     inkscape:zoom="0.49497475"
     inkscape:cx="785.15742"
     inkscape:cy="593.70112"
     inkscape:document-units="px"
     inkscape:current-layer="layer1"
     showgrid="false"
     inkscape:snap-page="true"
     inkscape:window-width="1366"
     inkscape:window-height="716"
     inkscape:window-x="0"
     inkscape:window-y="0"
     inkscape:window-maximized="1" />
  <metadata
     id="metadata4199">
    <rdf:RDF>
      <cc:Work
         rdf:about="">
        <dc:format>image/svg+xml</dc:format>
        <dc:type
           rdf:resource="http://purl.org/dc/dcmitype/StillImage" />
        <dc:title></dc:title>
      </cc:Work>
    </rdf:RDF>
  </metadata>
  <g
     inkscape:label="Calque 1"
     inkscape:groupmode="layer"
     id="layer1">
    <path
       style="fill:none;stroke:#000000"
       d="M 346.9082 30.914062 C 346.5021 30.932857 346.03036 31.604486 345.08984 32.947266 C 343.95507 34.567326 343.51057 36.854193 343.97266 38.695312 C 344.58617 41.139702 344.26068 41.751953 342.34961 41.751953 C 338.61176 41.751953 338.21709 45.066561 341.68359 47.337891 C 343.38277 48.451231 344.41005 49.948816 343.9668 50.666016 C 343.41219 51.563416 342.73596 51.546508 341.80078 50.611328 C 341.05338 49.863928 339.46256 49.251953 338.26562 49.251953 C 334.01442 49.251953 334.67429 51.709413 339.79102 54.939453 C 346.34364 59.075943 344.76929 61.53733 337.75391 58.125 C 333.11809 55.8701 330.94336 55.76116 330.94336 57.78125 C 330.94336 58.26587 333.19336 60.052363 335.94336 61.751953 C 338.69336 63.451543 340.94336 65.283879 340.94336 65.824219 C 340.94336 67.317569 329.47951 74.267512 328.25977 73.513672 C 327.67283 73.150932 327.19336 70.074654 327.19336 66.677734 C 327.19336 62.021084 326.73203 60.501953 325.31836 60.501953 C 323.8976 60.501953 323.44336 62.040649 323.44336 66.855469 C 323.44336 71.379909 322.99342 73.061712 321.88086 72.695312 C 321.02148 72.412293 320.15927 70.819197 319.9668 69.154297 C 319.22933 62.774947 318.32998 60.501953 316.54297 60.501953 C 315.31943 60.501953 314.69336 61.773393 314.69336 64.251953 C 314.69336 69.109203 312.35231 69.109203 311.38086 64.251953 C 310.56979 60.196633 307.94297 59.244635 306.67578 62.546875 C 305.94917 64.440405 305.72319 64.440405 303.63086 62.546875 C 301.32753 60.462385 295.94336 59.711679 295.94336 61.474609 C 295.94336 63.460279 299.89501 68.001953 301.62305 68.001953 C 302.7336 68.001953 303.30003 69.068923 303.11523 70.814453 C 302.85392 73.282693 303.31565 73.578795 306.88086 73.234375 C 311.61073 72.777435 312.13168 74.390929 308.13086 77.105469 C 306.01941 78.538079 305.66909 79.380445 306.73047 80.484375 C 307.80972 81.606915 309.34803 81.341951 313.22656 79.363281 C 319.67466 76.073701 321.54455 78.24409 315.39062 81.875 C 312.94414 83.31846 310.94336 85.28666 310.94336 86.25 C 310.94336 88.84034 315.21792 88.375403 317.81836 85.501953 C 319.06272 84.126953 320.77837 83.001953 321.63086 83.001953 C 323.37506 83.001953 324.65811 92.042984 323.5332 96.402344 L 322.81836 99.175781 L 317.52344 96.486328 C 314.61205 95.007128 311.86041 94.166931 311.4082 94.619141 C 310.21836 95.808981 313.28456 99.104085 317.72656 101.41016 C 322.93454 104.11388 319.64111 105.00289 313.50781 102.54883 C 309.30901 100.86881 308.46056 100.84998 307.17383 102.40039 C 305.97025 103.85062 306.30498 104.47152 308.93945 105.67188 C 310.72816 106.48687 312.19336 107.90724 312.19336 108.82812 C 312.19336 110.87082 309.46286 111.02146 307.52734 109.08594 C 306.74855 108.30715 305.13578 108.04437 303.94336 108.50195 C 302.29093 109.13605 302.12234 109.68094 303.23438 110.79297 C 305.42656 112.98514 305.01706 114.19043 301.64453 115.47266 C 299.96758 116.11024 297.9781 117.78351 297.22461 119.19141 C 295.99368 121.49141 296.2142 121.75195 299.39844 121.75195 C 301.34763 121.75195 303.68868 121.04883 304.59961 120.18945 C 305.92461 118.93945 306.3698 118.93945 306.82812 120.18945 C 307.90262 123.11991 312.00205 121.94612 312.42188 118.58789 C 312.93383 114.49271 315.20094 114.49271 315.71289 118.58789 C 316.37252 123.86433 319.3299 122.27885 320.24805 116.15625 C 321.32163 108.99709 322.93162 108.0095 324.02539 113.83984 C 324.74278 117.66382 324.29385 119.23827 321.26367 123.51758 C 317.65058 128.62008 317.63377 128.62593 310.37109 128.19141 L 303.09766 127.75586 L 306.08203 131.75781 C 307.72376 133.95859 309.56845 136.45257 310.18164 137.30078 C 310.79483 138.149 310.91612 140.87123 310.45117 143.34961 C 309.68075 147.45631 309.19811 147.89096 305.00195 148.24219 C 301.37617 148.54568 299.79136 149.53033 297.54492 152.875 C 294.32439 157.67 293.6969 156.05268 296.59961 150.43945 C 298.31137 147.1292 298.31 146.37054 296.57812 143.02148 C 295.05307 140.07234 294.95669 138.79613 296.12109 136.93164 C 297.3258 135.0026 297.08303 133.74567 294.79102 130.03711 C 293.24951 127.54289 291.57637 125.50195 291.07227 125.50195 C 290.56818 125.50195 289.21144 127.48266 288.05664 129.9043 C 286.39126 133.39665 286.26005 134.7947 287.42383 136.6582 C 288.59578 138.53479 288.46543 139.65606 286.77734 142.23242 C 284.7744 145.2893 284.79353 145.69738 287.12891 150.05469 C 288.48421 152.58339 289.27701 155.16116 288.89258 155.7832 C 288.00716 157.21584 283.74692 153.42971 282.76562 150.33789 C 282.34292 149.00609 280.85094 147.99437 279.29492 147.98438 C 274.08834 147.95181 270.94336 146.4905 270.94336 144.10547 C 270.94336 142.11375 269.98102 141.75195 264.69336 141.75195 C 261.25586 141.75195 258.44336 142.06199 258.44336 142.44141 C 258.44336 142.82083 259.70682 145.32894 261.25195 148.01367 C 263.48323 151.89059 264.61403 152.75581 266.74609 152.2207 C 268.78621 151.70866 269.96875 152.4567 271.67188 155.33984 C 273.57279 158.55784 274.77782 159.19081 279.61523 159.50586 C 286.98256 159.98566 287.0087 162.26584 279.65234 162.74609 C 275.21185 163.03599 273.72503 163.71181 272.77734 165.87109 C 272.11228 167.3864 270.44223 168.64823 269.06641 168.67383 C 265.32482 168.74342 263.17529 170.50092 264.04883 172.77734 C 264.47579 173.88992 264.4293 174.40391 263.94531 173.91992 C 262.88283 172.85744 259.66665 176.94924 260.50195 178.30078 C 260.82531 178.82399 263.58745 179.25195 266.64062 179.25195 C 270.58815 179.25195 272.19336 178.74152 272.19336 177.48633 C 272.19336 176.39431 274.14372 175.39246 277.31055 174.85742 C 281.41928 174.16326 282.94734 173.11467 285.05469 169.54297 C 288.3314 163.98937 289.47644 166.55052 286.58398 172.96484 C 284.604 177.35568 284.59473 177.9416 286.4707 180.80469 C 288.27058 183.55165 288.28836 184.07366 286.61914 185.45898 C 284.95578 186.83941 284.95144 187.3249 286.58984 189.66406 C 289.34157 193.5927 288.89604 194.83624 284.11133 196.56641 C 279.83039 198.11443 279.67316 198.0439 270.67383 190.61328 L 261.56836 183.0957 L 261.21094 195.50781 L 260.85547 207.92188 L 252.18945 213.89844 C 247.4226 217.18631 243.50422 220.24956 243.48242 220.70508 C 243.43717 221.64895 259.53396 228.00195 261.9707 228.00195 C 265.54041 228.00195 273.28121 256.13035 270.92383 260.53516 C 269.79809 262.63862 269.16161 262.86744 267.73047 261.67969 C 266.74717 260.86363 265.94336 259.17212 265.94336 257.92188 C 265.94336 253.61028 263.18732 253.95035 259.01758 258.77539 C 255.55956 262.77686 254.70655 263.2418 254.03516 261.49219 C 253.58965 260.33119 254.2282 257.68242 255.45508 255.60547 C 256.68196 253.52854 257.43456 251.63022 257.12695 251.38672 C 256.81934 251.14322 253.09119 248.31059 248.8418 245.0918 C 240.27966 238.60621 241.13997 238.18926 238.44141 250.13086 C 236.76437 257.55203 237.35296 259.25195 241.59766 259.25195 C 244.15304 259.25195 247.19336 262.26347 247.19336 264.79492 C 247.19336 265.18387 244.935 265.50195 242.17578 265.50195 L 237.1582 265.50195 L 239.05078 270.0293 C 241.51128 275.91811 241.4398 276.75195 238.47461 276.75195 C 236.98234 276.75195 235.21989 275.22917 234.01562 272.90039 C 232.54798 270.06226 231.46968 269.2825 229.91992 269.93555 C 228.76327 270.42294 225.00586 271.91847 221.56836 273.25781 C 218.13086 274.59716 214.86917 276.12528 214.32227 276.6543 C 213.77536 277.18331 216.49021 280.00311 220.35352 282.91992 C 226.85025 287.82501 227.54142 288.07245 229.57031 286.23633 C 231.82217 284.19843 237.19336 283.4861 237.19336 285.22461 C 237.19336 285.75915 236.27303 287.50658 235.15039 289.10938 C 233.43962 291.55184 233.38904 292.20153 234.83789 293.11914 C 235.78865 293.72129 237.83399 294.22242 239.38086 294.23242 C 240.92774 294.24295 242.19336 294.9832 242.19336 295.87695 C 242.19336 298.81691 239.46661 300.3073 235.32227 299.63477 L 231.24805 298.97461 L 229.8457 307.02734 C 228.12194 316.9259 228.09006 319.25195 229.67969 319.25195 C 230.35996 319.25195 234.6157 317.77083 239.13672 315.96094 L 247.35547 312.66992 L 246.57617 308.05078 C 246.03534 304.84964 246.32635 302.98926 247.52539 301.99414 C 248.91324 300.84232 249.69768 301.47994 251.48242 305.2168 L 253.70703 309.87695 L 257.21875 305.67578 C 259.15051 303.36498 261.34238 301.85175 262.08789 302.3125 C 263.92904 303.45038 263.80203 308.38473 261.88086 310.35547 C 260.6235 311.64527 261.17274 312.68411 264.69336 315.67969 L 269.06836 319.40234 L 266.11719 321.82812 C 261.62448 325.5195 259.69336 324.93234 259.69336 319.87695 C 259.69336 316.04361 259.30646 315.50195 256.56836 315.50195 C 253.83027 315.50195 253.44336 316.04361 253.44336 319.87695 C 253.44336 325.07789 252.31265 325.27318 246.21094 321.12695 C 240.36718 317.15601 239.43434 317.20236 239.92188 321.43945 C 240.21841 324.01664 241.96077 325.9354 246.88086 329.10742 C 250.93992 331.72432 253.44336 334.22776 253.44336 335.66992 C 253.44336 338.60169 253.62458 338.62599 246.72461 334.76953 L 240.94336 331.53906 L 240.94336 335.36328 C 240.94336 338.42294 241.75602 339.5999 245.00586 341.24609 C 252.01117 344.79459 253.44336 346.71238 253.44336 352.54688 C 253.44336 357.26094 253.04475 358.05402 250.3418 358.73242 C 248.35871 359.23014 245.76834 358.65256 243.1543 357.13086 C 239.3598 354.92198 239.02363 354.18524 238.44336 346.82617 C 237.90832 340.04069 237.41356 338.75204 235.00586 337.86719 C 232.33621 336.88606 232.19336 337.13739 232.19336 342.83398 C 232.19336 349.40838 231.59096 350.67148 228.94531 349.65625 C 227.6959 349.17681 227.19336 346.70198 227.19336 341.03711 C 227.19336 334.26037 226.80901 332.88506 224.58594 331.69531 C 221.21874 329.89324 221.0217 330.17482 220.75586 337.20312 C 220.49045 344.22012 219.58065 345.05597 215.27734 342.23633 C 212.37758 340.33635 211.84573 340.31443 210.13672 342.02344 C 208.42769 343.73246 208.64262 344.22474 212.21094 346.76562 L 216.19141 349.59961 L 210.3418 353.24023 C 205.5163 356.2437 204.75635 357.19762 205.99609 358.69141 C 208.13252 361.26564 210.84085 360.93783 216.56836 357.41016 C 219.31836 355.71639 222.51909 354.31252 223.68164 354.29102 C 228.07896 354.20986 227.08565 356.81404 221.36133 360.37695 L 215.42578 364.07031 L 218.81055 365.61133 C 222.35239 367.22509 223.49759 366.89873 231.07227 362.12109 C 234.1332 360.19044 234.61916 360.21988 239.19727 362.5957 C 243.15611 364.65017 244.06836 365.80085 244.06836 368.74805 C 244.06836 371.66967 243.14816 372.85815 239.33203 374.875 L 234.59766 377.37695 L 227.35352 373.46094 C 222.08646 370.61405 219.5395 369.8636 218.02539 370.71094 C 214.81091 372.50985 215.47515 373.74009 221.59766 377.32812 C 227.07912 380.54048 227.99171 383.00195 223.70117 383.00195 C 222.54952 383.00195 218.739 381.49999 215.23242 379.66406 C 209.21167 376.51179 204.69336 376.29574 204.69336 379.16016 C 204.69336 379.84026 207.24942 381.89485 210.375 383.72656 C 215.82197 386.9187 215.96466 387.14748 213.8125 389.24414 C 212.57754 390.44724 211.18492 391.21432 210.7168 390.94727 C 208.88073 389.89985 208.25218 393.34787 209.9668 395.0625 C 211.45702 396.55271 212.39298 396.60823 215.12109 395.36523 C 219.36543 393.43136 219.89639 394.0468 220.00195 401.0293 C 220.07228 405.68151 220.50978 406.75195 222.3457 406.75195 C 225.60882 406.75195 227.19336 402.89984 227.19336 394.95898 C 227.19336 389.70448 227.63838 388.00195 229.01172 388.00195 C 230.81692 388.00195 232.77227 394.54199 231.96875 397.89062 C 231.38339 400.33009 234.10655 400.90909 236.2207 398.79492 C 237.28931 397.72631 238.12419 394.22688 238.24609 390.30273 C 238.42103 384.67083 238.98896 383.1879 241.88477 380.82031 C 245.3853 377.9583 247.94206 377.4099 251.46484 378.76172 C 252.87792 379.30397 253.44336 381.18805 253.44336 385.36719 C 253.44336 391.1719 253.3925 391.24291 246.57227 394.92188 C 241.38325 397.72093 239.70027 399.31533 239.69727 401.43945 C 239.69173 405.00739 242.43715 405.07755 247.98242 401.65039 C 250.38952 400.16271 252.27366 399.62741 252.38086 400.40039 C 252.48399 401.14397 252.62456 402.41871 252.69336 403.23242 C 252.76211 404.04614 250.00586 406.15551 246.56836 407.91992 C 241.65934 410.43965 240.23254 411.86449 239.92188 414.56445 C 239.44944 418.67027 239.66687 418.70398 245.94336 415.50195 C 252.475 412.16975 253.44336 412.33115 253.44336 416.75195 C 253.44336 419.91861 253.92947 420.50195 256.56836 420.50195 C 259.20725 420.50195 259.69336 419.91861 259.69336 416.75195 C 259.69336 412.33115 260.66172 412.16975 267.19336 415.50195 C 273.31855 418.62679 273.44336 418.61867 273.44336 415.13867 C 273.44336 413.02381 271.81111 411.32386 267.19336 408.62695 C 263.38075 406.40026 260.94336 404.10509 260.94336 402.74023 C 260.94336 399.89178 261.86788 399.93159 266.91016 403.00586 C 272.23807 406.25429 273.44336 406.15347 273.44336 402.45508 C 273.44336 400.08727 272.05574 398.65215 267.21875 396.01953 C 260.24269 392.22268 259.48266 390.77299 260.73242 383.64062 C 261.77864 377.66989 264.14946 376.81423 271.04102 379.92188 C 275.82897 382.08095 275.8358 382.09358 276.20117 390.3418 C 276.4917 396.90082 277.00042 398.68414 278.66797 399.00195 C 280.29694 399.31241 280.96048 398.1091 281.63086 393.63867 C 282.2892 389.24855 282.97993 387.96869 284.53125 388.26367 C 286.09257 388.56053 286.65189 390.39711 286.92773 396.13867 C 287.17667 401.32035 287.92335 404.10819 289.35352 405.18945 C 292.78524 407.78399 293.44336 407.03064 293.44336 400.50195 C 293.44336 394.00558 294.24534 393.25701 298.66992 395.625 C 300.69294 396.70768 301.66428 396.55723 303.27539 394.91406 C 305.16835 392.98344 305.04876 392.61471 301.61719 389.84766 C 296.32652 385.58154 298.77366 384.4294 305.42188 388.05664 C 316.6986 394.20918 317.19719 394.9475 318.02539 406.75195 C 318.43539 412.5957 318.84153 417.47437 318.92773 417.59375 C 319.01388 417.71308 322.75769 414.82853 327.24609 411.18359 L 335.40625 404.55664 L 344.07617 407.05664 L 342.20312 424.86719 L 283.6875 424.83984 L 300.08789 458.60742 L 300.54688 468.99219 L 406.61328 468.99219 L 406.75586 458.82422 L 419.69336 424.90234 L 361.01758 424.875 L 359.26953 411.02734 L 361.88477 400.75781 C 363.28771 400.59882 364.61513 399.72703 367.19336 397.85938 C 372.71899 393.85662 373.44336 393.60297 373.44336 395.68164 C 373.44336 396.46816 371.44389 398.85879 369 400.99414 C 364.61755 404.82332 364.56762 404.97531 365.41602 412.01953 C 366.23089 418.78533 366.41561 419.08996 368.92188 417.80664 C 370.37703 417.06155 373.30427 414.81211 375.42578 412.80664 C 378.97818 409.44854 379.21563 408.71582 378.42969 403.53711 C 377.96038 400.44435 378.0122 397.64368 378.54492 397.31445 C 379.60132 396.66156 380.31387 398.68812 381.48828 405.67383 C 382.16494 409.69882 382.98003 410.5323 388.59375 412.94727 C 392.08139 414.4476 395.17629 415.43505 395.4707 415.14062 C 395.76512 414.84621 395.63281 411.4238 395.17578 407.53516 C 394.3666 400.65025 394.20041 400.40259 388.89258 398.05469 C 385.89469 396.72858 383.44336 395.06892 383.44336 394.36719 C 383.44336 393.66547 386.02 394.1947 389.16992 395.54492 C 394.3283 397.75605 395.16201 397.81517 397.57227 396.12695 C 403.85551 391.726 408.02468 395.16065 402.27344 400 C 400.16619 401.77313 398.44336 404.01816 398.44336 404.98828 C 398.44336 407.59927 402.25667 407.12767 405.45703 404.12109 C 408.79155 400.98846 410.45985 401.70974 411.57031 406.76562 C 412.48401 410.92566 413.62914 411.41505 415.94141 408.62891 C 417.12121 407.20735 417.1765 405.48888 416.16797 401.51562 C 415.43676 398.63473 415.12053 395.82274 415.46484 395.26562 C 416.7407 393.20124 418.60923 394.35975 419.87891 398.00195 C 422.44011 405.34899 425.49857 401.53318 423.64844 393.29883 C 422.59126 388.59369 422.78035 387.90566 425.98242 384.83789 C 429.4084 381.55559 429.49156 381.54195 430.83008 384.04297 C 431.57908 385.44249 432.19336 387.46848 432.19336 388.54492 C 432.19336 391.43283 435.11877 390.92689 438.94922 387.37695 C 440.80379 385.6582 442.52948 384.25195 442.7832 384.25195 C 443.0369 384.25195 443.61328 385.93367 444.06445 387.98828 C 444.51573 390.04291 445.43896 392.06717 446.11719 392.48633 C 446.7954 392.90549 445.06509 394.92799 442.27148 396.98242 C 439.40347 399.09159 437.19336 401.75883 437.19336 403.10938 C 437.19336 406.2441 438.00465 406.13271 443.02344 402.30469 C 446.68411 399.51256 447.31565 399.36776 448.00195 401.15625 C 448.52596 402.5218 447.27219 404.67616 444.24023 407.62109 C 441.73918 410.05036 439.69336 412.50178 439.69336 413.07031 C 439.69336 415.57916 442.2713 415.27407 445.74219 412.35352 C 449.83787 408.90722 449.91089 408.94611 452.125 415.81445 C 452.99259 418.50578 454.44302 420.50195 455.53125 420.50195 C 457.08834 420.50195 457.27255 419.37952 456.5625 414.2168 L 455.69922 407.93359 L 460.82031 408.75195 C 465.01512 409.42272 465.94336 409.21048 465.94336 407.58008 C 465.94336 405.32254 462.28058 403.00195 458.71875 403.00195 C 457.4051 403.00195 455.25889 401.80089 453.94922 400.33203 L 451.56836 397.66016 L 457.50586 398.5332 C 460.77149 399.01293 463.44336 399.13629 463.44336 398.80664 C 463.44336 396.11076 461.40447 394.25195 458.44727 394.25195 C 454.0985 394.25195 450.0458 390.92178 448.99609 386.48438 L 448.19336 383.08984 L 454.47266 383.83398 L 460.75195 384.57812 L 459.66602 379.76172 C 459.06865 377.11332 458.80442 374.72292 459.07812 374.44922 C 459.35183 374.17551 461.57945 374.32751 464.0293 374.78711 C 468.03853 375.53923 468.63577 376.19084 470.00195 381.29883 C 471.42479 386.61867 475.01594 390.51023 476.41406 388.24805 C 476.75733 387.69262 476.56392 385.12908 475.98242 382.55078 C 475.07594 378.53159 475.22007 377.91897 476.99609 378.25586 C 478.2824 378.49985 479.57145 380.73331 480.39648 384.14844 C 481.34057 388.05643 482.55672 389.95645 484.60156 390.71289 C 487.41104 391.75218 487.45908 391.64088 486.61523 386.01367 L 485.75195 380.25 L 491.00195 381.13672 C 494.7724 381.77373 496.53823 381.56171 497.26562 380.38477 C 498.50472 378.37986 497.63366 376.75195 495.32422 376.75195 C 494.37831 376.75195 492.07481 376.16986 490.20508 375.45898 L 486.80664 374.16797 L 490.125 370.70312 C 491.94999 368.79826 493.44336 366.8491 493.44336 366.37109 C 493.44336 364.3026 489.16956 365.80286 484.5957 369.47852 C 481.0002 372.36793 479.27099 373.08153 478.27344 372.08398 C 477.27588 371.08642 477.62482 369.93419 479.54688 367.87109 C 482.87469 364.29911 482.89138 363.00195 479.61133 363.00195 C 478.19194 363.00195 475.56787 364.74159 473.7793 366.86719 C 471.04294 370.11917 469.92177 370.61091 466.71094 369.96875 C 461.09545 368.84565 460.65213 367.72306 464.19531 363.59961 L 467.38672 359.88672 L 463.85156 358.375 C 461.90731 357.5441 459.61523 356.83959 458.75586 356.80859 C 456.76787 356.73686 456.76846 355.72125 458.75977 353.84961 C 463.49908 349.39511 464.32538 349.15964 470.38477 350.51758 C 475.06053 351.56544 476.57909 351.50401 477.38086 350.24023 C 479.06735 347.58191 478.64447 347.06746 474.06836 346.20898 C 469.58367 345.36765 468.31732 343.45137 471.45312 342.24805 C 472.42188 341.8763 475.27684 342.14012 477.79688 342.83594 C 480.31691 343.53171 483.18018 343.79402 484.16016 343.41797 C 487.46384 342.15023 485.98774 339.374 481.56836 338.54492 C 479.16211 338.0935 477.18764 337.36489 477.18164 336.92578 C 477.17544 336.48667 478.89428 334.70939 481.00195 332.97656 C 483.67497 330.77891 484.58257 329.17202 484.00391 327.66406 C 482.84413 324.64173 480.60616 324.9692 477.42578 328.62695 C 473.60625 333.0198 471.37444 332.56832 470.36719 327.19922 C 469.57636 322.9838 469.36049 322.79773 467.4668 324.69141 C 465.7594 326.39881 465.64222 327.56462 466.75781 331.74414 C 467.78187 335.58081 467.71835 337.26232 466.48633 338.93945 C 465.00995 340.94927 464.76884 340.83893 463.53516 337.60742 C 462.79631 335.67204 462.19336 333.56267 462.19336 332.91992 C 462.19336 331.52409 460.86219 331.44461 458.85938 332.71875 C 457.76244 333.41656 457.74313 335.14753 458.78516 339.70117 C 460.09753 345.43628 460.01018 345.87954 457.11914 348.10156 C 452.72423 351.47945 451.32733 351.06796 450.40039 346.12695 C 449.42441 340.92451 448.58026 340.73954 444.69336 344.87695 C 440.78961 349.0323 438.82012 348.81745 437.78906 344.12305 C 437.05502 340.78099 437.56568 339.599 441.48242 335.58789 C 444.54174 332.45486 445.76636 330.24851 445.22656 328.8418 C 444.3156 326.46788 445.99776 326.05636 448.08398 328.14258 C 450.36714 330.42574 452.19336 328.17036 452.19336 323.06641 C 452.19336 319.09234 451.44976 317.68633 447.81836 314.79102 C 443.6764 311.48865 441.60092 305.79266 445.00586 307.07227 C 451.98336 309.69448 452.19336 309.63197 452.19336 304.96094 C 452.19336 302.00666 452.77326 300.50195 453.91406 300.50195 C 456.71702 300.50195 458.24598 303.31874 458.66992 309.26758 C 459.00777 314.00848 459.6129 315.11804 462.65625 316.57031 C 466.7231 318.51099 468.38863 317.22009 468.42383 312.0957 C 468.44081 309.6281 468.80398 309.45173 471.64844 310.5332 C 476.36126 312.32501 478.20027 312.04099 479.66992 309.29492 C 480.7909 307.20035 480.41029 306.54035 477.08789 304.82227 L 473.18945 302.80664 L 476.11328 299.69531 L 479.03516 296.58398 L 475.92578 294.19531 C 472.17464 291.31319 468.05775 291.07926 465.94336 293.62695 C 464.14123 295.79839 458.978 296.1298 457.75586 294.15234 C 457.297 293.4099 458.10711 291.97231 459.55664 290.95703 C 462.91985 288.60134 462.88127 287.08875 459.38086 284.23242 C 456.7146 282.05675 456.68906 281.89 458.91211 281.02539 C 460.20185 280.52378 463.05538 280.76429 465.25195 281.55859 C 470.53047 283.46733 471.68777 283.39092 475.51562 280.88281 L 478.75 278.76172 L 475.43164 276.11523 L 472.11133 273.46875 L 475.27734 271.77344 C 478.95064 269.80756 479.06723 269.3206 476.64453 266.05273 C 475.06586 263.92332 474.50937 263.83234 472.10156 265.30469 C 468.92235 267.24874 467.24414 265.70869 467.21094 260.81445 C 467.1879 257.42896 466.09559 257.31815 461.05078 260.18945 C 457.60269 262.15196 457.20917 262.99251 457.20117 268.35547 C 457.19449 273.40653 456.75735 274.4959 454.38086 275.38281 C 451.83765 276.33195 451.52938 276.01734 451.17188 272.09375 C 450.86427 268.71775 450.30939 267.88531 448.67188 268.34961 C 447.51432 268.67781 445.758 269.15644 444.76758 269.41211 C 440.85944 270.42104 442.09666 265.58918 446.47266 262.75391 C 450.40429 260.20656 450.91393 259.2698 450.92773 254.56445 C 450.94345 249.1703 449.22728 247.71608 446.30078 250.64258 C 443.95599 252.98736 442.00096 250.49606 442.41211 245.6875 C 442.76852 241.51893 442.53475 241.1413 439.68555 241.29102 C 437.97087 241.38114 436.18138 241.52182 435.70898 241.60352 C 435.23658 241.6853 435.1569 243.6499 435.5332 245.96875 C 436.26699 250.49055 434.2474 253.05795 431.8457 250.65625 C 430.84094 249.65149 431.0665 248.02294 432.67383 244.65234 C 434.84874 240.09151 434.84037 239.99859 432.08203 237.91797 L 429.28516 235.80859 L 431.90625 234.4043 C 435.48487 232.48907 435.94336 232.61427 435.94336 235.50195 C 435.94336 238.06282 436.4538 238.21094 445.31836 238.21094 C 456.53005 238.21094 456.61793 238.06378 450.64844 229.45703 C 448.42473 226.25088 446.4306 223.36656 446.2168 223.04883 C 446.003 222.73112 444.70568 223.17267 443.33398 224.0293 C 440.36293 225.88476 438.44336 224.99031 438.44336 221.75195 C 438.44336 218.60475 440.3561 217.60098 443.32422 219.18945 C 445.45457 220.32958 446.31265 219.60176 450.22461 213.34766 C 456.61474 203.13169 456.45957 202.83007 445.00586 203.26172 C 435.909 203.60453 435.30879 203.80035 435.17383 206.47852 C 434.97685 210.38706 434.11439 210.95049 430.92969 209.24609 L 428.20312 207.78516 L 430.86914 205.30273 L 433.5332 202.82031 L 430.78906 198.22266 C 429.27927 195.69469 426.69873 191.79882 425.05469 189.56445 L 422.06445 185.50195 L 425.87891 185.50195 C 430.17911 185.50195 430.13337 185.57698 428.47266 181.20898 C 427.6614 179.07521 426.30241 177.99522 424.41016 177.98242 C 422.84627 177.9719 420.72461 177.4184 419.69336 176.75195 C 418.27054 175.83245 418.79809 175.53598 421.88086 175.52148 C 424.11524 175.51095 425.94336 175.18386 425.94336 174.79492 C 425.94336 172.16131 422.84242 169.41737 419.06641 168.70898 C 416.46817 168.22154 414.95558 167.33771 415.42383 166.58008 C 415.86428 165.8675 417.25434 165.55349 418.51367 165.88281 C 420.14129 166.30844 420.91418 165.7079 421.18555 163.80469 C 421.51615 161.48588 421.93856 161.75471 424.33789 165.81445 C 427.72881 171.55197 430.23155 172.0479 429.06836 166.75195 C 427.9505 161.66235 429.40831 162.01554 431.64844 167.37695 C 432.91929 170.41855 434.2802 171.75195 436.11523 171.75195 C 438.38131 171.75195 438.64976 171.22146 438.00586 168.00195 C 437.44371 165.19121 437.71766 164.25195 439.09961 164.25195 C 440.31489 164.25195 440.94336 162.9737 440.94336 160.50195 C 440.94336 158.43945 440.36531 156.75195 439.66016 156.75195 C 438.93005 156.75195 439.21405 155.13745 440.31836 153.00195 C 442.23046 149.30435 442.21117 149.25195 439.03906 149.25195 C 437.13255 149.25195 434.52996 150.6523 432.64844 152.68945 C 429.66384 155.92091 429.46146 155.39336 431.63867 150.03906 C 433.10192 146.44057 428.4559 146.83547 425.71484 150.54297 C 422.25396 155.22405 418.62615 155.79033 421.64844 151.17773 C 423.593 148.20995 423.55093 148.07682 420.43555 147.29492 C 416.00168 146.18208 417.64666 144.1559 422.23828 145.07422 C 425.65448 145.75746 429.69336 144.0048 429.69336 141.83984 C 429.69336 141.36923 428.14649 140.37403 426.25586 139.62695 L 422.81836 138.26758 L 427.25586 138.13477 C 434.45859 137.91893 437.09631 133.85488 431.43164 131.70117 C 428.90431 130.74029 428.48204 130.08698 429.55273 128.79688 C 430.59879 127.53646 430.30881 126.56715 428.36133 124.80469 C 426.16729 122.81912 425.62516 122.74299 424.66602 124.29492 C 423.72068 125.82451 423.24083 125.71797 421.65625 123.62109 C 420.61972 122.24944 419.75432 120.5807 419.73242 119.91211 C 419.71056 119.24351 418.75808 120.03047 417.61523 121.66211 C 415.90227 124.10771 415.78894 125.29424 416.96875 128.41992 C 418.80808 133.29286 417.66067 134.43708 414.77344 130.60938 C 412.63351 127.77241 412.46229 127.74162 411.21484 129.9707 C 410.34658 131.52217 410.317 133.08424 411.12695 134.59766 C 411.79965 135.85401 412.10433 138.1175 411.80469 139.62891 L 411.25977 142.37695 L 410.33008 139.56445 C 409.34172 136.57378 407.83738 135.94863 406.56836 138.00195 C 406.14346 138.68945 405.22058 139.25195 404.51758 139.25195 C 403.8146 139.25195 404.36609 137.42382 405.74414 135.18945 C 407.91021 131.67736 408.02948 130.71827 406.62695 128.10547 L 405.00586 125.08203 L 403.55469 127.79297 C 402.75707 129.28335 401.51626 130.50195 400.79688 130.50195 C 400.07749 130.50195 400.59969 128.67382 401.95703 126.43945 C 403.77665 123.4441 404.13338 121.61729 403.31836 119.48438 C 402.7104 117.89334 401.72251 116.89587 401.12109 117.26758 C 400.51965 117.63928 399.02071 116.83145 397.79102 115.47266 C 396.56134 114.11387 394.76009 113.00195 393.78906 113.00195 C 392.59506 113.00195 392.28022 112.19686 392.81445 110.51367 C 394.01734 106.7237 392.5689 105.38386 389.01758 107.00195 C 384.70482 108.96698 383.46353 107.06578 387.21094 104.23438 C 389.72071 102.3381 390.01283 101.58133 388.73242 100.29688 C 387.45039 99.010824 386.33758 99.14414 382.90234 100.99414 C 376.32582 104.53584 374.51806 102.68292 380.72656 98.763672 C 385.15903 95.965572 385.85804 95.031404 384.63086 93.552734 C 382.78486 91.328434 383.44271 91.188553 378.44336 94.876953 C 376.11372 96.595703 373.75316 98.001953 373.19922 98.001953 C 372.64528 98.001953 372.19336 94.626953 372.19336 90.501953 C 372.19336 86.376953 372.4961 83.001953 372.86719 83.001953 C 373.23833 83.001953 375.74813 84.126953 378.44336 85.501953 C 384.25776 88.468243 385.94336 88.626781 385.94336 86.207031 C 385.94336 85.219771 383.69336 83.147143 380.94336 81.601562 C 373.0468 77.163443 374.54782 75.09206 383.07812 78.65625 C 389.05686 81.15432 391.80345 79.039213 387.32812 75.382812 C 383.7144 72.430342 384.42052 71.234548 388.79688 72.898438 C 391.16527 73.798888 392.36502 73.674542 393.40625 72.419922 C 394.37522 71.252472 394.40616 70.471683 393.50391 69.914062 C 391.32415 68.566892 392.02636 66.950774 394.97461 66.527344 C 396.50427 66.307654 398.45875 64.720703 399.31836 63.001953 C 400.80935 60.020813 400.69772 59.858777 396.9043 59.466797 C 394.34359 59.202197 392.41361 59.758507 391.48438 61.029297 C 389.65702 63.528357 387.19336 63.584123 387.19336 61.126953 C 387.19336 57.607943 383.39768 59.167803 382.63086 63.001953 C 381.66083 67.852073 379.69336 67.852073 379.69336 63.001953 C 379.69336 60.118823 379.12968 59.251953 377.25781 59.251953 C 375.21893 59.251953 374.76171 60.269878 374.44531 65.517578 C 373.95606 73.631948 371.6787 73.631948 371.18945 65.517578 C 370.9204 61.055298 370.29062 59.251953 369.00195 59.251953 C 367.64174 59.251953 367.19336 60.959473 367.19336 66.126953 C 367.19336 69.908203 366.65361 73.001953 365.99414 73.001953 C 364.50441 73.001953 353.43215 66.380859 353.46875 65.511719 C 353.48342 65.162969 355.742 63.289346 358.48633 61.347656 C 363.44446 57.839656 364.00753 55.501953 359.89648 55.501953 C 358.71503 55.501953 356.46305 56.402526 354.89062 57.503906 C 350.22907 60.768986 349.96575 58.110143 354.57812 54.345703 C 359.40529 50.405973 358.93774 47.532267 353.67773 48.810547 C 350.41113 49.604397 350.37972 49.556064 352.50586 47.152344 C 355.36547 43.919384 355.27128 42.103853 352.19336 41.126953 C 350.79208 40.682203 349.69336 39.236058 349.69336 37.835938 C 349.69336 36.462068 349.0816 34.193815 348.33398 32.796875 C 347.65545 31.529025 347.31431 30.895268 346.9082 30.914062 z M 346.94727 69.701172 C 348.65042 69.702283 350.40032 70.200693 352.30859 71.1875 L 356.44336 73.326172 L 352.99805 76.289062 C 348.78277 79.914893 347.72184 79.945532 342.24609 76.607422 C 338.08309 74.069582 338.01409 73.907534 340.37109 72.183594 C 342.64521 70.52027 344.75749 69.699743 346.94727 69.701172 z M 360.02148 75.431641 C 361.15045 75.51632 362.61565 76.187603 364.41406 77.447266 C 366.48625 78.898686 367.19336 80.645676 367.19336 84.322266 C 367.19336 89.975596 366.79218 90.141185 361.25586 86.765625 C 357.91292 84.727395 357.19336 83.509731 357.19336 79.894531 C 357.19336 76.779287 358.13987 75.290508 360.02148 75.431641 z M 335.47266 75.628906 C 336.91416 75.544091 337.21578 77.137153 336.95117 80.751953 C 336.62786 85.168663 335.92303 86.378467 332.50586 88.367188 L 328.44336 90.732422 L 328.44336 85.136719 C 328.44336 80.567979 329.00814 79.169574 331.52344 77.521484 C 333.33326 76.335641 334.60775 75.679796 335.47266 75.628906 z M 345.81445 83.439453 C 346.22816 83.434887 346.68687 83.439844 347.19336 83.453125 C 349.94336 83.525225 352.19336 83.993661 352.19336 84.494141 C 352.19336 84.994621 353.41413 86.541531 354.90625 87.931641 C 357.36027 90.217921 357.4375 90.670039 355.7207 92.667969 C 354.67682 93.882759 353.47355 95.861323 353.04688 97.064453 C 352.62021 98.267583 351.83214 99.162764 351.29492 99.052734 C 350.75772 98.942714 348.49023 98.624936 346.25586 98.347656 C 343.60378 98.018536 342.19336 97.159417 342.19336 95.873047 C 342.19336 94.789267 341.20898 93.136842 340.00586 92.201172 C 337.92252 90.580952 337.92252 90.438213 340.00586 89.189453 C 341.20898 88.468293 342.19336 86.852319 342.19336 85.599609 C 342.19336 83.984542 342.91851 83.471413 345.81445 83.439453 z M 328.44336 91.505859 L 332.50586 94.070312 C 335.8347 96.170312 336.63621 97.545275 336.95117 101.69141 C 337.37365 107.25317 336.92971 107.49702 331.88281 104.45117 C 328.98111 102.69996 328.44731 101.53246 328.44531 96.941406 L 328.44336 91.505859 z M 365.2168 91.832031 C 366.6004 91.785241 367.19336 93.358316 367.19336 96.599609 C 367.19336 99.265429 366.47174 102.04543 365.58984 102.77734 C 364.70794 103.50926 362.56814 104.64611 360.83594 105.30469 C 357.87517 106.43038 357.66891 106.24666 357.39844 102.23047 C 357.17946 98.979018 357.91075 97.217079 360.45898 94.855469 C 362.58501 92.885131 364.14066 91.868424 365.2168 91.832031 z M 348.22852 103.47461 C 349.33297 103.54715 350.46246 103.98213 352.06445 104.81055 C 356.86432 107.29266 356.89945 108.14784 352.3125 110.85742 C 347.8902 113.46973 348.65563 113.50395 343.69336 110.47852 C 339.07541 107.66301 339.2324 106.5137 344.53711 104.31641 C 346.04413 103.69218 347.12406 103.40207 348.22852 103.47461 z M 366.49609 108.32617 C 366.61582 108.32364 366.70132 108.34585 366.75 108.39453 C 367.70161 109.34613 369.62826 123.3436 368.95703 124.42969 C 367.85704 126.2095 364.69336 125.63282 364.69336 123.65234 C 364.69336 122.63507 362.40632 120.63684 359.61133 119.21094 C 356.81634 117.78505 354.72824 116.01842 354.97266 115.28516 C 355.45195 113.84726 364.70027 108.36413 366.49609 108.32617 z M 372.64258 108.35352 C 372.90908 108.27394 373.35457 108.80738 374.10742 109.80273 C 375.11681 111.13726 375.94336 114.09038 375.94336 116.36523 C 375.94336 119.20842 376.52946 120.50195 377.81836 120.50195 C 379.07962 120.50195 379.69336 119.24104 379.69336 116.64844 C 379.69336 111.86599 382.63679 112.29374 383.21289 117.16016 C 383.62897 120.67478 387.70858 121.97573 388.79297 118.93945 C 389.73986 116.28817 390.75697 118.4455 390.11914 121.75195 C 389.5715 124.59085 388.90912 124.89236 382.88672 125.03516 C 376.51586 125.18623 376.17782 125.02562 374.22461 120.92969 C 373.10676 118.58554 372.21052 114.57628 372.23242 112.02148 C 372.25339 109.57156 372.29993 108.45583 372.64258 108.35352 z M 329.6582 109.25195 C 331.67611 109.25195 342.19336 114.67755 342.19336 115.71875 C 342.19336 116.2516 340.60476 117.50814 338.66406 118.51172 C 336.72336 119.51529 334.41018 121.21085 333.52344 122.2793 C 330.97844 125.34584 335.53586 126.40627 340.07227 123.80273 C 345.32285 120.78932 346.07644 122.55747 341.23633 126.53516 C 339.00015 128.37289 337.17564 130.58007 337.18164 131.43945 C 337.18782 132.29882 336.77148 132.93712 336.25586 132.85742 C 332.33168 132.25047 330.6422 131.12517 329.62109 128.43945 C 328.069 124.35727 328.09816 109.25195 329.6582 109.25195 z M 353.04688 122.16016 C 355.06053 122.09613 360.20555 125.14475 363.25195 128.40625 C 365.6218 130.94343 366.01645 132.32358 365.30078 135.58203 C 364.37384 139.80233 364.95078 139.99654 370.98633 137.48828 C 372.28549 136.94837 372.91997 137.40681 372.94727 138.9082 C 372.96939 140.12835 373.40853 142.39257 373.92383 143.93945 C 374.68191 146.21513 374.3949 146.75195 372.42188 146.75195 C 368.98468 146.75195 367.78666 151.81372 371.02344 152.66016 C 372.35395 153.00809 373.44336 154.07237 373.44336 155.02344 C 373.44336 157.40618 372.7086 157.202 369.71094 153.98438 C 368.27295 152.44088 367.46068 150.36665 367.875 149.29688 C 368.28377 148.24149 368.93608 145.80254 369.32422 143.87891 L 370.0293 140.38281 L 365.51367 142.53516 C 361.19827 144.59303 360.88364 144.58696 358.43945 142.375 C 357.03269 141.10189 356.10593 139.45643 356.37891 138.71875 C 356.65188 137.98107 355.68006 136.04504 354.2207 134.41797 L 351.56836 131.46094 L 355.51172 132.30469 C 360.33607 133.33718 362.57115 130.84787 358.96875 128.45508 C 353.25066 124.657 351.62214 123.15521 352.39062 122.38672 C 352.53524 122.24211 352.75921 122.1693 353.04688 122.16016 z M 324.36719 127.50586 L 325.26172 130.32617 C 325.75388 131.87682 327.65453 133.7184 329.48633 134.41992 L 332.81836 135.69531 L 330.00586 137.98633 C 328.45898 139.24626 327.19336 141.45395 327.19336 142.89062 C 327.19336 145.61988 325.39716 146.402 324.06836 144.25195 C 323.64346 143.56445 321.60342 143.00195 319.53516 143.00195 C 316.36767 143.00195 315.89701 142.61484 316.55273 140.54883 C 316.9809 139.19979 316.71657 136.94979 315.9668 135.54883 C 314.79395 133.35734 314.97459 133.00195 317.25977 133.00195 C 318.72064 133.00195 320.91884 131.76518 322.14258 130.25391 L 324.36719 127.50586 z M 382.33398 130 C 383.47173 130.01428 384.94255 130.32828 386.80078 130.87695 C 393.36237 132.81436 395.53698 134.8904 389.87305 133.81055 C 386.38215 133.14499 385.80562 133.34282 386.43555 134.98438 C 386.85182 136.06918 387.19336 137.44675 387.19336 138.04688 C 387.19336 138.647 389.16211 139.50757 391.56836 139.95898 C 396.26763 140.84057 397.58085 143.00195 393.41797 143.00195 C 391.35008 143.00195 391.03705 143.56648 391.67969 146.12695 C 393.00254 151.39763 389.58873 148.86628 387.88672 143.31445 C 387.41249 141.76757 386.54588 140.50195 385.96094 140.50195 C 385.376 140.50195 384.01721 140.16477 382.94141 139.75195 C 381.25446 139.1046 381.17302 139.5419 382.35742 142.93945 C 383.11272 145.10612 383.38613 147.2252 382.96289 147.64844 C 381.61479 148.99655 380.89717 147.27822 379.67383 139.76172 C 378.51089 132.61634 378.92075 129.95717 382.33398 130 z M 344.93164 130.50195 C 346.72087 130.50195 346.0072 132.71041 343.96484 133.49414 C 340.40372 134.86068 339.01702 134.21149 341.49414 132.33789 C 342.82867 131.3285 344.37554 130.50195 344.93164 130.50195 z M 340.29492 138.96094 C 340.89167 138.93379 341.37697 139.09321 341.78711 139.43359 C 342.63732 140.13921 344.00242 140.30431 344.82031 139.79883 C 345.88247 139.14237 346.08565 139.75979 345.5332 141.96094 C 345.05766 143.85561 345.51362 146.11704 346.71484 147.83203 C 348.31544 150.1172 349.04237 150.35487 350.74219 149.14844 C 351.88337 148.33851 350.9796 149.43767 348.73438 151.58984 C 343.57963 156.53091 341.5302 156.51425 338.94531 151.51562 L 336.88477 147.53125 L 335.12305 150.89062 C 334.15456 152.73906 333.09914 154.25195 332.77734 154.25195 C 332.45556 154.25195 332.19336 151.77624 332.19336 148.75 C 332.19336 143.91398 332.67969 142.93876 336.2168 140.69922 C 337.99638 139.57247 339.30034 139.00619 340.29492 138.96094 z M 406.2207 148.28711 C 406.6295 148.28711 407.20774 148.76027 408.25391 149.70703 C 409.49683 150.83186 411.17329 151.75195 411.97852 151.75195 C 412.78376 151.75195 413.44336 152.5957 413.44336 153.62695 C 413.44336 154.6582 412.88086 155.50195 412.19336 155.50195 C 411.50586 155.50195 410.94336 156.9082 410.94336 158.62695 C 410.94336 161.81319 409.23613 162.79887 407.78516 160.45117 C 407.34298 159.73571 405.90504 159.49211 404.58789 159.91016 C 402.65264 160.52438 402.19336 160.05434 402.19336 157.46094 C 402.19336 155.69585 401.63086 154.25195 400.94336 154.25195 C 400.25586 154.25195 399.69336 153.68945 399.69336 153.00195 C 399.69336 152.31445 400.75715 151.75195 402.05859 151.75195 C 403.36004 151.75195 404.77735 150.83186 405.20898 149.70703 C 405.57229 148.76027 405.8119 148.28711 406.2207 148.28711 z M 321.10352 150.75781 C 321.87669 150.69477 322.73554 151.03824 324.08008 151.75781 C 325.79214 152.67408 327.19336 154.10466 327.19336 154.93555 C 327.19336 155.76645 328.04943 157.15705 329.0957 158.02539 C 331.23003 159.79671 331.38003 166.68189 329.40234 172.06445 C 327.83329 176.33485 326.83725 176.38307 324.65039 172.29688 C 323.50999 170.16602 322.18233 169.28929 320.68945 169.67969 C 319.45469 170.00259 318.12875 169.75634 317.74219 169.13086 C 317.35562 168.50538 315.77367 168.31091 314.22656 168.69922 C 312.05668 169.24382 311.08028 168.67267 309.95508 166.20312 C 308.92079 163.93312 307.48766 162.97636 305.03125 162.91406 C 303.12588 162.86574 300.44336 162.34281 299.06836 161.75195 C 297.18477 160.94254 298.02331 160.65594 302.47266 160.58984 C 307.7656 160.51109 308.5841 160.10228 310.36914 156.65039 C 311.7372 154.00485 312.97792 153.03702 314.33203 153.55664 C 315.41624 153.97269 317.35252 153.36355 318.63477 152.20312 C 319.64176 151.29182 320.33034 150.82086 321.10352 150.75781 z M 382.77734 155.83008 C 382.87589 155.82369 382.95323 155.84581 383.00391 155.89648 C 383.40927 156.30186 382.82989 157.54315 381.7168 158.65625 C 379.19125 161.1818 379.15394 162.52768 381.58594 163.46094 C 382.74183 163.90448 384.77108 162.73992 386.79297 160.4707 C 388.61498 158.42579 390.68708 156.75195 391.39844 156.75195 C 392.17482 156.75195 392.09377 157.35154 391.19336 158.25195 C 389.02811 160.4172 389.33884 161.52365 392.24219 161.97852 C 396.35612 162.62306 394.44672 164.79283 390.0957 164.41797 C 387.1992 164.16842 385.76829 164.74194 384.80859 166.53516 C 383.6909 168.62359 383.95884 169.11065 386.5918 169.77148 C 391.3497 170.96564 390.37857 173.26613 385.44727 172.48242 C 382.55752 172.02317 380.71375 172.39656 379.66992 173.6543 C 378.12261 175.5187 373.27945 176.17202 371.82031 174.71289 C 371.38616 174.27874 371.61578 172.82856 372.33203 171.49023 C 373.04828 170.1519 373.32824 168.25683 372.95312 167.2793 C 371.87815 164.47796 368.49347 165.20448 367.23828 168.50586 C 365.51074 173.04963 364.11914 173.23512 361.75586 169.23438 C 357.65347 162.28956 363.60693 158.45946 372.50391 162.32031 C 374.09131 163.00916 375.72848 162.15681 378.47852 159.21289 C 380.30141 157.26147 382.08755 155.87478 382.77734 155.83008 z M 349.47461 157.6582 C 353.68393 157.89099 357.37622 161.64202 354.625 164.95703 C 353.60265 166.18888 354.35069 168.29365 357.63867 173.43359 C 361.3495 179.23455 361.77317 180.597 360.43164 182.43164 C 358.99883 184.39112 358.50903 184.1112 355.20898 179.44922 C 353.20609 176.61976 351.28189 174.2939 350.93164 174.2793 C 350.58139 174.26462 349.63716 175.30375 348.83398 176.58984 C 347.61278 178.5453 348.07915 179.97885 351.68945 185.33984 C 355.85651 191.52757 355.94161 191.88014 354.08789 195.46484 C 353.03161 197.50748 351.0844 199.75695 349.76172 200.46484 C 346.65067 202.12981 346.66118 202.13165 344.42188 199.56445 C 339.81958 194.28829 339.47894 192.08529 342.30273 185.88672 C 344.07831 181.98908 344.60272 179.38973 343.85547 178.20508 C 342.0521 175.34615 340.49949 176.04814 337.69922 180.98633 C 335.48855 184.88478 334.84504 185.3188 333.5625 183.77344 C 332.34757 182.30953 332.57831 180.89489 334.7168 176.70312 C 336.45442 173.2971 337.11553 170.36426 336.60352 168.32422 C 335.97422 165.81693 336.20526 165.34314 337.75391 165.96875 C 338.82008 166.39945 340.62536 167.1268 341.76562 167.58594 C 343.51338 168.28968 343.71761 167.8166 343.06836 164.57031 C 342.43599 161.40847 342.83755 160.36579 345.3125 158.74414 C 346.61082 157.89345 348.0715 157.58061 349.47461 157.6582 z M 294.48828 166.75195 C 295.17578 166.75195 296.95621 168.7207 298.44336 171.12695 C 300.4961 174.44836 301.99216 175.50195 304.66016 175.50195 C 306.63088 175.50195 308.49105 176.32551 308.89453 177.37695 C 309.29026 178.4082 310.61514 179.28843 311.83984 179.33203 C 313.57775 179.39386 313.44432 179.66202 311.22656 180.55273 C 308.75856 181.54393 308.58724 182.01916 309.93164 184.17188 C 311.16867 186.15266 313.10029 186.72319 319.54883 187.01367 C 329.64675 187.46856 331.35788 190.02922 322.36133 191.22266 C 316.63244 191.98262 316.23157 192.2493 317.57617 194.40234 C 318.7341 196.25649 320.54958 196.75195 326.17969 196.75195 C 332.87423 196.75195 333.52369 197.02425 336.67383 201.1543 C 339.91857 205.40837 339.95551 205.63972 337.79297 208.0293 C 336.29855 209.68063 333.94948 210.50195 330.72266 210.50195 C 326.41655 210.50195 325.45913 209.88975 321.92578 204.87695 C 319.17961 200.98093 317.07397 199.25195 315.07617 199.25195 C 311.41567 199.25195 311.45509 200.31498 315.31836 206.00781 C 317.03711 208.54054 318.44336 210.86842 318.44336 211.18164 C 318.44336 211.49485 317.45635 211.75195 316.25195 211.75195 C 315.04754 211.75195 312.07664 209.08007 309.64844 205.81445 C 306.25279 201.24771 304.56712 199.97129 302.34766 200.28711 C 299.94857 200.62849 299.58563 200.25964 300.20117 198.09961 C 302.54831 189.86305 302.63187 190.34386 299.0293 191.24805 C 295.99878 192.00866 295.75234 191.82161 296.5332 189.36133 C 297.0098 187.85972 296.77739 185.88232 296.01758 184.9668 C 294.98865 183.72702 295.17814 182.35689 296.76172 179.59766 C 298.80881 176.0308 298.78431 175.72308 296.06445 171.32227 C 294.51074 168.80832 293.80078 166.75195 294.48828 166.75195 z M 400.80859 169.25195 C 401.56965 169.25195 402.19336 170.06206 402.19336 171.05273 C 402.19336 174.02513 404.73149 174.65921 406.74414 172.18945 C 408.51822 170.01242 408.57866 170.06022 407.79297 173.00195 C 405.22971 182.59915 405.95088 185.63532 409.7168 181.09766 C 412.10042 178.22558 412.61064 179.79469 410.86328 184.62695 C 410.00586 186.99806 409.68356 189.92917 410.14844 191.14062 C 410.93274 193.1845 411.15693 193.19461 413.25391 191.29688 C 416.06029 188.75707 416.72915 188.74251 417.67188 191.19922 C 418.08288 192.27023 417.23983 195.4586 415.79883 198.2832 L 413.17969 203.41797 L 415.99023 205.53906 C 417.54959 206.71529 418.41115 208.29158 417.92383 209.08008 C 416.40018 211.5454 412.19336 210.75401 412.19336 208.00195 C 412.19336 205.71029 411.36002 205.50195 402.19336 205.50195 C 392.06563 205.50195 391.09464 204.98356 393.26953 200.73242 C 393.86191 199.5745 394.69557 197.16032 395.12305 195.36719 C 395.81547 192.46272 395.58034 192.16844 392.95703 192.66992 C 390.90361 193.06245 389.15113 195.07057 387.16797 199.30469 C 384.39498 205.22515 381.87325 207.47374 379.58984 206.0625 C 378.96949 205.67911 379.62715 203.07954 381.05273 200.28516 C 382.83052 196.80041 383.24021 194.80076 382.35742 193.91797 C 380.27878 191.83933 375.5263 195.81511 373.57812 201.26367 C 371.43189 207.26613 370.42379 207.95842 363.7793 207.98242 C 359.22816 207.99888 358.38389 207.58201 357.73438 204.99414 C 356.21907 198.9567 362.77347 193.00195 370.93359 193.00195 C 374.40836 193.00195 378.44336 190.26751 378.44336 187.91211 C 378.44336 187.27372 375.2274 186.75195 371.29883 186.75195 C 364.73049 186.75195 364.31788 186.59032 366.16992 184.73828 C 367.27763 183.63057 370.91548 182.43141 374.25195 182.07422 C 377.58844 181.717 381.03309 180.85693 381.9082 180.16211 C 383.09025 179.22359 383.3076 179.40046 382.75 180.85352 C 381.8739 183.13661 386.0579 185.85932 388.81641 184.80078 C 389.80875 184.41999 390.9563 184.98393 391.36719 186.05469 C 392.32079 188.53975 395.45366 188.57923 396.39844 186.11719 C 396.79645 185.07996 396.5605 182.75148 395.87305 180.94336 C 394.31121 176.83541 395.24219 175.60997 397.17773 179.22656 C 398.36105 181.43762 398.94754 181.63874 400.48438 180.36328 C 402.2493 178.89852 402.16932 176.40362 400.18945 171.24414 C 399.76921 170.14903 400.04754 169.25195 400.80859 169.25195 z M 269.06836 199.12695 L 273.37891 202.31836 C 275.75058 204.07436 278.56308 205.25526 279.62891 204.94141 C 280.69474 204.62756 283.04599 204.01797 284.85352 203.58789 L 288.14062 202.80664 L 286.86133 208.39648 C 285.73508 213.31818 285.90172 214.43569 288.26172 217.75 C 289.73576 219.8201 290.94336 221.84831 290.94336 222.25781 C 290.94336 222.66731 288.55273 223.02187 285.63086 223.04688 C 281.02319 223.08639 279.86501 223.68847 276.91016 227.58398 L 273.50391 232.07617 L 272.22266 228.70703 C 271.5183 226.85444 270.94336 224.51287 270.94336 223.50195 C 270.94336 222.49102 268.34211 220.54783 265.16406 219.18555 L 259.38672 216.70898 L 263.60156 213.87695 C 267.17187 211.47856 267.91405 210.13298 268.44336 205.08594 L 269.06836 199.12695 z M 298.6582 202.37695 L 302.30078 206.70508 C 306.28809 211.44274 306.75939 212.90873 304.38086 213.17969 C 303.52148 213.2776 300.96715 213.51209 298.70508 213.69922 C 294.26999 214.0661 294.25072 213.94219 297.4668 205.50195 L 298.6582 202.37695 z M 348.06641 207.26953 C 349.13107 207.18283 350.17184 207.59762 351.65039 208.56641 C 355.43341 211.04514 355.52127 213.53004 351.91406 216.05664 C 348.25487 218.61962 346.86267 218.51155 344.99414 215.51953 C 342.75336 211.9315 343.07896 209.53391 346.02539 207.95703 C 346.77911 207.55365 347.42761 207.32155 348.06641 207.26953 z M 394.38086 211.7793 C 394.89648 211.79397 396.90073 214.04397 398.83594 216.7793 C 402.43358 221.86436 403.94373 222.7256 405.33008 220.48242 C 406.47883 218.62371 408.44336 220.26215 408.44336 223.08008 C 408.44336 225.02376 407.68164 225.44701 404.64844 225.19336 C 401.17552 224.90292 400.49193 225.54249 396.55078 232.74219 L 392.24414 240.60547 L 401.90625 240.24219 C 411.41358 239.88339 411.57367 239.82218 411.96289 236.43945 C 412.18043 234.54882 412.82104 233.00195 413.38672 233.00195 C 414.92132 233.00195 420.52236 237.90987 419.06836 237.98047 C 418.38086 238.01387 417.03408 238.536 416.07617 239.14258 C 413.6233 240.69579 422.61797 256.98963 425.34961 255.94141 C 426.56315 255.47573 427.19703 256.02795 427.20703 257.55664 C 427.21555 258.83333 429.1843 261.14798 431.58203 262.70117 C 438.06875 266.9031 437.37813 271.95529 430.7832 268.54492 C 427.24544 266.71546 427.19273 266.7405 427.17383 270.1582 C 427.16331 272.06649 426.68254 274.37108 426.10547 275.28125 C 424.29048 278.14393 420.94336 273.45052 420.94336 268.04297 C 420.94336 263.66653 420.49476 263.04053 415.63086 260.625 L 410.31836 257.98633 L 409.69336 261.79297 C 409.34961 263.88675 408.50586 265.5072 407.81836 265.39258 C 404.80021 264.88954 403.64472 263.93223 404.22656 262.41602 C 404.57056 261.51957 403.06569 259.51333 400.88281 257.95898 C 397.12251 255.28141 396.94226 254.78596 397.46094 248.53125 L 398.00781 241.92969 L 392.25391 244.8457 C 387.13646 247.43891 386.15625 247.57217 383.4082 246.05078 L 380.31836 244.33984 L 383.68164 244.29688 C 387.49041 244.24672 388.7934 242.8709 387.70898 240.04492 C 387.16873 238.63707 384.78629 238.01142 378.94336 237.74414 C 370.01621 237.33576 367.53043 235.09733 375.31836 234.48047 C 381.46542 233.99358 383.16453 232.55408 380.86328 229.78125 C 379.46979 228.10221 377.75497 227.8491 371.91992 228.45898 L 364.70117 229.21289 L 361.33398 224.125 C 357.26541 217.97699 358.24258 215.461 365.35352 213.7793 C 369.74335 212.74114 370.40987 212.94968 373.40234 216.29883 C 375.19663 218.30699 377.57601 221.25325 378.69141 222.8457 C 380.15811 224.93972 381.43493 225.51407 383.30078 224.92188 C 385.85759 224.11038 385.85321 224.06015 382.78711 219.20312 C 379.0052 213.21217 378.99508 212.98953 382.50586 213.04883 C 384.34257 213.07981 386.50507 214.81454 388.74219 218.04883 C 391.19378 221.59319 393.05974 223.00195 395.30469 223.00195 C 399.09373 223.00195 399.17141 222.44755 395.94336 218.34375 C 393.43856 215.15941 392.6221 211.7292 394.38086 211.7793 z M 422.79883 215.64648 C 423.5224 215.55778 424.46155 215.95088 426.48633 216.7207 C 430.32971 218.18195 430.91668 223.67254 427.50586 226.26172 C 424.87726 228.2571 423.51947 228.33481 420.63086 226.65234 C 417.91132 225.06836 417.7888 220.08423 420.40625 217.4668 C 421.5665 216.30655 422.07525 215.73518 422.79883 215.64648 z M 332.74414 216.75195 C 341.38808 216.75195 342.95079 221.0228 337.05078 228.52344 C 334.88155 231.28118 333.52969 231.75195 327.77148 231.75195 C 322.38687 231.75195 320.77005 232.2384 319.73633 234.16992 C 317.75825 237.866 317.95747 238.00195 325.31836 238.00195 C 336.20633 238.00195 333.83617 242.12174 322.19336 243.43359 C 317.74842 243.93441 314.74333 244.98935 313.69336 246.41797 C 312.19771 248.45299 312.62817 248.65708 319.13477 249.00586 C 325.72679 249.35922 326.15 249.56842 325.46289 252.13086 C 325.05787 253.64132 324.71898 255.86132 324.70898 257.06445 C 324.69622 258.70064 323.6695 259.24682 320.63086 259.22852 C 314.7904 259.19339 302.8418 247.95065 303.94141 243.52539 C 304.35468 241.86222 305.0304 239.14199 305.44336 237.48047 C 306.18918 234.47968 306.16204 234.47151 301.38086 236.11914 C 298.03529 237.27203 296.0919 237.38352 295.00586 236.48633 C 291.95297 233.96432 293.53688 233.00195 300.74219 233.00195 L 308.04297 233.00195 L 309.68164 228.03516 C 311.35805 222.95558 315.08921 218.00195 317.24023 218.00195 C 318.93678 218.00195 318.65915 220.59449 316.56836 224.25195 C 313.95023 228.83189 314.24704 230.74016 317.50586 230.27734 C 319.42904 230.0042 321.42917 227.80187 323.83398 223.31445 C 327.2418 216.95536 327.51869 216.75195 332.74414 216.75195 z M 302.65625 219.25195 C 305.09284 219.25195 305.57663 219.75606 305.05469 221.75195 C 304.69512 223.12695 303.92297 224.25195 303.33984 224.25195 C 302.75671 224.25195 301.67924 223.12695 300.94336 221.75195 C 299.77521 219.56925 299.99165 219.25195 302.65625 219.25195 z M 349.49023 223.17383 C 351.17898 223.06345 353.0204 224.47723 355.25 227.40039 L 358.60547 231.79883 L 355.55469 238.45898 C 353.41655 243.12928 352.84986 245.73956 353.66016 247.1875 C 355.392 250.28211 356.45232 249.7508 359.55273 244.23438 C 361.10389 241.47443 362.89527 239.53934 363.5332 239.93359 C 365.47126 241.13139 364.8368 245.59773 362.10156 250.02344 C 360.67693 252.32855 359.82117 255.20638 360.19922 256.41992 C 360.68695 257.98551 359.53281 259.5346 356.22656 261.75195 C 350.36259 265.68465 349.69336 265.9745 349.69336 264.57422 C 349.69336 263.94927 351.08174 262.13383 352.7793 260.53906 C 356.53164 257.01392 355.65417 254.99807 350.79102 255.9707 C 347.82192 256.56452 347.19336 256.26778 347.19336 254.2793 C 347.19336 252.95384 347.83149 250.46585 348.61328 248.75 C 349.84605 246.04436 349.50625 244.80524 346.04297 239.4082 L 342.04883 233.18359 L 344.64648 228.09375 C 346.26612 224.91899 347.80149 223.28421 349.49023 223.17383 z M 286.79492 233.00195 C 287.86881 233.00195 288.43773 234.63529 288.42773 237.68945 C 288.4137 242.1217 288.00531 242.60067 280.92773 246.48828 C 276.81088 248.7496 273.44336 250.30104 273.44336 249.93555 C 273.44336 248.12478 285.36715 233.00195 286.79492 233.00195 z M 338.78516 241.41016 C 339.6706 241.52815 340.93463 242.78387 342.61523 245.20898 C 344.44549 247.85004 345.94336 250.40218 345.94336 250.88086 C 345.94336 251.35953 344.94522 251.75195 343.72656 251.75195 C 340.90718 251.75195 336.22264 243.47072 338.02344 241.66992 C 338.236 241.45735 338.49001 241.37083 338.78516 241.41016 z M 370.09375 249.61328 C 370.60221 249.60873 371.11281 250.23905 372.00781 251.36328 C 373.14114 252.78688 374.85264 254.18644 375.8125 254.47461 C 377.08068 254.85534 376.48169 256.22272 373.62305 259.47852 C 369.71555 263.92892 369.70909 263.96587 372.50391 264.71484 C 374.05146 265.12957 376.52565 265.47438 378.00195 265.48438 C 380.3166 265.49908 380.87587 266.59077 382.06445 273.41602 C 384.36466 286.62485 384.39477 286.55056 373.46875 295.18945 C 368.03427 299.48632 363.04574 303.00195 362.38281 303.00195 C 359.61715 303.00195 362.88678 297.59419 367.36133 294.76953 C 372.70804 291.39429 373.26157 290.00061 370.00586 288.0957 C 368.03778 286.94418 368.22586 286.49038 371.88086 283.56836 C 376.0375 280.24528 377.37662 276.35062 374.13672 277.00977 C 373.14377 277.21178 371.51664 276.27288 370.52148 274.92383 C 368.98225 272.83723 368.41325 272.72136 366.70312 274.14062 C 365.10099 275.47026 364.31458 275.49407 362.83203 274.26367 C 360.17615 272.05949 358.85756 275.9796 360.94336 279.87695 C 361.81356 281.50294 362.13172 283.85597 361.65039 285.10547 C 360.82264 287.25431 360.70841 287.25845 359.54688 285.18945 C 356.5718 279.88999 354.60172 284.94193 357.31836 290.9043 C 358.38718 293.2501 358.26853 294.72762 356.78906 297.52539 C 355.41923 300.11588 354.71602 300.60057 354.28125 299.25195 C 353.59184 297.11341 350.93941 277.15656 350.94141 274.12695 C 350.9423 273.02656 354.03711 269.65791 357.81836 266.64062 C 361.59961 263.62336 364.69527 260.30421 364.69727 259.26562 C 364.69984 258.22704 365.88198 255.44194 367.32422 253.07617 C 368.78858 250.6741 369.44001 249.61913 370.09375 249.61328 z M 387.93555 250.99805 C 391.06584 251.02328 391.74822 251.45555 391.25 252.75391 C 390.85331 253.78766 391.59938 255.43004 392.92773 256.45117 C 394.86069 257.93706 394.97231 258.41639 393.51367 258.95508 C 392.52149 259.3215 390.48443 260.84565 388.98828 262.3418 C 386.39273 264.93735 386.20425 264.95663 384.8457 262.78125 C 384.06259 261.52728 382.2373 260.50195 380.78906 260.50195 C 378.28268 260.50195 378.25203 260.35553 380.16016 257.44336 C 381.26272 255.76062 381.88246 253.65125 381.53906 252.75586 C 381.08792 251.57951 382.44778 251.09437 386.43945 251.00977 C 386.99021 250.99809 387.48836 250.99444 387.93555 250.99805 z M 287.74805 252 C 288.48103 252.07493 289.73746 254.11192 290.32031 256.76562 C 291.35775 261.489 292.58188 261.47099 295.99219 256.68164 C 298.35671 253.36099 299.22607 252.97224 302.64062 253.70312 C 307.66898 254.77945 307.57786 254.65649 306.60156 259.10156 C 305.98499 261.90876 304.51681 263.4552 300.88867 265.12695 C 298.20354 266.36418 295.99231 267.7874 295.97461 268.28906 C 295.95687 268.79071 298.09067 270.29697 300.7168 271.63672 C 304.94212 273.79232 305.65249 274.83807 306.88867 280.72461 C 307.65698 284.38321 308.66781 288.92382 309.13477 290.81445 C 309.6897 293.06121 309.48672 294.25195 308.54883 294.25195 C 307.05677 294.25195 306.64903 293.40792 305.4082 287.73438 C 304.90955 285.45435 304.07756 284.56634 302.87109 285.0293 C 301.88351 285.40828 298.43436 283.70011 295.20508 281.23438 C 291.97581 278.76864 288.93911 276.75195 288.45703 276.75195 C 287.97495 276.75195 286.56272 277.87695 285.31836 279.25195 C 282.90194 281.92206 278.44336 282.65559 278.44336 280.38281 C 278.44336 279.62956 279.60301 277.3827 281.02148 275.39062 C 283.97683 271.24024 283.34478 269.25195 279.06836 269.25195 C 277.43076 269.25195 275.70287 268.62758 275.23047 267.86328 C 274.09782 266.03062 276.97881 264.29538 281.19531 264.27148 C 284.02885 264.25543 284.78523 263.49555 285.87695 259.56445 C 286.59293 256.98633 287.18155 254.14018 287.18555 253.24023 C 287.1894 252.33627 287.41487 251.96594 287.74805 252 z M 332.65234 253.11523 C 333.47488 253.09043 334.36155 253.78087 335.38867 255.18555 C 336.41413 256.58795 336.5628 257.87951 335.80469 258.79297 C 334.99334 259.77058 336.05317 261.05856 339.19141 262.91016 C 341.70297 264.39202 343.48957 265.87176 343.16211 266.19922 C 342.83464 266.5267 339.65777 266.12361 336.10156 265.30273 C 331.21545 264.17485 329.28352 264.16179 328.19336 265.25195 C 327.1032 266.34211 327.87235 267.15909 331.3457 268.59766 C 333.87367 269.64469 337.84442 271.28838 340.16797 272.25 C 344.6729 274.1144 345.34733 276.21781 347.92773 296.43945 C 348.38831 300.04882 348.44217 303.00195 348.04883 303.00195 C 346.18696 303.00195 343.44336 296.969 343.44336 292.87695 C 343.44336 287.78395 340.52922 284.01896 339.22266 287.42383 C 338.03071 290.52997 335.94493 288.27998 335.92383 283.86523 C 335.89676 278.22375 334.20289 275.81368 331.7168 277.87695 C 329.20683 279.96005 328.08047 279.13009 325.42188 273.23438 C 323.25367 268.42618 323.26591 268.25501 326.14258 263.00977 C 327.75143 260.07622 329.62213 256.62539 330.30078 255.33984 C 331.07093 253.88096 331.82981 253.14004 332.65234 253.11523 z M 310.15234 259.59961 C 310.47872 259.60979 311.03496 260.07969 311.97852 260.93359 C 313.23578 262.0714 315.35687 263.00195 316.69336 263.00195 C 318.69501 263.00195 319.125 263.8833 319.125 268.00195 C 319.125 272.32951 318.75241 273.00195 316.35742 273.00195 C 314.83549 273.00195 313.24326 273.56445 312.81836 274.25195 C 311.52094 276.35122 309.69336 275.64686 309.69336 273.04688 C 309.69336 271.69607 308.43902 269.91797 306.90625 269.09766 L 304.11914 267.60742 L 306.90625 266.36328 C 308.71488 265.55625 309.69336 264.02204 309.69336 261.99219 C 309.69336 260.3323 309.73272 259.58652 310.15234 259.59961 z M 399.91992 263.26953 C 400.63479 263.30529 400.64273 264.19066 400.17969 266.50586 C 399.56116 269.59854 399.95244 270.55787 402.37109 271.875 C 405.30104 273.47056 405.29497 273.4844 400.94336 274.39844 C 397.84527 275.04917 395.9912 274.79764 394.59375 273.53516 C 391.68767 270.90976 391.26836 271.27839 391.42578 276.31055 C 391.58128 281.28145 389.13407 283.40235 387.86328 279.39844 C 386.88293 276.30964 392.75238 264.25195 395.23633 264.25195 C 396.19977 264.25195 397.87614 263.91236 398.96094 263.49609 C 399.36505 263.34102 399.68163 263.25761 399.91992 263.26953 z M 259.37695 269.01367 L 261.01758 272.71875 C 262.18749 275.36176 263.92875 276.73995 267.0918 277.52539 L 271.52734 278.62695 L 268.58203 281.36328 C 266.35404 283.43273 265.77407 285.04383 266.20508 287.98047 C 266.9208 292.85702 266.04694 293.40917 262.20312 290.50977 C 259.48368 288.45849 258.79428 288.4021 255.73828 289.98242 C 250.9881 292.43884 250.72866 292.293 251.59961 287.65039 C 252.19695 284.46634 251.79653 283.02969 249.81055 281.23242 C 246.6514 278.37342 247.48262 276.75195 252.10938 276.75195 C 254.80769 276.75195 256.06759 275.84848 257.50391 272.88281 L 259.37695 269.01367 z M 439.20898 277.25195 C 439.7757 277.10374 440.76614 277.88684 442.11328 279.56445 C 443.75769 281.61227 446.10059 283.00195 447.9082 283.00195 C 451.56785 283.00195 451.80311 284.78869 448.51562 287.60352 C 446.75647 289.10976 446.28409 290.65286 446.79688 293.2168 C 447.59112 297.18799 446.77444 297.49746 442.02539 295.01953 C 440.01644 293.97131 438.06704 293.7229 437.02539 294.38281 C 433.54892 296.58525 431.84825 295.66112 432.58594 291.97266 C 433.10661 289.3693 432.65596 287.98654 430.86719 286.69727 C 427.59471 284.3386 427.81591 283.00195 431.47852 283.00195 C 434.5198 283.00195 437.72423 280.68187 438.78711 277.71094 C 438.87935 277.45312 439.02008 277.30136 439.20898 277.25195 z M 318.15625 278.61523 C 318.74249 278.63963 319.39322 278.7225 320.11328 278.85938 C 324.83133 279.75621 324.1995 279.28461 325.24609 282.68945 C 325.94954 284.97795 325.6301 285.50195 323.52734 285.50195 C 319.75224 285.50195 320.36898 287.82598 324.38086 288.71875 C 331.24487 290.2463 332.19336 290.7009 332.19336 292.46094 C 332.19336 293.47238 330.96937 294.26947 329.38086 294.29297 L 326.56836 294.33594 L 329.51758 296.79297 C 331.14063 298.14509 333.72568 299.25195 335.26172 299.25195 C 337.85048 299.25195 340.54794 301.40453 342.70117 305.18945 C 344.33288 308.05765 341.20812 307.20153 322.61719 299.68164 L 314.91602 296.56641 L 314.05273 289.12695 C 313.13164 281.19081 314.05256 278.44446 318.15625 278.61523 z M 417.35742 280.50195 C 421.00124 280.50195 421.49615 283.19432 418.31055 285.69141 L 415.31836 288.03711 L 418.13086 290.40625 C 421.43951 293.19527 421.69958 294.94473 418.96484 295.99414 C 416.59102 296.90507 417.44868 297.11578 412.19336 294.31836 C 409.78738 293.03766 407.43393 292.22841 406.96289 292.51953 C 405.80749 293.23361 394.69336 287.7703 394.69336 286.48828 C 394.69336 285.92964 396.94336 285.83174 399.69336 286.27148 C 403.04372 286.80723 404.69336 286.60675 404.69336 285.66211 C 404.69336 284.88674 405.95898 284.23479 407.50586 284.21289 C 409.05273 284.19101 411.40962 283.34727 412.74414 282.33789 C 414.07867 281.3285 416.15439 280.50195 417.35742 280.50195 z M 280.72656 289.25195 C 281.99933 289.25195 283.69853 290.69566 284.50195 292.45898 C 285.94958 295.63616 286.71549 295.72398 292.85352 293.42773 C 293.56074 293.16315 295.17442 293.70389 296.43945 294.62891 C 298.43626 296.08901 298.52043 296.66198 297.07617 298.97461 C 294.6548 302.85183 296.54341 303.74486 301.50977 301.07031 C 307.76474 297.70178 308.20358 299.57191 302.27539 304.33594 C 297.26467 308.36265 295.67148 311.75195 298.78906 311.75195 C 299.66693 311.75195 303.32531 309.54274 306.91992 306.8418 C 314.20074 301.3711 313.75439 301.36562 328.44336 307.05859 C 332.91211 308.79053 337.69336 310.63428 339.06836 311.15625 C 341.1827 311.95887 340.83429 312.29366 336.81836 313.31836 C 332.99727 314.29335 331.63615 314.13596 329.8457 312.51562 C 326.59752 309.57605 322.98484 309.86686 323.80469 313.00195 C 324.32134 314.97761 323.84224 315.50195 321.52344 315.50195 C 319.90963 315.50195 318.24326 314.93945 317.81836 314.25195 C 317.39346 313.56445 315.79186 313.00195 314.25977 313.00195 C 311.87646 313.00195 311.44404 313.72405 311.27344 318.00195 C 311.16378 320.75195 311.60673 323.00195 312.25781 323.00195 C 312.90888 323.00195 313.44336 323.8457 313.44336 324.87695 C 313.44336 327.65444 315.71804 327.16319 320.13672 323.43359 C 324.01443 320.16059 324.07272 320.1522 324.4668 322.80859 C 324.9847 326.29961 327.38413 326.22032 331.7832 322.56641 C 335.50515 319.47494 342.75905 317.00756 342.00195 319.08984 C 341.60227 320.18907 320.07707 338.00195 319.14844 338.00195 C 318.92405 338.00195 314.94478 336.57391 310.30664 334.82812 C 305.66849 333.08232 301.61855 331.90878 301.30664 332.2207 C 299.90936 333.61797 303.76925 337.87486 307.0957 338.60547 C 309.11641 339.0493 311.51109 340.3147 312.41797 341.41602 C 313.90065 343.21658 313.5644 343.3182 309.06836 342.43945 C 306.31836 341.90195 302.94336 341.46281 301.56836 341.46289 C 300.19336 341.46299 297.76146 341.8858 296.16406 342.40234 C 293.4686 343.27395 293.28879 343.03728 293.66406 339.10938 C 293.92593 336.36858 294.72913 334.87228 295.94336 334.86328 C 297.3525 334.85285 297.71285 333.67123 297.39844 330.10547 C 297.05815 326.24625 297.61442 324.77341 300.37305 322.2168 C 304.15592 318.71096 303.45444 317.14956 297.82031 316.53516 C 294.86731 316.21313 293.59069 315.09927 291.79883 311.28125 C 289.34833 306.05988 289.39826 306.04145 285.19141 313.64062 C 284.43457 315.00776 282.32519 316.30591 280.50391 316.52344 C 277.3057 316.90546 277.19336 316.70246 277.19336 310.58594 C 277.19336 304.73956 276.96259 304.25195 274.20117 304.25195 C 271.28098 304.25195 269.0341 301.32714 270.33594 299.2207 C 270.69452 298.64051 273.03262 298.49882 275.53125 298.9043 L 280.07422 299.64062 L 279.24414 294.44727 C 278.52117 289.92604 278.71238 289.25195 280.72656 289.25195 z M 388.33594 290.50195 L 394.32617 292.87891 C 398.26262 294.44033 400.19981 295.90865 399.97266 297.16016 C 399.78254 298.20772 400.77885 299.87077 402.1875 300.85742 C 404.69038 302.6105 404.56979 306.75195 402.01562 306.75195 C 401.36689 306.75195 401.45363 307.87037 402.21289 309.28906 C 403.15684 311.05285 404.59823 311.71971 406.94336 311.47656 C 409.79878 311.18049 410.37812 311.65491 410.71289 314.56445 C 411.16719 318.51274 412.13854 318.74096 417.25391 316.0957 C 420.08374 314.63234 420.94336 313.32352 420.94336 310.4707 C 420.94336 305.0727 420.9423 305.07447 423.07422 302.71875 C 425.50433 300.0335 427.19336 300.94916 427.19336 304.95117 C 427.19336 308.31855 427.9982 308.58464 432.73633 306.7832 C 435.6352 305.68105 435.94336 305.85572 435.94336 308.61328 C 435.94336 312.21667 432.49665 314.42355 428.50195 313.37891 C 425.7355 312.65548 425.68183 312.81381 426.54688 319.10352 L 427.43555 325.57031 L 422.31445 324.75195 C 418.14596 324.08537 417.19336 324.29769 417.19336 325.89453 C 417.19336 327.16614 419.27929 328.44618 423.12109 329.53125 C 426.68812 330.53873 429.20513 332.01726 429.44141 333.24414 C 429.76882 334.94425 428.9917 335.17062 424.76367 334.60352 C 420.62589 334.04852 419.69336 334.2985 419.69336 335.9668 C 419.69336 337.34113 421.58265 338.51741 425.46094 339.55469 C 431.13932 341.07343 433.44336 343.75315 433.44336 348.84375 C 433.44336 350.78352 433.24519 350.77555 424.90234 348.46484 C 422.07086 347.6806 422.01291 347.82353 422.85742 353.45508 C 423.63146 358.61674 423.47041 359.23652 421.39648 359.10742 C 416.12997 358.7796 414.55819 357.52965 412.0332 351.66016 C 408.67524 343.85437 405.55194 343.24666 406.73242 350.62891 C 407.46024 355.18047 407.29132 355.70502 405.22266 355.30664 C 403.60159 354.99445 402.56973 353.2226 401.83008 349.48242 C 401.24538 346.52582 399.96137 343.79708 398.97852 343.41992 C 396.97649 342.65167 396.44509 334.25195 398.39844 334.25195 C 400.07147 334.25195 402.18428 338.50474 402.23828 341.98242 C 402.28287 344.85337 402.30622 344.84878 405.09766 341.43945 C 406.64564 339.54883 408.87544 338.00195 410.05273 338.00195 C 412.40159 338.00195 412.9771 334.88482 410.86914 333.58203 C 410.11012 333.11292 409.88627 331.2157 410.34375 329.13281 C 411.22748 325.10917 410.27477 324.6673 406.64062 327.41602 C 405.30609 328.42541 403.0561 329.23534 401.64062 329.21484 C 399.52168 329.18413 400.00849 328.35607 404.39844 324.52734 C 409.55044 320.034 410.81184 317.59181 408.66602 316.26562 C 408.10198 315.91703 404.59123 318.13338 400.86328 321.19141 C 397.13533 324.24943 393.57551 326.75195 392.95312 326.75195 C 392.33075 326.75195 385.95995 324.37238 378.79492 321.46484 C 367.61257 316.92711 366.14474 316.01176 368.42969 314.99219 C 370.20131 314.20167 372.45465 314.29619 375.16797 315.27734 C 380.96215 317.37254 385.13475 317.20829 384.25586 314.91797 C 383.18103 312.11697 385.60743 311.37544 388.71875 313.55469 C 392.79867 316.41238 396.39612 316.12247 395.58008 313.00195 C 395.22051 311.62695 395.43546 310.50195 396.05859 310.50195 C 397.83063 310.50195 397.3886 307.221 395.39258 305.56445 C 394.40219 304.7425 393.89895 303.26614 394.27539 302.28516 C 395.39521 299.36695 391.63178 300.23304 388.44336 303.62695 C 385.15683 307.1253 382.19336 307.71799 382.19336 304.87695 C 382.19336 302.04664 378.62892 302.6231 374.46484 306.12695 C 372.42222 307.8457 369.52733 309.22782 368.0332 309.19922 C 365.65347 309.15365 365.93837 308.59458 370.31836 304.68164 C 373.06836 302.22488 378.24611 298.02834 381.82617 295.35742 L 388.33594 290.50195 z M 276.86133 321.32812 C 277.51598 321.3119 278.06881 321.89869 279.01953 322.94922 C 280.87356 324.99791 281.00223 326.03041 279.82812 329.39844 C 279.05934 331.60377 278.65324 333.62981 278.92578 333.90234 C 279.19833 334.17488 281.31046 333.60726 283.61914 332.64062 L 287.81836 330.88281 L 287.40234 339.45312 C 287.06749 346.35973 286.52148 348.27286 284.58984 349.30664 C 282.36138 350.49927 282.19336 350.1044 282.19336 343.67188 C 282.19336 336.6236 281.43626 335.7308 277.32031 337.93359 C 275.49815 338.90879 275.18809 340.44211 275.55273 346.6875 C 275.98452 354.08311 275.90039 354.31476 271.90625 356.75 C 267.77173 359.27082 262.81923 360.03495 261.76758 358.31445 C 261.4524 357.79882 261.07494 355.9707 260.92969 354.25195 C 260.2863 346.63855 260.83965 345.55795 267.17383 342.06445 C 271.76643 339.53148 273.41053 337.88709 273.42383 335.81445 C 273.446 332.35146 272.21023 332.30431 265.89258 335.52734 L 260.94336 338.05273 L 260.94336 335.05469 C 260.94336 332.87633 262.00793 331.61361 264.83789 330.44141 C 266.98054 329.55388 270.5519 326.95735 272.77344 324.66992 C 275.01026 322.36674 276.01964 321.34898 276.86133 321.32812 z M 364.93359 322.00977 C 368.1238 322.22451 383.11585 327.58249 387.62305 330.21484 C 391.47361 332.46368 391.763 333.1699 393.99023 345.84961 C 394.50235 348.76513 395.33509 350.25303 396.16797 349.73828 C 396.96062 349.24837 397.26419 349.62023 396.9043 350.64062 C 396.54014 351.67312 395.08085 352.18272 393.30469 351.89844 C 387.24037 350.92785 384.29748 351.16565 383.7793 352.66797 C 383.45044 353.62144 385.431 354.79349 388.9707 355.74023 C 392.11786 356.58195 394.69336 357.99205 394.69336 358.87305 C 394.69336 359.75405 390.6952 363.38134 385.80859 366.93555 L 376.92383 373.39844 L 377.72656 379.45117 C 378.72451 386.97409 376.3369 387.78678 375.14453 380.33008 C 374.6896 377.4851 373.34687 374.32468 372.16016 373.30859 C 370.97268 372.29184 370.27275 370.42889 370.60352 369.16406 C 371.04242 367.4857 370.32703 366.64561 367.94922 366.04883 C 366.15845 365.59936 364.69336 364.3786 364.69336 363.33594 C 364.69336 361.8371 365.54391 361.63744 368.75586 362.38281 C 380.32947 365.06859 381.57452 362.33779 370.74414 358.02344 L 362.81836 354.86719 L 360.83984 341.12109 C 359.75189 333.56147 359.09702 327.0957 359.38477 326.75195 C 359.67252 326.4082 360.99471 327.46943 362.32422 329.10938 C 364.07798 331.27261 364.5369 333.18171 363.99609 336.06445 C 363.08302 340.93167 366.17623 344.59797 368.17773 341.02148 C 370.10489 337.57785 372.36734 340.17749 371.49414 344.83203 C 370.70024 349.06386 372.85874 352.21933 374.60938 349.38672 C 375.09716 348.59748 376.83892 348.10352 378.48047 348.28906 C 380.60437 348.52911 381.612 347.91505 381.97461 346.1582 C 382.25487 344.80035 383.40247 343.0094 384.52539 342.17773 C 386.30995 340.85599 385.98206 340.41913 381.91992 338.70898 C 379.36387 337.63291 376.55137 336.73479 375.66992 336.71289 C 374.70386 336.68893 375.01101 335.95968 376.44141 334.87695 C 378.40354 333.39178 378.5381 332.74868 377.22461 331.16602 C 376.35091 330.11329 374.27286 329.25195 372.60547 329.25195 C 369.53321 329.25195 362.22678 322.78118 364.45898 322.03711 C 364.56015 322.00339 364.72091 321.99545 364.93359 322.00977 z M 344.43555 326.07812 C 344.64415 326.28672 344.4587 327.87513 344.02344 329.60938 C 343.43845 331.94016 342.15368 332.96612 339.09961 333.53906 C 333.90201 334.51413 331.89816 339.25195 336.68359 339.25195 C 341.31238 339.25195 340.1167 343.19738 335.00391 344.79297 C 331.45776 345.89965 328.65191 350.50195 331.52344 350.50195 C 332.57888 350.50195 334.60439 351.66494 336.02539 353.08594 C 338.14553 355.20607 338.94792 355.3884 340.49609 354.10352 C 342.0213 352.83771 342.59489 352.87989 343.48633 354.32227 C 344.35253 355.7238 344.91438 355.77897 346.10938 354.58398 C 347.27891 353.41439 347.30149 351.98698 346.20312 348.4082 C 344.60961 343.21605 345.02861 341.93829 347.62109 344.08984 C 350.33688 346.34375 352.81957 342.75725 350.95508 339.27344 C 349.31498 336.20886 349.73877 328.62695 351.55078 328.62695 C 352.71766 328.62695 354.71374 337.77187 356.36719 350.69531 L 357.11133 356.51172 L 350.27734 361.67383 C 346.51827 364.51196 343.44336 367.37774 343.44336 368.04297 C 343.44336 370.39009 347.51328 369.20709 352.19141 365.50195 C 355.93181 362.5395 357.07259 362.1374 357.62695 363.58203 C 358.03805 364.65335 356.98835 366.46521 355.0918 367.95703 C 352.69147 369.84514 350.00577 370.50195 344.69727 370.50195 L 337.53906 370.50195 L 330.63867 361.43945 C 325.72797 354.99053 323.5808 350.97501 323.19531 347.51562 C 322.66043 342.71529 322.78896 342.5472 333.35547 334.17578 C 339.24096 329.51295 344.22696 325.86953 344.43555 326.07812 z M 435.14844 329.68359 C 435.26212 329.70081 435.39724 329.89364 435.54688 330.26758 C 435.90804 331.16992 435.86263 332.24869 435.44727 332.66406 C 435.0319 333.07942 434.73672 332.34114 434.79102 331.02344 C 434.8285 330.11332 434.95897 329.65491 435.14844 329.68359 z M 303.66406 346.80859 C 304.9442 346.75087 305.94336 347.05885 305.94336 347.76367 C 305.94336 348.31977 305.23269 349.74531 304.36523 350.93164 C 302.94322 352.87635 302.54346 352.90126 300.30273 351.19336 C 298.15628 349.55733 298.074 349.12847 299.69336 348.04492 C 300.82281 347.28917 302.38393 346.86631 303.66406 346.80859 z M 316.70312 347.86328 C 317.42097 347.74231 318.49026 349.75058 319.61328 353.93945 C 321.59207 361.32036 321.64841 364.76596 319.89258 371.12695 C 318.73026 375.33783 317.78336 376.35411 313.89258 377.56836 C 310.46 378.63963 308.69202 378.64922 307.01758 377.60352 C 305.21787 376.47959 303.36739 376.88193 297.82617 379.59961 C 290.47638 383.20428 289.35433 383.49691 288.02539 382.16797 C 286.39106 380.53365 287.26081 379.37381 292.19336 376.60156 C 297.84413 373.42566 298.26013 372.41083 294.69336 370.50195 C 292.00992 369.06581 289.58038 369.94002 283.20312 374.63672 C 280.2176 376.83548 279.39374 376.93203 275.9082 375.48828 C 273.74737 374.59323 271.25587 373.13673 270.37109 372.25195 C 267.64537 369.52624 269.52316 364.79479 274.2207 362.55469 C 278.38452 360.5691 278.7347 360.60812 284.88477 363.72461 C 288.9965 365.80817 292.29581 366.68379 294.21875 366.20117 C 298.45942 365.13682 297.91702 363.56845 292.19336 360.35156 C 282.87569 355.11475 287.46102 352.44676 297.25195 357.4082 C 302.73816 360.18827 304.3183 360.50352 306.88086 359.33594 C 309.30807 358.23003 309.64823 357.5788 308.50977 356.20703 C 307.44542 354.92456 307.43827 354.24883 308.48242 353.60352 C 309.25824 353.12403 310.72299 353.91766 311.73828 355.36719 C 314.29782 359.02144 316.17432 358.65945 315.9043 354.56445 C 315.61879 350.23445 315.98528 347.98425 316.70312 347.86328 z M 445.51953 351.83398 C 446.41438 351.89219 447.21749 352.51385 447.68359 353.72852 C 448.69913 356.37496 448.71936 356.29628 446.47852 358.53711 C 445.39817 359.61747 443.97441 360.50195 443.31445 360.50195 C 441.3129 360.50195 440.6651 357.10668 442.14062 354.34961 C 443.06787 352.61705 444.36901 351.75915 445.51953 351.83398 z M 430.86133 355.55664 C 432.80623 355.3655 437.19336 358.10416 437.19336 359.84961 C 437.19335 362.85811 431.27336 362.2656 430.28711 359.1582 C 429.83427 357.73139 429.79364 356.23369 430.19727 355.83008 C 430.3556 355.67174 430.58349 355.58395 430.86133 355.55664 z M 402.82812 360.67188 C 403.08252 360.66224 403.33079 360.67412 403.57422 360.70898 C 406.42262 361.11697 406.38983 361.22494 402.20508 365.12695 C 398.47784 368.60238 398.20378 369.23842 400.11719 369.97266 C 401.59913 370.54133 403.97083 369.4915 407.36523 366.76367 C 411.59344 363.36589 413.12423 362.82636 416.83008 363.42773 C 419.26192 363.82237 421.56577 364.45835 421.94922 364.8418 C 422.33267 365.22526 420.77587 367.46798 418.49023 369.82617 L 414.33594 374.11523 L 417.95117 374.91211 C 425.81894 376.64846 426.00756 376.94943 422.13281 381.60156 C 419.80439 384.39712 419.26192 384.49893 413.11328 383.2832 C 409.51521 382.57107 406.14736 382.24915 405.63086 382.56836 C 403.49604 383.88775 404.96096 385.43844 409.06836 386.20898 C 411.57407 386.67906 413.44336 387.77143 413.44336 388.76562 C 413.44336 389.8685 412.04853 390.50195 409.61914 390.50195 C 407.51607 390.50195 406.09636 390.01417 406.46484 389.41797 C 406.8333 388.82178 403.93053 387.15381 400.01367 385.71094 L 392.89258 383.08789 L 387.54297 386.22266 C 381.04273 390.03205 380.48244 388.35232 386.67773 383.62695 C 390.89654 380.40911 391.13822 379.84323 390.74023 374.10352 C 390.50749 370.74701 390.85304 368.00153 391.50781 368.00195 C 392.16258 368.00238 394.48778 366.26717 396.67578 364.14648 C 398.9971 361.89658 401.04736 360.73934 402.82812 360.67188 z M 454.70898 361.2207 C 456.1381 361.34077 457.19336 361.98328 457.19336 363.0918 C 457.19336 363.68155 456.10519 364.74724 454.77539 365.45898 C 451.85628 367.02125 450.84301 367.04619 448.58984 365.61914 C 447.2256 364.7551 447.51739 364.09763 449.97656 362.48633 C 451.47608 361.5038 453.27987 361.10063 454.70898 361.2207 z M 256.27539 363.34766 C 257.3 363.3013 258.44342 363.58375 259.64453 364.22656 C 262.76033 365.8941 263.15859 372.36452 260.21484 373.49414 C 254.94982 375.51452 251.18299 373.06546 251.91211 368.09766 C 252.34565 365.14378 254.02125 363.44964 256.27539 363.34766 z M 431.80664 366.75195 C 435.28435 366.75195 435.48415 368.14808 432.40625 370.93359 C 429.74899 373.33838 426.47529 373.62408 425.20117 371.5625 C 424.04933 369.69879 428.09537 366.75195 431.80664 366.75195 z M 446.65625 370.78906 C 447.06589 370.72169 447.70399 370.86336 448.65234 371.15039 C 450.25544 371.63559 452.03751 372.46711 452.61133 372.99805 C 453.18523 373.52898 453.46642 375.13993 453.23633 376.57812 C 452.86001 378.93052 452.50463 379.03636 449.69336 377.62891 C 447.97461 376.76842 446.38044 374.75987 446.15234 373.16602 C 445.92745 371.59456 445.97352 370.90134 446.65625 370.78906 z M 328.22461 371.08789 C 328.95514 371.16354 329.95784 372.1119 331.67969 374.1582 C 334.77963 377.84226 335.60364 378.17662 339.9082 377.48828 C 342.53917 377.06758 344.69336 376.97845 344.69336 377.29102 C 344.69336 377.6036 343.56296 379.77405 342.18164 382.11523 C 339.85055 386.06611 339.80049 386.74556 341.5 391.5625 C 343.49096 397.20547 343.25055 397.42612 337.35547 395.37109 C 333.84176 394.1462 332.90604 394.36553 329.04492 397.31055 L 324.69336 400.62891 L 324.69336 395.21094 C 324.69336 390.51531 324.19272 389.49562 320.94336 387.57617 C 316.09158 384.71015 316.21581 383.44347 321.56836 381.20703 C 324.7583 379.87418 325.94694 378.60108 325.96094 376.50391 C 325.97146 374.92195 326.48736 372.82545 327.10742 371.8457 C 327.44553 371.31148 327.78629 371.0425 328.22461 371.08789 z M 358.71289 371.7793 C 358.96887 371.79045 359.23275 372.40303 359.73633 373.62695 C 360.30208 375.00195 361.10695 377.71563 361.52539 379.65625 C 362.10058 382.32381 363.64591 383.7868 367.86328 385.65234 C 377.20485 389.78457 374.3966 392.36331 364.75586 388.50586 C 359.99122 386.59942 359.6202 386.62734 356.4375 389.13086 C 352.72484 392.05124 348.44336 392.6024 348.44336 390.16016 C 348.44336 389.2851 350.31249 385.73159 352.59766 382.26172 C 354.88284 378.79186 357.19293 374.86602 357.73047 373.53906 C 358.20894 372.35792 358.45691 371.76814 358.71289 371.7793 z M 438.96484 373.00195 C 441.1385 373.00195 442.19826 377.05194 440.7168 379.69922 C 439.24861 382.32276 434.69336 382.39519 434.69336 379.79492 C 434.69336 376.79954 437.08052 373.00195 438.96484 373.00195 z "
       id="path4772" />
    <path
       style="fill:none;stroke:#000000;stroke-linejoin:round;stroke-opacity:1"
       d="m 298.12762,475.79264 c -88.30273,-0.16865 -156.47353,28.03351 -137.09766,57.83594 15.76716,24.25179 105.90178,36.7765 200.61914,52.85742 56.20147,9.54177 70.80237,-9.55907 148.76367,-10.45117 37.93625,-0.4341 57.3278,-29.33388 51.85352,-42.40625 -8.61645,-20.57575 -103.95465,-37.7538 -200.61719,-52.85743 -21.69321,-3.38958 -43.14393,-4.93959 -63.52148,-4.97851 z m 5.91211,49.22265 106.55078,0 0,10.45899 -106.55078,0 0,-10.45899 z"
       id="path4796"
       inkscape:connector-curvature="0" />
  </g>
</svg>
