  0
SECTION
  2
HEADER
  9
$ACADVER
  1
AC1014
  9
$HANDSEED
  5
FFFF
  9
$MEASUREMENT
 70
     1
  0
ENDSEC
  0
SECTION
  2
TABLES
  0
TABLE
  2
VPORT
  5
8
330
0
100
AcDbSymbolTable
 70
     4
  0
VPORT
  5
2E
330
8
100
AcDbSymbolTableRecord
100
AcDbViewportTableRecord
  2
*ACTIVE
 70
     0
 10
0.0
 20
0.0
 11
1.0
 21
1.0
 12
210.0
 22
148.5
 13
0.0
 23
0.0
 14
10.0
 24
10.0
 15
10.0
 25
10.0
 16
0.0
 26
0.0
 36
1.0
 17
0.0
 27
0.0
 37
0.0
 40
341.0
 41
1.24
 42
50.0
 43
0.0
 44
0.0
 50
0.0
 51
0.0
 71
     0
 72
   100
 73
     1
 74
     3
 75
     0
 76
     0
 77
     0
 78
     0
  0
ENDTAB
  0
TABLE
  2
LTYPE
  5
5
330
0
100
AcDbSymbolTable
 70
     1
  0
LTYPE
  5
14
330
5
100
AcDbSymbolTableRecord
100
AcDbLinetypeTableRecord
  2
BYBLOCK
 70
     0
  3

 72
    65
 73
     0
 40
0.0
  0
LTYPE
  5
15
330
5
100
AcDbSymbolTableRecord
100
AcDbLinetypeTableRecord
  2
BYLAYER
 70
     0
  3

 72
    65
 73
     0
 40
0.0
  0
LTYPE
  5
16
330
5
100
AcDbSymbolTableRecord
100
AcDbLinetypeTableRecord
  2
CONTINUOUS
 70
     0
  3
Solid line
 72
    65
 73
     0
 40
0.0
  0
ENDTAB
  0
TABLE
  2
LAYER
  5
2
100
AcDbSymbolTable
 70
2
  0
LAYER
  5
50
100
AcDbSymbolTableRecord
100
AcDbLayerTableRecord
  2
0
 70
0
  6
CONTINUOUS
  0
LAYER
  5
51
100
AcDbSymbolTableRecord
100
AcDbLayerTableRecord
  2
Calque_1
 70
0
  6
CONTINUOUS
  0
ENDTAB
  0
TABLE
  2
STYLE
  5
3
330
0
100
AcDbSymbolTable
 70
     1
  0
STYLE
  5
11
330
3
100
AcDbSymbolTableRecord
100
AcDbTextStyleTableRecord
  2
STANDARD
 70
     0
 40
0.0
 41
1.0
 50
0.0
 71
     0
 42
2.5
  3
txt
  4

  0
ENDTAB
  0
TABLE
  2
VIEW
  5
6
330
0
100
AcDbSymbolTable
 70
     0
  0
ENDTAB
  0
TABLE
  2
UCS
  5
7
330
0
100
AcDbSymbolTable
 70
     0
  0
ENDTAB
  0
TABLE
  2
APPID
  5
9
330
0
100
AcDbSymbolTable
 70
     2
  0
APPID
  5
12
330
9
100
AcDbSymbolTableRecord
100
AcDbRegAppTableRecord
  2
ACAD
 70
     0
  0
ENDTAB
  0
TABLE
  2
DIMSTYLE
  5
A
330
0
100
AcDbSymbolTable
 70
     1
  0
DIMSTYLE
105
27
330
A
100
AcDbSymbolTableRecord
100
AcDbDimStyleTableRecord
  2
ISO-25
 70
     0
  3

  4

  5

  6

  7

 40
1.0
 41
2.5
 42
0.625
 43
3.75
 44
1.25
 45
0.0
 46
0.0
 47
0.0
 48
0.0
140
2.5
141
2.5
142
0.0
143
0.03937007874016
144
1.0
145
0.0
146
1.0
147
0.625
 71
     0
 72
     0
 73
     0
 74
     0
 75
     0
 76
     0
 77
     1
 78
     8
170
     0
171
     3
172
     1
173
     0
174
     0
175
     0
176
     0
177
     0
178
     0
270
     2
271
     2
272
     2
273
     2
274
     3
340
11
275
     0
280
     0
281
     0
282
     0
283
     0
284
     8
285
     0
286
     0
287
     3
288
     0
  0
ENDTAB
  0
TABLE
  2
BLOCK_RECORD
  5
1
330
0
100
AcDbSymbolTable
 70
     1
  0
BLOCK_RECORD
  5
1F
330
1
100
AcDbSymbolTableRecord
100
AcDbBlockTableRecord
  2
*MODEL_SPACE
  0
BLOCK_RECORD
  5
1B
330
1
100
AcDbSymbolTableRecord
100
AcDbBlockTableRecord
  2
*PAPER_SPACE
  0
ENDTAB
  0
ENDSEC
  0
SECTION
  2
BLOCKS
  0
BLOCK
  5
20
330
1F
100
AcDbEntity
  8
0
100
AcDbBlockBegin
  2
*MODEL_SPACE
 70
     0
 10
0.0
 20
0.0
 30
0.0
  3
*MODEL_SPACE
  1

  0
ENDBLK
  5
21
330
1F
100
AcDbEntity
  8
0
100
AcDbBlockEnd
  0
BLOCK
  5
1C
330
1B
100
AcDbEntity
 67
     1
  8
0
100
AcDbBlockBegin
  2
*PAPER_SPACE
  1

  0
ENDBLK
  5
1D
330
1B
100
AcDbEntity
 67
     1
  8
0
100
AcDbBlockEnd
  0
ENDSEC
  0
SECTION
  2
ENTITIES
  0
LINE
  5
100
100
AcDbEntity
  8
Calque_1
 62
1
100
AcDbLine
 10
103.125094
 20
345.624963
 30
0.0
 11
98.716448
 21
332.942599
 31
0.0
  0
LINE
  5
101
100
AcDbEntity
  8
Calque_1
 62
1
100
AcDbLine
 10
98.716448
 20
332.942599
 30
0.0
 11
85.292848
 21
332.669350
 31
0.0
  0
LINE
  5
102
100
AcDbEntity
  8
Calque_1
 62
1
100
AcDbLine
 10
85.292848
 20
332.669350
 30
0.0
 11
95.991809
 21
324.557448
 31
0.0
  0
LINE
  5
103
100
AcDbEntity
  8
Calque_1
 62
1
100
AcDbLine
 10
95.991809
 20
324.557448
 30
0.0
 11
92.103965
 21
311.706015
 31
0.0
  0
LINE
  5
104
100
AcDbEntity
  8
Calque_1
 62
1
100
AcDbLine
 10
92.103965
 20
311.706015
 30
0.0
 11
100.026445
 21
317.218758
 31
0.0
  0
SPLINE
  5
105
100
AcDbEntity
  8
Calque_1
 62
1
100
AcDbSpline
 70
8
 71
3
 72
8
 73
4
 74
0
 40
0
 40
0
 40
0
 40
0
 40
1
 40
1
 40
1
 40
1
 10
100.026445
 20
317.218758
 30
0.0
 10
91.385715
 20
293.226994
 30
0.0
 10
80.874855
 20
286.378519
 30
0.0
 10
70.312657
 20
280.000093
 30
0.0
  0
SPLINE
  5
106
100
AcDbEntity
  8
Calque_1
 62
1
100
AcDbSpline
 70
8
 71
3
 72
8
 73
4
 74
0
 40
0
 40
0
 40
0
 40
0
 40
1
 40
1
 40
1
 40
1
 10
70.312657
 20
280.000093
 30
0.0
 10
74.229307
 20
271.689877
 30
0.0
 10
81.013000
 20
269.751341
 30
0.0
 10
89.062483
 20
270.625186
 30
0.0
  0
SPLINE
  5
107
100
AcDbEntity
  8
Calque_1
 62
1
100
AcDbSpline
 70
8
 71
3
 72
8
 73
4
 74
0
 40
0
 40
0
 40
0
 40
0
 40
1
 40
1
 40
1
 40
1
 10
89.062483
 20
270.625186
 30
0.0
 10
82.640582
 20
243.828359
 30
0.0
 10
67.087946
 20
232.249803
 30
0.0
 10
46.875134
 20
228.437843
 30
0.0
  0
SPLINE
  5
108
100
AcDbEntity
  8
Calque_1
 62
1
100
AcDbSpline
 70
8
 71
3
 72
8
 73
4
 74
0
 40
0
 40
0
 40
0
 40
0
 40
1
 40
1
 40
1
 40
1
 10
46.875134
 20
228.437843
 30
0.0
 10
51.279516
 20
216.402460
 30
0.0
 10
60.004701
 20
210.754656
 30
0.0
 10
74.999872
 20
214.375222
 30
0.0
  0
SPLINE
  5
109
100
AcDbEntity
  8
Calque_1
 62
1
100
AcDbSpline
 70
8
 71
3
 72
8
 73
4
 74
0
 40
0
 40
0
 40
0
 40
0
 40
1
 40
1
 40
1
 40
1
 10
74.999872
 20
214.375222
 30
0.0
 10
61.063914
 20
178.305262
 30
0.0
 10
43.354808
 20
160.521541
 30
0.0
 10
23.437611
 20
153.437570
 30
0.0
  0
SPLINE
  5
10a
100
AcDbEntity
  8
Calque_1
 62
1
100
AcDbSpline
 70
8
 71
3
 72
8
 73
4
 74
0
 40
0
 40
0
 40
0
 40
0
 40
1
 40
1
 40
1
 40
1
 10
23.437611
 20
153.437570
 30
0.0
 10
29.241714
 20
142.826918
 30
0.0
 10
38.513830
 20
136.217784
 30
0.0
 10
56.250046
 20
139.374949
 30
0.0
  0
SPLINE
  5
10b
100
AcDbEntity
  8
Calque_1
 62
1
100
AcDbSpline
 70
8
 71
3
 72
8
 73
4
 74
0
 40
0
 40
0
 40
0
 40
0
 40
1
 40
1
 40
1
 40
1
 10
56.250046
 20
139.374949
 30
0.0
 10
45.223469
 20
107.665777
 30
0.0
 10
30.522127
 20
86.312637
 30
0.0
 10
9.374999
 20
83.124986
 30
0.0
  0
SPLINE
  5
10c
100
AcDbEntity
  8
Calque_1
 62
1
100
AcDbSpline
 70
8
 71
3
 72
8
 73
4
 74
0
 40
0
 40
0
 40
0
 40
0
 40
1
 40
1
 40
1
 40
1
 10
9.374999
 20
83.124986
 30
0.0
 10
24.900589
 20
56.692937
 30
0.0
 10
68.297246
 20
67.206429
 30
0.0
 10
101.718688
 20
64.496765
 30
0.0
  0
LINE
  5
10d
100
AcDbEntity
  8
Calque_1
 62
1
100
AcDbLine
 10
101.718688
 20
64.496765
 30
0.0
 11
101.718688
 21
195.624912
 31
0.0
  0
LINE
  5
10e
100
AcDbEntity
  8
Calque_1
 62
1
100
AcDbLine
 10
101.718688
 20
195.624912
 30
0.0
 11
104.531017
 21
195.624912
 31
0.0
  0
LINE
  5
10f
100
AcDbEntity
  8
Calque_1
 62
1
100
AcDbLine
 10
104.531017
 20
195.624912
 30
0.0
 11
104.531017
 21
64.496293
 31
0.0
  0
SPLINE
  5
110
100
AcDbEntity
  8
Calque_1
 62
1
100
AcDbSpline
 70
8
 71
3
 72
8
 73
4
 74
0
 40
0
 40
0
 40
0
 40
0
 40
1
 40
1
 40
1
 40
1
 10
104.531017
 20
64.496293
 30
0.0
 10
137.952526
 20
67.206081
 30
0.0
 10
181.349518
 20
56.692813
 30
0.0
 10
196.875187
 20
83.124986
 30
0.0
  0
SPLINE
  5
111
100
AcDbEntity
  8
Calque_1
 62
1
100
AcDbSpline
 70
8
 71
3
 72
8
 73
4
 74
0
 40
0
 40
0
 40
0
 40
0
 40
1
 40
1
 40
1
 40
1
 10
196.875187
 20
83.124986
 30
0.0
 10
175.728059
 20
86.312637
 30
0.0
 10
161.026720
 20
107.665752
 30
0.0
 10
150.000140
 20
139.374949
 30
0.0
  0
SPLINE
  5
112
100
AcDbEntity
  8
Calque_1
 62
1
100
AcDbSpline
 70
8
 71
3
 72
8
 73
4
 74
0
 40
0
 40
0
 40
0
 40
0
 40
1
 40
1
 40
1
 40
1
 10
150.000140
 20
139.374949
 30
0.0
 10
167.736356
 20
136.217759
 30
0.0
 10
177.008472
 20
142.826894
 30
0.0
 10
182.812575
 20
153.437570
 30
0.0
  0
SPLINE
  5
113
100
AcDbEntity
  8
Calque_1
 62
1
100
AcDbSpline
 70
8
 71
3
 72
8
 73
4
 74
0
 40
0
 40
0
 40
0
 40
0
 40
1
 40
1
 40
1
 40
1
 10
182.812575
 20
153.437570
 30
0.0
 10
162.895383
 20
160.521541
 30
0.0
 10
145.185786
 20
178.305262
 30
0.0
 10
131.249830
 20
214.375222
 30
0.0
  0
SPLINE
  5
114
100
AcDbEntity
  8
Calque_1
 62
1
100
AcDbSpline
 70
8
 71
3
 72
8
 73
4
 74
0
 40
0
 40
0
 40
0
 40
0
 40
1
 40
1
 40
1
 40
1
 10
131.249830
 20
214.375222
 30
0.0
 10
146.244998
 20
210.754656
 30
0.0
 10
154.970675
 20
216.402460
 30
0.0
 10
159.375052
 20
228.437843
 30
0.0
  0
SPLINE
  5
115
100
AcDbEntity
  8
Calque_1
 62
1
100
AcDbSpline
 70
8
 71
3
 72
8
 73
4
 74
0
 40
0
 40
0
 40
0
 40
0
 40
1
 40
1
 40
1
 40
1
 10
159.375052
 20
228.437843
 30
0.0
 10
139.162243
 20
232.249828
 30
0.0
 10
123.609123
 20
243.828359
 30
0.0
 10
117.187219
 20
270.625186
 30
0.0
  0
SPLINE
  5
116
100
AcDbEntity
  8
Calque_1
 62
1
100
AcDbSpline
 70
8
 71
3
 72
8
 73
4
 74
0
 40
0
 40
0
 40
0
 40
0
 40
1
 40
1
 40
1
 40
1
 10
117.187219
 20
270.625186
 30
0.0
 10
125.236705
 20
269.751341
 30
0.0
 10
132.020884
 20
271.689877
 30
0.0
 10
135.937529
 20
280.000093
 30
0.0
  0
SPLINE
  5
117
100
AcDbEntity
  8
Calque_1
 62
1
100
AcDbSpline
 70
8
 71
3
 72
8
 73
4
 74
0
 40
0
 40
0
 40
0
 40
0
 40
1
 40
1
 40
1
 40
1
 10
135.937529
 20
280.000093
 30
0.0
 10
125.375333
 20
286.378494
 30
0.0
 10
114.864468
 20
293.226994
 30
0.0
 10
106.223743
 20
317.218758
 30
0.0
  0
LINE
  5
118
100
AcDbEntity
  8
Calque_1
 62
1
100
AcDbLine
 10
106.223743
 20
317.218758
 30
0.0
 11
114.145740
 21
311.706015
 31
0.0
  0
LINE
  5
119
100
AcDbEntity
  8
Calque_1
 62
1
100
AcDbLine
 10
114.145740
 20
311.706015
 30
0.0
 11
110.257896
 21
324.557448
 31
0.0
  0
LINE
  5
11a
100
AcDbEntity
  8
Calque_1
 62
1
100
AcDbLine
 10
110.257896
 20
324.557448
 30
0.0
 11
120.957338
 21
332.669350
 31
0.0
  0
LINE
  5
11b
100
AcDbEntity
  8
Calque_1
 62
1
100
AcDbLine
 10
120.957338
 20
332.669350
 30
0.0
 11
107.533254
 21
332.942599
 31
0.0
  0
LINE
  5
11c
100
AcDbEntity
  8
Calque_1
 62
1
100
AcDbLine
 10
107.533254
 20
332.942599
 30
0.0
 11
103.125094
 21
345.624963
 31
0.0
  0
SPLINE
  5
11d
100
AcDbEntity
  8
Calque_1
 62
1
100
AcDbSpline
 70
8
 71
3
 72
8
 73
4
 74
0
 40
0
 40
0
 40
0
 40
0
 40
1
 40
1
 40
1
 40
1
 10
85.648951
 20
278.351482
 30
0.0
 10
85.648951
 20
276.539298
 30
0.0
 10
84.179886
 20
275.070233
 30
0.0
 10
82.367702
 20
275.070232
 30
0.0
  0
SPLINE
  5
11e
100
AcDbEntity
  8
Calque_1
 62
1
100
AcDbSpline
 70
8
 71
3
 72
8
 73
4
 74
0
 40
0
 40
0
 40
0
 40
0
 40
1
 40
1
 40
1
 40
1
 10
82.367702
 20
275.070232
 30
0.0
 10
81.497460
 20
275.070232
 30
0.0
 10
80.662861
 20
275.415934
 30
0.0
 10
80.047507
 20
276.031287
 30
0.0
  0
SPLINE
  5
11f
100
AcDbEntity
  8
Calque_1
 62
1
100
AcDbSpline
 70
8
 71
3
 72
8
 73
4
 74
0
 40
0
 40
0
 40
0
 40
0
 40
1
 40
1
 40
1
 40
1
 10
80.047507
 20
276.031287
 30
0.0
 10
79.432153
 20
276.646641
 30
0.0
 10
79.086451
 20
277.481240
 30
0.0
 10
79.086451
 20
278.351482
 30
0.0
  0
SPLINE
  5
120
100
AcDbEntity
  8
Calque_1
 62
1
100
AcDbSpline
 70
8
 71
3
 72
8
 73
4
 74
0
 40
0
 40
0
 40
0
 40
0
 40
1
 40
1
 40
1
 40
1
 10
79.086451
 20
278.351482
 30
0.0
 10
79.086451
 20
279.221724
 30
0.0
 10
79.432153
 20
280.056323
 30
0.0
 10
80.047507
 20
280.671677
 30
0.0
  0
SPLINE
  5
121
100
AcDbEntity
  8
Calque_1
 62
1
100
AcDbSpline
 70
8
 71
3
 72
8
 73
4
 74
0
 40
0
 40
0
 40
0
 40
0
 40
1
 40
1
 40
1
 40
1
 10
80.047507
 20
280.671677
 30
0.0
 10
80.662861
 20
281.287030
 30
0.0
 10
81.497460
 20
281.632732
 30
0.0
 10
82.367702
 20
281.632732
 30
0.0
  0
SPLINE
  5
122
100
AcDbEntity
  8
Calque_1
 62
1
100
AcDbSpline
 70
8
 71
3
 72
8
 73
4
 74
0
 40
0
 40
0
 40
0
 40
0
 40
1
 40
1
 40
1
 40
1
 10
82.367702
 20
281.632732
 30
0.0
 10
84.179886
 20
281.632731
 30
0.0
 10
85.648951
 20
280.163666
 30
0.0
 10
85.648951
 20
278.351482
 30
0.0
  0
LINE
  5
123
100
AcDbEntity
  8
Calque_1
 62
1
100
AcDbLine
 10
85.648951
 20
278.351482
 30
0.0
 11
85.648951
 21
278.351482
 31
0.0
  0
SPLINE
  5
124
100
AcDbEntity
  8
Calque_1
 62
1
100
AcDbSpline
 70
8
 71
3
 72
8
 73
4
 74
0
 40
0
 40
0
 40
0
 40
0
 40
1
 40
1
 40
1
 40
1
 10
125.979999
 20
281.443253
 30
0.0
 10
125.980000
 20
279.631069
 30
0.0
 10
124.510935
 20
278.162003
 30
0.0
 10
122.698751
 20
278.162003
 30
0.0
  0
SPLINE
  5
125
100
AcDbEntity
  8
Calque_1
 62
1
100
AcDbSpline
 70
8
 71
3
 72
8
 73
4
 74
0
 40
0
 40
0
 40
0
 40
0
 40
1
 40
1
 40
1
 40
1
 10
122.698751
 20
278.162003
 30
0.0
 10
121.828509
 20
278.162002
 30
0.0
 10
120.993910
 20
278.507704
 30
0.0
 10
120.378556
 20
279.123058
 30
0.0
  0
SPLINE
  5
126
100
AcDbEntity
  8
Calque_1
 62
1
100
AcDbSpline
 70
8
 71
3
 72
8
 73
4
 74
0
 40
0
 40
0
 40
0
 40
0
 40
1
 40
1
 40
1
 40
1
 10
120.378556
 20
279.123058
 30
0.0
 10
119.763202
 20
279.738412
 30
0.0
 10
119.417499
 20
280.573011
 30
0.0
 10
119.417499
 20
281.443253
 30
0.0
  0
SPLINE
  5
127
100
AcDbEntity
  8
Calque_1
 62
1
100
AcDbSpline
 70
8
 71
3
 72
8
 73
4
 74
0
 40
0
 40
0
 40
0
 40
0
 40
1
 40
1
 40
1
 40
1
 10
119.417499
 20
281.443253
 30
0.0
 10
119.417499
 20
282.313495
 30
0.0
 10
119.763202
 20
283.148094
 30
0.0
 10
120.378556
 20
283.763447
 30
0.0
  0
SPLINE
  5
128
100
AcDbEntity
  8
Calque_1
 62
1
100
AcDbSpline
 70
8
 71
3
 72
8
 73
4
 74
0
 40
0
 40
0
 40
0
 40
0
 40
1
 40
1
 40
1
 40
1
 10
120.378556
 20
283.763447
 30
0.0
 10
120.993910
 20
284.378801
 30
0.0
 10
121.828509
 20
284.724503
 30
0.0
 10
122.698751
 20
284.724503
 30
0.0
  0
SPLINE
  5
129
100
AcDbEntity
  8
Calque_1
 62
1
100
AcDbSpline
 70
8
 71
3
 72
8
 73
4
 74
0
 40
0
 40
0
 40
0
 40
0
 40
1
 40
1
 40
1
 40
1
 10
122.698751
 20
284.724503
 30
0.0
 10
124.510935
 20
284.724502
 30
0.0
 10
125.979999
 20
283.255437
 30
0.0
 10
125.979999
 20
281.443253
 30
0.0
  0
LINE
  5
12a
100
AcDbEntity
  8
Calque_1
 62
1
100
AcDbLine
 10
125.979999
 20
281.443253
 30
0.0
 11
125.979999
 21
281.443253
 31
0.0
  0
SPLINE
  5
12b
100
AcDbEntity
  8
Calque_1
 62
1
100
AcDbSpline
 70
8
 71
3
 72
8
 73
4
 74
0
 40
0
 40
0
 40
0
 40
0
 40
1
 40
1
 40
1
 40
1
 10
66.348417
 20
223.278013
 30
0.0
 10
66.348416
 20
221.465829
 30
0.0
 10
64.879352
 20
219.996764
 30
0.0
 10
63.067168
 20
219.996764
 30
0.0
  0
SPLINE
  5
12c
100
AcDbEntity
  8
Calque_1
 62
1
100
AcDbSpline
 70
8
 71
3
 72
8
 73
4
 74
0
 40
0
 40
0
 40
0
 40
0
 40
1
 40
1
 40
1
 40
1
 10
63.067168
 20
219.996764
 30
0.0
 10
62.196926
 20
219.996763
 30
0.0
 10
61.362328
 20
220.342465
 30
0.0
 10
60.746973
 20
220.957819
 30
0.0
  0
SPLINE
  5
12d
100
AcDbEntity
  8
Calque_1
 62
1
100
AcDbSpline
 70
8
 71
3
 72
8
 73
4
 74
0
 40
0
 40
0
 40
0
 40
0
 40
1
 40
1
 40
1
 40
1
 10
60.746973
 20
220.957819
 30
0.0
 10
60.131619
 20
221.573172
 30
0.0
 10
59.785917
 20
222.407771
 30
0.0
 10
59.785917
 20
223.278013
 30
0.0
  0
SPLINE
  5
12e
100
AcDbEntity
  8
Calque_1
 62
1
100
AcDbSpline
 70
8
 71
3
 72
8
 73
4
 74
0
 40
0
 40
0
 40
0
 40
0
 40
1
 40
1
 40
1
 40
1
 10
59.785917
 20
223.278013
 30
0.0
 10
59.785917
 20
224.148254
 30
0.0
 10
60.131619
 20
224.982853
 30
0.0
 10
60.746973
 20
225.598206
 30
0.0
  0
SPLINE
  5
12f
100
AcDbEntity
  8
Calque_1
 62
1
100
AcDbSpline
 70
8
 71
3
 72
8
 73
4
 74
0
 40
0
 40
0
 40
0
 40
0
 40
1
 40
1
 40
1
 40
1
 10
60.746973
 20
225.598206
 30
0.0
 10
61.362328
 20
226.213560
 30
0.0
 10
62.196926
 20
226.559262
 30
0.0
 10
63.067168
 20
226.559261
 30
0.0
  0
SPLINE
  5
130
100
AcDbEntity
  8
Calque_1
 62
1
100
AcDbSpline
 70
8
 71
3
 72
8
 73
4
 74
0
 40
0
 40
0
 40
0
 40
0
 40
1
 40
1
 40
1
 40
1
 10
63.067168
 20
226.559261
 30
0.0
 10
64.879352
 20
226.559261
 30
0.0
 10
66.348416
 20
225.090196
 30
0.0
 10
66.348417
 20
223.278013
 30
0.0
  0
LINE
  5
131
100
AcDbEntity
  8
Calque_1
 62
1
100
AcDbLine
 10
66.348417
 20
223.278013
 30
0.0
 11
66.348417
 21
223.278013
 31
0.0
  0
SPLINE
  5
132
100
AcDbEntity
  8
Calque_1
 62
1
100
AcDbSpline
 70
8
 71
3
 72
8
 73
4
 74
0
 40
0
 40
0
 40
0
 40
0
 40
1
 40
1
 40
1
 40
1
 10
146.875495
 20
225.477539
 30
0.0
 10
146.875494
 20
223.665355
 30
0.0
 10
145.406429
 20
222.196291
 30
0.0
 10
143.594246
 20
222.196290
 30
0.0
  0
SPLINE
  5
133
100
AcDbEntity
  8
Calque_1
 62
1
100
AcDbSpline
 70
8
 71
3
 72
8
 73
4
 74
0
 40
0
 40
0
 40
0
 40
0
 40
1
 40
1
 40
1
 40
1
 10
143.594246
 20
222.196290
 30
0.0
 10
142.724004
 20
222.196290
 30
0.0
 10
141.889405
 20
222.541991
 30
0.0
 10
141.274051
 20
223.157345
 30
0.0
  0
SPLINE
  5
134
100
AcDbEntity
  8
Calque_1
 62
1
100
AcDbSpline
 70
8
 71
3
 72
8
 73
4
 74
0
 40
0
 40
0
 40
0
 40
0
 40
1
 40
1
 40
1
 40
1
 10
141.274051
 20
223.157345
 30
0.0
 10
140.658697
 20
223.772699
 30
0.0
 10
140.312995
 20
224.607297
 30
0.0
 10
140.312995
 20
225.477539
 30
0.0
  0
SPLINE
  5
135
100
AcDbEntity
  8
Calque_1
 62
1
100
AcDbSpline
 70
8
 71
3
 72
8
 73
4
 74
0
 40
0
 40
0
 40
0
 40
0
 40
1
 40
1
 40
1
 40
1
 10
140.312995
 20
225.477539
 30
0.0
 10
140.312994
 20
226.347781
 30
0.0
 10
140.658696
 20
227.182380
 30
0.0
 10
141.274050
 20
227.797734
 30
0.0
  0
SPLINE
  5
136
100
AcDbEntity
  8
Calque_1
 62
1
100
AcDbSpline
 70
8
 71
3
 72
8
 73
4
 74
0
 40
0
 40
0
 40
0
 40
0
 40
1
 40
1
 40
1
 40
1
 10
141.274050
 20
227.797734
 30
0.0
 10
141.889405
 20
228.413089
 30
0.0
 10
142.724004
 20
228.758791
 30
0.0
 10
143.594246
 20
228.758790
 30
0.0
  0
SPLINE
  5
137
100
AcDbEntity
  8
Calque_1
 62
1
100
AcDbSpline
 70
8
 71
3
 72
8
 73
4
 74
0
 40
0
 40
0
 40
0
 40
0
 40
1
 40
1
 40
1
 40
1
 10
143.594246
 20
228.758790
 30
0.0
 10
144.464488
 20
228.758790
 30
0.0
 10
145.299086
 20
228.413087
 30
0.0
 10
145.914440
 20
227.797733
 30
0.0
  0
SPLINE
  5
138
100
AcDbEntity
  8
Calque_1
 62
1
100
AcDbSpline
 70
8
 71
3
 72
8
 73
4
 74
0
 40
0
 40
0
 40
0
 40
0
 40
1
 40
1
 40
1
 40
1
 10
145.914440
 20
227.797733
 30
0.0
 10
146.529793
 20
227.182379
 30
0.0
 10
146.875495
 20
226.347780
 30
0.0
 10
146.875495
 20
225.477539
 30
0.0
  0
LINE
  5
139
100
AcDbEntity
  8
Calque_1
 62
1
100
AcDbLine
 10
146.875495
 20
225.477539
 30
0.0
 11
146.875495
 21
225.477539
 31
0.0
  0
SPLINE
  5
13a
100
AcDbEntity
  8
Calque_1
 62
1
100
AcDbSpline
 70
8
 71
3
 72
8
 73
4
 74
0
 40
0
 40
0
 40
0
 40
0
 40
1
 40
1
 40
1
 40
1
 10
92.498323
 20
236.108579
 30
0.0
 10
92.498322
 20
234.296396
 30
0.0
 10
91.029257
 20
232.827331
 30
0.0
 10
89.217074
 20
232.827330
 30
0.0
  0
SPLINE
  5
13b
100
AcDbEntity
  8
Calque_1
 62
1
100
AcDbSpline
 70
8
 71
3
 72
8
 73
4
 74
0
 40
0
 40
0
 40
0
 40
0
 40
1
 40
1
 40
1
 40
1
 10
89.217074
 20
232.827330
 30
0.0
 10
88.346832
 20
232.827330
 30
0.0
 10
87.512233
 20
233.173032
 30
0.0
 10
86.896879
 20
233.788385
 30
0.0
  0
SPLINE
  5
13c
100
AcDbEntity
  8
Calque_1
 62
1
100
AcDbSpline
 70
8
 71
3
 72
8
 73
4
 74
0
 40
0
 40
0
 40
0
 40
0
 40
1
 40
1
 40
1
 40
1
 10
86.896879
 20
233.788385
 30
0.0
 10
86.281525
 20
234.403739
 30
0.0
 10
85.935823
 20
235.238338
 30
0.0
 10
85.935823
 20
236.108579
 30
0.0
  0
SPLINE
  5
13d
100
AcDbEntity
  8
Calque_1
 62
1
100
AcDbSpline
 70
8
 71
3
 72
8
 73
4
 74
0
 40
0
 40
0
 40
0
 40
0
 40
1
 40
1
 40
1
 40
1
 10
85.935823
 20
236.108579
 30
0.0
 10
85.935822
 20
236.978821
 30
0.0
 10
86.281524
 20
237.813421
 30
0.0
 10
86.896878
 20
238.428775
 30
0.0
  0
SPLINE
  5
13e
100
AcDbEntity
  8
Calque_1
 62
1
100
AcDbSpline
 70
8
 71
3
 72
8
 73
4
 74
0
 40
0
 40
0
 40
0
 40
0
 40
1
 40
1
 40
1
 40
1
 10
86.896878
 20
238.428775
 30
0.0
 10
87.512233
 20
239.044129
 30
0.0
 10
88.346832
 20
239.389831
 30
0.0
 10
89.217074
 20
239.389831
 30
0.0
  0
SPLINE
  5
13f
100
AcDbEntity
  8
Calque_1
 62
1
100
AcDbSpline
 70
8
 71
3
 72
8
 73
4
 74
0
 40
0
 40
0
 40
0
 40
0
 40
1
 40
1
 40
1
 40
1
 10
89.217074
 20
239.389831
 30
0.0
 10
90.087316
 20
239.389830
 30
0.0
 10
90.921914
 20
239.044128
 30
0.0
 10
91.537268
 20
238.428774
 30
0.0
  0
SPLINE
  5
140
100
AcDbEntity
  8
Calque_1
 62
1
100
AcDbSpline
 70
8
 71
3
 72
8
 73
4
 74
0
 40
0
 40
0
 40
0
 40
0
 40
1
 40
1
 40
1
 40
1
 10
91.537268
 20
238.428774
 30
0.0
 10
92.152621
 20
237.813420
 30
0.0
 10
92.498323
 20
236.978821
 30
0.0
 10
92.498323
 20
236.108579
 30
0.0
  0
LINE
  5
141
100
AcDbEntity
  8
Calque_1
 62
1
100
AcDbLine
 10
92.498323
 20
236.108579
 30
0.0
 11
92.498323
 21
236.108579
 31
0.0
  0
SPLINE
  5
142
100
AcDbEntity
  8
Calque_1
 62
1
100
AcDbSpline
 70
8
 71
3
 72
8
 73
4
 74
0
 40
0
 40
0
 40
0
 40
0
 40
1
 40
1
 40
1
 40
1
 10
118.403849
 20
245.395470
 30
0.0
 10
118.403849
 20
244.525228
 30
0.0
 10
118.058147
 20
243.690629
 30
0.0
 10
117.442793
 20
243.075275
 30
0.0
  0
SPLINE
  5
143
100
AcDbEntity
  8
Calque_1
 62
1
100
AcDbSpline
 70
8
 71
3
 72
8
 73
4
 74
0
 40
0
 40
0
 40
0
 40
0
 40
1
 40
1
 40
1
 40
1
 10
117.442793
 20
243.075275
 30
0.0
 10
116.827439
 20
242.459920
 30
0.0
 10
115.992840
 20
242.114218
 30
0.0
 10
115.122598
 20
242.114219
 30
0.0
  0
SPLINE
  5
144
100
AcDbEntity
  8
Calque_1
 62
1
100
AcDbSpline
 70
8
 71
3
 72
8
 73
4
 74
0
 40
0
 40
0
 40
0
 40
0
 40
1
 40
1
 40
1
 40
1
 10
115.122598
 20
242.114219
 30
0.0
 10
114.252356
 20
242.114219
 30
0.0
 10
113.417757
 20
242.459921
 30
0.0
 10
112.802404
 20
243.075275
 30
0.0
  0
SPLINE
  5
145
100
AcDbEntity
  8
Calque_1
 62
1
100
AcDbSpline
 70
8
 71
3
 72
8
 73
4
 74
0
 40
0
 40
0
 40
0
 40
0
 40
1
 40
1
 40
1
 40
1
 10
112.802404
 20
243.075275
 30
0.0
 10
112.187050
 20
243.690629
 30
0.0
 10
111.841348
 20
244.525228
 30
0.0
 10
111.841349
 20
245.395470
 30
0.0
  0
SPLINE
  5
146
100
AcDbEntity
  8
Calque_1
 62
1
100
AcDbSpline
 70
8
 71
3
 72
8
 73
4
 74
0
 40
0
 40
0
 40
0
 40
0
 40
1
 40
1
 40
1
 40
1
 10
111.841349
 20
245.395470
 30
0.0
 10
111.841349
 20
247.207653
 30
0.0
 10
113.310414
 20
248.676718
 30
0.0
 10
115.122598
 20
248.676719
 30
0.0
  0
SPLINE
  5
147
100
AcDbEntity
  8
Calque_1
 62
1
100
AcDbSpline
 70
8
 71
3
 72
8
 73
4
 74
0
 40
0
 40
0
 40
0
 40
0
 40
1
 40
1
 40
1
 40
1
 10
115.122598
 20
248.676719
 30
0.0
 10
115.992839
 20
248.676719
 30
0.0
 10
116.827438
 20
248.331017
 30
0.0
 10
117.442792
 20
247.715664
 30
0.0
  0
SPLINE
  5
148
100
AcDbEntity
  8
Calque_1
 62
1
100
AcDbSpline
 70
8
 71
3
 72
8
 73
4
 74
0
 40
0
 40
0
 40
0
 40
0
 40
1
 40
1
 40
1
 40
1
 10
117.442792
 20
247.715664
 30
0.0
 10
118.058146
 20
247.100310
 30
0.0
 10
118.403849
 20
246.265712
 30
0.0
 10
118.403849
 20
245.395470
 30
0.0
  0
LINE
  5
149
100
AcDbEntity
  8
Calque_1
 62
1
100
AcDbLine
 10
118.403849
 20
245.395470
 30
0.0
 11
118.403849
 21
245.395470
 31
0.0
  0
SPLINE
  5
14a
100
AcDbEntity
  8
Calque_1
 62
1
100
AcDbSpline
 70
8
 71
3
 72
8
 73
4
 74
0
 40
0
 40
0
 40
0
 40
0
 40
1
 40
1
 40
1
 40
1
 10
120.847787
 20
197.372489
 30
0.0
 10
120.847787
 20
196.502247
 30
0.0
 10
120.502085
 20
195.667649
 30
0.0
 10
119.886732
 20
195.052294
 30
0.0
  0
SPLINE
  5
14b
100
AcDbEntity
  8
Calque_1
 62
1
100
AcDbSpline
 70
8
 71
3
 72
8
 73
4
 74
0
 40
0
 40
0
 40
0
 40
0
 40
1
 40
1
 40
1
 40
1
 10
119.886732
 20
195.052294
 30
0.0
 10
119.271378
 20
194.436940
 30
0.0
 10
118.436780
 20
194.091238
 30
0.0
 10
117.566538
 20
194.091238
 30
0.0
  0
SPLINE
  5
14c
100
AcDbEntity
  8
Calque_1
 62
1
100
AcDbSpline
 70
8
 71
3
 72
8
 73
4
 74
0
 40
0
 40
0
 40
0
 40
0
 40
1
 40
1
 40
1
 40
1
 10
117.566538
 20
194.091238
 30
0.0
 10
116.696296
 20
194.091238
 30
0.0
 10
115.861698
 20
194.436940
 30
0.0
 10
115.246344
 20
195.052294
 30
0.0
  0
SPLINE
  5
14d
100
AcDbEntity
  8
Calque_1
 62
1
100
AcDbSpline
 70
8
 71
3
 72
8
 73
4
 74
0
 40
0
 40
0
 40
0
 40
0
 40
1
 40
1
 40
1
 40
1
 10
115.246344
 20
195.052294
 30
0.0
 10
114.630991
 20
195.667649
 30
0.0
 10
114.285289
 20
196.502247
 30
0.0
 10
114.285289
 20
197.372489
 30
0.0
  0
SPLINE
  5
14e
100
AcDbEntity
  8
Calque_1
 62
1
100
AcDbSpline
 70
8
 71
3
 72
8
 73
4
 74
0
 40
0
 40
0
 40
0
 40
0
 40
1
 40
1
 40
1
 40
1
 10
114.285289
 20
197.372489
 30
0.0
 10
114.285290
 20
199.184673
 30
0.0
 10
115.754355
 20
200.653737
 30
0.0
 10
117.566538
 20
200.653738
 30
0.0
  0
SPLINE
  5
14f
100
AcDbEntity
  8
Calque_1
 62
1
100
AcDbSpline
 70
8
 71
3
 72
8
 73
4
 74
0
 40
0
 40
0
 40
0
 40
0
 40
1
 40
1
 40
1
 40
1
 10
117.566538
 20
200.653738
 30
0.0
 10
119.378721
 20
200.653737
 30
0.0
 10
120.847786
 20
199.184673
 30
0.0
 10
120.847787
 20
197.372489
 30
0.0
  0
LINE
  5
150
100
AcDbEntity
  8
Calque_1
 62
1
100
AcDbLine
 10
120.847787
 20
197.372489
 30
0.0
 11
120.847787
 21
197.372489
 31
0.0
  0
SPLINE
  5
151
100
AcDbEntity
  8
Calque_1
 62
1
100
AcDbSpline
 70
8
 71
3
 72
8
 73
4
 74
0
 40
0
 40
0
 40
0
 40
0
 40
1
 40
1
 40
1
 40
1
 10
164.227312
 20
150.938056
 30
0.0
 10
164.227311
 20
150.067814
 30
0.0
 10
163.881609
 20
149.233216
 30
0.0
 10
163.266255
 20
148.617862
 30
0.0
  0
SPLINE
  5
152
100
AcDbEntity
  8
Calque_1
 62
1
100
AcDbSpline
 70
8
 71
3
 72
8
 73
4
 74
0
 40
0
 40
0
 40
0
 40
0
 40
1
 40
1
 40
1
 40
1
 10
163.266255
 20
148.617862
 30
0.0
 10
162.650901
 20
148.002509
 30
0.0
 10
161.816302
 20
147.656807
 30
0.0
 10
160.946060
 20
147.656807
 30
0.0
  0
SPLINE
  5
153
100
AcDbEntity
  8
Calque_1
 62
1
100
AcDbSpline
 70
8
 71
3
 72
8
 73
4
 74
0
 40
0
 40
0
 40
0
 40
0
 40
1
 40
1
 40
1
 40
1
 10
160.946060
 20
147.656807
 30
0.0
 10
159.133877
 20
147.656808
 30
0.0
 10
157.664812
 20
149.125873
 30
0.0
 10
157.664811
 20
150.938056
 30
0.0
  0
SPLINE
  5
154
100
AcDbEntity
  8
Calque_1
 62
1
100
AcDbSpline
 70
8
 71
3
 72
8
 73
4
 74
0
 40
0
 40
0
 40
0
 40
0
 40
1
 40
1
 40
1
 40
1
 10
157.664811
 20
150.938056
 30
0.0
 10
157.664811
 20
151.808298
 30
0.0
 10
158.010513
 20
152.642897
 30
0.0
 10
158.625866
 20
153.258251
 30
0.0
  0
SPLINE
  5
155
100
AcDbEntity
  8
Calque_1
 62
1
100
AcDbSpline
 70
8
 71
3
 72
8
 73
4
 74
0
 40
0
 40
0
 40
0
 40
0
 40
1
 40
1
 40
1
 40
1
 10
158.625866
 20
153.258251
 30
0.0
 10
159.241220
 20
153.873605
 30
0.0
 10
160.075819
 20
154.219307
 30
0.0
 10
160.946060
 20
154.219307
 30
0.0
  0
SPLINE
  5
156
100
AcDbEntity
  8
Calque_1
 62
1
100
AcDbSpline
 70
8
 71
3
 72
8
 73
4
 74
0
 40
0
 40
0
 40
0
 40
0
 40
1
 40
1
 40
1
 40
1
 10
160.946060
 20
154.219307
 30
0.0
 10
161.816302
 20
154.219308
 30
0.0
 10
162.650902
 20
153.873606
 30
0.0
 10
163.266256
 20
153.258251
 30
0.0
  0
SPLINE
  5
157
100
AcDbEntity
  8
Calque_1
 62
1
100
AcDbSpline
 70
8
 71
3
 72
8
 73
4
 74
0
 40
0
 40
0
 40
0
 40
0
 40
1
 40
1
 40
1
 40
1
 10
163.266256
 20
153.258251
 30
0.0
 10
163.881610
 20
152.642897
 30
0.0
 10
164.227312
 20
151.808298
 30
0.0
 10
164.227312
 20
150.938056
 30
0.0
  0
LINE
  5
158
100
AcDbEntity
  8
Calque_1
 62
1
100
AcDbLine
 10
164.227312
 20
150.938056
 30
0.0
 11
164.227312
 21
150.938056
 31
0.0
  0
SPLINE
  5
159
100
AcDbEntity
  8
Calque_1
 62
1
100
AcDbSpline
 70
8
 71
3
 72
8
 73
4
 74
0
 40
0
 40
0
 40
0
 40
0
 40
1
 40
1
 40
1
 40
1
 10
129.645878
 20
147.760958
 30
0.0
 10
129.645879
 20
146.890716
 30
0.0
 10
129.300177
 20
146.056116
 30
0.0
 10
128.684823
 20
145.440762
 30
0.0
  0
SPLINE
  5
15a
100
AcDbEntity
  8
Calque_1
 62
1
100
AcDbSpline
 70
8
 71
3
 72
8
 73
4
 74
0
 40
0
 40
0
 40
0
 40
0
 40
1
 40
1
 40
1
 40
1
 10
128.684823
 20
145.440762
 30
0.0
 10
128.069468
 20
144.825408
 30
0.0
 10
127.234869
 20
144.479706
 30
0.0
 10
126.364627
 20
144.479706
 30
0.0
  0
SPLINE
  5
15b
100
AcDbEntity
  8
Calque_1
 62
1
100
AcDbSpline
 70
8
 71
3
 72
8
 73
4
 74
0
 40
0
 40
0
 40
0
 40
0
 40
1
 40
1
 40
1
 40
1
 10
126.364627
 20
144.479706
 30
0.0
 10
125.494385
 20
144.479707
 30
0.0
 10
124.659787
 20
144.825409
 30
0.0
 10
124.044433
 20
145.440763
 30
0.0
  0
SPLINE
  5
15c
100
AcDbEntity
  8
Calque_1
 62
1
100
AcDbSpline
 70
8
 71
3
 72
8
 73
4
 74
0
 40
0
 40
0
 40
0
 40
0
 40
1
 40
1
 40
1
 40
1
 10
124.044433
 20
145.440763
 30
0.0
 10
123.429080
 20
146.056117
 30
0.0
 10
123.083378
 20
146.890716
 30
0.0
 10
123.083378
 20
147.760958
 30
0.0
  0
SPLINE
  5
15d
100
AcDbEntity
  8
Calque_1
 62
1
100
AcDbSpline
 70
8
 71
3
 72
8
 73
4
 74
0
 40
0
 40
0
 40
0
 40
0
 40
1
 40
1
 40
1
 40
1
 10
123.083378
 20
147.760958
 30
0.0
 10
123.083379
 20
149.573141
 30
0.0
 10
124.552444
 20
151.042206
 30
0.0
 10
126.364627
 20
151.042206
 30
0.0
  0
SPLINE
  5
15e
100
AcDbEntity
  8
Calque_1
 62
1
100
AcDbSpline
 70
8
 71
3
 72
8
 73
4
 74
0
 40
0
 40
0
 40
0
 40
0
 40
1
 40
1
 40
1
 40
1
 10
126.364627
 20
151.042206
 30
0.0
 10
127.234869
 20
151.042207
 30
0.0
 10
128.069468
 20
150.696505
 30
0.0
 10
128.684822
 20
150.081152
 30
0.0
  0
SPLINE
  5
15f
100
AcDbEntity
  8
Calque_1
 62
1
100
AcDbSpline
 70
8
 71
3
 72
8
 73
4
 74
0
 40
0
 40
0
 40
0
 40
0
 40
1
 40
1
 40
1
 40
1
 10
128.684822
 20
150.081152
 30
0.0
 10
129.300176
 20
149.465798
 30
0.0
 10
129.645878
 20
148.631199
 30
0.0
 10
129.645878
 20
147.760958
 30
0.0
  0
LINE
  5
160
100
AcDbEntity
  8
Calque_1
 62
1
100
AcDbLine
 10
129.645878
 20
147.760958
 30
0.0
 11
129.645878
 21
147.760958
 31
0.0
  0
SPLINE
  5
161
100
AcDbEntity
  8
Calque_1
 62
1
100
AcDbSpline
 70
8
 71
3
 72
8
 73
4
 74
0
 40
0
 40
0
 40
0
 40
0
 40
1
 40
1
 40
1
 40
1
 10
45.086328
 20
151.671232
 30
0.0
 10
45.086329
 20
150.800990
 30
0.0
 10
44.740626
 20
149.966391
 30
0.0
 10
44.125272
 20
149.351037
 30
0.0
  0
SPLINE
  5
162
100
AcDbEntity
  8
Calque_1
 62
1
100
AcDbSpline
 70
8
 71
3
 72
8
 73
4
 74
0
 40
0
 40
0
 40
0
 40
0
 40
1
 40
1
 40
1
 40
1
 10
44.125272
 20
149.351037
 30
0.0
 10
43.509918
 20
148.735683
 30
0.0
 10
42.675319
 20
148.389980
 30
0.0
 10
41.805077
 20
148.389981
 30
0.0
  0
SPLINE
  5
163
100
AcDbEntity
  8
Calque_1
 62
1
100
AcDbSpline
 70
8
 71
3
 72
8
 73
4
 74
0
 40
0
 40
0
 40
0
 40
0
 40
1
 40
1
 40
1
 40
1
 10
41.805077
 20
148.389981
 30
0.0
 10
40.934835
 20
148.389981
 30
0.0
 10
40.100236
 20
148.735684
 30
0.0
 10
39.484883
 20
149.351038
 30
0.0
  0
SPLINE
  5
164
100
AcDbEntity
  8
Calque_1
 62
1
100
AcDbSpline
 70
8
 71
3
 72
8
 73
4
 74
0
 40
0
 40
0
 40
0
 40
0
 40
1
 40
1
 40
1
 40
1
 10
39.484883
 20
149.351038
 30
0.0
 10
38.869529
 20
149.966392
 30
0.0
 10
38.523828
 20
150.800991
 30
0.0
 10
38.523828
 20
151.671232
 30
0.0
  0
SPLINE
  5
165
100
AcDbEntity
  8
Calque_1
 62
1
100
AcDbSpline
 70
8
 71
3
 72
8
 73
4
 74
0
 40
0
 40
0
 40
0
 40
0
 40
1
 40
1
 40
1
 40
1
 10
38.523828
 20
151.671232
 30
0.0
 10
38.523829
 20
153.483416
 30
0.0
 10
39.992893
 20
154.952480
 30
0.0
 10
41.805077
 20
154.952481
 30
0.0
  0
SPLINE
  5
166
100
AcDbEntity
  8
Calque_1
 62
1
100
AcDbSpline
 70
8
 71
3
 72
8
 73
4
 74
0
 40
0
 40
0
 40
0
 40
0
 40
1
 40
1
 40
1
 40
1
 10
41.805077
 20
154.952481
 30
0.0
 10
42.675318
 20
154.952481
 30
0.0
 10
43.509917
 20
154.606780
 30
0.0
 10
44.125271
 20
153.991426
 30
0.0
  0
SPLINE
  5
167
100
AcDbEntity
  8
Calque_1
 62
1
100
AcDbSpline
 70
8
 71
3
 72
8
 73
4
 74
0
 40
0
 40
0
 40
0
 40
0
 40
1
 40
1
 40
1
 40
1
 10
44.125271
 20
153.991426
 30
0.0
 10
44.740625
 20
153.376073
 30
0.0
 10
45.086328
 20
152.541474
 30
0.0
 10
45.086328
 20
151.671232
 30
0.0
  0
LINE
  5
168
100
AcDbEntity
  8
Calque_1
 62
1
100
AcDbLine
 10
45.086328
 20
151.671232
 30
0.0
 11
45.086328
 21
151.671232
 31
0.0
  0
SPLINE
  5
169
100
AcDbEntity
  8
Calque_1
 62
1
100
AcDbSpline
 70
8
 71
3
 72
8
 73
4
 74
0
 40
0
 40
0
 40
0
 40
0
 40
1
 40
1
 40
1
 40
1
 10
84.922185
 20
175.255032
 30
0.0
 10
84.922186
 20
174.384790
 30
0.0
 10
84.576484
 20
173.550191
 30
0.0
 10
83.961130
 20
172.934837
 30
0.0
  0
SPLINE
  5
16a
100
AcDbEntity
  8
Calque_1
 62
1
100
AcDbSpline
 70
8
 71
3
 72
8
 73
4
 74
0
 40
0
 40
0
 40
0
 40
0
 40
1
 40
1
 40
1
 40
1
 10
83.961130
 20
172.934837
 30
0.0
 10
83.345777
 20
172.319483
 30
0.0
 10
82.511178
 20
171.973781
 30
0.0
 10
81.640937
 20
171.973780
 30
0.0
  0
SPLINE
  5
16b
100
AcDbEntity
  8
Calque_1
 62
1
100
AcDbSpline
 70
8
 71
3
 72
8
 73
4
 74
0
 40
0
 40
0
 40
0
 40
0
 40
1
 40
1
 40
1
 40
1
 10
81.640937
 20
171.973780
 30
0.0
 10
80.770695
 20
171.973781
 30
0.0
 10
79.936096
 20
172.319483
 30
0.0
 10
79.320743
 20
172.934837
 30
0.0
  0
SPLINE
  5
16c
100
AcDbEntity
  8
Calque_1
 62
1
100
AcDbSpline
 70
8
 71
3
 72
8
 73
4
 74
0
 40
0
 40
0
 40
0
 40
0
 40
1
 40
1
 40
1
 40
1
 10
79.320743
 20
172.934837
 30
0.0
 10
78.705389
 20
173.550191
 30
0.0
 10
78.359687
 20
174.384790
 30
0.0
 10
78.359688
 20
175.255032
 30
0.0
  0
SPLINE
  5
16d
100
AcDbEntity
  8
Calque_1
 62
1
100
AcDbSpline
 70
8
 71
3
 72
8
 73
4
 74
0
 40
0
 40
0
 40
0
 40
0
 40
1
 40
1
 40
1
 40
1
 10
78.359688
 20
175.255032
 30
0.0
 10
78.359689
 20
177.067215
 30
0.0
 10
79.828753
 20
178.536280
 30
0.0
 10
81.640937
 20
178.536280
 30
0.0
  0
SPLINE
  5
16e
100
AcDbEntity
  8
Calque_1
 62
1
100
AcDbSpline
 70
8
 71
3
 72
8
 73
4
 74
0
 40
0
 40
0
 40
0
 40
0
 40
1
 40
1
 40
1
 40
1
 10
81.640937
 20
178.536280
 30
0.0
 10
83.453120
 20
178.536280
 30
0.0
 10
84.922185
 20
177.067215
 30
0.0
 10
84.922185
 20
175.255032
 30
0.0
  0
LINE
  5
16f
100
AcDbEntity
  8
Calque_1
 62
1
100
AcDbLine
 10
84.922185
 20
175.255032
 30
0.0
 11
84.922185
 21
175.255032
 31
0.0
  0
SPLINE
  5
170
100
AcDbEntity
  8
Calque_1
 62
1
100
AcDbSpline
 70
8
 71
3
 72
8
 73
4
 74
0
 40
0
 40
0
 40
0
 40
0
 40
1
 40
1
 40
1
 40
1
 10
74.779928
 20
132.608667
 30
0.0
 10
74.779928
 20
131.738426
 30
0.0
 10
74.434226
 20
130.903827
 30
0.0
 10
73.818872
 20
130.288473
 30
0.0
  0
SPLINE
  5
171
100
AcDbEntity
  8
Calque_1
 62
1
100
AcDbSpline
 70
8
 71
3
 72
8
 73
4
 74
0
 40
0
 40
0
 40
0
 40
0
 40
1
 40
1
 40
1
 40
1
 10
73.818872
 20
130.288473
 30
0.0
 10
73.203518
 20
129.673120
 30
0.0
 10
72.368919
 20
129.327418
 30
0.0
 10
71.498677
 20
129.327418
 30
0.0
  0
SPLINE
  5
172
100
AcDbEntity
  8
Calque_1
 62
1
100
AcDbSpline
 70
8
 71
3
 72
8
 73
4
 74
0
 40
0
 40
0
 40
0
 40
0
 40
1
 40
1
 40
1
 40
1
 10
71.498677
 20
129.327418
 30
0.0
 10
69.686494
 20
129.327419
 30
0.0
 10
68.217429
 20
130.796484
 30
0.0
 10
68.217428
 20
132.608667
 30
0.0
  0
SPLINE
  5
173
100
AcDbEntity
  8
Calque_1
 62
1
100
AcDbSpline
 70
8
 71
3
 72
8
 73
4
 74
0
 40
0
 40
0
 40
0
 40
0
 40
1
 40
1
 40
1
 40
1
 10
68.217428
 20
132.608667
 30
0.0
 10
68.217428
 20
133.478909
 30
0.0
 10
68.563130
 20
134.313508
 30
0.0
 10
69.178483
 20
134.928862
 30
0.0
  0
SPLINE
  5
174
100
AcDbEntity
  8
Calque_1
 62
1
100
AcDbSpline
 70
8
 71
3
 72
8
 73
4
 74
0
 40
0
 40
0
 40
0
 40
0
 40
1
 40
1
 40
1
 40
1
 10
69.178483
 20
134.928862
 30
0.0
 10
69.793837
 20
135.544216
 30
0.0
 10
70.628435
 20
135.889918
 30
0.0
 10
71.498677
 20
135.889919
 30
0.0
  0
SPLINE
  5
175
100
AcDbEntity
  8
Calque_1
 62
1
100
AcDbSpline
 70
8
 71
3
 72
8
 73
4
 74
0
 40
0
 40
0
 40
0
 40
0
 40
1
 40
1
 40
1
 40
1
 10
71.498677
 20
135.889919
 30
0.0
 10
72.368919
 20
135.889919
 30
0.0
 10
73.203518
 20
135.544217
 30
0.0
 10
73.818873
 20
134.928863
 30
0.0
  0
SPLINE
  5
176
100
AcDbEntity
  8
Calque_1
 62
1
100
AcDbSpline
 70
8
 71
3
 72
8
 73
4
 74
0
 40
0
 40
0
 40
0
 40
0
 40
1
 40
1
 40
1
 40
1
 10
73.818873
 20
134.928863
 30
0.0
 10
74.434227
 20
134.313509
 30
0.0
 10
74.779929
 20
133.478909
 30
0.0
 10
74.779928
 20
132.608667
 30
0.0
  0
LINE
  5
177
100
AcDbEntity
  8
Calque_1
 62
1
100
AcDbLine
 10
74.779928
 20
132.608667
 30
0.0
 11
74.779928
 21
132.608667
 31
0.0
  0
SPLINE
  5
178
100
AcDbEntity
  8
Calque_1
 62
1
100
AcDbSpline
 70
8
 71
3
 72
8
 73
4
 74
0
 40
0
 40
0
 40
0
 40
0
 40
1
 40
1
 40
1
 40
1
 10
29.445257
 20
81.897390
 30
0.0
 10
29.445257
 20
81.027148
 30
0.0
 10
29.099554
 20
80.192550
 30
0.0
 10
28.484200
 20
79.577196
 30
0.0
  0
SPLINE
  5
179
100
AcDbEntity
  8
Calque_1
 62
1
100
AcDbSpline
 70
8
 71
3
 72
8
 73
4
 74
0
 40
0
 40
0
 40
0
 40
0
 40
1
 40
1
 40
1
 40
1
 10
28.484200
 20
79.577196
 30
0.0
 10
27.868846
 20
78.961843
 30
0.0
 10
27.034247
 20
78.616141
 30
0.0
 10
26.164006
 20
78.616141
 30
0.0
  0
SPLINE
  5
17a
100
AcDbEntity
  8
Calque_1
 62
1
100
AcDbSpline
 70
8
 71
3
 72
8
 73
4
 74
0
 40
0
 40
0
 40
0
 40
0
 40
1
 40
1
 40
1
 40
1
 10
26.164006
 20
78.616141
 30
0.0
 10
24.351822
 20
78.616142
 30
0.0
 10
22.882757
 20
80.085206
 30
0.0
 10
22.882757
 20
81.897390
 30
0.0
  0
SPLINE
  5
17b
100
AcDbEntity
  8
Calque_1
 62
1
100
AcDbSpline
 70
8
 71
3
 72
8
 73
4
 74
0
 40
0
 40
0
 40
0
 40
0
 40
1
 40
1
 40
1
 40
1
 10
22.882757
 20
81.897390
 30
0.0
 10
22.882757
 20
83.709573
 30
0.0
 10
24.351822
 20
85.178638
 30
0.0
 10
26.164006
 20
85.178639
 30
0.0
  0
SPLINE
  5
17c
100
AcDbEntity
  8
Calque_1
 62
1
100
AcDbSpline
 70
8
 71
3
 72
8
 73
4
 74
0
 40
0
 40
0
 40
0
 40
0
 40
1
 40
1
 40
1
 40
1
 10
26.164006
 20
85.178639
 30
0.0
 10
27.034247
 20
85.178639
 30
0.0
 10
27.868846
 20
84.832937
 30
0.0
 10
28.484200
 20
84.217584
 30
0.0
  0
SPLINE
  5
17d
100
AcDbEntity
  8
Calque_1
 62
1
100
AcDbSpline
 70
8
 71
3
 72
8
 73
4
 74
0
 40
0
 40
0
 40
0
 40
0
 40
1
 40
1
 40
1
 40
1
 10
28.484200
 20
84.217584
 30
0.0
 10
29.099554
 20
83.602230
 30
0.0
 10
29.445257
 20
82.767632
 30
0.0
 10
29.445257
 20
81.897390
 30
0.0
  0
LINE
  5
17e
100
AcDbEntity
  8
Calque_1
 62
1
100
AcDbLine
 10
29.445257
 20
81.897390
 30
0.0
 11
29.445257
 21
81.897390
 31
0.0
  0
SPLINE
  5
17f
100
AcDbEntity
  8
Calque_1
 62
1
100
AcDbSpline
 70
8
 71
3
 72
8
 73
4
 74
0
 40
0
 40
0
 40
0
 40
0
 40
1
 40
1
 40
1
 40
1
 10
173.147614
 20
79.331268
 30
0.0
 10
173.147614
 20
77.519084
 30
0.0
 10
171.678549
 20
76.050019
 30
0.0
 10
169.866366
 20
76.050019
 30
0.0
  0
SPLINE
  5
180
100
AcDbEntity
  8
Calque_1
 62
1
100
AcDbSpline
 70
8
 71
3
 72
8
 73
4
 74
0
 40
0
 40
0
 40
0
 40
0
 40
1
 40
1
 40
1
 40
1
 10
169.866366
 20
76.050019
 30
0.0
 10
168.054182
 20
76.050019
 30
0.0
 10
166.585117
 20
77.519084
 30
0.0
 10
166.585117
 20
79.331268
 30
0.0
  0
SPLINE
  5
181
100
AcDbEntity
  8
Calque_1
 62
1
100
AcDbSpline
 70
8
 71
3
 72
8
 73
4
 74
0
 40
0
 40
0
 40
0
 40
0
 40
1
 40
1
 40
1
 40
1
 10
166.585117
 20
79.331268
 30
0.0
 10
166.585117
 20
81.143451
 30
0.0
 10
168.054182
 20
82.612516
 30
0.0
 10
169.866366
 20
82.612516
 30
0.0
  0
SPLINE
  5
182
100
AcDbEntity
  8
Calque_1
 62
1
100
AcDbSpline
 70
8
 71
3
 72
8
 73
4
 74
0
 40
0
 40
0
 40
0
 40
0
 40
1
 40
1
 40
1
 40
1
 10
169.866366
 20
82.612516
 30
0.0
 10
171.678549
 20
82.612516
 30
0.0
 10
173.147614
 20
81.143451
 30
0.0
 10
173.147614
 20
79.331268
 30
0.0
  0
LINE
  5
183
100
AcDbEntity
  8
Calque_1
 62
1
100
AcDbLine
 10
173.147614
 20
79.331268
 30
0.0
 11
173.147614
 21
79.331268
 31
0.0
  0
SPLINE
  5
184
100
AcDbEntity
  8
Calque_1
 62
1
100
AcDbSpline
 70
8
 71
3
 72
8
 73
4
 74
0
 40
0
 40
0
 40
0
 40
0
 40
1
 40
1
 40
1
 40
1
 10
143.331816
 20
99.004808
 30
0.0
 10
143.331816
 20
98.134567
 30
0.0
 10
142.986114
 20
97.299968
 30
0.0
 10
142.370760
 20
96.684615
 30
0.0
  0
SPLINE
  5
185
100
AcDbEntity
  8
Calque_1
 62
1
100
AcDbSpline
 70
8
 71
3
 72
8
 73
4
 74
0
 40
0
 40
0
 40
0
 40
0
 40
1
 40
1
 40
1
 40
1
 10
142.370760
 20
96.684615
 30
0.0
 10
141.755406
 20
96.069261
 30
0.0
 10
140.920807
 20
95.723559
 30
0.0
 10
140.050565
 20
95.723560
 30
0.0
  0
SPLINE
  5
186
100
AcDbEntity
  8
Calque_1
 62
1
100
AcDbSpline
 70
8
 71
3
 72
8
 73
4
 74
0
 40
0
 40
0
 40
0
 40
0
 40
1
 40
1
 40
1
 40
1
 10
140.050565
 20
95.723560
 30
0.0
 10
138.238382
 20
95.723560
 30
0.0
 10
136.769317
 20
97.192625
 30
0.0
 10
136.769316
 20
99.004808
 30
0.0
  0
SPLINE
  5
187
100
AcDbEntity
  8
Calque_1
 62
1
100
AcDbSpline
 70
8
 71
3
 72
8
 73
4
 74
0
 40
0
 40
0
 40
0
 40
0
 40
1
 40
1
 40
1
 40
1
 10
136.769316
 20
99.004808
 30
0.0
 10
136.769317
 20
100.816992
 30
0.0
 10
138.238382
 20
102.286057
 30
0.0
 10
140.050565
 20
102.286057
 30
0.0
  0
SPLINE
  5
188
100
AcDbEntity
  8
Calque_1
 62
1
100
AcDbSpline
 70
8
 71
3
 72
8
 73
4
 74
0
 40
0
 40
0
 40
0
 40
0
 40
1
 40
1
 40
1
 40
1
 10
140.050565
 20
102.286057
 30
0.0
 10
140.920807
 20
102.286058
 30
0.0
 10
141.755406
 20
101.940356
 30
0.0
 10
142.370760
 20
101.325002
 30
0.0
  0
SPLINE
  5
189
100
AcDbEntity
  8
Calque_1
 62
1
100
AcDbSpline
 70
8
 71
3
 72
8
 73
4
 74
0
 40
0
 40
0
 40
0
 40
0
 40
1
 40
1
 40
1
 40
1
 10
142.370760
 20
101.325002
 30
0.0
 10
142.986114
 20
100.709649
 30
0.0
 10
143.331816
 20
99.875050
 30
0.0
 10
143.331816
 20
99.004808
 30
0.0
  0
LINE
  5
18a
100
AcDbEntity
  8
Calque_1
 62
1
100
AcDbLine
 10
143.331816
 20
99.004808
 30
0.0
 11
143.331816
 21
99.004808
 31
0.0
  0
SPLINE
  5
18b
100
AcDbEntity
  8
Calque_1
 62
1
100
AcDbSpline
 70
8
 71
3
 72
8
 73
4
 74
0
 40
0
 40
0
 40
0
 40
0
 40
1
 40
1
 40
1
 40
1
 10
80.889721
 20
77.498337
 30
0.0
 10
80.889721
 20
76.628096
 30
0.0
 10
80.544020
 20
75.793497
 30
0.0
 10
79.928666
 20
75.178143
 30
0.0
  0
SPLINE
  5
18c
100
AcDbEntity
  8
Calque_1
 62
1
100
AcDbSpline
 70
8
 71
3
 72
8
 73
4
 74
0
 40
0
 40
0
 40
0
 40
0
 40
1
 40
1
 40
1
 40
1
 10
79.928666
 20
75.178143
 30
0.0
 10
79.313313
 20
74.562789
 30
0.0
 10
78.478714
 20
74.217086
 30
0.0
 10
77.608472
 20
74.217086
 30
0.0
  0
SPLINE
  5
18d
100
AcDbEntity
  8
Calque_1
 62
1
100
AcDbSpline
 70
8
 71
3
 72
8
 73
4
 74
0
 40
0
 40
0
 40
0
 40
0
 40
1
 40
1
 40
1
 40
1
 10
77.608472
 20
74.217086
 30
0.0
 10
76.738230
 20
74.217086
 30
0.0
 10
75.903631
 20
74.562788
 30
0.0
 10
75.288277
 20
75.178142
 30
0.0
  0
SPLINE
  5
18e
100
AcDbEntity
  8
Calque_1
 62
1
100
AcDbSpline
 70
8
 71
3
 72
8
 73
4
 74
0
 40
0
 40
0
 40
0
 40
0
 40
1
 40
1
 40
1
 40
1
 10
75.288277
 20
75.178142
 30
0.0
 10
74.672923
 20
75.793496
 30
0.0
 10
74.327221
 20
76.628095
 30
0.0
 10
74.327221
 20
77.498337
 30
0.0
  0
SPLINE
  5
18f
100
AcDbEntity
  8
Calque_1
 62
1
100
AcDbSpline
 70
8
 71
3
 72
8
 73
4
 74
0
 40
0
 40
0
 40
0
 40
0
 40
1
 40
1
 40
1
 40
1
 10
74.327221
 20
77.498337
 30
0.0
 10
74.327221
 20
78.368579
 30
0.0
 10
74.672924
 20
79.203178
 30
0.0
 10
75.288278
 20
79.818531
 30
0.0
  0
SPLINE
  5
190
100
AcDbEntity
  8
Calque_1
 62
1
100
AcDbSpline
 70
8
 71
3
 72
8
 73
4
 74
0
 40
0
 40
0
 40
0
 40
0
 40
1
 40
1
 40
1
 40
1
 10
75.288278
 20
79.818531
 30
0.0
 10
75.903632
 20
80.433885
 30
0.0
 10
76.738231
 20
80.779587
 30
0.0
 10
77.608472
 20
80.779586
 30
0.0
  0
SPLINE
  5
191
100
AcDbEntity
  8
Calque_1
 62
1
100
AcDbSpline
 70
8
 71
3
 72
8
 73
4
 74
0
 40
0
 40
0
 40
0
 40
0
 40
1
 40
1
 40
1
 40
1
 10
77.608472
 20
80.779586
 30
0.0
 10
79.420656
 20
80.779586
 30
0.0
 10
80.889720
 20
79.310521
 30
0.0
 10
80.889721
 20
77.498337
 30
0.0
  0
LINE
  5
192
100
AcDbEntity
  8
Calque_1
 62
1
100
AcDbLine
 10
80.889721
 20
77.498337
 30
0.0
 11
80.889721
 21
77.498337
 31
0.0
  0
SPLINE
  5
193
100
AcDbEntity
  8
Calque_1
 62
1
100
AcDbSpline
 70
8
 71
3
 72
8
 73
4
 74
0
 40
0
 40
0
 40
0
 40
0
 40
1
 40
1
 40
1
 40
1
 10
217.031463
 20
83.091094
 30
0.0
 10
225.971966
 20
111.173176
 30
0.0
 10
237.175425
 20
118.511246
 30
0.0
 10
248.437497
 20
125.312344
 30
0.0
  0
SPLINE
  5
194
100
AcDbEntity
  8
Calque_1
 62
1
100
AcDbSpline
 70
8
 71
3
 72
8
 73
4
 74
0
 40
0
 40
0
 40
0
 40
0
 40
1
 40
1
 40
1
 40
1
 10
248.437497
 20
125.312344
 30
0.0
 10
244.520862
 20
133.622559
 30
0.0
 10
237.737152
 20
135.561095
 30
0.0
 10
229.687683
 20
134.687251
 30
0.0
  0
SPLINE
  5
195
100
AcDbEntity
  8
Calque_1
 62
1
100
AcDbSpline
 70
8
 71
3
 72
8
 73
4
 74
0
 40
0
 40
0
 40
0
 40
0
 40
1
 40
1
 40
1
 40
1
 10
229.687683
 20
134.687251
 30
0.0
 10
236.109567
 20
161.484103
 30
0.0
 10
251.662206
 20
173.062658
 30
0.0
 10
271.875025
 20
176.874593
 30
0.0
  0
SPLINE
  5
196
100
AcDbEntity
  8
Calque_1
 62
1
100
AcDbSpline
 70
8
 71
3
 72
8
 73
4
 74
0
 40
0
 40
0
 40
0
 40
0
 40
1
 40
1
 40
1
 40
1
 10
271.875025
 20
176.874593
 30
0.0
 10
267.470630
 20
188.910001
 30
0.0
 10
258.745433
 20
194.557781
 30
0.0
 10
243.750279
 20
190.937214
 30
0.0
  0
SPLINE
  5
197
100
AcDbEntity
  8
Calque_1
 62
1
100
AcDbSpline
 70
8
 71
3
 72
8
 73
4
 74
0
 40
0
 40
0
 40
0
 40
0
 40
1
 40
1
 40
1
 40
1
 10
243.750279
 20
190.937214
 30
0.0
 10
257.686223
 20
227.007174
 30
0.0
 10
275.395356
 20
244.790920
 30
0.0
 10
295.312553
 20
251.874866
 30
0.0
  0
SPLINE
  5
198
100
AcDbEntity
  8
Calque_1
 62
1
100
AcDbSpline
 70
8
 71
3
 72
8
 73
4
 74
0
 40
0
 40
0
 40
0
 40
0
 40
1
 40
1
 40
1
 40
1
 10
295.312553
 20
251.874866
 30
0.0
 10
289.508430
 20
262.485543
 30
0.0
 10
280.236314
 20
269.094653
 30
0.0
 10
262.500118
 20
265.937487
 30
0.0
  0
SPLINE
  5
199
100
AcDbEntity
  8
Calque_1
 62
1
100
AcDbSpline
 70
8
 71
3
 72
8
 73
4
 74
0
 40
0
 40
0
 40
0
 40
0
 40
1
 40
1
 40
1
 40
1
 10
262.500118
 20
265.937487
 30
0.0
 10
273.526670
 20
297.646660
 30
0.0
 10
288.228012
 20
318.999800
 30
0.0
 10
309.375150
 20
322.187450
 30
0.0
  0
SPLINE
  5
19a
100
AcDbEntity
  8
Calque_1
 62
1
100
AcDbSpline
 70
8
 71
3
 72
8
 73
4
 74
0
 40
0
 40
0
 40
0
 40
0
 40
1
 40
1
 40
1
 40
1
 10
309.375150
 20
322.187450
 30
0.0
 10
293.630969
 20
348.991644
 30
0.0
 10
249.224600
 20
337.801778
 30
0.0
 10
215.625062
 20
340.937265
 30
0.0
  0
SPLINE
  5
19b
100
AcDbEntity
  8
Calque_1
 62
1
100
AcDbSpline
 70
8
 71
3
 72
8
 73
4
 74
0
 40
0
 40
0
 40
0
 40
0
 40
1
 40
1
 40
1
 40
1
 10
215.625062
 20
340.937265
 30
0.0
 10
182.025550
 20
337.801778
 30
0.0
 10
137.619155
 20
348.991644
 30
0.0
 10
121.874975
 20
322.187450
 30
0.0
  0
SPLINE
  5
19c
100
AcDbEntity
  8
Calque_1
 62
1
100
AcDbSpline
 70
8
 71
3
 72
8
 73
4
 74
0
 40
0
 40
0
 40
0
 40
0
 40
1
 40
1
 40
1
 40
1
 10
121.874975
 20
322.187450
 30
0.0
 10
143.022088
 20
318.999800
 30
0.0
 10
157.723429
 20
297.646684
 30
0.0
 10
168.750006
 20
265.937487
 30
0.0
  0
SPLINE
  5
19d
100
AcDbEntity
  8
Calque_1
 62
1
100
AcDbSpline
 70
8
 71
3
 72
8
 73
4
 74
0
 40
0
 40
0
 40
0
 40
0
 40
1
 40
1
 40
1
 40
1
 10
168.750006
 20
265.937487
 30
0.0
 10
151.013811
 20
269.094678
 30
0.0
 10
141.741694
 20
262.485568
 30
0.0
 10
135.937571
 20
251.874866
 30
0.0
  0
SPLINE
  5
19e
100
AcDbEntity
  8
Calque_1
 62
1
100
AcDbSpline
 70
8
 71
3
 72
8
 73
4
 74
0
 40
0
 40
0
 40
0
 40
0
 40
1
 40
1
 40
1
 40
1
 10
135.937571
 20
251.874866
 30
0.0
 10
155.854768
 20
244.790920
 30
0.0
 10
173.564373
 20
227.007174
 30
0.0
 10
187.500316
 20
190.937214
 30
0.0
  0
SPLINE
  5
19f
100
AcDbEntity
  8
Calque_1
 62
1
100
AcDbSpline
 70
8
 71
3
 72
8
 73
4
 74
0
 40
0
 40
0
 40
0
 40
0
 40
1
 40
1
 40
1
 40
1
 10
187.500316
 20
190.937214
 30
0.0
 10
172.505163
 20
194.557781
 30
0.0
 10
163.779469
 20
188.910001
 30
0.0
 10
159.375099
 20
176.874593
 30
0.0
  0
SPLINE
  5
1a0
100
AcDbEntity
  8
Calque_1
 62
1
100
AcDbSpline
 70
8
 71
3
 72
8
 73
4
 74
0
 40
0
 40
0
 40
0
 40
0
 40
1
 40
1
 40
1
 40
1
 10
159.375099
 20
176.874593
 30
0.0
 10
179.587894
 20
173.062609
 30
0.0
 10
195.141053
 20
161.484103
 30
0.0
 10
201.562937
 20
134.687251
 30
0.0
  0
SPLINE
  5
1a1
100
AcDbEntity
  8
Calque_1
 62
1
100
AcDbSpline
 70
8
 71
3
 72
8
 73
4
 74
0
 40
0
 40
0
 40
0
 40
0
 40
1
 40
1
 40
1
 40
1
 10
201.562937
 20
134.687251
 30
0.0
 10
193.513469
 20
135.561095
 30
0.0
 10
186.729287
 20
133.622559
 30
0.0
 10
182.812627
 20
125.312344
 30
0.0
  0
SPLINE
  5
1a2
100
AcDbEntity
  8
Calque_1
 62
1
100
AcDbSpline
 70
8
 71
3
 72
8
 73
4
 74
0
 40
0
 40
0
 40
0
 40
0
 40
1
 40
1
 40
1
 40
1
 10
182.812627
 20
125.312344
 30
0.0
 10
194.074724
 20
118.511271
 30
0.0
 10
205.278159
 20
111.173176
 30
0.0
 10
214.218661
 20
83.091094
 30
0.0
  0
LINE
  5
1a3
100
AcDbEntity
  8
Calque_1
 62
1
100
AcDbLine
 10
214.218661
 20
83.091094
 30
0.0
 11
214.218661
 21
209.687028
 31
0.0
  0
LINE
  5
1a4
100
AcDbEntity
  8
Calque_1
 62
1
100
AcDbLine
 10
214.218661
 20
209.687028
 30
0.0
 11
217.031463
 21
209.687028
 31
0.0
  0
LINE
  5
1a5
100
AcDbEntity
  8
Calque_1
 62
1
100
AcDbLine
 10
217.031463
 20
209.687028
 30
0.0
 11
217.031463
 21
83.091094
 31
0.0
  0
SPLINE
  5
1a6
100
AcDbEntity
  8
Calque_1
 62
1
100
AcDbSpline
 70
8
 71
3
 72
8
 73
4
 74
0
 40
0
 40
0
 40
0
 40
0
 40
1
 40
1
 40
1
 40
1
 10
234.754738
 20
126.801886
 30
0.0
 10
234.754738
 20
128.614063
 30
0.0
 10
236.223791
 20
130.083125
 30
0.0
 10
238.035968
 20
130.083136
 30
0.0
  0
SPLINE
  5
1a7
100
AcDbEntity
  8
Calque_1
 62
1
100
AcDbSpline
 70
8
 71
3
 72
8
 73
4
 74
0
 40
0
 40
0
 40
0
 40
0
 40
1
 40
1
 40
1
 40
1
 10
238.035968
 20
130.083136
 30
0.0
 10
238.906210
 20
130.083138
 30
0.0
 10
239.740811
 20
129.737436
 30
0.0
 10
240.356166
 20
129.122083
 30
0.0
  0
SPLINE
  5
1a8
100
AcDbEntity
  8
Calque_1
 62
1
100
AcDbSpline
 70
8
 71
3
 72
8
 73
4
 74
0
 40
0
 40
0
 40
0
 40
0
 40
1
 40
1
 40
1
 40
1
 10
240.356166
 20
129.122083
 30
0.0
 10
240.971521
 20
128.506729
 30
0.0
 10
241.317224
 20
127.672129
 30
0.0
 10
241.317224
 20
126.801886
 30
0.0
  0
SPLINE
  5
1a9
100
AcDbEntity
  8
Calque_1
 62
1
100
AcDbSpline
 70
8
 71
3
 72
8
 73
4
 74
0
 40
0
 40
0
 40
0
 40
0
 40
1
 40
1
 40
1
 40
1
 10
241.317224
 20
126.801886
 30
0.0
 10
241.317224
 20
125.931643
 30
0.0
 10
240.971521
 20
125.097044
 30
0.0
 10
240.356166
 20
124.481690
 30
0.0
  0
SPLINE
  5
1aa
100
AcDbEntity
  8
Calque_1
 62
1
100
AcDbSpline
 70
8
 71
3
 72
8
 73
4
 74
0
 40
0
 40
0
 40
0
 40
0
 40
1
 40
1
 40
1
 40
1
 10
240.356166
 20
124.481690
 30
0.0
 10
239.740811
 20
123.866336
 30
0.0
 10
238.906210
 20
123.520634
 30
0.0
 10
238.035968
 20
123.520636
 30
0.0
  0
SPLINE
  5
1ab
100
AcDbEntity
  8
Calque_1
 62
1
100
AcDbSpline
 70
8
 71
3
 72
8
 73
4
 74
0
 40
0
 40
0
 40
0
 40
0
 40
1
 40
1
 40
1
 40
1
 10
238.035968
 20
123.520636
 30
0.0
 10
236.223791
 20
123.520647
 30
0.0
 10
234.754738
 20
124.989710
 30
0.0
 10
234.754738
 20
126.801886
 30
0.0
  0
LINE
  5
1ac
100
AcDbEntity
  8
Calque_1
 62
1
100
AcDbLine
 10
234.754738
 20
126.801886
 30
0.0
 11
234.754738
 21
126.801886
 31
0.0
  0
SPLINE
  5
1ad
100
AcDbEntity
  8
Calque_1
 62
1
100
AcDbSpline
 70
8
 71
3
 72
8
 73
4
 74
0
 40
0
 40
0
 40
0
 40
0
 40
1
 40
1
 40
1
 40
1
 10
195.652073
 20
122.036245
 30
0.0
 10
195.652073
 20
122.906488
 30
0.0
 10
195.997776
 20
123.741088
 30
0.0
 10
196.613131
 20
124.356442
 30
0.0
  0
SPLINE
  5
1ae
100
AcDbEntity
  8
Calque_1
 62
1
100
AcDbSpline
 70
8
 71
3
 72
8
 73
4
 74
0
 40
0
 40
0
 40
0
 40
0
 40
1
 40
1
 40
1
 40
1
 10
196.613131
 20
124.356442
 30
0.0
 10
197.228486
 20
124.971796
 30
0.0
 10
198.063086
 20
125.317497
 30
0.0
 10
198.933329
 20
125.317495
 30
0.0
  0
SPLINE
  5
1af
100
AcDbEntity
  8
Calque_1
 62
1
100
AcDbSpline
 70
8
 71
3
 72
8
 73
4
 74
0
 40
0
 40
0
 40
0
 40
0
 40
1
 40
1
 40
1
 40
1
 10
198.933329
 20
125.317495
 30
0.0
 10
199.803572
 20
125.317497
 30
0.0
 10
200.638172
 20
124.971796
 30
0.0
 10
201.253528
 20
124.356442
 30
0.0
  0
SPLINE
  5
1b0
100
AcDbEntity
  8
Calque_1
 62
1
100
AcDbSpline
 70
8
 71
3
 72
8
 73
4
 74
0
 40
0
 40
0
 40
0
 40
0
 40
1
 40
1
 40
1
 40
1
 10
201.253528
 20
124.356442
 30
0.0
 10
201.868883
 20
123.741088
 30
0.0
 10
202.214586
 20
122.906488
 30
0.0
 10
202.214586
 20
122.036245
 30
0.0
  0
SPLINE
  5
1b1
100
AcDbEntity
  8
Calque_1
 62
1
100
AcDbSpline
 70
8
 71
3
 72
8
 73
4
 74
0
 40
0
 40
0
 40
0
 40
0
 40
1
 40
1
 40
1
 40
1
 10
202.214586
 20
122.036245
 30
0.0
 10
202.214586
 20
121.166002
 30
0.0
 10
201.868883
 20
120.331403
 30
0.0
 10
201.253528
 20
119.716049
 30
0.0
  0
SPLINE
  5
1b2
100
AcDbEntity
  8
Calque_1
 62
1
100
AcDbSpline
 70
8
 71
3
 72
8
 73
4
 74
0
 40
0
 40
0
 40
0
 40
0
 40
1
 40
1
 40
1
 40
1
 10
201.253528
 20
119.716049
 30
0.0
 10
200.638172
 20
119.100695
 30
0.0
 10
199.803572
 20
118.754993
 30
0.0
 10
198.933329
 20
118.754995
 30
0.0
  0
SPLINE
  5
1b3
100
AcDbEntity
  8
Calque_1
 62
1
100
AcDbSpline
 70
8
 71
3
 72
8
 73
4
 74
0
 40
0
 40
0
 40
0
 40
0
 40
1
 40
1
 40
1
 40
1
 10
198.933329
 20
118.754995
 30
0.0
 10
198.063086
 20
118.754993
 30
0.0
 10
197.228486
 20
119.100695
 30
0.0
 10
196.613131
 20
119.716049
 30
0.0
  0
SPLINE
  5
1b4
100
AcDbEntity
  8
Calque_1
 62
1
100
AcDbSpline
 70
8
 71
3
 72
8
 73
4
 74
0
 40
0
 40
0
 40
0
 40
0
 40
1
 40
1
 40
1
 40
1
 10
196.613131
 20
119.716049
 30
0.0
 10
195.997775
 20
120.331403
 30
0.0
 10
195.652072
 20
121.166002
 30
0.0
 10
195.652073
 20
122.036245
 30
0.0
  0
LINE
  5
1b5
100
AcDbEntity
  8
Calque_1
 62
1
100
AcDbLine
 10
195.652073
 20
122.036245
 30
0.0
 11
195.652073
 21
122.036245
 31
0.0
  0
SPLINE
  5
1b6
100
AcDbEntity
  8
Calque_1
 62
1
100
AcDbSpline
 70
8
 71
3
 72
8
 73
4
 74
0
 40
0
 40
0
 40
0
 40
0
 40
1
 40
1
 40
1
 40
1
 10
170.846327
 20
183.256378
 30
0.0
 10
170.846327
 20
185.068554
 30
0.0
 10
172.315381
 20
186.537616
 30
0.0
 10
174.127557
 20
186.537627
 30
0.0
  0
SPLINE
  5
1b7
100
AcDbEntity
  8
Calque_1
 62
1
100
AcDbSpline
 70
8
 71
3
 72
8
 73
4
 74
0
 40
0
 40
0
 40
0
 40
0
 40
1
 40
1
 40
1
 40
1
 10
174.127557
 20
186.537627
 30
0.0
 10
174.997799
 20
186.537629
 30
0.0
 10
175.832400
 20
186.191928
 30
0.0
 10
176.447755
 20
185.576574
 30
0.0
  0
SPLINE
  5
1b8
100
AcDbEntity
  8
Calque_1
 62
1
100
AcDbSpline
 70
8
 71
3
 72
8
 73
4
 74
0
 40
0
 40
0
 40
0
 40
0
 40
1
 40
1
 40
1
 40
1
 10
176.447755
 20
185.576574
 30
0.0
 10
177.063110
 20
184.961220
 30
0.0
 10
177.408813
 20
184.126621
 30
0.0
 10
177.408814
 20
183.256378
 30
0.0
  0
SPLINE
  5
1b9
100
AcDbEntity
  8
Calque_1
 62
1
100
AcDbSpline
 70
8
 71
3
 72
8
 73
4
 74
0
 40
0
 40
0
 40
0
 40
0
 40
1
 40
1
 40
1
 40
1
 10
177.408814
 20
183.256378
 30
0.0
 10
177.408814
 20
182.386135
 30
0.0
 10
177.063111
 20
181.551535
 30
0.0
 10
176.447756
 20
180.936181
 30
0.0
  0
SPLINE
  5
1ba
100
AcDbEntity
  8
Calque_1
 62
1
100
AcDbSpline
 70
8
 71
3
 72
8
 73
4
 74
0
 40
0
 40
0
 40
0
 40
0
 40
1
 40
1
 40
1
 40
1
 10
176.447756
 20
180.936181
 30
0.0
 10
175.832401
 20
180.320827
 30
0.0
 10
174.997800
 20
179.975125
 30
0.0
 10
174.127557
 20
179.975127
 30
0.0
  0
SPLINE
  5
1bb
100
AcDbEntity
  8
Calque_1
 62
1
100
AcDbSpline
 70
8
 71
3
 72
8
 73
4
 74
0
 40
0
 40
0
 40
0
 40
0
 40
1
 40
1
 40
1
 40
1
 10
174.127557
 20
179.975127
 30
0.0
 10
172.315380
 20
179.975138
 30
0.0
 10
170.846326
 20
181.444201
 30
0.0
 10
170.846327
 20
183.256378
 30
0.0
  0
LINE
  5
1bc
100
AcDbEntity
  8
Calque_1
 62
1
100
AcDbLine
 10
170.846327
 20
183.256378
 30
0.0
 11
170.846327
 21
183.256378
 31
0.0
  0
SPLINE
  5
1bd
100
AcDbEntity
  8
Calque_1
 62
1
100
AcDbSpline
 70
8
 71
3
 72
8
 73
4
 74
0
 40
0
 40
0
 40
0
 40
0
 40
1
 40
1
 40
1
 40
1
 10
253.817279
 20
179.834898
 30
0.0
 10
253.817279
 20
180.705140
 30
0.0
 10
254.162982
 20
181.539740
 30
0.0
 10
254.778337
 20
182.155093
 30
0.0
  0
SPLINE
  5
1be
100
AcDbEntity
  8
Calque_1
 62
1
100
AcDbSpline
 70
8
 71
3
 72
8
 73
4
 74
0
 40
0
 40
0
 40
0
 40
0
 40
1
 40
1
 40
1
 40
1
 10
254.778337
 20
182.155093
 30
0.0
 10
255.393693
 20
182.770447
 30
0.0
 10
256.228293
 20
183.116148
 30
0.0
 10
257.098535
 20
183.116146
 30
0.0
  0
SPLINE
  5
1bf
100
AcDbEntity
  8
Calque_1
 62
1
100
AcDbSpline
 70
8
 71
3
 72
8
 73
4
 74
0
 40
0
 40
0
 40
0
 40
0
 40
1
 40
1
 40
1
 40
1
 10
257.098535
 20
183.116146
 30
0.0
 10
257.968778
 20
183.116148
 30
0.0
 10
258.803378
 20
182.770447
 30
0.0
 10
259.418733
 20
182.155093
 30
0.0
  0
SPLINE
  5
1c0
100
AcDbEntity
  8
Calque_1
 62
1
100
AcDbSpline
 70
8
 71
3
 72
8
 73
4
 74
0
 40
0
 40
0
 40
0
 40
0
 40
1
 40
1
 40
1
 40
1
 10
259.418733
 20
182.155093
 30
0.0
 10
260.034089
 20
181.539740
 30
0.0
 10
260.379792
 20
180.705140
 30
0.0
 10
260.379792
 20
179.834898
 30
0.0
  0
SPLINE
  5
1c1
100
AcDbEntity
  8
Calque_1
 62
1
100
AcDbSpline
 70
8
 71
3
 72
8
 73
4
 74
0
 40
0
 40
0
 40
0
 40
0
 40
1
 40
1
 40
1
 40
1
 10
260.379792
 20
179.834898
 30
0.0
 10
260.379793
 20
178.964655
 30
0.0
 10
260.034090
 20
178.130055
 30
0.0
 10
259.418734
 20
177.514700
 30
0.0
  0
SPLINE
  5
1c2
100
AcDbEntity
  8
Calque_1
 62
1
100
AcDbSpline
 70
8
 71
3
 72
8
 73
4
 74
0
 40
0
 40
0
 40
0
 40
0
 40
1
 40
1
 40
1
 40
1
 10
259.418734
 20
177.514700
 30
0.0
 10
258.803379
 20
176.899346
 30
0.0
 10
257.968778
 20
176.553645
 30
0.0
 10
257.098535
 20
176.553646
 30
0.0
  0
SPLINE
  5
1c3
100
AcDbEntity
  8
Calque_1
 62
1
100
AcDbSpline
 70
8
 71
3
 72
8
 73
4
 74
0
 40
0
 40
0
 40
0
 40
0
 40
1
 40
1
 40
1
 40
1
 10
257.098535
 20
176.553646
 30
0.0
 10
256.228292
 20
176.553645
 30
0.0
 10
255.393692
 20
176.899346
 30
0.0
 10
254.778336
 20
177.514700
 30
0.0
  0
SPLINE
  5
1c4
100
AcDbEntity
  8
Calque_1
 62
1
100
AcDbSpline
 70
8
 71
3
 72
8
 73
4
 74
0
 40
0
 40
0
 40
0
 40
0
 40
1
 40
1
 40
1
 40
1
 10
254.778336
 20
177.514700
 30
0.0
 10
254.162981
 20
178.130055
 30
0.0
 10
253.817278
 20
178.964655
 30
0.0
 10
253.817279
 20
179.834898
 30
0.0
  0
LINE
  5
1c5
100
AcDbEntity
  8
Calque_1
 62
1
100
AcDbLine
 10
253.817279
 20
179.834898
 30
0.0
 11
253.817279
 21
179.834898
 31
0.0
  0
SPLINE
  5
1c6
100
AcDbEntity
  8
Calque_1
 62
1
100
AcDbSpline
 70
8
 71
3
 72
8
 73
4
 74
0
 40
0
 40
0
 40
0
 40
0
 40
1
 40
1
 40
1
 40
1
 10
227.911766
 20
169.203857
 30
0.0
 10
227.911766
 20
170.074100
 30
0.0
 10
228.257469
 20
170.908699
 30
0.0
 10
228.872824
 20
171.524053
 30
0.0
  0
SPLINE
  5
1c7
100
AcDbEntity
  8
Calque_1
 62
1
100
AcDbSpline
 70
8
 71
3
 72
8
 73
4
 74
0
 40
0
 40
0
 40
0
 40
0
 40
1
 40
1
 40
1
 40
1
 10
228.872824
 20
171.524053
 30
0.0
 10
229.488180
 20
172.139407
 30
0.0
 10
230.322780
 20
172.485108
 30
0.0
 10
231.193023
 20
172.485106
 30
0.0
  0
SPLINE
  5
1c8
100
AcDbEntity
  8
Calque_1
 62
1
100
AcDbSpline
 70
8
 71
3
 72
8
 73
4
 74
0
 40
0
 40
0
 40
0
 40
0
 40
1
 40
1
 40
1
 40
1
 10
231.193023
 20
172.485106
 30
0.0
 10
233.005199
 20
172.485095
 30
0.0
 10
234.474252
 20
171.016034
 30
0.0
 10
234.474253
 20
169.203857
 30
0.0
  0
SPLINE
  5
1c9
100
AcDbEntity
  8
Calque_1
 62
1
100
AcDbSpline
 70
8
 71
3
 72
8
 73
4
 74
0
 40
0
 40
0
 40
0
 40
0
 40
1
 40
1
 40
1
 40
1
 10
234.474253
 20
169.203857
 30
0.0
 10
234.474254
 20
167.391680
 30
0.0
 10
233.005200
 20
165.922617
 30
0.0
 10
231.193023
 20
165.922606
 30
0.0
  0
SPLINE
  5
1ca
100
AcDbEntity
  8
Calque_1
 62
1
100
AcDbSpline
 70
8
 71
3
 72
8
 73
4
 74
0
 40
0
 40
0
 40
0
 40
0
 40
1
 40
1
 40
1
 40
1
 10
231.193023
 20
165.922606
 30
0.0
 10
230.322779
 20
165.922604
 30
0.0
 10
229.488179
 20
166.268306
 30
0.0
 10
228.872824
 20
166.883660
 30
0.0
  0
SPLINE
  5
1cb
100
AcDbEntity
  8
Calque_1
 62
1
100
AcDbSpline
 70
8
 71
3
 72
8
 73
4
 74
0
 40
0
 40
0
 40
0
 40
0
 40
1
 40
1
 40
1
 40
1
 10
228.872824
 20
166.883660
 30
0.0
 10
228.257468
 20
167.499014
 30
0.0
 10
227.911765
 20
168.333614
 30
0.0
 10
227.911766
 20
169.203857
 30
0.0
  0
LINE
  5
1cc
100
AcDbEntity
  8
Calque_1
 62
1
100
AcDbLine
 10
227.911766
 20
169.203857
 30
0.0
 11
227.911766
 21
169.203857
 31
0.0
  0
SPLINE
  5
1cd
100
AcDbEntity
  8
Calque_1
 62
1
100
AcDbSpline
 70
8
 71
3
 72
8
 73
4
 74
0
 40
0
 40
0
 40
0
 40
0
 40
1
 40
1
 40
1
 40
1
 10
198.462556
 20
189.121783
 30
0.0
 10
198.462556
 20
189.992026
 30
0.0
 10
198.808260
 20
190.826625
 30
0.0
 10
199.423615
 20
191.441979
 30
0.0
  0
SPLINE
  5
1ce
100
AcDbEntity
  8
Calque_1
 62
1
100
AcDbSpline
 70
8
 71
3
 72
8
 73
4
 74
0
 40
0
 40
0
 40
0
 40
0
 40
1
 40
1
 40
1
 40
1
 10
199.423615
 20
191.441979
 30
0.0
 10
200.038970
 20
192.057333
 30
0.0
 10
200.873570
 20
192.403034
 30
0.0
 10
201.743813
 20
192.403032
 30
0.0
  0
SPLINE
  5
1cf
100
AcDbEntity
  8
Calque_1
 62
1
100
AcDbSpline
 70
8
 71
3
 72
8
 73
4
 74
0
 40
0
 40
0
 40
0
 40
0
 40
1
 40
1
 40
1
 40
1
 10
201.743813
 20
192.403032
 30
0.0
 10
202.614055
 20
192.403034
 30
0.0
 10
203.448656
 20
192.057333
 30
0.0
 10
204.064011
 20
191.441979
 30
0.0
  0
SPLINE
  5
1d0
100
AcDbEntity
  8
Calque_1
 62
1
100
AcDbSpline
 70
8
 71
3
 72
8
 73
4
 74
0
 40
0
 40
0
 40
0
 40
0
 40
1
 40
1
 40
1
 40
1
 10
204.064011
 20
191.441979
 30
0.0
 10
204.679366
 20
190.826625
 30
0.0
 10
205.025069
 20
189.992026
 30
0.0
 10
205.025069
 20
189.121783
 30
0.0
  0
SPLINE
  5
1d1
100
AcDbEntity
  8
Calque_1
 62
1
100
AcDbSpline
 70
8
 71
3
 72
8
 73
4
 74
0
 40
0
 40
0
 40
0
 40
0
 40
1
 40
1
 40
1
 40
1
 10
205.025069
 20
189.121783
 30
0.0
 10
205.025070
 20
188.251540
 30
0.0
 10
204.679367
 20
187.416940
 30
0.0
 10
204.064012
 20
186.801586
 30
0.0
  0
SPLINE
  5
1d2
100
AcDbEntity
  8
Calque_1
 62
1
100
AcDbSpline
 70
8
 71
3
 72
8
 73
4
 74
0
 40
0
 40
0
 40
0
 40
0
 40
1
 40
1
 40
1
 40
1
 10
204.064012
 20
186.801586
 30
0.0
 10
203.448656
 20
186.186232
 30
0.0
 10
202.614056
 20
185.840530
 30
0.0
 10
201.743813
 20
185.840532
 30
0.0
  0
SPLINE
  5
1d3
100
AcDbEntity
  8
Calque_1
 62
1
100
AcDbSpline
 70
8
 71
3
 72
8
 73
4
 74
0
 40
0
 40
0
 40
0
 40
0
 40
1
 40
1
 40
1
 40
1
 10
201.743813
 20
185.840532
 30
0.0
 10
200.873570
 20
185.840530
 30
0.0
 10
200.038969
 20
186.186232
 30
0.0
 10
199.423614
 20
186.801586
 30
0.0
  0
SPLINE
  5
1d4
100
AcDbEntity
  8
Calque_1
 62
1
100
AcDbSpline
 70
8
 71
3
 72
8
 73
4
 74
0
 40
0
 40
0
 40
0
 40
0
 40
1
 40
1
 40
1
 40
1
 10
199.423614
 20
186.801586
 30
0.0
 10
198.808258
 20
187.416940
 30
0.0
 10
198.462556
 20
188.251540
 30
0.0
 10
198.462556
 20
189.121783
 30
0.0
  0
LINE
  5
1d5
100
AcDbEntity
  8
Calque_1
 62
1
100
AcDbLine
 10
198.462556
 20
189.121783
 30
0.0
 11
198.462556
 21
189.121783
 31
0.0
  0
SPLINE
  5
1d6
100
AcDbEntity
  8
Calque_1
 62
1
100
AcDbSpline
 70
8
 71
3
 72
8
 73
4
 74
0
 40
0
 40
0
 40
0
 40
0
 40
1
 40
1
 40
1
 40
1
 10
234.388157
 20
216.615857
 30
0.0
 10
234.388158
 20
218.428033
 30
0.0
 10
235.857211
 20
219.897095
 30
0.0
 10
237.669388
 20
219.897106
 30
0.0
  0
SPLINE
  5
1d7
100
AcDbEntity
  8
Calque_1
 62
1
100
AcDbSpline
 70
8
 71
3
 72
8
 73
4
 74
0
 40
0
 40
0
 40
0
 40
0
 40
1
 40
1
 40
1
 40
1
 10
237.669388
 20
219.897106
 30
0.0
 10
238.539630
 20
219.897108
 30
0.0
 10
239.374230
 20
219.551407
 30
0.0
 10
239.989586
 20
218.936053
 30
0.0
  0
SPLINE
  5
1d8
100
AcDbEntity
  8
Calque_1
 62
1
100
AcDbSpline
 70
8
 71
3
 72
8
 73
4
 74
0
 40
0
 40
0
 40
0
 40
0
 40
1
 40
1
 40
1
 40
1
 10
239.989586
 20
218.936053
 30
0.0
 10
240.604941
 20
218.320699
 30
0.0
 10
240.950644
 20
217.486100
 30
0.0
 10
240.950644
 20
216.615857
 30
0.0
  0
SPLINE
  5
1d9
100
AcDbEntity
  8
Calque_1
 62
1
100
AcDbSpline
 70
8
 71
3
 72
8
 73
4
 74
0
 40
0
 40
0
 40
0
 40
0
 40
1
 40
1
 40
1
 40
1
 10
240.950644
 20
216.615857
 30
0.0
 10
240.950645
 20
215.745614
 30
0.0
 10
240.604942
 20
214.911014
 30
0.0
 10
239.989586
 20
214.295660
 30
0.0
  0
SPLINE
  5
1da
100
AcDbEntity
  8
Calque_1
 62
1
100
AcDbSpline
 70
8
 71
3
 72
8
 73
4
 74
0
 40
0
 40
0
 40
0
 40
0
 40
1
 40
1
 40
1
 40
1
 10
239.989586
 20
214.295660
 30
0.0
 10
239.374231
 20
213.680306
 30
0.0
 10
238.539631
 20
213.334604
 30
0.0
 10
237.669388
 20
213.334606
 30
0.0
  0
SPLINE
  5
1db
100
AcDbEntity
  8
Calque_1
 62
1
100
AcDbSpline
 70
8
 71
3
 72
8
 73
4
 74
0
 40
0
 40
0
 40
0
 40
0
 40
1
 40
1
 40
1
 40
1
 10
237.669388
 20
213.334606
 30
0.0
 10
235.857210
 20
213.334617
 30
0.0
 10
234.388156
 20
214.803680
 30
0.0
 10
234.388157
 20
216.615857
 30
0.0
  0
LINE
  5
1dc
100
AcDbEntity
  8
Calque_1
 62
1
100
AcDbLine
 10
234.388157
 20
216.615857
 30
0.0
 11
234.388157
 21
216.615857
 31
0.0
  0
SPLINE
  5
1dd
100
AcDbEntity
  8
Calque_1
 62
1
100
AcDbSpline
 70
8
 71
3
 72
8
 73
4
 74
0
 40
0
 40
0
 40
0
 40
0
 40
1
 40
1
 40
1
 40
1
 10
182.210525
 20
226.758114
 30
0.0
 10
182.210524
 20
228.570291
 30
0.0
 10
183.679578
 20
230.039355
 30
0.0
 10
185.491755
 20
230.039366
 30
0.0
  0
SPLINE
  5
1de
100
AcDbEntity
  8
Calque_1
 62
1
100
AcDbSpline
 70
8
 71
3
 72
8
 73
4
 74
0
 40
0
 40
0
 40
0
 40
0
 40
1
 40
1
 40
1
 40
1
 10
185.491755
 20
230.039366
 30
0.0
 10
186.361998
 20
230.039367
 30
0.0
 10
187.196599
 20
229.693666
 30
0.0
 10
187.811954
 20
229.078312
 30
0.0
  0
SPLINE
  5
1df
100
AcDbEntity
  8
Calque_1
 62
1
100
AcDbSpline
 70
8
 71
3
 72
8
 73
4
 74
0
 40
0
 40
0
 40
0
 40
0
 40
1
 40
1
 40
1
 40
1
 10
187.811954
 20
229.078312
 30
0.0
 10
188.427309
 20
228.462957
 30
0.0
 10
188.773012
 20
227.628357
 30
0.0
 10
188.773012
 20
226.758114
 30
0.0
  0
SPLINE
  5
1e0
100
AcDbEntity
  8
Calque_1
 62
1
100
AcDbSpline
 70
8
 71
3
 72
8
 73
4
 74
0
 40
0
 40
0
 40
0
 40
0
 40
1
 40
1
 40
1
 40
1
 10
188.773012
 20
226.758114
 30
0.0
 10
188.773011
 20
225.887872
 30
0.0
 10
188.427308
 20
225.053272
 30
0.0
 10
187.811953
 20
224.437919
 30
0.0
  0
SPLINE
  5
1e1
100
AcDbEntity
  8
Calque_1
 62
1
100
AcDbSpline
 70
8
 71
3
 72
8
 73
4
 74
0
 40
0
 40
0
 40
0
 40
0
 40
1
 40
1
 40
1
 40
1
 10
187.811953
 20
224.437919
 30
0.0
 10
187.196598
 20
223.822565
 30
0.0
 10
186.361998
 20
223.476864
 30
0.0
 10
185.491755
 20
223.476866
 30
0.0
  0
SPLINE
  5
1e2
100
AcDbEntity
  8
Calque_1
 62
1
100
AcDbSpline
 70
8
 71
3
 72
8
 73
4
 74
0
 40
0
 40
0
 40
0
 40
0
 40
1
 40
1
 40
1
 40
1
 10
185.491755
 20
223.476866
 30
0.0
 10
183.679579
 20
223.476876
 30
0.0
 10
182.210525
 20
224.945938
 30
0.0
 10
182.210525
 20
226.758114
 30
0.0
  0
LINE
  5
1e3
100
AcDbEntity
  8
Calque_1
 62
1
100
AcDbLine
 10
182.210525
 20
226.758114
 30
0.0
 11
182.210525
 21
226.758114
 31
0.0
  0
SPLINE
  5
1e4
100
AcDbEntity
  8
Calque_1
 62
1
100
AcDbSpline
 70
8
 71
3
 72
8
 73
4
 74
0
 40
0
 40
0
 40
0
 40
0
 40
1
 40
1
 40
1
 40
1
 10
146.162713
 20
254.007800
 30
0.0
 10
146.162713
 20
254.878043
 30
0.0
 10
146.508416
 20
255.712643
 30
0.0
 10
147.123771
 20
256.327996
 30
0.0
  0
SPLINE
  5
1e5
100
AcDbEntity
  8
Calque_1
 62
1
100
AcDbSpline
 70
8
 71
3
 72
8
 73
4
 74
0
 40
0
 40
0
 40
0
 40
0
 40
1
 40
1
 40
1
 40
1
 10
147.123771
 20
256.327996
 30
0.0
 10
147.739126
 20
256.943350
 30
0.0
 10
148.573727
 20
257.289051
 30
0.0
 10
149.443969
 20
257.289049
 30
0.0
  0
SPLINE
  5
1e6
100
AcDbEntity
  8
Calque_1
 62
1
100
AcDbSpline
 70
8
 71
3
 72
8
 73
4
 74
0
 40
0
 40
0
 40
0
 40
0
 40
1
 40
1
 40
1
 40
1
 10
149.443969
 20
257.289049
 30
0.0
 10
150.314212
 20
257.289051
 30
0.0
 10
151.148812
 20
256.943350
 30
0.0
 10
151.764167
 20
256.327996
 30
0.0
  0
SPLINE
  5
1e7
100
AcDbEntity
  8
Calque_1
 62
1
100
AcDbSpline
 70
8
 71
3
 72
8
 73
4
 74
0
 40
0
 40
0
 40
0
 40
0
 40
1
 40
1
 40
1
 40
1
 10
151.764167
 20
256.327996
 30
0.0
 10
152.379522
 20
255.712643
 30
0.0
 10
152.725226
 20
254.878043
 30
0.0
 10
152.725226
 20
254.007800
 30
0.0
  0
SPLINE
  5
1e8
100
AcDbEntity
  8
Calque_1
 62
1
100
AcDbSpline
 70
8
 71
3
 72
8
 73
4
 74
0
 40
0
 40
0
 40
0
 40
0
 40
1
 40
1
 40
1
 40
1
 10
152.725226
 20
254.007800
 30
0.0
 10
152.725226
 20
253.137558
 30
0.0
 10
152.379522
 20
252.302958
 30
0.0
 10
151.764167
 20
251.687605
 30
0.0
  0
SPLINE
  5
1e9
100
AcDbEntity
  8
Calque_1
 62
1
100
AcDbSpline
 70
8
 71
3
 72
8
 73
4
 74
0
 40
0
 40
0
 40
0
 40
0
 40
1
 40
1
 40
1
 40
1
 10
151.764167
 20
251.687605
 30
0.0
 10
151.148812
 20
251.072251
 30
0.0
 10
150.314212
 20
250.726550
 30
0.0
 10
149.443969
 20
250.726552
 30
0.0
  0
SPLINE
  5
1ea
100
AcDbEntity
  8
Calque_1
 62
1
100
AcDbSpline
 70
8
 71
3
 72
8
 73
4
 74
0
 40
0
 40
0
 40
0
 40
0
 40
1
 40
1
 40
1
 40
1
 10
149.443969
 20
250.726552
 30
0.0
 10
148.573727
 20
250.726550
 30
0.0
 10
147.739126
 20
251.072251
 30
0.0
 10
147.123771
 20
251.687605
 30
0.0
  0
SPLINE
  5
1eb
100
AcDbEntity
  8
Calque_1
 62
1
100
AcDbSpline
 70
8
 71
3
 72
8
 73
4
 74
0
 40
0
 40
0
 40
0
 40
0
 40
1
 40
1
 40
1
 40
1
 10
147.123771
 20
251.687605
 30
0.0
 10
146.508416
 20
252.302958
 30
0.0
 10
146.162713
 20
253.137558
 30
0.0
 10
146.162713
 20
254.007800
 30
0.0
  0
LINE
  5
1ec
100
AcDbEntity
  8
Calque_1
 62
1
100
AcDbLine
 10
146.162713
 20
254.007800
 30
0.0
 11
146.162713
 21
254.007800
 31
0.0
  0
SPLINE
  5
1ed
100
AcDbEntity
  8
Calque_1
 62
1
100
AcDbSpline
 70
8
 71
3
 72
8
 73
4
 74
0
 40
0
 40
0
 40
0
 40
0
 40
1
 40
1
 40
1
 40
1
 10
273.002031
 20
257.795877
 30
0.0
 10
273.002031
 20
258.666120
 30
0.0
 10
273.347735
 20
259.500719
 30
0.0
 10
273.963090
 20
260.116073
 30
0.0
  0
SPLINE
  5
1ee
100
AcDbEntity
  8
Calque_1
 62
1
100
AcDbSpline
 70
8
 71
3
 72
8
 73
4
 74
0
 40
0
 40
0
 40
0
 40
0
 40
1
 40
1
 40
1
 40
1
 10
273.963090
 20
260.116073
 30
0.0
 10
274.578445
 20
260.731426
 30
0.0
 10
275.413045
 20
261.077128
 30
0.0
 10
276.283288
 20
261.077126
 30
0.0
  0
SPLINE
  5
1ef
100
AcDbEntity
  8
Calque_1
 62
1
100
AcDbSpline
 70
8
 71
3
 72
8
 73
4
 74
0
 40
0
 40
0
 40
0
 40
0
 40
1
 40
1
 40
1
 40
1
 10
276.283288
 20
261.077126
 30
0.0
 10
277.153530
 20
261.077128
 30
0.0
 10
277.988131
 20
260.731426
 30
0.0
 10
278.603486
 20
260.116073
 30
0.0
  0
SPLINE
  5
1f0
100
AcDbEntity
  8
Calque_1
 62
1
100
AcDbSpline
 70
8
 71
3
 72
8
 73
4
 74
0
 40
0
 40
0
 40
0
 40
0
 40
1
 40
1
 40
1
 40
1
 10
278.603486
 20
260.116073
 30
0.0
 10
279.218841
 20
259.500719
 30
0.0
 10
279.564544
 20
258.666120
 30
0.0
 10
279.564544
 20
257.795877
 30
0.0
  0
SPLINE
  5
1f1
100
AcDbEntity
  8
Calque_1
 62
1
100
AcDbSpline
 70
8
 71
3
 72
8
 73
4
 74
0
 40
0
 40
0
 40
0
 40
0
 40
1
 40
1
 40
1
 40
1
 10
279.564544
 20
257.795877
 30
0.0
 10
279.564545
 20
256.925634
 30
0.0
 10
279.218842
 20
256.091034
 30
0.0
 10
278.603487
 20
255.475680
 30
0.0
  0
SPLINE
  5
1f2
100
AcDbEntity
  8
Calque_1
 62
1
100
AcDbSpline
 70
8
 71
3
 72
8
 73
4
 74
0
 40
0
 40
0
 40
0
 40
0
 40
1
 40
1
 40
1
 40
1
 10
278.603487
 20
255.475680
 30
0.0
 10
277.988131
 20
254.860325
 30
0.0
 10
277.153531
 20
254.514624
 30
0.0
 10
276.283288
 20
254.514626
 30
0.0
  0
SPLINE
  5
1f3
100
AcDbEntity
  8
Calque_1
 62
1
100
AcDbSpline
 70
8
 71
3
 72
8
 73
4
 74
0
 40
0
 40
0
 40
0
 40
0
 40
1
 40
1
 40
1
 40
1
 10
276.283288
 20
254.514626
 30
0.0
 10
275.413045
 20
254.514624
 30
0.0
 10
274.578444
 20
254.860325
 30
0.0
 10
273.963089
 20
255.475680
 30
0.0
  0
SPLINE
  5
1f4
100
AcDbEntity
  8
Calque_1
 62
1
100
AcDbSpline
 70
8
 71
3
 72
8
 73
4
 74
0
 40
0
 40
0
 40
0
 40
0
 40
1
 40
1
 40
1
 40
1
 10
273.963089
 20
255.475680
 30
0.0
 10
273.347733
 20
256.091034
 30
0.0
 10
273.002031
 20
256.925634
 30
0.0
 10
273.002031
 20
257.795877
 30
0.0
  0
LINE
  5
1f5
100
AcDbEntity
  8
Calque_1
 62
1
100
AcDbLine
 10
273.002031
 20
257.795877
 30
0.0
 11
273.002031
 21
257.795877
 31
0.0
  0
SPLINE
  5
1f6
100
AcDbEntity
  8
Calque_1
 62
1
100
AcDbSpline
 70
8
 71
3
 72
8
 73
4
 74
0
 40
0
 40
0
 40
0
 40
0
 40
1
 40
1
 40
1
 40
1
 10
245.141353
 20
250.097526
 30
0.0
 10
245.141353
 20
250.967769
 30
0.0
 10
245.487057
 20
251.802368
 30
0.0
 10
246.102412
 20
252.417722
 30
0.0
  0
SPLINE
  5
1f7
100
AcDbEntity
  8
Calque_1
 62
1
100
AcDbSpline
 70
8
 71
3
 72
8
 73
4
 74
0
 40
0
 40
0
 40
0
 40
0
 40
1
 40
1
 40
1
 40
1
 10
246.102412
 20
252.417722
 30
0.0
 10
246.717767
 20
253.033075
 30
0.0
 10
247.552367
 20
253.378777
 30
0.0
 10
248.422610
 20
253.378775
 30
0.0
  0
SPLINE
  5
1f8
100
AcDbEntity
  8
Calque_1
 62
1
100
AcDbSpline
 70
8
 71
3
 72
8
 73
4
 74
0
 40
0
 40
0
 40
0
 40
0
 40
1
 40
1
 40
1
 40
1
 10
248.422610
 20
253.378775
 30
0.0
 10
249.292852
 20
253.378777
 30
0.0
 10
250.127453
 20
253.033075
 30
0.0
 10
250.742808
 20
252.417722
 30
0.0
  0
SPLINE
  5
1f9
100
AcDbEntity
  8
Calque_1
 62
1
100
AcDbSpline
 70
8
 71
3
 72
8
 73
4
 74
0
 40
0
 40
0
 40
0
 40
0
 40
1
 40
1
 40
1
 40
1
 10
250.742808
 20
252.417722
 30
0.0
 10
251.358163
 20
251.802368
 30
0.0
 10
251.703866
 20
250.967769
 30
0.0
 10
251.703866
 20
250.097526
 30
0.0
  0
SPLINE
  5
1fa
100
AcDbEntity
  8
Calque_1
 62
1
100
AcDbSpline
 70
8
 71
3
 72
8
 73
4
 74
0
 40
0
 40
0
 40
0
 40
0
 40
1
 40
1
 40
1
 40
1
 10
251.703866
 20
250.097526
 30
0.0
 10
251.703867
 20
249.227283
 30
0.0
 10
251.358164
 20
248.392683
 30
0.0
 10
250.742809
 20
247.777329
 30
0.0
  0
SPLINE
  5
1fb
100
AcDbEntity
  8
Calque_1
 62
1
100
AcDbSpline
 70
8
 71
3
 72
8
 73
4
 74
0
 40
0
 40
0
 40
0
 40
0
 40
1
 40
1
 40
1
 40
1
 10
250.742809
 20
247.777329
 30
0.0
 10
250.127454
 20
247.161974
 30
0.0
 10
249.292853
 20
246.816273
 30
0.0
 10
248.422610
 20
246.816275
 30
0.0
  0
SPLINE
  5
1fc
100
AcDbEntity
  8
Calque_1
 62
1
100
AcDbSpline
 70
8
 71
3
 72
8
 73
4
 74
0
 40
0
 40
0
 40
0
 40
0
 40
1
 40
1
 40
1
 40
1
 10
248.422610
 20
246.816275
 30
0.0
 10
247.552367
 20
246.816273
 30
0.0
 10
246.717766
 20
247.161974
 30
0.0
 10
246.102411
 20
247.777329
 30
0.0
  0
SPLINE
  5
1fd
100
AcDbEntity
  8
Calque_1
 62
1
100
AcDbSpline
 70
8
 71
3
 72
8
 73
4
 74
0
 40
0
 40
0
 40
0
 40
0
 40
1
 40
1
 40
1
 40
1
 10
246.102411
 20
247.777329
 30
0.0
 10
245.487056
 20
248.392683
 30
0.0
 10
245.141353
 20
249.227283
 30
0.0
 10
245.141353
 20
250.097526
 30
0.0
  0
LINE
  5
1fe
100
AcDbEntity
  8
Calque_1
 62
1
100
AcDbLine
 10
245.141353
 20
250.097526
 30
0.0
 11
245.141353
 21
250.097526
 31
0.0
  0
SPLINE
  5
1ff
100
AcDbEntity
  8
Calque_1
 62
1
100
AcDbSpline
 70
8
 71
3
 72
8
 73
4
 74
0
 40
0
 40
0
 40
0
 40
0
 40
1
 40
1
 40
1
 40
1
 10
199.684508
 20
246.676045
 30
0.0
 10
199.684508
 20
247.546288
 30
0.0
 10
200.030211
 20
248.380888
 30
0.0
 10
200.645566
 20
248.996241
 30
0.0
  0
SPLINE
  5
200
100
AcDbEntity
  8
Calque_1
 62
1
100
AcDbSpline
 70
8
 71
3
 72
8
 73
4
 74
0
 40
0
 40
0
 40
0
 40
0
 40
1
 40
1
 40
1
 40
1
 10
200.645566
 20
248.996241
 30
0.0
 10
201.260921
 20
249.611595
 30
0.0
 10
202.095522
 20
249.957296
 30
0.0
 10
202.965764
 20
249.957294
 30
0.0
  0
SPLINE
  5
201
100
AcDbEntity
  8
Calque_1
 62
1
100
AcDbSpline
 70
8
 71
3
 72
8
 73
4
 74
0
 40
0
 40
0
 40
0
 40
0
 40
1
 40
1
 40
1
 40
1
 10
202.965764
 20
249.957294
 30
0.0
 10
203.836007
 20
249.957296
 30
0.0
 10
204.670607
 20
249.611595
 30
0.0
 10
205.285962
 20
248.996241
 30
0.0
  0
SPLINE
  5
202
100
AcDbEntity
  8
Calque_1
 62
1
100
AcDbSpline
 70
8
 71
3
 72
8
 73
4
 74
0
 40
0
 40
0
 40
0
 40
0
 40
1
 40
1
 40
1
 40
1
 10
205.285962
 20
248.996241
 30
0.0
 10
205.901318
 20
248.380888
 30
0.0
 10
206.247021
 20
247.546288
 30
0.0
 10
206.247021
 20
246.676045
 30
0.0
  0
SPLINE
  5
203
100
AcDbEntity
  8
Calque_1
 62
1
100
AcDbSpline
 70
8
 71
3
 72
8
 73
4
 74
0
 40
0
 40
0
 40
0
 40
0
 40
1
 40
1
 40
1
 40
1
 10
206.247021
 20
246.676045
 30
0.0
 10
206.247021
 20
245.805802
 30
0.0
 10
205.901319
 20
244.971202
 30
0.0
 10
205.285963
 20
244.355848
 30
0.0
  0
SPLINE
  5
204
100
AcDbEntity
  8
Calque_1
 62
1
100
AcDbSpline
 70
8
 71
3
 72
8
 73
4
 74
0
 40
0
 40
0
 40
0
 40
0
 40
1
 40
1
 40
1
 40
1
 10
205.285963
 20
244.355848
 30
0.0
 10
204.670608
 20
243.740494
 30
0.0
 10
203.836007
 20
243.394792
 30
0.0
 10
202.965764
 20
243.394794
 30
0.0
  0
SPLINE
  5
205
100
AcDbEntity
  8
Calque_1
 62
1
100
AcDbSpline
 70
8
 71
3
 72
8
 73
4
 74
0
 40
0
 40
0
 40
0
 40
0
 40
1
 40
1
 40
1
 40
1
 10
202.965764
 20
243.394794
 30
0.0
 10
202.095521
 20
243.394792
 30
0.0
 10
201.260921
 20
243.740494
 30
0.0
 10
200.645565
 20
244.355848
 30
0.0
  0
SPLINE
  5
206
100
AcDbEntity
  8
Calque_1
 62
1
100
AcDbSpline
 70
8
 71
3
 72
8
 73
4
 74
0
 40
0
 40
0
 40
0
 40
0
 40
1
 40
1
 40
1
 40
1
 10
200.645565
 20
244.355848
 30
0.0
 10
200.030210
 20
244.971202
 30
0.0
 10
199.684507
 20
245.805802
 30
0.0
 10
199.684508
 20
246.676045
 30
0.0
  0
LINE
  5
207
100
AcDbEntity
  8
Calque_1
 62
1
100
AcDbLine
 10
199.684508
 20
246.676045
 30
0.0
 11
199.684508
 21
246.676045
 31
0.0
  0
SPLINE
  5
208
100
AcDbEntity
  8
Calque_1
 62
1
100
AcDbSpline
 70
8
 71
3
 72
8
 73
4
 74
0
 40
0
 40
0
 40
0
 40
0
 40
1
 40
1
 40
1
 40
1
 10
173.202150
 20
284.816887
 30
0.0
 10
173.202150
 20
285.687129
 30
0.0
 10
173.547854
 20
286.521729
 30
0.0
 10
174.163209
 20
287.137082
 30
0.0
  0
SPLINE
  5
209
100
AcDbEntity
  8
Calque_1
 62
1
100
AcDbSpline
 70
8
 71
3
 72
8
 73
4
 74
0
 40
0
 40
0
 40
0
 40
0
 40
1
 40
1
 40
1
 40
1
 10
174.163209
 20
287.137082
 30
0.0
 10
174.778564
 20
287.752436
 30
0.0
 10
175.613164
 20
288.098137
 30
0.0
 10
176.483407
 20
288.098135
 30
0.0
  0
SPLINE
  5
20a
100
AcDbEntity
  8
Calque_1
 62
1
100
AcDbSpline
 70
8
 71
3
 72
8
 73
4
 74
0
 40
0
 40
0
 40
0
 40
0
 40
1
 40
1
 40
1
 40
1
 10
176.483407
 20
288.098135
 30
0.0
 10
177.353649
 20
288.098137
 30
0.0
 10
178.188250
 20
287.752436
 30
0.0
 10
178.803605
 20
287.137082
 30
0.0
  0
SPLINE
  5
20b
100
AcDbEntity
  8
Calque_1
 62
1
100
AcDbSpline
 70
8
 71
3
 72
8
 73
4
 74
0
 40
0
 40
0
 40
0
 40
0
 40
1
 40
1
 40
1
 40
1
 10
178.803605
 20
287.137082
 30
0.0
 10
179.418960
 20
286.521729
 30
0.0
 10
179.764663
 20
285.687129
 30
0.0
 10
179.764664
 20
284.816887
 30
0.0
  0
SPLINE
  5
20c
100
AcDbEntity
  8
Calque_1
 62
1
100
AcDbSpline
 70
8
 71
3
 72
8
 73
4
 74
0
 40
0
 40
0
 40
0
 40
0
 40
1
 40
1
 40
1
 40
1
 10
179.764664
 20
284.816887
 30
0.0
 10
179.764664
 20
283.946644
 30
0.0
 10
179.418961
 20
283.112043
 30
0.0
 10
178.803606
 20
282.496689
 30
0.0
  0
SPLINE
  5
20d
100
AcDbEntity
  8
Calque_1
 62
1
100
AcDbSpline
 70
8
 71
3
 72
8
 73
4
 74
0
 40
0
 40
0
 40
0
 40
0
 40
1
 40
1
 40
1
 40
1
 10
178.803606
 20
282.496689
 30
0.0
 10
178.188251
 20
281.881335
 30
0.0
 10
177.353650
 20
281.535633
 30
0.0
 10
176.483407
 20
281.535635
 30
0.0
  0
SPLINE
  5
20e
100
AcDbEntity
  8
Calque_1
 62
1
100
AcDbSpline
 70
8
 71
3
 72
8
 73
4
 74
0
 40
0
 40
0
 40
0
 40
0
 40
1
 40
1
 40
1
 40
1
 10
176.483407
 20
281.535635
 30
0.0
 10
175.613164
 20
281.535633
 30
0.0
 10
174.778563
 20
281.881335
 30
0.0
 10
174.163208
 20
282.496689
 30
0.0
  0
SPLINE
  5
20f
100
AcDbEntity
  8
Calque_1
 62
1
100
AcDbSpline
 70
8
 71
3
 72
8
 73
4
 74
0
 40
0
 40
0
 40
0
 40
0
 40
1
 40
1
 40
1
 40
1
 10
174.163208
 20
282.496689
 30
0.0
 10
173.547853
 20
283.112043
 30
0.0
 10
173.202150
 20
283.946644
 30
0.0
 10
173.202150
 20
284.816887
 30
0.0
  0
LINE
  5
210
100
AcDbEntity
  8
Calque_1
 62
1
100
AcDbLine
 10
173.202150
 20
284.816887
 30
0.0
 11
173.202150
 21
284.816887
 31
0.0
  0
SPLINE
  5
211
100
AcDbEntity
  8
Calque_1
 62
1
100
AcDbSpline
 70
8
 71
3
 72
8
 73
4
 74
0
 40
0
 40
0
 40
0
 40
0
 40
1
 40
1
 40
1
 40
1
 10
284.838114
 20
321.452828
 30
0.0
 10
284.838114
 20
323.265004
 30
0.0
 10
286.307168
 20
324.734066
 30
0.0
 10
288.119344
 20
324.734077
 30
0.0
  0
SPLINE
  5
212
100
AcDbEntity
  8
Calque_1
 62
1
100
AcDbSpline
 70
8
 71
3
 72
8
 73
4
 74
0
 40
0
 40
0
 40
0
 40
0
 40
1
 40
1
 40
1
 40
1
 10
288.119344
 20
324.734077
 30
0.0
 10
288.989586
 20
324.734078
 30
0.0
 10
289.824187
 20
324.388377
 30
0.0
 10
290.439542
 20
323.773024
 30
0.0
  0
SPLINE
  5
213
100
AcDbEntity
  8
Calque_1
 62
1
100
AcDbSpline
 70
8
 71
3
 72
8
 73
4
 74
0
 40
0
 40
0
 40
0
 40
0
 40
1
 40
1
 40
1
 40
1
 10
290.439542
 20
323.773024
 30
0.0
 10
291.054897
 20
323.157670
 30
0.0
 10
291.400600
 20
322.323070
 30
0.0
 10
291.400600
 20
321.452828
 30
0.0
  0
SPLINE
  5
214
100
AcDbEntity
  8
Calque_1
 62
1
100
AcDbSpline
 70
8
 71
3
 72
8
 73
4
 74
0
 40
0
 40
0
 40
0
 40
0
 40
1
 40
1
 40
1
 40
1
 10
291.400600
 20
321.452828
 30
0.0
 10
291.400600
 20
320.582585
 30
0.0
 10
291.054897
 20
319.747986
 30
0.0
 10
290.439542
 20
319.132632
 30
0.0
  0
SPLINE
  5
215
100
AcDbEntity
  8
Calque_1
 62
1
100
AcDbSpline
 70
8
 71
3
 72
8
 73
4
 74
0
 40
0
 40
0
 40
0
 40
0
 40
1
 40
1
 40
1
 40
1
 10
290.439542
 20
319.132632
 30
0.0
 10
289.824187
 20
318.517279
 30
0.0
 10
288.989586
 20
318.171577
 30
0.0
 10
288.119344
 20
318.171579
 30
0.0
  0
SPLINE
  5
216
100
AcDbEntity
  8
Calque_1
 62
1
100
AcDbSpline
 70
8
 71
3
 72
8
 73
4
 74
0
 40
0
 40
0
 40
0
 40
0
 40
1
 40
1
 40
1
 40
1
 10
288.119344
 20
318.171579
 30
0.0
 10
286.307168
 20
318.171590
 30
0.0
 10
284.838114
 20
319.640652
 30
0.0
 10
284.838114
 20
321.452828
 30
0.0
  0
LINE
  5
217
100
AcDbEntity
  8
Calque_1
 62
1
100
AcDbLine
 10
284.838114
 20
321.452828
 30
0.0
 11
284.838114
 21
321.452828
 31
0.0
  0
SPLINE
  5
218
100
AcDbEntity
  8
Calque_1
 62
1
100
AcDbSpline
 70
8
 71
3
 72
8
 73
4
 74
0
 40
0
 40
0
 40
0
 40
0
 40
1
 40
1
 40
1
 40
1
 10
143.824272
 20
330.957447
 30
0.0
 10
143.824271
 20
332.769624
 30
0.0
 10
145.293325
 20
334.238688
 30
0.0
 10
147.105502
 20
334.238698
 30
0.0
  0
SPLINE
  5
219
100
AcDbEntity
  8
Calque_1
 62
1
100
AcDbSpline
 70
8
 71
3
 72
8
 73
4
 74
0
 40
0
 40
0
 40
0
 40
0
 40
1
 40
1
 40
1
 40
1
 10
147.105502
 20
334.238698
 30
0.0
 10
147.975745
 20
334.238700
 30
0.0
 10
148.810346
 20
333.892999
 30
0.0
 10
149.425701
 20
333.277644
 30
0.0
  0
SPLINE
  5
21a
100
AcDbEntity
  8
Calque_1
 62
1
100
AcDbSpline
 70
8
 71
3
 72
8
 73
4
 74
0
 40
0
 40
0
 40
0
 40
0
 40
1
 40
1
 40
1
 40
1
 10
149.425701
 20
333.277644
 30
0.0
 10
150.041057
 20
332.662290
 30
0.0
 10
150.386759
 20
331.827690
 30
0.0
 10
150.386759
 20
330.957447
 30
0.0
  0
SPLINE
  5
21b
100
AcDbEntity
  8
Calque_1
 62
1
100
AcDbSpline
 70
8
 71
3
 72
8
 73
4
 74
0
 40
0
 40
0
 40
0
 40
0
 40
1
 40
1
 40
1
 40
1
 10
150.386759
 20
330.957447
 30
0.0
 10
150.386759
 20
330.087205
 30
0.0
 10
150.041055
 20
329.252605
 30
0.0
 10
149.425700
 20
328.637251
 30
0.0
  0
SPLINE
  5
21c
100
AcDbEntity
  8
Calque_1
 62
1
100
AcDbSpline
 70
8
 71
3
 72
8
 73
4
 74
0
 40
0
 40
0
 40
0
 40
0
 40
1
 40
1
 40
1
 40
1
 10
149.425700
 20
328.637251
 30
0.0
 10
148.810345
 20
328.021898
 30
0.0
 10
147.975745
 20
327.676197
 30
0.0
 10
147.105502
 20
327.676198
 30
0.0
  0
SPLINE
  5
21d
100
AcDbEntity
  8
Calque_1
 62
1
100
AcDbSpline
 70
8
 71
3
 72
8
 73
4
 74
0
 40
0
 40
0
 40
0
 40
0
 40
1
 40
1
 40
1
 40
1
 10
147.105502
 20
327.676198
 30
0.0
 10
145.293326
 20
327.676209
 30
0.0
 10
143.824273
 20
329.145271
 30
0.0
 10
143.824272
 20
330.957447
 30
0.0
  0
LINE
  5
21e
100
AcDbEntity
  8
Calque_1
 62
1
100
AcDbLine
 10
143.824272
 20
330.957447
 30
0.0
 11
143.824272
 21
330.957447
 31
0.0
  0
SPLINE
  5
21f
100
AcDbEntity
  8
Calque_1
 62
1
100
AcDbSpline
 70
8
 71
3
 72
8
 73
4
 74
0
 40
0
 40
0
 40
0
 40
0
 40
1
 40
1
 40
1
 40
1
 10
190.577285
 20
314.036340
 30
0.0
 10
190.577285
 20
314.906583
 30
0.0
 10
190.922988
 20
315.741182
 30
0.0
 10
191.538343
 20
316.356536
 30
0.0
  0
SPLINE
  5
220
100
AcDbEntity
  8
Calque_1
 62
1
100
AcDbSpline
 70
8
 71
3
 72
8
 73
4
 74
0
 40
0
 40
0
 40
0
 40
0
 40
1
 40
1
 40
1
 40
1
 10
191.538343
 20
316.356536
 30
0.0
 10
192.153699
 20
316.971890
 30
0.0
 10
192.988299
 20
317.317591
 30
0.0
 10
193.858541
 20
317.317589
 30
0.0
  0
SPLINE
  5
221
100
AcDbEntity
  8
Calque_1
 62
1
100
AcDbSpline
 70
8
 71
3
 72
8
 73
4
 74
0
 40
0
 40
0
 40
0
 40
0
 40
1
 40
1
 40
1
 40
1
 10
193.858541
 20
317.317589
 30
0.0
 10
194.728784
 20
317.317591
 30
0.0
 10
195.563384
 20
316.971890
 30
0.0
 10
196.178740
 20
316.356536
 30
0.0
  0
SPLINE
  5
222
100
AcDbEntity
  8
Calque_1
 62
1
100
AcDbSpline
 70
8
 71
3
 72
8
 73
4
 74
0
 40
0
 40
0
 40
0
 40
0
 40
1
 40
1
 40
1
 40
1
 10
196.178740
 20
316.356536
 30
0.0
 10
196.794095
 20
315.741182
 30
0.0
 10
197.139798
 20
314.906583
 30
0.0
 10
197.139798
 20
314.036340
 30
0.0
  0
SPLINE
  5
223
100
AcDbEntity
  8
Calque_1
 62
1
100
AcDbSpline
 70
8
 71
3
 72
8
 73
4
 74
0
 40
0
 40
0
 40
0
 40
0
 40
1
 40
1
 40
1
 40
1
 10
197.139798
 20
314.036340
 30
0.0
 10
197.139799
 20
313.166097
 30
0.0
 10
196.794096
 20
312.331497
 30
0.0
 10
196.178740
 20
311.716143
 30
0.0
  0
SPLINE
  5
224
100
AcDbEntity
  8
Calque_1
 62
1
100
AcDbSpline
 70
8
 71
3
 72
8
 73
4
 74
0
 40
0
 40
0
 40
0
 40
0
 40
1
 40
1
 40
1
 40
1
 10
196.178740
 20
311.716143
 30
0.0
 10
195.563385
 20
311.100788
 30
0.0
 10
194.728784
 20
310.755087
 30
0.0
 10
193.858541
 20
310.755089
 30
0.0
  0
SPLINE
  5
225
100
AcDbEntity
  8
Calque_1
 62
1
100
AcDbSpline
 70
8
 71
3
 72
8
 73
4
 74
0
 40
0
 40
0
 40
0
 40
0
 40
1
 40
1
 40
1
 40
1
 10
193.858541
 20
310.755089
 30
0.0
 10
192.988298
 20
310.755087
 30
0.0
 10
192.153698
 20
311.100788
 30
0.0
 10
191.538342
 20
311.716143
 30
0.0
  0
SPLINE
  5
226
100
AcDbEntity
  8
Calque_1
 62
1
100
AcDbSpline
 70
8
 71
3
 72
8
 73
4
 74
0
 40
0
 40
0
 40
0
 40
0
 40
1
 40
1
 40
1
 40
1
 10
191.538342
 20
311.716143
 30
0.0
 10
190.922987
 20
312.331497
 30
0.0
 10
190.577284
 20
313.166097
 30
0.0
 10
190.577285
 20
314.036340
 30
0.0
  0
LINE
  5
227
100
AcDbEntity
  8
Calque_1
 62
1
100
AcDbLine
 10
190.577285
 20
314.036340
 30
0.0
 11
190.577285
 21
314.036340
 31
0.0
  0
SPLINE
  5
228
100
AcDbEntity
  8
Calque_1
 62
1
100
AcDbSpline
 70
8
 71
3
 72
8
 73
4
 74
0
 40
0
 40
0
 40
0
 40
0
 40
1
 40
1
 40
1
 40
1
 10
229.706302
 20
286.166738
 30
0.0
 10
229.706301
 20
287.978915
 30
0.0
 10
231.175355
 20
289.447978
 30
0.0
 10
232.987533
 20
289.447989
 30
0.0
  0
SPLINE
  5
229
100
AcDbEntity
  8
Calque_1
 62
1
100
AcDbSpline
 70
8
 71
3
 72
8
 73
4
 74
0
 40
0
 40
0
 40
0
 40
0
 40
1
 40
1
 40
1
 40
1
 10
232.987533
 20
289.447989
 30
0.0
 10
233.857776
 20
289.447991
 30
0.0
 10
234.692376
 20
289.102289
 30
0.0
 10
235.307731
 20
288.486935
 30
0.0
  0
SPLINE
  5
22a
100
AcDbEntity
  8
Calque_1
 62
1
100
AcDbSpline
 70
8
 71
3
 72
8
 73
4
 74
0
 40
0
 40
0
 40
0
 40
0
 40
1
 40
1
 40
1
 40
1
 10
235.307731
 20
288.486935
 30
0.0
 10
235.923087
 20
287.871581
 30
0.0
 10
236.268790
 20
287.036981
 30
0.0
 10
236.268789
 20
286.166738
 30
0.0
  0
SPLINE
  5
22b
100
AcDbEntity
  8
Calque_1
 62
1
100
AcDbSpline
 70
8
 71
3
 72
8
 73
4
 74
0
 40
0
 40
0
 40
0
 40
0
 40
1
 40
1
 40
1
 40
1
 10
236.268789
 20
286.166738
 30
0.0
 10
236.268789
 20
285.296495
 30
0.0
 10
235.923086
 20
284.461896
 30
0.0
 10
235.307731
 20
283.846542
 30
0.0
  0
SPLINE
  5
22c
100
AcDbEntity
  8
Calque_1
 62
1
100
AcDbSpline
 70
8
 71
3
 72
8
 73
4
 74
0
 40
0
 40
0
 40
0
 40
0
 40
1
 40
1
 40
1
 40
1
 10
235.307731
 20
283.846542
 30
0.0
 10
234.692375
 20
283.231188
 30
0.0
 10
233.857775
 20
282.885487
 30
0.0
 10
232.987533
 20
282.885489
 30
0.0
  0
SPLINE
  5
22d
100
AcDbEntity
  8
Calque_1
 62
1
100
AcDbSpline
 70
8
 71
3
 72
8
 73
4
 74
0
 40
0
 40
0
 40
0
 40
0
 40
1
 40
1
 40
1
 40
1
 10
232.987533
 20
282.885489
 30
0.0
 10
231.175356
 20
282.885500
 30
0.0
 10
229.706303
 20
284.354562
 30
0.0
 10
229.706302
 20
286.166738
 30
0.0
  0
LINE
  5
22e
100
AcDbEntity
  8
Calque_1
 62
1
100
AcDbLine
 10
229.706302
 20
286.166738
 30
0.0
 11
229.706302
 21
286.166738
 31
0.0
  0
SPLINE
  5
22f
100
AcDbEntity
  8
Calque_1
 62
1
100
AcDbSpline
 70
8
 71
3
 72
8
 73
4
 74
0
 40
0
 40
0
 40
0
 40
0
 40
1
 40
1
 40
1
 40
1
 10
245.943358
 20
326.997161
 30
0.0
 10
245.943359
 20
328.809337
 30
0.0
 10
247.412412
 20
330.278399
 30
0.0
 10
249.224588
 20
330.278410
 30
0.0
  0
SPLINE
  5
230
100
AcDbEntity
  8
Calque_1
 62
1
100
AcDbSpline
 70
8
 71
3
 72
8
 73
4
 74
0
 40
0
 40
0
 40
0
 40
0
 40
1
 40
1
 40
1
 40
1
 10
249.224588
 20
330.278410
 30
0.0
 10
250.094831
 20
330.278412
 30
0.0
 10
250.929431
 20
329.932710
 30
0.0
 10
251.544786
 20
329.317357
 30
0.0
  0
SPLINE
  5
231
100
AcDbEntity
  8
Calque_1
 62
1
100
AcDbSpline
 70
8
 71
3
 72
8
 73
4
 74
0
 40
0
 40
0
 40
0
 40
0
 40
1
 40
1
 40
1
 40
1
 10
251.544786
 20
329.317357
 30
0.0
 10
252.160142
 20
328.702003
 30
0.0
 10
252.505845
 20
327.867404
 30
0.0
 10
252.505845
 20
326.997161
 30
0.0
  0
SPLINE
  5
232
100
AcDbEntity
  8
Calque_1
 62
1
100
AcDbSpline
 70
8
 71
3
 72
8
 73
4
 74
0
 40
0
 40
0
 40
0
 40
0
 40
1
 40
1
 40
1
 40
1
 10
252.505845
 20
326.997161
 30
0.0
 10
252.505845
 20
326.126918
 30
0.0
 10
252.160143
 20
325.292318
 30
0.0
 10
251.544787
 20
324.676964
 30
0.0
  0
SPLINE
  5
233
100
AcDbEntity
  8
Calque_1
 62
1
100
AcDbSpline
 70
8
 71
3
 72
8
 73
4
 74
0
 40
0
 40
0
 40
0
 40
0
 40
1
 40
1
 40
1
 40
1
 10
251.544787
 20
324.676964
 30
0.0
 10
250.929432
 20
324.061609
 30
0.0
 10
250.094831
 20
323.715908
 30
0.0
 10
249.224588
 20
323.715910
 30
0.0
  0
SPLINE
  5
234
100
AcDbEntity
  8
Calque_1
 62
1
100
AcDbSpline
 70
8
 71
3
 72
8
 73
4
 74
0
 40
0
 40
0
 40
0
 40
0
 40
1
 40
1
 40
1
 40
1
 10
249.224588
 20
323.715910
 30
0.0
 10
247.412411
 20
323.715921
 30
0.0
 10
245.943357
 20
325.184984
 30
0.0
 10
245.943358
 20
326.997161
 30
0.0
  0
LINE
  5
235
100
AcDbEntity
  8
Calque_1
 62
1
100
AcDbLine
 10
245.943358
 20
326.997161
 30
0.0
 11
245.943358
 21
326.997161
 31
0.0
  0
SPLINE
  5
236
100
AcDbEntity
  8
Calque_1
 62
1
100
AcDbSpline
 70
8
 71
3
 72
8
 73
4
 74
0
 40
0
 40
0
 40
0
 40
0
 40
1
 40
1
 40
1
 40
1
 10
9.375001
 20
312.812467
 30
0.0
 10
9.375001
 20
315.401302
 30
0.0
 10
11.473666
 20
317.499967
 30
0.0
 10
14.062501
 20
317.499967
 30
0.0
  0
SPLINE
  5
237
100
AcDbEntity
  8
Calque_1
 62
1
100
AcDbSpline
 70
8
 71
3
 72
8
 73
4
 74
0
 40
0
 40
0
 40
0
 40
0
 40
1
 40
1
 40
1
 40
1
 10
14.062501
 20
317.499967
 30
0.0
 10
15.305703
 20
317.499967
 30
0.0
 10
16.497987
 20
317.006107
 30
0.0
 10
17.377064
 20
316.127030
 30
0.0
  0
SPLINE
  5
238
100
AcDbEntity
  8
Calque_1
 62
1
100
AcDbSpline
 70
8
 71
3
 72
8
 73
4
 74
0
 40
0
 40
0
 40
0
 40
0
 40
1
 40
1
 40
1
 40
1
 10
17.377064
 20
316.127030
 30
0.0
 10
18.256141
 20
315.247954
 30
0.0
 10
18.750002
 20
314.055670
 30
0.0
 10
18.750002
 20
312.812467
 30
0.0
  0
SPLINE
  5
239
100
AcDbEntity
  8
Calque_1
 62
1
100
AcDbSpline
 70
8
 71
3
 72
8
 73
4
 74
0
 40
0
 40
0
 40
0
 40
0
 40
1
 40
1
 40
1
 40
1
 10
12.187501
 20
312.812489
 30
0.0
 10
12.187501
 20
313.848023
 30
0.0
 10
13.026967
 20
314.687489
 30
0.0
 10
14.062501
 20
314.687489
 30
0.0
  0
SPLINE
  5
23a
100
AcDbEntity
  8
Calque_1
 62
1
100
AcDbSpline
 70
8
 71
3
 72
8
 73
4
 74
0
 40
0
 40
0
 40
0
 40
0
 40
1
 40
1
 40
1
 40
1
 10
14.062501
 20
314.687489
 30
0.0
 10
15.098035
 20
314.687489
 30
0.0
 10
15.937501
 20
313.848023
 30
0.0
 10
15.937501
 20
312.812489
 30
0.0
  0
LINE
  5
23b
100
AcDbEntity
  8
Calque_1
 62
1
100
AcDbLine
 10
9.375000
 20
312.812490
 30
0.0
 11
9.375000
 21
294.062489
 31
0.0
  0
LINE
  5
23c
100
AcDbEntity
  8
Calque_1
 62
1
100
AcDbLine
 10
9.375000
 20
294.062489
 30
0.0
 11
12.187500
 21
294.062489
 31
0.0
  0
LINE
  5
23d
100
AcDbEntity
  8
Calque_1
 62
1
100
AcDbLine
 10
12.187500
 20
294.062489
 30
0.0
 11
12.187500
 21
312.812490
 31
0.0
  0
LINE
  5
23e
100
AcDbEntity
  8
Calque_1
 62
1
100
AcDbLine
 10
15.937500
 20
312.812481
 30
0.0
 11
15.937500
 21
311.874988
 31
0.0
  0
LINE
  5
23f
100
AcDbEntity
  8
Calque_1
 62
1
100
AcDbLine
 10
15.937500
 20
311.874988
 30
0.0
 11
18.750002
 21
311.874988
 31
0.0
  0
LINE
  5
240
100
AcDbEntity
  8
Calque_1
 62
1
100
AcDbLine
 10
18.750002
 20
311.874988
 30
0.0
 11
18.750002
 21
312.812481
 31
0.0
  0
SPLINE
  5
241
100
AcDbEntity
  8
Calque_1
 62
1
100
AcDbSpline
 70
8
 71
3
 72
8
 73
4
 74
0
 40
0
 40
0
 40
0
 40
0
 40
1
 40
1
 40
1
 40
1
 10
18.750001
 20
289.374983
 30
0.0
 10
18.750000
 20
286.786148
 30
0.0
 10
16.651335
 20
284.687483
 30
0.0
 10
14.062500
 20
284.687483
 30
0.0
  0
SPLINE
  5
242
100
AcDbEntity
  8
Calque_1
 62
1
100
AcDbSpline
 70
8
 71
3
 72
8
 73
4
 74
0
 40
0
 40
0
 40
0
 40
0
 40
1
 40
1
 40
1
 40
1
 10
14.062500
 20
284.687483
 30
0.0
 10
12.819298
 20
284.687483
 30
0.0
 10
11.627014
 20
285.181343
 30
0.0
 10
10.747937
 20
286.060420
 30
0.0
  0
SPLINE
  5
243
100
AcDbEntity
  8
Calque_1
 62
1
100
AcDbSpline
 70
8
 71
3
 72
8
 73
4
 74
0
 40
0
 40
0
 40
0
 40
0
 40
1
 40
1
 40
1
 40
1
 10
10.747937
 20
286.060420
 30
0.0
 10
9.868860
 20
286.939497
 30
0.0
 10
9.374999
 20
288.131781
 30
0.0
 10
9.374999
 20
289.374983
 30
0.0
  0
SPLINE
  5
244
100
AcDbEntity
  8
Calque_1
 62
1
100
AcDbSpline
 70
8
 71
3
 72
8
 73
4
 74
0
 40
0
 40
0
 40
0
 40
0
 40
1
 40
1
 40
1
 40
1
 10
15.937500
 20
289.374961
 30
0.0
 10
15.937500
 20
288.339427
 30
0.0
 10
15.098034
 20
287.499961
 30
0.0
 10
14.062500
 20
287.499961
 30
0.0
  0
SPLINE
  5
245
100
AcDbEntity
  8
Calque_1
 62
1
100
AcDbSpline
 70
8
 71
3
 72
8
 73
4
 74
0
 40
0
 40
0
 40
0
 40
0
 40
1
 40
1
 40
1
 40
1
 10
14.062500
 20
287.499961
 30
0.0
 10
13.026967
 20
287.499961
 30
0.0
 10
12.187500
 20
288.339427
 30
0.0
 10
12.187500
 20
289.374961
 30
0.0
  0
LINE
  5
246
100
AcDbEntity
  8
Calque_1
 62
1
100
AcDbLine
 10
18.750001
 20
289.374960
 30
0.0
 11
18.750001
 21
308.124961
 31
0.0
  0
LINE
  5
247
100
AcDbEntity
  8
Calque_1
 62
1
100
AcDbLine
 10
18.750001
 20
308.124961
 30
0.0
 11
15.937501
 21
308.124961
 31
0.0
  0
LINE
  5
248
100
AcDbEntity
  8
Calque_1
 62
1
100
AcDbLine
 10
15.937501
 20
308.124961
 30
0.0
 11
15.937501
 21
289.374960
 31
0.0
  0
LINE
  5
249
100
AcDbEntity
  8
Calque_1
 62
1
100
AcDbLine
 10
12.187502
 20
289.374969
 30
0.0
 11
12.187502
 21
290.312462
 31
0.0
  0
LINE
  5
24a
100
AcDbEntity
  8
Calque_1
 62
1
100
AcDbLine
 10
12.187502
 20
290.312462
 30
0.0
 11
9.374999
 21
290.312462
 31
0.0
  0
LINE
  5
24b
100
AcDbEntity
  8
Calque_1
 62
1
100
AcDbLine
 10
9.374999
 20
290.312462
 30
0.0
 11
9.374999
 21
289.374969
 31
0.0
  0
SPLINE
  5
24c
100
AcDbEntity
  8
Calque_1
 62
1
100
AcDbSpline
 70
8
 71
3
 72
8
 73
4
 74
0
 40
0
 40
0
 40
0
 40
0
 40
1
 40
1
 40
1
 40
1
 10
23.437501
 20
312.812467
 30
0.0
 10
23.437501
 20
315.401302
 30
0.0
 10
25.536167
 20
317.499967
 30
0.0
 10
28.125001
 20
317.499967
 30
0.0
  0
SPLINE
  5
24d
100
AcDbEntity
  8
Calque_1
 62
1
100
AcDbSpline
 70
8
 71
3
 72
8
 73
4
 74
0
 40
0
 40
0
 40
0
 40
0
 40
1
 40
1
 40
1
 40
1
 10
28.125001
 20
317.499967
 30
0.0
 10
29.368204
 20
317.499967
 30
0.0
 10
30.560488
 20
317.006107
 30
0.0
 10
31.439565
 20
316.127030
 30
0.0
  0
SPLINE
  5
24e
100
AcDbEntity
  8
Calque_1
 62
1
100
AcDbSpline
 70
8
 71
3
 72
8
 73
4
 74
0
 40
0
 40
0
 40
0
 40
0
 40
1
 40
1
 40
1
 40
1
 10
31.439565
 20
316.127030
 30
0.0
 10
32.318642
 20
315.247954
 30
0.0
 10
32.812502
 20
314.055670
 30
0.0
 10
32.812502
 20
312.812467
 30
0.0
  0
SPLINE
  5
24f
100
AcDbEntity
  8
Calque_1
 62
1
100
AcDbSpline
 70
8
 71
3
 72
8
 73
4
 74
0
 40
0
 40
0
 40
0
 40
0
 40
1
 40
1
 40
1
 40
1
 10
26.250001
 20
312.812489
 30
0.0
 10
26.250001
 20
313.848023
 30
0.0
 10
27.089467
 20
314.687489
 30
0.0
 10
28.125001
 20
314.687489
 30
0.0
  0
SPLINE
  5
250
100
AcDbEntity
  8
Calque_1
 62
1
100
AcDbSpline
 70
8
 71
3
 72
8
 73
4
 74
0
 40
0
 40
0
 40
0
 40
0
 40
1
 40
1
 40
1
 40
1
 10
28.125001
 20
314.687489
 30
0.0
 10
29.160535
 20
314.687489
 30
0.0
 10
30.000001
 20
313.848023
 30
0.0
 10
30.000001
 20
312.812489
 30
0.0
  0
LINE
  5
251
100
AcDbEntity
  8
Calque_1
 62
1
100
AcDbLine
 10
23.437500
 20
312.812490
 30
0.0
 11
23.437500
 21
294.062489
 31
0.0
  0
LINE
  5
252
100
AcDbEntity
  8
Calque_1
 62
1
100
AcDbLine
 10
23.437500
 20
294.062489
 30
0.0
 11
26.250001
 21
294.062489
 31
0.0
  0
LINE
  5
253
100
AcDbEntity
  8
Calque_1
 62
1
100
AcDbLine
 10
26.250001
 20
294.062489
 30
0.0
 11
26.250001
 21
312.812490
 31
0.0
  0
LINE
  5
254
100
AcDbEntity
  8
Calque_1
 62
1
100
AcDbLine
 10
30.000000
 20
312.812481
 30
0.0
 11
30.000000
 21
311.874988
 31
0.0
  0
LINE
  5
255
100
AcDbEntity
  8
Calque_1
 62
1
100
AcDbLine
 10
30.000000
 20
311.874988
 30
0.0
 11
32.812502
 21
311.874988
 31
0.0
  0
LINE
  5
256
100
AcDbEntity
  8
Calque_1
 62
1
100
AcDbLine
 10
32.812502
 20
311.874988
 30
0.0
 11
32.812502
 21
312.812481
 31
0.0
  0
SPLINE
  5
257
100
AcDbEntity
  8
Calque_1
 62
1
100
AcDbSpline
 70
8
 71
3
 72
8
 73
4
 74
0
 40
0
 40
0
 40
0
 40
0
 40
1
 40
1
 40
1
 40
1
 10
32.812503
 20
289.375004
 30
0.0
 10
32.812503
 20
286.786169
 30
0.0
 10
30.713838
 20
284.687505
 30
0.0
 10
28.125003
 20
284.687505
 30
0.0
  0
SPLINE
  5
258
100
AcDbEntity
  8
Calque_1
 62
1
100
AcDbSpline
 70
8
 71
3
 72
8
 73
4
 74
0
 40
0
 40
0
 40
0
 40
0
 40
1
 40
1
 40
1
 40
1
 10
28.125003
 20
284.687505
 30
0.0
 10
26.881801
 20
284.687504
 30
0.0
 10
25.689516
 20
285.181364
 30
0.0
 10
24.810439
 20
286.060441
 30
0.0
  0
SPLINE
  5
259
100
AcDbEntity
  8
Calque_1
 62
1
100
AcDbSpline
 70
8
 71
3
 72
8
 73
4
 74
0
 40
0
 40
0
 40
0
 40
0
 40
1
 40
1
 40
1
 40
1
 10
24.810439
 20
286.060441
 30
0.0
 10
23.931362
 20
286.939518
 30
0.0
 10
23.437502
 20
288.131802
 30
0.0
 10
23.437502
 20
289.375004
 30
0.0
  0
SPLINE
  5
25a
100
AcDbEntity
  8
Calque_1
 62
1
100
AcDbSpline
 70
8
 71
3
 72
8
 73
4
 74
0
 40
0
 40
0
 40
0
 40
0
 40
1
 40
1
 40
1
 40
1
 10
30.000003
 20
289.374982
 30
0.0
 10
30.000003
 20
288.339448
 30
0.0
 10
29.160537
 20
287.499982
 30
0.0
 10
28.125003
 20
287.499982
 30
0.0
  0
SPLINE
  5
25b
100
AcDbEntity
  8
Calque_1
 62
1
100
AcDbSpline
 70
8
 71
3
 72
8
 73
4
 74
0
 40
0
 40
0
 40
0
 40
0
 40
1
 40
1
 40
1
 40
1
 10
28.125003
 20
287.499982
 30
0.0
 10
27.089469
 20
287.499982
 30
0.0
 10
26.250003
 20
288.339448
 30
0.0
 10
26.250003
 20
289.374982
 30
0.0
  0
LINE
  5
25c
100
AcDbEntity
  8
Calque_1
 62
1
100
AcDbLine
 10
32.812504
 20
289.374981
 30
0.0
 11
32.812504
 21
308.124982
 31
0.0
  0
LINE
  5
25d
100
AcDbEntity
  8
Calque_1
 62
1
100
AcDbLine
 10
32.812504
 20
308.124982
 30
0.0
 11
30.000004
 21
308.124982
 31
0.0
  0
LINE
  5
25e
100
AcDbEntity
  8
Calque_1
 62
1
100
AcDbLine
 10
30.000004
 20
308.124982
 30
0.0
 11
30.000004
 21
289.374981
 31
0.0
  0
LINE
  5
25f
100
AcDbEntity
  8
Calque_1
 62
1
100
AcDbLine
 10
26.250004
 20
289.374990
 30
0.0
 11
26.250004
 21
290.312483
 31
0.0
  0
LINE
  5
260
100
AcDbEntity
  8
Calque_1
 62
1
100
AcDbLine
 10
26.250004
 20
290.312483
 30
0.0
 11
23.437502
 21
290.312483
 31
0.0
  0
LINE
  5
261
100
AcDbEntity
  8
Calque_1
 62
1
100
AcDbLine
 10
23.437502
 20
290.312483
 30
0.0
 11
23.437502
 21
289.374990
 31
0.0
  0
SPLINE
  5
262
100
AcDbEntity
  8
Calque_1
 62
1
100
AcDbSpline
 70
8
 71
3
 72
8
 73
4
 74
0
 40
0
 40
0
 40
0
 40
0
 40
1
 40
1
 40
1
 40
1
 10
37.500000
 20
312.812476
 30
0.0
 10
37.500000
 20
315.401310
 30
0.0
 10
39.598665
 20
317.499975
 30
0.0
 10
42.187500
 20
317.499975
 30
0.0
  0
SPLINE
  5
263
100
AcDbEntity
  8
Calque_1
 62
1
100
AcDbSpline
 70
8
 71
3
 72
8
 73
4
 74
0
 40
0
 40
0
 40
0
 40
0
 40
1
 40
1
 40
1
 40
1
 10
42.187500
 20
317.499975
 30
0.0
 10
43.430703
 20
317.499976
 30
0.0
 10
44.622987
 20
317.006116
 30
0.0
 10
45.502064
 20
316.127039
 30
0.0
  0
SPLINE
  5
264
100
AcDbEntity
  8
Calque_1
 62
1
100
AcDbSpline
 70
8
 71
3
 72
8
 73
4
 74
0
 40
0
 40
0
 40
0
 40
0
 40
1
 40
1
 40
1
 40
1
 10
45.502064
 20
316.127039
 30
0.0
 10
46.381141
 20
315.247962
 30
0.0
 10
46.875001
 20
314.055678
 30
0.0
 10
46.875001
 20
312.812475
 30
0.0
  0
SPLINE
  5
265
100
AcDbEntity
  8
Calque_1
 62
1
100
AcDbSpline
 70
8
 71
3
 72
8
 73
4
 74
0
 40
0
 40
0
 40
0
 40
0
 40
1
 40
1
 40
1
 40
1
 10
40.312500
 20
312.812498
 30
0.0
 10
40.312500
 20
313.848031
 30
0.0
 10
41.151966
 20
314.687498
 30
0.0
 10
42.187500
 20
314.687498
 30
0.0
  0
SPLINE
  5
266
100
AcDbEntity
  8
Calque_1
 62
1
100
AcDbSpline
 70
8
 71
3
 72
8
 73
4
 74
0
 40
0
 40
0
 40
0
 40
0
 40
1
 40
1
 40
1
 40
1
 10
42.187500
 20
314.687498
 30
0.0
 10
43.223034
 20
314.687498
 30
0.0
 10
44.062500
 20
313.848031
 30
0.0
 10
44.062500
 20
312.812498
 30
0.0
  0
LINE
  5
267
100
AcDbEntity
  8
Calque_1
 62
1
100
AcDbLine
 10
37.499999
 20
312.812498
 30
0.0
 11
37.499999
 21
294.062498
 31
0.0
  0
LINE
  5
268
100
AcDbEntity
  8
Calque_1
 62
1
100
AcDbLine
 10
37.499999
 20
294.062498
 30
0.0
 11
40.312500
 21
294.062498
 31
0.0
  0
LINE
  5
269
100
AcDbEntity
  8
Calque_1
 62
1
100
AcDbLine
 10
40.312500
 20
294.062498
 30
0.0
 11
40.312500
 21
312.812498
 31
0.0
  0
LINE
  5
26a
100
AcDbEntity
  8
Calque_1
 62
1
100
AcDbLine
 10
44.062499
 20
312.812490
 30
0.0
 11
44.062499
 21
311.874996
 31
0.0
  0
LINE
  5
26b
100
AcDbEntity
  8
Calque_1
 62
1
100
AcDbLine
 10
44.062499
 20
311.874996
 30
0.0
 11
46.875001
 21
311.874996
 31
0.0
  0
LINE
  5
26c
100
AcDbEntity
  8
Calque_1
 62
1
100
AcDbLine
 10
46.875001
 20
311.874996
 30
0.0
 11
46.875001
 21
312.812490
 31
0.0
  0
SPLINE
  5
26d
100
AcDbEntity
  8
Calque_1
 62
1
100
AcDbSpline
 70
8
 71
3
 72
8
 73
4
 74
0
 40
0
 40
0
 40
0
 40
0
 40
1
 40
1
 40
1
 40
1
 10
46.875000
 20
289.375015
 30
0.0
 10
46.875000
 20
286.786180
 30
0.0
 10
44.776335
 20
284.687515
 30
0.0
 10
42.187500
 20
284.687515
 30
0.0
  0
SPLINE
  5
26e
100
AcDbEntity
  8
Calque_1
 62
1
100
AcDbSpline
 70
8
 71
3
 72
8
 73
4
 74
0
 40
0
 40
0
 40
0
 40
0
 40
1
 40
1
 40
1
 40
1
 10
42.187500
 20
284.687515
 30
0.0
 10
40.944298
 20
284.687515
 30
0.0
 10
39.752014
 20
285.181375
 30
0.0
 10
38.872937
 20
286.060452
 30
0.0
  0
SPLINE
  5
26f
100
AcDbEntity
  8
Calque_1
 62
1
100
AcDbSpline
 70
8
 71
3
 72
8
 73
4
 74
0
 40
0
 40
0
 40
0
 40
0
 40
1
 40
1
 40
1
 40
1
 10
38.872937
 20
286.060452
 30
0.0
 10
37.993860
 20
286.939528
 30
0.0
 10
37.499999
 20
288.131813
 30
0.0
 10
37.499999
 20
289.375015
 30
0.0
  0
SPLINE
  5
270
100
AcDbEntity
  8
Calque_1
 62
1
100
AcDbSpline
 70
8
 71
3
 72
8
 73
4
 74
0
 40
0
 40
0
 40
0
 40
0
 40
1
 40
1
 40
1
 40
1
 10
44.062500
 20
289.374993
 30
0.0
 10
44.062500
 20
288.339459
 30
0.0
 10
43.223034
 20
287.499993
 30
0.0
 10
42.187500
 20
287.499993
 30
0.0
  0
SPLINE
  5
271
100
AcDbEntity
  8
Calque_1
 62
1
100
AcDbSpline
 70
8
 71
3
 72
8
 73
4
 74
0
 40
0
 40
0
 40
0
 40
0
 40
1
 40
1
 40
1
 40
1
 10
42.187500
 20
287.499993
 30
0.0
 10
41.151966
 20
287.499993
 30
0.0
 10
40.312500
 20
288.339459
 30
0.0
 10
40.312500
 20
289.374993
 30
0.0
  0
LINE
  5
272
100
AcDbEntity
  8
Calque_1
 62
1
100
AcDbLine
 10
46.875001
 20
289.374992
 30
0.0
 11
46.875001
 21
308.124993
 31
0.0
  0
LINE
  5
273
100
AcDbEntity
  8
Calque_1
 62
1
100
AcDbLine
 10
46.875001
 20
308.124993
 30
0.0
 11
44.062501
 21
308.124993
 31
0.0
  0
LINE
  5
274
100
AcDbEntity
  8
Calque_1
 62
1
100
AcDbLine
 10
44.062501
 20
308.124993
 30
0.0
 11
44.062501
 21
289.374992
 31
0.0
  0
LINE
  5
275
100
AcDbEntity
  8
Calque_1
 62
1
100
AcDbLine
 10
40.312501
 20
289.375001
 30
0.0
 11
40.312501
 21
290.312494
 31
0.0
  0
LINE
  5
276
100
AcDbEntity
  8
Calque_1
 62
1
100
AcDbLine
 10
40.312501
 20
290.312494
 30
0.0
 11
37.499999
 21
290.312494
 31
0.0
  0
LINE
  5
277
100
AcDbEntity
  8
Calque_1
 62
1
100
AcDbLine
 10
37.499999
 20
290.312494
 30
0.0
 11
37.499999
 21
289.375001
 31
0.0
  0
SPLINE
  5
278
100
AcDbEntity
  8
Calque_1
 62
1
100
AcDbSpline
 70
8
 71
3
 72
8
 73
4
 74
0
 40
0
 40
0
 40
0
 40
0
 40
1
 40
1
 40
1
 40
1
 10
9.375001
 20
275.312466
 30
0.0
 10
9.375001
 20
277.901300
 30
0.0
 10
11.473666
 20
279.999965
 30
0.0
 10
14.062501
 20
279.999965
 30
0.0
  0
SPLINE
  5
279
100
AcDbEntity
  8
Calque_1
 62
1
100
AcDbSpline
 70
8
 71
3
 72
8
 73
4
 74
0
 40
0
 40
0
 40
0
 40
0
 40
1
 40
1
 40
1
 40
1
 10
14.062501
 20
279.999965
 30
0.0
 10
15.305703
 20
279.999965
 30
0.0
 10
16.497987
 20
279.506105
 30
0.0
 10
17.377064
 20
278.627029
 30
0.0
  0
SPLINE
  5
27a
100
AcDbEntity
  8
Calque_1
 62
1
100
AcDbSpline
 70
8
 71
3
 72
8
 73
4
 74
0
 40
0
 40
0
 40
0
 40
0
 40
1
 40
1
 40
1
 40
1
 10
17.377064
 20
278.627029
 30
0.0
 10
18.256141
 20
277.747952
 30
0.0
 10
18.750002
 20
276.555668
 30
0.0
 10
18.750002
 20
275.312465
 30
0.0
  0
SPLINE
  5
27b
100
AcDbEntity
  8
Calque_1
 62
1
100
AcDbSpline
 70
8
 71
3
 72
8
 73
4
 74
0
 40
0
 40
0
 40
0
 40
0
 40
1
 40
1
 40
1
 40
1
 10
12.187501
 20
275.312488
 30
0.0
 10
12.187501
 20
276.348021
 30
0.0
 10
13.026967
 20
277.187487
 30
0.0
 10
14.062501
 20
277.187488
 30
0.0
  0
SPLINE
  5
27c
100
AcDbEntity
  8
Calque_1
 62
1
100
AcDbSpline
 70
8
 71
3
 72
8
 73
4
 74
0
 40
0
 40
0
 40
0
 40
0
 40
1
 40
1
 40
1
 40
1
 10
14.062501
 20
277.187488
 30
0.0
 10
15.098035
 20
277.187487
 30
0.0
 10
15.937501
 20
276.348021
 30
0.0
 10
15.937501
 20
275.312488
 30
0.0
  0
LINE
  5
27d
100
AcDbEntity
  8
Calque_1
 62
1
100
AcDbLine
 10
9.375000
 20
275.312488
 30
0.0
 11
9.375000
 21
256.562487
 31
0.0
  0
LINE
  5
27e
100
AcDbEntity
  8
Calque_1
 62
1
100
AcDbLine
 10
9.375000
 20
256.562487
 30
0.0
 11
12.187500
 21
256.562487
 31
0.0
  0
LINE
  5
27f
100
AcDbEntity
  8
Calque_1
 62
1
100
AcDbLine
 10
12.187500
 20
256.562487
 30
0.0
 11
12.187500
 21
275.312488
 31
0.0
  0
LINE
  5
280
100
AcDbEntity
  8
Calque_1
 62
1
100
AcDbLine
 10
15.937500
 20
275.312480
 30
0.0
 11
15.937500
 21
274.374986
 31
0.0
  0
LINE
  5
281
100
AcDbEntity
  8
Calque_1
 62
1
100
AcDbLine
 10
15.937500
 20
274.374986
 30
0.0
 11
18.750002
 21
274.374986
 31
0.0
  0
LINE
  5
282
100
AcDbEntity
  8
Calque_1
 62
1
100
AcDbLine
 10
18.750002
 20
274.374986
 30
0.0
 11
18.750002
 21
275.312480
 31
0.0
  0
SPLINE
  5
283
100
AcDbEntity
  8
Calque_1
 62
1
100
AcDbSpline
 70
8
 71
3
 72
8
 73
4
 74
0
 40
0
 40
0
 40
0
 40
0
 40
1
 40
1
 40
1
 40
1
 10
18.750000
 20
250.937549
 30
0.0
 10
18.750000
 20
248.348715
 30
0.0
 10
16.651335
 20
246.250050
 30
0.0
 10
14.062500
 20
246.250050
 30
0.0
  0
SPLINE
  5
284
100
AcDbEntity
  8
Calque_1
 62
1
100
AcDbSpline
 70
8
 71
3
 72
8
 73
4
 74
0
 40
0
 40
0
 40
0
 40
0
 40
1
 40
1
 40
1
 40
1
 10
14.062500
 20
246.250050
 30
0.0
 10
12.819297
 20
246.250049
 30
0.0
 10
11.627013
 20
246.743909
 30
0.0
 10
10.747936
 20
247.622986
 30
0.0
  0
SPLINE
  5
285
100
AcDbEntity
  8
Calque_1
 62
1
100
AcDbSpline
 70
8
 71
3
 72
8
 73
4
 74
0
 40
0
 40
0
 40
0
 40
0
 40
1
 40
1
 40
1
 40
1
 10
10.747936
 20
247.622986
 30
0.0
 10
9.868859
 20
248.502063
 30
0.0
 10
9.374999
 20
249.694347
 30
0.0
 10
9.374999
 20
250.937550
 30
0.0
  0
SPLINE
  5
286
100
AcDbEntity
  8
Calque_1
 62
1
100
AcDbSpline
 70
8
 71
3
 72
8
 73
4
 74
0
 40
0
 40
0
 40
0
 40
0
 40
1
 40
1
 40
1
 40
1
 10
15.937500
 20
250.937527
 30
0.0
 10
15.937500
 20
249.901993
 30
0.0
 10
15.098034
 20
249.062527
 30
0.0
 10
14.062500
 20
249.062527
 30
0.0
  0
SPLINE
  5
287
100
AcDbEntity
  8
Calque_1
 62
1
100
AcDbSpline
 70
8
 71
3
 72
8
 73
4
 74
0
 40
0
 40
0
 40
0
 40
0
 40
1
 40
1
 40
1
 40
1
 10
14.062500
 20
249.062527
 30
0.0
 10
13.026966
 20
249.062527
 30
0.0
 10
12.187500
 20
249.901993
 30
0.0
 10
12.187500
 20
250.937527
 30
0.0
  0
LINE
  5
288
100
AcDbEntity
  8
Calque_1
 62
1
100
AcDbLine
 10
18.750001
 20
250.937527
 30
0.0
 11
18.750001
 21
269.687527
 31
0.0
  0
LINE
  5
289
100
AcDbEntity
  8
Calque_1
 62
1
100
AcDbLine
 10
18.750001
 20
269.687527
 30
0.0
 11
15.937500
 21
269.687527
 31
0.0
  0
LINE
  5
28a
100
AcDbEntity
  8
Calque_1
 62
1
100
AcDbLine
 10
15.937500
 20
269.687527
 30
0.0
 11
15.937500
 21
250.937527
 31
0.0
  0
LINE
  5
28b
100
AcDbEntity
  8
Calque_1
 62
1
100
AcDbLine
 10
12.187501
 20
250.937535
 30
0.0
 11
12.187501
 21
251.875029
 31
0.0
  0
LINE
  5
28c
100
AcDbEntity
  8
Calque_1
 62
1
100
AcDbLine
 10
12.187501
 20
251.875029
 30
0.0
 11
9.374999
 21
251.875029
 31
0.0
  0
LINE
  5
28d
100
AcDbEntity
  8
Calque_1
 62
1
100
AcDbLine
 10
9.374999
 20
251.875029
 30
0.0
 11
9.374999
 21
250.937535
 31
0.0
  0
SPLINE
  5
28e
100
AcDbEntity
  8
Calque_1
 62
1
100
AcDbSpline
 70
8
 71
3
 72
8
 73
4
 74
0
 40
0
 40
0
 40
0
 40
0
 40
1
 40
1
 40
1
 40
1
 10
23.437501
 20
275.312466
 30
0.0
 10
23.437501
 20
277.901300
 30
0.0
 10
25.536167
 20
279.999965
 30
0.0
 10
28.125001
 20
279.999965
 30
0.0
  0
SPLINE
  5
28f
100
AcDbEntity
  8
Calque_1
 62
1
100
AcDbSpline
 70
8
 71
3
 72
8
 73
4
 74
0
 40
0
 40
0
 40
0
 40
0
 40
1
 40
1
 40
1
 40
1
 10
28.125001
 20
279.999965
 30
0.0
 10
29.368204
 20
279.999965
 30
0.0
 10
30.560488
 20
279.506105
 30
0.0
 10
31.439565
 20
278.627029
 30
0.0
  0
SPLINE
  5
290
100
AcDbEntity
  8
Calque_1
 62
1
100
AcDbSpline
 70
8
 71
3
 72
8
 73
4
 74
0
 40
0
 40
0
 40
0
 40
0
 40
1
 40
1
 40
1
 40
1
 10
31.439565
 20
278.627029
 30
0.0
 10
32.318642
 20
277.747952
 30
0.0
 10
32.812502
 20
276.555668
 30
0.0
 10
32.812502
 20
275.312465
 30
0.0
  0
SPLINE
  5
291
100
AcDbEntity
  8
Calque_1
 62
1
100
AcDbSpline
 70
8
 71
3
 72
8
 73
4
 74
0
 40
0
 40
0
 40
0
 40
0
 40
1
 40
1
 40
1
 40
1
 10
26.250001
 20
275.312488
 30
0.0
 10
26.250001
 20
276.348021
 30
0.0
 10
27.089467
 20
277.187487
 30
0.0
 10
28.125001
 20
277.187488
 30
0.0
  0
SPLINE
  5
292
100
AcDbEntity
  8
Calque_1
 62
1
100
AcDbSpline
 70
8
 71
3
 72
8
 73
4
 74
0
 40
0
 40
0
 40
0
 40
0
 40
1
 40
1
 40
1
 40
1
 10
28.125001
 20
277.187488
 30
0.0
 10
29.160535
 20
277.187487
 30
0.0
 10
30.000001
 20
276.348021
 30
0.0
 10
30.000001
 20
275.312488
 30
0.0
  0
LINE
  5
293
100
AcDbEntity
  8
Calque_1
 62
1
100
AcDbLine
 10
23.437500
 20
275.312488
 30
0.0
 11
23.437500
 21
256.562487
 31
0.0
  0
LINE
  5
294
100
AcDbEntity
  8
Calque_1
 62
1
100
AcDbLine
 10
23.437500
 20
256.562487
 30
0.0
 11
26.250001
 21
256.562487
 31
0.0
  0
LINE
  5
295
100
AcDbEntity
  8
Calque_1
 62
1
100
AcDbLine
 10
26.250001
 20
256.562487
 30
0.0
 11
26.250001
 21
275.312488
 31
0.0
  0
LINE
  5
296
100
AcDbEntity
  8
Calque_1
 62
1
100
AcDbLine
 10
30.000000
 20
275.312480
 30
0.0
 11
30.000000
 21
274.374986
 31
0.0
  0
LINE
  5
297
100
AcDbEntity
  8
Calque_1
 62
1
100
AcDbLine
 10
30.000000
 20
274.374986
 30
0.0
 11
32.812502
 21
274.374986
 31
0.0
  0
LINE
  5
298
100
AcDbEntity
  8
Calque_1
 62
1
100
AcDbLine
 10
32.812502
 20
274.374986
 30
0.0
 11
32.812502
 21
275.312480
 31
0.0
  0
SPLINE
  5
299
100
AcDbEntity
  8
Calque_1
 62
1
100
AcDbSpline
 70
8
 71
3
 72
8
 73
4
 74
0
 40
0
 40
0
 40
0
 40
0
 40
1
 40
1
 40
1
 40
1
 10
32.812503
 20
250.937576
 30
0.0
 10
32.812503
 20
248.348741
 30
0.0
 10
30.713838
 20
246.250076
 30
0.0
 10
28.125003
 20
246.250076
 30
0.0
  0
SPLINE
  5
29a
100
AcDbEntity
  8
Calque_1
 62
1
100
AcDbSpline
 70
8
 71
3
 72
8
 73
4
 74
0
 40
0
 40
0
 40
0
 40
0
 40
1
 40
1
 40
1
 40
1
 10
28.125003
 20
246.250076
 30
0.0
 10
26.881801
 20
246.250076
 30
0.0
 10
25.689516
 20
246.743936
 30
0.0
 10
24.810439
 20
247.623013
 30
0.0
  0
SPLINE
  5
29b
100
AcDbEntity
  8
Calque_1
 62
1
100
AcDbSpline
 70
8
 71
3
 72
8
 73
4
 74
0
 40
0
 40
0
 40
0
 40
0
 40
1
 40
1
 40
1
 40
1
 10
24.810439
 20
247.623013
 30
0.0
 10
23.931362
 20
248.502089
 30
0.0
 10
23.437502
 20
249.694374
 30
0.0
 10
23.437502
 20
250.937576
 30
0.0
  0
SPLINE
  5
29c
100
AcDbEntity
  8
Calque_1
 62
1
100
AcDbSpline
 70
8
 71
3
 72
8
 73
4
 74
0
 40
0
 40
0
 40
0
 40
0
 40
1
 40
1
 40
1
 40
1
 10
30.000003
 20
250.937554
 30
0.0
 10
30.000003
 20
249.902020
 30
0.0
 10
29.160537
 20
249.062554
 30
0.0
 10
28.125003
 20
249.062554
 30
0.0
  0
SPLINE
  5
29d
100
AcDbEntity
  8
Calque_1
 62
1
100
AcDbSpline
 70
8
 71
3
 72
8
 73
4
 74
0
 40
0
 40
0
 40
0
 40
0
 40
1
 40
1
 40
1
 40
1
 10
28.125003
 20
249.062554
 30
0.0
 10
27.089469
 20
249.062554
 30
0.0
 10
26.250003
 20
249.902020
 30
0.0
 10
26.250003
 20
250.937554
 30
0.0
  0
LINE
  5
29e
100
AcDbEntity
  8
Calque_1
 62
1
100
AcDbLine
 10
32.812504
 20
250.937553
 30
0.0
 11
32.812504
 21
269.687554
 31
0.0
  0
LINE
  5
29f
100
AcDbEntity
  8
Calque_1
 62
1
100
AcDbLine
 10
32.812504
 20
269.687554
 30
0.0
 11
30.000004
 21
269.687554
 31
0.0
  0
LINE
  5
2a0
100
AcDbEntity
  8
Calque_1
 62
1
100
AcDbLine
 10
30.000004
 20
269.687554
 30
0.0
 11
30.000004
 21
250.937553
 31
0.0
  0
LINE
  5
2a1
100
AcDbEntity
  8
Calque_1
 62
1
100
AcDbLine
 10
26.250004
 20
250.937562
 30
0.0
 11
26.250004
 21
251.875055
 31
0.0
  0
LINE
  5
2a2
100
AcDbEntity
  8
Calque_1
 62
1
100
AcDbLine
 10
26.250004
 20
251.875055
 30
0.0
 11
23.437502
 21
251.875055
 31
0.0
  0
LINE
  5
2a3
100
AcDbEntity
  8
Calque_1
 62
1
100
AcDbLine
 10
23.437502
 20
251.875055
 30
0.0
 11
23.437502
 21
250.937562
 31
0.0
  0
SPLINE
  5
2a4
100
AcDbEntity
  8
Calque_1
 62
1
100
AcDbSpline
 70
8
 71
3
 72
8
 73
4
 74
0
 40
0
 40
0
 40
0
 40
0
 40
1
 40
1
 40
1
 40
1
 10
37.499999
 20
275.312466
 30
0.0
 10
37.500000
 20
277.901300
 30
0.0
 10
39.598665
 20
279.999965
 30
0.0
 10
42.187499
 20
279.999965
 30
0.0
  0
SPLINE
  5
2a5
100
AcDbEntity
  8
Calque_1
 62
1
100
AcDbSpline
 70
8
 71
3
 72
8
 73
4
 74
0
 40
0
 40
0
 40
0
 40
0
 40
1
 40
1
 40
1
 40
1
 10
42.187499
 20
279.999965
 30
0.0
 10
43.430702
 20
279.999965
 30
0.0
 10
44.622986
 20
279.506105
 30
0.0
 10
45.502063
 20
278.627029
 30
0.0
  0
SPLINE
  5
2a6
100
AcDbEntity
  8
Calque_1
 62
1
100
AcDbSpline
 70
8
 71
3
 72
8
 73
4
 74
0
 40
0
 40
0
 40
0
 40
0
 40
1
 40
1
 40
1
 40
1
 10
45.502063
 20
278.627029
 30
0.0
 10
46.381140
 20
277.747952
 30
0.0
 10
46.875001
 20
276.555668
 30
0.0
 10
46.875001
 20
275.312465
 30
0.0
  0
SPLINE
  5
2a7
100
AcDbEntity
  8
Calque_1
 62
1
100
AcDbSpline
 70
8
 71
3
 72
8
 73
4
 74
0
 40
0
 40
0
 40
0
 40
0
 40
1
 40
1
 40
1
 40
1
 10
40.312500
 20
275.312488
 30
0.0
 10
40.312500
 20
276.348021
 30
0.0
 10
41.151966
 20
277.187487
 30
0.0
 10
42.187499
 20
277.187488
 30
0.0
  0
SPLINE
  5
2a8
100
AcDbEntity
  8
Calque_1
 62
1
100
AcDbSpline
 70
8
 71
3
 72
8
 73
4
 74
0
 40
0
 40
0
 40
0
 40
0
 40
1
 40
1
 40
1
 40
1
 10
42.187499
 20
277.187488
 30
0.0
 10
43.223033
 20
277.187487
 30
0.0
 10
44.062499
 20
276.348021
 30
0.0
 10
44.062499
 20
275.312488
 30
0.0
  0
LINE
  5
2a9
100
AcDbEntity
  8
Calque_1
 62
1
100
AcDbLine
 10
37.499999
 20
275.312488
 30
0.0
 11
37.499999
 21
256.562487
 31
0.0
  0
LINE
  5
2aa
100
AcDbEntity
  8
Calque_1
 62
1
100
AcDbLine
 10
37.499999
 20
256.562487
 30
0.0
 11
40.312499
 21
256.562487
 31
0.0
  0
LINE
  5
2ab
100
AcDbEntity
  8
Calque_1
 62
1
100
AcDbLine
 10
40.312499
 20
256.562487
 30
0.0
 11
40.312499
 21
275.312488
 31
0.0
  0
LINE
  5
2ac
100
AcDbEntity
  8
Calque_1
 62
1
100
AcDbLine
 10
44.062498
 20
275.312480
 30
0.0
 11
44.062498
 21
274.374986
 31
0.0
  0
LINE
  5
2ad
100
AcDbEntity
  8
Calque_1
 62
1
100
AcDbLine
 10
44.062498
 20
274.374986
 30
0.0
 11
46.875001
 21
274.374986
 31
0.0
  0
LINE
  5
2ae
100
AcDbEntity
  8
Calque_1
 62
1
100
AcDbLine
 10
46.875001
 20
274.374986
 30
0.0
 11
46.875001
 21
275.312480
 31
0.0
  0
SPLINE
  5
2af
100
AcDbEntity
  8
Calque_1
 62
1
100
AcDbSpline
 70
8
 71
3
 72
8
 73
4
 74
0
 40
0
 40
0
 40
0
 40
0
 40
1
 40
1
 40
1
 40
1
 10
46.875000
 20
250.937576
 30
0.0
 10
46.875000
 20
248.348741
 30
0.0
 10
44.776335
 20
246.250076
 30
0.0
 10
42.187500
 20
246.250076
 30
0.0
  0
SPLINE
  5
2b0
100
AcDbEntity
  8
Calque_1
 62
1
100
AcDbSpline
 70
8
 71
3
 72
8
 73
4
 74
0
 40
0
 40
0
 40
0
 40
0
 40
1
 40
1
 40
1
 40
1
 10
42.187500
 20
246.250076
 30
0.0
 10
40.944298
 20
246.250076
 30
0.0
 10
39.752014
 20
246.743936
 30
0.0
 10
38.872937
 20
247.623013
 30
0.0
  0
SPLINE
  5
2b1
100
AcDbEntity
  8
Calque_1
 62
1
100
AcDbSpline
 70
8
 71
3
 72
8
 73
4
 74
0
 40
0
 40
0
 40
0
 40
0
 40
1
 40
1
 40
1
 40
1
 10
38.872937
 20
247.623013
 30
0.0
 10
37.993860
 20
248.502089
 30
0.0
 10
37.499999
 20
249.694374
 30
0.0
 10
37.499999
 20
250.937576
 30
0.0
  0
SPLINE
  5
2b2
100
AcDbEntity
  8
Calque_1
 62
1
100
AcDbSpline
 70
8
 71
3
 72
8
 73
4
 74
0
 40
0
 40
0
 40
0
 40
0
 40
1
 40
1
 40
1
 40
1
 10
44.062500
 20
250.937554
 30
0.0
 10
44.062500
 20
249.902020
 30
0.0
 10
43.223034
 20
249.062554
 30
0.0
 10
42.187500
 20
249.062554
 30
0.0
  0
SPLINE
  5
2b3
100
AcDbEntity
  8
Calque_1
 62
1
100
AcDbSpline
 70
8
 71
3
 72
8
 73
4
 74
0
 40
0
 40
0
 40
0
 40
0
 40
1
 40
1
 40
1
 40
1
 10
42.187500
 20
249.062554
 30
0.0
 10
41.151966
 20
249.062554
 30
0.0
 10
40.312500
 20
249.902020
 30
0.0
 10
40.312500
 20
250.937554
 30
0.0
  0
LINE
  5
2b4
100
AcDbEntity
  8
Calque_1
 62
1
100
AcDbLine
 10
46.875001
 20
250.937553
 30
0.0
 11
46.875001
 21
269.687554
 31
0.0
  0
LINE
  5
2b5
100
AcDbEntity
  8
Calque_1
 62
1
100
AcDbLine
 10
46.875001
 20
269.687554
 30
0.0
 11
44.062501
 21
269.687554
 31
0.0
  0
LINE
  5
2b6
100
AcDbEntity
  8
Calque_1
 62
1
100
AcDbLine
 10
44.062501
 20
269.687554
 30
0.0
 11
44.062501
 21
250.937553
 31
0.0
  0
LINE
  5
2b7
100
AcDbEntity
  8
Calque_1
 62
1
100
AcDbLine
 10
40.312501
 20
250.937562
 30
0.0
 11
40.312501
 21
251.875055
 31
0.0
  0
LINE
  5
2b8
100
AcDbEntity
  8
Calque_1
 62
1
100
AcDbLine
 10
40.312501
 20
251.875055
 30
0.0
 11
37.499999
 21
251.875055
 31
0.0
  0
LINE
  5
2b9
100
AcDbEntity
  8
Calque_1
 62
1
100
AcDbLine
 10
37.499999
 20
251.875055
 30
0.0
 11
37.499999
 21
250.937562
 31
0.0
  0
LINE
  5
2ba
100
AcDbEntity
  8
Calque_1
 62
1
100
AcDbLine
 10
38.071372
 20
225.886775
 30
0.0
 11
27.457495
 21
225.751076
 31
0.0
  0
LINE
  5
2bb
100
AcDbEntity
  8
Calque_1
 62
1
100
AcDbLine
 10
27.457495
 20
225.751076
 30
0.0
 11
23.896346
 21
215.751527
 31
0.0
  0
LINE
  5
2bc
100
AcDbEntity
  8
Calque_1
 62
1
100
AcDbLine
 10
23.896346
 20
215.751527
 30
0.0
 11
20.487421
 21
225.803990
 31
0.0
  0
LINE
  5
2bd
100
AcDbEntity
  8
Calque_1
 62
1
100
AcDbLine
 10
20.487421
 20
225.803990
 30
0.0
 11
9.876828
 21
226.100813
 31
0.0
  0
LINE
  5
2be
100
AcDbEntity
  8
Calque_1
 62
1
100
AcDbLine
 10
9.876828
 20
226.100813
 30
0.0
 11
18.383873
 21
232.449275
 31
0.0
  0
LINE
  5
2bf
100
AcDbEntity
  8
Calque_1
 62
1
100
AcDbLine
 10
18.383873
 20
232.449275
 30
0.0
 11
15.387314
 21
242.632273
 31
0.0
  0
LINE
  5
2c0
100
AcDbEntity
  8
Calque_1
 62
1
100
AcDbLine
 10
15.387314
 20
242.632273
 30
0.0
 11
24.053883
 21
236.503375
 31
0.0
  0
LINE
  5
2c1
100
AcDbEntity
  8
Calque_1
 62
1
100
AcDbLine
 10
24.053883
 20
236.503375
 30
0.0
 11
32.812501
 21
242.499992
 31
0.0
  0
LINE
  5
2c2
100
AcDbEntity
  8
Calque_1
 62
1
100
AcDbLine
 10
32.812501
 20
242.499992
 30
0.0
 11
29.661691
 21
232.363661
 31
0.0
  0
LINE
  5
2c3
100
AcDbEntity
  8
Calque_1
 62
1
100
AcDbLine
 10
29.661691
 20
232.363661
 30
0.0
 11
38.071372
 21
225.886775
 31
0.0
  0
LINE
  5
2c4
100
AcDbEntity
  8
Calque_1
 62
1
100
AcDbLine
 10
38.071372
 20
197.761773
 30
0.0
 11
27.457495
 21
197.626074
 31
0.0
  0
LINE
  5
2c5
100
AcDbEntity
  8
Calque_1
 62
1
100
AcDbLine
 10
27.457495
 20
197.626074
 30
0.0
 11
23.896347
 21
187.626525
 31
0.0
  0
LINE
  5
2c6
100
AcDbEntity
  8
Calque_1
 62
1
100
AcDbLine
 10
23.896347
 20
187.626525
 30
0.0
 11
20.487421
 21
197.678988
 31
0.0
  0
LINE
  5
2c7
100
AcDbEntity
  8
Calque_1
 62
1
100
AcDbLine
 10
20.487421
 20
197.678988
 30
0.0
 11
9.876828
 21
197.975811
 31
0.0
  0
LINE
  5
2c8
100
AcDbEntity
  8
Calque_1
 62
1
100
AcDbLine
 10
9.876828
 20
197.975811
 30
0.0
 11
18.383873
 21
204.324273
 31
0.0
  0
LINE
  5
2c9
100
AcDbEntity
  8
Calque_1
 62
1
100
AcDbLine
 10
18.383873
 20
204.324273
 30
0.0
 11
15.387315
 21
214.507268
 31
0.0
  0
LINE
  5
2ca
100
AcDbEntity
  8
Calque_1
 62
1
100
AcDbLine
 10
15.387315
 20
214.507268
 30
0.0
 11
24.053883
 21
208.378373
 31
0.0
  0
LINE
  5
2cb
100
AcDbEntity
  8
Calque_1
 62
1
100
AcDbLine
 10
24.053883
 20
208.378373
 30
0.0
 11
32.812501
 21
214.374987
 31
0.0
  0
LINE
  5
2cc
100
AcDbEntity
  8
Calque_1
 62
1
100
AcDbLine
 10
32.812501
 20
214.374987
 30
0.0
 11
29.661691
 21
204.238657
 31
0.0
  0
LINE
  5
2cd
100
AcDbEntity
  8
Calque_1
 62
1
100
AcDbLine
 10
29.661691
 20
204.238657
 30
0.0
 11
38.071372
 21
197.761773
 31
0.0
  0
LINE
  5
2ce
100
AcDbEntity
  8
Calque_1
 62
1
100
AcDbLine
 10
38.071372
 20
169.636777
 30
0.0
 11
27.457495
 21
169.501080
 31
0.0
  0
LINE
  5
2cf
100
AcDbEntity
  8
Calque_1
 62
1
100
AcDbLine
 10
27.457495
 20
169.501080
 30
0.0
 11
23.896347
 21
159.501528
 31
0.0
  0
LINE
  5
2d0
100
AcDbEntity
  8
Calque_1
 62
1
100
AcDbLine
 10
23.896347
 20
159.501528
 30
0.0
 11
20.487421
 21
169.553991
 31
0.0
  0
LINE
  5
2d1
100
AcDbEntity
  8
Calque_1
 62
1
100
AcDbLine
 10
20.487421
 20
169.553991
 30
0.0
 11
9.876828
 21
169.850814
 31
0.0
  0
LINE
  5
2d2
100
AcDbEntity
  8
Calque_1
 62
1
100
AcDbLine
 10
9.876828
 20
169.850814
 30
0.0
 11
18.383873
 21
176.199277
 31
0.0
  0
LINE
  5
2d3
100
AcDbEntity
  8
Calque_1
 62
1
100
AcDbLine
 10
18.383873
 20
176.199277
 30
0.0
 11
15.387315
 21
186.382274
 31
0.0
  0
LINE
  5
2d4
100
AcDbEntity
  8
Calque_1
 62
1
100
AcDbLine
 10
15.387315
 20
186.382274
 30
0.0
 11
24.053883
 21
180.253376
 31
0.0
  0
LINE
  5
2d5
100
AcDbEntity
  8
Calque_1
 62
1
100
AcDbLine
 10
24.053883
 20
180.253376
 30
0.0
 11
32.812501
 21
186.249991
 31
0.0
  0
LINE
  5
2d6
100
AcDbEntity
  8
Calque_1
 62
1
100
AcDbLine
 10
32.812501
 20
186.249991
 30
0.0
 11
29.661691
 21
176.113663
 31
0.0
  0
LINE
  5
2d7
100
AcDbEntity
  8
Calque_1
 62
1
100
AcDbLine
 10
29.661691
 20
176.113663
 30
0.0
 11
38.071372
 21
169.636777
 31
0.0
  0
LINE
  5
2d8
100
AcDbEntity
  8
Calque_1
 62
1
100
AcDbLine
 10
38.071372
 20
118.074276
 30
0.0
 11
27.457495
 21
117.938577
 31
0.0
  0
LINE
  5
2d9
100
AcDbEntity
  8
Calque_1
 62
1
100
AcDbLine
 10
27.457495
 20
117.938577
 30
0.0
 11
23.896347
 21
107.939026
 31
0.0
  0
LINE
  5
2da
100
AcDbEntity
  8
Calque_1
 62
1
100
AcDbLine
 10
23.896347
 20
107.939026
 30
0.0
 11
20.487421
 21
117.991488
 31
0.0
  0
LINE
  5
2db
100
AcDbEntity
  8
Calque_1
 62
1
100
AcDbLine
 10
20.487421
 20
117.991488
 30
0.0
 11
9.876828
 21
118.288314
 31
0.0
  0
LINE
  5
2dc
100
AcDbEntity
  8
Calque_1
 62
1
100
AcDbLine
 10
9.876828
 20
118.288314
 30
0.0
 11
18.383873
 21
124.636777
 31
0.0
  0
LINE
  5
2dd
100
AcDbEntity
  8
Calque_1
 62
1
100
AcDbLine
 10
18.383873
 20
124.636777
 30
0.0
 11
15.387315
 21
134.819772
 31
0.0
  0
LINE
  5
2de
100
AcDbEntity
  8
Calque_1
 62
1
100
AcDbLine
 10
15.387315
 20
134.819772
 30
0.0
 11
24.053883
 21
128.690876
 31
0.0
  0
LINE
  5
2df
100
AcDbEntity
  8
Calque_1
 62
1
100
AcDbLine
 10
24.053883
 20
128.690876
 30
0.0
 11
32.812501
 21
134.687490
 31
0.0
  0
LINE
  5
2e0
100
AcDbEntity
  8
Calque_1
 62
1
100
AcDbLine
 10
32.812501
 20
134.687490
 30
0.0
 11
29.661691
 21
124.551160
 31
0.0
  0
LINE
  5
2e1
100
AcDbEntity
  8
Calque_1
 62
1
100
AcDbLine
 10
29.661691
 20
124.551160
 30
0.0
 11
38.071372
 21
118.074276
 31
0.0
  0
LINE
  5
2e2
100
AcDbEntity
  8
Calque_1
 62
1
100
AcDbLine
 10
84.946376
 20
329.011776
 30
0.0
 11
74.332499
 21
328.876077
 31
0.0
  0
LINE
  5
2e3
100
AcDbEntity
  8
Calque_1
 62
1
100
AcDbLine
 10
74.332499
 20
328.876077
 30
0.0
 11
70.771351
 21
318.876528
 31
0.0
  0
LINE
  5
2e4
100
AcDbEntity
  8
Calque_1
 62
1
100
AcDbLine
 10
70.771351
 20
318.876528
 30
0.0
 11
67.362425
 21
328.928990
 31
0.0
  0
LINE
  5
2e5
100
AcDbEntity
  8
Calque_1
 62
1
100
AcDbLine
 10
67.362425
 20
328.928990
 30
0.0
 11
56.751831
 21
329.225813
 31
0.0
  0
LINE
  5
2e6
100
AcDbEntity
  8
Calque_1
 62
1
100
AcDbLine
 10
56.751831
 20
329.225813
 30
0.0
 11
65.258876
 21
335.574276
 31
0.0
  0
LINE
  5
2e7
100
AcDbEntity
  8
Calque_1
 62
1
100
AcDbLine
 10
65.258876
 20
335.574276
 30
0.0
 11
62.262319
 21
345.757273
 31
0.0
  0
LINE
  5
2e8
100
AcDbEntity
  8
Calque_1
 62
1
100
AcDbLine
 10
62.262319
 20
345.757273
 30
0.0
 11
70.928886
 21
339.628376
 31
0.0
  0
LINE
  5
2e9
100
AcDbEntity
  8
Calque_1
 62
1
100
AcDbLine
 10
70.928886
 20
339.628376
 30
0.0
 11
79.687505
 21
345.624991
 31
0.0
  0
LINE
  5
2ea
100
AcDbEntity
  8
Calque_1
 62
1
100
AcDbLine
 10
79.687505
 20
345.624991
 30
0.0
 11
76.536693
 21
335.488661
 31
0.0
  0
LINE
  5
2eb
100
AcDbEntity
  8
Calque_1
 62
1
100
AcDbLine
 10
76.536693
 20
335.488661
 30
0.0
 11
84.946376
 21
329.011776
 31
0.0
  0
LINE
  5
2ec
100
AcDbEntity
  8
Calque_1
 62
1
100
AcDbLine
 10
84.946376
 20
300.886773
 30
0.0
 11
74.332499
 21
300.751076
 31
0.0
  0
LINE
  5
2ed
100
AcDbEntity
  8
Calque_1
 62
1
100
AcDbLine
 10
74.332499
 20
300.751076
 30
0.0
 11
70.771351
 21
290.751525
 31
0.0
  0
LINE
  5
2ee
100
AcDbEntity
  8
Calque_1
 62
1
100
AcDbLine
 10
70.771351
 20
290.751525
 30
0.0
 11
67.362425
 21
300.803988
 31
0.0
  0
LINE
  5
2ef
100
AcDbEntity
  8
Calque_1
 62
1
100
AcDbLine
 10
67.362425
 20
300.803988
 30
0.0
 11
56.751831
 21
301.100811
 31
0.0
  0
LINE
  5
2f0
100
AcDbEntity
  8
Calque_1
 62
1
100
AcDbLine
 10
56.751831
 20
301.100811
 30
0.0
 11
65.258876
 21
307.449274
 31
0.0
  0
LINE
  5
2f1
100
AcDbEntity
  8
Calque_1
 62
1
100
AcDbLine
 10
65.258876
 20
307.449274
 30
0.0
 11
62.262319
 21
317.632271
 31
0.0
  0
LINE
  5
2f2
100
AcDbEntity
  8
Calque_1
 62
1
100
AcDbLine
 10
62.262319
 20
317.632271
 30
0.0
 11
70.928886
 21
311.503374
 31
0.0
  0
LINE
  5
2f3
100
AcDbEntity
  8
Calque_1
 62
1
100
AcDbLine
 10
70.928886
 20
311.503374
 30
0.0
 11
79.687505
 21
317.499989
 31
0.0
  0
LINE
  5
2f4
100
AcDbEntity
  8
Calque_1
 62
1
100
AcDbLine
 10
79.687505
 20
317.499989
 30
0.0
 11
76.536693
 21
307.363659
 31
0.0
  0
LINE
  5
2f5
100
AcDbEntity
  8
Calque_1
 62
1
100
AcDbLine
 10
76.536693
 20
307.363659
 30
0.0
 11
84.946376
 21
300.886773
 31
0.0
  0
LINE
  5
2f6
100
AcDbEntity
  8
Calque_1
 62
1
100
AcDbLine
 10
52.133870
 20
329.011777
 30
0.0
 11
41.519996
 21
328.876078
 31
0.0
  0
LINE
  5
2f7
100
AcDbEntity
  8
Calque_1
 62
1
100
AcDbLine
 10
41.519996
 20
328.876078
 30
0.0
 11
37.958847
 21
318.876529
 31
0.0
  0
LINE
  5
2f8
100
AcDbEntity
  8
Calque_1
 62
1
100
AcDbLine
 10
37.958847
 20
318.876529
 30
0.0
 11
34.549921
 21
328.928991
 31
0.0
  0
LINE
  5
2f9
100
AcDbEntity
  8
Calque_1
 62
1
100
AcDbLine
 10
34.549921
 20
328.928991
 30
0.0
 11
23.939329
 21
329.225814
 31
0.0
  0
LINE
  5
2fa
100
AcDbEntity
  8
Calque_1
 62
1
100
AcDbLine
 10
23.939329
 20
329.225814
 30
0.0
 11
32.446373
 21
335.574277
 31
0.0
  0
LINE
  5
2fb
100
AcDbEntity
  8
Calque_1
 62
1
100
AcDbLine
 10
32.446373
 20
335.574277
 30
0.0
 11
29.449816
 21
345.757273
 31
0.0
  0
LINE
  5
2fc
100
AcDbEntity
  8
Calque_1
 62
1
100
AcDbLine
 10
29.449816
 20
345.757273
 30
0.0
 11
38.116383
 21
339.628377
 31
0.0
  0
LINE
  5
2fd
100
AcDbEntity
  8
Calque_1
 62
1
100
AcDbLine
 10
38.116383
 20
339.628377
 30
0.0
 11
46.874999
 21
345.624991
 31
0.0
  0
LINE
  5
2fe
100
AcDbEntity
  8
Calque_1
 62
1
100
AcDbLine
 10
46.874999
 20
345.624991
 30
0.0
 11
43.724190
 21
335.488662
 31
0.0
  0
LINE
  5
2ff
100
AcDbEntity
  8
Calque_1
 62
1
100
AcDbLine
 10
43.724190
 20
335.488662
 30
0.0
 11
52.133870
 21
329.011777
 31
0.0
  0
ENDSEC
  0
SECTION
  2
OBJECTS
  0
DICTIONARY
  5
C
330
0
100
AcDbDictionary
  3
ACAD_GROUP
350
D
  3
ACAD_MLINESTYLE
350
17
  0
DICTIONARY
  5
D
330
C
100
AcDbDictionary
  0
DICTIONARY
  5
1A
330
C
100
AcDbDictionary
  0
DICTIONARY
  5
17
330
C
100
AcDbDictionary
  3
STANDARD
350
18
  0
DICTIONARY
  5
19
330
C
100
AcDbDictionary
  0
ENDSEC
  0
EOF
