<?xml version="1.0" encoding="UTF-8" standalone="no"?>
<!-- Created with Inkscape (http://www.inkscape.org/) -->

<svg
   xmlns:dc="http://purl.org/dc/elements/1.1/"
   xmlns:cc="http://creativecommons.org/ns#"
   xmlns:rdf="http://www.w3.org/1999/02/22-rdf-syntax-ns#"
   xmlns:svg="http://www.w3.org/2000/svg"
   xmlns="http://www.w3.org/2000/svg"
   xmlns:sodipodi="http://sodipodi.sourceforge.net/DTD/sodipodi-0.dtd"
   xmlns:inkscape="http://www.inkscape.org/namespaces/inkscape"
   id="svg6781"
   version="1.1"
   inkscape:version="0.91 r13725"
   width="1161.5625"
   height="427.5"
   viewBox="0 0 1161.5625 427.5"
   sodipodi:docname="logo_entreprendre_lannion.svg">
  <metadata
     id="metadata6787">
    <rdf:RDF>
      <cc:Work
         rdf:about="">
        <dc:format>image/svg+xml</dc:format>
        <dc:type
           rdf:resource="http://purl.org/dc/dcmitype/StillImage" />
        <dc:title></dc:title>
      </cc:Work>
    </rdf:RDF>
  </metadata>
  <defs
     id="defs6785" />
  <sodipodi:namedview
     pagecolor="#ffffff"
     bordercolor="#666666"
     borderopacity="1"
     objecttolerance="10"
     gridtolerance="10"
     guidetolerance="10"
     inkscape:pageopacity="0"
     inkscape:pageshadow="2"
     inkscape:window-width="1920"
     inkscape:window-height="995"
     id="namedview6783"
     showgrid="false"
     inkscape:zoom="0.63874392"
     inkscape:cx="456.81177"
     inkscape:cy="444.96481"
     inkscape:window-x="1280"
     inkscape:window-y="0"
     inkscape:window-maximized="1"
     inkscape:current-layer="svg6781" />
  <path
     style="fill:#000000"
     d="m 758.62019,391.17536 c -1.76803,-0.90155 -4.08835,-2.8305 -5.15625,-4.28657 -1.87609,-2.55803 -1.94164,-3.75066 -1.94164,-35.32939 l 0,-32.682 2.68826,-2.80561 c 3.95651,-4.12922 7.04875,-5.0628 15.49822,-4.67909 5.7453,0.2609 8.07756,0.79161 10.1096,2.30044 4.89718,3.63624 4.95649,4.09149 4.97135,38.15523 0.0157,35.90945 -0.007,36.04279 -6.84523,39.14715 -5.1575,2.34159 -14.90692,2.43232 -19.32431,0.17984 z m 16.57252,-9.13348 c 2.08414,-2.42296 2.11084,-2.79666 2.11084,-29.54511 0,-17.8578 -0.35476,-27.86971 -1.04088,-29.37559 -2.05616,-4.51278 -9.94555,-5.84953 -14.30144,-2.4232 l -2.47018,1.94305 0,28.58733 c 0,18.43484 0.35471,29.25013 0.99878,30.4536 2.33144,4.3563 11.0811,4.5705 14.70288,0.35992 z m 239.72789,9.07133 c -7.1193,-3.34312 -6.9937,-2.64494 -6.9782,-38.80966 0.015,-34.55642 0.068,-34.96853 4.9752,-38.61449 3.9232,-2.9148 17.6449,-3.32132 21.9132,-0.6492 3.9914,2.49881 5.8848,5.58079 6.1556,10.02028 0.2226,3.65019 0.2097,3.66456 -3.5547,3.94175 -3.5494,0.26136 -3.8332,0.0919 -4.6875,-2.79898 -1.1647,-3.94147 -4.4191,-5.64239 -9.7786,-5.11095 -7.591,0.75271 -7.537,0.52297 -7.537,32.04955 0,15.12026 0.3957,28.53217 0.8794,29.80425 1.8672,4.91127 13.4477,5.38248 15.9803,0.65026 0.5241,-0.97917 0.9528,-6.60796 0.9528,-12.5084 0,-12.25992 -0.6955,-13.75409 -5.6054,-12.04249 l -2.8321,0.98727 0,-4.48824 c 0,-3.89981 0.313,-4.6309 2.3879,-5.57623 2.9952,-1.36476 7.4677,-1.39851 9.9406,-0.075 3.4868,1.86608 4.5469,6.49176 4.5413,19.8163 -0.01,15.0807 -0.8502,18.61013 -5.2523,21.96775 -4.4808,3.41772 -15.6869,4.16629 -21.5005,1.43626 z m 43.9295,-0.11769 c -6.8375,-3.10436 -6.8609,-3.2377 -6.8452,-39.14715 0.015,-34.06751 0.074,-34.51749 4.9752,-38.15931 3.9233,-2.9148 17.6449,-3.32132 21.9132,-0.6492 6.4658,4.04781 6.3791,3.51603 6.3791,39.12073 0,30.97189 -0.068,32.17343 -1.9417,34.72873 -1.0679,1.45578 -3.3882,3.38449 -5.1563,4.28604 -4.4174,2.25248 -14.1667,2.16175 -19.3243,-0.17984 z m 13.6459,-6.71419 c 1.6347,-0.56986 3.3851,-1.80775 3.8899,-2.75087 0.54,-1.00905 0.9177,-13.27222 0.9177,-29.79752 0,-26.25329 -0.1167,-28.22697 -1.7921,-30.29602 -1.4941,-1.84507 -2.6581,-2.21323 -6.9978,-2.21323 -8.8005,0 -8.5077,-1.00245 -8.8394,30.26644 -0.157,14.80658 -0.026,28.32299 0.2897,30.03646 0.4322,2.34035 1.3195,3.43907 3.5668,4.41643 3.6872,1.60354 5.1747,1.65968 8.9652,0.33831 z M 497.92855,355.44387 c 0,-35.95715 0.0267,-36.47003 2.03241,-39.01985 2.85535,-3.63 7.19784,-5.16931 14.5781,-5.16763 7.24,0.002 11.69747,1.79479 14.7291,5.92513 1.87117,2.54931 1.95233,3.95284 2.23624,38.67187 l 0.2946,36.02655 -4.27898,0 -4.27897,0 0,-18.28125 c 0,-10.05469 -0.30745,-18.28125 -0.68324,-18.28125 -0.37578,0 -3.64531,1.10114 -7.26563,2.44699 -9.86014,3.66547 -9.86363,3.67261 -9.86363,20.15687 l 0,13.95864 -3.75,0 -3.75,0 0,-36.43607 z m 14.97376,-5.67524 c 9.78859,-3.81401 10.33874,-4.69662 10.33874,-16.5863 0,-8.44807 -0.24552,-9.98541 -1.85115,-11.59104 -2.36904,-2.36904 -5.74397,-3.20305 -9.84682,-2.43336 -5.52437,1.03638 -6.11453,2.87256 -6.11453,19.02436 0,7.87746 0.10547,14.3211 0.23437,14.31921 0.12891,-0.002 3.38663,-1.23169 7.23939,-2.73287 z m 53.259,39.99728 c -1.40167,-1.1576 -2.9837,-3.29234 -3.51563,-4.74388 -0.60029,-1.63809 -0.96713,-15.95111 -0.96713,-37.73437 l 0,-35.09522 3.75,0 3.75,0 0,32.75147 c 0,32.1137 0.38993,36.97274 3.10552,38.69947 0.61228,0.38932 5.01557,0.71431 9.7851,0.72221 l 8.67188,0.0143 0,3.75 0,3.75 -11.01563,-0.005 c -10.03084,-0.005 -11.24345,-0.19281 -13.56411,-2.10937 z m 35.0951,-34.3739 0.26589,-36.48792 2.34375,-2.53916 c 3.37894,-3.66062 7.51823,-5.10999 14.59383,-5.10999 7.41249,0 12.08123,1.92784 14.57584,6.01871 1.64157,2.69198 1.76106,5.31615 1.76432,38.74691 l 0.004,35.85938 -4.21875,0 -4.21875,0 0,-18.38155 c 0,-17.1347 -0.11129,-18.33643 -1.64063,-17.71623 -0.90234,0.36593 -3.93152,1.4692 -6.73151,2.45171 -8.61194,3.02191 -8.50286,2.77483 -8.50286,19.26012 l 0,14.38595 -4.25027,0 -4.25027,0 0.2659,-36.48793 z m 21.35964,-8.3351 3.28125,-1.58322 0.26186,-11.3142 c 0.23817,-10.29045 0.0932,-11.46686 -1.60258,-13.00149 -2.99239,-2.70809 -9.39611,-2.99087 -12.48741,-0.55144 l -2.57812,2.03447 0,14.91828 0,14.91827 4.92187,-1.91872 c 2.70704,-1.0553 6.39844,-2.63118 8.20313,-3.50195 z m 22.5,9.63667 c 0,-39.84895 0.0589,-40.24573 6.45424,-43.50841 5.15059,-2.62764 15.58982,-2.67922 20.6416,-0.10199 6.59023,3.36208 6.65416,3.78048 6.65416,43.54782 l 0,35.24894 -4.21875,0 -4.21875,0 0,-34.5422 c 0,-33.92585 -0.0353,-34.57407 -1.97343,-36.32812 -1.36246,-1.23302 -3.3637,-1.78593 -6.46407,-1.78593 -3.10037,0 -5.10161,0.55291 -6.46407,1.78593 -1.93822,1.75405 -1.97343,2.40227 -1.97343,36.32812 l 0,34.5422 -4.21875,0 -4.21875,0 0,-35.18636 z m 44.0625,-0.4852 c 0,-39.97743 -0.0407,-39.70975 6.54447,-43.06924 5.2938,-2.7007 15.78378,-2.6276 20.7158,0.14434 6.46014,3.63081 6.48973,3.82842 6.48973,43.34752 l 0,35.24894 -4.21875,0 -4.21875,0 0,-34.5422 c 0,-38.72158 0.29097,-37.10742 -6.89948,-38.27428 -4.683,-0.75994 -8.69325,1.10365 -9.91468,4.60741 -0.63225,1.81367 -0.99834,14.84504 -0.99834,35.53646 l 0,32.67261 -3.75,0 -3.75,0 0,-35.67156 z m 44.0625,-4.17219 0,-39.84375 3.75,0 3.75,0 0,39.84375 0,39.84375 -3.75,0 -3.75,0 0,-39.84375 z m 62.06811,3.35568 0.27564,-36.48808 2.34375,-2.50725 c 3.75012,-4.01173 6.85049,-5.1416 14.10863,-5.1416 7.92306,0 12.50819,1.83232 15.06104,6.01871 1.64157,2.69198 1.76106,5.31615 1.76432,38.74691 l 0.004,35.85938 -3.75,0 -3.75,0 0,-33.69773 0,-33.69771 -2.26258,-2.63041 c -1.91592,-2.2274 -2.97811,-2.6304 -6.93282,-2.6304 -3.27699,0 -5.25897,0.53279 -6.64367,1.78593 -1.93822,1.75405 -1.97343,2.40227 -1.97343,36.32812 l 0,34.5422 -4.26002,0 -4.26001,0 0.27564,-36.48807 z m 98.95852,0.22932 -0.24538,-36.25875 -6.32813,0.22961 -6.32812,0.22961 0,-3.81461 0,-3.81461 16.875,0 16.875,0 0,3.75 0,3.75 -6.5625,0 -6.5625,0 0,36.09375 0,36.09375 -3.73899,0 -3.73899,0 -0.24539,-36.25875 z m 28.34837,0.58719 c 0,-39.97743 -0.0407,-39.70975 6.54447,-43.06924 2.5903,-1.32148 5.53341,-1.8842 9.85454,-1.8842 7.02087,0 11.16658,1.45649 14.53408,5.10622 2.15747,2.3383 2.36579,3.37021 2.68022,13.27482 0.47925,15.09803 -0.22481,18.82311 -4.281,22.64853 l -3.30309,3.11527 5.24784,16.70814 c 2.88628,9.18949 5.52207,17.42288 5.85731,18.29643 0.52922,1.37922 0.015,1.55002 -3.90599,1.29756 l -4.51538,-0.29072 -5.10675,-16.40625 c -2.80875,-9.02344 -5.25194,-16.57263 -5.42936,-16.77597 -0.17742,-0.20335 -2.21904,0.35453 -4.53691,1.23974 -5.40991,2.06606 -6.12776,4.45991 -6.13475,20.4581 l -0.005,11.95313 -3.75,0 -3.75,0 0,-35.67156 z m 15.67872,-6.57043 c 4.00953,-1.57684 7.81737,-3.55592 8.4619,-4.39793 0.77597,-1.01371 1.17188,-5.06381 1.17188,-11.98771 0,-12.08062 -0.747,-13.4517 -7.75916,-14.24208 -3.40393,-0.38367 -4.54383,-0.0664 -6.83492,1.90248 l -2.74967,2.36295 -0.30037,14.61464 c -0.1652,8.03805 -0.0707,14.61464 0.20998,14.61464 0.28067,0 3.79084,-1.29015 7.80036,-2.86699 z m 34.17322,41.06656 c -1.19869,-0.57669 -2.99166,-2.64071 -3.98438,-4.5867 -1.67259,-3.27853 -1.80506,-5.78359 -1.80506,-34.13696 0,-33.40895 0.22612,-35.00254 5.47144,-38.55976 2.06437,-1.40005 4.4475,-1.69398 13.74731,-1.69553 l 11.25,-0.002 0.291,3.51562 0.29091,3.51563 -8.55572,0 c -8.12541,0 -11.7976,0.87739 -13.33997,3.18722 -0.37884,0.56735 -0.69525,6.62137 -0.70313,13.4534 l -0.0143,12.42188 8.90625,0 8.90625,0 0,4.21875 0,4.21875 -8.90625,0 -8.90625,0 0,12.51095 c 0,15.90161 -0.23878,15.61405 12.96441,15.61405 l 9.53559,0 0,3.75 0,3.75 -11.48438,-0.0635 c -6.40284,-0.0353 -12.44868,-0.5274 -13.66368,-1.11198 z m 123.59941,-34.68395 c 0.015,-38.55133 0.027,-38.65578 4.9761,-42.3315 3.7365,-2.77522 16.5391,-3.28263 21.1934,-0.83996 6.3495,3.33236 7.0979,5.42022 7.0979,19.80208 0,13.91954 -0.9042,17.75739 -4.7822,20.29842 -1.237,0.81047 -2.249,2.02309 -2.249,2.69475 0,0.67165 2.4749,9.09942 5.4998,18.72839 l 5.4997,17.5072 -4.3341,0 -4.334,0 -5.1107,-16.47143 c -2.8109,-9.05929 -5.417,-16.66075 -5.7914,-16.89214 -1.2081,-0.74663 -8.33,2.59736 -9.2692,4.35217 -0.5005,0.93535 -0.9101,7.84556 -0.9101,15.35602 l 0,13.65538 -3.75,0 -3.75,0 0.014,-35.85938 z m 14.9599,-6.25193 c 9.7887,-3.81401 10.3388,-4.69662 10.3388,-16.5863 0,-8.44807 -0.2455,-9.98541 -1.8512,-11.59104 -2.369,-2.36904 -5.744,-3.20305 -9.8467,-2.43336 -5.5244,1.03638 -6.1146,2.87256 -6.1146,19.02436 0,7.87746 0.1055,14.3211 0.2344,14.31921 0.1289,-0.002 3.3866,-1.23169 7.2393,-2.73287 z m -271.84875,14.92381 0,-3.75 16.875,0 16.875,0 0,3.75 0,3.75 -16.875,0 -16.875,0 0,-3.75 z M 521.20889,308.16578 c -1.3755,-0.62128 -5.72934,-4.71553 -9.67518,-9.09834 l -7.17427,-7.96875 4.88717,-0.28801 c 2.68795,-0.15841 5.19605,0.0525 5.57357,0.46875 1.40995,1.55445 10.13757,18.09883 9.52624,18.05823 -0.35015,-0.0233 -1.76203,-0.5506 -3.13753,-1.17188 z m 456.41197,-7.12362 c 2.3821,-4.43765 4.83638,-8.62015 5.45381,-9.29443 0.72507,-0.7917 2.85385,-1.12378 6.00985,-0.9375 l 4.88709,0.28846 -7.99247,8.55702 c -4.80225,5.14154 -8.92987,8.73623 -10.341,9.00598 -2.3025,0.44015 -2.26359,0.29085 1.98272,-7.61953 z m -382.19988,-9.24035 c -0.004,-0.38671 -0.009,-28.90187 -0.0118,-63.36702 l -0.005,-62.66389 2.51338,-4.61791 c 2.75474,-5.06136 8.50221,-9.48254 14.79856,-11.38363 6.09435,-1.8401 26.26592,-1.51154 32.09716,0.52282 7.02374,2.45038 11.89993,6.352 14.47452,11.58164 2.2149,4.49816 2.2342,4.80062 2.2342,35.00612 l 0,30.46875 -2.53204,4.79976 c -3.56662,6.76095 -6.65475,8.96717 -18.24187,13.03247 -30.87128,10.83107 -29.38234,9.23354 -29.38234,31.52516 l 0,15.79886 -7.96875,0 c -4.38281,0 -7.97215,-0.31641 -7.97632,-0.70313 z m 30.4857,-57.51106 c 6.18235,-2.17571 12.40714,-4.76646 13.83289,-5.75723 5.29094,-3.67674 5.48695,-4.92732 5.18432,-33.07836 l -0.27659,-25.72963 -2.83574,-2.83426 c -7.21418,-7.21039 -25.03854,-5.48605 -29.24616,2.82931 -0.87349,1.72625 -1.17523,11.12144 -1.18553,36.91404 -0.0131,32.96695 0.064,34.52801 1.63619,33.10519 0.90751,-0.82129 6.70829,-3.27337 12.89062,-5.44906 z m -89.07188,18.79206 c -8.10802,-1.25537 -17.0104,-6.04496 -20.55598,-11.05937 l -2.88152,-4.07525 -0.26702,-35.07833 c -0.17103,-22.46753 0.0878,-36.39601 0.71994,-38.74361 1.28721,-4.78035 8.33715,-11.1564 15.09551,-13.65256 4.15517,-1.53469 7.37371,-1.87289 17.73282,-1.86339 11.87559,0.0109 13.00321,0.17319 18.28125,2.63113 10.78433,5.02218 13.67758,9.43358 14.32674,21.84436 0.65185,12.46196 -0.77005,17.39099 -6.73859,23.35953 -5.83896,5.83896 -9.6825,6.99653 -23.23767,6.99857 -11.12346,0.002 -14.88524,1.32953 -18.31617,6.46531 -1.78991,2.67934 -2.12806,4.43452 -2.12806,11.04574 0,10.30992 1.47165,13.84605 6.76159,16.24695 4.52371,2.05314 14.83175,2.51803 19.193,0.8656 4.13631,-1.56721 6.84283,-4.66929 7.46419,-8.55511 l 0.57086,-3.56994 8.44789,0 8.44789,0 -0.5045,5.56366 c -1.21961,13.45009 -11.30054,20.93715 -29.65544,22.02497 -3.92245,0.23247 -9.66298,0.0308 -12.75673,-0.44826 z m 7.30129,-63.49297 c 15.5208,-0.52244 18.47996,-2.68953 18.47996,-13.53344 0,-5.90091 -0.24862,-6.7568 -2.66436,-9.17255 -3.45127,-3.45127 -9.47579,-5.05065 -16.34353,-4.33887 -5.97985,0.61976 -9.56608,2.14438 -12.40057,5.27188 -1.62951,1.79795 -1.91313,3.64815 -2.18335,14.24286 l -0.31055,12.1765 2.92434,-2.16206 c 2.51307,-1.858 4.27075,-2.20739 12.49806,-2.48432 z m 214.74248,63.50624 c -13.60894,-2.42848 -21.70065,-8.58101 -23.78851,-18.08758 -0.71694,-3.26447 -0.96304,-15.40879 -0.75366,-37.19106 0.30187,-31.40466 0.37189,-32.45786 2.41162,-36.27382 4.50216,-8.4227 13.22485,-12.5531 27.86547,-13.19495 17.44519,-0.76481 29.7223,4.01674 34.23186,13.33226 1.88112,3.88587 2.05455,5.44499 1.75703,15.79581 l -0.33008,11.48436 -3.62092,4.93158 c -5.59217,7.61639 -8.83185,8.87183 -24.50408,9.49589 -14.36848,0.57213 -16.29018,1.25863 -19.83328,7.08512 -2.48027,4.07869 -2.24482,19.30768 0.35334,22.85437 2.92448,3.99214 7.43178,5.73629 14.82817,5.73793 9.51224,0.002 14.45799,-2.61587 16.37052,-8.6655 l 1.40625,-4.44821 7.73438,-0.005 7.73437,-0.005 0,4.9576 c 0,9.50371 -6.69592,17.71393 -16.9239,20.75132 -6.0553,1.79823 -18.81517,2.53742 -24.93858,1.44472 z m -6.72002,-59.99991 c 0.66857,-2.0057 7.97673,-3.63476 16.4869,-3.67508 8.55868,-0.0406 8.73682,-0.088 12.1875,-3.25036 3.41917,-3.13345 3.50185,-3.36767 3.50185,-9.92066 0,-6.37165 -0.1524,-6.8476 -3.01016,-9.40101 -5.55312,-4.96171 -16.34898,-5.96484 -24.18358,-2.24708 -5.65828,2.68503 -6.51322,4.9119 -6.88704,17.93863 -0.213,7.42279 0.01,11.52683 0.625,11.52683 0.52568,0 1.10147,-0.43707 1.27953,-0.97127 z m 173.21552,60.08902 c -10.66662,-1.9616 -20.47559,-9.18999 -21.85928,-16.10846 -0.32244,-1.61214 -0.58211,-16.27296 -0.57708,-32.5796 0.009,-29.13412 0.0473,-29.73042 2.20978,-34.37426 2.56099,-5.49968 6.39354,-9.02912 12.04091,-11.08859 2.21177,-0.80658 9.92765,-3.58094 17.1464,-6.16524 13.78003,-4.93325 18.24178,-7.97543 18.31547,-12.48827 0.0187,-1.15202 0.12422,-8.4227 0.23437,-16.15708 l 0.20016,-14.0625 8.20313,-0.27087 8.20312,-0.27088 0,61.02761 c 0,43.41939 -0.31584,62.28193 -1.09462,65.37493 -1.59394,6.32984 -8.9161,13.60334 -15.78038,15.67535 -5.98191,1.80565 -21.04139,2.62816 -27.24198,1.48786 z m 20.61282,-15.75983 c 6.71672,-3.42495 6.54347,-2.37914 6.8355,-41.24912 0.22988,-30.59902 -0.0422,-37.71564 -1.30012,-33.9976 -0.17184,0.50803 -5.37497,2.64722 -11.56247,4.75375 -6.1875,2.10655 -12.7661,4.8173 -14.6191,6.0239 -6.10666,3.97642 -6.47465,5.81251 -6.47465,32.30581 0,21.48432 0.16096,23.88305 1.82096,27.13692 1.0517,2.06149 3.13096,4.21496 4.92188,5.09755 4.35039,2.14394 16.11447,2.10283 20.378,-0.0712 z m 120.78241,15.67382 c -11.4563,-1.92904 -18.7022,-6.24302 -22.5398,-13.4193 -2.0452,-3.82458 -2.0821,-4.51904 -2.0821,-39.12387 l 0,-35.23018 2.8461,-4.61357 c 5.6681,-9.18785 17.2715,-13.3512 34.3225,-12.31512 10.6027,0.64426 14.2795,1.66809 20.1728,5.61742 6.123,4.1032 8.5228,8.76438 9.2979,18.05914 1.1735,14.07236 -2.7215,23.46065 -11.8394,28.53682 -3.6935,2.05635 -5.6342,2.3809 -16.8312,2.81486 -13.1313,0.50892 -14.833,0.97727 -18.75,5.16037 -2.1279,2.27248 -2.3721,3.38122 -2.651,12.03922 -0.2819,8.74881 -0.1244,9.80716 1.9075,12.81747 2.7122,4.01837 6.6861,5.50192 14.9259,5.57209 10.0421,0.0855 15.0707,-2.98108 16.3861,-9.99291 l 0.5777,-3.07918 8.4411,0 8.4412,0 -0.6723,5.38083 c -1.5866,12.6989 -9.3276,19.58154 -24.4886,21.77305 -7.3678,1.065 -11.1529,1.06563 -17.4644,0.003 z m 7.96,-63.67953 c 11.2579,-0.57603 13.4819,-1.36993 16.0588,-5.73229 1.7758,-3.00606 2.0053,-10.95668 0.417,-14.44259 -2.0465,-4.49171 -6.9105,-6.58358 -15.3077,-6.58358 -6.1801,0 -8.1842,0.39205 -11.3879,2.22774 -2.1383,1.22526 -4.3531,3.24901 -4.9218,4.49724 -0.57,1.25089 -1.0341,7.31158 -1.0341,13.50345 l 0,11.23395 2.8163,-2.08223 c 2.3786,-1.75847 4.4556,-2.16609 13.3594,-2.62169 z m -761.30537,19.41341 c 0.28388,-43.05753 0.30073,-43.38719 2.42071,-47.35631 2.53428,-4.74479 7.88477,-8.85108 14.57347,-11.18457 3.7502,-1.30834 7.626,-1.68427 17.04169,-1.65296 10.43027,0.0347 12.96684,0.34933 17.59275,2.18221 6.6664,2.64137 10.45835,5.75122 13.15148,10.78581 2.03376,3.80193 2.07316,4.59 2.36174,47.22583 l 0.29349,43.35937 -8.49661,0 -8.4966,0 0,-40.26839 c 0,-26.24729 -0.34437,-41.02419 -0.98902,-42.43905 -0.54396,-1.19386 -2.51696,-3.21761 -4.38443,-4.49724 -2.92553,-2.00459 -4.44287,-2.32657 -10.96411,-2.32657 -6.25243,0 -8.24482,0.38742 -11.45651,2.22774 -2.13831,1.22526 -4.35315,3.24901 -4.92188,4.49724 -0.70246,1.54174 -1.03405,15.1824 -1.03405,42.53788 l 0,40.26839 -8.489,0 -8.48899,0 0.28587,-43.35938 z m 120.19877,42.39319 c -9.54566,-1.89255 -19.37634,-9.5958 -20.49409,-16.05903 -0.29782,-1.72206 -0.64044,-18.95134 -0.7614,-38.28728 l -0.21991,-35.15625 -6.32813,-0.27721 -6.32812,-0.27721 0,-6.51966 0,-6.51967 5.98441,0 c 7.26413,0 7.1097,0.33007 7.12779,-15.23437 l 0.0128,-11.01563 7.96875,0 7.96875,0 0,13.125 0,13.125 8.4375,0 8.4375,0 0,6.5625 0,6.5625 -8.4375,0 -8.4375,0 0,34.14682 0,34.14682 2.32477,2.76283 c 2.49886,2.96972 5.46168,4.39852 11.0346,5.32134 l 3.51563,0.58216 0,6.98876 0,6.98877 -3.98438,-0.10272 c -2.1914,-0.0565 -5.71107,-0.44505 -7.82147,-0.86347 z m 25.86835,-41.72017 c 0,-46.53243 0.007,-46.59424 5.44036,-52.32294 3.47316,-3.66155 9.9734,-6.81304 16.56639,-8.03183 5.04794,-0.93316 22.05575,-1.46718 22.05575,-0.69251 0,0.18086 -0.40125,1.55195 -0.89166,3.04687 -0.49041,1.49491 -1.33375,4.44905 -1.87407,6.56475 l -0.98241,3.84673 -7.04886,0.59585 c -4.15844,0.35151 -8.57179,1.37279 -10.76286,2.49059 -6.67235,3.40399 -6.56514,2.63157 -6.56514,47.29854 l 0,39.89031 -7.96875,0 -7.96875,0 0,-42.68636 z m 221.44117,-1.14177 0.27758,-43.82812 2.16137,-3.47604 c 5.35514,-8.61244 13.3708,-12.01277 29.948,-12.70428 6.39844,-0.26691 11.48276,-0.11163 11.48072,0.35062 -0.002,0.45634 -0.77777,3.57189 -1.72389,6.92345 l -1.72024,6.09375 -7.34707,0.73571 c -7.79873,0.78095 -13.15976,3.06272 -15.50816,6.60062 -1.11552,1.68055 -1.40251,9.16118 -1.63378,42.58554 l -0.28054,40.54688 -7.96579,0 -7.96579,0 0.27759,-43.82813 z m 135.75156,1.875 c 0.004,-26.68383 0.36725,-43.25682 0.99988,-45.5351 1.43687,-5.17445 6.51915,-10.28337 13.22221,-13.29153 7.67814,-3.44574 23.18874,-4.37731 32.64768,-1.96083 8.26879,2.11243 15.16374,6.80024 17.69609,12.03136 1.94209,4.01183 1.99141,5.1861 1.99141,47.41147 l 0,43.29776 -7.9404,0 -7.9404,0 -0.26272,-41.32757 -0.26273,-41.32757 -3.01016,-2.68891 c -5.55383,-4.96112 -16.3495,-5.96392 -24.18358,-2.24641 -6.73289,3.19498 -6.52514,1.76484 -6.8282,47.00087 l -0.27193,40.58959 -7.9312,0 -7.93118,0 0.006,-41.95313 z m 171.74018,-1.40625 c 0.28246,-42.84846 0.31059,-43.40568 2.38659,-47.28944 4.64025,-8.68115 13.37995,-12.50669 30.15255,-13.19836 l 11.6283,-0.47954 -0.5921,2.24148 c -0.3256,1.23282 -1.0778,4.40023 -1.6714,7.03869 l -1.0793,4.7972 -7.4848,0.62421 c -8.2452,0.68762 -11.7371,2.07263 -14.6899,5.82659 -1.917,2.43708 -1.9578,3.33548 -1.9578,43.14373 l 0,40.65482 -8.48902,0 -8.48906,0 0.28594,-43.35938 z m -946.887254,40.9974 c -5.648948,-2.45363 -8.796774,-5.35927 -11.051244,-10.20099 l -2.22609,-4.78078 0.01143,-49.6875 c 0.0107,-46.51307 0.123386,-49.93403 1.763798,-53.54633 2.058688,-4.53337 6.553538,-8.20447 11.800204,-9.63763 2.620598,-0.71583 39.961475,-1.02591 123.984366,-1.02956 l 120.23438,-0.005 0,21.09375 0,21.09375 -107.8125,0 -107.812493,0 0,22.86845 c 0,17.45927 0.277189,22.9618 1.171875,23.26311 0.644531,0.21706 49.160148,0.36558 107.812488,0.33003 l 106.64063,-0.0647 0,20.86403 0,20.86407 -120.70313,-0.0367 C 62.370325,251.18696 44.190571,250.98317 41.536706,249.83046 Z M 39.850089,73.690412 c -7.639576,-3.55718 -11.628708,-10.33333 -11.588445,-19.68475 0.02315,-5.37755 2.372512,-11.26195 5.727907,-14.34661 5.685803,-5.22702 -1.163181,-4.96662 130.627639,-4.96662 l 121.43636,0 0,20.625 0,20.625 -120.70313,-0.009 -120.703115,-0.009 -4.797216,-2.2337 z"
     id="path7331"
     inkscape:connector-curvature="0" />
</svg>
