<?xml version="1.0" encoding="UTF-8" standalone="no"?>
<!-- Created with Inkscape (http://www.inkscape.org/) -->

<svg
   xmlns:dc="http://purl.org/dc/elements/1.1/"
   xmlns:cc="http://creativecommons.org/ns#"
   xmlns:rdf="http://www.w3.org/1999/02/22-rdf-syntax-ns#"
   xmlns:svg="http://www.w3.org/2000/svg"
   xmlns="http://www.w3.org/2000/svg"
   xmlns:sodipodi="http://sodipodi.sourceforge.net/DTD/sodipodi-0.dtd"
   xmlns:inkscape="http://www.inkscape.org/namespaces/inkscape"
   width="1280mm"
   height="880mm"
   viewBox="0 0 4535.4331 3118.1103"
   id="svg4240"
   version="1.1"
   inkscape:version="0.91 r13725"
   sodipodi:docname="socle.svg">
  <title
     id="title4788">Découpage Laser</title>
  <defs
     id="defs4242" />
  <sodipodi:namedview
     id="base"
     pagecolor="#ffffff"
     bordercolor="#666666"
     borderopacity="1.0"
     inkscape:pageopacity="0.0"
     inkscape:pageshadow="2"
     inkscape:zoom="0.73010021"
     inkscape:cx="3909.7371"
     inkscape:cy="2612.924"
     inkscape:document-units="mm"
     inkscape:current-layer="layer1"
     showgrid="false"
     inkscape:window-width="1920"
     inkscape:window-height="995"
     inkscape:window-x="1280"
     inkscape:window-y="0"
     inkscape:window-maximized="1"
     inkscape:snap-nodes="true"
     inkscape:object-paths="true"
     inkscape:snap-intersection-paths="true"
     inkscape:object-nodes="true"
     inkscape:snap-smooth-nodes="true"
     inkscape:snap-midpoints="true"
     showguides="true"
     inkscape:guide-bbox="true" />
  <metadata
     id="metadata4245">
    <rdf:RDF>
      <cc:Work
         rdf:about="">
        <dc:format>image/svg+xml</dc:format>
        <dc:type
           rdf:resource="http://purl.org/dc/dcmitype/StillImage" />
        <dc:title>Découpage Laser</dc:title>
        <dc:creator>
          <cc:Agent>
            <dc:title />
          </cc:Agent>
        </dc:creator>
        <dc:publisher>
          <cc:Agent>
            <dc:title>Fablab Lannion</dc:title>
          </cc:Agent>
        </dc:publisher>
        <dc:source>http://fablab-lannion.org:8080/wiki/index.php?title=Chaine_logiciel_pour_d%C3%A9coupeuse_laser#Inkscape</dc:source>
        <dc:contributor>
          <cc:Agent>
            <dc:title>JJL</dc:title>
          </cc:Agent>
        </dc:contributor>
        <cc:license
           rdf:resource="http://creativecommons.org/licenses/by-sa/3.0/" />
      </cc:Work>
      <cc:License
         rdf:about="http://creativecommons.org/licenses/by-sa/3.0/">
        <cc:permits
           rdf:resource="http://creativecommons.org/ns#Reproduction" />
        <cc:permits
           rdf:resource="http://creativecommons.org/ns#Distribution" />
        <cc:requires
           rdf:resource="http://creativecommons.org/ns#Notice" />
        <cc:requires
           rdf:resource="http://creativecommons.org/ns#Attribution" />
        <cc:permits
           rdf:resource="http://creativecommons.org/ns#DerivativeWorks" />
        <cc:requires
           rdf:resource="http://creativecommons.org/ns#ShareAlike" />
      </cc:License>
    </rdf:RDF>
  </metadata>
  <g
     inkscape:label="Calque 1"
     inkscape:groupmode="layer"
     id="layer1"
     transform="translate(0,2065.7481)">
    <path
       style="fill:none;stroke:#ff0000"
       id="box_bottom"
       d="m 3770.066,-1996.4066 71.0433,0 0,10.6299 70.5118,0 0,-10.6299 71.2205,0 0,10.6299 70.5118,0 0,-10.6299 71.0433,0 0,71.0433 -10.6299,0 0,70.5118 10.6299,0 0,71.2205 -10.6299,0 0,70.5118 10.6299,0 0,71.0433 -71.0433,0 0,-10.6299 -70.5118,0 0,10.6299 -71.2205,0 0,-10.6299 -70.5118,0 0,10.6299 -71.0433,0 0,-71.0433 10.6299,0 0,-70.5118 -10.6299,0 0,-71.2205 10.6299,0 0,-70.5118 -10.6299,0 0,-71.0433 z"
       inkscape:connector-curvature="0" />
    <path
       style="fill:none;stroke:#ff0000;stroke-width:0.9992126;stroke-miterlimit:4;stroke-dasharray:none"
       id="box_top"
       d="m 4135.0266,-1996.4066 71.0433,0 0,10.6299 70.5118,0 0,-10.6299 71.2205,0 0,10.6299 70.5118,0 0,-10.6299 71.0433,0 0,71.0433 -10.6299,0 0,70.5118 10.6299,0 0,71.2205 -10.6299,0 0,70.5118 10.6299,0 0,71.0433 -71.0433,0 0,-10.6299 -70.5118,0 0,10.6299 -71.2205,0 0,-10.6299 -70.5118,0 0,10.6299 -71.0433,0 0,-71.0433 10.6299,0 0,-70.5118 -10.6299,0 0,-71.2205 10.6299,0 0,-70.5118 -10.6299,0 0,-71.0433 z"
       inkscape:connector-curvature="0" />
    <path
       style="fill:none;stroke:#ff0000"
       id="box_font"
       d="m 4135.0266,-1620.816 70.689,0 0,-10.63 71.2205,0 0,10.63 70.5118,0 0,-10.63 71.2204,0 0,10.63 70.689,0 0,197.8937 -70.689,0 0,10.6299 -71.2204,0 0,-10.6299 -70.5118,0 0,10.6299 -71.2205,0 0,-10.6299 -70.689,0 0,-197.8937 z"
       inkscape:connector-curvature="0" />
    <path
       style="fill:none;stroke:#ff0000"
       id="box_back"
       d="m 3770.066,-1620.816 70.689,0 0,-10.63 71.2204,0 0,10.63 70.5118,0 0,-10.63 71.2205,0 0,10.63 70.689,0 0,197.8937 -70.689,0 0,10.6299 -71.2205,0 0,-10.6299 -70.5118,0 0,10.6299 -71.2204,0 0,-10.6299 -70.689,0 0,-197.8937 z"
       inkscape:connector-curvature="0" />
    <path
       style="fill:none;stroke:#ff0000"
       id="box_left_side"
       d="m 4145.6565,-1391.2097 60.0591,0 0,-10.63 71.2205,0 0,10.63 70.5118,0 0,-10.63 71.2204,0 0,10.63 60.0591,0 0,197.5393 -60.0591,0 0,10.6299 -71.2204,0 0,-10.6299 -70.5118,0 0,10.6299 -71.2205,0 0,-10.6299 -60.0591,0 0,-197.5393 z"
       inkscape:connector-curvature="0" />
    <path
       style="fill:none;stroke:#ff0000"
       id="box_right_side"
       d="m 3780.6959,-1391.2097 60.0591,0 0,-10.63 71.2204,0 0,10.63 70.5118,0 0,-10.63 71.2205,0 0,10.63 60.0591,0 0,197.5393 -60.0591,0 0,10.6299 -71.2205,0 0,-10.6299 -70.5118,0 0,10.6299 -71.2204,0 0,-10.6299 -60.0591,0 0,-197.5393 z"
       inkscape:connector-curvature="0" />
    <path
       style="opacity:1;fill:none;fill-opacity:1;fill-rule:nonzero;stroke:#ff0000;stroke-width:0.99921262;stroke-linecap:round;stroke-linejoin:round;stroke-miterlimit:4;stroke-dasharray:none;stroke-dashoffset:0;stroke-opacity:1"
       id="path5296"
       sodipodi:type="arc"
       sodipodi:cx="4312.1919"
       sodipodi:cy="-1819.2412"
       sodipodi:rx="22.221348"
       sodipodi:ry="22.221376"
       sodipodi:start="0"
       sodipodi:end="6.2735685"
       sodipodi:open="true"
       d="m 4334.4132,-1819.2412 a 22.221348,22.221376 0 0 1 -22.1679,22.2213 22.221348,22.221376 0 0 1 -22.2745,-22.1145 22.221348,22.221376 0 0 1 22.0608,-22.3276 22.221348,22.221376 0 0 1 22.3806,22.0071" />
    <rect
       style="opacity:1;fill:none;fill-opacity:1;fill-rule:nonzero;stroke:#ff0000;stroke-width:0.36938912;stroke-linecap:round;stroke-linejoin:round;stroke-miterlimit:4;stroke-dasharray:none;stroke-dashoffset:0;stroke-opacity:1"
       id="rect5318"
       width="10.969193"
       height="88.213287"
       x="4218.5156"
       y="-1863.3479" />
    <rect
       y="-1863.3479"
       x="4394.8999"
       height="88.213287"
       width="10.969193"
       id="rect5322"
       style="opacity:1;fill:none;fill-opacity:1;fill-rule:nonzero;stroke:#ff0000;stroke-width:0.36938912;stroke-linecap:round;stroke-linejoin:round;stroke-miterlimit:4;stroke-dasharray:none;stroke-dashoffset:0;stroke-opacity:1" />
    <rect
       y="4268.0854"
       x="1725.5645"
       height="88.213287"
       width="10.969193"
       id="rect5324"
       style="opacity:1;fill:none;fill-opacity:1;fill-rule:nonzero;stroke:#ff0000;stroke-width:0.36938912;stroke-linecap:round;stroke-linejoin:round;stroke-miterlimit:4;stroke-dasharray:none;stroke-dashoffset:0;stroke-opacity:1"
       transform="matrix(0,-1,1,0,0,0)" />
    <rect
       style="opacity:1;fill:none;fill-opacity:1;fill-rule:nonzero;stroke:#ff0000;stroke-width:0.36938912;stroke-linecap:round;stroke-linejoin:round;stroke-miterlimit:4;stroke-dasharray:none;stroke-dashoffset:0;stroke-opacity:1"
       id="rect5326"
       width="10.969193"
       height="88.213287"
       x="1901.9489"
       y="4268.0854"
       transform="matrix(0,-1,1,0,0,0)" />
    <rect
       style="opacity:1;fill:none;fill-opacity:1;fill-rule:nonzero;stroke:#ff0000;stroke-width:0.35433072;stroke-linecap:round;stroke-linejoin:round;stroke-miterlimit:4;stroke-dasharray:none;stroke-dashoffset:0;stroke-opacity:1"
       id="rect5347"
       width="24.622225"
       height="24.622227"
       x="4418.6724"
       y="-1949.9855" />
    <rect
       y="-1949.9855"
       x="4181.4478"
       height="24.622227"
       width="24.622225"
       id="rect5357"
       style="opacity:1;fill:none;fill-opacity:1;fill-rule:nonzero;stroke:#ff0000;stroke-width:0.35433072;stroke-linecap:round;stroke-linejoin:round;stroke-miterlimit:4;stroke-dasharray:none;stroke-dashoffset:0;stroke-opacity:1" />
    <rect
       style="opacity:1;fill:none;fill-opacity:1;fill-rule:nonzero;stroke:#ff0000;stroke-width:0.35433072;stroke-linecap:round;stroke-linejoin:round;stroke-miterlimit:4;stroke-dasharray:none;stroke-dashoffset:0;stroke-opacity:1"
       id="rect5359"
       width="24.622225"
       height="24.622227"
       x="4181.4478"
       y="-1713.1193" />
    <rect
       y="-1713.1193"
       x="4418.314"
       height="24.622227"
       width="24.622225"
       id="rect5361"
       style="opacity:1;fill:none;fill-opacity:1;fill-rule:nonzero;stroke:#ff0000;stroke-width:0.35433072;stroke-linecap:round;stroke-linejoin:round;stroke-miterlimit:4;stroke-dasharray:none;stroke-dashoffset:0;stroke-opacity:1" />
    <g
       style="display:inline;stroke:#000000"
       id="g6027"
       transform="matrix(0.31598939,0,0,0.31598939,3879.4516,-1223.2904)"
       inkscape:label="Hershey Text">
      <path
         id="path6077"
         transform="translate(419,0)"
         style="fill:none;stroke:#000000"
         d="m 6,-5 -1,0 0,15 -1,3 -1,1 -2,1 -2,0 -2,-1 -1,-1 -2,0 M 6,-5 6,10 5,13 3,15 1,16 -2,16 -4,15 -6,13 M 5,-2 3,-4 1,-5 l -3,0 -2,1 -2,2 -1,3 0,2 1,3 2,2 2,1 3,0 2,-1 2,-2 m 0,-8 -4,-2 -3,0 -2,1 -1,1 -1,3 0,2 1,3 1,1 2,1 3,0 4,-2 m -25,-11 0,14 1,0 m -1,-14 1,0 0,14 m 0,-8 1,-3 2,-2 2,-1 3,0 m -8,6 1,-2 2,-2 2,-1 3,0 0,-1 m -24,0 -2,1 -2,2 -1,3 0,2 1,3 2,2 2,1 3,0 2,-1 2,-2 1,-3 0,-2 -1,-3 -2,-2 -2,-1 -3,0 m 0,1 -2,1 -1,1 -1,3 0,2 1,3 1,1 2,1 3,0 2,-1 1,-1 1,-3 0,-2 -1,-3 -1,-1 -2,-1 -3,0 m -14,10 -1,1 0,1 1,1 1,0 1,-1 0,-1 -1,-1 -1,0 m 0,1 0,1 1,0 0,-1 -1,0 m -21,-12 0,14 1,0 m -1,-14 1,0 0,14 m 0,-10 3,-3 2,-1 3,0 2,1 1,3 0,10 m -11,-10 3,-2 2,-1 2,0 2,1 1,2 0,10 1,0 m -27,-14 -2,1 -2,2 -1,3 0,2 1,3 2,2 2,1 3,0 2,-1 2,-2 1,-3 0,-2 -1,-3 -2,-2 -2,-1 -3,0 m 0,1 -2,1 -1,1 -1,3 0,2 1,3 1,1 2,1 3,0 2,-1 1,-1 1,-3 0,-2 -1,-3 -1,-1 -2,-1 -3,0 m -13,-8 -1,1 0,1 1,1 1,0 1,-1 0,-1 -1,-1 -1,0 m 0,1 0,1 1,0 0,-1 -1,0 m 0,6 0,14 1,0 m -1,-14 1,0 0,14 m -21,-14 0,14 1,0 m -1,-14 1,0 0,14 m 0,-10 3,-3 2,-1 3,0 2,1 1,3 0,10 m -11,-10 3,-2 2,-1 2,0 2,1 1,2 0,10 1,0 m -32,-14 0,14 1,0 m -1,-14 1,0 0,14 m 0,-10 3,-3 2,-1 3,0 2,1 1,3 0,10 m -11,-10 3,-2 2,-1 2,0 2,1 1,2 0,10 1,0 m -21,-14 0,14 1,0 m -1,-14 1,0 0,14 m -1,-11 -2,-2 -2,-1 -3,0 -2,1 -2,2 -1,3 0,2 1,3 2,2 2,1 3,0 2,-1 2,-2 m 0,-8 -4,-2 -3,0 -2,1 -1,1 -1,3 0,2 1,3 1,1 2,1 3,0 4,-2 m -20,-18 0,21 1,0 m -1,-21 1,0 0,21 m -27,-9 18,0 m -38,-12 0,21 1,0 m -1,-21 1,0 0,21 m 0,-11 2,-2 2,-1 3,0 2,1 2,2 1,3 0,2 -1,3 -2,2 -2,1 -3,0 -2,-1 -2,-2 m 0,-8 4,-2 3,0 2,1 1,1 1,3 0,2 -1,3 -1,1 -2,1 -3,0 -4,-2 m -10,-11 0,14 1,0 m -1,-14 1,0 0,14 m -1,-11 -2,-2 -2,-1 -3,0 -2,1 -2,2 -1,3 0,2 1,3 2,2 2,1 3,0 2,-1 2,-2 m 0,-8 -4,-2 -3,0 -2,1 -1,1 -1,3 0,2 1,3 1,1 2,1 3,0 4,-2 m -20,-18 0,21 1,0 m -1,-21 1,0 0,21 m -21,-21 0,21 1,0 m -1,-21 1,0 0,21 m 0,-11 2,-2 2,-1 3,0 2,1 2,2 1,3 0,2 -1,3 -2,2 -2,1 -3,0 -2,-1 -2,-2 m 0,-8 4,-2 3,0 2,1 1,1 1,3 0,2 -1,3 -1,1 -2,1 -3,0 -4,-2 m -10,-11 0,14 1,0 m -1,-14 1,0 0,14 m -1,-11 -2,-2 -2,-1 -3,0 -2,1 -2,2 -1,3 0,2 1,3 2,2 2,1 3,0 2,-1 2,-2 m 0,-8 -4,-2 -3,0 -2,1 -1,1 -1,3 0,2 1,3 1,1 2,1 3,0 4,-2 m -18,-18 -2,0 -2,1 -1,3 0,17 1,0 m 4,-21 0,1 -2,0 -2,1 m 1,-1 -1,3 0,17 m -4,-14 7,0 0,1 m -7,-1 0,1 7,0 m -13,-12 -18,32 1,0 m 17,-32 1,0 -18,32 m -6,-32 -18,32 1,0 m 17,-32 1,0 -18,32 m -9,-21 -1,1 0,1 1,1 1,0 1,-1 0,-1 -1,-1 -1,0 m 0,1 0,1 1,0 0,-1 -1,0 m 0,10 -1,1 0,1 1,1 1,0 1,-1 0,-1 -1,-1 -1,0 m 0,1 0,1 1,0 0,-1 -1,0 m -21,-12 0,21 1,0 m -1,-21 1,0 0,21 m 0,-18 2,-2 2,-1 3,0 2,1 2,2 1,3 0,2 -1,3 -2,2 -2,1 -3,0 -2,-1 -2,-2 m 0,-8 4,-2 3,0 2,1 1,1 1,3 0,2 -1,3 -1,1 -2,1 -3,0 -4,-2 m -11,-18 0,21 1,0 m -1,-21 1,0 0,21 m -4,-14 7,0 0,1 m -7,-1 0,1 7,0 m -15,-8 0,21 1,0 m -1,-21 1,0 0,21 m -4,-14 7,0 0,1 m -7,-1 0,1 7,0 m -25,-8 0,21 1,0 m -1,-21 1,0 0,21 m 0,-10 3,-3 2,-1 3,0 2,1 1,3 0,10 m -11,-10 3,-2 2,-1 2,0 2,1 1,2 0,10 1,0 m 350.795278,-77.616754 -27.958751,-48.429926 c 0.04833,1.31829 0.110476,2.62302 0.186939,3.91395 0.04833,1.10373 0.08669,2.27421 0.115334,3.51118 0.04833,1.21062 0.07237,2.28699 0.07237,3.22936 l 0,37.775436 -6.303135,0 0,-56.865696 8.231724,0 28.254835,48.753679 c -0.07697,-1.318289 -0.150369,-2.636834 -0.22044,-3.955379 -0.04833,-1.12956 -0.09769,-2.35374 -0.148323,-3.672541 -0.04833,-1.345396 -0.07237,-2.62328 -0.07237,-3.833907 l 0,-37.291852 6.377911,0 0,56.865696 -8.528934,0 z m -43.717714,-28.694972 c 0,4.439476 -0.593063,8.47541 -1.779166,12.107801 -1.162063,3.632391 -2.855788,6.740025 -5.081158,9.322644 -2.22462,2.582874 -4.94364,4.57399 -8.1571,5.973089 -3.21332,1.399356 -6.85942,2.099034 -10.93827,2.099034 -4.30181,0 -8.07171,-0.72653 -11.30964,-2.179589 -3.23862,-1.479399 -5.93337,-3.524217 -8.08427,-6.133944 -2.15026,-2.637345 -3.76928,-5.758532 -4.85711,-9.363816 -1.08803,-3.60554 -1.63204,-7.547365 -1.63204,-11.825219 0,-4.439224 0.56879,-8.448304 1.70636,-12.026734 1.1369,-3.57869 2.80559,-6.61906 5.00602,-9.12138 2.20002,-2.52943 4.90674,-4.46659 8.1202,-5.81173 3.23828,-1.37225 6.94637,-2.05837 11.12429,-2.05837 4.15287,0 7.83631,0.68612 11.0503,2.05837 3.23806,1.37251 5.94483,3.32322 8.12036,5.85188 2.19966,2.52942 3.868298,5.58335 5.005862,9.16178 1.1369,3.57844 1.705362,7.56041 1.705362,11.946184 z m -7.230514,0 c 0,-3.417064 -0.40781,-6.524444 -1.22347,-9.322384 -0.79115,-2.79871 -1.97791,-5.19337 -3.56032,-7.18423 -1.55712,-1.99137 -3.49752,-3.52499 -5.82121,-4.60135 -2.3237,-1.07586 -5.00582,-1.61366 -8.04637,-1.61366 -3.11482,0 -5.84651,0.5378 -8.19501,1.61366 -2.34793,1.07636 -4.31312,2.60998 -5.8955,4.60135 -1.55757,1.99086 -2.73189,4.38552 -3.52294,7.18423 -0.76642,2.79794 -1.14963,5.90532 -1.14963,9.322384 0,3.416811 0.39569,6.551296 1.18705,9.402943 0.81565,2.825818 2.00208,5.274435 3.55933,7.345849 1.58238,2.044819 3.53542,3.64569 5.85911,4.802869 2.34783,1.130071 5.04243,1.695235 8.08378,1.695235 3.26253,0 6.06812,-0.578462 8.41672,-1.735641 2.37343,-1.156667 4.31402,-2.757538 5.82172,-4.802101 1.53265,-2.072182 2.65742,-4.534096 3.37431,-7.385999 0.74162,-2.852159 1.11243,-5.960047 1.11243,-9.323155 z m -62.2579,28.694972 0,-56.865696 7.08207,0 0,56.865696 z m -21.76619,0 -27.9586,-48.429926 c 0.0483,1.31829 0.11048,2.62302 0.18694,3.91395 0.0483,1.10373 0.0867,2.27421 0.11534,3.51118 0.0483,1.21062 0.0724,2.28699 0.0724,3.22936 l 0,37.775436 -6.30378,0 0,-56.865696 8.23188,0 28.25517,48.753679 c -0.077,-1.318289 -0.15037,-2.636834 -0.22018,-3.955379 -0.0483,-1.12956 -0.0977,-2.35374 -0.14833,-3.672541 -0.0483,-1.345396 -0.0724,-2.62328 -0.0724,-3.833907 l 0,-37.291852 6.37794,0 0,56.865696 -8.52878,0 z m -54.87875,0 -27.95911,-48.429926 c 0.0483,1.31829 0.11073,2.62302 0.18694,3.91395 0.0483,1.10373 0.0867,2.27421 0.11534,3.51118 0.0483,1.21062 0.0724,2.28699 0.0724,3.22936 l 0,37.775436 -6.30411,0 0,-56.865696 8.23172,0 28.25566,48.753679 c -0.077,-1.318289 -0.15037,-2.636834 -0.22019,-3.955379 -0.0483,-1.12956 -0.0977,-2.35374 -0.14832,-3.672541 -0.0483,-1.345396 -0.0724,-2.62328 -0.0724,-3.833907 l 0,-37.291852 6.37742,0 0,56.865696 -8.52827,0 z m -47.57476,0 -5.96984,-16.627321 -23.80582,0 -6.00626,16.627321 -7.34271,0 21.32153,-56.865696 8.04653,0 20.98757,56.865696 z m -14.79468,-41.407576 c -0.39541,-1.07662 -0.77863,-2.16654 -1.14964,-3.26951 -0.34685,-1.10347 -0.65587,-2.09878 -0.92707,-2.98642 -0.27141,-0.915 -0.50627,-1.66838 -0.70464,-2.25988 -0.17236,-0.61913 -0.27307,-0.99582 -0.30184,-1.13008 -0.0483,0.13554 -0.16009,0.51146 -0.33526,1.13008 -0.17236,0.61861 -0.40733,1.38503 -0.70467,2.29978 -0.2715,0.91526 -0.59275,1.92437 -0.96379,3.02733 -0.34654,1.10322 -0.70502,2.19289 -1.0755,3.26926 l -6.67448,18.6862 19.54152,0 -6.71139,-18.76676 z m -64.51994,41.407576 0,-56.865696 7.08207,0 0,50.569619 26.40135,0 0,6.296077 z m 145.75738,-331.631146 -31.93277,0.0767 -61.25487,177.5238 27.63206,0 14.57373,-41.97581 65.65245,-0.15343 35.96577,106.30294 35.10114,0.0588 -85.73751,-241.81206 z m -18.06897,41.13087 23.69529,68.28303 -47.29468,0.11507 23.59939,-68.39759 z m 114.75053,-45.01209 0.13835,113.67641 53.881504,-0.0537 c 50.428457,-0.50302 44.597016,-53.09573 17.032678,-58.27835 24.821862,-11.74467 18.776426,-54.85157 -9.927522,-55.34053 z m 52.691003,19.06775 c 16.626068,0.0537 16.779301,28.34002 0,28.43822 l -30.397423,0 0,-28.41929 z m -30.301213,45.95062 33.81492,0 c 18.125976,0.9953 17.00795,28.49295 0,29.89742 l -33.93025,0 z m -293.82743,-114.56021 c -12.26668,0 -22.21827,9.95174 -22.21827,22.21835 l 0,386.072778 c 0,12.265843 9.95159,22.217327 22.21827,22.217327 l 386.888051,0 c 12.266354,0 22.21794,-9.951484 22.21794,-22.217327 l 0,-386.072778 c 0,-12.26661 -9.951586,-22.21835 -22.21794,-22.21835 z m 0,4.92638 386.888051,0 c 9.6220784,0 17.2909917,7.66961 17.2909917,17.29197 l 0,386.072778 c 0,9.621337 -7.6689133,17.291452 -17.2909917,17.291452 l -386.888051,0 c -9.62238,0 -17.29181,-7.670115 -17.29181,-17.291452 l 0,-386.072778 c 0,-9.62236 7.66943,-17.29197 17.29181,-17.29197 z m 271.97705,176.6134 0.13349,113.67693 53.880535,-0.0588 c 50.428943,-0.50328 44.597502,-53.09624 17.032678,-58.27886 24.822348,-11.74518 18.776912,-54.85183 -9.927547,-55.34053 z m 52.690008,19.0675 c 16.626553,0.0588 16.780272,28.34053 0,28.43822 l -30.396448,0 0,-28.41904 z m -30.300548,45.95037 33.815227,0 c 18.12549,0.99607 17.00846,28.49345 0,29.89792 l -33.930227,0 z m -267.51867,-195.4799 76.3143,0.10997 0.0575,19.47692 -54.15007,-0.10996 -0.0575,29.24197 45.20793,0.0588 0,17.88526 -45.15289,0 0,47.07276 -22.21927,0 z m -0.0575,130.51932 21.94627,0 0,94.14604 58.15489,0 0,19.3667 -80.04562,0 z"
         inkscape:connector-curvature="0" />
    </g>
  </g>
</svg>
