<?xml version="1.0" encoding="UTF-8" standalone="no"?>
<!-- Created with Inkscape (http://www.inkscape.org/) -->

<svg
   xmlns:dc="http://purl.org/dc/elements/1.1/"
   xmlns:cc="http://creativecommons.org/ns#"
   xmlns:rdf="http://www.w3.org/1999/02/22-rdf-syntax-ns#"
   xmlns:svg="http://www.w3.org/2000/svg"
   xmlns="http://www.w3.org/2000/svg"
   xmlns:xlink="http://www.w3.org/1999/xlink"
   xmlns:sodipodi="http://sodipodi.sourceforge.net/DTD/sodipodi-0.dtd"
   xmlns:inkscape="http://www.inkscape.org/namespaces/inkscape"
   width="1280mm"
   height="880mm"
   viewBox="0 0 4535.4331 3118.1103"
   id="svg4240"
   version="1.1"
   inkscape:version="0.91 r13725"
   sodipodi:docname="socle.svg">
  <title
     id="title4788">Découpage Laser</title>
  <defs
     id="defs4242">
    <clipPath
       id="clip2">
      <path
         inkscape:connector-curvature="0"
         d="M 91.128906,30.839844 119,30.839844 119,54 91.128906,54 Z m 0,0"
         id="path33" />
    </clipPath>
    <clipPath
       id="clip1">
      <path
         inkscape:connector-curvature="0"
         d="m 141,58 68,0 0,11.046875 -68,0 z m 0,0"
         id="path30" />
    </clipPath>
  </defs>
  <sodipodi:namedview
     id="base"
     pagecolor="#ffffff"
     bordercolor="#666666"
     borderopacity="1.0"
     inkscape:pageopacity="0.0"
     inkscape:pageshadow="2"
     inkscape:zoom="0.63099481"
     inkscape:cx="3882.913"
     inkscape:cy="2537.5685"
     inkscape:document-units="mm"
     inkscape:current-layer="layer1"
     showgrid="false"
     inkscape:window-width="1920"
     inkscape:window-height="995"
     inkscape:window-x="1280"
     inkscape:window-y="0"
     inkscape:window-maximized="1"
     inkscape:snap-nodes="true"
     inkscape:object-paths="true"
     inkscape:snap-intersection-paths="true"
     inkscape:object-nodes="true"
     inkscape:snap-smooth-nodes="true"
     inkscape:snap-midpoints="true"
     showguides="true"
     inkscape:guide-bbox="true" />
  <metadata
     id="metadata4245">
    <rdf:RDF>
      <cc:Work
         rdf:about="">
        <dc:format>image/svg+xml</dc:format>
        <dc:type
           rdf:resource="http://purl.org/dc/dcmitype/StillImage" />
        <dc:title>Découpage Laser</dc:title>
        <dc:creator>
          <cc:Agent>
            <dc:title />
          </cc:Agent>
        </dc:creator>
        <dc:publisher>
          <cc:Agent>
            <dc:title>Fablab Lannion</dc:title>
          </cc:Agent>
        </dc:publisher>
        <dc:source>http://fablab-lannion.org:8080/wiki/index.php?title=Chaine_logiciel_pour_d%C3%A9coupeuse_laser#Inkscape</dc:source>
        <dc:contributor>
          <cc:Agent>
            <dc:title>JJL</dc:title>
          </cc:Agent>
        </dc:contributor>
        <cc:license
           rdf:resource="http://creativecommons.org/licenses/by-sa/3.0/" />
      </cc:Work>
      <cc:License
         rdf:about="http://creativecommons.org/licenses/by-sa/3.0/">
        <cc:permits
           rdf:resource="http://creativecommons.org/ns#Reproduction" />
        <cc:permits
           rdf:resource="http://creativecommons.org/ns#Distribution" />
        <cc:requires
           rdf:resource="http://creativecommons.org/ns#Notice" />
        <cc:requires
           rdf:resource="http://creativecommons.org/ns#Attribution" />
        <cc:permits
           rdf:resource="http://creativecommons.org/ns#DerivativeWorks" />
        <cc:requires
           rdf:resource="http://creativecommons.org/ns#ShareAlike" />
      </cc:License>
    </rdf:RDF>
  </metadata>
  <g
     inkscape:label="Calque 1"
     inkscape:groupmode="layer"
     id="layer1"
     transform="translate(0,2065.7481)">
    <path
       style="fill:none;stroke:#ff0000"
       id="box_bottom"
       d="m 3770.066,-1996.4066 71.0433,0 0,10.6299 70.5118,0 0,-10.6299 71.2205,0 0,10.6299 70.5118,0 0,-10.6299 71.0433,0 0,71.0433 -10.6299,0 0,70.5118 10.6299,0 0,71.2205 -10.6299,0 0,70.5118 10.6299,0 0,71.0433 -71.0433,0 0,-10.6299 -70.5118,0 0,10.6299 -71.2205,0 0,-10.6299 -70.5118,0 0,10.6299 -71.0433,0 0,-71.0433 10.6299,0 0,-70.5118 -10.6299,0 0,-71.2205 10.6299,0 0,-70.5118 -10.6299,0 0,-71.0433 z"
       inkscape:connector-curvature="0" />
    <path
       style="fill:none;stroke:#ff0000;stroke-width:0.9992126;stroke-miterlimit:4;stroke-dasharray:none"
       id="box_top"
       d="m 4135.0266,-1996.4066 71.0433,0 0,10.6299 70.5118,0 0,-10.6299 71.2205,0 0,10.6299 70.5118,0 0,-10.6299 71.0433,0 0,71.0433 -10.6299,0 0,70.5118 10.6299,0 0,71.2205 -10.6299,0 0,70.5118 10.6299,0 0,71.0433 -71.0433,0 0,-10.6299 -70.5118,0 0,10.6299 -71.2205,0 0,-10.6299 -70.5118,0 0,10.6299 -71.0433,0 0,-71.0433 10.6299,0 0,-70.5118 -10.6299,0 0,-71.2205 10.6299,0 0,-70.5118 -10.6299,0 0,-71.0433 z"
       inkscape:connector-curvature="0" />
    <path
       style="fill:none;stroke:#ff0000"
       id="box_font"
       d="m 4135.0266,-1620.816 70.689,0 0,-10.63 71.2205,0 0,10.63 70.5118,0 0,-10.63 71.2204,0 0,10.63 70.689,0 0,197.8937 -70.689,0 0,10.6299 -71.2204,0 0,-10.6299 -70.5118,0 0,10.6299 -71.2205,0 0,-10.6299 -70.689,0 0,-197.8937 z"
       inkscape:connector-curvature="0" />
    <path
       style="fill:none;stroke:#ff0000"
       id="box_back"
       d="m 3770.066,-1620.816 70.689,0 0,-10.63 71.2204,0 0,10.63 70.5118,0 0,-10.63 71.2205,0 0,10.63 70.689,0 0,197.8937 -70.689,0 0,10.6299 -71.2205,0 0,-10.6299 -70.5118,0 0,10.6299 -71.2204,0 0,-10.6299 -70.689,0 0,-197.8937 z"
       inkscape:connector-curvature="0" />
    <path
       style="fill:none;stroke:#ff0000"
       id="box_left_side"
       d="m 4145.6565,-1391.2097 60.0591,0 0,-10.63 71.2205,0 0,10.63 70.5118,0 0,-10.63 71.2204,0 0,10.63 60.0591,0 0,197.5393 -60.0591,0 0,10.6299 -71.2204,0 0,-10.6299 -70.5118,0 0,10.6299 -71.2205,0 0,-10.6299 -60.0591,0 0,-197.5393 z"
       inkscape:connector-curvature="0" />
    <path
       style="fill:none;stroke:#ff0000"
       id="box_right_side"
       d="m 3780.6959,-1391.2097 60.0591,0 0,-10.63 71.2204,0 0,10.63 70.5118,0 0,-10.63 71.2205,0 0,10.63 60.0591,0 0,197.5393 -60.0591,0 0,10.6299 -71.2205,0 0,-10.6299 -70.5118,0 0,10.6299 -71.2204,0 0,-10.6299 -60.0591,0 0,-197.5393 z"
       inkscape:connector-curvature="0" />
    <path
       style="opacity:1;fill:none;fill-opacity:1;fill-rule:nonzero;stroke:#ff0000;stroke-width:0.99921262;stroke-linecap:round;stroke-linejoin:round;stroke-miterlimit:4;stroke-dasharray:none;stroke-dashoffset:0;stroke-opacity:1"
       id="path5296"
       sodipodi:type="arc"
       sodipodi:cx="4312.1919"
       sodipodi:cy="-1819.2412"
       sodipodi:rx="22.221348"
       sodipodi:ry="22.221376"
       sodipodi:start="0"
       sodipodi:end="6.2735685"
       sodipodi:open="true"
       d="m 4334.4132,-1819.2412 a 22.221348,22.221376 0 0 1 -22.1679,22.2213 22.221348,22.221376 0 0 1 -22.2745,-22.1145 22.221348,22.221376 0 0 1 22.0608,-22.3276 22.221348,22.221376 0 0 1 22.3806,22.0071" />
    <rect
       style="opacity:1;fill:none;fill-opacity:1;fill-rule:nonzero;stroke:#ff0000;stroke-width:0.38092139;stroke-linecap:round;stroke-linejoin:round;stroke-miterlimit:4;stroke-dasharray:none;stroke-dashoffset:0;stroke-opacity:1"
       id="rect5318"
       width="11.666323"
       height="88.201752"
       x="4218.167"
       y="-1863.3479" />
    <rect
       y="-1863.3479"
       x="4394.5513"
       height="88.201752"
       width="11.666323"
       id="rect5322"
       style="opacity:1;fill:none;fill-opacity:1;fill-rule:nonzero;stroke:#ff0000;stroke-width:0.38092139;stroke-linecap:round;stroke-linejoin:round;stroke-miterlimit:4;stroke-dasharray:none;stroke-dashoffset:0;stroke-opacity:1" />
    <rect
       style="opacity:1;fill:none;fill-opacity:1;fill-rule:nonzero;stroke:#ff0000;stroke-width:0.40213791;stroke-linecap:round;stroke-linejoin:round;stroke-miterlimit:4;stroke-dasharray:none;stroke-dashoffset:0;stroke-opacity:1"
       id="rect5347"
       width="27.944317"
       height="27.944319"
       x="4418.6963"
       y="-1953.3314" />
    <rect
       y="-1953.3076"
       x="4178.1255"
       height="27.944321"
       width="27.944319"
       id="rect5357"
       style="opacity:1;fill:none;fill-opacity:1;fill-rule:nonzero;stroke:#ff0000;stroke-width:0.40213794;stroke-linecap:round;stroke-linejoin:round;stroke-miterlimit:4;stroke-dasharray:none;stroke-dashoffset:0;stroke-opacity:1" />
    <rect
       style="opacity:1;fill:none;fill-opacity:1;fill-rule:nonzero;stroke:#ff0000;stroke-width:0.40213791;stroke-linecap:round;stroke-linejoin:round;stroke-miterlimit:4;stroke-dasharray:none;stroke-dashoffset:0;stroke-opacity:1"
       id="rect5359"
       width="27.944317"
       height="27.944319"
       x="4178.1255"
       y="-1713.1193" />
    <rect
       y="-1713.1193"
       x="4418.314"
       height="27.944321"
       width="27.944319"
       id="rect5361"
       style="opacity:1;fill:none;fill-opacity:1;fill-rule:nonzero;stroke:#ff0000;stroke-width:0.40213794;stroke-linecap:round;stroke-linejoin:round;stroke-miterlimit:4;stroke-dasharray:none;stroke-dashoffset:0;stroke-opacity:1" />
    <g
       style="display:inline;stroke:#000000;stroke-width:3.16217136;stroke-miterlimit:4;stroke-dasharray:none"
       id="g6027"
       transform="matrix(0.31598939,0,0,0.31598939,3879.4516,-1223.2904)"
       inkscape:label="Hershey Text">
      <path
         id="path6077"
         transform="translate(419,0)"
         style="fill:none;stroke:#000000;stroke-width:3.16217136;stroke-miterlimit:4;stroke-dasharray:none"
         d="m 6,-5 -1,0 0,15 -1,3 -1,1 -2,1 -2,0 -2,-1 -1,-1 -2,0 M 6,-5 6,10 5,13 3,15 1,16 -2,16 -4,15 -6,13 M 5,-2 3,-4 1,-5 l -3,0 -2,1 -2,2 -1,3 0,2 1,3 2,2 2,1 3,0 2,-1 2,-2 m 0,-8 -4,-2 -3,0 -2,1 -1,1 -1,3 0,2 1,3 1,1 2,1 3,0 4,-2 m -25,-11 0,14 1,0 m -1,-14 1,0 0,14 m 0,-8 1,-3 2,-2 2,-1 3,0 m -8,6 1,-2 2,-2 2,-1 3,0 0,-1 m -24,0 -2,1 -2,2 -1,3 0,2 1,3 2,2 2,1 3,0 2,-1 2,-2 1,-3 0,-2 -1,-3 -2,-2 -2,-1 -3,0 m 0,1 -2,1 -1,1 -1,3 0,2 1,3 1,1 2,1 3,0 2,-1 1,-1 1,-3 0,-2 -1,-3 -1,-1 -2,-1 -3,0 m -14,10 -1,1 0,1 1,1 1,0 1,-1 0,-1 -1,-1 -1,0 m 0,1 0,1 1,0 0,-1 -1,0 m -21,-12 0,14 1,0 m -1,-14 1,0 0,14 m 0,-10 3,-3 2,-1 3,0 2,1 1,3 0,10 m -11,-10 3,-2 2,-1 2,0 2,1 1,2 0,10 1,0 m -27,-14 -2,1 -2,2 -1,3 0,2 1,3 2,2 2,1 3,0 2,-1 2,-2 1,-3 0,-2 -1,-3 -2,-2 -2,-1 -3,0 m 0,1 -2,1 -1,1 -1,3 0,2 1,3 1,1 2,1 3,0 2,-1 1,-1 1,-3 0,-2 -1,-3 -1,-1 -2,-1 -3,0 m -13,-8 -1,1 0,1 1,1 1,0 1,-1 0,-1 -1,-1 -1,0 m 0,1 0,1 1,0 0,-1 -1,0 m 0,6 0,14 1,0 m -1,-14 1,0 0,14 m -21,-14 0,14 1,0 m -1,-14 1,0 0,14 m 0,-10 3,-3 2,-1 3,0 2,1 1,3 0,10 m -11,-10 3,-2 2,-1 2,0 2,1 1,2 0,10 1,0 m -32,-14 0,14 1,0 m -1,-14 1,0 0,14 m 0,-10 3,-3 2,-1 3,0 2,1 1,3 0,10 m -11,-10 3,-2 2,-1 2,0 2,1 1,2 0,10 1,0 m -21,-14 0,14 1,0 m -1,-14 1,0 0,14 m -1,-11 -2,-2 -2,-1 -3,0 -2,1 -2,2 -1,3 0,2 1,3 2,2 2,1 3,0 2,-1 2,-2 m 0,-8 -4,-2 -3,0 -2,1 -1,1 -1,3 0,2 1,3 1,1 2,1 3,0 4,-2 m -20,-18 0,21 1,0 m -1,-21 1,0 0,21 m -27,-9 18,0 m -38,-12 0,21 1,0 m -1,-21 1,0 0,21 m 0,-11 2,-2 2,-1 3,0 2,1 2,2 1,3 0,2 -1,3 -2,2 -2,1 -3,0 -2,-1 -2,-2 m 0,-8 4,-2 3,0 2,1 1,1 1,3 0,2 -1,3 -1,1 -2,1 -3,0 -4,-2 m -10,-11 0,14 1,0 m -1,-14 1,0 0,14 m -1,-11 -2,-2 -2,-1 -3,0 -2,1 -2,2 -1,3 0,2 1,3 2,2 2,1 3,0 2,-1 2,-2 m 0,-8 -4,-2 -3,0 -2,1 -1,1 -1,3 0,2 1,3 1,1 2,1 3,0 4,-2 m -20,-18 0,21 1,0 m -1,-21 1,0 0,21 m -21,-21 0,21 1,0 m -1,-21 1,0 0,21 m 0,-11 2,-2 2,-1 3,0 2,1 2,2 1,3 0,2 -1,3 -2,2 -2,1 -3,0 -2,-1 -2,-2 m 0,-8 4,-2 3,0 2,1 1,1 1,3 0,2 -1,3 -1,1 -2,1 -3,0 -4,-2 m -10,-11 0,14 1,0 m -1,-14 1,0 0,14 m -1,-11 -2,-2 -2,-1 -3,0 -2,1 -2,2 -1,3 0,2 1,3 2,2 2,1 3,0 2,-1 2,-2 m 0,-8 -4,-2 -3,0 -2,1 -1,1 -1,3 0,2 1,3 1,1 2,1 3,0 4,-2 m -18,-18 -2,0 -2,1 -1,3 0,17 1,0 m 4,-21 0,1 -2,0 -2,1 m 1,-1 -1,3 0,17 m -4,-14 7,0 0,1 m -7,-1 0,1 7,0 m -13,-12 -18,32 1,0 m 17,-32 1,0 -18,32 m -6,-32 -18,32 1,0 m 17,-32 1,0 -18,32 m -9,-21 -1,1 0,1 1,1 1,0 1,-1 0,-1 -1,-1 -1,0 m 0,1 0,1 1,0 0,-1 -1,0 m 0,10 -1,1 0,1 1,1 1,0 1,-1 0,-1 -1,-1 -1,0 m 0,1 0,1 1,0 0,-1 -1,0 m -21,-12 0,21 1,0 m -1,-21 1,0 0,21 m 0,-18 2,-2 2,-1 3,0 2,1 2,2 1,3 0,2 -1,3 -2,2 -2,1 -3,0 -2,-1 -2,-2 m 0,-8 4,-2 3,0 2,1 1,1 1,3 0,2 -1,3 -1,1 -2,1 -3,0 -4,-2 m -11,-18 0,21 1,0 m -1,-21 1,0 0,21 m -4,-14 7,0 0,1 m -7,-1 0,1 7,0 m -15,-8 0,21 1,0 m -1,-21 1,0 0,21 m -4,-14 7,0 0,1 m -7,-1 0,1 7,0 m -25,-8 0,21 1,0 m -1,-21 1,0 0,21 m 0,-10 3,-3 2,-1 3,0 2,1 1,3 0,10 m -11,-10 3,-2 2,-1 2,0 2,1 1,2 0,10 1,0 m 350.795278,-77.616754 -27.958751,-48.429926 c 0.04833,1.31829 0.110476,2.62302 0.186939,3.91395 0.04833,1.10373 0.08669,2.27421 0.115334,3.51118 0.04833,1.21062 0.07237,2.28699 0.07237,3.22936 l 0,37.775436 -6.303135,0 0,-56.865696 8.231724,0 28.254835,48.753679 c -0.07697,-1.318289 -0.150369,-2.636834 -0.22044,-3.955379 -0.04833,-1.12956 -0.09769,-2.35374 -0.148323,-3.672541 -0.04833,-1.345396 -0.07237,-2.62328 -0.07237,-3.833907 l 0,-37.291852 6.377911,0 0,56.865696 -8.528934,0 z m -43.717714,-28.694972 c 0,4.439476 -0.593063,8.47541 -1.779166,12.107801 -1.162063,3.632391 -2.855788,6.740025 -5.081158,9.322644 -2.22462,2.582874 -4.94364,4.57399 -8.1571,5.973089 -3.21332,1.399356 -6.85942,2.099034 -10.93827,2.099034 -4.30181,0 -8.07171,-0.72653 -11.30964,-2.179589 -3.23862,-1.479399 -5.93337,-3.524217 -8.08427,-6.133944 -2.15026,-2.637345 -3.76928,-5.758532 -4.85711,-9.363816 -1.08803,-3.60554 -1.63204,-7.547365 -1.63204,-11.825219 0,-4.439224 0.56879,-8.448304 1.70636,-12.026734 1.1369,-3.57869 2.80559,-6.61906 5.00602,-9.12138 2.20002,-2.52943 4.90674,-4.46659 8.1202,-5.81173 3.23828,-1.37225 6.94637,-2.05837 11.12429,-2.05837 4.15287,0 7.83631,0.68612 11.0503,2.05837 3.23806,1.37251 5.94483,3.32322 8.12036,5.85188 2.19966,2.52942 3.868298,5.58335 5.005862,9.16178 1.1369,3.57844 1.705362,7.56041 1.705362,11.946184 z m -7.230514,0 c 0,-3.417064 -0.40781,-6.524444 -1.22347,-9.322384 -0.79115,-2.79871 -1.97791,-5.19337 -3.56032,-7.18423 -1.55712,-1.99137 -3.49752,-3.52499 -5.82121,-4.60135 -2.3237,-1.07586 -5.00582,-1.61366 -8.04637,-1.61366 -3.11482,0 -5.84651,0.5378 -8.19501,1.61366 -2.34793,1.07636 -4.31312,2.60998 -5.8955,4.60135 -1.55757,1.99086 -2.73189,4.38552 -3.52294,7.18423 -0.76642,2.79794 -1.14963,5.90532 -1.14963,9.322384 0,3.416811 0.39569,6.551296 1.18705,9.402943 0.81565,2.825818 2.00208,5.274435 3.55933,7.345849 1.58238,2.044819 3.53542,3.64569 5.85911,4.802869 2.34783,1.130071 5.04243,1.695235 8.08378,1.695235 3.26253,0 6.06812,-0.578462 8.41672,-1.735641 2.37343,-1.156667 4.31402,-2.757538 5.82172,-4.802101 1.53265,-2.072182 2.65742,-4.534096 3.37431,-7.385999 0.74162,-2.852159 1.11243,-5.960047 1.11243,-9.323155 z m -62.2579,28.694972 0,-56.865696 7.08207,0 0,56.865696 z m -21.76619,0 -27.9586,-48.429926 c 0.0483,1.31829 0.11048,2.62302 0.18694,3.91395 0.0483,1.10373 0.0867,2.27421 0.11534,3.51118 0.0483,1.21062 0.0724,2.28699 0.0724,3.22936 l 0,37.775436 -6.30378,0 0,-56.865696 8.23188,0 28.25517,48.753679 c -0.077,-1.318289 -0.15037,-2.636834 -0.22018,-3.955379 -0.0483,-1.12956 -0.0977,-2.35374 -0.14833,-3.672541 -0.0483,-1.345396 -0.0724,-2.62328 -0.0724,-3.833907 l 0,-37.291852 6.37794,0 0,56.865696 -8.52878,0 z m -54.87875,0 -27.95911,-48.429926 c 0.0483,1.31829 0.11073,2.62302 0.18694,3.91395 0.0483,1.10373 0.0867,2.27421 0.11534,3.51118 0.0483,1.21062 0.0724,2.28699 0.0724,3.22936 l 0,37.775436 -6.30411,0 0,-56.865696 8.23172,0 28.25566,48.753679 c -0.077,-1.318289 -0.15037,-2.636834 -0.22019,-3.955379 -0.0483,-1.12956 -0.0977,-2.35374 -0.14832,-3.672541 -0.0483,-1.345396 -0.0724,-2.62328 -0.0724,-3.833907 l 0,-37.291852 6.37742,0 0,56.865696 -8.52827,0 z m -47.57476,0 -5.96984,-16.627321 -23.80582,0 -6.00626,16.627321 -7.34271,0 21.32153,-56.865696 8.04653,0 20.98757,56.865696 z m -14.79468,-41.407576 c -0.39541,-1.07662 -0.77863,-2.16654 -1.14964,-3.26951 -0.34685,-1.10347 -0.65587,-2.09878 -0.92707,-2.98642 -0.27141,-0.915 -0.50627,-1.66838 -0.70464,-2.25988 -0.17236,-0.61913 -0.27307,-0.99582 -0.30184,-1.13008 -0.0483,0.13554 -0.16009,0.51146 -0.33526,1.13008 -0.17236,0.61861 -0.40733,1.38503 -0.70467,2.29978 -0.2715,0.91526 -0.59275,1.92437 -0.96379,3.02733 -0.34654,1.10322 -0.70502,2.19289 -1.0755,3.26926 l -6.67448,18.6862 19.54152,0 -6.71139,-18.76676 z m -64.51994,41.407576 0,-56.865696 7.08207,0 0,50.569619 26.40135,0 0,6.296077 z m 145.75738,-331.631146 -31.93277,0.0767 -61.25487,177.5238 27.63206,0 14.57373,-41.97581 65.65245,-0.15343 35.96577,106.30294 35.10114,0.0588 -85.73751,-241.81206 z m -18.06897,41.13087 23.69529,68.28303 -47.29468,0.11507 23.59939,-68.39759 z m 114.75053,-45.01209 0.13835,113.67641 53.881504,-0.0537 c 50.428457,-0.50302 44.597016,-53.09573 17.032678,-58.27835 24.821862,-11.74467 18.776426,-54.85157 -9.927522,-55.34053 z m 52.691003,19.06775 c 16.626068,0.0537 16.779301,28.34002 0,28.43822 l -30.397423,0 0,-28.41929 z m -30.301213,45.95062 33.81492,0 c 18.125976,0.9953 17.00795,28.49295 0,29.89742 l -33.93025,0 z m -293.82743,-114.56021 c -12.26668,0 -22.21827,9.95174 -22.21827,22.21835 l 0,386.072778 c 0,12.265843 9.95159,22.217327 22.21827,22.217327 l 386.888051,0 c 12.266354,0 22.21794,-9.951484 22.21794,-22.217327 l 0,-386.072778 c 0,-12.26661 -9.951586,-22.21835 -22.21794,-22.21835 z m 0,4.92638 386.888051,0 c 9.6220784,0 17.2909917,7.66961 17.2909917,17.29197 l 0,386.072778 c 0,9.621337 -7.6689133,17.291452 -17.2909917,17.291452 l -386.888051,0 c -9.62238,0 -17.29181,-7.670115 -17.29181,-17.291452 l 0,-386.072778 c 0,-9.62236 7.66943,-17.29197 17.29181,-17.29197 z m 271.97705,176.6134 0.13349,113.67693 53.880535,-0.0588 c 50.428943,-0.50328 44.597502,-53.09624 17.032678,-58.27886 24.822348,-11.74518 18.776912,-54.85183 -9.927547,-55.34053 z m 52.690008,19.0675 c 16.626553,0.0588 16.780272,28.34053 0,28.43822 l -30.396448,0 0,-28.41904 z m -30.300548,45.95037 33.815227,0 c 18.12549,0.99607 17.00846,28.49345 0,29.89792 l -33.930227,0 z m -267.51867,-195.4799 76.3143,0.10997 0.0575,19.47692 -54.15007,-0.10996 -0.0575,29.24197 45.20793,0.0588 0,17.88526 -45.15289,0 0,47.07276 -22.21927,0 z m -0.0575,130.51932 21.94627,0 0,94.14604 58.15489,0 0,19.3667 -80.04562,0 z"
         inkscape:connector-curvature="0" />
    </g>
    <g
       transform="matrix(1.25,0,0,1.25,4102.3027,-1027.187)"
       style="fill:#cc0533;fill-opacity:1"
       id="g36">
      <use
         height="100%"
         width="100%"
         xlink:href="#glyph0-1"
         x="121.4932"
         y="54.060699"
         id="use38" />
      <use
         height="100%"
         width="100%"
         xlink:href="#glyph0-2"
         x="130.64117"
         y="54.060699"
         id="use40" />
    </g>
    <g
       transform="matrix(1.25,0,0,1.25,4102.3027,-1027.187)"
       style="fill:#cc0533;fill-opacity:1"
       id="g42">
      <use
         height="100%"
         width="100%"
         xlink:href="#glyph0-3"
         x="136.99683"
         y="54.060699"
         id="use44" />
    </g>
    <g
       transform="matrix(1.25,0,0,1.25,4102.3027,-1027.187)"
       style="fill:#cc0533;fill-opacity:1"
       id="g46">
      <use
         height="100%"
         width="100%"
         xlink:href="#glyph0-4"
         x="142.66481"
         y="54.060699"
         id="use48" />
      <use
         height="100%"
         width="100%"
         xlink:href="#glyph0-5"
         x="151.4377"
         y="54.060699"
         id="use50" />
    </g>
    <g
       transform="matrix(1.25,0,0,1.25,4102.3027,-1027.187)"
       style="fill:#cc0533;fill-opacity:1"
       id="g52">
      <use
         height="100%"
         width="100%"
         xlink:href="#glyph0-3"
         x="160.56482"
         y="54.060699"
         id="use54" />
    </g>
    <g
       transform="matrix(1.25,0,0,1.25,4102.3027,-1027.187)"
       style="fill:#cc0533;fill-opacity:1"
       id="g56">
      <use
         height="100%"
         width="100%"
         xlink:href="#glyph0-4"
         x="166.25365"
         y="54.060699"
         id="use58" />
      <use
         height="100%"
         width="100%"
         xlink:href="#glyph0-1"
         x="175.02654"
         y="54.060699"
         id="use60" />
      <use
         height="100%"
         width="100%"
         xlink:href="#glyph0-6"
         x="184.1745"
         y="54.060699"
         id="use62" />
    </g>
    <g
       transform="matrix(1.25,0,0,1.25,4102.3027,-1027.187)"
       style="fill:#cc0533;fill-opacity:1"
       id="g64">
      <use
         height="100%"
         width="100%"
         xlink:href="#glyph0-3"
         x="193.30164"
         y="54.060699"
         id="use66" />
    </g>
    <g
       transform="matrix(1.25,0,0,1.25,4102.3027,-1027.187)"
       style="fill:#cc0533;fill-opacity:1"
       id="g68">
      <use
         height="100%"
         width="100%"
         xlink:href="#glyph0-4"
         x="198.99046"
         y="54.060699"
         id="use70" />
    </g>
    <path
       inkscape:connector-curvature="0"
       id="path7331"
       d="m 4362.9308,-1241.8192 c -0.5044,-0.2573 -1.1664,-0.8076 -1.471,-1.2231 -0.5353,-0.7297 -0.5541,-1.0701 -0.5541,-10.0797 l 0,-9.3245 0.7671,-0.8004 c 1.1288,-1.1781 2.011,-1.4444 4.4217,-1.335 1.6392,0.075 2.3046,0.2259 2.8844,0.6564 1.3972,1.0374 1.4141,1.1673 1.4183,10.886 0.01,10.2452 0,10.2832 -1.953,11.1689 -1.4715,0.6681 -4.253,0.694 -5.5134,0.052 z m 4.7283,-2.6059 c 0.5946,-0.6913 0.6023,-0.7979 0.6023,-8.4294 0,-5.095 -0.1012,-7.9515 -0.297,-8.3811 -0.5867,-1.2876 -2.8376,-1.6689 -4.0803,-0.6914 l -0.7048,0.5544 0,8.1562 c 0,5.2596 0.1012,8.3453 0.285,8.6887 0.6651,1.2428 3.1615,1.304 4.1948,0.1026 z m 68.3963,2.5882 c -2.0312,-0.9539 -1.9953,-0.7547 -1.9909,-11.0728 0,-9.8593 0.019,-9.9768 1.4194,-11.017 1.1193,-0.8316 5.0342,-0.9476 6.252,-0.1852 1.1388,0.7129 1.679,1.5922 1.7563,2.8588 0.063,1.0414 0.06,1.0456 -1.0142,1.1247 -1.0127,0.075 -1.0936,0.027 -1.3374,-0.7986 -0.3323,-1.1246 -1.2608,-1.6099 -2.7899,-1.4582 -2.1658,0.2148 -2.1504,0.1492 -2.1504,9.144 0,4.3139 0.1129,8.1405 0.251,8.5034 0.5327,1.4012 3.8367,1.5356 4.5592,0.1855 0.1496,-0.2793 0.2719,-1.8853 0.2719,-3.5688 0,-3.4978 -0.1985,-3.9241 -1.5992,-3.4358 l -0.8081,0.2817 0,-1.2805 c 0,-1.1126 0.089,-1.3212 0.6813,-1.591 0.8545,-0.3893 2.1306,-0.399 2.8362,-0.021 0.9947,0.5324 1.2972,1.8522 1.2956,5.6537 0,4.3027 -0.2425,5.3097 -1.4985,6.2676 -1.2784,0.9751 -4.4756,1.1887 -6.1343,0.4099 z m 12.5335,-0.034 c -1.9508,-0.8857 -1.9575,-0.9238 -1.9531,-11.169 0,-9.7197 0.021,-9.8481 1.4195,-10.8872 1.1194,-0.8316 5.0343,-0.9476 6.252,-0.1852 1.8448,1.1549 1.8201,1.0031 1.8201,11.1614 0,8.8366 -0.02,9.1794 -0.554,9.9084 -0.3047,0.4154 -0.9667,0.9656 -1.4712,1.2229 -1.2603,0.6426 -4.0418,0.6168 -5.5133,-0.052 z m 3.8933,-1.9156 c 0.4663,-0.1627 0.9657,-0.5158 1.1098,-0.7849 0.154,-0.2879 0.2618,-3.7867 0.2618,-8.5014 0,-7.4903 -0.033,-8.0534 -0.5113,-8.6438 -0.4263,-0.5264 -0.7584,-0.6314 -1.9965,-0.6314 -2.5109,0 -2.4273,-0.286 -2.522,8.6353 -0.044,4.2244 -0.01,8.0808 0.083,8.5696 0.1233,0.6677 0.3765,0.9812 1.0177,1.26 1.052,0.4576 1.4764,0.4736 2.5579,0.097 z m -163.9288,-8.2276 c 0,-10.2588 0.01,-10.4052 0.5799,-11.1327 0.8146,-1.0357 2.0536,-1.4748 4.1593,-1.4744 2.0656,0 3.3373,0.5121 4.2022,1.6906 0.5339,0.7272 0.5571,1.1277 0.6381,11.0334 l 0.084,10.2786 -1.2208,0 -1.2209,0 0,-5.2157 c 0,-2.8688 -0.088,-5.2158 -0.195,-5.2158 -0.1072,0 -1.0399,0.3141 -2.0728,0.698 -2.8133,1.0459 -2.8142,1.0479 -2.8142,5.751 l 0,3.9825 -1.0699,0 -1.0699,0 0,-10.3955 z m 4.2721,-1.6192 c 2.7928,-1.0882 2.9498,-1.34 2.9498,-4.7322 0,-2.4103 -0.07,-2.8489 -0.5282,-3.307 -0.6759,-0.6759 -1.6388,-0.9138 -2.8094,-0.6943 -1.5761,0.2957 -1.7445,0.8196 -1.7445,5.4278 0,2.2475 0.03,4.086 0.067,4.0855 0.037,0 0.9662,-0.3515 2.0654,-0.7798 z m 15.1953,11.4116 c -0.4,-0.3303 -0.8514,-0.9394 -1.003,-1.3536 -0.1714,-0.4673 -0.276,-4.5509 -0.276,-10.7659 l 0,-10.0129 1.0699,0 1.0699,0 0,9.3443 c 0,9.1623 0.1113,10.5486 0.886,11.0412 0.1748,0.1112 1.4311,0.2039 2.7918,0.2061 l 2.4742,0 0,1.0699 0,1.0699 -3.1429,0 c -2.8619,0 -3.2078,-0.055 -3.8699,-0.6019 z m 10.0128,-9.8072 0.076,-10.4103 0.6687,-0.7244 c 0.964,-1.0444 2.145,-1.458 4.1637,-1.458 2.1148,0 3.4468,0.55 4.1586,1.7172 0.4684,0.768 0.5025,1.5168 0.5034,11.0549 l 0,10.2309 -1.2037,0 -1.2036,0 0,-5.2444 c 0,-4.8887 -0.032,-5.2315 -0.4681,-5.0546 -0.2574,0.1045 -1.1217,0.4192 -1.9205,0.6995 -2.4571,0.8622 -2.4259,0.7917 -2.4259,5.4951 l 0,4.1044 -1.2127,0 -1.2127,0 0.076,-10.4103 z m 6.0942,-2.3781 0.9361,-0.4516 0.075,-3.2281 c 0.068,-2.936 0.027,-3.2716 -0.4571,-3.7094 -0.8538,-0.7727 -2.6809,-0.8534 -3.5629,-0.1574 l -0.7355,0.5805 0,4.2563 0,4.2563 1.4043,-0.5475 c 0.7723,-0.301 1.8254,-0.7506 2.3404,-0.9991 z m 6.4194,2.7494 c 0,-11.3692 0.017,-11.4824 1.8414,-12.4132 1.4696,-0.7497 4.448,-0.7644 5.8892,-0.029 1.8803,0.9592 1.8986,1.0786 1.8986,12.4245 l 0,10.0568 -1.2037,0 -1.2036,0 0,-9.8551 c 0,-9.6794 -0.01,-9.8643 -0.5631,-10.3647 -0.3887,-0.3519 -0.9597,-0.5096 -1.8442,-0.5096 -0.8846,0 -1.4555,0.1577 -1.8443,0.5096 -0.553,0.5004 -0.563,0.6853 -0.563,10.3647 l 0,9.8551 -1.2037,0 -1.2036,0 0,-10.0389 z m 12.5714,-0.1384 c 0,-11.4059 -0.012,-11.3295 1.8672,-12.288 1.5104,-0.7705 4.5032,-0.7497 5.9104,0.041 1.8431,1.036 1.8515,1.0923 1.8515,12.3674 l 0,10.0568 -1.2036,0 -1.2037,0 0,-9.8551 c 0,-11.0476 0.083,-10.5871 -1.9684,-10.92 -1.3361,-0.2168 -2.4803,0.3149 -2.8288,1.3146 -0.1803,0.5174 -0.2848,4.2353 -0.2848,10.1388 l 0,9.3217 -1.0699,0 -1.0699,0 0,-10.1773 z m 12.5713,-1.1904 0,-11.3677 1.07,0 1.0699,0 0,11.3677 0,11.3678 -1.0699,0 -1.07,0 0,-11.3678 z m 17.7086,0.9574 0.078,-10.4103 0.6688,-0.7153 c 1.0699,-1.1446 1.9545,-1.467 4.0253,-1.467 2.2605,0 3.5686,0.5228 4.297,1.7172 0.4683,0.768 0.5024,1.5168 0.5034,11.0549 l 0,10.2309 -1.0699,0 -1.0699,0 0,-9.6143 0,-9.6142 -0.6456,-0.7504 c -0.5466,-0.6355 -0.8496,-0.7505 -1.9779,-0.7505 -0.935,0 -1.5005,0.152 -1.8955,0.5096 -0.553,0.5004 -0.5631,0.6853 -0.5631,10.3646 l 0,9.8552 -1.2154,0 -1.2154,0 0.078,-10.4104 z m 28.2337,0.066 -0.07,-10.345 -1.8055,0.066 -1.8055,0.066 0,-1.0884 0,-1.0883 4.8146,0 4.8146,0 0,1.0699 0,1.0699 -1.8723,0 -1.8723,0 0,10.2978 0,10.2978 -1.0668,0 -1.0668,0 -0.07,-10.3448 z m 8.088,0.1675 c 0,-11.4059 -0.011,-11.3296 1.8672,-12.2881 0.739,-0.377 1.5787,-0.5375 2.8116,-0.5375 2.003,0 3.1858,0.4155 4.1466,1.4569 0.6155,0.6671 0.675,0.9615 0.7647,3.7873 0.1368,4.3076 -0.064,5.3704 -1.2214,6.4619 l -0.9424,0.8888 1.4973,4.7669 c 0.8235,2.6219 1.5755,4.971 1.6711,5.2201 0.151,0.3936 0,0.4423 -1.1144,0.3703 l -1.2883,-0.083 -1.457,-4.6809 c -0.8013,-2.5744 -1.4984,-4.7283 -1.549,-4.7863 -0.051,-0.058 -0.6331,0.1012 -1.2944,0.3537 -1.5435,0.5895 -1.7483,1.2725 -1.7503,5.8369 l 0,3.4103 -1.0699,0 -1.0699,0 0,-10.1774 z m 4.4733,-1.8746 c 1.1439,-0.4499 2.2303,-1.0145 2.4142,-1.2548 0.2214,-0.2892 0.3344,-1.4447 0.3344,-3.4202 0,-3.4466 -0.2131,-3.8379 -2.2138,-4.0634 -0.9712,-0.1094 -1.2964,-0.019 -1.95,0.5428 l -0.7846,0.6742 -0.085,4.1697 c -0.047,2.2933 -0.02,4.1697 0.06,4.1697 0.08,0 1.0816,-0.3681 2.2256,-0.818 z m 9.7498,11.7166 c -0.3419,-0.1646 -0.8535,-0.7534 -1.1367,-1.3086 -0.4773,-0.9354 -0.515,-1.6501 -0.515,-9.7396 0,-9.5318 0.064,-9.9865 1.561,-11.0013 0.589,-0.3996 1.2689,-0.4834 3.9222,-0.4838 l 3.2097,0 0.083,1.003 0.083,1.0031 -2.441,0 c -2.3182,0 -3.3659,0.2503 -3.8059,0.9092 -0.1081,0.1619 -0.1984,1.8892 -0.2006,3.8384 l 0,3.5441 2.5409,0 2.541,0 0,1.2036 0,1.2037 -2.541,0 -2.5409,0 0,3.5694 c 0,4.537 -0.069,4.4549 3.6988,4.4549 l 2.7206,0 0,1.0699 0,1.0698 -3.2766,-0.018 c -1.8268,-0.01 -3.5517,-0.1505 -3.8984,-0.3173 z m 35.264,-9.8956 c 0,-10.999 0.01,-11.0288 1.4197,-12.0775 1.066,-0.7919 4.7187,-0.9366 6.0466,-0.2397 1.8116,0.9507 2.0251,1.5464 2.0251,5.6498 0,3.9713 -0.258,5.0662 -1.3644,5.7912 -0.3529,0.2313 -0.6416,0.5772 -0.6416,0.7688 0,0.1917 0.706,2.5962 1.5691,5.3434 l 1.5691,4.9949 -1.2365,0 -1.2366,0 -1.4581,-4.6994 c -0.8019,-2.5846 -1.5455,-4.7534 -1.6523,-4.8194 -0.3447,-0.2131 -2.3766,0.741 -2.6447,1.2417 -0.1427,0.2669 -0.2595,2.2383 -0.2595,4.3811 l 0,3.896 -1.07,0 -1.0699,0 0,-10.2309 z m 4.2682,-1.7837 c 2.7927,-1.0882 2.9497,-1.3401 2.9497,-4.7322 0,-2.4104 -0.07,-2.8489 -0.5282,-3.3071 -0.6758,-0.6758 -1.6388,-0.9138 -2.8093,-0.6942 -1.5761,0.2957 -1.7445,0.8196 -1.7445,5.4278 0,2.2475 0.03,4.0859 0.067,4.0854 0.036,0 0.9663,-0.3515 2.0655,-0.7797 z m -77.5607,4.2578 0,-1.0699 4.8145,0 4.8146,0 0,1.0699 0,1.07 -4.8146,0 -4.8145,0 0,-1.07 z m -90.7194,-16.1275 c -0.3924,-0.1772 -1.6345,-1.3453 -2.7603,-2.5958 l -2.0469,-2.2736 1.3943,-0.082 c 0.767,-0.045 1.4825,0.015 1.5902,0.1337 0.4023,0.4435 2.8923,5.1638 2.718,5.1522 -0.1,-0.01 -0.5028,-0.1571 -0.8953,-0.3344 z m 130.2181,-2.0324 c 0.6797,-1.2661 1.3799,-2.4594 1.556,-2.6517 0.2069,-0.2259 0.8142,-0.3207 1.7147,-0.2675 l 1.3943,0.082 -2.2803,2.4414 c -1.3702,1.4669 -2.5477,2.4925 -2.9504,2.5695 -0.6569,0.1255 -0.6458,0.083 0.5657,-2.1739 z m -109.0447,-2.6364 c 0,-0.1103 0,-8.2459 0,-18.0791 l 0,-17.8785 0.7171,-1.3175 c 0.7859,-1.444 2.4258,-2.7054 4.2221,-3.2478 1.7389,-0.5251 7.494,-0.4313 9.1576,0.1492 2.004,0.699 3.3952,1.8122 4.1298,3.3043 0.6319,1.2833 0.6374,1.3696 0.6374,9.9874 l 0,8.6931 -0.7224,1.3694 c -1.0176,1.9289 -1.8987,2.5584 -5.2046,3.7183 -8.8078,3.0901 -8.383,2.6344 -8.383,8.9944 l 0,4.5075 -2.2735,0 c -1.2505,0 -2.2746,-0.09 -2.2758,-0.2007 z m 8.6978,-16.4083 c 1.7639,-0.6208 3.5398,-1.36 3.9466,-1.6426 1.5096,-1.049 1.5655,-1.4058 1.4792,-9.4375 l -0.079,-7.3409 -0.8091,-0.8086 c -2.0583,-2.0572 -7.1437,-1.5653 -8.3442,0.8072 -0.2492,0.4925 -0.3353,3.173 -0.3382,10.5319 0,9.4057 0.019,9.8511 0.4669,9.4452 0.2588,-0.2343 1.9139,-0.9339 3.6777,-1.5547 z m -25.413,5.3615 c -2.3132,-0.3582 -4.8531,-1.7247 -5.8647,-3.1554 l -0.8221,-1.1626 -0.077,-10.0081 c -0.049,-6.4102 0.025,-10.3841 0.2054,-11.0539 0.3672,-1.3639 2.3786,-3.183 4.3069,-3.8952 1.1855,-0.4378 2.1038,-0.5343 5.0593,-0.5317 3.3883,0 3.7099,0.05 5.2158,0.7508 3.0769,1.4328 3.9024,2.6914 4.0876,6.2323 0.1859,3.5555 -0.2198,4.9618 -1.9227,6.6647 -1.6658,1.6659 -2.7624,1.9961 -6.6298,1.9968 -3.1737,0 -4.2469,0.3793 -5.2257,1.8446 -0.5108,0.7643 -0.6072,1.2652 -0.6072,3.1513 0,2.9416 0.4198,3.9504 1.9291,4.6354 1.2907,0.5858 4.2316,0.7185 5.4759,0.247 1.1802,-0.4471 1.9524,-1.3322 2.1296,-2.4408 l 0.1629,-1.0186 2.4102,0 2.4103,0 -0.1439,1.5874 c -0.348,3.8374 -3.2242,5.9735 -8.461,6.2839 -1.1191,0.066 -2.7569,0.01 -3.6396,-0.1279 z m 2.0832,-18.1151 c 4.4282,-0.149 5.2725,-0.7673 5.2725,-3.8612 0,-1.6835 -0.071,-1.9277 -0.7602,-2.6169 -0.9847,-0.9847 -2.7035,-1.441 -4.6629,-1.2379 -1.7061,0.1768 -2.7293,0.6118 -3.538,1.5041 -0.4649,0.5129 -0.5458,1.0408 -0.6229,4.0635 l -0.089,3.4741 0.8344,-0.6168 c 0.7169,-0.5301 1.2184,-0.6298 3.5657,-0.7089 z m 61.2678,18.1189 c -3.8828,-0.6929 -6.1914,-2.4482 -6.7871,-5.1605 -0.2045,-0.9314 -0.2747,-4.3963 -0.215,-10.611 0.086,-8.9599 0.1061,-9.2605 0.6881,-10.3492 1.2845,-2.4031 3.7731,-3.5814 7.9502,-3.7645 4.9773,-0.2183 8.48,1.146 9.7667,3.8037 0.5366,1.1087 0.5861,1.5535 0.5012,4.5067 l -0.094,3.2766 -1.0331,1.407 c -1.5955,2.1731 -2.5198,2.5312 -6.9912,2.7092 -4.0994,0.1633 -4.6477,0.3592 -5.6586,2.0215 -0.7076,1.1637 -0.6404,5.5086 0.1009,6.5206 0.8343,1.1389 2.1203,1.6365 4.2305,1.637 2.714,0 4.125,-0.7464 4.6707,-2.4723 l 0.4012,-1.2691 2.2067,0 2.2066,0 0,1.4144 c 0,2.7115 -1.9104,5.054 -4.8284,5.9205 -1.7276,0.5131 -5.3682,0.724 -7.1152,0.4122 z m -1.9173,-17.1184 c 0.1907,-0.5723 2.2758,-1.0371 4.7038,-1.0486 2.4419,-0.012 2.4927,-0.025 3.4772,-0.9273 0.9755,-0.894 0.9992,-0.9609 0.9992,-2.8305 0,-1.8178 -0.044,-1.9537 -0.8589,-2.6822 -1.5844,-1.4155 -4.6645,-1.7018 -6.8998,-0.641 -1.6143,0.766 -1.8582,1.4014 -1.9649,5.118 -0.061,2.1177 0,3.2886 0.1783,3.2886 0.15,0 0.3143,-0.1246 0.3651,-0.277 z m 49.4198,17.1439 c -3.0433,-0.5598 -5.8419,-2.6221 -6.2366,-4.5959 -0.092,-0.46 -0.1661,-4.6428 -0.1647,-9.2952 0,-8.3123 0.013,-8.4824 0.6305,-9.8073 0.7306,-1.5691 1.8241,-2.5761 3.4353,-3.1637 0.6311,-0.2301 2.8325,-1.0216 4.8921,-1.759 3.9315,-1.4075 5.2045,-2.2754 5.2255,-3.5629 0.01,-0.3288 0.036,-2.4032 0.067,-4.6098 l 0.057,-4.0122 2.3404,-0.077 2.3405,-0.077 0,17.4118 c 0,12.3878 -0.09,17.7695 -0.3124,18.6519 -0.4547,1.806 -2.5438,3.8812 -4.5022,4.4724 -1.7067,0.5151 -6.0033,0.7498 -7.7724,0.4245 z m 5.881,-4.4965 c 1.9163,-0.9771 1.8669,-0.6788 1.9502,-11.7687 0.066,-8.7302 -0.012,-10.7606 -0.3709,-9.6998 -0.049,0.145 -1.5335,0.7553 -3.2989,1.3563 -1.7653,0.601 -3.6423,1.3744 -4.1709,1.7187 -1.7423,1.1344 -1.8473,1.6583 -1.8473,9.2171 0,6.1296 0.046,6.8141 0.5195,7.7424 0.3001,0.5881 0.8933,1.2025 1.4043,1.4543 1.2412,0.6117 4.5976,0.6 5.814,-0.02 z m 34.4601,4.4719 c -3.2685,-0.5504 -5.3358,-1.7812 -6.4307,-3.8286 -0.5835,-1.0912 -0.5941,-1.2894 -0.5941,-11.1624 l 0,-10.0515 0.812,-1.3162 c 1.6172,-2.6214 4.9278,-3.8093 9.7925,-3.5136 3.0251,0.1838 4.0741,0.4759 5.7555,1.6027 1.747,1.1706 2.4316,2.5005 2.6528,5.1523 0.3348,4.015 -0.7765,6.6936 -3.3779,8.1419 -1.0538,0.5867 -1.6075,0.6793 -4.8021,0.803 -3.7464,0.1453 -4.232,0.2789 -5.3495,1.4723 -0.6072,0.6484 -0.6768,0.9647 -0.7563,3.4349 -0.08,2.4962 -0.036,2.7981 0.5441,3.6569 0.7739,1.1466 1.9076,1.5698 4.2585,1.5899 2.8651,0.024 4.2999,-0.8506 4.6751,-2.8512 l 0.1649,-0.8785 2.4083,0 2.4083,0 -0.1918,1.5353 c -0.4527,3.6231 -2.6612,5.5867 -6.9868,6.2119 -2.1021,0.3039 -3.182,0.3041 -4.9828,0 z m 2.2711,-18.1683 c 3.212,-0.1644 3.8465,-0.3908 4.5817,-1.6354 0.5067,-0.8577 0.5722,-3.1261 0.119,-4.1206 -0.5839,-1.2816 -1.9716,-1.8784 -4.3674,-1.8784 -1.7632,0 -2.335,0.1118 -3.2491,0.6356 -0.6101,0.3495 -1.242,0.927 -1.4042,1.2831 -0.1626,0.3569 -0.295,2.086 -0.295,3.8526 l 0,3.2052 0.8035,-0.5942 c 0.6786,-0.5016 1.2712,-0.6179 3.8115,-0.7479 z m -217.2066,5.5389 c 0.081,-12.2848 0.086,-12.3788 0.6907,-13.5112 0.7231,-1.3537 2.2496,-2.5253 4.158,-3.191 1.0699,-0.3734 2.1757,-0.4806 4.862,-0.4717 2.9759,0.01 3.6996,0.1 5.0194,0.6226 1.902,0.7536 2.9839,1.6409 3.7522,3.0773 0.5803,1.0847 0.5915,1.3096 0.6739,13.474 l 0.084,12.3706 -2.4242,0 -2.4241,0 0,-11.4888 c 0,-7.4885 -0.098,-11.7045 -0.2822,-12.1082 -0.1552,-0.3406 -0.7181,-0.918 -1.2508,-1.2831 -0.8348,-0.5719 -1.2677,-0.6638 -3.1282,-0.6638 -1.7839,0 -2.3523,0.1106 -3.2687,0.6356 -0.61,0.3495 -1.242,0.927 -1.4042,1.2831 -0.2004,0.4398 -0.295,4.3317 -0.295,12.1364 l 0,11.4888 -2.422,0 -2.422,0 0.082,-12.3706 z m 34.2937,12.095 c -2.7234,-0.54 -5.5282,-2.7377 -5.8471,-4.5817 -0.084,-0.4914 -0.1827,-5.407 -0.2173,-10.9238 l -0.062,-10.0302 -1.8055,-0.079 -1.8055,-0.079 0,-1.8602 0,-1.8601 1.7075,0 c 2.0725,0 2.0284,0.094 2.0335,-4.3464 l 0,-3.1429 2.2736,0 2.2735,0 0,3.7447 0,3.7446 2.4073,0 2.4073,0 0,1.8723 0,1.8724 -2.4073,0 -2.4073,0 0,9.7424 0,9.7423 0.6633,0.7883 c 0.7129,0.8473 1.5582,1.2549 3.1482,1.5182 l 1.0031,0.1661 0,1.994 0,1.9939 -1.1368,-0.029 c -0.6252,-0.016 -1.6294,-0.127 -2.2315,-0.2463 z m 7.3805,-11.9031 c 0,-13.2761 0,-13.2937 1.5521,-14.9282 0.991,-1.0446 2.8455,-1.9438 4.7266,-2.2914 1.4402,-0.2663 6.2927,-0.4187 6.2927,-0.1976 0,0.052 -0.1145,0.4427 -0.2544,0.8692 -0.14,0.4266 -0.3805,1.2694 -0.5347,1.873 l -0.2803,1.0975 -2.0111,0.17 c -1.1864,0.1003 -2.4456,0.3917 -3.0707,0.7106 -1.9037,0.9712 -1.8731,0.7508 -1.8731,13.4947 l 0,11.3809 -2.2736,0 -2.2735,0 0,-12.1787 z m 63.1789,-0.3257 0.079,-12.5045 0.6167,-0.9917 c 1.5279,-2.4573 3.8148,-3.4275 8.5444,-3.6247 1.8255,-0.077 3.2761,-0.032 3.2756,0.1 0,0.1302 -0.222,1.0191 -0.4919,1.9753 l -0.4908,1.7387 -2.0962,0.2098 c -2.225,0.2229 -3.7546,0.8738 -4.4246,1.8832 -0.3183,0.4795 -0.4001,2.6138 -0.4661,12.1501 l -0.08,11.5682 -2.2727,0 -2.2727,0 0.079,-12.5044 z m 38.731,0.5349 c 0,-7.613 0.1048,-12.3415 0.2853,-12.9915 0.41,-1.4763 1.86,-2.934 3.7724,-3.7922 2.1907,-0.9831 6.616,-1.2488 9.3147,-0.5594 2.3592,0.6026 4.3263,1.9402 5.0488,3.4326 0.5541,1.1446 0.5682,1.4797 0.5682,13.5269 l 0,12.3531 -2.2655,0 -2.2655,0 -0.075,-11.791 -0.075,-11.7911 -0.8588,-0.7672 c -1.5846,-1.4154 -4.6646,-1.7015 -6.8998,-0.6408 -1.9209,0.9115 -1.8617,0.5035 -1.9481,13.4097 l -0.077,11.5804 -2.2629,0 -2.2628,0 0,-11.9695 z m 48.999,-0.4011 c 0.081,-12.2251 0.089,-12.3841 0.6809,-13.4922 1.3238,-2.4767 3.8174,-3.5682 8.6027,-3.7655 l 3.3176,-0.1369 -0.1689,0.6395 c -0.093,0.3518 -0.3075,1.2554 -0.4769,2.0082 l -0.3078,1.3687 -2.1356,0.1781 c -2.3524,0.1962 -3.3486,0.5913 -4.1911,1.6624 -0.5469,0.6953 -0.5586,0.9516 -0.5586,12.3092 l 0,11.5991 -2.422,0 -2.422,0 0.082,-12.3706 z m -270.1547,11.6968 c -1.6117,-0.7001 -2.5098,-1.529 -3.153,-2.9104 l -0.6351,-1.3641 0,-14.1762 c 0,-13.2705 0.036,-14.2466 0.5033,-15.2772 0.5873,-1.2934 1.8697,-2.3407 3.3666,-2.7497 0.7477,-0.2042 11.4014,-0.2927 35.3738,-0.2937 l 34.3039,0 0,6.0182 0,6.0182 -30.7599,0 -30.7597,0 0,6.5246 c 0,4.9813 0.079,6.5512 0.3343,6.6371 0.1839,0.062 14.0258,0.1044 30.7598,0.094 l 30.4255,-0.019 0,5.9527 0,5.9527 -34.4377,-0.011 c -29.381,-0.01 -34.5678,-0.067 -35.325,-0.396 z m -0.4811,-50.2542 c -2.1797,-1.0149 -3.3179,-2.9482 -3.3064,-5.6162 0.01,-1.5342 0.6769,-3.2131 1.6342,-4.0932 1.6222,-1.4914 -0.3318,-1.4171 37.2692,-1.4171 l 34.6468,0 0,5.8845 0,5.8846 -34.4376,0 -34.4376,0 -1.3686,-0.6374 z"
       style="fill:none;stroke:#000000;stroke-opacity:1" />
  </g>
</svg>
