  0
SECTION
  2
HEADER
  9
$ACADVER
  1
AC1014
  9
$HANDSEED
  5
FFFF
  9
$MEASUREMENT
 70
     1
  0
ENDSEC
  0
SECTION
  2
TABLES
  0
TABLE
  2
VPORT
  5
8
330
0
100
AcDbSymbolTable
 70
     4
  0
VPORT
  5
2E
330
8
100
AcDbSymbolTableRecord
100
AcDbViewportTableRecord
  2
*ACTIVE
 70
     0
 10
0.0
 20
0.0
 11
1.0
 21
1.0
 12
210.0
 22
148.5
 13
0.0
 23
0.0
 14
10.0
 24
10.0
 15
10.0
 25
10.0
 16
0.0
 26
0.0
 36
1.0
 17
0.0
 27
0.0
 37
0.0
 40
341.0
 41
1.24
 42
50.0
 43
0.0
 44
0.0
 50
0.0
 51
0.0
 71
     0
 72
   100
 73
     1
 74
     3
 75
     0
 76
     0
 77
     0
 78
     0
  0
ENDTAB
  0
TABLE
  2
LTYPE
  5
5
330
0
100
AcDbSymbolTable
 70
     1
  0
LTYPE
  5
14
330
5
100
AcDbSymbolTableRecord
100
AcDbLinetypeTableRecord
  2
BYBLOCK
 70
     0
  3

 72
    65
 73
     0
 40
0.0
  0
LTYPE
  5
15
330
5
100
AcDbSymbolTableRecord
100
AcDbLinetypeTableRecord
  2
BYLAYER
 70
     0
  3

 72
    65
 73
     0
 40
0.0
  0
LTYPE
  5
16
330
5
100
AcDbSymbolTableRecord
100
AcDbLinetypeTableRecord
  2
CONTINUOUS
 70
     0
  3
Solid line
 72
    65
 73
     0
 40
0.0
  0
ENDTAB
  0
TABLE
  2
LAYER
  5
2
100
AcDbSymbolTable
 70
2
  0
LAYER
  5
50
100
AcDbSymbolTableRecord
100
AcDbLayerTableRecord
  2
0
 70
0
  6
CONTINUOUS
  0
LAYER
  5
51
100
AcDbSymbolTableRecord
100
AcDbLayerTableRecord
  2
tree
 70
0
  6
CONTINUOUS
  0
ENDTAB
  0
TABLE
  2
STYLE
  5
3
330
0
100
AcDbSymbolTable
 70
     1
  0
STYLE
  5
11
330
3
100
AcDbSymbolTableRecord
100
AcDbTextStyleTableRecord
  2
STANDARD
 70
     0
 40
0.0
 41
1.0
 50
0.0
 71
     0
 42
2.5
  3
txt
  4

  0
ENDTAB
  0
TABLE
  2
VIEW
  5
6
330
0
100
AcDbSymbolTable
 70
     0
  0
ENDTAB
  0
TABLE
  2
UCS
  5
7
330
0
100
AcDbSymbolTable
 70
     0
  0
ENDTAB
  0
TABLE
  2
APPID
  5
9
330
0
100
AcDbSymbolTable
 70
     2
  0
APPID
  5
12
330
9
100
AcDbSymbolTableRecord
100
AcDbRegAppTableRecord
  2
ACAD
 70
     0
  0
ENDTAB
  0
TABLE
  2
DIMSTYLE
  5
A
330
0
100
AcDbSymbolTable
 70
     1
  0
DIMSTYLE
105
27
330
A
100
AcDbSymbolTableRecord
100
AcDbDimStyleTableRecord
  2
ISO-25
 70
     0
  3

  4

  5

  6

  7

 40
1.0
 41
2.5
 42
0.625
 43
3.75
 44
1.25
 45
0.0
 46
0.0
 47
0.0
 48
0.0
140
2.5
141
2.5
142
0.0
143
0.03937007874016
144
1.0
145
0.0
146
1.0
147
0.625
 71
     0
 72
     0
 73
     0
 74
     0
 75
     0
 76
     0
 77
     1
 78
     8
170
     0
171
     3
172
     1
173
     0
174
     0
175
     0
176
     0
177
     0
178
     0
270
     2
271
     2
272
     2
273
     2
274
     3
340
11
275
     0
280
     0
281
     0
282
     0
283
     0
284
     8
285
     0
286
     0
287
     3
288
     0
  0
ENDTAB
  0
TABLE
  2
BLOCK_RECORD
  5
1
330
0
100
AcDbSymbolTable
 70
     1
  0
BLOCK_RECORD
  5
1F
330
1
100
AcDbSymbolTableRecord
100
AcDbBlockTableRecord
  2
*MODEL_SPACE
  0
BLOCK_RECORD
  5
1B
330
1
100
AcDbSymbolTableRecord
100
AcDbBlockTableRecord
  2
*PAPER_SPACE
  0
ENDTAB
  0
ENDSEC
  0
SECTION
  2
BLOCKS
  0
BLOCK
  5
20
330
1F
100
AcDbEntity
  8
0
100
AcDbBlockBegin
  2
*MODEL_SPACE
 70
     0
 10
0.0
 20
0.0
 30
0.0
  3
*MODEL_SPACE
  1

  0
ENDBLK
  5
21
330
1F
100
AcDbEntity
  8
0
100
AcDbBlockEnd
  0
BLOCK
  5
1C
330
1B
100
AcDbEntity
 67
     1
  8
0
100
AcDbBlockBegin
  2
*PAPER_SPACE
  1

  0
ENDBLK
  5
1D
330
1B
100
AcDbEntity
 67
     1
  8
0
100
AcDbBlockEnd
  0
ENDSEC
  0
SECTION
  2
ENTITIES
  0
SPLINE
  5
100
100
AcDbEntity
  8
tree
 62
7
100
AcDbSpline
 70
8
 71
3
 72
8
 73
4
 74
0
 40
0
 40
0
 40
0
 40
0
 40
1
 40
1
 40
1
 40
1
 10
253.724478
 20
270.907381
 30
0.0
 10
255.952622
 20
271.063297
 30
0.0
 10
258.186609
 20
271.236836
 30
0.0
 10
260.438544
 20
271.616642
 30
0.0
  0
SPLINE
  5
101
100
AcDbEntity
  8
tree
 62
7
100
AcDbSpline
 70
8
 71
3
 72
8
 73
4
 74
0
 40
0
 40
0
 40
0
 40
0
 40
1
 40
1
 40
1
 40
1
 10
253.724506
 20
270.906153
 30
0.0
 10
254.838578
 20
270.984112
 30
0.0
 10
255.953977
 20
271.066343
 30
0.0
 10
257.066977
 20
271.170198
 30
0.0
  0
LINE
  5
102
100
AcDbEntity
  8
tree
 62
7
100
AcDbLine
 10
497.278060
 20
287.644101
 30
0.0
 11
497.278060
 21
287.644101
 31
0.0
  0
LINE
  5
103
100
AcDbEntity
  8
tree
 62
7
100
AcDbLine
 10
29.214511
 20
212.596058
 30
0.0
 11
29.214511
 21
212.596058
 31
0.0
  0
SPLINE
  5
104
100
AcDbEntity
  8
tree
 62
7
100
AcDbSpline
 70
8
 71
3
 72
8
 73
4
 74
0
 40
0
 40
0
 40
0
 40
0
 40
1
 40
1
 40
1
 40
1
 10
29.214511
 20
212.596058
 30
0.0
 10
36.076435
 20
158.059316
 30
0.0
 10
64.321524
 20
108.482763
 30
0.0
 10
107.736347
 20
74.771954
 30
0.0
  0
SPLINE
  5
105
100
AcDbEntity
  8
tree
 62
7
100
AcDbSpline
 70
8
 71
3
 72
8
 73
4
 74
0
 40
0
 40
0
 40
0
 40
0
 40
1
 40
1
 40
1
 40
1
 10
107.736347
 20
74.771954
 30
0.0
 10
151.151156
 20
41.061282
 30
0.0
 10
206.179346
 20
25.977614
 30
0.0
 10
260.715407
 20
32.839316
 30
0.0
  0
LINE
  5
106
100
AcDbEntity
  8
tree
 62
7
100
AcDbLine
 10
260.715407
 20
32.839316
 30
0.0
 11
260.716113
 21
32.839404
 31
0.0
  0
LINE
  5
107
100
AcDbEntity
  8
tree
 62
7
100
AcDbLine
 10
260.716113
 20
32.839404
 30
0.0
 11
259.779851
 21
40.280560
 31
0.0
  0
LINE
  5
108
100
AcDbEntity
  8
tree
 62
7
100
AcDbLine
 10
259.779851
 20
40.280560
 30
0.0
 11
259.779146
 21
40.280472
 31
0.0
  0
SPLINE
  5
109
100
AcDbEntity
  8
tree
 62
7
100
AcDbSpline
 70
8
 71
3
 72
8
 73
4
 74
0
 40
0
 40
0
 40
0
 40
0
 40
1
 40
1
 40
1
 40
1
 10
259.779146
 20
40.280472
 30
0.0
 10
207.216594
 20
33.667032
 30
0.0
 10
154.179676
 20
48.204845
 30
0.0
 10
112.335920
 20
80.695759
 30
0.0
  0
SPLINE
  5
10a
100
AcDbEntity
  8
tree
 62
7
100
AcDbSpline
 70
8
 71
3
 72
8
 73
4
 74
0
 40
0
 40
0
 40
0
 40
0
 40
1
 40
1
 40
1
 40
1
 10
112.335920
 20
80.695759
 30
0.0
 10
70.492197
 20
113.186681
 30
0.0
 10
43.269214
 20
160.969210
 30
0.0
 10
36.655724
 20
213.531744
 30
0.0
  0
LINE
  5
10b
100
AcDbEntity
  8
tree
 62
7
100
AcDbLine
 10
36.655724
 20
213.531744
 30
0.0
 11
36.655724
 21
213.531744
 31
0.0
  0
LINE
  5
10c
100
AcDbEntity
  8
tree
 62
7
100
AcDbLine
 10
36.655724
 20
213.531744
 30
0.0
 11
36.655724
 21
213.531744
 31
0.0
  0
LINE
  5
10d
100
AcDbEntity
  8
tree
 62
7
100
AcDbLine
 10
36.655724
 20
213.531744
 30
0.0
 11
29.214511
 21
212.596058
 31
0.0
  0
LINE
  5
10e
100
AcDbEntity
  8
tree
 62
7
100
AcDbLine
 10
292.491273
 20
426.887624
 30
0.0
 11
292.491273
 21
426.887624
 31
0.0
  0
SPLINE
  5
10f
100
AcDbEntity
  8
tree
 62
7
100
AcDbSpline
 70
8
 71
3
 72
8
 73
4
 74
0
 40
0
 40
0
 40
0
 40
0
 40
1
 40
1
 40
1
 40
1
 10
292.491273
 20
426.887624
 30
0.0
 10
237.525261
 20
426.887554
 30
0.0
 10
184.810496
 20
405.052339
 30
0.0
 10
145.943656
 20
366.185505
 30
0.0
  0
SPLINE
  5
110
100
AcDbEntity
  8
tree
 62
7
100
AcDbSpline
 70
8
 71
3
 72
8
 73
4
 74
0
 40
0
 40
0
 40
0
 40
0
 40
1
 40
1
 40
1
 40
1
 10
145.943656
 20
366.185505
 30
0.0
 10
107.076237
 20
327.318637
 30
0.0
 10
85.241043
 20
274.603888
 30
0.0
 10
85.240983
 20
219.637857
 30
0.0
  0
LINE
  5
111
100
AcDbEntity
  8
tree
 62
7
100
AcDbLine
 10
85.240983
 20
219.637857
 30
0.0
 11
85.240983
 21
219.637010
 31
0.0
  0
LINE
  5
112
100
AcDbEntity
  8
tree
 62
7
100
AcDbLine
 10
85.240983
 20
219.637148
 30
0.0
 11
92.740807
 21
219.637160
 31
0.0
  0
LINE
  5
113
100
AcDbEntity
  8
tree
 62
7
100
AcDbLine
 10
92.740807
 20
219.637160
 30
0.0
 11
92.740807
 21
219.637724
 31
0.0
  0
SPLINE
  5
114
100
AcDbEntity
  8
tree
 62
7
100
AcDbSpline
 70
8
 71
3
 72
8
 73
4
 74
0
 40
0
 40
0
 40
0
 40
0
 40
1
 40
1
 40
1
 40
1
 10
92.740807
 20
219.637865
 30
0.0
 10
92.740821
 20
272.614837
 30
0.0
 10
113.785848
 20
323.421994
 30
0.0
 10
151.246219
 20
360.882374
 30
0.0
  0
SPLINE
  5
115
100
AcDbEntity
  8
tree
 62
7
100
AcDbSpline
 70
8
 71
3
 72
8
 73
4
 74
0
 40
0
 40
0
 40
0
 40
0
 40
1
 40
1
 40
1
 40
1
 10
151.246219
 20
360.882374
 30
0.0
 10
188.706602
 20
398.342752
 30
0.0
 10
239.513770
 20
419.387781
 30
0.0
 10
292.490708
 20
419.387781
 30
0.0
  0
LINE
  5
116
100
AcDbEntity
  8
tree
 62
7
100
AcDbLine
 10
292.490708
 20
419.387781
 30
0.0
 11
292.490708
 21
419.387781
 31
0.0
  0
LINE
  5
117
100
AcDbEntity
  8
tree
 62
7
100
AcDbLine
 10
292.490708
 20
419.387781
 30
0.0
 11
292.490708
 21
419.387781
 31
0.0
  0
LINE
  5
118
100
AcDbEntity
  8
tree
 62
7
100
AcDbLine
 10
292.490708
 20
419.387781
 30
0.0
 11
292.490708
 21
426.887624
 31
0.0
  0
LINE
  5
119
100
AcDbEntity
  8
tree
 62
7
100
AcDbLine
 10
271.900128
 20
6.757599
 30
0.0
 11
271.900128
 21
6.757599
 31
0.0
  0
SPLINE
  5
11a
100
AcDbEntity
  8
tree
 62
7
100
AcDbSpline
 70
8
 71
3
 72
8
 73
4
 74
0
 40
0
 40
0
 40
0
 40
0
 40
1
 40
1
 40
1
 40
1
 10
271.900128
 20
6.757599
 30
0.0
 10
326.596565
 20
1.320417
 30
0.0
 10
381.212760
 20
17.833987
 30
0.0
 10
423.733666
 20
52.665473
 30
0.0
  0
SPLINE
  5
11b
100
AcDbEntity
  8
tree
 62
7
100
AcDbSpline
 70
8
 71
3
 72
8
 73
4
 74
0
 40
0
 40
0
 40
0
 40
0
 40
1
 40
1
 40
1
 40
1
 10
423.733666
 20
52.665473
 30
0.0
 10
466.255171
 20
87.496944
 30
0.0
 10
493.197868
 20
137.793206
 30
0.0
 10
498.635161
 20
192.489644
 30
0.0
  0
LINE
  5
11c
100
AcDbEntity
  8
tree
 62
7
100
AcDbLine
 10
498.635161
 20
192.489644
 30
0.0
 11
498.635196
 21
192.490349
 31
0.0
  0
LINE
  5
11d
100
AcDbEntity
  8
tree
 62
7
100
AcDbLine
 10
498.635196
 20
192.490349
 30
0.0
 11
491.172112
 21
193.232223
 31
0.0
  0
LINE
  5
11e
100
AcDbEntity
  8
tree
 62
7
100
AcDbLine
 10
491.172112
 20
193.232223
 30
0.0
 11
491.172077
 21
193.231518
 31
0.0
  0
SPLINE
  5
11f
100
AcDbEntity
  8
tree
 62
7
100
AcDbSpline
 70
8
 71
3
 72
8
 73
4
 74
0
 40
0
 40
0
 40
0
 40
0
 40
1
 40
1
 40
1
 40
1
 10
491.172077
 20
193.231518
 30
0.0
 10
485.931598
 20
140.514379
 30
0.0
 10
459.963943
 20
92.038196
 30
0.0
 10
418.981714
 20
58.467129
 30
0.0
  0
SPLINE
  5
120
100
AcDbEntity
  8
tree
 62
7
100
AcDbSpline
 70
8
 71
3
 72
8
 73
4
 74
0
 40
0
 40
0
 40
0
 40
0
 40
1
 40
1
 40
1
 40
1
 10
418.981714
 20
58.467129
 30
0.0
 10
377.999449
 20
24.896065
 30
0.0
 10
325.359691
 20
8.980108
 30
0.0
 10
272.642577
 20
14.220602
 30
0.0
  0
LINE
  5
121
100
AcDbEntity
  8
tree
 62
7
100
AcDbLine
 10
272.642577
 20
14.220602
 30
0.0
 11
272.642577
 21
14.220602
 31
0.0
  0
LINE
  5
122
100
AcDbEntity
  8
tree
 62
7
100
AcDbLine
 10
272.642577
 20
14.220602
 30
0.0
 11
272.642577
 21
14.220602
 31
0.0
  0
LINE
  5
123
100
AcDbEntity
  8
tree
 62
7
100
AcDbLine
 10
272.642577
 20
14.220602
 30
0.0
 11
271.900128
 21
6.757599
 31
0.0
  0
LINE
  5
124
100
AcDbEntity
  8
tree
 62
7
100
AcDbLine
 10
138.887937
 20
497.696008
 30
0.0
 11
138.887937
 21
497.696008
 31
0.0
  0
SPLINE
  5
125
100
AcDbEntity
  8
tree
 62
7
100
AcDbSpline
 70
8
 71
3
 72
8
 73
4
 74
0
 40
0
 40
0
 40
0
 40
0
 40
1
 40
1
 40
1
 40
1
 10
138.887937
 20
497.696008
 30
0.0
 10
88.433801
 20
475.886757
 30
0.0
 10
48.709806
 20
434.927916
 30
0.0
 10
28.454741
 20
383.830031
 30
0.0
  0
SPLINE
  5
126
100
AcDbEntity
  8
tree
 62
7
100
AcDbSpline
 70
8
 71
3
 72
8
 73
4
 74
0
 40
0
 40
0
 40
0
 40
0
 40
1
 40
1
 40
1
 40
1
 10
28.454741
 20
383.830031
 30
0.0
 10
8.199694
 20
332.732082
 30
0.0
 10
9.072776
 20
275.680704
 30
0.0
 10
30.881916
 20
225.226511
 30
0.0
  0
LINE
  5
127
100
AcDbEntity
  8
tree
 62
7
100
AcDbLine
 10
30.881916
 20
225.226511
 30
0.0
 11
30.882195
 21
225.225806
 31
0.0
  0
LINE
  5
128
100
AcDbEntity
  8
tree
 62
7
100
AcDbLine
 10
30.882195
 20
225.225806
 30
0.0
 11
37.766399
 21
228.201564
 31
0.0
  0
LINE
  5
129
100
AcDbEntity
  8
tree
 62
7
100
AcDbLine
 10
37.766399
 20
228.201564
 30
0.0
 11
37.766121
 21
228.202269
 31
0.0
  0
SPLINE
  5
12a
100
AcDbEntity
  8
tree
 62
7
100
AcDbSpline
 70
8
 71
3
 72
8
 73
4
 74
0
 40
0
 40
0
 40
0
 40
0
 40
1
 40
1
 40
1
 40
1
 10
37.766121
 20
228.202269
 30
0.0
 10
16.746149
 20
276.830654
 30
0.0
 10
15.904640
 20
331.817509
 30
0.0
 10
35.426724
 20
381.066370
 30
0.0
  0
SPLINE
  5
12b
100
AcDbEntity
  8
tree
 62
7
100
AcDbSpline
 70
8
 71
3
 72
8
 73
4
 74
0
 40
0
 40
0
 40
0
 40
0
 40
1
 40
1
 40
1
 40
1
 10
35.426724
 20
381.066370
 30
0.0
 10
54.948811
 20
430.315206
 30
0.0
 10
93.235325
 20
469.791815
 30
0.0
 10
141.863695
 20
490.811797
 30
0.0
  0
LINE
  5
12c
100
AcDbEntity
  8
tree
 62
7
100
AcDbLine
 10
141.863695
 20
490.811797
 30
0.0
 11
141.863695
 21
490.811797
 31
0.0
  0
LINE
  5
12d
100
AcDbEntity
  8
tree
 62
7
100
AcDbLine
 10
141.863695
 20
490.811797
 30
0.0
 11
141.863695
 21
490.811797
 31
0.0
  0
LINE
  5
12e
100
AcDbEntity
  8
tree
 62
7
100
AcDbLine
 10
141.863695
 20
490.811797
 30
0.0
 11
138.887937
 21
497.696008
 31
0.0
  0
LINE
  5
12f
100
AcDbEntity
  8
tree
 62
7
100
AcDbLine
 10
92.338130
 20
141.909332
 30
0.0
 11
122.131205
 21
150.408250
 31
0.0
  0
SPLINE
  5
130
100
AcDbEntity
  8
tree
 62
7
100
AcDbSpline
 70
8
 71
3
 72
8
 73
4
 74
0
 40
0
 40
0
 40
0
 40
0
 40
1
 40
1
 40
1
 40
1
 10
122.131205
 20
150.408250
 30
0.0
 10
99.709399
 20
172.209661
 30
0.0
 10
83.363597
 20
199.483761
 30
0.0
 10
74.708734
 20
229.535921
 30
0.0
  0
SPLINE
  5
131
100
AcDbEntity
  8
tree
 62
7
100
AcDbSpline
 70
8
 71
3
 72
8
 73
4
 74
0
 40
0
 40
0
 40
0
 40
0
 40
1
 40
1
 40
1
 40
1
 10
74.708734
 20
229.535921
 30
0.0
 10
66.178860
 20
259.614637
 30
0.0
 10
65.641902
 20
291.398051
 30
0.0
 10
73.150882
 20
321.747732
 30
0.0
  0
LINE
  5
132
100
AcDbEntity
  8
tree
 62
7
100
AcDbLine
 10
73.150882
 20
321.747732
 30
0.0
 11
43.391730
 21
313.258519
 31
0.0
  0
SPLINE
  5
133
100
AcDbEntity
  8
tree
 62
7
100
AcDbSpline
 70
8
 71
3
 72
8
 73
4
 74
0
 40
0
 40
0
 40
0
 40
0
 40
1
 40
1
 40
1
 40
1
 10
43.391730
 20
313.258519
 30
0.0
 10
38.203839
 20
282.852872
 30
0.0
 10
39.868253
 20
251.672617
 30
0.0
 10
48.263570
 20
221.992047
 30
0.0
  0
SPLINE
  5
134
100
AcDbEntity
  8
tree
 62
7
100
AcDbSpline
 70
8
 71
3
 72
8
 73
4
 74
0
 40
0
 40
0
 40
0
 40
0
 40
1
 40
1
 40
1
 40
1
 10
48.263570
 20
221.992047
 30
0.0
 10
56.811704
 20
192.350194
 30
0.0
 10
71.869437
 20
164.990551
 30
0.0
 10
92.338130
 20
141.909332
 30
0.0
  0
LINE
  5
135
100
AcDbEntity
  8
tree
 62
7
100
AcDbLine
 10
92.338130
 20
141.909332
 30
0.0
 11
92.338130
 21
141.909332
 31
0.0
  0
LINE
  5
136
100
AcDbEntity
  8
tree
 62
7
100
AcDbLine
 10
50.099503
 20
354.548487
 30
0.0
 11
74.780510
 21
335.821304
 31
0.0
  0
SPLINE
  5
137
100
AcDbEntity
  8
tree
 62
7
100
AcDbSpline
 70
8
 71
3
 72
8
 73
4
 74
0
 40
0
 40
0
 40
0
 40
0
 40
1
 40
1
 40
1
 40
1
 10
74.780510
 20
335.821304
 30
0.0
 10
78.758566
 20
366.840887
 30
0.0
 10
90.760889
 20
396.285864
 30
0.0
 10
109.601670
 20
421.247124
 30
0.0
  0
SPLINE
  5
138
100
AcDbEntity
  8
tree
 62
7
100
AcDbSpline
 70
8
 71
3
 72
8
 73
4
 74
0
 40
0
 40
0
 40
0
 40
0
 40
1
 40
1
 40
1
 40
1
 10
109.601670
 20
421.247124
 30
0.0
 10
128.538712
 20
446.124349
 30
0.0
 10
153.636990
 20
465.632044
 30
0.0
 10
182.418193
 20
477.843933
 30
0.0
  0
LINE
  5
139
100
AcDbEntity
  8
tree
 62
7
100
AcDbLine
 10
182.418193
 20
477.843933
 30
0.0
 11
157.765284
 21
496.549763
 31
0.0
  0
SPLINE
  5
13a
100
AcDbEntity
  8
tree
 62
7
100
AcDbSpline
 70
8
 71
3
 72
8
 73
4
 74
0
 40
0
 40
0
 40
0
 40
0
 40
1
 40
1
 40
1
 40
1
 10
157.765284
 20
496.549763
 30
0.0
 10
130.332580
 20
482.447860
 30
0.0
 10
106.393484
 20
462.400477
 30
0.0
 10
87.694117
 20
437.869871
 30
0.0
  0
SPLINE
  5
13b
100
AcDbEntity
  8
tree
 62
7
100
AcDbSpline
 70
8
 71
3
 72
8
 73
4
 74
0
 40
0
 40
0
 40
0
 40
0
 40
1
 40
1
 40
1
 40
1
 10
87.694117
 20
437.869871
 30
0.0
 10
69.117443
 20
413.240271
 30
0.0
 10
56.273533
 20
384.774162
 30
0.0
 10
50.099503
 20
354.548487
 30
0.0
  0
LINE
  5
13c
100
AcDbEntity
  8
tree
 62
7
100
AcDbLine
 10
50.099503
 20
354.548487
 30
0.0
 11
50.099503
 21
354.548487
 31
0.0
  0
LINE
  5
13d
100
AcDbEntity
  8
tree
 62
7
100
AcDbLine
 10
461.831549
 20
116.052813
 30
0.0
 11
449.408585
 21
144.434657
 31
0.0
  0
SPLINE
  5
13e
100
AcDbEntity
  8
tree
 62
7
100
AcDbSpline
 70
8
 71
3
 72
8
 73
4
 74
0
 40
0
 40
0
 40
0
 40
0
 40
1
 40
1
 40
1
 40
1
 10
449.408585
 20
144.434657
 30
0.0
 10
430.815768
 20
119.288153
 30
0.0
 10
405.983861
 20
99.427669
 30
0.0
 10
377.366212
 20
86.815385
 30
0.0
  0
SPLINE
  5
13f
100
AcDbEntity
  8
tree
 62
7
100
AcDbSpline
 70
8
 71
3
 72
8
 73
4
 74
0
 40
0
 40
0
 40
0
 40
0
 40
1
 40
1
 40
1
 40
1
 10
377.366212
 20
86.815385
 30
0.0
 10
348.705483
 20
74.323388
 30
0.0
 10
317.282097
 20
69.522969
 30
0.0
 10
286.198934
 20
72.888141
 30
0.0
  0
LINE
  5
140
100
AcDbEntity
  8
tree
 62
7
100
AcDbLine
 10
286.198934
 20
72.888141
 30
0.0
 11
298.607730
 21
44.538637
 31
0.0
  0
SPLINE
  5
141
100
AcDbEntity
  8
tree
 62
7
100
AcDbSpline
 70
8
 71
3
 72
8
 73
4
 74
0
 40
0
 40
0
 40
0
 40
0
 40
1
 40
1
 40
1
 40
1
 10
298.607730
 20
44.538637
 30
0.0
 10
329.434648
 20
43.481034
 30
0.0
 10
360.108932
 20
49.317689
 30
0.0
 10
388.393199
 20
61.622875
 30
0.0
  0
SPLINE
  5
142
100
AcDbEntity
  8
tree
 62
7
100
AcDbSpline
 70
8
 71
3
 72
8
 73
4
 74
0
 40
0
 40
0
 40
0
 40
0
 40
1
 40
1
 40
1
 40
1
 10
388.393199
 20
61.622875
 30
0.0
 10
416.618583
 20
74.074296
 30
0.0
 10
441.708230
 20
92.669866
 30
0.0
 10
461.831549
 20
116.052813
 30
0.0
  0
LINE
  5
143
100
AcDbEntity
  8
tree
 62
7
100
AcDbLine
 10
461.831549
 20
116.052813
 30
0.0
 11
461.831549
 21
116.052813
 31
0.0
  0
LINE
  5
144
100
AcDbEntity
  8
tree
 62
7
100
AcDbLine
 10
271.438934
 20
46.374189
 30
0.0
 11
283.935826
 21
74.723560
 31
0.0
  0
SPLINE
  5
145
100
AcDbEntity
  8
tree
 62
7
100
AcDbSpline
 70
8
 71
3
 72
8
 73
4
 74
0
 40
0
 40
0
 40
0
 40
0
 40
1
 40
1
 40
1
 40
1
 10
283.935826
 20
74.723560
 30
0.0
 10
252.838903
 20
71.403865
 30
0.0
 10
221.413921
 20
76.254883
 30
0.0
 10
192.765609
 20
88.797343
 30
0.0
  0
SPLINE
  5
146
100
AcDbEntity
  8
tree
 62
7
100
AcDbSpline
 70
8
 71
3
 72
8
 73
4
 74
0
 40
0
 40
0
 40
0
 40
0
 40
1
 40
1
 40
1
 40
1
 10
192.765609
 20
88.797343
 30
0.0
 10
164.176723
 20
101.452920
 30
0.0
 10
139.383162
 20
121.346468
 30
0.0
 10
120.833152
 20
146.513612
 30
0.0
  0
LINE
  5
147
100
AcDbEntity
  8
tree
 62
7
100
AcDbLine
 10
120.833152
 20
146.513612
 30
0.0
 11
108.350466
 21
118.196545
 31
0.0
  0
SPLINE
  5
148
100
AcDbEntity
  8
tree
 62
7
100
AcDbSpline
 70
8
 71
3
 72
8
 73
4
 74
0
 40
0
 40
0
 40
0
 40
0
 40
1
 40
1
 40
1
 40
1
 10
108.350466
 20
118.196545
 30
0.0
 10
128.426487
 20
94.779221
 30
0.0
 10
153.476382
 20
76.138369
 30
0.0
 10
181.673010
 20
63.633655
 30
0.0
  0
SPLINE
  5
149
100
AcDbEntity
  8
tree
 62
7
100
AcDbSpline
 70
8
 71
3
 72
8
 73
4
 74
0
 40
0
 40
0
 40
0
 40
0
 40
1
 40
1
 40
1
 40
1
 10
181.673010
 20
63.633655
 30
0.0
 10
209.937491
 20
51.271236
 30
0.0
 10
240.605328
 20
45.374672
 30
0.0
 10
271.438934
 20
46.374189
 30
0.0
  0
LINE
  5
14a
100
AcDbEntity
  8
tree
 62
7
100
AcDbLine
 10
271.438934
 20
46.374189
 30
0.0
 11
271.438934
 21
46.374189
 31
0.0
  0
LINE
  5
14b
100
AcDbEntity
  8
tree
 62
7
100
AcDbLine
 10
15.998653
 20
197.177556
 30
0.0
 11
15.998653
 21
197.177556
 31
0.0
  0
SPLINE
  5
14c
100
AcDbEntity
  8
tree
 62
7
100
AcDbSpline
 70
8
 71
3
 72
8
 73
4
 74
0
 40
0
 40
0
 40
0
 40
0
 40
1
 40
1
 40
1
 40
1
 10
15.998653
 20
197.177556
 30
0.0
 10
22.860577
 20
142.640814
 30
0.0
 10
51.105668
 20
93.064261
 30
0.0
 10
94.520491
 20
59.353452
 30
0.0
  0
SPLINE
  5
14d
100
AcDbEntity
  8
tree
 62
7
100
AcDbSpline
 70
8
 71
3
 72
8
 73
4
 74
0
 40
0
 40
0
 40
0
 40
0
 40
1
 40
1
 40
1
 40
1
 10
94.520491
 20
59.353452
 30
0.0
 10
137.935300
 20
25.642782
 30
0.0
 10
192.963490
 20
10.559114
 30
0.0
 10
247.499551
 20
17.420816
 30
0.0
  0
LINE
  5
14e
100
AcDbEntity
  8
tree
 62
7
100
AcDbLine
 10
247.499551
 20
17.420816
 30
0.0
 11
247.500256
 21
17.420904
 31
0.0
  0
LINE
  5
14f
100
AcDbEntity
  8
tree
 62
7
100
AcDbLine
 10
247.500256
 20
17.420904
 30
0.0
 11
246.563995
 21
24.862060
 31
0.0
  0
LINE
  5
150
100
AcDbEntity
  8
tree
 62
7
100
AcDbLine
 10
246.563995
 20
24.862060
 30
0.0
 11
246.563289
 21
24.861971
 31
0.0
  0
SPLINE
  5
151
100
AcDbEntity
  8
tree
 62
7
100
AcDbSpline
 70
8
 71
3
 72
8
 73
4
 74
0
 40
0
 40
0
 40
0
 40
0
 40
1
 40
1
 40
1
 40
1
 10
246.563289
 20
24.861971
 30
0.0
 10
194.000737
 20
18.248532
 30
0.0
 10
140.963819
 20
32.786345
 30
0.0
 10
99.120064
 20
65.277257
 30
0.0
  0
SPLINE
  5
152
100
AcDbEntity
  8
tree
 62
7
100
AcDbSpline
 70
8
 71
3
 72
8
 73
4
 74
0
 40
0
 40
0
 40
0
 40
0
 40
1
 40
1
 40
1
 40
1
 10
99.120064
 20
65.277257
 30
0.0
 10
57.276340
 20
97.768179
 30
0.0
 10
30.053357
 20
145.550708
 30
0.0
 10
23.439867
 20
198.113242
 30
0.0
  0
LINE
  5
153
100
AcDbEntity
  8
tree
 62
7
100
AcDbLine
 10
23.439867
 20
198.113242
 30
0.0
 11
23.439867
 21
198.113242
 31
0.0
  0
LINE
  5
154
100
AcDbEntity
  8
tree
 62
7
100
AcDbLine
 10
23.439867
 20
198.113242
 30
0.0
 11
23.439867
 21
198.113242
 31
0.0
  0
LINE
  5
155
100
AcDbEntity
  8
tree
 62
7
100
AcDbLine
 10
23.439867
 20
198.113242
 30
0.0
 11
15.998653
 21
197.177556
 31
0.0
  0
ENDSEC
  0
SECTION
  2
OBJECTS
  0
DICTIONARY
  5
C
330
0
100
AcDbDictionary
  3
ACAD_GROUP
350
D
  3
ACAD_MLINESTYLE
350
17
  0
DICTIONARY
  5
D
330
C
100
AcDbDictionary
  0
DICTIONARY
  5
1A
330
C
100
AcDbDictionary
  0
DICTIONARY
  5
17
330
C
100
AcDbDictionary
  3
STANDARD
350
18
  0
DICTIONARY
  5
19
330
C
100
AcDbDictionary
  0
ENDSEC
  0
EOF
