<?xml version="1.0" encoding="UTF-8" standalone="no"?>
<!-- Created with Inkscape (http://www.inkscape.org/) -->

<svg
   xmlns:dc="http://purl.org/dc/elements/1.1/"
   xmlns:cc="http://creativecommons.org/ns#"
   xmlns:rdf="http://www.w3.org/1999/02/22-rdf-syntax-ns#"
   xmlns:svg="http://www.w3.org/2000/svg"
   xmlns="http://www.w3.org/2000/svg"
   xmlns:sodipodi="http://sodipodi.sourceforge.net/DTD/sodipodi-0.dtd"
   xmlns:inkscape="http://www.inkscape.org/namespaces/inkscape"
   width="36.01899mm"
   height="24.170357mm"
   viewBox="0 0 36.01899 24.170357"
   version="1.1"
   id="svg437"
   inkscape:version="0.92.1 r15371"
   sodipodi:docname="Anticipa.svg">
  <defs
     id="defs431" />
  <sodipodi:namedview
     id="base"
     pagecolor="#ffffff"
     bordercolor="#666666"
     borderopacity="1.0"
     inkscape:pageopacity="0.0"
     inkscape:pageshadow="2"
     inkscape:zoom="1.1798828"
     inkscape:cx="217.6189"
     inkscape:cy="-29.9743"
     inkscape:document-units="mm"
     inkscape:current-layer="layer1"
     showgrid="false"
     fit-margin-top="0"
     fit-margin-left="0"
     fit-margin-right="0"
     fit-margin-bottom="0"
     inkscape:window-width="1920"
     inkscape:window-height="995"
     inkscape:window-x="1280"
     inkscape:window-y="0"
     inkscape:window-maximized="1" />
  <metadata
     id="metadata434">
    <rdf:RDF>
      <cc:Work
         rdf:about="">
        <dc:format>image/svg+xml</dc:format>
        <dc:type
           rdf:resource="http://purl.org/dc/dcmitype/StillImage" />
        <dc:title></dc:title>
      </cc:Work>
    </rdf:RDF>
  </metadata>
  <g
     inkscape:label="Calque 1"
     inkscape:groupmode="layer"
     id="layer1"
     transform="translate(-44.330704,-116.73228)">
    <path
       style="color:#000000;font-style:normal;font-variant:normal;font-weight:normal;font-stretch:normal;font-size:medium;line-height:normal;font-family:sans-serif;text-indent:0;text-align:start;text-decoration:none;text-decoration-line:none;text-decoration-style:solid;text-decoration-color:#000000;letter-spacing:normal;word-spacing:normal;text-transform:none;writing-mode:lr-tb;direction:ltr;baseline-shift:baseline;text-anchor:start;white-space:normal;clip-rule:nonzero;display:inline;overflow:visible;visibility:visible;opacity:1;isolation:auto;mix-blend-mode:normal;color-interpolation:sRGB;color-interpolation-filters:linearRGB;solid-color:#000000;solid-opacity:1;fill:none;fill-opacity:1;fill-rule:nonzero;stroke:#ff0000;stroke-width:0.25458622;stroke-linecap:butt;stroke-linejoin:miter;stroke-miterlimit:4;stroke-dasharray:none;stroke-dashoffset:0;stroke-opacity:1;color-rendering:auto;image-rendering:auto;shape-rendering:auto;text-rendering:auto;enable-background:accumulate"
       d="m 76.27286,116.85957 c -0.422204,0 -0.731435,0.20272 -0.903901,0.59324 -0.16541,0.3745 -0.110773,0.81539 0.139615,1.12383 0.166172,0.2047 0.323144,0.30133 0.569185,0.35016 0.336439,0.0668 0.649253,-0.0322 0.884711,-0.28048 0.319476,-0.33683 0.373295,-0.78432 0.23354,-1.14655 -0.139758,-0.36226 -0.473599,-0.6402 -0.92315,-0.6402 z m 0,0.0432 c 0.433607,0 0.751218,0.26607 0.88519,0.61326 0.133972,0.34725 0.08379,0.77473 -0.224507,1.09982 -0.226568,0.23893 -0.523438,0.333 -0.848191,0.26854 -0.239691,-0.0476 -0.38354,-0.13606 -0.545676,-0.33582 -0.239776,-0.29531 -0.292412,-0.71797 -0.133633,-1.07752 0.166933,-0.37795 0.456832,-0.56828 0.866817,-0.56828 z m -21.572614,12.30116 c 1.43637,0.004 3.420449,0.007 5.605582,0.007 h 6.603944 m 1.362456,0 v -1.18666 -1.14342 h 0.187903 c 0.271695,0 0.958088,-0.14679 1.242229,-0.26492 0.680269,-0.28274 1.176839,-0.63684 1.664011,-1.18678 0.55036,-0.62122 0.916488,-1.38619 1.060392,-2.2157 l 0.06243,-0.35972 0.210765,0.1101 c 0.805603,0.42099 1.761855,0.14944 2.281708,-0.64728 0.333955,-0.51172 0.384022,-1.27798 0.120708,-1.84203 m -0.855955,-0.89654 c -0.262493,-0.13106 -0.31146,-0.14049 -0.756523,-0.14049 -0.214659,0 -0.338471,0.004 -0.437841,0.0189 -0.09937,0.0169 -0.173087,0.0478 -0.284141,0.10267 -0.289843,0.14312 -0.548076,0.35642 -0.686506,0.56944 l -0.07984,0.12271 -0.186153,-0.31891 c -0.242881,-0.41614 -0.797532,-1.01998 -1.178927,-1.28326 -0.718143,-0.49578 -1.510482,-0.76133 -2.313517,-0.77795 l 1.98e-4,-0.01 c -0.114724,-0.004 -0.229673,0 -0.34465,0.008 -1.749326,0.11924 -3.242197,1.32408 -3.79888,3.06606 -0.277425,0.86809 -0.279626,1.97858 -0.0054,2.83498 0.02258,0.0708 0.04208,0.13643 0.05498,0.18475 0.0065,0.024 0.01129,0.0442 0.01411,0.0578 0,0.004 0,0.004 0,0.006 -0.0051,0.004 -0.01016,0.005 -0.01834,0.008 -0.0206,0.009 -0.05122,0.0223 -0.09119,0.0399 -0.07995,0.0347 -0.197471,0.0857 -0.348573,0.15091 -0.302203,0.13058 -0.738575,0.31868 -1.276604,0.55033 -1.076028,0.46332 -2.558767,1.10084 -4.188459,1.80066 -1.629693,0.69988 -3.113645,1.33864 -4.191621,1.80394 -0.539017,0.23269 -0.976461,0.42195 -1.279963,0.55386 -0.151751,0.066 -0.270002,0.11763 -0.350745,0.15313 -0.04036,0.0175 -0.07132,0.0315 -0.09246,0.041 -0.01044,0.005 -0.01863,0.008 -0.02427,0.011 -0.0031,0.004 -0.0051,0.004 -0.0068,0.004 0,0 0,0.004 -0.0028,0.004 0,0 0,0 0,0.004 0,0 -0.004,0.004 -0.004,0.004 -5.7e-5,0 0.0028,0.0329 0.0028,0.0329 5.6e-5,0 0.0059,0.004 0.0071,0.004 0.0028,0.004 0.0031,0.004 0.0045,0.004 0.0028,0 0.0051,0 0.0085,0.004 0.0068,0 0.01693,0.004 0.03034,0.004 0.02681,0.004 0.0666,0.004 0.119097,0.004 0.105015,0.004 0.260435,0.004 0.460954,0.004 m 3.361266,1.72938 0.01185,2.77241 0.01157,2.75494 0.129173,0.33573 c 0.354076,0.9203 1.132276,1.57734 2.016563,1.70098 0.07047,0.0102 0.258007,0.0203 0.421696,0.0237 l 0.317641,0.007 v -0.42683 -0.42574 l -0.418648,-0.0183 c -0.34211,-0.0147 -0.431151,-0.0351 -0.667738,-0.15192 -0.518414,-0.25642 -0.901051,-0.76493 -1.000845,-1.3287 -0.02201,-0.12418 -0.04075,-0.41156 -0.04075,-0.63252 v -0.38243 h 1.043545 1.084439 v -0.43147 -0.43151 h -1.084439 -1.043545 v -1.66128 -1.70439 h -0.3902 -0.39037 z m 3.849793,0.0431 v 0.40995 0.4099 h 0.409251 0.409222 v -0.4099 -0.40995 h -0.409225 z m 7.325219,0 v 0.40995 0.4099 h 0.388789 0.388761 v -0.4099 -0.40995 h -0.388761 z m -7.325219,2.20062 v 2.67527 2.6753 h 0.409251 0.409222 v -2.67531 -2.67527 h -0.409225 z m 7.325219,0 v 2.67527 2.6753 h 0.388789 0.388761 v -2.67531 -2.67527 h -0.388761 z m -3.012384,0.004 c -0.205401,-0.006 -0.415007,0.0144 -0.626476,0.0617 -0.915642,0.20459 -1.66926,0.97889 -1.905,1.95665 -0.141083,0.58521 -0.04315,1.39547 0.235232,1.95083 0.336296,0.67096 1.106029,1.22708 1.867916,1.35122 0.22716,0.037 0.814804,-0.0104 1.052491,-0.0843 0.375638,-0.11675 0.773712,-0.36401 1.075013,-0.66739 l 0.2967,-0.29871 -0.278074,-0.31448 -0.278299,-0.31502 -0.271695,0.27303 c -0.140321,0.14097 -0.321988,0.2987 -0.396353,0.34592 -0.36624,0.23255 -0.949932,0.291 -1.382353,0.13747 -0.844098,-0.29989 -1.356727,-1.23735 -1.162783,-2.1244 0.153811,-0.7035 0.781078,-1.30884 1.457169,-1.40629 0.529731,-0.0764 0.981654,0.0804 1.433181,0.4988 0.07885,0.073 0.152936,0.13948 0.209014,0.18796 0.02794,0.024 0.05151,0.0439 0.06906,0.0578 0.0087,0.007 0.01609,0.0124 0.02201,0.0164 0.0031,0.004 0.0056,0.004 0.0082,0.005 0.0028,0.004 0.004,0.004 0.01242,0.004 0.0093,0 0.01101,-0.004 0.01383,-0.004 0.0031,-0.004 0.0054,-0.004 0.0082,-0.005 0.0056,-0.004 0.01242,-0.01 0.02032,-0.0172 0.01609,-0.0138 0.03748,-0.0344 0.06291,-0.0593 0.05083,-0.0498 0.117715,-0.11822 0.188609,-0.19366 l 0.272091,-0.28945 -0.330116,-0.32503 c -0.478508,-0.47117 -1.057148,-0.72489 -1.673352,-0.74253 z m 13.284934,0.0158 c -1.181496,-0.0571 -2.309791,0.80812 -2.582391,2.02627 -0.0696,0.3118 -0.06948,0.95039 0,1.26134 0.218469,0.97177 1.034825,1.80351 1.963026,2.00005 v 0 0 h 0.0048 c 0.06446,0.013 0.179154,0.0223 0.32354,0.0286 0.146614,0.007 0.320802,0.009 0.493014,0.009 0.172156,0 0.342223,-0.004 0.480597,-0.0104 0.138345,-0.006 0.242909,-0.0152 0.292608,-0.0297 0.09093,-0.0265 0.27731,-0.13143 0.425365,-0.23611 l 0.234667,-0.16589 v 0.19296 0.25504 h 0.38879 0.38876 v -1.49944 c 0,-0.82804 -0.0059,-1.29199 -0.04126,-1.61237 -0.03525,-0.32043 -0.101121,-0.49769 -0.219401,-0.74532 -0.205091,-0.42945 -0.475289,-0.75788 -0.829648,-1.00784 -0.374028,-0.26374 -0.648801,-0.37592 -1.085652,-0.44326 -0.07899,-0.0121 -0.157988,-0.02 -0.236757,-0.0243 z m -24.902498,0.005 c -0.254987,0 -0.510032,0.0271 -0.681143,0.0809 -0.672648,0.21206 -1.265287,0.7191 -1.556992,1.33345 -0.132644,0.27926 -0.203341,0.44771 -0.239634,0.75737 -0.03629,0.30971 -0.039,0.76025 -0.039,1.61166 v 1.54426 h 0.388761 0.388789 v -1.40465 c 0,-0.79592 0.0071,-1.24962 0.04572,-1.55374 0.03852,-0.30407 0.107019,-0.45788 0.233285,-0.66314 0.20066,-0.32614 0.438771,-0.54655 0.768209,-0.71115 0.249654,-0.12474 0.295571,-0.13332 0.692009,-0.13332 0.398243,0 0.44148,0.008 0.697455,0.13601 0.3799,0.18979 0.684756,0.50596 0.871193,0.90356 l 0.150114,0.31995 0.01242,1.54015 0.0127,1.56633 h 0.386221 0.386447 V 136.964 c 0,-1.24641 -0.01157,-1.5938 -0.06325,-1.80301 -0.214997,-0.87037 -0.909885,-1.60596 -1.77247,-1.87788 -0.171111,-0.054 -0.426071,-0.0809 -0.681058,-0.0809 z m -6.054597,0.0263 c -0.285412,0.0144 -0.566364,0.0622 -0.754042,0.13874 -0.719553,0.29323 -1.27618,0.88248 -1.519258,1.60935 -0.126492,0.37817 -0.156859,1.11015 -0.06412,1.52699 0.195552,0.87873 0.946291,1.70919 1.757059,1.94293 0.104733,0.0301 0.343126,0.0687 0.535517,0.0871 0,0 0.0028,8e-5 0.0028,0 0.19795,0.0189 0.460558,0.0223 0.701914,0.0133 0.242034,-0.009 0.461067,-0.0293 0.574774,-0.0611 0.08746,-0.0243 0.256399,-0.1202 0.386927,-0.21661 0.06423,-0.0475 0.12477,-0.0906 0.170321,-0.12178 0.02286,-0.0152 0.0418,-0.0282 0.05546,-0.0367 0,-0.004 0.0028,-0.004 0.0037,-0.004 0,0.01 0.0031,0.0214 0.0045,0.0383 0.0031,0.0401 0.0054,0.0963 0.0054,0.1581 l -5.7e-5,0.24887 0.389636,-0.0144 0.388141,-0.0147 v -1.52584 c 0,-0.45537 -0.0045,-0.85435 -0.01214,-1.15695 -0.0076,-0.30265 -0.01806,-0.50605 -0.03262,-0.58109 -0.0254,-0.13078 -0.120904,-0.39599 -0.214122,-0.59744 -0.307234,-0.66439 -0.916128,-1.18809 -1.597977,-1.37475 -0.205402,-0.0563 -0.495244,-0.0749 -0.780655,-0.0604 z m 24.920079,0.0172 c -0.474443,0 -0.597548,0.015 -0.83851,0.10293 -0.597549,0.21751 -1.153865,0.73556 -1.431431,1.3331 -0.1224,0.26371 -0.185476,0.40093 -0.21621,0.82962 -0.03071,0.42867 -0.03062,1.1511 -0.03062,2.59783 v 2.66615 h 0.388762 0.388789 v -1.14345 -1.1003 h 1.055369 c 0.594389,0 0.932011,-0.006 1.182765,-0.043 0.250756,-0.0371 0.413993,-0.10625 0.654446,-0.2302 0.41574,-0.21438 0.897409,-0.73531 1.110515,-1.19999 0.0913,-0.19902 0.186888,-0.46885 0.214122,-0.60714 0.07293,-0.37042 0.03229,-1.13764 -0.07865,-1.46233 -0.259954,-0.76085 -0.852424,-1.3821 -1.566418,-1.6422 -0.234837,-0.0856 -0.361469,-0.10101 -0.832922,-0.10101 z m 5.990815,0.76017 c -0.268166,-0.011 -0.544153,0.0449 -0.808792,0.17808 -0.812884,0.40894 -1.209915,1.3335 -0.949931,2.21429 0.15525,0.52598 0.476899,0.9188 0.939716,1.14715 0.343548,0.16953 0.566446,0.20782 1.114832,0.19177 0.390991,-0.011 0.495131,-0.0312 0.70358,-0.13163 0.281461,-0.13569 0.437727,-0.27779 0.603224,-0.5485 0.05616,-0.0919 0.08757,-0.1498 0.103433,-0.2433 0.0158,-0.0935 0.01693,-0.22087 0.01693,-0.45876 0,-0.27516 -0.01749,-0.61143 -0.03957,-0.75325 -0.144949,-0.93317 -0.878866,-1.56362 -1.683342,-1.59585 z m -5.915123,0.004 c -0.115091,-0.005 -0.231788,0.004 -0.348713,0.0231 -0.73042,0.13194 -1.308044,0.71998 -1.461093,1.48725 -0.01383,0.0696 -0.02484,0.2323 -0.03294,0.45091 -0.0082,0.21855 -0.01298,0.49101 -0.01298,0.77258 v 1.01188 h 0.959613 c 0.26701,0 0.525497,-0.005 0.732761,-0.0138 0.207293,-0.009 0.361527,-0.02 0.42754,-0.0347 0.931135,-0.20653 1.566135,-1.15835 1.410489,-2.11638 -0.144357,-0.88855 -0.868961,-1.54404 -1.674564,-1.58087 z m -24.846786,0.004 c -0.453788,-0.006 -0.913782,0.174 -1.273023,0.55272 -0.97852,1.03177 -0.508874,2.75838 0.850844,3.13041 0.134479,0.0368 0.397284,0.0523 0.721727,0.0447 0.424801,-0.01 0.551688,-0.0293 0.72184,-0.10987 0.283181,-0.1342 0.448451,-0.27644 0.599298,-0.51655 l 0.131253,-0.20906 v -0.61575 c 0,-0.7011 -0.05867,-1.01052 -0.260406,-1.36595 -0.335026,-0.5903 -0.908106,-0.90371 -1.491516,-0.91096 z m 30.761036,0.0359 c 0.785762,0.0311 1.502013,0.6468 1.643888,1.56012 0.02088,0.13448 0.03897,0.47304 0.03897,0.74626 0,0.23768 -0.0028,0.36412 -0.01638,0.45116 -0.01468,0.087 -0.04185,0.13639 -0.09757,0.22752 -0.162758,0.26625 -0.308864,0.39909 -0.585809,0.53267 -0.20574,0.0992 -0.297717,0.11622 -0.687691,0.12768 -0.546325,0.0161 -0.756751,-0.02 -1.096375,-0.18768 -0.45311,-0.22361 -0.765726,-0.60517 -0.917956,-1.12087 -0.254059,-0.86078 0.132558,-1.76212 0.92851,-2.16256 0.258686,-0.13016 0.52832,-0.18469 0.790249,-0.1743 z m -5.915859,0.004 c 0.786075,0.0361 1.494819,0.67665 1.635901,1.54502 0.151722,0.93402 -0.468601,1.86498 -1.378599,2.0668 -0.05718,0.013 -0.214235,0.0251 -0.420822,0.0336 -0.206587,0.009 -0.464593,0.0141 -0.731097,0.0141 h -0.918688 v -0.96875 c 0,-0.28101 0.0048,-0.55308 0.01298,-0.77087 0.0082,-0.21782 0.02004,-0.38334 0.03212,-0.44362 0.149662,-0.75029 0.713907,-1.32464 1.427901,-1.45364 0.114019,-0.0203 0.227952,-0.0277 0.340249,-0.0226 z"
       id="path4716-7-8"
       inkscape:connector-curvature="0"
       sodipodi:nodetypes="ssccccsscccccscsccccsccccccccscccccccccscccccccsscsccccscsccsccccccccccccccccsccccccccccccccccccccccccccccccccccccccccccccccccccsccccccccccscscccccccccccsccccccccccsscccccccccsccccsccsscccscccscccccccsccssccssccccccccccccccsscccccsccsscccccsccccscsccccccccccccccccscsscccccccccccsccccsccccccccccsccscsscccc" />
  </g>
</svg>
