<?xml version="1.0" encoding="UTF-8" standalone="no"?>
<!-- Created with Inkscape (http://www.inkscape.org/) -->

<svg
   xmlns:dc="http://purl.org/dc/elements/1.1/"
   xmlns:cc="http://creativecommons.org/ns#"
   xmlns:rdf="http://www.w3.org/1999/02/22-rdf-syntax-ns#"
   xmlns:svg="http://www.w3.org/2000/svg"
   xmlns="http://www.w3.org/2000/svg"
   xmlns:sodipodi="http://sodipodi.sourceforge.net/DTD/sodipodi-0.dtd"
   xmlns:inkscape="http://www.inkscape.org/namespaces/inkscape"
   width="34.451946mm"
   height="26.021208mm"
   viewBox="0 0 34.451946 26.021208"
   version="1.1"
   id="svg563"
   inkscape:version="0.92.1 r15371"
   sodipodi:docname="coop22.svg">
  <defs
     id="defs557" />
  <sodipodi:namedview
     id="base"
     pagecolor="#ffffff"
     bordercolor="#666666"
     borderopacity="1.0"
     inkscape:pageopacity="0.0"
     inkscape:pageshadow="2"
     inkscape:zoom="1.1798828"
     inkscape:cx="85.831851"
     inkscape:cy="48.94764"
     inkscape:document-units="mm"
     inkscape:current-layer="layer1"
     showgrid="false"
     fit-margin-top="0"
     fit-margin-left="0"
     fit-margin-right="0"
     fit-margin-bottom="0"
     inkscape:window-width="1920"
     inkscape:window-height="995"
     inkscape:window-x="1280"
     inkscape:window-y="0"
     inkscape:window-maximized="1" />
  <metadata
     id="metadata560">
    <rdf:RDF>
      <cc:Work
         rdf:about="">
        <dc:format>image/svg+xml</dc:format>
        <dc:type
           rdf:resource="http://purl.org/dc/dcmitype/StillImage" />
        <dc:title></dc:title>
      </cc:Work>
    </rdf:RDF>
  </metadata>
  <g
     inkscape:label="Calque 1"
     inkscape:groupmode="layer"
     id="layer1"
     transform="translate(-79.199361,-135.76286)">
    <path
       style="color:#000000;font-style:normal;font-variant:normal;font-weight:normal;font-stretch:normal;font-size:medium;line-height:normal;font-family:sans-serif;text-indent:0;text-align:start;text-decoration:none;text-decoration-line:none;text-decoration-style:solid;text-decoration-color:#000000;letter-spacing:normal;word-spacing:normal;text-transform:none;writing-mode:lr-tb;direction:ltr;baseline-shift:baseline;text-anchor:start;white-space:normal;clip-rule:nonzero;display:inline;overflow:visible;visibility:visible;opacity:1;isolation:auto;mix-blend-mode:normal;color-interpolation:sRGB;color-interpolation-filters:linearRGB;solid-color:#000000;solid-opacity:1;fill:none;fill-opacity:1;fill-rule:nonzero;stroke:#ff0000;stroke-width:0.24556834;stroke-linecap:butt;stroke-linejoin:miter;stroke-miterlimit:4;stroke-dasharray:none;stroke-dashoffset:0;stroke-opacity:1;color-rendering:auto;image-rendering:auto;shape-rendering:auto;text-rendering:auto;enable-background:accumulate"
       d="m 96.149667,135.88564 c -2.441448,0 -5.112116,1.20878 -6.795798,3.07472 -1.42223,1.57624 -2.292773,3.71679 -2.292773,5.64041 0,0.22315 0.0031,0.34042 0.02117,0.42365 0.02032,0.0833 0.06251,0.12914 0.134225,0.19812 0.187226,0.18002 0.456748,0.19927 0.659356,0.0461 0.09093,-0.0688 0.151468,-0.15463 0.190641,-0.29949 0.03917,-0.14492 0.05938,-0.34979 0.0753,-0.66633 0.09415,-1.86856 0.984645,-3.72736 2.451833,-5.11612 1.438035,-1.36119 3.315772,-2.15697 5.364931,-2.2733 0.327491,-0.0186 0.491631,-0.0277 0.596787,-0.0528 0.105241,-0.0254 0.149719,-0.0704 0.221799,-0.14803 0.083,-0.0893 0.131628,-0.17746 0.143425,-0.27144 0.01157,-0.094 -0.01355,-0.19177 -0.07174,-0.29998 -0.05588,-0.10385 -0.116953,-0.17159 -0.22129,-0.20892 -0.104281,-0.0373 -0.248215,-0.0465 -0.477831,-0.0465 z m 3.910613,1.42226 c -0.521548,0.009 -1.034966,0.22995 -1.471818,0.63457 -0.07078,0.0655 -0.124178,0.11597 -0.159935,0.16231 -0.03576,0.0463 -0.05421,0.0913 -0.04733,0.13888 0.0068,0.0476 0.03652,0.0936 0.08568,0.14949 0.04919,0.0558 0.119097,0.12212 0.211779,0.2089 0.08585,0.0804 0.149098,0.13256 0.20035,0.16163 0.02568,0.0144 0.0484,0.0237 0.07084,0.026 0.02258,0.003 0.04448,-0.003 0.06158,-0.0152 0.03748,-0.0265 0.178929,-0.12867 0.315243,-0.22736 0.404509,-0.293 0.788781,-0.34194 1.170231,-0.15232 0.16533,0.0822 0.2706,0.23397 0.30813,0.41933 0.0375,0.18531 0.006,0.40369 -0.10326,0.6144 -0.0254,0.0486 -0.13609,0.20551 -0.2947,0.41735 -0.15858,0.2118 -0.36635,0.48189 -0.591226,0.76922 -0.449664,0.57461 -0.967711,1.21824 -1.29667,1.60192 -0.140885,0.16431 -0.218157,0.26049 -0.250754,0.34138 -0.03254,0.0809 -0.01411,0.14582 0.03054,0.22547 0.01383,0.0248 0.03596,0.0496 0.08015,0.0642 0.04425,0.0144 0.110574,0.0231 0.226031,0.0295 0.230943,0.0121 0.658368,0.0133 1.477069,0.0133 0.63082,0 1.062,-0.004 1.34168,-0.013 0.13987,-0.005 0.24175,-0.0104 0.31237,-0.0181 0.0354,-0.004 0.0628,-0.008 0.0839,-0.013 0.0215,-0.005 0.0361,-0.009 0.0491,-0.0212 0.0164,-0.0155 0.0257,-0.037 0.034,-0.0635 0.008,-0.0265 0.015,-0.0584 0.02,-0.0942 0.0104,-0.0715 0.0152,-0.15861 0.0144,-0.24531 -0.003,-0.0867 -0.007,-0.17305 -0.0183,-0.24305 -0.005,-0.035 -0.0127,-0.0659 -0.022,-0.0913 -0.009,-0.0257 -0.0186,-0.0459 -0.0364,-0.0601 -0.0116,-0.009 -0.0234,-0.0127 -0.04,-0.0169 -0.0164,-0.005 -0.037,-0.008 -0.0619,-0.0119 -0.0498,-0.007 -0.11701,-0.0138 -0.20013,-0.0195 -0.16623,-0.0116 -0.39598,-0.0198 -0.67313,-0.024 l -0.84122,-0.0127 0.32713,-0.39921 c 0.65275,-0.79626 1.18883,-1.50255 1.34823,-1.77885 0.32317,-0.56004 0.31168,-1.13936 0.0444,-1.5945 -0.26732,-0.45514 -0.78938,-0.78542 -1.48057,-0.85349 -0.0746,-0.008 -0.14929,-0.0102 -0.2238,-0.009 z m 4.23782,0.006 c -0.25386,0.02 -0.50972,0.0861 -0.75277,0.2021 -0.22538,0.10755 -0.43544,0.24056 -0.59019,0.36666 -0.0774,0.063 -0.14094,0.12423 -0.1859,0.18042 -0.045,0.0562 -0.0728,0.10708 -0.0728,0.1548 0,0.0454 0.0262,0.0959 0.0704,0.15534 0.0442,0.0594 0.10795,0.12683 0.18842,0.19913 0.0693,0.0623 0.13622,0.11902 0.18863,0.16039 0.0263,0.0206 0.0487,0.0374 0.0665,0.0495 0.009,0.006 0.0164,0.0107 0.0234,0.0144 0.007,0.004 0.0104,0.008 0.0243,0.008 0.011,0 0.0155,-0.003 0.022,-0.006 0.007,-0.003 0.0136,-0.007 0.0217,-0.011 0.0164,-0.009 0.0363,-0.0223 0.0596,-0.0379 0.0465,-0.0315 0.10521,-0.0746 0.16553,-0.12218 0.12558,-0.0989 0.27415,-0.18838 0.4128,-0.25284 0.13869,-0.0645 0.26865,-0.10341 0.35066,-0.10394 0.38442,-0.003 0.75136,0.22648 0.84213,0.51773 0.0316,0.10155 0.0477,0.18511 0.0317,0.2855 -0.0161,0.10041 -0.065,0.219 -0.16781,0.38656 -0.20552,0.33508 -0.62453,0.86352 -1.40781,1.83013 -0.37745,0.46575 -0.62459,0.77896 -0.77783,0.98958 -0.0767,0.1053 -0.12977,0.18488 -0.16429,0.24582 -0.0345,0.0609 -0.0514,0.10233 -0.0514,0.13738 0,0.0396 0.004,0.0791 0.0104,0.11202 0.003,0.0164 0.007,0.0311 0.0121,0.0438 0.004,0.0127 0.009,0.0234 0.0192,0.0328 0.008,0.008 0.0116,0.007 0.0152,0.008 0.004,0.003 0.007,0.003 0.011,0.003 0.008,0.003 0.0189,0.003 0.0319,0.003 0.0262,0.003 0.0631,0.004 0.10982,0.005 0.0933,0.003 0.22563,0.006 0.3874,0.008 0.32352,0.004 0.76483,0.004 1.24601,0.003 l 1.77343,-0.013 0.0152,-0.39268 c 0.005,-0.13389 0.004,-0.23097 -0.004,-0.3013 -0.009,-0.0704 -0.0254,-0.11625 -0.0587,-0.14292 -0.011,-0.009 -0.0234,-0.013 -0.0398,-0.0175 -0.0161,-0.005 -0.0363,-0.008 -0.0607,-0.0121 -0.0488,-0.008 -0.11441,-0.0144 -0.19628,-0.02 -0.16375,-0.0119 -0.39223,-0.02 -0.67567,-0.0243 l -0.8362,-0.0127 0.47021,-0.56933 c 0.63365,-0.76722 1.12937,-1.44167 1.29989,-1.77134 0.18895,-0.36531 0.19245,-0.97716 0.008,-1.34349 -0.32941,-0.65292 -1.07358,-1.00524 -1.83526,-0.94493 z m -8.092694,0.27649 c -0.196032,-0.003 -0.435412,0.0152 -0.694013,0.0466 -0.517172,0.0632 -1.111193,0.18638 -1.586625,0.34612 -1.742185,0.58547 -3.312216,1.86839 -4.19543,3.42801 -0.527219,0.93097 -0.831088,1.96968 -0.883525,3.02068 -0.01552,0.30946 -0.0127,0.50303 0.02653,0.63621 0.03912,0.13318 0.119549,0.20413 0.243925,0.25485 0.0939,0.0383 0.211469,0.0414 0.321874,0.0189 0.110377,-0.0226 0.214094,-0.0703 0.278384,-0.14136 0.04566,-0.0505 0.07643,-0.10863 0.09804,-0.20287 0.02173,-0.0942 0.03556,-0.22549 0.05018,-0.42937 0.150766,-2.10451 1.214885,-3.87057 3.003976,-4.98653 0.941098,-0.58697 1.97835,-0.90393 3.27406,-0.99952 0.200434,-0.0147 0.325233,-0.0279 0.414471,-0.0499 0.08927,-0.022 0.143567,-0.0544 0.193915,-0.10279 0.251291,-0.24158 0.19908,-0.62216 -0.107837,-0.7747 -0.08997,-0.0448 -0.241751,-0.0629 -0.437783,-0.0645 z m 0.142325,3.3896 c -0.150086,-0.01 -0.329071,0.003 -0.523184,0.0299 -0.388338,0.0576 -0.837297,0.18745 -1.232097,0.37281 -1.500914,0.70463 -2.418249,2.30652 -2.219678,3.87672 0.134987,1.06737 0.629468,1.95013 1.463294,2.6114 0.676797,0.53668 1.577058,0.86256 2.484035,0.89956 0.09333,0.004 0.235515,-0.038 0.331809,-0.0944 0.157621,-0.0924 0.246323,-0.23128 0.258741,-0.37615 0.01242,-0.14489 -0.05168,-0.29472 -0.191826,-0.40806 -0.05893,-0.0477 -0.119409,-0.0804 -0.20416,-0.10301 -0.08481,-0.0226 -0.193689,-0.0359 -0.354527,-0.0478 -1.610981,-0.11947 -2.877764,-1.5222 -2.751244,-3.04549 0.122711,-1.47783 1.258006,-2.57186 2.809861,-2.70725 0.160585,-0.0138 0.267857,-0.0283 0.348657,-0.0511 0.08074,-0.0226 0.1351,-0.0552 0.18353,-0.10174 0.121553,-0.11689 0.178449,-0.25783 0.169164,-0.39432 -0.009,-0.13651 -0.08469,-0.26754 -0.221065,-0.36483 -0.07976,-0.0569 -0.201281,-0.0864 -0.35131,-0.0962 z m -0.05667,1.69703 c -0.115513,0.003 -0.244263,0.0186 -0.376823,0.0478 -0.265147,0.0582 -0.54483,0.16643 -0.75898,0.30813 -0.55928,0.37011 -0.914682,0.91079 -1.017862,1.54853 -0.174216,1.0776 0.591114,2.15358 1.722515,2.42352 0.322664,0.077 0.488498,0.0804 0.884597,0.0186 l 0.02145,-0.003 v -0.003 c 0.458667,-0.0753 0.82852,-0.25298 1.167864,-0.56419 0.472637,-0.43341 0.709252,-0.91652 0.722404,-1.47805 0.0039,-0.1548 -0.01326,-0.27015 -0.06192,-0.35981 -0.04866,-0.0896 -0.129032,-0.1509 -0.243021,-0.19668 -0.07448,-0.0299 -0.127283,-0.0462 -0.180961,-0.0467 -0.05371,0 -0.105241,0.0147 -0.176135,0.0433 -0.118477,0.0476 -0.197527,0.0962 -0.250924,0.17607 -0.05337,0.0798 -0.08021,0.18686 -0.104337,0.35134 -0.107499,0.7309 -0.652357,1.1655 -1.36906,1.0944 -0.66136,-0.0656 -1.035699,-0.54852 -1.089011,-1.06253 -0.05326,-0.51407 0.214771,-1.05535 0.850109,-1.23919 0.128778,-0.0373 0.300765,-0.0678 0.370615,-0.0678 0.100386,0 0.212259,-0.0549 0.306662,-0.1316 0.09443,-0.0767 0.171591,-0.17591 0.194085,-0.27449 0.04775,-0.20907 -0.09573,-0.45457 -0.313267,-0.54195 -0.07987,-0.0321 -0.182231,-0.0457 -0.297745,-0.044 z m 8.900049,1.68526 c -0.14357,0.008 -0.28141,0.0779 -0.38159,0.20698 -0.0438,0.0563 -0.0727,0.12243 -0.0936,0.23608 -0.0215,0.11365 -0.0352,0.27624 -0.0509,0.53199 -0.1502,2.44577 -1.39455,4.5943 -3.50481,6.05096 -0.48076,0.33189 -1.442239,0.81192 -2.014106,1.00573 -0.5807,0.19668 -1.46637,0.36547 -2.218012,0.42223 -0.377106,0.0285 -0.603815,0.0545 -0.751191,0.10225 -0.14732,0.0477 -0.215392,0.12257 -0.259391,0.23379 -0.04295,0.10866 -0.05794,0.20351 -0.04075,0.29131 0.0175,0.0878 0.06649,0.16682 0.146078,0.24333 0.0725,0.0697 0.119549,0.11046 0.210509,0.12968 0.09093,0.0192 0.222645,0.0192 0.477859,0.0192 0.289419,0 0.751896,-0.0331 1.032256,-0.0735 2.788468,-0.40222 5.237198,-1.97705 6.690808,-4.30301 0.80174,-1.28281 1.29961,-2.95549 1.30009,-4.36968 0,-0.19399 -0.003,-0.30434 -0.02,-0.38317 -0.0178,-0.0788 -0.0529,-0.12499 -0.10936,-0.17929 -0.12175,-0.11704 -0.27017,-0.17239 -0.41371,-0.16496 z m -3.45347,0.015 c -0.0502,-0.006 -0.0985,-0.005 -0.14515,0.004 -0.0933,0.0189 -0.17831,0.0699 -0.25769,0.15116 -0.0507,0.0518 -0.0851,0.111 -0.11216,0.21578 -0.0268,0.10485 -0.0481,0.25666 -0.0757,0.50236 -0.19459,1.72717 -1.168033,3.06002 -2.756803,3.77585 -2.011595,0.90627 -4.454172,0.32329 -5.788913,-1.38182 -0.614709,-0.78517 -0.984166,-1.80495 -0.984166,-2.71359 0,-0.23873 -0.125702,-0.42009 -0.296869,-0.50041 -0.17114,-0.0804 -0.387548,-0.0582 -0.56007,0.10073 -0.06855,0.0631 -0.109898,0.10879 -0.131318,0.17926 -0.02145,0.0705 -0.02371,0.16183 -0.02371,0.32326 0,0.72805 0.233539,1.61459 0.614991,2.33734 0.30796,0.58344 0.579232,0.94033 1.086837,1.42973 1.003667,0.96783 2.205313,1.50298 3.659463,1.63018 0.399316,0.0349 0.496372,0.0328 1.137807,-0.0257 0.808171,-0.0738 1.770238,-0.41789 2.526199,-0.90272 0.547282,-0.35103 1.348232,-1.14404 1.687012,-1.67053 0.51915,-0.80684 0.81175,-1.67725 0.85979,-2.55922 0.0167,-0.30801 0.0178,-0.48974 -0.0226,-0.61349 -0.04,-0.12378 -0.125,-0.18494 -0.26072,-0.23944 -0.0541,-0.0217 -0.10609,-0.0361 -0.15632,-0.0427 z m 1.72457,0.003 c -0.12787,-0.003 -0.25448,0.0514 -0.35579,0.16047 -0.0604,0.065 -0.0983,0.12009 -0.12266,0.21294 -0.024,0.0928 -0.0367,0.22293 -0.0528,0.44704 -0.11881,1.6591 -0.83396,3.13481 -2.0533,4.23759 -1.132025,1.02382 -2.533766,1.60666 -4.097785,1.70386 -0.213417,0.0136 -0.355939,0.0268 -0.459402,0.0469 -0.103434,0.02 -0.168825,0.0478 -0.222447,0.0882 -0.185787,0.14055 -0.247227,0.3243 -0.176389,0.53066 0.02512,0.0731 0.05043,0.13169 0.08706,0.17845 0.03661,0.0467 0.08506,0.0805 0.150227,0.10214 0.130387,0.0433 0.327519,0.0435 0.670927,0.0298 0.335478,-0.0136 0.790222,-0.0603 1.016056,-0.10521 1.062849,-0.21116 2.07487,-0.63105 2.949053,-1.22349 0.49967,-0.33867 1.46812,-1.28567 1.82011,-1.77961 0.80032,-1.12322 1.26557,-2.42607 1.33423,-3.73775 l 0.0287,-0.54887 -0.15497,-0.16666 c -0.10532,-0.11336 -0.23305,-0.17342 -0.3609,-0.17644 z m -7.809169,9.94288 c -0.01411,0 -0.02201,0.004 -0.03539,0.009 -0.01355,0.005 -0.0302,0.0121 -0.05029,0.0214 -0.03991,0.0183 -0.0924,0.0441 -0.153642,0.0754 -0.122625,0.0627 -0.280246,0.1473 -0.439617,0.23543 -0.159399,0.0882 -0.32052,0.17978 -0.450173,0.25654 -0.129653,0.0768 -0.225693,0.13652 -0.263341,0.16903 -0.03322,0.0287 -0.05455,0.0621 -0.05108,0.10597 0.0034,0.0438 0.0254,0.0958 0.06528,0.18099 0.03167,0.0674 0.0637,0.11865 0.09835,0.15438 0.03466,0.0358 0.07374,0.0565 0.115316,0.0565 0.01214,0 0.02371,-0.003 0.04055,-0.006 0.01637,-0.004 0.037,-0.01 0.06107,-0.0178 0.04809,-0.0152 0.110659,-0.0373 0.183586,-0.0643 0.145852,-0.0541 0.333078,-0.12853 0.526852,-0.21048 0.227838,-0.0963 0.404199,-0.17716 0.524397,-0.24046 0.06011,-0.0316 0.106116,-0.0587 0.138232,-0.0819 0.01609,-0.0116 0.02867,-0.0223 0.0383,-0.0327 0.0096,-0.0104 0.01778,-0.0215 0.01778,-0.0376 0,-0.0391 -0.01806,-0.0888 -0.04468,-0.14726 -0.02653,-0.0585 -0.06237,-0.12381 -0.100697,-0.18548 -0.03833,-0.0616 -0.07899,-0.11941 -0.115767,-0.16267 -0.01834,-0.0217 -0.03559,-0.0396 -0.05207,-0.053 -0.01637,-0.0135 -0.03121,-0.0243 -0.05295,-0.0243 z m 10.432939,0.0892 c -0.10527,0.0138 -0.20738,0.0575 -0.29253,0.13589 -0.27313,0.25158 -0.23828,0.6632 0.0735,0.84597 0.19564,0.11469 0.36136,0.12059 0.56374,0.02 0.0855,-0.0426 0.1633,-0.11953 0.22079,-0.20733 0.0574,-0.0878 0.0949,-0.18652 0.0949,-0.27561 0,-0.33808 -0.34454,-0.56086 -0.6604,-0.5189 z m -2.34798,1.07832 c -0.13039,0 -0.22758,-0.003 -0.30217,0.006 -0.0746,0.007 -0.12904,0.0229 -0.16612,0.0603 -0.037,0.0374 -0.0521,0.0914 -0.0593,0.16626 -0.007,0.0749 -0.006,0.17297 -0.006,0.30451 v 0.43169 l -0.16651,0.0133 -0.21299,0.0172 v 0.38715 0.3873 l 0.20892,0.0169 0.16288,0.013 0.0164,0.83887 c 0.008,0.39675 0.0141,0.61553 0.0319,0.75766 0.0181,0.1421 0.0493,0.20938 0.10272,0.29196 0.11049,0.17074 0.27892,0.27897 0.50109,0.32258 0.22219,0.0436 0.49798,0.0243 0.83004,-0.056 0.11114,-0.0268 0.1968,-0.0496 0.2621,-0.0752 0.0653,-0.0257 0.11171,-0.0547 0.13914,-0.096 0.0274,-0.0413 0.0331,-0.0917 0.0243,-0.15257 -0.008,-0.0609 -0.0305,-0.1342 -0.0618,-0.2277 l -0.10626,-0.31801 h -0.36931 -0.32614 l -0.0133,-0.64502 -0.0138,-0.64411 h 0.31973 c 0.10171,0 0.19538,-0.006 0.2691,-0.0166 0.0369,-0.005 0.0687,-0.0119 0.0945,-0.0192 0.026,-0.008 0.0457,-0.0152 0.0606,-0.0295 0.0133,-0.0127 0.02,-0.0289 0.0274,-0.0488 0.007,-0.02 0.013,-0.044 0.0183,-0.0711 0.0104,-0.0542 0.0172,-0.12082 0.02,-0.18982 0.007,-0.13804 0,-0.28234 -0.0306,-0.35919 -0.008,-0.0192 -0.0217,-0.0367 -0.0418,-0.0493 -0.02,-0.0127 -0.0453,-0.0209 -0.0779,-0.0271 -0.0652,-0.0124 -0.16104,-0.0164 -0.30875,-0.0164 h -0.34872 v -0.36799 c 0,-0.27463 -0.003,-0.42291 -0.0711,-0.51062 -0.0343,-0.0439 -0.0851,-0.0681 -0.1511,-0.0803 -0.0661,-0.0121 -0.14884,-0.0138 -0.2562,-0.0138 z m -2.73846,0.88525 c -0.18164,0 -0.38283,0.0192 -0.60353,0.0577 -0.27765,0.0482 -0.426917,0.0766 -0.503032,0.15245 -0.03804,0.038 -0.05317,0.0878 -0.05244,0.14789 0.0031,0.0601 0.01524,0.13233 0.03711,0.22524 0.01891,0.0812 0.02822,0.14091 0.0453,0.18768 0.0175,0.0468 0.04803,0.0818 0.09943,0.0973 0.10275,0.031 0.28002,0.006 0.67933,-0.0257 0.24396,-0.0195 0.38837,-0.0183 0.47129,0.0144 0.0415,0.0164 0.0683,0.039 0.0897,0.0734 0.0215,0.0344 0.0367,0.0814 0.0493,0.143 l 0.0251,0.12276 -0.36901,-0.0243 c -0.44506,-0.0293 -0.69364,0.0234 -1.002258,0.21415 -0.620888,0.38354 -0.496767,1.38741 0.206898,1.70067 0.0454,0.02 0.11837,0.0335 0.20811,0.0425 0.0897,0.009 0.19513,0.0127 0.29972,0.009 0.30613,-0.01 0.4103,-0.0377 0.63218,-0.17032 l 0.23676,-0.14159 0.0648,0.12048 c 0.0334,0.0621 0.0633,0.10349 0.10916,0.12771 0.0459,0.0243 0.10205,0.0292 0.18562,0.0292 0.0564,0 0.11371,-0.008 0.16236,-0.0214 0.0487,-0.0133 0.0887,-0.0299 0.1123,-0.0572 0.0189,-0.022 0.0254,-0.0527 0.0326,-0.10329 0.008,-0.0505 0.0127,-0.11995 0.0164,-0.21235 0.007,-0.1848 0.007,-0.46106 0.003,-0.85561 -0.008,-0.51195 -0.0135,-0.78667 -0.0314,-0.96266 -0.0181,-0.17597 -0.0497,-0.25496 -0.10609,-0.36503 -0.11961,-0.23348 -0.32571,-0.39071 -0.61056,-0.46826 -0.14244,-0.0387 -0.30457,-0.058 -0.48624,-0.058 z m -2.302761,0.003 c -0.227556,0.0166 -0.441254,0.10349 -0.623316,0.25546 l -0.170519,0.14222 -0.04281,-0.11922 c -0.01355,-0.0369 -0.02399,-0.0659 -0.03883,-0.0901 -0.01439,-0.024 -0.03412,-0.0434 -0.06014,-0.0555 -0.05201,-0.0243 -0.122767,-0.0243 -0.253887,-0.0243 h -0.298761 l -0.01383,1.42901 c -0.0045,0.49812 -0.004,0.85434 0.0034,1.09245 0.0037,0.1191 0.0085,0.20856 0.0158,0.27206 0.0034,0.0317 0.0073,0.057 0.01185,0.0767 0.0045,0.0195 0.0082,0.0336 0.01919,0.0462 0.01355,0.0152 0.03167,0.0231 0.05486,0.0312 0.02314,0.008 0.05148,0.0144 0.08379,0.02 0.06474,0.0118 0.145768,0.0195 0.229898,0.0234 0.168233,0.008 0.345158,0.003 0.434735,-0.0306 0.02371,-0.009 0.0442,-0.0299 0.05642,-0.0624 0.01214,-0.0325 0.01976,-0.0781 0.02596,-0.14765 0.01157,-0.13911 0.01411,-0.37426 0.01411,-0.77902 v -0.92665 l 0.12477,-0.11992 c 0.129258,-0.12426 0.298422,-0.16916 0.604859,-0.15488 0.04118,0.003 0.0747,0.003 0.10572,-0.003 0.03104,-0.005 0.05915,-0.0175 0.08495,-0.0386 0.05148,-0.0418 0.09587,-0.11436 0.174103,-0.24751 0.04623,-0.0787 0.08825,-0.15505 0.118872,-0.21494 0.01524,-0.0299 0.02766,-0.0557 0.03658,-0.076 0.0042,-0.0102 0.0079,-0.0189 0.01044,-0.0265 0.0031,-0.008 0.0045,-0.0127 0.0045,-0.022 0,-0.0311 -0.02032,-0.0571 -0.04823,-0.0813 -0.02794,-0.0243 -0.06579,-0.0471 -0.11049,-0.0685 -0.08932,-0.0427 -0.20605,-0.0785 -0.322382,-0.0939 -0.0782,-0.0102 -0.155617,-0.0127 -0.23145,-0.007 z m -17.78522,0.006 c -0.57373,0.0251 -1.13665,0.35489 -1.438938,0.92456 -0.322862,0.60847 -0.09971,1.46755 0.491772,1.90124 0.224367,0.16451 0.531876,0.2665 0.841812,0.29947 0.309937,0.033 0.62247,-0.003 0.857617,-0.11913 0.117659,-0.0582 0.262693,-0.17356 0.380492,-0.28922 0.0589,-0.0578 0.110716,-0.11563 0.148421,-0.16685 0.03773,-0.0512 0.06327,-0.0935 0.06327,-0.13349 0,-0.0198 -0.009,-0.0353 -0.02173,-0.0537 -0.01242,-0.0183 -0.02944,-0.0387 -0.04981,-0.0607 -0.04078,-0.0439 -0.09519,-0.094 -0.15271,-0.14176 -0.05746,-0.0478 -0.117885,-0.0929 -0.17066,-0.12666 -0.02625,-0.0169 -0.05077,-0.0308 -0.07253,-0.041 -0.02173,-0.0102 -0.04013,-0.0172 -0.05978,-0.0172 -0.01609,0 -0.02972,0.005 -0.04727,0.0118 -0.0175,0.007 -0.0377,0.0169 -0.05969,0.0287 -0.04391,0.0237 -0.09508,0.0562 -0.143877,0.0919 -0.311263,0.22829 -0.788191,0.19547 -0.999857,-0.0633 -0.252109,-0.30813 -0.215505,-0.74854 0.08193,-0.99963 0.141591,-0.11947 0.292184,-0.17295 0.458554,-0.16349 0.166427,0.01 0.349928,0.0832 0.551971,0.22414 0.02088,0.0144 0.04216,0.0257 0.06689,0.0284 0.02484,0.003 0.05046,-0.004 0.07761,-0.0186 0.05427,-0.0291 0.120593,-0.0891 0.23193,-0.1962 0.07487,-0.072 0.131346,-0.12935 0.169418,-0.18051 0.03804,-0.0512 0.05848,-0.0978 0.05501,-0.14521 -0.0034,-0.0474 -0.03039,-0.091 -0.07549,-0.13702 -0.04507,-0.046 -0.109277,-0.096 -0.193887,-0.1581 -0.298112,-0.21883 -0.646233,-0.31365 -0.990459,-0.29869 z m 6.844594,0.003 c -0.232607,-0.003 -0.462929,0.04 -0.653542,0.12841 -0.327321,0.1518 -0.634266,0.44622 -0.795951,0.76327 -0.102701,0.20139 -0.126859,0.3276 -0.127875,0.66737 -0.0028,0.35774 0.02032,0.46126 0.144469,0.70462 0.358677,0.70225 1.164082,1.03054 1.943383,0.79231 0.203397,-0.0622 0.418281,-0.20591 0.599468,-0.38328 0.181158,-0.17735 0.328619,-0.38837 0.393333,-0.58844 0.253577,-0.78381 -0.09697,-1.5991 -0.836394,-1.94157 -0.199474,-0.0924 -0.434283,-0.14018 -0.666891,-0.14269 z m 3.785983,0 c -0.259927,0.0133 -0.507097,0.0893 -0.687155,0.22543 -0.08359,0.0632 -0.134648,0.0883 -0.160189,0.086 -0.01242,-0.003 -0.02314,-0.007 -0.03714,-0.0229 -0.01411,-0.0164 -0.02961,-0.0431 -0.04696,-0.0798 -0.01383,-0.029 -0.02625,-0.0526 -0.04259,-0.0721 -0.01609,-0.0195 -0.03748,-0.0343 -0.06347,-0.043 -0.05201,-0.0175 -0.121129,-0.0152 -0.242795,-0.009 l -0.289278,0.0161 -0.01355,2.52265 c -0.0048,0.92253 -0.0039,1.55205 0.0031,1.95755 0.0037,0.20275 0.0087,0.34944 0.01609,0.44924 0.0037,0.0499 0.0076,0.0879 0.01214,0.11599 0.0045,0.0282 0.0062,0.0445 0.02032,0.0608 0.02839,0.0329 0.07682,0.0497 0.153162,0.0585 0.07634,0.009 0.18336,0.01 0.335731,0.004 l 0.433748,-0.0147 0.01411,-1.1518 0.01298,-1.0946 0.174526,0.0592 c 0.640165,0.21717 1.394206,-0.0509 1.773569,-0.62871 0.512346,-0.78031 0.222617,-1.88462 -0.602883,-2.29029 -0.231055,-0.11359 -0.503766,-0.16253 -0.763721,-0.1491 z m -7.363347,0.005 c -0.46578,0.003 -0.815397,0.14672 -1.133348,0.47354 -0.335788,0.34513 -0.455507,0.6287 -0.455507,1.08 0,0.7035 0.405441,1.26921 1.084354,1.51232 0.136624,0.0489 0.360822,0.0638 0.583269,0.0535 0.222419,-0.0102 0.440493,-0.0454 0.565291,-0.10688 0.357181,-0.17599 0.607709,-0.41803 0.779667,-0.75384 0.145006,-0.28318 0.168572,-0.38284 0.166822,-0.7029 -0.0028,-0.46169 -0.170237,-0.83194 -0.515705,-1.13809 -0.338723,-0.3002 -0.642225,-0.41834 -1.074843,-0.41766 z m 10.954681,0.003 c -0.469703,0.004 -0.78105,0.12474 -1.093357,0.42519 -0.34465,0.3315 -0.469421,0.62907 -0.472497,1.12579 -0.0031,0.35825 0.01863,0.46067 0.141704,0.7018 0.177094,0.34668 0.553409,0.68357 0.893233,0.79685 0.154319,0.0515 0.395168,0.071 0.634662,0.0644 0.239522,-0.006 0.475798,-0.0392 0.621312,-0.0992 0.1143,-0.0471 0.240284,-0.12508 0.339061,-0.20246 0.04945,-0.0387 0.09201,-0.0771 0.122993,-0.11222 0.03096,-0.0351 0.05275,-0.065 0.05275,-0.0987 0,-0.0395 -0.02596,-0.0808 -0.06206,-0.13083 -0.03621,-0.0501 -0.08484,-0.10584 -0.136765,-0.15839 -0.05196,-0.0525 -0.106991,-0.10174 -0.156577,-0.13846 -0.02455,-0.0183 -0.04812,-0.0335 -0.06968,-0.0446 -0.02145,-0.0107 -0.04073,-0.0186 -0.06133,-0.0186 -0.0655,0 -0.16287,0.0355 -0.23368,0.0801 -0.02794,0.0178 -0.08783,0.0399 -0.157197,0.0577 -0.0694,0.0178 -0.149268,0.0323 -0.221658,0.0387 -0.2124,0.0189 -0.290689,0.006 -0.41862,-0.072 -0.06909,-0.0418 -0.160274,-0.13052 -0.231987,-0.21931 -0.03584,-0.0444 -0.06703,-0.0889 -0.08893,-0.12723 -0.01778,-0.0313 -0.02371,-0.0533 -0.02738,-0.0705 0.01157,-0.003 0.02681,-0.004 0.04846,-0.006 0.04905,-0.005 0.120989,-0.008 0.209804,-0.0116 0.177631,-0.006 0.423192,-0.0107 0.693279,-0.0107 0.587784,0 0.879009,0.003 1.030619,-0.0579 0.07583,-0.0305 0.115965,-0.0831 0.128101,-0.1524 0.01214,-0.0693 0.0031,-0.15511 -0.01044,-0.26833 -0.05961,-0.54839 -0.341179,-0.94457 -0.837297,-1.17693 -0.197132,-0.0923 -0.334603,-0.11695 -0.636609,-0.11447 z m 16.95139,0 c -0.44969,-0.005 -0.74114,0.10126 -1.07732,0.39324 -0.59047,0.51286 -0.68868,1.46925 -0.21932,2.12014 0.15997,0.2218 0.54407,0.49287 0.80179,0.56464 0.25838,0.072 0.75529,0.062 1.04087,-0.0195 0.13668,-0.039 0.30632,-0.12197 0.44362,-0.20681 0.0687,-0.0425 0.12915,-0.0853 0.17332,-0.12401 0.0223,-0.0192 0.0402,-0.0376 0.0535,-0.0552 0.0136,-0.0175 0.0229,-0.0343 0.0229,-0.0544 0,-0.0192 -0.008,-0.0371 -0.0189,-0.0582 -0.0113,-0.0212 -0.0265,-0.0446 -0.0453,-0.07 -0.0372,-0.0508 -0.0872,-0.10896 -0.13996,-0.16428 -0.0527,-0.0553 -0.10806,-0.10769 -0.15657,-0.14687 -0.024,-0.0195 -0.0468,-0.0358 -0.067,-0.0477 -0.02,-0.0119 -0.0373,-0.0209 -0.058,-0.0209 -0.0315,0 -0.0763,0.0118 -0.13279,0.0296 -0.0563,0.0178 -0.12172,0.042 -0.18327,0.0689 -0.39026,0.17024 -0.79655,0.0825 -0.97861,-0.2045 -0.0435,-0.0685 -0.0752,-0.12036 -0.0819,-0.15039 -0.003,-0.0152 -0.003,-0.0223 0.003,-0.0291 0.005,-0.007 0.0178,-0.0155 0.0421,-0.0231 0.0491,-0.015 0.14207,-0.024 0.28795,-0.0279 0.14589,-0.004 0.34536,-0.004 0.61203,-0.004 0.40696,0 0.65498,-0.003 0.80933,-0.0138 0.0771,-0.005 0.13092,-0.013 0.17055,-0.0231 0.0397,-0.0104 0.0663,-0.0251 0.0838,-0.0452 0.0341,-0.0395 0.0485,-0.10273 0.0548,-0.18116 0.006,-0.0785 0.003,-0.17213 -0.009,-0.26986 -0.0237,-0.19544 -0.0802,-0.40595 -0.16121,-0.53874 -0.28716,-0.47114 -0.68766,-0.69104 -1.27017,-0.6977 z m -2.73479,0.0691 -0.19871,0.41548 c -0.10558,0.22076 -0.25871,0.54193 -0.34036,0.71377 l -0.12482,0.26258 -0.29394,-0.6514 -0.32295,-0.71554 -0.47929,-0.0144 c -0.20843,-0.006 -0.32383,-0.008 -0.39286,0.003 -0.0345,0.005 -0.0596,0.0141 -0.0765,0.0318 -0.0166,0.0175 -0.0212,0.0405 -0.0215,0.0624 0,0.01 0.003,0.015 0.004,0.0234 0.003,0.008 0.007,0.0192 0.0113,0.0317 0.01,0.0254 0.0237,0.059 0.0423,0.10052 0.0366,0.083 0.0893,0.19705 0.15446,0.33401 0.13031,0.2739 0.31014,0.63952 0.50797,1.03096 0.30811,0.60963 0.49172,0.96534 0.61099,1.16993 0.0596,0.10225 0.10295,0.16682 0.13925,0.2074 0.0362,0.0406 0.069,0.0593 0.10205,0.0593 0.0344,0 0.0702,-0.007 0.10211,-0.0192 0.0319,-0.0121 0.0602,-0.0282 0.0787,-0.0504 0.009,-0.0107 0.0189,-0.0277 0.0342,-0.0539 0.0152,-0.0263 0.0345,-0.0614 0.0574,-0.10374 0.0458,-0.0849 0.1058,-0.19965 0.17514,-0.3343 0.13857,-0.26926 0.3142,-0.61803 0.48687,-0.9657 0.17269,-0.34767 0.34247,-0.6941 0.46905,-0.9586 0.0633,-0.13228 0.11574,-0.24407 0.15251,-0.3254 0.0183,-0.0407 0.0329,-0.0737 0.0429,-0.0982 0.005,-0.0121 0.009,-0.0223 0.0116,-0.0303 0.003,-0.008 0.005,-0.0119 0.005,-0.0226 0,-0.0206 -0.008,-0.0431 -0.0259,-0.0582 -0.0183,-0.015 -0.0431,-0.0231 -0.0777,-0.0293 -0.0691,-0.0121 -0.18119,-0.0147 -0.3703,-0.0147 h -0.46448 z m -3.19091,0.01 -0.44995,0.015 -0.0138,1.45505 c -0.005,0.5566 -0.005,0.91683 0.003,1.14243 0.004,0.11281 0.01,0.19189 0.0178,0.24599 0.004,0.0271 0.009,0.0479 0.0144,0.0643 0.006,0.0166 0.0127,0.0299 0.0271,0.0389 0.0183,0.011 0.0415,0.0172 0.071,0.0231 0.0296,0.006 0.065,0.01 0.10468,0.0133 0.0793,0.007 0.1752,0.008 0.27008,0.007 0.0949,-0.003 0.18867,-0.008 0.26388,-0.0181 0.0376,-0.005 0.0706,-0.0104 0.0972,-0.0175 0.0268,-0.007 0.0471,-0.0136 0.0628,-0.0285 0.01,-0.009 0.0105,-0.0158 0.0127,-0.0243 0.003,-0.008 0.005,-0.0186 0.007,-0.031 0.004,-0.0246 0.008,-0.0573 0.0116,-0.0976 0.007,-0.0806 0.0136,-0.19135 0.0186,-0.32264 0.0105,-0.26258 0.0172,-0.607 0.0189,-0.95264 0.003,-0.34561 0,-0.69235 -0.008,-0.95964 -0.004,-0.13363 -0.008,-0.24731 -0.0144,-0.33141 -0.003,-0.042 -0.007,-0.0767 -0.0105,-0.1031 -0.004,-0.0263 -0.004,-0.0418 -0.0155,-0.0583 -0.0232,-0.0353 -0.0714,-0.0482 -0.14864,-0.0562 -0.0772,-0.008 -0.1872,-0.009 -0.34096,-0.004 z m 5.87482,0.62215 c -0.17724,0 -0.25979,0.0354 -0.40248,0.17258 -0.0481,0.0462 -0.0917,0.0943 -0.12378,0.13507 -0.0161,0.0206 -0.0293,0.039 -0.0388,0.0552 -0.01,0.0164 -0.0172,0.0282 -0.0172,0.0458 0,0.0144 0.0102,0.026 0.0195,0.0325 0.01,0.006 0.02,0.0104 0.0334,0.0141 0.0263,0.008 0.0619,0.0133 0.10913,0.0175 0.0944,0.009 0.23394,0.0136 0.41989,0.0136 0.18593,0 0.32557,-0.005 0.42004,-0.0136 0.0472,-0.005 0.0829,-0.01 0.10907,-0.0175 0.013,-0.004 0.0237,-0.008 0.0333,-0.0141 0.01,-0.006 0.0192,-0.0181 0.0192,-0.0325 0,-0.0175 -0.008,-0.0296 -0.0166,-0.0458 -0.01,-0.0164 -0.0226,-0.0348 -0.0387,-0.0552 -0.0321,-0.0408 -0.0757,-0.0888 -0.12383,-0.13507 -0.14267,-0.13716 -0.22522,-0.17258 -0.40243,-0.17258 z m -16.916569,0.005 c -0.05797,-0.003 -0.116021,0.004 -0.171055,0.0175 -0.08596,0.0209 -0.181243,0.0819 -0.25781,0.15159 -0.03833,0.0349 -0.07183,0.072 -0.09618,0.10809 -0.02399,0.0362 -0.04064,0.0712 -0.04064,0.1056 0,0.0212 0.01044,0.0444 0.03127,0.0583 0.02117,0.0138 0.04871,0.0212 0.08901,0.0268 0.0806,0.0119 0.21336,0.0141 0.436344,0.0141 0.145627,0 0.257415,-0.003 0.341235,-0.008 0.08382,-0.006 0.139389,-0.015 0.176614,-0.0375 0.01863,-0.0116 0.03277,-0.0279 0.03745,-0.0475 0.0045,-0.0195 0.0031,-0.0396 -0.0076,-0.06 -0.01637,-0.0407 -0.05142,-0.0868 -0.09999,-0.1461 -0.09147,-0.11182 -0.264809,-0.17933 -0.438686,-0.18367 z m -7.357787,0.10163 c -0.144469,0 -0.284705,0.0447 -0.403126,0.12398 -0.236841,0.15858 -0.38845,0.45384 -0.322241,0.79296 0.01976,0.10107 0.08213,0.21613 0.160274,0.31567 0.07812,0.0996 0.171027,0.1835 0.259588,0.21796 0.06655,0.026 0.206841,0.0441 0.325656,0.0458 0.335478,0.005 0.575423,-0.231 0.661162,-0.5165 0.08577,-0.28546 0.02004,-0.62495 -0.25321,-0.83173 -0.135015,-0.10211 -0.283661,-0.14777 -0.428103,-0.14811 z m 3.746331,0.0116 c -0.187904,-0.003 -0.36878,0.07 -0.489938,0.21816 -0.04527,0.0553 -0.07366,0.11074 -0.08879,0.20244 -0.01496,0.0918 -0.01863,0.22067 -0.01863,0.43214 0,0.24731 -0.0031,0.37019 0.01834,0.44526 0.0096,0.0375 0.02625,0.0645 0.05001,0.083 0.02399,0.0186 0.05218,0.0288 0.08698,0.042 0.123557,0.0469 0.280105,0.0653 0.430078,0.0588 0.150058,-0.006 0.293257,-0.0376 0.390765,-0.0956 0.189766,-0.11278 0.303248,-0.3256 0.332684,-0.5476 0.02929,-0.22199 -0.02512,-0.45531 -0.179381,-0.61016 -0.149211,-0.14969 -0.344001,-0.22634 -0.531876,-0.22852 z m -7.401955,0.004 c -0.06508,0.008 -0.132136,0.0257 -0.201619,0.0522 -0.554398,0.21325 -0.615979,1.0313 -0.101121,1.33311 0.0959,0.0562 0.259165,0.0986 0.377529,0.0986 0.342166,0 0.592751,-0.21548 0.690315,-0.48466 0.09756,-0.26924 0.04372,-0.59481 -0.217819,-0.8156 -0.174498,-0.14729 -0.3521,-0.20768 -0.547285,-0.18355 z m 16.80673,0.89126 c -0.11681,0.009 -0.22589,0.0347 -0.29842,0.0804 -0.25434,0.16027 -0.23253,0.55019 0.0396,0.65532 0.0859,0.0332 0.14743,0.0499 0.21505,0.043 0.0677,-0.007 0.13747,-0.0362 0.2448,-0.0888 0.1086,-0.0533 0.17794,-0.0993 0.2192,-0.16609 0.0413,-0.0668 0.0518,-0.14955 0.0518,-0.27183 0,-0.0644 -0.006,-0.11095 -0.0268,-0.14747 -0.0206,-0.0365 -0.0565,-0.0588 -0.10304,-0.0729 -0.10126,-0.0309 -0.22538,-0.0402 -0.34214,-0.0316 z"
       id="path4843-7"
       inkscape:connector-curvature="0"
       sodipodi:nodetypes="sssccsscsscccccsscccccscccscccssccccscccsccccccccccccccccccccsssccccscccccccscscsscccccccsccccccccccccccccccsccccccccccccccccscccccsscsscccccccccccscccccccsccscccccccccsscccccccscccccccccssscccssscccsccccccccsssscccscccccccccccsscssscccccccssccscccccsccccscccccccccccccccccscccccscccccscccscscccccccscscccccccscccccccscccccccsccccccccsccccccccccccsccccccsccssccccccssccsscccccscccccccccscccccccscccccccccccccscccccccccccccccsccccsccccccccsccsccccsscccscccccccccsccccccccccccccsccsccscccccccscccccccccccsccccccsccccccsccccccccccsccsccccccccccccccsccsccccccccccscccccsccccscccsccccsccscccccccsccccccsccccccscccccccccscccccccccscccccsccccsccccc" />
  </g>
</svg>
