<?xml version="1.0" encoding="UTF-8" standalone="no"?>
<!-- Created with Inkscape (http://www.inkscape.org/) -->

<svg
   xmlns:dc="http://purl.org/dc/elements/1.1/"
   xmlns:cc="http://creativecommons.org/ns#"
   xmlns:rdf="http://www.w3.org/1999/02/22-rdf-syntax-ns#"
   xmlns:svg="http://www.w3.org/2000/svg"
   xmlns="http://www.w3.org/2000/svg"
   xmlns:sodipodi="http://sodipodi.sourceforge.net/DTD/sodipodi-0.dtd"
   xmlns:inkscape="http://www.inkscape.org/namespaces/inkscape"
   width="42.562904mm"
   height="42.120918mm"
   viewBox="0 0 150.81344 149.24735"
   id="svg4240"
   version="1.1"
   inkscape:version="0.92.1 r15371"
   sodipodi:docname="enedis.svg">
  <sodipodi:namedview
     id="base"
     pagecolor="#ffffff"
     bordercolor="#666666"
     borderopacity="1.0"
     inkscape:pageopacity="0.0"
     inkscape:pageshadow="2"
     inkscape:zoom="0.86716398"
     inkscape:cx="220.64875"
     inkscape:cy="143.35516"
     inkscape:document-units="mm"
     inkscape:current-layer="layer1"
     showgrid="false"
     inkscape:window-width="1920"
     inkscape:window-height="995"
     inkscape:window-x="1280"
     inkscape:window-y="0"
     inkscape:window-maximized="1"
     inkscape:snap-global="false"
     fit-margin-top="0"
     fit-margin-left="0"
     fit-margin-right="0"
     fit-margin-bottom="0" />
  <title
     id="title4788">Découpage Laser</title>
  <defs
     id="defs4242" />
  <metadata
     id="metadata4245">
    <rdf:RDF>
      <cc:Work
         rdf:about="">
        <dc:format>image/svg+xml</dc:format>
        <dc:type
           rdf:resource="http://purl.org/dc/dcmitype/StillImage" />
        <dc:title>Découpage Laser</dc:title>
        <dc:creator>
          <cc:Agent>
            <dc:title />
          </cc:Agent>
        </dc:creator>
        <dc:publisher>
          <cc:Agent>
            <dc:title>Fablab Lannion</dc:title>
          </cc:Agent>
        </dc:publisher>
        <dc:source>http://fablab-lannion.org:8080/wiki/index.php?title=Chaine_logiciel_pour_d%C3%A9coupeuse_laser#Inkscape</dc:source>
        <dc:contributor>
          <cc:Agent>
            <dc:title>JJL</dc:title>
          </cc:Agent>
        </dc:contributor>
        <cc:license
           rdf:resource="http://creativecommons.org/licenses/by-sa/4.0/" />
      </cc:Work>
      <cc:License
         rdf:about="http://creativecommons.org/licenses/by-sa/4.0/">
        <cc:permits
           rdf:resource="http://creativecommons.org/ns#Reproduction" />
        <cc:permits
           rdf:resource="http://creativecommons.org/ns#Distribution" />
        <cc:requires
           rdf:resource="http://creativecommons.org/ns#Notice" />
        <cc:requires
           rdf:resource="http://creativecommons.org/ns#Attribution" />
        <cc:permits
           rdf:resource="http://creativecommons.org/ns#DerivativeWorks" />
        <cc:requires
           rdf:resource="http://creativecommons.org/ns#ShareAlike" />
      </cc:License>
    </rdf:RDF>
  </metadata>
  <g
     transform="translate(-3942.2227,1884.9435)"
     id="layer1"
     inkscape:groupmode="layer"
     inkscape:label="Calque 1">
    <g
       style="stroke-width:1.61166263"
       inkscape:label="Calque 1"
       id="g6042"
       transform="matrix(1.5713198,-1.537706,1.537721,1.5713045,3787.5901,-1693.0699)">
      <path
         style="fill:none;stroke:#000000;stroke-width:0.16116627;stroke-miterlimit:4;stroke-dasharray:none"
         d="m 86.645357,26.734801 -0.0129,0.0036 h -5.2e-4 l -0.25631,-0.0021 -0.002,0.0021 h -0.0227 l -0.006,0.0083 -0.0553,-5.16e-4 -0.21188,0.164848 -0.047,0.03669 -0.0801,0.06046 v 0.0016 l -0.0847,0.06615 -0.0253,7.730794 -0.0258,7.7308 0.0506,0.42581 0.0506,0.42581 0.18655,0.093 0.11162,0.0563 0.005,0.005 0.0212,0.0305 0.0124,0.0227 h 0.0238 l 0.002,0.002 h 1.45262 1.45263 l 0.003,-0.003 h 0.005 l 0.0455,-0.0548 0.12558,-0.11679 0.18552,-0.1726 v -6.643 -6.599085 l 2.4138,5.16e-4 h 1.93632 l 0.23875,0.05064 0.44855,0.09508 0.3886,0.195855 0.38913,0.195852 0.42736,0.468188 0.42788,0.467674 0.13591,0.39946 0.13643,0.39894 5.1e-4,5.38262 10e-4,5.3821 0.0486,0.18035 0.0481,0.18035 0.20877,0.0946 0.0941,0.0429 0.03,0.0517 h 0.0191 l 10e-4,0.001 h 1.41335 0.32556 l 1.03405,0.002 0.003,-0.002 h 0.0506 l 0.001,-0.001 h 0.0191 l 5.1e-4,-5.1e-4 h 0.002 l 0.003,-0.005 h 0.0419 l 0.168983,-0.12816 0.1695,-0.12764 0.0243,-3.04788 0.0243,-3.04374 0.73536,0.0212 0.82476,0.0243 0.0568,0.71934 0.0574,0.71934 5.2e-4,0.001 0.18293,0.5917 0.18294,0.59272 5.1e-4,5.2e-4 0.28371,0.50746 5.1e-4,5.2e-4 0.28371,0.50746 5.1e-4,5.2e-4 0.36484,0.43977 5.2e-4,10e-4 0.2899,0.34933 0.0749,0.0904 5.2e-4,5.1e-4 0.58394,0.46509 5.2e-4,5.2e-4 0.58446,0.46612 0.61908,0.30179 0.61909,0.30179 0.003,5.2e-4 10e-4,5.1e-4 0.0724,0.0124 0.62477,0.11058 0.25528,0.045 0.10852,0.0388 0.11369,5.2e-4 0.22272,0.0393 h 0.0305 l 0.0243,0.005 h 0.0176 l 0.0119,0.002 0.73328,-0.002 6.55103,-0.002 h 2.39675 1.1343 l 0.004,0.008 1.48054,-0.008 h 3.07784 l 3.84473,0.0109 0.0501,-0.008 0.17106,5.2e-4 0.0238,-0.006 h 0.008 l 0.22427,-0.0398 h 0.0305 l 0.002,-10e-4 0.0274,-0.009 0.0243,-0.004 0.28267,-0.001 0.50695,-0.0941 0.50746,-0.094 0.76275,-0.37983 0.76274,-0.38033 0.42892,-0.36536 0.4284,-0.36535 0.33331,-0.39687 0.33331,-0.39688 0.27285,-0.53175 0.27234,-0.53175 0.1297,-0.56947 0.12971,-0.56999 v -0.53847 l 0.016,-0.11059 -0.0165,-1.45934 -5.2e-4,-1.3038 -10e-4,-3.41219 -0.1235,-0.592731 -0.12402,-0.592728 -0.39636,-0.804087 -0.39688,-0.804601 -0.76946,-0.765328 -0.76894,-0.765328 -0.70642,-0.364837 -0.70642,-0.364834 -0.47904,-0.08837 -0.47904,-0.08837 h -0.0326 l -0.0506,-0.01809 -0.20671,-10e-4 -0.21859,-0.04082 h -0.0801 l -0.003,-5.18e-4 h -0.0568 -4.09691 -2.17868 l -1.51929,-0.0098 -0.0961,-5.16e-4 -0.0801,-5.16e-4 -0.006,0.0016 h -0.004 l -0.008,0.0021 -0.25115,-0.0016 -0.007,0.0088 h -0.009 l -0.0305,0.03359 -0.0496,0.04599 -0.002,5.19e-4 v 5.16e-4 h -5.2e-4 v 5.16e-4 l -0.0357,0.0088 v 5.16e-4 l 0.007,0.01137 -10e-4,5.16e-4 -0.21239,0.109038 -0.0625,0.08475 -0.062,0.08475 -0.001,5.138183 -0.001,5.13819 0.0806,0.21187 0.0806,0.21188 0.1943,0.1111 0.19482,0.11111 h 1.33118 1.33119 l 0.17777,-0.17777 0.17725,-0.17777 0.0326,-0.14004 0.0403,-0.0403 v -0.13229 l 0.004,-0.0176 0.0765,-0.33021 0.002,-3.54087 0.002,-3.533636 2.34921,0.02377 0.39326,0.0041 1.87172,0.02377 0.48266,0.192754 0.48265,0.192754 0.42323,0.380339 0.42323,0.380338 0.2372,0.482651 0.23719,0.48318 0.008,1.00975 0.0171,2.12339 0.0253,3.10162 -0.13074,0.4501 -0.13178,0.45372 -0.42375,0.38085 -0.42374,0.38137 -0.40153,0.15245 -0.38757,0.14728 -0.0377,0.006 -4.33668,0.0455 -4.36046,0.0455 -5.25136,-0.0424 -5.25136,-0.0424 -0.56585,-0.27853 -0.56586,-0.27854 -0.31058,-0.35657 -0.31006,-0.35605 -0.17311,-0.38137 -0.1726,-0.38085 -0.007,-0.50798 -0.007,-0.50747 3.76669,-0.0424 3.76773,-0.0424 0.001,-5.2e-4 0.47543,-0.17312 10e-4,-5.2e-4 0.47542,-0.17311 5.2e-4,-5.2e-4 0.32039,-0.19275 0.16382,-0.0987 0.001,-5.2e-4 0.48421,-0.29145 10e-4,-5.2e-4 0.39326,-0.42891 0.39326,-0.42892 0.23668,-0.43615 0.23667,-0.43666 0.12145,-0.57413 0.12195,-0.57361 5.2e-4,-1.39733 10e-4,-1.396808 -0.0894,-0.550354 -0.0889,-0.550355 -0.2651,-0.53795 -0.26459,-0.537951 -0.47284,-0.478007 -0.47284,-0.478007 -0.44906,-0.241848 -0.44907,-0.241326 -0.56482,-0.11834 -0.32246,-0.0677 -0.003,-0.0078 v -5.16e-4 h -0.0372 l -0.20257,-0.04237 h -0.17312 l -0.032,-0.0083 -1.19476,0.0083 h -2.34508 -3.7455 l -0.001,5.18e-4 -0.18345,0.04186 h -0.0295 l -0.0351,0.01499 h -5.2e-4 l -0.15348,0.03514 -0.001,5.18e-4 -0.40256,0.09147 -10e-4,5.16e-4 -0.51987,0.251147 -0.001,5.16e-4 -0.52039,0.251148 -10e-4,5.19e-4 -0.46405,0.486791 -0.46457,0.486791 -0.2558,0.506431 -0.25528,0.505912 -0.0997,0.507979 -0.10025,0.507979 0.0289,1.041797 0.0284,1.04128 0.19998,0.16175 0.19999,0.16174 h 1.37821 1.37821 l 5.2e-4,-5.1e-4 0.19947,-0.16123 0.19999,-0.16175 0.001,-5.2e-4 0.0439,-0.85059 0.0444,-0.851113 0.1726,-0.230992 0.1726,-0.230994 0.23254,-0.174149 0.001,-5.18e-4 0.23306,-0.174149 2.682,-0.02377 2.68201,-0.02377 0.3762,0.19327 0.37569,0.192754 0.17415,0.23926 0.17467,0.239263 v 1.073318 1.0728 l -0.15968,0.26407 -0.15968,0.26355 -0.11162,0.0677 -0.20722,0.11627 -0.24133,0.13539 -5.8012,0.0419 h -0.0698 -5.79706 l -0.0506,-1.03715 -0.0512,-1.03714 -0.13901,-0.507982 -0.139013,-0.507979 -0.24081,-0.485759 -0.24081,-0.485759 -0.26769,-0.389122 -0.2682,-0.389642 -0.44958,-0.449585 -0.44959,-0.449585 -0.37878,-0.260448 -0.37879,-0.260451 -0.61702,-0.310057 -0.61701,-0.309541 -0.51419,-0.08475 -0.51418,-0.08475 h -0.03 l -0.0543,-0.0186 -0.20567,-10e-4 -0.0481,-5.16e-4 h -5.2e-4 -0.0176 l -0.23668,-0.03876 h -0.0418 l -0.0191,-0.0036 h -3.95377 -1.93476 z m 64.834283,0.0036 -1.41748,0.0083 h -2.70113 -0.0176 -4.32686 -0.0749 l -0.23668,0.04237 h -0.0269 l -0.0181,0.0078 -0.23151,0.04134 -0.51315,0.09198 -0.4594,0.225827 -0.45941,0.225825 -0.49299,0.478009 -0.49299,0.477489 -0.3173,0.665075 -0.31781,0.665078 -0.01,0.677994 -0.0527,0.312643 0.0315,1.142566 -0.0248,1.70377 0.13591,0.53692 0.13643,0.53691 0.23047,0.46044 0.23048,0.45992 0.40308,0.44183 0.40359,0.44184 0.40463,0.25941 0.40462,0.25993 0.37724,0.14832 0.37776,0.14831 0.61443,0.008 0.23203,0.0377 2.70784,5.2e-4 3.2489,0.0429 0.23357,0.17466 0.2341,0.17415 0.17312,0.23203 0.13384,0.17932 0.0408,0.0801 0.031,0.62011 0.0325,0.64803 -0.15141,0.28112 -0.15141,0.28112 -0.30334,0.18862 -0.30282,0.18861 -4.72788,0.0424 -4.72736,0.0424 -0.20412,0.2372 -0.20464,0.23771 v 1.21285 1.21233 l 0.19068,0.13384 v 5.1e-4 l 0.13023,0.0915 0.0444,0.0491 h 0.0589 l 5.2e-4,5.2e-4 h 0.003 l 0.003,0.005 0.12609,-5.2e-4 0.95033,-0.004 h 4.18993 5.27255 l 0.007,-0.002 h 0.0729 l 0.14935,-0.0398 0.0863,-5.1e-4 h 0.0181 5.2e-4 l 0.0341,-0.014 h 0.0501 l 0.38086,-0.0827 0.38085,-0.0827 0.46561,-0.29973 0.46612,-0.2992 0.36019,-0.39274 0.36018,-0.39274 0.15916,-0.36122 0.15968,-0.36174 0.0941,-0.40307 0.0367,-0.1571 0.0155,-0.032 v -0.015 -0.0196 l 0.0419,-0.17984 v -0.0987 -5.1e-4 -0.11834 l 0.0165,-0.0754 -0.0165,-0.9679 v -0.46561 -1.62677 l -0.001,-0.003 v -0.0202 l -0.005,-0.0176 v -0.0326 l -0.0331,-0.13746 -0.002,-0.11575 -0.0522,-0.11111 -0.0289,-0.1204 -0.11576,-0.48473 -0.1819,-0.29455 -0.1819,-0.29456 -0.43718,-0.39274 -0.43667,-0.39274 -0.55965,-0.28216 -0.55914,-0.28163 -0.64647,-0.13333 -0.64648,-0.13384 h -2.91248 -2.90111 l -0.0434,-0.0217 -0.25063,-0.16899 -0.28319,-0.19068 -0.17053,-0.29249 -0.17054,-0.29249 -0.0336,-0.76533 -0.015,-0.34313 -5.2e-4,-0.490403 0.077,-0.284221 0.0904,-0.334865 0.0227,-0.03307 v -5.16e-4 l 0.2744,-0.240814 0.29301,-0.257347 0.31988,-0.08888 0.18655,-0.05168 3.52278,-0.03721 h 0.31006 l 3.699,-5.16e-4 0.23771,-0.20412 0.23771,-0.204124 0.0289,-0.950846 0.0289,-0.950847 -0.0527,-0.347781 -0.0522,-0.3483 -0.22635,-0.105421 -0.14779,-0.06924 -0.0367,-0.03669 h -0.007 -0.0269 l -0.006,-0.0067 -0.0651,5.18e-4 -5.2e-4,-5.18e-4 -0.1912,0.001 z m -67.984483,5.19e-4 -1.5446,0.0078 h -3.11558 -0.0274 -4.80125 -0.11007 -0.0424 l -0.23358,0.04237 h -0.031 l -0.0139,0.0083 -0.23462,0.04237 -0.51314,0.0925 -0.51263,0.237194 -0.51212,0.236678 -0.47439,0.433564 -0.47439,0.433568 -0.26871,0.418579 -0.26872,0.419094 -0.12041,0.575159 -0.0589,0.281636 -0.0191,0.03876 -5.1e-4,0.05323 -0.0388,0.186553 -0.003,0.01085 v 0.0036 0.08062 0.568957 l -0.0114,0.112139 0.0114,1.970426 v 2.17816 3.29696 l -0.007,1.35237 0.007,0.031 v 0.23047 l 0.006,0.0295 v 0.0553 l 0.0362,0.1509 v 0.005 0.0625 l 0.0191,0.0129 0.0362,0.1509 0.0222,0.10645 0.11989,0.5731 0.23409,0.40049 0.2341,0.40049 0.44441,0.42788 0.44442,0.42788 0.44183,0.24081 0.44235,0.2403 0.47387,0.10387 0.47439,0.10387 h 0.0625 l 0.0222,0.006 h 0.0563 l 0.0274,0.01 5.05292,0.003 4.60076,0.003 0.37517,5.2e-4 h 0.0558 0.0625 l 5.2e-4,-5.2e-4 h 0.0227 0.006 0.0171 l 0.0439,-0.0625 0.0196,-0.0181 0.0522,-0.0248 0.22531,-0.10593 0.0181,-0.1447 5.1e-4,-5.1e-4 v -0.003 l 0.0382,-0.30593 0.0568,-0.45475 -0.0408,-0.77618 -0.0403,-0.77567 -0.0687,-0.12815 v -0.009 l -0.008,-0.006 -0.0191,-0.0357 -0.0956,-0.1788 -0.26303,-0.0915 -0.014,-0.0114 h -0.0186 l -0.24133,-0.0842 h -4.56354 -4.56355 l -0.24494,-0.12661 -0.24443,-0.12661 -0.1323,-0.18862 -0.13177,-0.18862 v -1.24798 -1.24747 l 2.70216,-0.0248 2.70268,-0.0243 0.21859,-0.20516 0.21859,-0.20567 v -0.46839 l 0.0145,-0.0775 -0.0145,-0.47387 v -0.18862 -1.2082 l -0.20464,-0.23771 -0.20412,-0.23771 -2.71663,-0.0243 -2.71663,-0.0248 v -1.60662 -1.606106 l 0.28939,-0.316259 0.2899,-0.316259 4.8302,-0.04238 4.83019,-0.04237 0.19276,-0.192754 0.19275,-0.192752 v -1.230415 -1.2299 l -0.16226,-0.125058 -0.007,-0.0098 -0.0191,-0.01033 -0.0232,-0.01757 -0.21188,-0.16278 h -0.0486 l -0.003,-0.0041 h -0.003 -0.007 -0.0548 -0.0181 l -0.007,-0.0072 -0.19275,0.001 z m 50.939533,0.0078 -0.0538,0.06821 -5.1e-4,5.15e-4 -0.12713,0.09767 -0.21187,0.162263 v 1.239719 1.240234 l 0.23771,0.204121 0.23772,0.204123 h 1.37717 1.3777 l 0.20515,-0.218075 0.20567,-0.21859 v -1.225767 -1.225765 l -0.21187,-0.162263 -0.12816,-0.09818 -5.1e-4,-5.19e-4 -0.0532,-0.0677 h -0.0196 -0.0718 -1.33532 -1.35444 z m 0.0822,4.233333 -0.23772,0.204123 -0.23771,0.204121 -0.0248,5.74383 -0.0243,5.74332 0.046,0.25528 0.046,0.25477 0.19017,0.0946 v -5.1e-4 l 0.11266,0.0558 0.004,0.005 0.0233,0.0558 h 0.004 0.0165 l 5.2e-4,5.2e-4 h 0.0718 l 0.001,0.004 0.25476,-0.004 h 1.09916 1.25626 0.17363 0.005 0.008 l 0.003,-0.006 h 0.0357 l 0.1695,-0.12764 0.16898,-0.12816 v -5.97276 -5.97276 l -0.2372,-0.204121 -0.23771,-0.204123 h -1.34514 z"
         id="path6040"
         inkscape:connector-curvature="0" />
    </g>
  </g>
</svg>
