<?xml version="1.0" encoding="UTF-8" standalone="no"?>
<!-- Created with Inkscape (http://www.inkscape.org/) -->

<svg
   xmlns:dc="http://purl.org/dc/elements/1.1/"
   xmlns:cc="http://creativecommons.org/ns#"
   xmlns:rdf="http://www.w3.org/1999/02/22-rdf-syntax-ns#"
   xmlns:svg="http://www.w3.org/2000/svg"
   xmlns="http://www.w3.org/2000/svg"
   xmlns:sodipodi="http://sodipodi.sourceforge.net/DTD/sodipodi-0.dtd"
   xmlns:inkscape="http://www.inkscape.org/namespaces/inkscape"
   width="30.474941mm"
   height="30.149065mm"
   viewBox="0 0 30.474941 30.149065"
   version="1.1"
   id="svg479"
   inkscape:version="0.92.1 r15371"
   sodipodi:docname="Fablab.svg">
  <defs
     id="defs473" />
  <sodipodi:namedview
     id="base"
     pagecolor="#ffffff"
     bordercolor="#666666"
     borderopacity="1.0"
     inkscape:pageopacity="0.0"
     inkscape:pageshadow="2"
     inkscape:zoom="1.1798828"
     inkscape:cx="249.51893"
     inkscape:cy="-54.278389"
     inkscape:document-units="mm"
     inkscape:current-layer="layer1"
     showgrid="false"
     fit-margin-top="0"
     fit-margin-left="0"
     fit-margin-right="0"
     fit-margin-bottom="0"
     inkscape:window-width="1920"
     inkscape:window-height="995"
     inkscape:window-x="1280"
     inkscape:window-y="0"
     inkscape:window-maximized="1" />
  <metadata
     id="metadata476">
    <rdf:RDF>
      <cc:Work
         rdf:about="">
        <dc:format>image/svg+xml</dc:format>
        <dc:type
           rdf:resource="http://purl.org/dc/dcmitype/StillImage" />
        <dc:title></dc:title>
      </cc:Work>
    </rdf:RDF>
  </metadata>
  <g
     inkscape:label="Calque 1"
     inkscape:groupmode="layer"
     id="layer1"
     transform="translate(-35.890488,-104.32311)">
    <path
       style="color:#000000;font-style:normal;font-variant:normal;font-weight:normal;font-stretch:normal;font-size:medium;line-height:normal;font-family:sans-serif;text-indent:0;text-align:start;text-decoration:none;text-decoration-line:none;text-decoration-style:solid;text-decoration-color:#000000;letter-spacing:normal;word-spacing:normal;text-transform:none;writing-mode:lr-tb;direction:ltr;baseline-shift:baseline;text-anchor:start;white-space:normal;clip-rule:nonzero;display:inline;overflow:visible;visibility:visible;opacity:1;isolation:auto;mix-blend-mode:normal;color-interpolation:sRGB;color-interpolation-filters:linearRGB;solid-color:#000000;solid-opacity:1;fill:none;fill-opacity:1;fill-rule:nonzero;stroke:#ff0000;stroke-width:0.1995391;stroke-linecap:butt;stroke-linejoin:miter;stroke-miterlimit:4;stroke-dasharray:none;stroke-dashoffset:0;stroke-opacity:0.93333333;color-rendering:auto;image-rendering:auto;shape-rendering:auto;text-rendering:auto;enable-background:accumulate"
       d="m 35.990258,104.42291 v 5.18804 5.188 h 1.097449 1.097478 v -2.19495 -1.99537 h 1.995395 2.194927 v -0.89092 -0.88818 l -2.142321,-0.0596 -1.952893,-0.0542 -0.05495,-1.15477 -0.05458,-1.14266 h 2.399143 2.603754 v -0.99772 -0.99768 h -3.591701 z m 23.282118,10.17648 h 1.435749 c 1.650888,0 2.596586,-0.022 3.250326,-0.14884 0.653767,-0.12706 1.014362,-0.36909 1.447797,-0.77789 0.301303,-0.28417 0.484183,-0.48686 0.588886,-0.73581 0.104704,-0.24895 0.125505,-0.52855 0.125505,-0.96029 0,-0.55965 -0.08647,-1.00728 -0.294245,-1.38588 -0.207772,-0.37857 -0.534162,-0.68247 -0.996133,-0.96339 -0.145738,-0.0886 -0.254677,-0.15579 -0.3254,-0.20653 -0.0624,-0.0448 -0.07829,-0.0701 -0.08184,-0.0721 0.0037,-0.004 0.0028,-0.004 0.0113,-0.011 0.03596,-0.0282 0.110858,-0.0701 0.212796,-0.12471 0.50941,-0.2726 0.846355,-0.86498 0.986761,-1.5312 0.140401,-0.66621 0.08435,-1.4132 -0.226434,-2.0141 -0.270377,-0.52288 -0.593071,-0.85313 -1.238964,-1.02887 -0.645866,-0.17571 -1.61149,-0.2159 -3.226111,-0.2159 h -3.002844 m 2.8e-5,1.0237 v 4.06468 5.08824 m -15.669625,5.98619 h 1.239322 m 0,0 0.336324,-0.91353 c 0.171958,-0.46688 0.474077,-1.29706 0.671491,-1.84616 l 0.335563,-0.93297 2.868393,-0.0542 c 0.807099,-0.0152 1.540905,-0.0215 2.07216,-0.0195 0.265628,0 0.480596,0.004 0.627832,0.009 0.06898,0.003 0.119972,0.006 0.155899,0.008 0.0028,0.007 0.0034,0.011 0.0056,0.0192 0.01439,0.0464 0.03559,0.11165 0.06274,0.19406 0.05436,0.16493 0.132785,0.39853 0.229559,0.68399 0.19352,0.57091 0.460615,1.34874 0.754098,2.19651 0.58674,1.69466 1.312587,3.82273 1.612307,4.72697 v 0 l 0.568226,1.71436 m 1.552251,0 c 0.408573,0 0.779582,-0.01 1.050685,-0.0248 0.135579,-0.008 0.245928,-0.0166 0.325797,-0.0274 0.03999,-0.005 0.0716,-0.011 0.09979,-0.0186 0.01439,-0.004 0.02709,-0.007 0.04442,-0.0172 0.0087,-0.005 0.01919,-0.0107 0.03158,-0.0246 0.01242,-0.0138 0.02766,-0.0399 0.02766,-0.0713 0,-0.022 -0.0028,-0.0234 -0.0037,-0.03 -0.0028,-0.007 -0.0031,-0.0127 -0.0051,-0.02 -0.0039,-0.0144 -0.0096,-0.0325 -0.01637,-0.0549 -0.01411,-0.0448 -0.03412,-0.10679 -0.06,-0.18474 -0.05176,-0.1559 -0.126207,-0.3753 -0.21824,-0.64225 -0.184121,-0.53388 -0.437896,-1.25801 -0.717098,-2.04451 -0.558151,-1.57234 -1.329887,-3.75722 -1.714782,-4.85442 -0.384996,-1.09769 -1.177646,-3.34255 -1.76145,-4.98886 -0.583664,-1.64598 -1.389267,-3.93556 -1.790023,-5.08748 -0.676402,-1.94423 -0.928878,-2.80947 -1.245164,-3.23585 -0.158129,-0.21319 -0.34767,-0.31019 -0.57912,-0.34453 -0.231451,-0.0343 -0.507831,-0.0198 -0.899076,-0.0363 m -1.452654,-0.06 -0.449382,1.32585 c -0.233482,0.68894 -1.156659,3.36435 -2.050711,5.94329 -0.89408,2.57903 -1.928735,5.56463 -2.299406,6.63468 m -0.719779,2.07803 h 1.310245 m 17.46549,-14.56619 v 1.39677 1.39677 h 1.784547 c 0.75836,0 1.188975,-0.009 1.482514,-0.0745 0.293539,-0.0652 0.449241,-0.20436 0.594331,-0.41154 0.184433,-0.26326 0.32893,-0.64403 0.32893,-0.91076 0,-0.26676 -0.144497,-0.6475 -0.32893,-0.91081 -0.14509,-0.20716 -0.300792,-0.34629 -0.594331,-0.41154 -0.293539,-0.0653 -0.724154,-0.0744 -1.482514,-0.0744 z m -12.026504,2.41977 c -0.04468,0.007 -0.0775,0.029 -0.104818,0.0542 -0.05464,0.0503 -0.09384,0.12014 -0.125109,0.20735 -0.360059,1.00349 -0.836478,2.37871 -1.222953,3.51801 -0.193266,0.56966 -0.36418,1.08054 -0.486777,1.45643 -0.0613,0.18791 -0.110433,0.342 -0.14461,0.45362 -0.01693,0.0558 -0.03037,0.10106 -0.03974,0.13524 -0.0045,0.0169 -0.0082,0.0312 -0.01101,0.0437 -0.0028,0.0127 -0.0056,0.0175 -0.0056,0.0425 0,0.0527 0.03336,0.0831 0.0534,0.097 0.02004,0.0141 0.03714,0.0206 0.05613,0.0274 0.0379,0.013 0.08261,0.0231 0.13874,0.0323 0.112212,0.0189 0.268196,0.035 0.459881,0.0487 0.383314,0.0274 0.908671,0.044 1.486775,0.044 0.576975,0 1.101259,-0.007 1.482513,-0.0189 0.190641,-0.006 0.345073,-0.0127 0.454039,-0.0203 0.05447,-0.004 0.09734,-0.008 0.130133,-0.0124 0.01637,-0.003 0.02977,-0.005 0.04563,-0.009 0.0082,-0.003 0.01637,-0.004 0.03079,-0.0127 0.0071,-0.004 0.01609,-0.01 0.02737,-0.0231 0.0056,-0.007 0.01157,-0.0152 0.01637,-0.0265 0.0028,-0.006 0.0042,-0.0119 0.0056,-0.0189 0.0028,-0.007 0.0028,-0.0209 0.0028,-0.0209 0,-0.0315 -0.0045,-0.0369 -0.009,-0.0546 -0.0042,-0.0175 -0.01044,-0.0385 -0.01806,-0.0643 -0.0152,-0.0516 -0.03665,-0.12101 -0.06428,-0.20618 -0.05526,-0.17035 -0.134109,-0.40409 -0.228766,-0.68047 -0.189287,-0.55273 -0.442214,-1.27525 -0.697992,-1.99579 -0.255806,-0.72049 -0.514322,-1.43897 -0.714361,-1.98292 -0.100048,-0.27192 -0.185279,-0.5003 -0.248666,-0.6641 -0.03167,-0.0819 -0.05783,-0.14749 -0.07792,-0.19524 -0.0099,-0.024 -0.01863,-0.0431 -0.02625,-0.0588 -0.0037,-0.008 -0.0071,-0.0144 -0.01129,-0.022 -0.0039,-0.007 -0.0051,-0.0127 -0.02201,-0.0296 -0.03206,-0.0321 -0.08625,-0.0505 -0.130952,-0.0437 z m 13.869528,1.61307 -1.739364,0.0612 -0.06313,1.43886 -0.0635,1.45096 h 1.909261 c 0.770694,0 1.239324,-0.0141 1.56941,-0.0737 0.330087,-0.0598 0.526063,-0.17532 0.705387,-0.35464 0.288402,-0.28843 0.426832,-0.64626 0.408065,-1.00976 -0.01892,-0.36353 -0.192422,-0.72946 -0.507043,-1.04411 -0.234217,-0.23416 -0.415602,-0.37773 -0.722942,-0.44078 -0.307367,-0.063 -0.730842,-0.055 -1.496144,-0.0279 z m -2.276912,16.32241 1.918264,-0.0385 c 1.424828,-0.0285 2.234522,-0.0547 2.760445,-0.12198 0.525864,-0.0673 0.777973,-0.18404 1.038209,-0.37609 0.763918,-0.56385 1.186548,-1.29283 1.241269,-2.04761 0.05469,-0.75477 -0.259728,-1.52846 -0.936525,-2.1774 l -0.655489,-0.62899 0.460642,-0.44938 c 0.789377,-0.77032 0.927722,-1.80162 0.411536,-2.96852 -0.297799,-0.67325 -0.614596,-1.08817 -1.285296,-1.30791 -0.670729,-0.21976 -1.680464,-0.2619 -3.415565,-0.2619 h -2.899551 m 0,0.91206 v 4.28958 5.20401 M 36.18962,116.19618 v 5.08827 5.08824 h 3.591701 3.591729 v -0.89792 -0.89795 h -2.693811 -2.494224 v -4.09055 -4.29009 h -0.997684 z m 23.745131,1.57683 v 1.31648 1.31688 l 1.74244,-0.0616 c 0.762057,-0.0268 1.178503,-0.0478 1.45875,-0.13053 0.280276,-0.0827 0.413851,-0.24644 0.549516,-0.48872 l 0.08343,-0.14851 h -0.03198 c 0.07149,-0.14726 0.146333,-0.28877 0.146926,-0.42361 0,-0.18215 -0.06751,-0.36077 -0.190191,-0.61734 -0.06875,-0.14376 -0.125391,-0.2586 -0.204187,-0.35424 -0.07885,-0.0957 -0.181893,-0.16677 -0.319193,-0.2128 -0.27463,-0.092 -0.688086,-0.10625 -1.488384,-0.13448 z m 0,4.01026 v 1.39678 1.39677 h 1.855498 c 0.552535,0 1.017074,-0.0223 1.365985,-0.0643 0.17444,-0.0209 0.319757,-0.0465 0.435327,-0.078 0.115541,-0.0315 0.201393,-0.0631 0.264613,-0.12624 0.09584,-0.0959 0.150169,-0.24844 0.195635,-0.43572 0.04547,-0.18728 0.07327,-0.4071 0.07327,-0.62123 0,-0.27861 -0.03229,-0.51302 -0.118083,-0.71046 -0.08579,-0.19747 -0.227923,-0.3545 -0.4283,-0.46691 -0.400812,-0.22482 -1.021898,-0.29072 -1.992292,-0.29072 z m -1.721047,7.23367 c -0.274828,0.0138 -0.533908,0.0892 -0.768491,0.21395 -0.469251,0.24954 -0.841869,0.68925 -1.078004,1.21206 -0.472271,1.04558 -0.400276,2.44069 0.600173,3.33719 0.45895,0.41131 0.945896,0.61378 1.434959,0.59047 0.489091,-0.0234 0.970111,-0.27093 1.423303,-0.72413 0.301724,-0.30175 0.483024,-0.51316 0.585752,-0.77396 0.102701,-0.26083 0.121977,-0.55527 0.121977,-1.01877 0,-1.27748 -0.543137,-2.30067 -1.456408,-2.67896 -0.297631,-0.12328 -0.588348,-0.17151 -0.863261,-0.15785 z m 3.362565,0.0308 c -0.02794,0.005 -0.04834,0.0186 -0.06119,0.0308 -0.02568,0.0243 -0.03277,0.0444 -0.04092,0.0651 -0.01637,0.0414 -0.02681,0.0892 -0.0374,0.15237 -0.02145,0.12627 -0.03982,0.30824 -0.05534,0.53665 -0.0311,0.4568 -0.0499,1.09773 -0.0499,1.8161 0,0.80368 0.01891,1.4566 0.05379,1.912 0.01722,0.22772 0.03861,0.40555 0.06469,0.53238 0.01298,0.0634 0.02653,0.11334 0.04597,0.15627 0.0099,0.0215 0.0206,0.0417 0.03979,0.0619 0.01919,0.0203 0.05351,0.0429 0.09505,0.0429 0.03663,0 0.06897,-0.0175 0.08887,-0.0354 0.02004,-0.0181 0.03172,-0.0364 0.04208,-0.0557 0.0206,-0.0387 0.03468,-0.0828 0.04795,-0.13683 0.02653,-0.10814 0.04741,-0.25651 0.06508,-0.44506 0.03531,-0.37711 0.05534,-0.91186 0.05534,-1.55773 v -1.82389 l 1.365983,1.87808 c 0.426495,0.58649 0.84187,1.12014 1.169559,1.50901 0.163857,0.19443 0.305618,0.35256 0.417433,0.46454 0.05585,0.056 0.104056,0.10025 0.146503,0.1333 0.04244,0.0331 0.06669,0.0642 0.141081,0.0655 0.05137,0 0.104309,-0.0248 0.138345,-0.0604 0.03407,-0.0357 0.05591,-0.079 0.07484,-0.13056 0.03782,-0.10312 0.06271,-0.24469 0.08261,-0.44348 0.03985,-0.39765 0.05534,-1.02179 0.05534,-1.95527 0,-1.02963 -0.01241,-1.65337 -0.0565,-2.03045 -0.02201,-0.18858 -0.05015,-0.31558 -0.100161,-0.41001 -0.05001,-0.0944 -0.145399,-0.15353 -0.235797,-0.15353 -0.08718,0 -0.17763,0.0514 -0.230716,0.13485 -0.05306,0.0834 -0.08534,0.19439 -0.112633,0.3519 -0.05453,0.31502 -0.08244,0.8198 -0.105215,1.62749 l -0.04871,1.72571 -1.304007,-1.78805 c -0.406429,-0.55725 -0.79519,-1.07535 -1.094375,-1.46225 -0.149577,-0.19343 -0.276493,-0.35405 -0.372956,-0.4708 -0.04826,-0.0584 -0.08904,-0.10598 -0.12161,-0.14185 -0.03257,-0.0359 -0.04628,-0.0558 -0.08532,-0.0799 -0.01891,-0.0119 -0.04967,-0.0203 -0.07758,-0.0158 z m -25.039375,0.0172 c -0.03547,-0.009 -0.07558,0 -0.100584,0.0164 -0.06059,0.0374 -0.06773,0.0792 -0.08379,0.12666 -0.0158,0.0475 -0.02949,0.1053 -0.04208,0.17577 -0.02512,0.14094 -0.04645,0.33147 -0.06432,0.56473 -0.0357,0.46645 -0.0565,1.1017 -0.0565,1.82352 v 2.5823 h 1.69607 c 0.468574,0 0.870091,-0.0206 1.159454,-0.0569 0.144695,-0.0181 0.260632,-0.0395 0.348008,-0.067 0.04369,-0.0138 0.08035,-0.0282 0.113792,-0.0507 0.03347,-0.0223 0.07485,-0.0626 0.07485,-0.12468 0,-0.0579 -0.03658,-0.0985 -0.06782,-0.12161 -0.03121,-0.0232 -0.06539,-0.0379 -0.105241,-0.0518 -0.07964,-0.0279 -0.183388,-0.0495 -0.31177,-0.0678 -0.256794,-0.0367 -0.609064,-0.0581 -1.011711,-0.0581 h -1.297008 v -2.30638 c 0,-0.7782 -0.0175,-1.37044 -0.05184,-1.76273 -0.01693,-0.19615 -0.03762,-0.34095 -0.06587,-0.44233 -0.01439,-0.0507 -0.02737,-0.0906 -0.05882,-0.1294 -0.0158,-0.0192 -0.03937,-0.0409 -0.07482,-0.0499 z m 13.47278,0.003 c -0.04563,0.006 -0.07284,0.034 -0.08808,0.055 -0.03051,0.042 -0.03999,0.0817 -0.05263,0.13564 -0.02512,0.10783 -0.04459,0.26667 -0.06079,0.48051 -0.0324,0.42773 -0.0499,1.06951 -0.0499,1.882 0,0.78085 0.02201,1.39841 0.05729,1.84104 0.0175,0.22135 0.0383,0.39884 0.06158,0.53278 0.02314,0.13392 0.03852,0.2174 0.08848,0.28801 0.0127,0.0175 0.0291,0.0374 0.0596,0.051 0.03054,0.0138 0.07595,0.0119 0.104846,-0.003 0.05785,-0.0294 0.06926,-0.0678 0.08534,-0.10755 0.03223,-0.0796 0.05515,-0.19352 0.07835,-0.35972 0.0464,-0.3324 0.08475,-0.86434 0.106002,-1.61541 l 0.04834,-1.71908 1.30556,1.77521 c 0.407162,0.55372 0.796318,1.05715 1.09632,1.42328 0.149973,0.18307 0.277453,0.33166 0.375299,0.43648 0.04888,0.0524 0.08986,0.0939 0.12511,0.12471 0.0175,0.0155 0.03358,0.0282 0.05102,0.0393 0.0175,0.0113 0.03246,0.0263 0.07874,0.0263 0.05602,0 0.08642,-0.0363 0.100556,-0.0577 0.01439,-0.0215 0.02088,-0.0405 0.02794,-0.0619 0.01439,-0.0429 0.02484,-0.0952 0.03545,-0.16135 0.02117,-0.13222 0.03954,-0.3171 0.05498,-0.54485 0.03082,-0.45548 0.04987,-1.0804 0.04987,-1.76815 0,-0.7666 -0.01919,-1.39161 -0.05419,-1.82861 -0.0175,-0.21852 -0.03892,-0.38929 -0.06505,-0.51172 -0.01298,-0.0612 -0.02653,-0.11004 -0.0464,-0.15198 -0.0099,-0.0209 -0.0206,-0.0406 -0.04013,-0.0604 -0.01947,-0.0198 -0.05314,-0.0413 -0.09353,-0.0413 -0.03652,0 -0.06897,0.0175 -0.08887,0.0355 -0.02004,0.0181 -0.03212,0.0364 -0.0425,0.0557 -0.0206,0.0386 -0.03423,0.0821 -0.04753,0.136 -0.02653,0.10776 -0.04781,0.25544 -0.06545,0.44315 -0.03533,0.37538 -0.05498,0.90751 -0.05498,1.54991 v 1.81534 l -1.330893,-1.82429 c -0.41577,-0.56978 -0.814239,-1.109 -1.122003,-1.51918 -0.153924,-0.20506 -0.285326,-0.37778 -0.384669,-0.50622 -0.09934,-0.12844 -0.159822,-0.20605 -0.198374,-0.24553 -0.01976,-0.0203 -0.05921,-0.0448 -0.104817,-0.039 z m 5.09016,0 c -0.03607,-0.0116 -0.0801,-0.003 -0.106398,0.0136 -0.06059,0.0374 -0.06776,0.0792 -0.08379,0.12666 -0.0158,0.0475 -0.02949,0.1053 -0.04211,0.17577 -0.02512,0.14094 -0.04642,0.33147 -0.06429,0.56473 -0.0357,0.46642 -0.0565,1.10171 -0.0565,1.82352 0,0.76265 0.01919,1.38495 0.05416,1.81999 0.0175,0.21754 0.03849,0.38783 0.06468,0.50978 0.01326,0.061 0.02653,0.10936 0.0464,0.15122 0.0099,0.0209 0.02117,0.0407 0.04053,0.0604 0.01947,0.0198 0.05323,0.0409 0.09353,0.0409 0.04157,0 0.07555,-0.0226 0.09469,-0.0429 0.01919,-0.0203 0.03003,-0.0405 0.03976,-0.062 0.01947,-0.0429 0.03296,-0.0928 0.04597,-0.15627 0.02596,-0.12683 0.0473,-0.30466 0.06471,-0.53238 0.03488,-0.4554 0.05416,-1.10832 0.05416,-1.91197 0,-0.84461 -0.0175,-1.4865 -0.05182,-1.91161 -0.01722,-0.21254 -0.03779,-0.36982 -0.06548,-0.47859 -0.01383,-0.0544 -0.02625,-0.096 -0.05574,-0.1364 -0.01468,-0.0203 -0.03641,-0.043 -0.07247,-0.0546 z m -10.243904,0.0986 c -0.04936,0 -0.0819,0.0303 -0.09821,0.0514 -0.01637,0.0212 -0.02484,0.0409 -0.0331,0.0624 -0.01637,0.0431 -0.02839,0.0948 -0.04016,0.15979 -0.02342,0.13005 -0.04357,0.31146 -0.06039,0.53704 -0.0337,0.45114 -0.05379,1.07626 -0.05379,1.78337 0,0.7666 0.01919,1.392 0.05419,1.829 0.0175,0.21849 0.0385,0.38929 0.06469,0.51172 0.01298,0.0612 0.02653,0.10964 0.0464,0.15158 0.0096,0.0209 0.0206,0.041 0.04013,0.0608 0.01947,0.0198 0.05351,0.0409 0.09389,0.0409 0.03672,0 0.06898,-0.0175 0.08884,-0.0355 0.02004,-0.0181 0.03175,-0.0367 0.04211,-0.0561 0.0206,-0.0387 0.03466,-0.0826 0.04795,-0.13679 0.02653,-0.1084 0.04781,-0.25711 0.06545,-0.44622 0.03533,-0.37824 0.05498,-0.91471 0.05498,-1.56281 v -1.83131 l 1.365983,1.87731 c 0.426466,0.58601 0.841954,1.11978 1.169586,1.50978 0.163801,0.19501 0.305336,0.3541 0.416983,0.46688 0.05582,0.0564 0.103942,0.10098 0.146163,0.13445 0.04219,0.0335 0.06598,0.0637 0.13874,0.0674 0.05103,0.003 0.104987,-0.0215 0.139898,-0.0565 0.03491,-0.0352 0.05735,-0.0779 0.0764,-0.129 0.03807,-0.10211 0.06271,-0.24243 0.08261,-0.44039 0.03979,-0.39587 0.05534,-1.01955 0.05534,-1.95526 0,-0.7719 -0.02286,-1.37013 -0.05845,-1.78881 -0.01778,-0.20935 -0.03855,-0.37349 -0.06234,-0.49456 -0.01214,-0.0605 -0.02427,-0.11018 -0.039,-0.15159 -0.01468,-0.0415 -0.02596,-0.0758 -0.06739,-0.11032 -0.0206,-0.0172 -0.05729,-0.0336 -0.09432,-0.0292 -0.03708,0.004 -0.06339,0.0246 -0.0799,0.0421 -0.03305,0.035 -0.04533,0.0694 -0.06003,0.1134 -0.02935,0.0881 -0.05376,0.21525 -0.07676,0.39209 -0.04603,0.35363 -0.08357,0.90176 -0.103689,1.6571 l -0.04868,1.8352 -1.387433,-1.8917 c -0.429894,-0.5861 -0.841712,-1.11876 -1.159833,-1.50628 -0.15906,-0.19375 -0.294527,-0.35131 -0.398695,-0.46223 -0.05207,-0.0554 -0.09607,-0.0989 -0.13366,-0.13134 -0.01891,-0.0161 -0.03576,-0.0297 -0.05419,-0.0413 -0.01834,-0.0116 -0.03502,-0.0265 -0.08029,-0.0265 z m -2.974763,0.0998 c -0.051,0 -0.102221,0.0209 -0.144978,0.0542 -0.04273,0.0332 -0.08111,0.0781 -0.122738,0.13832 -0.08334,0.12048 -0.179917,0.30547 -0.310642,0.59317 -0.261423,0.57537 -0.656534,1.56058 -1.305193,3.21875 -0.103745,0.2652 -0.175853,0.50574 -0.209268,0.68746 -0.01693,0.0909 -0.02455,0.16595 -0.01834,0.23151 0.0031,0.0328 0.0085,0.0645 0.02921,0.0982 0.0206,0.0337 0.07061,0.0666 0.116925,0.0666 0.0823,0 0.12573,-0.0449 0.172663,-0.0931 0.0469,-0.0483 0.09364,-0.11139 0.14224,-0.18748 0.09717,-0.15209 0.199672,-0.35577 0.288008,-0.58067 l 0.288403,-0.73502 h 1.067054 1.063187 l 0.240482,0.72954 c 0.07476,0.22665 0.170603,0.43225 0.268506,0.58615 0.04894,0.077 0.0981,0.14111 0.149662,0.19022 0.05151,0.0491 0.106285,0.0904 0.18432,0.0904 0.03406,0 0.07476,-0.0181 0.09782,-0.0433 0.02314,-0.0254 0.0322,-0.0516 0.03782,-0.076 0.01101,-0.0488 0.0087,-0.097 0.0028,-0.15703 -0.01383,-0.12017 -0.05215,-0.28411 -0.113792,-0.49612 -0.123275,-0.42401 -0.340106,-1.03643 -0.641491,-1.80797 -0.263398,-0.67426 -0.529167,-1.28691 -0.746309,-1.73347 -0.108571,-0.22329 -0.204978,-0.40476 -0.284508,-0.53391 -0.03977,-0.0646 -0.07487,-0.1159 -0.10874,-0.1555 -0.01693,-0.0198 -0.03327,-0.0371 -0.0534,-0.0522 -0.02004,-0.0152 -0.04527,-0.0328 -0.08884,-0.0328 z m 0.0065,0.88477 c 0,0 0,-3e-5 0.0028,0 -0.0127,-0.0127 0,0 0.0085,0.0164 0.0096,0.0169 0.02201,0.0412 0.03703,0.0717 0.02986,0.061 0.06881,0.14619 0.113425,0.24784 0.08918,0.20337 0.201365,0.47374 0.31448,0.76076 l 0.35893,0.91118 h -0.844916 -0.845312 l 0.35893,-0.91118 c 0.21796,-0.55299 0.352072,-0.87029 0.438037,-1.01718 0.03742,-0.0638 0.05788,-0.0769 0.05966,-0.0803 z"
       id="path4921-2"
       inkscape:connector-curvature="0"
       sodipodi:nodetypes="ccccccccccccccccccccccscscscccccccccscccccccccccccccccscccccccccscccccccsssscccsccccccscsscsscccccccccsccccsccccccccccccssccccccccccccsccccccccccscccccsccccccccccccccccccccscccccccscccccscccssccsccccscccsccccccssccccscccsscccsccscsscsscccccscsccccccccscscccscccscsccccccccscccccccccccsccsccccsccccscccsscccsccccccccsccccsccccscccccsccccsccccsccccscccssccccsccccccccccccsccsscccscccscccccccccscccccscccssccccccccccccccc" />
  </g>
</svg>
