<?xml version="1.0" encoding="UTF-8" standalone="no"?>
<!-- Created with Inkscape (http://www.inkscape.org/) -->

<svg
   xmlns:dc="http://purl.org/dc/elements/1.1/"
   xmlns:cc="http://creativecommons.org/ns#"
   xmlns:rdf="http://www.w3.org/1999/02/22-rdf-syntax-ns#"
   xmlns:svg="http://www.w3.org/2000/svg"
   xmlns="http://www.w3.org/2000/svg"
   xmlns:sodipodi="http://sodipodi.sourceforge.net/DTD/sodipodi-0.dtd"
   xmlns:inkscape="http://www.inkscape.org/namespaces/inkscape"
   width="33.31057mm"
   height="25.250607mm"
   viewBox="0 0 33.31057 25.250607"
   version="1.1"
   id="svg376"
   inkscape:version="0.92.1 r15371"
   sodipodi:docname="Lycee_LeDantec.svg">
  <defs
     id="defs370" />
  <sodipodi:namedview
     id="base"
     pagecolor="#ffffff"
     bordercolor="#666666"
     borderopacity="1.0"
     inkscape:pageopacity="0.0"
     inkscape:pageshadow="2"
     inkscape:zoom="1.1798828"
     inkscape:cx="329.46128"
     inkscape:cy="-43.194242"
     inkscape:document-units="mm"
     inkscape:current-layer="layer1"
     showgrid="false"
     inkscape:window-width="1920"
     inkscape:window-height="995"
     inkscape:window-x="1280"
     inkscape:window-y="0"
     inkscape:window-maximized="1"
     fit-margin-top="0"
     fit-margin-left="0"
     fit-margin-right="0"
     fit-margin-bottom="0" />
  <metadata
     id="metadata373">
    <rdf:RDF>
      <cc:Work
         rdf:about="">
        <dc:format>image/svg+xml</dc:format>
        <dc:type
           rdf:resource="http://purl.org/dc/dcmitype/StillImage" />
        <dc:title></dc:title>
      </cc:Work>
    </rdf:RDF>
  </metadata>
  <g
     inkscape:label="Calque 1"
     inkscape:groupmode="layer"
     id="layer1"
     transform="translate(-14.739074,-112.15425)">
    <path
       style="color:#000000;font-style:normal;font-variant:normal;font-weight:normal;font-stretch:normal;font-size:medium;line-height:normal;font-family:sans-serif;text-indent:0;text-align:start;text-decoration:none;text-decoration-line:none;text-decoration-style:solid;text-decoration-color:#000000;letter-spacing:normal;word-spacing:normal;text-transform:none;writing-mode:lr-tb;direction:ltr;baseline-shift:baseline;text-anchor:start;white-space:normal;clip-rule:nonzero;display:inline;overflow:visible;visibility:visible;opacity:1;isolation:auto;mix-blend-mode:normal;color-interpolation:sRGB;color-interpolation-filters:linearRGB;solid-color:#000000;solid-opacity:1;fill:none;fill-opacity:1;fill-rule:nonzero;stroke:#ff0000;stroke-width:0.25737837;stroke-linecap:butt;stroke-linejoin:miter;stroke-miterlimit:4;stroke-dasharray:none;stroke-dashoffset:0;stroke-opacity:1;color-rendering:auto;image-rendering:auto;shape-rendering:auto;text-rendering:auto;enable-background:accumulate"
       d="m 14.877505,112.28294 v 1.02951 1.02952 h 3.345942 3.345913 v -1.02952 -1.02951 h -3.345913 z m 8.236119,0 v 2.83116 2.83114 h 1.029518 1.029518 v -2.83114 -2.83116 h -1.029518 z m 7.2066,0 v 2.83116 2.83114 h 1.029518 1.029491 v -1.95091 -1.66393 l 0.681651,0.14176 c 0.682216,0.14179 1.180564,0.42935 1.514122,0.85759 0.33353,0.42824 0.506702,1.00525 0.506702,1.74284 0,0.5503 -0.02887,0.88462 -0.122654,1.13459 -0.09378,0.24996 -0.253661,0.43304 -0.55499,0.6922 -0.293511,0.25248 -0.519035,0.39274 -0.846017,0.47806 -0.327011,0.0853 -0.762847,0.1121 -1.450764,0.1121 h -1.787059 v 1.0627 1.07022 l 2.2063,-0.12768 c 1.546747,-0.0896 2.286875,-0.25513 2.836164,-0.66458 1.152539,-0.85902 1.675299,-2.01656 1.699627,-3.73346 0.02201,-1.53633 -0.411395,-2.74799 -1.269802,-3.56963 -0.858407,-0.82166 -2.129452,-1.24417 -3.752116,-1.24417 z m -14.272936,3.73199 -0.09201,0.95258 -0.09401,0.97773 h 2.362172 2.361607 l -0.09398,-0.97773 -0.092,-0.95258 h -2.175623 z m -0.140265,3.47461 c -0.323088,-0.0254 -0.613494,0.0304 -0.863148,0.16639 -0.08656,0.0865 -0.125956,0.20467 -0.14526,0.34282 -0.01919,0.13815 -0.02117,0.30474 -0.02117,0.52028 -0.02512,0.32292 0.03071,0.61349 0.16637,0.86312 0.260012,0.19219 0.591764,0.16349 0.863149,0.16639 0.322749,0.0251 0.613607,-0.0312 0.86312,-0.16639 0.192024,-0.26007 0.163463,-0.59191 0.166398,-0.86312 0.02512,-0.3227 -0.03124,-0.61364 -0.166398,-0.8631 -0.26004,-0.19267 -0.591707,-0.16374 -0.86312,-0.16639 z m 7.206601,0 v 1.02949 1.02951 h 2.959861 2.959834 v -1.02951 -1.02949 h -2.959834 z m -0.303135,5.16113 c -0.171281,0.0354 -0.357971,0.17097 -0.578584,0.39162 -0.141619,0.14159 -0.228854,0.37236 -0.297095,0.65901 -0.06827,0.28666 -0.108063,0.62806 -0.108063,0.97624 0,0.29108 0,0.51175 0.01468,0.68518 0.01439,0.17339 0.04078,0.3059 0.118138,0.41117 0.07738,0.10529 0.202241,0.1553 0.337312,0.17145 0.1351,0.0161 0.293991,0.008 0.50117,0 0.194903,-0.009 0.341715,-0.0164 0.444895,-0.0243 0.05156,-0.004 0.09153,-0.007 0.124658,-0.0127 0.01637,-0.003 0.03113,-0.005 0.04775,-0.0102 0.01665,-0.005 0.03604,-3e-5 0.07643,-0.0458 0.02004,-0.0229 0.04013,-0.0769 0.02915,-0.12017 -0.01101,-0.0433 -0.03373,-0.0623 -0.04778,-0.0734 -0.02794,-0.022 -0.04216,-0.0246 -0.05729,-0.0297 -0.0302,-0.0102 -0.06135,-0.0169 -0.103547,-0.0251 -0.08439,-0.0164 -0.207434,-0.0358 -0.372477,-0.0608 -0.369316,-0.0559 -0.560522,-0.25333 -0.587164,-0.36997 -0.01326,-0.0583 -0.0045,-0.0935 0.04473,-0.13524 0.04905,-0.0417 0.154602,-0.0839 0.330285,-0.0839 0.159089,0 0.304151,-0.0307 0.420737,-0.089 0.116586,-0.0583 0.222701,-0.15612 0.222701,-0.29709 0,-0.141 -0.106115,-0.23885 -0.222701,-0.2971 -0.116586,-0.0583 -0.261648,-0.089 -0.420737,-0.089 -0.158665,0 -0.265571,-0.0298 -0.317698,-0.0609 -0.05213,-0.031 -0.05382,-0.0434 -0.05128,-0.0734 0.0028,-0.03 0.03028,-0.0934 0.109079,-0.1649 0.0788,-0.0715 0.203511,-0.14944 0.371997,-0.21714 0.166596,-0.067 0.277481,-0.11947 0.354415,-0.19858 0.01919,-0.0198 0.03875,-0.0426 0.05125,-0.0819 0.0127,-0.0394 0.0054,-0.10411 -0.02512,-0.14274 -0.06102,-0.0773 -0.120114,-0.0705 -0.179973,-0.0734 -0.06514,-0.003 -0.413851,0.0405 -0.416363,0.0367 -0.0028,-0.004 0.217735,-0.12968 0.243474,-0.17134 0.0657,-0.10629 0.207828,-0.12567 0.192052,-0.23286 -0.0079,-0.0536 -0.05201,-0.11695 -0.105551,-0.14024 -0.05354,-0.0234 -0.100443,-0.0189 -0.143256,-0.0102 z m -7.583593,0.49113 -0.256907,0.006 -0.04626,1.35125 -0.05125,1.49047 0.976235,-0.0447 c 0.190049,-0.009 0.333417,-0.0161 0.43482,-0.0243 0.05069,-0.004 0.09023,-0.008 0.123162,-0.0133 0.01637,-0.003 0.03138,-0.005 0.04775,-0.01 0.01637,-0.005 0.03389,-0.003 0.0714,-0.0402 0.01891,-0.0189 0.04301,-0.0631 0.03818,-0.10806 -0.0048,-0.045 -0.02836,-0.0713 -0.04324,-0.085 -0.02975,-0.0274 -0.04462,-0.0291 -0.0598,-0.0347 -0.03037,-0.011 -0.06017,-0.0175 -0.100556,-0.0257 -0.08074,-0.0164 -0.198459,-0.0352 -0.35639,-0.0593 -0.151751,-0.0231 -0.263709,-0.0489 -0.341348,-0.0835 -0.07764,-0.0345 -0.122626,-0.0724 -0.164366,-0.14176 -0.08348,-0.13871 -0.132701,-0.43194 -0.175458,-0.9707 z m 1.575421,0.0102 c -0.04685,0 -0.106144,0.0245 -0.138741,0.0648 -0.03262,0.0403 -0.04135,0.0825 -0.04425,0.11966 -0.0059,0.0743 0.01101,0.14467 0.03771,0.22874 0.05337,0.16806 0.157029,0.38238 0.301103,0.6188 0.135862,0.22276 0.265148,0.48506 0.361442,0.72336 0.09632,0.23831 0.158129,0.45907 0.165919,0.57007 0.0071,0.10109 0.01411,0.17531 0.02512,0.23224 0.0054,0.0285 0.0079,0.0503 0.02766,0.086 0.0099,0.0178 0.02512,0.0463 0.07188,0.0654 0.04665,0.0192 0.110828,0 0.136736,-0.0195 0.05184,-0.0406 0.05032,-0.0641 0.06034,-0.0905 0.01016,-0.0263 0.01863,-0.0556 0.02766,-0.091 0.01806,-0.0706 0.03768,-0.16533 0.06082,-0.28903 v 0 c 0.06028,-0.32221 0.277199,-0.84215 0.45847,-1.10092 0.210002,-0.2998 0.335083,-0.53289 0.365958,-0.7309 0.01552,-0.099 0.0048,-0.2021 -0.06031,-0.27999 -0.06531,-0.0779 -0.166568,-0.1066 -0.26845,-0.1066 -0.07614,0 -0.130951,0.0328 -0.181977,0.0709 -0.05103,0.0381 -0.09864,0.0866 -0.146276,0.14428 -0.09528,0.11534 -0.188468,0.26687 -0.263398,0.43482 l -0.148816,0.3343 -0.183473,-0.34231 c -0.08994,-0.16806 -0.199192,-0.31945 -0.309146,-0.43383 -0.109982,-0.11442 -0.206333,-0.20814 -0.355911,-0.20814 z m 8.180323,0.0161 c -0.171591,-0.004 -0.306945,-0.006 -0.4283,0.0212 -0.121384,0.0271 -0.233511,0.0988 -0.296108,0.21113 -0.125193,0.22476 -0.11509,0.54816 -0.11509,1.16727 v 1.42161 l 0.971183,-0.0447 c 0.194903,-0.009 0.341715,-0.0161 0.444895,-0.0243 0.05156,-0.004 0.09152,-0.008 0.124658,-0.0127 0.01637,-0.003 0.03113,-0.005 0.04775,-0.0102 0.01665,-0.004 0.03604,-3e-5 0.07643,-0.0458 0.02004,-0.0229 0.0401,-0.0769 0.02915,-0.12014 -0.01101,-0.0433 -0.03373,-0.0623 -0.04778,-0.0734 -0.02822,-0.022 -0.04219,-0.0245 -0.05729,-0.0297 -0.03023,-0.0102 -0.06136,-0.0169 -0.103576,-0.0251 -0.08436,-0.0164 -0.207405,-0.0358 -0.372477,-0.0608 -0.369316,-0.0559 -0.560521,-0.25333 -0.587135,-0.36997 -0.01355,-0.0583 -0.0045,-0.0935 0.04473,-0.13524 0.04905,-0.0417 0.154602,-0.0839 0.330285,-0.0839 0.159089,0 0.304151,-0.0307 0.420737,-0.089 0.116586,-0.0583 0.222701,-0.15612 0.222701,-0.29707 0,-0.14099 -0.106115,-0.23884 -0.222701,-0.29709 -0.116586,-0.0583 -0.261648,-0.089 -0.420737,-0.089 -0.158665,0 -0.265599,-0.0298 -0.317726,-0.0608 -0.0521,-0.031 -0.05379,-0.0434 -0.05125,-0.0734 0.0028,-0.03 0.03025,-0.0934 0.109079,-0.1649 0.07877,-0.0715 0.20351,-0.14944 0.371968,-0.21715 0.139531,-0.0561 0.244151,-0.0985 0.318714,-0.1347 0.03731,-0.0181 0.0666,-0.0327 0.09652,-0.0563 0.01496,-0.0118 0.03172,-0.0248 0.04826,-0.0548 0.01637,-0.0299 0.02484,-0.0921 0.0028,-0.13524 -0.0223,-0.0431 -0.05216,-0.058 -0.07287,-0.0678 -0.0206,-0.01 -0.03773,-0.0141 -0.05529,-0.0181 -0.03514,-0.008 -0.07245,-0.0121 -0.119154,-0.0158 -0.09339,-0.007 -0.221686,-0.0104 -0.392092,-0.0147 z m -4.451857,0.007 c -0.230068,-0.007 -0.471086,0.0234 -0.681652,0.0784 -0.210537,0.055 -0.389805,0.12739 -0.507209,0.24477 -0.294866,0.29489 -0.387943,0.75384 -0.333305,1.19442 0.05467,0.44055 0.258798,0.87537 0.613805,1.12403 0.332571,0.23295 0.468997,0.35676 0.65199,0.39108 0.0915,0.0172 0.180848,0.003 0.272965,-0.0291 0.04448,-0.0147 0.111337,-0.0431 0.164367,-0.0643 v 0 l 0.175937,-0.0694 c 0.100161,-0.0395 0.173115,-0.0708 0.233256,-0.11461 0.03008,-0.022 0.06254,-0.0469 0.08193,-0.10154 0.01947,-0.0547 -0.0039,-0.13271 -0.03669,-0.1679 -0.06556,-0.0704 -0.130076,-0.0811 -0.225213,-0.10659 -0.09511,-0.0254 -0.219287,-0.0501 -0.379024,-0.0784 -0.314283,-0.0557 -0.476053,-0.11885 -0.569017,-0.22369 -0.09299,-0.10488 -0.144356,-0.28612 -0.176953,-0.62284 -0.03525,-0.36364 -0.02371,-0.54054 0.04925,-0.64143 0.07284,-0.10093 0.253379,-0.18342 0.630372,-0.29208 l 0.852057,-0.24589 -0.03217,-0.25233 -0.78469,-0.0232 z m 24.380583,2.85624 c -0.266841,0.0307 -0.475687,0.0964 -0.630399,0.22572 -0.154686,0.12934 -0.239663,0.31724 -0.27195,0.5444 -0.02653,0.18599 -0.01892,0.34042 0.03468,0.467 0.05368,0.12657 0.169023,0.21909 0.301103,0.23879 0.264187,0.0394 0.55925,-0.12661 0.904859,-0.43937 0.172551,-0.15615 0.29944,-0.29407 0.382524,-0.42124 0.08312,-0.12717 0.132139,-0.25217 0.09503,-0.37954 -0.03711,-0.12736 -0.159965,-0.20215 -0.296588,-0.23173 -0.136623,-0.0296 -0.306353,-0.0285 -0.51926,-0.004 z m -26.41549,1.496 c -0.132842,0 -0.255242,0.0334 -0.352863,0.096 -0.09762,0.0626 -0.176953,0.16454 -0.176953,0.29004 0,0.0183 -0.01129,0.0449 -0.0563,0.0749 -0.04501,0.03 -0.118336,0.0538 -0.201083,0.0538 -0.0979,0 -0.199842,0.0329 -0.27449,0.10406 -0.07462,0.0713 -0.120509,0.16896 -0.153811,0.29108 -0.0666,0.24423 -0.08645,0.60226 -0.08645,1.14915 v 1.54426 h 1.029518 c 0.257726,0 0.491773,-0.0291 0.671576,-0.0804 0.08989,-0.0257 0.16606,-0.0562 0.229729,-0.099 0.06367,-0.0428 0.128186,-0.10981 0.128186,-0.20664 0,-0.14097 -0.106116,-0.23879 -0.222702,-0.29709 -0.116586,-0.0582 -0.261648,-0.089 -0.420737,-0.089 -0.160895,0 -0.271639,-0.0265 -0.325233,-0.0538 -0.05362,-0.0274 -0.0453,-0.0284 -0.04425,-0.0387 0,-0.0102 0.02314,-0.0621 0.101036,-0.12167 0.07803,-0.0596 0.20368,-0.125 0.373013,-0.18096 1.152991,-0.36043 -0.0158,-0.55397 -0.0158,-0.55397 -0.16685,-0.0328 -0.289927,-0.0835 -0.365478,-0.13321 -0.07549,-0.0497 -0.09505,-0.0949 -0.09598,-0.10355 0,-0.009 -0.0076,-0.0147 0.04626,-0.0437 0.05402,-0.029 0.164536,-0.0573 0.326249,-0.0573 0.168713,0 0.323568,-0.0495 0.441819,-0.13823 0.118308,-0.0887 0.20162,-0.22352 0.20162,-0.37652 0,-0.13092 -0.03646,-0.25182 -0.103576,-0.34685 -0.06708,-0.095 -0.172917,-0.16792 -0.297575,-0.16792 -0.04182,0 -0.03088,-0.005 -0.02822,0 0.0028,0.006 -0.0059,-0.0138 0.02371,-0.0618 0.06454,-0.10445 0.05966,-0.25194 -0.02117,-0.33782 -0.08074,-0.0858 -0.19733,-0.11613 -0.330256,-0.11613 z m 25.935684,7.70969 c 0.515167,-0.0141 1.030025,-0.13606 1.511329,-0.38495 1.236302,-0.63935 1.978067,-1.91211 1.978067,-3.38111 0,-2.19174 -1.784662,-3.7518 -3.747545,-3.7697 -0.654304,-0.006 -1.32856,0.15949 -1.963023,0.52985 -0.510654,0.29808 -0.967994,0.82784 -1.303473,1.43366 -0.335506,0.60582 -0.54864,1.28857 -0.547934,1.90624 0.0028,1.63316 1.231504,2.97488 2.733067,3.46631 m -27.313633,-6.99525 c -0.191488,0 -0.33957,0 -0.470013,0.0271 -0.130443,0.0279 -0.250021,0.10177 -0.315694,0.2222 -0.131346,0.24076 -0.115118,0.59405 -0.115118,1.29492 0,0.39565 0.0287,0.75514 0.07738,1.02297 0.02455,0.13394 0.05309,0.24387 0.09051,0.3313 0.01891,0.0437 0.03881,0.0824 0.06988,0.1176 0.03104,0.0352 0.08232,0.0724 0.148307,0.0724 0.14097,0 0.238281,-0.10561 0.29656,-0.22216 0.05831,-0.11662 0.08949,-0.26219 0.08949,-0.42128 0,-0.15014 0.03553,-0.23963 0.09099,-0.29506 0.05546,-0.0555 0.144921,-0.091 0.295091,-0.091 0.186154,0 0.330285,-0.0246 0.441847,-0.0814 0.111563,-0.0568 0.195608,-0.17252 0.183473,-0.29408 -0.01214,-0.12155 -0.09127,-0.21677 -0.201055,-0.30062 -0.109813,-0.0838 -0.258854,-0.15802 -0.448423,-0.22067 l -0.113594,-0.0377 0.09804,-0.0192 c 0.236558,-0.0465 0.413568,-0.1272 0.533343,-0.23777 0.119747,-0.11058 0.178844,-0.26377 0.146276,-0.40719 -0.03254,-0.1434 -0.142974,-0.25967 -0.296587,-0.33779 -0.153614,-0.0781 -0.35481,-0.12268 -0.60071,-0.12268 z m 4.375432,0 c -0.06595,0 -0.117264,0.0372 -0.148308,0.0724 -0.03104,0.0352 -0.05117,0.0734 -0.06988,0.11713 -0.03742,0.0874 -0.06612,0.19783 -0.09048,0.33175 -0.01468,0.72421 -0.291818,1.67564 0.0377,2.31795 0.06564,0.12039 0.184742,0.19417 0.315186,0.22219 0.130443,0.0279 0.279033,0.0271 0.470549,0.0271 0.223999,0 0.427143,-0.0296 0.585611,-0.0824 0.07925,-0.0265 0.148054,-0.0578 0.205091,-0.10253 0.05706,-0.0448 0.110123,-0.11306 0.110123,-0.20111 0,-0.14097 -0.106116,-0.23879 -0.22273,-0.2971 -0.116586,-0.0583 -0.261648,-0.089 -0.420737,-0.089 -0.101233,0 -0.170603,-0.0116 -0.212146,-0.0307 -0.04154,-0.0189 -0.06463,-0.0405 -0.09198,-0.10205 -0.05469,-0.12308 -0.08193,-0.40682 -0.08193,-0.89682 0,-0.3263 -0.0293,-0.62264 -0.07894,-0.84601 -0.02484,-0.11171 -0.05385,-0.2047 -0.0935,-0.2805 -0.01976,-0.0379 -0.04174,-0.0723 -0.07439,-0.10256 -0.03268,-0.0303 -0.08207,-0.0578 -0.139249,-0.0578 z m 5.303378,0 c -0.140236,0 -0.27099,0.0629 -0.382524,0.15384 -0.111562,0.091 -0.205232,0.21334 -0.25939,0.35439 -0.03322,0.0865 -0.06023,0.14303 -0.07942,0.17495 -0.0076,-0.006 -0.0034,-0.003 -0.03017,-0.0302 -0.04513,-0.0487 -0.107781,-0.12968 -0.187508,-0.23876 -0.129428,-0.17701 -0.25036,-0.29142 -0.376513,-0.3499 -0.06308,-0.0292 -0.129992,-0.0447 -0.197556,-0.0347 -0.06756,0.0102 -0.130866,0.0485 -0.172437,0.10002 -0.08311,0.10298 -0.09917,0.23981 -0.08342,0.40014 0.0158,0.16038 0.06931,0.34905 0.166398,0.56201 0.117122,0.25714 0.161685,0.42613 0.147263,0.58564 -0.01439,0.15954 -0.09076,0.3289 -0.254366,0.57861 -0.09384,0.14323 -0.165185,0.25581 -0.215646,0.34838 -0.05046,0.0925 -0.08532,0.16168 -0.08695,0.24982 0,0.0441 0.0127,0.0971 0.04422,0.13623 0.03155,0.0391 0.07253,0.0605 0.110095,0.0729 0.0751,0.0248 0.149916,0.0251 0.244291,0.0251 0.150029,0 0.297067,-0.0626 0.43132,-0.15483 0.134225,-0.0922 0.255073,-0.21677 0.336296,-0.36144 0.05145,-0.0916 0.08754,-0.1509 0.118139,-0.19705 0.02117,0.0448 0.04329,0.0958 0.07589,0.18049 0.05647,0.14655 0.152005,0.27437 0.264922,0.36999 0.112946,0.0956 0.244913,0.16284 0.387604,0.16284 0.119945,0 0.215816,-0.005 0.305111,-0.0432 0.04465,-0.0189 0.0891,-0.0501 0.119154,-0.096 0.03003,-0.0459 0.04174,-0.10112 0.04022,-0.15183 -0.0031,-0.10138 -0.04411,-0.19668 -0.108092,-0.31872 -0.06398,-0.122 -0.154911,-0.2687 -0.274969,-0.45189 -0.166285,-0.2538 -0.233454,-0.39779 -0.234272,-0.5027 0,-0.10493 0.0591,-0.22067 0.220697,-0.43431 0.243558,-0.32196 0.383907,-0.54073 0.392092,-0.75105 0.0042,-0.10512 -0.05117,-0.21666 -0.140744,-0.27093 -0.08961,-0.0543 -0.19448,-0.0679 -0.31973,-0.0679 z m -2.907058,0.0248 c -0.100584,-0.015 -0.191205,0.0495 -0.243812,0.12418 -0.05258,0.0747 -0.08938,0.17035 -0.121158,0.29306 -0.0635,0.24542 -0.101007,0.60136 -0.101007,1.08077 0,0.56693 0.01863,0.92995 0.08695,1.17582 0.03418,0.12294 0.0828,0.22124 0.160839,0.29106 0.07806,0.0698 0.180452,0.099 0.28002,0.099 0.09776,0 0.197979,-0.0226 0.276493,-0.088 0.07851,-0.0653 0.124856,-0.16087 0.152796,-0.27647 0.05588,-0.23116 0.05244,-0.56726 0.02117,-1.10289 -0.02825,-0.48336 -0.08769,-0.85381 -0.164875,-1.11548 -0.03858,-0.13084 -0.08105,-0.23428 -0.132221,-0.31519 -0.05114,-0.0809 -0.114554,-0.1511 -0.215138,-0.16589 z m 18.687062,3.02757 c -0.05224,0.31123 -0.04806,0.63336 0.02257,0.95527 0.088,0.40069 0.401545,0.87477 0.784183,1.29943 0.382638,0.42472 0.829987,0.79316 1.229585,0.93853 0.636693,0.23171 1.294778,0.19423 1.879655,-0.0397 1.070949,-0.42824 1.896563,-1.51508 1.896563,-2.81409 0,-0.70104 -0.350211,-1.41264 -0.855586,-1.95498 -0.505402,-0.54235 -1.171475,-0.92191 -1.834303,-0.92191 -1.164871,0 -2.201246,0.64722 -2.748336,1.54658 m 1.320181,-0.51709 h 1.305475 c 0.611264,0 0.967343,0.0223 1.121492,0.0739 0.07711,0.0257 0.09333,0.0463 0.103069,0.0679 0.0099,0.0217 0.01468,0.0705 -0.0028,0.15584 -0.02088,0.11032 -0.08272,0.19417 -0.21367,0.26944 -0.130924,0.0753 -0.331668,0.13222 -0.597183,0.15785 -0.2481,0.024 -0.434536,0.0716 -0.569071,0.14023 -0.06725,0.0344 -0.122344,0.0739 -0.163859,0.12669 -0.04149,0.0528 -0.0672,0.12562 -0.0563,0.19657 0.02201,0.14187 0.142891,0.22053 0.291058,0.27347 0.148193,0.0529 0.345691,0.0824 0.59718,0.0824 0.177009,0 0.311912,0.036 0.391613,0.0849 0.0797,0.049 0.10809,0.0971 0.10809,0.17241 0,0.0753 -0.02839,0.12345 -0.10809,0.17244 -0.0797,0.049 -0.214604,0.0849 -0.391613,0.0849 -0.251489,0 -0.448987,0.0295 -0.59718,0.0824 -0.148167,0.0529 -0.269214,0.1316 -0.291058,0.27347 -0.01072,0.0709 0.01469,0.14374 0.0563,0.19654 0.04151,0.0528 0.0966,0.0924 0.163859,0.12669 0.134535,0.0686 0.320971,0.11628 0.569071,0.14024 0.265515,0.0257 0.466259,0.0821 0.597183,0.15734 0.13095,0.0753 0.192757,0.15959 0.21367,0.26994 0.01609,0.0854 0.0113,0.13428 0.0028,0.15585 -0.0099,0.0217 -0.02596,0.0421 -0.103069,0.0679 -0.154149,0.0515 -0.510228,0.0739 -1.121492,0.0739 h -1.305475 v -1.80165 z m -6.611395,2.59441 c -0.796798,0.0141 -1.460359,0.7567 -1.521686,1.52665 l -0.91488,-0.17994 c -0.166849,-0.0328 -0.289926,-0.0835 -0.365477,-0.13324 -0.0755,-0.0497 -0.09508,-0.0949 -0.09598,-0.10352 0,-0.009 -0.0076,-0.0147 0.04623,-0.0438 0.05405,-0.029 0.164564,-0.0573 0.326277,-0.0573 0.15906,0 0.304123,-0.0307 0.420737,-0.089 0.116586,-0.0583 0.222701,-0.15612 0.222701,-0.29709 0,-0.0968 -0.06452,-0.16378 -0.128213,-0.20662 -0.06367,-0.0428 -0.139813,-0.0734 -0.229729,-0.099 -0.179804,-0.0514 -0.413822,-0.0804 -0.671576,-0.0804 h -1.029518 v 1.41557 1.4156 h 1.029518 c 0.257754,0 0.491772,-0.0291 0.671576,-0.0804 0.08992,-0.0257 0.166059,-0.0562 0.229729,-0.099 0.0637,-0.0428 0.128213,-0.10981 0.128213,-0.20661 0,-0.14097 -0.106115,-0.23879 -0.222701,-0.2971 -0.116614,-0.0583 -0.261677,-0.089 -0.420737,-0.089 -0.160923,0 -0.271639,-0.0265 -0.325261,-0.0538 -0.05362,-0.0274 -0.04527,-0.0284 -0.04425,-0.0387 0,-0.0104 0.02314,-0.0621 0.101064,-0.12164 0.07801,-0.0596 0.203652,-0.12499 0.372985,-0.18099 l 0.884738,-0.29255 c -0.0071,0.32041 0.09449,0.64127 0.340332,0.91291 0.252843,0.27937 0.684389,0.45672 1.068211,0.52781 0.191911,0.0355 0.370953,0.0446 0.521293,0.0102 0.07516,-0.0172 0.145203,-0.0458 0.202607,-0.0986 0.05738,-0.0527 0.0955,-0.13465 0.0955,-0.21768 0,-0.0787 -0.03576,-0.12909 -0.07442,-0.17692 -0.03864,-0.0478 -0.08786,-0.0927 -0.145768,-0.13773 -0.115824,-0.0901 -0.267433,-0.17949 -0.435835,-0.25338 -0.322778,-0.14159 -0.482177,-0.41156 -0.493155,-0.64493 -0.01101,-0.2334 0.100273,-0.4261 0.399654,-0.48009 0.402703,-0.0726 0.688848,-0.19372 0.832443,-0.38255 0.07183,-0.0944 0.09802,-0.2308 0.04174,-0.3398 -0.0563,-0.10902 -0.164508,-0.18059 -0.309655,-0.23627 -0.171337,-0.0657 -0.341545,-0.094 -0.506701,-0.091 z m -14.640926,0.0116 c -0.214066,-0.006 -0.402675,0.0474 -0.541895,0.17495 -0.278468,0.25504 -0.340332,0.72254 -0.340332,1.45779 v 1.42364 h 0.997853 c 0.253944,0 0.516241,-0.0436 0.742471,-0.11461 0.226201,-0.0711 0.416842,-0.16194 0.532327,-0.30113 0.112099,-0.13504 0.176728,-0.33384 0.219682,-0.56402 0.04298,-0.23021 0.05763,-0.48999 0.0337,-0.73344 -0.03285,-0.33429 -0.09573,-0.58174 -0.23876,-0.77363 -0.143087,-0.19188 -0.356504,-0.31053 -0.646995,-0.40668 -0.297208,-0.0984 -0.543983,-0.15709 -0.758049,-0.16287 z m -6.415842,0.22521 c -0.06161,0 -0.112381,0.0325 -0.1443,0.0654 -0.03192,0.0328 -0.05317,0.0693 -0.07236,0.11007 -0.03844,0.0816 -0.06694,0.18339 -0.0915,0.30615 -0.04911,0.24551 -0.07792,0.57308 -0.07792,0.93399 0,0.62975 -0.01468,0.95481 0.121158,1.18133 0.06793,0.11328 0.185646,0.18096 0.31417,0.20763 0.128552,0.0265 0.275957,0.0265 0.465497,0.0265 0.224028,0 0.427143,-0.0296 0.585611,-0.0824 0.07925,-0.0265 0.148082,-0.0578 0.205119,-0.10256 0.05707,-0.0448 0.110095,-0.11306 0.110095,-0.20109 0,-0.14099 -0.106115,-0.23878 -0.222701,-0.29709 -0.116586,-0.0583 -0.261649,-0.089 -0.420737,-0.089 -0.09869,0 -0.16781,-0.011 -0.210651,-0.0297 -0.04281,-0.0186 -0.0659,-0.0393 -0.09248,-0.0925 -0.05317,-0.10629 -0.08295,-0.35399 -0.08295,-0.77865 0,-0.2919 -0.02907,-0.55714 -0.07942,-0.75859 -0.02512,-0.10072 -0.05489,-0.18499 -0.09604,-0.25484 -0.04109,-0.0699 -0.105015,-0.14478 -0.210594,-0.14478 z m 1.930343,0 v 1.41557 1.4156 h 1.029491 c 0.257753,0 0.491772,-0.0291 0.671576,-0.0804 0.08992,-0.0257 0.166059,-0.0562 0.229757,-0.099 0.06367,-0.0428 0.128185,-0.10981 0.128185,-0.20661 0,-0.141 -0.106116,-0.23879 -0.222702,-0.2971 -0.116586,-0.0583 -0.261648,-0.089 -0.420736,-0.089 -0.124037,0 -0.236136,-0.0268 -0.306155,-0.0619 -0.07002,-0.035 -0.07992,-0.0663 -0.07992,-0.0668 0,-0.0181 0.01072,-0.0449 0.05579,-0.0749 0.04499,-0.03 0.118815,-0.0538 0.201591,-0.0538 0.129568,0 0.248864,-0.0337 0.343832,-0.097 0.09497,-0.0633 0.170913,-0.16563 0.170913,-0.28905 0,-0.12342 -0.07595,-0.22572 -0.170913,-0.28905 -0.09497,-0.0633 -0.214264,-0.097 -0.343832,-0.097 -0.08278,0 -0.156605,-0.0237 -0.201591,-0.0538 -0.04499,-0.03 -0.05579,-0.0568 -0.05579,-0.0749 0,-0.02 0.01101,-0.0466 0.05328,-0.0759 0.04216,-0.0293 0.111365,-0.0528 0.189033,-0.0528 0.252645,0 0.512938,-0.11439 0.638894,-0.31821 0.04343,-0.0702 0.04222,-0.18446 -0.0085,-0.25087 -0.05074,-0.0663 -0.118392,-0.0982 -0.197555,-0.12513 -0.158299,-0.0538 -0.379251,-0.0779 -0.660033,-0.0779 h -1.044579 z m 7.825881,0 c -0.139502,0 -0.266305,0.007 -0.363954,0.02 -0.04882,0.007 -0.08963,0.013 -0.127169,0.0248 -0.01891,0.006 -0.03692,0.0119 -0.0598,0.0263 -0.02286,0.0141 -0.06835,0.0455 -0.0714,0.11665 v -0.004 c 0.0028,-0.0332 -1.97e-4,-0.004 -0.0048,0.0158 -0.0048,0.0192 -0.01214,0.047 -0.02173,0.0814 -0.01891,0.0688 -0.04623,0.16473 -0.07993,0.281 -0.06742,0.23258 -0.160048,0.54551 -0.261902,0.88121 -0.09897,0.32617 -0.158186,0.59538 -0.179973,0.80885 -0.02201,0.21345 -0.01919,0.37225 0.06787,0.49666 0.0436,0.0622 0.123161,0.10747 0.201083,0.10958 0.07792,0.003 0.147405,-0.0263 0.216634,-0.0684 0.138514,-0.0843 0.285524,-0.23396 0.459994,-0.45844 0.08269,-0.10642 0.146445,-0.18395 0.191516,-0.22772 0.04507,-0.0437 0.06164,-0.0443 0.05732,-0.0443 -0.0042,0 0.01242,0 0.05729,0.0443 0.04507,0.0438 0.108316,0.1213 0.191036,0.22772 0.105015,0.1351 0.233369,0.25471 0.361414,0.34434 0.128044,0.0896 0.249004,0.15585 0.383568,0.15585 0.0878,0 0.157903,0.0133 0.249343,-0.02 0.04569,-0.0166 0.09768,-0.0585 0.12113,-0.11058 0.02342,-0.0521 0.02484,-0.10264 0.02004,-0.15533 -0.01806,-0.21074 -0.141168,-0.53642 -0.385572,-1.25372 -0.15003,-0.4403 -0.28829,-0.75105 -0.447379,-0.96365 -0.159089,-0.21265 -0.357463,-0.32777 -0.575084,-0.32777 z m 2.280722,0 c -0.106708,0 -0.208731,0.0158 -0.297603,0.0719 -0.08884,0.0559 -0.152259,0.14794 -0.192024,0.26041 -0.07956,0.22487 -0.09398,0.55047 -0.09398,1.08328 0,0.47735 0.02201,0.80465 0.08746,1.03356 0.03279,0.11441 0.07716,0.20765 0.147291,0.27697 0.0701,0.0693 0.16812,0.10507 0.26289,0.10507 0.167584,0 0.300821,-0.11478 0.397115,-0.26244 0.07696,-0.11794 0.118421,-0.28053 0.153332,-0.44535 h 0.02427 l 0.01468,-0.11212 0.0377,-0.28855 0.163887,0.32927 c 0.147376,0.29656 0.288092,0.50735 0.432815,0.64096 0.07236,0.0668 0.1467,0.1154 0.229729,0.13823 0.08303,0.0229 0.175712,0.0135 0.250839,-0.0282 0.150227,-0.0835 0.229306,-0.2527 0.286033,-0.48209 0.0567,-0.22939 0.08596,-0.53018 0.08596,-0.90534 0,-0.36091 -0.02932,-0.68848 -0.07843,-0.93399 -0.02455,-0.12277 -0.05306,-0.22451 -0.0915,-0.30615 -0.01919,-0.0408 -0.04044,-0.0772 -0.07239,-0.11007 -0.03192,-0.0329 -0.08218,-0.0654 -0.143736,-0.0654 -0.08365,0 -0.152005,0.0473 -0.198092,0.10053 -0.04606,0.0532 -0.07899,0.11715 -0.106539,0.19103 -0.05517,0.14775 -0.0865,0.33602 -0.0885,0.54339 l -0.0028,0.26445 -0.205091,-0.3308 c -0.129258,-0.2085 -0.298365,-0.39454 -0.473032,-0.53283 -0.174668,-0.13829 -0.350605,-0.23577 -0.530352,-0.23577 z m 3.728466,0.008 c -0.30909,-0.003 -0.589844,0.0248 -0.802301,0.0734 -0.106229,0.0243 -0.194903,0.0526 -0.267914,0.0925 -0.03652,0.02 -0.06999,0.0424 -0.09903,0.0754 -0.02907,0.033 -0.0543,0.0818 -0.0543,0.13674 0,0.21175 0.1743,0.38605 0.38608,0.38605 -0.03483,0 -0.0315,-0.0169 -0.01101,0.0175 0.02032,0.0347 0.04637,0.10163 0.06785,0.18748 0.04296,0.17176 0.07191,0.42139 0.07191,0.69576 0,0.37793 0.02371,0.64468 0.09649,0.83897 0.03644,0.0972 0.08757,0.17859 0.160867,0.23576 0.07329,0.0572 0.165693,0.0834 0.257387,0.0834 0.179634,0 0.339202,-0.11808 0.414189,-0.30011 0.07504,-0.18203 0.100556,-0.42765 0.100556,-0.76561 0,-0.56611 0.168712,-1.00048 0.399655,-1.17577 0.101995,-0.0774 0.175965,-0.13544 0.228712,-0.20811 0.02625,-0.0363 0.05402,-0.0842 0.04623,-0.15085 -0.0076,-0.0667 -0.05915,-0.11861 -0.102531,-0.14224 -0.08681,-0.0472 -0.179465,-0.0548 -0.321733,-0.0648 -0.14224,-0.0102 -0.328958,-0.0138 -0.571049,-0.0158 z"
       id="path4760-8"
       inkscape:connector-curvature="0"
       sodipodi:nodetypes="ccccccccccccccccccccccccccssscssccccccssccccccccccccscccccccccccccccccccscscccccccccccccssscscccsccccccccccccccccscccscccccccccccccccccccccccccscscccsccccsscccccccccccccssscscccsccccccccccccccscccccccccccccccccccccsscscccccssscsscsssscsscccccccscsssccccccssccscccccscccssscsscscccssccscccccsccscsccscccscscsccccsccccccccsccccsscccccccccccccssccscccccccccsssssccscccscccccscscsccccsccccscccccccccsssssscccsssscssccccccccssccccsssccccscscccccccsscssccsccscsccsccscccsscscscscssssscscscccscccccccccscccccccsscccsccccsccsccscssccccccccccscccsccccccssccccscccsscscscccccccccccc" />
  </g>
</svg>
