<?xml version="1.0" encoding="UTF-8" standalone="no"?>
<!-- Created with Inkscape (http://www.inkscape.org/) -->

<svg
   xmlns:dc="http://purl.org/dc/elements/1.1/"
   xmlns:cc="http://creativecommons.org/ns#"
   xmlns:rdf="http://www.w3.org/1999/02/22-rdf-syntax-ns#"
   xmlns:svg="http://www.w3.org/2000/svg"
   xmlns="http://www.w3.org/2000/svg"
   xmlns:sodipodi="http://sodipodi.sourceforge.net/DTD/sodipodi-0.dtd"
   xmlns:inkscape="http://www.inkscape.org/namespaces/inkscape"
   width="27.445093mm"
   height="27.445122mm"
   viewBox="0 0 27.445093 27.445122"
   version="1.1"
   id="svg521"
   inkscape:version="0.92.1 r15371"
   sodipodi:docname="orange.svg">
  <defs
     id="defs515" />
  <sodipodi:namedview
     id="base"
     pagecolor="#ffffff"
     bordercolor="#666666"
     borderopacity="1.0"
     inkscape:pageopacity="0.0"
     inkscape:pageshadow="2"
     inkscape:zoom="1.1798828"
     inkscape:cx="279.38999"
     inkscape:cy="-36.50469"
     inkscape:document-units="mm"
     inkscape:current-layer="layer1"
     showgrid="false"
     fit-margin-top="0"
     fit-margin-left="0"
     fit-margin-right="0"
     fit-margin-bottom="0"
     inkscape:window-width="1920"
     inkscape:window-height="995"
     inkscape:window-x="1280"
     inkscape:window-y="0"
     inkscape:window-maximized="1" />
  <metadata
     id="metadata518">
    <rdf:RDF>
      <cc:Work
         rdf:about="">
        <dc:format>image/svg+xml</dc:format>
        <dc:type
           rdf:resource="http://purl.org/dc/dcmitype/StillImage" />
        <dc:title></dc:title>
      </cc:Work>
    </rdf:RDF>
  </metadata>
  <g
     inkscape:label="Calque 1"
     inkscape:groupmode="layer"
     id="layer1"
     transform="translate(-27.987104,-111.72968)">
    <path
       style="fill:none;stroke:#ff0000;stroke-width:0.27412173;stroke-opacity:1"
       d="M 28.124165,111.86674 H 41.709664 52.90048 m 2.394656,0 v 13.58553 10.39114 m 0,3.19433 H 41.709664 29.993182 m -1.869017,0 V 125.45227 114.4679 m 18.401537,23.7271 c 0.593852,-0.0396 0.99297,-0.18957 1.258908,-0.4732 0.160218,-0.17089 0.259108,-0.36746 0.311828,-0.62002 0.04772,-0.22865 0.0541,-0.53176 0.04995,-2.37744 l -0.0039,-1.77969 -0.416786,-0.003 c -0.388422,-0.003 -0.417237,-0.003 -0.42339,0.02 -0.0037,0.013 -0.01976,0.10039 -0.03596,0.1938 -0.03841,0.22222 -0.03663,0.21813 -0.06993,0.16222 -0.01524,-0.0257 -0.05938,-0.0796 -0.0979,-0.11974 -0.171817,-0.17899 -0.408432,-0.27664 -0.76327,-0.31488 -0.996922,-0.10747 -1.718197,0.71811 -1.718197,1.96672 0,0.39802 0.08145,0.79319 0.220641,1.07033 0.24003,0.47789 0.677136,0.769 1.209745,0.80566 0.50642,0.0349 0.83566,-0.10304 1.0576,-0.44303 0.04905,-0.0751 0.06796,-0.095 0.07442,-0.0782 0.01693,0.0443 -0.0051,0.64888 -0.02738,0.74687 -0.08145,0.35933 -0.318149,0.52443 -0.751416,0.52412 -0.397228,0 -0.61087,-0.0998 -0.68295,-0.31827 -0.01496,-0.0452 -0.02117,-0.0504 -0.05278,-0.0443 -0.01976,0.004 -0.239296,0.0394 -0.487991,0.079 l -0.452176,0.0721 0.0088,0.0412 c 0.01722,0.0823 0.09062,0.23868 0.154488,0.32964 0.245985,0.35027 0.738548,0.55654 1.366097,0.57218 0.03737,0 0.159625,-0.004 0.271724,-0.0119 z m -0.342872,-2.28894 c -0.167555,-0.0364 -0.325459,-0.15271 -0.414585,-0.30545 -0.05932,-0.10165 -0.116247,-0.29514 -0.14001,-0.47593 -0.03079,-0.23405 -0.0206,-0.70121 0.01863,-0.86905 0.092,-0.39156 0.307876,-0.62495 0.619506,-0.66986 0.329297,-0.0474 0.632968,0.12198 0.786666,0.43892 0.09426,0.19436 0.119267,0.31318 0.127649,0.60632 0.01101,0.38253 -0.0335,0.66286 -0.140293,0.88539 -0.06251,0.13019 -0.203933,0.27655 -0.322015,0.33325 -0.148675,0.0713 -0.363051,0.0939 -0.535658,0.0564 z m -14.521969,0.92947 c 0.911634,-0.0825 1.519682,-0.67465 1.651508,-1.60855 0.05385,-0.38137 0.01722,-0.83041 -0.09522,-1.16834 -0.08941,-0.26859 -0.226794,-0.49327 -0.41958,-0.68608 -0.25242,-0.25242 -0.567267,-0.41253 -0.951879,-0.48402 -0.178675,-0.0332 -0.583353,-0.0335 -0.753082,0 -0.830044,0.16127 -1.346623,0.71789 -1.46812,1.58197 -0.02738,0.19524 -0.02681,0.58155 0,0.7703 0.06708,0.45181 0.221009,0.7874 0.488273,1.06465 0.29512,0.30613 0.684614,0.48605 1.149209,0.53078 0.169192,0.0161 0.215617,0.0161 0.397735,0 z m -0.367905,-0.84243 c -0.409448,-0.0682 -0.647136,-0.39635 -0.697202,-0.96238 -0.01891,-0.21471 0,-0.46662 0.04744,-0.65676 0.113962,-0.44921 0.389636,-0.67422 0.827109,-0.6751 0.563682,0 0.878191,0.41219 0.87884,1.15491 0,0.54364 -0.18082,0.93099 -0.505206,1.0795 -0.143651,0.0658 -0.368667,0.0902 -0.550982,0.0598 z m 19.5937,0.78791 c 0.445318,-0.0546 0.845283,-0.2437 1.106621,-0.52304 0.07087,-0.0757 0.209522,-0.26334 0.200575,-0.27142 0,-0.003 -0.16493,-0.0922 -0.362824,-0.20162 -0.331753,-0.18338 -0.36116,-0.19702 -0.376965,-0.17466 -0.101261,0.14356 -0.262946,0.28922 -0.399852,0.36011 -0.146897,0.0761 -0.261084,0.0968 -0.491603,0.0889 -0.21305,-0.007 -0.302796,-0.0313 -0.45181,-0.12073 -0.217169,-0.13039 -0.360059,-0.43127 -0.381451,-0.80329 l -0.0085,-0.14602 h 1.256708 1.256707 l 0.0079,-0.11286 c 0.0096,-0.13448 -0.0087,-0.41704 -0.03796,-0.58688 -0.129794,-0.75554 -0.58197,-1.24412 -1.275193,-1.3779 -0.394603,-0.0761 -0.825359,-0.0402 -1.168484,0.0976 -0.411988,0.16544 -0.731266,0.51884 -0.884654,0.97917 -0.17526,0.52595 -0.172268,1.21892 0.0073,1.72771 0.284621,0.80572 1.003018,1.18759 2.003157,1.06491 z m -1.147996,-2.45612 c 0,-0.0529 0.03926,-0.22784 0.06886,-0.30701 0.08427,-0.22527 0.222362,-0.36147 0.442072,-0.43603 0.09229,-0.0314 0.128948,-0.0363 0.263455,-0.0359 0.247706,0 0.42037,0.0687 0.563344,0.22152 0.105974,0.11334 0.179944,0.30624 0.187141,0.48816 l 0.0034,0.0883 -0.764173,0.004 c -0.745772,0.003 -0.764202,0.003 -0.764202,-0.0226 z m -11.819183,2.42496 c 0.251488,-0.0449 0.49132,-0.13053 0.716082,-0.25555 0.07874,-0.0437 0.145711,-0.0771 0.148816,-0.0739 0.0031,0.003 0.02455,0.0767 0.04758,0.16355 l 0.04191,0.15784 h 0.440153 0.440126 l -0.0039,-1.47063 -0.004,-1.4706 -0.03065,-0.0996 c -0.137358,-0.44634 -0.508339,-0.71284 -1.110065,-0.79745 -0.175768,-0.0248 -0.574435,-0.0279 -0.733551,-0.006 -0.438066,0.0607 -0.75692,0.20041 -1.034965,0.45339 -0.08419,0.0766 -0.222053,0.2393 -0.221291,0.26114 2.54e-4,0.006 0.147546,0.0951 0.327378,0.19705 l 0.326954,0.18539 0.0904,-0.0919 c 0.219202,-0.22279 0.511048,-0.34045 0.842743,-0.3398 0.274264,0 0.461377,0.0861 0.549205,0.2511 0.02399,0.0451 0.02977,0.0835 0.03406,0.2249 l 0.0051,0.17055 -0.188101,0.024 c -0.567944,0.0728 -1.059913,0.19913 -1.416755,0.36372 -0.283407,0.13076 -0.540484,0.35397 -0.649929,0.56436 -0.095,0.18257 -0.118308,0.28877 -0.117235,0.534 0,0.18889 0.0048,0.22312 0.03799,0.33234 0.123923,0.40733 0.402872,0.65174 0.838736,0.73488 0.124262,0.0234 0.456664,0.0166 0.6234,-0.0133 z m -0.226596,-0.67076 c -0.186182,-0.0669 -0.303417,-0.2492 -0.303417,-0.4717 0,-0.30229 0.221375,-0.52313 0.658904,-0.65735 0.144554,-0.0443 0.487313,-0.11574 0.628509,-0.13096 l 0.08509,-0.009 -0.0037,0.45229 -0.0037,0.45235 -0.122259,0.0929 c -0.141591,0.10755 -0.349786,0.21469 -0.495864,0.2551 -0.14876,0.0411 -0.354076,0.0488 -0.443823,0.0164 z m -2.667282,-0.59845 v -1.26108 l 0.04208,-0.0636 c 0.142155,-0.21458 0.477097,-0.33492 0.93266,-0.33503 h 0.139276 v -0.47058 -0.47049 l -0.166426,0.007 c -0.189992,0.008 -0.310247,0.038 -0.481048,0.118 -0.162306,0.076 -0.296587,0.16747 -0.415233,0.28287 l -0.104959,0.10202 -0.0037,-0.21598 -0.0037,-0.21599 -0.472073,-0.004 -0.472101,-0.004 v 1.88629 c 0,1.03742 0.0039,1.89038 0.009,1.89532 0.0051,0.005 0.231168,0.009 0.502666,0.009 h 0.493606 v -1.26111 z m 6.493848,-0.10292 v -1.35049 l 0.06454,-0.0537 c 0.112494,-0.0936 0.250444,-0.1817 0.390567,-0.24954 0.190952,-0.0924 0.27892,-0.11343 0.475516,-0.11357 0.141591,0 0.17193,0.004 0.230943,0.0312 0.08653,0.0399 0.136483,0.0875 0.178929,0.17074 0.07194,0.14103 0.07191,0.14055 0.07216,1.58107 l 2.54e-4,1.3348 h 0.502666 0.502666 l -2.8e-5,-1.328 c 0,-0.80738 -0.0056,-1.38656 -0.01411,-1.47743 -0.01976,-0.20941 -0.05817,-0.35944 -0.130866,-0.50944 -0.05156,-0.10643 -0.0819,-0.14842 -0.172777,-0.23927 -0.0909,-0.0909 -0.132983,-0.1213 -0.239917,-0.17323 -0.192165,-0.0933 -0.334123,-0.12183 -0.610729,-0.12265 -0.325882,0 -0.54308,0.0537 -0.841558,0.21161 -0.119578,0.0633 -0.384838,0.23235 -0.438968,0.27982 -0.01298,0.0116 -0.02681,0.0181 -0.03071,0.0138 -0.0037,-0.004 -0.02596,-0.10256 -0.04947,-0.21954 -0.03875,-0.1936 -0.04513,-0.21268 -0.07115,-0.21271 -0.0315,0 -0.716703,0.0917 -0.765584,0.1025 l -0.03056,0.007 v 1.83377 1.83379 h 0.489063 0.489091 v -1.35048 z m 10.729298,-3.14972 0.0037,-0.54 h 0.190047 0.190048 v -0.0815 -0.0815 h -0.489091 -0.489063 v 0.0815 0.0815 h 0.19019 0.19019 v 0.53436 c 0,0.29388 0.0042,0.53868 0.0096,0.54395 0.0054,0.005 0.05266,0.008 0.105297,0.006 l 0.0957,-0.004 0.0037,-0.54006 z m 0.848783,0.0203 0.0037,-0.52645 0.113453,0.28529 c 0.06243,0.15692 0.156069,0.39382 0.208167,0.52643 l 0.09466,0.24113 h 0.06356 0.06359 l 0.203764,-0.52281 0.203793,-0.52279 0.0037,0.52282 0.0037,0.52278 h 0.101741 0.101713 v -0.62534 -0.62535 l -0.157254,0.004 -0.157226,0.004 -0.179014,0.46428 c -0.09844,0.25536 -0.183049,0.46019 -0.187988,0.45511 -0.0048,-0.005 -0.08997,-0.21553 -0.188976,-0.4677 l -0.179973,-0.4591 H 53.0518 52.890933 v 0.62492 0.62493 h 0.101741 0.101741 l 0.0037,-0.5264 z"
       id="path4703-8"
       inkscape:connector-curvature="0"
       sodipodi:nodetypes="ccccccccccccccsccccccccscccccccccccccccccccccccccccsccccscccccccccccccsccccccccccccccscccccccscccccccccccccccccccccccccccsscsccccscccccsccccccccccccccccccscsccccccccccccccsccccccccccccccccccccccccccccccsccccccccccccccccccccccccccccccccc" />
  </g>
</svg>
